<svg version="1.1" id="Layer_1" xmlns="http://www.w3.org/2000/svg" x="0" y="0" viewBox="0 0 141.7 98.1" xml:space="preserve"><style>.st4{fill:#ff0}.st5{fill:#69f0ae}.st7{fill:#f5f5f5}.st8{fill:#2196f3}.st11{fill:#6c63ff}</style><linearGradient id="SVGID_1_" gradientUnits="userSpaceOnUse" x1="70.866" y1=".961" x2="70.866" y2="99.083" gradientTransform="matrix(1 0 0 -1 0 99.083)"><stop offset="0" stop-color="gray" stop-opacity=".25"/><stop offset=".54" stop-color="gray" stop-opacity=".12"/><stop offset="1" stop-color="gray" stop-opacity=".1"/></linearGradient><path fill="url(#SVGID_1_)" d="M0 0h141.7v98.1H0z"/><path fill="#fff" d="M1.8 1.4h138.7v92.4H1.8z"/><path fill="#bdbdbd" d="M1.8 1.4h138.7v9.1H1.8z"/><circle cx="8.3" cy="6" r="2.2" fill="#ff5252"/><circle class="st4" cx="14.8" cy="6" r="2.2"/><circle class="st5" cx="21.2" cy="6" r="2.2"/><path d="M14.8 20h23.6v2.7H14.8zm0 4.5h23.6v2.7H14.8zm0 4.5h39.3v2.7H14.8zm0 4.5h46.7v2.7H14.8z" fill="#e0e0e0"/><path class="st7" d="M16.7 50.5h7.1v33h-7.1zm11.7 0h7.1v33h-7.1zm11.7 0h7.1v33h-7.1zm11.7 0h7.1v33h-7.1z"/><path class="st8" d="M16.7 67h7.1v16.5h-7.1z"/><path class="st8" d="M16.7 60.1h7.1v7.2h-7.1z" opacity=".4"/><path class="st5" d="M28.4 70.6h7.1v12.9h-7.1z"/><path opacity=".4" fill="#69f0ae" d="M28.4 62.2h7.1v8.4h-7.1z"/><path class="st11" d="M40.1 64.6h7.1v18.9h-7.1z"/><path opacity=".4" fill="#6c63ff" d="M40.1 58h7.1v6.6h-7.1z"/><path class="st4" d="M51.8 71.2h7.1v12.3h-7.1z"/><path opacity=".4" fill="#ff0" d="M51.8 67.3h7.1v3.8h-7.1z"/><linearGradient id="SVGID_2_" gradientUnits="userSpaceOnUse" x1="268.109" y1="-107.125" x2="268.109" y2="-72.173" gradientTransform="matrix(1 0 0 -1 -158 -44.917)"><stop offset="0" stop-color="gray" stop-opacity=".25"/><stop offset=".54" stop-color="gray" stop-opacity=".12"/><stop offset="1" stop-color="gray" stop-opacity=".1"/></linearGradient><path d="M101.4 27.3l-.1 35h.1c9.7 0 17.5-7.8 17.5-17.5s-7.8-17.5-17.5-17.5z" fill="url(#SVGID_2_)"/><linearGradient id="SVGID_3_" gradientUnits="userSpaceOnUse" x1="250.628" y1="-107.125" x2="250.628" y2="-83.921" gradientTransform="matrix(1 0 0 -1 -158 -44.917)"><stop offset="0" stop-color="gray" stop-opacity=".25"/><stop offset=".54" stop-color="gray" stop-opacity=".12"/><stop offset="1" stop-color="gray" stop-opacity=".1"/></linearGradient><path d="M84.9 39c-3.2 9.1 1.7 19.1 10.8 22.2 1.8.6 3.7 1 5.6 1v-15L84.9 39z" fill="url(#SVGID_3_)"/><linearGradient id="SVGID_4_" gradientUnits="userSpaceOnUse" x1="251.112" y1="-92.097" x2="251.112" y2="-72.173" gradientTransform="matrix(1 0 0 -1 -158 -44.917)"><stop offset="0" stop-color="gray" stop-opacity=".25"/><stop offset=".54" stop-color="gray" stop-opacity=".12"/><stop offset="1" stop-color="gray" stop-opacity=".1"/></linearGradient><path d="M101.3 27.3c-7.4 0-14 4.7-16.4 11.7l16.4 8.2V27.3z" fill="url(#SVGID_4_)"/><path class="st11" d="M101.4 28.1l-.1 33.3h.1c9.2 0 16.7-7.5 16.7-16.7s-7.5-16.6-16.7-16.6z"/><path class="st8" d="M85.7 39.3c-3 8.7 1.6 18.2 10.3 21.2 1.7.6 3.5.9 5.4.9V47.1l-15.7-7.8z"/><path class="st5" d="M101.3 28.1c-7.1 0-13.4 4.5-15.7 11.2l15.7 7.8v-19z"/><path class="st8" d="M84 65.7h2.1v2.2H84z"/><path fill="#7c4dff" d="M101.3 65.7h2.1v2.2h-2.1z"/><path class="st5" d="M118.6 65.7h2.1v2.2h-2.1z"/><path class="st7" d="M86.7 66.2h7.2v1.3h-7.2zm17.5 0h7.2v1.3h-7.2zm17.5 0h7.2v1.3h-7.2z"/></svg>.6-2.3v3h2.4V94c0-2.4-.7-4.5-2-5.7-.9-1.4-2.8-2-5.4-2m-19.8 0c-1.6 0-3.1.3-4.5.9-1.2.7-2.3 1.6-3 2.7v-3.5h-2.4v19.4h2.7V95.6c0-2.2.5-3.9 1.9-5.1 1.2-1.2 3-1.9 5-1.9 1.9 0 3.4.5 4.3 1.6.9 1.1 1.5 2.6 1.5 4.6v11.1h2.7V94.5c0-2.7-.8-4.7-2.2-6.2-1.7-1.4-3.6-2-6-2m-31.7 10.5l6.2-13.9 6.2 13.9h-12.4zm16.4 9h3L113.3 80h-2.7l-11.7 25.8h2.8l3.1-6.9h14.3l2.9 6.9z"/><circle class="st0" cx="126.6" cy="52.4" r="3.9"/><circle class="st0" cx="55.2" cy="80.2" r="3.9"/><circle class="st1" cx="152.3" cy="40.3" r="3.9"/><circle class="st0" cx="152.3" cy="16.2" r="3.9"/><circle class="st0" cx="101.2" cy="16.2" r="3.9"/><circle class="st1" cx="101.2" cy="40.3" r="3.9"/><circle class="st1" cx="126.6" cy="28.3" r="3.9"/><circle class="st1" cx="126.6" cy="3.9" r="3.9"/><circle class="st0" cx="101.1" cy="28.3" r="2.5"/><circle class="st0" cx="152.3" cy="28.3" r="2.5"/><circle class="st0" cx="139.6" cy="10.2" r="2.5"/><circle class="st0" cx="113.7" cy="10.2" r="2.5"/><circle class="st0" cx="113.7" cy="46.4" r="2.5"/><circle class="st0" cx="139.6" cy="46.4" r="2.5"/><circle class="st1" cx="213.2" cy="80.5" r="2.5"/><circle class="st0" cx="113.7" cy="22.3" r="2"/><circle class="st0" cx="113.7" cy="34.3" r="2"/><circle class="st0" cx="139.6" cy="34.3" r="2"/><circle class="st0" cx="126.6" cy="40.3" r="2"/><circle class="st0" cx="126.6" cy="16.2" r="2"/><circle class="st0" cx="139.6" cy="22.3" r="2"/></svg>