<svg version="1.1" id="Layer_1" xmlns="http://www.w3.org/2000/svg" x="0" y="0" viewBox="0 0 283.5 163.3" xml:space="preserve"><style>.st1{fill:#ebaf41}.st2{fill:none;stroke:#535461;stroke-miterlimit:10}.st3{opacity:.1;enable-background:new}.st5{fill:#535461}.st6{fill:#fff}.st7{fill:none;stroke:#535461;stroke-width:2;stroke-miterlimit:10}.st8{opacity:.5;fill:#ebaf41;enable-background:new}.st12{fill:#fec3be}.st14{fill:#4d4981}.st16{fill:#fd6f8d}</style><path d="M70.3 107c-17.1-5.9-36.7-10.9-52.7-2.4-2 1.1-4 2.4-5.1 4.5-2.9 5.3 1.7 12.2-.5 17.8-2.2 5.6-10.7 8.4-10 14.4.2 1.6 1 3 2 4.2 6.3 7.7 17.8 8.4 27.5 6.5s19.2-5.8 29.1-5.3c9.5.5 18.3 5.1 27 8.9 14.7 6.5 31.8 11.1 46.5 4.6 6.7-3 12.3-8.1 18.7-11.6 8.7-4.7 18.6-6.6 28.4-5.2 6.5.9 12.8 3.2 19.2 4.8 14.5 3.6 29.7 3.5 44.7 3.4 2.8 0 5.6-.1 8.3-.9 4-1.2 7.2-3.9 10.4-6.6 4.1-3.5 8.5-7.4 9.8-12.6 1.6-6.2-1.7-12.9-6.5-17.1s-11-6.6-17-8.8c-1.5-.5-3.1-1.1-4.6-.7-1 .3-1.8.9-2.6 1.7-4.3 4.1-7.9 11.1-13.7 10-2.1-.4-3.8-1.8-5.4-3.2-8.8-7.1-20.6-12.6-31.2-8.7-7.8 2.9-13.2 10.3-21.1 12.9-5.6 1.9-11.7 1.1-17.6 1.4-8.6.5-16.9 3.5-25.5 3.4-21.9-.5-40.1-21.4-61.8-19.4-1.7.2-3.6.5-4.6 1.9" opacity=".1" fill="#ebaf41"/><path class="st1" d="M42.8 87.1s-18.2 11 15.3 27.8c0 0 7.4-13.7-.8-24.9-3.3-4.5-9.4-5.8-14.3-3.1l-.2.2z"/><path class="st2" d="M43 86.9S58.5 98.8 58.1 115"/><path class="st1" d="M272.5 78c3.7 13.5-12 51.8-12 51.8s-33-25-36.7-38.4c-4-13.4 3.6-27.4 17-31.4s27.4 3.6 31.4 17c.1.2.2.6.3 1z"/><path class="st3" d="M272.5 78c3.7 13.5-12 51.8-12 51.8s-33-25-36.7-38.4c-4-13.4 3.6-27.4 17-31.4s27.4 3.6 31.4 17c.1.2.2.6.3 1z"/><path class="st2" d="M241.6 60.4s20.6 31 19 69.5"/><path class="st1" d="M277.8 102.6s-18.6-10.1-16.3 27.3c0 0 15.5-.6 21.1-13.2 2.2-5.1.3-11.1-4.5-13.9l-.3-.2z"/><path class="st2" d="M278.1 102.6s-2.4 19.4-16.6 27.2"/><path class="st1" d="M4.9 98.4s-18.2 11 15.3 27.8c0 0 7.4-13.7-.8-24.9-3.3-4.5-9.4-5.8-14.3-3.1l-.2.2z"/><path class="st2" d="M5.1 98.2s15.5 11.9 15.1 28.1"/><linearGradient id="SVGID_1_" gradientUnits="userSpaceOnUse" x1="255.55" y1="541.309" x2="255.55" y2="432.609" gradientTransform="translate(-123 -416.11)"><stop offset="0" stop-color="gray" stop-opacity=".25"/><stop offset=".54" stop-color="gray" stop-opacity=".12"/><stop offset="1" stop-color="gray" stop-opacity=".1"/></linearGradient><path d="M231.6 112.7h-19.1c.4-.9.7-1.9.7-2.8v-87c0-3.5-2.9-6.4-6.4-6.4H59c-3.5 0-6.4 2.9-6.4 6.4v86.9c0 1 .2 2 .7 2.8H33.5c-.9 0-1.7.8-1.7 1.7v1.4c0 5.2 4.2 9.5 9.5 9.5h182.5c5.2 0 9.5-4.2 9.5-9.5v-1.4c0-.9-.8-1.6-1.7-1.6zM114 118.1l-1.6-1.9H153l-1.8 1.9H114z" fill="url(#SVGID_1_)"/><path class="st5" d="M61.3 17.7h143.1c3.8 0 6.9 3.1 6.9 6.9v83.6c0 3.8-3.1 6.9-6.9 6.9H61.3c-3.8 0-6.9-3.1-6.9-6.9V24.6c0-3.8 3.1-6.9 6.9-6.9z"/><path class="st6" d="M57.7 31.9h150v79.6h-150z"/><circle class="st6" cx="132.7" cy="25" r="1.3"/><path class="st5" d="M155.9 111.7l-5.2 5.3h-36.3l-4.7-5.3h-74c-.9 0-1.7.7-1.7 1.7v1.3c0 5.1 4.1 9.2 9.2 9.2h178.4c5.1 0 9.2-4.1 9.2-9.2v-1.3c0-.9-.7-1.7-1.7-1.7h-73.2z"/><path class="st7" d="M76.9 36.9v67.7h112"/><path class="st8" d="M86.8 84.1h11.6v17.8H86.8z"/><path opacity=".7" fill="#ebaf41" d="M106.6 68.3h11.6V102h-11.6z"/><path class="st8" d="M126.4 77.8H138v24.1h-11.6z"/><path opacity=".8" fill="#ebaf41" d="M146.3 63h11.6v39h-11.6z"/><path class="st1" d="M166.1 49.1h11.6V102h-11.6z"/><path class="st7" d="M92.4 73.2l20.2-18.1 19.8 17.1 19.5-20.8 19.8-8.2"/><circle class="st1" cx="92.4" cy="73.2" r="2.3"/><circle class="st1" cx="132.1" cy="71.9" r="2.3"/><circle class="st1" cx="152.2" cy="51.4" r="2.3"/><circle class="st1" cx="112.6" cy="54.7" r="2.3"/><circle class="st1" cx="171.7" cy="43.2" r="2.3"/><linearGradient id="SVGID_2_" gradientUnits="userSpaceOnUse" x1="347.147" y1="555.244" x2="347.147" y2="416.109" gradientTransform="translate(-123 -416.11)"><stop offset="0" stop-color="gray" stop-opacity=".25"/><stop offset=".54" stop-color="gray" stop-opacity=".12"/><stop offset="1" stop-color="gray" stop-opacity=".1"/></linearGradient><path d="M257.7 114.6c-1.2-.4-3-.9-4.5-.7-1.4-.5-4.6-1.8-6.8-3.7.1-1.9 0-3.8-.1-5.7-1.1-12.7 1.4-21.1 1.4-21.1s2-6.4 1.8-11.7l.2.4c.2-4.6 1.7-9.3 2.9-12.3h.1l1.3-3.1c.1-.2.2-.4.2-.6l.2-.5h-.1c0-.1 0-.2.1-.3.8-3.5 1.5-11.9 1.5-11.9 2.2-8.8-3.1-14.3-3.1-14.3l-9-7.8c0 .1.1.2.1.3l-.1-.1c-.1-.4-.3-.8-.4-1.3.3-.2.6-.5.9-.8 1-1 1.7-2.2 2-3.6.2-1.1.2-2.2.1-3.3l-.1-3.7c0-.7-.1-1.5-.2-2.2-.7-3-3.7-5.1-6.8-5.2-1 0-1.9 0-2.9.2-.8.1-1.6.1-2.4.1-.1 0-.2 0-.3-.1s-.1-.2-.1-.3c0-.4.1-.7.3-1 .1-.1.3-.2.4-.2l-.2.1c.1-.1.2-.1.4-.2-.8.1-1.6.4-2.3.8-.2.1-.4.3-.5.4-.4.4-.7.9-.8 1.4-.4-.3-.6-.7-.8-1.2V.8l-.2.2V.9c-.6.7-1 1.5-1.2 2.4-.2-.2-.2-.4-.2-.7 0 .1-.1.3-.1.4v-.3c-.3 1.1-.5 2.2-.5 3.3s.5 2.9 1.7 3.3c.1 0 .1 0 .2.1-2.3 3.5-1.2 8.2 2.3 10.4.9.6 1.8.9 2.8 1.1 0 .1 0 .3.1.4 0 .3.1.6.1 1-.3.3-.6.6-1 .8-1 .6-2.1 1-3.3 1.1-1.4.1-2.7.5-4 1.2-1.4.8-3 2-3.5 3.4-.8 2.4-5.4 6.1-8.5 6.5l-1.1-.1h-.8s0 .1-.1.4c-1.5-.5-4.8-2-9.1-5.9-4.8-4.3-11.2-3.5-13.7-2.9-.2.1-.4.3-.3.5 0 .1.1.2.2.3 1 .5 2.6 1.3 3.3 1.4 0 0-1.5 1.6.1 2.4.4.2.8.1 1.2-.1.8-.6 2.9.7 6 1.4 0 0 8.7 9 13 10.4l.3.6h.4v.3s6.7-.4 8.9-2.8c.2-.1.3-.3.4-.5l-2.3 29.4v.3h1.7c.1 3.6 0 7.2-.5 10.8v19.2s-.1 1.7 3.4 4.2c3.7 2.6 7.2 5.3 10.6 8.2l.4.4c-.6 5.9-2 16.8-3.1 17.2l.7.1c-1.2 1.5-4.6 5.6-5.6 5.8-1.3.1-2.1 2.1 0 2.5 4.2.7 8.5.3 12.5-1.2.8-.3 1.3-1.2 1.2-2l-.4-3.1c.1 0 .1.1.2.2.3.8 0-1.1 0-1.1 1.2-3.7 2.1-7.5 2.7-11.3l4.2 3.6s.1-.1.2-.3c1 2.3 2.8 7 2.4 10.5-.6 4.8 4.8.6 4.2-2.2-.5-2.3 1.6-11.9 2.4-15.5.5-.7.1-1.5-.7-1.8z" fill="url(#SVGID_2_)"/><path class="st12" d="M214.2 37s-4-.7-9.8-6c-4.7-4.2-10.9-3.4-13.3-2.9-.2 0-.4.3-.3.5 0 .1.1.2.2.3 1 .5 2.5 1.3 3.2 1.4 0 0-1.5 1.5.1 2.3.4.2.8.1 1.2-.1.7-.5 2.8.7 5.8 1.3 0 0 11.8 12.2 14.5 10.1l-1.6-6.9zm20.3-16.6s1.1 4.6 0 7.9l4.9.7 4.4-2.2V24s-2.1-4.4-1.5-9.4l-7.8 5.8z"/><path d="M248.4 121.1s3.6 7 3 11.6c-.6 4.6 4.6.5 4.1-2.2-.4-2.2 1.5-11.6 2.3-15.1.2-.8-.3-1.6-1-1.8-1.6-.5-4.4-1.2-5.8-.2-2 1.6-2.6 7.7-2.6 7.7zm-13.5 7.7s-4.6 6-5.9 6.2c-1.2.1-2.1 2.1 0 2.5 4.1.7 8.3.3 12.2-1.2.8-.3 1.3-1.1 1.2-2l-.8-5.9-6.7.4z" fill="#8b416f"/><path class="st14" d="M227.2 65l-4.5.6c.6 5.2.6 10.5-.1 15.7V100s-.1 1.6 3.3 4c3.6 2.5 7 5.2 10.4 8l12.4 10.7s4.9-6 4.2-9.6c0 0-8.2-2.6-9.3-6.8-.6-2.4-3.8-4.5-6.4-5.7-3.4-1.6-5.1-5.4-4.3-9 .2-.6.4-1.2.7-1.8 2.2-3.8 5.3-12.4 5.3-12.4l-6-11.5-5.7-.9z"/><path d="M227.2 65l-4.5.6c.6 5.2.6 10.5-.1 15.7V100s-.1 1.6 3.3 4c3.6 2.5 7 5.2 10.4 8l12.4 10.7s4.9-6 4.2-9.6c0 0-8.2-2.6-9.3-6.8-.6-2.4-3.8-4.5-6.4-5.7-3.4-1.6-5.1-5.4-4.3-9 .2-.6.4-1.2.7-1.8 2.2-3.8 5.3-12.4 5.3-12.4l-6-11.5-5.7-.9z" opacity=".05"/><path class="st14" d="M233.8 129.2s8.1 1.4 8.3 2.2c.3.8 0-1.1 0-1.1s4.6-14.1 3.6-26.5c-1.1-12.4 1.4-20.6 1.4-20.6s2.9-9.3 1.2-14.6-18.9-3-18.9-3 6 14.1 5.9 20.8c0 0 .7 20.2 1.9 22.6 0-.2-1.9 19.7-3.4 20.2z"/><path class="st6" d="M234.7 24s.8 5.1 9 2.9l-5.5 41.5s-15.9.5-15.7-1.4l3.3-25.1 8.9-17.9z"/><path class="st3" d="M234.9 23.7c-1.1 1.1-2.5 1.7-3.9 1.9-1.4.1-2.7.5-3.9 1.2-1.4.8-3 1.9-3.4 3.3-1 2.7-7 7.2-9.7 6.3l1 8.2s7.8-.4 9.2-3.4l-2.3 29.3h2.1s1.1-7.9 1.9-9.6c.8-1.6 2.5-10.7 2.6-12.8.1-2.2 2.2-14.8 4-16.9l2.7-6.5-.3-1z"/><path class="st3" d="M234.9 24.1c-1.2 1-2.7 1.6-4.2 1.7-1.4.1-2.7.5-3.9 1.2-1.4.8-3 1.9-3.4 3.3-1 2.7-7 7.2-9.7 6.3l1 8.2s7.8-.4 9.2-3.4l-2.3 29.2h2.1s1.1-7.9 1.9-9.6c.8-1.6 2.5-10.7 2.6-12.8.1-2.2 2.2-14.8 4-16.9l2.9-6.4v-.8h-.2z"/><path class="st16" d="M234.9 23.8c-1.2 1-2.7 1.6-4.2 1.7-1.4.1-2.7.5-3.9 1.2-1.4.8-3 1.9-3.4 3.3-1 2.7-7 7.2-9.7 6.3l1 8.2s7.8-.4 9.2-3.4l-2.3 29.3h2.1s1.1-7.9 1.9-9.6c.8-1.6 2.5-10.7 2.6-12.8s2.2-14.8 4-16.9l2.9-6.4-.2-.9z"/><path class="st3" d="M241.9 18.6c-.2-1.3.2-2.1.3-3.6l-7.8 5.9s.2.8.3 2c.4.1.8.1 1.2.1 2.8-.1 4.7-2.2 6-4.4z"/><circle class="st12" cx="236" cy="15.1" r="7.4"/><path class="st3" d="M227.9 7.9c0-1.2.2-2.5.6-3.7-.3.4-.2.9.2 1.2.2-1.3.9-2.4 1.9-3.3-.5.1-.8.7-.7 1.3.2.5.5.9.9 1.3 0-.8.5-1.5 1.1-1.9.7-.4 1.4-.7 2.2-.8-.5.2-.9.7-.8 1.3 0 .1 0 .2.1.3.1 0 .2.1.2.1.8 0 1.5 0 2.3-.1.9-.1 1.9-.2 2.8-.2 3 .1 6 2.2 6.6 5.1.1.7.2 1.4.2 2.1l.1 3.7c.1 1.1 0 2.1-.1 3.2-.4 2-1.7 3.7-3.5 4.6-1.1-1.6-1.2-3.6-1.5-5.4-.1-.4-.2-.8-.5-1.2s-.7-.5-1.1-.4c-.4.2-.6.8-.2 1-.3.4-.9.1-1.2-.2-.9-.9-1.6-2-1.9-3.3-.1-.6-.3-1.4-.9-1.6-.2-.1-.4-.1-.7 0-1.3.1-3.3.6-4.6.2-1-.5-1.5-2.3-1.5-3.3z"/><path d="M228.1 7.7c0-1.2.2-2.5.6-3.7-.3.4-.2.9.2 1.2.2-1.3.9-2.4 1.9-3.3-.5.1-.8.7-.7 1.3.2.5.5.9.9 1.3 0-.8.5-1.5 1.1-1.9.7-.4 1.4-.7 2.2-.8-.5.2-.9.7-.8 1.3 0 .1 0 .2.1.3.1 0 .2.1.2.1.8 0 1.5 0 2.3-.1.9-.1 1.9-.2 2.8-.2 3 .1 6 2.2 6.6 5.1.1.7.2 1.4.2 2.1l.1 3.7c.1 1.1 0 2.1-.1 3.2-.4 2-1.7 3.7-3.5 4.6-1.1-1.6-1.2-3.6-1.5-5.4-.1-.4-.2-.8-.5-1.2s-.7-.5-1.1-.4c-.4.2-.6.8-.2 1-.3.4-.9.1-1.2-.2-.9-.9-1.6-2-1.9-3.3-.1-.6-.3-1.4-.9-1.6-.2-.1-.4-.1-.7 0-1.3.1-3.3.6-4.6.2-1.1-.5-1.5-2.2-1.5-3.3z" fill="#784f69"/><path class="st3" d="M213.3 36.3s-1.1 5.1 1 8.2l1.2-.1-.6-8-1.6-.1z"/><path class="st16" d="M213.6 36.3s-1.1 5.1 1 8.2l1.2-.1-.6-8-1.6-.1z"/><path class="st3" d="M243 22.5l8.8 7.6s5.2 5.3 3 13.9c0 0-1 12.6-2.1 13.1 0 0-3.8 7.7-4.1 14.9 0 0-5.1-10.3-7.4-4s-7.7 7.2-7.7 7.2l3-37.2s7.6-13.1 6.5-15.5z"/><path class="st16" d="M243.3 22.5l8.8 7.6s5.2 5.3 3 13.9c0 0-1 12.6-2.1 13.1 0 0-3.8 7.7-4.1 14.9 0 0-5.4-10.9-7.7-4.6s-7.4 7.7-7.4 7.7l3-37.2c0 .2 7.6-13 6.5-15.4z"/><path class="st12" d="M247.3 54.6s2.2-1.5 5.7 2.6L244.3 73l-2.9-4.4s6.2-12.2 5.9-14z"/><path class="st3" d="M245.2 55.5s4.8 5.4 6.7 4.6l1.7-4.1-6.6-2.8-1.8 2.3z"/><path class="st16" d="M245.2 55.2s4.8 5.4 6.7 4.6l1.7-4.1-6.6-2.8-1.8 2.3z"/><path class="st3" d="M241.7 67.6s2.3 4.7 3.5 5l-1.8 2.1-2.6-4.9.9-2.2z"/><path class="st14" d="M241.5 67.7s2.3 4.7 3.5 5l-1.8 2.1-2.6-4.9.9-2.2z"/><path class="st3" d="M245.9 38.5s.3 9.8-.8 13.5m-21.4-11.6s1.6-.5 1.6-1.9"/><path class="st7" d="M24.6 42.1s-7.8 16.1-2.7 35.2 3.5 41.9-1.6 47.5"/><circle class="st1" cx="24.6" cy="42.1" r="2.1"/><path class="st7" d="M21.3 52.4s8.1 1.5 10.2-1.5m-10.9 6.2s-4.9-5.4-4.6-8.6M20.2 67s4.4 1.2 8.5-7.4m-7.4 14.5s-11-7.1-9.7-11.6M23 82.2s7.7-6.8 6.9-13.6m-6 18.4s-9.8-2.7-9.5-7m10.2 12.7s6.2-5.7 7-9.2M25 102.4s-6.3-7.4-6.6-11.2m6.6 17.3s7.1-7.9 7.6-11.6"/><circle class="st1" cx="16" cy="49.1" r="2.1"/><circle class="st1" cx="13.6" cy="80" r="2.1"/><circle class="st1" cx="11.7" cy="62.5" r="2.1"/><circle class="st1" cx="31.6" cy="50.9" r="2.1"/><circle class="st1" cx="31.6" cy="84" r="2.1"/><circle class="st1" cx="28.1" cy="59.5" r="2.1"/><circle class="st1" cx="32.4" cy="98.2" r="2.1"/><circle class="st1" cx="17.9" cy="92.6" r="2.1"/><circle class="st1" cx="30.2" cy="68.7" r="2.1"/></svg>