<?xml version="1.0" encoding="utf-8"?>
<!-- Generator: Adobe Illustrator 23.0.1, SVG Export Plug-In . SVG Version: 6.00 Build 0)  -->
<svg version="1.1" id="cb7db7bb-371f-430c-ab8e-9f8547f8cfe6"
	 xmlns="http://www.w3.org/2000/svg" xmlns:xlink="http://www.w3.org/1999/xlink" x="0px" y="0px" viewBox="0 0 1130 868.1"
	 style="enable-background:new 0 0 1130 868.1;" xml:space="preserve">
<style type="text/css">
	.st0{fill:#F3FBFE;}
	.st1{opacity:0.1;fill:#3C6FE9;enable-background:new    ;}
	.st2{fill:#E7E7E7;}
	.st3{opacity:0.1;enable-background:new    ;}
	.st4{fill:#18243F;}
	.st5{fill:#153559;}
	.st6{fill:#FFFFFF;}
	.st7{fill:#3C6FE9;}
	.st8{fill:#EDEDF4;}
	.st9{fill:#89DAF8;}
	.st10{opacity:0.5;fill:#DCE0ED;enable-background:new    ;}
	.st11{opacity:0.5;fill:#3C6FE9;enable-background:new    ;}
	.st12{fill:#E9425E;}
</style>
<title>dashboard</title>
<path class="st0" d="M1108.1,197.7c-11.5-22.4-26.7-42.8-44.8-60.4l-621.9-5.2l512-60.8c-33.5-11.2-68.6-17.1-103.9-17.4
	C800.3,20.2,736.9,0,667.8,0c-62,0-119.3,16.3-166.1,43.9c-39.7-17.3-85-27.1-133.1-27.1C230.4,16.8,115.3,97.7,89.5,205
	L1108.1,197.7z"/>
<path class="st0" d="M1130,287.6c0-29.4-6.7-58.4-19.4-84.9L32.9,298.4c-11,16.6-19.5,34.8-25.3,53.9l333.8,42.1L0,425
	c10.3,121.5,133.4,217.4,283.9,217.4c75.7,0,144.5-24.3,195.5-63.9c51.2,40.4,120.6,65.2,197.2,65.2c113.6,0,211.6-54.7,257.2-133.7
	c91.6-24.6,162.7-86.3,187.1-163.5l-422.1-55.3H1130C1130,289.9,1130,288.8,1130,287.6z"/>
<ellipse class="st1" cx="500" cy="855.2" rx="290" ry="12.9"/>
<path class="st2" d="M672.1,832.4v7.8H440.8v-6.3c39.4-14.6,59.4-58.3,44.9-97.7c-7-18.9-21.3-34.3-39.6-42.7h224.5
	c-38.2,17.5-54.9,62.6-37.5,100.7C640.9,811.3,654.8,824.9,672.1,832.4L672.1,832.4z"/>
<path class="st3" d="M670.5,693.5c-20.9,9.6-36.3,28.1-42,50.4H488.1c-5.7-22.3-21.1-40.8-42-50.4H670.5z"/>
<path class="st2" d="M176,653.6v43.9c0,24.2,17.7,43.9,39.6,43.9H896c21.9,0,39.6-19.7,39.6-43.9v-43.9H176z"/>
<path class="st3" d="M672.1,832.4v7.8H440.8v-6.3c6.3-2.4,12.3-5.6,17.8-9.5h199.2C662.3,827.5,667.1,830.2,672.1,832.4z"/>
<path class="st2" d="M373.9,826.8H739c5.2,0,9.5,4.3,9.5,9.5v4.2c0,5.2-4.3,9.5-9.5,9.5H373.9c-5.2,0-9.5-4.3-9.5-9.5v-4.2
	C364.4,831.1,368.7,826.8,373.9,826.8z"/>
<path class="st4" d="M935.7,172.6c0-21.9-17.8-39.6-39.6-39.6H215.7c-21.9,0-39.6,17.7-39.7,39.6v489.6h759.7V172.6z"/>
<path class="st5" d="M915,190.3V611c0,10.8-8.7,19.5-19.5,19.5l0,0H216.3c-10.8,0-19.5-8.7-19.5-19.5l0,0V190.3
	c0-10.8,8.7-19.5,19.5-19.5h679.2C906.2,170.8,915,179.5,915,190.3L915,190.3z"/>
<circle class="st6" cx="555.8" cy="151.9" r="9.2"/>
<circle class="st6" cx="555.8" cy="699.4" r="22.6"/>
<path class="st5" d="M348.5,180.5v449.9H216.3c-10.8,0-19.5-8.7-19.5-19.5l0,0V190.3l0.7-2.6l1.9-7.1L348.5,180.5L348.5,180.5z"/>
<polygon class="st5" points="365.5,187.6 365.5,228.1 196.8,228.1 196.8,190.3 197.5,187.6 "/>
<path class="st7" d="M915,190.3H196.8c0-10.8,8.7-19.5,19.5-19.5l0,0h679.2C906.2,170.8,915,179.5,915,190.3L915,190.3z"/>
<circle class="st8" cx="216.3" cy="180.5" r="4.9"/>
<circle class="st8" cx="230.9" cy="180.5" r="4.9"/>
<circle class="st8" cx="245.5" cy="180.5" r="4.9"/>
<rect x="222" y="205.5" class="st7" width="101.3" height="9.3"/>
<rect x="222" y="251" class="st9" width="101.3" height="9.3"/>
<rect x="222" y="283.1" class="st9" width="101.3" height="9.3"/>
<rect x="222" y="315.3" class="st9" width="101.3" height="9.3"/>
<rect x="222" y="347.5" class="st9" width="101.3" height="9.3"/>
<rect x="222" y="379.6" class="st9" width="101.3" height="9.3"/>
<rect x="222" y="411.8" class="st9" width="101.3" height="9.3"/>
<rect x="222" y="444" class="st9" width="101.3" height="9.3"/>
<rect x="431.5" y="239.8" class="st10" width="449" height="1.5"/>
<rect x="431.5" y="274.6" class="st10" width="449" height="1.5"/>
<rect x="431.5" y="309.5" class="st10" width="449" height="1.5"/>
<rect x="431.5" y="344.3" class="st10" width="449" height="1.5"/>
<rect x="431.5" y="379.1" class="st10" width="449" height="1.5"/>
<polygon class="st11" points="880.5,380.6 430.9,380.6 430.9,312.1 472.2,332.4 514.8,338.2 552.3,326.9 597.5,291.9 620.2,278.8 
	636.8,275.6 652.7,276.4 678.8,289.3 714.3,312 742.2,315.5 764.3,307.9 811.2,269.5 835.1,261 860.1,264.9 880.5,276.7 "/>
<path class="st7" d="M509.3,338.2c-40.5,0-77.9-24.8-78.4-25.1l1.1-1.7c0.6,0.4,58.2,38.5,107.1,19.4c17.9-6.9,30.5-17.8,42.9-28.2
	c12.8-10.9,25-21.3,41.5-25.7c19-5.1,39.7-0.5,55.4,12.4c13.4,11,40.2,28.8,68.5,23.5c14.4-2.7,26.6-13.2,39.5-24.4
	c24.6-21.4,50.2-43.5,94.3-11.8l-1.2,1.6c-42.8-30.8-67.8-9.2-91.8,11.7c-13.1,11.3-25.4,22-40.4,24.9
	c-29.1,5.5-56.4-12.6-70.2-23.9c-15.2-12.5-35.3-17-53.6-12c-16.1,4.4-28,14.5-40.7,25.3c-12.4,10.6-25.2,21.5-43.4,28.6
	C530.1,336.5,519.7,338.3,509.3,338.2z"/>
<circle class="st12" cx="647.5" cy="275.4" r="11.1"/>
<g>
	<rect x="471.2" y="458.6" class="st9" width="66" height="14"/>
	<rect x="622.7" y="458.6" class="st9" width="66" height="14"/>
	<rect x="774.3" y="458.6" class="st9" width="66" height="14"/>
</g>
<path class="st7" d="M466.5,556.4c0-20.4,16.6-36.1,37.1-36.1h0.3V511h-0.3c-25.6,0-46.4,19.9-46.4,45.4c0,13.4,5.8,26.1,15.9,34.9
	l6.6-6.6C471.3,577.7,466.5,567.3,466.5,556.4z"/>
<path class="st11" d="M504.8,511v9.3c20.5,0.1,37,16.8,36.8,37.3c-0.1,20.5-16.8,37-37.3,36.8c-8.7-0.1-17.1-3.2-23.7-8.8l-6.6,6.6
	c19.3,16.9,48.6,14.9,65.4-4.4c16.9-19.3,14.9-48.6-4.4-65.4C526.6,515.1,515.9,511.1,504.8,511L504.8,511z"/>
<path class="st11" d="M808.8,519.8c20.4,0,36.1,16.6,36.1,37.1c0,0.1,0,0.2,0,0.3h9.3c0-0.1,0-0.2,0-0.3c0-25.6-19.9-46.4-45.4-46.4
	c-13.4,0-26.1,5.8-34.9,15.9l6.6,6.6C787.5,524.6,797.9,519.8,808.8,519.8z"/>
<path class="st7" d="M854.2,558.1h-9.3c-0.1,20.5-16.8,37-37.3,36.8c-20.5-0.1-37-16.8-36.8-37.3c0.1-8.7,3.2-17.1,8.8-23.7
	l-6.6-6.6c-16.9,19.3-14.9,48.6,4.4,65.4c19.3,16.9,48.6,14.9,65.4-4.4C850.1,580,854.2,569.2,854.2,558.1L854.2,558.1z"/>
<path class="st11" d="M674,513.7l-1.8,9.3c13.6,5.5,22.3,18.8,22.3,34.4c0,20.5-16.6,37.1-37.1,37.1s-37.1-16.6-37.1-37.1
	c0-14.7,8.7-28.1,22.2-34l-4.1-8.3c-23.3,10.5-33.8,38-23.2,61.3c10.5,23.3,38,33.8,61.3,23.2c16.6-7.5,27.3-24,27.3-42.2
	C703.8,537.3,691.9,520.2,674,513.7z"/>
<path class="st7" d="M658.6,519.7c4.4,0,8.8,0.9,12.9,2.7l1.8-9.2c-4.7-1.8-9.7-2.7-14.8-2.7c-6.6,0-13,1.4-19,4.1l4.2,8.3
	C648.4,520.8,653.5,519.7,658.6,519.7z"/>
</svg>
