<?xml version="1.0" encoding="utf-8"?>
<!-- Generator: Adobe Illustrator 23.0.1, SVG Export Plug-In . SVG Version: 6.00 Build 0)  -->
<svg version="1.1" id="Layer_1" xmlns="http://www.w3.org/2000/svg" xmlns:xlink="http://www.w3.org/1999/xlink" x="0px" y="0px"
	 viewBox="0 0 278 172" style="enable-background:new 0 0 278 172;" xml:space="preserve">
<style type="text/css">
	.st0{fill:#EBEBEB;}
	.st1{fill:#89DAF8;}
	.st2{fill:#46FCD7;}
	.st3{fill:#153559;}
	.st4{fill:#003EEC;}
	.st5{fill:#FFFFFF;}
	.st6{fill:#18243F;}
	.st7{fill:#3C6FE9;}
	.st8{fill:#0038BA;}
	.st9{fill:#E9425E;}
	.st10{fill:#31B096;}
	.st11{fill:#EBAF41;}
	.st12{fill:#1F7060;}
	.st13{fill:#907634;}
	.st14{fill:#F0C161;}
</style>
<rect x="241.2" y="55.5" class="st0" width="14.5" height="13.5"/>
<rect x="218.6" y="55.5" class="st0" width="14.5" height="13.5"/>
<rect x="196.1" y="55.5" class="st1" width="14.5" height="13.5"/>
<rect x="173.6" y="55.5" class="st0" width="14.5" height="13.5"/>
<rect x="218.6" y="78" class="st0" width="14.5" height="13.5"/>
<rect x="196.1" y="78" class="st0" width="14.5" height="13.5"/>
<rect x="196.1" y="100.5" class="st0" width="14.5" height="13.5"/>
<path class="st2" d="M268.8,44.8v-8.9c0-6.3-5.7-11.5-11.4-11.5H172c-5.7,0-11.4,5.2-11.4,11.5v8.8L268.8,44.8L268.8,44.8z"/>
<path class="st3" d="M256.5,127.2h-83.7c-12.7,0-14-15.4-14-22.1V40.9l0,0v-4.2c0-7.8,6.3-14.1,14-14.1h83.7c7.7,0,14,6.3,14,14.1
	v4.2l0,0v64.2C270.5,111.7,269,127.2,256.5,127.2z M162.2,41.6v63.5c0,12,3.7,18.6,10.5,18.6h83.7c6.7,0,10.5-6.6,10.5-18.6V41.7
	l-0.1-0.1l0.1-4.9c0-5.8-4.7-10.5-10.5-10.5h-83.7c-5.8,0-10.5,4.7-10.5,10.6V41.6L162.2,41.6z"/>
<rect x="175.5" y="80.1" class="st4" width="13.5" height="13.5"/>
<rect x="175.5" y="99.6" class="st4" width="13.5" height="13.5"/>
<path class="st5" d="M275.7,108.7c0,16.2-13.1,29.3-29.3,29.3l0,0c-16.2,0-29.3-13.1-29.3-29.3l0,0c0-16.2,13.1-29.3,29.3-29.3l0,0
	C262.6,79.4,275.7,92.5,275.7,108.7L275.7,108.7z"/>
<path class="st3" d="M246.4,140.2c-17.4,0-31.6-14.2-31.6-31.6S229,77,246.4,77S278,91.2,278,108.6
	C278,126.1,263.8,140.2,246.4,140.2z M246.4,80.4c-15.5,0-28.3,12.6-28.3,28.3s12.6,28.3,28.3,28.3c15.5,0,28.3-12.6,28.3-28.3
	S262,80.4,246.4,80.4z"/>
<path class="st3" d="M246.6,102.9c3.3,0,6,2.7,6,6s-2.7,6-6,6s-6-2.7-6-6C240.6,105.4,243.2,102.9,246.6,102.9z"/>
<path class="st0" d="M200.9,159.7c0,2.9-4.8,5.2-7.7,5.2H77.3c-2.9,0-7.1-2.3-7.1-5.2V80.6c0-2.9,2.3-5.2,5.2-5.2h120.2
	c2.9,0,5.2,2.3,5.2,5.2L200.9,159.7L200.9,159.7z"/>
<path class="st6" d="M193.2,166.8H77.3c-3.6,0-9-2.9-9-7.1V80.6c0-3.9,3.2-7.1,7.1-7.1h120.2c3.9,0,7.1,3.2,7.1,7.1v79.1
	C202.8,164.1,196.6,166.8,193.2,166.8z M75.5,76.6c-1.8,0-4.1,2.5-4.1,4.3v78.8c0,1.4,3.7,3.3,6,3.3h115.9c2.3,0,6.5-2,6.5-3.3V80.9
	c0-1.8-2.2-4.3-4-4.3H75.5z"/>
<path class="st0" d="M60.7,159.1v3c0,4.4,4.7,8.4,11.1,8.4h126.7c6.4,0,11.8-4,11.8-8.4v-3H60.7z"/>
<rect x="80.7" y="88.9" class="st5" width="110.4" height="70.3"/>
<path class="st6" d="M191.1,159.6H80.7c-1.1,0-1.9-0.9-1.9-1.9V88.9c0-1.1,0.9-1.9,1.9-1.9h110.4c1.1,0,1.9,0.9,1.9,1.9v68.9
	C193,158.8,192.2,159.6,191.1,159.6z M82,157.8h107.8V90.1H82V157.8z"/>
<path class="st6" d="M147.2,165.9h-23.3c-4.2,0-7.4-2.9-8.1-7.4l4.2,0.4c0.4,2.4,1.8,2.8,3.9,2.8h23.3c2,0,3.5-0.6,3.9-3.1l4.2-0.4
	C154.6,162.8,151.3,165.9,147.2,165.9z"/>
<path class="st6" d="M135.8,150c-3.2,0-6.5-1.4-10.1-4.2c-0.1,0-0.1-0.1-0.2-0.1c0,0,0,0-0.1,0H90.8c-1,0-1.8-0.8-1.8-1.8
	s0.8-1.8,1.8-1.8h34.7c0.9,0,1.8,0.3,2.4,0.9c2.9,2.3,5.5,3.4,7.9,3.4c2.4,0,5-1.1,7.9-3.4c0.6-0.6,1.5-0.9,2.4-0.9h34.7
	c1,0,1.8,0.8,1.8,1.8s-0.8,1.8-1.8,1.8h-34.7H146l-0.1,0.1C142.3,148.6,139,150,135.8,150z"/>
<path class="st5" d="M179.6,64.4h-34.5c0,0-8.4-0.9-10.2,5.5c-3.4-5.8-8.8-5.5-8.8-5.5H90.4V138h39.9c1,2.8,3.8,3.4,5.3,3.4
	c1.7,0,4.1-0.5,5.1-3.4h38.9V64.4z"/>
<rect x="101.6" y="74.4" class="st0" width="24.9" height="11.3"/>
<rect x="101.6" y="114" class="st0" width="24.9" height="11.3"/>
<rect x="144" y="87.1" class="st0" width="27.3" height="24.1"/>
<path class="st1" d="M123.3,101.7h-19.8c-1.1,0-1.9-0.9-1.9-1.9c0-1.1,0.9-1.9,1.9-1.9h19.8c1.1,0,1.9,0.9,1.9,1.9
	C125.2,100.9,124.3,101.7,123.3,101.7z"/>
<path class="st1" d="M123.5,94.2h-19.8c-1.2,0-2.1-1-2.1-2.1c0-1.2,0.9-2.1,2.1-2.1h19.8c1.2,0,2.1,1,2.1,2.1S124.7,94.2,123.5,94.2
	z"/>
<path class="st1" d="M170.2,82.8h-24.1c-1.2,0-2.1-1-2.1-2.1c0-1.2,0.9-2.1,2.1-2.1h24.1c1.2,0,2.1,1,2.1,2.1
	C172.3,81.9,171.3,82.8,170.2,82.8z"/>
<path class="st1" d="M170.2,75.8h-24.1c-1.2,0-2.1-1-2.1-2.1c0-1.2,0.9-2.1,2.1-2.1h24.1c1.2,0,2.1,1,2.1,2.1S171.3,75.8,170.2,75.8
	z"/>
<path class="st1" d="M168.8,126.7h-22.7c-1.2,0-2.1-1-2.1-2.1c0-1.2,0.9-2.1,2.1-2.1h22.6c1.2,0,2.1,1,2.1,2.1
	C170.9,125.8,169.9,126.7,168.8,126.7z"/>
<path class="st1" d="M168.8,119.6h-22.7c-1.2,0-2.1-1-2.1-2.1s0.9-2.1,2.1-2.1h22.6c1.2,0,2.1,1,2.1,2.1S169.9,119.6,168.8,119.6z"
	/>
<path class="st1" d="M123.5,109.7h-19.8c-1.2,0-2.1-1-2.1-2.1c0-1.2,0.9-2.1,2.1-2.1h19.8c1.2,0,2.1,1,2.1,2.1
	C125.6,108.8,124.7,109.7,123.5,109.7z"/>
<path class="st6" d="M135.6,143.2c-2.2,0-5-0.9-6.4-3.4H90.4c-1,0-1.8-0.8-1.8-1.8V64.4c0-1,0.8-1.8,1.8-1.8h35.7
	c0.2,0,5-0.2,8.8,4.1c3.5-4.4,9.9-4.1,10.2-4.1h34.4c1,0,1.8,0.8,1.8,1.8V138c0,1-0.8,1.8-1.8,1.8h-37.8
	C140.6,142,138.5,143.2,135.6,143.2z M92.1,136.2h38.1c0.7,0,1.4,0.5,1.6,1.2c0.8,2.1,3.2,2.2,3.7,2.2c2.4,0,3.1-1.2,3.4-2.2
	c0.2-0.7,0.9-1.2,1.7-1.2h37.1V66.1h-32.8c-0.2,0-6.6-0.2-8.4,4.4c-0.2,0.6-0.8,1.1-1.5,1.1s-1.3-0.3-1.6-0.9
	c-2.8-4.8-7.2-4.6-7.4-4.6H92L92.1,136.2L92.1,136.2z"/>
<path class="st3" d="M246.5,111c-0.4,0-0.9-0.2-1.2-0.5l-15.7-15.7c-0.7-0.7-0.7-1.8,0-2.5s1.8-0.7,2.5,0l14.5,14.5l10.6-10.6
	c0.7-0.7,1.8-0.7,2.5,0s0.7,1.8,0,2.5l-11.8,11.8C247.4,110.8,246.9,111,246.5,111z"/>
<path class="st6" d="M201,172H70.1c-6.3,0-11.4-4.8-11.4-10.6v-2c0-1,0.8-1.8,1.8-1.8h150.8c1,0,1.8,0.8,1.8,1.8v2
	C213,167.1,207.4,172,201,172z M62.2,161.2v0.2c0,3.9,3.5,7.1,7.9,7.1H201c4.5,0,8.5-3.4,8.5-7.1v-0.2H62.2z"/>
<path class="st3" d="M177.8,39.5c-3.7,0-6.8-3-6.8-6.8v-9c0-3.7,3-6.8,6.8-6.8c3.7,0,6.8,3,6.8,6.8v9
	C184.5,36.5,181.5,39.5,177.8,39.5z"/>
<path class="st3" d="M225.9,39.5c-3.7,0-6.8-3-6.8-6.8v-9c0-3.7,3-6.8,6.8-6.8c3.7,0,6.8,3,6.8,6.8v9
	C232.7,36.5,229.6,39.5,225.9,39.5z"/>
<path class="st3" d="M201.8,39.5c-3.7,0-6.8-3-6.8-6.8v-9c0-3.7,3-6.8,6.8-6.8c3.7,0,6.8,3,6.8,6.8v9
	C208.6,36.5,205.6,39.5,201.8,39.5z"/>
<path class="st3" d="M249.9,39.5c-3.7,0-6.8-3-6.8-6.8v-9c0-3.7,3-6.8,6.8-6.8c3.7,0,6.8,3,6.8,6.8v9
	C256.7,36.5,253.7,39.5,249.9,39.5z"/>
<path class="st5" d="M181.8,32.4c0,2.3-1.8,4.2-4.1,4.2l0,0c-2.3,0-4.1-1.9-4.1-4.2V24c0-2.3,1.8-4.2,4.1-4.2l0,0
	c2.3,0,4.1,1.9,4.1,4.2V32.4z"/>
<path class="st5" d="M205.9,32.4c0,2.3-1.8,4.2-4.1,4.2l0,0c-2.3,0-4.1-1.9-4.1-4.2V24c0-2.3,1.8-4.2,4.1-4.2l0,0
	c2.3,0,4.1,1.9,4.1,4.2V32.4z"/>
<path class="st5" d="M230,32.4c0,2.3-1.8,4.2-4.1,4.2l0,0c-2.3,0-4.1-1.9-4.1-4.2V24c0-2.3,1.8-4.2,4.1-4.2l0,0
	c2.3,0,4.1,1.9,4.1,4.2V32.4z"/>
<path class="st5" d="M254,32.4c0,2.3-1.8,4.2-4.1,4.2l0,0c-2.3,0-4.1-1.9-4.1-4.2V24c0-2.3,1.8-4.2,4.1-4.2l0,0
	c2.3,0,4.1,1.9,4.1,4.2V32.4z"/>
<circle class="st7" cx="12.4" cy="12.4" r="12.4"/>
<circle class="st8" cx="257" cy="154.4" r="8.4"/>
<circle class="st7" cx="75.8" cy="57" r="5.6"/>
<circle class="st7" cx="21.3" cy="99.1" r="5.6"/>
<circle class="st9" cx="43" cy="153.4" r="4.2"/>
<circle class="st9" cx="137" cy="20" r="2.2"/>
<rect x="-113.5" y="69.7" class="st8" width="87.8" height="28.2"/>
<rect x="-201.3" y="69.7" class="st1" width="87.8" height="28.2"/>
<rect x="-205.1" y="-22.1" class="st6" width="91.3" height="68.9"/>
<rect x="-196.8" y="140.3" class="st10" width="91.3" height="49"/>
<rect x="-105.7" y="140.3" class="st11" width="91.3" height="49"/>
<rect x="-113.7" y="-22.1" class="st3" width="91.8" height="68.9"/>
<rect x="-151.3" y="174.7" class="st12" width="45.6" height="14.6"/>
<rect x="-60.1" y="174.7" class="st13" width="45.6" height="14.6"/>
<rect x="-196.8" y="174.7" class="st2" width="45.6" height="14.6"/>
<rect x="-105.7" y="174.7" class="st14" width="45.6" height="14.6"/>
</svg>
