<svg version="1.1" id="b8be6891-8c6c-471d-9cef-5646484caaf2" xmlns="http://www.w3.org/2000/svg" x="0" y="0" viewBox="0 0 283.5 226" xml:space="preserve"><style>.st0{opacity:.1;fill:#31b096;enable-background:new}.st1{fill:#535461}.st2{opacity:.1;enable-background:new}.st4{opacity:.2}.st5{fill:#31b096}.st7{fill:#4c4c78}.st8{fill:#ffb9b9}.st9{fill:#cbcdda}.st12{fill:#474463}</style><ellipse class="st0" cx="136.5" cy="217.9" rx="116.9" ry="8.1"/><path class="st0" d="M9.2 25.8C1.9 34.4.1 45.2 0 55.5c-.1 7.3.9 15.2 7 20.6 8 7.1 23.5 8.5 27.4 17.6 3.5 8.1-4.7 16.2-12.6 21.8S4.9 128.2 6.4 136.7c.9 5.4 6.1 9.6 11.2 13.2 9.7 6.8 20.6 12.7 32.9 15.6 22.3 5.2 46.5-.2 67.4-8.4 12.9-5 27.8-11.2 40.6-6.1 3.4 1.4 6.2 3.4 9.4 5.2 9.1 5 20.1 6.8 30.9 8.3 15.8 2.3 32.3 4.2 47.5.1 15.2-4.1 28.3-16.1 26-29-2.2-12.1-16.2-20-27.3-28.2-3.9-2.9-7.9-6.8-6.9-11 .8-3.4 4.4-5.7 7.7-7.9 17.1-11.5 29.7-27.4 35.5-44.8 2.7-8.2 3.7-17.7-2.4-24.6-4.9-5.6-13.4-8.3-21.4-10.5C242.6 4.5 227.3 1 211.7.1S179.9 1.1 166 7c-6.7 2.8-12.7 6.6-19.5 9.3-19.1 7.8-41.7 6.7-63 5.5-7.6-.4-15.6-1.2-22.2-4.5-5.7-2.9-9-4.9-16-5.3-13.8-.6-28.1 4.5-36.1 13.8z"/><path class="st1" d="M112.5 84.3l-.3.6-1.9 4L90 130.5 55.5 215h-4.9l34.5-84.5 23.5-48.2 1.7.9 1.9.9z"/><path class="st1" d="M173 215h-4.1l-34.5-84.5-19.7-40.6-2.5-5-.3-.6.3-.2 2.5-1.2 1.2-.6 23.1 48.2z"/><path class="st1" d="M110.3 71h4.4v144h-4.4zm1.7-23.8c-3.1 0-5.6 2.5-5.6 5.6v2c-.1 3.1 2.4 5.7 5.5 5.7 3.1.1 5.7-2.4 5.7-5.5v-2.2c0-3.1-2.5-5.6-5.6-5.6zm4.2 7.6c0 2.3-1.9 4.2-4.2 4.2-2.3 0-4.2-1.9-4.2-4.2v-2c0-2.3 1.9-4.2 4.2-4.2 2.3 0 4.2 1.9 4.2 4.2v2z"/><path class="st2" d="M139 130.5h-4.6l-19.7-40.6v40.6h-4.4V88.9L90 130.5h-4.9l23.5-48.2 1.7.9V71h4.4v11.9l1.2-.6zM117.6 53v1.8c.1 3.1-2.4 5.7-5.5 5.7-3.1.1-5.7-2.4-5.7-5.5v-2h1.4v1.8c0 2.3 1.9 4.2 4.2 4.2 2.3 0 4.2-1.9 4.2-4.2V53h1.4z"/><path class="st1" d="M27.3 53.4h169.4v76.5H27.3z"/><path fill="#fff" d="M30.3 55.8h163v69.7h-163z"/><g class="st4"><path class="st5" d="M46.4 63.4h7.7v3.5h-7.7z"/></g><g class="st4"><path class="st5" d="M46.4 70.2h7.7v3.5h-7.7z"/></g><g class="st4"><path class="st5" d="M46.4 77h7.7v3.5h-7.7z"/></g><g class="st4"><path class="st5" d="M46.4 83.8h7.7v3.5h-7.7z"/></g><g class="st4"><path class="st5" d="M46.4 90.6h7.7v3.5h-7.7z"/></g><g class="st4"><path class="st5" d="M46.4 97.4h7.7v3.5h-7.7z"/></g><g class="st4"><path class="st5" d="M46.4 104.2h7.7v3.5h-7.7z"/></g><g class="st4"><path class="st5" d="M46.4 110.9h7.7v3.5h-7.7z"/></g><g class="st4"><path class="st5" d="M60.9 114.4h7.7v3.5h-7.7z"/></g><g class="st4"><path class="st5" d="M74.4 114.4h7.7v3.5h-7.7z"/></g><g class="st4"><path class="st5" d="M88 114.4h7.7v3.5H88z"/></g><g class="st4"><path class="st5" d="M101.6 114.4h7.7v3.5h-7.7z"/></g><g class="st4"><path class="st5" d="M115.2 114.4h7.7v3.5h-7.7z"/></g><g class="st4"><path class="st5" d="M128.7 114.4h7.7v3.5h-7.7z"/></g><g class="st4"><path class="st5" d="M142.3 114.4h7.7v3.5h-7.7z"/></g><g class="st4"><path class="st5" d="M155.9 114.4h7.7v3.5h-7.7z"/></g><g class="st4"><path class="st5" d="M169.5 114.4h7.7v3.5h-7.7z"/></g><path class="st5" d="M60.9 88.9h7.7v22h-7.7zm13.5-10.1h7.7V111h-7.7zM88 70.2h7.7v40.7H88zm13.6 4.4h7.7v36.3h-7.7zm13.6-7.7h7.7v44h-7.7z"/><g class="st4"><path class="st5" d="M128.7 83.8h7.7V111h-7.7z"/></g><g class="st4"><path class="st5" d="M142.3 83.8h7.7V111h-7.7z"/></g><g class="st4"><path class="st5" d="M155.9 83.8h7.7V111h-7.7z"/></g><g class="st4"><path class="st5" d="M169.5 83.8h7.7V111h-7.7z"/></g><path class="st1" d="M168.6 83.7l-66 4.1v1.3l67.4-2.7z"/><linearGradient id="SVGID_1_" gradientUnits="userSpaceOnUse" x1="-579.888" y1="-632.555" x2="-579.888" y2="-445.832" gradientTransform="matrix(1 0 0 -1 788.63 -413.826)"><stop offset="0" stop-color="gray" stop-opacity=".25"/><stop offset=".54" stop-color="gray" stop-opacity=".12"/><stop offset="1" stop-color="gray" stop-opacity=".1"/></linearGradient><path d="M246.7 110.5s3.5-5.7 2.5-14.6-4.2-23.3-4.2-23.3 1.4-8.1-6.4-9.2c0 0-4.9-.9-8.3-3.1-1.3-.8-2.4-1.8-3-3 0 0 0 .1-.1.4-.1-.1-.1-.2-.2-.4v.1l-1.3-2.1-.5.5c-.5-.8-1-1.6-1.4-2.4.3-.1.7-.2 1-.3.3-.1.6-.3.8-.5.2-.3.3-.6.4-.9.2-1 .3-2.1.2-3.1-.1-.8-.2-1.6-.2-2.5.1-.9.4-1.7.4-2.6.1-1.6-.7-3-1.7-4.3-.6-.7-1.2-1.4-1.7-2.2-.4-.7-.7-1.4-1.2-2.1-1.1-1.5-2.9-2.5-4.8-2.8-1.9-.3-3.8-.1-5.6.2-1.6.3-3.3.7-4.9.8-1.4.1-2.6-.4-3.9.5-.9.6-1.4 1.6-1.5 2.7v.5c.1.2.2.4.3.5.6 1.1-.3 2.5-.2 3.8.1 1.2 1.1 2.1 2.2 2.2-.1.1-.1.2-.2.3-2.5 5.7.1 12.3 5.7 14.9 1.1.5 2.3.8 3.5.9l.5.4c1.1.9 2.4 1.9 3.7 3.1l-.2-.1c-.4.3-.8.6-1.2.8-1.1.7-3 1.6-5.1 1.7 0 0-3.7 2-5 8.5-1.8 1.6-5.8 4.6-11 5.4-7.3 1.1-16.3 1.4-16.3 1.4s-.1.1-.2.4l-.8-.2v.3l-.3-.1c-2.6-1.1-7.7-2.8-8.4 1.8-.9 6.1 4.9 5.4 4.9 5.4 1.1-.4 2.3-.8 3.5-1.1l.3-.1c.1.2.1.3.2.4h.8c.3.6.6 1.1 1 1.6l18.3-.4s3.1-.7 6-.2c-1.3 9.4-2.8 19.8-2.8 19.8s-3.1 16.4-.9 18.1c1.3-.4 2.6-.8 3.9-1 0 1 .1 2 .3 3l1.4 9.2s.5 9.3 2.4 14.9l1.6 7.6 1.3 5.8.8 9.8c1 4.1 1.8 8.4 2.2 12.6.7 6.6 4.6 17.2 5.1 18.6-1.3 1.9-4 5-7.4 5.3-4.8.5-4.9 3.4-1.6 4.4 3.4 1 10.5 0 10.5 0l10-2.5c-.3 1.8-.5 3.3-.2 3.5.6.5 10.4 3 10.7-1 0-.3.1-.7.1-1 .1-2.6-.2-5.2-1-7.6-.1-.2-.1-.5-.2-.7.1-.2.3-.3.4-.5 0 0 .7-10.9 1.2-14.8 0-.3.1-.7.1-1.1.2-4.7-1.5-17-1.5-17s-2.1-8-2-11.7c0-.3.1-.6.2-.9v-.4s-1.1-7.3-.9-11.7c0-.7.1-1.3.3-1.9.2-.8.3-1.7.3-2.5.1-3 0-8.1-.2-13 0-.1 0-.2.1-.3 0-.4 0-.8-.1-1.1v-.9c.1-.3.2-.6.2-1h.1s9.1-.4 11.2-2.9c0 0-2.1-6.6-3.3-11.9l1.3-3.1zM207.4 90l-.1-.1c.2-.8.5-1.8.8-2.8-.3 1.2-.5 2.2-.7 2.9zm9.3-27zm11.4 141.3c-.5-1.7-2.4-8.6-2.4-11.9 0-.3.1-.6.1-.8.2-.6.3-1.2.3-1.8.2-3.4-1.1-9.6-1.1-9.6s-2.9-8.3-2.7-14.9v-.5c0-.6.1-1.3.1-2 .1-2.5.1-5.6 0-8.5v-.1c-.1-3.8-.3-7.2-.4-8.5.3 1.9 2 14.1 2.8 16 0 0 .4 5.6 2.3 10.3l2 12.3s.5 14.6 1.4 18.8c.4 1.8.7 3.1 1 3.9-.4 1.6-.9 4.4-1.3 6.7-.3-1.5-1-7.2-2.1-9.4z" fill="url(#SVGID_1_)"/><path class="st7" d="M219.3 204.7s-3.4 6.2-8.2 6.6c-4.8.5-4.9 3.3-1.6 4.4 3.3 1 10.4 0 10.4 0l10-2.5s-1.2-9.9-2.8-10.4c-1.5-.5-7.8 1.9-7.8 1.9zm12.3.1s-2.5 11.4-1.9 11.9c.6.5 10.3 2.9 10.6-1 0-.3.1-.7.1-1 .1-2.6-.2-5.1-1-7.6-.3-.8-.5-1.7-.4-2.3.1-1.6-7.4 0-7.4 0z"/><path class="st8" d="M228.4 60.1s-7.8 19.1-6.4 13c.9-4.1-5-9.5-9.1-12.7-2.1-1.6-3.7-2.7-3.7-2.7s14.6-17.1 13.6-9.7c-.3 2 0 4.1.8 5.9 1.6 4 4.8 6.2 4.8 6.2zm-49.8 27.2c-.4-.1-1.1 0-1.8.1-1.2.3-2.3.6-3.5 1.1 0 0-5.7.7-4.9-5.3.6-4.5 5.7-2.9 8.3-1.7.9.4 1.4.7 1.4.7l.5 5.1z"/><path class="st2" d="M178.6 87.3c-.4-.1-1.1 0-1.8.1-.6-1.6-.1-5.3 0-6 .9.4 1.4.7 1.4.7l.4 5.2z"/><path class="st9" d="M178.7 81.6l-1.5-.3s-.8 5.2.2 6.5h1.7l-.4-6.2z"/><path class="st7" d="M208.8 91s-4.6-2.7-5.1.7c-.5 3.5-1.3 9.4-1.3 9.4l-1.3 7.5-1.6 15.1.2 2.6s4.9-1.6 6-1.1c1.1.6 2.1-6.3 2.1-6.3l1.9-7.2.3-15.2-1.2-5.5z"/><path class="st2" d="M208.8 91s-4.6-2.7-5.1.7c-.5 3.5-1.3 9.4-1.3 9.4l-1.3 7.5-1.6 15.1.2 2.6s4.9-1.6 6-1.1c1.1.6 2.1-6.3 2.1-6.3l1.9-7.2.3-15.2-1.2-5.5z"/><path class="st7" d="M206.3 73.2s-4.8 5.4-12 6.5c-7.2 1.1-16.2 1.4-16.2 1.4s-2.3 4 1 8.3l18.2-.4s4-.9 7.1 0l1.9-15.8z"/><path d="M206.3 73.2s-4.8 5.4-12 6.5c-7.2 1.1-16.2 1.4-16.2 1.4s-2.3 4 1 8.3l18.2-.4s4-.9 7.1 0l1.9-15.8z" opacity=".05"/><path class="st2" d="M222.8 53.9c-1.8 3.8-4.9 6.6-9.3 6.6h-.6c-2.1-1.6-3.7-2.7-3.7-2.7s14.6-17.1 13.6-9.7c-.3 2.3-.7 4.1 0 5.8z"/><path class="st8" d="M224.6 49c0 6.2-5 11.2-11.2 11.1s-11.2-5-11.1-11.2c0-6.2 5-11.1 11.2-11.1 6.1 0 11.1 5 11.1 11.2 0-.1 0 0 0 0z"/><path class="st9" d="M231.5 117.1s-24.9 2.2-25.8-1c-.9-3.2 2.5-11.8 2.5-11.8l-1.1-12v-.5s3.1-13 3-14c-.1-.9 5-11.8 6.1-14.1.1-.3.2-.4.2-.4l.2.1.1.1 1.2.7 4.8-1.1 5.8-3 .5 33.2 2.5 23.8z"/><path class="st2" d="M218.5 63.8s-1.7-.5-2.4 1.2l-.9 2.1-.7 4-1.2 6.2-.9 27.6.4 4.9 2.2-4 .4-25.8v-3c.1-2.8.8-5.5 1.9-8.1l.3-.7 1.9-2.5-1-1.9z"/><path class="st7" d="M218.2 63.5s-1.7-.5-2.4 1.2l-.9 2.1-.7 4L213 77l-.9 27.6.4 4.9 2.2-4 .4-25.8v-3.2c.1-2.8.8-5.5 1.9-8.1l.3-.7 1.9-2.5-1-1.7z"/><path class="st2" d="M225.4 56.4s-5.9 6.2-8 7c0 0 1 4.7 2.1 5.7 0 0 6.2-6.3 7.3-6.8l.9-2.2-2.3-3.7z"/><path class="st9" d="M225.4 56s-5.9 6.2-8 7c0 0 1 4.7 2.1 5.7 0 0 6.2-6.3 7.3-6.8l.9-2.2-2.3-3.7z"/><path class="st2" d="M216.6 63.4l-.1.2-1.9 5.1-3.4 9.5s0 .1-.1.3c-.6 1.7-3.6 11.2-4.2 13.9v-.5s3.1-13 3-14c-.1-.9 5-11.8 6.1-14.1.2-.1.3-.2.4-.3l.2-.1z"/><path class="st7" d="M216.3 63.4l-1.9 5.2-3.4 9.5s0 .1-.1.3c-.6 1.9-4 12.4-4.2 14.4-.3 2.1-4.5 13.6-4.5 13.6l-2.4 19.9c-2.2-1.7.9-17.9.9-17.9s3.5-24.1 4.3-32.1c.8-8 5.2-10.3 5.2-10.3 2-.1 3.9-1 5-1.7.3-.3.7-.6 1.1-.9z"/><path class="st2" d="M240.7 191.3c-.5 3.9-1.2 14.7-1.2 14.7-2.4 3.6-7.8 1.7-7.8 1.7s-.6-1.1-1.4-5.2c-.9-4.1-1.4-18.6-1.4-18.6l-2-12.2c-1.8-4.7-2.3-10.2-2.3-10.2-.8-2.1-2.8-16.2-2.8-16.2s.8 12.6.3 19.2 2.7 15.6 2.7 15.6 1.8 8.4.9 11c-.9 2.6 2.3 13.3 2.3 13.3-.3 3.1-9.5 1.8-9.5 1.8s-4.3-11.6-5.1-18.6c-.5-4.2-1.2-8.4-2.2-12.5l-.7-9.7-1.3-5.7-1.6-7.6c-1.8-5.5-2.3-14.8-2.3-14.8l-1.4-9.1c-.9-4.5.3-9.8 1.1-12.5.3-1.2.6-1.9.6-1.9.8.6 5.4 1.2 7.7 1.8 1.3.3 2.6.4 3.9.3 6-.5 11.9-1.6 17.6-3.2.4-.1.6-.2.6-.2l.1 1 .3 2.5.5 4.4s1.6 23.4.6 26.6c-.9 3.2.6 13.8.6 13.8-.9 2.5 1.8 12.8 1.8 12.8s2 13.8 1.4 17.7z"/><path class="st12" d="M240.7 190.9c-.5 3.9-1.2 14.7-1.2 14.7-2.4 3.6-7.8 1.7-7.8 1.7s-.6-1.1-1.4-5.2c-.9-4.1-1.4-18.6-1.4-18.6l-2-12.2c-1.8-4.7-2.3-10.2-2.3-10.2-.8-2.1-2.8-16.2-2.8-16.2s.8 12.6.3 19.2 2.7 15.6 2.7 15.6 1.8 8.4.9 11c-.9 2.6 2.3 13.3 2.3 13.3-.3 3.1-9.5 1.8-9.5 1.8s-4.3-11.6-5.1-18.6c-.5-4.2-1.2-8.4-2.2-12.5l-.7-9.7-1.3-5.7-1.6-7.6c-1.8-5.5-2.3-14.8-2.3-14.8l-1.4-9.1c-.9-4.5.3-9.8 1.1-12.5.3-1.2.6-1.9.6-1.9.8.6 5.4 1.2 7.7 1.8 1.3.3 2.6.4 3.9.3 6-.5 11.9-1.6 17.6-3.2l.6-.2.1 1 .3 2.5.5 4.4s1.6 23.4.6 26.6c-.9 3.2.6 13.8.6 13.8-.9 2.5 1.8 12.8 1.8 12.8s2 13.9 1.4 17.7z"/><path class="st2" d="M224.6 49c0 2-.5 3.9-1.5 5.6-1.7.3-3.6 0-4.9-1.2-.9-.8-1.5-1.9-2.2-2.8-.5-.6-1-1.1-1.6-1.6-.4-.4-.8-.7-1.3-.9-.5-.2-1-.2-1.5 0-.6.3-.8 1.1-1.2 1.7-.3.5-.7.9-1.3 1.1-.6.2-1.2 0-1.5-.5-.4-.6-.1-1.7-.7-2.1-.2-.1-.3-.2-.5-.2-.8-.4-.9-1.5-1-2.4 0-.4-.1-.9-.5-1.2-.4-.2-.9-.1-1.3-.1h-.4c2.5-5.6 9.1-8.2 14.7-5.7 4.1 1.9 6.7 5.9 6.7 10.3z"/><path d="M202.6 34.5c-.9.6-1.4 1.6-1.5 2.7v.5c.1.2.2.4.3.5.6 1.1-.3 2.5-.2 3.7.2 1.2 1.2 2.2 2.4 2.2.4 0 .9-.1 1.3.1s.5.7.5 1.2c.1.9.2 2 1 2.4.2.1.3.1.5.2.6.4.4 1.4.7 2.1.3.5 1 .7 1.5.5.6-.2 1-.6 1.3-1.1.4-.6.6-1.4 1.2-1.7.5-.2 1-.2 1.5 0s.9.5 1.3.9c.6.5 1.1 1 1.6 1.6.8.9 1.3 2 2.2 2.8 1.7 1.5 4.2 1.6 6.3.8.3-.1.6-.3.8-.5.2-.3.3-.6.4-.9.2-1 .3-2.1.2-3.1-.1-.8-.2-1.6-.2-2.4.1-.9.4-1.7.4-2.6.1-1.5-.7-3-1.6-4.2-.6-.7-1.2-1.4-1.7-2.2-.4-.7-.7-1.4-1.2-2.1-1.1-1.5-2.9-2.4-4.7-2.8s-3.7-.1-5.6.2c-1.6.3-3.2.7-4.9.8-1.4-.1-2.5-.6-3.8.4z" fill="#472727"/><path class="st2" d="M216.3 63.4l-1.9 5.2-3.4 9.5s0 .1-.1.3l4.2-14.2c.4-.2.8-.5 1.2-.8z"/><path class="st8" d="M237.4 123.2s.2 6.3-1.5 7.9l-4.5-8.5 3.8-1.8 2.2 2.4z"/><path class="st2" d="M247.9 125.5c-2.1 2.4-11.1 2.9-11.1 2.9l-9-14.1s-2.1-1.5-6.1-8.1-3.9-11.7-3.6-15.5c.2-3.8 2.7-14.8 2.7-14.8.4-2.5 6-17.9 6-17.9.6 1.2 1.7 2.1 3 3 3.4 2.2 8.3 3.1 8.3 3.1 7.8 1.1 6.3 9.1 6.3 9.1s.1 31.1-.4 34.9 3.9 17.4 3.9 17.4z"/><path class="st9" d="M237.5 124.4l-.3 2.3-3.1-1.1-2.3-3.5 1.7-1.4z"/><path class="st2" d="M237.4 115.5l-1.6.2-15.9 1.6c-2.5.3-5.1.1-7.6-.4l-7.4-1.5c.3-1.2.6-1.9.6-1.9.8.6 5.4 1.2 7.7 1.8 1.3.3 2.6.4 3.9.3 6-.5 11.9-1.6 17.6-3.2l.7.9 2 2.2z"/><path d="M205.7 113.5c-.1 0-.1-.1-.2-.1l.2.1zm33.7 59.8s-2.7-10.3-1.8-12.8c0 0-1.6-10.7-.6-13.8.9-3.2-.6-26.6-.6-26.6l-.5-4.4-.3-2.5-.1-1-.6.2-.4.1v.4l.3 2.5.5 4.4s1.6 23.4.6 26.6c-.9 3.2.6 13.8.6 13.8-.9 2.5 1.8 12.8 1.8 12.8s1.9 13.7 1.4 17.6-1.2 14.7-1.2 14.7c-1.8 2.7-5.1 2.3-6.8 2v.1s5.4 2 7.8-1.7c0 0 .7-10.8 1.2-14.7.6-3.9-1.3-17.7-1.3-17.7zm-13.7 17.4c.9-2.6-.9-11-.9-11s-3.2-9-2.7-15.6c.2-2.8.2-6.6.1-10-.7-4.5-1.4-9.5-1.4-9.5s.8 12.6.3 19.2 2.7 15.6 2.7 15.6 1.8 8.4.9 11c-.9 2.6 2.3 13.3 2.3 13.3-.2 2.5-6.2 2.2-8.5 2l.1.2s9.2 1.3 9.5-1.8c-.1-.1-3.3-10.8-2.4-13.4z" opacity=".1"/><path class="st7" d="M248.3 125.5c-2.1 2.4-11.1 2.9-11.1 2.9l-9-14.1s-2.1-1.5-6.1-8.1-3.8-11.7-3.6-15.5c.2-3.8 2.7-14.8 2.7-14.8.4-2.5 6-17.9 6-17.9.6 1.2 1.7 2.1 3 3 3.4 2.2 8.3 3.1 8.3 3.1 7.8 1.1 6.3 9.1 6.3 9.1s.1 31.1-.4 34.9 3.9 17.4 3.9 17.4z"/><path class="st2" d="M228.8 65.6l-1.9.7 1.3.9-9.7 23.4c.2-3.8 2.7-14.8 2.7-14.8.4-2.5 6-17.9 6-17.9.6 1.2 1.7 2.1 3 3l-1.4 4.7zm2.3 41.6l10-2.5 1.3 4-10.2 2.5z"/><path class="st2" d="M236.8 67.2s-4.5 4.2-2.8 13.7 4.4 19.7 4.4 19.7l-7.3 20.3s5.1 5.3 7.6 6l7.3-16.2s3.4-5.6 2.5-14.5-4.2-23.1-4.2-23.1.1-8.7-7.5-5.9z"/><path class="st7" d="M237.2 67.2s-4.5 4.2-2.8 13.7c1.7 9.4 4.4 19.7 4.4 19.7l-7.3 20.3s5.1 5.3 7.6 6l7.3-16.2s3.4-5.6 2.5-14.5-4.2-23.1-4.2-23.1 0-8.7-7.5-5.9z"/><path class="st2" d="M231.7 121.4s5.7 7.9 5.3 10c-.4 2.1-2.1 1-2.1 1l-2.3-3.1-2-5.8s.2-2.5 1.1-2.1z"/><path class="st2" d="M231 121.4s5.7 7.9 5.3 10c-.4 2.1-2.1 1-2.1 1l-2.3-3.1-2-5.8s.2-2.5 1.1-2.1z"/><path class="st12" d="M231.3 121.4s5.7 7.9 5.3 10c-.4 2.1-2.1 1-2.1 1l-2.3-3.1-2-5.8s.2-2.5 1.1-2.1z"/></svg>