<?xml version="1.0" encoding="utf-8"?>
<!-- Generator: Adobe Illustrator 23.0.3, SVG Export Plug-In . SVG Version: 6.00 Build 0)  -->
<svg version="1.1" id="Layer_1" xmlns="http://www.w3.org/2000/svg" xmlns:xlink="http://www.w3.org/1999/xlink" x="0px" y="0px"
	 viewBox="0 0 141.7 108.5" style="enable-background:new 0 0 141.7 108.5;" xml:space="preserve">
<style type="text/css">
	.st0{opacity:0.1;fill:#EBAF41;enable-background:new    ;}
	.st1{fill:#3A3768;}
	.st2{fill:#D48A9B;}
	.st3{opacity:5.000000e-02;enable-background:new    ;}
	.st4{fill:#EFC6CD;}
	.st5{opacity:0.1;enable-background:new    ;}
	.st6{fill:#FFFFFF;}
	.st7{fill:#D3DAE1;}
	.st8{fill:url(#SVGID_1_);}
	.st9{fill:#585B8A;}
	.st10{opacity:0.2;enable-background:new    ;}
	.st11{fill:#636992;}
	.st12{fill:#FFD6D6;}
	.st13{fill:#DCE6F2;}
	.st14{fill:#565988;}
	.st15{fill:#505484;}
	.st16{fill:#575988;}
	.st17{fill:#D28690;}
	.st18{fill:#575989;}
	.st19{fill:#353045;}
	.st20{fill:#F0F3F7;}
	.st21{fill:#663D5C;}
	.st22{fill:#EBAF41;}
	.st23{opacity:0.3;enable-background:new    ;}
	.st24{opacity:0.15;}
	.st25{fill:#FFD037;}
	.st26{fill:#65617D;}
	.st27{fill:#9D9CB5;}
	.st28{fill:#4B4770;}
	.st29{fill:#D4DFEC;}
</style>
<title>business deal</title>
<path class="st0" d="M139.9,32c0,0.1,0,0.2-0.1,0.3c-0.9,3.9-2.2,7.7-4.3,11.2c-0.1,0.1-0.1,0.2-0.2,0.3c-1.4,2.2-3,4.3-4.9,6.1
	c-1,1-2.2,2-3.5,2.7c-1.9,1-4.1,1.4-6.2,1.7c-2.2,0.3-4.5,0.6-6.8,0.9c-0.8,0.1-1.6,0.2-2.4,0.3c-2.2,0.3-4.4,0.7-6.5,1.2
	c-2.6,0.6-5.2,1.4-7.5,2.5c-0.2,0.1-0.4,0.2-0.6,0.3c-0.2,0.1-0.4,0.2-0.6,0.3c-0.2,0.1-0.4,0.2-0.5,0.3c-0.1,0.1-0.2,0.1-0.3,0.2
	c-0.1,0.1-0.2,0.1-0.3,0.2c-0.3,0.2-0.5,0.3-0.8,0.5l0,0c-0.2,0.1-0.3,0.2-0.5,0.3c-1,0.6-1.9,1.2-2.9,1.8l-0.6,0.4l-0.9,0.6
	c-0.2,0.1-0.4,0.2-0.6,0.4c-0.1,0.1-0.3,0.2-0.4,0.3c-0.7,0.4-1.4,0.8-2.1,1.3c-0.2,0.1-0.3,0.2-0.5,0.3c-1.4,0.8-2.9,1.5-4.5,2l0,0
	c-0.8,0.3-1.6,0.5-2.4,0.7c-0.5,0.1-0.9,0.2-1.4,0.2c-1.3,0.2-2.5,0.2-3.8,0.1c-2.5-0.3-4.8-1.2-7.3-1.6c-5.1-0.6-10,1.4-14.8,3.1
	c-1.2,0.4-2.4,0.8-3.6,1.1c-0.8,0.2-1.6,0.5-2.4,0.7c-4.9,1.3-9.9,2.2-15,2.6c-2.1,0.2-4.3,0.3-6.4,0.1c-0.8,0-1.6-0.1-2.4-0.3
	c-2.7-0.4-5.2-1.3-7.2-2.9c-1.7-1.3-2.8-3-3.7-4.8c-0.9-1.8-1.6-3.8-1.9-5.8c0-0.3-0.1-0.5-0.1-0.8C9.1,60.4,9,59.9,9,59.4
	c-0.2-2.5,0.1-5.1,0.9-7.5c0.9-2.7,2.3-5.3,2.9-8.1c0-0.1,0.1-0.2,0.1-0.3c0.1-0.4,0.1-0.8,0.2-1.3c0.3-3.4-0.9-6.6-1.9-9.9
	c0-0.1-0.1-0.2-0.1-0.3c-0.1-0.4-0.2-0.7-0.3-1.1c-0.9-3.5-1.1-7.2-0.3-10.7c0-0.1,0.1-0.2,0.1-0.3c0.5-2.2,1.5-4.2,2.9-6
	C15,12,16.9,10.4,19,9.1c1-0.7,2.1-1.3,3.2-1.9C23,6.8,23.7,6.4,24.6,6c6.5-3,14-4.4,21.4-4.1c0.4,0,0.8,0,1.2,0.1
	C47.5,2,48,2,48.4,2.1c4.8,0.5,9.4,1.6,14,2.8c1.5,0.4,3.1,0.8,4.6,1.2c0.7,0.2,1.4,0.4,2.1,0.5c3.4,0.9,6.8,1.6,10.2,2.2
	C80,9,80.8,9.1,81.6,9.3c2.8,0.4,5.6,0.6,8.4,0.7c1.1,0,2.2,0,3.3,0c0.6,0,1.1,0,1.7-0.1c5.7-0.4,11.2-1.7,16.7-3
	c0.8-0.2,1.6-0.4,2.4-0.5c1-0.2,2.1-0.5,3.2-0.7c6.6-1.3,12.4-0.5,18.5,2.1c1.4,0.6,2.8,1.3,3.6,2.5s1.1,2.5,1.2,3.9
	c0.2,1.9,0.4,3.9,0.4,5.8c0,0.1,0,0.2,0,0.3C141,24.2,140.7,28.2,139.9,32z"/>
<path class="st0" d="M96.4,43.5H96v0.2v0.2h0.5L96.4,43.5z M91.6,43.5C91.6,43.5,91.6,43.5,91.6,43.5c0,0.1,0,0.2,0,0.3v0v0h3.7v0
	l0.3-0.3L91.6,43.5z M81.6,43.5V32.3h4.3c0,0-0.1-0.1-0.1-0.1l-0.1,0l-0.1,0c0,0-0.1-0.1-0.1-0.1c0,0-0.1,0-0.1-0.1l0,0h0h-3.7v-0.6
	l-0.1,0l-0.1,0h0l0,0l-0.1,0l-0.1,0c-0.1,0-0.1,0.1-0.2,0.1l-0.1,0l-0.1,0.1c-0.2,0.1-0.3,0.2-0.5,0.3c0,0-0.1,0.1-0.1,0.1
	c-0.1,0.1-0.2,0.1-0.3,0.2c0,0-0.1,0-0.1,0.1l-0.1,0l-0.1,0l0,0c-0.2,0.1-0.3,0.1-0.5,0.1v10.9h-6.4c0,0,0,0,0,0
	c0,0.1,0.1,0.2,0.1,0.3h6.3v12c0,0,0.1,0,0.1,0l0.1,0l0.2,0l0.3,0l0.1,0l0.2,0h0l0.3,0l0.1,0l0.1,0l0.2,0l0,0l0.5,0l0,0l0.1,0
	c0,0,0.1,0,0.1,0V43.9h9.9v0v0c0-0.1,0-0.2,0-0.3c0,0,0,0,0,0L81.6,43.5z M96.4,43.5H96v0.2v0.2h0.5L96.4,43.5z M91.3,43.5
	c0,0.1,0,0.2,0,0.3h4.1l0.3-0.3H91.3z M81.6,43.5V32.3h4.3c0,0-0.1-0.1-0.1-0.1l-0.1,0l-0.1,0c0,0-0.1-0.1-0.1-0.1
	c0,0-0.1,0-0.1-0.1l0,0h0h-3.7v-0.6l-0.1,0l-0.1,0h0l0,0l-0.1,0l-0.1,0c-0.1,0-0.1,0.1-0.2,0.1l-0.1,0l-0.1,0.1
	c-0.2,0.1-0.3,0.2-0.5,0.3c0,0-0.1,0.1-0.1,0.1c-0.1,0.1-0.2,0.1-0.3,0.2c0,0-0.1,0-0.1,0.1l-0.1,0l-0.1,0l0,0
	c-0.2,0.1-0.3,0.1-0.5,0.1v10.9h-6.4c0,0,0,0,0,0c0,0.1,0.1,0.2,0.1,0.3h6.3v12h0.1l0.1,0l0.2,0l0.3,0l0.1,0l0.2,0h0l0.3,0l0.1,0
	l0.1,0l0.2,0l0,0l0.5,0l0,0l0.1,0c0,0,0.1,0,0.1,0V43.9h9.7c0-0.1,0-0.2,0-0.3H81.6z M114,20.2h26.9c0-0.1,0-0.2,0-0.3H114V6.3
	c-0.8,0.2-1.6,0.4-2.4,0.5v13H82.3l-0.1-0.1l0.1-0.1l0,0l10.9-9.8c-1.1,0-2.2,0.1-3.3,0l-8.4,7.5V9.3C80.8,9.1,80,9,79.2,8.9v8.2
	L67,6.1c-1.5-0.4-3.1-0.8-4.6-1.2l16.6,15l-0.1,0.1H48.4V2.1C48,2,47.6,2,47.1,2c-0.4,0-0.8,0-1.2-0.1v18H24.6V6
	c-0.8,0.4-1.6,0.8-2.4,1.2v12.7H10.5c0,0.1-0.1,0.2-0.1,0.3h11.7V32H11.1c0,0.1,0.1,0.2,0.1,0.3h11v11.2h-9.3c0,0.1,0,0.2-0.1,0.3
	h9.4v31.3c0.8,0.1,1.6,0.2,2.4,0.3V43.9H46v28.8c0.8-0.2,1.6-0.4,2.4-0.7V43.9h30.8V69c0.8-0.2,1.6-0.4,2.4-0.7l0,0V43.9h30v11.8
	c0.8-0.1,1.6-0.2,2.4-0.3V43.9h21.3c0.1-0.1,0.1-0.2,0.2-0.3H114V32.3h25.9c0-0.1,0.1-0.2,0.1-0.3H114V20.2z M24.6,20.2H46V32H24.6
	L24.6,20.2z M24.6,43.5V32.3H46v11.2H24.6z M48.4,20.2h30.8V32H48.4V20.2z M48.4,43.5V32.3h30.8v11.2H48.4z M111.6,43.5h-30V32.3h30
	V43.5z M111.6,32h-30V20.5l0.4-0.3h29.6V32z M91.6,43.5C91.6,43.5,91.6,43.5,91.6,43.5c0,0.1,0,0.2,0,0.3v0v0h3.7v0l0.3-0.3
	L91.6,43.5z M96.4,43.5H96v0.2v0.2h0.5L96.4,43.5z M81.6,43.5V32.3h4.3c0,0-0.1-0.1-0.1-0.1l-0.1,0l-0.1,0c0,0-0.1-0.1-0.1-0.1
	c0,0-0.1,0-0.1-0.1l0,0h0h-3.7v-0.6l-0.1,0l-0.1,0h0l0,0l-0.1,0l-0.1,0c-0.1,0-0.1,0.1-0.2,0.1l-0.1,0l-0.1,0.1
	c-0.2,0.1-0.3,0.2-0.5,0.3c0,0-0.1,0.1-0.1,0.1c-0.1,0.1-0.2,0.1-0.3,0.2c0,0-0.1,0-0.1,0.1l-0.1,0l-0.1,0l0,0
	c-0.2,0.1-0.3,0.1-0.5,0.1v10.9h-6.4c0,0,0,0,0,0c0,0.1,0.1,0.2,0.1,0.3h6.3v12c0,0,0.1,0,0.1,0l0.1,0l0.2,0l0.3,0l0.1,0l0.2,0h0
	l0.3,0l0.1,0l0.1,0l0.2,0l0,0l0.5,0l0,0l0.1,0c0,0,0.1,0,0.1,0V43.9h9.9v0v0c0-0.1,0-0.2,0-0.3c0,0,0,0,0,0L81.6,43.5z"/>
<path class="st0" d="M34.9,12.1H35c-0.1-0.1-0.2-0.2-0.2-0.3l0,0c0-0.2,0.4-0.4,0.8-0.4h5.6c0.4,0,0.8,0.2,0.8,0.4l0,0
	c0,0.2-0.4,0.4-0.8,0.4H41c0.1,0.1,0.2,0.2,0.2,0.3c0,0.2-0.3,0.4-0.6,0.4h1.6c0.4,0,0.8,0.2,0.8,0.4s-0.4,0.4-0.8,0.4h-5.6
	c-0.4,0-0.8-0.2-0.8-0.4c0-0.2,0.3-0.4,0.6-0.4h-1.6c-0.4,0-0.8-0.2-0.8-0.4S34.4,12.1,34.9,12.1z"/>
<path class="st0" d="M95,16.3h0.2C95.1,16.2,95,16.1,95,16l0,0c0-0.2,0.4-0.4,0.8-0.4h5.6c0.4,0,0.8,0.2,0.8,0.4l0,0
	c0,0.2-0.4,0.4-0.8,0.4h-0.2c0.1,0.1,0.2,0.2,0.2,0.3c0,0.2-0.3,0.4-0.6,0.4h1.6c0.4,0,0.8,0.2,0.8,0.4c0,0.2-0.4,0.4-0.8,0.4h-5.6
	c-0.4,0-0.8-0.2-0.8-0.4c0-0.2,0.3-0.4,0.6-0.4H95c-0.4,0-0.8-0.2-0.8-0.4C94.2,16.5,94.6,16.3,95,16.3z"/>
<path class="st0" d="M26.3,33.9h0.2c-0.1-0.1-0.2-0.2-0.2-0.3l0,0c0-0.2,0.4-0.4,0.8-0.4h5.6c0.4,0,0.8,0.2,0.8,0.4l0,0
	c0,0.2-0.4,0.4-0.8,0.4h-0.2c0.1,0.1,0.2,0.2,0.2,0.3c0,0.2-0.3,0.4-0.6,0.4h1.6c0.4,0,0.8,0.2,0.8,0.4s-0.4,0.4-0.8,0.4h-5.5
	c-0.4,0-0.8-0.2-0.8-0.4c0-0.2,0.3-0.4,0.6-0.4h-1.6c-0.4,0-0.8-0.2-0.8-0.4S25.9,33.9,26.3,33.9z"/>
<ellipse transform="matrix(0.2002 -0.9798 0.9798 0.2002 9.8115 161.2478)" class="st0" cx="103.7" cy="74.6" rx="8.4" ry="27.8"/>
<path class="st1" d="M100.5,50.9c0,0,1.5-7.2,7.1-6.6c0,0,3.9,0.3,4.7,2.8v5.6L100.5,50.9z"/>
<polygon class="st2" points="131.4,53.6 81.2,49.5 74.8,50.8 75.2,59.8 75.6,59.8 76.1,73.3 125.4,82.2 130.6,77.8 130.6,63.1 
	131.3,62.7 "/>
<polygon class="st3" points="131.5,53.6 131.3,62.7 125.9,65.3 125.8,55.8 "/>
<polygon class="st3" points="130.6,63.1 130.7,77.5 125.4,81.9 125.8,65.3 "/>
<polygon class="st3" points="75.7,60.4 125.8,66.5 125.8,65.3 75.6,59.9 "/>
<polygon class="st3" points="130.6,63.7 130.6,63.1 125.6,65.3 125.6,66.5 "/>
<polygon class="st4" points="74.7,50.8 81.1,49.5 131.3,53.6 125.7,55.8 "/>
<polygon class="st5" points="126,53.9 128.4,54 124.4,55.3 122.3,55.1 "/>
<polygon class="st6" points="126,53.8 128.4,53.9 124.4,55.2 122.3,55 "/>
<path class="st7" d="M125.7,54c0.1,0,0.2,0,0.3,0.1c0.1,0,0.1,0,0.2,0c0.1,0,0.2,0.1,0.4,0.1"/>
<path class="st7" d="M125.6,54.1c0.1,0,0.2,0,0.3,0.1c0.1,0,0.1,0,0.2,0c0.1,0,0.2,0.1,0.4,0.1"/>
<path class="st7" d="M125.3,54.3c0.1,0,0.2,0,0.3,0.1c0.1,0,0.1,0,0.2,0c0.1,0,0.2,0.1,0.4,0.1"/>
<polygon class="st5" points="115.3,52.7 117.8,52.8 113.7,54 111.6,53.9 "/>
<polygon class="st6" points="115.3,52.6 117.8,52.7 113.7,53.9 111.6,53.8 "/>
<path class="st7" d="M115,52.8c0.1,0,0.2,0,0.3,0.1c0.1,0,0.1,0,0.2,0c0.1,0,0.2,0.1,0.4,0.1"/>
<path class="st7" d="M114.9,52.9c0.1,0,0.2,0,0.3,0.1c0.1,0,0.1,0,0.2,0c0.1,0,0.2,0.1,0.4,0.1"/>
<path class="st7" d="M114.6,53.1c0.1,0,0.2,0,0.3,0.1c0.1,0,0.1,0,0.2,0c0.1,0,0.2,0.1,0.4,0.1"/>
<polygon class="st5" points="120.4,53.3 122.9,53.4 118.8,54.7 116.7,54.5 "/>
<polygon class="st6" points="120.4,53.2 122.9,53.3 118.8,54.5 116.7,54.4 "/>
<path class="st7" d="M120.2,53.4c0.1,0,0.2,0,0.3,0.1c0.1,0,0.1,0,0.2,0c0.1,0,0.2,0.1,0.4,0.1"/>
<path class="st7" d="M120,53.5c0.1,0,0.2,0,0.3,0.1c0.1,0,0.1,0,0.2,0c0.1,0,0.2,0.1,0.4,0.1"/>
<path class="st7" d="M119.7,53.7c0.1,0,0.2,0,0.3,0.1c0.1,0,0.1,0,0.2,0c0.1,0,0.2,0.1,0.4,0.1"/>
<ellipse class="st0" cx="64.7" cy="98.3" rx="26.3" ry="5.4"/>
<linearGradient id="SVGID_1_" gradientUnits="userSpaceOnUse" x1="122.5378" y1="-748.2003" x2="122.5378" y2="-672.1952" gradientTransform="matrix(1 0 0 -1 -54.11 -646.5135)">
	<stop  offset="0" style="stop-color:#808080;stop-opacity:0.25"/>
	<stop  offset="0.54" style="stop-color:#808080;stop-opacity:0.12"/>
	<stop  offset="1" style="stop-color:#808080;stop-opacity:0.1"/>
</linearGradient>
<path class="st8" d="M93.5,54c-0.3-2.5-1.4-4.8-1.4-4.8l0.1-0.8c0,0,0-0.4,0-1c0-0.4,0.1-0.8,0.2-1.2c0.2-0.7-0.3-1.6-0.3-1.7
	c-0.1-0.1,0-1.7-0.5-2.4c-0.5-0.8-3.9-2.2-3.9-2.2s-0.2-0.4-0.4-0.8l0,0c-0.2-0.4-0.5-0.7-0.8-1.1c-0.2-0.2-0.4-0.4-0.6-0.3
	c-0.1-0.2-0.1-0.4-0.2-0.7c0,0,0.1,0,0.1,0c0.1,0,0.3,0,0.4,0c0.3-0.1,0.5-0.4,0.7-0.6c0.9-1.3,1.6-2.8,1.8-4.4c0-0.3,0-0.7,0-1
	c-0.1-0.2-0.2-0.5-0.3-0.7c-0.2-0.5-0.5-0.9-0.9-1.3c-0.6-0.6-1.4-1-2.3-1.3c-1-0.3-2-0.3-3-0.2c-0.3,0-0.5,0.1-0.8,0.1
	c-0.3,0-0.7,0-1,0l-1.7-0.1l0,0l-0.3,0c-0.1,0.2,0,0.5,0.1,0.7c0.1,0.2,0.3,0.4,0.3,0.7s-0.2,0.4-0.3,0.6c-0.1,0.2-0.2,0.5-0.1,0.7
	c0,0,0,0.1,0.1,0.1c0.1,0.2,0.4,0.2,0.6,0.2h0c-0.6,0.7-0.9,1.6-0.9,2.6c0,1.6,0.9,3.1,2.3,3.8c0,0.1,0,0.2,0.1,0.3
	c0.3,0.9,0.3,1.9,0.3,2.8l0,0.1l0-0.1c0,0-2,1.4-2.6,1.7c-0.6,0.4-1.2,1.6-1.2,1.9s-1,5.3-1,5.3c-0.2,0.5-0.3,1-0.5,1.5l-1.2,1.1
	c0,0-2.5,0.2-3.2,0.1l0,0.1c-0.6-0.1-1.3-0.2-1.9-0.3c-0.4,0-0.7,0-1,0.1l0,0l0,0c-0.4,0.1-0.7,0.2-1.1,0.3c0,0-0.1,0-0.1,0.1l0-0.2
	l-2.7-0.1l-1.4-0.3c0,0-0.5-0.4-0.8-0.3c-0.3,0.1-0.9-0.3-0.9-0.3c-0.1-0.1-0.3-0.2-0.4-0.3c0-0.3-0.1-0.5-0.1-0.5s-1.1-4.2-1.9-6.7
	c-0.5-1.7-1.3-2.5-1.7-2.8C57.1,40,57,39.8,57,39.8c-0.1-0.3-0.6-1-0.7-1c0,0,0,0,0,0c0,0-0.1,0-0.1,0c-0.2-1.1-0.4-2.5,0-3.7
	c0.9-0.8,1.5-1.9,1.5-3.2c0,0,0,0,0-0.1s0,0,0-0.1c0-1-0.3-1.9-1-2.6l0,0c0,0,0,0,0,0c0.2-0.2,0.3-0.4,0.2-0.7
	c-0.1-0.2-0.3-0.4-0.4-0.7c-0.1-0.2-0.1-0.4-0.1-0.6c-0.1-0.3-0.2-0.5-0.4-0.7l0,0.1c-0.5-0.6-1.4-0.9-2.2-0.7
	c-0.6,0.1-1.1,0.4-1.7,0.5c-0.4,0.1-0.9,0-1.3,0.1c-0.4,0-0.8,0.2-1.1,0.3c-0.1,0-0.2,0.1-0.2,0.2c-0.1,0.1-0.1,0.2-0.1,0.3
	c-0.1,0.5-0.6,0.9-0.9,1.3c-0.4,0.5-0.6,1.1-0.6,1.7c0,0.2,0,0.3,0,0.5c0,0.1,0.1,0.2,0.1,0.3c0.1,0.3-0.1,0.6-0.2,0.9
	c-0.1,0.4-0.1,0.7,0.1,1.1c0.5,1.1,2.2,1.5,2.5,2.7c0.3,0.1,0.6,0.2,0.8,0.3c0,0.1,0,0.2,0.1,0.4c0,0,0,0,0,0
	c-0.5,0.4-0.6,1.3-0.6,1.3l-0.1,0c-0.2,0.2-0.8,0.7-1.4,1.1c-0.7,0.5-1.8,2-2.6,2.5c-0.8,0.5-1.4,3.4-1.3,4.4c0.2,1.1,0.9,4,0.6,5.1
	c-0.3,1.1,0.4,6,0.4,6c0.5,0.1,0.9,0.2,1.4,0.4l0,0.2l0,0.6c0,0-1.3,4.7-0.8,8.2c0.5,3.6-0.2,4-0.2,4s0.2,1.6-0.2,2.1
	S46.1,74,46.1,74s0,2.7,0,3.5c0.1,0.8,0.1,2.2-0.2,2.5c-0.3,0.3-0.8,2.5-0.7,3.2c0,0.7-0.9,2.2-0.4,4.1c0.5,2-1.6,2-1.6,2
	s0.3,3,0.8,3.8l0.1,0.1c0,0,0,0.1,0,0.2c-0.2,0.8-0.5,2-0.3,2.3c0.3,0.4,0.5,0.4,0.5,0.4l0.1,2c0,0,2.3,1.9,4,1.8
	c1.7-0.1,1.4-1.8,1.4-1.8l-1.5-3.8l-0.1-0.1L50,91c0,0,0.5-1.4,0.6-1.8c0.1-0.5,0.7-2.2,0.7-2.2s1.6-3.7,1.6-4.1
	c0-0.4,0.2-2.8,0.5-3.3c0.3-0.5,1.1-3.2,1.1-3.2l0,0c0.3,0.3,0.4,0.7,0.3,1.1c-0.2,0.7-0.1,2.1-0.1,2.1s-0.1,1.2-0.2,1.8
	c-0.2,0.6-0.2,5.8,0.1,7c0.2,1,0.2,2.8,0.2,3.5c-0.2,0.7-0.3,1.6,0,1.8c0.5,0.2,3,0.1,3,0.1s1.1-0.4,2.5,0.9
	c1.4,1.3,5.9-0.4,5.9-0.4s1.4-0.4-1.3-1.4c-1.9-0.7-3.1-1.2-3.9-1.8c0,0,0-0.1,0.1-0.1c0,0-1.1-1-0.2-2.9c0.9-1.8,0.9-3.4,0.9-3.4
	l0.2-6.2l-0.5-8.2l-0.4-8.6l0.1,0c0.1,1.6,0.4,5.4,2,4.6c2-0.9,0.3-3.3,0.3-3.3l-0.9-1.8l0.3-0.1l-1-3.3c-0.1-0.6-0.1-1.3,0-2
	c0-0.4,0-0.8,0-1.1c1.3-0.2,2.6-0.5,2.9-0.4c0.3,0.1,1.8,0.1,2.4,0.1c-0.2,0.2-0.4,0.3-0.4,0.3l2.4,1.6c0,0,0.8-0.5,1-0.9
	c0.2,0,0.3-0.1,0.5-0.2c0,0.6,0.2,1.2,0.7,1.2c0.1,0,0.3,0,0.4-0.1l4-0.8l-0.3,2.1l0.2,0.4c-0.1,1.8-0.3,3.7-0.4,5.4l-0.1,0.4l0,0
	c-0.2,2.6-0.3,4.6-0.3,4.6c0.2-0.4,0.6-0.8,1-1l0,3.9c0,0,0.2,6.1,0.2,6.9c0,0.8,0,2.7,0,2.7s0.4,2.3,0.7,3c0.3,0.7,0.5,4.2,0.5,4.2
	s0.6,0.9,0.3,1.3c-0.3,0.4,1,1.1,1,1.1s-0.8,1.1-0.9,1.8c0,0.1,0.1,0.2,0.2,0.3c0,0-0.1,0.1-0.1,0.1c-0.4,0.2-0.9,0.4-1.7,0.3
	c-2.2-0.2-3.8,1.9-2.4,2.3c1.4,0.4,5.5,0.5,5.5,0.5s1.2-0.8,2.2-0.4c0,0.8,0,1.6,0,1.7l0,0c-0.6,0.5-1.7,1.4-2.8,1.8
	c-1.6,0.5-1.9,2.7,0.1,2.9c2,0.3,5-0.3,5-0.3s1.5-1.1,2.7-1.4c1.2-0.2,2.2-0.8,2-1.5c-0.1-0.4-0.5-1.5-0.7-2.3c0,0,0-0.1,0-0.1
	c0-0.1,0.1-0.2,0.1-0.2c0,0-0.6-3.1-0.1-3.9s0.2-8.5,0.2-8.5s-0.8-2-0.4-3.2c0.4-1.2-0.7-2.9-0.7-2.9s0.1-3.4,0.4-5.3
	c0-0.1,0-0.2,0-0.2c0.5-0.2,1.1-0.4,1.6-0.6c0,0,0.3-4.3,0.5-5.2c0-0.1,0-0.2,0.1-0.4l0.1-0.7l0,0l0.2-0.8l0,0l0.5-2.7l0.9-1.2
	l2.4-2.5C93.2,57.8,93.8,56.4,93.5,54z M56.2,38.8L56.2,38.8C56.2,38.8,56.2,38.7,56.2,38.8C56.2,38.7,56.2,38.7,56.2,38.8z
	 M80.1,41.8L80,42l0.3-0.3l-0.5,0.5L80.1,41.8L80.1,41.8z M77.8,46.5c-0.1,0.2-0.2,0.5-0.3,0.8l0.2-0.5L77.8,46.5z"/>
<path class="st9" d="M70.3,54.3c0,0-0.3,2.1,0.6,2.1s1.6-1.6,1.6-1.6l-0.4-1.3L70.3,54.3z"/>
<path class="st10" d="M70.3,54.3c0,0-0.3,2.1,0.6,2.1s1.6-1.6,1.6-1.6l-0.4-1.3L70.3,54.3z"/>
<path class="st11" d="M49,100.1c-1.7,0.1-3.9-1.8-3.9-1.8l-0.1-2c0,0-0.1,0.1-0.4-0.4c-0.2-0.3,0.1-1.5,0.3-2.3
	C44.9,93.2,45,93,45,93l3.7,1l0.2,0.5l1.4,3.8C50.3,98.3,50.7,100.1,49,100.1z"/>
<path class="st11" d="M66.1,94.5c0,0-4.3,1.7-5.7,0.4s-2.4-0.9-2.4-0.9s-2.4,0-2.9-0.1c-0.3-0.1-0.1-1,0-1.8
	c0.1-0.5,0.2-0.9,0.2-0.9s4.2-1.4,4.9-0.6c0.2,0.3,0.4,0.5,0.7,0.7c0.8,0.6,2,1.1,3.9,1.8C67.4,94.1,66.1,94.5,66.1,94.5z"/>
<path class="st12" d="M62.2,60.8l1.2,2.4c0,0,1.7,2.4-0.3,3.3c-2,0.9-2-5.3-2-5.3L62.2,60.8z"/>
<path class="st13" d="M57.3,40.3c0,0,1.3,0.6,2.1,3.1c0.8,2.5,1.8,6.7,1.8,6.7s0.7,4.8,0.6,5.9c-0.1,0.7-0.1,1.3,0,2l1,3.3l-2,0.7
	l-3.1-11.7L57.3,40.3z"/>
<path class="st3" d="M57.3,40.3c0,0,1.3,0.6,2.1,3.1c0.8,2.5,1.8,6.7,1.8,6.7s0.7,4.8,0.6,5.9c-0.1,0.7-0.1,1.3,0,2l1,3.3l-2,0.7
	l-3.1-11.7L57.3,40.3z"/>
<path class="st5" d="M48.7,94l0.2,0.5l-0.2,0.4c-0.8,0.4-3,0.1-3,0.1s-0.4-0.5-0.9-1.3C44.9,93.3,45,93,45,93L48.7,94z"/>
<path class="st5" d="M61.1,91.4c-1.1,2.4-4.7,1.5-5.8,1.2c-0.2-0.1-0.3-0.1-0.3-0.1s0-0.2,0-0.5c0.1-0.5,0.2-0.9,0.2-0.9
	s4.2-1.4,4.9-0.6c0.2,0.3,0.4,0.5,0.7,0.7C61,91.3,61,91.3,61.1,91.4z"/>
<path class="st14" d="M60.9,88.3c-0.9,1.8,0.2,2.9,0.2,2.9c-1.1,2.4-4.7,1.5-5.8,1.2c-0.2,0-0.3-0.1-0.3-0.1s0.1-2.5-0.2-3.8
	c-0.3-1.2-0.2-6.3-0.1-7c0.1-0.6,0.2-1.8,0.2-1.8s-0.1-1.4,0.1-2.1c0.1-0.4,0-0.8-0.3-1.1l0,0c0,0-0.8,2.8-1.1,3.2s-0.4,2.9-0.4,3.3
	c0,0.4-1.6,4.1-1.6,4.1s-0.6,1.7-0.7,2.2c-0.1,0.5-0.6,1.8-0.6,1.8l-1.8,3.4c-0.8,0.4-3,0.1-3,0.1s-0.4-0.5-1-1.4
	c-0.6-0.8-0.8-3.8-0.8-3.8s2,0,1.5-2s0.4-3.5,0.4-4.1s0.4-2.8,0.7-3.2c0.3-0.3,0.2-1.7,0.1-2.5c-0.1-0.8,0-3.5,0-3.5
	s0.1-1.2,0.4-1.8c0.4-0.6,0.2-2.1,0.2-2.1s0.7-0.4,0.2-3.9s0.8-8.2,0.8-8.2l0-0.6l0.1-1.1c0,0,10.6-0.7,11.4,0.1
	c0.2,0.2,0.4,0.5,0.5,0.8c0.3,0.6,0.5,1.3,0.6,2l0.4,11.2l0.4,8.2l-0.1,6.2C61.7,84.9,61.8,86.4,60.9,88.3z"/>
<path class="st5" d="M57.8,66.2l-1.1,24l-1.3,2.2c-0.2,0-0.3-0.1-0.3-0.1s0.1-2.5-0.2-3.8c-0.3-1.2-0.2-6.3-0.1-7
	c0.1-0.6,0.2-1.8,0.2-1.8s-0.1-1.4,0.1-2.1c0.1-0.4,0-0.8-0.3-1.1l0-0.1L57.8,66.2z"/>
<path class="st5" d="M45.8,92c0,0,2.9-1.1,3.3-0.8c0.4,0.4-3.4,0.9-3.4,0.9L45.8,92z"/>
<path class="st5" d="M60,89c-0.1,0-2.9,1-2.7,2.1C57.6,92.1,60,89,60,89z"/>
<path class="st12" d="M51.3,34.4c0,0,0.9,2.3,0.4,3.4C51.2,39,57.1,41,57.1,41S55.4,36.5,57,34C58.7,31.5,51.3,34.4,51.3,34.4z"/>
<path class="st15" d="M85.6,100.1c-1.1,0.2-2.6,1.4-2.6,1.4s-2.9,0.6-4.8,0.3c-2-0.3-1.6-2.4-0.1-2.9c1.1-0.4,2.1-1.3,2.7-1.8
	c0.2-0.2,0.4-0.4,0.4-0.4l5.5-1.1c0,0,0.1,0.3,0.2,0.7c0.2,0.7,0.5,1.9,0.7,2.3C87.7,99.3,86.7,99.8,85.6,100.1z"/>
<path class="st15" d="M84.2,95.8c0,0-2.3,0.2-3.3-0.3c-1-0.6-2.4,0.3-2.4,0.3s-4-0.1-5.3-0.5c-1.3-0.4,0.2-2.5,2.4-2.3
	c0.8,0.1,1.3-0.1,1.7-0.3c0.4-0.3,0.6-0.6,0.7-1.1l4.7,0.3l0.6,1.7L84.2,95.8z"/>
<path class="st5" d="M83.4,94.3c0,0-5.4-0.9-6.1-1.6c0.4-0.3,0.6-0.6,0.7-1.1l4.7,0.3l0.6,1.7L83.4,94.3z"/>
<path class="st16" d="M75.3,63.2l0.1,8.1c0,0,0.2,6.1,0.2,6.9s0,2.7,0,2.7s0.4,2.3,0.7,3c0.2,0.7,0.4,4.2,0.4,4.2s0.6,0.9,0.3,1.3
	c-0.2,0.4,1,1.1,1,1.1s-0.8,1.1-0.8,1.8s6.2,1.7,6.2,1.7l-2.4-25L79,62.9L75.3,63.2z"/>
<path class="st5" d="M75.3,63.2l0.1,8.1c0,0,0.2,6.1,0.2,6.9s0,2.7,0,2.7s0.4,2.3,0.7,3c0.2,0.7,0.4,4.2,0.4,4.2s0.6,0.9,0.3,1.3
	c-0.2,0.4,1,1.1,1,1.1s-0.8,1.1-0.8,1.8s6.2,1.7,6.2,1.7l-2.4-25L79,62.9L75.3,63.2z"/>
<path class="st5" d="M86.9,96.3c-1.8,4.3-6.1,1-6.1,1s0-0.1,0-0.2c0.2-0.2,0.4-0.4,0.4-0.4l5.5-1.1C86.6,95.6,86.7,95.9,86.9,96.3z"
	/>
<path class="st16" d="M86.9,95.9c-1.8,4.5-6.2,1.1-6.2,1.1s-0.1-2.4,0.1-3.4c0.3-1.1-0.3-4.3-0.3-4.3s-0.3-2.9-0.6-3.5
	c-0.3-0.7-0.3-2-0.3-2.1s0.1-1-0.1-1.6S79.1,80,79.1,80s0-2.1-0.2-3.3L78,72.3l-1.6-8.8l0.5-0.1l8.7-1.5c0,0,1.6,8.3,1.1,9.2
	c-0.1,0.2-0.2,0.6-0.3,1.1c-0.3,1.9-0.4,5.3-0.4,5.3s1.1,1.7,0.7,2.9c-0.4,1.2,0.4,3.2,0.4,3.2s0.2,7.7-0.2,8.5
	C86.3,92.8,86.9,95.9,86.9,95.9z"/>
<path class="st17" d="M86.1,39.3c0,0-7.9,5.5-6.1,2.8c1-1.5,0.8-3.4,0.4-4.8c-0.2-0.7-0.4-1.4-0.8-2.1c0,0,6.7-2.8,5.8-0.3
	c-0.2,0.6-0.3,1.2-0.3,1.8C85.2,37.6,85.5,38.5,86.1,39.3z"/>
<path class="st17" d="M71.9,52c0,0-3.3-1-3.9,0s0.2,3,1.2,3.3s3.3-1.1,3.3-1.1L71.9,52z"/>
<path class="st9" d="M75.7,50.3l-1.4,1.3c0,0-2.4,0.2-3.1,0.1c0,0,0.6,4.3-0.3,4.8l5.6-1.1L75.7,50.3z"/>
<path class="st5" d="M75.7,50.3l-1.4,1.3c0,0-2.4,0.2-3.1,0.1c0,0,0.6,4.3-0.3,4.8l5.6-1.1L75.7,50.3z"/>
<path class="st5" d="M58,32c0,2.3-1.9,4.2-4.2,4.2c-2.1-1-4.2-1.9-4.2-4.2c-0.1-2.3,1.7-4.2,4-4.3c2.3-0.1,4.2,1.7,4.3,4
	C58,31.8,58,31.9,58,32L58,32z"/>
<path class="st12" d="M58,31.9c0,2.3-1.9,4.1-4.1,4.1c-2.3,0-4.1-1.9-4.1-4.1c0-2.3,1.9-4.1,4.1-4.1c1.2,0,2.4,0.6,3.2,1.5
	C57.6,30,58,31,58,31.9z"/>
<path class="st5" d="M60.4,57.3c-0.4,0.3-0.8,0.5-1.3,0.7c0,0-2.1-0.3-2.4,0.1c-0.3,0.4-3,0.5-3,0.5s-4.1-0.2-4.7-0.7
	c-0.2-0.2-0.4-0.3-0.6-0.4l0.1-1.1c0,0,10.6-0.7,11.4,0.1C60.1,56.8,60.3,57,60.4,57.3z"/>
<path class="st13" d="M60.9,56.6c-0.1,0.5-1.8,1.2-1.8,1.2s-2.1-0.3-2.4,0.1s-3,0.5-3,0.5s-4.1-0.2-4.7-0.7c-0.6-0.5-2-0.8-2-0.8
	s-0.7-4.9-0.4-6c0.3-1.1-0.4-4-0.6-5.1c-0.2-1.1,0.5-4,1.2-4.4c0.8-0.5,1.9-2,2.5-2.5c0.6-0.4,1.2-0.9,1.4-1.1l0.1,0
	c0,0,0.1-0.9,0.6-1.3c0.4-0.4,4.5,2.8,4.5,2.8s0,0.2,0.3-0.2c0.1-0.1,0.6,0.7,0.7,1c0,0,2.2,3.9,2.4,4.7s0.7,3.4,0.8,4
	c0,0.2,0.1,0.7,0.1,1.5c0,0.2,0,0.3,0,0.5c0.1,1.3,0.2,2.9,0.2,4.1c0,0.1,0,0.3,0,0.4C60.9,55.7,60.9,56.1,60.9,56.6z"/>
<path class="st5" d="M46.8,46.6c0,0,1.5,1.9,2,1.9C49.4,48.5,46.8,46.6,46.8,46.6z"/>
<path class="st5" d="M50.1,50.6c0,0-2.5,2.7-2.2,3.2C48.2,54.3,50.1,50.6,50.1,50.6z"/>
<path class="st5" d="M48.2,56c0,0,2.9-3.1,3-4.2L48.2,56z"/>
<path class="st5" d="M51.8,56.2c0,0,3.3-1.7,3.6-3.1S51.8,56.2,51.8,56.2z"/>
<path class="st5" d="M56,39.4l-0.5,1.1l0.8,0.4l0.7,2.1c0,0,2.1,4.1,2,6.3c-0.1,2.1,0.4,5.4,0.4,5.4l1.2-0.2L60,48
	c-0.1-1-0.3-1.9-0.7-2.8c-1-2.2-2.7-6.2-2.8-6.2c-0.2,0,0,0.1,0,0.1L56,39.4z"/>
<path class="st18" d="M56.1,39.3l-0.5,1.1l0.8,0.4l0.7,2.1c0,0,2.1,4.1,2,6.3c-0.1,2.1,0.4,5.4,0.4,5.4l1.2-0.2l-0.6-6.3
	c-0.1-1-0.3-1.9-0.7-2.8c-1-2.2-2.7-6.2-2.8-6.2c-0.2,0,0,0.1,0,0.1L56.1,39.3z"/>
<path class="st12" d="M69.6,55.5c-0.6,0-2-0.7-2.5-1l-0.2-0.1l0-2.1c0.1-0.1,0.3-0.2,0.4-0.2c0.7-0.3,2.2-0.8,3,0.6
	C71.3,54.5,70.3,55.6,69.6,55.5z"/>
<path class="st5" d="M57,29.3c-0.1,0-0.1,0.1-0.2,0.1c-0.5,0.1-1-0.3-1.4,0c-0.3,0.2-0.3,0.5-0.3,0.8c-0.1,0.5-0.1,1-0.2,1.5
	c0,0.2-0.1,0.4-0.1,0.5c-0.2,0.5-0.8,0.7-1.3,0.7c-0.2,0-0.4-0.1-0.5-0.2c-0.1-0.1-0.1-0.2-0.2-0.3c-0.6-0.5-0.8,0.8-0.7,1.2
	c0.3,0.6,1.3,1.2,0.8,2c-0.1,0.1-0.2,0.2-0.3,0.3c-2.2-0.7-3.4-3-2.7-5.2c0.7-2.2,3-3.4,5.2-2.7C55.8,28.2,56.5,28.7,57,29.3z"/>
<path class="st19" d="M52.6,32.4c0.1,0.1,0.1,0.2,0.2,0.3c0.2,0.1,0.3,0.2,0.5,0.2c0.5,0,1.1-0.2,1.3-0.7c0.1-0.2,0.1-0.4,0.1-0.5
	l0.2-1.5c0-0.3,0.1-0.6,0.3-0.8c0.4-0.3,1,0.1,1.4,0c0.4-0.1,0.6-0.4,0.5-0.8c-0.1-0.2-0.2-0.4-0.3-0.7c-0.1-0.2-0.1-0.4-0.1-0.6
	c-0.3-1-1.5-1.6-2.5-1.4c-0.6,0.1-1.1,0.4-1.7,0.5c-0.4,0.1-0.8,0-1.2,0.1c-0.4,0-0.8,0.2-1.1,0.3c-0.1,0-0.2,0.1-0.2,0.2
	c-0.1,0.1-0.1,0.2-0.1,0.3c-0.1,0.5-0.6,0.9-0.9,1.3c-0.4,0.5-0.6,1.1-0.6,1.7c0,0.2,0,0.3,0,0.5c0,0.1,0.1,0.2,0.1,0.3
	c0.1,0.3-0.1,0.6-0.2,0.9c-0.1,0.4-0.1,0.7,0.1,1.1c0.5,1.1,2.1,1.5,2.5,2.7c0.3,0.1,0.6,0.2,1,0.3c0.3,0,0.7-0.1,0.9-0.4
	c0.4-0.8-0.6-1.4-0.8-2C51.7,33.2,51.9,31.9,52.6,32.4z"/>
<path class="st5" d="M85.4,34.8c-0.2,0.6-0.3,1.2-0.3,1.8c-0.2,0.2-0.4-0.3-0.6-0.2c-0.6,0.4-1.4,1.2-2.1,1.2c-0.7,0-1.4-0.2-2-0.5
	c-0.2-0.7-0.4-1.4-0.8-2.1C79.6,35.1,86.3,32.3,85.4,34.8z"/>
<path class="st17" d="M86.7,33.2c0,2.4-1.9,4.3-4.3,4.3c-2.4,0-4.3-1.9-4.3-4.3s1.9-4.3,4.3-4.3C84.7,28.9,86.7,30.8,86.7,33.2
	C86.7,33.2,86.7,33.2,86.7,33.2z"/>
<path class="st20" d="M86.5,40.3c0,0-0.8,0.9-0.9,1c-0.1,0.1-2.5,10-2.5,10.1s-2.8,9.1-2.8,9.1l-4.4,2.2l0.4-11l3.2-9
	c0,0,1.1-1.2,1.4-1.7c0.3-0.4,4.5-3.1,4.5-3.1l0.7,1.5L86.5,40.3z"/>
<path class="st5" d="M85.9,39.5l-5.1,3.6l-0.1-2c0.3-0.4,4.5-3.1,4.5-3.1L85.9,39.5z"/>
<path class="st20" d="M86,39.3l-5.1,3.6l-0.1-2c0.3-0.4,4.5-3.1,4.5-3.1L86,39.3z"/>
<path class="st9" d="M80.7,40l0.2,0.9l-1.1,1.2L80.7,40c-0.1,0-2,1.4-2.6,1.7c-0.6,0.4-1.2,1.6-1.2,1.9S76,49,76,49
	s-0.7,1.9-0.5,2.4c0.2,0.5-1.1,17.1-1.1,17.1c0.3-0.7,0.9-1.1,1.7-1.3l-0.4-9.8c0,0,0.5-6.5,0.6-6.6s1.3-3.9,1.3-3.9L80.7,40z"/>
<path class="st5" d="M81,41l-0.1,1.8c0,0-1.2,3.9-1.6,4.5c-0.4,0.6-1.7,4.4-1.7,4.4l-0.7,6.6l-1.2,0.6L75,57.8l1-6.4
	c0,0,1.9-5.4,2.2-5.9l1.4-2.9L81,41z"/>
<path class="st21" d="M80.8,40.9l-0.1,1.8c0,0-1.2,3.9-1.6,4.5c-0.4,0.6-1.7,4.4-1.7,4.4l-0.7,6.6l-1.2,0.6l-0.6-1.1l1-6.4
	c0,0,1.9-5.4,2.2-5.9l1.4-2.9L80.8,40.9z"/>
<path class="st17" d="M66.5,54.8l2.4,1.6c0,0,1.7-0.9,0.7-1.6c-1-0.6-1.8-0.7-2.2-0.7S66.5,54.8,66.5,54.8z"/>
<path class="st17" d="M68.3,51.7c-0.1,0.1-0.2,0.2-0.2,0.3c0,0.5,0.1,1.8,0.5,1.2c0.5-0.7,0.4-1.4,1.2-0.9c0.5,0.3,0.9,0.7,1.3,1.2
	L70.8,52C70.8,52,69.2,51.2,68.3,51.7z"/>
<path class="st5" d="M86.7,71.1c-0.1,0.2-0.2,0.6-0.3,1.1c-4.9,1.5-8.4-1.6-8.4-1.6c-0.4-1.5-0.8-2.9-1.1-4.4
	c-0.1-0.5-0.1-1.5,0-2.7l8.7-1.5C85.6,62,87.3,70.3,86.7,71.1z"/>
<path class="st9" d="M91.7,46.4c-0.2,0.7-0.1,2.2-0.1,2.2l-2,9.4c0,0-1,7.3-1.1,8.2c-0.2,1-0.4,5.2-0.4,5.2c-5.6,2.8-10-1-10-1
	c-0.4-1.5-0.8-2.9-1.1-4.4c-0.3-1.6,0.5-8.2,0.9-11.2c0.1-0.9,0.2-1.4,0.2-1.4l1.5-5.4c0,0,1.8-4.6,2.4-5.9c0.7-1.3,3.3-4.3,3.3-4.3
	c0.3-0.2,0.9,0.5,1.3,1.2c0.3,0.5,0.5,1,0.5,1s3.3,1.4,3.8,2.2c0.5,0.8,0.4,2.4,0.5,2.4C91.4,44.7,91.9,45.6,91.7,46.4z"/>
<path class="st5" d="M83.9,43c0,0,0.2,1.5-0.4,1.9c-0.6,0.4-5.2,9.5-5.5,10c0.1-0.9,0.2-1.4,0.2-1.4l1.5-5.4c0,0,1.8-4.6,2.4-5.9
	c0.7-1.3,3.3-4.3,3.3-4.3c0.3-0.2,0.9,0.5,1.3,1.2C86.1,40.4,84.8,42.7,83.9,43z"/>
<path class="st9" d="M83.8,42.9c0,0,0.2,1.5-0.4,1.9c-0.6,0.4-5.2,9.5-5.5,10c0.1-0.9,0.2-1.4,0.2-1.4l1.5-5.4c0,0,1.8-4.6,2.4-5.9
	c0.7-1.3,3.3-4.3,3.3-4.3c0.3-0.2,0.9,0.5,1.3,1.2C86,40.3,84.7,42.6,83.8,42.9z"/>
<polygon class="st22" points="90.3,56.1 88.8,64.3 88.8,64.3 88.6,65.1 88.6,65.1 88.3,66.8 86.9,66.5 86.2,66.4 76.9,64.4 
	76.3,64.3 74.7,63.9 75,61.9 75.1,61.1 76.3,53.6 "/>
<path class="st17" d="M81.7,62.8c0,0-3.7,1.3-2.9,2.9c0.8,1.6,5.9-1.2,5.9-1.2L81.7,62.8z"/>
<path class="st5" d="M84.3,74.1c0,0.1,0.1,1.5,0.7,2C85.6,76.6,84.3,74.1,84.3,74.1z"/>
<path class="st5" d="M80.6,79.1c0,0,0.7,1.8,3.3,2.6S80.6,79.1,80.6,79.1z"/>
<path class="st5" d="M86.7,33.2c0,1.5-0.8,3-2.2,3.7c-0.2-0.1-0.5-0.3-0.6-0.5c-0.2-0.2-0.3-0.5-0.2-0.8c0.1-0.2,0.3-0.4,0.4-0.6
	c0-0.1,0-0.3,0-0.4c0-0.2-0.1-0.4-0.1-0.6c0-0.2-0.1-0.4-0.3-0.4c-0.2,0-0.3,0.1-0.5,0.2c-0.3,0.3-1,0.5-1.4,0.2s-0.3-1-0.4-1.4
	c0-0.1,0-0.1-0.1-0.2c-0.1,0-0.1,0-0.2,0c-0.2,0-0.4-0.2-0.5-0.4c0-0.2-0.1-0.4-0.1-0.7c0-0.2-0.1-0.5-0.3-0.6
	c-0.2-0.1-0.3-0.1-0.5-0.1l-0.8,0c1.4-1.9,4.1-2.3,6-0.9C86,30.5,86.7,31.8,86.7,33.2L86.7,33.2z"/>
<path class="st21" d="M83.2,33.7c0.1-0.1,0.3-0.3,0.5-0.2c0.2,0,0.3,0.3,0.3,0.4l0.1,0.6c0,0.1,0,0.3,0,0.4
	c-0.1,0.2-0.3,0.4-0.4,0.6c-0.1,0.3,0,0.6,0.2,0.8c0.3,0.4,0.8,0.7,1.3,0.8c0.1,0,0.3,0,0.4,0c0.3-0.1,0.5-0.4,0.7-0.6
	c0.9-1.3,1.6-2.8,1.7-4.4c0-0.3,0-0.6,0-1c-0.1-0.2-0.2-0.5-0.3-0.7c-0.2-0.5-0.5-0.9-0.8-1.3c-0.6-0.6-1.4-1-2.2-1.3
	c-0.9-0.3-1.9-0.3-2.9-0.2c-0.3,0-0.5,0.1-0.8,0.1c-0.3,0-0.6,0-1,0l-1.9-0.1c-0.1,0.2,0,0.5,0.1,0.7c0.1,0.2,0.3,0.4,0.3,0.7
	c0,0.2-0.2,0.4-0.3,0.6s-0.2,0.5-0.1,0.7s0.4,0.2,0.6,0.2l1,0c0.2,0,0.3,0,0.5,0.1c0.2,0.1,0.3,0.4,0.3,0.6c0,0.2,0,0.4,0.1,0.7
	c0.1,0.2,0.2,0.4,0.5,0.4c0.1,0,0.1,0,0.2,0c0.1,0,0.1,0.1,0.1,0.2c0.1,0.4-0.1,1.2,0.4,1.4C82.2,34.2,82.9,34,83.2,33.7z"/>
<path class="st5" d="M88.7,42.2c-1-0.1-1.9,0.5-2.2,1.4c-0.5,1.5-1.4,4.1-1.2,5.2c0.3,1.5,0.7,4,0.7,4s1.6,0.9,0.8,1.8
	c-0.8,0.9-1,2.2-1,2.2s-1,0.4-1.2,1.4c-0.2,0.9-1.7,2.2-1.7,2.2l-2.2,2.2c0,0,3.7,3.8,4.5,4l2.3-2.7l2.7-3.6l2.4-2.5
	c0,0,0.6-1.3,0.3-3.8s-1.4-4.8-1.4-4.8l0.1-0.8C91.3,48.5,91.6,42.6,88.7,42.2z"/>
<path class="st9" d="M88.9,42.2c-1-0.1-1.9,0.5-2.2,1.4c-0.5,1.5-1.4,4.1-1.2,5.2c0.3,1.5,0.7,4,0.7,4s1.6,0.9,0.8,1.8
	c-0.8,0.9-1,2.2-1,2.2s-1,0.4-1.2,1.4c-0.2,0.9-1.7,2.2-1.7,2.2l-2.2,2.2c0,0,3.7,3.8,4.5,4l2.3-2.7l2.7-3.6l2.4-2.5
	c0,0,0.6-1.3,0.3-3.8c-0.3-2.5-1.4-4.8-1.4-4.8l0.1-0.8C91.6,48.5,91.8,42.6,88.9,42.2z"/>
<path class="st5" d="M86.6,50.6c0,0,2.4,2.9,3.3,2.2C91,52.2,86.6,50.6,86.6,50.6z"/>
<path class="st5" d="M87.5,48.4c0.2,0.1,2.3,2.9,3.3,2.6C91.9,50.7,87.5,48.4,87.5,48.4z"/>
<path class="st5" d="M88.1,53.3c0,0,0.1,1.6,1.8,1.4C91.6,54.5,88.1,53.3,88.1,53.3z"/>
<polygon class="st5" points="80.6,40.2 79.7,42.2 80.8,41 "/>
<polygon class="st20" points="80.6,40 79.7,42.1 80.8,40.9 "/>
<polygon class="st23" points="76.9,64.4 76.3,64.3 75,61.9 75.1,61.1 "/>
<polygon class="st23" points="88.8,64.3 88.6,65.1 88.6,65.1 86.9,66.5 86.2,66.4 "/>
<path class="st5" d="M60.9,55.2c-0.3,0.1-0.7,0.1-1,0.1c-1.7,0.2-5.7-1.8-5.7-1.8s-4.9-4.1-6.3-8s1.7-4.5,1.7-4.5
	c1.2-0.7,3.7,1.2,4.1,1.5c0.4,0.3,0.7,1.1,0.6,1.6c0,0.5,0.8,1.1,0.8,1.1s1.5,2.5,1.8,2.8c0.4,0.3,0.4,0.5,0.6,1
	c0.1,0.5,1.1,0.9,1.5,0.8c0.4,0,0.9,0.1,0.9,0.4c0,0.2,0.4,0.3,0.7,0.3C60.7,52.1,60.8,53.9,60.9,55.2z"/>
<path class="st5" d="M60.9,54.8c-0.3,0-0.5,0.1-0.7,0.1c-1.7,0.2-5.7-1.8-5.7-1.8s-4.9-4.1-6.3-8s1.7-4.5,1.7-4.5
	c1.2-0.7,3.7,1.2,4.1,1.5c0.4,0.3,0.7,1.1,0.6,1.6c0,0.5,0.8,1.1,0.8,1.1s1.5,2.5,1.8,2.8c0.4,0.3,0.4,0.5,0.6,1s1.1,0.9,1.5,0.8
	c0.4,0,0.9,0.1,0.9,0.4c0,0.1,0.2,0.2,0.5,0.3c0,0.2,0,0.3,0,0.5C60.7,51.9,60.8,53.6,60.9,54.8z"/>
<path class="st5" d="M67.3,52l-0.1,2.5h-0.1l-0.2-0.1l0-2.1C67,52.1,67.1,52.1,67.3,52z"/>
<path class="st13" d="M49.6,40.9c0,0-3.1,0.6-1.7,4.5s6.3,8,6.3,8s4,2,5.7,1.8c1.7-0.2,4.3-0.8,4.6-0.7c0.3,0.1,2.6,0.1,2.6,0.1
	l0.1-2.6l-2.6-0.1l-1.3-0.3c0,0-0.5-0.4-0.7-0.3s-0.9-0.3-0.9-0.3s-0.4-0.4-0.8-0.4c-0.3,0-1-0.1-1-0.3s-0.5-0.4-0.9-0.4
	c-0.4,0-1.4-0.4-1.5-0.8c-0.1-0.5-0.2-0.7-0.6-1c-0.4-0.3-1.8-2.8-1.8-2.8s-0.9-0.6-0.8-1.1s-0.3-1.3-0.6-1.6
	C53.3,42.1,50.7,40.3,49.6,40.9z"/>
<path class="st5" d="M57.6,49.8c0,0-1.2,1.2-0.9,1.4L57.6,49.8z"/>
<path class="st5" d="M58.8,50.8c0,0-1.6,1.2-1.1,1.3C58.1,52.1,58.8,50.8,58.8,50.8z"/>
<path class="st5" d="M56.2,52.5c0.2,0.1,3.5,2.1,4.8,2L56.2,52.5z"/>
<path class="st5" d="M56.4,39.4c0,0-0.6,1.9-0.8,1.9c-0.2,0-3.1-2.4-4.3-3.4l0.1,0c0,0,0.1-0.9,0.6-1.3
	C52.4,36.2,56.4,39.4,56.4,39.4z"/>
<path class="st13" d="M56.3,39.2c0,0-0.6,1.9-0.8,1.9c-0.2,0-3.1-2.4-4.3-3.4l0.1,0c0,0,0.1-0.9,0.6-1.3
	C52.2,36,56.3,39.2,56.3,39.2z"/>
<g class="st24">
	<path d="M48.5,33L48.5,33c0.4,0.9,1.5,1.3,2.1,2C50.2,34.2,49.1,33.7,48.5,33z"/>
	<path d="M52.4,35.1c-0.2,0.3-0.5,0.4-0.9,0.4c-0.3,0-0.6-0.1-0.9-0.2c0.1,0.1,0.2,0.3,0.2,0.5c0.3,0.1,0.6,0.2,1,0.3
		c0.3,0,0.7-0.1,0.9-0.4c0.2-0.5,0-0.9-0.3-1.3C52.6,34.5,52.6,34.8,52.4,35.1z"/>
	<path d="M57.3,28.6c-0.1-0.2-0.2-0.4-0.3-0.7c-0.1-0.2-0.1-0.4-0.1-0.6c-0.1-0.3-0.2-0.5-0.4-0.7c0,0.1,0,0.1,0.1,0.2
		c0,0.2,0.1,0.4,0.1,0.6c0.1,0.2,0.3,0.4,0.3,0.7c0.1,0.4-0.2,0.7-0.5,0.8c-0.5,0.1-1-0.3-1.4,0c-0.3,0.2-0.3,0.5-0.3,0.8
		c-0.1,0.5-0.1,1-0.2,1.5c0,0.2-0.1,0.4-0.1,0.5c-0.2,0.5-0.8,0.7-1.3,0.7c-0.2,0-0.4-0.1-0.5-0.2c-0.1-0.1-0.2-0.2-0.2-0.3
		c-0.6-0.5-0.8,0.8-0.7,1.2c0.1,0.2,0.2,0.3,0.3,0.5c-0.1-0.4,0.1-1.7,0.7-1.1c0.1,0.1,0.2,0.2,0.2,0.3c0.2,0.1,0.3,0.2,0.5,0.2
		c0.5,0,1.1-0.2,1.3-0.7c0.1-0.2,0.1-0.4,0.1-0.5c0.1-0.5,0.1-1,0.2-1.5c0-0.3,0.1-0.6,0.3-0.8c0.4-0.3,1,0.1,1.4,0
		C57.1,29.3,57.3,28.9,57.3,28.6z"/>
</g>
<path class="st5" d="M86,36.8c-0.1,0-0.3,0-0.4,0c-0.5-0.1-1-0.4-1.3-0.8c-0.2-0.2-0.3-0.5-0.2-0.8c0.1-0.2,0.3-0.4,0.4-0.6
	c0-0.1,0-0.3,0-0.4l-0.1-0.6c0-0.2-0.1-0.4-0.3-0.4s-0.3,0.1-0.5,0.2c-0.3,0.3-1,0.5-1.4,0.2c-0.4-0.2-0.3-1-0.4-1.4
	c0-0.1,0-0.1-0.1-0.2c-0.1,0-0.1,0-0.2,0c-0.2,0-0.4-0.2-0.5-0.4c0-0.2-0.1-0.4-0.1-0.7c0-0.2-0.1-0.5-0.3-0.6
	c-0.2-0.1-0.3-0.1-0.5-0.1l-1,0c-0.2,0-0.5,0-0.6-0.2c-0.1-0.2,0-0.5,0.1-0.7s0.3-0.4,0.3-0.6c0-0.2-0.1-0.5-0.3-0.7
	c-0.1-0.1-0.1-0.2-0.2-0.4l-0.3,0c-0.1,0.2,0,0.5,0.1,0.7s0.3,0.4,0.3,0.7s-0.2,0.4-0.3,0.6s-0.2,0.5-0.1,0.7
	c0.1,0.2,0.4,0.2,0.6,0.2l1,0c0.2,0,0.3,0,0.5,0.1c0.2,0.1,0.3,0.4,0.3,0.6c0,0.2,0,0.4,0.1,0.7c0.1,0.2,0.2,0.4,0.5,0.4
	c0.1,0,0.1,0,0.2,0c0.1,0,0.1,0.1,0.1,0.2c0.1,0.4-0.1,1.2,0.4,1.4c0.4,0.2,1.1,0,1.4-0.2c0.1-0.1,0.3-0.3,0.5-0.2
	c0.2,0,0.3,0.3,0.3,0.4l0.1,0.6c0,0.1,0,0.3,0,0.4c-0.1,0.2-0.3,0.4-0.4,0.6c-0.1,0.3,0,0.6,0.2,0.8c0.3,0.4,0.8,0.7,1.3,0.8
	c0.1,0,0.3,0,0.4,0c0.2-0.1,0.4-0.2,0.5-0.4C86.2,36.8,86.1,36.8,86,36.8z"/>
<ellipse class="st0" cx="26.4" cy="93.7" rx="3.1" ry="0.5"/>
<ellipse class="st0" cx="136" cy="81.2" rx="3.1" ry="0.5"/>
<ellipse class="st0" cx="104" cy="100.6" rx="9.1" ry="1.4"/>
<ellipse class="st0" cx="129.8" cy="94.7" rx="7.1" ry="1.1"/>
<ellipse class="st0" cx="128.7" cy="105.5" rx="12" ry="1.8"/>
<ellipse class="st0" cx="13" cy="107.1" rx="9.1" ry="1.4"/>
<path class="st22" d="M26.6,78.4c0,0,0.4,0.5-0.2,1.2c-0.5,0.7-0.9,1.3-0.8,1.7c0,0,0.8-1.3,1.4-1.3C27.7,79.9,27.3,79.1,26.6,78.4z
	"/>
<path class="st5" d="M26.6,78.4c0,0,0.1,0.1,0.1,0.1c0.6,0.7,1,1.4,0.4,1.4c-0.6,0-1.2,1-1.4,1.3c0,0,0,0,0,0.1c0,0,0.8-1.3,1.4-1.3
	C27.7,79.9,27.3,79.1,26.6,78.4z"/>
<path class="st25" d="M27.2,78.9c0,0.2,0,0.3,0,0.3S27.2,79.1,27.2,78.9C27.2,78.8,27.2,78.9,27.2,78.9
	C27.2,78.9,27.2,78.8,27.2,78.9z"/>
<path class="st25" d="M27.5,79.1c-0.1,0.1-0.3,0.1-0.3,0.1S27.3,79.2,27.5,79.1C27.6,79,27.5,79.1,27.5,79.1
	C27.5,79.1,27.6,79.1,27.5,79.1z"/>
<path class="st22" d="M24.7,78.4c0,0-0.4,0.5,0.2,1.2c0.5,0.7,0.9,1.3,0.8,1.7c0,0-0.8-1.3-1.4-1.3C23.6,79.9,24,79.1,24.7,78.4z"/>
<path class="st5" d="M24.7,78.4c0,0-0.1,0.1-0.1,0.1c-0.6,0.7-1,1.4-0.4,1.4c0.6,0,1.2,1,1.4,1.3c0,0,0,0,0,0.1c0,0-0.8-1.3-1.4-1.3
	C23.6,79.9,24,79.1,24.7,78.4z"/>
<path class="st25" d="M24,78.9c0,0.2,0,0.3,0,0.3C24.1,79.2,24.1,79.1,24,78.9C24.1,78.8,24.1,78.9,24,78.9
	C24.1,78.9,24,78.8,24,78.9z"/>
<path class="st25" d="M23.8,79.1c0.1,0.1,0.3,0.1,0.3,0.1C24.1,79.2,24,79.2,23.8,79.1C23.7,79,23.8,79.1,23.8,79.1
	C23.8,79.1,23.7,79.1,23.8,79.1z"/>
<ellipse class="st0" cx="25.6" cy="84.2" rx="3.7" ry="0.6"/>
<path class="st26" d="M27.6,80.6l0,0.1l0,0.2l0,0.1l0,0.2l0,0.1l0,0.2l-0.3,2.3c0,0.2-0.4,0.4-0.8,0.4h-1.5c-0.4,0-0.8-0.2-0.8-0.4
	l-0.3-2.3l0-0.2l0-0.1l0-0.2l0-0.1l0-0.2l0-0.1c0-0.1,0.2-0.2,0.4-0.2h3C27.4,80.4,27.6,80.5,27.6,80.6z"/>
<polygon class="st27" points="27.5,80.8 27.5,81 23.8,81 23.8,80.8 "/>
<polygon class="st27" points="27.5,81.1 27.5,81.3 23.8,81.3 23.8,81.1 "/>
<polygon class="st27" points="27.5,81.4 27.4,81.6 23.8,81.6 23.8,81.4 "/>
<path class="st22" d="M133.5,76.6c0,0-0.4,2.1,1.5,2.3l0.1-0.2C135.2,78.6,133.6,77.2,133.5,76.6z"/>
<path class="st22" d="M135.8,78.6l-0.5,0.1l0,0c0,0-1.2-1-1.2-3.2c0.2,0.3,0.4,0.6,0.6,0.9C135.2,77.1,135.7,77.9,135.8,78.6z"/>
<path class="st22" d="M136,78.8c-0.1,0-0.2,0.1-0.2,0c-1.2-0.3-0.8-4.1-0.8-4.1c0.1,0,0.1,0.5,0.4,1.2C135.8,77,136.3,78.6,136,78.8
	z"/>
<path class="st22" d="M138.6,76.6c0,0,0.1,2.1-1.9,2.3l-0.1-0.2C136.6,78.6,138.5,77.2,138.6,76.6z"/>
<path class="st22" d="M138,75.5c0,2.2-1.6,3.2-1.6,3.2l0,0l-0.5-0.1c0.1-0.7,0.6-1.5,1.1-2.2C137.3,76.1,137.7,75.8,138,75.5z"/>
<path class="st22" d="M136.4,78.6c-0.1,0.1-0.2,0.2-0.3,0.2l0,0c0,0-0.1,0-0.1,0c-0.3,0.1-0.4-0.1-0.4-0.5c0-0.6,0.4-1.7,0.8-2.6
	c0.2-0.4,0.4-0.8,0.7-1.1C137.2,74.8,137.1,77.7,136.4,78.6z"/>
<path class="st22" d="M136.1,73.4c0,0-1.3,4.7-0.2,5.4C137,79.5,136.3,73.8,136.1,73.4z"/>
<path class="st5" d="M133.5,76.6c0,0-0.4,2.1,1.5,2.3l0.1-0.2C135.2,78.6,133.6,77.2,133.5,76.6z"/>
<path class="st5" d="M135.8,78.6l-0.5,0.1l0,0c0,0-1.2-1-1.2-3.2c0.2,0.3,0.4,0.6,0.6,0.9C135.2,77.1,135.7,77.9,135.8,78.6z"/>
<path class="st5" d="M136,78.8c-0.1,0-0.2,0.1-0.2,0c-1.2-0.3-0.8-4.1-0.8-4.1c0.1,0,0.1,0.5,0.4,1.2C135.8,77,136.3,78.6,136,78.8z
	"/>
<path class="st5" d="M138.6,76.6c0,0,0.1,2.1-1.9,2.3l-0.1-0.2C136.6,78.6,138.5,77.2,138.6,76.6z"/>
<path class="st5" d="M138,75.5c0,2.2-1.6,3.2-1.6,3.2l0,0l-0.5-0.1c0.1-0.7,0.6-1.5,1.1-2.2C137.3,76.1,137.7,75.8,138,75.5z"/>
<path class="st5" d="M136.4,78.6c-0.1,0.1-0.2,0.2-0.3,0.2l0,0c0,0-0.1,0-0.1,0c-0.3,0.1-0.4-0.1-0.4-0.5c0-0.6,0.4-1.7,0.8-2.6
	c0.2-0.4,0.4-0.8,0.7-1.1C137.2,74.8,137.1,77.7,136.4,78.6z"/>
<path class="st5" d="M136.1,73.4c0,0-1.3,4.7-0.2,5.4C137,79.5,136.3,73.8,136.1,73.4z"/>
<path class="st22" d="M133.5,76.6c0,0-0.3,2.1,1.7,2.3l0.1-0.2C135.4,78.6,133.6,77.2,133.5,76.6z"/>
<path class="st22" d="M136,78.6l-0.5,0.1l0,0c0,0-1.4-1-1.4-3.2c0,0,0.4,0.4,0.8,0.9C135.3,77.1,135.9,77.9,136,78.6z"/>
<path class="st5" d="M136,78.6l-0.5,0.1c-0.4-0.4-0.6-1.4-0.7-2.3C135.3,77.1,135.9,77.9,136,78.6z"/>
<path class="st22" d="M136.1,78.8c-0.1,0-0.2,0.1-0.2,0c-1.2-0.3-1-4.1-1-4.1c0.1,0,0.3,0.5,0.6,1.2C136,77,136.5,78.6,136.1,78.8z"
	/>
<path class="st22" d="M138.6,76.6c0,0,0.3,2.1-1.7,2.3l-0.1-0.2C136.7,78.6,138.5,77.2,138.6,76.6z"/>
<path class="st22" d="M138,75.5c0,2.2-1.4,3.2-1.4,3.2l0,0l-0.5-0.1c0.1-0.7,0.6-1.5,1.1-2.2C137.6,75.9,138,75.5,138,75.5z"/>
<path class="st5" d="M137.2,76.4c-0.1,0.8-0.2,1.8-0.6,2.2c0,0-0.1,0.1-0.1,0.1l-0.5-0.1C136.2,77.9,136.8,77.1,137.2,76.4z"/>
<path class="st22" d="M136.6,78.6c-0.1,0.1-0.2,0.2-0.3,0.2l0,0c0,0-0.1,0-0.1,0c-0.3,0.1-0.4-0.1-0.4-0.5c0-0.6,0.4-1.7,0.8-2.6
	c0.3-0.6,0.5-1,0.6-1.1C137.2,74.8,137.3,77.7,136.6,78.6z"/>
<path class="st5" d="M136.1,78.8c-0.1,0-0.1,0-0.2-0.1c-0.6-0.3-0.6-1.6-0.4-2.9C136,77,136.5,78.6,136.1,78.8z"/>
<path class="st5" d="M136.6,78.6c-0.1,0.1-0.1,0.2-0.3,0.2l0,0c-0.1,0-0.1,0-0.2-0.1c-0.1-0.1-0.3-0.2-0.3-0.4
	c0-0.6,0.4-1.7,0.8-2.6C136.7,77,136.8,78.2,136.6,78.6z"/>
<path class="st22" d="M136.1,73.4c0,0-1.1,4.7,0,5.4C137.2,79.5,136.3,73.8,136.1,73.4z"/>
<polygon class="st28" points="138.2,78.5 133.5,78.5 133.5,79.3 134.2,79.3 134.2,79.4 134.5,80.9 137.3,80.9 137.6,79.4 
	137.6,79.3 138.2,79.3 "/>
<polygon class="st5" points="138.2,78.5 133.5,78.5 133.5,79.3 134.2,79.3 134.2,79.4 134.5,80.9 137.3,80.9 137.6,79.4 137.6,79.3 
	138.2,79.3 "/>
<polygon class="st28" points="137.8,79 137.7,79.4 137.5,80.9 134.7,80.9 134.4,79.4 134.4,79 "/>
<polygon class="st5" points="137.8,79 137.7,79.4 134.4,79.4 134.4,79 "/>
<rect x="133.7" y="78.5" class="st28" width="4.7" height="0.8"/>
<path class="st22" d="M18.1,91.9c-0.1,0.2-0.2,0.4-0.3,0.6c0,0,0,0.1-0.1,0.2c0,0-0.1,0-0.1,0c-0.2,0-0.3-0.1-0.5,0
	c0-0.1,0-0.1,0-0.2c0-0.7-0.1-1.6-0.7-1.2c-0.6,0.4-0.2,1,0.2,1.5c0,0,0.1,0.1,0.1,0.1c-0.4,0.3-0.4,0.9-0.5,1.5
	c-0.1,0.6-0.6,1.3-1,1.7c0,0-0.1,0.1-0.1,0.1c-0.3-0.2-0.7-0.3-1-0.3c0-0.1,0-0.1,0-0.2c-0.3-1.1-0.9-2.9-1.7-3.3l0.1-0.1
	c0.3-0.4,0.7-1.1,0.2-1.2c-0.5-0.2-0.6,0.6-0.6,1.1c0,0.1,0,0.1,0,0.2c-0.2,0-0.4,0.1-0.6,0.3l-0.1-0.1c-0.4-0.5-1.3-1.3-1.5-0.7
	c-0.2,0.6,0.5,1.3,1,1.8l0,0c-0.3,1.4,1.1,2.5,1.9,3l0.1,0.1c-1.1,1.3-1.8,3.7-1.8,3.7l3.1,0.5c0,0,2-1.7,1.8-3.4h0
	c2-0.4,2.5-2.6,2.2-3.8l0,0c0.4-0.2,0.7-0.4,0.9-0.7C19.9,92,18.7,91.1,18.1,91.9z"/>
<path class="st5" d="M18.1,91.9c-0.1,0.2-0.2,0.4-0.3,0.6c0,0,0,0.1-0.1,0.2c0,0-0.1,0-0.1,0c-0.2,0-0.3-0.1-0.5,0
	c0-0.1,0-0.1,0-0.2c0-0.7-0.1-1.6-0.7-1.2c-0.6,0.4-0.2,1,0.2,1.5c0,0,0.1,0.1,0.1,0.1c-0.4,0.3-0.4,0.9-0.5,1.5
	c-0.1,0.6-0.6,1.3-1,1.7c0,0-0.1,0.1-0.1,0.1c-0.3-0.2-0.7-0.3-1-0.3c0-0.1,0-0.1,0-0.2c-0.3-1.1-0.9-2.9-1.7-3.3l0.1-0.1
	c0.3-0.4,0.7-1.1,0.2-1.2c-0.5-0.2-0.6,0.6-0.6,1.1c0,0.1,0,0.1,0,0.2c-0.2,0-0.4,0.1-0.6,0.3l-0.1-0.1c-0.4-0.5-1.3-1.3-1.5-0.7
	c-0.2,0.6,0.5,1.3,1,1.8l0,0c-0.3,1.4,1.1,2.5,1.9,3l0.1,0.1c-1.1,1.3-1.8,3.7-1.8,3.7l3.1,0.5c0,0,2-1.7,1.8-3.4h0
	c2-0.4,2.5-2.6,2.2-3.8l0,0c0.4-0.2,0.7-0.4,0.9-0.7C19.9,92,18.7,91.1,18.1,91.9z"/>
<path class="st22" d="M12,92.8l-0.4,1c0,0-0.2-0.1-0.4-0.4c-0.5-0.4-1.2-1.2-1-1.8c0.2-0.6,1.1,0.2,1.5,0.7
	C11.9,92.6,12,92.8,12,92.8z"/>
<path class="st22" d="M12.8,92.2c-0.1,0.1-0.2,0.3-0.3,0.4c0-0.2-0.1-0.4-0.1-0.6c0-0.5,0-1.2,0.6-1.1S13.1,91.8,12.8,92.2z"/>
<path class="st22" d="M17.4,92.3c0,0.3,0,0.6,0,0.6c-0.2-0.1-0.3-0.3-0.4-0.4c-0.4-0.4-0.9-1.1-0.2-1.5
	C17.3,90.7,17.4,91.7,17.4,92.3z"/>
<path class="st22" d="M19.5,92.8c-0.2,0.3-0.6,0.6-0.9,0.7c-0.1,0-0.2,0.1-0.3,0.1L17.8,93c0-0.2,0.1-0.4,0.2-0.6
	c0.1-0.2,0.2-0.4,0.3-0.6C18.9,91.1,20.1,92,19.5,92.8z"/>
<path class="st5" d="M11.7,92.4c0.2,0.2,0.3,0.4,0.3,0.4l-0.4,1c0,0-0.2-0.1-0.4-0.4c0.1-0.3,0.2-0.7,0.4-0.9
	C11.6,92.5,11.7,92.5,11.7,92.4z"/>
<path class="st5" d="M12.8,92.2c-0.1,0.1-0.2,0.3-0.3,0.4c0-0.2-0.1-0.4-0.1-0.6C12.5,92,12.7,92.1,12.8,92.2z"/>
<path class="st22" d="M14.5,96.3l-0.9,0.4c0,0-0.2-0.1-0.5-0.3c-0.9-0.6-2.8-2-1.6-3.7s2.3,1.4,2.7,2.8C14.5,96,14.5,96.3,14.5,96.3
	z"/>
<path class="st5" d="M16.9,92.6c0.1-0.1,0.3-0.2,0.5-0.2c0,0.3,0,0.6,0,0.6C17.2,92.8,17,92.7,16.9,92.6z"/>
<path class="st5" d="M18.5,93.5c-0.1,0-0.2,0.1-0.3,0.1L17.8,93c0-0.2,0.1-0.4,0.2-0.6C18.3,92.6,18.5,93,18.5,93.5z"/>
<path class="st22" d="M16.3,97.4c0,0-0.1,0-0.1,0c-3,0.5-1-1.2-1-1.2s0.1-0.1,0.3-0.3c0.4-0.4,0.9-1.1,1-1.7c0.1-1,0.2-1.9,1.3-1.6
	C18.9,92.8,19.2,96.8,16.3,97.4z"/>
<rect x="10.6" y="104.8" class="st29" width="5.7" height="1.5"/>
<rect x="9.7" y="99.9" class="st29" width="7.4" height="5.2"/>
<rect x="10.6" y="104.8" class="st5" width="5.7" height="1.5"/>
<rect x="9.7" y="99.9" class="st5" width="7.4" height="5.2"/>
<rect x="11" y="104.8" class="st29" width="5.7" height="1.5"/>
<path class="st5" d="M14.3,95.6c0.1,0.4,0.2,0.8,0.2,0.8l-0.9,0.4c0,0-0.2-0.1-0.5-0.3C13.5,96,13.9,95.7,14.3,95.6z"/>
<path class="st5" d="M16.3,97.4c0,0-0.1,0-0.1,0c-3,0.5-1-1.2-1-1.2s0.1-0.1,0.3-0.3C16.1,96.4,16.3,96.9,16.3,97.4z"/>
<path class="st22" d="M11.5,100.2c0,0,1.7-6,4-4.1s-1,4.7-1,4.7L11.5,100.2z"/>
<circle class="st5" cx="12.3" cy="93.7" r="0.2"/>
<circle class="st5" cx="12.3" cy="94.5" r="0.2"/>
<circle class="st5" cx="17.8" cy="93.8" r="0.2"/>
<circle class="st5" cx="13.4" cy="98.3" r="0.2"/>
<circle class="st5" cx="17.4" cy="95.3" r="0.2"/>
<circle class="st5" cx="15.4" cy="97.2" r="0.2"/>
<circle class="st5" cx="13" cy="94" r="0.2"/>
<circle class="st5" cx="17.2" cy="94.4" r="0.2"/>
<circle class="st5" cx="16.6" cy="95.8" r="0.2"/>
<circle class="st5" cx="14.6" cy="98.2" r="0.2"/>
<circle class="st5" cx="14.2" cy="97.3" r="0.2"/>
<circle class="st5" cx="13.3" cy="95.2" r="0.2"/>
<rect x="11" y="104.8" class="st5" width="5.7" height="0.5"/>
<rect x="10.1" y="99.9" class="st29" width="7.4" height="5.2"/>
<circle class="st5" cx="14.9" cy="99" r="0.2"/>
<circle class="st5" cx="13.8" cy="99.2" r="0.2"/>
<circle class="st0" cx="6.5" cy="7.7" r="1.4"/>
<circle class="st0" cx="136.9" cy="50.4" r="1.8"/>
<circle class="st0" cx="140.4" cy="46.5" r="1.3"/>
<circle class="st0" cx="8.8" cy="2.8" r="1.8"/>
<circle class="st0" cx="1.8" cy="11.1" r="1.8"/>
</svg>
