<svg version="1.1" id="Layer_1" xmlns="http://www.w3.org/2000/svg" x="0" y="0" viewBox="0 0 425.2 327.2" xml:space="preserve"><style>.st0,.st3,.st5{enable-background:new}.st0{fill:#ebaf41;opacity:.1}.st3{opacity:5.000000e-02}.st5{opacity:.1}.st6{fill:#fff}.st7{fill:#d3dae1}.st9{fill:#585b8a}.st12{fill:#ffd6d6}.st13{fill:#dce6f2}.st16{fill:#575988}.st17{fill:#d28690}.st20{fill:#f0f3f7}.st21{fill:#663d5c}.st22{fill:#ebaf41}.st25{fill:#ffd037}.st28{fill:#4b4770}.st29{fill:#d4dfec}</style><path class="st0" d="M419.8 98.9c0 .3 0 .6-.3.9-2.7 11.6-6.6 23-12.8 33.4-.3.3-.3.6-.6.9-4.2 6.6-9 12.8-14.6 18.2-3 3-6.6 6-10.4 8.1-5.7 3-12.2 4.2-18.5 5.1-6.6.9-13.4 1.8-20.3 2.7l-7.2.9c-6.6.9-13.1 2.1-19.4 3.6-7.8 1.8-15.5 4.2-22.4 7.5l-1.8.9-1.8.9c-.6.3-1.2.6-1.5.9-.3.3-.6.3-.9.6s-.6.3-.9.6c-.9.6-1.5.9-2.4 1.5-.6.3-.9.6-1.5.9-3 1.8-5.7 3.6-8.7 5.4l-1.8 1.2-2.7 1.8c-.6.3-1.2.6-1.8 1.2-.3.3-.9.6-1.2.9-2.1 1.2-4.2 2.4-6.3 3.9-.6.3-.9.6-1.5.9-4.2 2.4-8.7 4.5-13.4 6-2.4.9-4.8 1.5-7.2 2.1-1.5.3-2.7.6-4.2.6-3.9.6-7.5.6-11.3.3-7.5-.9-14.3-3.6-21.8-4.8-15.2-1.8-29.8 4.2-44.2 9.3-3.6 1.2-7.2 2.4-10.7 3.3-2.4.6-4.8 1.5-7.2 2.1-14.6 3.9-29.5 6.6-44.8 7.8-6.3.6-12.8.9-19.1.3-2.4 0-4.8-.3-7.2-.9-8.1-1.2-15.5-3.9-21.5-8.7-5.1-3.9-8.4-9-11-14.3-2.7-5.4-4.8-11.3-5.7-17.3 0-.9-.3-1.5-.3-2.4.3-1.2 0-2.7 0-4.2-.6-7.5.3-15.2 2.7-22.4 2.7-8.1 6.9-15.8 8.7-24.2 0-.3.3-.6.3-.9.3-1.2.3-2.4.6-3.9.9-10.1-2.7-19.7-5.7-29.5 0-.3-.3-.6-.3-.9-.3-1.2-.6-2.1-.9-3.3-2.7-10.4-3.3-21.5-.9-31.9 0-.3.3-.6.3-.9 1.5-6.6 4.5-12.5 8.7-17.9 4.5-5.7 10.1-10.4 16.4-14.3 3-2.1 6.3-3.9 9.5-5.7 2.4-1.2 4.5-2.4 7.2-3.6 19.4-9 41.8-13.1 63.9-12.2 1.2 0 2.4 0 3.6.3.9 0 2.4 0 3.6.3 14.3 1.5 28.1 4.8 41.8 8.4 4.5 1.2 9.3 2.4 13.7 3.6 2.1.6 4.2 1.2 6.3 1.5 10.1 2.7 20.3 4.8 30.4 6.6 2.1.6 4.5.9 6.9 1.5 8.4 1.2 16.7 1.8 25.1 2.1h9.8c1.8 0 3.3 0 5.1-.3 17-1.2 33.4-5.1 49.8-9 2.4-.6 4.8-1.2 7.2-1.5 3-.6 6.3-1.5 9.5-2.1 19.7-3.9 37-1.5 55.2 6.3 4.2 1.8 8.4 3.9 10.7 7.5s3.3 7.5 3.6 11.6c.6 5.7 1.2 11.6 1.2 17.3v.9c.2 11.2-.7 23.2-3.1 34.5z"/><path class="st0" d="M290 133.2h-1.2v1.2h1.5l-.3-1.2zm-14.3 0v.9h11l.9-.9h-11.9zm-29.9 0V99.8h12.8l-.3-.3h-.6l-.3-.3s-.3 0-.3-.3h-11v-1.8H245c-.3 0-.3.3-.6.3h-.3l-.3.3c-.6.3-.9.6-1.5.9l-.3.3c-.3.3-.6.3-.9.6 0 0-.3 0-.3.3h-.6c-.6.3-.9.3-1.5.3v32.5h-19.1c0 .3.3.6.3.9h18.8v35.8h7.2v-34.9h29.5v-.9l-29.6-.3zm44.2 0h-1.2v1.2h1.5l-.3-1.2zm-15.2 0v.9H287l.9-.9h-13.1zm-29 0V99.8h12.8l-.3-.3h-.6l-.3-.3s-.3 0-.3-.3h-11v-1.8H245c-.3 0-.3.3-.6.3h-.3l-.3.3c-.6.3-.9.6-1.5.9l-.3.3c-.3.3-.6.3-.9.6 0 0-.3 0-.3.3h-.6c-.6.3-.9.3-1.5.3v32.5h-19.1c0 .3.3.6.3.9h18.8v35.8h7.2v-34.9h28.9v-.9h-28.9v-.3zm96.7-69.5h80.3v-.9h-80.3V22.2c-2.4.6-4.8 1.2-7.2 1.5v38.8h-87.4l-.3-.3.3-.3 32.5-29.2c-3.3 0-6.6.3-9.8 0l-25.1 22.4V31.2c-2.1-.6-4.5-.9-6.9-1.2v24.5l-36.4-32.8c-4.5-1.2-9.3-2.4-13.7-3.6L238 62.9l-.3.3h-91V9.7c-1.2-.3-2.4-.3-3.9-.3-1.2 0-2.4 0-3.6-.3v53.7H75.8V21.3l-7.2 3.6v37.9H33.7c0 .3-.3.6-.3.9h34.9v35.2H35.5c0 .3.3.6.3.9h32.8v33.4H40.8c0 .3 0 .6-.3.9h28.1v93.4l7.2.9v-94h63.9v85.9c2.4-.6 4.8-1.2 7.2-2.1v-83.9h91.9v74.9c2.4-.6 4.8-1.2 7.2-2.1v-72.8h89.5v35.2l7.2-.9v-34.3h63.6c.3-.3.3-.6.6-.9h-64.2V99.8H420c0-.3.3-.6.3-.9h-77.6V63.7zm-266.7 0h63.9v35.2H75.8V63.7zm0 69.5V99.8h63.9v33.4H75.8zm71-69.5h91.9v35.2h-91.9V63.7zm0 69.5V99.8h91.9v33.4h-91.9zm188.6 0h-89.5V99.8h89.5v33.4zm0-34.3h-89.5V64.6l1.2-.9h88.3v35.2zm-59.7 34.3v.9h11l.9-.9h-11.9zm14.3 0h-1.2v1.2h1.5l-.3-1.2zm-44.2 0V99.8h12.8l-.3-.3h-.6l-.3-.3s-.3 0-.3-.3h-11v-1.8H245c-.3 0-.3.3-.6.3h-.3l-.3.3c-.6.3-.9.6-1.5.9l-.3.3c-.3.3-.6.3-.9.6 0 0-.3 0-.3.3h-.6c-.6.3-.9.3-1.5.3v32.5h-19.1c0 .3.3.6.3.9h18.8v35.8h7.2v-34.9h29.5v-.9l-29.6-.3z"/><path class="st0" d="M106.5 39.5h.3c-.3-.3-.6-.6-.6-.9 0-.6 1.2-1.2 2.4-1.2h16.7c1.2 0 2.4.6 2.4 1.2s-1.2 1.2-2.4 1.2h-.6c.3.3.6.6.6.9 0 .6-.9 1.2-1.8 1.2h4.8c1.2 0 2.4.6 2.4 1.2s-1.2 1.2-2.4 1.2h-16.7c-1.2 0-2.4-.6-2.4-1.2s.9-1.2 1.8-1.2h-4.8c-1.2 0-2.4-.6-2.4-1.2s1.2-1.2 2.7-1.2zm179.3 12.6h.6c-.3-.3-.6-.6-.6-.9 0-.6 1.2-1.2 2.4-1.2h16.7c1.2 0 2.4.6 2.4 1.2s-1.2 1.2-2.4 1.2h-.6c.3.3.6.6.6.9 0 .6-.9 1.2-1.8 1.2h4.8c1.2 0 2.4.6 2.4 1.2s-1.2 1.2-2.4 1.2h-16.7c-1.2 0-2.4-.6-2.4-1.2s.9-1.2 1.8-1.2h-4.8c-1.2 0-2.4-.6-2.4-1.2s1.2-1.2 2.4-1.2zm-205 52.5h.6c-.3-.3-.6-.6-.6-.9 0-.6 1.2-1.2 2.4-1.2h16.7c1.2 0 2.4.6 2.4 1.2s-1.2 1.2-2.4 1.2h-.6c.3.3.6.6.6.9 0 .6-.9 1.2-1.8 1.2h4.8c1.2 0 2.4.6 2.4 1.2s-1.2 1.2-2.4 1.2H86.5c-1.2 0-2.4-.6-2.4-1.2s.9-1.2 1.8-1.2h-4.8c-1.2 0-2.4-.6-2.4-1.2s.9-1.2 2.1-1.2z"/><ellipse transform="rotate(-78.452 311.682 225.969)" class="st0" cx="311.7" cy="226" rx="25.1" ry="83"/><path d="M302.3 155.3s4.5-21.5 21.2-19.7c0 0 11.6.9 14 8.4v16.7l-35.2-5.4z" fill="#3a3768"/><path fill="#d48a9b" d="M394.5 163.4l-149.8-12.3-19.1 3.9 1.2 26.9h1.1l1.5 40.3 147.2 26.5 15.5-13.1v-43.9l2.1-1.2z"/><path class="st3" d="M394.8 163.4l-.6 27.1-16.2 7.8-.3-28.4z"/><path class="st3" d="M392.1 191.7l.3 43-15.8 13.1 1.1-49.5z"/><path class="st3" d="M228.2 183.7l149.5 18.2v-3.6l-149.8-16.1z"/><path class="st3" d="M392.1 193.5v-1.8l-14.9 6.6v3.6z"/><path fill="#efc6cd" d="M225.3 155l19.1-3.9 149.8 12.3-16.7 6.5z"/><path class="st5" d="M378.3 164.3l7.2.3-11.9 3.9-6.3-.6z"/><path class="st6" d="M378.3 164l7.2.3-11.9 3.9-6.3-.6z"/><path class="st7" d="M377.5 164.6c.3 0 .6 0 .9.3h.6c.3 0 .6.3 1.2.3m-3-.3c.3 0 .6 0 .9.3h.6c.3 0 .6.3 1.2.3m-3.6 0c.3 0 .6 0 .9.3h.6c.3 0 .6.3 1.2.3"/><path class="st5" d="M346.4 160.7l7.5.3-12.3 3.6-6.2-.3z"/><path class="st6" d="M346.4 160.4l7.5.3-12.3 3.6-6.2-.3z"/><path class="st7" d="M345.5 161c.3 0 .6 0 .9.3h.6c.3 0 .6.3 1.2.3m-3-.3c.3 0 .6 0 .9.3h.6c.3 0 .6.3 1.2.3m-3.6 0c.3 0 .6 0 .9.3h.6c.3 0 .6.3 1.2.3"/><path class="st5" d="M361.6 162.5l7.5.3-12.2 3.9-6.3-.6z"/><path class="st6" d="M361.6 162.2l7.5.3-12.2 3.6-6.3-.3z"/><path class="st7" d="M361 162.8c.3 0 .6 0 .9.3h.6c.3 0 .6.3 1.2.3m-3.3-.3c.3 0 .6 0 .9.3h.6c.3 0 .6.3 1.2.3m-3.6 0c.3 0 .6 0 .9.3h.6c.3 0 .6.3 1.2.3"/><ellipse class="st0" cx="195.4" cy="296.8" rx="78.5" ry="16.1"/><linearGradient id="SVGID_1_" gradientUnits="userSpaceOnUse" x1="260.549" y1="6622.682" x2="260.549" y2="6395.872" gradientTransform="translate(-54.11 -6315.805)"><stop offset="0" stop-color="gray" stop-opacity=".25"/><stop offset=".54" stop-color="gray" stop-opacity=".12"/><stop offset="1" stop-color="gray" stop-opacity=".1"/></linearGradient><path d="M281.4 164.6c-.9-7.5-4.2-14.3-4.2-14.3l.3-2.4v-3c0-1.2.3-2.4.6-3.6.6-2.1-.9-4.8-.9-5.1-.3-.3 0-5.1-1.5-7.2-1.5-2.4-11.6-6.6-11.6-6.6l-1.2-2.4c-.6-1.2-1.5-2.1-2.4-3.3-.6-.6-1.2-1.2-1.8-.9-.3-.6-.3-1.2-.6-2.1h1.5c.9-.3 1.5-1.2 2.1-1.8 2.7-3.9 4.8-8.4 5.4-13.1v-3c-.3-.6-.6-1.5-.9-2.1-.6-1.5-1.5-2.7-2.7-3.9-1.8-1.8-4.2-3-6.9-3.9-3-.9-6-.9-9-.6-.9 0-1.5.3-2.4.3h-3l-5.1-.3h-.9c-.3.6 0 1.5.3 2.1.3.6.9 1.2.9 2.1 0 .9-.6 1.2-.9 1.8-.3.6-.6 1.5-.3 2.1 0 0 0 .3.3.3.3.6 1.2.6 1.8.6-1.8 2.1-2.7 4.8-2.7 7.8 0 4.8 2.7 9.3 6.9 11.3 0 .3 0 .6.3.9.9 2.7.9 5.7.9 8.4v.3-.3s-6 4.2-7.8 5.1c-1.8 1.2-3.6 4.8-3.6 5.7 0 .9-3 15.8-3 15.8-.6 1.5-.9 3-1.5 4.5l-3.6 3.3s-7.5.6-9.5.3v.3c-1.8-.3-3.9-.6-5.7-.9-1.2 0-2.1 0-3 .3-1.2.3-2.1.6-3.3.9 0 0-.3 0-.3.3v-.6l-8.1-.3-4.2-.9s-1.5-1.2-2.4-.9c-.9.3-2.7-.9-2.7-.9-.3-.3-.9-.6-1.2-.9 0-.9-.3-1.5-.3-1.5s-3.3-12.5-5.7-20c-1.5-5.1-3.9-7.5-5.1-8.4-.3-1.2-.6-1.8-.6-1.8-.3-.9-1.8-3-2.1-3h-.3c-.6-3.3-1.2-7.5 0-11 2.7-2.4 4.5-5.7 4.5-9.5V98c0-3-.9-5.7-3-7.8.6-.6.9-1.2.6-2.1-.3-.6-.9-1.2-1.2-2.1-.3-.6-.3-1.2-.3-1.8-.3-.9-.6-1.5-1.2-2.1v.3c-1.5-1.8-4.2-2.7-6.6-2.1-1.8.3-3.3 1.2-5.1 1.5-1.2.3-2.7 0-3.9.3-1.2 0-2.4.6-3.3.9-.3 0-.6.3-.6.6-.3.3-.3.6-.3.9-.3 1.5-1.8 2.7-2.7 3.9-1.2 1.5-1.8 3.3-1.8 5.1V95c0 .3.3.6.3.9.3.9-.3 1.8-.6 2.7-.3 1.2-.3 2.1.3 3.3 1.5 3.3 6.6 4.5 7.5 8.1.9.3 1.8.6 2.4.9 0 .3 0 .6.3 1.2-1.5 1.2-1.8 3.9-1.8 3.9h-.3c-.6.6-2.4 2.1-4.2 3.3-2.1 1.5-5.4 6-7.8 7.5-2.4 1.5-4.2 10.1-3.9 13.1.6 3.3 2.7 11.9 1.8 15.2S140 173 140 173c1.5.3 2.7.6 4.2 1.2v2.4s-3.9 14-2.4 24.5c1.5 10.7-.6 11.9-.6 11.9s.6 4.8-.6 6.3-1.2 5.1-1.2 5.1v10.4c.3 2.4.3 6.6-.6 7.5-.9.9-2.4 7.5-2.1 9.5 0 2.1-2.7 6.6-1.2 12.2 1.5 6-4.8 6-4.8 6s.9 9 2.4 11.3l.3.3v.6c-.6 2.4-1.5 6-.9 6.9.9 1.2 1.5 1.2 1.5 1.2l.3 6s6.9 5.7 11.9 5.4 4.2-5.4 4.2-5.4l-4.5-11.3-.3-.3 5.4-9.5s1.5-4.2 1.8-5.4c.3-1.5 2.1-6.6 2.1-6.6s4.8-11 4.8-12.2.6-8.4 1.5-9.8c.9-1.5 3.3-9.5 3.3-9.5.9.9 1.2 2.1.9 3.3-.6 2.1-.3 6.3-.3 6.3s-.3 3.6-.6 5.4c-.6 1.8-.6 17.3.3 20.9.6 3 .6 8.4.6 10.4-.6 2.1-.9 4.8 0 5.4 1.5.6 9 .3 9 .3s3.3-1.2 7.5 2.7c4.2 3.9 17.6-1.2 17.6-1.2s4.2-1.2-3.9-4.2c-5.7-2.1-9.3-3.6-11.6-5.4 0 0 0-.3.3-.3 0 0-3.3-3-.6-8.7 2.7-5.4 2.7-10.1 2.7-10.1l.6-18.5-1.5-24.5-1.2-25.7h.3c.3 4.8 1.2 16.1 6 13.7 6-2.7.9-9.8.9-9.8l-2.7-5.4.9-.3-3-9.8c-.3-1.8-.3-3.9 0-6v-3.3c3.9-.6 7.8-1.5 8.7-1.2.9.3 5.4.3 7.2.3-.6.6-1.2.9-1.2.9l7.2 4.8s2.4-1.5 3-2.7c.6 0 .9-.3 1.5-.6 0 1.8.6 3.6 2.1 3.6.3 0 .9 0 1.2-.3l11.9-2.4-.9 6.3.6 1.2c-.3 5.4-.9 11-1.2 16.1l-.3 1.2c-.6 7.8-.9 13.7-.9 13.7.6-1.2 1.8-2.4 3-3v11.6s.6 18.2.6 20.6v8.1s1.2 6.9 2.1 9c.9 2.1 1.5 12.5 1.5 12.5s1.8 2.7.9 3.9c-.9 1.2 3 3.3 3 3.3s-2.4 3.3-2.7 5.4c0 .3.3.6.6.9l-.3.3c-1.2.6-2.7 1.2-5.1.9-6.6-.6-11.3 5.7-7.2 6.9 4.2 1.2 16.4 1.5 16.4 1.5s3.6-2.4 6.6-1.2v5.1c-1.8 1.5-5.1 4.2-8.4 5.4-4.8 1.5-5.7 8.1.3 8.7 6 .9 14.9-.9 14.9-.9s4.5-3.3 8.1-4.2c3.6-.6 6.6-2.4 6-4.5-.3-1.2-1.5-4.5-2.1-6.9v-.3c0-.3.3-.6.3-.6s-1.8-9.3-.3-11.6c1.5-2.4.6-25.4.6-25.4s-2.4-6-1.2-9.5-2.1-8.7-2.1-8.7.3-10.1 1.2-15.8v-.6c1.5-.6 3.3-1.2 4.8-1.8 0 0 .9-12.8 1.5-15.5 0-.3 0-.6.3-1.2l.3-2.1.6-2.4 1.5-8.1 2.7-3.6 7.2-7.5c-.7-.6 1.1-4.8.2-11.9zm-111.3-45.4s0-.3 0 0c0-.3 0-.3 0 0zm71.3 9l-.3.6.9-.9-1.5 1.5.9-1.2zm-6.9 14c-.3.6-.6 1.5-.9 2.4l.6-1.5.3-.9z" fill="url(#SVGID_1_)"/><path class="st9" d="M212.1 165.5s-.9 6.3 1.8 6.3 4.8-4.8 4.8-4.8l-1.2-3.9-5.4 2.4z"/><path d="M212.1 165.5s-.9 6.3 1.8 6.3 4.8-4.8 4.8-4.8l-1.2-3.9-5.4 2.4z" opacity=".2"/><path d="M148.6 302.1c-5.1.3-11.6-5.4-11.6-5.4l-.3-6s-.3.3-1.2-1.2c-.6-.9.3-4.5.9-6.9 0-1.2.3-1.8.3-1.8l11 3 .6 1.5 4.2 11.3c-.1.2 1.1 5.5-3.9 5.5zm51-16.7s-12.8 5.1-17 1.2c-4.2-3.9-7.2-2.7-7.2-2.7s-7.2 0-8.7-.3c-.9-.3-.3-3 0-5.4.3-1.5.6-2.7.6-2.7s12.5-4.2 14.6-1.8c.6.9 1.2 1.5 2.1 2.1 2.4 1.8 6 3.3 11.6 5.4 7.9 3 4 4.2 4 4.2z" fill="#636992"/><path class="st12" d="M188 184.9l3.6 7.2s5.1 7.2-.9 9.8c-6 2.7-6-15.8-6-15.8l3.3-1.2z"/><path class="st13" d="M173.3 123.7s3.9 1.8 6.3 9.3c2.4 7.5 5.4 20 5.4 20s2.1 14.3 1.8 17.6c-.3 2.1-.3 3.9 0 6l3 9.8-6 2.1-9.3-34.9-1.2-29.9z"/><path class="st3" d="M173.3 123.7s3.9 1.8 6.3 9.3c2.4 7.5 5.4 20 5.4 20s2.1 14.3 1.8 17.6c-.3 2.1-.3 3.9 0 6l3 9.8-6 2.1-9.3-34.9-1.2-29.9z"/><path class="st5" d="M147.7 283.9l.6 1.5-.6 1.2c-2.4 1.2-9 .3-9 .3s-1.2-1.5-2.7-3.9c.3-1.2.6-2.1.6-2.1l11.1 3zm37-7.7c-3.3 7.2-14 4.5-17.3 3.6-.6-.3-.9-.3-.9-.3V278c.3-1.5.6-2.7.6-2.7s12.5-4.2 14.6-1.8c.6.9 1.2 1.5 2.1 2.1.6.3.6.3.9.6z"/><path d="M184.1 266.9c-2.7 5.4.6 8.7.6 8.7-3.3 7.2-14 4.5-17.3 3.6-.6 0-.9-.3-.9-.3s.3-7.5-.6-11.3c-.9-3.6-.6-18.8-.3-20.9.3-1.8.6-5.4.6-5.4s-.3-4.2.3-6.3c.3-1.2 0-2.4-.9-3.3 0 0-2.4 8.4-3.3 9.5-.9 1.2-1.2 8.7-1.2 9.8 0 1.2-4.8 12.2-4.8 12.2s-1.8 5.1-2.1 6.6c-.3 1.5-1.8 5.4-1.8 5.4l-5.4 10.1c-2.4 1.2-9 .3-9 .3s-1.2-1.5-3-4.2c-1.8-2.4-2.4-11.3-2.4-11.3s6 0 4.5-6 1.2-10.4 1.2-12.2 1.2-8.4 2.1-9.5c.9-.9.6-5.1.3-7.5-.3-2.4 0-10.4 0-10.4s.3-3.6 1.2-5.4c1.2-1.8.6-6.3.6-6.3s2.1-1.2.6-11.6 2.4-24.5 2.4-24.5V175l.3-3.3s31.6-2.1 34 .3c.6.6 1.2 1.5 1.5 2.4.9 1.8 1.5 3.9 1.8 6l1.2 33.4 1.2 24.5-.3 18.5c1.3 0 1.6 4.5-1.1 10.1z" fill="#565988"/><path class="st5" d="M174.8 201l-3.3 71.6-3.9 6.6c-.6 0-.9-.3-.9-.3s.3-7.5-.6-11.3c-.9-3.6-.6-18.8-.3-20.9.3-1.8.6-5.4.6-5.4s-.3-4.2.3-6.3c.3-1.2 0-2.4-.9-3.3v-.3l9-30.4zM139 278s8.7-3.3 9.8-2.4c1.2 1.2-10.1 2.7-10.1 2.7l.3-.3zm42.4-9c-.3 0-8.7 3-8.1 6.3.9 3 8.1-6.3 8.1-6.3z"/><path class="st12" d="M155.4 106.1s2.7 6.9 1.2 10.1c-1.5 3.6 16.1 9.5 16.1 9.5s-5.1-13.4-.3-20.9c5.1-7.4-17 1.3-17 1.3z"/><path d="M257.8 302.1c-3.3.6-7.8 4.2-7.8 4.2s-8.7 1.8-14.3.9c-6-.9-4.8-7.2-.3-8.7 3.3-1.2 6.3-3.9 8.1-5.4l1.2-1.2 16.4-3.3s.3.9.6 2.1c.6 2.1 1.5 5.7 2.1 6.9.3 2.2-2.7 3.6-6 4.5zm-4.2-12.8s-6.9.6-9.8-.9c-3-1.8-7.2.9-7.2.9s-11.9-.3-15.8-1.5.6-7.5 7.2-6.9c2.4.3 3.9-.3 5.1-.9 1.2-.9 1.8-1.8 2.1-3.3l14 .9 1.8 5.1 2.6 6.6z" fill="#505484"/><path class="st5" d="M251.2 284.8s-16.1-2.7-18.2-4.8c1.2-.9 1.8-1.8 2.1-3.3l14 .9 1.8 5.1.3 2.1z"/><path class="st16" d="M227 192l.3 24.2s.6 18.2.6 20.6v8.1s1.2 6.9 2.1 9c.6 2.1 1.2 12.5 1.2 12.5s1.8 2.7.9 3.9c-.6 1.2 3 3.3 3 3.3s-2.4 3.3-2.4 5.4c0 2.1 18.5 5.1 18.5 5.1l-7.2-74.6-6-18.2-11 .7z"/><path class="st5" d="M227 192l.3 24.2s.6 18.2.6 20.6v8.1s1.2 6.9 2.1 9c.6 2.1 1.2 12.5 1.2 12.5s1.8 2.7.9 3.9c-.6 1.2 3 3.3 3 3.3s-2.4 3.3-2.4 5.4c0 2.1 18.5 5.1 18.5 5.1l-7.2-74.6-6-18.2-11 .7zm34.7 98.8c-5.4 12.8-18.2 3-18.2 3v-.6l1.2-1.2 16.4-3.3c-.3 0 0 .9.6 2.1z"/><path class="st16" d="M261.7 289.6c-5.4 13.4-18.5 3.3-18.5 3.3s-.3-7.2.3-10.1c.9-3.3-.9-12.8-.9-12.8s-.9-8.7-1.8-10.4c-.9-2.1-.9-6-.9-6.3s.3-3-.3-4.8-1.2-6.3-1.2-6.3 0-6.3-.6-9.8l-2.7-13.1-4.8-26.3 1.5-.3 26-4.5s4.8 24.8 3.3 27.5c-.3.6-.6 1.8-.9 3.3-.9 5.7-1.2 15.8-1.2 15.8s3.3 5.1 2.1 8.7c-1.2 3.6 1.2 9.5 1.2 9.5s.6 23-.6 25.4c-1.8 2 0 11.2 0 11.2z"/><path class="st17" d="M259.3 120.7s-23.6 16.4-18.2 8.4c3-4.5 2.4-10.1 1.2-14.3-.6-2.1-1.2-4.2-2.4-6.3 0 0 20-8.4 17.3-.9-.6 1.8-.9 3.6-.9 5.4.3 2.6 1.2 5.3 3 7.7zm-42.4 37.9s-9.8-3-11.6 0 .6 9 3.6 9.8c3 .9 9.8-3.3 9.8-3.3l-1.8-6.5z"/><path class="st9" d="M228.2 153.5l-4.2 3.9s-7.2.6-9.3.3c0 0 1.8 12.8-.9 14.3l16.7-3.3-2.3-15.2z"/><path class="st5" d="M228.2 153.5l-4.2 3.9s-7.2.6-9.3.3c0 0 1.8 12.8-.9 14.3l16.7-3.3-2.3-15.2zm-52.8-54.6c0 6.9-5.7 12.5-12.5 12.5-6.3-3-12.5-5.7-12.5-12.5-.3-6.9 5.1-12.5 11.9-12.8 6.9-.3 12.5 5.1 12.8 11.9.3.3.3.6.3.9z"/><path class="st12" d="M175.4 98.6c0 6.9-5.7 12.2-12.2 12.2-6.9 0-12.2-5.7-12.2-12.2 0-6.9 5.7-12.2 12.2-12.2 3.6 0 7.2 1.8 9.5 4.5 1.5 2.1 2.7 5 2.7 7.7z"/><path class="st5" d="M182.6 174.4c-1.2.9-2.4 1.5-3.9 2.1 0 0-6.3-.9-7.2.3-.9 1.2-9 1.5-9 1.5s-12.2-.6-14-2.1c-.6-.6-1.2-.9-1.8-1.2l.3-3.3s31.6-2.1 34 .3c.7.9 1.3 1.5 1.6 2.4z"/><path class="st13" d="M184.1 172.3c-.3 1.5-5.4 3.6-5.4 3.6s-6.3-.9-7.2.3c-.9 1.2-9 1.5-9 1.5s-12.2-.6-14-2.1c-1.8-1.5-6-2.4-6-2.4s-2.1-14.6-1.2-17.9c.9-3.3-1.2-11.9-1.8-15.2-.6-3.3 1.5-11.9 3.6-13.1 2.4-1.5 5.7-6 7.5-7.5 1.8-1.2 3.6-2.7 4.2-3.3h.3s.3-2.7 1.8-3.9c1.2-1.2 13.4 8.4 13.4 8.4s0 .6.9-.6c.3-.3 1.8 2.1 2.1 3 0 0 6.6 11.6 7.2 14s2.1 10.1 2.4 11.9c0 .6.3 2.1.3 4.5v1.5c.3 3.9.6 8.7.6 12.2v1.2c.3 1.2.3 2.4.3 3.9z"/><path class="st5" d="M142 142.5s4.5 5.7 6 5.7c1.8 0-6-5.7-6-5.7zm9.8 11.9s-7.5 8.1-6.6 9.5c1 1.6 6.6-9.5 6.6-9.5zm-5.6 16.1s8.7-9.3 9-12.5l-9 12.5zm10.7.6s9.8-5.1 10.7-9.3c1-4.1-10.7 9.3-10.7 9.3zm12.6-50.1l-1.5 3.3 2.4 1.2 2.1 6.3s6.3 12.2 6 18.8c-.3 6.3 1.2 16.1 1.2 16.1l3.6-.6-1.8-19.4c-.3-3-.9-5.7-2.1-8.4-3-6.6-8.1-18.5-8.4-18.5-.6 0 0 .3 0 .3l-1.5.9z"/><path d="M169.8 120.7l-1.5 3.3 2.4 1.2 2.1 6.3s6.3 12.2 6 18.8c-.3 6.3 1.2 16.1 1.2 16.1l3.6-.6-1.8-18.8c-.3-3-.9-5.7-2.1-8.4-3-6.6-8.1-18.5-8.4-18.5-.6 0 0 .3 0 .3l-1.5.3z" fill="#575989"/><path class="st12" d="M210 169c-1.8 0-6-2.1-7.5-3l-.6-.3v-6.3c.3-.3.9-.6 1.2-.6 2.1-.9 6.6-2.4 9 1.8 3 5.5 0 8.7-2.1 8.4z"/><path class="st5" d="M172.4 90.9c-.3 0-.3.3-.6.3-1.5.3-3-.9-4.2 0-.9.6-.9 1.5-.9 2.4-.3 1.5-.3 3-.6 4.5 0 .6-.3 1.2-.3 1.5-.6 1.5-2.4 2.1-3.9 2.1-.6 0-1.2-.3-1.5-.6-.3-.3-.3-.6-.6-.9-1.8-1.5-2.4 2.4-2.1 3.6.9 1.8 3.9 3.6 2.4 6l-.9.9c-6.6-2.1-10.1-9-8.1-15.5 2.1-6.6 9-10.1 15.5-8.1 2.3.5 4.3 2 5.8 3.8z"/><path d="M159.3 100.1c.3.3.3.6.6.9.6.3.9.6 1.5.6 1.5 0 3.3-.6 3.9-2.1.3-.6.3-1.2.3-1.5l.6-4.5c0-.9.3-1.8.9-2.4 1.2-.9 3 .3 4.2 0s1.8-1.2 1.5-2.4c-.3-.6-.6-1.2-.9-2.1-.3-.6-.3-1.2-.3-1.8-.9-3-4.5-4.8-7.5-4.2-1.8.3-3.3 1.2-5.1 1.5-1.2.3-2.4 0-3.6.3-1.2 0-2.4.6-3.3.9-.3 0-.6.3-.6.6-.3.3-.3.6-.3.9-.3 1.5-1.8 2.7-2.7 3.9-1.2 1.5-1.8 3.3-1.8 5.1v1.5c0 .3.3.6.3.9.3.9-.3 1.8-.6 2.7-.3 1.2-.3 2.1.3 3.3 1.5 3.3 6.3 4.5 7.5 8.1.9.3 1.8.6 3 .9.9 0 2.1-.3 2.7-1.2 1.2-2.4-1.8-4.2-2.4-6-.9-1.5-.3-5.4 1.8-3.9z" fill="#353045"/><path class="st5" d="M257.2 107.3c-.6 1.8-.9 3.6-.9 5.4-.6.6-1.2-.9-1.8-.6-1.8 1.2-4.2 3.6-6.3 3.6-2.1 0-4.2-.6-6-1.5-.6-2.1-1.2-4.2-2.4-6.3.1.3 20.1-8.1 17.4-.6z"/><path class="st17" d="M261.1 102.5c0 7.2-5.7 12.8-12.8 12.8-7.2 0-12.8-5.7-12.8-12.8 0-7.2 5.7-12.8 12.8-12.8 6.8 0 12.8 5.6 12.8 12.8z"/><path class="st20" d="M260.5 123.7s-2.4 2.7-2.7 3c-.3.3-7.5 29.8-7.5 30.1 0 .3-8.4 27.2-8.4 27.2l-13.1 6.6 1.2-32.8 9.5-26.9s3.3-3.6 4.2-5.1c.9-1.2 13.4-9.3 13.4-9.3l2.1 4.5 1.3 2.7z"/><path class="st5" d="M258.7 121.3L243.5 132l-.3-6c.9-1.2 13.4-9.3 13.4-9.3l2.1 4.6z"/><path class="st20" d="M259 120.7l-15.2 10.7-.3-6c.9-1.2 13.4-9.3 13.4-9.3l2.1 4.6z"/><path class="st9" d="M243.2 122.8l.6 2.7-3.3 3.6 2.7-6.3c-.3 0-6 4.2-7.8 5.1-1.8 1.2-3.6 4.8-3.6 5.7 0 .9-2.7 16.1-2.7 16.1s-2.1 5.7-1.5 7.2c.6 1.5-3.3 51-3.3 51 .9-2.1 2.7-3.3 5.1-3.9l-1.2-29.2s1.5-19.4 1.8-19.7c.3-.3 3.9-11.6 3.9-11.6l9.3-20.7z"/><path class="st5" d="M244.1 125.8l-.3 5.4s-3.6 11.6-4.8 13.4c-1.2 1.8-5.1 13.1-5.1 13.1l-2.1 19.7-3.6 1.8-2.1-3.3 3-19.1s5.7-16.1 6.6-17.6l4.2-8.7 4.2-4.7z"/><path class="st21" d="M243.5 125.5l-.3 5.4s-3.6 11.6-4.8 13.4-5.1 13.1-5.1 13.1l-2.1 19.7-3.6 1.8-1.8-3.3 3-19.1s5.7-16.1 6.6-17.6l4.2-8.7 3.9-4.7z"/><path class="st17" d="M200.8 167l7.2 4.8s5.1-2.7 2.1-4.8c-3-1.8-5.4-2.1-6.6-2.1-1.2 0-2.7 2.1-2.7 2.1zm5.4-9.3c-.3.3-.6.6-.6.9 0 1.5.3 5.4 1.5 3.6 1.5-2.1 1.2-4.2 3.6-2.7 1.5.9 2.7 2.1 3.9 3.6l-.9-4.5c-.1 0-4.9-2.4-7.5-.9z"/><path class="st5" d="M261.1 215.6c-.3.6-.6 1.8-.9 3.3-14.6 4.5-25.1-4.8-25.1-4.8-1.2-4.5-2.4-8.7-3.3-13.1-.3-1.5-.3-4.5 0-8.1l26-4.5s5.1 24.8 3.3 27.2z"/><path class="st9" d="M276 141.9c-.6 2.1-.3 6.6-.3 6.6l-6 28.1s-3 21.8-3.3 24.5c-.6 3-1.2 15.5-1.2 15.5-16.7 8.4-29.8-3-29.8-3-1.2-4.5-2.4-8.7-3.3-13.1-.9-4.8 1.5-24.5 2.7-33.4.3-2.7.6-4.2.6-4.2l4.5-16.1s5.4-13.7 7.2-17.6c2.1-3.9 9.8-12.8 9.8-12.8.9-.6 2.7 1.5 3.9 3.6.9 1.5 1.5 3 1.5 3s9.8 4.2 11.3 6.6c1.5 2.4 1.2 7.2 1.5 7.2 0 0 1.5 2.7.9 5.1z"/><path class="st5" d="M252.7 131.7s.6 4.5-1.2 5.7-15.5 28.3-16.4 29.8c.3-2.7.6-4.2.6-4.2l4.5-16.1s5.4-13.7 7.2-17.6c2.1-3.9 9.8-12.8 9.8-12.8.9-.6 2.7 1.5 3.9 3.6-1.8 3.9-5.7 10.8-8.4 11.6z"/><path class="st9" d="M252.4 131.4s.6 4.5-1.2 5.7-15.5 28.3-16.4 29.8c.3-2.7.6-4.2.6-4.2l4.5-16.1s5.4-13.7 7.2-17.6c2.1-3.9 9.8-12.8 9.8-12.8.9-.6 2.7 1.5 3.9 3.6-1.8 3.9-5.7 10.8-8.4 11.6z"/><path class="st22" d="M271.8 170.8l-4.5 24.5-.6 2.4-.9 5.1-4.1-.9-2.1-.3-27.8-6-1.8-.3-4.7-1.2.9-6 .3-2.3 3.5-22.4z"/><path class="st17" d="M246.1 190.8s-11 3.9-8.7 8.7c2.4 4.8 17.6-3.6 17.6-3.6l-8.9-5.1z"/><path class="st5" d="M253.9 224.6c0 .3.3 4.5 2.1 6 1.8 1.4-2.1-6-2.1-6zm-11 14.9s2.1 5.4 9.8 7.8c7.8 2.3-9.8-7.8-9.8-7.8zm18.2-137c0 4.5-2.4 9-6.6 11-.6-.3-1.5-.9-1.8-1.5-.6-.6-.9-1.5-.6-2.4.3-.6.9-1.2 1.2-1.8v-1.2c0-.6-.3-1.2-.3-1.8s-.3-1.2-.9-1.2c-.6 0-.9.3-1.5.6-.9.9-3 1.5-4.2.6s-.9-3-1.2-4.2c0-.3 0-.3-.3-.6h-.6c-.6 0-1.2-.6-1.5-1.2 0-.6-.3-1.2-.3-2.1 0-.6-.3-1.5-.9-1.8-.6-.3-.9-.3-1.5-.3h-2.4c4.2-5.7 12.2-6.9 17.9-2.7 3.4 2.5 5.5 6.4 5.5 10.6z"/><path class="st21" d="M250.6 104c.3-.3.9-.9 1.5-.6.6 0 .9.9.9 1.2l.3 1.8v1.2c-.3.6-.9 1.2-1.2 1.8-.3.9 0 1.8.6 2.4.9 1.2 2.4 2.1 3.9 2.4h1.2c.9-.3 1.5-1.2 2.1-1.8 2.7-3.9 4.8-8.4 5.1-13.1v-3c-.3-.6-.6-1.5-.9-2.1-.6-1.5-1.5-2.7-2.4-3.9-1.8-1.8-4.2-3-6.6-3.9-2.7-.9-5.7-.9-8.7-.6-.9 0-1.5.3-2.4.3h-3l-5.7-.3c-.3.6 0 1.5.3 2.1.3.6.9 1.2.9 2.1 0 .6-.6 1.2-.9 1.8s-.6 1.5-.3 2.1c.3.6 1.2.6 1.8.6h3c.6 0 .9 0 1.5.3s.9 1.2.9 1.8c0 .6 0 1.2.3 2.1.3.6.6 1.2 1.5 1.2h.6c.3 0 .3.3.3.6.3 1.2-.3 3.6 1.2 4.2 1.2.8 3.3.2 4.2-.7z"/><path class="st5" d="M267 129.4c-3-.3-5.7 1.5-6.6 4.2-1.5 4.5-4.2 12.2-3.6 15.5.9 4.5 2.1 11.9 2.1 11.9s4.8 2.7 2.4 5.4-3 6.6-3 6.6-3 1.2-3.6 4.2c-.6 2.7-5.1 6.6-5.1 6.6l-6.6 6.6s11 11.3 13.4 11.9l6.9-8.1 8.1-10.7 7.2-7.5s1.8-3.9.9-11.3c-.9-7.5-4.2-14.3-4.2-14.3l.3-2.4c-.8.2.1-17.4-8.6-18.6z"/><path class="st9" d="M267.6 129.4c-3-.3-5.7 1.5-6.6 4.2-1.5 4.5-4.2 12.2-3.6 15.5.9 4.5 2.1 11.9 2.1 11.9s4.8 2.7 2.4 5.4-3 6.6-3 6.6-3 1.2-3.6 4.2c-.6 2.7-5.1 6.6-5.1 6.6l-6.6 6.6s11 11.3 13.4 11.9l6.9-8.1 8.1-10.7 7.2-7.5s1.8-3.9.9-11.3c-.9-7.5-4.2-14.3-4.2-14.3l.3-2.4c-.5.2.1-17.4-8.6-18.6z"/><path class="st5" d="M260.8 154.4s7.2 8.7 9.8 6.6c3.3-1.8-9.8-6.6-9.8-6.6zm2.7-6.5c.6.3 6.9 8.7 9.8 7.8 3.3-1-9.8-7.8-9.8-7.8zm1.7 14.6s.3 4.8 5.4 4.2c5.1-.6-5.4-4.2-5.4-4.2zm-22.3-39.1l-2.7 6 3.3-3.6z"/><path class="st20" d="M242.9 122.8l-2.7 6.3 3.3-3.6z"/><path d="M231.8 195.6l-1.8-.3-3.8-7.2.3-2.3zm35.5-.3l-.6 2.4-5 4.2-2.1-.3z" opacity=".3"/><path class="st5" d="M184.1 168.2c-.9.3-2.1.3-3 .3-5.1.6-17-5.4-17-5.4s-14.6-12.2-18.8-23.9 5.1-13.4 5.1-13.4c3.6-2.1 11 3.6 12.2 4.5 1.2.9 2.1 3.3 1.8 4.8 0 1.5 2.4 3.3 2.4 3.3s4.5 7.5 5.4 8.4c1.2.9 1.2 1.5 1.8 3 .3 1.5 3.3 2.7 4.5 2.4 1.2 0 2.7.3 2.7 1.2 0 .6 1.2.9 2.1.9.2 4.6.5 10 .8 13.9z"/><path class="st5" d="M184.1 167c-.9 0-1.5.3-2.1.3-5.1.6-17-5.4-17-5.4s-14.6-12.2-18.8-23.9c-4.2-11.6 5.1-13.4 5.1-13.4 3.6-2.1 11 3.6 12.2 4.5 1.2.9 2.1 3.3 1.8 4.8 0 1.5 2.4 3.3 2.4 3.3s4.5 7.5 5.4 8.4c1.2.9 1.2 1.5 1.8 3 .6 1.5 3.3 2.7 4.5 2.4 1.2 0 2.7.3 2.7 1.2 0 .3.6.6 1.5.9v1.5c-.1 3.7.2 8.8.5 12.4zm19.1-8.4l-.3 7.5h-.3l-.6-.3v-6.3c.3-.6.6-.6 1.2-.9z"/><path class="st13" d="M150.4 125.5s-9.3 1.8-5.1 13.4 18.8 23.9 18.8 23.9 11.9 6 17 5.4c5.1-.6 12.8-2.4 13.7-2.1.9.3 7.8.3 7.8.3l.3-7.8-7.8-.3-3.9-.9s-1.5-1.2-2.1-.9c-.6.3-2.7-.9-2.7-.9s-1.2-1.2-2.4-1.2c-.9 0-3-.3-3-.9s-1.5-1.2-2.7-1.2-4.2-1.2-4.5-2.4c-.3-1.5-.6-2.1-1.8-3-1.2-.9-5.4-8.4-5.4-8.4s-2.7-1.8-2.4-3.3c.3-1.5-.9-3.9-1.8-4.8-1-1.3-8.8-6.7-12-4.9z"/><path class="st5" d="M174.2 152s-3.6 3.6-2.7 4.2l2.7-4.2zm3.6 3s-4.8 3.6-3.3 3.9c1.2 0 3.3-3.9 3.3-3.9zm-7.7 5.1c.6.3 10.4 6.3 14.3 6l-14.3-6zm.5-39.1s-1.8 5.7-2.4 5.7-9.3-7.2-12.8-10.1h.3s.3-2.7 1.8-3.9c1.2-1.2 13.1 8.3 13.1 8.3z"/><path class="st13" d="M170.4 120.4s-1.8 5.7-2.4 5.7-9.3-7.2-12.8-10.1h.3s.3-2.7 1.8-3.9c.8-1.2 13.1 8.3 13.1 8.3z"/><path d="M147.1 101.9c1.2 2.7 4.5 3.9 6.3 6-1.3-2.4-4.5-3.9-6.3-6zm11.6 6.3c-.6.9-1.5 1.2-2.7 1.2-.9 0-1.8-.3-2.7-.6.3.3.6.9.6 1.5.9.3 1.8.6 3 .9.9 0 2.1-.3 2.7-1.2.6-1.5 0-2.7-.9-3.9.6.3.6 1.2 0 2.1zm14.6-19.4c-.3-.6-.6-1.2-.9-2.1-.3-.6-.3-1.2-.3-1.8-.3-.9-.6-1.5-1.2-2.1 0 .3 0 .3.3.6 0 .6.3 1.2.3 1.8.3.6.9 1.2.9 2.1.3 1.2-.6 2.1-1.5 2.4-1.5.3-3-.9-4.2 0-.9.6-.9 1.5-.9 2.4-.3 1.5-.3 3-.6 4.5 0 .6-.3 1.2-.3 1.5-.6 1.5-2.4 2.1-3.9 2.1-.6 0-1.2-.3-1.5-.6-.3-.3-.6-.6-.6-.9-1.8-1.5-2.4 2.4-2.1 3.6.3.6.6.9.9 1.5-.3-1.2.3-5.1 2.1-3.3.3.3.6.6.6.9.6.3.9.6 1.5.6 1.5 0 3.3-.6 3.9-2.1.3-.6.3-1.2.3-1.5.3-1.5.3-3 .6-4.5 0-.9.3-1.8.9-2.4 1.2-.9 3 .3 4.2 0 .9-.6 1.5-1.8 1.5-2.7z" opacity=".15"/><path class="st5" d="M259 113.2h-1.2c-1.5-.3-3-1.2-3.9-2.4-.6-.6-.9-1.5-.6-2.4.3-.6.9-1.2 1.2-1.8v-1.2l-.3-1.8c0-.6-.3-1.2-.9-1.2-.6 0-.9.3-1.5.6-.9.9-3 1.5-4.2.6-1.2-.6-.9-3-1.2-4.2 0-.3 0-.3-.3-.6h-.6c-.6 0-1.2-.6-1.5-1.2 0-.6-.3-1.2-.3-2.1 0-.6-.3-1.5-.9-1.8s-.9-.3-1.5-.3h-3c-.6 0-1.5 0-1.8-.6-.3-.6 0-1.5.3-2.1s.9-1.2.9-1.8-.3-1.5-.9-2.1c-.3-.3-.3-.6-.6-1.2h-.9c-.3.6 0 1.5.3 2.1s.9 1.2.9 2.1-.6 1.2-.9 1.8c-.3.6-.6 1.5-.3 2.1.3.6 1.2.6 1.8.6h3c.6 0 .9 0 1.5.3s.9 1.2.9 1.8 0 1.2.3 2.1c.3.6.6 1.2 1.5 1.2h.6c.3 0 .3.3.3.6.3 1.2-.3 3.6 1.2 4.2 1.2.6 3.3 0 4.2-.6.3-.3.9-.9 1.5-.6.6 0 .9.9.9 1.2l.3 1.8v1.2c-.3.6-.9 1.2-1.2 1.8-.3.9 0 1.8.6 2.4.9 1.2 2.4 2.1 3.9 2.4h1.2c.6-.3 1.2-.6 1.5-1.2.3.3 0 .3-.3.3z"/><ellipse class="st0" cx="81.1" cy="283" rx="9.3" ry="1.5"/><ellipse class="st0" cx="408.2" cy="245.7" rx="9.3" ry="1.5"/><ellipse class="st0" cx="312.7" cy="303.6" rx="27.2" ry="4.2"/><ellipse class="st0" cx="389.7" cy="286" rx="21.2" ry="3.3"/><ellipse class="st0" cx="386.4" cy="318.3" rx="35.8" ry="5.4"/><ellipse class="st0" cx="41.1" cy="323" rx="27.2" ry="4.2"/><path class="st22" d="M81.7 237.4s1.2 1.5-.6 3.6c-1.5 2.1-2.7 3.9-2.4 5.1 0 0 2.4-3.9 4.2-3.9 2.1-.3.9-2.7-1.2-4.8z"/><path class="st5" d="M81.7 237.4l.3.3c1.8 2.1 3 4.2 1.2 4.2s-3.6 3-4.2 3.9v.3s2.4-3.9 4.2-3.9c1.8-.3.6-2.7-1.5-4.8z"/><path class="st25" d="M83.5 238.9c0-.3 0 0 0 0s0-.3 0 0zm.9.6c-.3.3-.9.3-.9.3s.3 0 .9-.3c.3-.3 0 0 0 0s.3 0 0 0z"/><path class="st22" d="M76.1 237.4s-1.2 1.5.6 3.6c1.5 2.1 2.7 3.9 2.4 5.1 0 0-2.4-3.9-4.2-3.9-2.1-.3-.9-2.7 1.2-4.8z"/><path class="st5" d="M76.1 237.4l-.3.3c-1.8 2.1-3 4.2-1.2 4.2s3.6 3 4.2 3.9v.3s-2.4-3.9-4.2-3.9c-1.8-.3-.6-2.7 1.5-4.8z"/><path class="st25" d="M74 238.9v.9c.3 0 .3-.3 0-.9.3-.3.3 0 0 0 .3 0 0-.3 0 0z"/><path class="st25" d="M73.4 239.5c.3.3.9.3.9.3s-.3 0-.9-.3c-.3-.3 0 0 0 0s-.3 0 0 0z"/><ellipse class="st0" cx="78.7" cy="254.7" rx="11" ry="1.8"/><path d="M84.7 244v2.7l-.9 6.9c0 .6-1.2 1.2-2.4 1.2h-4.5c-1.2 0-2.4-.6-2.4-1.2l-.9-6.9V244c0-.3.6-.6 1.2-.6h9c.3 0 .9.3.9.6z" fill="#65617d"/><path d="M84.4 244.5v.6h-11v-.6zm0 .9v.6h-11v-.6zm0 .9l-.3.6H73.4v-.6z" fill="#9d9cb5"/><path class="st22" d="M400.7 232s-1.2 6.3 4.5 6.9l.3-.6c.3-.3-4.5-4.5-4.8-6.3z"/><path class="st22" d="M407.6 238l-1.5.3s-3.6-3-3.6-9.5l1.8 2.7c1.5 2 3 4.4 3.3 6.5z"/><path class="st22" d="M408.2 238.6c-.3 0-.6.3-.6 0-3.6-.9-2.4-12.2-2.4-12.2.3 0 .3 1.5 1.2 3.6 1.2 3.2 2.7 8 1.8 8.6zm7.7-6.6s.3 6.3-5.7 6.9l-.3-.6c.1-.3 5.7-4.5 6-6.3z"/><path class="st22" d="M414.2 228.7c0 6.6-4.8 9.5-4.8 9.5l-1.5-.3c.3-2.1 1.8-4.5 3.3-6.6.9-.8 2.1-1.7 3-2.6z"/><path class="st22" d="M409.4 238c-.3.3-.6.6-.9.6h-.3c-.9.3-1.2-.3-1.2-1.5 0-1.8 1.2-5.1 2.4-7.8.6-1.2 1.2-2.4 2.1-3.3.3.6 0 9.3-2.1 12z"/><path class="st22" d="M408.5 222.5s-3.9 14-.6 16.1c3.3 2.1 1.2-14.9.6-16.1z"/><path class="st5" d="M400.7 232s-1.2 6.3 4.5 6.9l.3-.6c.3-.3-4.5-4.5-4.8-6.3z"/><path class="st5" d="M407.6 238l-1.5.3s-3.6-3-3.6-9.5l1.8 2.7c1.5 2 3 4.4 3.3 6.5z"/><path class="st5" d="M408.2 238.6c-.3 0-.6.3-.6 0-3.6-.9-2.4-12.2-2.4-12.2.3 0 .3 1.5 1.2 3.6 1.2 3.2 2.7 8 1.8 8.6zm7.7-6.6s.3 6.3-5.7 6.9l-.3-.6c.1-.3 5.7-4.5 6-6.3z"/><path class="st5" d="M414.2 228.7c0 6.6-4.8 9.5-4.8 9.5l-1.5-.3c.3-2.1 1.8-4.5 3.3-6.6.9-.8 2.1-1.7 3-2.6z"/><path class="st5" d="M409.4 238c-.3.3-.6.6-.9.6h-.3c-.9.3-1.2-.3-1.2-1.5 0-1.8 1.2-5.1 2.4-7.8.6-1.2 1.2-2.4 2.1-3.3.3.6 0 9.3-2.1 12z"/><path class="st5" d="M408.5 222.5s-3.9 14-.6 16.1c3.3 2.1 1.2-14.9.6-16.1z"/><path class="st22" d="M400.7 232s-.9 6.3 5.1 6.9l.3-.6c.3-.3-5.1-4.5-5.4-6.3z"/><path class="st22" d="M408.2 238l-1.5.3s-4.2-3-4.2-9.5c0 0 1.2 1.2 2.4 2.7 1.2 2 3 4.4 3.3 6.5z"/><path class="st5" d="M408.2 238l-1.5.3c-1.2-1.2-1.8-4.2-2.1-6.9 1.5 2.1 3.3 4.5 3.6 6.6z"/><path class="st22" d="M408.5 238.6c-.3 0-.6.3-.6 0-3.6-.9-3-12.2-3-12.2.3 0 .9 1.5 1.8 3.6 1.5 3.2 3 8 1.8 8.6zm7.4-6.6s.9 6.3-5.1 6.9l-.3-.6c-.2-.3 5.1-4.5 5.4-6.3z"/><path class="st22" d="M414.2 228.7c0 6.6-4.2 9.5-4.2 9.5l-1.5-.3c.3-2.1 1.8-4.5 3.3-6.6 1.2-1.4 2.4-2.6 2.4-2.6z"/><path class="st5" d="M411.8 231.4c-.3 2.4-.6 5.4-1.8 6.6l-.3.3-1.5-.3c.6-2.1 2.4-4.5 3.6-6.6z"/><path class="st22" d="M410 238c-.3.3-.6.6-.9.6h-.3c-.9.3-1.2-.3-1.2-1.5 0-1.8 1.2-5.1 2.4-7.8.9-1.8 1.5-3 1.8-3.3 0 .6.3 9.3-1.8 12z"/><path class="st5" d="M408.5 238.6c-.3 0-.3 0-.6-.3-1.8-.9-1.8-4.8-1.2-8.7 1.5 3.6 3 8.4 1.8 9z"/><path class="st5" d="M410 238c-.3.3-.3.6-.9.6-.3 0-.3 0-.6-.3s-.9-.6-.9-1.2c0-1.8 1.2-5.1 2.4-7.8.3 3.9.6 7.5 0 8.7z"/><path class="st22" d="M408.5 222.5s-3.3 14 0 16.1c3.3 2.1.6-14.9 0-16.1z"/><path class="st28" d="M414.8 237.7h-14.1v2.4h2.1v.3l.9 4.4h8.4l.9-4.4v-.3h1.8z"/><path class="st5" d="M414.8 237.7h-14.1v2.4h2.1v.3l.9 4.4h8.4l.9-4.4v-.3h1.8z"/><path class="st28" d="M413.6 239.2l-.3 1.2-.6 4.4h-8.4l-.9-4.4v-1.2z"/><path class="st5" d="M413.6 239.2l-.3 1.2h-9.9v-1.2z"/><path class="st28" d="M401.3 237.7h14v2.4h-14z"/><path class="st22" d="M56.4 277.7l-.9 1.8s0 .3-.3.6h-.3c-.6 0-.9-.3-1.5 0v-.6c0-2.1-.3-4.8-2.1-3.6-1.8 1.2-.6 3 .6 4.5l.3.3c-1.2.9-1.2 2.7-1.5 4.5-.3 1.8-1.8 3.9-3 5.1l-.3.3c-.9-.6-2.1-.9-3-.9v-.6c-.9-3.3-2.7-8.7-5.1-9.8l.3-.3c.9-1.2 2.1-3.3.6-3.6-1.5-.6-1.8 1.8-1.8 3.3v.6c-.6 0-1.2.3-1.8.9l-.3-.3c-1.2-1.5-3.9-3.9-4.5-2.1-.6 1.8 1.5 3.9 3 5.4-.9 4.2 3.3 7.5 5.7 9l.3.3c-3.3 3.9-5.4 11-5.4 11l9.3 1.5s6-5.1 5.4-10.1c6-1.2 7.5-7.8 6.6-11.3 1.2-.6 2.1-1.2 2.7-2.1 2.3-3.5-1.3-6.2-3-3.8z"/><path class="st5" d="M56.4 277.7l-.9 1.8s0 .3-.3.6h-.3c-.6 0-.9-.3-1.5 0v-.6c0-2.1-.3-4.8-2.1-3.6-1.8 1.2-.6 3 .6 4.5l.3.3c-1.2.9-1.2 2.7-1.5 4.5-.3 1.8-1.8 3.9-3 5.1l-.3.3c-.9-.6-2.1-.9-3-.9v-.6c-.9-3.3-2.7-8.7-5.1-9.8l.3-.3c.9-1.2 2.1-3.3.6-3.6-1.5-.6-1.8 1.8-1.8 3.3v.6c-.6 0-1.2.3-1.8.9l-.3-.3c-1.2-1.5-3.9-3.9-4.5-2.1-.6 1.8 1.5 3.9 3 5.4-.9 4.2 3.3 7.5 5.7 9l.3.3c-3.3 3.9-5.4 11-5.4 11l9.3 1.5s6-5.1 5.4-10.1c6-1.2 7.5-7.8 6.6-11.3 1.2-.6 2.1-1.2 2.7-2.1 2.3-3.5-1.3-6.2-3-3.8z"/><path class="st22" d="M38.2 280.4l-1.2 3s-.6-.3-1.2-1.2c-1.5-1.2-3.6-3.6-3-5.4.6-1.8 3.3.6 4.5 2.1.6.9.9 1.5.9 1.5zm2.3-1.8c-.3.3-.6.9-.9 1.2 0-.6-.3-1.2-.3-1.8 0-1.5 0-3.6 1.8-3.3 1.8.3.3 2.7-.6 3.9zm13.8.3v1.8c-.6-.3-.9-.9-1.2-1.2-1.2-1.2-2.7-3.3-.6-4.5 1.5-.9 1.8 2.1 1.8 3.9zm6.2 1.5c-.6.9-1.8 1.8-2.7 2.1-.3 0-.6.3-.9.3l-1.5-1.8c0-.6.3-1.2.6-1.8l.9-1.8c1.8-2.1 5.4.6 3.6 3z"/><path class="st5" d="M37.3 279.2c.6.6.9 1.2.9 1.2l-1.2 3s-.6-.3-1.2-1.2c.3-.9.6-2.1 1.2-2.7 0 0 .3 0 .3-.3zm3.2-.6c-.3.3-.6.9-.9 1.2 0-.6-.3-1.2-.3-1.8.3 0 .9.3 1.2.6z"/><path class="st22" d="M45.6 290.8l-2.7 1.2s-.6-.3-1.5-.9c-2.7-1.8-8.4-6-4.8-11 3.6-5.1 6.9 4.2 8.1 8.4.9 1.4.9 2.3.9 2.3z"/><path class="st5" d="M52.8 279.8c.3-.3.9-.6 1.5-.6v1.8c-.6-.6-1.2-.9-1.5-1.2zm4.8 2.6c-.3 0-.6.3-.9.3l-1.2-1.8c0-.6.3-1.2.6-1.8.9.7 1.5 1.9 1.5 3.3z"/><path class="st22" d="M51 294.1h-.3c-9 1.5-3-3.6-3-3.6l.9-.9c1.2-1.2 2.7-3.3 3-5.1.3-3 .6-5.7 3.9-4.8 3.2.7 4.1 12.6-4.5 14.4z"/><path class="st29" d="M34 316.2h17v4.5H34z"/><path class="st29" d="M31.3 301.5h22.1V317H31.3z"/><path class="st5" d="M34 316.2h17v4.5H34z"/><path class="st5" d="M31.3 301.5h22.1V317H31.3z"/><path class="st29" d="M35.2 316.2h17v4.5h-17z"/><path class="st5" d="M45 288.7l.6 2.4-2.7 1.2s-.6-.3-1.5-.9c1.2-1.5 2.4-2.4 3.6-2.7zm6 5.4h-.3c-9 1.5-3-3.6-3-3.6l.9-.9c1.8 1.5 2.4 3 2.4 4.5z"/><path class="st22" d="M36.7 302.4s5.1-17.9 11.9-12.2-3 14-3 14l-8.9-1.8z"/><circle class="st5" cx="39" cy="283" r=".6"/><circle class="st5" cx="39" cy="285.4" r=".6"/><circle class="st5" cx="55.5" cy="283.3" r=".6"/><circle class="st5" cx="42.3" cy="296.8" r=".6"/><circle class="st5" cx="54.3" cy="287.8" r=".6"/><circle class="st5" cx="48.3" cy="293.5" r=".6"/><circle class="st5" cx="41.1" cy="283.9" r=".6"/><circle class="st5" cx="53.7" cy="285.1" r=".6"/><circle class="st5" cx="51.9" cy="289.3" r=".6"/><circle class="st5" cx="45.9" cy="296.5" r=".6"/><circle class="st5" cx="44.7" cy="293.8" r=".6"/><circle class="st5" cx="42" cy="287.5" r=".6"/><path class="st5" d="M35.2 316.2h17v1.5h-17z"/><path class="st29" d="M32.5 301.5h22.1V317H32.5z"/><circle class="st5" cx="46.8" cy="298.9" r=".6"/><circle class="st5" cx="43.5" cy="299.5" r=".6"/><circle class="st0" cx="21.7" cy="26.4" r="4.2"/><circle class="st0" cx="410.9" cy="153.8" r="5.4"/><circle class="st0" cx="421.3" cy="142.2" r="3.9"/><circle class="st0" cx="28.6" cy="11.8" r="5.4"/><circle class="st0" cx="7.7" cy="36.6" r="5.4"/></svg>