<?xml version="1.0" encoding="utf-8"?>
<!-- Generator: Adobe Illustrator 23.0.3, SVG Export Plug-In . SVG Version: 6.00 Build 0)  -->
<svg version="1.1" id="fb638577-3af1-4e62-8e8d-f046cc0653af"
	 xmlns="http://www.w3.org/2000/svg" xmlns:xlink="http://www.w3.org/1999/xlink" x="0px" y="0px" viewBox="0 0 425.2 320.2"
	 style="enable-background:new 0 0 425.2 320.2;" xml:space="preserve">
<style type="text/css">
	.st0{opacity:0.1;fill:#89DAF8;enable-background:new    ;}
	.st1{fill:none;stroke:#535461;stroke-width:0.7389;stroke-miterlimit:10;}
	.st2{fill:#3C6FE9;}
	.st3{opacity:0.25;enable-background:new    ;}
	.st4{opacity:0.1;fill:#3C6FE9;enable-background:new    ;}
	.st5{fill:#C8CAD7;}
	.st6{opacity:0.1;enable-background:new    ;}
	.st7{fill:#474157;}
	.st8{fill:#F4F4F7;}
	.st9{fill:#FFFFFF;}
	.st10{fill:#EDEDF4;}
	.st11{fill:#65617D;}
	.st12{opacity:0.2;fill:#5A5773;enable-background:new    ;}
	.st13{fill:url(#SVGID_1_);}
	.st14{fill:#FBBEBE;}
	.st15{fill:#E7EFFD;}
	.st16{fill:#3F3D56;}
	.st17{fill:#E3A79F;}
	.st18{opacity:0.1;}
	.st19{fill:#6C63FF;}
	.st20{fill:#E9425E;}
	.st21{fill:url(#SVGID_2_);}
	.st22{fill:url(#SVGID_3_);}
</style>
<title>site stats</title>
<path class="st0" d="M413.7,219.2c-0.3,0.3-0.9,0.6-1.2,0.9c-1.5,0.9-3,1.8-4.8,2.7c-8.7,3.9-19.5,6-29.7,7.2
	c-23.4,3-47.1,3.6-70.8,4.2c-64.2,1.5-128.3,3-192.2-0.6c-25.2-1.5-51-3.9-74.1-11.1c-3.3-0.9-6.6-2.1-9.6-3.3
	c-6.3-2.4-12.6-5.7-17.7-9.3c-4.8-3.3-8.7-7.5-11.1-11.7c-4.8-9.3-2.4-19.8,3.3-29.1c2.4-3.6,4.8-7.2,7.8-10.5
	c4.2-5.1,9-10.2,13.2-15.3C42.1,125,52,101.9,37.9,83c-4.2-5.4-9.9-10.2-13.2-15.6c-4.2-7.2-3.9-15.3-2.7-22.8
	c0.3-0.9,0.3-2.1,0.6-3c2.4-11.4,6.6-24,19.8-31.2C56.5,3,76,3.3,93.1,6c26.7,4.2,51.3,12.9,75.9,20.7s50.7,15,78,15.9
	c24,0.6,52.2-4.5,68.1-17.7c15.6-12.9,44.7-13.8,65.7-6c14.4,5.4,25.2,15,29.7,25.8c0.9,2.1,1.5,4.5,2.1,6.6
	c0.3,2.1,0.6,4.2,0.3,6.3c0,0.9-0.3,2.1-0.3,3c-3.6,21.3-28.8,38.1-44.1,57c-7.5,9.3-12.9,20.4-7.5,30.6
	c7.8,15.3,35.4,20.7,51.9,32.1c3.3,2.1,6,4.5,8.1,7.2C428.7,197.6,425.7,211.1,413.7,219.2z"/>
<g id="bcb547b9-8dd8-4d76-924a-52de61933c6c">
	<path class="st1" d="M109,119.9c0,0-17.1-30-42.6-38.7c-10.8-3.6-20.1-10.5-26.7-19.8c-3-4.5-5.7-9.3-7.8-14.1"/>
	<path class="st2" d="M16,41.7c3,2.7,16.5,5.7,16.5,5.7s-3.3-13.5-6.3-16.2c-3-2.7-7.5-2.7-10.5,0.3C13,34.2,13,39,16,41.7z"/>
	<path class="st2" d="M23.8,66.2c3.9,0.9,17.1-4.2,17.1-4.2s-10.2-9.6-14.1-10.2c-3.9-0.6-7.8,2.1-8.4,6
		C17.2,61.5,19.9,65.3,23.8,66.2L23.8,66.2z"/>
	<path class="st2" d="M51.7,92.6c3.9-1.2,12.6-12,12.6-12s-13.5-3-17.4-1.8c-3.9,1.2-6,5.4-4.8,9.3c1.2,3.9,5.4,6,9.3,4.8
		C51.4,92.6,51.4,92.6,51.7,92.6L51.7,92.6z"/>
	<path class="st2" d="M77.5,107.6c3.9-0.6,14.4-9.9,14.4-9.9S79,92.3,75.1,92.9s-6.6,4.5-6,8.4C69.4,105.8,73.3,108.5,77.5,107.6z"
		/>
	<path class="st2" d="M52,51.6c0,4.2-7.5,15.9-7.5,15.9S37,55.8,37,51.6s3-7.5,7.2-7.5s7.5,3,7.5,7.2C52,51.3,52,51.3,52,51.6
		L52,51.6z"/>
	<path class="st2" d="M81.7,69.5C80.5,73.4,70,82.4,70,82.4S66.4,68.9,67.6,65c1.5-3.9,5.7-5.7,9.3-4.5
		C80.8,62.1,82.9,65.9,81.7,69.5L81.7,69.5z"/>
	<path class="st2" d="M108.4,91.1c-0.6,3.9-9.3,14.7-9.3,14.7S93.4,93.2,94,89c0.6-3.9,4.2-6.9,8.1-6.3
		C106,83.3,109,86.9,108.4,91.1L108.4,91.1L108.4,91.1z"/>
	<path class="st3" d="M16,41.7c3,2.7,16.5,5.7,16.5,5.7s-3.3-13.5-6.3-16.2c-3-2.7-7.5-2.7-10.5,0.3C13,34.2,13,39,16,41.7z"/>
	<path class="st3" d="M23.8,66.2c3.9,0.9,17.1-4.2,17.1-4.2s-10.2-9.6-14.1-10.2c-3.9-0.6-7.8,2.1-8.4,6
		C17.2,61.5,19.9,65.3,23.8,66.2L23.8,66.2z"/>
	<path class="st3" d="M51.7,92.6c3.9-1.2,12.6-12,12.6-12s-13.5-3-17.4-1.8c-3.9,1.2-6,5.4-4.8,9.3c1.2,3.9,5.4,6,9.3,4.8
		C51.4,92.6,51.4,92.6,51.7,92.6L51.7,92.6z"/>
	<path class="st3" d="M77.5,107.6c3.9-0.6,14.4-9.9,14.4-9.9S79,92.3,75.1,92.9s-6.6,4.5-6,8.4C69.4,105.8,73.3,108.5,77.5,107.6z"
		/>
	<path class="st3" d="M52,51.6c0,4.2-7.5,15.9-7.5,15.9S37,55.8,37,51.6s3-7.5,7.2-7.5s7.5,3,7.5,7.2C52,51.3,52,51.3,52,51.6
		L52,51.6z"/>
	<path class="st3" d="M81.7,69.5C80.5,73.4,70,82.4,70,82.4S66.4,68.9,67.6,65c1.5-3.9,5.7-5.7,9.3-4.5
		C80.8,62.1,82.9,65.9,81.7,69.5L81.7,69.5z"/>
	<path class="st3" d="M108.4,91.1c-0.6,3.9-9.3,14.7-9.3,14.7S93.4,93.2,94,89c0.6-3.9,4.2-6.9,8.1-6.3
		C106,83.3,109,86.9,108.4,91.1L108.4,91.1L108.4,91.1z"/>
	<path class="st1" d="M108.1,119.3c0,0-3.3-34.5-23.1-52.8c-8.4-7.8-14.1-17.7-16.2-28.8c-0.9-5.4-1.5-10.8-1.5-16.2"/>
	<path class="st2" d="M54.7,10.2c1.5,3.9,12.9,12,12.9,12S70,8.4,68.5,4.8c-1.5-3.9-5.7-5.7-9.6-4.2S53.2,6.3,54.7,10.2L54.7,10.2z"
		/>
	<path class="st2" d="M52,35.7c3.3,2.4,17.1,3,17.1,3s-5.4-12.9-8.7-15.3c-3.3-2.4-7.8-1.5-10.2,1.8C47.8,28.8,48.7,33.3,52,35.7
		L52,35.7z"/>
	<path class="st2" d="M66.7,71c4.2,0.3,16.5-6,16.5-6s-11.1-8.4-15.3-8.7c-3.9-0.3-7.8,2.4-8.1,6.6c-0.3,3.9,2.4,7.8,6.6,8.1
		C66.4,71,66.7,71,66.7,71L66.7,71z"/>
	<path class="st2" d="M84.1,95.3c3.9,0.9,17.1-3,17.1-3s-9.6-10.2-13.5-11.1c-3.9-0.9-8.1,1.2-9,5.4C77.8,90.2,80.2,94.4,84.1,95.3
		L84.1,95.3z"/>
	<path class="st2" d="M83.8,33.6C82.3,37.2,70.6,45,70.6,45s-2.1-13.8-0.3-17.4s6-5.1,9.6-3.6C83.5,25.8,85.3,30,83.8,33.6z"/>
	<path class="st2" d="M103.6,62.4c-2.7,3-15.9,7.2-15.9,7.2s2.1-13.8,4.8-16.8s7.2-3.6,10.5-0.9C106,54.3,106.3,59.1,103.6,62.4
		C103.6,62.1,103.6,62.4,103.6,62.4z"/>
	<path class="st2" d="M119.2,92.9c-2.1,3.6-14.7,9.6-14.7,9.6s0-13.8,2.1-17.4c2.1-3.6,6.6-4.5,10.2-2.4
		C120.1,84.8,121.3,89.3,119.2,92.9L119.2,92.9z"/>
</g>
<ellipse class="st4" cx="236.5" cy="314" rx="123.9" ry="6.3"/>
<path class="st2" d="M98.5,302c0,0-15.6-0.9-13.8,9.9c0,0-0.3,1.8,1.5,2.7c0,0,0-0.9,1.5-0.6c0.6,0,1.2,0,1.8,0
	c0.9,0,1.5-0.3,2.1-0.9l0,0c0,0,4.5-1.8,6-9c0,0,1.2-1.5,1.2-2.1l-2.7,1.2c0,0,0.9,1.8,0.3,3.6c0,0,0-3.3-0.6-3.3l-1.5,0.6
	c0,0,1.5,3.3,0.3,5.7c0,0,0.3-4.2-0.9-5.4l-1.8,1.2c0,0,1.8,3.3,0.6,6.3c0,0,0.3-4.2-0.9-6l-1.8,1.2c0,0,1.8,3.3,0.6,5.7
	c0,0,0-5.1-0.9-5.4c0,0-1.5,1.2-1.8,1.8c0,0,1.2,2.4,0.3,3.6c0,0-0.3-3.3-0.9-3.3c0,0-1.5,2.1-1.5,3.6c0,0,0-2.1,1.2-3.9
	c-0.9,0.3-1.5,0.6-2.1,1.2c0,0,0.3-1.5,2.7-1.8c0,0,1.2-1.8,1.5-1.8c0,0-2.4-0.3-3.9,0.3c0,0,1.2-1.5,4.2-0.9l1.8-1.5
	c0,0-3-0.3-4.5,0c0,0,1.5-1.2,4.8-0.3l1.8-1.2c0,0-2.7-0.6-4.2-0.3c0,0,1.8-0.9,4.8,0l1.2-0.6c0,0-1.8-0.3-2.4-0.3
	c-0.6,0-0.6-0.3-0.6-0.3c1.2-0.3,2.4,0,3.6,0.3C95.8,303.2,98.5,302.3,98.5,302z"/>
<ellipse class="st4" cx="87.7" cy="315.8" rx="11.1" ry="1.8"/>
<path class="st2" d="M71.2,302.6c0,0-8.7-0.6-7.8,5.7c0,0.6,0.3,1.2,0.9,1.5c0,0,0-0.6,0.9-0.3c0.3,0,0.6,0,0.9,0
	c0.3,0,0.9-0.3,1.2-0.6l0,0c0,0,2.4-0.9,3.3-5.1C70.6,303.8,71.2,302.9,71.2,302.6l-1.5,0.6c0,0,0.6,1.2,0,2.1c0,0,0-1.8-0.3-1.8
	l-0.9,0.3c0,0,0.9,1.8,0.3,3.3c0,0,0.3-2.4-0.6-3l-1.2,0.6c0,0,0.9,1.8,0.3,3.6c0,0,0.3-2.4-0.6-3.3l-0.9,0.6c0,0,0.9,1.8,0.3,3.3
	c0,0,0-2.7-0.6-3c-0.3,0.3-0.6,0.6-0.9,0.9c0,0,0.6,1.5,0.3,2.1c0,0-0.3-1.8-0.6-1.8c0,0-0.9,1.2-0.9,2.1c0-0.9,0.3-1.5,0.6-2.1
	c-0.6,0-0.9,0.3-1.2,0.6c0,0,0-0.9,1.5-0.9c0,0,0.6-0.9,0.9-0.9c0,0-1.2,0-2.1,0.3c0,0,0.6-0.9,2.4-0.6l0.9-0.9c0,0-1.8-0.3-2.4,0
	c0,0,0.9-0.6,2.7-0.3l0.9-0.6c-0.9-0.3-1.5-0.3-2.4-0.3c0,0,0.9-0.6,2.7,0l0.6-0.3c0,0-1.2-0.3-1.5-0.3c-0.3,0-0.3,0-0.3,0
	c0.6,0,1.5,0,2.1,0.3C69.7,303.2,71.2,302.6,71.2,302.6z"/>
<ellipse class="st4" cx="64.9" cy="310.4" rx="6.3" ry="1.2"/>
<path class="st2" d="M88,289.4c0,0-10.5-0.6-9.3,6.9c0,0.9,0.3,1.5,0.9,1.8c0,0,0-0.6,1.2-0.3c0.3,0,0.9,0,1.2,0
	c0.6,0,0.9-0.3,1.5-0.6l0,0c0,0,3-1.2,4.2-6l0.9-1.2l-1.8,0.9c0,0,0.6,1.2,0,2.4c0,0,0-2.4-0.3-2.4l-0.9,0.6c0,0,1.2,2.4,0.3,3.9
	c0,0,0.3-2.7-0.6-3.6l-1.2,0.6c0,0,1.2,2.4,0.3,4.2c0,0,0.3-3-0.6-4.2l-1.2,0.9c0,0,1.2,2.4,0.6,3.9c0,0,0-3.3-0.6-3.6
	c0,0-0.9,0.9-1.2,1.2c0,0,0.9,1.8,0.3,2.4c0,0-0.3-2.4-0.6-2.4c0,0-0.9,1.5-1.2,2.4c0-0.9,0.3-1.8,0.9-2.7c-0.6,0-1.2,0.3-1.5,0.9
	c0,0,0.3-1.2,1.8-1.2L82,293c0,0-1.5,0-2.7,0.3c0,0,0.9-0.9,3-0.6l1.2-0.9c0,0-2.1-0.3-3,0c0,0,0.9-0.9,3.3-0.3l1.2-0.6
	c0,0-1.8-0.3-3-0.3c0,0,1.2-0.6,3.3,0l0.9-0.3c0,0-1.2-0.3-1.8-0.3c-0.3,0-0.3-0.3-0.3-0.3c0.9,0,1.8,0,2.4,0.3
	C85.9,290.3,88,289.7,88,289.4z"/>
<ellipse class="st4" cx="80.5" cy="299" rx="7.5" ry="1.2"/>
<path class="st5" d="M250.3,305.6v3h-85.5v-2.7c14.4-5.4,21.9-21.6,16.5-36c-2.7-6.9-7.8-12.6-14.7-15.9h83.1
	c-7.8,3.6-13.5,10.5-15.6,18.6c-2.7,11.1,1.5,23.1,10.8,29.7C246.7,303.8,248.5,304.7,250.3,305.6z"/>
<path class="st6" d="M249.7,254c-7.8,3.6-13.5,10.5-15.6,18.6h-51.9c-2.1-8.1-7.8-15-15.6-18.6H249.7z"/>
<path class="st5" d="M67,239.3v16.2c0,9,6.6,16.2,14.7,16.2H333c8.1,0,14.7-7.2,14.7-16.2v-16.2H67z"/>
<path class="st6" d="M250.3,305.6v3h-85.5v-2.7c2.4-0.9,4.5-2.1,6.6-3.6h73.5C246.7,303.8,248.5,304.7,250.3,305.6z"/>
<path class="st5" d="M140.2,303.5h134.9c1.8,0,3.6,1.5,3.6,3.6v1.5c0,1.8-1.5,3.6-3.6,3.6H140.2c-1.8,0-3.6-1.5-3.6-3.6v-1.5
	C136.6,305,138.1,303.5,140.2,303.5z"/>
<path class="st7" d="M347.7,61.8c0-8.1-6.6-14.7-14.7-14.7l0,0H81.7c-8.1,0-14.7,6.6-14.7,14.7l0,0v180.8h280.7V61.8z"/>
<path class="st8" d="M339.9,68.3v155.3c0,3.9-3.3,7.2-7.2,7.2l0,0h-251c-3.9,0-7.2-3.3-7.2-7.2l0,0V68.3c0-3.9,3.3-7.2,7.2-7.2h251
	C336.6,61.2,339.9,64.1,339.9,68.3L339.9,68.3z"/>
<circle class="st9" cx="207.4" cy="54" r="3.3"/>
<circle class="st9" cx="207.4" cy="256.4" r="8.4"/>
<path class="st9" d="M339.9,68.3H74.5c0-3.9,3.3-7.2,7.2-7.2l0,0h251C336.6,61.2,339.9,64.1,339.9,68.3L339.9,68.3z"/>
<circle class="st10" cx="81.7" cy="64.7" r="1.8"/>
<circle class="st10" cx="87.1" cy="64.7" r="1.8"/>
<circle class="st10" cx="92.8" cy="64.7" r="1.8"/>
<rect x="99.7" y="88.1" class="st9" width="214.1" height="125.1"/>
<path class="st11" d="M136.3,194h7.8v1.5h-7.8V194z M140.2,190.1c0.6,0,0.9-0.3,0.9-0.9s-0.3-0.9-0.9-0.9h-0.3l-2.1-1.5l0,0l1.5,2.1
	v0.3C139.3,189.5,139.6,190.1,140.2,190.1L140.2,190.1z"/>
<path class="st11" d="M140.2,182.6c-3.6,0-6.3,3-6.3,6.3c0,1.5,0.6,2.7,1.5,3.9h1.8l0,0l0.6-0.6l-0.6-0.6l-0.6,0.6
	c-0.6-0.6-0.9-1.8-1.2-2.7h0.9v-0.9h-1.2c0-0.9,0.6-1.8,1.2-2.7l0.6,0.6l0.6-0.6l-0.6-0.6c0.6-0.6,1.8-0.9,2.7-1.2v0.9h0.9v-0.9
	c0.9,0,1.8,0.6,2.7,1.2l-0.6,0.6l0.6,0.6l0.9-0.6c0.6,0.6,0.9,1.8,1.2,2.7h-1.2v0.9h0.9c0,0.9-0.6,1.8-1.2,2.7l-0.6-0.6l-0.6,0.6
	l0.6,0.6l0,0h1.8c2.1-2.7,1.8-6.9-1.2-9C142.9,182.9,141.7,182.6,140.2,182.6L140.2,182.6z"/>
<path class="st11" d="M140.2,155.6c-0.6,0-0.9,0-1.2-0.3h-0.3l0,0v1.5l0,0l0,0l0.3-0.3c0,0,0,0,0.3,0l0,0l0.6,0.9c0,0,0,0,0.3,0l0,0
	l0.6-0.9c0,0,0,0,0.3,0l0,0l0.3,0.3c0,0,0,0,0.3,0l0,0v-1.5c0,0,0-0.3-0.3-0.3l0,0C141.1,155.6,140.5,155.6,140.2,155.6L140.2,155.6
	z"/>
<path class="st11" d="M144.4,151.7l-1.5-1.5c0-4.8-3-6.9-3-6.9s-3,2.1-3,6.9l-1.5,1.5c0,0,0,0,0,0.3l0.6,3.3c0,0,0,0.3,0.3,0.3l0,0
	l2.1-1.5c0.3,0.3,0.9,0.6,1.5,0.6c0.6,0,0.9-0.3,1.5-0.6l2.1,1.5h0.3l0,0L144.4,151.7C144.7,151.7,144.7,151.7,144.4,151.7z
	 M140.2,148.7c-0.6,0-0.9-0.3-0.9-0.9s0.3-0.9,0.9-0.9s0.9,0.3,0.9,0.9l0,0C141.1,148.1,140.8,148.7,140.2,148.7L140.2,148.7z"/>
<path class="st11" d="M145,117.8L145,117.8c-0.3,0-0.6,0-0.6-0.3l0,0c-0.6-4.2-3-4.2-3-5.4c0-0.9,2.7-1.2,3-5.4l0,0
	c0-0.3,0.3-0.3,0.3-0.3h0.3c0.3,0,0.3-0.3,0.3-0.3c0-0.3-0.3-0.3-0.3-0.6l0,0h-9.9c-0.3,0-0.3,0.3-0.3,0.3c0,0.3,0.3,0.3,0.3,0.6
	l0,0h0.3c0.3,0,0.3,0,0.3,0.3l0,0c0.6,4.2,3,4.2,3,5.4c0,0.9-2.7,1.2-3,5.4l0,0c0,0.3-0.3,0.3-0.3,0.3h-0.3c-0.3,0-0.3,0.3-0.3,0.3
	c0,0.3,0.3,0.3,0.3,0.6l0,0h9.9c0.3,0,0.3-0.3,0.3-0.3l0,0C145.6,118.1,145.3,117.8,145,117.8z M137.2,116.9c0.9-2.4,2.4-2.1,2.4-3
	v-1.8c0-0.6-1.2-0.9-1.8-2.1v-0.3l0,0h4.2c0,0,0.3,0,0.3,0.3l0,0c-0.6,0.9-1.8,1.5-1.8,2.1v1.8c0,0.9,1.5,0.6,2.4,3
	c0,0.3,0,0.6-0.3,0.6h-5.4C137.2,117.2,137.2,117.2,137.2,116.9z"/>
<path class="st12" d="M279.6,112.4c0,2.4-1.8,4.2-4.2,4.2H169.9c-2.4,0-4.2-1.8-4.2-3.9c0-2.4,1.8-4.2,3.9-4.2h0.3h105.6
	C277.8,108.2,279.6,110,279.6,112.4z"/>
<path class="st12" d="M279.6,150.5c0,2.4-1.8,4.2-4.2,4.2l0,0H169.9c-2.4,0-4.2-2.1-3.9-4.2c0-2.1,1.8-3.9,3.9-3.9h105.6
	C277.8,146.3,279.6,148.4,279.6,150.5z"/>
<path class="st12" d="M279.6,188.9c0,2.4-1.8,4.2-4.2,4.2H169.9c-2.4,0-4.2-1.8-4.2-3.9c0-2.4,1.8-4.2,3.9-4.2h0.3h105.6
	C277.8,185,279.6,186.8,279.6,188.9z"/>
<path class="st2" d="M258.3,108.2v8.1h-88.5c-2.4,0-4.2-1.8-4.2-3.9c0-2.4,1.8-4.2,3.9-4.2h0.3H258.3z"/>
<path class="st2" d="M274.2,146.3v8.1H169.9c-2.4,0-4.2-2.1-3.9-4.2c0-2.1,1.8-3.9,3.9-3.9H274.2z"/>
<path class="st2" d="M235.6,185v8.1h-65.7c-2.4,0-4.2-1.8-4.2-3.9c0-2.4,1.8-4.2,3.9-4.2h0.3H235.6z"/>
<linearGradient id="SVGID_1_" gradientUnits="userSpaceOnUse" x1="-272.5061" y1="6653.3877" x2="-272.5061" y2="6444.6064" gradientTransform="matrix(1 0 0 1 605.84 -6337.0195)">
	<stop  offset="0" style="stop-color:#808080;stop-opacity:0.25"/>
	<stop  offset="0.54" style="stop-color:#808080;stop-opacity:0.12"/>
	<stop  offset="1" style="stop-color:#808080;stop-opacity:0.1"/>
</linearGradient>
<path class="st13" d="M383.7,173.3c0.3-0.6-1.2-3.6-1.2-3.9s-1.5-1.8-1.5-2.7c0-0.9-2.1-3-2.1-3s-2.7-1.2-3-3.6
	c-0.3-2.4-3.3-2.7-3.3-2.7l0,0c0,0,0-0.3,0-0.6c0-0.9,0-2.1-0.3-3c-0.3-0.6-0.9-1.2-1.8-1.5c0,0-0.3-2.1-0.9-2.7
	c-0.6-0.6-0.9-1.8-0.6-2.7c0.3-0.9-0.3-3.3-1.8-3.6s-3-0.9-3-0.9h-0.3h-0.3c-0.3,0-0.6,0-1.2,0c-0.3,0-0.6,0-0.9-0.3
	c-0.6-0.6-4.5-1.5-5.4-1.5s-3-0.9-3-0.9l-2.1-1.8c-0.6-0.6-1.8-2.4-1.8-2.7l0,0l0,0l0,0c-0.3-0.3-0.3-0.9-0.6-1.2l0,0
	c0.6-0.9,1.5-1.5,1.8-2.7V131h0.3l0,0c0.6-0.3,0.9-0.6,1.2-1.2l0,0v-0.3l0,0v-0.3l0,0v-0.3l0,0v-0.3l0,0c0-0.3,0-0.6,0.3-1.2l0,0
	l0,0c0.3-1.5,1.2-2.4,1.8-3.9l0,0c0-0.3,0.3-0.3,0.3-0.6c0-0.3,0-0.3,0.3-0.6c0,0,0,0,0-0.3c0-0.3,0-0.3,0-0.6c0,0,0,0,0-0.3
	c0-0.3,0-0.3,0-0.6c0-1.2,0-2.4-0.6-3.6c-0.3-0.9-0.9-1.8-1.2-2.7c-0.6-1.5-0.6-3-1.5-4.5c-1.2-2.4-3.9-3.3-6.3-2.7
	c-1.2,0.3-2.1,1.2-3.3,1.5c-1.5,0.6-3,0-4.5,0c-1.5-0.3-3.3-0.3-4.5,0.9c-1.5,1.2-1.8,3.3-3.3,4.5c-0.6,0.6-1.2,0.9-1.8,1.5
	c-0.3,0.3-0.6,0.9-0.9,1.2l0,0l0,0c0,0,0,0,0,0.3l0,0v0.3l0,0v0.3l0,0c0,0,0,0,0,0.3l0,0v0.3l0,0l0,0c0.3,0.3,0.3,0.9,0.6,1.2
	c0,0.3,0,0.6,0,0.9c0,0.3-0.3,0.6-0.6,0.6c-0.9,0.9-1.8,2.4-2.4,3.6c0,0.3,0,0.3-0.3,0.6l0,0l0,0h0.3h0.3c0.3,0,0.6,0,0.9,0h0.3
	c0.3,0,0.6-0.3,0.9-0.3v0.3c0,0,0,0,0,0.3c0,4.5,2.7,8.7,6.6,10.8v0.3v0.3l0,0c0,0-0.9-0.6-1.8,0.9c-0.6,0.9-1.5,1.5-2.4,1.8
	c0,0-9.3,1.5-9.6,2.7l-4.2,0.3c0,0-1.5,0.3-1.8,3.3c-0.3,3-0.9,3.6-0.9,3.6s-1.8,3-1.5,4.8c0.3,1.5-1.5,2.4-1.5,2.4l-0.3,3
	c0,0-1.8-0.3-2.1,1.8c-0.6,2.1-1.2,3-1.2,3s-2.7,2.4-3,4.2l-1.8,1.2c0,0-3.9-0.9-4.8-2.4l-0.3-0.3l0,0l0,0c-0.6-0.6-1.8-1.8-1.8-1.5
	c0,0.3,0,0.6,0,0.9l-0.3-0.3l0-1.2c0,0-6-6.9-9.6-7.2l0,0c-0.9,0.3-1.5,0.9-1.8,1.5c-0.6,1.5-0.9,4.2,0.3,5.7l6,6.3h0.3l1.2,1.8
	c-0.3,0.6-0.3,0.9-0.6,1.5l0,0v0.3l0,0v0.3c0,0,0,0,0,0.3l0,0c0,0.6-0.3,0.9-0.3,1.2h-0.3h0.3l0,0l0,0h0.3
	c1.8,0.9,10.5,4.8,11.1,5.1c0.6,0.6,3.9,2.7,6.9,0.9c3-1.5,3.6-4.2,3.6-4.2s3-4.2,3-4.8c0-0.6,2.4-1.2,2.4-1.2s0.3,6.6-0.9,9.3
	c-1.2,2.4-3.3,13.5-3.3,13.5h0.3v0.6c0.3,0,0.3,0,0.6,0c-0.3,1.2-1.2,6.9-1.2,6.9s-0.3,2.7-0.9,3.6c-0.6,0.9-0.6,5.7-0.6,5.7
	l-0.9,3.3c0,0,0,0.3,0.3,0.6l0,0c0,0,0.9,1.8,2.4,3c0,0.6-0.3,1.2-0.3,1.5c-0.3,0.9-0.6,1.5-0.3,2.4c0,0-0.9,3.9-0.9,5.1
	c0,1.2-0.6,3.9-0.6,3.9l-0.9,8.7c0,0-0.6,7.5-0.3,9.6c0.3,2.1-0.3,4.8-0.3,4.8s0.6,6,0.6,6.6c-0.3,0.6-0.9,3.6-0.6,5.1
	c0.6,1.5,0.3,5.7,0.3,5.7s0.3,5.7,0.6,7.5c0.3,1.8,0,4.2,0,4.2s-0.3,3.9-0.6,3.9c0,0-1.5,2.7,1.2,5.4s0.9,2.1,0.9,2.1
	s-2.1-1.2-1.8,1.2c0.3,2.1,0.6,1.5,0.6,1.5l-0.6,1.8h0.3l-0.3,0.3c-0.3,0.3-0.6,0.6-0.9,1.2c-0.6,0.6-0.6,1.5-0.6,1.5
	s-3.6,4.2-7.2,6c-1.8,1.2-3.3,2.1-4.2,2.7c-0.6,0.6-0.6,1.2,0.9,1.8c2.7,0.9,7.5,1.5,11.1,0.3c2.1-0.6,3.9-1.8,5.4-3.6
	c0,0,2.1-1.2,4.2-0.6c2.1,0.3,6.3-2.4,6.3-2.4v-0.6l-0.3-2.1c-0.3-0.3-0.3-0.9-0.3-1.2c0-0.6,0-1.2-0.3-1.8c0-0.3,0-0.3,0-0.6h0.3
	c0,0-0.6-2.7,0.3-3c0.9-0.6,0.6-7.2,0.6-7.2s-1.2-1.5-1.8-1.8c-0.6-0.3,0-3.3,0-3.9c0-0.3,0.9-8.1,0.9-8.1s-0.3-2.4,0-3.6
	c0.3-1.2-0.6-5.1-0.6-5.1s-0.3-0.6,0.3-1.2c0.6-0.6,0.3-6,0.3-6s0-2.7,0-3.3s0.6-3.3,1.2-4.2c0.6-0.9,0.3-3.6,0.3-3.6l0,0v-0.3v-0.3
	v-0.3c0.3-1.5,0.6-3,0.9-4.5c0.6-2.1,1.5-5.7,1.5-5.7l4.8-12.3l0,0c0,0,2.1,3.9,2.1,7.8c0,0,0.6,4.5,0.3,5.7
	c-0.3,1.2,0.6,6.9,0.6,6.9s0.6,8.1,0.6,8.4c0,0.3,0.9,6.6,1.2,7.5c0.6,0.9-0.6,3.9-0.9,4.2c-0.3,0.3,0,7.8,0,7.8s-0.9,5.7-0.9,6.9
	c-0.3,1.2-0.9,5.7-0.3,7.5c0.6,1.8,0.3,2.1,0.3,2.1s1.8,1.8,0.6,2.1c-1.5,0.3-2.4,1.8-2.1,3.3v0.3c0.6,1.8,1.5,3.6,2.1,5.4l0.9-0.3
	v0.6v3c0,0,0.3,3,0.3,3.6c-0.3,1.2-0.3,2.7-0.3,3.9c0,0.3,0,0.6,0,0.6s0,2.7,5.7,1.8c5.7-0.9,6.6-3,6.6-3s0,0,0-0.3
	c0-0.6,0.3-1.5,0.3-2.1c0.3-0.9-1.5-4.5-1.5-4.5s-0.3-2.4-0.9-3c-0.3-0.3-0.3-0.6-0.3-1.2c0-0.3,0-0.3,0-0.6h0.3
	c0.3,0-0.3-1.8,0.9-2.4c1.2-0.6,0.9-1.8,0.6-2.1c-0.3-0.6,0.6-3.3,0.6-3.3c-0.3-0.6,0-1.2,0.3-1.5c0.6-0.6,1.2-5.7,1.2-5.7v-18.9
	c0,0,0.3-3.3,0-4.8c-0.3-1.5-0.9-3.9-0.3-4.8c0.6-0.6,0-3.9,0-3.9s0-6.9,0.9-8.7s0.6-12.6,0.6-12.6l0.3-7.2c0,0,1.8-1.5,1.2-9.6
	c1.8,0,3.9-0.3,4.2,0c0.6,0.6,4.2,2.7,6.3,1.2c0.6-0.3,2.4-2.1,2.4-2.1l-0.9-15c0.6,0.9,0.9,1.5,0.9,1.5c0-2.1,6-9,6-9
	s5.7-7.2,6.9-8.1s3.6-5.4,3.6-5.4c0.3-0.9,0.9-1.8,1.2-2.4C385.2,176.3,383.4,173.9,383.7,173.3z M370.5,178.7
	c-1.5,0.3-4.8,3.6-4.8,4.5c0,0.6-0.3,0.9-0.6,1.2c0-0.3,0-0.6,0-0.9c-0.3-4.5-0.6-9.9-0.6-10.5c0.3-0.9,0.3-5.1,0.3-5.1l0,0l0,0
	c0.9,3.3,4.2,6.9,4.2,6.9s0.6,1.5,1.2,1.8C370.8,176.6,370.5,178.7,370.5,178.7L370.5,178.7z"/>
<path class="st11" d="M289.5,177.5c0,0,1.8-9.6,7.8-9.6l4.2,9l-3,2.1C298.8,178.7,292.5,179,289.5,177.5z"/>
<path class="st6" d="M301.5,176.9l-3,2.1c0,0-4.5,0-7.5-0.6c-0.6,0-1.2-0.3-1.5-0.6c0,0,0,0,0-0.3l0,0c0.3-1.2,0.6-2.4,1.2-3.6
	c0.3-0.3,0.3-0.9,0.6-1.2c0.9-1.8,2.1-3.3,3.9-4.2c0.6-0.3,1.2-0.6,2.1-0.6h0.3l0,0v0.3l1.5,3L301.5,176.9z"/>
<path class="st11" d="M351,217.1c0,0,6.3-0.6,6.9-0.3c0.6,0.3,4.2,2.7,6.3,1.2c2.1-1.5,0.6-6.6,0.6-6.6c0-0.3-0.3-7.2-0.3-7.2
	l-3.6-5.1l-4.8-8.7l-9.6-0.9l0.3,14.1v7.2L351,217.1z"/>
<path class="st6" d="M351,217.1c0,0,6.3-0.6,6.9-0.3c0.6,0.3,4.2,2.7,6.3,1.2c2.1-1.5,0.6-6.6,0.6-6.6c0-0.3-0.3-7.2-0.3-7.2
	l-3.6-5.1l-4.8-8.7l-9.6-0.9l0.3,14.1v7.2L351,217.1z"/>
<path class="st14" d="M296.1,167.6c0,0-0.6,6-4.2,6.3c0,0-1.2-0.6-2.4-1.8c-3.3-2.4-8.7-7.2-7.2-11.7c2.1-6.3,12.3,5.4,12.3,5.4
	l0.9,0.9L296.1,167.6z"/>
<path class="st6" d="M296.1,167.6c0,0-0.6,6-4.2,6.3c0,0-1.2-0.6-2.4-1.8l-0.3-0.3c0.6,0.3,1.5,0.6,2.1,0.6c1.2,0,2.4-0.6,2.7-1.8
	c0.3-0.9,0.9-1.5,1.2-2.4c0.3-0.6,0.3-0.9,0.3-1.5L296.1,167.6z"/>
<path class="st15" d="M294.3,178.7l-0.9-1.2l-3-3.6l-1.5-1.8c0.6,0.3,1.5,0.6,2.1,0.6c1.2,0,2.4-0.6,2.7-1.8
	c0.3-0.9,0.9-1.5,0.9-2.4c0.6-1.2,0.6-2.1,0.3-2.4c-0.3-0.3,1.2,0.9,1.5,1.5l0,0l0.3,0.3v0.3l1.5,3l0,0
	C298.8,172.1,299.4,177.8,294.3,178.7z"/>
<path class="st11" d="M324.3,306.8c0,0-4.2,2.7-6.3,2.4c-2.1-0.3-4.2,0.6-4.2,0.6c-1.5,1.5-3.3,2.7-5.4,3.3
	c-3.3,1.2-8.1,0.6-10.8-0.3c-1.2-0.3-1.5-0.9-0.9-1.5c0.6-0.6,2.1-1.8,4.2-2.7c3.3-2.1,7.2-6,7.2-6s0-0.9,0.6-1.5
	c0.3-0.3,0.6-0.6,0.9-0.9c0.6-0.6,0.9-1.2,0.9-1.2l12.3,0.3c0,0,0.3,0.9,0.3,1.8c0,0.6,0.3,1.2,0.3,1.8c0,0.3,0,0.9,0.3,1.2l0.3,2.1
	L324.3,306.8z"/>
<path class="st11" d="M350.1,310.4c0,0.6-0.3,1.8-0.3,2.1c0,0.3,0,0.3,0,0.3s-0.9,2.1-6.6,3c-5.7,0.9-5.4-1.8-5.4-1.8s0-0.3,0-0.6
	c0-1.2,0.3-2.7,0.3-3.9c0.3-0.6-0.3-3.6-0.3-3.6v-3v-2.1l9.3-0.9c0,0.6,0.3,1.5,0.3,2.1c0,0.3,0.3,0.6,0.3,0.9c0.6,0.6,0.9,3,0.9,3
	S350.1,309.5,350.1,310.4z"/>
<path class="st6" d="M323.1,299.3c0,0,0.3,0.9,0.3,1.8c-1.2,0.3-7.2,1.2-8.7,0.6c-1.5-0.9-5.1-1.2-5.1-1.2v-0.3
	c0.6-0.6,0.9-1.2,0.9-1.2L323.1,299.3z"/>
<path class="st6" d="M347.1,302c-2.4-0.3-7.5,0.6-9.3,0.9v-2.1l9.3-0.9C347.1,300.5,347.1,301.4,347.1,302z"/>
<path class="st16" d="M352.5,226.4l-0.3,6.9c0,0,0.3,10.8-0.6,12.3c-0.6,1.8-0.6,8.4-0.6,8.4s0.6,3.3,0,3.9
	c-0.6,0.6-0.3,3.3,0.3,4.5c0.3,1.2,0,4.8,0,4.8v18.9c0,0-0.6,4.8-1.2,5.7c-0.3,0.3-0.6,0.9-0.3,1.5c0,0-0.6,2.7-0.6,3.3
	s0.6,1.5-0.6,2.1c-1.2,0.6-0.9,2.4-0.9,2.4c-2.7-0.6-10.5,1.2-10.5,1.2c-0.9-1.8-1.5-3.6-2.1-5.4c-0.6-1.5,0.3-3,1.8-3.6h0.3
	c0.9,0-0.6-2.1-0.6-2.1s0.3-0.3-0.3-2.1c-0.6-1.8,0-6.3,0.3-7.5c0-1.2,0.9-6.9,0.9-6.9s-0.3-7.2,0-7.5c0.3-0.3,1.2-3.3,0.9-4.2
	c-0.6-0.9-1.2-7.2-1.2-7.5c0-0.3-0.6-8.4-0.6-8.4s-0.6-5.7-0.6-6.9c0-1.2-0.3-5.7-0.3-5.7c0-3.6-2.1-7.8-2.1-7.8l0,0l-4.5,12.3
	c0,0-0.6,3.6-1.5,5.7c-0.3,1.5-0.6,3-0.9,4.2v0.3v0.3v0.3l0,0c0,0,0.3,2.7-0.3,3.6c-0.6,0.9-1.2,3.3-1.2,4.2c0,0.6,0,3.3,0,3.3
	s0.3,5.4-0.3,6c-0.3,0.3-0.3,0.6-0.3,1.2c0,0,0.9,3.9,0.6,5.1c-0.3,0.9,0,3.6,0,3.6s-0.9,7.8-0.9,8.1c0,0.3-0.6,3.6,0,3.6
	c0.6,0.3,1.8,1.8,1.8,1.8s0.3,6.6-0.6,6.9c-0.9,0.6-0.3,3-0.3,3s-7.2,1.5-9,0.6c-1.5-0.9-5.1-1.2-5.1-1.2l0.6-1.5
	c0,0-0.3,0.6-0.6-1.5c-0.3-2.1,1.8-1.2,1.8-1.2s1.5,0.3-0.9-2.1c-2.7-2.7-1.2-5.1-1.2-5.1l0.6-3.9c0,0,0.6-2.4,0-4.2
	c-0.3-1.8-0.6-7.5-0.6-7.5s0.3-4.2-0.3-5.7c-0.3-1.5,0.3-4.2,0.3-5.1c0-0.6-0.3-6.6-0.3-6.6s0.6-2.7,0.3-4.8
	c-0.3-2.1,0.3-9.6,0.3-9.6l0.9-8.7c0,0,0.6-2.7,0.6-3.9c0-1.2,0.6-4.8,0.6-4.8c0-0.9,0-1.5,0.3-2.4c0.6-0.9,0.6-4.2,0.6-4.2
	l4.8-11.1l2.4-9.6l31.8-0.3c0,0,0,0.9,0.3,2.4c0.3,1.5,0.6,3.9,0.9,6.6c0.3,2.4,0.6,5.4,0.9,8.7
	C354.3,224.6,352.5,226.4,352.5,226.4z"/>
<path class="st14" d="M349.5,139.1l-7.5,7.8c0,0-9.6-3.9-8.4-5.1c0.3-0.6,0.3-2.1,0-3.9c-0.3-2.7-1.2-6-1.2-6s16.5-2.7,15.3,0
	c-0.6,0.9-0.3,2.1,0,3.3C348,136.7,348.6,137.9,349.5,139.1z"/>
<path class="st6" d="M347.7,132.2c-0.6,0.9-0.6,1.2-0.3,2.1c-2.1,2.4-4.8,4.8-8.4,4.8c-1.8,0-3.6-0.3-5.4-1.2c-0.3-2.7-1.2-6-1.2-6
	S349.2,129.5,347.7,132.2z"/>
<path class="st14" d="M351,127.1c0,6.6-5.4,12-12,12c-6.6,0-11.7-5.4-12-12c0,0,0,0,0-0.3c0.3-6.6,5.7-11.7,12-11.7
	C345.6,115.4,350.7,120.8,351,127.1L351,127.1z"/>
<path class="st6" d="M352.5,205.4c-1.5,0-6.9,0-12.6,0l0,0h-1.8l0,0c-6.9,0-13.8-1.2-16.5-0.9c-5.7,0.6,2.1-5.4,2.1-5.4
	c4.5,1.2,8.7,1.5,13.2,1.2h1.8c5.4-0.3,10.5-0.9,13.5-1.5C351.9,200.3,352.2,202.7,352.5,205.4z"/>
<path class="st17" d="M352.5,205.1c-1.5,0-6.9,0-12.6,0l0,0h-1.8l0,0c-6.9,0-13.8-1.2-16.5-0.9c-5.7,0.6,2.1-5.4,2.1-5.4
	c4.5,1.2,8.7,1.5,13.2,1.2h1.8c5.4-0.3,10.5-0.9,13.5-1.5C351.9,200,352.2,202.4,352.5,205.1z"/>
<path class="st6" d="M335.7,142.4l-9.3,4.2l-7.2,54.6c0,0,4.2-1.8,6.6-0.6c2.4,1.2,9.9,0,9.9,0s5.4-0.3,6.3,0.3
	c0.9,0.6,10.2-2.4,10.2-2.4s1.8-3.9,0.3-4.5c-1.2-0.6,0.3-6.6,0.3-6.6l-0.9-39.6l-1.5-5.1l-4.2-2.7l-4.5,3.6l-2.1,0.3L335.7,142.4z"
	/>
<path class="st15" d="M335.7,141.8l-9.3,4.2l-6.9,54.9c0,0,4.2-1.8,6.6-0.6c2.4,1.2,9.9,0,9.9,0s5.4-0.3,6.3,0.3
	c0.9,0.6,10.2-2.4,10.2-2.4s1.8-3.9,0.3-4.5c-1.2-0.6,0.3-6.6,0.3-6.6l-0.9-39.6l-1.5-5.1l-4.2-2.7l-4.5,3.6l-2.1,0.3L335.7,141.8z"
	/>
<path class="st6" d="M335.7,144.2c0,0,2.7,3,2.7,3.9c0,0.6-0.3,2.1-0.3,2.1l-2.1,3.9c0,0-1.2,5.1-1.2,6s-1.8,10.2-1.8,10.2
	l-2.1,14.1l-2.7,18.3l2.7,4.5l3.3-2.7l4.2-32.7l0.9-6.3c0,0,0.9-11.7,0.9-12.9s-0.6-4.2-0.6-4.2s0.6-3,3.3-3.6c2.7-0.6-0.3,0-0.3,0
	l-1.5-1.2l-1.2,0.6C340.2,144.2,336.3,143,335.7,144.2z"/>
<path class="st16" d="M335.4,143.9c0,0,2.7,3,2.7,3.9c0,0.6-0.3,2.1-0.3,2.1l-2.1,3.9c0,0-1.2,5.1-1.2,6s-1.8,10.2-1.8,10.2
	l-2.1,14.1l-2.7,18.3l2.7,4.5l3.3-2.7l4.2-32.7l0.9-6.3c0,0,0.9-11.7,0.9-12.9s-0.6-4.2-0.6-4.2s0.6-3,3.3-3.6s-0.3-0.3-0.3-0.3
	l-1.5-1.2l-1.2,0.6C339.9,143.9,336,142.7,335.4,143.9z"/>
<path class="st6" d="M333.6,138.8c0,0-0.3,0.3-0.6,2.4c0,2.1-1.5,6.6-1.5,6.6s5.1-3.6,7.8-3.3L333.6,138.8z"/>
<path class="st15" d="M333.6,138.2c0,0-0.3,0.3-0.6,2.4c0,2.1-1.5,6.6-1.5,6.6s5.1-3.6,7.8-3.3L333.6,138.2z"/>
<path class="st6" d="M347.7,137.3l-8.1,7.2c0,0,6.9,4.2,7.8,5.1c0.9,0.9,1.8-9.9,1.8-9.9L347.7,137.3z"/>
<path class="st15" d="M348,136.7l-8.1,7.2c0,0,6.9,4.2,7.8,5.1c0.9,0.9,1.8-9.9,1.8-9.9L348,136.7z"/>
<path class="st6" d="M333.9,138.8c0,0-0.9-0.3-1.8,0.9c-0.6,0.9-1.5,1.5-2.4,1.8c0,0-9,1.5-9.3,2.7l-4.2,0.3c0,0-1.5,0.3-1.5,3.3
	c0,3-0.9,3.3-0.9,3.3s-1.8,3-1.5,4.8c0,1.5-1.2,2.4-1.2,2.4l6.3,16.2c0,0,0.3,6.6-0.9,9s-3.3,13.2-3.3,13.2s0.9-0.3,0.9,0.3
	c0,0.6-1.2,7.2-1.2,7.2s-0.3,2.7-0.9,3.6s-0.6,5.7-0.6,5.7l-0.9,3.3c0,0,1.8,4.2,4.8,3.6c3-0.6,8.1-12,8.1-12l3.3-12.3l2.7-12
	l0.6-8.1l1.2-18l1.8-12C332.7,146,334.5,139.7,333.9,138.8z"/>
<path class="st11" d="M333.6,138.2c0,0-0.9-0.3-1.8,0.9c-0.6,0.9-1.5,1.5-2.4,1.8c0,0-9,1.5-9.3,2.7l-4.2,0.3c0,0-1.5,0.3-1.5,3.3
	c-0.3,3-0.9,3.3-0.9,3.3s-1.8,3-1.5,4.8c0,1.5-1.2,2.4-1.2,2.4l6.3,16.2c0,0,0.3,6.6-0.9,9c-1.2,2.4-3.3,13.2-3.3,13.2
	s0.9-0.3,0.9,0.3c0,0.6-1.2,7.2-1.2,7.2s-0.3,2.7-0.9,3.6c-0.6,0.9-0.6,5.7-0.6,5.7l-0.9,3.3c0,0,1.8,4.2,4.8,3.6
	c3-0.6,8.1-12,8.1-12l3.3-12.3l2.7-12l0.6-8.1l1.2-18l1.8-12C332.4,145.4,334.2,139.1,333.6,138.2z"/>
<path class="st6" d="M301.5,176.9l-3,2.1c0,0-4.5,0-7.5-0.6l-1.5-0.6h-0.3h0.3c1.8,0.6,3,0.6,3.9,0c4.2-1.5,3.6-8.1,3.6-9.6
	c0-0.3,0-0.3,0-0.3l0,0l0,0c0,0,0,0.3,0.3,0.3c0,0,0,0,0.3,0.3l0,0l1.5,3l0,0L301.5,176.9z"/>
<path class="st11" d="M311.7,157.4l-1.5,0.3l-0.3,2.7c0,0-1.5-0.3-2.1,1.8c-0.6,1.8-1.2,2.7-1.2,2.7s-2.7,2.4-3,4.2l-1.8,0.9
	c0,0-3.9-0.9-4.8-2.4c0,0,1.8,12.9-7.8,9.6c0,0,10.8,4.8,11.1,5.4c0.3,0.6,3.9,2.4,6.9,0.9c3-1.5,3.6-3.9,3.6-3.9s3-3.9,3-4.5
	c0-0.6,2.4-1.2,2.4-1.2l4.2-10.5L311.7,157.4z"/>
<path class="st6" d="M346.5,143.3l1.5-6.6c0,0,0.6,2.1,1.2,2.7l2.1,1.5c0,0,2.1,0.9,3,0.9s4.8,0.9,5.4,1.5c0.6,0.6,2.4,0.3,2.4,0.3
	s1.5,0.6,3,0.9c1.5,0.3,2.1,2.7,1.8,3.6c-0.3,0.9,0,2.1,0.6,2.7c0.6,0.6,0.9,2.4,0.9,2.4c0.6,0.3,1.2,0.9,1.8,1.5
	c0.6,1.2,0.3,3.6,0.3,3.6l-7.5,10.5c0,0,0,3.9-0.3,4.8s0.9,16.2,0.9,16.2l1.5,26.1c0,0-2.1,1.8-2.4,1.8c-0.3,0.3-0.9-9.3-0.9-9.6
	c0-0.3-11.4-17.4-11.4-17.4s-1.5-2.4-1.5-3s-1.5-5.7-1.5-5.7l-2.1-9.6L346.5,143.3z"/>
<path class="st11" d="M371.4,157.7c0,0.3,0,0.6,0,0.6l-7.5,10.5l0,0c0,0,0,3.9-0.3,4.8c-0.3,0.6,0.3,6,0.6,10.2c0.3,3.3,0.6,6,0.6,6
	l0.6,11.1l0.9,15c0,0-2.1,1.8-2.4,1.8c-0.3,0.3-0.9-9.3-0.9-9.6c0-0.3-11.4-17.1-11.4-17.1s-1.5-2.4-1.5-3c0-0.6-1.5-5.7-1.5-5.7
	l-2.1-9.6l0.9-29.7l0.9-6.6c0,0,1.2,2.1,1.8,2.7c0.6,0.6,2.1,1.5,2.1,1.5s2.1,0.9,3,0.9c0.6,0,4.8,0.9,5.4,1.5
	c0.6,0.6,2.4,0.3,2.4,0.3s1.5,0.6,3,0.9c1.5,0.3,2.1,2.7,1.8,3.6c-0.3,0.9,0,2.1,0.6,2.7c0.6,0.6,0.9,2.4,0.9,2.4
	c0.6,0.3,1.2,0.9,1.8,1.5C371.4,155.6,371.4,157.1,371.4,157.7z"/>
<path class="st6" d="M310.5,290.6c0.3,0,10.8,0.3,10.5,2.1C320.7,294.5,310.5,290.6,310.5,290.6z"/>
<path class="st6" d="M312.9,293.6c0,0,6.9,1.2,5.1,2.1C316.2,296.6,312.9,293.6,312.9,293.6z"/>
<path class="st6" d="M339,289.7c0,0,11.7,0.9,9.9,2.4c-1.8,1.2-6,1.5-6,1.5C342.6,293.6,339,289.7,339,289.7z"/>
<path class="st6" d="M337.5,294.8c0,0,6.6,1.2,6.6,2.4S337.5,294.8,337.5,294.8z"/>
<path class="st6" d="M341.1,264.8c0,0,6,1.5,6.3,2.4L341.1,264.8z"/>
<path class="st6" d="M318.3,269c0,0-3,0.9,0,2.7C321,273.5,318.3,269,318.3,269z"/>
<path class="st6" d="M331.8,221c0.3,0,5.7-1.8,7.8-0.9c1.5,0.6,2.7,0.9,4.2,0.9H331.8z"/>
<path class="st6" d="M332.7,226.7v0.6l-4.5,12.3c0,0-0.6,3.6-1.5,5.7c-0.3,1.5-0.6,3-0.9,4.2L330,224L332.7,226.7z"/>
<path class="st16" d="M339.9,205.4h-1.8l0,0l-1.2-5.1h1.8L339.9,205.4z"/>
<path class="st14" d="M363.3,199.1l-1.2,0.9l-4.2,3.3c0,0-11.1,6-14.4,0.3c-2.7-5.1,9.9-8.7,13.2-9.3l0.6-0.3L363.3,199.1z"/>
<path class="st6" d="M315.6,150.2c0,0,2.1,0.9,2.7,2.4C318.6,153.8,315.6,150.2,315.6,150.2z"/>
<path class="st6" d="M308.7,165.2c0,0-3.3,3.9-1.8,5.4C308.4,172.1,308.7,165.2,308.7,165.2z"/>
<path class="st6" d="M365.7,152.3c0,0-3,0.3-3,3L365.7,152.3z"/>
<path class="st6" d="M338.1,193.1c0.3-0.3,7.2-10.5,8.7-9.6L338.1,193.1z"/>
<path class="st6" d="M351,127.1c0,2.1-0.6,3.9-1.5,5.7l0,0c-0.6-0.3-1.2-0.9-1.8-1.5c-0.6-0.6-1.8-0.9-2.7-0.3
	c-0.9,0.6-1.5,1.5-1.2,2.7c-0.3-1.5-0.3-3.3-0.6-4.8c-0.3-1.5-1.5-3.3-3-3.3c-0.6,0-1.5,0.3-1.8-0.3c-0.3-0.3-0.3-0.9-0.6-1.2
	c-1.2-1.8-4.5-0.9-5.7,0c-1.5,0.9-3,2.4-4.5,3c0.3-6.6,5.7-11.7,12-11.7C345.6,115.4,350.7,120.8,351,127.1L351,127.1z"/>
<path class="st16" d="M337.5,123.5c0.3,0.3,0.3,0.9,0.6,1.2c0.6,0.6,1.2,0.3,1.8,0.3c1.5,0,2.7,1.5,3,3.3c0.3,1.5,0.3,3.3,0.6,4.8
	c0-0.9,0.3-2.1,1.2-2.7c0.9-0.6,2.1-0.3,2.7,0.3c0.6,0.6,0.9,1.5,1.8,1.5c0.9,0.3,1.5-0.6,1.8-1.5c0.3-0.9,0.3-1.8,0.3-2.4
	c0.3-1.5,1.5-2.7,1.8-4.2c0.6-1.8,0.6-3.9,0-5.7c-0.3-0.9-0.9-1.8-1.2-2.7c-0.6-1.5-0.6-3-1.5-4.5c-1.2-2.4-3.9-3.3-6.3-2.4
	c-1.2,0.3-2.1,1.2-3,1.5c-1.5,0.6-3,0-4.5,0c-1.5-0.3-3.3-0.3-4.5,0.9c-1.5,1.2-1.8,3.3-3,4.5c-0.6,0.6-1.2,0.9-1.8,1.5
	c-0.6,0.6-1.2,1.2-0.9,2.1c0,0.9,1.2,2.1,0.6,3c0,0.3-0.3,0.6-0.6,0.6c-1.2,1.2-1.8,2.7-2.4,4.2c2.7,0.9,5.4-2.1,7.5-3.6
	C333,122.6,336.3,121.7,337.5,123.5z"/>
<path class="st6" d="M363.3,199.1l-1.2,0.9c-1.2-1.8-5.7-5.4-5.7-5.4l0.3-0.3l0.6-0.3L363.3,199.1z"/>
<path class="st15" d="M364.5,197.3c0,0-0.3,1.2-0.9,2.1c-0.6,0.9-0.9,1.8-0.9,1.2c0-1.5-5.7-6-5.7-6l0.9-0.9l0.9-0.9L364.5,197.3z"
	/>
<path class="st6" d="M364.8,189.8l0.6,11.1c-1.5-2.4-5.7-8.7-8.4-8.4l6.6-7.5c0.3-0.3,0.6-0.6,0.9-0.9
	C364.5,187.4,364.8,189.8,364.8,189.8z"/>
<path class="st6" d="M364.5,197.3c0,0-0.3,1.2-0.9,2.1c-1.8-2.4-4.2-5.1-6-5.7l0.9-0.9L364.5,197.3z"/>
<path class="st11" d="M369.6,157.1l1.8,1.5c0,0,3,0,3.3,2.4c0.3,2.4,3,3.6,3,3.6s2.1,2.1,2.1,3s1.5,2.7,1.5,2.7s1.5,3.3,1.2,3.6
	c-0.3,0.6,1.5,3,0.9,3.9c-0.6,0.9-0.9,1.5-1.2,2.4c0,0-2.4,4.5-3.6,5.4c-1.2,0.9-6.6,8.1-6.6,8.1s-6,6.9-6,9c0,0-5.7-9.6-9-9.3
	l6.6-7.5c0,0,1.2-1.2,1.2-2.1c0-0.6,3.3-4.2,4.8-4.2c0,0,0.3-2.1-0.3-2.1c-0.6,0-1.2-1.5-1.2-1.5s-4.5-5.1-4.5-8.4
	C363.6,163.7,369.6,157.1,369.6,157.1z"/>
<path class="st6" d="M372.3,161.6c0,0-4.2,3-3.3,4.2C369.9,166.7,372.3,161.6,372.3,161.6z"/>
<path class="st6" d="M372.3,174.5c0,0,7.8-2.4,8.7,0H372.3z"/>
<path class="st6" d="M324.3,306.8c0,0-4.2,2.7-6.3,2.4c-2.1-0.3-4.2,0.6-4.2,0.6c-1.5,1.5-3.3,2.7-5.4,3.3
	c-3.3,1.2-8.1,0.6-10.8-0.3c-1.2-0.3-1.5-0.9-0.9-1.5c3,0.6,9.6,1.8,11.1,0.9c2.4-1.2,5.7-3.6,5.7-3.6s4.2-0.6,4.8-0.6
	c0.3,0,3.6-1.5,5.7-2.1L324.3,306.8z"/>
<path class="st6" d="M349.5,312.5C349.5,312.8,349.5,312.8,349.5,312.5c0,0.3-0.9,2.4-6.6,3.3s-5.4-1.8-5.4-1.8s0-0.3,0-0.6
	C339.3,314,343.2,314.6,349.5,312.5z"/>
<path class="st6" d="M317.4,161c0,0,0,11.4-0.9,12.6S317.4,161,317.4,161z"/>
<path class="st6" d="M362.4,164.9l1.5,4.2C363.9,168.8,364.5,164.9,362.4,164.9z"/>
<g class="st18">
	<path d="M327.3,121.1c0.3-0.9-0.6-1.8-0.6-3c0,0.3-0.3,0.6-0.3,0.9C326.4,119.9,327,120.8,327.3,121.1
		C327.3,121.4,327.3,121.4,327.3,121.1z"/>
	<path d="M343.8,131.9c-0.3-1.5-0.3-3.3-0.6-4.8c-0.3-1.5-1.5-3.3-3-3.3c-0.6,0-1.5,0.3-1.8-0.3c-0.3-0.3-0.3-0.9-0.6-1.2
		c-1.2-1.8-4.5-0.9-5.7,0c-2.1,1.5-4.8,4.2-7.5,3.6c0,0.3-0.3,0.6-0.3,0.9c2.7,0.9,5.4-2.1,7.5-3.6c1.5-0.9,4.8-1.8,5.7,0
		c0.3,0.3,0.3,0.9,0.6,1.2c0.6,0.6,1.2,0.3,1.8,0.3c1.5,0,2.7,1.5,3,3.3c0.3,1.5,0.3,3.3,0.6,4.8
		C343.5,132.8,343.8,132.2,343.8,131.9z"/>
	<path d="M351.3,130.1c-0.3,0.9-0.9,1.5-1.8,1.5c-0.9-0.3-1.2-0.9-1.8-1.5c-0.6-0.6-1.8-0.9-2.7-0.3c-0.9,0.6-1.5,1.5-1.2,2.4
		c0.3-0.6,0.6-1.2,1.2-1.5c0.9-0.6,2.1-0.3,2.7,0.3c0.6,0.6,0.9,1.5,1.8,1.5c0.9,0.3,1.5-0.6,1.8-1.5c0-0.6,0.3-0.9,0.3-1.5
		C351.3,129.8,351.3,129.8,351.3,130.1z"/>
	<path d="M353.7,123.2c-0.6,1.5-1.5,2.7-1.8,4.2c0,0.3,0,0.6,0,0.9c0.3-1.5,1.2-2.7,1.8-4.2c0.3-0.6,0.3-1.5,0.6-2.1
		C353.7,122.6,353.7,122.9,353.7,123.2z"/>
</g>
<ellipse transform="matrix(0.1602 -0.9871 0.9871 0.1602 14.4987 318.0723)" class="st19" cx="194.2" cy="150.5" rx="6.9" ry="6.9"/>
<g>
	<polygon class="st20" points="207.7,96.5 147.7,204.8 267.3,204.8 	"/>
	<polygon class="st9" points="207.7,104.9 154.9,200.9 260.1,200.9 	"/>
	
		<linearGradient id="SVGID_2_" gradientUnits="userSpaceOnUse" x1="207.6686" y1="-1186.1622" x2="207.6686" y2="-1173.2819" gradientTransform="matrix(1 0 0 -1 0 -988.8935)">
		<stop  offset="0" style="stop-color:#808080;stop-opacity:0.25"/>
		<stop  offset="0.54" style="stop-color:#808080;stop-opacity:0.12"/>
		<stop  offset="1" style="stop-color:#808080;stop-opacity:0.1"/>
	</linearGradient>
	<circle class="st21" cx="207.7" cy="191" r="6.6"/>
	<circle class="st20" cx="207.7" cy="191" r="5.4"/>
	
		<linearGradient id="SVGID_3_" gradientUnits="userSpaceOnUse" x1="207.6686" y1="-1169.3129" x2="207.6686" y2="-1131.0886" gradientTransform="matrix(1 0 0 -1 0 -988.8935)">
		<stop  offset="0" style="stop-color:#808080;stop-opacity:0.25"/>
		<stop  offset="0.54" style="stop-color:#808080;stop-opacity:0.12"/>
		<stop  offset="1" style="stop-color:#808080;stop-opacity:0.1"/>
	</linearGradient>
	<rect x="205.9" y="142.1" class="st22" width="3.6" height="38.1"/>
	<rect x="206.5" y="142.4" class="st20" width="2.1" height="37.2"/>
</g>
</svg>
