<?xml version="1.0" encoding="utf-8"?>
<!-- Generator: Adobe Illustrator 23.0.1, SVG Export Plug-In . SVG Version: 6.00 Build 0)  -->
<svg version="1.1" id="cb7db7bb-371f-430c-ab8e-9f8547f8cfe6"
	 xmlns="http://www.w3.org/2000/svg" xmlns:xlink="http://www.w3.org/1999/xlink" x="0px" y="0px" viewBox="0 0 1130 868.1"
	 style="enable-background:new 0 0 1130 868.1;" xml:space="preserve">
<style type="text/css">
	.st0{fill:#F3FBFE;}
	.st1{fill:#E0E0E0;}
	.st2{fill:url(#SVGID_1_);}
	.st3{fill:#F5F5F5;}
	.st4{fill:url(#SVGID_2_);}
	.st5{fill:#FFFFFF;}
	.st6{fill:#3C6FE9;}
	.st7{fill:#FF5252;}
	.st8{fill:#FFFF00;}
	.st9{fill:#69F0AE;}
	.st10{fill:url(#SVGID_3_);}
	.st11{fill:url(#SVGID_4_);}
	.st12{fill:url(#SVGID_5_);}
	.st13{fill:url(#SVGID_6_);}
	.st14{fill:#DBDBDB;}
	.st15{fill:url(#SVGID_7_);}
	.st16{fill:url(#SVGID_8_);}
	.st17{fill:url(#SVGID_9_);}
</style>
<title>dashboard</title>
<path class="st0" d="M1108.1,197.7c-11.5-22.4-26.7-42.8-44.8-60.4l-621.9-5.2l512-60.8c-33.5-11.2-68.6-17.1-103.9-17.4
	C800.3,20.2,736.9,0,667.8,0c-62,0-119.3,16.3-166.1,43.9c-39.7-17.3-85-27.1-133.1-27.1C230.4,16.8,115.3,97.7,89.5,205
	L1108.1,197.7z"/>
<path class="st0" d="M1130,287.6c0-29.4-6.7-58.4-19.4-84.9L32.9,298.4c-11,16.6-19.5,34.8-25.3,53.9l333.8,42.1L0,425
	c10.3,121.5,133.4,217.4,283.9,217.4c75.7,0,144.5-24.3,195.5-63.9c51.2,40.4,120.6,65.2,197.2,65.2c113.6,0,211.6-54.7,257.2-133.7
	c91.6-24.6,162.7-86.3,187.1-163.5l-422.1-55.3H1130C1130,289.9,1130,288.8,1130,287.6z"/>
<path class="st1" d="M591.1,570.7c0,0,15.7,106.2,108.5,141.6h-376c92.8-35.4,108.5-141.6,108.5-141.6H591.1z"/>
<linearGradient id="SVGID_1_" gradientUnits="userSpaceOnUse" x1="511.5377" y1="133.2609" x2="511.5377" y2="155.6923" gradientTransform="matrix(1 0 0 -1 0 868)">
	<stop  offset="0" style="stop-color:#808080;stop-opacity:0.25"/>
	<stop  offset="0.54" style="stop-color:#808080;stop-opacity:0.12"/>
	<stop  offset="1" style="stop-color:#808080;stop-opacity:0.1"/>
</linearGradient>
<rect x="321.8" y="712.3" class="st2" width="379.5" height="22.4"/>
<rect x="323.7" y="712.3" class="st3" width="376" height="17.3"/>
<linearGradient id="SVGID_2_" gradientUnits="userSpaceOnUse" x1="620.5864" y1="183.6187" x2="620.5864" y2="600.9113" gradientTransform="matrix(1 0 0 -1 -108.19 790.85)">
	<stop  offset="0" style="stop-color:#808080;stop-opacity:0.25"/>
	<stop  offset="0.54" style="stop-color:#808080;stop-opacity:0.12"/>
	<stop  offset="1" style="stop-color:#808080;stop-opacity:0.1"/>
</linearGradient>
<path class="st4" d="M822,189.9H202.8c-4.6,0-8.3,3.8-8.3,8.5v393.1c-0.1,8.6,6.8,15.7,15.5,15.8c0,0,0,0,0,0h604.8
	c8.6-0.1,15.5-7.1,15.5-15.7c0,0,0,0,0,0V198.4C830.3,193.8,826.6,190,822,189.9z"/>
<path class="st3" d="M822,542.4H201.3V207.2c0-4.5,3.6-8.1,8.1-8.1c0,0,0,0,0,0h604.4c4.5,0,8.1,3.6,8.1,8.1V542.4z"/>
<path class="st5" d="M806.9,599H216.4c-8.3,0-15.1-6.7-15.1-15.1v-41.6H822v41.5C822,592.3,815.3,599,806.9,599
	C806.9,599,806.9,599,806.9,599z"/>
<rect x="232.8" y="241.7" class="st6" width="561.6" height="262.3"/>
<rect x="232" y="226.9" class="st1" width="562.4" height="23.1"/>
<circle class="st7" cx="244.3" cy="238.7" r="6.8"/>
<circle class="st8" cx="260.1" cy="238.7" r="6.8"/>
<circle class="st9" cx="275.9" cy="238.7" r="6.8"/>
<linearGradient id="SVGID_3_" gradientUnits="userSpaceOnUse" x1="506.3817" y1="412.8846" x2="506.3817" y2="596.8399" gradientTransform="matrix(1 0 0 -1 0 868)">
	<stop  offset="0" style="stop-color:#000000;stop-opacity:0.12"/>
	<stop  offset="0.55" style="stop-color:#000000;stop-opacity:9.000000e-02"/>
	<stop  offset="1" style="stop-color:#000000;stop-opacity:2.000000e-02"/>
</linearGradient>
<polygon class="st10" points="506.4,271.2 404.7,455.1 608.1,455.1 "/>
<polygon class="st5" points="506.4,285.3 417,448 595.8,448 "/>
<linearGradient id="SVGID_4_" gradientUnits="userSpaceOnUse" x1="506.3817" y1="425.9985" x2="506.3817" y2="447.8423" gradientTransform="matrix(1 0 0 -1 0 868)">
	<stop  offset="0" style="stop-color:#808080;stop-opacity:0.25"/>
	<stop  offset="0.54" style="stop-color:#808080;stop-opacity:0.12"/>
	<stop  offset="1" style="stop-color:#808080;stop-opacity:0.1"/>
</linearGradient>
<circle class="st11" cx="506.4" cy="431.1" r="10.9"/>
<circle class="st6" cx="506.4" cy="431.1" r="9"/>
<linearGradient id="SVGID_5_" gradientUnits="userSpaceOnUse" x1="506.3817" y1="454.6214" x2="506.3817" y2="519.3997" gradientTransform="matrix(1 0 0 -1 0 868)">
	<stop  offset="0" style="stop-color:#808080;stop-opacity:0.25"/>
	<stop  offset="0.54" style="stop-color:#808080;stop-opacity:0.12"/>
	<stop  offset="1" style="stop-color:#808080;stop-opacity:0.1"/>
</linearGradient>
<rect x="503.4" y="348.6" class="st12" width="6" height="64.8"/>
<rect x="504.5" y="349" class="st6" width="3.8" height="63.3"/>
<linearGradient id="SVGID_6_" gradientUnits="userSpaceOnUse" x1="949.4858" y1="36.0685" x2="949.4858" y2="365.5791" gradientTransform="matrix(1 -1.396263e-03 -1.438151e-03 -1.03 -108.15 792.2737)">
	<stop  offset="1.000000e-02" style="stop-color:#808080;stop-opacity:0.25"/>
	<stop  offset="0.54" style="stop-color:#808080;stop-opacity:0.12"/>
	<stop  offset="1" style="stop-color:#808080;stop-opacity:0.1"/>
</linearGradient>
<path class="st13" d="M754.1,413.4l173.3-0.2c4.2,0,7.5,3.4,7.5,7.5l0.5,323.1c0,4.2-3.4,7.5-7.5,7.5l-173.3,0.2
	c-4.2,0-7.5-3.4-7.5-7.5L746.6,421C746.6,416.8,750,413.4,754.1,413.4z"/>
<path class="st5" d="M758.5,416.9l164.7-0.2c4.2,0,7.5,3.4,7.5,7.5l0.4,306.7c0,4.2-3.4,7.5-7.5,7.5l-164.7,0.2
	c-4.2,0-7.5-3.4-7.5-7.5L751,424.5C751,420.3,754.3,416.9,758.5,416.9z"/>
<rect x="771.5" y="439.6" transform="matrix(1 -1.396262e-03 1.396262e-03 1 -0.7957 1.1749)" class="st6" width="139.1" height="261.8"/>
<circle class="st14" cx="841.2" cy="720.3" r="11.1"/>
<circle class="st14" cx="819.3" cy="428.4" r="2.2"/>
<path class="st14" d="M830.9,425.7l32.1,0c0.6,0,1.1,0.5,1.1,1.1l0,1.1c0,0.6-0.5,1.1-1.1,1.1l-32.1,0c-0.6,0-1.1-0.5-1.1-1.1l0-1.1
	C829.7,426.2,830.2,425.7,830.9,425.7z"/>
<linearGradient id="SVGID_7_" gradientUnits="userSpaceOnUse" x1="841.0218" y1="286.8984" x2="841.0218" y2="376.1267" gradientTransform="matrix(1 0 0 -1 0 868)">
	<stop  offset="0" style="stop-color:#000000;stop-opacity:0.12"/>
	<stop  offset="0.55" style="stop-color:#000000;stop-opacity:9.000000e-02"/>
	<stop  offset="1" style="stop-color:#000000;stop-opacity:2.000000e-02"/>
</linearGradient>
<polygon class="st15" points="841,491.9 791.7,581.1 890.3,581.1 "/>
<polygon class="st5" points="841,498.7 797.7,577.7 884.4,577.7 "/>
<linearGradient id="SVGID_8_" gradientUnits="userSpaceOnUse" x1="841.0219" y1="293.2633" x2="841.0219" y2="303.8538" gradientTransform="matrix(1 0 0 -1 0 868)">
	<stop  offset="0" style="stop-color:#808080;stop-opacity:0.25"/>
	<stop  offset="0.54" style="stop-color:#808080;stop-opacity:0.12"/>
	<stop  offset="1" style="stop-color:#808080;stop-opacity:0.1"/>
</linearGradient>
<circle class="st16" cx="841" cy="569.4" r="5.3"/>
<circle class="st6" cx="841" cy="569.4" r="4.4"/>
<linearGradient id="SVGID_9_" gradientUnits="userSpaceOnUse" x1="841.0219" y1="307.1454" x2="841.0219" y2="338.5629" gradientTransform="matrix(1 0 0 -1 0 868)">
	<stop  offset="0" style="stop-color:#808080;stop-opacity:0.25"/>
	<stop  offset="0.54" style="stop-color:#808080;stop-opacity:0.12"/>
	<stop  offset="1" style="stop-color:#808080;stop-opacity:0.1"/>
</linearGradient>
<rect x="839.6" y="529.4" class="st17" width="2.9" height="31.4"/>
<rect x="840.1" y="529.6" class="st6" width="1.8" height="30.7"/>
</svg>
