<?xml version="1.0" encoding="utf-8"?>
<!-- Generator: Adobe Illustrator 23.0.2, SVG Export Plug-In . SVG Version: 6.00 Build 0)  -->
<svg version="1.1" id="e8f68bdd-4984-4f2e-95b7-7fc8ec281257"
	 xmlns="http://www.w3.org/2000/svg" xmlns:xlink="http://www.w3.org/1999/xlink" x="0px" y="0px" viewBox="0 0 283.5 236.3"
	 style="enable-background:new 0 0 283.5 236.3;" xml:space="preserve">
<style type="text/css">
	.st0{opacity:0.5;}
	.st1{fill:url(#SVGID_1_);}
	.st2{fill:#F2F2F2;}
	.st3{fill:#E0E0E0;}
	.st4{opacity:0.7;fill:#3C6FE9;enable-background:new    ;}
	.st5{fill:url(#SVGID_2_);}
	.st6{fill:#F5F5F5;}
	.st7{fill:url(#SVGID_3_);}
	.st8{fill:#FFFFFF;}
	.st9{clip-path:url(#SVGID_5_);}
	.st10{opacity:0.4;fill:#3C6FE9;enable-background:new    ;}
	.st11{fill:url(#SVGID_6_);}
	.st12{fill:url(#SVGID_7_);}
	.st13{clip-path:url(#SVGID_9_);}
	.st14{opacity:0.4;fill:#BDBDBD;enable-background:new    ;}
	.st15{fill:url(#SVGID_10_);}
	.st16{opacity:0.7;fill:#3AD29F;enable-background:new    ;}
	.st17{fill:url(#SVGID_11_);}
	.st18{fill:#3C6FE9;}
	.st19{fill:#3AD29F;}
	.st20{fill:#F55F44;}
	.st21{fill:#FDD835;}
	.st22{fill:#47E6B1;}
	.st23{opacity:0.5;fill:#4D8AF0;enable-background:new    ;}
	.st24{opacity:0.5;fill:#FDD835;enable-background:new    ;}
	.st25{opacity:0.5;fill:#F55F44;enable-background:new    ;}
	.st26{opacity:0.5;fill:#47E6B1;enable-background:new    ;}
	.st27{fill:url(#SVGID_12_);}
	.st28{fill:url(#SVGID_13_);}
	.st29{fill:url(#SVGID_14_);}
	.st30{opacity:0.2;enable-background:new    ;}
</style>
<title>secure data</title>
<g class="st0">
	
		<linearGradient id="SVGID_1_" gradientUnits="userSpaceOnUse" x1="122.7989" y1="-452.8998" x2="122.7989" y2="-258.043" gradientTransform="matrix(1 0 0 -1 0 -231.48)">
		<stop  offset="0" style="stop-color:#808080;stop-opacity:0.25"/>
		<stop  offset="0.54" style="stop-color:#808080;stop-opacity:0.12"/>
		<stop  offset="1" style="stop-color:#808080;stop-opacity:0.1"/>
	</linearGradient>
	<rect x="50.3" y="26.6" class="st1" width="145" height="194.9"/>
</g>
<rect x="52.2" y="29.2" class="st2" width="140.5" height="188.1"/>
<rect x="63.1" y="37.1" class="st3" width="48.3" height="1.5"/>
<rect x="63.1" y="43.9" class="st4" width="48.3" height="1.5"/>
<rect x="118.6" y="37.1" class="st3" width="48.3" height="1.5"/>
<rect x="126.2" y="80.2" class="st3" width="48.3" height="1.5"/>
<rect x="127.3" y="84.3" class="st3" width="48.3" height="1.5"/>
<rect x="129.6" y="88.5" class="st3" width="48.3" height="1.5"/>
<rect x="126.2" y="147" class="st3" width="48.3" height="1.5"/>
<rect x="127.3" y="151.2" class="st3" width="48.3" height="1.5"/>
<rect x="129.6" y="155.3" class="st3" width="48.3" height="1.5"/>
<g class="st0">
	
		<linearGradient id="SVGID_2_" gradientUnits="userSpaceOnUse" x1="89.1897" y1="-348.2963" x2="89.1897" y2="-296.1844" gradientTransform="matrix(1 0 0 -1 0 -231.48)">
		<stop  offset="0" style="stop-color:#808080;stop-opacity:0.25"/>
		<stop  offset="0.54" style="stop-color:#808080;stop-opacity:0.12"/>
		<stop  offset="1" style="stop-color:#808080;stop-opacity:0.1"/>
	</linearGradient>
	<rect x="63.5" y="64.7" class="st5" width="51.4" height="52.1"/>
</g>
<rect x="63.8" y="65.8" class="st6" width="50.5" height="49.8"/>
<g class="st0">
	
		<linearGradient id="SVGID_3_" gradientUnits="userSpaceOnUse" x1="89.1882" y1="-332.8131" x2="89.1882" y2="-300.337" gradientTransform="matrix(1 0 0 -1 0 -231.48)">
		<stop  offset="0" style="stop-color:#808080;stop-opacity:0.25"/>
		<stop  offset="0.54" style="stop-color:#808080;stop-opacity:0.12"/>
		<stop  offset="1" style="stop-color:#808080;stop-opacity:0.1"/>
	</linearGradient>
	<rect x="65.6" y="68.9" class="st7" width="47.1" height="32.5"/>
</g>
<rect x="65.9" y="69.2" class="st8" width="46.5" height="31.3"/>
<g>
	<defs>
		<rect id="SVGID_4_" x="65.9" y="69.2" width="46.5" height="31.3"/>
	</defs>
	<clipPath id="SVGID_5_">
		<use xlink:href="#SVGID_4_"  style="overflow:visible;"/>
	</clipPath>
	<g class="st9">
		<polygon class="st10" points="62,99.4 73.7,81.3 78.6,89.2 89.2,78.3 98.3,89.2 106.2,73 126.6,105.5 60.5,103.2 		"/>
		<circle class="st10" cx="71.1" cy="73.8" r="3.4"/>
	</g>
</g>
<g class="st0">
	
		<linearGradient id="SVGID_6_" gradientUnits="userSpaceOnUse" x1="89.1897" y1="-415.135" x2="89.1897" y2="-363.0231" gradientTransform="matrix(1 0 0 -1 0 -231.48)">
		<stop  offset="0" style="stop-color:#808080;stop-opacity:0.25"/>
		<stop  offset="0.54" style="stop-color:#808080;stop-opacity:0.12"/>
		<stop  offset="1" style="stop-color:#808080;stop-opacity:0.1"/>
	</linearGradient>
	<rect x="63.5" y="131.5" class="st11" width="51.4" height="52.1"/>
</g>
<rect x="63.8" y="132.7" class="st6" width="50.5" height="49.8"/>
<g class="st0">
	
		<linearGradient id="SVGID_7_" gradientUnits="userSpaceOnUse" x1="89.1882" y1="-399.6549" x2="89.1882" y2="-367.1787" gradientTransform="matrix(1 0 0 -1 0 -231.48)">
		<stop  offset="0" style="stop-color:#808080;stop-opacity:0.25"/>
		<stop  offset="0.54" style="stop-color:#808080;stop-opacity:0.12"/>
		<stop  offset="1" style="stop-color:#808080;stop-opacity:0.1"/>
	</linearGradient>
	<rect x="65.6" y="135.7" class="st12" width="47.1" height="32.5"/>
</g>
<rect id="b429ac3a-f8a8-4171-bcce-5b6c002c0714" x="65.9" y="136.1" class="st8" width="46.5" height="31.3"/>
<g>
	<defs>
		<rect id="SVGID_8_" x="65.9" y="136.1" width="46.5" height="31.3"/>
	</defs>
	<clipPath id="SVGID_9_">
		<use xlink:href="#SVGID_8_"  style="overflow:visible;"/>
	</clipPath>
	<g class="st13">
		<polygon class="st14" points="62,166.3 73.7,148.2 78.6,156.1 89.2,145.1 98.3,156.1 106.2,139.9 126.6,172.3 60.5,170.1 		"/>
		<circle class="st14" cx="71.1" cy="140.6" r="3.4"/>
	</g>
</g>
<g class="st0">
	
		<linearGradient id="SVGID_10_" gradientUnits="userSpaceOnUse" x1="365.1349" y1="-395.6664" x2="365.1349" y2="-200.8096" gradientTransform="matrix(0.9808 0.1949 0.1949 -0.9808 -138.3095 -237.0621)">
		<stop  offset="0" style="stop-color:#808080;stop-opacity:0.25"/>
		<stop  offset="0.54" style="stop-color:#808080;stop-opacity:0.12"/>
		<stop  offset="1" style="stop-color:#808080;stop-opacity:0.1"/>
	</linearGradient>
	<polygon class="st15" points="71.6,208.1 109.6,16.9 251.8,45.2 213.8,236.3 	"/>
</g>
<rect x="67.4" y="55.6" transform="matrix(0.1949 -0.9808 0.9808 0.1949 6.5919 259.6561)" class="st8" width="188.1" height="140.5"/>
<rect x="167.2" y="-9" transform="matrix(0.1949 -0.9808 0.9808 0.1949 95.1529 197.6363)" class="st3" width="1.5" height="99.7"/>
<rect x="139.4" y="131" transform="matrix(0.1949 -0.9808 0.9808 0.1949 -64.5726 283.0651)" class="st3" width="1.5" height="99.7"/>
<rect x="126.6" y="148.7" transform="matrix(0.1949 -0.9808 0.9808 0.1949 -81.0719 275.5877)" class="st3" width="1.5" height="77"/>
<rect x="101.2" y="176.6" transform="matrix(0.1949 -0.9808 0.9808 0.1949 -105.2508 253.744)" class="st4" width="1.5" height="28.7"/>
<rect x="141.1" y="19.6" transform="matrix(0.1949 -0.9808 0.9808 0.1949 70.5158 174.9511)" class="st4" width="1.5" height="49.8"/>
<rect x="159" y="12" transform="matrix(0.1949 -0.9808 0.9808 0.1949 72.7779 202.5437)" class="st3" width="1.5" height="89.9"/>
<rect x="124" y="47.9" transform="matrix(0.1949 -0.9808 0.9808 0.1949 42.7193 169.7138)" class="st16" width="1.5" height="21.9"/>
<rect x="160.4" y="25.1" transform="matrix(0.1949 -0.9808 0.9808 0.1949 56.2776 218.4299)" class="st3" width="1.5" height="99.7"/>
<g class="st0">
	
		<linearGradient id="SVGID_11_" gradientUnits="userSpaceOnUse" x1="364.9421" y1="-331.8555" x2="364.9421" y2="-280.4969" gradientTransform="matrix(0.9808 0.1949 0.1949 -0.9808 -138.3082 -237.0695)">
		<stop  offset="0" style="stop-color:#808080;stop-opacity:0.25"/>
		<stop  offset="0.54" style="stop-color:#808080;stop-opacity:0.12"/>
		<stop  offset="1" style="stop-color:#808080;stop-opacity:0.1"/>
	</linearGradient>
	<polygon class="st17" points="111.1,150.8 121.1,100.5 208.8,117.9 198.8,168.3 	"/>
</g>
<rect x="134.9" y="90" transform="matrix(0.1949 -0.9808 0.9808 0.1949 -2.7914 264.9694)" class="st8" width="50.2" height="88.4"/>
<rect x="158.7" y="33.6" transform="matrix(0.1949 -0.9808 0.9808 0.1949 46.5594 223.628)" class="st3" width="1.5" height="99.7"/>
<rect x="112.8" y="123" transform="matrix(0.1949 -0.9808 0.9808 0.1949 -20.4166 232.0102)" class="st18" width="36.6" height="11"/>
<rect x="136.9" y="132.7" transform="matrix(0.1949 -0.9808 0.9808 0.1949 -15.4283 257.5998)" class="st19" width="24.5" height="11"/>
<rect x="160.7" y="142.1" transform="matrix(0.1949 -0.9808 0.9808 0.1949 -10.0116 282.9597)" class="st20" width="13.2" height="11"/>
<rect x="174.5" y="139.3" transform="matrix(0.1949 -0.9808 0.9808 0.1949 9.3439 300.8649)" class="st21" width="26.8" height="11"/>
<g class="st0">
	<rect x="39.7" y="199.1" class="st22" width="1.1" height="6.4"/>
	<rect x="37.1" y="201.8" class="st22" width="6.4" height="1.1"/>
</g>
<path class="st23" d="M172.4,2.5c-0.6-0.3-1-1-0.8-1.7c0-0.1,0-0.1,0-0.2l0,0c0-0.4-0.3-0.7-0.7-0.7c-0.2,0-0.4,0.1-0.6,0.3l0,0
	c0,0-0.1,0.1-0.1,0.1c-0.3,0.6-1,1-1.7,0.8c-0.1,0-0.1,0-0.2,0l0,0c-0.4,0-0.7,0.3-0.7,0.7c0,0.2,0.1,0.4,0.3,0.6l0,0
	c0,0,0.1,0.1,0.1,0.1c0.6,0.3,1,1,0.8,1.7c0,0.1,0,0.1,0,0.2l0,0c0,0.4,0.3,0.7,0.7,0.7c0.2,0,0.4-0.1,0.6-0.3l0,0
	c0,0,0.1-0.1,0.1-0.1c0.3-0.6,1-1,1.7-0.8c0.1,0,0.1,0,0.2,0l0,0c0.4,0,0.7-0.3,0.7-0.7c0-0.2-0.1-0.4-0.3-0.6l0,0
	C172.5,2.6,172.5,2.6,172.4,2.5z"/>
<path class="st24" d="M44.9,34.6c-0.6-0.3-1-1-0.8-1.7c0-0.1,0-0.1,0-0.2l0,0c0-0.4-0.3-0.7-0.7-0.7c-0.2,0-0.4,0.1-0.6,0.3l0,0
	c0,0-0.1,0.1-0.1,0.1c-0.3,0.6-1,1-1.7,0.8c-0.1,0-0.1,0-0.2,0l0,0c-0.4,0-0.7,0.3-0.7,0.7c0,0.2,0.1,0.4,0.3,0.6l0,0
	c0,0,0.1,0.1,0.1,0.1c0.6,0.3,1,1,0.8,1.7c0,0.1,0,0.1,0,0.2l0,0c0,0.4,0.3,0.7,0.7,0.7c0.2,0,0.4-0.1,0.6-0.3l0,0
	c0,0,0.1-0.1,0.1-0.1c0.3-0.6,1-1,1.7-0.8c0.1,0,0.1,0,0.2,0l0,0c0.4,0,0.7-0.3,0.7-0.7c0-0.2-0.1-0.4-0.3-0.6l0,0
	C45,34.7,44.9,34.6,44.9,34.6z"/>
<path class="st24" d="M34.8,128.8c-0.6-0.3-1-1-0.8-1.7c0-0.1,0-0.1,0-0.2l0,0c0-0.4-0.3-0.7-0.7-0.7c-0.2,0-0.4,0.1-0.6,0.3l0,0
	c0,0-0.1,0.1-0.1,0.1c-0.3,0.6-1,1-1.7,0.8c-0.1,0-0.1,0-0.2,0l0,0c-0.4,0-0.7,0.3-0.7,0.7c0,0.2,0.1,0.4,0.3,0.6l0,0
	c0,0,0.1,0.1,0.1,0.1c0.6,0.3,1,1,0.8,1.7c0,0.1,0,0.1,0,0.2l0,0c0,0.4,0.3,0.7,0.7,0.7c0.2,0,0.4-0.1,0.6-0.3l0,0
	c0,0,0.1-0.1,0.1-0.1c0.3-0.6,1-1,1.7-0.8c0.1,0,0.1,0,0.2,0l0,0c0.4,0,0.7-0.3,0.7-0.7c0-0.2-0.1-0.4-0.3-0.6l0,0
	C34.9,128.8,34.8,128.8,34.8,128.8z"/>
<circle class="st25" cx="104.3" cy="8.8" r="2.3"/>
<circle class="st25" cx="2.3" cy="98" r="2.3"/>
<circle class="st25" cx="266.7" cy="37.1" r="2.3"/>
<circle class="st23" cx="253.8" cy="104.7" r="2.3"/>
<circle class="st26" cx="11.6" cy="44.8" r="2.3"/>
<circle class="st26" cx="263.4" cy="199.8" r="2.3"/>
<circle class="st26" cx="281.2" cy="133" r="2.3"/>
<linearGradient id="SVGID_12_" gradientUnits="userSpaceOnUse" x1="196.8698" y1="-464.283" x2="196.8698" y2="-417.0244" gradientTransform="matrix(1 0 0 -1 0 -231.48)">
	<stop  offset="0" style="stop-color:#808080;stop-opacity:0.25"/>
	<stop  offset="0.54" style="stop-color:#808080;stop-opacity:0.12"/>
	<stop  offset="1" style="stop-color:#808080;stop-opacity:0.1"/>
</linearGradient>
<rect x="168.1" y="185.5" class="st27" width="57.6" height="47.3"/>
<linearGradient id="SVGID_13_" gradientUnits="userSpaceOnUse" x1="337.7303" y1="-485.9926" x2="337.7303" y2="-453.657" gradientTransform="matrix(1 0 0 -1 -140.93 -298.71)">
	<stop  offset="0" style="stop-color:#808080;stop-opacity:0.25"/>
	<stop  offset="0.54" style="stop-color:#808080;stop-opacity:0.12"/>
	<stop  offset="1" style="stop-color:#808080;stop-opacity:0.1"/>
</linearGradient>
<path class="st28" d="M180,176.5c0-9.3,7.6-16.8,16.9-16.8c9.3,0,16.8,7.5,16.8,16.8v10.8h4.7v-10.8c0-11.9-9.7-21.6-21.6-21.6
	c-11.9,0-21.6,9.7-21.6,21.6l0,0v10.8h4.7L180,176.5z"/>
<path class="st6" d="M180.6,176.3c0-8.9,7.2-16.2,16.2-16.2c8.9,0,16.2,7.2,16.2,16.2c0,0,0,0,0,0v10.3h4.5v-10.3
	c0-11.4-9.3-20.7-20.7-20.7c-11.4,0-20.7,9.3-20.7,20.7v10.3h4.5V176.3z"/>
<rect x="168.7" y="186" class="st18" width="56.3" height="45.9"/>
<rect x="168.7" y="186" class="st6" width="56.3" height="45.9"/>
<rect x="168.7" y="195" class="st18" width="56.3" height="27.8"/>
<linearGradient id="SVGID_14_" gradientUnits="userSpaceOnUse" x1="337.7318" y1="-517.0115" x2="337.7318" y2="-498.254" gradientTransform="matrix(1 0 0 -1 -140.93 -298.71)">
	<stop  offset="0" style="stop-color:#808080;stop-opacity:0.25"/>
	<stop  offset="0.54" style="stop-color:#808080;stop-opacity:0.12"/>
	<stop  offset="1" style="stop-color:#808080;stop-opacity:0.1"/>
</linearGradient>
<path class="st29" d="M200.9,203.7c0-2.3-1.8-4.1-4.1-4.1c-2.3,0-4.1,1.8-4.1,4.1c0,1.1,0.4,2.1,1.1,2.8v8.8c0,1.7,1.3,3,3,3
	c1.7,0,3-1.3,3-3v-8.8C200.5,205.7,200.9,204.7,200.9,203.7z"/>
<path class="st30" d="M200.4,204.4c0-2-1.6-3.6-3.6-3.6c-2,0-3.6,1.6-3.6,3.6c0,0.9,0.3,1.8,1,2.4v7.6c0,1.4,1.2,2.6,2.6,2.6
	s2.6-1.2,2.6-2.6v-7.6C200,206.2,200.4,205.3,200.4,204.4z"/>
</svg>
