<svg version="1.1" id="ebf8a77a-edff-4dc3-b5b4-de0e5991af45" xmlns="http://www.w3.org/2000/svg" x="0" y="0" viewBox="0 0 425.2 322.4" xml:space="preserve"><style>.st0{fill:#3c6fe9}.st1{fill:#444053}.st2{fill:none;stroke:#444053;stroke-width:.3891;stroke-miterlimit:10}.st5{opacity:.1;fill:#3c6fe9;enable-background:new}.st7{fill:#fff}.st9{fill:#5a5773}.st10{opacity:.2;fill:none;stroke:#5a5773;stroke-width:.3891;stroke-miterlimit:10}.st10,.st11,.st13{enable-background:new}.st11{stroke:#5a5773;stroke-width:.3891;stroke-miterlimit:10;stroke-dasharray:4.6692;opacity:.2;fill:none}.st13{opacity:.5;fill:#3c6fe9}.st16{fill:#2d293d}.st17{opacity:.1;enable-background:new}.st18{fill:#575988}.st19{opacity:5.000000e-02;enable-background:new}.st21{fill:#ffcdd3}.st22{fill:#dce6f2}.st23{fill:#656691}.st25{fill:#ffd037}</style><path class="st0" d="M83.3 5.6s-1.5 5.7 8.8 21.9 9.5 18.5 8.9 23.1-.6 7.2-6.5 12.8c0 0-17.8 5.9-20.2 9.5-2.4 3.7 3.9 16.9 3.9 16.9s6.1 16.1-15.7 22.3c0 0-17.1 0-21.8 3.8 0 0 1.8-6.5-3.9-16.2s2.2-19 2.2-19 6.3-3.5 10.3-3.7c4-.3 5.3-2.1 2.7-6.7 0 0-3.7-1.9-8.9 2.2-5.2 4.2-9 7.1-13.5 6.8s-10.9-2.2-15.1-10.6S8 48.6 4.9 43.2 0 36.7 0 36.7s4 3 17.8-7.2 21-5.9 21-5.9 11.1 3 12.8 22.5c0 0 3.2 18.6 9.8 7.3 0 0-2.2-6.3-6.6-15.7s7.4-18.1 16.1-21.1 12.4-11 12.4-11z"/><path class="st1" d="M12.1 40.8c2.7-1.2 15.2 5.6 25.3 11.5l-.1.1C23.1 44 14.2 39.9 12.1 40.8z"/><path class="st1" d="M37.1 52.2c8.1 4.6 17.7 10.6 25 15.5.7.5 1.4.9 2.1 1.4l-.1.2c-.7-.4-1.4-.9-2.1-1.4-7.3-4.8-16.9-10.9-24.9-15.7z"/><path class="st1" d="M63.9 69.2l.2-.1c14.5 8.7 34.8 6.6 35 6.6l-2.2 2.5c-.3 0-18.5-.3-33-9z"/><path class="st2" d="M77.9 18.6s-4.7 13.2-1.1 22.5-3.9 32.3-3.9 32.3-2.5 9.7-6.5 12.1c0 0-5.8 7.2-9.2 8s-11.2 8.1-11 12.2m38.1-86.1S81 26.4 76 26.3m15 2.1s-2 9.3-14.5 11.9m19.7 1.9s-5.9 9.4-18.6 8.3m17.5 9.4S84 67.2 75.6 63.2m-5.5-43.6s2.9 6.1 6.1 4.3m-16.7 5s3.9 8.2 16.1 6.8m-17.3 5.5s10.7 6.5 19.4 4.7m-13.8 8.5s8.5 6.8 12.5 5.2m-14.5-.2s2.3 7.1 0 8.4m-7.5 2.3s4.4-4.3 3.2-5.1M46.4 34s3.8 18.2-1.1 23.1M30.4 77.3s17.3-11.1 18.8-17.7m-28.8 9.8s16.3-7.6 20.7-14.9"/><path d="M31.3 28.2s7.9 13.1 3 22.3m-19.2 7s12.1-4.9 14.5-9.6m-12-15.7s4 7.4 2.2 10.7" stroke-width=".292" fill="none" stroke="#444053" stroke-miterlimit="10"/><path class="st2" d="M59.4 76.2s10.9-1.5 12.1 1.4m5.3 21s-.6-11.9-7.4-16.5M47 81s11.4 1.4 15.5 8.8m3.7 17.4s1.8-8.7-6.6-14.9m-20.9-.7s9.5-.5 14.6 4m-1.5 13.2s-.9-6.9-3.4-8.2"/><path d="M198.9 79.1c-21.4 10.7-44.7 15.4-67.5 19s-45.7 6.4-68.2 13.9c-14.4 4.9-29.7 12.7-36.8 24.9-6.9 11.7-4.3 24.2-.7 35.1 2.7 8.2 6.2 16.5 13.7 21.5 5.2 3.5 11.9 5.1 17.6 8.1 19.7 10.3 22.8 34.4 19.7 56.6-1.5 10.4-4 21-4 31.2s3 20.3 11.1 26.4c8 6 20.1 7.2 31.9 6.2 24-1.9 48.2-11.9 71.2-22.6 50.9-23.7 99.7-51.9 148.4-80.1 18-10.4 36.1-20.9 52.7-33.2 9.2-6.9 18.3-14.7 22.5-24.2 5.4-12 1.3-25-9.6-30.4-18.3-9-48.9 2.9-64.6-8.9-8.7-6.5-9.8-18.4-8.4-29.5 3-24 15.6-50.4 6-70.6-6.6-13.9-23.9-22-42.9-20-20 2.2-42 15.2-47.9 32.8-6.1 18.1-25.3 34.3-44.2 43.8z" opacity=".1" fill="#89daf8"/><ellipse class="st5" cx="250.1" cy="298.5" rx="39" ry="9.6"/><linearGradient id="SVGID_1_" gradientUnits="userSpaceOnUse" x1="237.35" y1="733.631" x2="237.35" y2="524.131" gradientTransform="translate(0 -469.031)"><stop offset="0" stop-color="gray" stop-opacity=".25"/><stop offset=".54" stop-color="gray" stop-opacity=".12"/><stop offset="1" stop-color="gray" stop-opacity=".1"/></linearGradient><path d="M57.3 55.1h360.1c2.7 0 4.9 2.2 4.9 4.9v199.7c0 2.7-2.2 4.9-4.9 4.9H57.3c-2.7 0-4.9-2.2-4.9-4.9V60c0-2.7 2.2-4.9 4.9-4.9z" fill="url(#SVGID_1_)"/><path class="st7" d="M57.8 58h358.9c2.7 0 4.9 2.2 4.9 4.9V259c0 2.7-2.2 4.9-4.9 4.9H57.8c-2.7 0-4.9-2.2-4.9-4.9V62.9c.1-2.7 2.3-4.9 4.9-4.9z"/><path class="st7" d="M57.8 58h358.9c2.7 0 4.9 2.2 4.9 4.9V259c0 2.7-2.2 4.9-4.9 4.9H57.8c-2.7 0-4.9-2.2-4.9-4.9V62.9c.1-2.7 2.3-4.9 4.9-4.9z"/><path d="M57.8 58h358.9c2.7 0 4.9 2.2 4.9 4.9V259c0 2.7-2.2 4.9-4.9 4.9H57.8c-2.7 0-4.9-2.2-4.9-4.9V62.9c.1-2.7 2.3-4.9 4.9-4.9z" opacity=".04" fill="#5a5773"/><path class="st9" d="M419.8 55.7H54.9c-1 0-1.9.8-1.9 1.9v7.9h368.6v-7.9c0-1.1-.8-1.9-1.8-1.9z"/><circle class="st7" cx="60.3" cy="60.6" r="2.5"/><circle class="st7" cx="67.2" cy="60.6" r="2.5"/><circle class="st7" cx="74" cy="60.6" r="2.5"/><path class="st5" d="M81.6 111h299.5c2.2 0 4 1.8 4 4v110.4c0 2.2-1.8 4-4 4H81.6c-2.2 0-4-1.8-4-4V115c.1-2.2 1.8-4 4-4z"/><path class="st7" d="M89.1 99.6l299.4 7.6c2.2.1 3.9 1.9 3.9 4.1l-2.8 110.3c-.1 2.2-1.9 3.9-4.1 3.9l-299.4-7.6c-2.2-.1-3.9-1.9-3.9-4.1L85 103.5c.1-2.3 1.9-4 4.1-3.9z"/><path class="st10" d="M131.1 124.6l214.2 5.4m-214.6 11.3l214.1 5.4M130.3 158l214.1 5.5m-214.5 11.3l214.1 5.4"/><path class="st11" d="M149.3 170.7l-.5 21.3"/><path class="st10" d="M129.4 191.5l214.2 5.4"/><path class="st11" d="M173 192.6l.8-31.7"/><path d="M314.7 158.4c-3.8.3-7.5-1.8-9.8-4.1-2.4-2.3-4.1-5.2-5.7-8-.5-.9-1.1-1.8-1.6-2.7-2.9-4.6-5.8-7.7-9.1-9.7-1.2-.7-2.5-1.3-3.9-1.8-.1.3-.3.6-.5.8-.5.5-1.2.8-1.9.8h-.1c-1.3 0-2.4-1-2.6-2.4-1.2.1-2.4.3-3.6.7-3.4 1.3-6 4-8.3 6.7-2.8 3.3-5.6 6.7-8.1 10.2-.5.7-1 1.4-1.6 2.1-2.8 3.9-5.6 7.9-9.3 11-5 4.2-11 6-16 4.9-6.1-1.4-10.4-6.8-13.5-11.3l-1.2-1.8c-2.9-4.3-5.9-8.7-10.3-11.3-5.8-3.4-13.8-2.8-19.1 1.4-2.6 2.1-4.5 4.8-6.3 7.5-.6.9-1.3 1.9-2 2.8-3.5 4.7-7 7.3-10.8 7.8-1.5.2-3 .2-4.5 0-1-.1-2-.1-3.1-.1-5.2.2-9.8 3.1-12.3 7.7L149 192l168.2 4.3.9-37.1c-1.1.6-2.6.2-3.2-.9-.2.2-.2.2-.2.1z" opacity=".2" fill="#3c6fe9"/><path class="st11" d="M199.2 140.6l-1.3 52.6m24.8-32.4l-.9 33m24.2-29.2l-.8 29.8m23.4-56.4l-1.4 57m24.5-59l-1.5 59.6m27-37.2l-1 37.8"/><path class="st0" d="M284.3 129.6c-.5-.5-1.2-.8-1.9-.8-1.3 0-2.4 1-2.6 2.3v.8c.1.6.4 1.2.8 1.6.5.5 1.1.8 1.8.8h.1c.7 0 1.4-.3 1.9-.8.2-.2.4-.5.5-.8.1-.2.2-.5.2-.8v-.4c0-.7-.3-1.4-.8-1.9zm-.2 2.8c-.1.2-.2.4-.4.5-.7.8-2 .8-2.8 0-.3-.3-.5-.6-.6-1v-.8c.2-.9 1-1.5 1.9-1.5h.1c1 0 1.9.9 1.9 1.9v.1c.1.3.1.5-.1.8z"/><circle class="st0" cx="317.2" cy="157.9" r="2.3"/><path class="st0" d="M280.4 131.6v.3h-.8c-1.2.1-2.4.3-3.6.7-3.4 1.3-6 4-8.3 6.7-2.8 3.3-5.6 6.7-8.1 10.2-.5.7-1 1.4-1.6 2.1-2.8 3.9-5.6 7.9-9.3 11-5 4.2-11 6-16 4.9-6-1.4-10.4-6.8-13.5-11.3l-1.2-1.8c-2.9-4.3-5.9-8.7-10.3-11.3-5.8-3.4-13.8-2.8-19.1 1.4-2.5 2-4.5 4.8-6.3 7.5-.6.9-1.3 1.9-2 2.8-3.5 4.7-7 7.3-10.8 7.8-1.5.2-3 .2-4.5 0-1-.1-2-.1-3.1-.1-5.5.2-10.5 3.6-12.8 8.6l-.7-.3c2.4-5.3 7.6-8.8 13.5-9.1 1 0 2.1 0 3.1.1 1.5.2 2.9.2 4.4 0 3.6-.5 7-3 10.3-7.5.7-.9 1.3-1.9 2-2.8 1.9-2.7 3.9-5.6 6.5-7.7 5.7-4.5 13.6-5.1 19.9-1.5 4.6 2.7 7.6 7.2 10.5 11.5l1.2 1.8c3 4.4 7.2 9.6 13 10.9 4.8 1.1 10.5-.6 15.3-4.7 3.6-3.1 6.5-7 9.2-10.8.5-.7 1-1.4 1.6-2.1 2.6-3.5 5.3-7 8.2-10.3 2.4-2.8 5.1-5.6 8.6-7 1.2-.5 2.5-.7 3.9-.8h.8c.1.5 0 .6 0 .8zm37 26.7c-4.6 1.7-9.4-.8-12.1-3.5-2.4-2.3-4.1-5.2-5.7-8-.5-.9-1.1-1.8-1.6-2.7-2.9-4.6-5.8-7.7-9.1-9.7-1.2-.7-2.5-1.3-3.9-1.8-.2-.1-.5-.2-.8-.2.1-.2.2-.5.2-.8.3.1.5.1.8.2 1.4.4 2.8 1.1 4.1 1.9 3.4 2.1 6.4 5.3 9.3 9.9.6.9 1.1 1.8 1.6 2.7 1.6 2.7 3.3 5.6 5.6 7.8 2.6 2.5 7.1 4.9 11.3 3.4l.3.8z"/><path class="st13" d="M131.6 121.1l7.2.2c.2 0 .3.2.3.4l-.1 2.8c0 .2-.2.3-.4.3l-7.2-.2c-.2 0-.3-.2-.3-.4l.1-2.8c0-.2.2-.3.4-.3z"/><path class="st0" d="M131.1 137.8l7.2.2c.2 0 .3.2.3.4l-.1 2.8c0 .2-.2.3-.4.3l-7.2-.2c-.2 0-.3-.2-.3-.4l.1-2.8c.1-.1.2-.3.4-.3z"/><path class="st13" d="M130.7 154.5l7.2.2c.2 0 .3.2.3.4l-.1 2.8c0 .2-.2.3-.4.3l-7.2-.2c-.2 0-.3-.2-.3-.4l.1-2.8c.1-.1.2-.3.4-.3zm-.4 16.8l7.2.2c.2 0 .3.2.3.4l-.1 2.8c0 .2-.2.3-.4.3l-7.2-.2c-.2 0-.3-.2-.3-.4l.1-2.8c0-.2.2-.3.4-.3zm-.4 16.7l7.2.2c.2 0 .3.2.3.4l-.1 2.8c0 .2-.2.3-.4.3l-7.2-.2c-.2 0-.3-.2-.3-.4l.1-2.8c0-.2.2-.3.4-.3zm14.7 7.4l7.2.2c.2 0 .3.2.3.4l-.1 2.8c0 .2-.2.3-.4.3l-7.2-.2c-.2 0-.3-.2-.3-.4l.1-2.8c0-.2.2-.3.4-.3zm24.7.6l7.2.2c.2 0 .3.2.3.4l-.1 2.8c0 .2-.2.3-.4.3l-7.2-.2c-.2 0-.3-.2-.3-.4l.1-2.8c0-.1.2-.3.4-.3z"/><path class="st0" d="M193.3 197.7l7.2.2c.2 0 .3.2.3.4l-.1 2.8c0 .2-.2.3-.4.3l-7.2-.2c-.2 0-.3-.2-.3-.4l.1-2.8c0-.2.2-.3.4-.3z"/><path class="st13" d="M218.1 197.2l7.2.2c.2 0 .3.2.3.4l-.1 2.8c0 .2-.2.3-.4.3l-7.2-.2c-.2 0-.3-.2-.3-.4l.1-2.8c0-.1.2-.3.4-.3zm23.4.6l7.2.2c.2 0 .3.2.3.4l-.1 2.8c0 .2-.2.3-.4.3l-7.2-.2c-.2 0-.3-.2-.3-.4l.1-2.8c.1-.1.2-.3.4-.3z"/><path class="st0" d="M263.5 198.4l7.2.2c.2 0 .3.2.3.4l-.1 2.8c0 .2-.2.3-.4.3l-7.2-.2c-.2 0-.3-.2-.3-.4l.1-2.8c0-.1.2-.3.4-.3zm23.1.6l7.2.2c.2 0 .3.2.3.4l-.1 2.8c0 .2-.2.3-.4.3l-7.2-.2c-.2 0-.3-.2-.3-.4l.1-2.8c0-.2.2-.3.4-.3zm25.3 2.2l6.9.2c.3 0 .5.3.5.6l-.1 2.4c0 .3-.3.5-.6.5l-6.9-.2c-.3 0-.5-.3-.5-.6l.1-2.4c0-.2.3-.5.6-.5zm69.8 36.7c2.1 0 3.9 1.7 3.9 3.9 0 2.1-1.7 3.9-3.9 3.9-2.1 0-3.9-1.7-3.9-3.9 0-1 .4-2 1.1-2.7.8-.8 1.7-1.2 2.8-1.2m0-.6c-2.5 0-4.5 2-4.5 4.5s2 4.5 4.5 4.5 4.5-2 4.5-4.5c-.1-2.5-2.1-4.5-4.5-4.5z"/><path class="st0" d="M380.5 243.1l.2-.3c.2.2.5.4.9.4s.7-.2.7-.5-.3-.6-1.1-.6v-.4c.7 0 1-.2 1-.5s-.2-.4-.6-.4c-.3 0-.5.1-.7.3l-.2-.3c.3-.2.6-.4 1-.4.6 0 1.1.3 1.1.8 0 .4-.3.6-.6.7.4 0 .7.4.7.8 0 .6-.5.9-1.1.9-.6-.1-1-.2-1.3-.5z"/><path class="st9" d="M400.1 238.2c2.1 0 3.9 1.7 3.9 3.9 0 2.1-1.7 3.9-3.9 3.9-2.1 0-3.9-1.7-3.9-3.9 0-1 .4-2 1.1-2.7.8-.8 1.7-1.3 2.8-1.2m0-.6c-2.5 0-4.5 2-4.5 4.5s2 4.5 4.5 4.5 4.5-2 4.5-4.5c-.1-2.6-2.1-4.5-4.5-4.5z"/><path class="st9" d="M400.1 241.5v-.6c-.1.2-.2.3-.3.5l-.8 1h2.1v.4h-2.6v-.3l1.6-2.1h.6v3.3h-.5l-.1-2.2zm-10.2-2c.2-.2.4-.2.6 0l2 2c.2.1.2.4 0 .6l-2 2c-.1.2-.4.2-.5 0-.2-.1-.2-.4 0-.5l1.7-1.7-1.7-1.7c-.3-.3-.3-.6-.1-.7z"/><path class="st9" d="M386.5 241.7c0 2.4 2 4.4 4.4 4.4s4.4-2 4.4-4.4-2-4.4-4.4-4.4c-2.5.1-4.4 2-4.4 4.4zm.7 0c0-2 1.7-3.7 3.7-3.7s3.7 1.7 3.7 3.7-1.7 3.7-3.7 3.7c-1 0-1.9-.4-2.6-1.1-.8-.6-1.1-1.6-1.1-2.6z"/><path d="M66.1 75.9h85.4c.8 0 1.5.7 1.5 1.5v6.3c0 .8-.7 1.5-1.5 1.5H66.1c-.8 0-1.5-.7-1.5-1.5v-6.3c0-.9.7-1.5 1.5-1.5z" opacity=".2" fill="#5a5773"/><linearGradient id="SVGID_2_" gradientUnits="userSpaceOnUse" x1="180.087" y1="840.37" x2="180.087" y2="633.219" gradientTransform="matrix(.9993 -.03839 .03839 .9993 14.439 -529.787)"><stop offset="0" stop-color="gray" stop-opacity=".25"/><stop offset=".54" stop-color="gray" stop-opacity=".12"/><stop offset="1" stop-color="gray" stop-opacity=".1"/></linearGradient><path d="M275.2 296.9c-.6-2.3-1.1-4.4-1.1-4.4s0-2.6-1.2-4.5v-.6l-.2-4.7c.3-.9.7-1.7 1.1-2.5.8-1.5-.3-7-.3-7s-3.5-7.6-2.9-12.5-7.3-21.5-7.3-21.5c0-1.6.1-3.2.5-4.8.1-.3.1-.7.1-1v-.1c-.2-3.2-3-9.2-3-9.2l-.1-11.5s1.4-6.9-1.6-15.9c-1-3.1-1.7-5.7-2.2-7.6-.1-.2-.1-.4-.1-.6 5.4-1 9.6-1.9 9.6-1.9s-3.7-13.1-5.9-15.4-4.2-9.5-4.2-9.5-1.5-9.3.2-12.1 1.8-7.5 1.8-7.5 4-3.1 4.5-4.5c.5-1.3 1.2-4.4 1.1-5.9-.1-1.6-.6-3-.5-3.8s-1.4-3.9-.7-5.4c.2-.5.2-1 .2-1.4 0-1.3-.2-2.6-.5-3.9-1.2-1-2.6-1.6-4.1-2l-.1-.4-.3-.9c-.1-.1-.3-.2-.4-.2v-.3l-.1-1.3.5-3c1.1-5.3-6-5.8-6-5.8-.5-.8-1.2-1.4-2.1-1.7-1.4-.4.1 7.9.8 8.4.5.4 2.1 3 2.9 4.2l.1.2c-.1.1-.2.2-.3.4l.3 1.8.1.3c-.4.6-.8 1.2-1 1.9 0 0 1.3 1.4 1.1 2.9-.2 1.6.5 3.5.6 3.6-.1-.1-1-1-1.9-.8s-3.4 1.1-3.4 1.1-1.9.4-1.7.8-1.2 2.3-1.2 2.3l-5.2-4.6c-.1-.1-.1-.3-.2-.4-.2-.7-.4-1.4-.5-2.1.5-.2 1.1-.3 1.6-.6.5-.2 1-.5 1.4-.9.5-.6.6-1.5.7-2.2.3-1.5 1.2-2.8 1.7-4.3.9-2.4 1.2-5 .7-7.5-.1-.8-.4-1.5-.9-2.2-.9-1.1-2.4-1.5-3.5-2.4s-1.9-2.2-3.2-2.9c-1.2-.6-2.6-.4-3.9-.2-2.5.5-4.9 1.5-7.1 2.9-.7.5-1.5 1-2.4.9-.7-.1-1.3-.7-1.8-1.2v-.1l-.1-.1c-.5 1.2-.7 2.5-.6 3.8v1.3c-.1.3-.2.5-.4.7-.1.2-.3.4-.4.6 0-.1 0-.1.1-.2-.3.5-.5 1-.5 1.6 0 .4.1.8.4 1.1.3.2.5.5.9.6-.1.6-.1 1.1-.1 1.7.1 3.4 2.1 6.5 5.1 8.2l.2.4c.7 1.7 1.3 3.6 1.1 5.5v.4l-.2.2s-8.4.4-10.4-1.3-4.8 4.5-4.8 4.5-3 .7-3.6.1c-.6-.6-4.1.1-4.1.1-1.5-1.2-3.4-1.8-5.3-1.7-1.2-.8-2.5-1.5-3.9-2h-.1c-.6-.2-1.3-.3-1.9-.2 0 0-4.2-3.2-5.5-5s-7.2-8.3-7.3-8.3v-.3l-.1-1c-.2 0-.3.1-.5.1 0-.1-.1-.2-.1-.3-.4-.9-.8-1.9-1.3-2.7 0 0 0-1.2.3-1.6s-.3-4.9-.3-4.9-4-8.5-7.1-1.9c0 0-6.1 4.4-.7 9.1 0 0 2.1.9 2.5 1.7.2.5 1 1.9 1.5 2.9l.2.4-.1.1.1.8v.3c-1 .6-1.6 1.2-1.4 1.6.3.7.5 1.5.7 2.2 0 0 7.6 8.8 8.7 12.7 0 0 20 10.8 26.4 11.4l-.9 5.8s-.2 3.5-.1 4.7c.1 1.2-.5 6.9-.5 6.9s-.8 8.3-1.7 9.5-.5 6.2-.5 6.2c-.1 2.4-.5 4.8-1 7.1-.8 3.2 0 7.1 0 7.1s-3 7.6 4.6 2.2c0 0 3.8-.4 8.2-.7v2.2c.1 4.3.3 10.2.7 14.6.6 7.9 3.6 23.3 3.6 23.3l.3 7.8c-.1.7-.2 1.5-.1 2.2.1 2.8.9 5.4 2.4 7.8l.8 5.2s1.6 3.4 1.6 5.4v.5c0 .3-.1.5 0 .8 0 2.4 1.7 8 1.7 8s.3 5.7 1.2 6c.7.3-.9 3.3-1.3 4.2v-.2l-.1.2c-.2.5-.2 1-.2 1.5-.1.8.3 1.6 1 2 1.7.9 2.6 1.7 1.2 2.1-.5.1-1 .2-1.5.4l-.1-.2c-.4.2-.6.6-.5 1 0 .4.1 1 .6 1.9 1.5 3 2.5 4.1 2.5 4.1l.7-.1c-.1.3-.2.5-.4.7-.2.4-.6.7-.9.9-.4.2-.8.4-1.2.4-.9.1-1.8.5-2.4 1.3-.8 1.1-1.3 2.7.5 3.9l6.2 1.9s10.6 1 9.9-1.4-1.1-4.4-1.1-4.4c0-1.4-.4-2.9-1-4.2-.1-.2-.2-.4-.4-.6l.4-.1s.6-5.2 1.6-6.3c.2-.2.3-.4.2-.6.1-.3-.2-.4-.5-.5 0 .1 0 .1-.1.2-.3-.1-.7-.1-1-.1 0 0-.4-2.7.6-3.8.2-.2.2-.5.2-.8 0-.4-.1-.7-.2-1.1v.1c-.7-2.5-2.7-6.3-2.7-6.3s-.2-2.5.5-3.5-.6-13.5-.6-13.5 0-6.1-.9-8.8c-.9-2.8.7-6.2.7-6.2v-.2s-.1-.4-.1-.9v.1c-.2-1.6-.7-4.5-1-5.8-.4-1.9-.3-11-.3-11l1.4-4 3 6.6 3.3 8.8s1.5 1.8 1.6 3.7v.9c0 1.1.3 2.2 1 3.2 0 0 .9 4.2 2.2 5.2 1.2 1 1.3 3.1 1.3 3.1s1.7 6.1 2.4 7.1c.6.9.7 3.4.8 4.1v.2s.3 2.2.4 4v.7c0 .5 0 1-.1 1.5v-.2c-.3 1.3-.4 2.6-.3 3.8 0 2.2.5 4.8 1.9 6.3 2.4 2.6 3.9 2.2 3.9 2.2s-1 3.4-2.3 4.1c-.1 0-.1.1-.1.1v-.2c-.3.3-.4.8-.4 1.2 0 1.5 1 3.8 1.9 4.8.3.3.7.5 1.2.6-.1.1-.1.1-.2.1-.1.1-.3.2-.5.2-.2.1-.5.2-.7.2-.9.1-1.8.5-2.4 1.3-.8 1.1-1.3 2.7.4 3.9l6.2 1.9c-.4.5 10.2 1.4 9.6-.9z" fill="url(#SVGID_2_)"/><path class="st16" d="M235.1 302.4l-6-1.9c-1.7-1.3-1.2-2.8-.4-3.9.5-.7 1.4-1.2 2.3-1.3.4-.1.8-.2 1.1-.4.4-.2.7-.5.9-.9.4-.7.6-1.5.6-2.3 0 0 6.4-2.2 8.3-.3.3.3.6.7.8 1.1.6 1.3 1 2.7 1 4.1 0 0 .4 2.1 1 4.4.7 2.3-9.6 1.4-9.6 1.4zm28.9-4.1l-6-1.9c-1.7-1.3-1.2-2.8-.4-3.9.5-.7 1.4-1.2 2.3-1.3.2 0 .5-.1.7-.2s.3-.1.5-.2c1.6-1 1.5-3.2 1.5-3.2s6.4-2.2 8.3-.3c.2.2.5.5.7.8 1.2 1.9 1.2 4.5 1.2 4.5s.4 2.1 1 4.4c.4 2.3-9.8 1.3-9.8 1.3z"/><path class="st17" d="M241.9 291.3c.3.3.6.7.8 1.1l-9.7 1.5c.4-.7.6-1.5.6-2.3 0 0 6.4-2.1 8.3-.3zm29.5-3.2l.1 1.8c-1.4 2.6-8.8 2.3-11 1.1.2-.1.3-.1.5-.2 1.6-1 1.5-3.2 1.5-3.2s6.4-2.2 8.3-.3c.2.2.4.5.6.8z"/><path class="st18" d="M272.3 280.2c-.4.8-.8 1.7-1.1 2.5l.3 6.5c-1.6 2.8-10.2 2.2-11.4.8s-2.6-5.3-1.3-6c1.3-.7 2.2-4.1 2.2-4.1s-1.4.4-3.7-2.2c-2.3-2.6-1.9-8.5-1.6-9.9.3-1.4-.2-6.1-.2-6.1s0-3.3-.7-4.4-2.3-7.1-2.3-7.1-.1-2.1-1.3-3.1-2.1-5.2-2.1-5.2c-.7-1-1.1-2.3-1-3.5.2-2.1-1.6-4.3-1.6-4.3l-3.2-8.8-2.9-6.6-1.3 4s-.1 9.1.3 11c.4 1.9 1.1 6.9 1.1 6.9s-1.5 3.4-.7 6.2.8 8.8.8 8.8 1.2 12.5.6 13.5-.4 3.5-.4 3.5 3.7 7.2 2.6 8.2-.6 3.8-.6 3.8 2.3-.1 1.4.9-1.5 6.3-1.5 6.3l-10 1.6s-1-1.1-2.4-4.1.1-2.7 1.5-3.1c1.3-.4.4-1.2-1.2-2.1-1.6-.9-.8-3.2-.8-3.2s2.2-4.2 1.4-4.5-1.1-6-1.1-6-1.9-6.7-1.6-8.6c.4-1.8-1.6-6.2-1.6-6.2l-.8-5.2c-3.2-5-2.2-9.8-2.2-9.8l-.3-8s-2.9-15.5-3.6-23.3c-.4-5-.6-11.9-.7-16.2-.1-2.4-.1-4-.1-4l35.6-5.1s0 1.7.9 5.3c.4 1.9 1.1 4.5 2.1 7.6 2.9 9 1.6 15.9 1.6 15.9l.1 11.5s3.4 7.6 2.9 10.3c-.3 1.6-.5 3.2-.5 4.8 0 0 7.7 16.5 7.1 21.5-.6 4.9 2.8 12.5 2.8 12.5s1.2 5.3.5 6.8z"/><path class="st19" d="M250.1 237.8l10.8-1.9c.1 0-5.8 6.6-10.8 1.9z"/><path class="st17" d="M259 225.4s.5 3.8-1.8 5.4c0-.1 4.2-.9 1.8-5.4zm-1.2-12.3s-8.8 7.8-12.2 7.4c-3.2-.5 12.2-7.4 12.2-7.4zm-21 28.8s-6.9 1.8-7 4.6 7-4.6 7-4.6z"/><path class="st19" d="M239.6 276.3s-9.7 2.2-6.9 3.3c2.8 1.1 7.4 1.9 7.4 1.9s3.2.2-.5-5.2z"/><path d="M230.8 281.7c-.5-.3-.9-.8-.9-1.4l-.1.2s-.8 2.3.8 3.2c.2.1.4.2.5.3.3-.1.6-.1.9-.2 1.3-.3.4-1.1-1.2-2.1zm12.6-1.1c.3-.3.2-.9 0-1.7-.4.7-.5 1.7-.5 2.4.1-.3.3-.5.5-.7zm-3.1-41.2c-.3 1-.5 2-.5 3.1.2-.7.4-1.4.7-2.1-.1-.1-.1-.4-.2-1zm22.2-5.2c.1-.3.1-.6.1-.9-.1.6-.2 1.2-.2 1.7 0-.3.1-.5.1-.8zm-21.3 34.7c.1-.2.2-.9.2-1.8-.3.7-.4 1.5-.4 2.3 0-.2.1-.4.2-.5zm2.7 15.5c-.6 1.9-.9 5.1-.9 5.1l-10 1.6s-1-1.1-2.4-4.1c-.1-.3-.2-.5-.3-.7-.6.3-.8.9.1 2.7 1.4 3 2.4 4.1 2.4 4.1l10-1.6s.5-5.2 1.5-6.3c.3-.4 0-.7-.4-.8zm-13.8-14.3s.3 5.7 1.1 6c.4-1 .6-1.9.2-2-.8-.3-1.1-6-1.1-6s-1.9-6.7-1.6-8.6c.4-1.8-1.6-6.2-1.6-6.2l-.8-5.2c-3.2-5-2.2-9.8-2.2-9.8l-.3-8s-2.9-15.5-3.6-23.3c-.4-5-.6-11.9-.7-16.2v-2h-.3s0 1.6.1 4c.1 4.3.3 11.2.7 16.2.6 7.9 3.6 23.3 3.6 23.3l.3 8s-1 4.8 2.2 9.8l.8 5.2s1.9 4.3 1.6 6.2c-.4 1.8 1.6 8.6 1.6 8.6zm30.2 17.7c-.9-1.1-1.5-2.5-1.7-3.9-1 1 .3 4.5 1.5 5.9s9.9 2 11.4-.8l-.1-1.6c-2.2 2.4-10 1.8-11.1.4zm12.2-9.8c-.4.8-.8 1.7-1.1 2.5v1.2c.2-.4.4-1 .8-1.7.3-.7.4-1.4.3-2 0-.1 0-.1 0 0zm-12 1.7c.3-.6.5-1.3.7-2 0 0-1.4.4-3.7-2.2-1.7-1.9-1.9-5.5-1.8-7.9-.4 1.4-.8 7.3 1.6 9.9 1.5 1.7 2.6 2.1 3.2 2.2zm-5.1-18.2c.2 1.6.3 3.3.4 4.9 0-.3.1-.5.1-.8.4-1.4-.2-6.1-.2-6.1s0-3.3-.7-4.4-2.3-7.1-2.3-7.1-.1-2.1-1.3-3.1-2.1-5.2-2.1-5.2c-.7-1-1.1-2.3-1-3.5.2-2.1-1.6-4.3-1.6-4.3l-3.2-8.9-2.9-6.6-1.3 4v1.3l1.1-3.2 2.9 6.6 3.2 8.8s1.7 2.2 1.6 4.3c-.1 1.3.2 2.5 1 3.5 0 0 .9 4.2 2.1 5.2 1.2 1 1.3 3.1 1.3 3.1s1.6 6.1 2.3 7.1.6 4.4.6 4.4z" opacity=".05"/><path class="st21" d="M256.5 108.8l-.5 3.1.1 1.3.1 1-3.4.5-.4-.7c-.8-1.3-2.4-3.8-2.8-4.2-.7-.5-2.1-8.9-.7-8.4.8.3 1.6.9 2 1.7-.2-.1 6.7.4 5.6 5.7z"/><path class="st17" d="M256.2 114.2l-3.4.5-.4-.7c.9-1.1 2.5-1.5 3.8-.8v1z"/><path class="st22" d="M257.1 115.8l-4.5 1.2-.1-.7-.3-1.8s1.7-2.5 4.4-.8l.3.9.2 1.2z"/><path class="st21" d="M183 112l-4.8 2.8s-.2-.4-.5-.9c-.5-1-1.2-2.4-1.5-2.9-.3-.8-2.4-1.7-2.4-1.7-5.3-4.7.6-9.1.6-9.1 3-6.6 6.9 1.9 6.9 1.9s.7 4.5.3 4.9c-.3.3-.3 1.6-.3 1.6.5.9.9 1.8 1.3 2.7.3.4.4.7.4.7z"/><path class="st17" d="M183 112l-4.8 2.8s-.2-.4-.5-.9c.7-.6 3-2.7 3.8-2.6h1.2c.2.4.3.7.3.7z"/><path class="st22" d="M183.6 113.4l-5.4 2.9-.2-1.2-.1-.8s3.1-2.8 4-2.8c.5 0 1 0 1.4-.1l.1 1 .2 1z"/><path class="st21" d="M244.1 129.4s-23.7 3.6-19.3 2c3.1-1.1 4.2-3.1 4.4-5.3.1-1.8-.4-3.8-1.1-5.5-.6-1.5-1.4-2.9-2.3-4.2 0 0 17.8-10.7 14.6-1.5-.5 1.4-.8 2.9-.9 4.4-.1 1.5.2 3 .6 4.4.7 2.2 2.1 4.2 4 5.7z"/><path class="st17" d="M240.3 114.9c-.5 1.4-.8 2.9-.9 4.4-1.7 1.5-3.5 1.5-6 1.6-1.9.1-3.9.6-5.4-.2-.6-1.5-1.4-2.9-2.3-4.2 0-.1 17.9-10.9 14.6-1.6z"/><circle class="st21" cx="232.7" cy="111.6" r="9.9"/><path class="st17" d="M244.1 129.4s-23.7 3.6-19.3 2c3.1-1.1 4.2-3.1 4.4-5.3 1.1-1.3 3.5-2.3 5-2.9 1.4-.5 2.9-.6 4.3-.2.6.1 1.1.4 1.6.7.7 2.2 2.1 4.2 4 5.7zm13-13.6l-4.5 1.2-.1-.7c.9-1.4 2.7-2.1 4.3-1.7l.3 1.2zm-73.5-2.4l-5.4 2.9-.2-1.2c1.9-1.2 5.1-2.5 5.4-2.7l.2 1zm72.2 75.8c-9.2 1.8-22.2 4.2-24.4 3.7-1.8-.5-7.3-.2-12.1.2-.1-2.4-.1-4-.1-4l35.6-5.1c.2-.1.2 1.5 1 5.2z"/><path class="st23" d="M264.9 186.6s-30.2 6.4-33.5 5.5-20 .9-20 .9c-7.3 5.3-4.5-2.2-4.5-2.2s-.8-3.9 0-7.1c.5-2.3.8-4.7 1-7.1 0 0-.4-5 .5-6.2s1.6-9.5 1.6-9.5.6-5.7.5-6.9.1-4.7.1-4.7l.9-5.8c-6.2-.6-25.6-11.5-25.6-11.5-1.1-3.9-8.5-12.7-8.5-12.7-.1-.8-.4-1.5-.7-2.2-.5-1.3 6.8-4.2 6.8-4.2s5.8 6.6 7 8.4 5.3 5 5.3 5c.6-.1 1.2 0 1.8.2h.1c1.4.5 2.6 1.1 3.8 2 3-.3 5.1 1.7 5.1 1.7s3.4-.6 4-.1 3.5-.1 3.5-.1 2.7-6.2 4.6-4.5c2 1.7 10.1 1.3 10.1 1.3 1-1.5 3.6-2.6 5.2-3.2 1.4-.5 2.9-.6 4.3-.2.6.2 1.2.4 1.7.8l5.1 4.6s1.3-1.9 1.2-2.3 1.6-.8 1.6-.8l3.3-1.1c.9-.3 1.8.7 1.8.8 0-.1-.7-2.1-.5-3.6s-1.1-2.9-1.1-2.9c2.6-7.2 9.4-1.5 9.4-1.5s.9 3.9.3 5.4.8 4.6.7 5.4c-.1.8.4 2.2.5 3.8s-.7 4.6-1.1 5.9-4.3 4.5-4.3 4.5-.1 4.7-1.7 7.5c-1.6 2.8-.2 12.1-.2 12.1s1.9 7.2 4.1 9.5c2.3 2 5.8 15.1 5.8 15.1z"/><path class="st17" d="M218.5 133.8s-1-2.7-1.9-2.9c-.8-.3-1.7-.6-2.4-1l.5-1s3.1.7 3.7 1.6c.5.9.1 3.3.1 3.3zm-16.9-5.4c-.1.8-7.5 1.9-7.5 1.9l3.6-3.9h.1c1.4.5 2.7 1.2 3.8 2z"/><circle class="st18" cx="179.8" cy="117.9" r=".7"/><circle class="st18" cx="180.7" cy="119.2" r=".7"/><circle class="st18" cx="181.6" cy="120.3" r=".7"/><circle class="st18" cx="182.5" cy="121.6" r=".7"/><circle class="st18" cx="260.6" cy="118.6" r=".5"/><circle class="st18" cx="260.8" cy="119.8" r=".5"/><circle class="st18" cx="260.9" cy="121" r=".5"/><path class="st17" d="M219.4 156.3c-.1-.1 19.5 22.8 33.5 8.6 0 0-22.8 3.9-33.5-8.6zm-10.3 12.6s11.2-.1 12.5 3l.1 3.3c-.6.4-1.4.4-2.1.1-1.2-.6-8-3.7-10.4-2l-.1-4.4z"/><path class="st23" d="M209.4 168.9s10.7-.1 11.9 2.9l.1 3.2c-.6.4-1.4.4-2 .1-1.1-.5-7.7-3.6-9.9-1.9l-.1-4.3z"/><path class="st17" d="M214.3 144.5c1.2 2.6 2.8 5 4.6 7.3 2 2.5 4.4 4.6 7 6.3.1-.1-11.3-12.1-11.6-13.6zm-4.1-12.9s2.2 8 7.1 10.5l-7.1-10.5zm-2.9.9c-.1-.1-1.4 6.4 6.6 9.7 0 .1-3.4-1-6.6-9.7zm48.6-7.3c-.1 0 4 2.4 5.1 3.5 0 .1-2.7-3.7-5.1-3.5z"/><path class="st16" d="M230.4 120.7c.2.5.4 1.1.8 1.3.3.1.6.2.9.2 3 .1 6.1.1 8.9-1.2.5-.2 1-.5 1.3-1 .5-.6.5-1.4.7-2.2.3-1.5 1.1-2.8 1.7-4.3.9-2.4 1.2-5 .7-7.6-.1-.8-.4-1.5-.8-2.2-.8-1.1-2.3-1.5-3.4-2.4s-1.8-2.2-3.1-2.9c-1.1-.6-2.5-.4-3.7-.2-2.4.5-4.8 1.5-6.8 2.9-.7.5-1.5 1-2.3.9-.7-.1-1.3-.7-1.8-1.2-.5 1.4-.7 2.9-.6 4.3v.6c-.1.3-.2.5-.4.7-.7.9-1.1 2.3-.4 3.1.3.4.8.6 1.2.9.6.7.4 1.7.5 2.6 0 .3.1.6.3.9.3.3.8.4 1.2.2.4-.1.9-.2 1.3-.2.5.1.9.4 1.2.8 1.3 1.9 2 3.9 2.6 6z"/><path d="M242.7 119.2c-.4.4-.8.7-1.3.9-2.7 1.3-5.9 1.3-8.9 1.2-.3 0-.6 0-.9-.2-.5-.2-.7-.8-.8-1.3-.7-2.1-1.3-4-2.7-5.7-.3-.4-.7-.7-1.2-.8-.4 0-.9 0-1.3.2-.4.1-.9 0-1.2-.2-.2-.3-.3-.6-.3-.9 0-.9.1-1.9-.5-2.6-.3-.4-.8-.6-1.2-.9-.4-.6-.5-1.3-.3-2-.5.9-.7 1.9 0 2.6.3.4.8.6 1.2.9.6.7.4 1.7.5 2.6 0 .3.1.6.3.9.3.3.8.4 1.2.2.4-.1.9-.2 1.3-.2.5.1.9.4 1.2.8 1.5 1.7 2.1 3.6 2.7 5.7.2.5.4 1.1.8 1.3.3.1.6.2.9.2 3 .1 6.1.1 8.9-1.2.5-.2 1-.5 1.3-.9.2-.2.3-.5.4-.8-.1.1-.1.2-.1.2zM223 105.6c.1-.1.2-.3.3-.5v-.6c-.1-1.2 0-2.4.3-3.6l-.1-.1c-.5 1.4-.7 2.9-.6 4.3 0 .2.1.3.1.5z" opacity=".1"/><path class="st17" d="M228.9 126.7s12.4 1.2 13.4-.7m10.3-5.3s6.8-.3 8.4 2.3"/><path class="st0" d="M402.3 250.7s2.3 3-1.1 7.6-6.2 8.4-5 11.2c0 0 5.1-8.5 9.2-8.6 4.2-.1 1.5-5.1-3.1-10.2z"/><path class="st17" d="M402.3 250.7c.2.3.4.6.5.9 4 4.7 6.2 9.2 2.3 9.3-3.6.1-8 6.6-9 8.2 0 .1.1.3.1.4 0 0 5.1-8.5 9.2-8.6 4.2-.1 1.5-5.1-3.1-10.2z"/><path class="st25" d="M406.6 254.5c0 1.1-.1 1.9-.3 1.9-.1 0-.3-.9-.3-1.9s.1-.6.3-.6.3-.4.3.6z"/><path class="st25" d="M408.1 255.8c-.9.5-1.7.8-1.8.7-.1-.1.6-.6 1.6-1.2s.6-.1.6 0c0 .2.5 0-.4.5z"/><path class="st0" d="M390.1 250.7s-2.3 3 1.1 7.6 6.2 8.4 5 11.2c0 0-5.1-8.5-9.2-8.6-4.2-.1-1.4-5.1 3.1-10.2z"/><path class="st17" d="M390.1 250.7c-.2.3-.4.6-.5.9-4 4.7-6.2 9.2-2.3 9.3 3.6.1 8 6.6 9 8.2 0 .1-.1.3-.1.4 0 0-5.1-8.5-9.2-8.6-4.2-.1-1.4-5.1 3.1-10.2z"/><path class="st25" d="M385.8 254.5c0 1.1.1 1.9.3 1.9.1 0 .3-.9.3-1.9s-.1-.6-.3-.6-.3-.4-.3.6z"/><path class="st25" d="M384.3 255.8c.9.5 1.7.8 1.8.7.1-.1-.6-.6-1.6-1.2-.9-.5-.6-.1-.6 0 0 .2-.5 0 .4.5z"/><ellipse class="st5" cx="396.2" cy="288.9" rx="24.1" ry="3.7"/><path d="M408.6 265.4l-.1.9-.2 1.3-.1.6-.2 1.3-.1.6-.2 1.3-1.8 15.1c-.2 1.4-2.4 2.4-5 2.4h-9.6c-2.7 0-4.9-1.1-5-2.4l-1.9-15.1-.2-1.3-.1-.6-.2-1.3-.1-.6-.2-1.3-.1-.9c-.1-.8 1.1-1.4 2.6-1.4H406c1.5 0 2.7.7 2.6 1.4z" fill="#65617d"/><path d="M408.5 266.4l-.2 1.3h-24.2l-.2-1.3zm-.2 1.9l-.2 1.3h-23.8l-.2-1.3zm-.3 1.8l-.1 1.4h-23.4l-.1-1.4z" fill="#9d9cb5"/></svg>