<?xml version="1.0" encoding="utf-8"?>
<!-- Generator: Adobe Illustrator 23.0.2, SVG Export Plug-In . SVG Version: 6.00 Build 0)  -->
<svg version="1.1" id="Layer_1" xmlns="http://www.w3.org/2000/svg" xmlns:xlink="http://www.w3.org/1999/xlink" x="0px" y="0px"
	 viewBox="0 0 283.5 219.4" style="enable-background:new 0 0 283.5 219.4;" xml:space="preserve">
<style type="text/css">
	.st0{opacity:0.1;fill:#89DAF8;enable-background:new    ;}
	.st1{opacity:0.1;}
	.st2{fill:#3C6FE9;}
	.st3{opacity:0.1;fill:#3C6FE9;enable-background:new    ;}
	.st4{fill:url(#SVGID_1_);}
	.st5{fill:#535461;}
	.st6{fill:#F6F7F9;}
	.st7{opacity:0.2;}
	.st8{fill:#DCE0ED;}
	.st9{fill:url(#SVGID_2_);}
	.st10{fill:#65617D;}
	.st11{fill:#A27772;}
	.st12{opacity:0.1;enable-background:new    ;}
	.st13{fill:#FBBEBE;}
	.st14{fill:#7C7CDD;}
	.st15{opacity:5.000000e-02;enable-background:new    ;}
	.st16{fill:#7C5C5C;}
	.st17{fill:#FFD037;}
	.st18{fill:#A8A8A8;}
	.st19{opacity:0.2;enable-background:new    ;}
</style>
<title>report</title>
<path class="st0" d="M61.5,0.2c-9.1-0.3-18.6-0.6-26.9,3.3S20,16.9,22.7,25.6c0.9,2.8,2.7,5.3,4.1,7.9c7.4,12.9,7.8,29.6,0.9,42.8
	C22.4,86.5,13.5,94.2,7,103.7s-10,22.6-3.7,32.2c4.3,6.5,12.4,9.7,20.2,10.5s15.7-0.4,23.5-0.8c15.3-0.6,30.5,2.3,44.5,8.4
	c19.3,8.4,35.9,22.9,56.2,28.5c2.4,0.7,5,1.2,7.5,0.8c4.4-0.8,7.6-4.5,11.1-7.3c11-9.1,26.3-10.9,40.7-11.3
	c14.3-0.4,29.3-0.1,42.2-6.3c11.3-5.4,20-15.4,25.4-26.7s7.8-23.8,8.7-36.3c0.5-7.4,0.5-15.1-2.2-22.1c-3-7.8-9.1-14.1-15.4-19.5
	c-6.6-5.7-13.9-10.9-22.1-13.9c-9.8-3.7-20.5-4.2-30.9-5.1c-21.4-1.8-42.7-5.2-63.6-10.2c-19.8-4.7-41.6-9.9-59.7-19.6
	C80.3,0.2,71.7,0.5,61.5,0.2z"/>
<g class="st1">
	<path class="st2" d="M187.2,165.1c0,0,0.9-13,8.2-20.1c3.1-3,5.1-6.8,5.8-11.1c0.3-2,0.4-4,0.4-6.1"/>
	<path class="st2" d="M206.3,123.4c-0.5,1.4-4.7,4.6-4.7,4.6s-1-5.1-0.5-6.6c0.5-1.4,2.1-2.2,3.6-1.6
		C206.1,120.4,206.8,122,206.3,123.4z"/>
	<path class="st2" d="M207.6,133c-1.2,0.9-6.5,1.3-6.5,1.3s1.9-4.9,3.1-5.8c1.3-0.9,3-0.6,3.9,0.7C209,130.4,208.7,132.1,207.6,133
		L207.6,133z"/>
	<path class="st2" d="M202.3,146.5c-1.5,0.2-6.2-2.1-6.2-2.1s4.1-3.2,5.6-3.4c1.5-0.1,2.8,1.1,2.9,2.6
		C204.7,145,203.7,146.3,202.3,146.5z"/>
	<path class="st2" d="M196,155.8c-1.5,0.4-6.5-1-6.5-1s3.5-3.9,5-4.3c1.5-0.5,3,0.3,3.5,1.8s-0.3,3-1.8,3.5
		C196.1,155.8,196.1,155.8,196,155.8L196,155.8z"/>
	<path class="st2" d="M195.6,132.5c0.7,1.4,5.1,4.2,5.1,4.2s0.6-5.2,0-6.6c-0.7-1.4-2.4-1.9-3.7-1.2
		C195.5,129.6,195,131.2,195.6,132.5z"/>
	<path class="st2" d="M188.3,143.5c1,1.1,6.1,2.5,6.1,2.5s-1-5.2-2-6.3s-2.8-1.2-3.9-0.1C187.4,140.7,187.3,142.4,188.3,143.5z"/>
	<path class="st2" d="M182.8,155.2c0.8,1.3,5.6,3.5,5.6,3.5s-0.1-5.2-0.9-6.5c-0.9-1.3-2.6-1.6-3.9-0.7
		C182.4,152.3,182,154,182.8,155.2L182.8,155.2z"/>
	<path class="st2" d="M206.3,123.4c-0.5,1.4-4.7,4.6-4.7,4.6s-1-5.1-0.5-6.6c0.5-1.4,2.1-2.2,3.6-1.6
		C206.1,120.4,206.8,122,206.3,123.4z"/>
	<path class="st2" d="M207.6,133c-1.2,0.9-6.5,1.3-6.5,1.3s1.9-4.9,3.1-5.8c1.3-0.9,3-0.6,3.9,0.7C209,130.4,208.7,132.1,207.6,133
		L207.6,133z"/>
	<path class="st2" d="M202.3,146.5c-1.5,0.2-6.2-2.1-6.2-2.1s4.1-3.2,5.6-3.4c1.5-0.1,2.8,1.1,2.9,2.6
		C204.7,145,203.7,146.3,202.3,146.5z"/>
	<path class="st2" d="M196,155.8c-1.5,0.4-6.5-1-6.5-1s3.5-3.9,5-4.3c1.5-0.5,3,0.3,3.5,1.8s-0.3,3-1.8,3.5
		C196.1,155.8,196.1,155.8,196,155.8L196,155.8z"/>
	<path class="st2" d="M195.6,132.5c0.7,1.4,5.1,4.2,5.1,4.2s0.6-5.2,0-6.6c-0.7-1.4-2.4-1.9-3.7-1.2
		C195.5,129.6,195,131.2,195.6,132.5z"/>
	<path class="st2" d="M188.3,143.5c1,1.1,6.1,2.5,6.1,2.5s-1-5.2-2-6.3s-2.8-1.2-3.9-0.1C187.4,140.7,187.3,142.4,188.3,143.5z"/>
	<path class="st2" d="M182.8,155.2c0.8,1.3,5.6,3.5,5.6,3.5s-0.1-5.2-0.9-6.5c-0.9-1.3-2.6-1.6-3.9-0.7
		C182.4,152.3,182,154,182.8,155.2L182.8,155.2z"/>
</g>
<g class="st1">
	<path class="st2" d="M189.8,115.9c0,0,0.9-13,8.2-20.1c3.1-3,5.1-6.8,5.8-11.1c0.3-2,0.4-4,0.4-6.1"/>
	<path class="st2" d="M208.8,74.2c-0.5,1.4-4.7,4.6-4.7,4.6s-1-5.1-0.5-6.6c0.5-1.4,2.1-2.2,3.6-1.6
		C208.6,71.1,209.4,72.7,208.8,74.2z"/>
	<path class="st2" d="M210.2,83.7c-1.2,0.9-6.5,1.3-6.5,1.3s1.9-4.9,3.1-5.8c1.2-0.9,3-0.7,3.9,0.5S211.4,82.7,210.2,83.7
		C210.2,83.7,210.2,83.7,210.2,83.7z"/>
	<path class="st2" d="M204.9,97.2c-1.5,0.2-6.2-2.1-6.2-2.1s4.1-3.2,5.6-3.4c1.5-0.2,2.9,0.9,3.1,2.4c0.2,1.5-0.9,2.9-2.4,3.1
		C205,97.3,204.9,97.3,204.9,97.2L204.9,97.2z"/>
	<path class="st2" d="M198.6,106.6c-1.5,0.4-6.5-1-6.5-1s3.5-3.9,5-4.3s3,0.5,3.4,1.9S200,106.2,198.6,106.6L198.6,106.6z"/>
	<path class="st2" d="M198.1,83.3c0.7,1.4,5.1,4.2,5.1,4.2s0.6-5.2,0-6.6s-2.3-2-3.7-1.4C198.1,80.2,197.5,81.8,198.1,83.3
		C198.1,83.2,198.1,83.3,198.1,83.3L198.1,83.3z"/>
	<path class="st2" d="M190.9,94.3c1,1.1,6.1,2.5,6.1,2.5s-1-5.2-2-6.3c-1.1-1.1-2.8-1.1-3.9-0.1C190,91.5,189.9,93.2,190.9,94.3z"/>
	<path class="st2" d="M185.4,106c0.8,1.3,5.6,3.5,5.6,3.5s-0.1-5.2-0.9-6.5c-0.8-1.3-2.5-1.7-3.8-0.9S184.6,104.6,185.4,106
		C185.3,105.9,185.3,105.9,185.4,106L185.4,106z"/>
	<path class="st2" d="M208.8,74.2c-0.5,1.4-4.7,4.6-4.7,4.6s-1-5.1-0.5-6.6c0.5-1.4,2.1-2.2,3.6-1.6
		C208.6,71.1,209.4,72.7,208.8,74.2z"/>
	<path class="st2" d="M210.2,83.7c-1.2,0.9-6.5,1.3-6.5,1.3s1.9-4.9,3.1-5.8c1.2-0.9,3-0.7,3.9,0.5S211.4,82.7,210.2,83.7
		C210.2,83.7,210.2,83.7,210.2,83.7z"/>
	<path class="st2" d="M204.9,97.2c-1.5,0.2-6.2-2.1-6.2-2.1s4.1-3.2,5.6-3.4c1.5-0.2,2.9,0.9,3.1,2.4c0.2,1.5-0.9,2.9-2.4,3.1
		C205,97.3,204.9,97.3,204.9,97.2L204.9,97.2z"/>
	<path class="st2" d="M198.6,106.6c-1.5,0.4-6.5-1-6.5-1s3.5-3.9,5-4.3s3,0.5,3.4,1.9S200,106.2,198.6,106.6L198.6,106.6z"/>
	<path class="st2" d="M198.1,83.3c0.7,1.4,5.1,4.2,5.1,4.2s0.6-5.2,0-6.6s-2.3-2-3.7-1.4C198.1,80.2,197.5,81.8,198.1,83.3
		C198.1,83.2,198.1,83.3,198.1,83.3L198.1,83.3z"/>
	<path class="st2" d="M190.9,94.3c1,1.1,6.1,2.5,6.1,2.5s-1-5.2-2-6.3c-1.1-1.1-2.8-1.1-3.9-0.1C190,91.5,189.9,93.2,190.9,94.3z"/>
	<path class="st2" d="M185.4,106c0.8,1.3,5.6,3.5,5.6,3.5s-0.1-5.2-0.9-6.5c-0.8-1.3-2.5-1.7-3.8-0.9S184.6,104.6,185.4,106
		C185.3,105.9,185.3,105.9,185.4,106L185.4,106z"/>
</g>
<g class="st1">
	<path class="st2" d="M50.7,132.9c0,0-11.2-6.7-14.2-16.4c-1.2-4.1-3.8-7.7-7.2-10.2c-1.6-1.2-3.4-2.2-5.2-3.1"/>
	<path class="st2" d="M22,97.1c1,1.1,2,6.3,2,6.3s-5.1-1.4-6.1-2.5c-1-1.2-0.9-2.9,0.3-3.9C19.3,96,20.9,96.1,22,97.1L22,97.1z"/>
	<path class="st2" d="M31.1,100.3c0.3,1.5-1.7,6.4-1.7,6.4s-3.5-3.9-3.8-5.4s0.7-3,2.2-3.3s3,0.7,3.3,2.2
		C31.1,100.2,31.1,100.2,31.1,100.3z"/>
	<path class="st2" d="M40.8,111c-0.5,1.4-4.7,4.6-4.7,4.6s-1-5.1-0.5-6.6s2.1-2.2,3.5-1.7c1.5,0.5,2.2,2.1,1.7,3.5
		C40.9,110.9,40.8,111,40.8,111L40.8,111z"/>
	<path class="st2" d="M46.3,120.9c-0.3,1.5-3.8,5.4-3.8,5.4s-1.9-4.9-1.6-6.4c0.3-1.5,1.7-2.5,3.2-2.2
		C45.6,117.9,46.6,119.4,46.3,120.9L46.3,120.9L46.3,120.9z"/>
	<path class="st2" d="M25.3,110.8c1.5,0,6-2.6,6-2.6s-4.4-2.9-5.9-2.9s-2.8,1.2-2.8,2.8C22.7,109.5,23.8,110.7,25.3,110.8
		L25.3,110.8z"/>
	<path class="st2" d="M31.9,122.2c1.5-0.4,5-4.3,5-4.3s-5-1.4-6.5-1c-1.5,0.5-2.3,2-1.8,3.5C29,121.8,30.5,122.6,31.9,122.2
		L31.9,122.2z"/>
	<path class="st2" d="M39.8,132.4c1.5-0.2,5.6-3.4,5.6-3.4s-4.7-2.3-6.2-2.1c-1.5,0.1-2.7,1.4-2.6,2.9s1.4,2.7,2.9,2.6
		C39.6,132.4,39.7,132.4,39.8,132.4z"/>
	<path class="st2" d="M22,97.1c1,1.1,2,6.3,2,6.3s-5.1-1.4-6.1-2.5c-1-1.2-0.9-2.9,0.3-3.9C19.3,96,20.9,96.1,22,97.1L22,97.1z"/>
	<path class="st2" d="M31.1,100.3c0.3,1.5-1.7,6.4-1.7,6.4s-3.5-3.9-3.8-5.4s0.7-3,2.2-3.3s3,0.7,3.3,2.2
		C31.1,100.2,31.1,100.2,31.1,100.3z"/>
	<path class="st2" d="M40.8,111c-0.5,1.4-4.7,4.6-4.7,4.6s-1-5.1-0.5-6.6s2.1-2.2,3.5-1.7c1.5,0.5,2.2,2.1,1.7,3.5
		C40.9,110.9,40.8,111,40.8,111L40.8,111z"/>
	<path class="st2" d="M46.3,120.9c-0.3,1.5-3.8,5.4-3.8,5.4s-1.9-4.9-1.6-6.4c0.3-1.5,1.7-2.5,3.2-2.2
		C45.6,117.9,46.6,119.4,46.3,120.9L46.3,120.9L46.3,120.9z"/>
	<path class="st2" d="M25.3,110.8c1.5,0,6-2.6,6-2.6s-4.4-2.9-5.9-2.9s-2.8,1.2-2.8,2.8C22.7,109.5,23.8,110.7,25.3,110.8
		L25.3,110.8z"/>
	<path class="st2" d="M31.9,122.2c1.5-0.4,5-4.3,5-4.3s-5-1.4-6.5-1c-1.5,0.5-2.3,2-1.8,3.5C29,121.8,30.5,122.6,31.9,122.2
		L31.9,122.2z"/>
	<path class="st2" d="M39.8,132.4c1.5-0.2,5.6-3.4,5.6-3.4s-4.7-2.3-6.2-2.1c-1.5,0.1-2.7,1.4-2.6,2.9s1.4,2.7,2.9,2.6
		C39.6,132.4,39.7,132.4,39.8,132.4z"/>
</g>
<path class="st3" d="M187.9,211.4c7.5,3.3,16.7,1.3,25.3,1.5c1.2,0,2.4,0.1,3.3,0.7c0.9,0.6,1.4,1.5,2,2.3c2.4,2.9,7.3,3.9,11.6,3.4
	s8.2-2.1,12.3-3.4c7-2.2,15-3.1,21.9-0.8c0.6,0.2,1.3,0.5,2,0.4c1.5-0.2,2-1.8,3-2.7c1.9-1.6,6.1-1.2,6.9-3.3
	c0.5-1.2-0.6-2.5-1.9-3.4c-4.7-3.3-11.5-3.8-17.6-3.3c-6.2,0.5-12.2,1.9-18.4,1.9c-7.7,0-15.2-2.1-22.8-3
	c-5.3-0.6-11.1-0.5-16.1,1.3C194,204.9,192.8,209.2,187.9,211.4z"/>
<path class="st3" d="M45.5,201.4c12.8,3.7,28.5,1.4,43.1,1.7c2,0,4.1,0.1,5.7,0.8c1.6,0.6,2.4,1.7,3.5,2.6
	c4.1,3.3,12.5,4.4,19.8,3.8c7.3-0.6,14-2.4,20.9-3.8c11.9-2.4,25.6-3.6,37.4-0.9c1.1,0.2,2.2,0.5,3.4,0.4c2.6-0.2,3.3-2,5.2-3
	c3.3-1.8,10.3-1.3,11.8-3.7c0.8-1.4-1.1-2.9-3.2-3.8c-8-3.7-19.6-4.3-30.1-3.7s-20.9,2.1-31.5,2.1c-13.2,0-25.9-2.4-39-3.4
	c-9-0.7-18.9-0.6-27.4,1.4C55.8,194,53.8,198.9,45.5,201.4z"/>
<path class="st3" d="M11.1,210.5c3.7,2.2,8.1,0.9,12.3,1c0.6,0,1.2,0.1,1.6,0.5c0.5,0.4,0.7,1,1,1.5c1.2,2,3.6,2.6,5.6,2.3
	c2.1-0.3,4-1.4,6-2.3c3.4-1.5,7.3-2.1,10.6-0.5c0.3,0.2,0.6,0.3,1,0.3c0.7-0.1,1-1.2,1.5-1.8c0.9-1.1,2.9-0.8,3.4-2.2
	c0.2-0.8-0.3-1.7-0.9-2.3c-2.3-2.2-5.6-2.6-8.6-2.2c-3,0.3-6,1.3-9,1.3c-3.8,0-7.4-1.4-11.1-2c-2.6-0.4-5.4-0.4-7.8,0.8
	C14,206.1,13.4,209,11.1,210.5z"/>
<linearGradient id="SVGID_1_" gradientUnits="userSpaceOnUse" x1="180.92" y1="390.05" x2="180.92" y2="199.05" gradientTransform="matrix(1 0 0 1 -59.52 -189.65)">
	<stop  offset="0" style="stop-color:#808080;stop-opacity:0.25"/>
	<stop  offset="0.54" style="stop-color:#808080;stop-opacity:0.12"/>
	<stop  offset="1" style="stop-color:#808080;stop-opacity:0.1"/>
</linearGradient>
<path class="st4" d="M182.4,9.4H60.5c-6.2,0-11.2,5-11.2,11.1l0,0v168.8c0,6.2,5,11.1,11.2,11.1h121.8c6.2,0,11.2-5,11.2-11.1l0,0
	V20.5C193.5,14.3,188.5,9.4,182.4,9.4L182.4,9.4z"/>
<path class="st5" d="M56.3,11.6h130.3c2.9,0,5.2,2.3,5.2,5.2v176.6c0,2.9-2.3,5.2-5.2,5.2H56.3c-2.9,0-5.2-2.3-5.2-5.2V16.9
	C51.1,14,53.4,11.6,56.3,11.6z"/>
<rect x="58.2" y="29.3" class="st6" width="126.4" height="151.7"/>
<circle class="st6" cx="120.9" cy="20.2" r="1.7"/>
<circle class="st6" cx="120.9" cy="189.6" r="5.2"/>
<g class="st7">
	<rect x="58.2" y="29.3" class="st2" width="126.4" height="7.6"/>
</g>
<circle class="st6" cx="62.2" cy="33.1" r="1.6"/>
<circle class="st6" cx="66.3" cy="33.1" r="1.6"/>
<circle class="st6" cx="70.4" cy="33.1" r="1.6"/>
<rect x="62" y="73.9" class="st8" width="117.7" height="0.4"/>
<rect x="62" y="83.1" class="st8" width="117.7" height="0.4"/>
<rect x="62" y="92.2" class="st8" width="117.7" height="0.4"/>
<rect x="62" y="101.3" class="st8" width="117.7" height="0.4"/>
<rect x="62" y="110.5" class="st8" width="117.7" height="0.4"/>
<g class="st7">
	<polygon class="st2" points="179.7,110.9 61.9,110.9 61.9,92.9 72.7,98.2 83.9,99.7 93.7,96.8 105.5,87.6 111.5,84.2 115.8,83.3 
		120,83.5 126.9,86.9 136.2,92.9 143.5,93.8 149.3,91.8 161.6,81.7 167.8,79.5 174.4,80.5 179.7,83.6 	"/>
</g>
<path class="st2" d="M82.4,99.7c-10.6,0-20.4-6.5-20.6-6.6l0.3-0.4c0.2,0.1,15.3,10.1,28.1,5.1c4.7-1.8,8-4.7,11.2-7.4
	c3.4-2.9,6.5-5.6,10.9-6.7c5-1.3,10.4-0.1,14.5,3.3c3.5,2.9,10.5,7.5,18,6.2c3.8-0.7,7-3.5,10.3-6.4c6.5-5.6,13.2-11.4,24.7-3.1
	l-0.3,0.4c-11.2-8.1-17.8-2.4-24.1,3.1c-3.4,3-6.7,5.8-10.6,6.5c-7.6,1.4-14.8-3.3-18.4-6.3c-4-3.3-9.2-4.5-14-3.2
	c-4.2,1.1-7.3,3.8-10.7,6.6c-3.3,2.8-6.6,5.6-11.4,7.5C87.9,99.3,85.1,99.8,82.4,99.7z"/>
<circle class="st2" cx="118.7" cy="83.3" r="2.9"/>
<g class="st7">
	<path class="st2" d="M156.7,44.7h-36.8c-0.3,0-0.6,0.3-0.6,0.6l0,0v24.9c0,0.3,0.3,0.6,0.6,0.6c0.2,0,0.3-0.1,0.4-0.2l6.4-6.8
		c0.1-0.1,0.3-0.2,0.4-0.2h29.6c0.3,0,0.6-0.3,0.6-0.6l0,0V45.3C157.3,44.9,157.1,44.7,156.7,44.7z"/>
</g>
<rect x="127.8" y="49.3" class="st6" width="21" height="2.6"/>
<rect x="127.8" y="55.1" class="st6" width="5.8" height="2.6"/>
<g class="st7">
	<rect x="71.9" y="129.6" class="st2" width="5.8" height="2.6"/>
</g>
<g class="st7">
	<rect x="71.9" y="134.7" class="st2" width="5.8" height="2.6"/>
</g>
<g class="st7">
	<rect x="71.9" y="139.8" class="st2" width="5.8" height="2.6"/>
</g>
<g class="st7">
	<rect x="71.9" y="144.8" class="st2" width="5.8" height="2.6"/>
</g>
<g class="st7">
	<rect x="71.9" y="149.9" class="st2" width="5.8" height="2.6"/>
</g>
<g class="st7">
	<rect x="71.9" y="155" class="st2" width="5.8" height="2.6"/>
</g>
<g class="st7">
	<rect x="71.9" y="160" class="st2" width="5.8" height="2.6"/>
</g>
<g class="st7">
	<rect x="71.9" y="165.1" class="st2" width="5.8" height="2.6"/>
</g>
<g class="st7">
	<rect x="82.8" y="167.7" class="st2" width="5.8" height="2.6"/>
</g>
<g class="st7">
	<rect x="92.9" y="167.7" class="st2" width="5.8" height="2.6"/>
</g>
<g class="st7">
	<rect x="103.1" y="167.7" class="st2" width="5.8" height="2.6"/>
</g>
<g class="st7">
	<rect x="113.2" y="167.7" class="st2" width="5.8" height="2.6"/>
</g>
<g class="st7">
	<rect x="123.3" y="167.7" class="st2" width="5.8" height="2.6"/>
</g>
<g class="st7">
	<rect x="133.5" y="167.7" class="st2" width="5.8" height="2.6"/>
</g>
<g class="st7">
	<rect x="143.6" y="167.7" class="st2" width="5.8" height="2.6"/>
</g>
<g class="st7">
	<rect x="153.8" y="167.7" class="st2" width="5.8" height="2.6"/>
</g>
<g class="st7">
	<rect x="163.9" y="167.7" class="st2" width="5.8" height="2.6"/>
</g>
<rect x="140.1" y="55.1" class="st6" width="8.7" height="2.6"/>
<rect x="82.8" y="148.7" class="st2" width="5.8" height="16.4"/>
<rect x="92.9" y="141.1" class="st2" width="5.8" height="24"/>
<rect x="103.1" y="134.7" class="st2" width="5.8" height="30.4"/>
<rect x="113.2" y="138" class="st2" width="5.8" height="27.1"/>
<rect x="123.3" y="132.2" class="st2" width="5.8" height="32.9"/>
<g class="st7">
	<rect x="133.5" y="144.8" class="st2" width="5.8" height="20.3"/>
</g>
<g class="st7">
	<rect x="143.6" y="144.8" class="st2" width="5.8" height="20.3"/>
</g>
<g class="st7">
	<rect x="153.8" y="144.8" class="st2" width="5.8" height="20.3"/>
</g>
<g class="st7">
	<rect x="163.9" y="144.8" class="st2" width="5.8" height="20.3"/>
</g>
<linearGradient id="SVGID_2_" gradientUnits="userSpaceOnUse" x1="293.0369" y1="401.0414" x2="293.0369" y2="228.0774" gradientTransform="matrix(1 0 0 1 -59.52 -189.65)">
	<stop  offset="0" style="stop-color:#808080;stop-opacity:0.25"/>
	<stop  offset="0.54" style="stop-color:#808080;stop-opacity:0.12"/>
	<stop  offset="1" style="stop-color:#808080;stop-opacity:0.1"/>
</linearGradient>
<path class="st9" d="M259.5,71.5c-6.2-3.6-8.6-4.5-8.6-4.5l-0.1-0.1c-0.7-0.5-1.2-1.2-1.6-2c0-0.1,0-0.3,0-0.4l0,0
	c0.1-1.9,1.5-3.6,2.7-5.1l3.3-3.9c0.4-0.4,0.7-0.8,0.8-1.3c0.1-0.3,0.1-0.5,0.1-0.8c0-0.1,0-0.2,0-0.3c0-1,0-1.9-0.1-2.9
	c0-0.8-0.2-1.9-1.1-2.1c-0.4-0.1-1,0.1-1.2-0.3c-0.1-0.2-0.1-0.3-0.1-0.5l0,0l0,0c0.2-0.6,0.3-1.3,0.3-2c0-0.3,0-0.7-0.1-1
	c-0.5-1.4-2.2-2-3.6-2.2c-1.5-0.3-3.1-0.5-4.1-1.6c-0.3-0.4-0.5-0.8-0.8-1.1c-0.4-0.4-0.9-0.6-1.5-0.7c-1.8-0.5-3.8-0.3-5.5,0.5
	c-0.7,0.3-1.4,0.7-2.2,0.7s-1.5-0.6-2.3-0.7c-1.3-0.2-2.5,0.7-3.2,1.9c-0.4,0.7-0.6,1.4-0.6,2.2v0.1l0,0c0,0.8,0.3,1.6,0.8,2.2
	c0.6,0.6,1.4,1,1.6,1.7c0.1,0.3,0.1,0.6,0.2,1v0.1v0.1c-1.3,1.7-2.1,3.8-2.1,6c0,4.3,2.9,8.1,7,9.4c0,0.1,0,0.2,0,0.3
	c0,1.2-0.3,2.4-1.4,3.3l-8.8,3.6c0,0-5.3-0.6-7.2,7.1c-0.3,1.3-0.4,2.6-0.3,3.9c0.1,1.2-0.1,3.2-1.5,5.9c-2.2,4.3-1.7,14.1,2.8,15.1
	c4.2,0.9,5.9,0.5,6,0.5v0.2c-0.1,1.8-0.7,17.7-3.2,19.6c-0.7,0.5-0.5,0.9,0,1.1c0,0,0,0.1,0,0.3c-0.1,1.2-0.4,5.6-2.1,8.1
	c-1.9,2.9-1.7,19.7-1.7,19.7l-1.3,9.9c0,0,0.8,6.1,0,7.2c-0.7,1-1.7,23.6-1.8,28.5h-0.1c-0.8,0-1.5,0.5-1.9,1.2
	c-1,1.7-4.7,4.8-4.7,4.8c-0.8,1.1-3.7,2.2-5.3,2.7c-0.2,0.1-0.4,0.2-0.6,0.3c-0.6,0.3-1,0.8-1.3,1.4c-0.2,0.4-0.3,0.8-0.1,1.2
	c0.4,1,8.6,1.6,10.7,0.7c1.6-0.8,8.1-1.8,10.8-2.2c1-0.1,1.8-0.9,1.9-1.9c0-0.3,0-0.7-0.3-1l0,0c-0.5-0.6-0.8-2.4-0.9-3.5
	c0.2-0.1,0.4-0.2,0.6-0.4c-0.2-3.5,0.3-7.1,1.5-10.4c2-5.2,2.6-15,2.1-21.3c0,0,6.1-26,10.8-28.5l0,0c0.1,0.1,2.4,3.1,2.7,12.2
	c0.3,9.3,3.7,15.4,3.7,15.4s-1.5,15.8,0,21.8l-1.9,9.4c-0.1-0.1-0.2-0.2-0.2-0.2s0.1,0.3,0.1,0.7v0.2h0.1c0.2,1.2,0.5,3.2,0.4,4.4
	c-0.1,0.7-0.3,1.6-0.4,2.5c-0.2,1.4-0.3,2.8,0.5,3.1c1.2,0.5,8.5,1.2,9.8-0.4c0.6-0.7,0.7-1.6,0.4-2.4c-0.1-0.2-0.2-0.4-0.4-0.6
	c0,0-1.9-3.2-1.4-5.4c0.1-0.4,0-0.9-0.2-1.3c0.1-1.1,0.5-6.2,1.7-10.5c1.2-4.7,3.9-14.9,1.9-21.7l0,0c-0.1-0.3-0.2-0.5-0.2-0.8
	c-1.1-3.7-1.5-7.5-1.1-11.4c-0.7-3.3-0.7-6.6,0-9.9c1.2-5.4,2-10.8,2-10.8s0.7-7.2,0.1-11.6v-0.3l0.3-0.1c0,0-1.7-7.5-2.3-12.2
	c-0.1-1.1-0.3-2.5-0.5-4.1c0.5-0.1,1.1-0.2,1.6-0.4c5.3-1.9,7-18.6,7-18.6V83C263.9,83.2,265.7,75.1,259.5,71.5z M219.6,200.5
	c-0.2-0.1-0.3-0.1-0.3-0.1l0,0L219.6,200.5z"/>
<path class="st10" d="M256.2,167.9c2.3,6.7-0.4,17.5-1.6,22.4S253,201,253,201c-4.9,0.8-8.5-0.2-8.5-0.2l2-10
	c-1.5-5.9,0-21.7,0-21.7s-3.3-6.1-3.6-15.4c-0.3-9.2-2.5-12.1-2.6-12.2l0,0c-4.6,2.4-10.6,28.4-10.6,28.4c0.5,6.3-0.1,16-2,21.2
	c-1.2,3.3-1.7,6.8-1.5,10.4c-0.7,0.6-1.6,0.7-2.6,0.5c-2.8-0.5-6.1-2.8-6.1-2.8s1-28.3,1.8-29.3c0.8-1.1,0-7.2,0-7.2l1.3-9.9
	c0,0-0.2-16.8,1.6-19.7c1.6-2.5,2-6.9,2-8.1c0-0.2,0-0.3,0-0.3l2.8-3.4c0,0,27.1-2,29.1,0c0.5,0.5,0.8,1.6,1,3.1
	c0.6,4.4-0.1,11.6-0.1,11.6s-0.8,5.3-2,10.8c-0.7,3.3-0.7,6.6,0,9.9C254.8,160.4,255.1,164.2,256.2,167.9z"/>
<path class="st11" d="M254.5,210.4c-1.2,1.6-8.3,0.9-9.5,0.4c-0.7-0.3-0.7-1.7-0.5-3.1c0.1-0.9,0.3-1.8,0.4-2.5
	c0.2-1.7-0.6-5.3-0.6-5.3s1.6,1.7,2,0c0.2-0.7,0.8-1.1,1.4-1.3c0.8-0.2,1.7-0.2,2.5,0.2c1.3,0.5,3.4,1.7,3,3.3
	c-0.5,2.2,1.4,5.4,1.4,5.4c0.1,0.2,0.3,0.4,0.4,0.6C255.2,208.8,255.1,209.7,254.5,210.4z"/>
<path class="st12" d="M254.5,210.4c-1.2,1.6-8.3,0.9-9.5,0.4c-0.7-0.3-0.7-1.7-0.5-3.1c0.8,0.4,2.1,0.7,4.2,0.5c0.5,0,1-0.1,1.5,0
	c1.5,0.1,3.1,0,4.6-0.1C255.2,208.8,255.1,209.7,254.5,210.4z"/>
<path class="st12" d="M229.7,169.8c0.5,6.3-0.1,16-2,21.2c-1.2,3.3-1.7,6.8-1.5,10.4c-0.7,0.6-1.6,0.7-2.6,0.5
	c0.6-4.1,3.1-21.7,4.7-35.6c1.8-15.8,10.3-26.7,10.3-26.7l1.7,1.9C235.6,143.9,229.7,169.8,229.7,169.8z"/>
<path class="st13" d="M251.6,68.1l-1.2,5.8l-5.8,9.7l-7.1-3c0,0-9.7-10.2-3.6-11.6c0.7-0.2,1.4-0.5,2-0.9c1.2-0.9,1.6-2.2,1.6-3.5
	c0-2.1-1-4.2-1-4.2l12.5-3.9c-0.5,1.6-0.8,3.3-0.9,5.1c-0.1,3.4,1.2,5.1,2.2,5.9C250.7,67.7,251.2,67.9,251.6,68.1z"/>
<path class="st12" d="M249,56.4c-0.5,1.6-0.8,3.3-0.9,5.1c-0.2,0.3-0.5,0.5-0.7,0.8c-2.6,2.5-6.4,3.4-9.9,2.3c0-2.1-1-4.2-1-4.2
	L249,56.4z"/>
<path class="st13" d="M250.4,54.9c0,5.5-4.4,9.9-9.9,9.9s-9.9-4.4-9.9-9.9s4.4-9.9,9.9-9.9l0,0C246,45,250.4,49.3,250.4,54.9
	C250.4,54.8,250.4,54.8,250.4,54.9z"/>
<path class="st12" d="M251.6,68.1l-1.2,5.8l-5.8,9.7l-7.1-3c0,0-9.7-10.2-3.6-11.6c0.7-0.2,1.4-0.5,2-0.9c-1.1,3,3.4,9.3,3.4,9.3
	c0.5,0.8,1.7,0.3,1.7,0.3c2.9-0.4,8.3-8.9,9.2-10.3C250.7,67.7,251.2,67.9,251.6,68.1z"/>
<path class="st12" d="M257.2,124.4c-1.7,0.4-11.2,2.5-14.8,2c-4-0.6-11.7-1-11.7-1s-4.9,0.3-6.4-0.4c0-0.2,0-0.3,0-0.3l2.8-3.4
	c0,0,27.1-2,29.1,0C256.7,121.8,257,123,257.2,124.4z"/>
<path class="st14" d="M239.4,77.7c0,0-5.1-7.1-3.2-9.8l-8.6,3.5c0,0-5.2-0.6-7.1,7.1c-0.3,1.3-0.4,2.6-0.3,3.9
	c0.1,1.2-0.1,3.2-1.4,5.9c-2.1,4.3-1.6,14,2.7,15c4.4,1,5.9,0.5,5.9,0.5s-0.6,17.7-3.1,19.8c-2.5,2,6.4,1.5,6.4,1.5s7.7,0.4,11.7,1
	s15.1-2,15.1-2s-1.6-7.5-2.2-12.2c-0.6-4.7-1.9-14.8-1.9-14.8l9.9-13.4c0,0,1.7-8.1-4.4-11.7s-8.4-4.5-8.4-4.5s-6.1,10-9.3,10.5
	C241.1,77.9,239.9,78.4,239.4,77.7z"/>
<path class="st12" d="M228.1,80.5c0,0-0.1,3.2,0.5,4.5s2.7,8.2,2.7,8.2h-4.8c0,0,2.6-2.8,2.4-4.2C228.6,87.6,228.1,80.5,228.1,80.5z
	"/>
<path class="st13" d="M242.4,104.6c0,0-10.7-2.6-11.7-4.8s-3.7-7.2-3.7-7.2l1.1-1.5l5.2,4.1c0,0,6.2,4.9,9.1,5.4
	C245.3,101,242.4,104.6,242.4,104.6z"/>
<path class="st15" d="M242.4,104.6c0,0-10.7-2.6-11.7-4.8s-3.7-7.2-3.7-7.2l1.1-1.5l5.2,4.1c0,0,6.2,4.9,9.1,5.4
	C245.3,101,242.4,104.6,242.4,104.6z"/>
<path class="st13" d="M251.6,92v5.8h-0.9c-4.6,0-9.1,1.2-13.2,3.4l-1.7,1l-0.5,0.3l-3-6.8l2.8-2.5h0.1c0.7,0.1,3.7,0.3,4.9-0.1
	s2.7-1.7,6.2-0.8c1.7,0.4,3.2,2.4,4.9,1.8L251.6,92z"/>
<path class="st12" d="M261,81.4l1.9,2.2v5.3c0,0-1.6,16.7-6.9,18.5c-5.2,1.8-14.6-1.1-14.6-1.1s-2.4-6.4-1.3-6.8
	c1.1-0.4,10-2.7,10-2.7S250,87,252,84.1c0,0-1.3-9.1,3.1-9.3C259.4,74.7,261,81.4,261,81.4z"/>
<path class="st14" d="M261.3,81.4l1.9,2.2v5.3c0,0-1.6,16.7-6.9,18.5c-5.2,1.8-14.6-1.1-14.6-1.1s-2.4-6.4-1.3-6.8
	c1.1-0.4,10-2.7,10-2.7s-0.1-9.8,1.8-12.7c0,0-1.3-9.1,3.1-9.3C259.7,74.7,261.3,81.4,261.3,81.4z"/>
<path class="st12" d="M247.7,59c0-0.6,0.1-1.3-0.2-1.9c-0.3-0.6-0.9-1-1.5-0.9c-0.8,0.2-1.2,1.3-2,1.5c-0.7,0.2-1.4-0.3-1.8-0.9
	c-0.3-0.6-0.3-1.4-0.3-2.1c0-0.8,0-1.6,0-2.4c0-0.9,0-1.8-0.6-2.5c-0.7-0.9-2.3-1.2-3.3-1.2c-0.7,0-1.4,0.3-1.9,0.8
	c-0.6,0.5-1.2,0.8-2,0.7c-0.7-0.1-1.2-0.6-1.4-1.2l0,0c3.3-4.3,9.5-5.2,13.8-1.9s5.2,9.5,1.9,13.8c-0.3,0.4-0.7,0.8-1.1,1.2
	C247.6,61,247.7,60,247.7,59z"/>
<path class="st16" d="M234.1,49.8c-0.7-0.1-1.2-0.6-1.4-1.2c-0.1-0.3-0.1-0.6-0.2-1c-0.2-0.8-1-1.2-1.6-1.7c-1.1-1.2-1-3.1-0.2-4.5
	c0.6-1.1,1.8-2.1,3.1-1.9c0.8,0.1,1.5,0.7,2.3,0.7s1.5-0.4,2.2-0.7c1.7-0.8,3.6-0.9,5.4-0.5c0.5,0.1,1.1,0.4,1.5,0.7
	c0.3,0.4,0.5,0.7,0.8,1.1c0.9,1.2,2.5,1.4,4,1.6c1.4,0.3,3.1,0.8,3.5,2.2c0.3,0.9,0,1.9-0.2,2.9c-0.1,0.2,0,0.4,0,0.6
	c0.2,0.4,0.8,0.2,1.2,0.3c0.8,0.2,1,1.2,1,2.1c0,1,0.1,1.9,0.1,2.9c0.1,0.9-0.2,1.8-0.9,2.4l-3.2,3.8c-1.4,1.7-2.9,3.7-2.6,5.9
	c-0.7,0.3-1.5-0.3-1.7-1c-0.2-0.7,0-1.5,0.1-2.2c0.3-1.2,0.4-2.5,0.5-3.8c0-0.6,0.1-1.3-0.2-1.9c-0.3-0.6-0.9-1-1.5-0.9
	c-0.8,0.2-1.2,1.3-2,1.5c-0.7,0.2-1.4-0.3-1.8-0.9c-0.3-0.6-0.3-1.4-0.3-2.1v-2.4c0-0.9,0-1.8-0.6-2.5c-0.7-0.9-2.3-1.2-3.3-1.2
	c-0.7,0-1.4,0.3-1.9,0.8C235.5,49.6,234.9,50,234.1,49.8z"/>
<path class="st12" d="M236.3,80.2l3,12.5C239.4,92.7,241.8,92.7,236.3,80.2z"/>
<path class="st12" d="M246.7,78.1c0,0-4,6.5-2.4,13.2l0.7,0.1C245,91.4,243.7,88.3,246.7,78.1z"/>
<path class="st12" d="M249.2,114.9c0,0,4.9-1.6,5.2,2.1C254.4,117.1,253.5,114.5,249.2,114.9z"/>
<path class="st12" d="M235.1,93.4c0,0-1,6.8,0.8,9.5c0,0-3.5,1.5-8.5,1.2l-0.6-10.7H235.1z"/>
<path class="st12" d="M235.8,102.2l-0.5,0.3l-3-6.8l2.8-2.5h0.1l0,0C235.2,93.5,234.4,99.3,235.8,102.2z"/>
<path class="st14" d="M235.1,93.1c0,0-1,6.8,0.8,9.5c0,0-3.5,1.5-8.5,1.2L224,93.1H235.1z"/>
<path class="st11" d="M226.7,206.2c-0.1,1-0.9,1.8-1.9,1.9c-2.6,0.4-9,1.4-10.6,2.2c-2,1-10.1,0.3-10.5-0.7
	c-0.1-0.4-0.1-0.8,0.1-1.2c0.3-0.6,0.7-1.1,1.3-1.4c0.2-0.1,0.4-0.2,0.6-0.3c1.5-0.5,4.4-1.6,5.1-2.7c0,0,3.6-3.1,4.6-4.8
	c0.4-0.7,1.1-1.1,1.9-1.2c0.8,0,1.8,0.4,2.2,2.2c0,0,4.6,2.7,5.9,0.3c0,0,0.2,3.6,1,4.5l0,0C226.7,205.5,226.8,205.9,226.7,206.2z"
	/>
<path class="st12" d="M226.7,206.2c-0.1,1-0.9,1.8-1.9,1.9c-2.6,0.4-9,1.4-10.6,2.2c-2,1-10.1,0.3-10.5-0.7
	c-0.1-0.4-0.1-0.8,0.1-1.2c0.3-0.6,0.7-1.1,1.3-1.4c1.3,0.9,4.2,1.7,10.6,0.7c6.1-1,9.1-1.9,10.6-2.5l0,0
	C226.7,205.5,226.8,205.9,226.7,206.2z"/>
<g class="st1">
	<path d="M253.2,47.9L253.2,47.9c0.1-0.8,0.3-1.5,0.3-2.2c-0.1,0.6-0.2,1.2-0.3,1.8C253.1,47.6,253.1,47.7,253.2,47.9z"/>
	<path d="M247.5,57c0.2,0.3,0.2,0.7,0.2,1.1c0-0.5,0-1.1-0.2-1.5c-0.3-0.6-0.9-1-1.5-0.9c-0.8,0.2-1.2,1.3-2,1.5
		c-0.7,0.2-1.4-0.3-1.8-0.9c-0.3-0.6-0.3-1.4-0.3-2.1c0-0.8,0-1.6,0-2.4c0-0.9,0-1.8-0.6-2.5c-0.7-0.9-2.3-1.2-3.3-1.2
		c-0.7,0-1.4,0.3-1.9,0.8c-0.6,0.5-1.2,0.8-2,0.7c-0.7-0.1-1.2-0.6-1.4-1.2c-0.1-0.3-0.1-0.6-0.2-1c-0.2-0.8-1-1.2-1.6-1.7
		c-0.5-0.6-0.8-1.3-0.8-2c-0.1,0.9,0.2,1.8,0.8,2.5c0.5,0.6,1.4,1,1.6,1.7c0.1,0.3,0.1,0.6,0.2,1c0.2,0.6,0.7,1.1,1.4,1.2
		c0.8,0.1,1.4-0.2,2-0.7c0.5-0.5,1.2-0.8,1.9-0.8c1,0,2.6,0.3,3.3,1.2c0.5,0.7,0.6,1.6,0.6,2.5c0,0.8,0,1.6,0,2.4
		c0,0.7,0,1.5,0.3,2.1s1.1,1.1,1.8,0.9c0.8-0.3,1.2-1.3,2-1.5C246.6,55.9,247.2,56.4,247.5,57z"/>
	<path d="M255.5,54.3c-0.2,0.5-0.5,1-0.8,1.3c-1.1,1.3-2.1,2.6-3.2,3.8c-1.3,1.6-2.8,3.5-2.7,5.6c0.1-1.9,1.4-3.6,2.7-5.1l3.2-3.8
		c0.4-0.4,0.6-0.8,0.8-1.3c0.1-0.3,0.1-0.7,0.1-1C255.6,53.9,255.5,54.1,255.5,54.3z"/>
	<path d="M247.1,64.4c-0.1-0.2-0.1-0.3-0.1-0.5c0,0.3,0,0.6,0.1,1c0.2,0.7,1,1.3,1.7,1c0-0.1,0-0.3,0-0.4
		C248.1,65.6,247.3,65.1,247.1,64.4z"/>
</g>
<path class="st12" d="M215,200.2c0,0,1,1.8,4.7,0.2"/>
<path class="st12" d="M246,200.6c0,0,3.2,3.7,7.1,1.2"/>
<path class="st12" d="M255.2,156.6c0,0-2.2,1.4-2.3,2.2s1.2-0.6,1.2-0.6L255.2,156.6z"/>
<path class="st12" d="M256.1,167.3c-0.8,0.6-1.7,1-2.8,1.1c-1.7,0.1-1.5,2.3-0.4,1.6C254,169.3,256.1,167.3,256.1,167.3z"/>
<path class="st12" d="M256.5,168.7c0,0-1.1,5.3-1.9,4.3"/>
<path class="st2" d="M35.9,193.2c0,0,1.4,1.9-0.7,4.7c-2.1,2.8-3.8,5.2-3.1,7c0,0,3.2-5.3,5.8-5.4S38.7,196.4,35.9,193.2z"/>
<path class="st12" d="M35.9,193.2c0.1,0.2,0.2,0.4,0.3,0.6c2.5,3,3.9,5.7,1.4,5.8c-2.3,0.1-5,4.1-5.6,5.1c0,0.1,0,0.2,0.1,0.2
	c0,0,3.2-5.3,5.8-5.4S38.7,196.4,35.9,193.2z"/>
<path class="st17" d="M38.5,195.6c0,0.7-0.1,1.2-0.2,1.2c-0.1,0-0.2-0.5-0.2-1.2s0.1-0.3,0.2-0.3C38.5,195.2,38.5,194.9,38.5,195.6z
	"/>
<path class="st17" d="M39.5,196.4c-0.6,0.3-1.1,0.5-1.1,0.4s0.4-0.4,1-0.7s0.4-0.1,0.4,0C39.7,196.2,40,196.1,39.5,196.4z"/>
<path class="st2" d="M28.3,193.2c0,0-1.4,1.9,0.7,4.7s3.8,5.2,3.1,7c0,0-3.2-5.3-5.8-5.4S25.4,196.4,28.3,193.2z"/>
<path class="st12" d="M28.3,193.2c-0.1,0.2-0.2,0.4-0.3,0.6c-2.5,3-3.9,5.7-1.4,5.8c2.3,0.1,5,4.1,5.6,5.1c0,0.1,0,0.2-0.1,0.2
	c0,0-3.2-5.3-5.8-5.4S25.4,196.4,28.3,193.2z"/>
<path class="st17" d="M25.6,195.6c0,0.7,0.1,1.2,0.2,1.2s0.2-0.5,0.2-1.2s-0.1-0.3-0.2-0.3S25.6,194.9,25.6,195.6z"/>
<path class="st17" d="M24.7,196.4c0.6,0.3,1.1,0.5,1.1,0.4s-0.4-0.4-1-0.7s-0.4-0.1-0.4,0C24.4,196.2,24.1,196.1,24.7,196.4z"/>
<path class="st18" d="M26,204.7c0,0,4-0.1,5.2-1s6.2-1.9,6.5-0.5s6.1,6.9,1.5,6.9c-4.5,0-10.6-0.7-11.8-1.4
	C26.3,207.9,26,204.7,26,204.7z"/>
<path class="st19" d="M39.4,209.6c-4.5,0-10.6-0.7-11.8-1.4c-0.9-0.6-1.3-2.6-1.4-3.5H26c0,0,0.3,3.2,1.5,4s7.2,1.5,11.8,1.4
	c1.3,0,1.8-0.5,1.7-1.2C40.8,209.4,40.3,209.6,39.4,209.6z"/>
</svg>
