<?xml version="1.0" encoding="utf-8"?>
<!-- Generator: Adobe Illustrator 23.0.2, SVG Export Plug-In . SVG Version: 6.00 Build 0)  -->
<svg version="1.1" id="Layer_1" xmlns="http://www.w3.org/2000/svg" xmlns:xlink="http://www.w3.org/1999/xlink" x="0px" y="0px"
	 viewBox="0 0 283.5 213.9" style="enable-background:new 0 0 283.5 213.9;" xml:space="preserve">
<style type="text/css">
	.st0{opacity:0.1;fill:#6C63FF;enable-background:new    ;}
	.st1{fill:#6C63FF;}
	.st2{fill:#444053;}
	.st3{fill:none;stroke:#444053;stroke-miterlimit:10;}
	.st4{fill:none;stroke:#444053;stroke-width:0.75;stroke-miterlimit:10;}
	.st5{fill:#D2D4DE;}
	.st6{opacity:0.1;enable-background:new    ;}
	.st7{fill:#30374E;}
	.st8{fill:#DFE3EF;}
	.st9{fill:#FFFFFF;}
	.st10{fill:url(#SVGID_1_);}
	.st11{fill:#65617D;}
	.st12{fill:#FBBEBE;}
	.st13{fill:#E7EFFD;}
	.st14{fill:#3F3D56;}
	.st15{fill:#E3A79F;}
	.st16{opacity:0.1;}
	.st17{opacity:0.2;fill:#6C63FF;enable-background:new    ;}
	.st18{opacity:0.5;fill:#6C63FF;enable-background:new    ;}
	.st19{fill:url(#SVGID_2_);}
	.st20{fill:#2D293D;}
	.st21{fill:#575988;}
	.st22{opacity:5.000000e-02;enable-background:new    ;}
	.st23{opacity:5.000000e-02;}
	.st24{fill:#FFCDD3;}
	.st25{fill:#DCE6F2;}
	.st26{fill:#656691;}
	.st27{opacity:0.1;fill:#FFFFFF;enable-background:new    ;}
	.st28{fill:#EFB7B9;}
	.st29{fill:#925978;}
	.st30{fill:#4C4981;}
</style>
<title>data trends</title>
<path class="st0" d="M145.9,43.1c-17.8,3-35.7,1.4-52.9-0.8s-34.3-5-52.2-4.5c-11.5,0.4-24.3,2.6-32.2,9.5C1,54-0.1,63.1,0,71.3
	C0.1,77.5,0.6,84,4.8,88.9c2.9,3.5,7.4,6,10.7,9.2c11.7,11.1,8.4,28.4,1,43c-3.5,6.8-7.8,13.6-10.1,20.6c-2.3,7-2.6,14.6,1.8,20.4
	c4.4,5.8,12.8,9.1,21.5,10.9c17.7,3.6,37.3,1.7,56.3-0.8c42-5.8,83.6-15.1,125.1-24.4c15.3-3.4,30.8-6.9,45.5-12
	c8.2-2.8,16.5-6.3,21.8-11.9c6.7-7.1,6.7-16.9,0.1-22.9c-11-10-35.7-8.1-44.3-19.4c-4.7-6.2-2.8-14.6,0.8-22
	c7.7-15.8,22.9-31.4,20.7-47.3c-1.5-10.9-12.1-20.1-26.1-22.6c-14.7-2.7-33.5,1.8-41.9,12.6C179.2,33.4,161.6,40.5,145.9,43.1z"/>
<path class="st1" d="M260.8,55.7c0,0-3.5-1.4-14.7,3.7s-12.6,4.5-15.5,3.7c-2.9-0.8-4.5-1-7.6-5.2c0,0-2.2-11.9-4.3-13.7
	s-11.1,1-11.1,1s-10.8,2.5-12.8-11.9c0,0,1.5-10.9-0.5-14.2c0,0,4,1.7,10.6-1.1c6.6-2.8,11.9,3,11.9,3s1.7,4.3,1.5,6.9
	s0.9,3.5,4,2.3c0,0,1.5-2.2-0.6-5.8c-2.2-3.6-3.8-6.4-3.1-9.2s2.4-6.7,8-8.7s13.3-2.3,17-3.9c3.7-1.5,4.6-2.5,4.6-2.5
	s-2.3,2.3,3.1,11.9c5.3,9.6,1.9,13.8,1.9,13.8s-2.8,6.8-15.4,6.2c0,0-12.1,0.4-5.5,5.6c0,0,4.2-0.9,10.5-2.9c6.3-2,10.9,6.3,12,12
	C255.9,52.5,260.8,55.7,260.8,55.7z"/>
<path class="st2" d="M244.5,7.3L244.5,7.3c0.6,1.8-4.9,9.2-9.5,15.1l-0.1,0C241.5,14.1,244.9,8.7,244.5,7.3z"/>
<path class="st2" d="M235.1,22.2L235.1,22.2c-3.7,4.8-8.3,10.4-12,14.5c-0.4,0.4-0.7,0.8-1,1.2l-0.1-0.1c0.3-0.4,0.7-0.8,1-1.2
	C226.6,32.5,231.4,26.9,235.1,22.2z"/>
<path class="st2" d="M222,37.8l0.1,0.1c-6.8,8.4-7.2,21.6-7.2,21.7l-1.4-1.6C213.4,57.8,215.2,46.3,222,37.8z"/>
<path class="st3" d="M252.9,51.1c0,0-8-4.1-14.2-2.7c-6.2,1.5-20.2-5.3-20.2-5.3s-5.9-2.4-7.1-5.2c0,0-4.1-4.3-4.3-6.5
	s-4.2-7.8-6.8-8.1"/>
<path class="st3" d="M251.8,55.1c0,0-4-2.7-3.5-5.9"/>
<path class="st3" d="M245.6,58.6c0,0-5.7-2.1-6.3-10.3"/>
<path class="st3" d="M236.3,60.7c0,0-5.5-4.6-3.7-12.5"/>
<path class="st3" d="M225.2,58.5c0,0-3.7-7.7-0.4-12.7"/>
<path class="st3" d="M253,46c0,0-4.2,1.3-3.3,3.5"/>
<path class="st3" d="M248,38.5c0,0-5.6,1.8-5.7,9.6"/>
<path class="st3" d="M240.2,36.7c0,0-5.1,6.2-4.7,11.9"/>
<path class="st3" d="M231.4,39.1c0,0-5,4.8-4.4,7.5"/>
<path class="st3" d="M228.4,37.4c0,0-4.7,0.8-5.4-0.7"/>
<path class="st3" d="M222.2,31.7c0,0,2.4,3.2,3,2.4"/>
<path class="st3" d="M245.8,29.7c0,0-11.9,0.9-14.6-2.7"/>
<path class="st3" d="M219.7,15.8c0,0,5.6,12,9.6,13.5"/>
<path class="st3" d="M225.6,10.1c0,0,3.4,11,7.7,14.4"/>
<path class="st4" d="M250.8,20.7c0,0-9,3.9-14.5,0"/>
<path class="st4" d="M233.6,7.8c0,0,2.1,8.1,4.8,10"/>
<path class="st4" d="M249.5,11.6c0,0-5.1,1.9-7,0.4"/>
<path class="st3" d="M217.9,34.4c0,0,0,7.1-1.9,7.6"/>
<path class="st3" d="M202.2,43.5c0,0,7.6,0.7,11.1-3.3"/>
<path class="st3" d="M215.9,26c0,0-1.8,7.2-6.9,9.1"/>
<path class="st3" d="M197.6,36c0,0,5.4,1.9,10-2.9"/>
<path class="st3" d="M209.9,19.9c0,0-0.5,6.1-3.8,8.9"/>
<path class="st3" d="M197.8,26.7c0,0,4.5,0,5.5-1.4"/>
<ellipse class="st0" cx="168.7" cy="201.8" rx="88.2" ry="4.2"/>
<path class="st1" d="M46.1,204.9c0,0-9-0.5-7.9,5.8c0,0-0.2,1.1,0.8,1.6c0,0,0-0.5,0.9-0.3c0.3,0.1,0.7,0.1,1,0
	c0.4,0,0.9-0.2,1.2-0.5l0,0c0,0,2.5-1,3.5-5.2c0,0,0.7-0.9,0.7-1.1l-1.5,0.6c0,0,0.5,1.1,0.1,2c0,0,0-2-0.3-1.9
	c-0.1,0-0.8,0.4-0.8,0.4s0.9,1.9,0.2,3.3c0,0,0.2-2.4-0.5-3.2l-1.1,0.6c0,0,1,2,0.3,3.6c0,0,0.2-2.5-0.6-3.4l-1,0.7
	c0,0,1,1.9,0.4,3.3c0,0-0.1-2.9-0.6-3.1c0,0-0.8,0.7-1,1.1c0,0,0.7,1.4,0.2,2.2c0,0-0.2-1.9-0.5-1.9c0,0-0.8,1.3-0.9,2.1
	c0-0.8,0.3-1.6,0.7-2.3c-0.5,0.1-0.9,0.3-1.3,0.7c0,0,0.1-0.9,1.5-1c0,0,0.7-1,0.9-1c0,0-1.4-0.1-2.2,0.2c0,0,0.7-0.8,2.4-0.5l1-0.8
	c0,0-1.8-0.2-2.6,0c0,0,0.9-0.7,2.8-0.2l1-0.6c0,0-1.5-0.3-2.4-0.2c0,0,1-0.5,2.7,0l0.7-0.3c0,0-1.1-0.2-1.5-0.2s-0.3-0.1-0.3-0.1
	c0.7-0.1,1.4,0,2.1,0.2C44.5,205.5,46.1,205,46.1,204.9z"/>
<ellipse class="st0" cx="39.9" cy="212.8" rx="6.4" ry="1.1"/>
<path class="st1" d="M30.3,205.2c0,0-5.1-0.3-4.5,3.2c-0.1,0.4,0.1,0.7,0.5,0.9c0,0,0-0.3,0.5-0.2c0.2,0,0.4,0,0.6,0
	c0.2,0,0.5-0.1,0.7-0.3l0,0c0,0,1.4-0.6,2-2.9c0,0,0.4-0.5,0.4-0.6l-0.9,0.4c0.2,0.4,0.2,0.8,0.1,1.1c0,0,0-1.1-0.2-1.1
	c0,0-0.4,0.2-0.4,0.2s0.5,1.1,0.1,1.9c0,0,0.1-1.3-0.3-1.8l-0.6,0.4c0,0,0.6,1.1,0.2,2c0,0,0.1-1.4-0.3-1.9l-0.5,0.4
	c0,0,0.6,1.1,0.2,1.8c0,0,0-1.6-0.3-1.7c-0.2,0.2-0.4,0.4-0.6,0.6c0,0,0.4,0.8,0.1,1.2c0,0-0.1-1.1-0.2-1.1c0,0-0.5,0.7-0.5,1.2
	c0-0.5,0.2-0.9,0.4-1.3c-0.3,0.1-0.5,0.2-0.7,0.4c0,0,0.1-0.5,0.8-0.5c0.1-0.2,0.3-0.4,0.5-0.6c-0.4,0-0.8,0-1.2,0.1
	c0,0,0.4-0.5,1.4-0.2l0.5-0.4c0,0-1-0.1-1.4,0c0,0,0.5-0.4,1.6-0.1l0.6-0.3c-0.5-0.1-0.9-0.1-1.4-0.1c0,0,0.5-0.3,1.6,0l0.4-0.2
	c0,0-0.6-0.1-0.8-0.1s-0.2-0.1-0.2-0.1c0.4-0.1,0.8,0,1.2,0.1C29.4,205.6,30.3,205.2,30.3,205.2z"/>
<ellipse class="st0" cx="26.8" cy="209.7" rx="3.6" ry="0.6"/>
<path class="st1" d="M40,197.6c0,0-6.1-0.4-5.4,3.9c-0.1,0.4,0.1,0.9,0.5,1.1c0,0,0-0.3,0.6-0.2c0.2,0,0.4,0,0.7,0
	c0.3,0,0.6-0.1,0.8-0.3l0,0c0,0,1.7-0.7,2.4-3.5c0,0,0.5-0.6,0.5-0.8l-1,0.4c0,0,0.4,0.7,0.1,1.4c0,0,0-1.3-0.2-1.3
	c0,0-0.5,0.2-0.5,0.2s0.6,1.3,0.1,2.2c0,0,0.2-1.6-0.3-2.2l-0.7,0.4c0,0,0.7,1.3,0.2,2.4c0,0,0.1-1.7-0.4-2.3l-0.7,0.5
	c0,0,0.7,1.3,0.2,2.2c0,0-0.1-2-0.4-2.1c-0.3,0.2-0.5,0.5-0.7,0.7c0,0,0.5,1,0.2,1.5c0,0-0.2-1.3-0.3-1.3c0,0-0.6,0.9-0.6,1.5
	c0-0.5,0.2-1.1,0.5-1.5c-0.3,0.1-0.6,0.2-0.9,0.5c0,0,0.1-0.6,1-0.7c0,0,0.5-0.7,0.6-0.7c0,0-0.9-0.1-1.5,0.2c0,0,0.5-0.6,1.7-0.3
	l0.7-0.5c0,0-1.2-0.2-1.7,0c0,0,0.6-0.5,1.9-0.1l0.7-0.4c-0.5-0.1-1.1-0.2-1.7-0.1c0,0,0.7-0.4,1.9,0l0.5-0.2c0,0-0.8-0.2-1-0.2
	c-0.2,0-0.2-0.1-0.2-0.1c0.5-0.1,1,0,1.4,0.2C38.9,198.1,40,197.7,40,197.6z"/>
<ellipse class="st0" cx="35.7" cy="203.1" rx="4.3" ry="0.7"/>
<path class="st5" d="M166.9,195.7v2h-57.7v-1.6c9.8-3.6,14.8-14.6,11.2-24.4c-1.8-4.7-5.3-8.6-9.9-10.7h56c-5.2,2.4-9.1,7-10.5,12.6
	c-1.9,7.6,1,15.5,7.3,20.1C164.5,194.5,165.6,195.2,166.9,195.7z"/>
<path class="st6" d="M166.5,161c-5.2,2.4-9.1,7-10.5,12.6H121c-1.4-5.6-5.3-10.2-10.5-12.6H166.5z"/>
<path class="st5" d="M43.1,151.1v11c0,6.1,4.4,11,9.9,11h169.8c5.5,0,9.9-4.9,9.9-11v-11H43.1z"/>
<path class="st6" d="M166.9,195.7v2h-57.7v-1.6c1.6-0.6,3.1-1.4,4.5-2.4h49.7C164.4,194.5,165.6,195.2,166.9,195.7z"/>
<path class="st5" d="M92.5,194.3h91.1c1.3,0,2.4,1.1,2.4,2.4v1c0,1.3-1.1,2.4-2.4,2.4H92.5c-1.3,0-2.4-1.1-2.4-2.4v-1
	C90.1,195.4,91.1,194.3,92.5,194.3z"/>
<path class="st7" d="M232.7,31c0-5.5-4.4-9.9-9.9-9.9l0,0H53c-5.5,0-9.9,4.4-9.9,9.9l0,0v122.2h189.6V31z"/>
<path class="st8" d="M227.5,35.4v105c0,2.7-2.2,4.9-4.9,4.9l0,0H53.1c-2.7,0-4.9-2.2-4.9-4.9c0,0,0,0,0,0v-105
	c0-2.7,2.2-4.9,4.9-4.9c0,0,0,0,0,0h169.5C225.3,30.6,227.5,32.7,227.5,35.4C227.5,35.4,227.5,35.4,227.5,35.4z"/>
<circle class="st9" cx="137.9" cy="25.9" r="2.3"/>
<circle class="st9" cx="137.9" cy="162.5" r="5.6"/>
<path class="st9" d="M227.5,35.4H48.2c0-2.7,2.2-4.9,4.9-4.9c0,0,0,0,0,0h169.5C225.3,30.6,227.5,32.7,227.5,35.4
	C227.5,35.4,227.5,35.4,227.5,35.4z"/>
<circle class="st8" cx="53.1" cy="33" r="1.2"/>
<circle class="st8" cx="56.8" cy="33" r="1.2"/>
<circle class="st8" cx="60.4" cy="33" r="1.2"/>
<rect x="65.1" y="48.9" class="st9" width="144.7" height="84.5"/>
<linearGradient id="SVGID_1_" gradientUnits="userSpaceOnUse" x1="-367.1649" y1="-7.8332" x2="-367.1649" y2="46.4798" gradientTransform="matrix(1 0 0 -1 604.25 192.4485)">
	<stop  offset="0" style="stop-color:#808080;stop-opacity:0.25"/>
	<stop  offset="0.54" style="stop-color:#808080;stop-opacity:0.12"/>
	<stop  offset="1" style="stop-color:#808080;stop-opacity:0.1"/>
</linearGradient>
<path class="st10" d="M250.2,163.1c0.1-0.1-0.3-0.9-0.3-1s-0.4-0.5-0.4-0.7c0-0.2-0.5-0.8-0.5-0.8s-0.7-0.3-0.8-1
	c-0.1-0.7-0.9-0.7-0.9-0.7l0,0c0,0,0-0.1,0-0.1c0-0.3,0-0.5-0.1-0.8c-0.1-0.2-0.3-0.3-0.4-0.4c0-0.2-0.1-0.5-0.2-0.7
	c-0.2-0.2-0.2-0.5-0.2-0.7c0.1-0.2-0.1-0.9-0.5-1s-0.8-0.2-0.8-0.2l-0.1,0l-0.1,0c-0.1,0-0.2,0-0.3,0c-0.1,0-0.2,0-0.2-0.1
	c-0.1-0.1-1.2-0.4-1.4-0.4c-0.3-0.1-0.5-0.1-0.8-0.2l-0.6-0.4c-0.2-0.2-0.4-0.4-0.5-0.7l0,0l0,0c0-0.1-0.1-0.2-0.1-0.3l0,0
	c0.2-0.2,0.4-0.4,0.5-0.7l0-0.1c0,0,0.1,0,0.1,0l0,0c0.1-0.1,0.2-0.2,0.3-0.3l0,0c0,0,0-0.1,0-0.1v0c0,0,0,0,0-0.1c0,0,0,0,0,0
	c0,0,0,0,0-0.1c0,0,0,0,0,0v-0.1l0,0c0-0.1,0-0.2,0-0.3l0,0c0.1-0.3,0.3-0.7,0.4-1l0,0c0,0,0-0.1,0.1-0.1c0-0.1,0-0.1,0.1-0.2
	c0,0,0,0,0,0c0,0,0-0.1,0-0.1c0,0,0,0,0-0.1c0-0.1,0-0.1,0-0.2c0-0.3,0-0.6-0.1-0.9c-0.1-0.2-0.2-0.5-0.3-0.7
	c-0.2-0.4-0.2-0.8-0.4-1.1c-0.3-0.6-1-0.9-1.6-0.7c-0.3,0.1-0.5,0.3-0.8,0.4c-0.4,0.1-0.8,0-1.2,0c-0.4-0.1-0.8-0.1-1.2,0.2
	c-0.4,0.3-0.5,0.9-0.8,1.2c-0.1,0.1-0.3,0.2-0.5,0.4c-0.1,0.1-0.2,0.2-0.2,0.3v0c0,0,0,0,0,0c0,0,0,0,0,0c0,0,0,0,0,0c0,0,0,0,0,0.1
	l0,0c0,0,0,0,0,0.1c0,0,0,0,0,0c0,0,0,0,0,0.1l0,0l0,0.1l0,0c0,0,0,0,0,0c0.1,0.1,0.1,0.2,0.1,0.3c0,0.1,0,0.1,0,0.2
	c0,0.1-0.1,0.1-0.1,0.2c-0.3,0.3-0.5,0.6-0.6,1c0,0,0,0.1,0,0.1l0,0h0c0,0,0.1,0,0.1,0h0.1c0.1,0,0.2,0,0.3,0l0.1,0
	c0.1,0,0.2-0.1,0.3-0.1c0,0,0,0.1,0,0.1v0c0,1.2,0.7,2.3,1.7,2.8c0,0,0,0.1,0,0.1c0,0,0,0,0,0.1l0,0c0,0-0.2-0.1-0.5,0.2
	c-0.2,0.2-0.4,0.4-0.6,0.5c0,0-2.4,0.4-2.5,0.7l-1.1,0.1c0,0-0.4,0.1-0.4,0.9s-0.2,0.9-0.2,0.9s-0.5,0.8-0.4,1.2
	c0,0.3-0.1,0.5-0.4,0.6l-0.1,0.7c-0.3,0-0.5,0.2-0.6,0.4c0,0,0,0,0,0c-0.1,0.3-0.2,0.5-0.3,0.7c0,0-0.7,0.6-0.8,1.1l-0.4,0.3
	c0,0-1-0.2-1.3-0.7l-0.1-0.1l0,0l0,0c-0.1-0.1-0.3-0.3-0.4-0.4c0,0.1,0,0.1,0,0.2l-0.1-0.1l-0.1-0.3c0,0-1.5-1.8-2.5-1.9l0,0
	c-0.2,0.1-0.4,0.2-0.4,0.4c-0.1,0.4-0.2,1.1,0.1,1.5l1.6,1.7l0,0l0.3,0.4c-0.1,0.1-0.1,0.3-0.1,0.4l0,0c0,0,0,0.1,0,0.1v0l0,0.1
	c0,0,0,0,0,0v0c0,0.1-0.1,0.2-0.1,0.3l-0.1,0l0.1,0l0,0c0,0,0,0,0,0l0.1,0c0.5,0.2,2.8,1.2,2.9,1.4c0.5,0.4,1.2,0.5,1.8,0.2
	c0.4-0.2,0.8-0.6,1-1.1c0.3-0.4,0.5-0.8,0.8-1.2c0-0.2,0.6-0.3,0.6-0.3s0.1,1.7-0.2,2.4c-0.3,0.6-0.9,3.5-0.9,3.5c0,0,0.1,0,0.1,0
	l0,0.2c0,0,0.1,0,0.1,0c0,0.3-0.3,1.8-0.3,1.8c0,0.3-0.1,0.6-0.2,0.9c-0.1,0.2-0.1,1.5-0.1,1.5l-0.2,0.9c0,0,0,0.1,0.1,0.2l0,0
	c0.1,0.3,0.3,0.6,0.6,0.8c0,0.1-0.1,0.3-0.1,0.4c-0.1,0.2-0.1,0.4-0.1,0.6c-0.1,0.4-0.2,0.9-0.2,1.3c0,0.3-0.1,0.7-0.1,1l-0.2,2.3
	c0,0-0.2,2-0.1,2.5c0,0.4,0,0.8-0.1,1.3c0,0,0.2,1.6,0.1,1.7s-0.2,0.9-0.1,1.3c0.1,0.4,0.1,1.5,0.1,1.5s0.1,1.5,0.2,1.9
	c0,0.4,0,0.7,0,1.1c0,0.3-0.1,0.7-0.1,1c0,0-0.4,0.7,0.3,1.4c0.7,0.7,0.3,0.6,0.3,0.6s-0.6-0.3-0.5,0.3s0.1,0.4,0.2,0.4l-0.1,0.4
	l0.1,0c0,0,0,0.1-0.1,0.1c-0.1,0.1-0.2,0.2-0.3,0.3c-0.1,0.1-0.2,0.2-0.2,0.4c-0.6,0.6-1.2,1.1-1.9,1.6c-0.4,0.2-0.7,0.4-1.1,0.7
	c-0.2,0.2-0.1,0.3,0.2,0.4c0.9,0.3,1.9,0.3,2.9,0.1c0.5-0.2,1-0.5,1.4-0.9c0.3-0.2,0.7-0.2,1.1-0.2c0.6,0.1,1.7-0.6,1.7-0.6l0-0.2
	l-0.1-0.5c-0.1-0.1-0.1-0.2-0.1-0.3c0-0.2,0-0.3,0-0.5c0-0.1,0-0.1,0-0.2l0.1,0c0,0-0.1-0.7,0.1-0.8c0.2-0.1,0.2-1.8,0.2-1.8
	c-0.1-0.2-0.3-0.3-0.5-0.5c-0.2-0.1,0-0.9,0-1c0-0.1,0.2-2.1,0.2-2.1c0-0.3,0-0.6,0-0.9c0.1-0.3-0.1-1.3-0.1-1.3
	c0-0.1,0-0.2,0.1-0.3c0.1-0.2,0.1-1.6,0.1-1.6s0-0.7,0-0.9c0-0.4,0.1-0.7,0.3-1.1c0.1-0.2,0.1-0.9,0.1-0.9l0,0V183c0,0,0,0,0-0.1
	v-0.1c0.1-0.4,0.1-0.8,0.2-1.1c0.2-0.5,0.4-1.5,0.4-1.5l1.2-3.2v0c0.3,0.6,0.5,1.3,0.6,2c0.1,0.5,0.1,1,0.1,1.5c0,0.6,0,1.2,0.1,1.8
	c0,0,0.2,2.1,0.2,2.2c0,0.1,0.2,1.7,0.3,2c0.1,0.2-0.1,1-0.2,1.1c-0.1,0.1,0,2,0,2s-0.2,1.5-0.2,1.8s-0.2,1.5-0.1,2s0.1,0.5,0.1,0.5
	s0.5,0.5,0.2,0.5c-0.4,0.1-0.6,0.5-0.6,0.9c0,0,0,0.1,0,0.1c0.2,0.5,0.4,0.9,0.6,1.4l0.2,0v0.2l0,0.8c0,0.3,0.1,0.6,0,0.9
	c0,0.1-0.1,0.7-0.1,1c0,0.1,0,0.2,0,0.2s0,0.7,1.5,0.5s1.7-0.8,1.7-0.8s0,0,0-0.1c0-0.1,0.1-0.4,0.1-0.6c0.1-0.2-0.4-1.2-0.4-1.2
	s-0.1-0.6-0.2-0.8c-0.1-0.1-0.1-0.2-0.1-0.3c0-0.1,0-0.1,0-0.2l0.1,0c0,0-0.1-0.5,0.2-0.6c0.2-0.1,0.3-0.4,0.2-0.6
	c0-0.3,0-0.6,0.1-0.9c0-0.1,0-0.3,0.1-0.4c0.2-0.2,0.3-1.5,0.3-1.5l0-4.9c0-0.4,0-0.8,0-1.2c-0.1-0.4-0.2-1-0.1-1.2c0.1-0.2,0-1,0-1
	s0-1.8,0.2-2.2c0.2-0.5,0.1-3.3,0.1-3.3l0.1-1.8c0,0,0.4-0.4,0.3-2.5c0.5,0,1,0,1.1,0c0.1,0.1,1.1,0.7,1.6,0.3
	c0.2-0.2,0.4-0.3,0.7-0.5l-0.2-3.9c0.1,0.2,0.2,0.4,0.2,0.4c0-0.5,1.6-2.3,1.6-2.3s1.4-1.9,1.8-2.1c0.3-0.2,0.9-1.4,0.9-1.4
	c0.1-0.2,0.2-0.4,0.3-0.7C250.6,163.8,250.1,163.2,250.2,163.1z M246.8,164.4c-0.4,0-1.2,0.9-1.2,1.1c0,0.1-0.1,0.3-0.2,0.4
	c0-0.1,0-0.2,0-0.2c-0.1-1.2-0.2-2.6-0.1-2.7c0.1-0.4,0.1-0.9,0.1-1.3l0,0l0,0c0.3,0.8,1.1,1.8,1.1,1.8s0.1,0.4,0.3,0.4
	C246.8,163.9,246.8,164.4,246.8,164.4L246.8,164.4z"/>
<path class="st11" d="M225.7,164.1c0,0,0.5-2.5,2-2.5l1.1,2.3l-0.7,0.5C228.1,164.4,226.4,164.5,225.7,164.1z"/>
<path class="st6" d="M228.8,163.9l-0.7,0.5c-0.7,0-1.3,0-2-0.2c-0.1,0-0.3-0.1-0.4-0.1c0,0,0,0,0,0l0,0c0.1-0.3,0.2-0.6,0.3-0.9
	c0-0.1,0.1-0.2,0.2-0.3c0.2-0.5,0.5-0.8,1-1.1c0.2-0.1,0.3-0.1,0.5-0.1h0.1l0,0l0.4,0.8L228.8,163.9z"/>
<path class="st11" d="M241.6,174.4c0,0,1.6-0.2,1.8,0s1.1,0.7,1.6,0.3c0.5-0.4,0.2-1.7,0.2-1.7c0-0.1-0.1-1.9-0.1-1.9l-1-1.3
	l-1.2-2.3l-2.5-0.2l0.1,3.6v1.9L241.6,174.4z"/>
<path class="st6" d="M241.6,174.4c0,0,1.6-0.2,1.8,0s1.1,0.7,1.6,0.3c0.5-0.4,0.2-1.7,0.2-1.7c0-0.1-0.1-1.9-0.1-1.9l-1-1.3
	l-1.2-2.3l-2.5-0.2l0.1,3.6v1.9L241.6,174.4z"/>
<path class="st12" d="M227.4,161.5c0,0-0.1,1.6-1.1,1.6c0,0-0.3-0.2-0.7-0.4c-0.9-0.6-2.2-1.9-1.9-3.1c0.5-1.7,3.2,1.4,3.2,1.4
	l0.2,0.2L227.4,161.5z"/>
<path class="st6" d="M227.4,161.5c0,0-0.1,1.6-1.1,1.6c0,0-0.3-0.2-0.7-0.4l-0.1-0.1c0.2,0.1,0.4,0.1,0.5,0.1c0.3,0,0.6-0.2,0.7-0.4
	c0.1-0.2,0.2-0.4,0.3-0.6c0-0.1,0.1-0.3,0.1-0.4L227.4,161.5z"/>
<path class="st13" d="M226.9,164.4l-0.2-0.3l-0.7-1l-0.4-0.5c0.2,0.1,0.4,0.1,0.5,0.1c0.3,0,0.6-0.2,0.7-0.4
	c0.1-0.2,0.2-0.4,0.3-0.6c0.1-0.4,0.1-0.5,0.1-0.6c0.2,0.1,0.3,0.2,0.4,0.4l0,0l0.1,0.1l0,0.1l0.4,0.7c0,0,0,0,0,0
	C228.1,162.7,228.2,164.2,226.9,164.4z"/>
<path class="st11" d="M234.7,197.8c0,0-1.1,0.7-1.6,0.6c-0.4,0-0.8,0-1.1,0.2c-0.4,0.4-0.8,0.7-1.4,0.9c-0.9,0.3-2.1,0.2-2.8-0.1
	c-0.3-0.1-0.4-0.2-0.2-0.4c0.3-0.3,0.7-0.5,1.1-0.7c0.7-0.5,1.3-1,1.9-1.6c0-0.1,0.1-0.3,0.2-0.4c0.1-0.1,0.2-0.2,0.2-0.3
	c0.1-0.2,0.3-0.3,0.3-0.3l3.2,0.1c0,0,0.1,0.2,0.1,0.5c0,0.2,0.1,0.3,0,0.5c0,0.1,0,0.2,0.1,0.3l0.1,0.5L234.7,197.8z"/>
<path class="st11" d="M241.4,198.7c0,0.2-0.1,0.4-0.1,0.6c0,0,0,0.1,0,0.1s-0.2,0.6-1.7,0.8c-1.5,0.2-1.4-0.5-1.4-0.5s0-0.1,0-0.2
	c0-0.3,0.1-0.7,0.1-1c0-0.3,0-0.6,0-0.9l0-0.8v-0.5l2.4-0.2c0,0.2,0,0.4,0.1,0.5c0,0.1,0.1,0.2,0.1,0.3c0.1,0.1,0.2,0.8,0.2,0.8
	S241.5,198.5,241.4,198.7z"/>
<path class="st6" d="M234.4,195.8c0,0,0.1,0.2,0.1,0.5c-0.3,0.1-1.9,0.3-2.2,0.1c-0.4-0.2-0.9-0.3-1.4-0.3l0-0.1
	c0.1-0.2,0.3-0.3,0.3-0.3L234.4,195.8z"/>
<path class="st6" d="M240.7,196.5c-0.6-0.1-1.9,0.1-2.5,0.2v-0.5l2.4-0.2C240.6,196.2,240.7,196.3,240.7,196.5z"/>
<path class="st14" d="M242,176.8l0,1.8c0,0,0.1,2.8-0.1,3.2c-0.2,0.5-0.2,2.2-0.2,2.2s0.1,0.8,0,1s0,0.9,0.1,1.2
	c0.1,0.4,0.1,0.8,0,1.2l0,4.9c0,0-0.1,1.3-0.3,1.5c-0.1,0.1-0.1,0.3-0.1,0.4c-0.1,0.3-0.1,0.6-0.1,0.9c0.1,0.2,0,0.5-0.2,0.6
	c-0.3,0.1-0.2,0.6-0.2,0.6c-0.7-0.2-2.7,0.3-2.7,0.3c-0.2-0.5-0.4-0.9-0.6-1.4c-0.1-0.4,0.1-0.8,0.4-0.9c0,0,0.1,0,0.1,0
	c0.3,0-0.2-0.5-0.2-0.5s0.1-0.1-0.1-0.5c-0.1-0.5,0-1.7,0.1-2l0.2-1.8c0,0-0.1-1.9,0-2s0.3-0.8,0.2-1.1c-0.1-0.2-0.3-1.9-0.3-2
	c0-0.1-0.2-2.2-0.2-2.2s-0.2-1.5-0.1-1.8c0-0.5,0-1-0.1-1.5c0-0.7-0.2-1.4-0.6-2l0,0l-1.2,3.2c0,0-0.2,1-0.4,1.5
	c-0.1,0.4-0.2,0.7-0.2,1.1v0.1c0,0,0,0.1,0,0.1v0.1l0,0c0,0,0.1,0.7,0,0.9c-0.2,0.3-0.3,0.7-0.3,1.1c0,0.2,0,0.9,0,0.9
	s0.1,1.4-0.1,1.5c-0.1,0.1-0.1,0.2-0.1,0.3c0,0,0.2,1.1,0.1,1.3c-0.1,0.3-0.1,0.6,0,0.9c0,0-0.2,2-0.2,2.1c0,0.1-0.2,0.9,0,1
	c0.2,0.1,0.3,0.3,0.5,0.5c0,0,0.1,1.7-0.2,1.8c-0.2,0.1-0.1,0.8-0.1,0.8s-1.9,0.4-2.3,0.2c-0.4-0.2-0.9-0.3-1.4-0.3l0.1-0.4
	c0,0-0.1,0.2-0.2-0.4c-0.1-0.5,0.5-0.3,0.5-0.3s0.4,0.1-0.2-0.6c-0.7-0.7-0.3-1.4-0.3-1.4c0.1-0.3,0.1-0.7,0.1-1
	c0.1-0.4,0.1-0.7,0-1.1c-0.1-0.5-0.2-1.9-0.2-1.9s0.1-1.1-0.1-1.5c-0.1-0.4,0.1-1.1,0.1-1.3s-0.1-1.7-0.1-1.7
	c0.1-0.4,0.1-0.8,0.1-1.2c-0.1-0.5,0.1-2.5,0.1-2.5l0.2-2.2c0.1-0.3,0.1-0.7,0.1-1c0-0.4,0.1-0.9,0.2-1.3c0-0.2,0-0.4,0.1-0.6
	c0.1-0.4,0.2-0.7,0.2-1.1l1.2-2.9l0.6-2.5l8.2-0.1c0,0,0,0.2,0.1,0.6c0,0.4,0.1,1,0.2,1.7c0.1,0.7,0.2,1.4,0.2,2.3
	C242.6,176.3,242,176.8,242,176.8z"/>
<path class="st12" d="M241.3,154.1l-1.9,2.1c0,0-2.5-1-2.2-1.3c0.1-0.1,0.1-0.5,0-1c-0.1-0.7-0.3-1.5-0.3-1.5s4.3-0.7,3.9,0
	c-0.1,0.3-0.1,0.6,0,0.9C240.9,153.5,241.1,153.8,241.3,154.1z"/>
<path class="st6" d="M240.8,152.3c-0.1,0.3-0.2,0.3-0.1,0.6c-0.6,0.6-1.3,1.3-2.2,1.3c-0.5,0-0.9-0.1-1.4-0.3
	c-0.1-0.7-0.3-1.5-0.3-1.5S241.2,151.6,240.8,152.3z"/>
<path class="st12" d="M241.6,151c0,1.7-1.3,3.1-3,3.2c-1.7,0-3.1-1.3-3.2-3c0-0.1,0-0.1,0-0.2v0c0.1-1.7,1.5-3,3.2-3
	C240.3,148,241.6,149.4,241.6,151z"/>
<path class="st6" d="M242.1,171.4c-0.4,0-1.8,0-3.3,0h0h-0.5h0c-1.8,0-3.6-0.3-4.3-0.2c-1.5,0.1,0.5-1.4,0.5-1.4
	c1.1,0.3,2.3,0.4,3.5,0.3l0.4,0c1.4-0.1,2.8-0.2,3.5-0.4C241.9,170.1,242,170.7,242.1,171.4z"/>
<path class="st15" d="M242.1,171.3c-0.4,0-1.8,0-3.3,0h0h-0.5h0c-1.8,0-3.6-0.3-4.3-0.2c-1.5,0.1,0.5-1.4,0.5-1.4
	c1.1,0.3,2.3,0.4,3.5,0.3l0.4,0c1.4-0.1,2.8-0.2,3.5-0.4C241.9,170,242,170.6,242.1,171.3z"/>
<path class="st6" d="M237.7,155l-2.4,1.1l-1.9,14.3c0,0,1.1-0.5,1.7-0.2s2.5,0,2.5,0s1.4-0.1,1.6,0.1c0.2,0.2,2.6-0.6,2.6-0.6
	s0.4-1,0.1-1.1c-0.3-0.1,0.1-1.7,0.1-1.7l-0.2-10.3l-0.4-1.3l-1.1-0.7l-1.1,0.9l-0.5,0.1L237.7,155z"/>
<path class="st13" d="M237.7,154.8l-2.4,1.1l-1.8,14.3c0,0,1.1-0.5,1.7-0.2c0.6,0.3,2.5,0,2.5,0s1.4-0.1,1.6,0.1
	c0.2,0.2,2.6-0.6,2.6-0.6s0.4-1,0.1-1.1c-0.3-0.1,0.1-1.7,0.1-1.7l-0.2-10.3l-0.4-1.3l-1.1-0.7l-1.1,0.9l-0.5,0.1L237.7,154.8z"/>
<path class="st6" d="M237.7,155.5c0,0,0.7,0.8,0.7,1s0,0.6,0,0.6l-0.5,1.1c0,0-0.3,1.3-0.3,1.6c0,0.3-0.5,2.6-0.5,2.6l-0.5,3.6
	l-0.7,4.8l0.7,1.2l0.8-0.7l1.1-8.5l0.2-1.7c0,0,0.2-3,0.2-3.3c0-0.4-0.1-0.8-0.1-1.1c0,0,0.2-0.8,0.9-1c0.7-0.2-0.1,0-0.1,0
	l-0.4-0.3l-0.4,0.1C238.9,155.4,237.9,155.1,237.7,155.5z"/>
<path class="st14" d="M237.6,155.4c0,0,0.7,0.8,0.7,1c0,0.2,0,0.6,0,0.6l-0.5,1.1c0,0-0.3,1.3-0.3,1.6c0,0.3-0.5,2.6-0.5,2.6
	l-0.5,3.6l-0.7,4.8l0.7,1.2l0.8-0.7l1.1-8.5l0.2-1.7c0,0,0.2-3,0.2-3.3c0-0.4-0.1-0.8-0.1-1.1c0,0,0.2-0.8,0.9-1
	c0.7-0.2-0.1,0-0.1,0l-0.4-0.3l-0.4,0.1C238.8,155.3,237.8,155,237.6,155.4z"/>
<path class="st6" d="M237.1,154c0,0-0.1,0.1-0.1,0.6c-0.1,0.6-0.2,1.1-0.4,1.7c0,0,1.4-0.9,2-0.8L237.1,154z"/>
<path class="st13" d="M237.1,153.9c0,0-0.1,0.1-0.1,0.6c-0.1,0.6-0.2,1.1-0.4,1.7c0,0,1.4-0.9,2-0.8L237.1,153.9z"/>
<path class="st6" d="M240.8,153.6l-2.1,1.9c0,0,1.8,1.1,2,1.3c0.2,0.3,0.5-2.5,0.5-2.5L240.8,153.6z"/>
<path class="st13" d="M240.9,153.5l-2.1,1.9c0,0,1.8,1.1,2,1.3c0.2,0.3,0.5-2.5,0.5-2.5L240.9,153.5z"/>
<path class="st6" d="M237.2,154c0,0-0.2-0.1-0.5,0.2c-0.2,0.2-0.4,0.4-0.6,0.5c0,0-2.4,0.4-2.5,0.7l-1.1,0.1c0,0-0.4,0.1-0.4,0.9
	c0,0.8-0.2,0.9-0.2,0.9s-0.5,0.8-0.4,1.2c0,0.3-0.1,0.5-0.3,0.6l1.6,4.2c0,0,0,1.7-0.2,2.4c-0.3,0.6-0.9,3.5-0.9,3.5
	s0.2-0.1,0.2,0.1c0,0.2-0.3,1.9-0.3,1.9c0,0.3-0.1,0.6-0.2,0.9c-0.1,0.2-0.1,1.5-0.1,1.5l-0.2,0.9c0,0,0.5,1.1,1.2,0.9
	c0.7-0.2,2.1-3.1,2.1-3.1l0.9-3.2l0.7-3.1l0.2-2.1l0.3-4.7l0.5-3.1C236.9,155.9,237.4,154.3,237.2,154z"/>
<path class="st11" d="M237.1,153.9c0,0-0.2-0.1-0.5,0.2c-0.2,0.2-0.4,0.4-0.6,0.5c0,0-2.4,0.4-2.5,0.7l-1.1,0.1c0,0-0.4,0.1-0.4,0.9
	c0,0.8-0.2,0.9-0.2,0.9s-0.5,0.8-0.4,1.2c0,0.3-0.1,0.5-0.4,0.6l1.6,4.2c0,0,0.1,1.7-0.2,2.4c-0.3,0.6-0.9,3.5-0.9,3.5
	s0.2-0.1,0.2,0.1s-0.3,1.9-0.3,1.9c0,0.3-0.1,0.6-0.2,0.9c-0.1,0.2-0.1,1.5-0.1,1.5l-0.2,0.9c0,0,0.5,1.1,1.2,0.9
	c0.7-0.2,2.1-3.1,2.1-3.1l0.9-3.2l0.7-3.1l0.2-2.1l0.3-4.7l0.5-3.1C236.8,155.8,237.3,154.1,237.1,153.9z"/>
<path class="st6" d="M228.8,163.9l-0.7,0.5c-0.7,0-1.3,0-2-0.2l-0.4-0.2l-0.1,0l0.1,0c0.3,0.1,0.7,0.1,1,0c1.1-0.4,0.9-2.1,0.9-2.5
	c0,0,0-0.1,0-0.1l0,0l0,0c0,0,0,0,0,0.1l0,0l0,0l0.4,0.7c0,0,0,0,0,0L228.8,163.9z"/>
<path class="st11" d="M231.4,158.9l-0.4,0.1l0,0.7c-0.3,0-0.5,0.2-0.5,0.4c0,0.3-0.2,0.5-0.3,0.7c0,0-0.7,0.6-0.7,1.1l-0.4,0.3
	c0,0-1-0.2-1.2-0.6c0,0,0.5,3.3-2,2.5c0,0,2.8,1.2,2.9,1.4c0.5,0.4,1.2,0.5,1.8,0.2c0.4-0.2,0.8-0.6,0.9-1.1c0,0,0.7-1.1,0.8-1.2
	s0.6-0.3,0.6-0.3l1.1-2.7L231.4,158.9z"/>
<path class="st6" d="M240.5,155.2l0.4-1.7c0.1,0.2,0.2,0.5,0.3,0.7l0.6,0.4c0.2,0.1,0.5,0.2,0.7,0.2c0.2,0,1.2,0.3,1.4,0.4
	c0.1,0.1,0.6,0,0.6,0s0.4,0.1,0.8,0.2c0.4,0.1,0.6,0.7,0.5,1c-0.1,0.2,0,0.5,0.2,0.7c0.1,0.2,0.2,0.4,0.2,0.7
	c0.2,0.1,0.3,0.2,0.4,0.4c0.1,0.3,0.1,0.6,0.1,0.9l-1.9,2.7c0,0.4,0,0.9-0.1,1.3c-0.1,0.2,0.3,4.2,0.3,4.2l0.4,6.8
	c-0.2,0.2-0.4,0.3-0.6,0.5c-0.1,0.1-0.2-2.4-0.2-2.5s-3-4.5-3-4.5c-0.2-0.2-0.3-0.5-0.4-0.8c0-0.1-0.4-1.5-0.4-1.5l-0.6-2.5
	L240.5,155.2z"/>
<path class="st11" d="M247,159c0,0.1,0,0.1,0,0.1l-1.9,2.7l0,0c0,0.4,0,0.9,0,1.3c0,0.1,0.1,1.5,0.1,2.7c0.1,0.8,0.1,1.5,0.1,1.5
	l0.2,2.9l0.2,3.9c-0.2,0.2-0.4,0.3-0.6,0.5c-0.1,0.1-0.2-2.4-0.2-2.5s-3-4.5-3-4.5c-0.2-0.2-0.3-0.5-0.4-0.8c0-0.1-0.4-1.5-0.4-1.5
	l-0.6-2.5l0.2-7.7l0.2-1.7c0.1,0.2,0.3,0.5,0.5,0.7l0.6,0.4c0.2,0.1,0.5,0.2,0.7,0.2c0.2,0,1.2,0.3,1.4,0.4c0.1,0.1,0.6,0,0.6,0
	s0.4,0.1,0.8,0.2c0.4,0.1,0.6,0.7,0.5,1c-0.1,0.2,0,0.5,0.2,0.7c0.1,0.2,0.2,0.4,0.2,0.7c0.2,0.1,0.4,0.2,0.4,0.4
	C247,158.5,247,158.7,247,159z"/>
<path class="st6" d="M231.1,193.6c0.1,0,2.8,0.1,2.7,0.5C233.8,194.6,231.1,193.6,231.1,193.6z"/>
<path class="st6" d="M231.7,194.3c0,0,1.8,0.3,1.3,0.6C232.6,195.2,231.7,194.3,231.7,194.3z"/>
<path class="st6" d="M238.5,193.3c0,0,3,0.2,2.6,0.6s-1.5,0.4-1.6,0.4C239.2,194,238.8,193.6,238.5,193.3z"/>
<path class="st6" d="M238.2,194.6c0,0,1.7,0.3,1.7,0.6C240,195.6,238.2,194.6,238.2,194.6z"/>
<path class="st6" d="M239.1,186.8c0,0,1.5,0.4,1.6,0.6L239.1,186.8z"/>
<path class="st6" d="M233.1,187.9c0,0-0.8,0.2,0,0.7C233.9,189.1,233.1,187.9,233.1,187.9z"/>
<path class="st6" d="M236.7,175.5c0.1,0,1.5-0.5,2-0.2c0.4,0.1,0.7,0.2,1.1,0.2L236.7,175.5z"/>
<path class="st6" d="M236.9,176.9l0,0.1l-1.2,3.2c0,0-0.2,1-0.4,1.5c-0.1,0.4-0.2,0.7-0.2,1.1l1.1-6.6L236.9,176.9z"/>
<path class="st14" d="M238.8,171.3h-0.5h0L238,170l0.4,0L238.8,171.3z"/>
<path class="st12" d="M244.9,169.8l-0.3,0.3l-1.1,0.9c0,0-2.9,1.6-3.7,0.1c-0.7-1.3,2.6-2.2,3.4-2.4l0.2,0L244.9,169.8z"/>
<path class="st6" d="M232.4,157c0,0,0.6,0.2,0.7,0.6C233.3,158,232.4,157,232.4,157z"/>
<path class="st6" d="M230.7,160.9c0,0-0.8,1-0.5,1.4C230.5,162.7,230.7,160.9,230.7,160.9z"/>
<path class="st6" d="M245.5,157.6c0,0-0.8,0.1-0.8,0.7L245.5,157.6z"/>
<path class="st6" d="M238.3,168.2c0.1-0.1,1.9-2.7,2.3-2.5L238.3,168.2z"/>
<path class="st6" d="M241.6,151c0,0.5-0.1,1-0.4,1.5h0c-0.2,0-0.3-0.3-0.4-0.4c-0.2-0.2-0.5-0.2-0.7-0.1c-0.2,0.1-0.4,0.4-0.3,0.7
	c-0.1-0.4-0.1-0.9-0.2-1.3c-0.1-0.4-0.4-0.8-0.8-0.8c-0.2,0-0.4,0.1-0.5-0.1c-0.1-0.1-0.1-0.2-0.1-0.3c-0.3-0.5-1.1-0.2-1.5,0
	c-0.4,0.3-0.8,0.6-1.2,0.8c0.1-1.7,1.5-3,3.2-3C240.3,148,241.6,149.4,241.6,151L241.6,151z"/>
<path class="st14" d="M238.2,150.1c0.1,0.1,0.1,0.2,0.1,0.3c0.1,0.1,0.3,0.1,0.5,0.1c0.4,0,0.7,0.4,0.8,0.8s0.1,0.9,0.2,1.3
	c0-0.3,0.1-0.5,0.3-0.7c0.2-0.1,0.5-0.1,0.7,0.1c0.1,0.1,0.2,0.4,0.4,0.4c0.2,0,0.4-0.1,0.5-0.4c0-0.2,0.1-0.4,0.1-0.6
	c0.1-0.4,0.4-0.7,0.5-1.1c0.2-0.5,0.2-1,0-1.5c-0.1-0.2-0.2-0.5-0.3-0.7c-0.1-0.4-0.2-0.8-0.4-1.1c-0.3-0.6-1-0.9-1.6-0.7
	c-0.3,0.1-0.5,0.3-0.8,0.4c-0.4,0.1-0.8,0-1.2,0c-0.4-0.1-0.8-0.1-1.2,0.2c-0.4,0.3-0.5,0.9-0.8,1.2c-0.1,0.1-0.3,0.2-0.5,0.4
	c-0.2,0.1-0.3,0.3-0.3,0.5c0,0.3,0.3,0.5,0.2,0.8c0,0.1-0.1,0.1-0.1,0.2c-0.3,0.3-0.5,0.7-0.6,1.1c0.7,0.2,1.4-0.5,2-0.9
	C237,149.8,237.9,149.6,238.2,150.1z"/>
<path class="st6" d="M244.9,169.8l-0.3,0.3c-0.3-0.5-1.5-1.4-1.5-1.4l0,0l0.2,0L244.9,169.8z"/>
<path class="st13" d="M245.2,169.3c0,0-0.1,0.3-0.2,0.5c-0.1,0.3-0.2,0.5-0.2,0.3c0-0.4-1.5-1.6-1.5-1.6l0.2-0.2l0.2-0.2
	L245.2,169.3z"/>
<path class="st6" d="M245.3,167.3l0.2,2.9c-0.4-0.6-1.5-2.2-2.2-2.2l1.7-2c0.1-0.1,0.1-0.2,0.2-0.2
	C245.2,166.7,245.3,167.3,245.3,167.3z"/>
<path class="st6" d="M245.2,169.3c0,0-0.1,0.3-0.2,0.5c-0.5-0.6-1.1-1.4-1.6-1.5l0.2-0.2L245.2,169.3z"/>
<path class="st11" d="M246.5,158.8l0.5,0.4c0,0,0.8,0,0.9,0.7c0.1,0.7,0.8,0.9,0.8,0.9s0.5,0.5,0.5,0.8s0.4,0.7,0.4,0.7
	c0,0,0.4,0.8,0.3,1c-0.1,0.1,0.4,0.8,0.3,1c-0.1,0.2-0.2,0.4-0.3,0.6c0,0-0.6,1.2-0.9,1.4c-0.3,0.2-1.7,2.1-1.7,2.1
	s-1.5,1.8-1.5,2.3c0,0-1.5-2.5-2.4-2.4l1.7-2c0,0,0.3-0.3,0.3-0.5c0-0.2,0.8-1.1,1.2-1.1c0,0,0.1-0.5-0.1-0.5s-0.3-0.4-0.3-0.4
	s-1.1-1.4-1.2-2.2C244.9,160.5,246.5,158.8,246.5,158.8z"/>
<path class="st6" d="M247.2,160c0,0-1.1,0.8-0.9,1.1C246.6,161.3,247.2,160,247.2,160z"/>
<path class="st6" d="M247.2,163.3c0,0,2-0.6,2.2,0H247.2z"/>
<path class="st6" d="M234.7,197.8c0,0-1.1,0.7-1.6,0.6c-0.4,0-0.8,0-1.1,0.2c-0.4,0.4-0.8,0.7-1.4,0.9c-0.9,0.3-2.1,0.2-2.8-0.1
	c-0.3-0.1-0.4-0.2-0.2-0.4c0.8,0.2,2.5,0.5,2.9,0.2c0.5-0.3,1-0.6,1.5-0.9c0,0,1.1-0.2,1.3-0.2c0.5-0.2,1-0.3,1.5-0.6L234.7,197.8z"
	/>
<path class="st6" d="M241.3,199.3C241.3,199.3,241.3,199.3,241.3,199.3c0,0.1-0.2,0.6-1.7,0.8c-1.5,0.2-1.4-0.5-1.4-0.5s0-0.1,0-0.2
	C238.6,199.6,239.6,199.8,241.3,199.3z"/>
<path class="st6" d="M233,159.9c0,0,0,3-0.2,3.2C232.5,163.4,233,159.9,233,159.9z"/>
<path class="st6" d="M244.7,160.8l0.4,1.1C245,161.9,245.2,160.8,244.7,160.8z"/>
<g class="st16">
	<path d="M235.5,149.5c0.1-0.2-0.2-0.5-0.2-0.7c0,0.1,0,0.2,0,0.2C235.3,149.1,235.4,149.3,235.5,149.5
		C235.5,149.5,235.5,149.5,235.5,149.5z"/>
	<path d="M239.8,152.3c-0.1-0.4-0.1-0.8-0.2-1.2c-0.1-0.4-0.4-0.8-0.8-0.8c-0.2,0-0.4,0.1-0.5-0.1c-0.1-0.1-0.1-0.2-0.1-0.3
		c-0.3-0.5-1.1-0.2-1.5,0c-0.5,0.4-1.3,1.1-1.9,0.9c0,0.1-0.1,0.2-0.1,0.2c0.7,0.2,1.4-0.5,2-0.9c0.4-0.2,1.2-0.5,1.5,0
		c0.1,0.1,0.1,0.2,0.1,0.3c0.1,0.1,0.3,0.1,0.5,0.1c0.4,0,0.7,0.4,0.8,0.8s0.1,0.9,0.2,1.3C239.7,152.5,239.8,152.4,239.8,152.3z"/>
	<path d="M241.7,151.8c-0.1,0.2-0.2,0.4-0.5,0.4c-0.2,0-0.3-0.3-0.4-0.4c-0.2-0.2-0.5-0.2-0.7-0.1c-0.2,0.1-0.4,0.4-0.3,0.6
		c0.1-0.2,0.2-0.3,0.3-0.4c0.2-0.1,0.5-0.1,0.7,0.1c0.1,0.1,0.2,0.4,0.4,0.4c0.2,0,0.4-0.1,0.5-0.4c0-0.1,0.1-0.2,0.1-0.4
		C241.8,151.7,241.8,151.7,241.7,151.8z"/>
	<path d="M242.4,150c-0.1,0.4-0.4,0.7-0.5,1.1c0,0.1,0,0.2,0,0.2c0.1-0.4,0.4-0.7,0.5-1.1c0.1-0.2,0.1-0.4,0.1-0.5
		C242.4,149.8,242.4,149.9,242.4,150z"/>
</g>
<rect x="78.7" y="56.9" class="st8" width="18.5" height="19.1"/>
<rect x="102.4" y="56.9" class="st8" width="18.5" height="19.1"/>
<rect x="126.1" y="56.9" class="st17" width="18.5" height="19.1"/>
<rect x="149.9" y="56.9" class="st17" width="18.5" height="19.1"/>
<rect x="173.6" y="56.9" class="st17" width="18.5" height="19.1"/>
<rect x="179.7" y="53.4" transform="matrix(0.7975 -0.6033 0.6033 0.7975 0.25 126.7453)" class="st0" width="18.5" height="19.1"/>
<path class="st9" d="M88,58.9c-1.7,0-3.1,1.4-3.1,3.1s1.4,3.1,3.1,3.1S91,63.7,91,62c0,0,0,0,0,0C91,60.3,89.7,58.9,88,58.9
	C88,58.9,88,58.9,88,58.9z M90.1,62.8c-0.1,0-0.3-0.1-0.4-0.2c0-0.1,0-0.2,0-0.2c0.2,0,0.3,0,0.5-0.1c0.1,0,0,0,0-0.1
	C89.9,62,90,61.6,90,61.3c0-0.3-0.1-0.5-0.3-0.7c-0.1-0.1-0.3-0.1-0.5-0.1c-0.1,0-0.3,0-0.4,0.1c-0.6,0.2-0.2,1.1-0.5,1.6
	c0,0.1-0.1,0.1,0,0.2c0.1,0.1,0.3,0.1,0.4,0.1c0,0,0,0.2,0,0.2c0,0.1-0.2,0.1-0.2,0.1c-0.1,0-0.2,0.1-0.2,0.1c0,0,0,0,0,0.1
	c0,0,0,0,0,0c0.1,0,0.1,0,0.2,0c0.3,0.1,0.5,0.2,0.7,0.4c0.2,0.2,0.3,0.4,0.3,0.7c0,0.1,0,0.1-0.1,0.2l-0.1,0.1c0,0,0,0-0.1,0
	c0,0,0,0,0,0c0-0.4-0.3-0.8-0.7-1c-0.2-0.1-0.4-0.1-0.6-0.1c-0.1,0-0.2,0-0.2-0.1c0-0.1,0-0.1,0-0.2c0-0.1,0-0.1,0-0.2
	s0.1-0.1,0.1-0.1c0.1-0.1,0.1-0.3,0.1-0.5c0.1,0,0.1-0.2,0.2-0.3c0-0.1,0.1-0.3,0-0.3c0-0.1,0.1-0.1,0.1-0.2c0-0.2,0-0.4,0-0.6
	C88,60.2,87.6,60,87.2,60c-0.4,0-0.8,0.2-0.9,0.6c-0.1,0.2-0.1,0.4,0,0.6c0,0.1,0,0.2,0.1,0.3c-0.1,0-0.1,0.2,0,0.3
	c0,0.1,0,0.3,0.2,0.3c0,0.1,0,0.2,0.1,0.4c0,0.1,0.1,0.1,0.1,0.2c0,0,0,0,0,0.1c0,0.1,0,0.2,0,0.4c0,0.1-0.3,0.2-0.4,0.2
	c-0.2,0-0.4,0.1-0.6,0.2c-0.8-1.3-0.3-2.9,0.9-3.7c0.4-0.2,0.9-0.4,1.3-0.4c0.7,0,1.4,0.3,1.9,0.8c0.5,0.5,0.8,1.2,0.8,1.9
	c0,0.4-0.1,0.7-0.2,1.1C90.3,62.9,90.2,62.9,90.1,62.8L90.1,62.8z"/>
<path class="st18" d="M88.2,73.1v-3.4l1.6,1.6l0.4-0.4L88,68.6l-2.2,2.2l0.4,0.4l1.6-1.6v3.4H88.2z"/>
<path class="st18" d="M111.9,73.1v-3.4l1.6,1.6l0.4-0.4l-2.2-2.2l-2.2,2.2l0.4,0.4l1.6-1.6v3.4H111.9z"/>
<path class="st9" d="M111.7,61.4C111.7,61.4,111.7,61.4,111.7,61.4c-0.1,0-0.1,0-0.1,0l-1.3,1.7c0,0,0,0.1,0,0.1c0,0,0,0,0,0
	l2.2,0.2c0,0,0.1,0,0.1-0.1c0,0,0,0,0,0L111.7,61.4L111.7,61.4z M113.2,62.3C113.2,62.3,113.1,62.3,113.2,62.3c-0.1,0-0.1,0-0.1,0
	l-0.3,0.3c0,0,0,0.1,0,0.1l0.4,0.7c0,0,0,0,0,0l0.6,0.1c0,0,0.1,0,0.1-0.1c0,0,0,0,0,0L113.2,62.3L113.2,62.3z M113.4,61.7
	c0.2,0,0.3-0.1,0.3-0.3c0-0.2-0.1-0.4-0.3-0.4c-0.2,0-0.4,0.1-0.4,0.3C113,61.5,113.1,61.7,113.4,61.7
	C113.3,61.7,113.3,61.7,113.4,61.7z"/>
<path class="st9" d="M114.4,60.4l-0.9-0.1l-0.1-0.9c0-0.2-0.2-0.4-0.4-0.3l-4.1,0.4c-0.2,0-0.4,0.2-0.3,0.4c0,0,0,0,0,0l0.4,4.1
	c0,0.2,0.2,0.4,0.4,0.3c0,0,0,0,0,0l0.2,0l0,0.2c0,0.2,0.1,0.4,0.3,0.4c0,0,0,0,0,0l4.1,0.4c0.2,0,0.4-0.1,0.4-0.3l0.4-4.1
	C114.8,60.6,114.6,60.4,114.4,60.4C114.4,60.4,114.4,60.4,114.4,60.4L114.4,60.4z M109.3,62.8c-0.1,0-0.1,0-0.1-0.1l-0.2-2.8
	c0-0.1,0-0.1,0.1-0.1c0,0,0,0,0,0l3.9-0.3c0.1,0,0.1,0,0.1,0.1l0.1,0.7l-2.8-0.2c-0.2,0-0.4,0.1-0.4,0.3c0,0,0,0,0,0l-0.2,2.4
	L109.3,62.8L109.3,62.8z M114.4,60.9l-0.2,2.8c0,0.1-0.1,0.1-0.1,0.1l-0.2,0l-3.6-0.3c-0.1,0-0.1,0-0.1-0.1c0,0,0,0,0,0l0.1-0.6
	l0.2-2.2c0-0.1,0-0.1,0.1-0.1c0,0,0,0,0,0l2.8,0.2l0.4,0L114.4,60.9C114.3,60.8,114.4,60.9,114.4,60.9L114.4,60.9z"/>
<rect x="78.7" y="94.9" class="st8" width="42.2" height="31.4"/>
<path class="st1" d="M104.6,104.6c-7.7-2.7-16.2,1.4-18.8,9.2c-0.5,1.6-0.8,3.2-0.8,4.8c0,0.6-0.5,1.1-1.1,1.1
	c-0.6,0-1.1-0.5-1.1-1.1c0-9.3,7.6-16.9,16.9-16.9c1.9,0,3.7,0.3,5.4,0.9"/>
<path class="st9" d="M105.3,102.5c6.8,2.3,11.4,8.8,11.5,16c0,0.6-0.5,1.1-1.1,1.1c-0.6,0-1.1-0.5-1.1-1.1c0-6.3-4-11.9-10-14"/>
<path class="st1" d="M101.4,111.1L101.4,111.1c-0.6,0-1.2,0.3-1.6,0.8c-0.3-0.5-0.9-0.8-1.5-0.8h0c-1,0-1.8,0.8-1.8,1.8
	c0,0.8,0.3,1.5,0.8,2.2c1,1.3,2.6,2.5,2.6,2.5s1.6-1.2,2.6-2.5c0.5-0.6,0.7-1.4,0.8-2.2C103.2,111.9,102.4,111.1,101.4,111.1z"/>
<rect x="132.5" y="81.7" class="st8" width="64" height="47.6"/>
<rect x="139.1" y="117.6" class="st9" width="2.6" height="8.8"/>
<rect x="144.1" y="106.7" class="st9" width="2.6" height="19.7"/>
<rect x="149.1" y="96.9" class="st8" width="2.6" height="29.5"/>
<rect x="154.1" y="89.9" class="st9" width="2.6" height="36.4"/>
<rect x="149.1" y="89.9" class="st1" width="2.6" height="36.4"/>
<rect x="159.1" y="106.3" class="st1" width="2.6" height="20"/>
<rect x="164.1" y="101.1" class="st9" width="2.6" height="25.2"/>
<rect x="169.1" y="93.3" class="st9" width="2.6" height="33.1"/>
<rect x="174.1" y="111.6" class="st17" width="2.6" height="14.7"/>
<rect x="179.1" y="104.8" class="st17" width="2.6" height="21.5"/>
<rect x="184" y="96.9" class="st17" width="2.6" height="29.5"/>
<rect x="189" y="96.9" class="st17" width="2.6" height="29.5"/>
<polygon class="st11" points="203.7,77.1 206.2,75.7 207.4,76.4 231.5,192.2 230.1,192.4 227.1,189.8 "/>
<polygon class="st6" points="206.2,75.7 230.1,192.4 231.5,192.2 207.4,76.4 "/>
<polygon class="st11" points="188.5,82 206.8,83.8 206.8,85.2 188.6,83.6 "/>
<polygon class="st11" points="190.5,99.3 209.9,99.3 209.9,101.3 190.2,101.3 "/>
<polygon class="st11" points="192.3,117.4 211.9,116.6 214.3,117.4 214.3,118.7 196.9,119.6 192.4,119.6 "/>
<polygon class="st6" points="197.2,118.4 214.3,117.4 214.3,118.7 196.9,119.6 "/>
<polygon class="st6" points="192.3,117.4 197.2,118.4 196.9,119.6 192.4,119.6 "/>
<polygon class="st11" points="194,137 215.7,135 218.1,135.6 218.1,137 198.7,139 194,139.4 "/>
<polygon class="st6" points="198.7,137.8 215.9,136.1 218.1,135.6 218.1,137 198.7,139 "/>
<polygon class="st6" points="193.8,138.1 198.7,137.8 198.7,139 194,139.4 "/>
<polygon class="st11" points="195.1,156.5 219.5,153.2 221.6,154.1 221.6,155.7 200.5,158.8 195.6,158.8 "/>
<polygon class="st6" points="200.5,157.8 221.6,154.1 221.6,155.7 200.5,158.8 "/>
<polygon class="st6" points="195.4,157.9 200.5,157.8 200.5,158.8 195.6,158.8 "/>
<polygon class="st11" points="196.5,176.6 223.3,171.6 225.6,173 225.6,174.1 202.2,179.8 197.3,180.1 "/>
<polygon class="st6" points="202.2,178.6 225.6,173 225.6,174.1 202.2,179.8 "/>
<polygon class="st6" points="197,178.9 202.2,178.6 202.2,179.8 197.3,180.1 "/>
<polygon class="st11" points="190.3,74.3 188.1,74.7 195.9,199.2 198.2,200 200,200 "/>
<polygon class="st6" points="189.2,74.5 198.2,200 200,200 190.3,74.3 "/>
<rect x="181.9" y="52.6" transform="matrix(0.7975 -0.6033 0.6033 0.7975 1.1796 127.9502)" class="st9" width="18.5" height="19.1"/>
<rect x="181.9" y="52.6" transform="matrix(0.7975 -0.6033 0.6033 0.7975 1.1796 127.9502)" class="st8" width="18.5" height="19.1"/>
<path class="st18" d="M195.5,67.5l-2.1-2.7l2.2,0.3l0.1-0.6l-3.1-0.4l-0.4,3.2l0.5,0.1l0.3-2.2l2.1,2.7L195.5,67.5z"/>
<path class="st9" d="M190.7,61.5c-1.3,1-3.1,0.7-4.1-0.6c-0.5-0.6-0.7-1.4-0.6-2.2c0-0.1,0.1-0.2,0.3-0.2c0,0,0,0,0,0
	c0.1,0,0.2,0.1,0.2,0.3c-0.2,1.3,0.7,2.6,2,2.8c0.7,0.1,1.3-0.1,1.8-0.5c1.1-0.8,1.2-2.4,0.4-3.4c-0.8-1-2.1-1.2-3.1-0.6l0.5,0.7
	c0.1,0.1,0,0.3-0.1,0.3c-0.1,0.1-0.2,0-0.3,0l-0.7-0.9c-0.1-0.1-0.1-0.2,0-0.3c1.3-0.9,3.1-0.6,4,0.7
	C192.1,58.9,191.9,60.6,190.7,61.5L190.7,61.5z"/>
<path class="st9" d="M187.2,58.8l1.8,0c0.2,0,0.5,0.2,0.5,0.4c0,0.2-0.2,0.5-0.4,0.5c0,0,0,0-0.1,0c0,0-0.1,0-0.1,0l-1.7-0.5
	c-0.1,0-0.1-0.1-0.1-0.2c0,0,0,0,0,0C187.1,58.9,187.1,58.8,187.2,58.8z"/>
<linearGradient id="SVGID_2_" gradientUnits="userSpaceOnUse" x1="-844.6663" y1="69.0236" x2="-844.6663" y2="128.321" gradientTransform="matrix(0.9993 -3.838781e-02 -3.838781e-02 -0.9993 1042.4767 156.0877)">
	<stop  offset="0" style="stop-color:#808080;stop-opacity:0.25"/>
	<stop  offset="0.54" style="stop-color:#808080;stop-opacity:0.12"/>
	<stop  offset="1" style="stop-color:#808080;stop-opacity:0.1"/>
</linearGradient>
<path class="st19" d="M209.7,117.8c-0.2-0.7-0.3-1.2-0.3-1.2c0-0.4-0.1-0.9-0.3-1.3V115l0,0l-0.1-1.4c0.1-0.2,0.2-0.5,0.3-0.7
	c0.2-0.4-0.1-2-0.1-2s-1-2.2-0.8-3.6c0.2-1.4-2.1-6.1-2.1-6.1c0-0.5,0-0.9,0.1-1.4c0-0.1,0-0.2,0-0.3c0,0,0,0,0,0l0,0
	c-0.1-0.9-0.9-2.6-0.9-2.6l0-3.3c0,0,0.4-2-0.5-4.5c-0.3-0.9-0.5-1.6-0.6-2.2c0-0.1,0-0.1,0-0.2c1.6-0.3,2.7-0.5,2.7-0.5
	s-1.1-3.8-1.7-4.4s-1.2-2.7-1.2-2.7s-0.4-2.7,0.1-3.5c0.5-0.8,0.5-2.2,0.5-2.2s1.1-0.9,1.3-1.3c0.2-0.5,0.3-1.1,0.3-1.7
	c0-0.4-0.2-0.8-0.1-1.1c0-0.2-0.4-1.1-0.2-1.6c0-0.1,0.1-0.3,0.1-0.4c0,0,0,0,0,0l0,0c0-0.4-0.1-0.7-0.1-1.1
	c-0.4-0.3-0.8-0.5-1.2-0.6l0-0.1l-0.1-0.3c0,0-0.1,0-0.1-0.1v-0.1l0-0.4l0.2-0.9c0.3-1.5-1.7-1.7-1.7-1.7c-0.1-0.2-0.4-0.4-0.6-0.5
	c-0.4-0.1,0,2.3,0.2,2.4c0.3,0.4,0.6,0.8,0.8,1.2l0,0l0,0.1c0,0-0.1,0.1-0.1,0.1l0.1,0.5l0,0.1c-0.1,0.2-0.2,0.4-0.3,0.6
	c0.2,0.2,0.3,0.5,0.3,0.8c0,0.4,0,0.7,0.2,1c0,0-0.3-0.3-0.5-0.2c-0.3,0.1-1,0.3-1,0.3s-0.5,0.1-0.5,0.2s-0.3,0.7-0.3,0.7l-1.5-1.3
	c0,0,0-0.1,0-0.1c-0.1-0.2-0.1-0.4-0.1-0.6c0.2,0,0.3-0.1,0.5-0.2c0.2-0.1,0.3-0.2,0.4-0.3c0.1-0.2,0.2-0.4,0.2-0.6
	c0.1-0.4,0.3-0.8,0.5-1.2c0.3-0.7,0.3-1.4,0.2-2.2c0-0.2-0.1-0.4-0.2-0.6c-0.2-0.3-0.7-0.4-1-0.7c-0.3-0.2-0.5-0.6-0.9-0.8
	c-0.4-0.1-0.7-0.2-1.1-0.1c-0.7,0.2-1.4,0.4-2,0.8c-0.2,0.2-0.4,0.2-0.7,0.2c-0.2-0.1-0.4-0.2-0.5-0.3c0,0,0,0,0,0l0,0
	c-0.1,0.3-0.2,0.7-0.2,1.1c0,0.1,0,0.1,0,0.2c0,0,0,0,0,0.1c0,0,0,0,0,0.1l0,0c0,0,0,0.1,0,0.1c0,0.1-0.1,0.1-0.1,0.2
	c0,0.1-0.1,0.1-0.1,0.2c0,0,0,0,0-0.1c-0.1,0.1-0.1,0.3-0.1,0.5c0,0.1,0,0.2,0.1,0.3c0.1,0.1,0.2,0.1,0.2,0.2c0,0.2,0,0.3,0,0.5
	c0,1,0.6,1.9,1.5,2.3c0,0,0,0.1,0.1,0.1c0.2,0.5,0.3,1,0.3,1.6c0,0,0,0.1,0,0.1l0,0.1l0,0c0,0-2.4,0.1-3-0.4
	c-0.6-0.5-1.4,1.3-1.4,1.3s-0.9,0.2-1,0c-0.2-0.2-1.2,0-1.2,0c-0.4-0.4-1-0.5-1.5-0.5c-0.3-0.2-0.7-0.4-1.1-0.6l0,0h0l0,0
	c-0.2-0.1-0.4-0.1-0.5,0c0,0-1.2-0.9-1.6-1.4c-0.4-0.5-2.1-2.4-2.1-2.4V65l0-0.3c0,0-0.1,0-0.1,0l0-0.1c-0.1-0.3-0.2-0.5-0.4-0.8
	c0,0,0-0.4,0.1-0.4c0.1-0.1-0.1-1.4-0.1-1.4s-1.2-2.4-2-0.5c0,0-1.7,1.3-0.2,2.6c0,0,0.6,0.3,0.7,0.5c0.1,0.1,0.3,0.6,0.4,0.8
	l0.1,0.1l0,0l0,0.2v0.1c-0.3,0.2-0.5,0.3-0.4,0.5c0.1,0.2,0.2,0.4,0.2,0.6c0,0,2.2,2.5,2.5,3.6c0,0,5.7,3.1,7.6,3.3l-0.2,1.7
	c0,0-0.1,1,0,1.4c0,0.4-0.1,2-0.1,2s-0.2,2.4-0.5,2.7s-0.2,1.8-0.2,1.8c0,0.7-0.1,1.4-0.3,2c-0.1,0.7-0.1,1.4,0,2
	c0,0-0.8,2.2,1.3,0.6c0,0,1.1-0.1,2.4-0.2c0,0,0,0.1,0,0.1c0,0.2,0,0.3,0,0.5c0,1.2,0.1,2.9,0.2,4.2c0.2,2.2,1,6.7,1,6.7l0.1,2.2
	c0,0.2,0,0.4,0,0.6c0,0.8,0.3,1.6,0.7,2.2l0.2,1.5c0,0,0.4,1,0.5,1.6c0,0,0,0.1,0,0.1c0,0.1,0,0.2,0,0.2c0,0.7,0.5,2.3,0.5,2.3
	s0.1,1.6,0.3,1.7c0.2,0.1-0.2,1-0.4,1.2c0,0,0,0,0,0l0,0c0,0.1-0.1,0.3-0.1,0.4c0,0.2,0.1,0.4,0.3,0.6c0.5,0.3,0.7,0.5,0.3,0.6
	c-0.1,0-0.3,0.1-0.4,0.1c0,0,0,0,0-0.1c-0.1,0-0.2,0.2-0.2,0.3c0,0.2,0.1,0.4,0.2,0.5c0.2,0.4,0.4,0.8,0.7,1.2l0.2,0
	c0,0.1-0.1,0.1-0.1,0.2c-0.1,0.1-0.2,0.2-0.3,0.2c-0.1,0.1-0.2,0.1-0.3,0.1c-0.3,0-0.5,0.2-0.7,0.4c-0.2,0.3-0.4,0.8,0.1,1.1
	l1.8,0.5c0,0,3,0.2,2.8-0.4s-0.3-1.2-0.3-1.2c0-0.4-0.1-0.8-0.3-1.2c0-0.1-0.1-0.1-0.1-0.2l0.1,0c0,0,0.2-1.5,0.4-1.8
	c0.1-0.1,0.1-0.1,0.1-0.2c0-0.1-0.1-0.1-0.2-0.1c0,0,0,0,0,0.1c-0.1,0-0.2,0-0.3,0c0,0-0.1-0.8,0.2-1.1c0-0.1,0.1-0.2,0.1-0.2
	c0-0.1,0-0.2,0-0.3c0,0,0,0,0,0c-0.2-0.6-0.5-1.2-0.8-1.8c0,0,0-0.7,0.1-1c0.2-0.3-0.2-3.9-0.2-3.9s0-1.7-0.2-2.5s0.2-1.8,0.2-1.8v0
	l0,0c0,0,0-0.1,0-0.3v0c-0.1-0.5-0.2-1.3-0.3-1.7c-0.1-0.5-0.1-3.2-0.1-3.2l0.4-1.1l0.9,1.9l0.9,2.5c0.2,0.3,0.4,0.7,0.5,1.1
	c0,0,0,0.1,0,0.1c0,0.1,0,0.1,0,0.2c0,0.3,0.1,0.6,0.3,0.9c0,0,0.3,1.2,0.6,1.5c0.2,0.2,0.4,0.6,0.4,0.9c0,0,0.5,1.7,0.7,2
	c0.2,0.2,0.2,1,0.2,1.2l0,0c0,0,0,0.1,0,0.1s0.1,0.6,0.1,1.2v0.2c0,0.1,0,0.3-0.1,0.4c0,0,0,0,0,0c0,0,0-0.1,0-0.1
	c-0.1,0.4-0.1,0.7-0.1,1.1c0,0.6,0.1,1.4,0.5,1.8c0.7,0.7,1.1,0.6,1.1,0.6s-0.3,1-0.7,1.2c0,0,0,0,0,0c0,0,0,0,0-0.1
	c-0.1,0.1-0.1,0.2-0.1,0.4c0,0.5,0.2,1,0.5,1.4c0.1,0.1,0.2,0.1,0.3,0.2l-0.1,0c0,0-0.1,0-0.1,0.1c-0.1,0-0.1,0-0.2,0.1
	c-0.3,0-0.5,0.2-0.7,0.4c-0.2,0.3-0.4,0.8,0.1,1.1l1.8,0.5C206.8,118.2,209.9,118.4,209.7,117.8z"/>
<path class="st20" d="M198.2,119.3l-1.7-0.5c-0.5-0.4-0.3-0.8-0.1-1.1c0.2-0.2,0.4-0.3,0.7-0.4c0.1,0,0.2-0.1,0.3-0.1
	c0.1-0.1,0.2-0.1,0.2-0.2c0.1-0.2,0.2-0.4,0.2-0.7c0,0,1.8-0.6,2.4-0.1c0.1,0.1,0.2,0.2,0.2,0.3c0.2,0.4,0.3,0.8,0.3,1.2
	c0,0,0.1,0.6,0.3,1.2C201.1,119.6,198.2,119.3,198.2,119.3z"/>
<path class="st20" d="M206.5,118.2l-1.7-0.5c-0.5-0.4-0.3-0.8-0.1-1.1c0.2-0.2,0.4-0.3,0.7-0.4c0.1,0,0.1,0,0.2-0.1
	c0,0,0.1,0,0.1-0.1c0.5-0.3,0.4-0.9,0.4-0.9s1.8-0.6,2.4-0.1c0.1,0.1,0.1,0.1,0.2,0.2c0.2,0.4,0.3,0.8,0.3,1.3c0,0,0.1,0.6,0.3,1.2
	C209.4,118.4,206.5,118.2,206.5,118.2z"/>
<path class="st6" d="M200.1,116.2c0.1,0.1,0.2,0.2,0.2,0.3l0,0l-2.8,0.4c0.1-0.2,0.2-0.4,0.2-0.7
	C197.8,116.2,199.6,115.6,200.1,116.2z"/>
<path class="st6" d="M208.6,115.2l0,0.5c-0.4,0.7-2.5,0.7-3.1,0.3c0,0,0.1,0,0.1-0.1c0.5-0.3,0.4-0.9,0.4-0.9s1.8-0.6,2.4-0.1
	C208.5,115.1,208.5,115.2,208.6,115.2z"/>
<path class="st21" d="M208.8,113c-0.1,0.2-0.2,0.5-0.3,0.7l0.1,1.9c-0.4,0.8-2.9,0.6-3.3,0.2c-0.3-0.4-0.7-1.5-0.4-1.7
	c0.4-0.2,0.6-1.2,0.6-1.2s-0.4,0.1-1.1-0.6s-0.5-2.4-0.4-2.8s-0.1-1.7-0.1-1.7s0-0.9-0.2-1.2c-0.2-0.3-0.7-2-0.7-2
	c0-0.3-0.1-0.6-0.4-0.9c-0.3-0.3-0.6-1.5-0.6-1.5c-0.2-0.3-0.3-0.6-0.3-1c0-0.6-0.4-1.2-0.4-1.2l-0.9-2.5l-0.8-1.9l-0.4,1.1
	c0,0,0,2.6,0.1,3.2c0.1,0.5,0.3,2,0.3,2s-0.4,1-0.2,1.8c0.2,0.8,0.2,2.5,0.2,2.5s0.4,3.6,0.2,3.9c-0.2,0.3-0.1,1-0.1,1
	s1.1,2,0.7,2.3c-0.3,0.3-0.2,1.1-0.2,1.1s0.7,0,0.4,0.3c-0.3,0.3-0.4,1.8-0.4,1.8l-2.9,0.4c-0.3-0.4-0.5-0.8-0.7-1.2
	c-0.4-0.9,0-0.8,0.4-0.9c0.4-0.1,0.1-0.3-0.3-0.6s-0.2-0.9-0.2-0.9s0.6-1.2,0.4-1.3c-0.2-0.1-0.3-1.7-0.3-1.7s-0.5-1.9-0.4-2.5
	c0.1-0.5-0.4-1.8-0.4-1.8l-0.2-1.5c-0.5-0.8-0.8-1.8-0.6-2.8l-0.1-2.3c0,0-0.8-4.4-1-6.7c-0.1-1.4-0.2-3.4-0.2-4.6
	c0-0.7,0-1.1,0-1.1l10.2-1.5c0,0.5,0.1,1,0.2,1.5c0.1,0.6,0.3,1.3,0.6,2.2c0.8,2.6,0.5,4.5,0.5,4.5l0,3.3c0,0,1,2.2,0.8,2.9
	c-0.1,0.5-0.1,0.9-0.1,1.4c0,0,2.2,4.7,2,6.1c-0.2,1.4,0.8,3.6,0.8,3.6S209.1,112.5,208.8,113z"/>
<path class="st22" d="M202.5,100.8l3.1-0.5C205.6,100.3,203.9,102.2,202.5,100.8z"/>
<path class="st6" d="M205,97.3c0,0,0.1,1.1-0.5,1.5C204.5,98.8,205.7,98.6,205,97.3z"/>
<path class="st6" d="M204.7,93.8c0,0-2.5,2.2-3.5,2.1S204.7,93.8,204.7,93.8z"/>
<path class="st6" d="M198.7,102c0,0-2,0.5-2,1.3S198.7,102,198.7,102z"/>
<path class="st22" d="M199.5,111.9c0,0-2.8,0.6-2,1c0.7,0.2,1.4,0.4,2.1,0.6C199.7,113.4,200.6,113.4,199.5,111.9z"/>
<g class="st23">
	<path d="M197,113.4c-0.1-0.1-0.2-0.2-0.3-0.4l0,0.1c0,0-0.2,0.6,0.2,0.9l0.1,0.1c0.1,0,0.2,0,0.2-0.1
		C197.7,113.9,197.4,113.7,197,113.4z"/>
	<path d="M200.6,113.1c0.1-0.1,0.1-0.2,0-0.5c-0.1,0.2-0.2,0.5-0.1,0.7C200.5,113.2,200.5,113.1,200.6,113.1z"/>
	<path d="M199.7,101.3c-0.1,0.3-0.1,0.6-0.2,0.9c0-0.2,0.1-0.4,0.2-0.6C199.7,101.6,199.7,101.5,199.7,101.3z"/>
	<path d="M206.1,99.8c0-0.1,0-0.2,0-0.3c0,0.2,0,0.3-0.1,0.5C206,100,206,99.9,206.1,99.8z"/>
	<path d="M200,109.7c0-0.2,0.1-0.4,0-0.5c-0.1,0.2-0.1,0.4-0.1,0.7C199.9,109.8,199.9,109.8,200,109.7z"/>
	<path d="M200.7,114.2c-0.1,0.5-0.2,1-0.3,1.5l-2.9,0.4c-0.3-0.4-0.5-0.8-0.7-1.2c0-0.1-0.1-0.1-0.1-0.2c-0.2,0.1-0.2,0.3,0,0.8
		c0.2,0.4,0.4,0.8,0.7,1.2l2.9-0.4c0,0,0.2-1.5,0.4-1.8C200.9,114.3,200.8,114.2,200.7,114.2z"/>
	<path d="M196.8,110.1c0,0,0.1,1.6,0.3,1.7l0,0c0.1-0.3,0.2-0.5,0.1-0.6c-0.2-0.1-0.3-1.7-0.3-1.7s-0.5-1.9-0.5-2.5
		c0.1-0.5-0.4-1.8-0.4-1.8l-0.2-1.5c-0.5-0.8-0.8-1.8-0.6-2.8l-0.1-2.3c0,0-0.8-4.4-1-6.7c-0.1-1.4-0.2-3.4-0.2-4.6
		c0-0.2,0-0.4,0-0.6h-0.1c0,0,0,0.5,0,1.1c0,1.2,0.1,3.2,0.2,4.6c0.2,2.2,1,6.7,1,6.7l0.1,2.3c-0.1,1,0.1,2,0.6,2.8l0.2,1.5
		c0,0,0.5,1.2,0.4,1.8C196.2,108.1,196.8,110.1,196.8,110.1z"/>
	<path d="M205.4,115.2c-0.2-0.3-0.4-0.7-0.5-1.1c-0.3,0.3,0.1,1.3,0.4,1.7c0.3,0.4,2.8,0.6,3.3-0.2l0-0.5
		C208,115.7,205.7,115.5,205.4,115.2z"/>
	<path d="M208.9,112.3c-0.1,0.2-0.2,0.5-0.3,0.7l0,0.3c0.1-0.2,0.1-0.3,0.2-0.5C208.9,112.7,208.9,112.5,208.9,112.3L208.9,112.3z"
		/>
	<path d="M205.5,112.8c0.1-0.2,0.2-0.4,0.2-0.6c0,0-0.4,0.1-1.1-0.6c-0.5-0.5-0.6-1.6-0.5-2.2c-0.1,0.4-0.2,2.1,0.4,2.8
		C205,112.7,205.3,112.8,205.5,112.8z"/>
	<path d="M204,107.6c0.1,0.5,0.1,0.9,0.1,1.4c0-0.1,0-0.2,0-0.2c0.1-0.4-0.1-1.7-0.1-1.7s0-0.9-0.2-1.2s-0.7-2-0.7-2
		c0-0.3-0.1-0.6-0.4-0.9c-0.3-0.3-0.6-1.5-0.6-1.5c-0.2-0.3-0.3-0.6-0.3-1c0-0.6-0.5-1.2-0.5-1.2l-0.9-2.5l-0.8-1.9l-0.4,1.1v0.4
		l0.3-0.9l0.8,1.9l0.9,2.5c0,0,0.5,0.6,0.5,1.2c0,0.4,0.1,0.7,0.3,1c0,0,0.2,1.2,0.6,1.5c0.2,0.2,0.4,0.6,0.4,0.9c0,0,0.5,1.7,0.7,2
		C204,106.7,204,107.6,204,107.6z"/>
</g>
<path class="st24" d="M204.3,63.9l-0.1,0.9l0,0.4l0,0.3l-1,0.1l-0.1-0.2l0,0c-0.2-0.4-0.5-0.8-0.8-1.2c-0.2-0.1-0.6-2.5-0.2-2.4
	c0.2,0.1,0.4,0.3,0.6,0.5C202.7,62.3,204.6,62.4,204.3,63.9z"/>
<path class="st6" d="M204.2,65.5l-1,0.1l-0.1-0.2l0,0c0.3-0.3,0.7-0.4,1.1-0.2L204.2,65.5z"/>
<path class="st25" d="M204.5,65.9l-1.3,0.4l0-0.2l-0.1-0.5c0.3-0.4,0.8-0.5,1.2-0.2l0.1,0.3L204.5,65.9z"/>
<path class="st24" d="M183.3,64.8l-1.4,0.8l-0.1-0.2c-0.1-0.3-0.4-0.7-0.4-0.8c-0.1-0.2-0.7-0.5-0.7-0.5c-1.5-1.3,0.2-2.6,0.2-2.6
	c0.8-1.9,2,0.6,2,0.6s0.2,1.3,0.1,1.4c-0.1,0.1-0.1,0.4-0.1,0.4c0.1,0.3,0.3,0.5,0.4,0.8C183.3,64.8,183.3,64.8,183.3,64.8z"/>
<path class="st6" d="M183.3,64.8l-1.4,0.8l-0.1-0.2c0.2-0.2,0.9-0.8,1.1-0.7c0.1,0,0.2,0,0.3,0C183.3,64.8,183.3,64.8,183.3,64.8z"
	/>
<path class="st25" d="M183.5,65.3l-1.5,0.8l0-0.3l0-0.2c0,0,0.9-0.8,1.1-0.8c0.1,0,0.3,0,0.4,0l0,0.3L183.5,65.3z"/>
<path class="st24" d="M200.8,69.8c0,0-6.8,1-5.5,0.6c0.9-0.3,1.2-0.9,1.2-1.5c0-0.5-0.1-1.1-0.3-1.6c-0.2-0.4-0.4-0.8-0.7-1.2
	c0,0,5.1-3.1,4.2-0.4c-0.1,0.4-0.2,0.8-0.2,1.2c0,0.4,0,0.8,0.2,1.2C199.8,68.8,200.2,69.4,200.8,69.8z"/>
<path class="st6" d="M199.7,65.7c-0.1,0.4-0.2,0.8-0.2,1.2c-0.5,0.4-1,0.4-1.7,0.5c-0.5,0-1.1,0.2-1.6-0.1c-0.2-0.4-0.4-0.8-0.7-1.2
	C195.5,66.1,200.6,63,199.7,65.7z"/>
<circle class="st24" cx="197.5" cy="64.7" r="2.8"/>
<path class="st6" d="M200.8,69.8c0,0-6.8,1-5.5,0.6c0.9-0.3,1.2-0.9,1.2-1.5c0.3-0.4,1-0.7,1.4-0.8c0.4-0.1,0.8-0.2,1.2-0.1
	c0.2,0,0.3,0.1,0.5,0.2C199.8,68.8,200.2,69.4,200.8,69.8z"/>
<path class="st6" d="M204.5,65.9l-1.3,0.4l0-0.2c0.3-0.4,0.8-0.6,1.2-0.5L204.5,65.9z"/>
<path class="st6" d="M183.5,65.3l-1.5,0.8l0-0.3c0.5-0.3,1-0.5,1.6-0.7L183.5,65.3z"/>
<path class="st6" d="M204.1,86.9c-2.6,0.5-6.4,1.2-7,1c-0.5-0.1-2.1-0.1-3.5,0c0-0.7,0-1.1,0-1.1l10.2-1.5
	C203.9,85.9,204,86.4,204.1,86.9z"/>
<path class="st26" d="M206.7,86.2c0,0-8.6,1.8-9.6,1.6c-0.9-0.2-5.7,0.2-5.7,0.2c-2.1,1.5-1.3-0.6-1.3-0.6c-0.1-0.7-0.1-1.4,0-2
	c0.2-0.7,0.2-1.3,0.3-2c0,0-0.1-1.4,0.1-1.8c0.2-0.3,0.5-2.7,0.5-2.7s0.2-1.6,0.1-2c0-0.4,0-1.4,0-1.4l0.2-1.7
	c-1.8-0.2-7.3-3.3-7.3-3.3c-0.3-1.1-2.4-3.6-2.4-3.6c0-0.2-0.1-0.4-0.2-0.6c-0.2-0.4,1.9-1.2,1.9-1.2s1.7,1.9,2,2.4
	c0.4,0.5,1.5,1.4,1.5,1.4c0.2,0,0.4,0,0.5,0c0,0,0,0,0,0l0,0c0.4,0.1,0.8,0.3,1.1,0.6c0.5,0,1.1,0.1,1.5,0.5c0,0,1-0.2,1.1,0
	c0.2,0.2,1,0,1,0s0.8-1.8,1.3-1.3c0.6,0.5,2.9,0.4,2.9,0.4c0.3-0.4,1-0.7,1.5-0.9c0.4-0.1,0.8-0.2,1.2-0.1c0.2,0,0.3,0.1,0.5,0.2
	l1.5,1.3c0,0,0.4-0.5,0.3-0.7c-0.1-0.1,0.5-0.2,0.5-0.2s0.7-0.2,0.9-0.3s0.5,0.2,0.5,0.2c-0.1-0.3-0.2-0.7-0.2-1
	c0-0.3-0.1-0.6-0.3-0.8c0.7-2.1,2.7-0.4,2.7-0.4s0.2,1.1,0.1,1.5s0.2,1.3,0.2,1.6c0,0.2,0.1,0.6,0.1,1.1c0,0.6-0.1,1.1-0.3,1.7
	c-0.1,0.4-1.2,1.3-1.2,1.3s0,1.4-0.5,2.2c-0.5,0.8-0.1,3.5-0.1,3.5s0.6,2.1,1.2,2.7C205.7,82.4,206.7,86.2,206.7,86.2z"/>
<path class="st6" d="M193.5,71.1c0,0-0.3-0.8-0.5-0.8c-0.2-0.1-0.5-0.2-0.7-0.3l0.1-0.3c0,0,0.9,0.2,1.1,0.5
	C193.6,70.4,193.5,71.1,193.5,71.1z"/>
<path class="st6" d="M188.6,69.5c0,0.2-2.1,0.5-2.1,0.5l1-1.1l0,0h0l0,0C187.9,69.1,188.3,69.3,188.6,69.5z"/>
<circle class="st21" cx="182.4" cy="66.5" r="0.2"/>
<circle class="st21" cx="182.6" cy="66.9" r="0.2"/>
<circle class="st21" cx="182.9" cy="67.2" r="0.2"/>
<circle class="st21" cx="183.2" cy="67.6" r="0.2"/>
<circle class="st21" cx="205.5" cy="66.7" r="0.2"/>
<circle class="st21" cx="205.6" cy="67.1" r="0.2"/>
<circle class="st21" cx="205.6" cy="67.4" r="0.2"/>
<path class="st6" d="M193.7,77.5c0,0,5.6,6.5,9.6,2.5C203.3,80,196.8,81.1,193.7,77.5z"/>
<path class="st6" d="M190.8,81.1c0,0,3.2,0,3.6,0.9l0,1c-0.2,0.1-0.4,0.1-0.6,0c-0.3-0.2-2.3-1.1-3-0.6L190.8,81.1z"/>
<path class="st26" d="M190.8,81.1c0,0,3.1,0,3.4,0.8l0,0.9c-0.2,0.1-0.4,0.1-0.6,0c-0.3-0.2-2.2-1-2.8-0.5L190.8,81.1z"/>
<path class="st6" d="M192.3,74.1c0.4,0.7,0.8,1.4,1.3,2.1c0.6,0.7,1.2,1.3,2,1.8C195.6,78,192.3,74.6,192.3,74.1z"/>
<path class="st6" d="M191.1,70.4c0,0,0.6,2.3,2,3L191.1,70.4z"/>
<path class="st6" d="M190.3,70.7c0,0-0.4,1.8,1.9,2.8C192.1,73.5,191.2,73.2,190.3,70.7z"/>
<path class="st6" d="M204.2,68.6c0,0,1.1,0.7,1.5,1C205.6,69.6,204.8,68.6,204.2,68.6z"/>
<path class="st20" d="M196.9,67.3c0,0.1,0.1,0.3,0.2,0.4c0.1,0,0.2,0.1,0.3,0c0.9,0,1.8,0,2.5-0.3c0.1-0.1,0.3-0.2,0.4-0.3
	c0.1-0.2,0.2-0.4,0.2-0.6c0.1-0.4,0.3-0.8,0.5-1.2c0.3-0.7,0.3-1.4,0.2-2.2c0-0.2-0.1-0.4-0.2-0.6c-0.2-0.3-0.7-0.4-1-0.7
	c-0.3-0.2-0.5-0.6-0.9-0.8c-0.3-0.1-0.7-0.2-1.1-0.1c-0.7,0.1-1.4,0.4-2,0.8c-0.2,0.2-0.4,0.2-0.7,0.2c-0.2-0.1-0.4-0.2-0.5-0.4
	c-0.2,0.4-0.2,0.8-0.2,1.2c0,0.1,0,0.1,0,0.2c0,0.1-0.1,0.1-0.1,0.2c-0.2,0.2-0.3,0.6-0.1,0.9c0.1,0.1,0.2,0.2,0.3,0.3
	c0.2,0.2,0.1,0.5,0.1,0.7c0,0.1,0,0.2,0.1,0.2c0.1,0.1,0.2,0.1,0.4,0.1c0.1,0,0.2-0.1,0.4,0c0.1,0,0.3,0.1,0.3,0.2
	C196.5,66.2,196.7,66.7,196.9,67.3z"/>
<g class="st16">
	<path d="M200.4,66.9c-0.1,0.1-0.2,0.2-0.4,0.3c-0.8,0.4-1.7,0.4-2.5,0.3c-0.1,0-0.2,0-0.3,0c-0.1-0.1-0.2-0.2-0.2-0.4
		c-0.1-0.6-0.4-1.2-0.8-1.6c-0.1-0.1-0.2-0.2-0.3-0.2c-0.1,0-0.3,0-0.4,0c-0.1,0-0.3,0-0.4-0.1c-0.1-0.1-0.1-0.2-0.1-0.2
		c0-0.2,0-0.5-0.1-0.7c-0.1-0.1-0.2-0.2-0.3-0.3c-0.1-0.2-0.2-0.4-0.1-0.6c-0.2,0.2-0.2,0.5,0,0.7c0.1,0.1,0.2,0.2,0.3,0.3
		c0.2,0.2,0.1,0.5,0.1,0.7c0,0.1,0,0.2,0.1,0.2c0.1,0.1,0.2,0.1,0.4,0.1c0.1,0,0.2-0.1,0.4,0c0.1,0,0.3,0.1,0.3,0.2
		c0.4,0.5,0.6,1,0.8,1.6c0,0.2,0.1,0.3,0.2,0.4c0.1,0,0.2,0.1,0.3,0c0.9,0,1.7,0,2.5-0.3c0.1-0.1,0.3-0.2,0.4-0.3
		C200.4,67,200.4,66.9,200.4,66.9L200.4,66.9z"/>
	<path d="M194.7,63c0,0,0.1-0.1,0.1-0.1c0-0.1,0-0.1,0-0.2c0-0.3,0-0.7,0.1-1l0,0c-0.2,0.4-0.2,0.8-0.2,1.2
		C194.7,62.9,194.7,63,194.7,63z"/>
</g>
<path class="st6" d="M196.4,69c0,0,3.5,0.3,3.8-0.2"/>
<path class="st6" d="M203.2,67.3c0,0,2-0.1,2.4,0.6"/>
<rect x="206.5" y="154.8" transform="matrix(1.570794e-03 -1 1 1.570794e-03 51.6966 379.8983)" class="st9" width="19.1" height="18.5"/>
<rect x="206.5" y="154.8" transform="matrix(1.570794e-03 -1 1 1.570794e-03 51.6966 379.8983)" class="st9" width="19.1" height="18.5"/>
<path class="st18" d="M216.4,170.9v-3.4l1.6,1.6l0.4-0.4l-2.2-2.2l-2.2,2.2l0.4,0.4l1.6-1.6v3.4L216.4,170.9z"/>
<path class="st8" d="M213,159.3h3.1v-3.1c-0.1,0-0.1,0-0.2,0c-1.6,0-2.8,1.3-2.9,2.8c0,0,0,0,0,0C213,159.2,213,159.3,213,159.3z"/>
<path class="st8" d="M214.1,161.4c1,1.2,2.8,1.4,4,0.4c1.2-1,1.4-2.8,0.4-4c-0.5-0.6-1.2-1-2-1.1v3.1h-3.1
	C213.5,160.4,213.7,160.9,214.1,161.4z"/>
<path class="st1" d="M53.4,25.8c-1.6,3.3-4.2,7.1-7.2,5.7c-3-1.4-5.2-7.6-3.6-10.9s5.3-4.8,8.3-3.4C53.9,18.6,55,22.5,53.4,25.8z"/>
<path class="st1" d="M47,33.6c0,0-0.6-0.1-0.4-0.6c0,0,0-0.1,0.1-0.1c0.1-0.1,0.2-0.3,0.2-0.4c0-0.1,0-0.1,0-0.2c0-0.3,0-0.5,0-0.8
	l1.6-0.1c0,0-0.6,0.5-0.5,0.8c0,0,0,0.1,0.1,0.1c0,0,0.1,0,0.1,0c0,0,0.1,0,0.1,0c0.4,0.1,0.2,0.4,0.2,0.4
	C48.4,33.4,47,33.6,47,33.6z"/>
<path class="st2" d="M48,32.3l-1.1,0.2c0-0.1,0-0.1,0-0.2C47.2,32.2,47.7,32.2,48,32.3C48,32.2,48,32.2,48,32.3z"/>
<path class="st1" d="M47,33.6c0,0-0.6-0.1-0.4-0.6c0.2,0.1,0.5,0.1,0.7,0c0.4-0.1,0.7-0.3,0.9-0.7c0.4,0.1,0.2,0.4,0.2,0.4
	C48.4,33.4,47,33.6,47,33.6z"/>
<path class="st6" d="M47,33.6c0,0-0.6-0.1-0.4-0.6c0.2,0.1,0.5,0.1,0.7,0c0.4-0.1,0.7-0.3,0.9-0.7c0.4,0.1,0.2,0.4,0.2,0.4
	C48.4,33.4,47,33.6,47,33.6z"/>
<path class="st27" d="M47.8,17.5c0,0-1.8-0.2-2.3,1c0.2,0,0.4,0,0.6,0c0.1,0.1,0.3,0.1,0.4,0.1C46.9,18.1,47.3,17.7,47.8,17.5z"/>
<path class="st1" d="M44.3,41.6c-0.3,0.3-0.6,0.6-1,0.8c-0.1,0.1-0.2,0.1-0.3,0.2c-2.8,1.6-7.8,1.6-10.2-0.5
	c-2.2-1.9-2.9-4.8-2.1-7.2c0-0.1,0.1-0.2,0.1-0.3c0.2-0.5,0.5-1,0.9-1.4c1.8-2,4.7-2.4,7.3-1.2c0.2,0.1,0.4,0.2,0.7,0.4
	c0.1,0.1,0.2,0.1,0.3,0.2c0.3,0.2,0.5,0.4,0.7,0.6c0.1,0.1,0.2,0.2,0.4,0.4l0,0c0.8,0.7,1.5,1.5,2.2,2.4c0.2,0.3,0.4,0.5,0.6,0.8
	c0.1,0.2,0.2,0.4,0.3,0.6c0.5,0.8,0.7,1.6,0.7,2.5c0,0.1,0,0.2,0,0.2v0c0,0.3-0.1,0.6-0.3,0.9C44.7,41.2,44.5,41.4,44.3,41.6z"/>
<path class="st6" d="M44.3,41.6c-0.3,0.3-0.6,0.6-1,0.8c-0.1,0.1-0.2,0.1-0.3,0.2c-2.8,1.6-7.8,1.6-10.2-0.5
	c-2.2-1.9-2.9-4.8-2.1-7.2c0-0.1,0.1-0.2,0.1-0.3c0.2-0.5,0.5-1,0.9-1.4c1.8-2,4.7-2.4,7.3-1.2c0.2,0.1,0.4,0.2,0.7,0.4
	c0.1,0.1,0.2,0.1,0.3,0.2c0.3,0.2,0.5,0.4,0.7,0.6c0.1,0.1,0.2,0.2,0.4,0.4l0,0c0.8,0.7,1.5,1.5,2.2,2.4c0.2,0.3,0.4,0.5,0.6,0.8
	c0.1,0.2,0.2,0.4,0.3,0.6c0.5,0.8,0.7,1.6,0.7,2.5c0,0.1,0,0.2,0,0.2v0c0,0.3-0.1,0.6-0.3,0.9C44.7,41.2,44.5,41.4,44.3,41.6z"/>
<path class="st1" d="M45.9,41.5C45.9,41.5,45.9,41.5,45.9,41.5c-0.2-0.2-0.3-0.3-0.5-0.4c-0.1,0-0.1-0.1-0.2-0.1
	c-0.2-0.1-0.3-0.1-0.5-0.1c-0.1,0-0.2,0-0.2,0l0.2-1.1v0l0.1-0.5c0.1,0.1,0.1,0.3,0.2,0.4c0.1,0.2,0.2,0.3,0.4,0.3c0,0,0.1,0,0.1,0
	c0,0,0.1-0.1,0.1-0.1c0,0,0-0.1,0.1-0.1c0.2-0.4,0.4-0.1,0.4-0.1c0.3,0.1,0.4,0.4,0.4,0.8c0,0,0,0.1,0,0.1c0,0.2,0,0.5,0,0.7
	C46.6,41.4,46.3,41.9,45.9,41.5z"/>
<path class="st2" d="M45.4,41.1c-0.1,0-0.1-0.1-0.2-0.1c0.1-0.2,0.1-0.6,0.2-0.9c0,0,0,0,0-0.1s0-0.1,0-0.1c0,0,0.1,0,0.1,0l0,0.2
	v0.1L45.4,41.1z"/>
<path class="st1" d="M45.9,41.5c0.1-0.2,0.2-0.4,0.2-0.7c0-0.1,0-0.3,0-0.4c0,0,0-0.1,0-0.1c-0.1-0.2-0.2-0.4-0.3-0.5
	c0.2-0.4,0.4-0.1,0.4-0.1c0.3,0.1,0.4,0.4,0.4,0.8c0,0,0,0.1,0,0.1c0,0.2,0,0.5,0,0.7C46.6,41.4,46.3,41.9,45.9,41.5z"/>
<path class="st6" d="M45.9,41.5c0.1-0.2,0.2-0.4,0.2-0.7c0-0.1,0-0.3,0-0.4c0,0,0-0.1,0-0.1c-0.1-0.2-0.2-0.4-0.3-0.5
	c0.2-0.4,0.4-0.1,0.4-0.1c0.3,0.1,0.4,0.4,0.4,0.8c0,0,0,0.1,0,0.1c0,0.2,0,0.5,0,0.7C46.6,41.4,46.3,41.9,45.9,41.5z"/>
<path class="st27" d="M31.3,36.2c0,0-0.7,1.6,0.3,2.5c0-0.2,0.1-0.4,0.2-0.6c0.1-0.1,0.2-0.2,0.2-0.4C31.6,37.3,31.4,36.8,31.3,36.2
	z"/>
<path class="st1" d="M56.7,31.3c-1.3,0.9-2.9,1.7-4.4,2.1c-1.1,0.3-2.2,0.5-3.1,0.2c-0.4-0.1-0.8-0.3-1.1-0.6
	c-0.2-0.2-0.4-0.4-0.5-0.6c-1.1-1.6-1-4.6-0.2-7.1c0.6-1.7,1.6-3.3,2.8-4.1c3.1-2,7.1-1.4,8.9,1.4S59.8,29.3,56.7,31.3z"/>
<path class="st6" d="M56.7,31.3c-1.3,0.9-2.9,1.7-4.4,2.1c-1.1,0.3-2.2,0.5-3.1,0.2c-0.4-0.1-0.8-0.3-1.1-0.6
	c-0.2-0.2-0.4-0.4-0.5-0.6c-1.1-1.6-1-4.6-0.2-7.1c0.6-1.7,1.6-3.3,2.8-4.1c3.1-2,7.1-1.4,8.9,1.4S59.8,29.3,56.7,31.3z"/>
<path class="st1" d="M49,34.6c-0.4,0.6-1.7,0-1.7,0s-0.4-0.4,0-0.7c0,0,0.1,0,0.1-0.1c0.1-0.1,0.3-0.2,0.4-0.3c0,0,0.1-0.1,0.1-0.1
	c0.1-0.1,0.2-0.3,0.3-0.4c0-0.1,0.1-0.2,0.1-0.2l1.4,0.7c-0.1,0-0.3,0.1-0.4,0.1c-0.2,0.1-0.4,0.2-0.4,0.3c0,0,0,0.1,0,0.1
	c0,0,0,0.1,0.1,0.1c0,0,0.1,0.1,0.1,0.1C49.2,34.5,49,34.6,49,34.6z"/>
<path class="st2" d="M48.8,34l-1-0.4c0,0,0.1-0.1,0.1-0.1c0.2,0.1,0.6,0.3,0.9,0.5C48.8,33.9,48.8,34,48.8,34z"/>
<path class="st1" d="M49,34.6c-0.4,0.6-1.7,0-1.7,0s-0.4-0.4,0-0.7c0.2,0.2,0.4,0.3,0.6,0.4c0.4,0.1,0.8,0.1,1.1-0.1
	C49.2,34.5,49,34.6,49,34.6z"/>
<path class="st6" d="M49,34.6c-0.4,0.6-1.7,0-1.7,0s-0.4-0.4,0-0.7c0.2,0.2,0.4,0.3,0.6,0.4c0.4,0.1,0.8,0.1,1.1-0.1
	C49.2,34.5,49,34.6,49,34.6z"/>
<path class="st27" d="M56.3,21.3c0,0-1.4-1.1-2.4-0.4c0.2,0.1,0.4,0.2,0.5,0.4c0.1,0.1,0.2,0.2,0.3,0.3
	C55.2,21.3,55.8,21.2,56.3,21.3z"/>
<g class="st16">
	<path d="M28.6,30.2c-0.1,0.2-0.2,0.4-0.2,0.6c-1-0.8-0.3-2.4-0.3-2.4c0.1,0.6,0.3,1.1,0.7,1.5C28.8,29.9,28.7,30,28.6,30.2z"/>
	<path d="M41.3,33l0.3-1.6c0.1,0.1,0.1,0.3,0.2,0.4c0,0.4-0.1,0.8-0.3,1.2C41.5,33,41.4,33,41.3,33z"/>
	<path d="M41.2,33.5c0,0.1-0.1,0.1-0.1,0.2c-0.3,0.3-0.6,0.6-1,0.8c-0.1,0.1-0.2,0.1-0.3,0.2c-2.4,1.3-6.4,1.5-9,0.3
		c0.2-0.6,0.6-1.2,1-1.8c1.8-2,4.7-2.4,7.3-1.2c0.6,0.3,1.2,0.7,1.7,1.1C40.9,33.3,41.1,33.4,41.2,33.5z"/>
	<path d="M42.7,33.6C42.7,33.6,42.6,33.6,42.7,33.6c-0.2-0.2-0.3-0.3-0.5-0.4c0,0-0.1-0.1-0.2-0.1c-0.2-0.1-0.3-0.1-0.5-0.1
		c-0.1,0-0.2,0-0.2,0l0.3-1.6c0.1,0.1,0.1,0.3,0.2,0.4c0.1,0.2,0.3,0.3,0.4,0.3c0,0,0.1,0,0.1,0c0,0,0.1-0.1,0.1-0.1l0.1-0.1
		c0.2-0.4,0.4-0.1,0.4-0.1c0.6,0.2,0.4,1.7,0.4,1.7S43.1,34,42.7,33.6z"/>
	<path d="M42.2,33.2c0,0-0.1-0.1-0.2-0.1c0.1-0.3,0.1-0.7,0.2-1c0,0,0.1,0,0.1,0L42.2,33.2z"/>
	<path d="M42.7,33.6c0.1-0.2,0.2-0.4,0.2-0.7c0-0.4-0.1-0.8-0.4-1.1c0.2-0.4,0.4-0.1,0.4-0.1c0.6,0.2,0.4,1.7,0.4,1.7
		S43.1,34,42.7,33.6z"/>
	<path class="st6" d="M42.7,33.6c0.1-0.2,0.2-0.4,0.2-0.7c0-0.4-0.1-0.8-0.4-1.1c0.2-0.4,0.4-0.1,0.4-0.1c0.6,0.2,0.4,1.7,0.4,1.7
		S43.1,34,42.7,33.6z"/>
	<path class="st6" d="M28.4,30.8c-1-0.8-0.3-2.4-0.3-2.4c0.1,0.6,0.3,1.1,0.7,1.5c0,0.1-0.1,0.3-0.2,0.4
		C28.5,30.3,28.4,30.5,28.4,30.8z"/>
</g>
<path class="st1" d="M41.3,33.4l-0.1,0.1c-0.3,0.3-0.6,0.5-0.9,0.7l-0.1,0.1c-0.1,0-0.1,0.1-0.2,0.1c-2.4,1.3-6.5,1.5-9.1,0.2
	c-0.4-0.2-0.8-0.4-1.1-0.7c-2.8-2.4-3.2-6.4-1-8.9c1.8-2,4.7-2.4,7.3-1.2c0.1,0,0.2,0.1,0.2,0.1c0.5,0.3,1,0.6,1.5,1
	c1,0.8,1.8,1.8,2.6,2.7c0.2,0.2,0.3,0.4,0.5,0.6c0,0.1,0.1,0.1,0.1,0.2c0.1,0.1,0.1,0.2,0.2,0.3c0.1,0.1,0.1,0.2,0.1,0.2
	c0.5,0.8,0.7,1.6,0.7,2.5c0,0.4-0.1,0.8-0.3,1.2C41.6,32.9,41.5,33.2,41.3,33.4z"/>
<path class="st1" d="M42.9,33.3C42.9,33.3,42.8,33.2,42.9,33.3c-0.2-0.2-0.3-0.3-0.5-0.4c-0.1,0-0.1-0.1-0.2-0.1
	c-0.2-0.1-0.3-0.1-0.5-0.1c-0.1,0-0.2,0-0.2,0l0.3-1.6c0.1,0.1,0.1,0.3,0.2,0.4c0.1,0.2,0.3,0.3,0.4,0.3c0,0,0.1,0,0.1,0
	c0,0,0.1-0.1,0.1-0.1c0,0,0-0.1,0.1-0.1c0.2-0.4,0.4-0.1,0.4-0.1c0.6,0.2,0.4,1.7,0.4,1.7S43.3,33.7,42.9,33.3z"/>
<path class="st2" d="M42.4,32.9c-0.1,0-0.1-0.1-0.2-0.1c0.1-0.3,0.1-0.7,0.2-1c0,0,0.1,0,0.1,0L42.4,32.9z"/>
<path class="st1" d="M42.9,33.3c0.1-0.2,0.2-0.4,0.2-0.7c0-0.4-0.1-0.8-0.4-1.1c0.2-0.4,0.4-0.1,0.4-0.1c0.6,0.2,0.4,1.7,0.4,1.7
	S43.3,33.7,42.9,33.3z"/>
<path class="st6" d="M42.9,33.3c0.1-0.2,0.2-0.4,0.2-0.7c0-0.4-0.1-0.8-0.4-1.1c0.2-0.4,0.4-0.1,0.4-0.1c0.6,0.2,0.4,1.7,0.4,1.7
	S43.3,33.7,42.9,33.3z"/>
<path class="st27" d="M28.3,28c0,0-0.7,1.6,0.3,2.5c0-0.2,0.1-0.4,0.2-0.6c0.1-0.1,0.2-0.2,0.2-0.4C28.6,29.1,28.4,28.6,28.3,28z"/>
<g class="st16">
	<path d="M38.5,16.9c-0.1,0.1-0.3,0.1-0.4,0.1c-0.2,0-0.4,0.1-0.6,0.2c0.1-1.3,1.8-1.6,1.8-1.6C38.9,15.8,38.6,16.3,38.5,16.9z"/>
	<path d="M41,28.4c0.1,0.2,0.2,0.4,0.3,0.6c-0.2-0.1-0.5-0.2-0.7-0.3c-1.8-0.9-3.6-2.8-4.6-4.9c0.6,0.3,1.2,0.7,1.7,1.1
		c1,0.8,1.8,1.8,2.6,2.7C40.6,27.9,40.8,28.2,41,28.4z"/>
	<path d="M44.2,28.8c-0.3,0.2-0.7,0.4-1.2,0.4c0-0.1-0.1-0.2-0.1-0.2l1.5-0.6C44.3,28.5,44.3,28.6,44.2,28.8z"/>
	<path d="M43.7,30.9c0,0-0.6,0.1-0.5-0.4c0,0,0-0.1,0-0.1c0-0.2,0.1-0.3,0-0.5c0-0.1,0-0.1,0-0.2c0-0.2-0.1-0.3-0.2-0.5
		c0-0.1-0.1-0.2-0.1-0.2l1.5-0.6c-0.1,0.1-0.1,0.3-0.2,0.4c-0.1,0.2-0.1,0.4-0.1,0.5c0,0,0.1,0.1,0.1,0.1c0,0,0.1,0,0.1,0h0.1
		c0.4,0,0.3,0.2,0.3,0.2C45,30.3,43.7,30.9,43.7,30.9z"/>
	<path d="M44.2,29.4l-1,0.5c0-0.1,0-0.1,0-0.2C43.5,29.6,43.9,29.4,44.2,29.4C44.2,29.3,44.2,29.4,44.2,29.4z"/>
	<path d="M43.7,30.9c0,0-0.6,0.1-0.5-0.4c0.2,0,0.5-0.1,0.7-0.2c0.3-0.2,0.6-0.5,0.6-0.9c0.4,0,0.3,0.2,0.3,0.2
		C45,30.3,43.7,30.9,43.7,30.9z"/>
	<path class="st6" d="M43.7,30.9c0,0-0.6,0.1-0.5-0.4c0.2,0,0.5-0.1,0.7-0.2c0.3-0.2,0.6-0.5,0.6-0.9c0.4,0,0.3,0.2,0.3,0.2
		C45,30.3,43.7,30.9,43.7,30.9z"/>
	<path class="st6" d="M38.5,16.9c-0.1,0.1-0.3,0.1-0.4,0.1c-0.2,0-0.4,0.1-0.6,0.2c0.1-1.3,1.8-1.6,1.8-1.6
		C38.9,15.8,38.6,16.3,38.5,16.9z"/>
</g>
<path class="st1" d="M44.3,28.6c-0.3,0.2-0.7,0.4-1.2,0.4c-0.3,0-0.6,0-0.8,0c-0.4-0.1-0.8-0.2-1.1-0.3c-0.1-0.1-0.3-0.1-0.4-0.2
	l0,0c-1.7-0.9-3.4-2.7-4.4-4.6c-0.7-1.3-1.1-2.7-0.9-4c0.5-3.7,3.5-6.3,6.8-5.9c3.3,0.4,5.6,3.7,5.1,7.4c-0.1,1.3-0.4,2.5-0.8,3.7
	c0,0.1-0.1,0.2-0.1,0.3C46,26.8,45.3,28,44.3,28.6z"/>
<path class="st6" d="M44.3,28.6c-0.3,0.2-0.7,0.4-1.2,0.4c-0.3,0-0.6,0-0.8,0c-0.4-0.1-0.8-0.2-1.1-0.3c-0.1-0.1-0.3-0.1-0.4-0.2
	l0,0c-1.7-0.9-3.4-2.7-4.4-4.6c-0.7-1.3-1.1-2.7-0.9-4c0.5-3.7,3.5-6.3,6.8-5.9c3.3,0.4,5.6,3.7,5.1,7.4c-0.1,1.3-0.4,2.5-0.8,3.7
	c0,0.1-0.1,0.2-0.1,0.3C46,26.8,45.3,28,44.3,28.6z"/>
<path class="st1" d="M43.8,30.8c0,0-0.6,0.1-0.5-0.4c0,0,0-0.1,0-0.1c0-0.2,0.1-0.3,0-0.5c0-0.1,0-0.1,0-0.2c0-0.2-0.1-0.3-0.2-0.5
	c0-0.1-0.1-0.2-0.1-0.2l1.5-0.6c-0.1,0.1-0.1,0.3-0.2,0.4c-0.1,0.2-0.1,0.4-0.1,0.5c0,0,0.1,0.1,0.1,0.1c0,0,0.1,0,0.1,0h0.1
	c0.4,0,0.3,0.2,0.3,0.2C45.1,30.1,43.8,30.8,43.8,30.8z"/>
<path class="st2" d="M44.3,29.2l-1,0.5c0-0.1,0-0.1,0-0.2C43.6,29.4,44,29.3,44.3,29.2C44.3,29.2,44.3,29.2,44.3,29.2z"/>
<path class="st1" d="M43.8,30.8c0,0-0.6,0.1-0.5-0.4c0.2,0,0.5-0.1,0.7-0.2c0.3-0.2,0.6-0.5,0.6-0.9c0.4,0,0.3,0.2,0.3,0.2
	C45.1,30.1,43.8,30.8,43.8,30.8z"/>
<path class="st6" d="M43.8,30.8c0,0-0.6,0.1-0.5-0.4c0.2,0,0.5-0.1,0.7-0.2c0.3-0.2,0.6-0.5,0.6-0.9c0.4,0,0.3,0.2,0.3,0.2
	C45.1,30.1,43.8,30.8,43.8,30.8z"/>
<path class="st27" d="M39.4,15.3c0,0-1.7,0.4-1.8,1.6c0.2-0.1,0.4-0.2,0.6-0.2c0.1,0,0.3,0,0.4-0.1C38.7,16.2,39,15.7,39.4,15.3z"/>
<path class="st1" d="M62.7,43.6c-2.2,2.5-6.2,2.6-9,0.2c-1.4-1.2-2.8-2.6-3.6-4.1c-0.5-0.7-0.7-1.6-0.7-2.5c0-0.4,0.1-0.8,0.3-1.2
	c0.1-0.3,0.3-0.5,0.5-0.7c0.6-0.7,1.4-1.2,2.2-1.5c2.9-1.1,7.1-1,9.2,0.8C64.3,37.1,64.8,41.1,62.7,43.6z"/>
<path class="st1" d="M49.6,37.6c-0.1-0.1-0.1-0.3-0.2-0.4c-0.1-0.2-0.3-0.3-0.4-0.3c0,0-0.1,0-0.1,0c0,0-0.1,0.1-0.1,0.1
	c0,0,0,0.1-0.1,0.1c-0.2,0.4-0.4,0.1-0.4,0.1c-0.6-0.2-0.4-1.7-0.4-1.7s0.2-0.5,0.6-0.2c0,0,0.1,0.1,0.1,0.1
	c0.1,0.1,0.2,0.2,0.4,0.3c0.1,0,0.1,0.1,0.2,0.1c0.2,0.1,0.3,0.1,0.5,0.1c0.1,0,0.2,0,0.2,0L49.6,37.6z"/>
<path class="st2" d="M48.9,36.9c0,0-0.1,0-0.1,0l0.1-1.1c0.1,0,0.1,0.1,0.2,0.1C49,36.2,49,36.6,48.9,36.9z"/>
<path class="st1" d="M48.7,37.1c-0.2,0.4-0.4,0.1-0.4,0.1c-0.6-0.2-0.4-1.7-0.4-1.7s0.2-0.5,0.6-0.2c-0.1,0.2-0.2,0.4-0.2,0.7
	C48.3,36.5,48.4,36.8,48.7,37.1z"/>
<path class="st6" d="M48.7,37.1c-0.2,0.4-0.4,0.1-0.4,0.1c-0.6-0.2-0.4-1.7-0.4-1.7s0.2-0.5,0.6-0.2c-0.1,0.2-0.2,0.4-0.2,0.7
	C48.3,36.5,48.4,36.8,48.7,37.1z"/>
<path class="st27" d="M63.1,40.6c0,0,0.7-1.7-0.3-2.4c0,0.2-0.1,0.4-0.2,0.6c-0.1,0.1-0.2,0.2-0.2,0.4C62.8,39.5,63.1,40,63.1,40.6z
	"/>
<path class="st6" d="M50.1,39.7c-0.5-0.7-0.7-1.6-0.7-2.5c-0.1-0.2-0.3-0.3-0.4-0.3c0,0-0.1,0-0.1,0c0,0-0.1,0.1-0.1,0.1
	c0,0,0,0.1-0.1,0.1c-0.2,0.4-0.4,0.1-0.4,0.1c-0.6-0.2-0.4-1.7-0.4-1.7s0.2-0.5,0.6-0.2c0,0,0.1,0.1,0.1,0.1
	c0.1,0.1,0.2,0.2,0.4,0.3c0.1,0,0.1,0.1,0.2,0.1c0.2,0.1,0.3,0.1,0.5,0.1c0.1-0.3,0.3-0.5,0.5-0.7c0.6-0.7,1.4-1.2,2.2-1.5
	C52,36.1,51.3,38.4,50.1,39.7z"/>
<path class="st6" d="M46.6,40.5c-0.2,0-0.4-0.1-0.5-0.1c-0.2,0-0.3-0.1-0.5-0.2l-0.1,0c-0.1-0.1-0.3-0.1-0.4-0.2
	c-0.1-0.1-0.2-0.1-0.3-0.2c-1.9-1.1-3.7-3.3-4.6-5.5c-0.2-0.6-0.4-1.3-0.4-1.9c0-0.3,0-0.7,0-1c0.1-1,0.4-1.9,0.9-2.8
	c0.1-0.1,0.1-0.2,0.2-0.3c1.2-1.9,3.3-3.1,5.6-2.9c-0.5,1.4-1.2,2.6-2.1,3.2c-0.1,0.2-0.1,0.4-0.1,0.5c0,0,0.1,0.1,0.1,0.1
	c0,0,0.1,0,0.1,0h0.1c0.4,0,0.3,0.2,0.3,0.2c0.2,0.7-1.1,1.3-1.1,1.3s-0.6,0.1-0.5-0.4c0,0,0-0.1,0-0.1c0-0.2,0.1-0.3,0-0.5
	c0-0.1,0-0.1,0-0.2c0-0.2-0.1-0.3-0.2-0.5c-0.3,0-0.6,0-0.8,0c-0.4-0.1-0.8-0.2-1.1-0.3c0.1,0.1,0.1,0.2,0.1,0.2
	c0.5,0.8,0.7,1.6,0.7,2.5c0.1,0.2,0.3,0.3,0.4,0.3c0,0,0.1,0,0.1,0c0,0,0.1-0.1,0.1-0.1c0,0,0-0.1,0.1-0.1c0.2-0.4,0.4-0.1,0.4-0.1
	c0.6,0.2,0.4,1.7,0.4,1.7s-0.2,0.5-0.7,0.2c0,0-0.1-0.1-0.1-0.1c-0.1-0.1-0.2-0.2-0.4-0.3c-0.1,0-0.1-0.1-0.2-0.1
	c-0.2-0.1-0.3-0.1-0.5-0.1c-0.1,0.3-0.3,0.5-0.5,0.7l-0.1,0.1l0,0c0.8,0.7,1.5,1.5,2.2,2.4c0.2,0.3,0.4,0.5,0.6,0.8
	c0.1,0.2,0.2,0.4,0.3,0.6c0.5,0.8,0.7,1.6,0.7,2.5c0.1,0.2,0.2,0.3,0.4,0.3c0,0,0.1,0,0.1,0c0,0,0.1-0.1,0.1-0.1c0,0,0-0.1,0.1-0.1
	c0.2-0.4,0.4-0.1,0.4-0.1C46.4,39.8,46.5,40.1,46.6,40.5z"/>
<g class="st16">
	<path d="M43.7,28c-0.1,0.1-0.3,0.1-0.4,0.1c-0.2,0-0.4,0.1-0.6,0.2c0.1-1.3,1.8-1.6,1.8-1.6C44.1,26.9,43.8,27.4,43.7,28z"/>
	<path d="M52.5,32.6c0,0.2-0.1,0.5-0.1,0.8c-1.1,0.3-2.2,0.5-3.1,0.2c-0.2,0.1-0.4,0.2-0.4,0.3c0,0,0,0.1,0,0.1c0,0,0,0.1,0.1,0.1
		c0,0,0.1,0.1,0.1,0.1c0.3,0.3,0,0.4,0,0.4c-0.4,0.6-1.7,0-1.7,0s-0.4-0.4,0-0.7c0,0,0.1,0,0.1-0.1c0.1-0.1,0.3-0.2,0.4-0.3
		c0,0,0.1-0.1,0.1-0.1c0.1-0.1,0.2-0.3,0.3-0.4c-0.2-0.2-0.4-0.4-0.5-0.6c-1.1-1.6-1-4.6-0.2-7.1C50.7,25.7,52.9,29,52.5,32.6z"/>
	<path d="M49.4,39.9c-0.3,0.2-0.7,0.4-1.2,0.4c0-0.1-0.1-0.2-0.1-0.2l1.5-0.6C49.6,39.6,49.5,39.8,49.4,39.9z"/>
	<path d="M48.9,42c0,0-0.6,0.1-0.5-0.4c0,0,0-0.1,0-0.1c0-0.2,0.1-0.3,0-0.5c0-0.1,0-0.1,0-0.2c0-0.2-0.1-0.3-0.2-0.5
		c0-0.1-0.1-0.2-0.1-0.2l1.5-0.6c-0.1,0.1-0.1,0.3-0.2,0.4c-0.1,0.2-0.1,0.4-0.1,0.5c0,0,0.1,0.1,0.1,0.1c0,0,0.1,0,0.1,0h0.1
		c0.4,0,0.3,0.2,0.3,0.2C50.2,41.4,48.9,42,48.9,42z"/>
	<path d="M49.5,40.5l-1,0.5c0-0.1,0-0.1,0-0.2C48.7,40.7,49.1,40.5,49.5,40.5C49.4,40.5,49.4,40.5,49.5,40.5z"/>
	<path d="M48.9,42c0,0-0.6,0.1-0.5-0.4c0.2,0,0.5-0.1,0.7-0.2c0.3-0.2,0.6-0.5,0.7-0.9c0.4,0,0.3,0.2,0.3,0.2
		C50.2,41.4,48.9,42,48.9,42z"/>
	<path class="st6" d="M48.9,42c0,0-0.6,0.1-0.5-0.4c0.2,0,0.5-0.1,0.7-0.2c0.3-0.2,0.6-0.5,0.7-0.9c0.4,0,0.3,0.2,0.3,0.2
		C50.2,41.4,48.9,42,48.9,42z"/>
	<path class="st6" d="M43.7,28c-0.1,0.1-0.3,0.1-0.4,0.1c-0.2,0-0.4,0.1-0.6,0.2c0.1-1.3,1.8-1.6,1.8-1.6
		C44.1,26.9,43.8,27.4,43.7,28z"/>
</g>
<path class="st1" d="M52.1,32.9c-0.5,3.7-1.7,8.1-5,7.7c-3.3-0.4-7.4-5.5-6.9-9.2c0.5-3.7,3.5-6.3,6.8-5.9S52.6,29.2,52.1,32.9z"/>
<path class="st1" d="M48.6,42.3c0,0-0.6,0.1-0.5-0.4c0,0,0-0.1,0-0.1c0-0.2,0.1-0.3,0-0.5c0-0.1,0-0.1,0-0.2
	c-0.1-0.3-0.1-0.5-0.3-0.7l1.5-0.6c0,0-0.4,0.7-0.2,0.9c0,0,0.1,0.1,0.1,0.1c0,0,0.1,0,0.1,0h0.1c0.4,0,0.3,0.2,0.3,0.2
	C49.9,41.6,48.6,42.3,48.6,42.3z"/>
<path class="st2" d="M49.1,40.7l-1,0.5c0-0.1,0-0.1,0-0.2C48.4,40.9,48.8,40.7,49.1,40.7C49,40.7,49.1,40.7,49.1,40.7z"/>
<path class="st1" d="M48.6,42.3c0,0-0.6,0.1-0.5-0.4c0.2,0,0.5-0.1,0.7-0.2c0.3-0.2,0.6-0.5,0.6-0.9c0.4,0,0.3,0.2,0.3,0.2
	C49.9,41.6,48.6,42.3,48.6,42.3z"/>
<path class="st6" d="M48.6,42.3c0,0-0.6,0.1-0.5-0.4c0.2,0,0.5-0.1,0.7-0.2c0.3-0.2,0.6-0.5,0.6-0.9c0.4,0,0.3,0.2,0.3,0.2
	C49.9,41.6,48.6,42.3,48.6,42.3z"/>
<path class="st27" d="M44.2,26.8c0,0-1.7,0.4-1.8,1.6c0.2-0.1,0.4-0.2,0.6-0.2c0.1,0,0.3,0,0.4-0.1C43.5,27.6,43.8,27.1,44.2,26.8z"
	/>
<path class="st3" d="M48.5,41c-0.6,0-1,0.6-1,1.2c0,0.1,0,0.1,0,0.2c0.2,0.7,1.1,1,1.7,1.5s0.9,1.3,0.9,2c0.1,1.5-0.4,2.9-1.4,4
	c-0.5,0.5-1.2,0.9-1.7,1.5c-0.6,0.7-1.1,1.4-1.5,2.2c-0.3,0.6-0.6,1.2-0.6,1.9c-0.1,1.1,0.4,2.1,1.1,2.9c0.6,0.8,1.4,1.6,1.9,2.5
	c0.7,1.3,0.8,2.8,0.3,4.2c0,0.1-0.1,0.2-0.2,0.3c-0.1,0.1-0.2,0-0.3,0c0,0,0,0,0,0"/>
<path class="st3" d="M45.4,40.8c-0.2,0.2-0.2,0.4,0,0.6c0.2,0.2,0.4,0.3,0.6,0.3c0.3,0,0.6-0.1,0.8,0.1c0.2,0.1,0.2,0.3,0.2,0.5
	c0,0.2,0,0.4,0.1,0.6c0.1,0.2,0.1,0.3,0.3,0.4c0.1,0.2,0.3,0.3,0.5,0.4c0.4,0.2,0.9,0,1.3,0.2c0.6,0.2,0.9,0.8,1,1.3
	c0.2,0.7,0.3,1.4,0.1,2.1c-0.1,0.4-0.3,0.9-0.6,1.3c-0.2,0.4-0.4,0.9-0.4,1.3c0,0.5,0.3,0.9,0.7,1.1"/>
<path class="st28" d="M67.1,65.8l-0.5,0.3l0.6,2.3c0,0,0.2,0.1,0.5,0.3c0.6,0.4,1.4,1,1.9,1.7c0.7,1,3.9,3.9,3.5,2.7s-0.6-1-0.6-1
	s0.7-1.8-1-2.6c-1.3-0.6-3.2-2.4-4-3.2C67.3,66,67.1,65.8,67.1,65.8z"/>
<path class="st29" d="M76.6,72c0.3,0.3,0.5,0.6,0.7,0.9c0.2,0.3,0.2,0.8,0.1,1.1c-0.1,0.2-0.2,0.4-0.3,0.6c-0.4,1,0.7,2,0.5,3
	c-0.1,0.6-0.7,1.1-1.2,1.5c-0.5,0.4-1,1-0.8,1.6c0.1,0.3,0.2,0.6,0.4,0.8c0.2,0.3,0.2,0.6,0,0.9c-0.3,0.4-1.1,0.4-1.2,0.9
	c-0.1,0.5,0.5,0.9,0.3,1.3c-0.2,0.2-0.4,0.3-0.6,0.2c-0.2-0.1-0.4-0.1-0.7-0.2c-0.5,0-0.9,0.3-0.9,0.8c0,0.2,0,0.3,0.1,0.5
	c0.1,0.2,0.4,0.4,0.4,0.7c0,0.2-0.1,0.3-0.3,0.4c-0.6,0.3-1.2,0.1-1.5-0.5c-0.2-0.4-0.1-0.9-0.1-1.4c0-0.5,0-1-0.3-1.3
	c-0.2-0.1-0.4-0.3-0.6-0.3c-0.6-0.3-1.1-0.7-1.5-1.1c-0.4-0.4-0.7-0.9-0.7-1.5c0-0.6,0.6-1.2,0.5-1.8c0-0.6-0.7-1.1-1.2-1.5
	c-0.5-0.4-1.1-1-0.9-1.6c0.2-0.7,1.1-0.9,1.5-1.4c0.2-0.2,0.3-0.5,0.3-0.7c0.1-0.5,0.1-0.9,0.2-1.4c0.1-0.5,0.3-0.9,0.7-1.2
	c0.5-0.3,1.1-0.3,1.7-0.2s1.2,0.2,1.7,0.1c0.4-0.1,0.8-0.3,1.2-0.4c0.5-0.1,1.1,0.1,1.4,0.5c0.2,0.2,0.2,0.3,0.5,0.3
	C76.2,71.6,76.4,71.7,76.6,72z"/>
<g class="st16">
	<path d="M75.8,82.6c-0.2,0.2-0.4,0.3-0.7,0.3C75.4,82.8,75.6,82.7,75.8,82.6z"/>
	<path d="M73.7,84.7c-0.1,0-0.2,0-0.3,0c0.2-0.2,0.4-0.3,0.7-0.2c0.2,0,0.5,0.1,0.7,0.2c0.1,0,0.2,0,0.3,0c0,0,0,0,0,0
		c-0.2,0.2-0.4,0.2-0.6,0.2C74.1,84.8,73.9,84.8,73.7,84.7z"/>
	<path d="M69,72.3c-0.1,0.5-0.1,0.9-0.2,1.4c-0.1,0.3-0.2,0.5-0.3,0.7c-0.4,0.6-1.3,0.8-1.5,1.4c-0.2,0.6,0.4,1.2,0.9,1.6
		c0.5,0.4,1.2,0.8,1.2,1.5c0,0.7-0.5,1.2-0.5,1.8c0,0.6,0.3,1.1,0.7,1.5c0.4,0.4,1,0.8,1.5,1.1c0.2,0.1,0.4,0.2,0.6,0.3
		c0.3,0.3,0.4,0.8,0.3,1.3c0,0.5-0.1,0.9,0.1,1.4c0.3,0.5,0.8,0.7,1.4,0.5C73.1,87,73,87,72.9,87.1c-0.6,0.3-1.2,0.1-1.5-0.5
		c-0.2-0.4-0.1-0.9-0.1-1.4c0-0.5,0-1-0.3-1.3c-0.2-0.1-0.4-0.3-0.6-0.3c-0.6-0.3-1.1-0.7-1.5-1.1c-0.4-0.4-0.7-0.9-0.7-1.5
		c0-0.6,0.6-1.2,0.5-1.8c0-0.6-0.7-1.1-1.2-1.5c-0.5-0.4-1.1-1-0.9-1.6c0.2-0.7,1.1-0.9,1.5-1.4c0.2-0.2,0.3-0.5,0.3-0.7
		c0.1-0.5,0.1-0.9,0.2-1.4c0.1-0.5,0.3-0.9,0.7-1.2c0.1-0.1,0.2-0.1,0.3-0.1C69.3,71.5,69.1,71.9,69,72.3z"/>
</g>
<path class="st30" d="M57.5,78.4L57,77.7c0,0-0.9,1.3,0.4,2.2S57.5,78.4,57.5,78.4z"/>
<path class="st6" d="M57.5,78.4L57,77.7c0,0-0.9,1.3,0.4,2.2S57.5,78.4,57.5,78.4z"/>
<path class="st28" d="M53.1,100.6c0,0-0.1,1.3-0.3,2.6c-0.1,0.9-0.4,1.8-0.6,2.2c-0.7,0.9-0.5,4-0.5,4l-0.8,3.5
	c0.1,0.7-0.4,1.6-0.7,2c-0.1,0.1-0.1,0.2-0.1,0.2l0.6,1l1,0.2c0,0,1.6-0.5,1.1-1.6c-0.1-0.2-0.1-0.4-0.1-0.7c0-1.4,0.9-3.7,0.9-3.7
	s2.2-4.3,2-5.2c0-0.1,0-0.2,0-0.3c-0.1-1,0.5-2.7,0.5-2.7L53.1,100.6z"/>
<path class="st28" d="M38.4,94.2c-1.5,1-4.2,3.6-4.7,4.3c-0.6,0.9-2.1,1.8-2.1,1.8l-1.1,0.6c-0.1,0.1-0.3,0.2-0.4,0.4
	c-0.1,0.1-0.1,0.2-0.2,0.2l1.6,1.8c0,0,0.4-0.3,0.9-0.7c0.5-0.4,1-1,1.2-1.4c0.3-0.7,2-1.6,2-1.6s3.2-1.9,3.6-2.2
	c0.4-0.3,0.7-0.6,1.2-0.8c0.2-0.1,0.5-0.2,0.8-0.4c0.8-0.4,1.6-0.9,2.4-1.4L42,92.7l-2.7,1.1C38.9,93.9,38.6,94,38.4,94.2z"/>
<path class="st6" d="M50.1,115c-0.1,0.1-0.1,0.2-0.1,0.2l0.6,1l1,0.2c0,0,1.6-0.5,1.1-1.6c-0.1-0.2-0.1-0.4-0.1-0.7
	c-0.5,0.1-0.7,0.8-0.7,0.8s-0.1,0.3-0.8,0.6C50.5,115.6,50.2,115.2,50.1,115z"/>
<path class="st2" d="M50,114.9c-0.2,0.2-0.3,1-0.3,1.6c0,0.3,0,0.5,0,0.5c0,0.1,0.8,0.4,1.4,0.3c0.5-0.1,2.7,0.5,2.7,0.5
	c0.7,0,1.5-0.1,2.1-0.4c0.7-0.2,0.6-0.6,0.3-0.8c-0.2-0.2-0.5-0.3-0.8-0.4c-0.3-0.1-0.6-0.4-0.8-0.6c-0.3-0.4-0.6-0.7-1-1
	c-0.3-0.2-0.7-0.4-1-0.4c-0.5,0.1-0.7,0.8-0.7,0.8s-0.1,0.3-0.8,0.6S50,114.9,50,114.9z"/>
<path class="st6" d="M49.6,116.5c0,0.3,0,0.5,0,0.5c0,0.1,0.8,0.4,1.4,0.3c0.5-0.1,2.7,0.5,2.7,0.5c0.7,0,1.5-0.1,2.1-0.4
	c0.7-0.2,0.6-0.6,0.3-0.8c-0.6,0.2-1.7,0.5-2.3,0.5C53,117,50.3,116.6,49.6,116.5z"/>
<path class="st6" d="M30.2,101.4L30.2,101.4c-0.1,0.1-0.2,0.2-0.2,0.2l1.6,1.8c0,0,0.4-0.3,0.9-0.7c-0.1-0.9-2.1-1.5-2.1-1.5
	L30.2,101.4z"/>
<path class="st2" d="M28.6,102c0,0,0.1,2,0.6,2.7c0.3,0.6,0.6,0.5,1.2,0.2c0.2-0.1,0.4-0.2,0.6-0.3c1-0.5,1-1,1-1
	c1.5-1.4-1.7-2.3-1.7-2.3l-0.1,0.2c-0.4,0-0.7,0.1-1,0.2C28.9,101.8,28.7,101.8,28.6,102z"/>
<path class="st6" d="M28.6,102c0,0,0.1,2,0.6,2.7c0.3,0.6,0.6,0.5,1.2,0.2c-0.5-0.3-0.9-0.7-1-1.2c-0.2-0.6-0.3-1.3-0.2-2
	C28.9,101.7,28.7,101.8,28.6,102z"/>
<path class="st28" d="M67.1,74.9l-2.7,2l-0.6,0.4l0.4,1.3l0.4,1.4l1.1,1.2c0,0,1.5-0.2,2.4-1c0.3-0.3,0.5-0.6,0.6-1
	c0-0.1,0-0.2,0.1-0.4c0.1-0.1,0.1-0.3,0.2-0.4c0.1-0.1,0.3-0.2,0.4-0.3c0.8-0.4,1.9-0.3,1.9-0.3s-0.3-3.4-0.8-2.9
	c-0.4,0.3-1.3,0.2-1.9,0.1c-0.3-0.1-0.6-0.1-0.6-0.1L67.1,74.9z"/>
<circle class="st6" cx="72" cy="76" r="2.8"/>
<circle class="st28" cx="72.1" cy="75.9" r="2.8"/>
<path class="st2" d="M57.3,79.4c-0.5,0.4-1.2,1.3-1.2,1.3l0.7,4l3.8,1.4h0c0.2-0.2,3-2.6,4.1-2.2c1.1,0.4,3.3-0.9,3.3-0.9
	s0.9-1.9,1.2-2.4s-0.2-2.2-0.2-2.2c-0.1,0.1-0.2,0.2-0.2,0.4c-0.2,0.3-0.4,0.6-0.7,0.8c-0.3,0.2-0.6,0.4-1,0.4c-0.1,0-0.2,0-0.3,0
	c-1.4,0.2-1.7-1.1-1.9-1.7c0-0.1,0-0.2,0-0.2l-0.6-1.2L64,76.1c0,0-6,3-6.5,3.1C57.5,79.3,57.4,79.3,57.3,79.4z"/>
<path class="st29" d="M68.8,78.8L68.8,78.8c-0.1,0.1-0.2,0.2-0.2,0.3l0.7,1.2c0-0.3,0-0.6-0.1-0.9L68.8,78.8z"/>
<path class="st9" d="M68.4,79.4c-0.1,0.1-0.2,0.2-0.3,0.2l0,0l0.9,1.5c0.1-0.2,0.2-0.3,0.2-0.4L68.4,79.4z"/>
<path class="st9" d="M67.5,80l1.1,1.9c0.1-0.1,0.1-0.3,0.2-0.4l-1-1.6C67.8,79.9,67.6,79.9,67.5,80z"/>
<path class="st9" d="M66.8,80l1.5,2.5l0.2-0.4L67.2,80h-0.1C67.1,80,67,80,66.8,80L66.8,80z"/>
<path class="st9" d="M68.1,83.1l-0.2,0.1l0,0l-1.9-3.2c0.2,0.1,0.4,0.1,0.5,0.1l1.7,2.8L68.1,83.1z"/>
<path class="st29" d="M63.8,76.3l1.3,2.1v0c0-0.1,0-0.2,0-0.2l-0.6-1.2L64,76.1L63.8,76.3z"/>
<path class="st9" d="M63.2,76.6l4.1,6.9c0.1-0.1,0.2-0.1,0.4-0.2l-4.1-6.9L63.2,76.6z"/>
<path class="st9" d="M62.6,76.9l4.1,6.9c0.1,0,0.3-0.1,0.4-0.1l-4.1-6.9L62.6,76.9z"/>
<path class="st9" d="M62,77.2l4.1,6.8c0.1,0,0.3-0.1,0.4-0.1L62.3,77L62,77.2z"/>
<path class="st9" d="M61.4,77.4l3.9,6.6c0.1,0,0.3,0,0.4,0l-4-6.7L61.4,77.4z"/>
<path class="st9" d="M60.8,77.7l3.7,6.2c0.1,0,0.2,0,0.2,0c0.1,0,0.2,0.1,0.3,0.1l-3.9-6.5L60.8,77.7z"/>
<path class="st9" d="M60.2,78l3.6,6c0.1,0,0.3-0.1,0.4-0.1l-3.7-6.1L60.2,78z"/>
<path class="st29" d="M59.6,78.3l3.6,6c0.1-0.1,0.2-0.1,0.4-0.2l-3.6-6L59.6,78.3z"/>
<path class="st29" d="M59,78.6l3.6,6.1c0.1-0.1,0.2-0.1,0.3-0.2l-3.6-6L59,78.6z"/>
<path class="st29" d="M58.4,78.9l3.7,6.1c0.1-0.1,0.2-0.1,0.3-0.2l-3.6-6.1L58.4,78.9z"/>
<path class="st29" d="M57.8,79.2l3.7,6.3l0.3-0.2L58.2,79L57.8,79.2z"/>
<path class="st9" d="M57.3,79.4L57.3,79.4l3.8,6.4c0.1-0.1,0.2-0.2,0.3-0.2l-3.8-6.3l0,0C57.4,79.3,57.4,79.3,57.3,79.4z"/>
<path class="st9" d="M57,79.6c-0.1,0.1-0.2,0.2-0.3,0.3l3.7,6.2l0.2,0.1v0l0.2-0.2L57,79.6z"/>
<path class="st9" d="M56.5,80.1c-0.1,0.1-0.2,0.2-0.2,0.3l3.1,5.2l0.6,0.2L56.5,80.1z"/>
<path class="st9" d="M56.1,80.7L56.1,80.7l0.2,1l2.2,3.6l0.6,0.2L56.1,80.7z"/>
<polygon class="st29" points="56.4,82.5 56.6,83.6 57.5,85 58,85.2 "/>
<polygon class="st29" points="56.7,84.3 56.8,84.8 57.1,84.9 "/>
<path class="st6" d="M57.3,79.4c0.2,0.6,0.4,1.2,0.4,1.2l1.4,2.9l3.1-1.4c0.2-0.5,0.3-1,0.3-1.6c0-0.6,0.2-1.5,1.7-2
	c0.1,0,0.2-0.1,0.3-0.1c0.2,0,0.3-0.1,0.5-0.2c0.7-0.3,1.3-0.9,1.6-1.7l0-0.1l2.1-1.5c0,0,0-0.1-0.1-0.1C68.3,75,68,74.9,68,74.9
	l-0.9,0l-2.7,2L64,76.1c0,0-6,3-6.5,3.1C57.5,79.3,57.4,79.3,57.3,79.4z"/>
<path class="st30" d="M62.3,73.2c-0.2,0.6-0.5,1.1-1.1,1.5c-0.9,0.6-0.7,1-0.7,1l-2.6,1.6c0,0-0.4,0.6-0.9,0.5
	c-0.4-0.1,0.6,2.7,0.6,2.7l1.4,2.9l3.1-1.4c0.2-0.5,0.3-1,0.3-1.6c0-0.6,0.3-1.6,2-2.1c1-0.2,1.7-0.9,2.1-1.9c0,0,0-0.1,0-0.1
	l2.1-1.5c-0.2-0.3-0.4-0.5-0.8-0.6c-0.1,0-0.2,0-0.3-0.1c-0.3-0.1-0.4-0.2-0.4-0.5c0-0.4,0-2-0.7-2C65.7,71.8,62.3,73.2,62.3,73.2z"
	/>
<path class="st30" d="M67.5,74.4l-1.3,1.2l0.3,1c0,0,0-0.1,0-0.1l2.1-1.5c-0.2-0.3-0.4-0.5-0.8-0.6C67.7,74.4,67.6,74.4,67.5,74.4z"
	/>
<path class="st6" d="M67.5,74.4l-1.3,1.2l0.3,1c0,0,0-0.1,0-0.1l2.1-1.5c-0.2-0.3-0.4-0.5-0.8-0.6C67.7,74.4,67.6,74.4,67.5,74.4z"
	/>
<path class="st6" d="M67.1,65.8l-0.5,0.3l0.6,2.3c0,0,0.2,0.1,0.5,0.3c-0.1-0.2-0.3-1.4-0.4-2.1c0-0.2,0-0.4,0-0.4c0,0,0,0,0.1,0
	C67.3,66,67.1,65.8,67.1,65.8z"/>
<path class="st30" d="M62.8,64.7c0,0-0.8,3.3-0.4,4.9c0,0,0.3,2.4-0.1,3.6l3.9-0.6l0.1-0.7c0,0-0.7-0.5-0.8-1.1
	c-0.1-0.6-0.3-1.3-0.3-1.3c0-0.6-0.1-1.2-0.2-1.7c-0.1-0.4,0.5-0.5,0.9-0.2c0.1,0,0.1,0.1,0.2,0.1c-0.2,0.3-0.1,0.6,0.1,0.8
	c0.2,0.1,0.4,0.2,0.5,0.2l0,0c0.3,0.1,0.6,0.1,0.9,0.2c0,0-0.3-1.4-0.4-2.1c0-0.2,0-0.4,0-0.4c0.1-0.1,1.1,0.9,1.1,0.9
	s0-1.2-0.5-1.5c0,0-0.1,0.3-0.4,0.2S64.2,64,64.2,64S63.1,63,62.8,64.7z"/>
<path class="st6" d="M65.5,66l0.4,1.4c0.1,0,0.1,0.1,0.2,0.1c-0.2,0.3-0.1,0.6,0.1,0.8c0.2,0.1,0.4,0.2,0.5,0.2l0,0
	c0.2,0.1,0.5,0.1,0.7,0.1c0,0-0.3-1.4-0.4-2.1L65.5,66z"/>
<path class="st30" d="M65.6,66l0.4,1.5c-0.2,0.3-0.1,0.6,0.1,0.8c0.4,0.3,1.4,0.4,1.4,0.4s-0.3-1.4-0.4-2.1L65.6,66z"/>
<path class="st27" d="M65.7,66l0.4,1.5c-0.2,0.3-0.1,0.6,0.1,0.8c0.4,0.3,1.4,0.4,1.4,0.4s-0.3-1.4-0.4-2.1L65.7,66z"/>
<path class="st6" d="M55.9,102.2l-2.9-1.6c0,0-0.1,1.3-0.3,2.6c1,0.6,1.9,1.2,2.7,1.6C55.4,103.9,55.9,102.2,55.9,102.2z"/>
<path class="st6" d="M38.4,94.2c0.3,0.6,0.7,1.1,1.2,1.6c0,0,0.3,0.4,0.8,1c0.2-0.1,0.5-0.2,0.8-0.4c0.8-0.4,1.6-0.9,2.4-1.4
	L42,92.7l-2.7,1.1C38.9,93.9,38.6,94,38.4,94.2z"/>
<path class="st2" d="M47.5,85.1c-0.5,0.8-3,3.5-3,3.5c-0.4,0.5-0.8,1.1-1.1,1.7c-0.4,0.8-1.8,1.8-2.8,2.8c-1,0.9-1,0.3-1.6,0.6
	C38.3,94,40.2,96,40.2,96s3.1,4.2,6.5,4.4c3.5,0.2,8.6,4.8,10.7,5.2c2.1,0.5,0.8-0.7,1.7-1.1s1.3-1.3,1.3-1.3s-0.3-2.4-0.1-3
	c0.3-0.5,0.6-2.7,0.6-2.7s0-1.9,0.1-2.2c0.1-0.3,0.1-2.6,0-3.2c-0.1-0.7,0.5-1.6,0.5-1.6s-0.2-0.3,0.1-1.1c0.3-0.8-0.2-3.2-0.2-3.2
	c-4.5-2.6-5.3-5.5-5.3-5.5l-0.6,0.2C52,80,48.1,84.3,47.5,85.1z"/>
<path class="st6" d="M55.5,80.9c0,0,0.4,3.8,5.8,5.3c-4.5-2.6-5.3-5.5-5.3-5.5L55.5,80.9z"/>
<path class="st6" d="M56.1,87.5c0,0-4.5,7.3-4.6,7.7C51.4,95.5,56.3,87.7,56.1,87.5z"/>
<path class="st6" d="M55.7,85.2c0,0-3.5,5.2-4.1,5.4C51.6,90.6,54.9,85.6,55.7,85.2z"/>
<path class="st6" d="M53.6,83.9c0,0-2.4,1.7-4.3,1.5L53.6,83.9z"/>
<path class="st6" d="M53,82.8c0,0-2.3,1-2.9,0.9L53,82.8z"/>
<polygon class="st6" points="58.3,89.5 58.5,94.3 57.7,92.9 "/>
<path class="st6" d="M72.8,73.6c0,0.3-0.2,0.5-0.1,0.8c0.1,0.2,0.2,0.3,0.3,0.5c0.4,0.3,0.7,0.7,0.7,1.2c0.1,0.7-0.5,1.3-0.4,2
	c0,0.2,0.1,0.4,0.2,0.6c0.1,0.1,0.2,0.2,0.3,0.3c0.2,0.2,0.6,0.2,0.9,0.2c0.5-0.1,0.9-0.5,1.1-1c0.1-0.5,0.1-1,0-1.5
	c-0.2-1.3-0.9-2.5-1.5-3.7c0-0.1-0.1-0.2-0.2-0.2c-0.2-0.1-1.1-0.1-1.3,0C72.5,72.8,73.1,73.4,72.8,73.6z"/>
<path class="st29" d="M72.9,73.5c0,0.3-0.2,0.5-0.1,0.8c0.1,0.2,0.2,0.3,0.3,0.5c0.4,0.3,0.7,0.7,0.7,1.2c0.1,0.7-0.5,1.3-0.4,2
	c0,0.2,0.1,0.4,0.2,0.6c0.1,0.1,0.2,0.2,0.3,0.3c0.2,0.2,0.6,0.2,0.9,0.2c0.5-0.1,0.9-0.5,1.1-1c0.1-0.5,0.1-1,0-1.5
	c-0.2-1.3-0.9-2.5-1.5-3.7c0-0.1-0.1-0.2-0.2-0.2c-0.2-0.1-1.1-0.1-1.3,0C72.6,72.7,73.2,73.4,72.9,73.5z"/>
<path class="st28" d="M77.9,90.3l-1.4,1.1l0.5,0.4l2.9,2c0,0,1,2.1,2.7,1.5c1.7-0.6-1-2.3-1.2-2.4c-0.2-0.1-0.5-0.3-0.5-0.3l-2.6-2
	L77.9,90.3z"/>
<path class="st6" d="M77.9,90.3l-1.4,1.1l0.5,0.4c0.7-0.4,1.2-0.9,1.3-1.1L77.9,90.3z"/>
<path class="st6" d="M61.6,81.1l-3.1,2l2.2,3c0.2-0.2,3-2.6,4.1-2.2c1.1,0.4,3.3-0.9,3.3-0.9s0.9-1.9,1.2-2.4s-0.2-2.2-0.2-2.2
	c0.1-0.1,0.3-0.2,0.4-0.3c-0.1,0-0.3,0-0.4,0c-0.6,0.3-0.9,0.7-0.9,1.5c0,0.1,0,0.1,0,0.2c0,0.1,0,0.2,0,0.4v0.1
	c0.1,1.2-0.4,1.7-0.4,1.7c-0.3,0.6-0.9,1-1.5,1.2C65.2,83.6,61.6,81.1,61.6,81.1z"/>
<path class="st30" d="M61.7,81.3l-3.1,2l2.4,3.4c0,0,1.2-0.7,1.6-1.1s2.4-1.3,2.4-1.3c2.4,0.9,3.5-0.6,3.5-0.6s2.8,4.4,3,4.4
	c0.2,0,1.7,1.2,1.7,1.2s1.2,1.5,1.5,1.6c0.1,0,0.3,0.1,0.4,0.2c0,0,0.1,0,0.1,0.1l-1,0.6c0,0,0,0,0,0l0,0c0.1,0.3,0.4,0.5,0.6,0.6
	c0.5,0.2,3.5-1.6,3.5-2.1c0-0.1,0-0.2-0.1-0.2c-0.2-0.3-0.5-0.5-0.8-0.6l-0.1,0l0,0c0,0-1.8-1.8-2.3-2c-0.6-0.3-2.5-3.4-2.5-3.4
	s-1-1.3-0.9-1.6c0.1-0.3-0.5-2.7-0.9-2.7c-0.4,0-0.6-0.6-0.6-0.6c0.3-0.6,0-0.7-0.3-0.8c-0.2,0-0.4,0-0.6,0c-0.7,0.3-1,0.8-0.9,1.7
	c0,0.1,0,0.3,0,0.4c0.1,1.2-0.4,1.7-0.4,1.7c-0.3,0.6-0.9,1-1.5,1.2C65.3,83.8,61.7,81.3,61.7,81.3z"/>
<path class="st6" d="M78.2,90.2c0,0,0,0.1,0,0.1c0,0.4-3,2.3-3.5,2.1c-0.2-0.1-0.4-0.3-0.6-0.5l0,0c0,0,0,0,0,0l1-0.6
	c0,0-0.1,0-0.1-0.1l0,0c0.9-0.2,1.7-0.8,2.2-1.6L78.2,90.2z"/>
<path class="st30" d="M75.2,91.2l-1,0.6c0.1,0.3,0.4,0.5,0.7,0.7c0.5,0.2,3.5-1.6,3.5-2.1c0-0.3-0.6-0.7-0.9-0.8
	C76.9,90.4,76.1,91,75.2,91.2z"/>
<path class="st27" d="M75.2,91.2l-1,0.6c0.1,0.3,0.4,0.5,0.7,0.7c0.5,0.2,3.5-1.6,3.5-2.1c0-0.3-0.6-0.7-0.9-0.8
	C76.9,90.4,76.1,91,75.2,91.2z"/>
<path class="st30" d="M68.2,80l0.7,0.3l0.7-2c-0.2,0-0.4,0-0.6,0C68.5,78.6,68.2,79.1,68.2,80z"/>
<path class="st6" d="M68.3,80l0.7,0.3l0.7-2c-0.2,0-0.4,0-0.6,0C68.6,78.6,68.2,79.1,68.3,80z"/>
<path class="st6" d="M73.1,73.4c0,0.3-0.2,0.5-0.1,0.8c0.1,0.2,0.2,0.3,0.3,0.5c0.4,0.3,0.7,0.7,0.7,1.2c0.1,0.7-0.5,1.3-0.4,2
	c0,0.2,0.1,0.4,0.2,0.6c0.1,0.1,0.2,0.2,0.3,0.2c0.2,0.2,0.6,0.2,0.9,0.2c0.1,0,0.2-0.1,0.3-0.1C75.1,78.9,75,79,74.8,79
	c-0.4,0.1-0.9-0.1-1.1-0.5c-0.1-0.2-0.2-0.4-0.2-0.6c-0.1-0.7,0.5-1.3,0.4-2c0-0.5-0.4-0.9-0.7-1.2c-0.2-0.1-0.3-0.3-0.3-0.5
	c-0.1-0.2,0.1-0.5,0.1-0.8c0.2-0.1-0.3-0.7,0-1c0,0,0.1-0.1,0.1-0.1C72.8,72.7,73.3,73.3,73.1,73.4z"/>
<path class="st6" d="M66.6,78.9c0,0-1,0.1-1.1,0.6c0,0,0.9-0.9,0.8-1.1"/>
<path class="st28" d="M82.9,94c0,0-2.5-1.2-2.2,0.3C81,95.8,82.9,94,82.9,94z"/>
<rect x="83.6" y="83.3" transform="matrix(0.9096 -0.4155 0.4155 0.9096 -33.0674 44.1232)" class="st1" width="2.6" height="29.5"/>
<path class="st3" d="M48,41.1c-0.5,1-1.6,1.9-1.3,3c0.2,0.6,0.7,0.9,1.2,1.2c1.1,0.7,2.3,1.5,3.1,2.5c0.8,1.1,1.3,2.5,0.8,3.8
	c-0.3,0.9-1,1.5-1.5,2.4c-0.5,1-0.6,2.2-0.3,3.3c0.3,1.1,0.8,2.2,1.4,3.1c0.2,0.4,0.5,0.7,0.9,0.9c0.3,0.1,0.6,0.1,0.9,0.1
	c1.1,0,2,0.7,2.6,1.6c0.6,0.9,0.8,2,0.9,3c0.1,0.5,0.1,1.1,0.4,1.5c0.4,0.6,1.2,0.8,2,0.9c1.9,0.3,3.8,0.4,5.8,0.3"/>
<path class="st2" d="M63.1,67.3h1.2c0.6,0,1.1,0.5,1.1,1.1v0c0,0.6-0.5,1.1-1.1,1.1h-1.2c-0.6,0-1.1-0.5-1.1-1.1v0
	C62,67.9,62.5,67.3,63.1,67.3z"/>
</svg>
