<svg version="1.1" id="b1d80de4-06cb-4b2d-9c4c-b14d42818646" xmlns="http://www.w3.org/2000/svg" x="0" y="0" viewBox="0 0 283.5 210.7" xml:space="preserve"><style>.st0{opacity:.1;enable-background:new}.st0,.st2{fill:#ebaf41}.st4{fill:none;stroke:#444053;stroke-miterlimit:10}.st7{fill:#fbbebe}.st8{opacity:.1;enable-background:new}.st9{fill:#3f3d56}</style><path class="st0" d="M164.7 29.5c-18.2-.5-35.5-4.8-52-9.6S79.8 9.9 62.1 7.3C50.6 5.7 37.6 5.5 28.4 10c-8.8 4.4-11.7 11.9-13.2 19-1.2 5.3-1.8 10.8 1.3 15.7 2.2 3.4 6.1 6.3 8.8 9.6 9.4 11.4 2.8 25.5-7.4 36.6-4.8 5.2-10.3 10.2-14 15.8-3.7 5.6-5.4 11.9-2.2 17.6 3.2 5.6 10.8 9.9 19.1 12.8 16.8 6 36.5 7.8 55.8 8.7 42.6 2.2 85.5 1.2 128.2.3 15.8-.3 31.7-.7 47.3-2.5 8.6-1 17.6-2.6 23.8-6.5 8-4.9 9.9-13.2 4.6-19.4-9-10.3-33.7-12.9-40-24-3.4-6.1.1-12.9 5.1-18.5 10.7-12.1 28.7-22.8 29.7-36.6.7-9.5-8-19.1-21.4-23.6-14-4.7-33.5-4.1-43.8 3.7-10.6 8.1-29.4 11.2-45.4 10.8z"/><g opacity=".8"><path class="st2" d="M263.6 50.2s-3.2-1.3-13.2 3.3c-10.1 4.6-11.3 4-13.9 3.3-2.6-.7-4.1-.9-6.9-4.7 0 0-2-10.7-3.9-12.4-1.9-1.7-10 .9-10 .9s-9.7 2.2-11.6-10.8c0 0 1.3-9.8-.5-12.8 0 0 3.6 1.6 9.6-1s10.7 2.7 10.7 2.7 1.5 3.9 1.3 6.2.8 3.2 3.7 2.1c0 0 1.4-2-.6-5.3s-3.4-5.7-2.8-8.3c.6-2.6 2.1-6.1 7.2-7.9s12-2.1 15.4-3.5c3.3-1.4 4.1-2.3 4.1-2.3s-2 2.1 2.8 10.7c4.8 8.7 1.7 12.5 1.7 12.5s-2.6 6.1-13.9 5.6c0 0-10.9.4-5 5 0 0 3.8-.8 9.5-2.6s9.8 5.7 10.8 10.9 5.5 8.4 5.5 8.4z"/><path d="M248.9 6.6c.5 1.6-4.4 8.3-8.5 13.6 5.8-7.5 8.9-12.3 8.5-13.6zM240.4 20c-3.3 4.3-7.5 9.4-10.8 13.1-.3.4-.6.7-.9 1.1l-.1-.1c.3-.4.6-.8.9-1.1 3.3-3.7 7.6-8.7 10.9-13zm-11.8 14.1l.1.1c-6.1 7.6-6.5 19.4-6.5 19.5l-1.3-1.5s1.6-10.5 7.7-18.1z" fill="#444053"/><path class="st4" d="M256.5 46.1s-7.2-3.7-12.8-2.4-18.2-4.7-18.2-4.7-5.4-2.2-6.4-4.7c0 0-3.7-3.9-3.9-5.9s-3.8-7.1-6.1-7.3m46.4 28.6s-3.6-2.4-3.2-5.3m-2.4 8.4s-5.2-1.9-5.7-9.3m-2.6 11.2s-5-4.1-3.3-11.3m-6.8 9.3s-3.3-6.9-.4-11.4m25.5.2s-3.7 1.2-2.9 3.2m-1.6-10s-5 1.6-5.1 8.7m-1.9-10.3s-4.6 5.6-4.2 10.8m-3.8-8.6s-4.5 4.3-4 6.7m1.3-8.3s-4.3.8-4.8-.6m-.8-4.5s2.1 2.8 2.7 2.2m18.6-4s-10.7.8-13.1-2.5m-10.4-10s5 10.8 8.7 12.2m-3.4-17.4s3.1 9.9 6.9 13"/><path d="M254.6 18.6s-8.1 3.5-13 0M239.1 7s1.9 7.3 4.4 9.1m9.9-5.7s-4.6 1.7-6.3.4" stroke-width=".75" fill="none" stroke="#444053" stroke-miterlimit="10"/><path class="st4" d="M224.9 31s0 6.4-1.7 6.8m-12.4 1.4s6.9.6 10-3m2.3-12.7s-1.7 6.5-6.3 8.2m-10.2.7s4.9 1.7 9.1-2.6m2-11.9s-.5 5.5-3.4 8m-7.5-1.8s4 0 5-1.3"/></g><ellipse class="st0" cx="73.8" cy="206.3" rx="61.2" ry="4.4"/><linearGradient id="SVGID_1_" gradientUnits="userSpaceOnUse" x1="169.891" y1="467.028" x2="169.891" y2="635.665" gradientTransform="matrix(1 0 0 -1 -95.23 676.16)"><stop offset="0" stop-color="gray" stop-opacity=".25"/><stop offset=".54" stop-color="gray" stop-opacity=".12"/><stop offset="1" stop-color="gray" stop-opacity=".1"/></linearGradient><path d="M109.3 182.6c.8-1.5 1.9-2.9 2.7-4.5.7-1.4 1.3-2.9 2-4.3 1.1-2.5 2.6-4.8 3.9-7.2.8-1.6 1.7-3.3 1.5-5.1-.2-1.7-1.1-3.1-1.5-4.8-1.6-6.7-5.3-12.8-7.6-19.3-.6-1.6-1.2-3.3-1.9-4.9-1.4-3-3.4-5.8-5.3-8.5-.7-1-1.5-2-2.4-2.9-.7-.7-1.5-1.3-2.1-2.1-1.3-1.6-1.9-3.8-3.6-5.1 0 .1-.1.1-.1.2-1.2-3-5.1-5-7.4-7.5-1.3-1.5-2.6-3.1-3.7-4.8l-5-7.2c-.9-1.2-1.7-2.5-2.1-4-.4-1.8 0-3.7-.5-5.5-.3-1.1-.8-2.1-1.5-2.9h.1c1-.3 2-.3 2.9-.5 2.1-.5 3.9-1.8 5.9-2.3 1.1-.3 2.2-.3 3.1-.8.9-.6 1.4-1.7 1.2-2.8-.7-3.5 1.2-7.1.9-10.7-.1-1-.3-2-.5-2.9-.4-2.3-.3-4.6-.2-6.9.6-1 1.4-2 2.3-2.8 1.3-1.2 2.8-2.2 3.7-3.8.8-1.4 1-3 .8-4.5-.1-1.1-.5-2.3-1.4-3s-2.2-.7-3.2-.4c-.1 0-.3.1-.4.2-.9-.5-2-.5-2.9-.2-1.1.4-2 1.1-2.8 1.8-.5.4-1 .9-1.3 1.4-.5.8-.7 1.9-.9 2.9-.4 1.9-1.1 3.8-1.9 5.6-.2.3-.6.9-.9 1.4l-.6-.1c-.3 2.5-2.4 4.3-3.6 6.5-.6 1.1-1.1 2.2-1.6 3.3-.6 1.2-1.3 2.3-2.1 3.4s-1.5 2.2-2.3 3.3c-1 1.4-2 2.8-3.1 4.2-1-.1-2.1-.2-3.1-.2-1.7 0-3.4.1-5.1.5-.1-.6-.2-1.2-.2-1.8v-.6c4.8-3.2 6-9.6 2.9-14.4-.9-1.3-2-2.4-3.3-3.2.1-.3.1-.6.1-1v-.9c0-.2 0-.4-.1-.6 0-.1 0-.2-.1-.3-.1-.2-.1-.3-.2-.5 0-.1-.1-.1-.1-.2s0 0-.1-.1l-.1-.1-.4-.1-.1-.1-.1-.1-.1-.1-.1-.1-.1-.1-.1-.1-.1-.1s-.1 0-.1-.1l-.1-.1-.1-.1-.1.3-.1-.1h-.1l-.1-.1h-.1l-.2-.1h-1.2l-.2-.3c-1.2-.3-2.5-.5-3.7-.7-1-.2-2.1-.3-3.1-.1-1.4.3-2.5 1.2-3.8 1.8-1.5.7-3.2.9-4.9 1.3-1.6.4-3.3 1-4.3 2.4-.8 1-1.1 2.3-1.3 3.6-1.9 10.6.2 21.4.5 32.2.2 4.2 0 8.7-2.4 12.1l6.9-.2h1c.3 0 .7 0 1-.1.9-.1 1.7-.3 2.5-.7.4-.2.7-.5 1-.8.9-1 1.4-2.3 1.9-3.6.2-.4.3-.9.4-1.3.1-.2.1-.4.2-.6v-.1h.1l.9 1.5c1.2 1.8 2.7 3.3 4.2 4.8 3 3 6.1 6 9.9 8 1.3.6 2.7 1.2 3.6 2.2.5.5.9 1.2 1.6 1.4.4.1.9 0 1.3.2.6.2.8 1 1.1 1.5.3.6.9 1.2 1.5.9-.2 1.1.2 2.2 1.1 2.9.3.2.5.4.7.6.1.2.1.5.1.8.1.7.5 1.4 1.1 1.8-.5.9-.1 2.2-.1 3.3 0 .9-.3 1.9-.5 2.8-.6 2.7-.3 5.5.2 8.3.3 1.5.6 3.1 1.6 4.2.3.4.7.7 1 1.1.6.7 1.2 1.5 1.6 2.4.9 1.7 1.4 3.6 1.7 5.5.1 1 .4 1.9.8 2.8.6 1.3.1 3 .6 4.4.2.6.7 1.1.9 1.8.2.9-.3 1.9-.4 2.8-.3 2.2 1.3 4.3 1.4 6.5 0 .1 0 .3-.1.4-.1.1-.3.1-.4.2-.3.1-.4.5-.4.8-.1.3-.3.7-.7.6-4.6 2.5-9.4 4.7-14 7.2l-2.1 1.1-11.3 6c-.3.1-.5.4-.5.7v.4c-.8.2-1.5.4-2.1.5-.2 0-.4.1-.7.1.1-.1.1-.2.1-.3 0-.3-.2-.5-.5-.6-.3 0-.6 0-.8.1-.6.2-1.3.3-2 .4-.8.1-1.6.1-2.4.3-.8.2-1.5.7-1.8 1.4-.2.4-.2.9-.2 1.3 0 1.7.2 3.5.6 5.1 0 .1.1.3.2.3h.3c.1.1.2.1.2.2.5 1.1.6 2.3.7 3.4.2 1.7.4 3.5.7 5.2.2 1 .4 2.1 1 2.8.7.8 1.9 1.2 3 1.4 2.3.3 4.7-.2 6.9-.6.4-.1.9-.2 1.2-.5.2-.3.3-.6.3-.9-.1-1.2-1.1-2-2.1-2.6l-1.3-.9c-.2-.1-.3-.4-.3-.6l.1-1.7h-.3c.3-1.2.7-2.4 1.6-3.2.6-.6 1.4-1 2-1.5.8.6 1.8 1 2.8 1 1.7-2.3 4.1-3.8 6.4-5.3 1.9-1.2 3.9-2.3 6-3.3 1.7-.8 3.3-1.6 5.1-2.3 2.4-1 4.9-1.9 7.3-2.8 1.6-.6 3.3-1.2 4.8-2 3.9-2.3 6.7-6.8 6.2-11.3-.7-5.7.8-11.7.7-17.5 0-1.7-.1-3.4-.6-5l.3.3c1 1 1.3 2.5 2.2 3.6.8.9 1.9 1.4 2.4 2.4.4.8.3 1.9 1 2.3.2.1.5.2.7.3.2.2.5.4.6.7.8 1.1 1.6 2.3 1.7 3.7 0 .5 0 1.2.4 1.5.1.1.3.2.3.3.1.3-.2.6-.3.9-.1.4.3.8.6 1.1.5.6.5 1.5 0 2.1-2.3 3-2.7 7-4.7 10.2-.7 1.1-1.5 2.1-2.1 3.3-2.1 3.4-3.1 7.4-4.1 11.3.4.8 1 1.4 1.7 1.9-.4 1.3-1 2.5-1.9 3.6-.2.3-.4.5-.6.8-.2-.2-.4-.4-.6-.5-.4 1.6-.6 3.3-.6 4.9 0 1.1.1 2.3 1 3 .4.2.7.4 1.1.5l1.9.6c.3.1.7.2 1.1.1.2-.1.4-.2.7-.2.3 0 .5 0 .7.1l1.7.5c.6.1 1.1.3 1.6.6.5.2.9.5 1.4.8.8.4 1.6.7 2.4 1l2.9 1c.8.3 1.6.5 2.5.6.6.1 1.2 0 1.8.1.4.1.9.2 1.3.3.7 0 1.5-.2 2.1-.6.2-.1.4-.3.6-.5.4-.7.1-1.5-.4-2.2-.8-1.2-1.7-2.4-3-3.1-.5-.3-1.1-.5-1.6-.7-1.5-.7-2.6-1.9-4-2.8-.4-.3-.9-.2-1.2.1-1.2-.8-2.4-1.5-3.1-2.7-.3-.6-.5-1.2-.6-1.9.7.2 1.3.3 2 .4 1.5-4.3 2.7-8.6 4.9-12.5zm-27-119.7c-.1.3-.1.6-.2.9-.6 2.6-1.4 5.6-3.2 7.6-.6.6-1.3 1-2.1 1.4l-.2.1c1.4-3.6 3.5-6.9 5.7-10z" fill="url(#SVGID_1_)"/><path class="st7" d="M85 47.2c.2-1 .4-2 .9-2.9.4-.5.8-1 1.3-1.4.9-.7 1.8-1.4 2.8-1.8 1.1-.4 2.3-.3 3.2.4.9.7 1.3 1.9 1.4 3 .2 1.5 0 3.2-.8 4.5-.9 1.5-2.4 2.5-3.7 3.7-.9.9-1.7 1.9-2.4 3-.3.6-.7 1.1-1.1 1.6-.4.5-1.1.7-1.7.7-.5-.1-1-.5-1.4-.8-.5-.5-1.9-1.3-2-2 0-.6 1.1-1.9 1.3-2.5 1.1-1.7 1.8-3.6 2.2-5.5z"/><path class="st8" d="M85 47.2c.2-1 .4-2 .9-2.9.4-.5.8-1 1.3-1.4.9-.7 1.8-1.4 2.8-1.8 1.1-.4 2.3-.3 3.2.4.9.7 1.3 1.9 1.4 3 .2 1.5 0 3.2-.8 4.5-.9 1.5-2.4 2.5-3.7 3.7-.9.9-1.7 1.9-2.4 3-.3.6-.7 1.1-1.1 1.6-.4.5-1.1.7-1.7.7-.5-.1-1-.5-1.4-.8-.5-.5-1.9-1.3-2-2 0-.6 1.1-1.9 1.3-2.5 1.1-1.7 1.8-3.6 2.2-5.5z"/><path class="st2" d="M55.5 75.3c2.2-.6 4.6-.9 6.9-.8 3.9.1 7.9 1 11.6-.2 1-.3 1.9-.7 2.8-1.2.7-.4 1.5-.8 2.1-1.4 1.8-1.9 2.6-4.9 3.2-7.5.6-2.6.7-5.3.9-8 1 .4 2 .9 3 .8 1.1-.1 2.1-.9 2.1-2-.2 2.5-.3 5 .1 7.4.2 1 .4 1.9.5 2.9.3 3.7-1.5 7.2-.9 10.7.2 1.1-.3 2.2-1.2 2.7-1 .5-2.1.6-3.1.8-2.1.5-3.9 1.8-5.9 2.3-1 .2-2 .3-2.9.5-1.4.4-2.6 1.1-4 1.4-1 .2-2.1.1-3.2.1-.9.1-1.8.3-2.7.3-2.2.1-4.4-1.2-5.9-2.9-1.5-1.5-2.4-3.8-3.4-5.9z"/><path class="st8" d="M55.5 75.3c2.2-.6 4.6-.9 6.9-.8 3.9.1 7.9 1 11.6-.2 1-.3 1.9-.7 2.8-1.2.7-.4 1.5-.8 2.1-1.4 1.8-1.9 2.6-4.9 3.2-7.5.6-2.6.7-5.3.9-8 1 .4 2 .9 3 .8 1.1-.1 2.1-.9 2.1-2-.2 2.5-.3 5 .1 7.4.2 1 .4 1.9.5 2.9.3 3.7-1.5 7.2-.9 10.7.2 1.1-.3 2.2-1.2 2.7-1 .5-2.1.6-3.1.8-2.1.5-3.9 1.8-5.9 2.3-1 .2-2 .3-2.9.5-1.4.4-2.6 1.1-4 1.4-1 .2-2.1.1-3.2.1-.9.1-1.8.3-2.7.3-2.2.1-4.4-1.2-5.9-2.9-1.5-1.5-2.4-3.8-3.4-5.9z"/><path class="st9" d="M156.5 78.8c10.7 0 19.3 8.7 19.3 19.3s-8.7 19.3-19.3 19.3c-10.7 0-19.3-8.7-19.3-19.3 0-10.7 8.6-19.3 19.3-19.3m0-4.8c-13.3 0-24.1 10.8-24.1 24.1s10.8 24.1 24.1 24.1 24.1-10.8 24.1-24.1S169.8 74 156.5 74z"/><path class="st9" d="M152.9 68.3h5.6v5.9h-5.6z"/><path transform="rotate(-59.003 169.548 74.764)" class="st9" d="M166.6 71.9h5.9v5.6h-5.9z"/><path transform="rotate(-29.002 179.469 84.42)" class="st9" d="M176.5 81.6h5.9v5.6h-5.9z"/><path transform="rotate(-57.999 179.614 111.546)" class="st9" d="M176.8 108.6h5.6v5.9h-5.6z"/><path transform="rotate(-61.001 133.552 84.413)" class="st9" d="M130.7 81.4h5.6v5.9h-5.6z"/><path transform="rotate(-32.001 133.425 111.543)" class="st9" d="M130.4 108.7h5.9v5.6h-5.9z"/><path transform="rotate(-30.996 143.478 74.765)" class="st9" d="M140.6 71.8h5.6v5.9h-5.6z"/><path class="st9" d="M152.9 121.9h5.6v5.9h-5.6z"/><path transform="rotate(-30.996 169.578 121.414)" class="st9" d="M166.7 118.4h5.6v5.9h-5.6z"/><path transform="rotate(-59.003 143.454 121.407)" class="st9" d="M140.5 118.6h5.9v5.6h-5.9z"/><path class="st9" d="M126.2 95.7h6.8v5.1h-6.8zm53.8 0h6.8v5.1H180zM201.4 44c10.7 0 19.3 8.7 19.3 19.3s-8.7 19.3-19.3 19.3c-10.7 0-19.3-8.7-19.3-19.3 0-10.7 8.6-19.3 19.3-19.3m0-4.8c-13.3 0-24.1 10.8-24.1 24.1s10.8 24.1 24.1 24.1 24.1-10.8 24.1-24.1-10.8-24.1-24.1-24.1z"/><path class="st9" d="M197.8 33.6h5.6v5.9h-5.6z"/><path transform="rotate(-59.003 214.452 39.972)" class="st9" d="M211.5 37.1h5.9v5.6h-5.9z"/><path transform="rotate(-29.002 224.375 49.629)" class="st9" d="M221.4 46.8h5.9v5.6h-5.9z"/><path transform="rotate(-57.999 224.52 76.753)" class="st9" d="M221.7 73.8h5.6v5.9h-5.6z"/><path transform="rotate(-61.001 178.455 49.625)" class="st9" d="M175.6 46.6h5.6v5.9h-5.6z"/><path transform="rotate(-32.001 178.328 76.752)" class="st9" d="M175.3 73.9h5.9v5.6h-5.9z"/><path transform="rotate(-30.996 188.383 39.967)" class="st9" d="M185.5 37h5.6v5.9h-5.6z"/><path class="st9" d="M197.8 87.1h5.6V93h-5.6z"/><path transform="rotate(-30.996 214.483 86.618)" class="st9" d="M211.6 83.6h5.6v5.9h-5.6z"/><path transform="rotate(-59.003 188.354 86.616)" class="st9" d="M185.4 83.8h5.9v5.6h-5.9z"/><path class="st9" d="M171.1 60.9h6.8V66h-6.8zm53.8 0h6.8V66h-6.8zM111.6 42.5h.7c10.7.4 19 9.3 18.7 20-.4 10.4-8.9 18.7-19.3 18.7h-.7c-10.7-.4-19-9.3-18.7-20 .3-10.5 8.9-18.7 19.3-18.7m0-4.8c-13.3 0-24.1 10.8-24.1 24.1 0 13 10.3 23.6 23.3 24.1h.8c13.3 0 24.1-10.8 24.1-24.1 0-13-10.3-23.6-23.3-24.1h-.8z"/><path transform="rotate(-88.01 111.79 35.04)" class="st9" d="M108.8 32.2h5.9v5.6h-5.9z"/><path transform="rotate(-57.011 125.445 38.954)" class="st9" d="M122.5 36.1h5.9v5.6h-5.9z"/><path transform="rotate(-27.008 135.04 48.943)" class="st9" d="M132.1 46.1h5.9v5.6h-5.9z"/><path transform="rotate(-56.011 134.224 76.053)" class="st9" d="M131.4 73.1h5.6V79h-5.6z"/><path transform="rotate(-59.011 89.128 47.34)" class="st9" d="M86.3 44.4h5.6v5.9h-5.6z"/><path transform="rotate(-29.888 87.65 74.902)" class="st9" d="M84.7 72.1h6v5.7h-6z"/><path transform="rotate(-29.014 99.369 38.043)" class="st9" d="M96.6 35.1h5.6V41h-5.6z"/><path transform="rotate(-88.01 109.933 88.53)" class="st9" d="M107 85.7h5.9v5.6H107z"/><path transform="rotate(-29.014 123.824 85.573)" class="st9" d="M121 82.6h5.6v5.9H121z"/><path transform="rotate(-57.011 97.759 84.66)" class="st9" d="M94.8 81.8h5.9v5.6h-5.9z"/><path transform="rotate(-88.01 84.707 61.025)" class="st9" d="M82.2 57.6h5.1v6.8h-5.1z"/><path transform="rotate(-88.01 138.501 62.886)" class="st9" d="M136 59.5h5.1v6.8H136z"/><path class="st7" d="M49.4 185.1c-.7.1-1.4.3-2 .6-.8.5-1.4 1.4-1.7 2.3-.9 2.3-1.1 4.8-1.2 7.3 0 2 0 4 .7 5.9.2.6.5 1.1 1 1.5.4.3.9.5 1.4.7 1.1.3 2.3.3 3.2-.4 1-.8 1.2-2.1 1.4-3.3.3-1.6.7-3.4 1.9-4.5.9-.8 2.2-1.3 2.9-2.3.8-1.2.4-2.9-.1-4.2-.4-1.2-1.1-3.6-2.3-4.2-1.4-.7-3.9.3-5.2.6zm46.1 5.8c-.4 1.3-1 2.6-2 3.6-.6.6-1.2 1.4-1 2.2.1.3.3.5.5.7 4.1 4 9.9 6 15.6 6.7h.3c.2-.1.2-.3.2-.5.1-.6.1-1.2 0-1.8-.3-1.4-1.5-2.4-2.7-3.1-1.2-.8-2.5-1.5-3.2-2.8-.8-1.6-.5-3.6-1.5-5.1-.8-1.2-2.3-1.7-3.7-1.9-.5-.1-1.5-.6-2-.4-.2.4-.3 1.9-.5 2.4z"/><path class="st9" d="M48.8 184.9c0-.3-.2-.5-.5-.6-.3 0-.6 0-.8.1-.6.2-1.3.3-2 .4-.8.1-1.6.1-2.4.3-.8.2-1.5.7-1.8 1.4-.2.4-.2.9-.2 1.3 0 1.7.2 3.4.6 5.1 0 .1.1.3.2.3h.3c.1.1.2.1.2.2.5 1.1.6 2.2.7 3.4.2 1.7.4 3.4.7 5.1.2 1 .4 2 1 2.8.7.8 1.9 1.2 3 1.4 2.3.3 4.7-.2 7-.6.4 0 .8-.2 1.2-.5.2-.3.3-.6.3-.9-.1-1.1-1.1-2-2.1-2.6l-1.3-.9c-.1-.1-.2-.1-.2-.2-.1-.1-.1-.3-.1-.4l.1-1.7c-1.8 0-3.4 1-4.2 2.6-.2.4-.4.8-.7.9-.5.2-1-.2-1.1-.7-.1-.5-.1-1 0-1.5.8-4.1.6-8.4 1.1-12.5 0-.5.2-.9.4-1.3.1-.2.6-.5.6-.9zm57.3 16c.2.3.5.6.7.9.2.3.2.8-.1 1-.2.1-.4.1-.6.1-4.1-.5-8-2.3-11.1-5-.5-.4-1-.9-1.4-1.5-.4-.6-.7-1.2-1.3-1.5-.4 1.6-.6 3.2-.6 4.9 0 1.1.1 2.3 1 2.9.4.2.7.4 1.2.5l1.9.5c.3.1.7.2 1.1.1.2-.1.4-.2.7-.2.3 0 .5 0 .7.1l1.7.5c.6.1 1.1.3 1.6.6.5.2.9.5 1.4.8.8.4 1.6.7 2.4 1l2.9 1c.8.3 1.6.5 2.5.6.6.1 1.2 0 1.8.1.4.1.9.2 1.3.3.7 0 1.5-.2 2.1-.6.2-.1.4-.3.6-.5.4-.7.1-1.5-.4-2.2-.8-1.2-1.7-2.4-3-3.1-.5-.3-1.1-.5-1.6-.7-1.5-.7-2.6-1.9-4-2.8-1.2-.9-2.1 1.2-1.5 2.2z"/><path class="st7" d="M65 82.9c-1.5 1.1-3.3 1.8-5.2 2-1 .1-2 .2-2.9.2-4.1 0-8.2-.3-12.2-1 1.6-1.8 3.2-3.7 3.8-6 .3-1.2.4-2.5.2-3.7-.2-1.6-.6-3.2-1.1-4.7 1.7.1 3.4 0 5.2-.1 1-.1 3.4-1 4.2-.3.8.6.2 2.8.2 3.9v.1c0 1.6.4 3.1 1 4.5 1.1 2.6 3.7 4.9 6.8 5.1z"/><path class="st8" d="M57.1 73c-2.5 1.6-5.6 2.1-8.4 1.3-.2-1.6-.6-3.2-1.1-4.7 1.7.1 3.4 0 5.2-.1 1-.1 3.4-1 4.2-.3.7.6.1 2.8.1 3.8z"/><circle class="st7" cx="51.5" cy="63.9" r="10.3"/><path class="st2" d="M95.1 115.9c0 1.7-.9 3.3-2.3 4.1-.8.4-1.6.7-2.5.9-4.7 1.1-9.5 2-14.3 1.8-1-.1-2.1-.2-3-.6s-1.7-1.3-1.9-2.3c0-.3-.1-.5-.1-.7-.2-.3-.4-.5-.7-.6-.9-.7-1.3-1.8-1.1-2.9-.6.3-1.2-.3-1.5-.9-.3-.6-.5-1.3-1.1-1.5-.4-.2-.9-.1-1.3-.2-.7-.2-1.1-.8-1.6-1.3-1-1-2.4-1.6-3.6-2.2-3.8-1.9-6.9-4.9-9.9-7.9-1.5-1.5-3-3-4.3-4.8l-.9-1.5c-.9-1.8-1.7-3.6-2.4-5.4-.4-1-.8-2-.6-3.1 0-.1 0-.2.1-.3.2-.7.5-1.3.9-1.9 1-1.5 2.4-3 4.2-3.5s3.6.1 5.4.5l1.8.3c1.9.1 3.8-.4 5.7-.9l2-.6c1-.3 1.5-1.5 2.6-1.7.5-.1.9 0 1.4.1 2.1.4 4.2.9 6.1 2 .4.2.8.5 1.2.8 1.3 1 2.4 2.4 2.7 4 .4 1.8 0 3.7.5 5.5.3 1.5 1.2 2.7 2.1 4l5 7.2c1.1 1.7 2.4 3.3 3.7 4.8 2.6 2.6 7.6 4.8 7.7 8.8z"/><path class="st7" d="M81.7 47.2c.2-1 .4-2 .9-2.9.4-.5.8-1 1.3-1.4.9-.7 1.8-1.4 2.8-1.8 1.1-.4 2.3-.3 3.2.4.9.7 1.3 1.9 1.4 3 .2 1.5 0 3.2-.8 4.5-.9 1.5-2.4 2.5-3.7 3.7-.9.9-1.7 1.9-2.4 3-.3.6-.7 1.1-1.1 1.6-.4.5-1.1.7-1.7.7-.5-.1-1-.5-1.4-.8-.5-.5-1.9-1.3-2-2 0-.6 1.1-1.9 1.3-2.5 1.1-1.7 1.7-3.6 2.2-5.5z"/><path class="st9" d="M117.8 166.3c-1.3 2.4-2.7 4.7-3.9 7.2-.7 1.4-1.3 2.9-2 4.3-.8 1.5-1.8 2.9-2.7 4.4-2.1 3.8-3.3 8.1-4.4 12.3-3.1-.5-6.1-1.5-8.7-3.1-.2-.1-.4-.2-.5-.3-.7-.5-1.3-1.2-1.8-1.9 1-3.9 2.1-7.8 4.1-11.2.7-1.1 1.5-2.1 2.1-3.2 2-3.2 2.4-7.2 4.7-10.1.5-.6.5-1.5 0-2.1-.3-.3-.7-.7-.6-1.1.1-.3.4-.6.3-.9l-.3-.3c-.4-.4-.3-1-.4-1.5-.1-1.3-.9-2.5-1.7-3.6-.2-.3-.4-.5-.6-.7-.2-.1-.5-.2-.7-.3-.7-.5-.7-1.5-1-2.3-.5-1-1.6-1.6-2.4-2.4-1-1.1-1.2-2.6-2.2-3.5l-.3-.3c.5 1.6.6 3.3.6 5 .1 5.7-1.3 11.7-.7 17.3.5 4.5-2.2 9-6.2 11.3-1.5.9-3.2 1.4-4.8 2-2.5.9-4.9 1.8-7.3 2.8-1.7.7-3.4 1.5-5.1 2.3-2.1 1-4 2.1-6 3.3-2.4 1.5-4.8 3-6.4 5.3-1.6 0-3.1-1-4.2-2.3s-1.7-2.8-2.3-4.3c-.5-1.3-1-2.7-1.1-4.1 0-.3.2-.6.5-.7l11.3-6 2.1-1.1c4.6-2.5 9.4-4.7 14-7.2.3.1.6-.3.7-.6.1-.3.2-.7.4-.8.1-.1.3-.1.4-.2.1-.1.1-.2.1-.4-.1-2.2-1.8-4.3-1.4-6.5.1-.9.6-1.9.4-2.8-.1-.6-.6-1.2-.9-1.8-.6-1.4 0-3-.6-4.3-.4-.9-.7-1.8-.8-2.8-.3-1.9-.9-3.7-1.7-5.5-.4-.9-.9-1.7-1.6-2.4-.3-.4-.7-.7-1-1.1-1-1.2-1.3-2.7-1.6-4.2-.5-2.7-.8-5.5-.2-8.2.2-.9.5-1.8.5-2.8 0-1.2-.6-2.7.3-3.6.4-.3.8-.5 1.3-.6 2-.6 4.1-.9 6.1-1.1l9.4-1.2c1.1-.1 2.2-.3 3.1-.8 1.3-.7 2.1-2 2.6-3.4 1.7 1.2 2.3 3.5 3.6 5 .6.8 1.4 1.4 2.1 2.1.9.9 1.7 1.9 2.4 2.9 2 2.7 3.9 5.4 5.3 8.4.7 1.6 1.3 3.2 1.9 4.8 2.3 6.4 6 12.5 7.6 19.2.4 1.6 1.4 3.1 1.5 4.7.3 1.7-.5 3.4-1.3 5z"/><path class="st8" d="M68.4 113c-.2.4-.4.9-.3 1.4.2-1 1.6-1.6 1.7-2.6 0-.5 0-.5-.3-.2-.4.3-.6.9-1.1 1.4zm4.4 3.1c-.3.3-.5.6-.7 1-.2.5-.3 1.1-.1 1.7.2-.1.3-.4.3-.6.1-.3.3-.7.4-1 .2-.3.9-.9.9-1.2.1-.5-.6 0-.8.1zm.5-34.8c-.7.6-1.4 1.1-2.2 1.4-2 1-4.3 1.6-6.3 2.6-1 .5-2 1.1-2.9 1.7l-6.1 3.9c-.5.3-.9.6-1.3 1-.7.8-.7 2.2-1.4 3-.7.8-1.8 1.3-3 1.4-1.1 0-2.2-.2-3.3-.6-.6-.2-1.3-.4-1.9-.7-.6-.3-1.2-.6-1.8-1-1.1-.8-2-2-2.1-3.4-.1-.9.1-1.9.4-2.7.2-.6.4-1.1.6-1.7.1-.3.3-.6.5-.9 1.4-2 3.9-2.9 6.3-3.4 1.3-.2 2.5-.4 3.8-.6l1.8.3c1.9.1 3.8-.4 5.7-.9l2-.6c1-.3 1.5-1.5 2.6-1.7.5-.1.9 0 1.4.1 2.1.4 4.2.9 6.1 2 .3.3.7.5 1.1.8z"/><path class="st2" d="M78.3 54.1c-.3 2.5-2.4 4.3-3.7 6.5-.6 1-1.1 2.2-1.6 3.3-.6 1.2-1.4 2.3-2.1 3.4l-2.3 3.3c-1.3 1.9-2.7 3.9-4.4 5.5-3 .5-5.5 2.7-8.3 3.8-2.3.9-4.7 1-7.1 1.4s-4.8 1.4-6.2 3.4c-.5.8-.9 1.6-1.2 2.5-.3.9-.4 1.8-.4 2.7.2 1.4 1 2.5 2.1 3.4 1.1.8 2.4 1.3 3.7 1.7 1.1.4 2.2.6 3.3.6 1.1-.1 2.3-.5 3-1.4.7-.9.7-2.2 1.4-3 .4-.4.9-.7 1.3-1l6.1-3.9c.9-.6 1.9-1.2 2.9-1.7 2-1 4.3-1.5 6.3-2.6s3.9-2.7 4.3-5c1.2-6.9 6-12.7 10.1-18.4-.1 0-.1-.3-.1-.5-.5-1.4-1.7-2.4-3-3s-2.7-.7-4.1-1z"/><path class="st9" d="M56.7 54.1c.1-.7-.1-1.5-.4-2.2-.7-1.1-2.1-1.5-3.4-1.8-1.2-.3-2.5-.5-3.7-.7-1-.1-2.1-.3-3.1-.1-1.4.3-2.5 1.2-3.8 1.8-1.5.7-3.2.9-4.9 1.2-1.6.4-3.3 1-4.3 2.4-.8 1-1.1 2.3-1.3 3.6-1.9 10.5.1 21.3.5 31.9.2 4.2 0 8.6-2.4 12l6.9-.2c1.8 0 3.7-.1 5.1-1.2 1.2-1 1.8-2.5 2.3-4 .4-1.2.8-2.3.9-3.6.1-2.5-1.3-5-.8-7.4.3-1.8 1.7-3.3 3.1-4.5 1.4-1.2 3-2.2 4.2-3.7 2.1-2.6 2.5-6.2 2.2-9.5-.2-2-.5-4-.3-5.9.1-1.5.6-3 1.6-4.2 1-1.2 1.5-2 1.6-3.9z"/><path class="st8" d="M56.3 51.9c-.7-1.1-2-1.5-3.3-1.8.7.2 1.2.7 1.6 1.3.4.7.5 1.4.4 2.2-.1 1.9-.7 2.7-1.8 4-1 1.2-1.4 2.7-1.6 4.2-.2 2 .2 4 .3 5.9.3 3.3-.1 6.9-2.2 9.5-1.2 1.5-2.8 2.5-4.2 3.7s-2.8 2.7-3.1 4.5c-.5 2.5 1 4.9.8 7.4-.1 1.2-.5 2.4-.9 3.6-.5 1.5-1.1 3-2.3 4-1.4 1.1-3.3 1.2-5.1 1.2l-4.9.1c-.1.2-.2.4-.3.5l6.9-.2c1.8 0 3.7-.1 5.1-1.2 1.2-1 1.8-2.5 2.3-4 .4-1.2.8-2.3.9-3.6.1-2.5-1.3-5-.8-7.4.3-1.8 1.7-3.3 3.1-4.5s3-2.2 4.2-3.7c2.1-2.6 2.5-6.2 2.2-9.5-.2-2-.5-4-.3-5.9.1-1.5.6-3 1.6-4.2 1.1-1.3 1.7-2.1 1.8-4 .1-.6 0-1.4-.4-2.1zm51.9 108.2L95.5 191c-.7-.5-1.3-1.2-1.8-1.9 1-3.9 2.1-7.8 4.1-11.2.7-1.1 1.5-2.1 2.1-3.2 2-3.2 2.4-7.2 4.7-10.1.5-.6.5-1.5 0-2.1-.3-.3-.7-.7-.6-1.1.1-.3.4-.6.3-.9l-.3-.3c-.4-.4-.3-1-.4-1.5-.1-1.3-.9-2.5-1.7-3.6-.2-.3-.4-.5-.6-.7-.2-.1-.5-.2-.7-.3-.7-.5-.7-1.5-1-2.3-.5-1-1.6-1.6-2.4-2.4-1-1.1-1.2-2.6-2.2-3.5l-.1-.2 1-6 12.3 20.4z"/></svg>