<?xml version="1.0" encoding="utf-8"?>
<!-- Generator: Adobe Illustrator 23.0.2, SVG Export Plug-In . SVG Version: 6.00 Build 0)  -->
<svg version="1.1" id="b1d80de4-06cb-4b2d-9c4c-b14d42818646"
	 xmlns="http://www.w3.org/2000/svg" xmlns:xlink="http://www.w3.org/1999/xlink" x="0px" y="0px" viewBox="0 0 283.5 210.7"
	 style="enable-background:new 0 0 283.5 210.7;" xml:space="preserve">
<style type="text/css">
	.st0{opacity:0.1;fill:#EBAF41;enable-background:new    ;}
	.st1{opacity:0.8;}
	.st2{fill:#EBAF41;}
	.st3{fill:#444053;}
	.st4{fill:none;stroke:#444053;stroke-miterlimit:10;}
	.st5{fill:none;stroke:#444053;stroke-width:0.75;stroke-miterlimit:10;}
	.st6{fill:url(#SVGID_1_);}
	.st7{fill:#FBBEBE;}
	.st8{opacity:0.1;enable-background:new    ;}
	.st9{fill:#3F3D56;}
</style>
<title>in progress</title>
<path class="st0" d="M164.7,29.5c-18.2-0.5-35.5-4.8-52-9.6S79.8,9.9,62.1,7.3C50.6,5.7,37.6,5.5,28.4,10
	C19.6,14.4,16.7,21.9,15.2,29c-1.2,5.3-1.8,10.8,1.3,15.7c2.2,3.4,6.1,6.3,8.8,9.6c9.4,11.4,2.8,25.5-7.4,36.6
	c-4.8,5.2-10.3,10.2-14,15.8c-3.7,5.6-5.4,11.9-2.2,17.6c3.2,5.6,10.8,9.9,19.1,12.8c16.8,6,36.5,7.8,55.8,8.7
	c42.6,2.2,85.5,1.2,128.2,0.3c15.8-0.3,31.7-0.7,47.3-2.5c8.6-1,17.6-2.6,23.8-6.5c8-4.9,9.9-13.2,4.6-19.4c-9-10.3-33.7-12.9-40-24
	c-3.4-6.1,0.1-12.9,5.1-18.5c10.7-12.1,28.7-22.8,29.7-36.6c0.7-9.5-8-19.1-21.4-23.6c-14-4.7-33.5-4.1-43.8,3.7
	C199.5,26.8,180.7,29.9,164.7,29.5z"/>
<g class="st1">
	<path class="st2" d="M263.6,50.2c0,0-3.2-1.3-13.2,3.3c-10.1,4.6-11.3,4-13.9,3.3c-2.6-0.7-4.1-0.9-6.9-4.7c0,0-2-10.7-3.9-12.4
		c-1.9-1.7-10,0.9-10,0.9s-9.7,2.2-11.6-10.8c0,0,1.3-9.8-0.5-12.8c0,0,3.6,1.6,9.6-1s10.7,2.7,10.7,2.7s1.5,3.9,1.3,6.2
		s0.8,3.2,3.7,2.1c0,0,1.4-2-0.6-5.3c-2-3.3-3.4-5.7-2.8-8.3c0.6-2.6,2.1-6.1,7.2-7.9s12-2.1,15.4-3.5c3.3-1.4,4.1-2.3,4.1-2.3
		s-2,2.1,2.8,10.7c4.8,8.7,1.7,12.5,1.7,12.5s-2.6,6.1-13.9,5.6c0,0-10.9,0.4-5,5c0,0,3.8-0.8,9.5-2.6c5.7-1.8,9.8,5.7,10.8,10.9
		S263.6,50.2,263.6,50.2z"/>
	<path class="st3" d="M248.9,6.6L248.9,6.6c0.5,1.6-4.4,8.3-8.5,13.6l0,0C246.2,12.7,249.3,7.9,248.9,6.6z"/>
	<path class="st3" d="M240.4,20L240.4,20c-3.3,4.3-7.5,9.4-10.8,13.1c-0.3,0.4-0.6,0.7-0.9,1.1l-0.1-0.1c0.3-0.4,0.6-0.8,0.9-1.1
		C232.8,29.3,237.1,24.3,240.4,20z"/>
	<path class="st3" d="M228.6,34.1l0.1,0.1c-6.1,7.6-6.5,19.4-6.5,19.5l-1.3-1.5C220.9,52.2,222.5,41.7,228.6,34.1z"/>
	<path class="st4" d="M256.5,46.1c0,0-7.2-3.7-12.8-2.4s-18.2-4.7-18.2-4.7s-5.4-2.2-6.4-4.7c0,0-3.7-3.9-3.9-5.9s-3.8-7.1-6.1-7.3"
		/>
	<path class="st4" d="M255.5,49.7c0,0-3.6-2.4-3.2-5.3"/>
	<path class="st4" d="M249.9,52.8c0,0-5.2-1.9-5.7-9.3"/>
	<path class="st4" d="M241.6,54.7c0,0-5-4.1-3.3-11.3"/>
	<path class="st4" d="M231.5,52.7c0,0-3.3-6.9-0.4-11.4"/>
	<path class="st4" d="M256.6,41.5c0,0-3.7,1.2-2.9,3.2"/>
	<path class="st4" d="M252.1,34.7c0,0-5,1.6-5.1,8.7"/>
	<path class="st4" d="M245.1,33.1c0,0-4.6,5.6-4.2,10.8"/>
	<path class="st4" d="M237.1,35.3c0,0-4.5,4.3-4,6.7"/>
	<path class="st4" d="M234.4,33.7c0,0-4.3,0.8-4.8-0.6"/>
	<path class="st4" d="M228.8,28.6c0,0,2.1,2.8,2.7,2.2"/>
	<path class="st4" d="M250.1,26.8c0,0-10.7,0.8-13.1-2.5"/>
	<path class="st4" d="M226.6,14.3c0,0,5,10.8,8.7,12.2"/>
	<path class="st4" d="M231.9,9.1c0,0,3.1,9.9,6.9,13"/>
	<path class="st5" d="M254.6,18.6c0,0-8.1,3.5-13,0"/>
	<path class="st5" d="M239.1,7c0,0,1.9,7.3,4.4,9.1"/>
	<path class="st5" d="M253.4,10.4c0,0-4.6,1.7-6.3,0.4"/>
	<path class="st4" d="M224.9,31c0,0,0,6.4-1.7,6.8"/>
	<path class="st4" d="M210.8,39.2c0,0,6.9,0.6,10-3"/>
	<path class="st4" d="M223.1,23.5c0,0-1.7,6.5-6.3,8.2"/>
	<path class="st4" d="M206.6,32.4c0,0,4.9,1.7,9.1-2.6"/>
	<path class="st4" d="M217.7,17.9c0,0-0.5,5.5-3.4,8"/>
	<path class="st4" d="M206.8,24.1c0,0,4,0,5-1.3"/>
</g>
<ellipse class="st0" cx="73.8" cy="206.3" rx="61.2" ry="4.4"/>
<linearGradient id="SVGID_1_" gradientUnits="userSpaceOnUse" x1="169.8911" y1="467.0277" x2="169.8911" y2="635.6648" gradientTransform="matrix(1 0 0 -1 -95.23 676.1606)">
	<stop  offset="0" style="stop-color:#808080;stop-opacity:0.25"/>
	<stop  offset="0.54" style="stop-color:#808080;stop-opacity:0.12"/>
	<stop  offset="1" style="stop-color:#808080;stop-opacity:0.1"/>
</linearGradient>
<path class="st6" d="M109.3,182.6c0.8-1.5,1.9-2.9,2.7-4.5c0.7-1.4,1.3-2.9,2-4.3c1.1-2.5,2.6-4.8,3.9-7.2c0.8-1.6,1.7-3.3,1.5-5.1
	c-0.2-1.7-1.1-3.1-1.5-4.8c-1.6-6.7-5.3-12.8-7.6-19.3c-0.6-1.6-1.2-3.3-1.9-4.9c-1.4-3-3.4-5.8-5.3-8.5c-0.7-1-1.5-2-2.4-2.9
	c-0.7-0.7-1.5-1.3-2.1-2.1c-1.3-1.6-1.9-3.8-3.6-5.1c0,0.1-0.1,0.1-0.1,0.2c-1.2-3-5.1-5-7.4-7.5c-1.3-1.5-2.6-3.1-3.7-4.8l-5-7.2
	c-0.9-1.2-1.7-2.5-2.1-4c-0.4-1.8,0-3.7-0.5-5.5c-0.3-1.1-0.8-2.1-1.5-2.9c0,0,0.1,0,0.1,0c1-0.3,2-0.3,2.9-0.5
	c2.1-0.5,3.9-1.8,5.9-2.3c1.1-0.3,2.2-0.3,3.1-0.8c0.9-0.6,1.4-1.7,1.2-2.8c-0.7-3.5,1.2-7.1,0.9-10.7c-0.1-1-0.3-2-0.5-2.9
	c-0.4-2.3-0.3-4.6-0.2-6.9c0.6-1,1.4-2,2.3-2.8c1.3-1.2,2.8-2.2,3.7-3.8c0.8-1.4,1-3,0.8-4.5c-0.1-1.1-0.5-2.3-1.4-3
	s-2.2-0.7-3.2-0.4c-0.1,0-0.3,0.1-0.4,0.2c-0.9-0.5-2-0.5-2.9-0.2c-1.1,0.4-2,1.1-2.8,1.8c-0.5,0.4-1,0.9-1.3,1.4
	c-0.5,0.8-0.7,1.9-0.9,2.9c-0.4,1.9-1.1,3.8-1.9,5.6c-0.2,0.3-0.6,0.9-0.9,1.4l-0.6-0.1c-0.3,2.5-2.4,4.3-3.6,6.5
	c-0.6,1.1-1.1,2.2-1.6,3.3c-0.6,1.2-1.3,2.3-2.1,3.4c-0.8,1.1-1.5,2.2-2.3,3.3c-1,1.4-2,2.8-3.1,4.2c-1-0.1-2.1-0.2-3.1-0.2
	c-1.7,0-3.4,0.1-5.1,0.5c-0.1-0.6-0.2-1.2-0.2-1.8c0,0,0-0.1,0-0.1c0-0.1,0-0.3,0-0.5c4.8-3.2,6-9.6,2.9-14.4
	c-0.9-1.3-2-2.4-3.3-3.2c0.1-0.3,0.1-0.6,0.1-1c0-0.2,0-0.4,0-0.6c0-0.1,0-0.2,0-0.3c0-0.2,0-0.4-0.1-0.6c0-0.1,0-0.2-0.1-0.3
	c-0.1-0.2-0.1-0.3-0.2-0.5c0,0,0,0,0,0c0-0.1-0.1-0.1-0.1-0.2c0-0.1,0,0-0.1-0.1c0,0-0.1-0.1-0.1-0.1L56.1,51c0,0-0.1-0.1-0.1-0.1
	l-0.1-0.1l-0.1-0.1l-0.1-0.1l-0.1-0.1l-0.1-0.1l-0.1-0.1c0,0-0.1,0-0.1-0.1l-0.1-0.1l-0.1-0.1L55,50.3l-0.1-0.1l-0.1,0l-0.1-0.1
	l-0.1,0L54.4,50l-0.1,0L54.1,50l-0.1,0l-0.2,0l-0.1,0l-0.2,0l-0.1,0l-0.2,0h0L53,49.7c-1.2-0.3-2.5-0.5-3.7-0.7
	c-1-0.2-2.1-0.3-3.1-0.1c-1.4,0.3-2.5,1.2-3.8,1.8c-1.5,0.7-3.2,0.9-4.9,1.3c-1.6,0.4-3.3,1-4.3,2.4c-0.8,1-1.1,2.3-1.3,3.6
	c-1.9,10.6,0.2,21.4,0.5,32.2c0.2,4.2,0,8.7-2.4,12.1l6.9-0.2c0.3,0,0.7,0,1,0c0.3,0,0.7,0,1-0.1c0.9-0.1,1.7-0.3,2.5-0.7
	c0.4-0.2,0.7-0.5,1-0.8c0.9-1,1.4-2.3,1.9-3.6c0.2-0.4,0.3-0.9,0.4-1.3c0.1-0.2,0.1-0.4,0.2-0.6l0-0.1l0.1,0c0.3,0.5,0.6,1,0.9,1.5
	c1.2,1.8,2.7,3.3,4.2,4.8c3,3,6.1,6,9.9,8c1.3,0.6,2.7,1.2,3.6,2.2c0.5,0.5,0.9,1.2,1.6,1.4c0.4,0.1,0.9,0,1.3,0.2
	c0.6,0.2,0.8,1,1.1,1.5c0.3,0.6,0.9,1.2,1.5,0.9c-0.2,1.1,0.2,2.2,1.1,2.9c0.3,0.2,0.5,0.4,0.7,0.6c0.1,0.2,0.1,0.5,0.1,0.8
	c0.1,0.7,0.5,1.4,1.1,1.8c-0.5,0.9-0.1,2.2-0.1,3.3c0,0.9-0.3,1.9-0.5,2.8c-0.6,2.7-0.3,5.5,0.2,8.3c0.3,1.5,0.6,3.1,1.6,4.2
	c0.3,0.4,0.7,0.7,1,1.1c0.6,0.7,1.2,1.5,1.6,2.4c0.9,1.7,1.4,3.6,1.7,5.5c0.1,1,0.4,1.9,0.8,2.8c0.6,1.3,0.1,3,0.6,4.4
	c0.2,0.6,0.7,1.1,0.9,1.8c0.2,0.9-0.3,1.9-0.4,2.8c-0.3,2.2,1.3,4.3,1.4,6.5c0,0.1,0,0.3-0.1,0.4c-0.1,0.1-0.3,0.1-0.4,0.2
	c-0.3,0.1-0.4,0.5-0.4,0.8c-0.1,0.3-0.3,0.7-0.7,0.6c-4.6,2.5-9.4,4.7-14,7.2l-2.1,1.1l-11.3,6c-0.3,0.1-0.5,0.4-0.5,0.7
	c0,0.1,0,0.3,0,0.4c-0.8,0.2-1.5,0.4-2.1,0.5c-0.2,0-0.4,0.1-0.7,0.1c0.1-0.1,0.1-0.2,0.1-0.3c0-0.3-0.2-0.5-0.5-0.6
	c-0.3,0-0.6,0-0.8,0.1c-0.6,0.2-1.3,0.3-2,0.4c-0.8,0.1-1.6,0.1-2.4,0.3c-0.8,0.2-1.5,0.7-1.8,1.4c-0.2,0.4-0.2,0.9-0.2,1.3
	c0,1.7,0.2,3.5,0.6,5.1c0,0.1,0.1,0.3,0.2,0.3c0.1,0,0.2,0,0.3,0c0.1,0.1,0.2,0.1,0.2,0.2c0.5,1.1,0.6,2.3,0.7,3.4
	c0.2,1.7,0.4,3.5,0.7,5.2c0.2,1,0.4,2.1,1,2.8c0.7,0.8,1.9,1.2,3,1.4c2.3,0.3,4.7-0.2,6.9-0.6c0.4-0.1,0.9-0.2,1.2-0.5
	c0.2-0.3,0.3-0.6,0.3-0.9c-0.1-1.2-1.1-2-2.1-2.6l-1.3-0.9c-0.2-0.1-0.3-0.4-0.3-0.6l0.1-1.7h-0.3c0.3-1.2,0.7-2.4,1.6-3.2
	c0.6-0.6,1.4-1,2-1.5c0.8,0.6,1.8,1,2.8,1c1.7-2.3,4.1-3.8,6.4-5.3c1.9-1.2,3.9-2.3,6-3.3c1.7-0.8,3.3-1.6,5.1-2.3
	c2.4-1,4.9-1.9,7.3-2.8c1.6-0.6,3.3-1.2,4.8-2c3.9-2.3,6.7-6.8,6.2-11.3c-0.7-5.7,0.8-11.7,0.7-17.5c0-1.7-0.1-3.4-0.6-5
	c0.1,0.1,0.2,0.2,0.3,0.3c1,1,1.3,2.5,2.2,3.6c0.8,0.9,1.9,1.4,2.4,2.4c0.4,0.8,0.3,1.9,1,2.3c0.2,0.1,0.5,0.2,0.7,0.3
	c0.2,0.2,0.5,0.4,0.6,0.7c0.8,1.1,1.6,2.3,1.7,3.7c0,0.5,0,1.2,0.4,1.5c0.1,0.1,0.3,0.2,0.3,0.3c0.1,0.3-0.2,0.6-0.3,0.9
	c-0.1,0.4,0.3,0.8,0.6,1.1c0.5,0.6,0.5,1.5,0,2.1c-2.3,3-2.7,7-4.7,10.2c-0.7,1.1-1.5,2.1-2.1,3.3c-2.1,3.4-3.1,7.4-4.1,11.3
	c0.4,0.8,1,1.4,1.7,1.9c-0.4,1.3-1,2.5-1.9,3.6c-0.2,0.3-0.4,0.5-0.6,0.8c-0.2-0.2-0.4-0.4-0.6-0.5c-0.4,1.6-0.6,3.3-0.6,4.9
	c0,1.1,0.1,2.3,1,3c0.4,0.2,0.7,0.4,1.1,0.5l1.9,0.6c0.3,0.1,0.7,0.2,1.1,0.1c0.2-0.1,0.4-0.2,0.7-0.2c0.3,0,0.5,0,0.7,0.1l1.7,0.5
	c0.6,0.1,1.1,0.3,1.6,0.6c0.5,0.2,0.9,0.5,1.4,0.8c0.8,0.4,1.6,0.7,2.4,1l2.9,1c0.8,0.3,1.6,0.5,2.5,0.6c0.6,0.1,1.2,0,1.8,0.1
	c0.4,0.1,0.9,0.2,1.3,0.3c0.7,0,1.5-0.2,2.1-0.6c0.2-0.1,0.4-0.3,0.6-0.5c0.4-0.7,0.1-1.5-0.4-2.2c-0.8-1.2-1.7-2.4-3-3.1
	c-0.5-0.3-1.1-0.5-1.6-0.7c-1.5-0.7-2.6-1.9-4-2.8c-0.4-0.3-0.9-0.2-1.2,0.1c-1.2-0.8-2.4-1.5-3.1-2.7c-0.3-0.6-0.5-1.2-0.6-1.9
	c0.7,0.2,1.3,0.3,2,0.4C105.9,190.8,107.1,186.5,109.3,182.6z M82.3,62.9c-0.1,0.3-0.1,0.6-0.2,0.9c-0.6,2.6-1.4,5.6-3.2,7.6
	c-0.6,0.6-1.3,1-2.1,1.4l-0.2,0.1C78,69.3,80.1,66,82.3,62.9z"/>
<path class="st7" d="M85,47.2c0.2-1,0.4-2,0.9-2.9c0.4-0.5,0.8-1,1.3-1.4c0.9-0.7,1.8-1.4,2.8-1.8c1.1-0.4,2.3-0.3,3.2,0.4
	c0.9,0.7,1.3,1.9,1.4,3c0.2,1.5,0,3.2-0.8,4.5c-0.9,1.5-2.4,2.5-3.7,3.7c-0.9,0.9-1.7,1.9-2.4,3c-0.3,0.6-0.7,1.1-1.1,1.6
	c-0.4,0.5-1.1,0.7-1.7,0.7c-0.5-0.1-1-0.5-1.4-0.8c-0.5-0.5-1.9-1.3-2-2c0-0.6,1.1-1.9,1.3-2.5C83.9,51,84.6,49.1,85,47.2z"/>
<path class="st8" d="M85,47.2c0.2-1,0.4-2,0.9-2.9c0.4-0.5,0.8-1,1.3-1.4c0.9-0.7,1.8-1.4,2.8-1.8c1.1-0.4,2.3-0.3,3.2,0.4
	c0.9,0.7,1.3,1.9,1.4,3c0.2,1.5,0,3.2-0.8,4.5c-0.9,1.5-2.4,2.5-3.7,3.7c-0.9,0.9-1.7,1.9-2.4,3c-0.3,0.6-0.7,1.1-1.1,1.6
	c-0.4,0.5-1.1,0.7-1.7,0.7c-0.5-0.1-1-0.5-1.4-0.8c-0.5-0.5-1.9-1.3-2-2c0-0.6,1.1-1.9,1.3-2.5C83.9,51,84.6,49.1,85,47.2z"/>
<path class="st2" d="M55.5,75.3c2.2-0.6,4.6-0.9,6.9-0.8c3.9,0.1,7.9,1,11.6-0.2c1-0.3,1.9-0.7,2.8-1.2c0.7-0.4,1.5-0.8,2.1-1.4
	c1.8-1.9,2.6-4.9,3.2-7.5c0.6-2.6,0.7-5.3,0.9-8c1,0.4,2,0.9,3,0.8c1.1-0.1,2.1-0.9,2.1-2c-0.2,2.5-0.3,5,0.1,7.4
	c0.2,1,0.4,1.9,0.5,2.9C89,69,87.2,72.5,87.8,76c0.2,1.1-0.3,2.2-1.2,2.7c-1,0.5-2.1,0.6-3.1,0.8c-2.1,0.5-3.9,1.8-5.9,2.3
	c-1,0.2-2,0.3-2.9,0.5c-1.4,0.4-2.6,1.1-4,1.4c-1,0.2-2.1,0.1-3.2,0.1c-0.9,0.1-1.8,0.3-2.7,0.3c-2.2,0.1-4.4-1.2-5.9-2.9
	C57.4,79.7,56.5,77.4,55.5,75.3z"/>
<path class="st8" d="M55.5,75.3c2.2-0.6,4.6-0.9,6.9-0.8c3.9,0.1,7.9,1,11.6-0.2c1-0.3,1.9-0.7,2.8-1.2c0.7-0.4,1.5-0.8,2.1-1.4
	c1.8-1.9,2.6-4.9,3.2-7.5c0.6-2.6,0.7-5.3,0.9-8c1,0.4,2,0.9,3,0.8c1.1-0.1,2.1-0.9,2.1-2c-0.2,2.5-0.3,5,0.1,7.4
	c0.2,1,0.4,1.9,0.5,2.9C89,69,87.2,72.5,87.8,76c0.2,1.1-0.3,2.2-1.2,2.7c-1,0.5-2.1,0.6-3.1,0.8c-2.1,0.5-3.9,1.8-5.9,2.3
	c-1,0.2-2,0.3-2.9,0.5c-1.4,0.4-2.6,1.1-4,1.4c-1,0.2-2.1,0.1-3.2,0.1c-0.9,0.1-1.8,0.3-2.7,0.3c-2.2,0.1-4.4-1.2-5.9-2.9
	C57.4,79.7,56.5,77.4,55.5,75.3z"/>
<path class="st9" d="M156.5,78.8c10.7,0,19.3,8.7,19.3,19.3s-8.7,19.3-19.3,19.3c-10.7,0-19.3-8.7-19.3-19.3c0,0,0,0,0,0
	C137.2,87.4,145.8,78.8,156.5,78.8 M156.5,74c-13.3,0-24.1,10.8-24.1,24.1s10.8,24.1,24.1,24.1c13.3,0,24.1-10.8,24.1-24.1
	c0,0,0,0,0,0C180.6,84.8,169.8,74,156.5,74z"/>
<rect x="152.9" y="68.3" class="st9" width="5.6" height="5.9"/>
<rect x="166.6" y="71.9" transform="matrix(0.515 -0.8572 0.8572 0.515 18.1432 181.5971)" class="st9" width="5.9" height="5.6"/>
<rect x="176.5" y="81.6" transform="matrix(0.8746 -0.4848 0.4848 0.8746 -18.4214 97.5928)" class="st9" width="5.9" height="5.6"/>
<rect x="176.8" y="108.6" transform="matrix(0.5299 -0.848 0.848 0.5299 -10.1637 204.7453)" class="st9" width="5.6" height="5.9"/>
<rect x="130.7" y="81.4" transform="matrix(0.4848 -0.8746 0.8746 0.4848 -5.0216 160.2943)" class="st9" width="5.6" height="5.9"/>
<rect x="130.4" y="108.7" transform="matrix(0.848 -0.5299 0.5299 0.848 -38.8328 87.6505)" class="st9" width="5.9" height="5.6"/>
<rect x="140.6" y="71.8" transform="matrix(0.8572 -0.515 0.515 0.8572 -18.0153 84.5674)" class="st9" width="5.6" height="5.9"/>
<rect x="152.9" y="121.9" class="st9" width="5.6" height="5.9"/>
<rect x="166.7" y="118.4" transform="matrix(0.8572 -0.515 0.515 0.8572 -38.3123 104.6703)" class="st9" width="5.6" height="5.9"/>
<rect x="140.5" y="118.6" transform="matrix(0.515 -0.8572 0.8572 0.515 -34.4947 181.8514)" class="st9" width="5.9" height="5.6"/>
<rect x="126.2" y="95.7" class="st9" width="6.8" height="5.1"/>
<rect x="180" y="95.7" class="st9" width="6.8" height="5.1"/>
<path class="st9" d="M201.4,44c10.7,0,19.3,8.7,19.3,19.3s-8.7,19.3-19.3,19.3c-10.7,0-19.3-8.7-19.3-19.3c0,0,0,0,0,0
	C182.1,52.6,190.7,44,201.4,44 M201.4,39.2c-13.3,0-24.1,10.8-24.1,24.1s10.8,24.1,24.1,24.1c13.3,0,24.1-10.8,24.1-24.1
	c0,0,0,0,0,0C225.5,50,214.7,39.2,201.4,39.2z"/>
<rect x="197.8" y="33.6" class="st9" width="5.6" height="5.9"/>
<rect x="211.5" y="37.1" transform="matrix(0.515 -0.8572 0.8572 0.515 69.7446 203.2145)" class="st9" width="5.9" height="5.6"/>
<rect x="221.4" y="46.8" transform="matrix(0.8746 -0.4848 0.4848 0.8746 4.0767 115.0005)" class="st9" width="5.9" height="5.6"/>
<rect x="221.7" y="73.8" transform="matrix(0.5299 -0.848 0.848 0.5299 40.4488 226.4697)" class="st9" width="5.6" height="5.9"/>
<rect x="175.6" y="46.6" transform="matrix(0.4848 -0.8746 0.8746 0.4848 48.538 181.643)" class="st9" width="5.6" height="5.9"/>
<rect x="175.3" y="73.9" transform="matrix(0.848 -0.5299 0.5299 0.848 -13.574 106.1586)" class="st9" width="5.9" height="5.6"/>
<rect x="185.5" y="37" transform="matrix(0.8572 -0.515 0.515 0.8572 6.3181 102.7246)" class="st9" width="5.6" height="5.9"/>
<rect x="197.8" y="87.1" class="st9" width="5.6" height="5.9"/>
<rect x="211.6" y="83.6" transform="matrix(0.8572 -0.515 0.515 0.8572 -13.9799 122.8278)" class="st9" width="5.6" height="5.9"/>
<rect x="185.4" y="83.8" transform="matrix(0.515 -0.8572 0.8572 0.515 17.104 203.466)" class="st9" width="5.9" height="5.6"/>
<rect x="171.1" y="60.9" class="st9" width="6.8" height="5.1"/>
<rect x="224.9" y="60.9" class="st9" width="6.8" height="5.1"/>
<path class="st9" d="M111.6,42.5c0.2,0,0.5,0,0.7,0c10.7,0.4,19,9.3,18.7,20c-0.4,10.4-8.9,18.7-19.3,18.7c-0.2,0-0.5,0-0.7,0
	c-10.7-0.4-19-9.3-18.7-20C92.6,50.7,101.2,42.5,111.6,42.5 M111.6,37.7L111.6,37.7c-13.3,0-24.1,10.8-24.1,24.1
	c0,13,10.3,23.6,23.3,24.1c0.3,0,0.6,0,0.8,0c13.3,0,24.1-10.8,24.1-24.1c0-13-10.3-23.6-23.3-24.1
	C112.2,37.7,111.9,37.7,111.6,37.7L111.6,37.7z"/>
<rect x="108.8" y="32.2" transform="matrix(3.472507e-02 -0.9994 0.9994 3.472507e-02 72.8896 145.5456)" class="st9" width="5.9" height="5.6"/>
<rect x="122.5" y="36.1" transform="matrix(0.5445 -0.8388 0.8388 0.5445 24.4701 122.9682)" class="st9" width="5.9" height="5.6"/>
<rect x="132.1" y="46.1" transform="matrix(0.8909 -0.4541 0.4541 0.8909 -7.4982 66.6592)" class="st9" width="5.9" height="5.6"/>
<rect x="131.4" y="73.1" transform="matrix(0.559 -0.8291 0.8291 0.559 -3.8707 144.82)" class="st9" width="5.6" height="5.9"/>
<rect x="86.3" y="44.4" transform="matrix(0.5149 -0.8573 0.8573 0.5149 2.6561 99.3759)" class="st9" width="5.6" height="5.9"/>
<rect x="84.7" y="72.1" transform="matrix(0.867 -0.4983 0.4983 0.867 -25.6662 53.6377)" class="st9" width="6" height="5.7"/>
<rect x="96.6" y="35.1" transform="matrix(0.8745 -0.485 0.485 0.8745 -5.98 52.9682)" class="st9" width="5.6" height="5.9"/>
<rect x="107" y="85.7" transform="matrix(3.472507e-02 -0.9994 0.9994 3.472507e-02 17.6389 195.3239)" class="st9" width="5.9" height="5.6"/>
<rect x="121" y="82.6" transform="matrix(0.8745 -0.485 0.485 0.8745 -25.9632 70.7942)" class="st9" width="5.6" height="5.9"/>
<rect x="94.8" y="81.8" transform="matrix(0.5445 -0.8388 0.8388 0.5445 -26.4804 120.5654)" class="st9" width="5.9" height="5.6"/>
<rect x="82.2" y="57.6" transform="matrix(3.472507e-02 -0.9994 0.9994 3.472507e-02 20.7774 143.5614)" class="st9" width="5.1" height="6.8"/>
<rect x="136" y="59.5" transform="matrix(3.472517e-02 -0.9994 0.9994 3.472517e-02 70.844 199.1204)" class="st9" width="5.1" height="6.8"/>
<path class="st7" d="M49.4,185.1c-0.7,0.1-1.4,0.3-2,0.6c-0.8,0.5-1.4,1.4-1.7,2.3c-0.9,2.3-1.1,4.8-1.2,7.3c0,2,0,4,0.7,5.9
	c0.2,0.6,0.5,1.1,1,1.5c0.4,0.3,0.9,0.5,1.4,0.7c1.1,0.3,2.3,0.3,3.2-0.4c1-0.8,1.2-2.1,1.4-3.3c0.3-1.6,0.7-3.4,1.9-4.5
	c0.9-0.8,2.2-1.3,2.9-2.3c0.8-1.2,0.4-2.9-0.1-4.2c-0.4-1.2-1.1-3.6-2.3-4.2C53.2,183.8,50.7,184.8,49.4,185.1z"/>
<path class="st7" d="M95.5,190.9c-0.4,1.3-1,2.6-2,3.6c-0.6,0.6-1.2,1.4-1,2.2c0.1,0.3,0.3,0.5,0.5,0.7c4.1,4,9.9,6,15.6,6.7
	c0.1,0,0.2,0,0.3,0c0.2-0.1,0.2-0.3,0.2-0.5c0.1-0.6,0.1-1.2,0-1.8c-0.3-1.4-1.5-2.4-2.7-3.1c-1.2-0.8-2.5-1.5-3.2-2.8
	c-0.8-1.6-0.5-3.6-1.5-5.1c-0.8-1.2-2.3-1.7-3.7-1.9c-0.5-0.1-1.5-0.6-2-0.4C95.8,188.9,95.7,190.4,95.5,190.9z"/>
<path class="st9" d="M48.8,184.9c0-0.3-0.2-0.5-0.5-0.6c-0.3,0-0.6,0-0.8,0.1c-0.6,0.2-1.3,0.3-2,0.4c-0.8,0.1-1.6,0.1-2.4,0.3
	c-0.8,0.2-1.5,0.7-1.8,1.4c-0.2,0.4-0.2,0.9-0.2,1.3c0,1.7,0.2,3.4,0.6,5.1c0,0.1,0.1,0.3,0.2,0.3c0.1,0,0.2,0,0.3,0
	c0.1,0.1,0.2,0.1,0.2,0.2c0.5,1.1,0.6,2.2,0.7,3.4c0.2,1.7,0.4,3.4,0.7,5.1c0.2,1,0.4,2,1,2.8c0.7,0.8,1.9,1.2,3,1.4
	c2.3,0.3,4.7-0.2,7-0.6c0.4,0,0.8-0.2,1.2-0.5c0.2-0.3,0.3-0.6,0.3-0.9c-0.1-1.1-1.1-2-2.1-2.6l-1.3-0.9c-0.1-0.1-0.2-0.1-0.2-0.2
	c-0.1-0.1-0.1-0.3-0.1-0.4l0.1-1.7c-1.8,0-3.4,1-4.2,2.6c-0.2,0.4-0.4,0.8-0.7,0.9c-0.5,0.2-1-0.2-1.1-0.7c-0.1-0.5-0.1-1,0-1.5
	c0.8-4.1,0.6-8.4,1.1-12.5c0-0.5,0.2-0.9,0.4-1.3C48.3,185.6,48.8,185.3,48.8,184.9z"/>
<path class="st9" d="M106.1,200.9c0.2,0.3,0.5,0.6,0.7,0.9c0.2,0.3,0.2,0.8-0.1,1c-0.2,0.1-0.4,0.1-0.6,0.1c-4.1-0.5-8-2.3-11.1-5
	c-0.5-0.4-1-0.9-1.4-1.5c-0.4-0.6-0.7-1.2-1.3-1.5c-0.4,1.6-0.6,3.2-0.6,4.9c0,1.1,0.1,2.3,1,2.9c0.4,0.2,0.7,0.4,1.2,0.5l1.9,0.5
	c0.3,0.1,0.7,0.2,1.1,0.1c0.2-0.1,0.4-0.2,0.7-0.2c0.3,0,0.5,0,0.7,0.1l1.7,0.5c0.6,0.1,1.1,0.3,1.6,0.6c0.5,0.2,0.9,0.5,1.4,0.8
	c0.8,0.4,1.6,0.7,2.4,1l2.9,1c0.8,0.3,1.6,0.5,2.5,0.6c0.6,0.1,1.2,0,1.8,0.1c0.4,0.1,0.9,0.2,1.3,0.3c0.7,0,1.5-0.2,2.1-0.6
	c0.2-0.1,0.4-0.3,0.6-0.5c0.4-0.7,0.1-1.5-0.4-2.2c-0.8-1.2-1.7-2.4-3-3.1c-0.5-0.3-1.1-0.5-1.6-0.7c-1.5-0.7-2.6-1.9-4-2.8
	C106.4,197.8,105.5,199.9,106.1,200.9z"/>
<path class="st7" d="M65,82.9c-1.5,1.1-3.3,1.8-5.2,2c-1,0.1-2,0.2-2.9,0.2c-4.1,0-8.2-0.3-12.2-1c1.6-1.8,3.2-3.7,3.8-6
	c0.3-1.2,0.4-2.5,0.2-3.7c-0.2-1.6-0.6-3.2-1.1-4.7c1.7,0.1,3.4,0,5.2-0.1c1-0.1,3.4-1,4.2-0.3c0.8,0.6,0.2,2.8,0.2,3.9
	c0,0,0,0.1,0,0.1c0,1.6,0.4,3.1,1,4.5C59.3,80.4,61.9,82.7,65,82.9z"/>
<path class="st8" d="M57.1,73c-2.5,1.6-5.6,2.1-8.4,1.3c-0.2-1.6-0.6-3.2-1.1-4.7c1.7,0.1,3.4,0,5.2-0.1c1-0.1,3.4-1,4.2-0.3
	C57.7,69.8,57.1,72,57.1,73z"/>
<circle class="st7" cx="51.5" cy="63.9" r="10.3"/>
<path class="st2" d="M95.1,115.9c0,1.7-0.9,3.3-2.3,4.1c-0.8,0.4-1.6,0.7-2.5,0.9c-4.7,1.1-9.5,2-14.3,1.8c-1-0.1-2.1-0.2-3-0.6
	s-1.7-1.3-1.9-2.3c0-0.3-0.1-0.5-0.1-0.7c-0.2-0.3-0.4-0.5-0.7-0.6c-0.9-0.7-1.3-1.8-1.1-2.9c-0.6,0.3-1.2-0.3-1.5-0.9
	c-0.3-0.6-0.5-1.3-1.1-1.5c-0.4-0.2-0.9-0.1-1.3-0.2c-0.7-0.2-1.1-0.8-1.6-1.3c-1-1-2.4-1.6-3.6-2.2c-3.8-1.9-6.9-4.9-9.9-7.9
	c-1.5-1.5-3-3-4.3-4.8c-0.3-0.5-0.6-1-0.9-1.5c-0.9-1.8-1.7-3.6-2.4-5.4c-0.4-1-0.8-2-0.6-3.1c0-0.1,0-0.2,0.1-0.3
	c0.2-0.7,0.5-1.3,0.9-1.9c1-1.5,2.4-3,4.2-3.5s3.6,0.1,5.4,0.5c0.6,0.1,1.2,0.2,1.8,0.3c1.9,0.1,3.8-0.4,5.7-0.9l2-0.6
	c1-0.3,1.5-1.5,2.6-1.7c0.5-0.1,0.9,0,1.4,0.1c2.1,0.4,4.2,0.9,6.1,2c0.4,0.2,0.8,0.5,1.2,0.8c1.3,1,2.4,2.4,2.7,4
	c0.4,1.8,0,3.7,0.5,5.5c0.3,1.5,1.2,2.7,2.1,4l5,7.2c1.1,1.7,2.4,3.3,3.7,4.8C90,109.7,95,111.9,95.1,115.9z"/>
<path class="st7" d="M81.7,47.2c0.2-1,0.4-2,0.9-2.9c0.4-0.5,0.8-1,1.3-1.4c0.9-0.7,1.8-1.4,2.8-1.8c1.1-0.4,2.3-0.3,3.2,0.4
	c0.9,0.7,1.3,1.9,1.4,3c0.2,1.5,0,3.2-0.8,4.5c-0.9,1.5-2.4,2.5-3.7,3.7c-0.9,0.9-1.7,1.9-2.4,3c-0.3,0.6-0.7,1.1-1.1,1.6
	c-0.4,0.5-1.1,0.7-1.7,0.7c-0.5-0.1-1-0.5-1.4-0.8c-0.5-0.5-1.9-1.3-2-2c0-0.6,1.1-1.9,1.3-2.5C80.6,51,81.2,49.1,81.7,47.2z"/>
<path class="st9" d="M117.8,166.3c-1.3,2.4-2.7,4.7-3.9,7.2c-0.7,1.4-1.3,2.9-2,4.3c-0.8,1.5-1.8,2.9-2.7,4.4
	c-2.1,3.8-3.3,8.1-4.4,12.3c-3.1-0.5-6.1-1.5-8.7-3.1c-0.2-0.1-0.4-0.2-0.5-0.3c-0.7-0.5-1.3-1.2-1.8-1.9c1-3.9,2.1-7.8,4.1-11.2
	c0.7-1.1,1.5-2.1,2.1-3.2c2-3.2,2.4-7.2,4.7-10.1c0.5-0.6,0.5-1.5,0-2.1c-0.3-0.3-0.7-0.7-0.6-1.1c0.1-0.3,0.4-0.6,0.3-0.9
	c-0.1-0.1-0.2-0.2-0.3-0.3c-0.4-0.4-0.3-1-0.4-1.5c-0.1-1.3-0.9-2.5-1.7-3.6c-0.2-0.3-0.4-0.5-0.6-0.7c-0.2-0.1-0.5-0.2-0.7-0.3
	c-0.7-0.5-0.7-1.5-1-2.3c-0.5-1-1.6-1.6-2.4-2.4c-1-1.1-1.2-2.6-2.2-3.5c-0.1-0.1-0.2-0.2-0.3-0.3c0.5,1.6,0.6,3.3,0.6,5
	c0.1,5.7-1.3,11.7-0.7,17.3c0.5,4.5-2.2,9-6.2,11.3c-1.5,0.9-3.2,1.4-4.8,2c-2.5,0.9-4.9,1.8-7.3,2.8c-1.7,0.7-3.4,1.5-5.1,2.3
	c-2.1,1-4,2.1-6,3.3c-2.4,1.5-4.8,3-6.4,5.3c-1.6,0-3.1-1-4.2-2.3s-1.7-2.8-2.3-4.3c-0.5-1.3-1-2.7-1.1-4.1c0-0.3,0.2-0.6,0.5-0.7
	l11.3-6l2.1-1.1c4.6-2.5,9.4-4.7,14-7.2c0.3,0.1,0.6-0.3,0.7-0.6c0.1-0.3,0.2-0.7,0.4-0.8c0.1-0.1,0.3-0.1,0.4-0.2
	c0.1-0.1,0.1-0.2,0.1-0.4c-0.1-2.2-1.8-4.3-1.4-6.5c0.1-0.9,0.6-1.9,0.4-2.8c-0.1-0.6-0.6-1.2-0.9-1.8c-0.6-1.4,0-3-0.6-4.3
	c-0.4-0.9-0.7-1.8-0.8-2.8c-0.3-1.9-0.9-3.7-1.7-5.5c-0.4-0.9-0.9-1.7-1.6-2.4c-0.3-0.4-0.7-0.7-1-1.1c-1-1.2-1.3-2.7-1.6-4.2
	c-0.5-2.7-0.8-5.5-0.2-8.2c0.2-0.9,0.5-1.8,0.5-2.8c0-1.2-0.6-2.7,0.3-3.6c0.4-0.3,0.8-0.5,1.3-0.6c2-0.6,4.1-0.9,6.1-1.1l9.4-1.2
	c1.1-0.1,2.2-0.3,3.1-0.8c1.3-0.7,2.1-2,2.6-3.4c1.7,1.2,2.3,3.5,3.6,5c0.6,0.8,1.4,1.4,2.1,2.1c0.9,0.9,1.7,1.9,2.4,2.9
	c2,2.7,3.9,5.4,5.3,8.4c0.7,1.6,1.3,3.2,1.9,4.8c2.3,6.4,6,12.5,7.6,19.2c0.4,1.6,1.4,3.1,1.5,4.7
	C119.4,163,118.6,164.7,117.8,166.3z"/>
<path class="st8" d="M68.4,113c-0.2,0.4-0.4,0.9-0.3,1.4c0.2-1,1.6-1.6,1.7-2.6c0-0.5,0-0.5-0.3-0.2C69.1,111.9,68.9,112.5,68.4,113
	z"/>
<path class="st8" d="M72.8,116.1c-0.3,0.3-0.5,0.6-0.7,1c-0.2,0.5-0.3,1.1-0.1,1.7c0.2-0.1,0.3-0.4,0.3-0.6c0.1-0.3,0.3-0.7,0.4-1
	c0.2-0.3,0.9-0.9,0.9-1.2C73.7,115.5,73,116,72.8,116.1z"/>
<path class="st8" d="M73.3,81.3c-0.7,0.6-1.4,1.1-2.2,1.4c-2,1-4.3,1.6-6.3,2.6c-1,0.5-2,1.1-2.9,1.7l-6.1,3.9
	c-0.5,0.3-0.9,0.6-1.3,1c-0.7,0.8-0.7,2.2-1.4,3c-0.7,0.8-1.8,1.3-3,1.4c-1.1,0-2.2-0.2-3.3-0.6c-0.6-0.2-1.3-0.4-1.9-0.7
	c-0.6-0.3-1.2-0.6-1.8-1c-1.1-0.8-2-2-2.1-3.4c-0.1-0.9,0.1-1.9,0.4-2.7c0.2-0.6,0.4-1.1,0.6-1.7c0.1-0.3,0.3-0.6,0.5-0.9
	c1.4-2,3.9-2.9,6.3-3.4c1.3-0.2,2.5-0.4,3.8-0.6c0.6,0.1,1.2,0.2,1.8,0.3c1.9,0.1,3.8-0.4,5.7-0.9l2-0.6c1-0.3,1.5-1.5,2.6-1.7
	c0.5-0.1,0.9,0,1.4,0.1c2.1,0.4,4.2,0.9,6.1,2C72.5,80.8,72.9,81,73.3,81.3z"/>
<path class="st2" d="M78.3,54.1c-0.3,2.5-2.4,4.3-3.7,6.5c-0.6,1-1.1,2.2-1.6,3.3c-0.6,1.2-1.4,2.3-2.1,3.4l-2.3,3.3
	c-1.3,1.9-2.7,3.9-4.4,5.5c-3,0.5-5.5,2.7-8.3,3.8c-2.3,0.9-4.7,1-7.1,1.4s-4.8,1.4-6.2,3.4c-0.5,0.8-0.9,1.6-1.2,2.5
	c-0.3,0.9-0.4,1.8-0.4,2.7c0.2,1.4,1,2.5,2.1,3.4c1.1,0.8,2.4,1.3,3.7,1.7c1.1,0.4,2.2,0.6,3.3,0.6c1.1-0.1,2.3-0.5,3-1.4
	c0.7-0.9,0.7-2.2,1.4-3c0.4-0.4,0.9-0.7,1.3-1l6.1-3.9c0.9-0.6,1.9-1.2,2.9-1.7c2-1,4.3-1.5,6.3-2.6s3.9-2.7,4.3-5
	c1.2-6.9,6-12.7,10.1-18.4c-0.1,0-0.1-0.3-0.1-0.5c-0.5-1.4-1.7-2.4-3-3S79.7,54.4,78.3,54.1z"/>
<path class="st9" d="M56.7,54.1c0.1-0.7-0.1-1.5-0.4-2.2c-0.7-1.1-2.1-1.5-3.4-1.8c-1.2-0.3-2.5-0.5-3.7-0.7c-1-0.1-2.1-0.3-3.1-0.1
	c-1.4,0.3-2.5,1.2-3.8,1.8c-1.5,0.7-3.2,0.9-4.9,1.2c-1.6,0.4-3.3,1-4.3,2.4c-0.8,1-1.1,2.3-1.3,3.6c-1.9,10.5,0.1,21.3,0.5,31.9
	c0.2,4.2,0,8.6-2.4,12l6.9-0.2c1.8,0,3.7-0.1,5.1-1.2c1.2-1,1.8-2.5,2.3-4c0.4-1.2,0.8-2.3,0.9-3.6c0.1-2.5-1.3-5-0.8-7.4
	c0.3-1.8,1.7-3.3,3.1-4.5c1.4-1.2,3-2.2,4.2-3.7c2.1-2.6,2.5-6.2,2.2-9.5c-0.2-2-0.5-4-0.3-5.9c0.1-1.5,0.6-3,1.6-4.2
	C56.1,56.8,56.6,56,56.7,54.1z"/>
<path class="st8" d="M56.3,51.9c-0.7-1.1-2-1.5-3.3-1.8c0.7,0.2,1.2,0.7,1.6,1.3c0.4,0.7,0.5,1.4,0.4,2.2c-0.1,1.9-0.7,2.7-1.8,4
	c-1,1.2-1.4,2.7-1.6,4.2c-0.2,2,0.2,4,0.3,5.9c0.3,3.3-0.1,6.9-2.2,9.5c-1.2,1.5-2.8,2.5-4.2,3.7s-2.8,2.7-3.1,4.5
	c-0.5,2.5,1,4.9,0.8,7.4c-0.1,1.2-0.5,2.4-0.9,3.6c-0.5,1.5-1.1,3-2.3,4c-1.4,1.1-3.3,1.2-5.1,1.2l-4.9,0.1
	c-0.1,0.2-0.2,0.4-0.3,0.5l6.9-0.2c1.8,0,3.7-0.1,5.1-1.2c1.2-1,1.8-2.5,2.3-4c0.4-1.2,0.8-2.3,0.9-3.6c0.1-2.5-1.3-5-0.8-7.4
	c0.3-1.8,1.7-3.3,3.1-4.5s3-2.2,4.2-3.7c2.1-2.6,2.5-6.2,2.2-9.5c-0.2-2-0.5-4-0.3-5.9c0.1-1.5,0.6-3,1.6-4.2c1.1-1.3,1.7-2.1,1.8-4
	C56.8,53.4,56.7,52.6,56.3,51.9z"/>
<path class="st8" d="M108.2,160.1l-12.7,30.9c-0.7-0.5-1.3-1.2-1.8-1.9c1-3.9,2.1-7.8,4.1-11.2c0.7-1.1,1.5-2.1,2.1-3.2
	c2-3.2,2.4-7.2,4.7-10.1c0.5-0.6,0.5-1.5,0-2.1c-0.3-0.3-0.7-0.7-0.6-1.1c0.1-0.3,0.4-0.6,0.3-0.9c-0.1-0.1-0.2-0.2-0.3-0.3
	c-0.4-0.4-0.3-1-0.4-1.5c-0.1-1.3-0.9-2.5-1.7-3.6c-0.2-0.3-0.4-0.5-0.6-0.7c-0.2-0.1-0.5-0.2-0.7-0.3c-0.7-0.5-0.7-1.5-1-2.3
	c-0.5-1-1.6-1.6-2.4-2.4c-1-1.1-1.2-2.6-2.2-3.5l-0.1-0.2l1-6L108.2,160.1z"/>
</svg>
