<svg version="1.1" id="Layer_1" xmlns="http://www.w3.org/2000/svg" x="0" y="0" viewBox="0 0 353.9 142.1" xml:space="preserve"><style>.st0{fill:#ff5c57}</style><path class="st0" d="M331.7.6h-3.3V10h2.6c7.8 0 12.4 4.1 12.4 11.6 0 7-4.6 11.6-12.4 11.6h-2.6v9.4h2.6c12.9-.2 22.9-7.4 22.9-21.1.1-13-8.7-20.9-22.2-20.9zm-20.1 0h10.3v62.1h-10.3zm-40.1 53.2c-6.1-1.3-9.5-6.3-9.5-14.8V.6h-10.3V39c0 15.1 7.8 23.3 19.8 24.6v-9.8zM287.7.6v38.6c0 8.5-3.7 13.3-9.5 14.6v9.5C290.4 62 298 53.8 298 38.4V.6h-10.3zM41.2 132.1H14.8V79.6H4.3v62h33.6zM0 54.5c5.9 5.2 12.2 8.1 19.2 8.7v-9.5c-5-.8-9.2-3.7-12.9-7L0 54.5zM41.7 7.2C36.8 3 31.4.6 25.2 0v9.5c3.7.8 7.2 2.8 10.5 5.4l6-7.7zm-16 20.1c-10.5-4.1-12.9-6.5-12.9-10.9 0-3.3 2.4-6.1 6.3-7V0C9.2 1.3 2.4 7.8 2.4 17.3v.2c0 10 6.1 14.4 17.9 18.7 9.8 3.7 12 6.1 12 10 0 3.7-2.6 6.8-6.8 7.6v9.4c10-1.1 17.3-7.8 17.3-17.6v-.2c-.3-9-5.5-13.8-17.1-18.1zm37.7-10.8h10.3v46.2H63.4zM47.1.6h43v9.5h-43zm169.4 15.9h10.3v46.2h-10.3zM200.1.6h43v9.5h-43zM172.9 10c7.6 0 12.2 3.7 12.2 10.6v.2c0 6.5-4.3 10.6-12.4 10.6h-3.5v9.2h2.4c14.4 0 24-7.6 24-20.3v-.5c0-5.7-1.9-10.5-5.2-13.8-3.7-3.7-9.5-5.9-16.5-5.9h-22.5v9.4l21.5.5zm13.3 34.7l-10.5 1.9 9.5 16.2h12.1z"/><path class="st0" d="M161.5 52.8V16.3h-10.2v46.5h10.2zm-36.2 35.9h5c6.8 0 10.5 3 10.5 8.3v.2c0 5.7-4.3 8.7-11.1 8.7h-4.3v8.7h3.5c13 0 22.2-5 22.2-19.2v-.2c0-4.3-1.6-7.6-4.1-10.5-3.5-3.5-9.2-5.2-15.9-5.2h-5.7c-.1.1-.1 9.2-.1 9.2zm-16.5-9.1h10.3v62.1h-10.3zm8.1-40.6h-10.5l5.2-14.8-4.8-13.7-19.1 52.3H98l5.3-14.6h16.8zM120.5.2h-10l22.1 62.6h10.6zM73.7 118H63.4l5.3-14.9-5.1-13.7-18.9 52.2h10.2l5.2-14.6h16.8zm3.7-38.9h-10l21.9 62.5h10.9zm72.8 35.6l-8.7 3.5c1.3 1.6 1.9 3.3 1.9 5.4v.2c0 5.7-4.3 8.7-11.6 8.7h-6.5v9.2h6.3c13.3 0 22-6.1 22-17v-.5c.1-4.1-1.2-7.2-3.4-9.5z"/></svg>