<?xml version="1.0" encoding="utf-8"?>
<!-- Generator: Adobe Illustrator 23.0.2, SVG Export Plug-In . SVG Version: 6.00 Build 0)  -->
<svg version="1.1" id="b6c6e6a1-7972-47e7-be8d-743e88a832d8"
	 xmlns="http://www.w3.org/2000/svg" xmlns:xlink="http://www.w3.org/1999/xlink" x="0px" y="0px" viewBox="0 0 288 226.6"
	 style="enable-background:new 0 0 288 226.6;" xml:space="preserve">
<style type="text/css">
	.st0{opacity:0.1;fill:#31B096;enable-background:new    ;}
	.st1{fill:#31B096;}
	.st2{fill:#46455B;}
	.st3{fill:#3F3D56;}
	.st4{opacity:0.1;enable-background:new    ;}
	.st5{fill:#323444;}
	.st6{fill:#FBB3B2;}
	.st7{fill:#5B5583;}
	.st8{fill:#3C354C;}
	.st9{fill:#CBCEDA;}
	.st10{fill:#A8A8A8;}
	.st11{opacity:0.2;enable-background:new    ;}
</style>
<title>teaching</title>
<path class="st0" d="M60.2,38.9h21.3c1.2,0,2.2,1,2.2,2.2v3.3c0,1.2-1,2.2-2.2,2.2H60.2c-1.2,0-2.2-1-2.2-2.2v-3.3
	C57.9,39.9,58.9,38.9,60.2,38.9z"/>
<path class="st0" d="M87.1,46.6h21.3c1.2,0,2.2,1,2.2,2.2v3.3c0,1.2-1,2.2-2.2,2.2H87.1c-1.2,0-2.2-1-2.2-2.2v-3.3
	C84.8,47.6,85.8,46.6,87.1,46.6z"/>
<path class="st0" d="M114,54.4h21.3c1.2,0,2.2,1,2.2,2.2V60c0,1.2-1,2.2-2.2,2.2H114c-1.2,0-2.2-1-2.2-2.2v-3.3
	C111.7,55.4,112.7,54.4,114,54.4z"/>
<path class="st0" d="M60.2,27.2h21.3c1.2,0,2.2,1,2.2,2.2v3.3c0,1.2-1,2.2-2.2,2.2H60.2c-1.2,0-2.2-1-2.2-2.2v-3.3
	C57.9,28.2,58.9,27.2,60.2,27.2z"/>
<path class="st0" d="M87.1,35h21.3c1.2,0,2.2,1,2.2,2.2v3.3c0,1.2-1,2.2-2.2,2.2H87.1c-1.2,0-2.2-1-2.2-2.2v-3.3
	C84.8,36,85.8,35,87.1,35z"/>
<path class="st0" d="M114,42.7h21.3c1.2,0,2.2,1,2.2,2.2v3.3c0,1.2-1,2.2-2.2,2.2H114c-1.2,0-2.2-1-2.2-2.2V45
	C111.7,43.7,112.7,42.7,114,42.7z"/>
<path class="st0" d="M143.9,38.9h21.3c1.2,0,2.2,1,2.2,2.2v3.3c0,1.2-1,2.2-2.2,2.2h-21.3c-1.2,0-2.2-1-2.2-2.2v-3.3
	C141.6,39.9,142.6,38.9,143.9,38.9z"/>
<path class="st0" d="M170.8,46.6H192c1.2,0,2.2,1,2.2,2.2v3.3c0,1.2-1,2.2-2.2,2.2h-21.3c-1.2,0-2.2-1-2.2-2.2v-3.3
	C168.5,47.6,169.5,46.6,170.8,46.6z"/>
<path class="st0" d="M197.7,54.4h21.3c1.2,0,2.2,1,2.2,2.2V60c0,1.2-1,2.2-2.2,2.2h-21.3c-1.2,0-2.2-1-2.2-2.2v-3.3
	C195.4,55.4,196.4,54.4,197.7,54.4z"/>
<path class="st0" d="M143.9,27.2h21.3c1.2,0,2.2,1,2.2,2.2v3.3c0,1.2-1,2.2-2.2,2.2h-21.3c-1.2,0-2.2-1-2.2-2.2v-3.3
	C141.6,28.2,142.6,27.2,143.9,27.2z"/>
<path class="st0" d="M170.8,35H192c1.2,0,2.2,1,2.2,2.2v3.3c0,1.2-1,2.2-2.2,2.2h-21.3c-1.2,0-2.2-1-2.2-2.2v-3.3
	C168.5,36,169.5,35,170.8,35z"/>
<path class="st0" d="M197.7,42.7h21.3c1.2,0,2.2,1,2.2,2.2v3.3c0,1.2-1,2.2-2.2,2.2h-21.3c-1.2,0-2.2-1-2.2-2.2V45
	C195.4,43.7,196.4,42.7,197.7,42.7z"/>
<path class="st0" d="M60.2,11.7h21.3c1.2,0,2.2,1,2.2,2.2v3.3c0,1.2-1,2.2-2.2,2.2H60.2c-1.2,0-2.2-1-2.2-2.2v-3.3
	C57.9,12.7,58.9,11.7,60.2,11.7z"/>
<path class="st0" d="M87.1,19.4h21.3c1.2,0,2.2,1,2.2,2.2V25c0,1.2-1,2.2-2.2,2.2H87.1c-1.2,0-2.2-1-2.2-2.2v-3.3
	C84.8,20.4,85.8,19.4,87.1,19.4z"/>
<path class="st0" d="M114,27.2h21.3c1.2,0,2.2,1,2.2,2.2v3.3c0,1.2-1,2.2-2.2,2.2H114c-1.2,0-2.2-1-2.2-2.2v-3.3
	C111.7,28.2,112.7,27.2,114,27.2z"/>
<path class="st0" d="M60.2,0h21.3c1.2,0,2.2,1,2.2,2.2v3.3c0,1.2-1,2.2-2.2,2.2H60.2c-1.2,0-2.2-1-2.2-2.2V2.2C57.9,1,58.9,0,60.2,0
	z"/>
<path class="st0" d="M87.1,7.8h21.3c1.2,0,2.2,1,2.2,2.2v3.3c0,1.2-1,2.2-2.2,2.2H87.1c-1.2,0-2.2-1-2.2-2.2V10
	C84.8,8.8,85.8,7.8,87.1,7.8z"/>
<path class="st0" d="M114,15.5h21.3c1.2,0,2.2,1,2.2,2.2v3.3c0,1.2-1,2.2-2.2,2.2H114c-1.2,0-2.2-1-2.2-2.2v-3.3
	C111.7,16.5,112.7,15.5,114,15.5z"/>
<path class="st0" d="M143.9,11.7h21.3c1.2,0,2.2,1,2.2,2.2v3.3c0,1.2-1,2.2-2.2,2.2h-21.3c-1.2,0-2.2-1-2.2-2.2v-3.3
	C141.6,12.7,142.6,11.7,143.9,11.7z"/>
<path class="st0" d="M170.8,19.4H192c1.2,0,2.2,1,2.2,2.2V25c0,1.2-1,2.2-2.2,2.2h-21.3c-1.2,0-2.2-1-2.2-2.2v-3.3
	C168.5,20.4,169.5,19.4,170.8,19.4z"/>
<path class="st0" d="M197.7,27.2h21.3c1.2,0,2.2,1,2.2,2.2v3.3c0,1.2-1,2.2-2.2,2.2h-21.3c-1.2,0-2.2-1-2.2-2.2v-3.3
	C195.4,28.2,196.4,27.2,197.7,27.2z"/>
<path class="st0" d="M143.9,0h21.3c1.2,0,2.2,1,2.2,2.2v3.3c0,1.2-1,2.2-2.2,2.2h-21.3c-1.2,0-2.2-1-2.2-2.2V2.2
	C141.6,1,142.6,0,143.9,0z"/>
<path class="st0" d="M170.8,7.8H192c1.2,0,2.2,1,2.2,2.2v3.3c0,1.2-1,2.2-2.2,2.2h-21.3c-1.2,0-2.2-1-2.2-2.2V10
	C168.5,8.8,169.5,7.8,170.8,7.8z"/>
<path class="st0" d="M197.7,15.5h21.3c1.2,0,2.2,1,2.2,2.2v3.3c0,1.2-1,2.2-2.2,2.2h-21.3c-1.2,0-2.2-1-2.2-2.2v-3.3
	C195.4,16.5,196.4,15.5,197.7,15.5z"/>
<path class="st0" d="M60.2,177.2h21.3c1.2,0,2.2,1,2.2,2.2v3.3c0,1.2-1,2.2-2.2,2.2H60.2c-1.2,0-2.2-1-2.2-2.2v-3.3
	C57.9,178.2,58.9,177.2,60.2,177.2z"/>
<path class="st0" d="M87.1,185h21.3c1.2,0,2.2,1,2.2,2.2v3.3c0,1.2-1,2.2-2.2,2.2H87.1c-1.2,0-2.2-1-2.2-2.2v-3.3
	C84.8,186,85.8,185,87.1,185z"/>
<path class="st0" d="M114,192.8h21.3c1.2,0,2.2,1,2.2,2.2v3.3c0,1.2-1,2.2-2.2,2.2H114c-1.2,0-2.2-1-2.2-2.2V195
	C111.7,193.8,112.7,192.8,114,192.8z"/>
<path class="st0" d="M60.2,165.6h21.3c1.2,0,2.2,1,2.2,2.2v3.3c0,1.2-1,2.2-2.2,2.2H60.2c-1.2,0-2.2-1-2.2-2.2v-3.3
	C57.9,166.6,58.9,165.6,60.2,165.6z"/>
<path class="st0" d="M87.1,173.4h21.3c1.2,0,2.2,1,2.2,2.2v3.3c0,1.2-1,2.2-2.2,2.2H87.1c-1.2,0-2.2-1-2.2-2.2v-3.3
	C84.8,174.4,85.8,173.4,87.1,173.4z"/>
<path class="st0" d="M114,181.1h21.3c1.2,0,2.2,1,2.2,2.2v3.3c0,1.2-1,2.2-2.2,2.2H114c-1.2,0-2.2-1-2.2-2.2v-3.3
	C111.7,182.1,112.7,181.1,114,181.1z"/>
<path class="st0" d="M143.9,177.2h21.3c1.2,0,2.2,1,2.2,2.2v3.3c0,1.2-1,2.2-2.2,2.2h-21.3c-1.2,0-2.2-1-2.2-2.2v-3.3
	C141.6,178.2,142.6,177.2,143.9,177.2z"/>
<path class="st0" d="M170.8,185H192c1.2,0,2.2,1,2.2,2.2v3.3c0,1.2-1,2.2-2.2,2.2h-21.3c-1.2,0-2.2-1-2.2-2.2v-3.3
	C168.5,186,169.5,185,170.8,185z"/>
<path class="st0" d="M197.7,192.8h21.3c1.2,0,2.2,1,2.2,2.2v3.3c0,1.2-1,2.2-2.2,2.2h-21.3c-1.2,0-2.2-1-2.2-2.2V195
	C195.4,193.8,196.4,192.8,197.7,192.8z"/>
<path class="st0" d="M143.9,165.6h21.3c1.2,0,2.2,1,2.2,2.2v3.3c0,1.2-1,2.2-2.2,2.2h-21.3c-1.2,0-2.2-1-2.2-2.2v-3.3
	C141.6,166.6,142.6,165.6,143.9,165.6z"/>
<path class="st0" d="M170.8,173.4H192c1.2,0,2.2,1,2.2,2.2v3.3c0,1.2-1,2.2-2.2,2.2h-21.3c-1.2,0-2.2-1-2.2-2.2v-3.3
	C168.5,174.4,169.5,173.4,170.8,173.4z"/>
<path class="st0" d="M197.7,181.1h21.3c1.2,0,2.2,1,2.2,2.2v3.3c0,1.2-1,2.2-2.2,2.2h-21.3c-1.2,0-2.2-1-2.2-2.2v-3.3
	C195.4,182.1,196.4,181.1,197.7,181.1z"/>
<path class="st0" d="M60.2,150h21.3c1.2,0,2.2,1,2.2,2.2v3.3c0,1.2-1,2.2-2.2,2.2H60.2c-1.2,0-2.2-1-2.2-2.2v-3.3
	C57.9,151,58.9,150,60.2,150z"/>
<path class="st0" d="M87.1,157.8h21.3c1.2,0,2.2,1,2.2,2.2v3.3c0,1.2-1,2.2-2.2,2.2H87.1c-1.2,0-2.2-1-2.2-2.2V160
	C84.8,158.8,85.8,157.8,87.1,157.8z"/>
<path class="st0" d="M114,165.6h21.3c1.2,0,2.2,1,2.2,2.2v3.3c0,1.2-1,2.2-2.2,2.2H114c-1.2,0-2.2-1-2.2-2.2v-3.3
	C111.7,166.6,112.7,165.6,114,165.6z"/>
<path class="st0" d="M60.2,138.4h21.3c1.2,0,2.2,1,2.2,2.2v3.3c0,1.2-1,2.2-2.2,2.2H60.2c-1.2,0-2.2-1-2.2-2.2v-3.3
	C57.9,139.4,58.9,138.4,60.2,138.4z"/>
<path class="st0" d="M87.1,146.2h21.3c1.2,0,2.2,1,2.2,2.2v3.3c0,1.2-1,2.2-2.2,2.2H87.1c-1.2,0-2.2-1-2.2-2.2v-3.3
	C84.8,147.2,85.8,146.2,87.1,146.2z"/>
<path class="st0" d="M114,153.9h21.3c1.2,0,2.2,1,2.2,2.2v3.3c0,1.2-1,2.2-2.2,2.2H114c-1.2,0-2.2-1-2.2-2.2v-3.3
	C111.7,154.9,112.7,153.9,114,153.9z"/>
<path class="st0" d="M143.9,150h21.3c1.2,0,2.2,1,2.2,2.2v3.3c0,1.2-1,2.2-2.2,2.2h-21.3c-1.2,0-2.2-1-2.2-2.2v-3.3
	C141.6,151,142.6,150,143.9,150z"/>
<path class="st0" d="M170.8,157.8H192c1.2,0,2.2,1,2.2,2.2v3.3c0,1.2-1,2.2-2.2,2.2h-21.3c-1.2,0-2.2-1-2.2-2.2V160
	C168.5,158.8,169.5,157.8,170.8,157.8z"/>
<path class="st0" d="M197.7,165.6h21.3c1.2,0,2.2,1,2.2,2.2v3.3c0,1.2-1,2.2-2.2,2.2h-21.3c-1.2,0-2.2-1-2.2-2.2v-3.3
	C195.4,166.6,196.4,165.6,197.7,165.6z"/>
<path class="st0" d="M143.9,138.4h21.3c1.2,0,2.2,1,2.2,2.2v3.3c0,1.2-1,2.2-2.2,2.2h-21.3c-1.2,0-2.2-1-2.2-2.2v-3.3
	C141.6,139.4,142.6,138.4,143.9,138.4z"/>
<path class="st0" d="M170.8,146.2H192c1.2,0,2.2,1,2.2,2.2v3.3c0,1.2-1,2.2-2.2,2.2h-21.3c-1.2,0-2.2-1-2.2-2.2v-3.3
	C168.5,147.2,169.5,146.2,170.8,146.2z"/>
<path class="st0" d="M197.7,153.9h21.3c1.2,0,2.2,1,2.2,2.2v3.3c0,1.2-1,2.2-2.2,2.2h-21.3c-1.2,0-2.2-1-2.2-2.2v-3.3
	C195.4,154.9,196.4,153.9,197.7,153.9z"/>
<ellipse class="st0" cx="144.2" cy="215.8" rx="131.1" ry="10.8"/>
<path class="st1" d="M25.3,55.8c12.4,5.4,19.5,16.4,19.5,16.4s-12.9,2.4-25.3-3S0,52.9,0,52.9S12.9,50.5,25.3,55.8z"/>
<path class="st1" d="M63.2,35.3C67.1,29,73.6,26,73.6,26s0.3,7.2-3.5,13.4c-3.8,6.3-10.3,9.2-10.3,9.2S59.4,41.5,63.2,35.3z"/>
<path class="st2" d="M35.1,42c2.7,9.8,10.3,16.2,10.3,16.2s3.1-9.4,0.4-19.2C43,29.2,35.5,22.8,35.5,22.8S32.4,32.2,35.1,42z"/>
<path class="st3" d="M37.7,41.5h213.6c1.2,0,2.2,1,2.2,2.2v104.8c0,1.2-1,2.2-2.2,2.2H37.7c-1.2,0-2.2-1-2.2-2.2V43.7
	C35.5,42.5,36.5,41.5,37.7,41.5z"/>
<path class="st4" d="M35.5,144.1h217.9l0,0v4.4c0,1.2-1,2.2-2.2,2.2l0,0H37.7c-1.2,0-2.2-1-2.2-2.2V144.1L35.5,144.1z"/>
<path class="st1" d="M57.5,136h14.6c0.4,0,0.7,0.3,0.7,0.7v6.6c0,0.4-0.3,0.7-0.7,0.7H57.5c-0.4,0-0.7-0.3-0.7-0.7v-6.6
	C56.8,136.3,57.1,136,57.5,136z"/>
<path class="st1" d="M78,142.9h9.9c0.3,0,0.6,0.3,0.6,0.6l0,0c0,0.3-0.3,0.6-0.6,0.6H78c-0.3,0-0.6-0.3-0.6-0.6l0,0
	C77.4,143.1,77.6,142.9,78,142.9z"/>
<path class="st1" d="M67.6,62.9c7.9,1.5,15.9,0,23.8-1l23.9-3c1-0.1,2.4-0.7,2.9,0.5c0.3,0.7,0.1,2.1,0.1,2.9c0.1,2.1,0.1,4.2,0,6.3
	c-0.1,4-0.4,8-0.8,12c-0.7,7.8-1.8,15.5-2.3,23.4c-0.3,4-0.4,8-0.3,12c0,1,0.1,1.9,0.1,2.8c0.1,1.1,0.5,2.6-0.6,3.3
	c-0.7,0.4-2,0.4-2.7,0.5c-1.2,0.2-2.4,0.3-3.6,0.5c-8,0.8-16.2,0.5-24.2,0.4l-24.4-0.1l-5.9,0c-0.5,0-2.5,0.3-2.8-0.3
	c-0.1-0.3,0.2-1.5,0.3-1.9c0.1-0.6,0.2-1.1,0.3-1.7c0.7-3.9,1.5-7.8,2.3-11.7c1.8-8.4,3.6-16.8,4.3-25.3c0.4-4.3,0.1-8.6,0.6-12.9
	c0.2-2,0.5-6.4,3.1-6.6c2.2-0.1,4.5,0,6.8,0c0.2,0,0.4-0.2,0.4-0.4c0-0.2-0.2-0.4-0.4-0.4c-2.1,0-4.2-0.1-6.4,0
	c-1.4,0-2.4,0.4-3.1,1.7c-1.7,3.3-1.5,7.8-1.6,11.4c-0.1,8.7-1.5,17.2-3.2,25.7c-0.9,4.3-1.8,8.6-2.7,12.8c-0.4,2-0.8,4.1-1.2,6.2
	c-0.2,1-1,3.1-0.3,4s3,0.4,4.1,0.4l7.1,0l13.7,0.1c8.8,0.1,17.7,0.3,26.5,0c4.2-0.1,8.7-0.3,12.8-1.3c1.2-0.3,1.8-0.9,1.9-2.2
	c0.1-2-0.3-4.1-0.3-6.1c-0.3-17.4,3.8-34.5,3.4-51.9c0-1.2,0.4-4.2-0.9-4.9c-0.6-0.3-1.3-0.1-1.9-0.1c-1.2,0.1-2.3,0.3-3.5,0.4
	l-15.1,1.9c-4.8,0.6-9.7,1.2-14.5,1.8c-5.1,0.6-10.3,1-15.4,0C67.2,61.9,67,62.7,67.6,62.9L67.6,62.9z"/>
<path class="st1" d="M58,73.4l59.7-2.9c0.6,0,0.6-0.9,0-0.9L58,72.6C57.5,72.6,57.5,73.5,58,73.4z"/>
<path class="st1" d="M76.4,66.1c-0.6,0.6-0.5,1.5,0.1,2.1c0.1,0.1,0.3,0.2,0.5,0.3c0.8,0.4,1.7,0.1,2.5-0.1c1.2-0.3,2.4-0.6,3.6-0.8
	c2.7-0.5,5.4-0.7,8.1-0.8c1.2,0,2.5,0,3.7,0.1c0.9,0,1.9,0.1,2.6-0.4c0.9-0.6,1.1-1.9,0.3-2.6c-1.2-1.1-3.8-0.5-5.2-0.3
	c-5,0.4-10,1.2-14.9,2.2c-0.6,0.1-0.3,1,0.2,0.9c3.2-0.7,6.5-1.3,9.8-1.7c1.6-0.2,3.2-0.4,4.9-0.5c0.8-0.1,1.5-0.1,2.3-0.2
	c0.3,0,0.6-0.1,0.9,0c0.9,0,1.1-0.1,0.5,1c-0.5,1-0.3,0.9-1.2,0.9c-0.4,0-0.7,0-1.1-0.1c-0.8,0-1.5,0-2.3-0.1
	c-1.6,0-3.2,0.1-4.8,0.2c-1.4,0.1-2.7,0.3-4.1,0.6c-0.8,0.1-1.7,0.3-2.5,0.5c-0.4,0.1-0.7,0.2-1.1,0.3c-0.2,0-0.4,0.1-0.5,0.1
	c-0.7,0.2-1.2-0.1-1.7-0.9C77.5,66.3,76.8,65.7,76.4,66.1L76.4,66.1z"/>
<path class="st1" d="M87.3,78.8c-4.3-0.2-9,1-11.8,4.5c-2.2,2.7-3.5,7.4-1.1,10.5c2.5,3.3,8.1,2.7,11.5,1.3c3.6-1.5,7.4-4.6,8.5-8.4
	c1.3-4.8-3-8.5-7.5-8.5c-0.6,0-0.6,0.9,0,0.9c2.6,0,5.1,1.1,6.3,3.5c1.3,2.5,0.2,5.2-1.5,7.2c-2.7,3.2-6.9,5.6-11.1,5.6
	c-2.6,0-5.4-0.9-6.2-3.6c-0.7-2.2-0.2-4.6,1-6.5c2.5-4.2,7.5-5.6,12-5.4C87.9,79.7,87.9,78.8,87.3,78.8L87.3,78.8z"/>
<path class="st1" d="M83,85.5c-0.6-0.2-1.3,0.1-1.5,0.7c-0.1,0.2-0.1,0.3-0.1,0.5c0.1,1.2,1.4,1.5,2.3,1.4c0.8-0.1,1.8-0.4,1.5-1.4
	c-0.1-0.4-0.4-0.7-0.7-0.8c-0.3-0.1-0.6-0.1-0.8-0.1c-0.1,0-1.1,0.4-0.7-0.1l-0.7-0.1c0.2,0.2,0.2,0.4,0.2,0.6
	c0,0.2,0.2,0.4,0.5,0.4c0.1,0,0.1,0,0.2-0.1c0.3-0.1,0.7,0,0.8,0.3c0.1,0.1,0.1,0.3,0,0.4c-0.1,0.2,0.1,0.5,0.3,0.5
	c0.2,0,0.4,0,0.5-0.2c0.3-0.5,0.7-1.6,0.2-2.2c-0.3-0.4-0.9-0.3-1.2,0c-0.2,0.2-0.4,0.3-0.6,0.5c-0.4,0.3-0.6,0.5-0.5-0.1
	c0.2-1.1,1.3-2,2.3-2.4l-0.7-0.5c-0.3,1.3-1,2.5-1.8,3.5l0.8,0.3c0-0.8,0.4-1.6,1.2-1.9H84l0.2,0.4c-0.1,0.6,0.8,0.8,0.9,0.2
	c0.1-0.7-0.4-1.7-1.2-1.3c-1,0.4-1.6,1.6-1.5,2.7c0,0.4,0.5,0.6,0.8,0.3c1-1.2,1.6-2.5,2-3.9c0.1-0.2-0.1-0.5-0.3-0.5
	c-0.1,0-0.2,0-0.3,0c-0.9,0.4-1.7,1.1-2.2,1.9c-0.4,0.6-0.8,1.5-0.5,2.2c0.3,0.5,0.8,0.6,1.3,0.4c0,0,0,0,0,0
	c0.3-0.2,0.5-0.4,0.8-0.6c0.1-0.1,0.2-0.3,0.4-0.3c0.1-0.1,0.1,0,0,0.2c0,0.3-0.1,0.6-0.3,0.9l0.8,0.3c0.2-0.8-0.3-1.6-1.1-1.8
	c-0.4-0.1-0.7-0.1-1.1,0.1l0.7,0.4c0-0.4-0.1-0.8-0.3-1.1c-0.1-0.2-0.4-0.3-0.6-0.2c0,0-0.1,0-0.1,0.1c-0.5,0.5-0.5,1.3,0,1.7
	c0.4,0.3,0.6,0,1.1-0.1c1.6-0.2,0.7,0.5,0.1,0.5c-0.3,0-0.5,0-0.8-0.1c-0.6-0.2-0.7-0.5-0.1-0.8C83.3,86.5,83.5,85.7,83,85.5
	L83,85.5z"/>
<path class="st1" d="M82.3,87.1c0.4,1.2-1.2,1.6-1.9,2c-0.5,0.3-0.9,0.7-1.3,1.1c-0.8,1-1,2.3-1.3,3.5c-0.1,0.6,0.8,0.8,0.9,0.2
	c0.1-0.9,0.4-1.8,0.8-2.6c0.5-1.1,1.3-1.4,2.3-2c1-0.5,1.7-1.4,1.4-2.6C82.9,86.3,82.1,86.5,82.3,87.1L82.3,87.1z"/>
<path class="st1" d="M83.7,86.5c-0.4,0.1-0.8,0.4-0.7,0.9c0,0.4,0.2,0.6,0.4,0.9c0.4,0.6,0.7,1.2,0.9,1.9c0.1,0.6,0.3,1.8-0.1,2.4
	c-0.6,1.1-1.7,0.9-2.7,0.9c-0.9,0-1.6,0.3-1.6-1c0-0.7,0.5-1.4,0.9-2L80,90.4c0.2,0.9,0.3,1.8,0.3,2.8c0,0.4,0.6,0.6,0.8,0.2
	c0.5-1,0.9-2.1,1.1-3.2l-0.9-0.1l0.2,2.3c0,0.2,0.2,0.4,0.5,0.4c0.2,0,0.3-0.1,0.4-0.2c0.1-0.1,0.2-0.3,0.2-0.4
	c0-0.1-0.2-1.1-0.4-0.8l0.9,0.1l0.1-2.2l-0.9,0.1c0.2,0.6,0.2,1.3,0.2,1.9c-0.1,0.5,0.8,0.6,0.9,0.1l0.6-2.9l-0.8,0.1
	c0.2,0.4,0.2,0.9,0.2,1.3c-0.1,0.6,0.8,0.6,0.9,0c0.1-0.6,0-1.2-0.3-1.7c-0.1-0.2-0.4-0.3-0.6-0.2c-0.1,0.1-0.2,0.2-0.2,0.3
	l-0.6,2.9l0.9,0.1c0.1-0.7,0-1.4-0.2-2.1c-0.1-0.2-0.3-0.4-0.6-0.3c-0.2,0.1-0.3,0.2-0.3,0.4l-0.1,2.2c0,0.5,0.7,0.6,0.9,0.1l0-0.1
	c0-0.2,0-0.3-0.1-0.4c-0.9-1-1.1,0.6-1.4,1l0.8,0.2l-0.2-2.3c0-0.5-0.8-0.6-0.9-0.1c-0.3,1-0.6,2-1,2.9l0.8,0.2c0-1-0.1-2-0.3-3
	c-0.1-0.4-0.6-0.4-0.8-0.1c-0.6,0.9-1.6,2.7-0.8,3.8c0.7,0.9,2.9,0.5,3.8,0.5c1.5-0.1,2-1,2.2-2.4c0.1-0.7,0-1.3-0.1-2
	c-0.1-0.4-0.9-2.6-1.1-2.5C84.6,87.3,84.3,86.4,83.7,86.5L83.7,86.5z"/>
<path class="st1" d="M82,88.5l-2.4,3.2l0.8,0.5l1.8-2.6l-0.8-0.3l-0.9,3.4c-0.1,0.2,0.1,0.5,0.3,0.5c0.2,0,0.4,0,0.5-0.2
	c0.4-0.7,0.9-1.3,1.4-1.9l-0.7-0.4c-0.2,0.8-0.6,1.5-1.1,2.1l0.8,0.4c0-0.4,0.2-0.8,0.3-1.2c0.2-0.5-0.5-1-0.8-0.5
	c-0.3,0.5-0.5,0.9-0.9,1.4L81,93l0.2-0.9L80.3,92l0.1,0.7c0.1,0.2,0.3,0.4,0.6,0.3c0.1,0,0.1-0.1,0.2-0.1c0.8-0.8,1.4-1.7,1.8-2.7
	h-0.8c0.2,0.4,0.3,0.8,0.4,1.2c0.1,0.5,0.8,0.3,0.9-0.1c0.1-1,0.2-2,0.2-3h-0.9v1.9c0,0.5,0.8,0.6,0.9,0.1c0.1-0.5,0.2-0.9,0.4-1.3
	h-0.8c0.2,0.3,0.3,0.7,0.3,1c0,0.2,0.2,0.4,0.4,0.4c0.2,0,0.4-0.2,0.4-0.4l0.1-0.6h-0.9c0.1,0.5,0.4,3.5-0.8,3.2c-0.2,0-0.3,0-0.2,0
	l0.3-0.6l0.6-1.3L83,90.5c0.1,0.6,0.1,1.5-0.3,2c-0.3,0.4-1.2,0.6-1.7,0.3c-0.3-0.2-0.6-0.5-0.8-0.8l-0.6,0.6
	c0.5,0.4,1.3,1.2,1.9,1.3c0.5,0,0.9-0.4,1.2-0.7c1-1,1.5-2.4,1.5-3.8c0-0.2-0.2-0.4-0.4-0.4s-0.4,0.2-0.4,0.4v1
	c0,0.2,0.2,0.4,0.4,0.4s0.4-0.2,0.4-0.4V88c0-0.2-0.2-0.4-0.4-0.4s-0.4,0.2-0.4,0.4c0,0.6-0.1,1.2-0.2,1.8l0.9,0.1
	C84,89.2,84,88.4,84,87.7c0-0.2-0.2-0.4-0.5-0.4c-0.2,0-0.4,0.1-0.4,0.3c-0.1,0.6-0.3,1.1-0.5,1.7l0.8-0.1l-0.1-0.2
	c0-0.6-0.9-0.6-0.9,0c0,0.2,0.1,0.5,0.2,0.7c0.2,0.4,0.7,0.2,0.8-0.1c0.2-0.6,0.3-1.1,0.5-1.7l-0.9-0.1c0,0.7,0,1.4,0.1,2.1
	c0,0.5,0.8,0.7,0.9,0.1c0.1-0.7,0.2-1.4,0.2-2h-0.9v2.5h0.9v-1h-0.9c0.1,1.1-0.3,2.2-1.1,3.1c-0.1,0.1-0.2,0.3-0.4,0.4
	c-0.2,0.2-0.4,0.2-0.6-0.1c-0.4-0.2-0.9-0.6-1.2-0.9c-0.4-0.3-0.9,0.3-0.6,0.6c0.7,0.9,1.7,1.9,3,1.5c1.3-0.5,1.5-2.3,1.4-3.5
	c0-0.4-0.6-0.7-0.8-0.2c-0.3,0.6-0.6,1.3-0.9,1.9c-0.1,0.2-0.3,0.5-0.3,0.8c0.1,0.7,0.9,0.6,1.4,0.5c1.9-0.1,1.6-2.9,1.4-4.3
	c-0.1-0.5-0.7-0.4-0.9,0c-0.1,0.3-0.1,0.6-0.1,0.8h0.9c0-0.5-0.2-1-0.4-1.5c-0.1-0.2-0.4-0.3-0.6-0.2c-0.1,0-0.1,0.1-0.2,0.2
	c-0.3,0.5-0.4,1-0.5,1.5l0.9,0.1v-1.9c0-0.2-0.2-0.4-0.4-0.4c-0.2,0-0.4,0.2-0.4,0.4c0,1-0.1,2-0.2,3l0.9-0.1
	c-0.1-0.5-0.3-1-0.5-1.4c-0.1-0.2-0.4-0.3-0.6-0.2c-0.1,0-0.1,0.1-0.2,0.2c-0.4,0.9-1,1.8-1.7,2.5l0.8,0.2l-0.1-0.7
	c-0.1-0.4-0.6-0.4-0.8-0.1c-0.3,0.5-0.4,1-0.3,1.5c0.1,0.4,0.6,0.4,0.8,0.1c0.3-0.4,0.6-0.9,0.9-1.4L81,91.5
	c-0.2,0.4-0.3,0.9-0.4,1.4c-0.1,0.4,0.4,0.8,0.8,0.4c0.6-0.7,1.1-1.5,1.4-2.5c0.1-0.4-0.5-0.8-0.8-0.4c-0.5,0.7-1,1.4-1.5,2.1
	l0.8,0.3l0.9-3.4c0.1-0.2-0.1-0.5-0.3-0.5c-0.2,0-0.4,0-0.5,0.2l-1.8,2.6c-0.3,0.5,0.4,0.9,0.8,0.5l2.4-3.2
	C83.2,88.5,82.4,88.1,82,88.5L82,88.5z"/>
<path class="st1" d="M120.1,99.3c3.6-2.2,6.4-5.5,9.6-8.2c3.4-3,7-5.7,10.8-8.4c7.2-5.1,14.8-9.6,22.4-14.2c0.2-0.1,0.3-0.4,0.1-0.6
	c-0.1-0.2-0.4-0.3-0.6-0.2c-7.6,4.5-15.2,9.1-22.4,14.2c-3.4,2.4-6.7,4.9-9.9,7.6c-3.5,2.9-6.6,6.6-10.5,8.9
	C119.2,98.8,119.6,99.6,120.1,99.3L120.1,99.3z"/>
<path class="st1" d="M174.4,54.7c-3.9,0.4-8.1,1.4-10.5,4.8c-2.1,2.9-2,8-0.1,11c2.2,3.4,6.7,3.5,10.2,2.4c3.5-1.1,7.1-3,7.1-7.2
	c0-2.2-0.8-4.6-1.7-6.6c-0.8-1.8-2.1-3.3-4.2-3.1c-0.6,0.1-0.6,1,0,0.9c2.8-0.3,3.7,3,4.3,5.1c0.6,1.9,1.2,4.2,0.2,6.2
	c-0.9,1.9-3.2,2.9-5.1,3.6c-2.1,0.8-4.4,1.2-6.6,0.6c-4.3-1.2-5.5-6.7-4.3-10.6c1.4-4.5,6.5-5.8,10.7-6.2
	C175,55.5,175,54.6,174.4,54.7L174.4,54.7z"/>
<path class="st1" d="M180.4,89.3c-3.9,0.4-8.1,1.4-10.5,4.8c-2.1,2.9-2,8-0.1,11c2.2,3.4,6.7,3.5,10.2,2.4c3.5-1.1,7.1-3,7.1-7.2
	c0-2.2-0.8-4.6-1.7-6.6c-0.8-1.8-2.1-3.3-4.2-3.1c-0.6,0.1-0.6,1,0,0.9c2.8-0.3,3.7,3,4.3,5.1c0.6,1.9,1.2,4.2,0.2,6.2
	c-0.9,1.9-3.2,2.9-5.1,3.6c-2.1,0.8-4.4,1.2-6.6,0.6c-4.3-1.2-5.5-6.7-4.3-10.6c1.4-4.5,6.5-5.8,10.7-6.2
	C181,90.2,181,89.3,180.4,89.3L180.4,89.3z"/>
<path class="st1" d="M168.6,63.4l2.8,3.2c0.2,0.2,0.5,0.2,0.6,0c0.1-0.1,0.1-0.1,0.1-0.2c0.6-1.6,0.5-3.2,0.6-4.9
	c0.2-1.7,0.6-3.4,1.3-5c1.4-3.2,3.7-5.9,6.7-7.7c0.5-0.3,0-1.1-0.5-0.8c-2.9,1.8-5.3,4.3-6.8,7.4c-0.7,1.5-1.2,3.1-1.5,4.7
	c-0.3,1.9,0,4-0.7,5.8L172,66l-2.8-3.2C168.8,62.3,168.2,63,168.6,63.4L168.6,63.4z"/>
<path class="st1" d="M121.6,102.8c15.4-0.5,30.8-0.6,46.3-0.3c0.6,0,0.6-0.9,0-0.9c-15.4-0.3-30.8-0.2-46.3,0.3
	C121,101.9,121,102.8,121.6,102.8z"/>
<path class="st1" d="M171.1,93.9c5.3,2.1,10.3,4.6,15.1,7.6c0.5,0.3,0.9-0.5,0.5-0.8c-4.9-3-10-5.6-15.3-7.7
	C170.8,92.9,170.6,93.7,171.1,93.9L171.1,93.9z"/>
<path class="st1" d="M180.6,89.9c-5.3,6.2-8.4,14.1-8.8,22.3c0,0.6,0.9,0.6,0.9,0c0.3-8,3.3-15.6,8.5-21.6
	C181.7,90.1,181,89.4,180.6,89.9L180.6,89.9z"/>
<path class="st1" d="M61.1,99.5l33.4-0.4l3.8-0.1c0.7,0,1.4,0,2.1,0c1,0,1.6,0.8,1.6,1.8c0,2.1-1.4,2-3.1,2.1l-4.2,0.2l-16.9,0.7
	c-3,0.1-6.1,0.3-9.1,0.4c-2.7,0.1-7.9-0.8-6.7-4.8c0.2-0.6-0.7-0.8-0.9-0.2c-0.6,2,0.5,3.9,2.2,5c2.4,1.5,5.6,1,8.3,0.8l20.8-0.9
	l5-0.2c1.3-0.1,3.1,0.2,4.3-0.4c1.4-0.7,1.6-3.5,0.8-4.7c-0.5-0.6-1.1-0.7-1.8-0.7c-1.9-0.1-3.8,0.1-5.6,0.1l-10.3,0.1l-23.6,0.3
	C60.5,98.6,60.5,99.5,61.1,99.5L61.1,99.5z"/>
<g id="b30eccf6-7cfe-48df-9caa-415a128bd568">
	<path class="st5" d="M196.1,209.4c-0.8,0.5-1.6,0.7-2.4,1.2c-0.8,0.4-1.5,1-1.8,1.9c-0.1,0.3-0.1,0.6,0,0.8
		c0.2,0.3,0.5,0.5,0.8,0.7c3.2,1.4,6.8,1.5,10,0.1c0.6-0.3,1.1-0.5,1.7-0.7c0.7-0.1,1.5-0.2,2.2-0.2c0.8,0,1.6-0.1,2.3-0.3
		c0.4,0,0.8-0.2,1.1-0.4c0.3-0.3,0.4-0.7,0.5-1.1c0.4-2.3-0.2-4.7-1.5-6.7c-0.2-0.3-0.4-0.5-0.7-0.7c-0.3-0.2-0.7-0.3-1-0.3
		c-1.5-0.2-3.1-0.5-4.6-0.6c-1.1,0-1.6,0.5-2.4,1.2C198.9,205.9,198,208.2,196.1,209.4z"/>
	<path class="st5" d="M218.1,209.2c0,1.5,0.2,3,1.1,4.2c0.4,0.5,0.9,0.9,1.5,1.3c1.9,1.2,4.4,1.6,6.3,0.6c0.3-0.1,0.6-0.4,0.8-0.7
		c0.3-0.5,0.1-1.2,0-1.7l-2.9-9.9c-1.9,0.3-4.6,0.5-6.2,1.4C217.5,205,218.1,207.8,218.1,209.2z"/>
	<path class="st6" d="M194.4,148.1c-0.2,0.5-0.8,0.8-1.1,1.3c-0.4,0.5-0.4,1.3-0.2,1.9c0.2,1,0.6,1.9,1.3,2.6
		c0.7,0.7,1.7,1.1,2.7,0.9c1-0.2,1.8-1,1.8-2c0-0.4-0.1-0.9-0.3-1.3l-2-5.9c0-0.1-0.1-0.2-0.1-0.2c-0.1,0-0.2,0-0.2,0
		c-0.5,0.2-1.4,0.5-1.7,1C194.2,146.9,194.6,147.5,194.4,148.1z"/>
	<path class="st5" d="M193.4,147.8c0.7-0.1,1.4-0.6,2.1-0.8s1.6-0.4,2.2,0.1c0.2,0.1,0.3,0.3,0.5,0.3c-0.3-1.5-0.7-2.9-1.3-4.3
		c0-0.1-0.1-0.1-0.1-0.2c-0.1,0-0.2,0-0.3,0l-2,0.5c-0.7,0.2-0.8,0.1-0.8,0.9C193.8,144.6,193.9,147.8,193.4,147.8z"/>
	<path class="st7" d="M193.2,105.2c-0.3,0.5-0.3,1-0.3,1.6c0,2.6,0,5.3,0.4,7.9c0.1,0.6,0.2,1.3,0.3,1.9c0.1,0.9,0.1,1.8,0,2.7
		l-0.3,11.5c0,1.4-0.1,2.9-1,4c-0.3,0.4-0.4,0.8-0.3,1.3c0.2,2.9,0.7,5.8,1.2,8.6c1.6-0.7,3.3-0.6,4.8,0.2c1.5-4.7,2.3-9.7,2.5-14.6
		c0.1-2.4,0-4.9,0.3-7.3c0.6-4.1,0.4-8.2-0.1-12.3c-0.1-1.3-0.5-2.6-1.3-3.6c-0.8-0.9-1.8-1.5-3-1.7
		C195.4,104.9,194.4,105.2,193.2,105.2z"/>
	<path class="st4" d="M193.2,105.2c-0.3,0.5-0.3,1-0.3,1.6c0,2.6,0,5.3,0.4,7.9c0.1,0.6,0.2,1.3,0.3,1.9c0.1,0.9,0.1,1.8,0,2.7
		l-0.3,11.5c0,1.4-0.1,2.9-1,4c-0.3,0.4-0.4,0.8-0.3,1.3c0.2,2.9,0.7,5.8,1.2,8.6c1.6-0.7,3.3-0.6,4.8,0.2c1.5-4.7,2.3-9.7,2.5-14.6
		c0.1-2.4,0-4.9,0.3-7.3c0.6-4.1,0.4-8.2-0.1-12.3c-0.1-1.3-0.5-2.6-1.3-3.6c-0.8-0.9-1.8-1.5-3-1.7
		C195.4,104.9,194.4,105.2,193.2,105.2z"/>
	<path class="st8" d="M196.9,138.6c-2,10.3-0.9,20.9,3.1,30.6c0.4,0.7,0.6,1.5,0.7,2.3c0.2,1.5-0.5,2.9-0.9,4.3
		c-0.9,3.2-0.4,6.7,0.2,10c0.2,1.4,0.5,2.7,0.7,4.1c0.2,1.3,0.5,2.8-0.1,4c0.5,2.2,0.9,4.4,1.4,6.7c0.1,0.2,0.1,0.4,0.1,0.5
		c-0.1,0.3-0.3,0.5-0.5,0.7c-0.8,0.8-1.1,2-0.8,3.1c1.4-1,3.3-0.6,4.8,0c1.6,0.6,3.1,1.5,4.8,1.5c-0.2-2-0.5-4.1,0.2-5.9
		c0.4-1.1,1.2-2.1,1.2-3.2c0-1-0.7-2-0.8-3c-0.1-0.6,0-1.3,0.1-1.9c0.4-3.7-0.1-7.4-0.5-11c-0.1-0.7-0.2-1.4-0.5-2.1
		c-0.2-0.4-0.5-0.8-0.5-1.3c0-0.6,0.5-1,0.6-1.5c0.3-1-0.3-2.3,0.6-2.9c2.2-1.6,1.3-5.4,1.3-8.1c0-2.3-0.1-4.7-0.3-7
		c1.4,3.9,1.9,8,1.6,12.1c-0.1,1.3-0.3,2.7,0.3,4c0.4,1,1.2,1.7,1.4,2.7c0.1,0.6,0,1.3,0.1,1.9s0.2,1.3,0.8,1.6c0,2.9,0.3,6,0.3,8.8
		c0,1.5,0.1,2.9,0.4,4.4c0.1,0.5,0.2,0.9,0.2,1.4c-0.1,0.6-0.2,1.2-0.5,1.7c-1.1,3.1-0.5,6.6,1.5,9.2c0.7-1.3,2.2-1.9,3.6-2
		c1.4-0.1,2.9,0.3,4.2,0.6c-0.2-1.7,0.1-3.5,1-5.1c0.2-0.3,0.4-0.7,0.5-1.1c0.2-0.8-0.2-1.5-0.4-2.3c-0.3-1.2-0.2-2.5-0.1-3.7
		c0.3-4.2,0.1-8.4-0.6-12.5c-0.1-0.8-0.3-1.6-0.6-2.4c-0.1-0.3-0.2-0.5-0.3-0.8c-0.1-0.5-0.2-1-0.2-1.5l-0.3-4.8
		c-0.2-3.4,0.9-6.7,1.6-9.9c0.3-1.5,0.7-2.9,0.9-4.4c0.3-2,0.4-4.1,0.8-6.1c0.4-1.8,1.2-3.5,1.3-5.4c0.2-2.8-0.9-5.6-2.1-8.2
		c-0.5-1.1-2.3-1-3.4-1.2c-8.2-1.4-16.9-1.4-24.7,1.7C198.2,137.4,197.5,137.9,196.9,138.6z"/>
	<path class="st6" d="M202.8,85.5l0.9,3.6c0.2,0.8,0.4,1.7,0.4,2.5c0,0.3-0.1,0.6-0.2,0.9c-0.2,0.2-0.3,0.4-0.6,0.6
		c-0.6,0.5-1.1,1.6-1.8,1.9c0.4,0.6,0.9,0.2,1.5,0.5c1.2,0.6,2.2,1.4,3.5,1.7c1.2,0.3,2.5,0,3.6-0.3c1.7-0.5,3.4-1.1,4.7-2.2
		c1.4-1.1,2.1-2.1,2.1-3.8c-1.5,0.2-2.8-1.3-3.5-2.7c-0.2-0.5-0.4-1.1-0.5-1.6l-0.8-3.5c-0.9,0.2-1.6,0.8-2.4,1.1s-1.8,0.4-2.7,0.4
		c-1.6,0.1-3.3,0.3-4.9,0.6c-0.2,0-0.5,0.2-0.4,0.4"/>
	<path class="st4" d="M202.8,85.5l0.9,3.6c0.2,0.8,0.4,1.7,0.4,2.5c0,0.3-0.1,0.6-0.2,0.9c-0.2,0.2-0.3,0.4-0.6,0.6
		c-0.6,0.5-1.1,1.6-1.8,1.9c0.4,0.6,0.9,0.2,1.5,0.5c1.2,0.6,2.2,1.4,3.5,1.7c1.2,0.3,2.5,0,3.6-0.3c1.7-0.5,3.4-1.1,4.7-2.2
		c1.4-1.1,2.1-2.1,2.1-3.8c-1.5,0.2-2.8-1.3-3.5-2.7c-0.2-0.5-0.4-1.1-0.5-1.6l-0.8-3.5c-0.9,0.2-1.6,0.8-2.4,1.1s-1.8,0.4-2.7,0.4
		c-1.6,0.1-3.3,0.3-4.9,0.6c-0.2,0-0.5,0.2-0.4,0.4"/>
	<circle class="st6" cx="206.7" cy="79.6" r="7.9"/>
	<path class="st5" d="M208.9,92.6c0.4-0.9,1-1.7,1.8-2.4c1.1-1,2.6-1.8,2.9-3.2l2.4,2.8c0.1,0.1,0.2,0.3,0.3,0.5
		c0.1,0.3,0,0.7-0.2,0.9c-0.6,1-1.5,1.6-2.4,2.3c-2,1.6-4,3.3-5.9,5.2c-0.1,0.1-0.2,0.2-0.3,0.2c-0.1,0-0.2,0-0.3-0.1
		c-1.6-0.8-3-2-4.2-3.4c-0.1-0.1-0.2-0.2-0.3-0.2c-0.1,0-0.2,0.1-0.2,0.1c-0.8,0.7-1.7,1.4-2.7,1.3c1.3-1,2.1-2.6,2.4-4.2
		c0.1-0.6,0.2-1.1,0.3-1.6c0.2-0.5,0.6-1,1.2-1.1c-0.7,1-0.2,2.4,0.7,3.2c0.9,0.7,1.9,1.2,3,1.4C208.3,94.5,208.6,93.4,208.9,92.6z"
		/>
	<path class="st5" d="M198.6,139.4c1.1,0.3,2.2,0.8,3.3,1.1c2,0.6,4.1,0.8,6.2,0.6c0.6,0,1.3-0.2,1.8-0.6c0.1-0.1,0.3-0.2,0.4-0.4
		c0.2-0.2,0.5-0.3,0.8-0.3c2.7-0.9,5-2.7,7.3-4.5c0.1-0.1,0.2-0.1,0.1-0.2c0-0.1,0-0.1-0.1-0.2l-1.2-1.3c-3.1,0.5-6.2,0.3-9.3,0.2
		c-0.6,0-1.3,0-1.9,0.1c-0.6,0.1-1.2,0.2-1.8,0.4c-2.3,0.5-4.7,0.7-7,1c-0.2,0-0.3,0.1-0.5,0.1c-0.1,0.1-0.2,0.2-0.2,0.3l-0.8,1.2
		c-0.3,0.4-0.6,0.8-0.7,1.3c-0.2,0.9,0.2,1.2,1,1.1C196.8,139.1,197.7,139.2,198.6,139.4z"/>
	<path class="st7" d="M207.8,97.3c-0.9-0.9-2-1.7-3.1-2.4c-0.5-0.3-1-0.5-1.5-0.6c-0.5-0.1-1.1,0-1.5,0.4c-0.3,0.2-0.4,0.6-0.7,0.8
		c-0.3,0.3-0.7,0.5-1.1,0.6c-1.4,0.6-2.7,1.3-3.8,2.2c-0.7,0.5-1.2,1-1.7,1.6c-1.4,1.7-1.6,4.1-1.5,6.3c0,1.5,1.5,2.7,2.5,3.8
		c0.9,1.1,1.8,2.3,2.6,3.6c0.5,0.9,1.1,1.8,1,2.8c-0.1,0.8-0.5,1.6-0.5,2.5c0,0.3,0.1,0.6,0.1,0.9c0.1,0.6-0.2,1.2-0.2,1.8
		c-0.1,0.8,0.2,1.7,0.2,2.5c0,0.6-0.1,1.2-0.2,1.7c-0.6,2.7-1.3,5.5-1.1,8.3l-1.7,0.3c0.6,0.5,0.6,1.4,0,2c-0.1,0.1-0.2,0.2-0.3,0.3
		c2.6,0.9,5.4,0.4,8.1,0.4c2.3,0,4.5,0.3,6.8,0.3c2.3,0,4.6-0.5,6.5-1.7c0.5-0.3,1-0.8,1.5-1.1c0.7-0.4,1.5-0.6,2.3-0.7
		c1.5-0.3,3-0.4,4.5-0.4c0.7,0,1.5,0,2.1-0.4c0.6-0.5,0.8-1.4,0.9-2.2c0.1-0.8,0.1-1.7,0.2-2.6c0-0.7,0-1.3-0.1-2
		c-0.1-0.5-0.2-1-0.3-1.4l-1.1-4c-0.5-1.6,0.2-3.4,0.3-5.1c0-0.4,0-0.9-0.3-1.1c-0.1-0.1-0.3-0.2-0.3-0.3c0-0.1,0-0.3,0.1-0.4
		c0.6-1.2,1.5-2.3,2.3-3.3c1.4-1.9,2.7-3.9,3.8-5.9c-0.4-4.2-2.2-8.2-5.1-11.3c-0.6-0.6-1.3-1.3-2.1-1.6c-0.5-0.2-1.1-0.3-1.7-0.3
		c-2.3-0.2-4.8-0.3-6.8-1.5c-0.1-0.1-0.3-0.2-0.5-0.2c-0.5-0.1-0.8,0.4-1.1,0.7c-0.8,0.9-1.9,1.4-2.8,2.1
		C210.5,93.9,209.1,95.6,207.8,97.3z"/>
	<path class="st7" d="M232.6,105.9c0.5,1.5,0.4,3.1,0.6,4.6c0.1,0.9,0.3,1.8,0.5,2.8c0.1,0.5,0.3,1,0.6,1.4c0.3,0.4,0.7,0.7,0.8,1.2
		c0.1,0.3,0.1,0.6,0.1,0.9l0,2.1c0.1,1.1-0.1,2.2-0.5,3.2l-1.3,3.9c-0.7,2.1-1.4,4.3-2.7,6.1c-0.2,0.3-0.4,0.6-0.8,0.7
		c-0.3,0.1-0.5,0.1-0.8,0.1c-0.9,0.2-1.6,1-1.6,1.9c-0.3-0.4-0.7-0.8-1.1-1.1l-2.6-2.1c-0.9-0.7-1.8-1.5-2.9-1.9
		c3-0.9,5.1-3.5,5.5-6.7c0-0.5,0.1-0.9,0.3-1.3c0.2-0.4,0.6-0.6,0.7-1c0-0.5-0.6-0.9-0.6-1.4c0-0.3,0.3-0.6,0.4-1
		c0.1-0.4,0.1-0.8,0-1.2l-0.4-2c0-0.2-0.1-0.4-0.2-0.6c-0.1-0.2-0.3-0.3-0.4-0.5c-0.6-0.7-0.3-1.8,0-2.7c0.8-1.9,1.8-3.7,3.1-5.4
		c0.4-0.6,0.8-1.1,1.2-1.7c0.3-0.5,0.4-1.3,0.7-1.8C231.7,103.6,232.3,104.7,232.6,105.9z"/>
	<path class="st5" d="M220.9,129.8c-0.1,0.1-0.2,0.2-0.3,0.4c-0.4,0.4-0.8,0.8-1.4,1c0.3,0.2,0.6,0.4,0.9,0.6c2.1,1.6,4,3.4,5.7,5.4
		c0.2-0.7,1.3-0.6,1.6-1.3c0.1-0.2,0.1-0.4,0.1-0.6c-0.1-1-0.2-2-0.4-3c-0.1-0.5-0.3-1-0.6-1.4c-0.4-0.5-1.1-0.7-1.7-1
		C223.7,129.7,221.8,129.3,220.9,129.8z"/>
	<path class="st6" d="M217.1,132.2c-0.9,0.7-1.7,1.5-2.7,1.9c-0.7,0.3-1.5,0.5-2.1,0.9c0.3,0.7,1.2,1.1,2,1.1
		c0.8-0.1,1.6-0.4,2.3-0.8c0.5-0.3,1.2-0.7,1.7-0.5c0.1,0.5-0.3,0.9-0.3,1.3s0.4,0.8,0.8,1c1.8,1.2,4.1,1.1,6.2,0.9
		c0.1,0,0.2,0,0.3-0.1c0.1-0.1,0.1-0.3,0.1-0.4c0-0.5,0-0.9,0-1.4c0.1-0.8-0.2-1.6-0.9-2c-1.2-1-2.4-1.9-3.7-2.6
		C219.7,130.9,218.3,131.3,217.1,132.2z"/>
	<path class="st8" d="M209.5,76.3c-1.3,0.2-2.3,1.2-2.2,2.3c0.1,1.1,1.3,1.9,2.6,1.7s2.3-1.2,2.2-2.3
		C212,76.9,210.9,76.1,209.5,76.3z M210,80c-1.1,0.1-2.1-0.5-2.2-1.5c-0.1-1,0.7-1.8,1.8-2c1.1-0.1,2.1,0.5,2.2,1.5
		C211.9,79,211.1,79.9,210,80L210,80z"/>
	<path class="st8" d="M203.1,77c-1.3,0.2-2.3,1.2-2.2,2.3s1.3,1.9,2.6,1.7s2.3-1.2,2.2-2.3C205.6,77.6,204.4,76.9,203.1,77z
		 M203.5,80.8c-1.1,0.1-2.1-0.5-2.2-1.5c-0.1-0.9,0.7-1.8,1.8-2c1.1-0.1,2.1,0.5,2.2,1.5S204.6,80.6,203.5,80.8L203.5,80.8z"/>
	<polygon class="st8" points="198.3,77.6 201.1,78.2 200.9,79 198.1,78.2 	"/>
	<polygon class="st8" points="214.3,75.7 211.7,77 212.1,77.6 214.6,76.2 	"/>
	<polygon class="st8" points="205.4,78 207.5,77.8 207.4,78.3 205.6,78.4 	"/>
	<path class="st9" d="M201.5,77.4c0.2-0.4,0.3-0.9,0.3-1.3c0-0.3,0.1-0.5,0.1-0.8c0.1-0.3,0.4-0.6,0.7-0.8c0.9-0.8,2.3-1.2,3.6-1.3
		c1.4-0.1,2.9,0.2,4.1,0.9c0.4,0.2,0.7,0.4,1,0.8c0.4,0.5,0.5,1.2,0.9,1.7c0.6,0.6,1.5,0.9,2.3,0.7c0.1-0.5,0-1.1,0-1.6
		c0.1-0.5,0.3-0.9,0.5-1.3c0.5-1.4-0.2-3-1.6-3.8c-0.5-0.3-1.1-0.5-1.4-0.9c-0.4-0.4-0.5-0.8-0.7-1.2c-0.7-1.1-2.4-1.6-3.7-1.1
		c-0.4,0.2-0.8,0.4-1.2,0.6c-0.8,0.3-1.7,0.4-2.5,0.5c-0.8,0.1-1.7,0.3-2.4,0.6c-0.7,0.4-1.4,1-1.5,1.6c-0.1,0.3-0.1,0.7-0.1,1
		c-0.4,1.6-3.1,2.4-3.2,4.1c-0.1,0.6,0.3,1.2,0.7,1.7c0.3,0.3,1,1.2,1.4,1.3c0.5,0.1,0.8-0.3,1.3-0.5C200.7,78,201.2,78,201.5,77.4z
		"/>
</g>
<path class="st2" d="M235.2,182.6c0,15,9.4,27.2,21.1,27.2"/>
<path class="st1" d="M256.3,209.8c0-15.2,10.5-27.5,23.5-27.5"/>
<path class="st1" d="M242.9,184c0,14.3,6,25.8,13.4,25.8"/>
<path class="st2" d="M256.3,209.8c0-19.4,12.2-35.1,27.2-35.1"/>
<ellipse class="st0" cx="255.4" cy="214.1" rx="5.2" ry="0.9"/>
<path class="st10" d="M251.9,210c0,0,3-0.1,3.9-0.7s4.6-1.4,4.8-0.4c0.2,1,4.5,5.1,1.1,5.1c-3.4,0-7.8-0.5-8.7-1.1
	C252.1,212.4,251.9,210,251.9,210z"/>
<path class="st11" d="M261.7,213.7c-3.4,0-7.8-0.5-8.7-1.1c-0.7-0.4-1-1.9-1-2.6h-0.1c0,0,0.2,2.4,1.1,3c0.9,0.5,5.4,1.1,8.7,1.1
	c1,0,1.3-0.4,1.3-0.9C262.8,213.5,262.5,213.7,261.7,213.7z"/>
<path class="st2" d="M6.7,191.4c0,12,7.5,21.6,16.8,21.6"/>
<path class="st1" d="M23.5,213c0-12.1,8.4-21.9,18.7-21.9"/>
<path class="st1" d="M12.8,192.5c0,11.4,4.8,20.5,10.7,20.5"/>
<path class="st2" d="M23.5,213c0-15.4,9.7-27.9,21.6-27.9"/>
<ellipse class="st0" cx="22.8" cy="216.4" rx="4.2" ry="0.7"/>
<path class="st10" d="M20,213.2c0,0,2.4-0.1,3.1-0.6c0.7-0.5,3.7-1.1,3.8-0.3s3.6,4.1,0.9,4.1c-2.7,0-6.2-0.4-6.9-0.9
	C20.1,215.1,20,213.2,20,213.2z"/>
<path class="st11" d="M27.8,216.1c-2.7,0-6.2-0.4-6.9-0.9c-0.5-0.3-0.8-1.5-0.8-2.1H20c0,0,0.1,1.9,0.9,2.4c0.7,0.4,4.3,0.9,6.9,0.9
	c0.8,0,1-0.3,1-0.7C28.7,215.9,28.4,216.1,27.8,216.1z"/>
</svg>
