<svg version="1.1" id="b6c6e6a1-7972-47e7-be8d-743e88a832d8" xmlns="http://www.w3.org/2000/svg" x="0" y="0" viewBox="0 0 288 226.6" xml:space="preserve"><style>.st0{opacity:.1;enable-background:new}.st0,.st1{fill:#31b096}.st2{fill:#46455b}.st4{opacity:.1;enable-background:new}.st5{fill:#323444}.st6{fill:#fbb3b2}.st7{fill:#5b5583}.st8{fill:#3c354c}.st10{fill:#a8a8a8}.st11{opacity:.2;enable-background:new}</style><path class="st0" d="M60.2 38.9h21.3c1.2 0 2.2 1 2.2 2.2v3.3c0 1.2-1 2.2-2.2 2.2H60.2c-1.2 0-2.2-1-2.2-2.2v-3.3c-.1-1.2.9-2.2 2.2-2.2zm26.9 7.7h21.3c1.2 0 2.2 1 2.2 2.2v3.3c0 1.2-1 2.2-2.2 2.2H87.1c-1.2 0-2.2-1-2.2-2.2v-3.3c-.1-1.2.9-2.2 2.2-2.2zm26.9 7.8h21.3c1.2 0 2.2 1 2.2 2.2V60c0 1.2-1 2.2-2.2 2.2H114c-1.2 0-2.2-1-2.2-2.2v-3.3c-.1-1.3.9-2.3 2.2-2.3zM60.2 27.2h21.3c1.2 0 2.2 1 2.2 2.2v3.3c0 1.2-1 2.2-2.2 2.2H60.2c-1.2 0-2.2-1-2.2-2.2v-3.3c-.1-1.2.9-2.2 2.2-2.2zM87.1 35h21.3c1.2 0 2.2 1 2.2 2.2v3.3c0 1.2-1 2.2-2.2 2.2H87.1c-1.2 0-2.2-1-2.2-2.2v-3.3c-.1-1.2.9-2.2 2.2-2.2zm26.9 7.7h21.3c1.2 0 2.2 1 2.2 2.2v3.3c0 1.2-1 2.2-2.2 2.2H114c-1.2 0-2.2-1-2.2-2.2V45c-.1-1.3.9-2.3 2.2-2.3zm29.9-3.8h21.3c1.2 0 2.2 1 2.2 2.2v3.3c0 1.2-1 2.2-2.2 2.2h-21.3c-1.2 0-2.2-1-2.2-2.2v-3.3c-.1-1.2.9-2.2 2.2-2.2zm26.9 7.7H192c1.2 0 2.2 1 2.2 2.2v3.3c0 1.2-1 2.2-2.2 2.2h-21.3c-1.2 0-2.2-1-2.2-2.2v-3.3c0-1.2 1-2.2 2.3-2.2zm26.9 7.8H219c1.2 0 2.2 1 2.2 2.2V60c0 1.2-1 2.2-2.2 2.2h-21.3c-1.2 0-2.2-1-2.2-2.2v-3.3c-.1-1.3.9-2.3 2.2-2.3zm-53.8-27.2h21.3c1.2 0 2.2 1 2.2 2.2v3.3c0 1.2-1 2.2-2.2 2.2h-21.3c-1.2 0-2.2-1-2.2-2.2v-3.3c-.1-1.2.9-2.2 2.2-2.2zm26.9 7.8H192c1.2 0 2.2 1 2.2 2.2v3.3c0 1.2-1 2.2-2.2 2.2h-21.3c-1.2 0-2.2-1-2.2-2.2v-3.3c0-1.2 1-2.2 2.3-2.2zm26.9 7.7H219c1.2 0 2.2 1 2.2 2.2v3.3c0 1.2-1 2.2-2.2 2.2h-21.3c-1.2 0-2.2-1-2.2-2.2V45c-.1-1.3.9-2.3 2.2-2.3zm-137.5-31h21.3c1.2 0 2.2 1 2.2 2.2v3.3c0 1.2-1 2.2-2.2 2.2H60.2c-1.2 0-2.2-1-2.2-2.2v-3.3c-.1-1.2.9-2.2 2.2-2.2zm26.9 7.7h21.3c1.2 0 2.2 1 2.2 2.2V25c0 1.2-1 2.2-2.2 2.2H87.1c-1.2 0-2.2-1-2.2-2.2v-3.3c-.1-1.3.9-2.3 2.2-2.3zm26.9 7.8h21.3c1.2 0 2.2 1 2.2 2.2v3.3c0 1.2-1 2.2-2.2 2.2H114c-1.2 0-2.2-1-2.2-2.2v-3.3c-.1-1.2.9-2.2 2.2-2.2zM60.2 0h21.3c1.2 0 2.2 1 2.2 2.2v3.3c0 1.2-1 2.2-2.2 2.2H60.2c-1.2 0-2.2-1-2.2-2.2V2.2C57.9 1 58.9 0 60.2 0zm26.9 7.8h21.3c1.2 0 2.2 1 2.2 2.2v3.3c0 1.2-1 2.2-2.2 2.2H87.1c-1.2 0-2.2-1-2.2-2.2V10c-.1-1.2.9-2.2 2.2-2.2zm26.9 7.7h21.3c1.2 0 2.2 1 2.2 2.2V21c0 1.2-1 2.2-2.2 2.2H114c-1.2 0-2.2-1-2.2-2.2v-3.3c-.1-1.2.9-2.2 2.2-2.2zm29.9-3.8h21.3c1.2 0 2.2 1 2.2 2.2v3.3c0 1.2-1 2.2-2.2 2.2h-21.3c-1.2 0-2.2-1-2.2-2.2v-3.3c-.1-1.2.9-2.2 2.2-2.2zm26.9 7.7H192c1.2 0 2.2 1 2.2 2.2V25c0 1.2-1 2.2-2.2 2.2h-21.3c-1.2 0-2.2-1-2.2-2.2v-3.3c0-1.3 1-2.3 2.3-2.3zm26.9 7.8H219c1.2 0 2.2 1 2.2 2.2v3.3c0 1.2-1 2.2-2.2 2.2h-21.3c-1.2 0-2.2-1-2.2-2.2v-3.3c-.1-1.2.9-2.2 2.2-2.2zM143.9 0h21.3c1.2 0 2.2 1 2.2 2.2v3.3c0 1.2-1 2.2-2.2 2.2h-21.3c-1.2 0-2.2-1-2.2-2.2V2.2c-.1-1.2.9-2.2 2.2-2.2zm26.9 7.8H192c1.2 0 2.2 1 2.2 2.2v3.3c0 1.2-1 2.2-2.2 2.2h-21.3c-1.2 0-2.2-1-2.2-2.2V10c0-1.2 1-2.2 2.3-2.2zm26.9 7.7H219c1.2 0 2.2 1 2.2 2.2V21c0 1.2-1 2.2-2.2 2.2h-21.3c-1.2 0-2.2-1-2.2-2.2v-3.3c-.1-1.2.9-2.2 2.2-2.2zM60.2 177.2h21.3c1.2 0 2.2 1 2.2 2.2v3.3c0 1.2-1 2.2-2.2 2.2H60.2c-1.2 0-2.2-1-2.2-2.2v-3.3c-.1-1.2.9-2.2 2.2-2.2zm26.9 7.8h21.3c1.2 0 2.2 1 2.2 2.2v3.3c0 1.2-1 2.2-2.2 2.2H87.1c-1.2 0-2.2-1-2.2-2.2v-3.3c-.1-1.2.9-2.2 2.2-2.2zm26.9 7.8h21.3c1.2 0 2.2 1 2.2 2.2v3.3c0 1.2-1 2.2-2.2 2.2H114c-1.2 0-2.2-1-2.2-2.2V195c-.1-1.2.9-2.2 2.2-2.2zm-53.8-27.2h21.3c1.2 0 2.2 1 2.2 2.2v3.3c0 1.2-1 2.2-2.2 2.2H60.2c-1.2 0-2.2-1-2.2-2.2v-3.3c-.1-1.2.9-2.2 2.2-2.2zm26.9 7.8h21.3c1.2 0 2.2 1 2.2 2.2v3.3c0 1.2-1 2.2-2.2 2.2H87.1c-1.2 0-2.2-1-2.2-2.2v-3.3c-.1-1.2.9-2.2 2.2-2.2zm26.9 7.7h21.3c1.2 0 2.2 1 2.2 2.2v3.3c0 1.2-1 2.2-2.2 2.2H114c-1.2 0-2.2-1-2.2-2.2v-3.3c-.1-1.2.9-2.2 2.2-2.2zm29.9-3.9h21.3c1.2 0 2.2 1 2.2 2.2v3.3c0 1.2-1 2.2-2.2 2.2h-21.3c-1.2 0-2.2-1-2.2-2.2v-3.3c-.1-1.2.9-2.2 2.2-2.2zm26.9 7.8H192c1.2 0 2.2 1 2.2 2.2v3.3c0 1.2-1 2.2-2.2 2.2h-21.3c-1.2 0-2.2-1-2.2-2.2v-3.3c0-1.2 1-2.2 2.3-2.2zm26.9 7.8H219c1.2 0 2.2 1 2.2 2.2v3.3c0 1.2-1 2.2-2.2 2.2h-21.3c-1.2 0-2.2-1-2.2-2.2V195c-.1-1.2.9-2.2 2.2-2.2zm-53.8-27.2h21.3c1.2 0 2.2 1 2.2 2.2v3.3c0 1.2-1 2.2-2.2 2.2h-21.3c-1.2 0-2.2-1-2.2-2.2v-3.3c-.1-1.2.9-2.2 2.2-2.2zm26.9 7.8H192c1.2 0 2.2 1 2.2 2.2v3.3c0 1.2-1 2.2-2.2 2.2h-21.3c-1.2 0-2.2-1-2.2-2.2v-3.3c0-1.2 1-2.2 2.3-2.2zm26.9 7.7H219c1.2 0 2.2 1 2.2 2.2v3.3c0 1.2-1 2.2-2.2 2.2h-21.3c-1.2 0-2.2-1-2.2-2.2v-3.3c-.1-1.2.9-2.2 2.2-2.2zM60.2 150h21.3c1.2 0 2.2 1 2.2 2.2v3.3c0 1.2-1 2.2-2.2 2.2H60.2c-1.2 0-2.2-1-2.2-2.2v-3.3c-.1-1.2.9-2.2 2.2-2.2zm26.9 7.8h21.3c1.2 0 2.2 1 2.2 2.2v3.3c0 1.2-1 2.2-2.2 2.2H87.1c-1.2 0-2.2-1-2.2-2.2V160c-.1-1.2.9-2.2 2.2-2.2zm26.9 7.8h21.3c1.2 0 2.2 1 2.2 2.2v3.3c0 1.2-1 2.2-2.2 2.2H114c-1.2 0-2.2-1-2.2-2.2v-3.3c-.1-1.2.9-2.2 2.2-2.2zm-53.8-27.2h21.3c1.2 0 2.2 1 2.2 2.2v3.3c0 1.2-1 2.2-2.2 2.2H60.2c-1.2 0-2.2-1-2.2-2.2v-3.3c-.1-1.2.9-2.2 2.2-2.2zm26.9 7.8h21.3c1.2 0 2.2 1 2.2 2.2v3.3c0 1.2-1 2.2-2.2 2.2H87.1c-1.2 0-2.2-1-2.2-2.2v-3.3c-.1-1.2.9-2.2 2.2-2.2zm26.9 7.7h21.3c1.2 0 2.2 1 2.2 2.2v3.3c0 1.2-1 2.2-2.2 2.2H114c-1.2 0-2.2-1-2.2-2.2v-3.3c-.1-1.2.9-2.2 2.2-2.2zm29.9-3.9h21.3c1.2 0 2.2 1 2.2 2.2v3.3c0 1.2-1 2.2-2.2 2.2h-21.3c-1.2 0-2.2-1-2.2-2.2v-3.3c-.1-1.2.9-2.2 2.2-2.2zm26.9 7.8H192c1.2 0 2.2 1 2.2 2.2v3.3c0 1.2-1 2.2-2.2 2.2h-21.3c-1.2 0-2.2-1-2.2-2.2V160c0-1.2 1-2.2 2.3-2.2zm26.9 7.8H219c1.2 0 2.2 1 2.2 2.2v3.3c0 1.2-1 2.2-2.2 2.2h-21.3c-1.2 0-2.2-1-2.2-2.2v-3.3c-.1-1.2.9-2.2 2.2-2.2zm-53.8-27.2h21.3c1.2 0 2.2 1 2.2 2.2v3.3c0 1.2-1 2.2-2.2 2.2h-21.3c-1.2 0-2.2-1-2.2-2.2v-3.3c-.1-1.2.9-2.2 2.2-2.2zm26.9 7.8H192c1.2 0 2.2 1 2.2 2.2v3.3c0 1.2-1 2.2-2.2 2.2h-21.3c-1.2 0-2.2-1-2.2-2.2v-3.3c0-1.2 1-2.2 2.3-2.2zm26.9 7.7H219c1.2 0 2.2 1 2.2 2.2v3.3c0 1.2-1 2.2-2.2 2.2h-21.3c-1.2 0-2.2-1-2.2-2.2v-3.3c-.1-1.2.9-2.2 2.2-2.2z"/><ellipse class="st0" cx="144.2" cy="215.8" rx="131.1" ry="10.8"/><path class="st1" d="M25.3 55.8c12.4 5.4 19.5 16.4 19.5 16.4s-12.9 2.4-25.3-3S0 52.9 0 52.9s12.9-2.4 25.3 2.9zm37.9-20.5C67.1 29 73.6 26 73.6 26s.3 7.2-3.5 13.4c-3.8 6.3-10.3 9.2-10.3 9.2s-.4-7.1 3.4-13.3z"/><path class="st2" d="M35.1 42c2.7 9.8 10.3 16.2 10.3 16.2s3.1-9.4.4-19.2C43 29.2 35.5 22.8 35.5 22.8s-3.1 9.4-.4 19.2z"/><path d="M37.7 41.5h213.6c1.2 0 2.2 1 2.2 2.2v104.8c0 1.2-1 2.2-2.2 2.2H37.7c-1.2 0-2.2-1-2.2-2.2V43.7c0-1.2 1-2.2 2.2-2.2z" fill="#3f3d56"/><path class="st4" d="M35.5 144.1h217.9v4.4c0 1.2-1 2.2-2.2 2.2H37.7c-1.2 0-2.2-1-2.2-2.2v-4.4z"/><path class="st1" d="M57.5 136h14.6c.4 0 .7.3.7.7v6.6c0 .4-.3.7-.7.7H57.5c-.4 0-.7-.3-.7-.7v-6.6c0-.4.3-.7.7-.7zm20.5 6.9h9.9c.3 0 .6.3.6.6s-.3.6-.6.6H78c-.3 0-.6-.3-.6-.6 0-.4.2-.6.6-.6zm-10.4-80c7.9 1.5 15.9 0 23.8-1l23.9-3c1-.1 2.4-.7 2.9.5.3.7.1 2.1.1 2.9.1 2.1.1 4.2 0 6.3-.1 4-.4 8-.8 12-.7 7.8-1.8 15.5-2.3 23.4-.3 4-.4 8-.3 12 0 1 .1 1.9.1 2.8.1 1.1.5 2.6-.6 3.3-.7.4-2 .4-2.7.5-1.2.2-2.4.3-3.6.5-8 .8-16.2.5-24.2.4l-24.4-.1h-5.9c-.5 0-2.5.3-2.8-.3-.1-.3.2-1.5.3-1.9.1-.6.2-1.1.3-1.7.7-3.9 1.5-7.8 2.3-11.7 1.8-8.4 3.6-16.8 4.3-25.3.4-4.3.1-8.6.6-12.9.2-2 .5-6.4 3.1-6.6 2.2-.1 4.5 0 6.8 0 .2 0 .4-.2.4-.4s-.2-.4-.4-.4c-2.1 0-4.2-.1-6.4 0-1.4 0-2.4.4-3.1 1.7-1.7 3.3-1.5 7.8-1.6 11.4-.1 8.7-1.5 17.2-3.2 25.7-.9 4.3-1.8 8.6-2.7 12.8-.4 2-.8 4.1-1.2 6.2-.2 1-1 3.1-.3 4s3 .4 4.1.4h7.1l13.7.1c8.8.1 17.7.3 26.5 0 4.2-.1 8.7-.3 12.8-1.3 1.2-.3 1.8-.9 1.9-2.2.1-2-.3-4.1-.3-6.1-.3-17.4 3.8-34.5 3.4-51.9 0-1.2.4-4.2-.9-4.9-.6-.3-1.3-.1-1.9-.1-1.2.1-2.3.3-3.5.4l-15.1 1.9c-4.8.6-9.7 1.2-14.5 1.8-5.1.6-10.3 1-15.4 0-.7-.2-.9.6-.3.8z"/><path class="st1" d="M58 73.4l59.7-2.9c.6 0 .6-.9 0-.9l-59.7 3c-.5 0-.5.9 0 .8zm18.4-7.3c-.6.6-.5 1.5.1 2.1.1.1.3.2.5.3.8.4 1.7.1 2.5-.1 1.2-.3 2.4-.6 3.6-.8 2.7-.5 5.4-.7 8.1-.8 1.2 0 2.5 0 3.7.1.9 0 1.9.1 2.6-.4.9-.6 1.1-1.9.3-2.6-1.2-1.1-3.8-.5-5.2-.3-5 .4-10 1.2-14.9 2.2-.6.1-.3 1 .2.9 3.2-.7 6.5-1.3 9.8-1.7 1.6-.2 3.2-.4 4.9-.5.8-.1 1.5-.1 2.3-.2.3 0 .6-.1.9 0 .9 0 1.1-.1.5 1-.5 1-.3.9-1.2.9-.4 0-.7 0-1.1-.1-.8 0-1.5 0-2.3-.1-1.6 0-3.2.1-4.8.2-1.4.1-2.7.3-4.1.6-.8.1-1.7.3-2.5.5-.4.1-.7.2-1.1.3-.2 0-.4.1-.5.1-.7.2-1.2-.1-1.7-.9.5-.5-.2-1.1-.6-.7zm10.9 12.7c-4.3-.2-9 1-11.8 4.5-2.2 2.7-3.5 7.4-1.1 10.5 2.5 3.3 8.1 2.7 11.5 1.3 3.6-1.5 7.4-4.6 8.5-8.4 1.3-4.8-3-8.5-7.5-8.5-.6 0-.6.9 0 .9 2.6 0 5.1 1.1 6.3 3.5 1.3 2.5.2 5.2-1.5 7.2-2.7 3.2-6.9 5.6-11.1 5.6-2.6 0-5.4-.9-6.2-3.6-.7-2.2-.2-4.6 1-6.5 2.5-4.2 7.5-5.6 12-5.4.5-.2.5-1.1-.1-1.1z"/><path class="st1" d="M83 85.5c-.6-.2-1.3.1-1.5.7-.1.2-.1.3-.1.5.1 1.2 1.4 1.5 2.3 1.4.8-.1 1.8-.4 1.5-1.4-.1-.4-.4-.7-.7-.8-.3-.1-.6-.1-.8-.1-.1 0-1.1.4-.7-.1l-.7-.1c.2.2.2.4.2.6 0 .2.2.4.5.4.1 0 .1 0 .2-.1.3-.1.7 0 .8.3.1.1.1.3 0 .4-.1.2.1.5.3.5.2 0 .4 0 .5-.2.3-.5.7-1.6.2-2.2-.3-.4-.9-.3-1.2 0-.2.2-.4.3-.6.5-.4.3-.6.5-.5-.1.2-1.1 1.3-2 2.3-2.4l-.7-.5c-.3 1.3-1 2.5-1.8 3.5l.8.3c0-.8.4-1.6 1.2-1.9H84l.2.4c-.1.6.8.8.9.2.1-.7-.4-1.7-1.2-1.3-1 .4-1.6 1.6-1.5 2.7 0 .4.5.6.8.3 1-1.2 1.6-2.5 2-3.9.1-.2-.1-.5-.3-.5h-.3c-.9.4-1.7 1.1-2.2 1.9-.4.6-.8 1.5-.5 2.2.3.5.8.6 1.3.4.3-.2.5-.4.8-.6.1-.1.2-.3.4-.3.1-.1.1 0 0 .2 0 .3-.1.6-.3.9l.8.3c.2-.8-.3-1.6-1.1-1.8-.4-.1-.7-.1-1.1.1l.7.4c0-.4-.1-.8-.3-1.1-.1-.2-.4-.3-.6-.2 0 0-.1 0-.1.1-.5.5-.5 1.3 0 1.7.4.3.6 0 1.1-.1 1.6-.2.7.5.1.5-.3 0-.5 0-.8-.1-.6-.2-.7-.5-.1-.8.6.2.8-.6.3-.8z"/><path class="st1" d="M82.3 87.1c.4 1.2-1.2 1.6-1.9 2-.5.3-.9.7-1.3 1.1-.8 1-1 2.3-1.3 3.5-.1.6.8.8.9.2.1-.9.4-1.8.8-2.6.5-1.1 1.3-1.4 2.3-2 1-.5 1.7-1.4 1.4-2.6-.3-.4-1.1-.2-.9.4z"/><path class="st1" d="M83.7 86.5c-.4.1-.8.4-.7.9 0 .4.2.6.4.9.4.6.7 1.2.9 1.9.1.6.3 1.8-.1 2.4-.6 1.1-1.7.9-2.7.9-.9 0-1.6.3-1.6-1 0-.7.5-1.4.9-2l-.8-.1c.2.9.3 1.8.3 2.8 0 .4.6.6.8.2.5-1 .9-2.1 1.1-3.2l-.9-.1.2 2.3c0 .2.2.4.5.4.2 0 .3-.1.4-.2.1-.1.2-.3.2-.4 0-.1-.2-1.1-.4-.8l.9.1.1-2.2-.9.1c.2.6.2 1.3.2 1.9-.1.5.8.6.9.1l.6-2.9-.8.1c.2.4.2.9.2 1.3-.1.6.8.6.9 0 .1-.6 0-1.2-.3-1.7-.1-.2-.4-.3-.6-.2-.1.1-.2.2-.2.3l-.6 2.9.9.1c.1-.7 0-1.4-.2-2.1-.1-.2-.3-.4-.6-.3-.2.1-.3.2-.3.4l-.1 2.2c0 .5.7.6.9.1v-.1c0-.2 0-.3-.1-.4-.9-1-1.1.6-1.4 1l.8.2-.2-2.3c0-.5-.8-.6-.9-.1-.3 1-.6 2-1 2.9l.8.2c0-1-.1-2-.3-3-.1-.4-.6-.4-.8-.1-.6.9-1.6 2.7-.8 3.8.7.9 2.9.5 3.8.5 1.5-.1 2-1 2.2-2.4.1-.7 0-1.3-.1-2-.1-.4-.9-2.6-1.1-2.5.5 0 .2-.9-.4-.8z"/><path class="st1" d="M82 88.5l-2.4 3.2.8.5 1.8-2.6-.8-.3-.9 3.4c-.1.2.1.5.3.5.2 0 .4 0 .5-.2.4-.7.9-1.3 1.4-1.9l-.7-.4c-.2.8-.6 1.5-1.1 2.1l.8.4c0-.4.2-.8.3-1.2.2-.5-.5-1-.8-.5-.3.5-.5.9-.9 1.4l.7.1.2-.9-.9-.1.1.7c.1.2.3.4.6.3.1 0 .1-.1.2-.1.8-.8 1.4-1.7 1.8-2.7h-.8c.2.4.3.8.4 1.2.1.5.8.3.9-.1.1-1 .2-2 .2-3h-.9v1.9c0 .5.8.6.9.1.1-.5.2-.9.4-1.3h-.8c.2.3.3.7.3 1 0 .2.2.4.4.4s.4-.2.4-.4l.1-.6h-.9c.1.5.4 3.5-.8 3.2h-.2l.3-.6.6-1.3-.5-.2c.1.6.1 1.5-.3 2-.3.4-1.2.6-1.7.3-.3-.2-.6-.5-.8-.8l-.6.6c.5.4 1.3 1.2 1.9 1.3.5 0 .9-.4 1.2-.7 1-1 1.5-2.4 1.5-3.8 0-.2-.2-.4-.4-.4s-.4.2-.4.4v1c0 .2.2.4.4.4s.4-.2.4-.4V88c0-.2-.2-.4-.4-.4s-.4.2-.4.4c0 .6-.1 1.2-.2 1.8l.9.1c-.1-.7-.1-1.5-.1-2.2 0-.2-.2-.4-.5-.4-.2 0-.4.1-.4.3-.1.6-.3 1.1-.5 1.7l.8-.1-.1-.2c0-.6-.9-.6-.9 0 0 .2.1.5.2.7.2.4.7.2.8-.1.2-.6.3-1.1.5-1.7l-.9-.1c0 .7 0 1.4.1 2.1 0 .5.8.7.9.1.1-.7.2-1.4.2-2h-.9v2.5h.9v-1h-.9c.1 1.1-.3 2.2-1.1 3.1-.1.1-.2.3-.4.4-.2.2-.4.2-.6-.1-.4-.2-.9-.6-1.2-.9-.4-.3-.9.3-.6.6.7.9 1.7 1.9 3 1.5 1.3-.5 1.5-2.3 1.4-3.5 0-.4-.6-.7-.8-.2-.3.6-.6 1.3-.9 1.9-.1.2-.3.5-.3.8.1.7.9.6 1.4.5 1.9-.1 1.6-2.9 1.4-4.3-.1-.5-.7-.4-.9 0-.1.3-.1.6-.1.8h.9c0-.5-.2-1-.4-1.5-.1-.2-.4-.3-.6-.2-.1 0-.1.1-.2.2-.3.5-.4 1-.5 1.5l.9.1v-1.9c0-.2-.2-.4-.4-.4s-.4.2-.4.4c0 1-.1 2-.2 3l.9-.1c-.1-.5-.3-1-.5-1.4-.1-.2-.4-.3-.6-.2-.1 0-.1.1-.2.2-.4.9-1 1.8-1.7 2.5l.8.2-.1-.7c-.1-.4-.6-.4-.8-.1-.3.5-.4 1-.3 1.5.1.4.6.4.8.1.3-.4.6-.9.9-1.4l-.9-.4c-.2.4-.3.9-.4 1.4-.1.4.4.8.8.4.6-.7 1.1-1.5 1.4-2.5.1-.4-.5-.8-.8-.4l-1.5 2.1.8.3.9-3.4c.1-.2-.1-.5-.3-.5-.2 0-.4 0-.5.2l-1.8 2.6c-.3.5.4.9.8.5l2.4-3.2c.4-.5-.4-.9-.8-.5zm38.1 10.8c3.6-2.2 6.4-5.5 9.6-8.2 3.4-3 7-5.7 10.8-8.4 7.2-5.1 14.8-9.6 22.4-14.2.2-.1.3-.4.1-.6-.1-.2-.4-.3-.6-.2-7.6 4.5-15.2 9.1-22.4 14.2-3.4 2.4-6.7 4.9-9.9 7.6-3.5 2.9-6.6 6.6-10.5 8.9-.4.4 0 1.2.5.9z"/><path class="st1" d="M174.4 54.7c-3.9.4-8.1 1.4-10.5 4.8-2.1 2.9-2 8-.1 11 2.2 3.4 6.7 3.5 10.2 2.4 3.5-1.1 7.1-3 7.1-7.2 0-2.2-.8-4.6-1.7-6.6-.8-1.8-2.1-3.3-4.2-3.1-.6.1-.6 1 0 .9 2.8-.3 3.7 3 4.3 5.1.6 1.9 1.2 4.2.2 6.2-.9 1.9-3.2 2.9-5.1 3.6-2.1.8-4.4 1.2-6.6.6-4.3-1.2-5.5-6.7-4.3-10.6 1.4-4.5 6.5-5.8 10.7-6.2.6-.1.6-1 0-.9zm6 34.6c-3.9.4-8.1 1.4-10.5 4.8-2.1 2.9-2 8-.1 11 2.2 3.4 6.7 3.5 10.2 2.4 3.5-1.1 7.1-3 7.1-7.2 0-2.2-.8-4.6-1.7-6.6-.8-1.8-2.1-3.3-4.2-3.1-.6.1-.6 1 0 .9 2.8-.3 3.7 3 4.3 5.1.6 1.9 1.2 4.2.2 6.2-.9 1.9-3.2 2.9-5.1 3.6-2.1.8-4.4 1.2-6.6.6-4.3-1.2-5.5-6.7-4.3-10.6 1.4-4.5 6.5-5.8 10.7-6.2.6 0 .6-.9 0-.9z"/><path class="st1" d="M168.6 63.4l2.8 3.2c.2.2.5.2.6 0 .1-.1.1-.1.1-.2.6-1.6.5-3.2.6-4.9.2-1.7.6-3.4 1.3-5 1.4-3.2 3.7-5.9 6.7-7.7.5-.3 0-1.1-.5-.8-2.9 1.8-5.3 4.3-6.8 7.4-.7 1.5-1.2 3.1-1.5 4.7-.3 1.9 0 4-.7 5.8l.8.1-2.8-3.2c-.4-.5-1 .2-.6.6zm-47 39.4c15.4-.5 30.8-.6 46.3-.3.6 0 .6-.9 0-.9-15.4-.3-30.8-.2-46.3.3-.6 0-.6.9 0 .9zm49.5-8.9c5.3 2.1 10.3 4.6 15.1 7.6.5.3.9-.5.5-.8-4.9-3-10-5.6-15.3-7.7-.6-.1-.8.7-.3.9z"/><path class="st1" d="M180.6 89.9c-5.3 6.2-8.4 14.1-8.8 22.3 0 .6.9.6.9 0 .3-8 3.3-15.6 8.5-21.6.5-.5-.2-1.2-.6-.7zM61.1 99.5l33.4-.4 3.8-.1h2.1c1 0 1.6.8 1.6 1.8 0 2.1-1.4 2-3.1 2.1l-4.2.2-16.9.7c-3 .1-6.1.3-9.1.4-2.7.1-7.9-.8-6.7-4.8.2-.6-.7-.8-.9-.2-.6 2 .5 3.9 2.2 5 2.4 1.5 5.6 1 8.3.8l20.8-.9 5-.2c1.3-.1 3.1.2 4.3-.4 1.4-.7 1.6-3.5.8-4.7-.5-.6-1.1-.7-1.8-.7-1.9-.1-3.8.1-5.6.1l-10.3.1-23.6.3c-.7 0-.7.9-.1.9z"/><g id="b30eccf6-7cfe-48df-9caa-415a128bd568"><path class="st5" d="M196.1 209.4c-.8.5-1.6.7-2.4 1.2-.8.4-1.5 1-1.8 1.9-.1.3-.1.6 0 .8.2.3.5.5.8.7 3.2 1.4 6.8 1.5 10 .1.6-.3 1.1-.5 1.7-.7.7-.1 1.5-.2 2.2-.2.8 0 1.6-.1 2.3-.3.4 0 .8-.2 1.1-.4.3-.3.4-.7.5-1.1.4-2.3-.2-4.7-1.5-6.7-.2-.3-.4-.5-.7-.7-.3-.2-.7-.3-1-.3-1.5-.2-3.1-.5-4.6-.6-1.1 0-1.6.5-2.4 1.2-1.4 1.6-2.3 3.9-4.2 5.1zm22-.2c0 1.5.2 3 1.1 4.2.4.5.9.9 1.5 1.3 1.9 1.2 4.4 1.6 6.3.6.3-.1.6-.4.8-.7.3-.5.1-1.2 0-1.7l-2.9-9.9c-1.9.3-4.6.5-6.2 1.4-1.2.6-.6 3.4-.6 4.8z"/><path class="st6" d="M194.4 148.1c-.2.5-.8.8-1.1 1.3-.4.5-.4 1.3-.2 1.9.2 1 .6 1.9 1.3 2.6.7.7 1.7 1.1 2.7.9 1-.2 1.8-1 1.8-2 0-.4-.1-.9-.3-1.3l-2-5.9c0-.1-.1-.2-.1-.2h-.2c-.5.2-1.4.5-1.7 1-.4.5 0 1.1-.2 1.7z"/><path class="st5" d="M193.4 147.8c.7-.1 1.4-.6 2.1-.8s1.6-.4 2.2.1c.2.1.3.3.5.3-.3-1.5-.7-2.9-1.3-4.3 0-.1-.1-.1-.1-.2h-.3l-2 .5c-.7.2-.8.1-.8.9.1.3.2 3.5-.3 3.5z"/><path class="st7" d="M193.2 105.2c-.3.5-.3 1-.3 1.6 0 2.6 0 5.3.4 7.9.1.6.2 1.3.3 1.9.1.9.1 1.8 0 2.7l-.3 11.5c0 1.4-.1 2.9-1 4-.3.4-.4.8-.3 1.3.2 2.9.7 5.8 1.2 8.6 1.6-.7 3.3-.6 4.8.2 1.5-4.7 2.3-9.7 2.5-14.6.1-2.4 0-4.9.3-7.3.6-4.1.4-8.2-.1-12.3-.1-1.3-.5-2.6-1.3-3.6-.8-.9-1.8-1.5-3-1.7-1-.5-2-.2-3.2-.2z"/><path class="st4" d="M193.2 105.2c-.3.5-.3 1-.3 1.6 0 2.6 0 5.3.4 7.9.1.6.2 1.3.3 1.9.1.9.1 1.8 0 2.7l-.3 11.5c0 1.4-.1 2.9-1 4-.3.4-.4.8-.3 1.3.2 2.9.7 5.8 1.2 8.6 1.6-.7 3.3-.6 4.8.2 1.5-4.7 2.3-9.7 2.5-14.6.1-2.4 0-4.9.3-7.3.6-4.1.4-8.2-.1-12.3-.1-1.3-.5-2.6-1.3-3.6-.8-.9-1.8-1.5-3-1.7-1-.5-2-.2-3.2-.2z"/><path class="st8" d="M196.9 138.6c-2 10.3-.9 20.9 3.1 30.6.4.7.6 1.5.7 2.3.2 1.5-.5 2.9-.9 4.3-.9 3.2-.4 6.7.2 10 .2 1.4.5 2.7.7 4.1.2 1.3.5 2.8-.1 4 .5 2.2.9 4.4 1.4 6.7.1.2.1.4.1.5-.1.3-.3.5-.5.7-.8.8-1.1 2-.8 3.1 1.4-1 3.3-.6 4.8 0 1.6.6 3.1 1.5 4.8 1.5-.2-2-.5-4.1.2-5.9.4-1.1 1.2-2.1 1.2-3.2 0-1-.7-2-.8-3-.1-.6 0-1.3.1-1.9.4-3.7-.1-7.4-.5-11-.1-.7-.2-1.4-.5-2.1-.2-.4-.5-.8-.5-1.3 0-.6.5-1 .6-1.5.3-1-.3-2.3.6-2.9 2.2-1.6 1.3-5.4 1.3-8.1 0-2.3-.1-4.7-.3-7 1.4 3.9 1.9 8 1.6 12.1-.1 1.3-.3 2.7.3 4 .4 1 1.2 1.7 1.4 2.7.1.6 0 1.3.1 1.9s.2 1.3.8 1.6c0 2.9.3 6 .3 8.8 0 1.5.1 2.9.4 4.4.1.5.2.9.2 1.4-.1.6-.2 1.2-.5 1.7-1.1 3.1-.5 6.6 1.5 9.2.7-1.3 2.2-1.9 3.6-2 1.4-.1 2.9.3 4.2.6-.2-1.7.1-3.5 1-5.1.2-.3.4-.7.5-1.1.2-.8-.2-1.5-.4-2.3-.3-1.2-.2-2.5-.1-3.7.3-4.2.1-8.4-.6-12.5-.1-.8-.3-1.6-.6-2.4-.1-.3-.2-.5-.3-.8-.1-.5-.2-1-.2-1.5l-.3-4.8c-.2-3.4.9-6.7 1.6-9.9.3-1.5.7-2.9.9-4.4.3-2 .4-4.1.8-6.1.4-1.8 1.2-3.5 1.3-5.4.2-2.8-.9-5.6-2.1-8.2-.5-1.1-2.3-1-3.4-1.2-8.2-1.4-16.9-1.4-24.7 1.7-.9.2-1.6.7-2.2 1.4z"/><path class="st6" d="M202.8 85.5l.9 3.6c.2.8.4 1.7.4 2.5 0 .3-.1.6-.2.9-.2.2-.3.4-.6.6-.6.5-1.1 1.6-1.8 1.9.4.6.9.2 1.5.5 1.2.6 2.2 1.4 3.5 1.7 1.2.3 2.5 0 3.6-.3 1.7-.5 3.4-1.1 4.7-2.2 1.4-1.1 2.1-2.1 2.1-3.8-1.5.2-2.8-1.3-3.5-2.7-.2-.5-.4-1.1-.5-1.6l-.8-3.5c-.9.2-1.6.8-2.4 1.1s-1.8.4-2.7.4c-1.6.1-3.3.3-4.9.6-.2 0-.5.2-.4.4"/><path class="st4" d="M202.8 85.5l.9 3.6c.2.8.4 1.7.4 2.5 0 .3-.1.6-.2.9-.2.2-.3.4-.6.6-.6.5-1.1 1.6-1.8 1.9.4.6.9.2 1.5.5 1.2.6 2.2 1.4 3.5 1.7 1.2.3 2.5 0 3.6-.3 1.7-.5 3.4-1.1 4.7-2.2 1.4-1.1 2.1-2.1 2.1-3.8-1.5.2-2.8-1.3-3.5-2.7-.2-.5-.4-1.1-.5-1.6l-.8-3.5c-.9.2-1.6.8-2.4 1.1s-1.8.4-2.7.4c-1.6.1-3.3.3-4.9.6-.2 0-.5.2-.4.4"/><circle class="st6" cx="206.7" cy="79.6" r="7.9"/><path class="st5" d="M208.9 92.6c.4-.9 1-1.7 1.8-2.4 1.1-1 2.6-1.8 2.9-3.2l2.4 2.8c.1.1.2.3.3.5.1.3 0 .7-.2.9-.6 1-1.5 1.6-2.4 2.3-2 1.6-4 3.3-5.9 5.2-.1.1-.2.2-.3.2-.1 0-.2 0-.3-.1-1.6-.8-3-2-4.2-3.4-.1-.1-.2-.2-.3-.2-.1 0-.2.1-.2.1-.8.7-1.7 1.4-2.7 1.3 1.3-1 2.1-2.6 2.4-4.2.1-.6.2-1.1.3-1.6.2-.5.6-1 1.2-1.1-.7 1-.2 2.4.7 3.2.9.7 1.9 1.2 3 1.4.9.2 1.2-.9 1.5-1.7zm-10.3 46.8c1.1.3 2.2.8 3.3 1.1 2 .6 4.1.8 6.2.6.6 0 1.3-.2 1.8-.6.1-.1.3-.2.4-.4.2-.2.5-.3.8-.3 2.7-.9 5-2.7 7.3-4.5.1-.1.2-.1.1-.2 0-.1 0-.1-.1-.2l-1.2-1.3c-3.1.5-6.2.3-9.3.2-.6 0-1.3 0-1.9.1-.6.1-1.2.2-1.8.4-2.3.5-4.7.7-7 1-.2 0-.3.1-.5.1-.1.1-.2.2-.2.3l-.8 1.2c-.3.4-.6.8-.7 1.3-.2.9.2 1.2 1 1.1.8-.2 1.7-.1 2.6.1z"/><path class="st7" d="M207.8 97.3c-.9-.9-2-1.7-3.1-2.4-.5-.3-1-.5-1.5-.6-.5-.1-1.1 0-1.5.4-.3.2-.4.6-.7.8-.3.3-.7.5-1.1.6-1.4.6-2.7 1.3-3.8 2.2-.7.5-1.2 1-1.7 1.6-1.4 1.7-1.6 4.1-1.5 6.3 0 1.5 1.5 2.7 2.5 3.8.9 1.1 1.8 2.3 2.6 3.6.5.9 1.1 1.8 1 2.8-.1.8-.5 1.6-.5 2.5 0 .3.1.6.1.9.1.6-.2 1.2-.2 1.8-.1.8.2 1.7.2 2.5 0 .6-.1 1.2-.2 1.7-.6 2.7-1.3 5.5-1.1 8.3l-1.7.3c.6.5.6 1.4 0 2l-.3.3c2.6.9 5.4.4 8.1.4 2.3 0 4.5.3 6.8.3s4.6-.5 6.5-1.7c.5-.3 1-.8 1.5-1.1.7-.4 1.5-.6 2.3-.7 1.5-.3 3-.4 4.5-.4.7 0 1.5 0 2.1-.4.6-.5.8-1.4.9-2.2.1-.8.1-1.7.2-2.6 0-.7 0-1.3-.1-2-.1-.5-.2-1-.3-1.4l-1.1-4c-.5-1.6.2-3.4.3-5.1 0-.4 0-.9-.3-1.1-.1-.1-.3-.2-.3-.3 0-.1 0-.3.1-.4.6-1.2 1.5-2.3 2.3-3.3 1.4-1.9 2.7-3.9 3.8-5.9-.4-4.2-2.2-8.2-5.1-11.3-.6-.6-1.3-1.3-2.1-1.6-.5-.2-1.1-.3-1.7-.3-2.3-.2-4.8-.3-6.8-1.5-.1-.1-.3-.2-.5-.2-.5-.1-.8.4-1.1.7-.8.9-1.9 1.4-2.8 2.1-2 1.2-3.4 2.9-4.7 4.6z"/><path class="st7" d="M232.6 105.9c.5 1.5.4 3.1.6 4.6.1.9.3 1.8.5 2.8.1.5.3 1 .6 1.4.3.4.7.7.8 1.2.1.3.1.6.1.9v2.1c.1 1.1-.1 2.2-.5 3.2l-1.3 3.9c-.7 2.1-1.4 4.3-2.7 6.1-.2.3-.4.6-.8.7-.3.1-.5.1-.8.1-.9.2-1.6 1-1.6 1.9-.3-.4-.7-.8-1.1-1.1l-2.6-2.1c-.9-.7-1.8-1.5-2.9-1.9 3-.9 5.1-3.5 5.5-6.7 0-.5.1-.9.3-1.3.2-.4.6-.6.7-1 0-.5-.6-.9-.6-1.4 0-.3.3-.6.4-1 .1-.4.1-.8 0-1.2l-.4-2c0-.2-.1-.4-.2-.6-.1-.2-.3-.3-.4-.5-.6-.7-.3-1.8 0-2.7.8-1.9 1.8-3.7 3.1-5.4.4-.6.8-1.1 1.2-1.7.3-.5.4-1.3.7-1.8.5 1.2 1.1 2.3 1.4 3.5z"/><path class="st5" d="M220.9 129.8c-.1.1-.2.2-.3.4-.4.4-.8.8-1.4 1l.9.6c2.1 1.6 4 3.4 5.7 5.4.2-.7 1.3-.6 1.6-1.3.1-.2.1-.4.1-.6-.1-1-.2-2-.4-3-.1-.5-.3-1-.6-1.4-.4-.5-1.1-.7-1.7-1-1.1-.2-3-.6-3.9-.1z"/><path class="st6" d="M217.1 132.2c-.9.7-1.7 1.5-2.7 1.9-.7.3-1.5.5-2.1.9.3.7 1.2 1.1 2 1.1.8-.1 1.6-.4 2.3-.8.5-.3 1.2-.7 1.7-.5.1.5-.3.9-.3 1.3s.4.8.8 1c1.8 1.2 4.1 1.1 6.2.9.1 0 .2 0 .3-.1.1-.1.1-.3.1-.4v-1.4c.1-.8-.2-1.6-.9-2-1.2-1-2.4-1.9-3.7-2.6-1.1-.6-2.5-.2-3.7.7z"/><path class="st8" d="M209.5 76.3c-1.3.2-2.3 1.2-2.2 2.3.1 1.1 1.3 1.9 2.6 1.7s2.3-1.2 2.2-2.3c-.1-1.1-1.2-1.9-2.6-1.7zm.5 3.7c-1.1.1-2.1-.5-2.2-1.5-.1-1 .7-1.8 1.8-2 1.1-.1 2.1.5 2.2 1.5.1 1-.7 1.9-1.8 2zm-6.9-3c-1.3.2-2.3 1.2-2.2 2.3s1.3 1.9 2.6 1.7 2.3-1.2 2.2-2.3c-.1-1.1-1.3-1.8-2.6-1.7zm.4 3.8c-1.1.1-2.1-.5-2.2-1.5-.1-.9.7-1.8 1.8-2 1.1-.1 2.1.5 2.2 1.5s-.7 1.8-1.8 2z"/><path class="st8" d="M198.3 77.6l2.8.6-.2.8-2.8-.8zm16-1.9l-2.6 1.3.4.6 2.5-1.4zm-8.9 2.3l2.1-.2-.1.5-1.8.1z"/><path d="M201.5 77.4c.2-.4.3-.9.3-1.3 0-.3.1-.5.1-.8.1-.3.4-.6.7-.8.9-.8 2.3-1.2 3.6-1.3 1.4-.1 2.9.2 4.1.9.4.2.7.4 1 .8.4.5.5 1.2.9 1.7.6.6 1.5.9 2.3.7.1-.5 0-1.1 0-1.6.1-.5.3-.9.5-1.3.5-1.4-.2-3-1.6-3.8-.5-.3-1.1-.5-1.4-.9-.4-.4-.5-.8-.7-1.2-.7-1.1-2.4-1.6-3.7-1.1l-1.2.6c-.8.3-1.7.4-2.5.5-.8.1-1.7.3-2.4.6-.7.4-1.4 1-1.5 1.6-.1.3-.1.7-.1 1-.4 1.6-3.1 2.4-3.2 4.1-.1.6.3 1.2.7 1.7.3.3 1 1.2 1.4 1.3.5.1.8-.3 1.3-.5.6-.3 1.1-.3 1.4-.9z" fill="#cbceda"/></g><path class="st2" d="M235.2 182.6c0 15 9.4 27.2 21.1 27.2"/><path class="st1" d="M256.3 209.8c0-15.2 10.5-27.5 23.5-27.5m-36.9 1.7c0 14.3 6 25.8 13.4 25.8"/><path class="st2" d="M256.3 209.8c0-19.4 12.2-35.1 27.2-35.1"/><ellipse class="st0" cx="255.4" cy="214.1" rx="5.2" ry=".9"/><path class="st10" d="M251.9 210s3-.1 3.9-.7 4.6-1.4 4.8-.4c.2 1 4.5 5.1 1.1 5.1s-7.8-.5-8.7-1.1c-.9-.5-1.1-2.9-1.1-2.9z"/><path class="st11" d="M261.7 213.7c-3.4 0-7.8-.5-8.7-1.1-.7-.4-1-1.9-1-2.6h-.1s.2 2.4 1.1 3c.9.5 5.4 1.1 8.7 1.1 1 0 1.3-.4 1.3-.9-.2.3-.5.5-1.3.5z"/><path class="st2" d="M6.7 191.4c0 12 7.5 21.6 16.8 21.6"/><path class="st1" d="M23.5 213c0-12.1 8.4-21.9 18.7-21.9m-29.4 1.4c0 11.4 4.8 20.5 10.7 20.5"/><path class="st2" d="M23.5 213c0-15.4 9.7-27.9 21.6-27.9"/><ellipse class="st0" cx="22.8" cy="216.4" rx="4.2" ry=".7"/><path class="st10" d="M20 213.2s2.4-.1 3.1-.6c.7-.5 3.7-1.1 3.8-.3s3.6 4.1.9 4.1-6.2-.4-6.9-.9c-.8-.4-.9-2.3-.9-2.3z"/><path class="st11" d="M27.8 216.1c-2.7 0-6.2-.4-6.9-.9-.5-.3-.8-1.5-.8-2.1H20s.1 1.9.9 2.4c.7.4 4.3.9 6.9.9.8 0 1-.3 1-.7-.1.2-.4.4-1 .4z"/></svg>