<svg version="1.1" id="Layer_1" xmlns="http://www.w3.org/2000/svg" x="0" y="0" viewBox="0 0 141.7 98.6" xml:space="preserve"><style>.st2{fill:#e9425e}.st3{opacity:.1;enable-background:new}.st3,.st4{fill:#ebaf41}.st5{fill:#444053}.st6{fill:none;stroke:#444053;stroke-width:.1147;stroke-miterlimit:10}.st8{fill:#d2d4de}.st9{opacity:.1;enable-background:new}.st11{fill:#dfe3ef}.st12{fill:#fff}.st14{fill:#65617d}.st15{fill:#fbbebe}.st16{fill:#e7effd}.st17{fill:#3f3d56}.st19{opacity:.1}.st20,.st21{opacity:.2;fill:#ebaf41;enable-background:new}.st21{opacity:.5}.st23{fill:#2d293d}.st24{fill:#575988}.st25{opacity:5.000000e-02;enable-background:new}.st27{fill:#ffcdd3}.st28{fill:#dce6f2}.st29{fill:#656691}.st30{opacity:.1;fill:#fff;enable-background:new}.st31{fill:#efb7b9}.st32{fill:#925978}.st33{fill:#4c4981}.st37{fill:#3c6fe9}.st38{fill:#31b096}.st40{fill:#f5f5f5}.st41{opacity:.7}.st42{fill:#31b096}.st42,.st43,.st44{opacity:.7;enable-background:new}.st43{fill:#e9425e}.st44{fill:#ebaf41}</style><path fill="#18243f" d="M14.5-450h176v132.7h-176z"/><path fill="#153559" d="M190.5-450h177v132.7h-177z"/><path class="st2" d="M367.5-450h75.8v132.7h-75.8z"/><path class="st3" d="M73.9 20c-8.2 1.4-16.4.6-24.3-.4-7.9-1-15.8-2.3-24-2.1-5.3.2-11.1 1.2-14.8 4.4-3.5 3.1-4 7.3-4 11 0 2.8.3 5.8 2.2 8.1 1.3 1.6 3.4 2.7 4.9 4.2 5.4 5.1 3.9 13 .4 19.8-1.6 3.1-3.6 6.2-4.6 9.5s-1.2 6.7.8 9.4c2 2.6 5.9 4.2 9.9 5 8.1 1.7 17.2.8 25.9-.4 19.3-2.7 38.4-6.9 57.5-11.2 7.1-1.6 14.1-3.2 20.9-5.5 3.8-1.3 7.6-2.9 10-5.5 3.1-3.3 3.1-7.8.1-10.5-5.1-4.6-16.4-3.7-20.4-8.9-2.2-2.9-1.3-6.7.4-10.1 3.6-7.3 10.5-14.4 9.5-21.7-.7-5-5.6-9.2-12-10.4-6.8-1.2-15.4.8-19.3 5.8-3.8 5-11.8 8.3-19.1 9.5z"/><path class="st4" d="M126.7 25.8s-1.6-.7-6.7 1.7-5.8 2.1-7.1 1.7c-1.3-.4-2.1-.4-3.5-2.4 0 0-1-5.4-2-6.3-1-.8-5.1.5-5.1.5s-5 1.1-5.9-5.5c0 0 .7-5-.2-6.5 0 0 1.8.8 4.9-.5s5.5 1.4 5.5 1.4.8 2 .7 3.2c-.1 1.2.4 1.6 1.9 1.1 0 0 .7-1-.3-2.7s-1.7-2.9-1.4-4.2 1.1-3.1 3.7-4c2.6-.9 6.1-1.1 7.8-1.8 1.7-.7 2.1-1.2 2.1-1.2s-1 1 1.4 5.5c2.5 4.4.9 6.4.9 6.4s-1.3 3.1-7.1 2.9c0 0-5.6.2-2.5 2.6 0 0 1.9-.4 4.8-1.3s5 2.9 5.5 5.5c.4 2.4 2.6 3.9 2.6 3.9z"/><path class="st5" d="M119.3 3.6c.3.8-2.2 4.2-4.4 6.9 3-3.8 4.5-6.3 4.4-6.9zm-4.4 6.8c-1.7 2.2-3.8 4.8-5.5 6.7-.2.2-.3.4-.5.6.2-.2.3-.4.5-.6 1.7-2 3.8-4.5 5.5-6.7zm-6 7.2c-3.1 3.9-3.3 10-3.3 10l-.7-.8c.1 0 .9-5.3 4-9.2z"/><path class="st6" d="M123.1 23.7s-3.7-1.9-6.5-1.2-9.3-2.4-9.3-2.4-2.7-1.1-3.3-2.4c0 0-1.9-2-2-3s-1.9-3.6-3.1-3.7m23.7 14.5s-1.8-1.2-1.6-2.7m-1.2 4.3s-2.6-1-2.9-4.7m-1.4 5.7s-2.5-2.1-1.7-5.8m-3.4 4.8s-1.7-3.5-.2-5.8m13 0s-1.9.6-1.5 1.6m-.8-5s-2.6.8-2.6 4.4m-1-5.3s-2.3 2.9-2.2 5.5m-1.9-4.3s-2.3 2.2-2 3.4m.6-4.2s-2.2.4-2.5-.3m-.3-2.3s1.1 1.4 1.4 1.1m9.5-2s-5.5.4-6.7-1.2m-5.3-5.2s2.6 5.5 4.4 6.2m-1.7-8.8s1.6 5.1 3.5 6.6"/><path d="M122.2 9.7s-4.2 1.8-6.6 0m-1.3-5.9s.9 3.7 2.2 4.6m5.1-2.9s-2.3.9-3.2.2" stroke-width=".086" fill="none" stroke="#444053" stroke-miterlimit="10"/><path class="st6" d="M107 16s0 3.2-.9 3.5m-6.3.7s3.5.3 5.1-1.5m1.2-6.5s-.8 3.3-3.2 4.2m-5.2.3s2.5.9 4.6-1.3m1.1-6.1s-.2 2.8-1.8 4.1m-3.8-.9s2.1 0 2.5-.7"/><ellipse class="st3" cx="84.4" cy="93" rx="40.6" ry="1.9"/><path class="st4" d="M28.1 94.4s-4.1-.3-3.7 2.7c0 0-.1.5.4.7 0 0 0-.2.4-.1h.4c.2 0 .4-.1.6-.2 0 0 1.2-.5 1.6-2.4 0 0 .3-.4.3-.5l-.7.3s.2.5.1.9c0 0 0-.9-.2-.9l-.4.2s.4.9.1 1.5c0 0 .1-1.1-.2-1.5l-.5.3s.5.9.2 1.6c0 0 .1-1.1-.3-1.6l-.4.3s.5.9.2 1.5c0 0 0-1.3-.3-1.4 0 0-.4.3-.4.5 0 0 .3.6.1 1 0 0-.1-.9-.2-.9 0 0-.4.6-.4 1 0-.4.1-.7.3-1-.2 0-.4.1-.6.3 0 0 .1-.4.7-.4 0 0 .3-.4.4-.5 0 0-.6-.1-1 .1 0 0 .3-.4 1.1-.2l.4-.4s-.8-.1-1.2 0c0 0 .4-.3 1.3-.1l.5-.3s-.7-.2-1.1-.1c0 0 .4-.2 1.3 0l.3-.2s-.5-.1-.7-.1-.2-.1-.2-.1c.3-.1.7 0 1 .1 0 .2.8-.1.8-.1zm-7.3.1s-2.3-.1-2.1 1.5c0 .2.1.3.2.4 0 0 0-.1.2-.1h.3c.1 0 .2-.1.3-.1 0 0 .7-.3.9-1.3.1 0 .3-.2.2-.4l-.3.2c.1.2.1.4 0 .5 0 0 0-.5-.1-.5l-.2.1s.2.5.1.9c0 0 .1-.6-.1-.8l-.3.2s.3.5.1.9c0 0 0-.6-.1-.9l-.3.2s.3.5.1.9c0 0 0-.7-.2-.8l-.3.3s.2.4.1.6l-.1-.5s-.2.3-.2.6c0-.2.1-.4.2-.6-.1 0-.2.1-.3.2 0 0 0-.2.4-.3.1-.1.1-.2.2-.3-.2 0-.4 0-.6.1 0 0 .2-.2.6-.1l.2-.2s-.5-.1-.7 0c0 0 .2-.2.7-.1l.3-.2c-.2 0-.4-.1-.6-.1 0 0 .2-.1.7 0l.2-.1s-.3-.1-.4-.1h-.1c.2 0 .4 0 .5.1.1 0 .5-.2.5-.2z"/><ellipse class="st3" cx="19.2" cy="96.6" rx="1.7" ry=".3"/><path class="st4" d="M25.2 91s-2.8-.2-2.5 1.8c0 .2.1.4.3.5 0 0 0-.1.3-.1h.3c.1 0 .3-.1.4-.2 0 0 .8-.3 1.1-1.6 0 .1.2-.2.1-.4l-.4.3s.2.3 0 .6c0 0 0-.6-.1-.6l-.2.1s.3.6.1 1c0 0 .1-.7-.2-1l-.3.2s.3.6.1 1.1c0 0 .1-.8-.2-1.1l-.3.4s.3.6.1 1c0 0 0-.9-.2-1l-.3.3s.2.4.1.7l-.1-.6s-.3.4-.3.7c0-.3.1-.5.2-.7-.2 0-.3.1-.4.2 0 0 0-.3.5-.3 0 0 .2-.3.3-.3 0 0-.4 0-.7.1 0 0 .2-.3.8-.1l.3-.2s-.6-.1-.8 0c0 0 .3-.2.9-.1l.3-.2c-.3-.1-.5-.1-.8-.1 0 0 .3-.2.9 0l.2-.1s-.4-.1-.5-.1h-.1c.2 0 .5 0 .7.1 0 0 .5-.2.4-.3z"/><ellipse class="st3" cx="23.3" cy="93.5" rx="2" ry=".3"/><path class="st8" d="M83.6 90.2v.9H57.1v-.7c4.5-1.7 6.8-6.7 5.1-11.2-.8-2.2-2.4-3.9-4.5-4.9h25.8c-2.4 1.1-4.2 3.2-4.8 5.8-.9 3.5.5 7.1 3.4 9.2.4.3.9.6 1.5.9z"/><path class="st9" d="M83.4 74.2c-2.4 1.1-4.2 3.2-4.8 5.8H62.5c-.7-2.6-2.4-4.7-4.8-5.8h25.7z"/><path class="st8" d="M26.7 69.6v5c0 2.8 2 5 4.5 5h78.1c2.5 0 4.5-2.3 4.5-5v-5H26.7z"/><path class="st9" d="M83.6 90.2v.9H57.1v-.7c.7-.3 1.4-.6 2-1.1H82c.5.3 1 .6 1.6.9z"/><path class="st8" d="M49.4 89.5h41.9c.6 0 1.1.5 1.1 1.1v.5c0 .6-.5 1.1-1.1 1.1H49.4c-.6 0-1.1-.5-1.1-1.1v-.5c0-.6.5-1.1 1.1-1.1z"/><path d="M113.8 14.5c0-2.5-2-4.5-4.5-4.5H31.2c-2.5 0-4.5 2-4.5 4.5v56.2h87.2V14.5z" fill="#30374e"/><path class="st11" d="M111.5 16.5v48.3c0 1.2-1 2.2-2.2 2.2h-78c-1.2 0-2.2-1-2.2-2.2V16.5c0-1.2 1-2.2 2.2-2.2h77.9c1.3-.1 2.3.9 2.3 2.2z"/><circle class="st12" cx="70.3" cy="12.1" r="1"/><circle class="st12" cx="70.3" cy="74.9" r="2.6"/><path class="st12" d="M111.5 16.5H29.1c0-1.2 1-2.2 2.2-2.2h77.9c1.3-.1 2.3.9 2.3 2.2z"/><circle class="st11" cx="31.3" cy="15.4" r=".6"/><circle class="st11" cx="33" cy="15.4" r=".6"/><circle class="st11" cx="34.6" cy="15.4" r=".6"/><path class="st12" d="M36.8 22.7h66.5v38.9H36.8z"/><linearGradient id="SVGID_1_" gradientUnits="userSpaceOnUse" x1="-488.387" y1="-14.534" x2="-488.387" y2="10.433" gradientTransform="matrix(1 0 0 -1 604.25 77.721)"><stop offset="0" stop-color="gray" stop-opacity=".25"/><stop offset=".54" stop-color="gray" stop-opacity=".12"/><stop offset="1" stop-color="gray" stop-opacity=".1"/></linearGradient><path d="M121.9 75.1c0-.1-.2-.4-.2-.5 0 0-.2-.2-.2-.3s-.2-.4-.2-.4-.3-.1-.4-.4c0-.3-.4-.3-.4-.3v-.5c0-.1-.1-.1-.2-.2 0-.1-.1-.2-.1-.3-.1-.1-.1-.2-.1-.3 0-.1 0-.4-.2-.4s-.4-.1-.4-.1h-.2c-.1-.1-.6-.2-.6-.2-.1 0-.2-.1-.4-.1l-.3-.2c-.1-.1-.2-.2-.2-.3 0-.1 0-.1-.1-.2.1-.1.2-.2.2-.3.1 0 .1-.1.1-.2v-.1c.1-.2.1-.3.2-.5v-.4c0-.1 0-.3-.1-.4 0-.1-.1-.2-.2-.3-.1-.2-.1-.4-.2-.5-.1-.3-.5-.4-.8-.3-.1 0-.2.1-.4.2s-.4 0-.6 0c-.2 0-.4 0-.5.1-.2.1-.2.4-.4.6-.1.1-.2.1-.2.2-.1 0-.1.1-.1.2 0 0 0 .1.1.1v.1s0 .1-.1.1c-.1.1-.2.3-.3.4v.1h.3c0 .5.3 1 .8 1.3 0 0-.1-.1-.2.1-.1.1-.2.2-.3.2 0 0-1.1.2-1.1.3h-.5s-.2 0-.2.4-.1.4-.1.4-.2.4-.2.6c0 .1-.1.2-.2.3v.3c-.1 0-.2.1-.3.2 0 .1-.1.2-.2.3 0 0-.3.3-.4.5l-.2.1s-.5-.1-.6-.3l-.2-.2v.1l-.1-.1s-.7-.8-1.2-.9c-.1 0-.2.1-.2.2-.1.2-.1.5 0 .7l.7.8.2.2c0 .1 0 .1-.1.2v.1c.2.1 1.3.6 1.3.6.2.2.5.2.8.1.2-.1.4-.3.4-.5.1-.2.3-.4.4-.5 0-.1.3-.2.3-.2s0 .8-.1 1.1c-.1.3-.4 1.6-.4 1.6h.1v.1h.1c0 .1-.1.8-.1.8 0 .1 0 .3-.1.4-.1.1-.1.7-.1.7l-.1.4v.1c.1.1.2.3.3.4v.2c0 .1-.1.2 0 .3 0 .2-.1.4-.1.6 0 .2 0 .3-.1.5l-.1 1s-.1.9 0 1.1v.6s.1.7.1.8c0 .1-.1.4-.1.6.1.2 0 .7 0 .7s0 .7.1.9v.5c0 .2 0 .3-.1.5 0 0-.2.3.1.6.3.3.1.3.1.3s-.3-.1-.2.1l.1.2-.1.2-.1.1s-.1.1-.1.2c-.3.3-.5.5-.9.7-.2.1-.3.2-.5.3-.1.1-.1.1.1.2.4.1.9.1 1.3 0 .2-.1.5-.2.6-.4.2-.1.3-.1.5-.1.3 0 .8-.3.8-.3V90s-.1-.3 0-.4c.1-.1.1-.8.1-.8-.1-.1-.1-.2-.2-.2s0-.4 0-.5l.1-1v-.4c0-.1-.1-.6-.1-.6V86c.1-.1 0-.7 0-.7v-.4c0-.2.1-.3.1-.5.1-.1 0-.4 0-.4 0-.2.1-.3.1-.5.1-.3.2-.7.2-.7l.6-1.5c.2.3.2.6.3.9v.7c0 .3 0 .5.1.8l.1 1s.1.8.2.9-.1.5-.1.5v.9s-.1.7-.1.8c0 .1-.1.7 0 .9s0 .2 0 .2.2.2.1.2c-.2 0-.3.2-.3.4l.3.6h.1v.9c0 .1 0 .3-.1.5v.1s0 .3.7.2.8-.4.8-.4v-.3c0-.1-.2-.5-.2-.5s0-.3-.1-.4V90s0-.2.1-.3c.1-.1.1-.2.1-.3 0-.1 0-.3.1-.4v-.2c.1-.1.2-.7.2-.7v-2.9c0-.2-.1-.5 0-.6s0-.5 0-.5 0-.8.1-1c.1-.2.1-1.5.1-1.5v-.8s.2-.2.2-1.2h.5c.1.1.5.3.8.2.1-.1.2-.2.3-.2l-.1-1.8c.1.1.1.2.1.2 0-.3.7-1.1.7-1.1s.7-.9.8-1 .4-.6.4-.6c0-.1.1-.2.1-.3.6.5.4.2.4.1zm-1.6.7c-.2 0-.6.4-.6.5 0 .1 0 .1-.1.2v-.1c0-.5-.1-1.2-.1-1.2v-.6c.1.4.5.8.5.8l.1.2c.2-.1.2.2.2.2z" fill="url(#SVGID_1_)"/><path class="st14" d="M110.6 75.6s.2-1.2.9-1.2l.5 1.1-.3.2c0 .1-.7.1-1.1-.1z"/><path class="st9" d="M112.1 75.5l-.3.2c-.3 0-.6 0-.9-.1-.1 0-.1 0-.2-.1 0-.1.1-.3.1-.4 0-.1 0-.1.1-.2.1-.2.3-.4.4-.5.1 0 .2-.1.2-.1l.2.4.4.8z"/><path class="st14" d="M118 80.4s.7-.1.8 0c.1.1.5.3.7.2.3-.2.1-.8.1-.8v-.9l-.4-.6-.6-1.1-1.1-.1v2.6l.5.7z"/><path class="st9" d="M118 80.4s.7-.1.8 0c.1.1.5.3.7.2.3-.2.1-.8.1-.8v-.9l-.4-.6-.6-1.1-1.1-.1v2.6l.5.7z"/><path class="st15" d="M111.4 74.4s-.1.7-.5.7c0 0-.1-.1-.3-.2-.4-.3-1-.9-.9-1.4.3-.8 1.5.6 1.5.6l.1.1.1.2z"/><path class="st9" d="M111.4 74.4s-.1.7-.5.7c0 0-.1-.1-.3-.2.1 0 .2.1.2.1.1 0 .3-.1.3-.2s.1-.2.1-.3v-.2l.2.1z"/><path class="st16" d="M111.2 75.8l-.1-.1-.3-.4-.2-.2c.1 0 .2.1.2.1.1 0 .3-.1.3-.2s.1-.2.1-.3c.1-.2.1-.2 0-.3l.2.2.2.3c.1.1.2.8-.4.9z"/><path class="st14" d="M114.8 91.1s-.5.3-.8.3c-.2 0-.3 0-.5.1-.2.2-.4.3-.6.4-.4.1-1 .1-1.3 0-.2-.1-.2-.1-.1-.2s.3-.2.5-.3c.3-.2.6-.5.9-.7 0-.1 0-.1.1-.2l.1-.1c.1-.1.1-.2.1-.2h1.5v.5l.1.4zm3.1.4v.3s-.1.3-.8.4c-.7.1-.7-.2-.7-.2v-.1c0-.2 0-.3.1-.5v-1l1.1-.1v.3c.1.1.1.4.1.4s.2.4.2.5z"/><path class="st9" d="M114.6 90.2v.2c-.2 0-.9.1-1 .1-.2-.1-.4-.1-.6-.1.1-.1.1-.2.1-.2h1.5zm2.9.3c-.3 0-.9.1-1.1.1v-.2l1.1-.1v.2z"/><path class="st17" d="M118.1 81.5v.8s0 1.3-.1 1.5c-.1.2-.1 1-.1 1s.1.4 0 .5c-.1.1 0 .4 0 .6v2.9s-.1.6-.1.7c0 .1-.1.1 0 .2 0 .1 0 .3-.1.4 0 .1 0 .2-.1.3-.1.1-.1.3-.1.3-.3-.1-1.3.1-1.3.1l-.3-.6c-.1-.2 0-.4.2-.4.1 0-.1-.2-.1-.2v-1.1l.1-.8v-.9s.2-.4.1-.5c-.1-.1-.2-.9-.2-.9l-.1-1s-.1-.7-.1-.8v-.7c0-.3-.1-.6-.3-.9l-.6 1.5s-.1.4-.2.7c0 .2-.1.3-.1.5v.4c-.1.2-.1.3-.1.5v1.2s.1.5.1.6v.4s-.1.9-.1 1c0 0-.1.4 0 .4l.2.2s0 .8-.1.8c-.1.1 0 .4 0 .4s-.9.2-1.1.1c-.2-.1-.4-.1-.6-.1l.1-.2s0 .1-.1-.2c0-.2.2-.1.2-.1s.2 0-.1-.3c-.3-.3-.2-.6-.1-.6 0-.2 0-.3.1-.5v-.5c0-.2-.1-.9-.1-.9v-.7c-.1-.2 0-.5.1-.6 0-.1-.1-.8-.1-.8v-1.7l.1-1c0-.2.1-.3.1-.5s0-.4.1-.6v-.3c0-.2.1-.3.1-.5l.6-1.3.3-1.2h3.8v.3c0 .2.1.5.1.8 0 .3.1.7.1 1.1.2 1-.1 1.2-.1 1.2z"/><path class="st15" d="M117.8 71l-.9.9s-1.1-.5-1-.6v-.5c0-.3-.1-.7-.1-.7s2-.3 1.8 0c-.1.1-.1.3 0 .4 0 .3.1.4.2.5z"/><path class="st9" d="M117.6 70.2c-.1.1-.1.1-.1.3-.3.3-.6.6-1 .6-.2 0-.4-.1-.6-.1 0-.3-.1-.7-.1-.7s2-.4 1.8-.1z"/><path class="st15" d="M118 69.6c0 .8-.6 1.4-1.4 1.5-.8 0-1.4-.6-1.5-1.4v-.1c0-.8.7-1.4 1.5-1.4.7 0 1.3.6 1.4 1.4z"/><path class="st9" d="M118.2 79h-1.7c-.8 0-1.6-.1-2-.1-.7.1.3-.6.3-.6.5.1 1.1.2 1.6.2h.2c.6 0 1.3-.1 1.6-.2-.1.1-.1.3 0 .7z"/><path d="M118.2 78.9h-1.7c-.8 0-1.6-.1-2-.1-.7.1.3-.6.3-.6.5.1 1.1.2 1.6.2h.2c.6 0 1.3-.1 1.6-.2-.1.1-.1.4 0 .7z" fill="#e3a79f"/><path class="st9" d="M116.2 71.4l-1.1.5-.9 6.6s.5-.2.8-.1c.3.1 1.2 0 1.2 0h.7c.1.1 1.2-.3 1.2-.3s.2-.5 0-.5 0-.8 0-.8l-.1-4.7-.2-.6-.5-.3-.5.4h-.3l-.3-.2z"/><path class="st16" d="M116.2 71.4l-1.1.5-.8 6.6s.5-.2.8-.1 1.2 0 1.2 0h.7c.1.1 1.2-.3 1.2-.3s.2-.5 0-.5c-.2-.1 0-.8 0-.8l-.1-4.7-.2-.6-.5-.3-.5.4h-.3l-.4-.2z"/><path class="st9" d="M116.1 71.7s.3.4.3.5v.3l-.2.5s-.1.6-.1.7-.2 1.2-.2 1.2l-.3 1.7-.3 2.2.3.6.4-.3.5-3.9.1-.8s.1-1.4.1-1.5c0-.2 0-.3-.1-.5 0 0 .1-.4.4-.4.3-.1 0 0 0 0l-.2-.1-.2.1c.1-.4-.4-.5-.5-.3z"/><path class="st17" d="M116.1 71.6s.3.4.3.5v.3l-.2.5s-.1.6-.1.7-.2 1.2-.2 1.2l-.3 1.7-.3 2.2.3.6.4-.3.5-3.9.1-.8s.1-1.4.1-1.5c0-.2 0-.3-.1-.5 0 0 .1-.4.4-.4l-.2-.1-.2.1c0-.3-.4-.4-.5-.3z"/><path class="st9" d="M115.9 71l-.1.3c0 .3-.1.5-.2.8 0 0 .6-.4.9-.4l-.6-.7z"/><path class="st16" d="M115.9 70.9l-.1.3c0 .3-.1.5-.2.8 0 0 .6-.4.9-.4l-.6-.7z"/><path class="st9" d="M117.6 70.8l-1 .9s.8.5.9.6c.1.1.2-1.2.2-1.2l-.1-.3z"/><path class="st16" d="M117.6 70.7l-1 .9s.8.5.9.6c.1.1.2-1.2.2-1.2l-.1-.3z"/><path class="st9" d="M115.9 71s-.1-.1-.2.1c-.1.1-.2.2-.3.2 0 0-1.1.2-1.1.3h-.5s-.2 0-.2.4-.1.4-.1.4-.2.4-.2.6c0 .1-.1.2-.2.3l.7 1.9s0 .8-.1 1.1-.4 1.6-.4 1.6h.1c0 .1-.1.9-.1.9 0 .1 0 .3-.1.4-.1.1-.1.7-.1.7l-.1.4s.2.5.6.4 1-1.4 1-1.4l.4-1.5.3-1.4.1-1 .1-2.2.2-1.4c.1.1.3-.7.2-.8z"/><path class="st14" d="M115.9 70.9s-.1-.1-.2.1c-.1.1-.2.2-.3.2 0 0-1.1.2-1.1.3h-.5s-.2 0-.2.4-.1.4-.1.4-.2.4-.2.6c0 .1-.1.2-.2.3l.7 1.9s0 .8-.1 1.1c-.1.3-.4 1.6-.4 1.6h.1l-.1.9c0 .1 0 .3-.1.4-.1.1-.1.7-.1.7l-.1.4s.2.5.6.4c.3-.1 1-1.4 1-1.4l.4-1.5.3-1.4.1-1 .1-2.2.2-1.4c0 .1.3-.7.2-.8z"/><path class="st9" d="M112.1 75.5l-.3.2c-.3 0-.6 0-.9-.1l-.2-.1c.2.1.3.1.5 0 .5-.2.4-1 .4-1.2l.2.3.3.9z"/><path class="st14" d="M113.3 73.2h-.2v.3c-.1 0-.2.1-.3.2 0 .1-.1.2-.1.3 0 0-.3.3-.3.5l-.2.1s-.5-.1-.6-.3c0 0 .2 1.5-.9 1.2l1.3.6c.2.2.5.2.8.1.2-.1.4-.3.4-.5 0 0 .3-.5.4-.6 0-.1.3-.2.3-.2l.5-1.2-1.1-.5z"/><path class="st9" d="M117.4 71.5l.2-.8c0 .1.1.2.2.3l.3.2c.1.1.2.1.3.1.1 0 .6.1.6.2.1.1.3 0 .3 0s.2.1.4.1.3.3.2.4c0 .1 0 .2.1.3.1.1.1.2.1.3.1 0 .2.1.2.2s.1.3 0 .4l-.9 1.3v.6c0 .1.1 1.9.1 1.9l.2 3.1c-.1.1-.2.2-.3.2-.1 0-.1-1.1-.1-1.1l-1.4-2.1c-.1-.1-.1-.2-.2-.4 0-.1-.2-.7-.2-.7l-.3-1.2.2-3.3z"/><path class="st14" d="M120.4 73.3l-.9 1.3v.6c0 .1 0 .7.1 1.2 0 .4.1.7.1.7l.1 1.3.1 1.8c-.1.1-.2.2-.3.2-.1 0-.1-1.1-.1-1.1l-1.4-2.1c-.1-.1-.1-.2-.2-.4 0-.1-.2-.7-.2-.7l-.3-1.2.1-3.6.1-.8c.1.1.1.2.2.3l.3.2c.1.1.2.1.3.1.1 0 .6.1.6.2.1.1.3 0 .3 0s.2.1.4.1.3.3.2.4c0 .1 0 .2.1.3.1.1.1.2.1.3.1 0 .2.1.2.2.1.4.1.6.1.7z"/><path class="st9" d="M113.1 89.2s1.3 0 1.3.3c0 .1-1.3-.3-1.3-.3zm.3.3s.8.1.6.3c-.2.1-.6-.3-.6-.3zm3.1-.5s1.4.1 1.2.3c-.2.2-.7.2-.7.2-.2-.1-.3-.3-.5-.5zm-.1.7s.8.1.8.3c0 .1-.8-.3-.8-.3zm.4-3.6s.7.2.8.3l-.8-.3zm-2.8.5s-.4.1 0 .3c.4.2 0-.3 0-.3zm1.7-5.8s.7-.2.9-.1c.2.1.3.1.5.1h-1.4zm.1.7l-.6 1.5s-.1.4-.2.7c0 .2-.1.3-.1.5l.5-3.1.4.4z"/><path class="st17" d="M116.6 79h-.2l-.1-.6h.2l.1.6z"/><path class="st15" d="M119.5 78.2l-.1.1-.5.4s-1.3.7-1.7 0c-.3-.6 1.2-1 1.6-1.1h.1l.6.6z"/><path class="st9" d="M113.7 72.4s.3.1.3.3l-.3-.3zm-.8 1.7s-.4.5-.2.6.2-.6.2-.6zm6.8-1.5s-.4 0-.4.3l.4-.3zm-3.3 4.9s.9-1.3 1-1.1l-1 1.1zm1.6-7.9c0 .2-.1.5-.2.7-.1 0-.1-.1-.2-.2s-.2-.1-.3 0c-.1.1-.2.2-.2.3 0-.2 0-.4-.1-.6 0-.2-.2-.4-.4-.4h-.2s0-.1-.1-.1c-.1-.2-.5-.1-.7 0-.2.1-.4.3-.6.4 0-.8.7-1.4 1.5-1.4.8-.1 1.4.5 1.5 1.3z"/><path class="st17" d="M116.4 69.2s0 .1.1.1c.1.1.1 0 .2 0 .2 0 .3.2.4.4s0 .4.1.6c0-.1.1-.2.2-.3.1-.1.2 0 .3 0 .1.1.1.2.2.2s.2-.1.2-.2 0-.2.1-.3c0-.2.2-.3.2-.5.1-.2.1-.5 0-.7 0-.1-.1-.2-.2-.3-.1-.2-.1-.4-.2-.5-.1-.3-.5-.4-.7-.3-.1 0-.2.1-.4.2s-.4 0-.5 0c-.2 0-.4 0-.5.1-.2.1-.2.4-.4.5l-.2.2c-.1.1-.1.1-.1.2s.1.2.1.3c0 0 0 .1-.1.1-.1.1-.2.3-.3.5.3.1.7-.3.9-.4 0 0 .4-.1.6.1z"/><path class="st9" d="M119.5 78.2l-.1.1c-.1-.2-.7-.7-.7-.7h.1l.7.6z"/><path class="st16" d="M119.6 78s-.1.1-.1.2-.1.2-.1.1c0-.2-.7-.7-.7-.7l.1-.1.1-.1.7.6z"/><path class="st9" d="M119.6 77.1l.1 1.3c-.2-.3-.7-1-1-1l.8-.9.1-.1v.7z"/><path class="st9" d="M119.6 78s-.1.1-.1.2c-.2-.3-.5-.6-.7-.7l.1-.1.7.6z"/><path class="st14" d="M120.2 73.2l.2.2s.4 0 .4.3.4.4.4.4.2.2.2.4c0 .1.2.3.2.3l.2.4c0 .1.2.4.1.5-.1.1-.1.2-.1.3 0 0-.3.5-.4.6-.1.1-.8 1-.8 1s-.7.8-.7 1.1c0 0-.7-1.1-1.1-1.1l.8-.9s.1-.1.1-.2.4-.5.6-.5v-.3c-.1 0-.1-.2-.1-.2s-.5-.6-.5-1 .5-1.3.5-1.3z"/><path class="st9" d="M120.5 73.7s-.5.4-.4.5c.1.2.4-.5.4-.5zm0 1.6s.9-.3 1 0h-1zm-5.7 15.8s-.5.3-.8.3c-.2 0-.3 0-.5.1-.2.2-.4.3-.6.4-.4.1-1 .1-1.3 0-.2-.1-.2-.1-.1-.2.4.1 1.1.2 1.3.1.2-.1.5-.3.7-.4 0 0 .5-.1.6-.1.2-.1.4-.2.7-.2zm3 .7s-.1.3-.8.4c-.7.1-.7-.2-.7-.2v-.1c.3.1.7.1 1.5-.1zM114 73.7s0 1.4-.1 1.5c-.2.1.1-1.5.1-1.5zm5.3.4l.2.5s.1-.5-.2-.5z"/><path d="M115.1 68.9c0-.1-.1-.2-.1-.3v.1s.1.1.1.2zm2 1.3c0-.2 0-.4-.1-.6 0-.2-.2-.4-.4-.4h-.2s0-.1-.1-.1c-.1-.2-.5-.1-.7 0-.2.2-.6.5-.9.4v.1c.3.1.7-.3.9-.4.2-.1.6-.2.7 0 0 0 0 .1.1.1.1.1.1 0 .2 0 .2 0 .3.2.4.4 0 .2 0 .4.1.6v-.1zm.9-.2c0 .1-.1.2-.2.2s-.1-.1-.2-.2-.2-.1-.3 0c-.1.1-.2.2-.2.3 0-.1.1-.1.1-.2.1-.1.2 0 .3 0 .1.1.1.2.2.2s.2-.1.2-.2l.1-.1c0-.1 0-.1 0 0zm.3-.9c-.1.2-.2.3-.2.5v.1c0-.2.2-.3.2-.5 0-.1 0-.2.1-.2l-.1.1z"/><path class="st20" d="M64.9 26.4h8.5v8.8h-8.5zm10.9 0h8.5v8.8h-8.5zm10.9 0h8.5v8.8h-8.5z"/><path transform="rotate(-37.108 93.731 29.15)" class="st3" d="M89.5 24.7H98v8.8h-8.5z"/><path class="st11" d="M43.1 43.8h19.4v14.5H43.1z"/><path class="st4" d="M55 48.2c-3.6-1.2-7.4.7-8.7 4.2-.2.7-.4 1.5-.4 2.2 0 .3-.2.5-.5.5s-.5-.2-.5-.5c0-4.3 3.5-7.8 7.8-7.8.9 0 1.7.1 2.5.4"/><path class="st12" d="M55.3 47.3c3.1 1.1 5.3 4 5.3 7.4 0 .3-.2.5-.5.5s-.5-.2-.5-.5c0-2.9-1.8-5.5-4.6-6.4"/><path class="st11" d="M67.8 37.8h29.4v21.9H67.8z"/><path class="st12" d="M70.8 54.2H72v4h-1.2zm2.3-5h1.2v9h-1.2z"/><path class="st11" d="M75.4 44.7h1.2v13.5h-1.2z"/><path class="st12" d="M77.7 41.5h1.2v16.8h-1.2z"/><path class="st4" d="M75.4 41.5h1.2v16.8h-1.2zm4.6 7.6h1.2v9.2H80z"/><path class="st12" d="M82.3 46.7h1.2v11.6h-1.2zm2.3-3.6h1.2v15.2h-1.2z"/><path class="st20" d="M86.9 51.5h1.2v6.8h-1.2zm2.3-3.1h1.2v9.9h-1.2zm2.3-3.7h1.2v13.5h-1.2zm2.3 0H95v13.5h-1.2z"/><path class="st14" d="M100.5 35.7l1.2-.7.5.3 11.1 53.2-.7.2-1.4-1.2z"/><path class="st9" d="M101.7 35l10.9 53.7.7-.2-11.1-53.2z"/><path class="st14" d="M93.6 37.9l8.4.8v.7l-8.4-.8zm.8 7.9h9v1h-9.1zm.9 8.3l9-.3 1.1.3v.6l-8 .5h-2.1z"/><path class="st9" d="M97.5 54.6l7.9-.5v.6l-8 .5z"/><path class="st9" d="M95.3 54.1l2.2.5-.1.6h-2.1z"/><path class="st14" d="M96.1 63.2l9.9-1 1.1.3v.7l-8.9.9-2.1.2z"/><path class="st9" d="M98.2 63.5l7.9-.7 1-.3v.7l-8.9.9zm-2.3.2l2.3-.2v.6l-2.1.2z"/><path class="st14" d="M96.5 72.1l11.3-1.5.9.4v.7l-9.6 1.5h-2.3z"/><path class="st9" d="M99.1 72.7l9.6-1.7v.7l-9.6 1.5z"/><path class="st9" d="M96.7 72.8l2.4-.1v.5h-2.3z"/><path class="st14" d="M97.2 81.4l12.3-2.3 1.1.6v.5l-10.8 2.6-2.2.2z"/><path class="st9" d="M99.8 82.3l10.8-2.6v.5l-10.8 2.6zm-2.3.1l2.3-.1v.5l-2.2.2z"/><path class="st14" d="M94.3 34.3l-1 .2 3.6 57.3 1.1.3h.8z"/><path class="st9" d="M93.8 34.4L98 92.1h.8l-4.5-57.8z"/><path transform="rotate(-37.108 94.77 28.79)" class="st12" d="M90.5 24.4H99v8.8h-8.5z"/><path transform="rotate(-37.108 94.77 28.79)" class="st11" d="M90.5 24.4H99v8.8h-8.5z"/><path class="st21" d="M96.8 31.2l-1-1.2 1 .1v-.3l-1.4-.2-.2 1.4h.3l.1-1 .9 1.3.3-.1z"/><path class="st12" d="M94.5 28.5c-.6.4-1.4.3-1.9-.3-.2-.3-.3-.6-.3-1 0-.1.1-.1.1-.1.1 0 .1.1.1.1-.1.6.3 1.2.9 1.3.3 0 .6 0 .8-.2.5-.4.6-1.1.2-1.6-.3-.4-1-.6-1.4-.3l.3.3v.1h-.1l-.3-.4v-.2c.6-.4 1.4-.3 1.9.3.4.7.3 1.5-.3 2z"/><path class="st12" d="M92.9 27.2h.8c.1 0 .2.1.2.2s-.1.2-.2.2h-.1l-.8-.2c.1 0 0-.1.1-.2 0 .1 0 .1 0 0 0 .1 0 0 0 0z"/><linearGradient id="SVGID_2_" gradientUnits="userSpaceOnUse" x1="-1032.685" y1="37.923" x2="-1032.685" y2="65.182" gradientTransform="matrix(.9993 -.03839 -.03839 -.9993 1130.257 53.392)"><stop offset="0" stop-color="gray" stop-opacity=".25"/><stop offset=".54" stop-color="gray" stop-opacity=".12"/><stop offset="1" stop-color="gray" stop-opacity=".1"/></linearGradient><path d="M103.3 54.3c-.1-.3-.1-.6-.1-.6 0-.2-.1-.4-.2-.6v-.7c0-.1.1-.2.1-.3.1-.2 0-.9 0-.9s-.5-1-.4-1.6c.1-.6-1-2.8-1-2.8 0-.2 0-.4.1-.6v-.1c0-.4-.4-1.2-.4-1.2v-1.5s.2-.9-.2-2.1c-.1-.4-.2-.7-.3-1v-.1c.7-.1 1.3-.3 1.3-.3s-.5-1.7-.8-2c-.3-.3-.6-1.2-.6-1.2s-.2-1.2 0-1.6.2-1 .2-1 .5-.4.6-.6c.1-.3.1-.5.2-.8 0-.2-.1-.4-.1-.5 0-.1-.2-.5-.1-.7v-.2c0-.2 0-.3-.1-.5-.2-.1-.3-.2-.5-.3v-.1h-.1v-.2l.1-.4c.1-.7-.8-.8-.8-.8-.1-.1-.2-.2-.3-.2-.2-.1 0 1 .1 1.1.1.2.3.4.4.6v.2c-.1.1-.1.2-.1.3.1.1.2.2.2.4s0 .3.1.5c0 0-.1-.1-.3-.1-.1 0-.4.1-.4.1l-.2.1c0 .1-.2.3-.2.3l-.7-.6v-.1c0-.1-.1-.2-.1-.3.1 0 .1 0 .2-.1.1 0 .1-.1.2-.1.1-.1.1-.2.1-.3.1-.2.1-.4.2-.6.1-.3.2-.7.1-1 0-.1-.1-.2-.1-.3-.1-.1-.3-.2-.5-.3-.1-.1-.2-.3-.4-.4-.2-.1-.3-.1-.5 0-.3.1-.7.2-.9.4-.1.1-.2.1-.3.1-.1 0-.2-.1-.2-.2-.1.2-.1.3-.1.5v.1s0 .1-.1.1l-.1.1c0 .1-.1.1-.1.2s0 .1.1.1l.1.1v.2c0 .5.3.9.7 1.1v.1c.1.2.2.5.1.7v.1s-1.1.1-1.4-.2-.6.6-.6.6-.4.1-.5 0c-.1-.1-.5 0-.5 0-.2-.2-.4-.2-.7-.2-.1-.1-.3-.1-.5-.2h-.2s-.6-.4-.7-.7-1-1.1-1-1.1V30H91c0-.1-.1-.2-.2-.4v-.8s-.5-1.1-.9-.3c0 0-.8.6-.1 1.2 0 0 .3.1.3.2s.1.3.2.4v.2l-.2.2c0 .1.1.2.1.3 0 0 1 1.2 1.1 1.7 0 0 2.6 1.4 3.5 1.5l-.1.8v.6c0 .2-.1.9-.1.9s-.1 1.1-.2 1.3-.1.8-.1.8c0 .3-.1.6-.1.9-.1.3-.1.6 0 .9 0 0-.4 1 .6.3 0 0 .5-.1 1.1-.1v.3c0 .6 0 1.3.1 1.9.1 1 .5 3.1.5 3.1v1.3c0 .4.1.7.3 1l.1.7s.2.4.2.7v.2c0 .3.2 1.1.2 1.1s0 .8.2.8c.1 0-.1.4-.2.6v.2c0 .1 0 .2.1.3.2.1.3.2.2.3h-.2c-.1 0-.1.1-.1.1 0 .1 0 .2.1.3.1.2.2.4.3.5h.1v.1l-.1.1s-.1 0-.2.1c-.1 0-.2.1-.3.2-.1.1-.2.3.1.5l.8.2s1.4.1 1.3-.2c-.1-.3-.1-.6-.1-.6 0-.2 0-.4-.1-.5 0 0 0-.1-.1-.1 0 0 .1-.7.2-.8v-.1s0-.1-.1-.1h-.1s-.1-.4.1-.5v-.2c-.1-.3-.2-.6-.4-.8 0 0 0-.3.1-.5.1-.1-.1-1.8-.1-1.8s0-.8-.1-1.2.1-.8.1-.8v-.1c0-.2-.1-.6-.1-.8-.1-.2 0-1.5 0-1.5l.2-.5.4.9.4 1.2c.1.1.2.3.2.5v.1c0 .1 0 .3.1.4 0 0 .1.6.3.7.1.1.2.3.2.4 0 0 .2.8.3.9.1.1.1.4.1.5V51c0 .3.1.6.2.8.3.3.5.3.5.3s-.1.4-.3.5c0 0-.1.1 0 .2 0 .2.1.5.2.6 0 0 .1.1.2.1h-.2c-.1 0-.2.1-.3.2-.1.1-.2.3.1.5l.8.2c-.1.1 1.2.2 1.2-.1z" fill="url(#SVGID_2_)"/><path class="st23" d="M98 55l-.8-.2c-.2-.2-.2-.4-.1-.5.1-.1.2-.2.3-.2.1 0 .1 0 .1-.1l.1-.1c.1-.1.1-.2.1-.3 0 0 .8-.3 1.1 0l.1.1c.1.2.1.4.1.5 0 0 .1.3.1.6S98 55 98 55zm3.8-.5l-.8-.2c-.2-.2-.2-.4-.1-.5.1-.1.2-.2.3-.2h.2c.2-.1.2-.4.2-.4s.8-.3 1.1 0l.1.1c.1.2.2.4.2.6 0 0 .1.3.1.6 0 .1-1.3 0-1.3 0z"/><path class="st9" d="M98.9 53.6l.1.1-1.3.2c.1-.1.1-.2.1-.3 0 0 .8-.3 1.1 0zm3.9-.4v.2c-.2.3-1.2.3-1.4.1h.1c.2-.1.2-.4.2-.4s.8-.3 1.1 0c-.1 0-.1 0 0 .1z"/><path class="st24" d="M102.9 52.1c-.1.1-.1.2-.1.3v.9c-.2.4-1.3.3-1.5.1s-.3-.7-.2-.8c.2-.1.3-.5.3-.5s-.2.1-.5-.3c-.3-.3-.3-1.1-.2-1.3s0-.8 0-.8 0-.4-.1-.6c-.1-.1-.3-.9-.3-.9 0-.2-.1-.3-.2-.4-.2-.1-.3-.7-.3-.7-.1-.1-.1-.3-.1-.5 0-.3-.2-.6-.2-.6l-.4-1.2-.4-.8-.2.5V46c.1.2.1.9.1.9s-.2.4-.1.8.1 1.2.1 1.2.2 1.6.1 1.8-.1.5-.1.5.5.9.3 1.1c-.1.1-.1.5-.1.5s.3 0 .2.1c.1.1 0 .8 0 .8l-1.3.2c-.1-.2-.2-.4-.3-.5-.2-.4 0-.4.2-.4.2-.1.1-.2-.2-.3-.2-.1-.1-.4-.1-.4s.3-.5.2-.6c-.1 0-.2-.8-.2-.8s-.3-.9-.2-1.1c0-.2-.2-.8-.2-.8l-.1-.7c-.2-.4-.4-.8-.3-1.3v-1.1s-.4-2-.5-3.1c-.1-.7-.1-1.6-.1-2.1v-.5l4.7-.7c0 .2.1.5.1.7.1.3.1.6.3 1 .4 1.2.2 2.1.2 2.1v1.5s.5 1 .4 1.3c0 .2-.1.4-.1.6 0 0 1 2.2.9 2.8-.1.6.4 1.6.4 1.6s.2.8.1 1z"/><path class="st25" d="M100 46.5l1.4-.2s-.8.9-1.4.2z"/><path class="st9" d="M101.1 44.9s.1.5-.2.7c0 0 .6-.1.2-.7zm-.1-1.6s-1.2 1-1.6 1c-.5-.1 1.6-1 1.6-1zm-2.8 3.8s-.9.2-.9.6c0 .4.9-.6.9-.6z"/><path class="st25" d="M98.6 51.6s-1.3.3-.9.4c.3.1.6.2 1 .3 0 0 .4 0-.1-.7z"/><path d="M97.4 52.3c-.1 0-.1-.1-.1-.2 0 0-.1.3.1.4h.2c.2 0 0-.1-.2-.2zm1.7-.1V52c-.1 0-.1.2 0 .2-.1 0 0 0 0 0zm-.4-5.4c0 .1-.1.3-.1.4 0-.1.1-.2.1-.3v-.1zm2.9-.7V46v.1zm-2.8 4.5v-.2.2c0 .1 0 .1 0 0zm.3 2.1c-.1.2-.1.4-.1.7l-1.3.2c-.1-.2-.2-.4-.3-.5V53c-.1 0-.1.1 0 .4.1.2.2.4.3.5l1.3-.2s.1-.7.2-.8c0-.2 0-.2-.1-.2zm-1.8-1.9s0 .8.2.8c.1-.1.1-.2 0-.3-.1 0-.2-.8-.2-.8s-.3-.9-.2-1.1c0-.2-.2-.8-.2-.8l-.1-.7c-.2-.4-.4-.8-.3-1.3v-1.1s-.4-2-.5-3.1V40v.5c0 .6 0 1.5.1 2.1.1 1 .5 3.1.5 3.1v1.1c-.1.5 0 .9.3 1.3l.1.7s.3.6.2.8.1 1.2.1 1.2zm4 2.3c-.1-.2-.2-.3-.2-.5-.1.1 0 .6.2.8.2.2 1.3.3 1.5-.1v-.2c-.3.3-1.3.2-1.5 0zm1.6-1.3c-.1.1-.1.2-.1.3v.2c0-.1.1-.2.1-.2v-.3zm-1.6.3c0-.1.1-.2.1-.3 0 0-.2.1-.5-.3-.2-.2-.3-.7-.2-1 0 .2-.1 1 .2 1.3.2.2.4.2.4.3zm-.6-2.4v-.3s0-.4-.1-.6-.3-.9-.3-.9c0-.2-.1-.3-.2-.4-.2-.1-.3-.7-.3-.7-.1-.1-.1-.3-.1-.5 0-.3-.2-.6-.2-.6l-.4-1.2-.4-.9-.2.5v.2l.1-.4.4.9.4 1.2s.2.3.2.6c0 .2 0 .3.1.5 0 0 .1.6.3.7.1.1.2.3.2.4 0 0 .2.8.3.9.2.1.2.6.2.6z" opacity=".05"/><path class="st27" d="M100.8 29.6l-.1.4v.3l-.5.1-.1-.1c-.1-.2-.2-.4-.4-.6-.1-.1-.3-1.2-.1-1.1.1 0 .2.1.3.2.1 0 1 .1.9.8z"/><path class="st9" d="M100.8 30.3l-.5.1-.1-.1c.1-.1.3-.2.5-.1l.1.1z"/><path class="st28" d="M100.9 30.5l-.6.2v-.3c.1-.2.4-.2.6-.1v.2z"/><path class="st27" d="M91.1 30l-.6.4-.1-.1c-.1-.1-.2-.3-.2-.4 0-.1-.3-.2-.3-.2-.7-.7.1-1.3.1-1.3.4-.9.9.3.9.3s.1.6 0 .6v.2c.1.2.2.3.2.5z"/><path class="st9" d="M91.1 30l-.6.4-.1-.1c.1-.1.4-.4.5-.3.1-.1.2-.1.2 0z"/><path class="st28" d="M91.2 30.2l-.7.4v-.3s.4-.4.5-.4h.2v.3z"/><path class="st27" d="M99.2 32.3s-3.1.5-2.5.3c.4-.1.6-.4.6-.7 0-.2 0-.5-.1-.7l-.3-.6s2.3-1.4 1.9-.2c-.1.2-.1.4-.1.6 0 .2 0 .4.1.6-.1.2.1.5.4.7z"/><path class="st9" d="M98.7 30.4c-.1.2-.1.4-.1.6-.2.2-.5.2-.8.2-.2 0-.5.1-.7 0l-.3-.6s2.3-1.4 1.9-.2z"/><circle class="st27" cx="97.7" cy="29.9" r="1.3"/><path class="st9" d="M99.2 32.3s-3.1.5-2.5.3c.4-.1.6-.4.6-.7.2-.2.5-.3.7-.4.2-.1.4-.1.6 0 .1 0 .1 0 .2.1-.1.2.1.5.4.7zm1.7-1.8l-.6.2v-.1c.1-.2.4-.3.6-.2v.1zm-9.7-.3l-.7.4v-.2c.2-.1.5-.2.7-.3v.1zm9.5 9.9c-1.2.2-2.9.6-3.2.5-.2-.1-1 0-1.6 0v-.5l4.7-.7c0 .3.1.5.1.7z"/><path class="st29" d="M101.9 39.8s-4 .8-4.4.7c-.4-.1-2.6.1-2.6.1-1 .7-.6-.3-.6-.3-.1-.3-.1-.6 0-.9.1-.3.1-.6.1-.9 0 0 0-.7.1-.8.1-.2.2-1.3.2-1.3s.1-.7.1-.9v-.6l.1-.8c-.8-.1-3.4-1.5-3.4-1.5-.1-.5-1.1-1.7-1.1-1.7 0-.1 0-.2-.1-.3-.1-.2.9-.6.9-.6s.8.9.9 1.1l.7.7h.2c.2.1.3.2.5.3.2 0 .5.1.7.2 0 0 .4-.1.5 0 .1.1.5 0 .5 0s.3-.8.6-.6c.3.2 1.3.2 1.3.2.1-.2.5-.3.7-.4.2-.1.4-.1.6 0 .1 0 .2.1.2.1l.7.6s.2-.2.2-.3c0-.1.2-.1.2-.1s.3-.1.4-.1c.1 0 .2.1.2.1-.1-.2-.1-.3-.1-.5 0-.1 0-.3-.1-.4.3-1 1.2-.2 1.2-.2s.1.5 0 .7c-.1.2.1.6.1.7 0 .1.1.3.1.5 0 .3-.1.5-.1.8-.1.2-.6.6-.6.6s0 .6-.2 1 0 1.6 0 1.6.3 1 .5 1.2c.3.3.8 2 .8 2z"/><path class="st9" d="M95.8 32.9s-.1-.4-.2-.4-.2-.1-.3-.1l.1-.1s.4.1.5.2l-.1.4zm-2.2-.7c0 .1-1 .2-1 .2l.5-.5c.2 0 .3.1.5.3z"/><circle class="st24" cx="90.7" cy="30.8" r=".1"/><circle class="st24" cx="90.8" cy="30.9" r=".1"/><circle class="st24" cx="91" cy="31.1" r=".1"/><circle class="st24" cx="91.1" cy="31.3" r=".1"/><circle class="st24" cx="101.4" cy="30.9" r=".1"/><circle class="st24" cx="101.4" cy="31" r=".1"/><circle class="st24" cx="101.4" cy="31.2" r=".1"/><path class="st9" d="M95.9 35.8s2.6 3 4.4 1.1c0 0-3 .6-4.4-1.1zm-1.3 1.7s1.5 0 1.6.4v.4c-.1.1-.2.1-.3 0-.2-.1-1.1-.5-1.4-.3l.1-.5z"/><path class="st29" d="M94.6 37.5s1.4 0 1.6.4v.4c-.1 0-.2.1-.3 0-.1-.1-1-.5-1.3-.3v-.5z"/><path class="st9" d="M95.3 34.3c.2.3.4.7.6 1 .3.3.6.6.9.8 0-.1-1.5-1.6-1.5-1.8zm-.6-1.7s.3 1 .9 1.4l-.9-1.4zm-.4.1s-.2.8.9 1.3c0 0-.4-.2-.9-1.3zm6.4-1s.5.3.7.5c0 0-.4-.5-.7-.5z"/><path class="st23" d="M97.4 31.1c0 .1.1.1.1.2h.1c.4 0 .8 0 1.2-.2.1 0 .1-.1.2-.1v-.2c.1-.2.1-.4.2-.6.1-.3.2-.7.1-1 0-.1-.1-.2-.1-.3-.1-.1-.3-.2-.4-.3-.1-.1-.2-.3-.4-.4-.2-.1-.3-.1-.5 0-.3.1-.6.2-.9.4-.1.1-.2.1-.3.1-.1 0-.2-.1-.2-.2-.1.2-.1.4-.1.6v.1s0 .1-.1.1c-.1.1-.1.3 0 .4 0 0 .1.1.2.1.1.1.1.2.1.3v.1s.1.1.2 0h.2c.1 0 .1.1.2.1 0 .3.1.6.2.8z"/><path d="M99 30.9c0 .1-.1.1-.2.1-.4.2-.8.2-1.2.2h-.1c-.1 0-.1-.1-.1-.2-.1-.3-.2-.5-.4-.8 0-.1-.1-.1-.2-.1h-.4V30c0-.1 0-.2-.1-.3 0 0-.1-.1-.2-.1-.1-.1-.1-.2 0-.3-.1.1-.1.2 0 .3 0 0 .1.1.2.1.1.1.1.2.1.3v.1s.1.1.2 0h.2c.1 0 .1.1.2.1.2.2.3.5.4.8 0 .1.1.1.1.2h.1c.4 0 .8 0 1.2-.2 0 .1.1.1.2-.1 0 .1 0 .1 0 0zm-2.6-1.7c0-.1 0-.1 0 0v-.7.7c0-.1 0-.1 0 0z"/><path class="st9" d="M97.2 31.9s1.6.2 1.8-.1m1.3-.7s.9 0 1.1.3"/><path transform="rotate(-89.91 106.214 75.604)" class="st12" d="M101.8 71.4h8.8v8.5h-8.8z"/><path transform="rotate(-89.91 106.214 75.604)" class="st12" d="M101.8 71.4h8.8v8.5h-8.8z"/><path class="st21" d="M106.3 78.7v-1.6l.7.7.2-.2-1-1-1 1 .2.2.7-.7v1.6h.2z"/><path class="st11" d="M104.8 73.4h1.4V72h-.1c-.7 0-1.3.6-1.3 1.4 0-.1 0-.1 0 0z"/><path class="st11" d="M105.3 74.4c.5.6 1.3.7 1.8.2.6-.5.7-1.3.2-1.8-.2-.3-.6-.5-.9-.5v1.4H105c0 .2.1.5.3.7z"/><path class="st4" d="M31.4 12c-.7 1.5-2 3.3-3.3 2.6-1.4-.7-2.4-3.5-1.7-5s2.5-2.2 3.8-1.6c1.4.7 1.9 2.5 1.2 4z"/><path class="st4" d="M28.5 15.6s-.3 0-.2-.3v-.1c0-.1.1-.1.1-.2v-.5h.7s-.3.2-.3.4h.1c.2.1.1.2.1.2.1.4-.5.5-.5.5z"/><path class="st5" d="M28.9 15l-.5.1V15h.5z"/><path class="st4" d="M28.5 15.6s-.3 0-.2-.3h.3c.2 0 .3-.2.4-.3.2.1.1.2.1.2 0 .3-.6.4-.6.4z"/><path class="st9" d="M28.5 15.6s-.3 0-.2-.3h.3c.2 0 .3-.2.4-.3.2.1.1.2.1.2 0 .3-.6.4-.6.4z"/><path class="st30" d="M28.9 8.2s-.8-.1-1 .4h.5c0-.1.2-.3.5-.4z"/><path class="st4" d="M27.3 19.3c-.1.1-.3.3-.5.4l-.1.1c-1.3.7-3.6.7-4.7-.2-1-.9-1.4-2.2-1-3.3 0-.1 0-.1.1-.2.1-.2.2-.5.4-.7.8-.9 2.2-1.1 3.3-.6.1 0 .2.1.3.2l.1.1.3.3.2.2c.4.3.7.7 1 1.1.1.1.2.2.3.4.1.1.1.2.2.3.2.3.3.7.3 1.1v.1c0 .1-.1.3-.1.4 0 .1-.1.2-.1.3z"/><path class="st9" d="M27.3 19.3c-.1.1-.3.3-.5.4l-.1.1c-1.3.7-3.6.7-4.7-.2-1-.9-1.4-2.2-1-3.3 0-.1 0-.1.1-.2.1-.2.2-.5.4-.7.8-.9 2.2-1.1 3.3-.6.1 0 .2.1.3.2l.1.1.3.3.2.2c.4.3.7.7 1 1.1.1.1.2.2.3.4.1.1.1.2.2.3.2.3.3.7.3 1.1v.1c0 .1-.1.3-.1.4 0 .1-.1.2-.1.3z"/><path class="st4" d="M28 19.3c-.1-.1-.2-.1-.2-.2h-.1c-.1 0-.2-.1-.2-.1h-.1l.1-.5v-.2c0 .1.1.1.1.2.1.1.1.2.2.2h.1c.1-.2.2-.1.2-.1.1 0 .2.2.2.4v.4c0-.2-.1 0-.3-.1z"/><path class="st5" d="M27.8 19.1c-.1 0-.1 0 0 0v-.4h.1v.1l-.1.3z"/><path class="st4" d="M28 19.3c.1-.1.1-.2.1-.3v-.3c0-.1-.1-.2-.1-.2.1-.2.2-.1.2-.1.1 0 .2.2.2.4v.4c-.1 0-.2.2-.4.1z"/><path class="st9" d="M28 19.3c.1-.1.1-.2.1-.3v-.3c0-.1-.1-.2-.1-.2.1-.2.2-.1.2-.1.1 0 .2.2.2.4v.4c-.1 0-.2.2-.4.1z"/><path class="st30" d="M21.3 16.8s-.3.8.1 1.1c0-.1 0-.2.1-.3 0-.1.1-.1.1-.2-.2-.1-.3-.3-.3-.6z"/><path class="st4" d="M33 14.6c-.6.4-1.3.8-2 1-.5.2-1 .2-1.4.1-.2-.1-.3-.2-.5-.3-.1-.1-.2-.2-.2-.3-.5-.8-.5-2.1-.1-3.2.3-.8.7-1.5 1.3-1.9 1.4-.9 3.3-.6 4.1.7.7 1.2.2 3-1.2 3.9z"/><path class="st9" d="M33 14.6c-.6.4-1.3.8-2 1-.5.2-1 .2-1.4.1-.2-.1-.3-.2-.5-.3-.1-.1-.2-.2-.2-.3-.5-.8-.5-2.1-.1-3.2.3-.8.7-1.5 1.3-1.9 1.4-.9 3.3-.6 4.1.7.7 1.2.2 3-1.2 3.9z"/><path class="st4" d="M29.4 16.1c-.2.3-.8 0-.8 0s-.2-.2 0-.3h.1c.1 0 .1-.1.2-.1l.1-.1c.1-.1.1-.1.1-.2v-.1l.6.3h-.2c-.1 0-.2.1-.2.1v.1c.2.3.1.3.1.3z"/><path class="st5" d="M29.3 15.8l-.5-.2.1-.1c.1.1.3.2.4.3z"/><path class="st4" d="M29.4 16.1c-.2.3-.8 0-.8 0s-.2-.2 0-.3c.1.1.2.1.3.2.2.1.4 0 .5 0 .1.1 0 .1 0 .1z"/><path class="st9" d="M29.4 16.1c-.2.3-.8 0-.8 0s-.2-.2 0-.3c.1.1.2.1.3.2.2.1.4 0 .5 0 .1.1 0 .1 0 .1z"/><path class="st30" d="M32.8 10s-.6-.5-1.1-.2c.1 0 .2.1.2.2s.1.1.1.1c.3-.1.5-.2.8-.1z"/><g class="st19"><path d="M20 14.1c-.1.1-.1.2-.1.3-.5-.4-.1-1.1-.1-1.1 0 .3.1.5.3.7 0-.1 0 0-.1.1zm5.9 1.2l.1-.7c0 .1.1.1.1.2 0 .2-.1.4-.1.5h-.1zm-.1.3l-.5.5-.1.1c-1.1.6-3 .7-4.1.1.1-.3.3-.6.5-.8.8-.9 2.2-1.1 3.3-.6.3.1.5.3.8.5 0 .1.1.1.1.2z"/><path d="M26.5 15.6c-.1-.1-.2-.1-.2-.2h-.1c-.1 0-.2-.1-.2-.1h-.1l.1-.7c0 .1.1.1.1.2.1.1.1.2.2.2h.1c.1-.2.2-.1.2-.1.3.1.2.8.2.8s-.1.1-.3-.1z"/><path d="M26.3 15.5c0-.1-.1-.1 0 0V15h.1l-.1.5zm.2.1c.1-.1.1-.2.1-.3 0-.2-.1-.4-.2-.5.1-.2.2-.1.2-.1.3.1.2.8.2.8s-.1.3-.3.1z"/><path class="st9" d="M26.5 15.6c.1-.1.1-.2.1-.3 0-.2-.1-.4-.2-.5.1-.2.2-.1.2-.1.3.1.2.8.2.8s-.1.3-.3.1zm-6.6-1.3c-.5-.4-.1-1.1-.1-1.1 0 .3.1.5.3.7 0 .1 0 .1-.1.2 0 0 0 .1-.1.2z"/></g><path class="st4" d="M25.9 15.5c-.2.2-.3.3-.5.4 0 0-.1 0-.1.1-1.1.6-3 .7-4.2.1-.2-.1-.3-.2-.5-.3-1.3-1.1-1.5-3-.5-4.1.8-.9 2.2-1.1 3.4-.6 0 0 .1 0 .1.1.2.1.5.3.7.5.4.4.8.8 1.2 1.3.1.1.1.2.2.3 0 0 0 .1.1.1l.1.1s0 .1.1.1c.2.3.3.7.3 1.1 0 .2-.1.4-.1.5-.2.1-.3.2-.3.3z"/><path class="st4" d="M26.6 15.5c-.1-.1-.2-.1-.2-.2h-.1c-.1 0-.2-.1-.2-.1H26l.1-.7c0 .1.1.1.1.2.1.1.1.2.2.2h.1c.1-.2.2-.1.2-.1.3.1.2.8.2.8s-.1.1-.3-.1z"/><path class="st5" d="M26.4 15.3s-.1 0 0 0v-.5h.1l-.1.5z"/><path class="st4" d="M26.6 15.5c.1-.1.1-.2.1-.3 0-.2-.1-.4-.2-.5.1-.2.2-.1.2-.1.3.1.2.8.2.8s-.1.3-.3.1z"/><path class="st9" d="M26.6 15.5c.1-.1.1-.2.1-.3 0-.2-.1-.4-.2-.5.1-.2.2-.1.2-.1.3.1.2.8.2.8s-.1.3-.3.1z"/><path class="st30" d="M19.9 13.1s-.3.8.1 1.1c0-.1 0-.2.1-.3 0-.1.1-.1.1-.2-.2-.1-.3-.4-.3-.6z"/><g class="st19"><path d="M24.6 7.9h-.2c-.1 0-.2 0-.3.1 0-.6.8-.8.8-.8-.1.3-.3.5-.3.7zm1.1 5.4c.1.1.1.2.2.3-.1 0-.2-.1-.3-.1-.8-.4-1.6-1.3-2.1-2.3.3.1.5.3.8.5.4.4.8.8 1.2 1.3 0 0 .1.1.2.3zm1.5.1c-.2.1-.3.2-.5.2 0 0 0-.1-.1-.1l.7-.3c0 .1-.1.2-.1.2z"/><path d="M27 14.4s-.3 0-.2-.2v-.4c0-.1 0-.2-.1-.2 0 0 0-.1-.1-.1l.7-.3c0 .1-.1.1-.1.2s-.1.2 0 .2h.2c.2 0 .2.1.2.1 0 .4-.6.7-.6.7z"/><path d="M27.2 13.7l-.5.2v-.1c.2 0 .4-.1.5-.1zm-.2.7s-.3 0-.2-.2c.1 0 .2 0 .3-.1.2-.1.3-.3.3-.4.2 0 .2.1.2.1 0 .3-.6.6-.6.6z"/><path class="st9" d="M27 14.4s-.3 0-.2-.2c.1 0 .2 0 .3-.1.2-.1.3-.3.3-.4.2 0 .2.1.2.1 0 .3-.6.6-.6.6zm-2.4-6.5h-.2c-.1 0-.2 0-.3.1 0-.6.8-.8.8-.8-.1.3-.3.5-.3.7z"/></g><path class="st4" d="M27.2 13.3c-.2.1-.3.2-.5.2h-.4c-.2 0-.4-.1-.5-.1-.1 0-.1-.1-.2-.1-.8-.4-1.6-1.2-2-2.1-.3-.6-.5-1.3-.4-1.8.2-1.7 1.6-2.9 3.1-2.7 1.5.2 2.6 1.7 2.4 3.4-.1.6-.2 1.2-.4 1.7v.1c-.3.6-.6 1.2-1.1 1.4z"/><path class="st9" d="M27.2 13.3c-.2.1-.3.2-.5.2h-.4c-.2 0-.4-.1-.5-.1-.1 0-.1-.1-.2-.1-.8-.4-1.6-1.2-2-2.1-.3-.6-.5-1.3-.4-1.8.2-1.7 1.6-2.9 3.1-2.7 1.5.2 2.6 1.7 2.4 3.4-.1.6-.2 1.2-.4 1.7v.1c-.3.6-.6 1.2-1.1 1.4z"/><path class="st4" d="M27 14.3s-.3 0-.2-.2v-.4c0-.1 0-.2-.1-.2 0 0 0-.1-.1-.1l.7-.3c0 .1-.1.1-.1.2s-.1.2 0 .2h.2c.2 0 .2.1.2.1 0 .4-.6.7-.6.7z"/><path class="st5" d="M27.3 13.6l-.5.2v-.1c.1 0 .3-.1.5-.1-.1 0-.1 0 0 0z"/><path class="st4" d="M27 14.3s-.3 0-.2-.2c.1 0 .2 0 .3-.1.2-.1.3-.3.3-.4.2 0 .2.1.2.1 0 .3-.6.6-.6.6z"/><path class="st9" d="M27 14.3s-.3 0-.2-.2c.1 0 .2 0 .3-.1.2-.1.3-.3.3-.4.2 0 .2.1.2.1 0 .3-.6.6-.6.6z"/><path class="st30" d="M25 7.2s-.8.2-.8.8c.1 0 .2-.1.3-.1h.2c0-.3.1-.5.3-.7z"/><path class="st4" d="M35.7 20.2c-1 1.2-2.8 1.2-4.1.1-.6-.5-1.3-1.2-1.7-1.9-.2-.3-.3-.7-.3-1.1 0-.2 0-.4.1-.5.1-.1.1-.2.2-.3.3-.3.6-.5 1-.7 1.3-.5 3.3-.5 4.2.4 1.4 1 1.6 2.9.6 4z"/><path class="st4" d="M29.7 17.5c0-.1-.1-.1-.1-.2-.1-.1-.1-.2-.2-.2h-.1c-.1.2-.2.1-.2.1-.3-.1-.2-.8-.2-.8s.1-.2.3-.1c.1.1.1.1.2.1h.1c.1 0 .2.1.2.1h.1l-.1 1z"/><path class="st5" d="M29.4 17.1c-.1 0-.1 0 0 0v-.5h.1c-.1.2-.1.4-.1.5z"/><path class="st4" d="M29.3 17.3c-.1.2-.2.1-.2.1-.3-.1-.2-.8-.2-.8s.1-.2.3-.1c0 .1-.1.2-.1.3 0 .1 0 .3.2.5z"/><path class="st9" d="M29.3 17.3c-.1.2-.2.1-.2.1-.3-.1-.2-.8-.2-.8s.1-.2.3-.1c0 .1-.1.2-.1.3 0 .1 0 .3.2.5z"/><path class="st30" d="M35.9 18.8s.3-.8-.2-1.1c0 .1 0 .2-.1.3 0 .1-.1.1-.1.2.2.1.4.4.4.6z"/><path class="st9" d="M29.9 18.4c-.2-.3-.3-.7-.3-1.1-.1-.1-.1-.2-.2-.2h-.1c-.1.2-.2.1-.2.1-.3-.1-.2-.8-.2-.8s.1-.2.3-.1c.1.1.1.1.2.1h.1c.1 0 .2.1.2.1.1-.1.1-.2.2-.3.3-.3.6-.5 1-.7-.1 1.3-.4 2.3-1 2.9zm-1.6.4c-.1 0-.2 0-.2-.1-.1 0-.1 0-.2-.1-.1 0-.1-.1-.2-.1s-.1 0-.1-.1c-.9-.5-1.7-1.5-2.1-2.5-.1-.3-.2-.6-.2-.9v-.5c.1-.5.2-.9.4-1.3 0 0 0-.1.1-.1.6-.9 1.5-1.4 2.6-1.3-.2.6-.5 1.2-1 1.5 0 .1-.1.2 0 .2h.2c.2 0 .2.1.2.1.1.3-.5.6-.5.6s-.3 0-.2-.2v-.4c0-.1 0-.2-.1-.2h-.4c-.2 0-.4-.1-.5-.1 0 0 0 .1.1.1.2.3.3.7.3 1.1.1.1.1.2.2.2h.1c.1-.2.2-.1.2-.1.3.1.2.8.2.8s-.1.2-.3.1c0-.1-.1-.1-.2-.1h-.1c-.1 0-.2-.1-.2-.1-.1.1-.1.2-.2.3v.1c.4.3.7.7 1 1.1.1.1.2.2.3.4.1.1.1.2.2.3.2.3.3.7.3 1.1.1.1.1.2.2.2h.1c.1-.2.2-.1.2-.1-.3-.2-.2-.1-.2.1z"/><g class="st19"><path d="M27 13.1h-.2c-.1 0-.2 0-.3.1 0-.6.8-.8.8-.8-.1.2-.3.4-.3.7zm4 2.1v.4c-.5.2-1 .2-1.4.1-.1 0-.2.1-.2.1v.1c.1.2 0 .2 0 .2-.2.3-.8 0-.8 0s-.2-.2 0-.3h.1c.1 0 .1-.1.2-.1l.1-.1c.1-.1.1-.1.1-.2-.1-.1-.2-.2-.2-.3-.5-.8-.5-2.1-.1-3.2 1.4.1 2.4 1.6 2.2 3.3zm-1.4 3.3c-.2.1-.3.2-.5.2 0 0 0-.1-.1-.1l.7-.3c0 .1-.1.2-.1.2z"/><path d="M29.4 19.5s-.3 0-.2-.2v-.4c0-.1 0-.2-.1-.2 0 0 0-.1-.1-.1l.7-.3c0 .1-.1.1-.1.2s-.1.2 0 .2h.2c.2 0 .2.1.2.1 0 .4-.6.7-.6.7z"/><path d="M29.6 18.8l-.4.2v-.1c.1 0 .3-.1.4-.1zm-.2.7s-.3 0-.2-.2c.1 0 .2 0 .3-.1.2-.1.3-.3.3-.4.2 0 .2.1.2.1 0 .3-.6.6-.6.6z"/><path class="st9" d="M29.4 19.5s-.3 0-.2-.2c.1 0 .2 0 .3-.1.2-.1.3-.3.3-.4.2 0 .2.1.2.1 0 .3-.6.6-.6.6zM27 13.1h-.2c-.1 0-.2 0-.3.1 0-.6.8-.8.8-.8-.1.2-.3.4-.3.7z"/></g><path class="st4" d="M30.8 15.3c-.2 1.7-.8 3.7-2.3 3.5-1.5-.2-3.4-2.5-3.2-4.2s1.6-2.9 3.1-2.7c1.6.2 2.6 1.7 2.4 3.4z"/><path class="st4" d="M29.2 19.6s-.3 0-.2-.2V19c0-.1-.1-.2-.1-.3l.7-.3s-.2.3-.1.4h.2c.2 0 .2.1.2.1-.1.4-.7.7-.7.7z"/><path class="st5" d="M29.5 18.9l-.5.2V19c.1 0 .3-.1.5-.1-.1 0-.1 0 0 0z"/><path class="st4" d="M29.2 19.6s-.3 0-.2-.2c.1 0 .2 0 .3-.1.2-.1.3-.3.3-.4.2 0 .2.1.2.1 0 .3-.6.6-.6.6z"/><path class="st9" d="M29.2 19.6s-.3 0-.2-.2c.1 0 .2 0 .3-.1.2-.1.3-.3.3-.4.2 0 .2.1.2.1 0 .3-.6.6-.6.6z"/><path class="st30" d="M27.2 12.5s-.8.2-.8.8c.1 0 .2-.1.3-.1h.2c0-.3.1-.5.3-.7z"/><path class="st6" d="M29.2 19c-.3 0-.5.3-.4.5v.1c.1.3.5.4.8.7.3.2.4.6.4.9.1.7-.2 1.3-.7 1.8-.2.2-.5.4-.8.7-.3.3-.5.6-.7 1-.2.3-.3.6-.3.9 0 .5.2.9.5 1.3s.6.7.9 1.2c.3.6.4 1.3.1 1.9 0 .1 0 .1-.1.1h-.1"/><path class="st6" d="M27.8 19c-.1.1-.1.2 0 .3.1.1.2.1.3.1h.4c.1.1.1.2.1.3v.3c0 .1.1.1.1.2l.2.2c.2.1.4 0 .6.1.3.1.4.4.5.6.1.3.1.6.1 1l-.3.6c-.1.2-.2.4-.2.6 0 .2.1.4.3.5"/><path class="st31" d="M37.7 30.4l-.2.1.3 1.1s.1.1.2.1c.3.2.7.5.9.8.3.5 1.8 1.8 1.6 1.3-.2-.6-.3-.5-.3-.5s.3-.8-.5-1.2c-.6-.3-1.5-1.1-1.9-1.5 0-.1-.1-.2-.1-.2z"/><path class="st32" d="M42.1 33.3c.1.1.2.3.3.4.1.2.1.3 0 .5 0 .1-.1.2-.1.3-.2.4.3.9.2 1.4-.1.3-.3.5-.5.7s-.5.5-.4.8c0 .1.1.3.2.4.1.1.1.3 0 .4-.1.2-.5.2-.6.4-.1.2.2.4.1.6-.1.1-.2.1-.3.1-.1 0-.2-.1-.3-.1-.2 0-.4.1-.4.4v.2c.1.1.2.2.2.3 0 .1-.1.1-.1.2-.3.1-.6 0-.7-.2-.1-.2-.1-.4-.1-.6 0-.2 0-.4-.2-.6-.1-.1-.2-.1-.3-.2-.3-.1-.5-.3-.7-.5-.2-.2-.3-.4-.3-.7 0-.3.3-.5.2-.8 0-.3-.3-.5-.6-.7-.2-.2-.5-.4-.4-.7.1-.3.5-.4.7-.7.1-.1.1-.2.2-.3.1-.2.1-.4.1-.6 0-.2.2-.4.3-.6.2-.2.5-.1.8-.1.3 0 .5.1.8 0 .2 0 .4-.2.6-.2.2 0 .5.1.6.2.1.1.1.1.2.1.3 0 .4.1.5.2z"/><path d="M41.7 38.2c-.1.1-.2.1-.3.2.1-.2.2-.2.3-.2zm-1 .9h-.1c.1-.1.2-.1.3-.1.1 0 .2 0 .3.1h.1c-.1.1-.2.1-.3.1-.1 0-.2 0-.3-.1zm-2.1-5.7c-.1.2-.1.4-.1.6 0 .1-.1.2-.2.3-.2.3-.6.3-.7.7-.1.3.2.6.4.7.2.2.5.4.6.7 0 .3-.2.5-.2.8 0 .3.1.5.3.7.2.2.4.4.7.5.1 0 .2.1.3.2.2.1.2.4.2.6 0 .2 0 .4.1.6.1.2.4.3.6.2 0 0-.1 0-.1.1-.3.1-.6 0-.7-.2-.1-.2-.1-.4-.1-.6 0-.2 0-.4-.2-.6-.1-.1-.2-.1-.3-.2-.3-.1-.5-.3-.7-.5-.2-.2-.3-.4-.3-.7 0-.3.3-.5.2-.8 0-.3-.3-.5-.6-.7s-.5-.4-.4-.7c.1-.3.5-.4.7-.7.1-.1.1-.2.2-.3.1-.2.1-.4.1-.6 0-.2.2-.4.3-.6 0 0 .1 0 .1-.1-.1.3-.2.4-.2.6z"/><path class="st33" d="M33.3 36.2l-.2-.3s-.4.6.2 1c.6.4 0-.7 0-.7z"/><path class="st9" d="M33.3 36.2l-.2-.3s-.4.6.2 1c.6.4 0-.7 0-.7z"/><path class="st31" d="M31.3 46.4s0 .6-.1 1.2c-.1.4-.2.8-.3 1-.3.4-.2 1.8-.2 1.8l-.4 1.6c0 .3-.2.7-.3.9 0 .1-.1.1-.1.1l.3.5.4.1s.8-.3.5-.7c0-.1-.1-.2-.1-.3 0-.6.4-1.7.4-1.7s1-2 .9-2.4v-.1c0-.4.2-1.2.2-1.2l-1.2-.8zm-6.8-2.9c-.7.5-1.9 1.7-2.1 2-.3.4-1 .8-1 .8l-.5.3c-.1 0-.1.1-.2.2l-.1.1.7.8s.2-.2.4-.3c.2-.2.5-.5.5-.6.1-.3.9-.7.9-.7s1.5-.9 1.6-1c.2-.1.3-.3.5-.4.1-.1.2-.1.4-.2.4-.2.7-.4 1.1-.7l-.7-1-1.3.5c.1.1-.1.1-.2.2z"/><path class="st9" d="M29.9 53c0 .1 0 .1 0 0l.2.5.4.1s.8-.3.5-.7c0-.1-.1-.2-.1-.3-.2.1-.3.4-.3.4s0 .1-.4.3c-.1 0-.2-.1-.3-.3z"/><path class="st5" d="M29.8 53c-.1.1-.1.5-.2.7v.2c0 .1.4.2.6.1.2-.1 1.2.2 1.2.2.3 0 .7 0 1-.2.3-.1.3-.3.2-.4-.1-.1-.2-.1-.4-.2-.1-.1-.3-.2-.4-.3-.1-.2-.3-.3-.5-.4-.2-.1-.3-.2-.4-.2-.2 0-.3.4-.3.4s0 .1-.4.3c-.2.2-.3-.2-.4-.2z"/><path class="st9" d="M29.7 53.7v.2c0 .1.4.2.6.1.2-.1 1.2.2 1.2.2.3 0 .7 0 1-.2.3-.1.3-.3.2-.4-.3.1-.8.2-1.1.2-.4.2-1.6 0-1.9-.1zm-8.9-6.9l-.1.1.7.8s.2-.2.4-.3c-.1-.4-1-.7-1-.6z"/><path class="st5" d="M20 47.1s.1.9.3 1.3c.2.3.3.2.5.1.1 0 .2-.1.3-.1.5-.2.5-.4.5-.4.7-.7-.8-1.1-.8-1.1l-.1.1c-.2 0-.3 0-.5.1 0-.1-.1-.1-.2 0z"/><path class="st9" d="M20 47.1s.1.9.3 1.3c.2.3.3.2.5.1-.2-.1-.4-.3-.5-.6-.1-.3-.1-.6-.1-.9 0 0-.1 0-.2.1z"/><path class="st31" d="M37.7 34.6l-1.2.9-.3.2.2.6.2.6.5.5s.7-.1 1.1-.4c.1-.1.2-.3.3-.5v-.2c0-.1.1-.1.1-.2l.2-.2c.4-.2.9-.1.9-.1s-.1-1.6-.4-1.3c-.2.2-.6.1-.9.1-.2 0-.3-.1-.3-.1l-.4.1z"/><circle class="st9" cx="40" cy="35.1" r="1.3"/><circle class="st31" cx="40" cy="35.1" r="1.3"/><path class="st5" d="M33.2 36.7c-.2.2-.5.6-.5.6l.3 1.9 1.8.7c.1-.1 1.4-1.2 1.9-1 .5.2 1.5-.4 1.5-.4s.4-.9.5-1.1-.1-1-.1-1c0 .1-.1.1-.1.2-.1.1-.2.3-.3.4-.1.1-.3.2-.4.2h-.1c-.6.1-.8-.5-.9-.8v-.1l-.3-.6-.2-.4s-2.7 1.4-3 1.4c0-.1-.1 0-.1 0z"/><path class="st32" d="M38.5 36.4c0 .1-.1.1-.1.2l.3.6v-.4l-.2-.4z"/><path class="st12" d="M38.3 36.7l-.1.1.4.7c0-.1.1-.1.1-.2l-.4-.6zm-.4.2l.5.9c0-.1.1-.1.1-.2l-.5-.8c0 .1 0 .1-.1.1zm-.3.1l.7 1.2.1-.2-.6-1h-.2zm.6 1.4l-1-1.4c.1 0 .2.1.3.1l.7 1.3z"/><path class="st32" d="M36.2 35.2l.6 1v-.1l-.3-.6-.2-.4-.1.1z"/><path class="st12" d="M35.9 35.4l1.9 3.2c.1 0 .1-.1.2-.1l-1.9-3.2-.2.1zm-.3.1l1.9 3.2c.1 0 .1 0 .2-.1l-1.9-3.2-.2.1zm-.2.2l1.9 3.1c.1 0 .1 0 .2-.1l-1.9-3.1-.2.1zm-.3.1l1.8 3h.2l-1.9-3.1-.1.1zm-.3.1l1.7 2.8h.2l-1.8-3-.1.2zm-.3.2l1.7 2.8c.1 0 .1 0 .2-.1L34.7 36l-.2.1z"/><path class="st32" d="M34.3 36.2L36 39c.1 0 .1-.1.2-.1l-1.7-2.8-.2.1zm-.3.1l1.7 2.8c.1 0 .1-.1.2-.1l-1.7-2.8-.2.1zm-.3.2l1.7 2.8s.1-.1.2-.1l-1.7-2.8-.2.1zm-.3.1l1.7 2.9.1-.1-1.7-2.8h-.1z"/><path class="st12" d="M33.2 36.7l1.7 3 .1-.1-1.7-2.9c0-.1-.1 0-.1 0z"/><path class="st12" d="M33.1 36.8l-.1.1 1.7 2.8h.1l.1-.1-1.8-2.8zm-.2.2c0 .1-.1.1-.1.2l1.4 2.4.3.1-1.6-2.7zm-.2.3l.1.5 1 1.7.3.1-1.4-2.3z"/><path class="st32" d="M32.8 38.1l.1.5.4.7.3.1zm.1.8l.1.2.1.1z"/><path class="st9" d="M33.2 36.7c.1.3.2.5.2.5l.7 1.4 1.4-.6c.1-.2.1-.5.1-.7 0-.3.1-.7.8-.9h.1c.1 0 .2-.1.2-.1.3-.1.6-.4.7-.8l.9-.7c-.2 0-.3-.1-.3-.1h-.4l-1.2.9-.2-.4s-2.7 1.4-3 1.4c.1 0 0 .1 0 .1z"/><path class="st33" d="M35.5 33.8c-.1.3-.3.5-.5.7-.4.3-.3.5-.3.5l-1.2.7s-.2.3-.4.2.3 1.3.3 1.3l.7 1.4 1.4-.6c.1-.2.1-.5.1-.7 0-.3.1-.7.9-.9.4-.1.8-.4 1-.9l.9-.7c-.1-.1-.2-.2-.4-.3h-.2c-.1 0-.2-.1-.2-.2 0-.2 0-.9-.3-.9-.2-.2-1.8.4-1.8.4z"/><path class="st33" d="M37.9 34.4l-.6.5.2.5.9-.7c-.1-.1-.2-.2-.4-.3h-.1z"/><path class="st9" d="M37.9 34.4l-.6.5.2.5.9-.7c-.1-.1-.2-.2-.4-.3h-.1zm-.2-4l-.2.1.3 1.1s.1.1.2.1c0-.1-.1-.7-.2-1v-.2l-.1-.1z"/><path class="st33" d="M35.7 29.9s-.4 1.5-.2 2.3c0 0 .1 1.1 0 1.6l1.8-.3.1-.3s-.3-.2-.4-.5-.1-.6-.1-.6c0-.3-.1-.5-.1-.8-.1-.2.2-.2.4-.1 0 0 .1 0 .1.1-.1.1 0 .3.1.3.1.1.2.1.3.1.1 0 .3.1.4.1 0 0-.1-.6-.2-1v-.2c.1 0 .5.4.5.4s0-.6-.2-.7c0 0 0 .2-.2.1-.1-.1-1.5-.8-1.5-.8s-.6-.4-.8.3z"/><path class="st9" d="M37 30.5l.2.7s.1 0 .1.1c-.1.1 0 .3.1.3.1.1.2.1.3.1.1 0 .2 0 .3.1 0 0-.1-.6-.2-1l-.8-.3z"/><path class="st33" d="M37.1 30.5l.2.7c-.1.1 0 .3.1.3.2.1.7.2.7.2s-.1-.6-.2-1l-.8-.2z"/><path class="st30" d="M37.1 30.5l.2.7c-.1.1 0 .3.1.4.2.1.7.2.7.2s-.1-.6-.2-1l-.8-.3z"/><path class="st9" d="M32.6 47.2l-1.3-.7s0 .6-.1 1.2c.5.3.9.6 1.2.8-.1-.5.2-1.3.2-1.3zm-8.1-3.7c.2.3.3.5.5.7 0 0 .1.2.4.4.1-.1.2-.1.4-.2.4-.2.7-.4 1.1-.7l-.7-1-1.3.5c-.1.1-.3.2-.4.3z"/><path class="st5" d="M28.7 39.3c-.2.4-1.4 1.6-1.4 1.6-.2.2-.4.5-.5.8-.2.4-.8.9-1.3 1.3s-.5.1-.8.3c-.3.2.6 1 .6 1s1.4 2 3 2 3.9 2.2 4.9 2.4c1 .2.4-.3.8-.5s.6-.6.6-.6-.2-1.1 0-1.4.3-1.2.3-1.2 0-.9.1-1c.1-.1 0-1.2 0-1.5-.1-.3.2-.7.2-.7s-.1-.2 0-.5c.1-.4-.1-1.5-.1-1.5-2.1-1.2-2.4-2.5-2.4-2.5l-.3.1c-1.6-.4-3.4 1.5-3.7 1.9z"/><path class="st9" d="M32.4 37.4s.2 1.7 2.7 2.4c-2.1-1.2-2.4-2.5-2.4-2.5l-.3.1zm.3 3s-2.1 3.3-2.1 3.5c-.1.2 2.2-3.4 2.1-3.5zm-.2-1.1s-1.6 2.4-1.9 2.5c0 0 1.5-2.3 1.9-2.5zm-1-.5s-1.1.8-2 .7l2-.7zm-.3-.5s-1.1.4-1.3.4l1.3-.4zm2.5 3l.1 2.2-.4-.6zm6.7-7.3c0 .1-.1.2-.1.4 0 .1.1.2.2.2.2.2.3.3.3.6s-.2.6-.2.9c0 .1 0 .2.1.3l.1.1c.1.1.3.1.4.1.2-.1.4-.2.5-.5.1-.2.1-.5 0-.7-.1-.6-.4-1.2-.7-1.7l-.1-.1c-.1-.1-.5-.1-.6 0-.1.1.2.3.1.4z"/><path class="st32" d="M40.4 34c0 .1-.1.2-.1.4 0 .1.1.2.2.2.2.2.3.3.3.6s-.2.6-.2.9c0 .1 0 .2.1.3l.1.1c.1.1.3.1.4.1.2-.1.4-.2.5-.5.1-.2.1-.5 0-.7-.1-.6-.4-1.2-.7-1.7l-.1-.1c-.1-.1-.5-.1-.6 0 0 0 .2.3.1.4z"/><path class="st31" d="M42.7 41.7l-.7.5.2.2 1.3.9s.5 1 1.3.7c.8-.3-.5-1.1-.5-1.1l-.2-.1-1.2-.9-.2-.2z"/><path class="st9" d="M42.7 41.7l-.7.5.2.2c.3-.2.6-.4.6-.5l-.1-.2zm-7.5-4.2l-1.4.9 1 1.4c.1-.1 1.4-1.2 1.9-1 .5.2 1.5-.4 1.5-.4s.4-.9.5-1.1c.1-.2-.1-1-.1-1l.2-.2h-.2c-.3.1-.4.3-.4.7v.3c.1.6-.2.8-.2.8-.2.3-.4.5-.7.6-.5.1-2.1-1-2.1-1z"/><path class="st33" d="M35.2 37.6l-1.4.9 1.1 1.6s.6-.3.7-.5 1.1-.6 1.1-.6c1.1.4 1.6-.3 1.6-.3s1.3 2 1.4 2c.1 0 .8.6.8.6s.5.7.7.8c.1 0 .1 0 .2.1l-.4.2.3.3c.2.1 1.6-.8 1.6-1v-.1c-.1-.1-.2-.2-.4-.3 0 0-.8-.8-1.1-.9-.3-.1-1.1-1.5-1.1-1.5s-.5-.6-.4-.7c.1-.1-.2-1.2-.4-1.3-.2 0-.3-.3-.3-.3.1-.3 0-.3-.2-.4h-.3c-.3.1-.4.4-.4.8v.2c.1.6-.2.8-.2.8-.2.3-.4.5-.7.6-.5.1-2.2-1-2.2-1z"/><path class="st9" d="M42.8 41.6c0 .1 0 .1 0 0 0 .3-1.4 1.1-1.6 1-.1-.1-.2-.1-.3-.2l.5-.3c.4-.1.8-.3 1-.7l.4.2z"/><path class="st33" d="M41.4 42.1l-.4.3.3.3c.2.1 1.6-.8 1.6-1 0-.2-.3-.3-.4-.4-.3.4-.6.7-1.1.8z"/><path class="st30" d="M41.4 42.1l-.4.3.3.3c.2.1 1.6-.8 1.6-1 0-.2-.3-.3-.4-.4-.3.4-.6.7-1.1.8z"/><path class="st33" d="M38.2 37l.3.1.3-.9h-.3c-.1.1-.3.4-.3.8z"/><path class="st9" d="M38.3 37l.3.1.3-.9h-.3c-.2.1-.4.3-.3.8zm2.2-3.1c0 .1-.1.2-.1.4 0 .1.1.2.2.2.2.2.3.3.3.6s-.2.6-.2.9c0 .1 0 .2.1.3l.1.1c.1.1.3.1.4.1h.1c-.1 0-.1.1-.2.1-.2 0-.4 0-.5-.2-.1-.1-.1-.2-.1-.3 0-.3.2-.6.2-.9 0-.2-.2-.4-.3-.6l-.2-.2c0-.2.1-.3.2-.5 0 0-.2-.3-.1-.4h.1c-.1.1.1.4 0 .4zm-3 2.6s-.4 0-.5.3c0 0 .4-.4.4-.5"/><path class="st31" d="M45 43.4s-1.2-.6-1 .1c.1.7 1-.1 1-.1z"/><path transform="rotate(-24.55 45.887 45.26)" class="st4" d="M45.3 38.5h1.2V52h-1.2z"/><path class="st6" d="M29 19.1c-.2.5-.7.9-.6 1.4.1.3.3.4.5.6.5.3 1.1.7 1.4 1.2.4.5.6 1.2.4 1.7-.2.4-.5.7-.7 1.1-.2.5-.3 1-.1 1.5.1.5.3 1 .6 1.4.1.2.2.3.4.4h.4c.5 0 .9.3 1.2.8s.4.9.4 1.4c0 .2 0 .5.2.7.2.3.6.4.9.4.9.1 1.8.2 2.7.1"/><path class="st5" d="M35.9 31.1h.5c.3 0 .5.2.5.5s-.2.5-.5.5h-.5c-.3 0-.5-.2-.5-.5 0-.2.2-.5.5-.5z"/><path class="st11" d="M42.8 26.3h8.5v8.9h-8.5zm11 0h8.5v8.9h-8.5zm11 0h8.5v8.9h-8.5zm10.9 0h8.5v8.9h-8.5z"/><linearGradient id="SVGID_3_" gradientUnits="userSpaceOnUse" x1="228.357" y1="-214.675" x2="228.357" y2="-209.857" gradientTransform="matrix(1 0 0 -1 -158 -181.67)"><stop offset="0" stop-color="gray" stop-opacity=".25"/><stop offset=".54" stop-color="gray" stop-opacity=".12"/><stop offset="1" stop-color="gray" stop-opacity=".1"/></linearGradient><path d="M69.2 28.2V33c1.3 0 2.4-1.1 2.4-2.4s-1.2-2.4-2.4-2.4z" fill="url(#SVGID_3_)"/><linearGradient id="SVGID_4_" gradientUnits="userSpaceOnUse" x1="225.874" y1="-214.677" x2="225.874" y2="-211.475" gradientTransform="matrix(1 0 0 -1 -158 -181.67)"><stop offset="0" stop-color="gray" stop-opacity=".25"/><stop offset=".54" stop-color="gray" stop-opacity=".12"/><stop offset="1" stop-color="gray" stop-opacity=".1"/></linearGradient><path d="M66.8 29.8c-.5 1.3.2 2.6 1.5 3.1.3.1.5.1.7.1v-2l-2.2-1.2z" fill="url(#SVGID_4_)"/><linearGradient id="SVGID_5_" gradientUnits="userSpaceOnUse" x1="226.041" y1="-212.6" x2="226.041" y2="-209.848" gradientTransform="matrix(1 0 0 -1 -158 -181.67)"><stop offset="0" stop-color="gray" stop-opacity=".25"/><stop offset=".54" stop-color="gray" stop-opacity=".12"/><stop offset="1" stop-color="gray" stop-opacity=".1"/></linearGradient><path d="M69.2 28.2c-1 0-1.9.6-2.2 1.6l2.2 1.1v-2.7z" fill="url(#SVGID_5_)"/><path class="st4" d="M69.2 28.3v4.6c1.3 0 2.3-1 2.3-2.3s-1.1-2.3-2.3-2.3z"/><path class="st37" d="M66.9 29.8c-.4 1.2.3 2.5 1.5 3 .3.1.5.1.7.1V31l-2.2-1.2z"/><path class="st38" d="M69.2 28.3c-.9 0-1.9.6-2.1 1.6l2.1 1.1v-2.7z"/><path class="st37" d="M58 28.9v2.5c.6 0 1.2-.6 1.2-1.2.1-.7-.4-1.3-1.2-1.3z"/><path d="M56.9 29.7c-.2.6.1 1.4.7 1.6.1 0 .3.1.4.1v-1.1l-1.1-.6z" fill="#2196f3"/><path class="st40" d="M58 28.9c-.6 0-1 .4-1.2.8l1.2.6v-1.4zm-13.4-.5h.8v5.1h-.8zm1.4 0h.8v5.1H46zm1.4 0h.8v5.1h-.8zm1.4 0h.8v5.1h-.8z"/><path class="st37" d="M44.6 30.9h.8v2.6h-.8z"/><g class="st41"><path class="st37" d="M44.6 29.8h.8v1.1h-.8z"/></g><path class="st38" d="M46 31.4h.8v2H46z"/><path class="st42" d="M46 30.1h.8v1.3H46z"/><path class="st2" d="M47.4 30.5h.8v3h-.8z"/><path class="st43" d="M47.4 29.5h.8v1h-.8z"/><path class="st4" d="M48.8 31.5h.8v1.9h-.8z"/><path class="st44" d="M48.8 30.9h.8v.6h-.8z"/><path class="st40" d="M77.6 29.5h.8v4h-.8zm1.4 0h.8v4H79zm1.3 0h.8v4h-.8zm1.4 0h.8v4h-.8z"/><path class="st37" d="M77.6 31.5h.8v1.9h-.8z"/><g class="st41"><path class="st37" d="M77.6 30.7h.8v.8h-.8z"/></g><path class="st38" d="M79 31.9h.8v1.6H79z"/><path class="st42" d="M79 30.9h.8v1H79z"/><path class="st2" d="M80.3 31.1h.8v2.2h-.8z"/><path class="st43" d="M80.3 30.4h.8v.7h-.8z"/><path class="st4" d="M81.7 32h.8v1.5h-.8z"/><path class="st44" d="M81.7 31.5h.8v.5h-.8z"/><path class="st37" d="M55.5 32.9l.1-.5h.6v.2h-.4v.2h.2c.1 0 .2 0 .2.1.1.1.1.1.1.3v.2c0 .1-.1.1-.1.1h-.4c-.1 0-.1-.1-.1-.1v-.2h.2v.1h.2v-.2h-.2l-.4-.2z"/><path class="st37" d="M56.9 33.1l.1.2h-.1v.2h-.2v-.2h-.4v-.1l.4-.6h.2v.5zm-.4 0h.2v-.4l-.2.4zm.6.2c.1-.1.1-.1 0 0l.2-.1v.2l-.2-.1c.1.1.1.1 0 0 0 .1 0 .1 0 0zm.6-.6h.2c.1 0 .2 0 .2.1 0-.1.1-.1.2-.1s.1 0 .2.1c0 0 .1.1.1.2v.5h-.2v-.6h-.1c-.1 0-.1 0-.1.1v.5H58v-.6h-.1c-.1 0-.1 0-.1.1v.6h-.2l.1-.9zm1-.2c0-.1.1-.1 0 0 .1-.1.1-.1 0 0l.2-.1v.2l-.2-.1c0 .1.1 0 0 0 .1 0 0 0 0 0zm.3.9h-.2v-.7h.2v.7zm.3 0h-.2v-1h.2v1zm.4 0h-.2v-1h.2v1z"/></svg>