<?xml version="1.0" encoding="utf-8"?>
<!-- Generator: Adobe Illustrator 23.0.2, SVG Export Plug-In . SVG Version: 6.00 Build 0)  -->
<svg version="1.1" id="Layer_1" xmlns="http://www.w3.org/2000/svg" xmlns:xlink="http://www.w3.org/1999/xlink" x="0px" y="0px"
	 viewBox="0 0 283.5 163.3" style="enable-background:new 0 0 283.5 163.3;" xml:space="preserve">
<style type="text/css">
	.st0{opacity:0.5;fill:#EBAF41;enable-background:new    ;}
	.st1{fill:#EBAF41;}
	.st2{fill:none;stroke:#535461;stroke-miterlimit:10;}
	.st3{opacity:0.1;enable-background:new    ;}
	.st4{fill:url(#SVGID_1_);}
	.st5{fill:#535461;}
	.st6{fill:#FFFFFF;}
	.st7{fill:none;stroke:#535461;stroke-width:2;stroke-miterlimit:10;}
	.st8{opacity:0.7;fill:#EBAF41;enable-background:new    ;}
	.st9{opacity:0.8;fill:#EBAF41;enable-background:new    ;}
	.st10{fill:url(#SVGID_2_);}
	.st11{fill:#FEC3BE;}
	.st12{fill:#8B416F;}
	.st13{fill:#4D4981;}
	.st14{opacity:5.000000e-02;enable-background:new    ;}
	.st15{fill:#FD6F8D;}
	.st16{fill:#784F69;}
</style>
<title>finance</title>
<path class="st0" d="M70.3,107c-17.1-5.9-36.7-10.9-52.7-2.4c-2,1.1-4,2.4-5.1,4.5c-2.9,5.3,1.7,12.2-0.5,17.8
	c-2.2,5.6-10.7,8.4-10,14.4c0.2,1.6,1,3,2,4.2c6.3,7.7,17.8,8.4,27.5,6.5s19.2-5.8,29.1-5.3c9.5,0.5,18.3,5.1,27,8.9
	c14.7,6.5,31.8,11.1,46.5,4.6c6.7-3,12.3-8.1,18.7-11.6c8.7-4.7,18.6-6.6,28.4-5.2c6.5,0.9,12.8,3.2,19.2,4.8
	c14.5,3.6,29.7,3.5,44.7,3.4c2.8,0,5.6-0.1,8.3-0.9c4-1.2,7.2-3.9,10.4-6.6c4.1-3.5,8.5-7.4,9.8-12.6c1.6-6.2-1.7-12.9-6.5-17.1
	c-4.8-4.2-11-6.6-17-8.8c-1.5-0.5-3.1-1.1-4.6-0.7c-1,0.3-1.8,0.9-2.6,1.7c-4.3,4.1-7.9,11.1-13.7,10c-2.1-0.4-3.8-1.8-5.4-3.2
	c-8.8-7.1-20.6-12.6-31.2-8.7c-7.8,2.9-13.2,10.3-21.1,12.9c-5.6,1.9-11.7,1.1-17.6,1.4c-8.6,0.5-16.9,3.5-25.5,3.4
	c-21.9-0.5-40.1-21.4-61.8-19.4c-1.7,0.2-3.6,0.5-4.6,1.9"/>
<path class="st1" d="M42.8,87.1c0,0-18.2,11,15.3,27.8c0,0,7.4-13.7-0.8-24.9c-3.3-4.5-9.4-5.8-14.3-3.1L42.8,87.1z"/>
<path class="st2" d="M43,86.9c0,0,15.5,11.9,15.1,28.1"/>
<path class="st1" d="M272.5,78c3.7,13.5-12,51.8-12,51.8s-33-25-36.7-38.4c-4-13.4,3.6-27.4,17-31.4c13.4-4,27.4,3.6,31.4,17
	C272.3,77.2,272.4,77.6,272.5,78L272.5,78z"/>
<path class="st3" d="M272.5,78c3.7,13.5-12,51.8-12,51.8s-33-25-36.7-38.4c-4-13.4,3.6-27.4,17-31.4c13.4-4,27.4,3.6,31.4,17
	C272.3,77.2,272.4,77.6,272.5,78L272.5,78z"/>
<path class="st2" d="M241.6,60.4c0,0,20.6,31,19,69.5"/>
<path class="st1" d="M277.8,102.6c0,0-18.6-10.1-16.3,27.3c0,0,15.5-0.6,21.1-13.2c2.2-5.1,0.3-11.1-4.5-13.9L277.8,102.6z"/>
<path class="st2" d="M278.1,102.6c0,0-2.4,19.4-16.6,27.2"/>
<path class="st1" d="M4.9,98.4c0,0-18.2,11,15.3,27.8c0,0,7.4-13.7-0.8-24.9c-3.3-4.5-9.4-5.8-14.3-3.1L4.9,98.4z"/>
<path class="st2" d="M5.1,98.2c0,0,15.5,11.9,15.1,28.1"/>
<linearGradient id="SVGID_1_" gradientUnits="userSpaceOnUse" x1="255.551" y1="250.7164" x2="255.551" y2="359.4" gradientTransform="matrix(1 0 0 -1 -123 375.8906)">
	<stop  offset="0" style="stop-color:#808080;stop-opacity:0.25"/>
	<stop  offset="0.54" style="stop-color:#808080;stop-opacity:0.12"/>
	<stop  offset="1" style="stop-color:#808080;stop-opacity:0.1"/>
</linearGradient>
<path class="st4" d="M231.6,112.7h-19.1c0.4-0.9,0.7-1.9,0.7-2.8V22.9c0-3.5-2.9-6.4-6.4-6.4l0,0H59c-3.5,0-6.4,2.9-6.4,6.4l0,0
	v86.9c0,1,0.2,2,0.7,2.8H33.5c-0.9,0-1.7,0.8-1.7,1.7c0,0,0,0,0,0v1.4c0,5.2,4.2,9.5,9.5,9.5l0,0h182.5c5.2,0,9.5-4.2,9.5-9.5l0,0
	v-1.4C233.3,113.4,232.5,112.7,231.6,112.7C231.6,112.7,231.6,112.7,231.6,112.7z M114,118.1l-1.6-1.9H153l-1.8,1.9L114,118.1z"/>
<path class="st5" d="M61.3,17.7h143.1c3.8,0,6.9,3.1,6.9,6.9v83.6c0,3.8-3.1,6.9-6.9,6.9H61.3c-3.8,0-6.9-3.1-6.9-6.9V24.6
	C54.4,20.8,57.5,17.7,61.3,17.7z"/>
<rect x="57.7" y="31.9" class="st6" width="150" height="79.6"/>
<circle class="st6" cx="132.7" cy="25" r="1.3"/>
<path class="st5" d="M155.9,111.7l-5.2,5.3h-36.3l-4.7-5.3h-74c-0.9,0-1.7,0.7-1.7,1.7v1.3c0,5.1,4.1,9.2,9.2,9.2h178.4
	c5.1,0,9.2-4.1,9.2-9.2v-1.3c0-0.9-0.7-1.7-1.7-1.7H155.9z"/>
<polyline class="st7" points="76.9,36.9 76.9,104.6 188.9,104.6 "/>
<rect x="86.8" y="84.1" class="st0" width="11.6" height="17.8"/>
<rect x="106.6" y="68.3" class="st8" width="11.6" height="33.7"/>
<rect x="126.4" y="77.8" class="st0" width="11.6" height="24.1"/>
<rect x="146.3" y="63" class="st9" width="11.6" height="39"/>
<rect x="166.1" y="49.1" class="st1" width="11.6" height="52.9"/>
<polyline class="st7" points="92.4,73.2 112.6,55.1 132.4,72.2 151.9,51.4 171.7,43.2 "/>
<circle class="st1" cx="92.4" cy="73.2" r="2.3"/>
<circle class="st1" cx="132.1" cy="71.9" r="2.3"/>
<circle class="st1" cx="152.2" cy="51.4" r="2.3"/>
<circle class="st1" cx="112.6" cy="54.7" r="2.3"/>
<circle class="st1" cx="171.7" cy="43.2" r="2.3"/>
<linearGradient id="SVGID_2_" gradientUnits="userSpaceOnUse" x1="347.4146" y1="236.6293" x2="347.4146" y2="375.8906" gradientTransform="matrix(1 0 0 -1 -123 375.8906)">
	<stop  offset="0" style="stop-color:#808080;stop-opacity:0.25"/>
	<stop  offset="0.54" style="stop-color:#808080;stop-opacity:0.12"/>
	<stop  offset="1" style="stop-color:#808080;stop-opacity:0.1"/>
</linearGradient>
<path class="st10" d="M257.7,114.6c-1.2-0.4-3-0.9-4.5-0.7c-1.4-0.5-4.6-1.8-6.8-3.7c0.1-1.9,0-3.8-0.1-5.7
	c-1.1-12.7,1.4-21.1,1.4-21.1s2-6.4,1.8-11.7c0.1,0.2,0.2,0.4,0.2,0.4c0.2-4.6,1.7-9.3,2.9-12.3c0,0,0.1,0,0.1,0l1.3-3.1
	c0.1-0.2,0.2-0.4,0.2-0.6l0.2-0.5l-0.1,0c0-0.1,0-0.2,0.1-0.3l0,0c0.8-3.5,1.5-11.9,1.5-11.9c2.2-8.8-3.1-14.3-3.1-14.3l-9-7.8
	c0,0.1,0.1,0.2,0.1,0.3l-0.1-0.1c-0.1-0.4-0.3-0.8-0.4-1.3c0.3-0.2,0.6-0.5,0.9-0.8c1-1,1.7-2.2,2-3.6c0.2-1.1,0.2-2.2,0.1-3.3
	l-0.1-3.7c0-0.7-0.1-1.5-0.2-2.2c-0.7-3-3.7-5.1-6.8-5.2c-1,0-1.9,0-2.9,0.2c-0.8,0.1-1.6,0.1-2.4,0.1c-0.1,0-0.2,0-0.3-0.1
	c-0.1-0.1-0.1-0.2-0.1-0.3c0-0.4,0.1-0.7,0.3-1c0.1-0.1,0.3-0.2,0.4-0.2l-0.2,0.1c0.1-0.1,0.2-0.1,0.4-0.2c-0.8,0.1-1.6,0.4-2.3,0.8
	c-0.2,0.1-0.4,0.3-0.5,0.4c-0.4,0.4-0.7,0.9-0.8,1.4c-0.4-0.3-0.6-0.7-0.8-1.2c0-0.2,0-0.4,0-0.6c-0.1,0.1-0.1,0.1-0.2,0.2
	c0,0,0,0,0-0.1c-0.6,0.7-1,1.5-1.2,2.4c-0.2-0.2-0.2-0.4-0.2-0.7c0,0.1-0.1,0.3-0.1,0.4c0-0.1,0-0.2,0-0.3c-0.3,1.1-0.5,2.2-0.5,3.3
	c0,1.1,0.5,2.9,1.7,3.3c0.1,0,0.1,0,0.2,0.1c-2.3,3.5-1.2,8.2,2.3,10.4c0.9,0.6,1.8,0.9,2.8,1.1c0,0.1,0,0.3,0.1,0.4h0
	c0,0.3,0.1,0.6,0.1,1c-0.3,0.3-0.6,0.6-1,0.8c-1,0.6-2.1,1-3.3,1.1c-1.4,0.1-2.7,0.5-4,1.2c-1.4,0.8-3,2-3.5,3.4
	c-0.8,2.4-5.4,6.1-8.5,6.5l-1.1-0.1l-0.1,0v0l-0.3,0h0h-0.1v0l-0.3,0c0,0,0,0.1-0.1,0.4c-1.5-0.5-4.8-2-9.1-5.9
	c-4.8-4.3-11.2-3.5-13.7-2.9c-0.2,0.1-0.4,0.3-0.3,0.5c0,0.1,0.1,0.2,0.2,0.3c1,0.5,2.6,1.3,3.3,1.4c0,0-1.5,1.6,0.1,2.4
	c0.4,0.2,0.8,0.1,1.2-0.1c0.8-0.6,2.9,0.7,6,1.4c0,0,8.7,9,13,10.4c0.1,0.2,0.2,0.4,0.3,0.6l0.3,0v0h0.1l0,0.3c0,0,6.7-0.4,8.9-2.8
	c0.2-0.1,0.3-0.3,0.4-0.5l-2.3,29.4h0l0,0.3h1.7c0.1,3.6,0,7.2-0.5,10.8v19.2c0,0-0.1,1.7,3.4,4.2c3.7,2.6,7.2,5.3,10.6,8.2l0.4,0.4
	c-0.6,5.9-2,16.8-3.1,17.2l0.7,0.1c-1.2,1.5-4.6,5.6-5.6,5.8c-1.3,0.1-2.1,2.1,0,2.5c4.2,0.7,8.5,0.3,12.5-1.2
	c0.8-0.3,1.3-1.2,1.2-2l-0.4-3.1c0.1,0,0.1,0.1,0.2,0.2c0.3,0.8,0-1.1,0-1.1c1.2-3.7,2.1-7.5,2.7-11.3l4.2,3.6c0,0,0.1-0.1,0.2-0.3
	c1,2.3,2.8,7,2.4,10.5c-0.6,4.8,4.8,0.6,4.2-2.2c-0.5-2.3,1.6-11.9,2.4-15.5C258.9,115.7,258.5,114.9,257.7,114.6z"/>
<path class="st11" d="M214.2,37c0,0-4-0.7-9.8-6c-4.7-4.2-10.9-3.4-13.3-2.9c-0.2,0-0.4,0.3-0.3,0.5c0,0.1,0.1,0.2,0.2,0.3
	c1,0.5,2.5,1.3,3.2,1.4c0,0-1.5,1.5,0.1,2.3c0.4,0.2,0.8,0.1,1.2-0.1c0.7-0.5,2.8,0.7,5.8,1.3c0,0,11.8,12.2,14.5,10.1L214.2,37z"/>
<path class="st11" d="M234.5,20.4c0,0,1.1,4.6,0,7.9l4.9,0.7l4.4-2.2V24c0,0-2.1-4.4-1.5-9.4L234.5,20.4z"/>
<path class="st12" d="M248.4,121.1c0,0,3.6,7,3,11.6c-0.6,4.6,4.6,0.5,4.1-2.2c-0.4-2.2,1.5-11.6,2.3-15.1c0.2-0.8-0.3-1.6-1-1.8
	c-1.6-0.5-4.4-1.2-5.8-0.2C249,115,248.4,121.1,248.4,121.1z"/>
<path class="st12" d="M234.9,128.8c0,0-4.6,6-5.9,6.2c-1.2,0.1-2.1,2.1,0,2.5c4.1,0.7,8.3,0.3,12.2-1.2c0.8-0.3,1.3-1.1,1.2-2
	l-0.8-5.9L234.9,128.8z"/>
<path class="st13" d="M227.2,65l-4.5,0.6c0.6,5.2,0.6,10.5-0.1,15.7v18.7c0,0-0.1,1.6,3.3,4c3.6,2.5,7,5.2,10.4,8l12.4,10.7
	c0,0,4.9-6,4.2-9.6c0,0-8.2-2.6-9.3-6.8c-0.6-2.4-3.8-4.5-6.4-5.7c-3.4-1.6-5.1-5.4-4.3-9c0.2-0.6,0.4-1.2,0.7-1.8
	c2.2-3.8,5.3-12.4,5.3-12.4l-6-11.5L227.2,65z"/>
<path class="st14" d="M227.2,65l-4.5,0.6c0.6,5.2,0.6,10.5-0.1,15.7v18.7c0,0-0.1,1.6,3.3,4c3.6,2.5,7,5.2,10.4,8l12.4,10.7
	c0,0,4.9-6,4.2-9.6c0,0-8.2-2.6-9.3-6.8c-0.6-2.4-3.8-4.5-6.4-5.7c-3.4-1.6-5.1-5.4-4.3-9c0.2-0.6,0.4-1.2,0.7-1.8
	c2.2-3.8,5.3-12.4,5.3-12.4l-6-11.5L227.2,65z"/>
<path class="st13" d="M233.8,129.2c0,0,8.1,1.4,8.3,2.2c0.3,0.8,0-1.1,0-1.1s4.6-14.1,3.6-26.5c-1.1-12.4,1.4-20.6,1.4-20.6
	s2.9-9.3,1.2-14.6s-18.9-3-18.9-3s6,14.1,5.9,20.8c0,0,0.7,20.2,1.9,22.6C237.2,108.8,235.3,128.7,233.8,129.2z"/>
<path class="st6" d="M234.7,24c0,0,0.8,5.1,9,2.9l-5.5,41.5c0,0-15.9,0.5-15.7-1.4l3.3-25.1L234.7,24z"/>
<path class="st3" d="M234.9,23.7c-1.1,1.1-2.5,1.7-3.9,1.9c-1.4,0.1-2.7,0.5-3.9,1.2c-1.4,0.8-3,1.9-3.4,3.3c-1,2.7-7,7.2-9.7,6.3
	l1,8.2c0,0,7.8-0.4,9.2-3.4l-2.3,29.3h2.1c0,0,1.1-7.9,1.9-9.6c0.8-1.6,2.5-10.7,2.6-12.8c0.1-2.2,2.2-14.8,4-16.9l2.7-6.5
	L234.9,23.7z"/>
<path class="st3" d="M234.9,24.1c-1.2,1-2.7,1.6-4.2,1.7c-1.4,0.1-2.7,0.5-3.9,1.2c-1.4,0.8-3,1.9-3.4,3.3c-1,2.7-7,7.2-9.7,6.3
	l1,8.2c0,0,7.8-0.4,9.2-3.4l-2.3,29.2h2.1c0,0,1.1-7.9,1.9-9.6c0.8-1.6,2.5-10.7,2.6-12.8c0.1-2.2,2.2-14.8,4-16.9l2.9-6.4V24.1z"/>
<path class="st15" d="M234.9,23.8c-1.2,1-2.7,1.6-4.2,1.7c-1.4,0.1-2.7,0.5-3.9,1.2c-1.4,0.8-3,1.9-3.4,3.3c-1,2.7-7,7.2-9.7,6.3
	l1,8.2c0,0,7.8-0.4,9.2-3.4l-2.3,29.3h2.1c0,0,1.1-7.9,1.9-9.6c0.8-1.6,2.5-10.7,2.6-12.8s2.2-14.8,4-16.9l2.9-6.4L234.9,23.8z"/>
<path class="st3" d="M241.9,18.6c-0.2-1.3,0.2-2.1,0.3-3.6l-7.8,5.9c0,0,0.2,0.8,0.3,2c0.4,0.1,0.8,0.1,1.2,0.1
	C238.7,22.9,240.6,20.8,241.9,18.6z"/>
<circle class="st11" cx="236" cy="15.1" r="7.4"/>
<path class="st3" d="M227.9,7.9c0-1.2,0.2-2.5,0.6-3.7c-0.3,0.4-0.2,0.9,0.2,1.2c0.2-1.3,0.9-2.4,1.9-3.3c-0.5,0.1-0.8,0.7-0.7,1.3
	c0.2,0.5,0.5,0.9,0.9,1.3c0-0.8,0.5-1.5,1.1-1.9c0.7-0.4,1.4-0.7,2.2-0.8c-0.5,0.2-0.9,0.7-0.8,1.3c0,0.1,0,0.2,0.1,0.3
	c0.1,0,0.2,0.1,0.2,0.1c0.8,0,1.5,0,2.3-0.1c0.9-0.1,1.9-0.2,2.8-0.2c3,0.1,6,2.2,6.6,5.1c0.1,0.7,0.2,1.4,0.2,2.1l0.1,3.7
	c0.1,1.1,0,2.1-0.1,3.2c-0.4,2-1.7,3.7-3.5,4.6c-1.1-1.6-1.2-3.6-1.5-5.4c-0.1-0.4-0.2-0.8-0.5-1.2c-0.3-0.4-0.7-0.5-1.1-0.4
	c-0.4,0.2-0.6,0.8-0.2,1c-0.3,0.4-0.9,0.1-1.2-0.2c-0.9-0.9-1.6-2-1.9-3.3c-0.1-0.6-0.3-1.4-0.9-1.6c-0.2-0.1-0.4-0.1-0.7,0
	c-1.3,0.1-3.3,0.6-4.6,0.2C228.4,10.7,227.9,8.9,227.9,7.9z"/>
<path class="st16" d="M228.1,7.7c0-1.2,0.2-2.5,0.6-3.7c-0.3,0.4-0.2,0.9,0.2,1.2c0.2-1.3,0.9-2.4,1.9-3.3c-0.5,0.1-0.8,0.7-0.7,1.3
	c0.2,0.5,0.5,0.9,0.9,1.3c0-0.8,0.5-1.5,1.1-1.9c0.7-0.4,1.4-0.7,2.2-0.8c-0.5,0.2-0.9,0.7-0.8,1.3c0,0.1,0,0.2,0.1,0.3
	c0.1,0,0.2,0.1,0.2,0.1c0.8,0,1.5,0,2.3-0.1c0.9-0.1,1.9-0.2,2.8-0.2c3,0.1,6,2.2,6.6,5.1c0.1,0.7,0.2,1.4,0.2,2.1l0.1,3.7
	c0.1,1.1,0,2.1-0.1,3.2c-0.4,2-1.7,3.7-3.5,4.6c-1.1-1.6-1.2-3.6-1.5-5.4c-0.1-0.4-0.2-0.8-0.5-1.2c-0.3-0.4-0.7-0.5-1.1-0.4
	c-0.4,0.2-0.6,0.8-0.2,1c-0.3,0.4-0.9,0.1-1.2-0.2c-0.9-0.9-1.6-2-1.9-3.3c-0.1-0.6-0.3-1.4-0.9-1.6c-0.2-0.1-0.4-0.1-0.7,0
	c-1.3,0.1-3.3,0.6-4.6,0.2C228.5,10.5,228.1,8.8,228.1,7.7z"/>
<path class="st3" d="M213.3,36.3c0,0-1.1,5.1,1,8.2l1.2-0.1l-0.6-8L213.3,36.3z"/>
<path class="st15" d="M213.6,36.3c0,0-1.1,5.1,1,8.2l1.2-0.1l-0.6-8L213.6,36.3z"/>
<path class="st3" d="M243,22.5l8.8,7.6c0,0,5.2,5.3,3,13.9c0,0-1,12.6-2.1,13.1c0,0-3.8,7.7-4.1,14.9c0,0-5.1-10.3-7.4-4
	s-7.7,7.2-7.7,7.2l3-37.2C236.5,38,244.1,24.9,243,22.5z"/>
<path class="st15" d="M243.3,22.5l8.8,7.6c0,0,5.2,5.3,3,13.9c0,0-1,12.6-2.1,13.1c0,0-3.8,7.7-4.1,14.9c0,0-5.4-10.9-7.7-4.6
	c-2.3,6.3-7.4,7.7-7.4,7.7l3-37.2C236.8,38.1,244.4,24.9,243.3,22.5z"/>
<path class="st11" d="M247.3,54.6c0,0,2.2-1.5,5.7,2.6L244.3,73l-2.9-4.4C241.4,68.6,247.6,56.4,247.3,54.6z"/>
<path class="st3" d="M245.2,55.5c0,0,4.8,5.4,6.7,4.6l1.7-4.1l-6.6-2.8L245.2,55.5z"/>
<path class="st15" d="M245.2,55.2c0,0,4.8,5.4,6.7,4.6l1.7-4.1l-6.6-2.8L245.2,55.2z"/>
<path class="st3" d="M241.7,67.6c0,0,2.3,4.7,3.5,5l-1.8,2.1l-2.6-4.9L241.7,67.6z"/>
<path class="st13" d="M241.5,67.7c0,0,2.3,4.7,3.5,5l-1.8,2.1l-2.6-4.9L241.5,67.7z"/>
<path class="st3" d="M245.9,38.5c0,0,0.3,9.8-0.8,13.5"/>
<path class="st3" d="M223.7,40.4c0,0,1.6-0.5,1.6-1.9"/>
<path class="st7" d="M24.6,42.1c0,0-7.8,16.1-2.7,35.2s3.5,41.9-1.6,47.5"/>
<circle class="st1" cx="24.6" cy="42.1" r="2.1"/>
<path class="st7" d="M21.3,52.4c0,0,8.1,1.5,10.2-1.5"/>
<path class="st7" d="M20.6,57.1c0,0-4.9-5.4-4.6-8.6"/>
<path class="st7" d="M20.2,67c0,0,4.4,1.2,8.5-7.4"/>
<path class="st7" d="M21.3,74.1c0,0-11-7.1-9.7-11.6"/>
<path class="st7" d="M23,82.2c0,0,7.7-6.8,6.9-13.6"/>
<path class="st7" d="M23.9,87c0,0-9.8-2.7-9.5-7"/>
<path class="st7" d="M24.6,92.7c0,0,6.2-5.7,7-9.2"/>
<path class="st7" d="M25,102.4c0,0-6.3-7.4-6.6-11.2"/>
<path class="st7" d="M25,108.5c0,0,7.1-7.9,7.6-11.6"/>
<circle class="st1" cx="16" cy="49.1" r="2.1"/>
<circle class="st1" cx="13.6" cy="80" r="2.1"/>
<circle class="st1" cx="11.7" cy="62.5" r="2.1"/>
<circle class="st1" cx="31.6" cy="50.9" r="2.1"/>
<circle class="st1" cx="31.6" cy="84" r="2.1"/>
<circle class="st1" cx="28.1" cy="59.5" r="2.1"/>
<circle class="st1" cx="32.4" cy="98.2" r="2.1"/>
<circle class="st1" cx="17.9" cy="92.6" r="2.1"/>
<circle class="st1" cx="30.2" cy="68.7" r="2.1"/>
</svg>
