<svg version="1.1" id="cb7db7bb-371f-430c-ab8e-9f8547f8cfe6" xmlns="http://www.w3.org/2000/svg" x="0" y="0" viewBox="0 0 285.6 217.8" xml:space="preserve"><style>.st2{fill:#e7e7e7}.st3{opacity:.1;enable-background:new}.st5{fill:#153559}.st6{fill:#fff}.st7{fill:#3c6fe9}.st8{fill:#ededf4}.st9{fill:#89daf8}.st11{opacity:.5;enable-background:new;fill:#3c6fe9}</style><path d="M280.1 49.6c-2.9-5.6-6.7-10.7-11.2-15.2l-156-1.3 128.4-15.3c-8.4-2.8-17.2-4.3-26.1-4.4C202.9 5.1 187 0 169.7 0c-15.6 0-29.9 4.1-41.7 11-10-4.3-21.3-6.8-33.4-6.8-34.7 0-63.5 20.3-70 47.2l255.5-1.8zm5.5 22.5c0-7.4-1.7-14.6-4.9-21.3l-270.3 24C7.6 79 5.5 83.6 4.1 88.4L87.8 99l-85.6 7.7c2.6 30.5 33.5 54.5 71.2 54.5 19 0 36.2-6.1 49-16 12.8 10.1 30.3 16.4 49.5 16.4 28.5 0 53.1-13.7 64.5-33.5 23-6.2 40.8-21.6 46.9-41L177.4 73h108.2v-.9z" fill="#f3fbfe"/><ellipse cx="127.6" cy="214.5" rx="72.7" ry="3.2" opacity=".1" fill="#3c6fe9"/><path class="st2" d="M170.7 208.8v2h-58v-1.6c9.9-3.7 14.9-14.6 11.3-24.5-1.8-4.7-5.3-8.6-9.9-10.7h56.3c-9.6 4.4-13.8 15.7-9.4 25.3 1.9 4.2 5.4 7.6 9.7 9.5z"/><path class="st3" d="M170.3 174c-5.2 2.4-9.1 7-10.5 12.6h-35.2c-1.4-5.6-5.3-10.2-10.5-12.6h56.2z"/><path class="st2" d="M46.3 164v11c0 6.1 4.4 11 9.9 11h170.7c5.5 0 9.9-4.9 9.9-11v-11H46.3z"/><path class="st3" d="M170.7 208.8v2h-58v-1.6c1.6-.6 3.1-1.4 4.5-2.4h50c1.1.8 2.3 1.5 3.5 2z"/><path class="st2" d="M95.9 207.4h91.6c1.3 0 2.4 1.1 2.4 2.4v1.1c0 1.3-1.1 2.4-2.4 2.4H95.9c-1.3 0-2.4-1.1-2.4-2.4v-1.1c.1-1.3 1.1-2.4 2.4-2.4z"/><path d="M236.9 43.3c0-5.5-4.5-9.9-9.9-9.9H56.3c-5.5 0-9.9 4.4-10 9.9v122.8h190.6V43.3z" fill="#18243f"/><path class="st5" d="M231.7 47.7v105.5c0 2.7-2.2 4.9-4.9 4.9H56.4c-2.7 0-4.9-2.2-4.9-4.9V47.7c0-2.7 2.2-4.9 4.9-4.9h170.4c2.7 0 4.9 2.2 4.9 4.9z"/><circle class="st6" cx="141.6" cy="38.1" r="2.3"/><circle class="st6" cx="141.6" cy="175.4" r="5.7"/><path class="st5" d="M89.6 45.3v112.9H56.4c-2.7 0-4.9-2.2-4.9-4.9V47.7l.2-.7.5-1.8 37.4.1z"/><path class="st5" d="M93.8 47.1v10.1H51.5v-9.5l.2-.6z"/><path class="st7" d="M231.7 47.7H51.5c0-2.7 2.2-4.9 4.9-4.9h170.4c2.7 0 4.9 2.2 4.9 4.9z"/><circle class="st8" cx="56.4" cy="45.3" r="1.2"/><circle class="st8" cx="60.1" cy="45.3" r="1.2"/><circle class="st8" cx="63.7" cy="45.3" r="1.2"/><path class="st7" d="M57.8 51.6h25.4v2.3H57.8z"/><path class="st9" d="M57.8 63h25.4v2.3H57.8zm0 8h25.4v2.3H57.8zm0 8.1h25.4v2.3H57.8zm0 8.1h25.4v2.3H57.8zm0 8h25.4v2.3H57.8zm0 8.1h25.4v2.3H57.8zm0 8.1h25.4v2.3H57.8z"/><path d="M110.4 60.2H223v.4H110.4zm0 8.7H223v.4H110.4zm0 8.7H223v.4H110.4zm0 8.8H223v.4H110.4zm0 8.7H223v.4H110.4z" opacity=".5" fill="#dce0ed"/><path class="st11" d="M223 95.5H110.2V78.3l10.4 5.1 10.7 1.4 9.4-2.8 11.3-8.8 5.7-3.3 4.2-.8 4 .2 6.5 3.3 8.9 5.7 7 .8 5.6-1.9 11.7-9.6 6-2.1 6.3 1 5.1 2.9z"/><path class="st7" d="M129.9 84.8c-10.2 0-19.5-6.2-19.7-6.3l.3-.4c.2.1 14.6 9.7 26.9 4.9 4.5-1.7 7.7-4.5 10.8-7.1 3.2-2.7 6.3-5.3 10.4-6.4 4.8-1.3 10-.1 13.9 3.1 3.4 2.8 10.1 7.2 17.2 5.9 3.6-.7 6.7-3.3 9.9-6.1 6.2-5.4 12.6-10.9 23.7-3l-.3.4c-10.7-7.7-17-2.3-23 2.9-3.3 2.8-6.4 5.5-10.1 6.2-7.3 1.4-14.1-3.2-17.6-6-3.8-3.1-8.9-4.3-13.4-3-4 1.1-7 3.6-10.2 6.3-3.1 2.7-6.3 5.4-10.9 7.2-2.7 1-5.3 1.5-7.9 1.4z"/><circle cx="164.6" cy="69.1" r="2.8" fill="#e9425e"/><path class="st9" d="M120.3 115h16.6v3.5h-16.6zm38.1 0H175v3.5h-16.6zm38 0H213v3.5h-16.6z"/><path class="st7" d="M119.2 139.6c0-5.1 4.2-9.1 9.3-9.1h.1v-2.3h-.1c-6.4 0-11.6 5-11.6 11.4 0 3.4 1.5 6.5 4 8.8l1.7-1.7c-2.2-1.8-3.4-4.4-3.4-7.1z"/><path class="st11" d="M128.8 128.2v2.3c5.1 0 9.3 4.2 9.2 9.4 0 5.1-4.2 9.3-9.4 9.2-2.2 0-4.3-.8-5.9-2.2l-1.7 1.7c4.8 4.2 12.2 3.7 16.4-1.1 4.2-4.8 3.7-12.2-1.1-16.4-2.1-1.9-4.7-2.9-7.5-2.9zm76.2 2.2c5.1 0 9.1 4.2 9.1 9.3v.1h2.3v-.1c0-6.4-5-11.6-11.4-11.6-3.4 0-6.5 1.5-8.8 4l1.7 1.7c1.8-2.2 4.4-3.4 7.1-3.4z"/><path class="st7" d="M216.4 140h-2.3c0 5.1-4.2 9.3-9.4 9.2-5.1 0-9.3-4.2-9.2-9.4 0-2.2.8-4.3 2.2-5.9l-1.7-1.7c-4.2 4.8-3.7 12.2 1.1 16.4 4.8 4.2 12.2 3.7 16.4-1.1 1.9-2 2.9-4.7 2.9-7.5z"/><path class="st11" d="M171.2 128.9l-.5 2.3c3.4 1.4 5.6 4.7 5.6 8.6 0 5.1-4.2 9.3-9.3 9.3-5.1 0-9.3-4.2-9.3-9.3 0-3.7 2.2-7 5.6-8.5l-1-2.1c-5.8 2.6-8.5 9.5-5.8 15.4 2.6 5.8 9.5 8.5 15.4 5.8 4.2-1.9 6.8-6 6.8-10.6 0-5-3-9.3-7.5-10.9z"/><path class="st7" d="M167.4 130.4c1.1 0 2.2.2 3.2.7l.5-2.3c-1.2-.5-2.4-.7-3.7-.7-1.7 0-3.3.4-4.8 1l1.1 2.1c1.1-.6 2.4-.8 3.7-.8z"/></svg>