<svg version="1.1" id="a6f4e524-a1b8-434a-a0ca-43acb27f4769" xmlns="http://www.w3.org/2000/svg" x="0" y="0" viewBox="0 0 283.5 218.9" xml:space="preserve"><style>.st0{opacity:.1;enable-background:new}.st0,.st1{fill:#ebaf41}.st3,.st4{fill:#fff}.st4{stroke:#fff;stroke-miterlimit:10}.st5{opacity:.5;fill:#ebaf41;enable-background:new}.st6{fill:#504f60}.st7{opacity:.1;enable-background:new}.st10,.st9{fill:none;stroke:#33313f;stroke-linecap:round;stroke-miterlimit:10}.st10{stroke-width:.75}.st13{fill:#33313f}.st16{fill:#db8b8b}.st17{fill:#2e3037}.st18{fill:#35323e}</style><ellipse class="st0" cx="88.5" cy="209.7" rx="60.6" ry="9.2"/><path class="st0" d="M87.5 9.7C97.1 1.2 112.2-.5 126 .2c43.2 2.1 82.1 22.7 115.8 46 12.2 8.4 24.2 17.5 32.1 29.1 16.1 23.6 11.3 56.4-11.1 75.9-7.6 6.6-16.9 11.7-26.4 16.2-16.9 8-35.1 14.4-54.2 16.3-13.7 1.3-27.5.2-41.1-1.6-37.9-5.1-75.1-16.4-106.3-35.6-13.7-8.4-26.6-18.9-32.2-32.6s-2-31 11.9-39c5.8-3.3 12.7-4.9 19.5-6.3 10-2.1 20.1-4.1 29.1-8.4 9.3-4.4 20.3-12.9 18.4-22.6-2-10.3-3.6-19.5 6-27.9z"/><path class="st1" d="M235.1 22.6c1.7 11.4-3.1 21.5-3.1 21.5s-7.6-8.3-9.3-19.7c-1-6.4.1-12.4 1.3-16.4.4-1.5 2-2.4 3.4-2 .7.2 1.3.6 1.6 1.2 2.3 3.6 5.1 9 6.1 15.4zm32 18.1c1.7 0 3.4.2 5.1.6 2.8.7 2.8 4.7.1 5.4-1.6.5-3.3.7-5.1.8-6.3.1-11.4-3.3-11.4-3.3s5.1-3.4 11.3-3.5zm-17.6-17.3c-5.8 6.4-7.1 14.8-7.1 14.8s8.2-2 14-8.4c2.7-3 4.4-6.4 5.5-9.1.6-1.4-.2-3.1-1.6-3.6-.7-.3-1.5-.2-2.2.1-2.7 1.2-5.9 3.3-8.6 6.2z"/><path d="M135.6 22.2h121.1c2.8 0 5.1 2.3 5.1 5.1v147.9c0 2.8-2.3 5.1-5.1 5.1H135.6c-2.8 0-5.1-2.3-5.1-5.1V27.3c.1-2.8 2.3-5.1 5.1-5.1z" fill="#464353"/><path class="st0" d="M141.9 38.2h108.6v126.1H141.9z"/><circle class="st3" cx="196.2" cy="172.6" r="4.6"/><path class="st3" d="M196.2 33.6c-1.2 0-2.2-1-2.2-2.2s1-2.2 2.2-2.2 2.2 1 2.2 2.2c-.1 1.3-1 2.2-2.2 2.2z"/><path class="st3" d="M196.2 29.4c1.1 0 2.1.9 2.1 2.1 0 1.1-.9 2.1-2.1 2.1-1.1 0-2.1-.9-2.1-2.1 0-1.2.9-2.1 2.1-2.1m0-.3c-1.3 0-2.3 1-2.3 2.3 0 1.3 1 2.3 2.3 2.3s2.3-1 2.3-2.3c0-1.2-1.1-2.2-2.3-2.3z"/><path class="st4" d="M148 77.2h20.3c.6 0 1.1.5 1.1 1.1v28.4c0 .6-.5 1.1-1.1 1.1H148c-.6 0-1.1-.5-1.1-1.1V78.3c0-.6.5-1.1 1.1-1.1z"/><path class="st5" d="M150.9 84.9h14.6c1 0 1.8.8 1.8 1.8v6.1c0 1-.8 1.8-1.8 1.8h-14.6c-1 0-1.8-.8-1.8-1.8v-6.1c-.1-.9.7-1.8 1.8-1.8z"/><path class="st1" d="M153.3 98.6h9.8c.2 0 .4.2.4.4v.6c0 .2-.2.4-.4.4h-9.8c-.2 0-.4-.2-.4-.4V99c0-.2.1-.4.4-.4z"/><path class="st4" d="M186.1 77.2h20.3c.6 0 1.1.5 1.1 1.1v28.4c0 .6-.5 1.1-1.1 1.1h-20.3c-.6 0-1.1-.5-1.1-1.1V78.3c0-.6.5-1.1 1.1-1.1z"/><path class="st5" d="M191.3 82h10c.2 0 .4.2.4.4v5c0 .2-.2.4-.4.4h-10c-.2 0-.4-.2-.4-.4v-5c0-.2.2-.4.4-.4z"/><path class="st1" d="M189.8 93.1h12.9c.2 0 .4.2.4.4v.6c0 .2-.2.4-.4.4h-12.9c-.2 0-.4-.2-.4-.4v-.6c-.1-.2.1-.4.4-.4zm0 2.8h12.9c.2 0 .4.2.4.4v.7c0 .2-.2.4-.4.4h-12.9c-.2 0-.4-.2-.4-.4v-.6c-.1-.3.1-.5.4-.5z"/><path class="st4" d="M224 55.5h20.3c.6 0 1.1.5 1.1 1.1V85c0 .6-.5 1.1-1.1 1.1H224c-.6 0-1.1-.5-1.1-1.1V56.6c0-.6.5-1.1 1.1-1.1z"/><path class="st5" d="M227.2 60.2h13.9c.2 0 .4.2.4.4v6.1c0 .2-.2.4-.4.4h-13.9c-.2 0-.4-.2-.4-.4v-6.1c0-.2.2-.4.4-.4zm0 10h13.9c.2 0 .4.2.4.4v6.1c0 .2-.2.4-.4.4h-13.9c-.2 0-.4-.2-.4-.4v-6.1c0-.3.2-.4.4-.4z"/><path class="st1" d="M226.6 82.5h2.9c.5 0 1 .4 1 1v.2c0 .5-.4 1-1 1h-2.9c-.5 0-1-.4-1-1v-.2c0-.5.5-1 1-1zm6.1 0h2.9c.5 0 1 .4 1 1v.2c0 .5-.4 1-1 1h-2.9c-.5 0-1-.4-1-1v-.2c0-.5.5-1 1-1zm6.1 0h2.9c.5 0 1 .4 1 1v.2c0 .5-.4 1-1 1h-2.9c-.5 0-1-.4-1-1v-.2c0-.5.5-1 1-1z"/><path class="st4" d="M223.9 99h20.3c.6 0 1.1.5 1.1 1.1v28.4c0 .6-.5 1.1-1.1 1.1h-20.3c-.6 0-1.1-.5-1.1-1.1v-28.4c0-.6.5-1.1 1.1-1.1z"/><path class="st5" d="M224.9 102.5h6c.2 0 .4.2.4.4v6.1c0 .2-.2.4-.4.4h-6c-.2 0-.4-.2-.4-.4v-6.1c.1-.2.2-.4.4-.4z"/><path class="st1" d="M227.6 113.6h12.9c.2 0 .4.2.4.4v.6c0 .2-.2.4-.4.4h-12.9c-.2 0-.4-.2-.4-.4v-.6c0-.3.2-.4.4-.4zm0 3h12.9c.2 0 .4.2.4.4v.6c0 .2-.2.4-.4.4h-12.9c-.2 0-.4-.2-.4-.4v-.6c0-.2.2-.4.4-.4zm0 3.1h12.9c.2 0 .4.2.4.4v.6c0 .2-.2.4-.4.4h-12.9c-.2 0-.4-.2-.4-.4v-.6c0-.3.2-.4.4-.4z"/><path class="st4" d="M182.4 91.8l-.4.2-2.8 1.3-.3.1c-.1 0-.2 0-.2-.1v-.9c0-.1-.1-.1-.1-.1h-6.8c-.1 0-.1-.1-.1-.1v-1.1c0-.1.1-.1.1-.1h6.8c.1 0 .1-.1.1-.1v-1c0-.1.1-.1.2-.1l.3.1 2.8 1.4.3.2c.2.1.2.2.1.3zm37.8-6.9l-.2.3-1.8 2.5-.2.2c0 .1-.1.1-.2 0l-.4-.7c0-.1-.1-.1-.2-.1l-6 3.2c-.1 0-.1 0-.2-.1l-.5-1c0-.1 0-.1.1-.2l6-3.2c.1 0 .1-.1.1-.2l-.4-.7c0-.1 0-.1.1-.1h.3l3.1-.1h.4c-.1 0 0 .1 0 .2zm0 13.1h-3.8c-.1 0-.1-.1-.1-.1l.3-.7c0-.1 0-.1-.1-.2l-6.1-2.9c-.1 0-.1-.1-.1-.2l.5-1c0-.1.1-.1.2-.1l6.1 2.9c.1 0 .1 0 .2-.1l.4-.7c0-.1.1-.1.2-.1h.1l.2.2 1.9 2.4.2.3c0 .1 0 .2-.1.3z"/><path class="st6" d="M108.3 154.9v.7l-1.3 46h-2.2l1-46 .1-.9z"/><path class="st7" d="M108.3 154.9v.7l-1.3 46h-2.2l1-46 .1-.9z"/><path class="st6" d="M121 193.8h-1.7l-24.3-.1h-1.3l.6-2.1h26.5z"/><path class="st7" d="M108.3 154.9v.7h-2.5l.1-.9z"/><path class="st6" d="M105.1 153.7h4.1v1.5h-4.1z"/><path class="st7" d="M95.2 191.6l-.2 2.1h-1.3l.6-2.1z"/><path class="st6" d="M98.7 153.7l-.1.7-5.4 53.3-2.5-.1 5.7-53.2.1-.6z"/><path class="st7" d="M121 193.8h-1.7l-.2-2.2h1.7z"/><path class="st6" d="M123.6 207.6l-2.5.1-5.4-53.3-.1-.7 2.2.1.1.6z"/><path class="st3" d="M79.5 101.1h54.6v52.4H79.5z"/><path class="st3" d="M68.6 101.1h76.5c.6 0 1.1.5 1.1 1.1v50.2c0 .6-.5 1.1-1.1 1.1H68.6c-.6 0-1.1-.5-1.1-1.1v-50.2c0-.6.5-1.1 1.1-1.1z"/><path class="st6" d="M107.9 83.6v12.6h-2.1V83.6c0-.6.5-1.1 1.1-1.1.5.1 1 .5 1 1.1z"/><path class="st7" d="M105.7 95.1h2.1v1.2h-2.1z"/><path class="st6" d="M108.7 96v4.2h-3.8V96c0-.3.2-.5.5-.5h2.8c.2 0 .5.2.5.5z"/><circle class="st7" cx="106.8" cy="98.1" r=".8"/><circle cx="106.8" cy="97.9" r=".8" fill="#3f3d56"/><path class="st7" d="M104.9 99.6h3.8v.5h-3.8zm-1.6.7h6.9v1.2h-6.9z"/><path class="st6" d="M103.3 100h6.9v1.2h-6.9z"/><path class="st7" d="M93.1 152.1h28.5c.8 0 1.5.7 1.5 1.5H91.6c0-.8.6-1.5 1.5-1.5zm3.4 1.7l2.2-.1-.1.7h-2.2zm8.6-.1h4.1v.6h-4.1zm12.8.7h-2.2l-.1-.7 2.2.1z"/><path class="st6" d="M93.1 152.5h28.5c.8 0 1.5.7 1.5 1.5H91.6c0-.8.6-1.5 1.5-1.5z"/><path class="st9" d="M132.2 107.3c.2 0 .4.1.4.3v.1c-.4 3.6-.1 7.2.3 10.8.2 1.6.4 3.4 1.2 4.6.1.2.1.3-.1.5s-.5.2-.7.2l-11.4.1c-.2 0-.4-.2-.4-.4v-.1c.9-3.9.7-8.2.4-12.2-.2-2-.3-3.1 1.2-3.2s3.1-.2 4.6-.3c.3-.1 3.3-.2 4.5-.4zm-8.7 23.4c-.2 0-.4.1-.4.3v.1c.4 3.6.1 7.2-.3 10.8-.2 1.6-.4 3.4-1.2 4.6-.1.1-.1.3.1.5s.5.2.7.2l11.4.1c.2 0 .4-.2.4-.4v-.1c-.9-3.9-.7-8.2-.4-12.2.2-2 .3-3.1-1.2-3.2s-3.1-.2-4.6-.3c-.4-.1-3.3-.2-4.5-.4z"/><path class="st9" d="M126.8 137.3c1.3-.1 2.7 0 4 0 .2 0 .3.2.3.3l.1 1v.1h-1.8c-.3 0-.7.1-1 .1-.6 0-1.1.1-1.7 0-.8 0-1.6-.1-2.4-.3v-.9c0-.4 0-.4.4-.4l2.1.1zm0 4.7c1.3.1 2.7 0 4-.1.2 0 .3-.2.3-.3l.1-1v-.1h-.1c-.6 0-1.1.1-1.7 0-.3 0-.7-.1-1-.1-.6-.1-1.1-.1-1.7 0-.8 0-1.6.1-2.4.3v.9c0 .4 0 .4.4.4h2.1zm0 1.8c1.3-.1 2.7 0 4 .1.2 0 .3.2.3.3l.1 1v.1h-.1c-.6 0-1.1-.1-1.7 0-.3 0-.7.1-1 .1-.6 0-1.1.1-1.7 0-.8 0-1.6-.1-2.4-.3v-.9c0-.4 0-.4.4-.4h2.1z"/><path class="st10" d="M128.5 122c.1.3.2.6.1.9v.1h-.1l-2.4.1s.1-.7.2-.8c.1-.3.3-.2.6-.2l1.6-.1zm3.7 0c.1.3.2.6.1.9v.1h-.1l-2.4.1s.1-.7.2-.8c.1-.3.3-.2.6-.2l1.6-.1zm-1.5-12.2l.3 2.8c0 .4-.3.8-.7.8-2.1.2-4.2.2-6.2 0-.4 0-.7-.3-.7-.7 0-.5-.1-1-.2-1.5s-.2-1 .4-1.2 1.4 0 2.1-.1c.8 0 1.6 0 2.4-.1.2.1 2.6 0 2.6 0zm0 10.1l.3-2.8c0-.4-.3-.8-.7-.8-2.1-.2-4.2-.2-6.2 0-.4 0-.7.3-.7.7 0 .5-.1 1-.2 1.5s-.2 1 .4 1.2 1.4 0 2.1.1c.8 0 1.6 0 2.4.1.2-.1 2.6.1 2.6 0z"/><path class="st9" d="M127.4 132.6c-.1.9-.1 1.9-.2 2.8-.9 0-1.9-.1-2.8-.3-.3 0-.5-.2-.5-.5v-.1c0-.6-.3-1.9.5-2 .3 0 3 .1 3 .1z"/><path d="M82.3 119.8c.4 0 .8.3.9.7v.2c-.3 3.4-.1 6.9.3 10.3.2 1.5.4 3.1 1 4.3.2.3 0 .7-.3.9-.1 0-.2.1-.3.1h0l-11.3.1c-.2 0-.5-.2-.5-.4v-.1c.9-3.9.7-8.1.3-12.1-.2-2-.3-3.1 1.2-3.2s3.1-.2 4.6-.3c.5-.2 2.8-.3 4.1-.5z" fill="#fff" stroke="#33313f" stroke-linecap="round" stroke-miterlimit="10"/><path d="M98.1 119.8c-.2 0-.4.1-.5.3v.1c.4 3.6.1 7.2-.3 10.8-.2 1.6-.4 3.3-1.2 4.6-.1.2-.1.4.1.5s.4.2.6.2l11.4.1c.2 0 .4-.2.4-.4v-.1c-.9-3.9-.7-8.2-.3-12.2.2-2 .3-3.1-1.2-3.2s-3.1-.2-4.6-.3c-.3-.1-3.2-.2-4.4-.4z" fill="#fff" stroke="#33313f" stroke-miterlimit="10"/><path class="st9" d="M75.6 122.1l5.8 7.7m0-8.3l-5.6 8.7m25.6-7.7l3.1 4.2m0-4.6l-3 4.8m-24 5.4c1.3-.1 2.7 0 4 0 .2 0 .3.2.3.3l.1 1v.1h-.1c-.6 0-1.1-.1-1.7 0-.3 0-.7.1-1 .1-.6 0-1.1.1-1.7 0-.8 0-1.6-.1-2.4-.3v-.9c0-.4 0-.4.4-.4l2.1.1zm24.3-3.9c1.3-.1 2.7 0 4 .1.2 0 .3.2.3.3l.1 1v.1h-.1c-.6 0-1.1-.1-1.7 0-.3 0-.7.1-1 .1-.6.1-1.1.1-1.7 0-.8 0-1.6-.1-2.4-.3v-.9c0-.4 0-.4.4-.4h2.1zm2 2.9c-1.3-.1-2.7 0-4 0-.2 0-.3.2-.3.3l-.1 1v.1h1.8c.3 0 .7.1 1 .1.6 0 1.1.1 1.7 0 .8 0 1.6-.1 2.4-.3v-.9c0-.4 0-.4-.4-.4l-2.1.1zm-16.5-1.9s3.8-.2 4.4 0"/><path class="st9" d="M91.7 127.4s1.6 1.6 1.6 2-2.1 1.7-2.1 1.7m20.6-5.2s3.4-1.6 4.1-1.7"/><path class="st9" d="M115.2 122.4s2.1.9 2.3 1.3c.1.4-1.3 2.4-1.3 2.4m-4.4 3.9s3.5 1.5 4 1.9"/><path class="st9" d="M116.7 130.1s.8 2.2.6 2.5-2.7.6-2.7.6"/><path class="st10" d="M125.2 122c.1.3.2.6.1.9v.1h-.1l-2.4.1s.1-.7.2-.8c.1-.3.3-.2.6-.2l1.6-.1z"/><path class="st13" d="M79.4 144l.8-.8-.8-.1-.4.7z"/><path fill="#65617d" d="M73.2 149.6l.9-1.2.2-.2 2.8-2.9.9-1 .5-.1.6-.6.4.3-.6.8v.3l-1 1.1-2.7 3-.2.1-1.1 1.1z"/><path class="st13" d="M74.3 148.2l2.8-2.9.8.8-2.7 3z"/><linearGradient id="SVGID_1_" gradientUnits="userSpaceOnUse" x1="2098.111" y1="1449.639" x2="2098.111" y2="1311.069" gradientTransform="translate(-2036.77 -1231.683)"><stop offset="0" stop-color="gray" stop-opacity=".25"/><stop offset=".54" stop-color="gray" stop-opacity=".12"/><stop offset="1" stop-color="gray" stop-opacity=".1"/></linearGradient><path d="M78.5 149.3c-.8-.8-1.5-1.6-2.1-2.6-1.2-1.9-3.3-2.9-4.7-3.5v-.6h.1v-.6l-.1-1.5-.5-7.6s-1.8-5.1 1.4-9.7c3.2-4.7.2-9.2-2.8-10.9 0 0-1.4-7.4-.2-9.2-1.6-.9-3.3-1.8-5-2.5 0-.1-.1-.2-.1-.3 0-.7-.1-1.4-.1-2.1 0-.4.1-.7.2-1.1 0-.1.1-.3.1-.4 2.9-1.1 4.9-3.9 4.9-7 0-.9-.2-1.8-.5-2.6.2-.3.3-.6.4-.9.2-.8 0-1.6-.5-2.4-.8-1.7-2.8-3.4-4.3-4-2.1-.8-5.2-.6-7.4-.4-1.2.1-2.6.6-3 1.7-.2.4-.2.9-.3 1.3-.5 1.7-2.4 2.5-3.6 3.8-1.1 1.1-1.5 2.7-1.9 4.2-1 4.3-1.2 8.8-.7 13.2.1 1 .3 2 .5 3-.7 1-1.4 2.8-1.1 6L44.8 124l-1 6.6s-.6 2.7 1.8 5.1c1.5 1.5 3.4 4 4.5 5.6-.5 1.4-.7 3-.7 4.5 0 .7.1 1.4.1 2 .1 1.4.4 2.7.8 4 .3 2.7.8 6.2 1.9 8.4l.4 11.9s-.6 10.9-1.8 13.1c-1.2 2.1 2.6 20.3 2.6 20.3v2.5l-.6 1.9-.2-.1c-3 3.7 0 5.1 0 5.1s.8 0 2.1.1c-.2 1.1.3 2.2 1.3 2.6 0 0 17 .8 20 0s2.2-3.5.6-3.3c-.6.1-1.5-.1-2.4-.3.9-1.1.2-2.6-1-2.4-1.6.2-5.2-1.2-5.2-1.2-.1 0-.2-.1-.4-.1-1.3-.3-2.7-.7-4-1.1-.8-1.6-2.6-6.1-1.3-9.5.6-1.5.8-3.6.8-5.6 0-6 .9-12 2.6-17.8l2.4-8.2s3.4-9.9 3.6-12.7v-4c2.8 1.8 5 1.3 6.5.4.7-.4 1-1.4.5-2.1 0-.2-.1-.3-.2-.4zm-26.7-20.7c.1-.3.1-.6.2-.9h1.4c.6 1.2.8 2.5.7 3.8-1.1-.3-2.7-1.1-2.3-2.9z" fill="url(#SVGID_1_)"/><path class="st16" d="M53.7 207l-.8 2.3 2.5 2.5 8.3 1.9 6-.6-.4-2.1c-.2-.9-1-1.6-1.9-1.9-2.5-.6-7.1-1.9-8.1-3.7l-5.6 1.6z"/><path class="st7" d="M53.7 207l-.8 2.3 2.5 2.5 8.3 1.9 6-.6-.4-2.1c-.2-.9-1-1.6-1.9-1.9-2.5-.6-7.1-1.9-8.1-3.7l-5.6 1.6z"/><path class="st17" d="M67.8 212.5l-1.2-1.5 1.2-1.8s3.5 1.4 5 1.2 2.3 2.5-.6 3.3-19.2 0-19.2 0-2.9-1.3 0-5l2.5 1.9s4.2 2.3 6.3 1.9h6z"/><path class="st16" d="M73 215.8l-6 .6-8.3-1.9-2.5-2.5.2-.6.3-.9.3-.8 5.6-1.5c.3.5.7.8 1.1 1.1 1.8 1.2 5.1 2.1 7 2.6.1 0 .2 0 .2.1.8.3 1.4.9 1.7 1.8l.4 2z"/><path class="st7" d="M73 215.8l-6 .6-8.3-1.9-2.5-2.5.2-.6 2.3 1.8s4.2 2.3 6.3 1.9h6l-1.2-1.5 1-1.6c.8.3 1.4.9 1.7 1.8l.5 2z"/><path class="st17" d="M71 215.2l-1.2-1.5 1.2-1.8s3.5 1.4 5 1.2 2.3 2.5-.6 3.3-19.2 0-19.2 0-2.9-1.3 0-5l2.5 1.9s4.2 2.3 6.3 1.9h6z"/><path class="st16" d="M66.2 103.7s-9.2 1-7.9-2.9c.4-1.1.5-2.3.3-3.4-.2-1.4-.8-2.7-1.6-3.9l8.7 1.3c-.5.9-.9 1.8-1.2 2.8-1.1 4.1 1.7 6.1 1.7 6.1z"/><path class="st18" d="M50.5 147.6s.2 8.3 2.1 12.3l.4 11.7s-.6 10.8-1.7 12.9c-1.2 2.1 2.5 20 2.5 20v3.1s6.2 2.3 7.9-.4L60 184.3l.8-31.7-10.3-5z"/><path class="st7" d="M50.5 147.6s.2 8.3 2.1 12.3l.4 11.7s-.6 10.8-1.7 12.9c-1.2 2.1 2.5 20 2.5 20v3.1s6.2 2.3 7.9-.4L60 184.3l.8-31.7-10.3-5z"/><path class="st1" d="M46.6 121l-1.2 3.1-1 6.5c-.3 1.8.4 3.7 1.7 5 2.3 2.3 5.4 7.1 5.4 7.1l3.7-11s-3.7-.6-3.1-3.1c.6-2.5.4-7.1.4-7.1l-5.9-.5z"/><path class="st7" d="M63.7 209.3c-2.5 3.9-6.3 1.7-7 1.2l.3-.8 5.6-1.5c.3.4.6.8 1.1 1.1z"/><path class="st18" d="M71.4 155.1c-.2 2.7-3.5 12.5-3.5 12.5l-2.3 8.1c-1.7 5.7-2.5 11.6-2.5 17.5 0 2-.2 4-.7 5.5-1.5 4.2 1.5 10 1.5 10-2.7 4.8-7.3 1.5-7.3 1.5v-3.1s-3.6-16.7-2.7-20c1-3.3 1.3-12.1 1.3-12.1v-16c-3.1-3.1-5-7.1-5.3-11.5 0-.6-.1-1.3-.1-2-.2-4.3 2.8-9.4 4-11.2.3-.4.5-.7.5-.7l17 6.7v2.2l.1 12.6z"/><path class="st7" d="M65.6 94.9c-.5.9-.9 1.8-1.2 2.8-1.9.7-4 .6-5.9-.2-.2-1.4-.8-2.7-1.6-3.9l8.7 1.3z"/><circle class="st16" cx="61.8" cy="90.3" r="7.5"/><path class="st7" d="M71.4 142.6c-8.1 1.7-18.3-6.7-18.3-6.7.3-.5.5-.9.7-1.4.3-.4.5-.7.5-.7l17 6.7v.7l.1 1.4z"/><path class="st1" d="M69.3 103.5S58.5 97 55.1 99.7l-4.8 6.2s-3.1 1-2.5 7.1l-2.3 11.2 6.9 1.7s4 3.8.8 9.4c0 0 10.2 8.5 18.3 6.7l-.6-9s-1.7-5 1.3-9.6c3.1-4.6.2-9-2.7-10.8 0 0-1.4-7.3-.2-9.1z"/><path class="st16" d="M69.9 142.8s4 .8 6 3.8c.6.9 1.2 1.8 2 2.5.6.6.7 1.5.1 2.2l-.3.3c-1.5.9-4 1.5-7.1-1.1-5.5-4.5-.7-7.7-.7-7.7z"/><path class="st7" d="M63.9 107.2s-3.8-.4-4.8 9.6-2.5 12.3-2.5 12.3-1 5.2 1.3 8.3 6.7 9.6 6.7 9.6 4.8 1.3 5.8-3.5l-6-11.1s-1-3.8 1.3-6.5c2.4-2.7 4.2-20.6-1.8-18.7z"/><path class="st1" d="M64.3 106.6s-3.8-.4-4.8 9.6-2.5 12.3-2.5 12.3-1 5.2 1.3 8.3 6.7 9.6 6.7 9.6 4.8 1.3 5.8-3.5l-6-11.2s-1-3.8 1.3-6.5 4.2-20.5-1.8-18.6z"/><path class="st7" d="M67.5 113.8s.4 6-1.3 9.2c-1.7 3.3-1.7 7.5 0 9.8m2.2-26.3s-1.5-1.5-6-1.7c-4.4-.2-6.3-1.5-6.3-1.5"/><path class="st7" d="M57.8 80.6c-1.2.1-2.5.5-2.9 1.6-.2.4-.2.8-.3 1.3-.4 1.7-2.3 2.5-3.5 3.7-1 1.1-1.5 2.7-1.8 4.2-1 4.3-1.2 8.7-.7 13.1.4 3.2 1.1 6.3 1.4 9.5.2 3.2-.2 6.6-1.9 9.3-.8 1.2-1.7 2.2-2.3 3.4 1.1.9 2.6 1 4 1.1 1.7.1 3.3.1 5 0 .9 0 1.8-.1 2.5-.5.6-.4 1-.8 1.3-1.4.9-1.6 1.2-3.5 1.1-5.4 0-1.9-.3-3.7-.4-5.6 0-1 .1-2.1.6-2.9.4-.6 1.1-1 1.6-1.5 2.1-1.8 2.8-4.7 2.8-7.5.1-2.7-.4-5.5-.2-8.2.1-1.1.5-2.4 1.5-2.6.3-.1.7 0 1-.1.8-.3.8-1.5 1-2.4.3-1 1.1-1.7 1.3-2.7.6-2.3-2.4-5.1-4.3-5.9-1.8-1-4.8-.8-6.8-.5z"/><path class="st18" d="M57.5 80.2c-1.2.1-2.5.5-2.9 1.6-.1.4-.2.8-.3 1.3-.4 1.7-2.3 2.5-3.5 3.7-1 1.1-1.5 2.7-1.8 4.2-1 4.3-1.2 8.7-.7 13.1.4 3.2 1.1 6.3 1.4 9.5.2 3.2-.2 6.6-1.9 9.3-.8 1.2-1.7 2.2-2.3 3.4 1.1.9 2.6 1 4 1.1 1.7.1 3.3.1 5 0 .9 0 1.8-.1 2.5-.5.6-.4 1-.8 1.3-1.4.9-1.6 1.2-3.5 1.1-5.4s-.3-3.7-.4-5.6c0-1 .1-2.1.6-2.9.4-.6 1.1-1 1.6-1.5 2.1-1.8 2.8-4.8 2.8-7.5s-.4-5.5-.2-8.2c.1-1.1.5-2.4 1.5-2.6.3-.1.7 0 1-.1.8-.3.8-1.5 1-2.4.3-1 1.1-1.7 1.3-2.7.6-2.3-2.4-5.1-4.3-5.9-1.7-1-4.7-.8-6.8-.5z"/></svg>