<?xml version="1.0" encoding="utf-8"?>
<!-- Generator: Adobe Illustrator 23.0.3, SVG Export Plug-In . SVG Version: 6.00 Build 0)  -->
<svg version="1.1" id="ebf8a77a-edff-4dc3-b5b4-de0e5991af45"
	 xmlns="http://www.w3.org/2000/svg" xmlns:xlink="http://www.w3.org/1999/xlink" x="0px" y="0px" viewBox="0 0 425.2 322.4"
	 style="enable-background:new 0 0 425.2 322.4;" xml:space="preserve">
<style type="text/css">
	.st0{opacity:0.1;fill:#31B096;enable-background:new    ;}
	.st1{fill:#F2F2F2;}
	.st2{opacity:0.3;fill:#31B096;enable-background:new    ;}
	.st3{fill:#3F3D56;}
	.st4{fill:#31B096;}
	.st5{fill:#FFB9B9;}
	.st6{fill:#2F2E41;}
</style>
<title>setup analytics</title>
<path class="st0" d="M217.7,52.5c-23.6,4-47.2,1.7-70.1-1.5c-22.9-3.2-45.6-7.2-69.3-6.6c-15.2,0.5-32.1,3.5-42.5,13.1
	c-10,9.2-11.2,21.9-10.9,33.4c0.2,8.6,1.1,17.6,6.8,24.6c4,4.9,9.9,8.4,14.5,12.9c15.8,15.6,11.8,39.6,2.3,59.9
	c-4.5,9.5-10,18.9-12.9,28.7s-3.1,20.3,2.9,28.5c5.9,8.1,17.1,12.8,28.7,15.2c23.5,5.2,49.6,2.7,74.7-0.8
	c55.6-7.8,110.5-20.5,165.3-33.3c20.3-4.7,40.6-9.4,60.1-16.4c10.8-3.9,21.8-8.7,28.6-16.6c8.7-9.9,8.5-23.5-0.3-31.9
	c-14.9-14-47.6-11.5-59.2-27.4c-6.4-8.8-4-20.5,0.6-30.7c9.9-22.1,29.6-43.6,26.4-65.8c-2.3-15.2-16.4-28-35.2-31.7
	c-19.8-3.7-44.6,2.3-55.4,17.4C261.6,39.1,238.5,48.9,217.7,52.5z"/>
<rect x="68.4" y="54.5" class="st1" width="328" height="176.6"/>
<rect x="100.2" y="84.8" class="st2" width="106" height="130.1"/>
<rect x="246.9" y="94.2" class="st3" width="84.7" height="4.7"/>
<rect x="246.9" y="102.8" class="st3" width="123.3" height="4.7"/>
<rect x="246.9" y="123.7" class="st3" width="84.7" height="4.7"/>
<rect x="246.9" y="158.3" class="st3" width="84.7" height="4.7"/>
<rect x="246.9" y="132.4" class="st3" width="123.3" height="4.7"/>
<rect x="246.9" y="141" class="st3" width="123.3" height="4.7"/>
<rect x="246.9" y="149.7" class="st3" width="123.3" height="4.7"/>
<rect x="246.9" y="179.2" class="st4" width="44.3" height="12.3"/>
<rect x="107" y="77.8" class="st3" width="106" height="130.1"/>
<path class="st4" d="M197.8,149.7c0,25.3-15,34.1-33.6,34.1s-33.6-8.8-33.6-34.1s33.6-57.4,33.6-57.4S197.8,124.5,197.8,149.7z"/>
<polygon class="st3" points="163.1,180 163.4,158.8 177.7,132.6 163.5,155.5 163.6,146 173.5,127 163.7,143.5 163.7,143.5 
	163.9,126.4 174.5,111.3 164,123.7 164.2,92.3 163.1,133.8 163.2,132.1 152.4,115.7 163,135.4 162,154.5 161.9,154 149.6,136.7 
	161.9,155.8 161.8,158.2 161.8,158.2 161.8,158.4 159.2,206.9 162.6,206.9 163,181.8 175.3,162.8 "/>
<ellipse class="st3" cx="73.5" cy="298.9" rx="47.2" ry="6.1"/>
<path class="st4" d="M51.2,129.3l-1.6,3.7l1.8,24.1c0,0-1,1.4,0,2.4s0.8,1.4,0.8,1.4s-1.6,0-0.8,1.2c0.8,1.2,0.8,1.8,0.8,1.8
	l-0.4,1.2c0,0,0.8,1,0.8,1.8s5.1,24.9,5.1,24.9l4.9-9.6l-2.7-38.2L51.2,129.3z"/>
<path class="st5" d="M102.8,189.6c0,0,8.6,6.4,8.9,11.4s-11.1-7.6-11.2-9C100.4,190.6,102.8,189.6,102.8,189.6z"/>
<path class="st6" d="M48.6,285.7l-2.2,7.1c0,0-3.1,6.9,1.2,7.8s8.4-2.7,8.4-2.7v-4.7l1.6-7.5L48.6,285.7z"/>
<path class="st6" d="M83.9,285.7c0,0-1,13.3,1.2,14.1c2.2,0.8,9.8,1,10,0c0.2-1,2.5-2,0.8-3.3s-2.9-9.4-2.9-9.4L83.9,285.7z"/>
<path class="st6" d="M64.1,159.5v5.9c0,0-6.5,13.5-8.8,34.9c-2.4,21.4-10.4,86.5-8.4,87.6c2,1.2,23.1,2,23.7,0.4s1.2-47.4,1.2-47.4
	l7.3-32.4c0,0,1.4,11.6,2.5,13.5s-2,65.7,0,66.7s28.4,2.7,28-0.4s-9.2-88.2-9.2-88.2s-4.5-40.2-5.9-40.6c-1.4-0.4-13.9-0.8-15.9-0.4
	C76.7,159.5,64.1,159.5,64.1,159.5z"/>
<circle class="st5" cx="79" cy="99.7" r="11.2"/>
<path class="st5" d="M81.4,109.1c0,0-5.7,8.8-4.3,11.2c1.4,2.4-14.5-2.4-14.5-2.4s9.6-11.8,9.4-13.1
	C71.8,103.4,81.4,109.1,81.4,109.1z"/>
<path class="st4" d="M93.1,122.2c0,0-10.4-3.3-11.8-4.7c-0.9-0.9-1.7-1.9-2.4-2.9c0,0-12.5-1.8-12.9-1.8s-3.3,3.5-4.1,4.3
	s-10.8,6.1-10.8,7.5s-1.6,8.4-1.6,8.4s3.5,7.3,5.7,8.8c2.2,1.6,2.7,1.2,2.9,3.7s2.9,6.7,2.9,6.7s1.8,4.5,1.4,5.9
	c-0.4,1.4-2.2,2.5,2,2.2c4.1-0.4,24.5,0.8,24.5-1.4c0-2.2-3.9-22.7-3.9-22.7L93.1,122.2z"/>
<path class="st4" d="M89.4,122.6l3.7-0.4c0,0,1.4,0.8,1.6,8.4c0.2,7.6,0.2,26.1,1.6,27.6c1.4,1.6,7.1,25.9,7.1,25.9s1.6,0.4,1.6,1.8
	s1.8,2.5,1,4.1s0.8,1.2-0.2,2.2c-1,1-5.7,2.9-5.9,1.8c-0.2-1.2,0.6-1.4-0.2-1.8c-0.8-0.4-0.8-0.6-1-2s-2-2.7-1.8-3.3
	c0.2-0.6-8.6-17.6-8.6-18.2c0-0.6-0.6-2.7-1.4-3.1s-2-0.8-1.4-1.8c0.6-1-1.6-30.4-1.6-30.4L89.4,122.6z"/>
<path class="st6" d="M88.5,92.6c-3.4-3.7-8.8-5.7-13.7-4.6s-9.1,5.5-9.5,10.5c-0.1,1,0,2.1-0.3,3.1c-0.4,1.7-1.8,3-2.3,4.7
	c-0.3,1.1-0.2,2.3-0.6,3.4c-0.6,2.1-2.5,3.4-4,5c-0.6,0.6-1,1.3-1.3,2.1c-0.1,0.7-0.2,1.4-0.1,2.1c0.1,3.8-1.4,7.5-4,10.3
	c1.5-1.1,3.2-2.1,4.9-2.9c-0.9,2.8-0.1,6,2.1,7.9s5.7,2.2,8,0.5c1.4-1,2.3-2.5,3.2-4l3.3-5.6c0.6-1,1.2-2.1,2.2-2.8
	c0.8-0.6,1.7-0.8,2.4-1.4c1.9-1.4,2.4-4.1,2.1-6.4c-0.4-2.3-1.4-4.5-2-6.8c-0.5-1.8-0.6-3.9,0.4-5.4c1.4-2,4.3-2.3,6.3-3.8
	c0.7-0.6,1.1-1.3,1.6-2c0.5-0.7,0.6-0.4,1.3-0.5C90.7,96.1,89.2,93.4,88.5,92.6z"/>
<ellipse class="st5" cx="78.7" cy="103.6" rx="0.9" ry="2.2"/>
<circle class="st0" cx="253.2" cy="272.8" r="11.5"/>
<circle class="st0" cx="21.8" cy="45.7" r="11.5"/>
<circle class="st0" cx="390.5" cy="34.2" r="11.5"/>
</svg>
