<?xml version="1.0" encoding="utf-8"?>
<!-- Generator: Adobe Illustrator 23.0.2, SVG Export Plug-In . SVG Version: 6.00 Build 0)  -->
<svg version="1.1" id="b8be6891-8c6c-471d-9cef-5646484caaf2"
	 xmlns="http://www.w3.org/2000/svg" xmlns:xlink="http://www.w3.org/1999/xlink" x="0px" y="0px" viewBox="0 0 283.5 226"
	 style="enable-background:new 0 0 283.5 226;" xml:space="preserve">
<style type="text/css">
	.st0{opacity:0.1;fill:#31B096;enable-background:new    ;}
	.st1{fill:#535461;}
	.st2{opacity:0.1;enable-background:new    ;}
	.st3{fill:#FFFFFF;}
	.st4{opacity:0.2;}
	.st5{fill:#31B096;}
	.st6{fill:url(#SVGID_1_);}
	.st7{fill:#4C4C78;}
	.st8{fill:#FFB9B9;}
	.st9{fill:#CBCDDA;}
	.st10{opacity:5.000000e-02;enable-background:new    ;}
	.st11{fill:none;stroke:#0000FF;stroke-miterlimit:10;}
	.st12{fill:#474463;}
	.st13{fill:#472727;}
	.st14{opacity:0.1;}
</style>
<title>business plan</title>
<ellipse class="st0" cx="136.5" cy="217.9" rx="116.9" ry="8.1"/>
<path class="st0" d="M9.2,25.8C1.9,34.4,0.1,45.2,0,55.5c-0.1,7.3,0.9,15.2,7,20.6c8,7.1,23.5,8.5,27.4,17.6
	c3.5,8.1-4.7,16.2-12.6,21.8S4.9,128.2,6.4,136.7c0.9,5.4,6.1,9.6,11.2,13.2c9.7,6.8,20.6,12.7,32.9,15.6
	c22.3,5.2,46.5-0.2,67.4-8.4c12.9-5,27.8-11.2,40.6-6.1c3.4,1.4,6.2,3.4,9.4,5.2c9.1,5,20.1,6.8,30.9,8.3
	c15.8,2.3,32.3,4.2,47.5,0.1c15.2-4.1,28.3-16.1,26-29c-2.2-12.1-16.2-20-27.3-28.2c-3.9-2.9-7.9-6.8-6.9-11
	c0.8-3.4,4.4-5.7,7.7-7.9c17.1-11.5,29.7-27.4,35.5-44.8c2.7-8.2,3.7-17.7-2.4-24.6c-4.9-5.6-13.4-8.3-21.4-10.5
	c-14.9-4.1-30.2-7.6-45.8-8.5S179.9,1.1,166,7c-6.7,2.8-12.7,6.6-19.5,9.3c-19.1,7.8-41.7,6.7-63,5.5c-7.6-0.4-15.6-1.2-22.2-4.5
	c-5.7-2.9-9-4.9-16-5.3C31.5,11.4,17.2,16.5,9.2,25.8z"/>
<polygon class="st1" points="112.5,84.3 112.2,84.9 110.3,88.9 90,130.5 55.5,215 50.6,215 85.1,130.5 108.6,82.3 110.3,83.2 
	112.2,84.1 "/>
<polygon class="st1" points="173,215 168.9,215 134.4,130.5 114.7,89.9 112.2,84.9 111.9,84.3 112.2,84.1 114.7,82.9 115.9,82.3 
	139,130.5 "/>
<rect x="110.3" y="71" class="st1" width="4.4" height="144"/>
<path class="st1" d="M112,47.2c-3.1,0-5.6,2.5-5.6,5.6v2c-0.1,3.1,2.4,5.7,5.5,5.7c3.1,0.1,5.7-2.4,5.7-5.5c0-0.1,0-0.2,0-0.2v-2
	C117.6,49.7,115.1,47.2,112,47.2z M116.2,54.8c0,2.3-1.9,4.2-4.2,4.2c-2.3,0-4.2-1.9-4.2-4.2v-2c0-2.3,1.9-4.2,4.2-4.2
	c2.3,0,4.2,1.9,4.2,4.2l0,0V54.8z"/>
<polygon class="st2" points="139,130.5 134.4,130.5 114.7,89.9 114.7,130.5 110.3,130.5 110.3,88.9 90,130.5 85.1,130.5 108.6,82.3 
	110.3,83.2 110.3,71 114.7,71 114.7,82.9 115.9,82.3 "/>
<path class="st2" d="M117.6,53v1.8c0.1,3.1-2.4,5.7-5.5,5.7c-3.1,0.1-5.7-2.4-5.7-5.5c0-0.1,0-0.2,0-0.2V53h1.4v1.8
	c0,2.3,1.9,4.2,4.2,4.2c2.3,0,4.2-1.9,4.2-4.2V53H117.6z"/>
<rect x="27.3" y="53.4" class="st1" width="169.4" height="76.5"/>
<rect x="30.3" y="55.8" class="st3" width="163" height="69.7"/>
<g class="st4">
	<rect x="46.4" y="63.4" class="st5" width="7.7" height="3.5"/>
</g>
<g class="st4">
	<rect x="46.4" y="70.2" class="st5" width="7.7" height="3.5"/>
</g>
<g class="st4">
	<rect x="46.4" y="77" class="st5" width="7.7" height="3.5"/>
</g>
<g class="st4">
	<rect x="46.4" y="83.8" class="st5" width="7.7" height="3.5"/>
</g>
<g class="st4">
	<rect x="46.4" y="90.6" class="st5" width="7.7" height="3.5"/>
</g>
<g class="st4">
	<rect x="46.4" y="97.4" class="st5" width="7.7" height="3.5"/>
</g>
<g class="st4">
	<rect x="46.4" y="104.2" class="st5" width="7.7" height="3.5"/>
</g>
<g class="st4">
	<rect x="46.4" y="110.9" class="st5" width="7.7" height="3.5"/>
</g>
<g class="st4">
	<rect x="60.9" y="114.4" class="st5" width="7.7" height="3.5"/>
</g>
<g class="st4">
	<rect x="74.4" y="114.4" class="st5" width="7.7" height="3.5"/>
</g>
<g class="st4">
	<rect x="88" y="114.4" class="st5" width="7.7" height="3.5"/>
</g>
<g class="st4">
	<rect x="101.6" y="114.4" class="st5" width="7.7" height="3.5"/>
</g>
<g class="st4">
	<rect x="115.2" y="114.4" class="st5" width="7.7" height="3.5"/>
</g>
<g class="st4">
	<rect x="128.7" y="114.4" class="st5" width="7.7" height="3.5"/>
</g>
<g class="st4">
	<rect x="142.3" y="114.4" class="st5" width="7.7" height="3.5"/>
</g>
<g class="st4">
	<rect x="155.9" y="114.4" class="st5" width="7.7" height="3.5"/>
</g>
<g class="st4">
	<rect x="169.5" y="114.4" class="st5" width="7.7" height="3.5"/>
</g>
<rect x="60.9" y="88.9" class="st5" width="7.7" height="22"/>
<rect x="74.4" y="78.8" class="st5" width="7.7" height="32.2"/>
<rect x="88" y="70.2" class="st5" width="7.7" height="40.7"/>
<rect x="101.6" y="74.6" class="st5" width="7.7" height="36.3"/>
<rect x="115.2" y="66.9" class="st5" width="7.7" height="44"/>
<g class="st4">
	<rect x="128.7" y="83.8" class="st5" width="7.7" height="27.2"/>
</g>
<g class="st4">
	<rect x="142.3" y="83.8" class="st5" width="7.7" height="27.2"/>
</g>
<g class="st4">
	<rect x="155.9" y="83.8" class="st5" width="7.7" height="27.2"/>
</g>
<g class="st4">
	<rect x="169.5" y="83.8" class="st5" width="7.7" height="27.2"/>
</g>
<polygon class="st1" points="168.6,83.7 102.6,87.8 102.6,89.1 170,86.4 "/>
<linearGradient id="SVGID_1_" gradientUnits="userSpaceOnUse" x1="-579.8882" y1="-632.5551" x2="-579.8882" y2="-445.8318" gradientTransform="matrix(1 0 0 -1 788.63 -413.8258)">
	<stop  offset="0" style="stop-color:#808080;stop-opacity:0.25"/>
	<stop  offset="0.54" style="stop-color:#808080;stop-opacity:0.12"/>
	<stop  offset="1" style="stop-color:#808080;stop-opacity:0.1"/>
</linearGradient>
<path class="st6" d="M246.7,110.5c0,0,3.5-5.7,2.5-14.6S245,72.6,245,72.6s1.4-8.1-6.4-9.2c0,0-4.9-0.9-8.3-3.1
	c-1.3-0.8-2.4-1.8-3-3c0,0,0,0.1-0.1,0.4c-0.1-0.1-0.1-0.2-0.2-0.4c0,0,0,0,0,0.1l-1.3-2.1c0,0-0.2,0.2-0.5,0.5
	c-0.5-0.8-1-1.6-1.4-2.4c0.3-0.1,0.7-0.2,1-0.3c0.3-0.1,0.6-0.3,0.8-0.5c0.2-0.3,0.3-0.6,0.4-0.9c0.2-1,0.3-2.1,0.2-3.1
	c-0.1-0.8-0.2-1.6-0.2-2.5c0.1-0.9,0.4-1.7,0.4-2.6c0.1-1.6-0.7-3-1.7-4.3c-0.6-0.7-1.2-1.4-1.7-2.2c-0.4-0.7-0.7-1.4-1.2-2.1
	c-1.1-1.5-2.9-2.5-4.8-2.8c-1.9-0.3-3.8-0.1-5.6,0.2c-1.6,0.3-3.3,0.7-4.9,0.8c-1.4,0.1-2.6-0.4-3.9,0.5c-0.9,0.6-1.4,1.6-1.5,2.7
	c0,0.2,0,0.4,0,0.5c0.1,0.2,0.2,0.4,0.3,0.5c0.6,1.1-0.3,2.5-0.2,3.8c0.1,1.2,1.1,2.1,2.2,2.2c-0.1,0.1-0.1,0.2-0.2,0.3
	c-2.5,5.7,0.1,12.3,5.7,14.9c1.1,0.5,2.3,0.8,3.5,0.9l0.5,0.4c1.1,0.9,2.4,1.9,3.7,3.1l0,0l-0.2-0.1c-0.4,0.3-0.8,0.6-1.2,0.8
	c-1.1,0.7-3,1.6-5.1,1.7c0,0-3.7,2-5,8.5c-1.8,1.6-5.8,4.6-11,5.4c-7.3,1.1-16.3,1.4-16.3,1.4s-0.1,0.1-0.2,0.4l-0.8-0.2
	c0,0,0,0.1,0,0.3l-0.3-0.1c-2.6-1.1-7.7-2.8-8.4,1.8c-0.9,6.1,4.9,5.4,4.9,5.4c1.1-0.4,2.3-0.8,3.5-1.1l0.3-0.1
	c0.1,0.2,0.1,0.3,0.2,0.4h0.8c0.3,0.6,0.6,1.1,1,1.6l18.3-0.4c0,0,3.1-0.7,6-0.2c-1.3,9.4-2.8,19.8-2.8,19.8s-3.1,16.4-0.9,18.1
	c1.3-0.4,2.6-0.8,3.9-1c0,1,0.1,2,0.3,3l1.4,9.2c0,0,0.5,9.3,2.4,14.9l1.6,7.6l1.3,5.8l0.8,9.8c1,4.1,1.8,8.4,2.2,12.6
	c0.7,6.6,4.6,17.2,5.1,18.6c-1.3,1.9-4,5-7.4,5.3c-4.8,0.5-4.9,3.4-1.6,4.4c3.4,1,10.5,0,10.5,0l10-2.5c-0.3,1.8-0.5,3.3-0.2,3.5
	c0.6,0.5,10.4,3,10.7-1c0-0.3,0.1-0.7,0.1-1c0.1-2.6-0.2-5.2-1-7.6c-0.1-0.2-0.1-0.5-0.2-0.7c0.1-0.2,0.3-0.3,0.4-0.5
	c0,0,0.7-10.9,1.2-14.8c0-0.3,0.1-0.7,0.1-1.1c0.2-4.7-1.5-17-1.5-17s-2.1-8-2-11.7c0-0.3,0.1-0.6,0.2-0.9c0,0,0-0.1,0-0.2
	c0-0.1,0-0.1,0-0.2c0,0-1.1-7.3-0.9-11.7c0-0.7,0.1-1.3,0.3-1.9c0.2-0.8,0.3-1.7,0.3-2.5c0.1-3,0-8.1-0.2-13c0-0.1,0-0.2,0.1-0.3
	c0-0.4,0-0.8-0.1-1.1c0-0.3,0-0.6,0-0.9c0.1-0.3,0.2-0.6,0.2-1h0.1v0c0,0,9.1-0.4,11.2-2.9c0,0-2.1-6.6-3.3-11.9L246.7,110.5z
	 M207.4,90l-0.1-0.1c0.2-0.8,0.5-1.8,0.8-2.8C207.8,88.3,207.6,89.3,207.4,90z M216.7,63L216.7,63L216.7,63L216.7,63z M228.1,204.3
	c-0.5-1.7-2.4-8.6-2.4-11.9c0-0.3,0.1-0.6,0.1-0.8c0.2-0.6,0.3-1.2,0.3-1.8c0.2-3.4-1.1-9.6-1.1-9.6s-2.9-8.3-2.7-14.9
	c0-0.2,0-0.3,0-0.5c0-0.6,0.1-1.3,0.1-2v0c0.1-2.5,0.1-5.6,0-8.5l0-0.1c-0.1-3.8-0.3-7.2-0.4-8.5c0.3,1.9,2,14.1,2.8,16
	c0,0,0.4,5.6,2.3,10.3l2,12.3c0,0,0.5,14.6,1.4,18.8c0.4,1.8,0.7,3.1,1,3.9c-0.4,1.6-0.9,4.4-1.3,6.7
	C229.9,212.2,229.2,206.5,228.1,204.3L228.1,204.3z"/>
<path class="st7" d="M219.3,204.7c0,0-3.4,6.2-8.2,6.6c-4.8,0.5-4.9,3.3-1.6,4.4c3.3,1,10.4,0,10.4,0l10-2.5c0,0-1.2-9.9-2.8-10.4
	C225.6,202.3,219.3,204.7,219.3,204.7z"/>
<path class="st7" d="M231.6,204.8c0,0-2.5,11.4-1.9,11.9c0.6,0.5,10.3,2.9,10.6-1c0-0.3,0.1-0.7,0.1-1c0.1-2.6-0.2-5.1-1-7.6
	c-0.3-0.8-0.5-1.7-0.4-2.3C239.1,203.2,231.6,204.8,231.6,204.8z"/>
<path class="st8" d="M228.4,60.1c0,0-7.8,19.1-6.4,13c0.9-4.1-5-9.5-9.1-12.7c-2.1-1.6-3.7-2.7-3.7-2.7s14.6-17.1,13.6-9.7
	c-0.3,2,0,4.1,0.8,5.9C225.2,57.9,228.4,60.1,228.4,60.1z"/>
<path class="st8" d="M178.6,87.3c-0.4-0.1-1.1,0-1.8,0.1c-1.2,0.3-2.3,0.6-3.5,1.1c0,0-5.7,0.7-4.9-5.3c0.6-4.5,5.7-2.9,8.3-1.7
	c0.9,0.4,1.4,0.7,1.4,0.7L178.6,87.3z"/>
<path class="st2" d="M178.6,87.3c-0.4-0.1-1.1,0-1.8,0.1c-0.6-1.6-0.1-5.3,0-6c0.9,0.4,1.4,0.7,1.4,0.7L178.6,87.3z"/>
<path class="st9" d="M178.7,81.6l-1.5-0.3c0,0-0.8,5.2,0.2,6.5h1.7L178.7,81.6z"/>
<path class="st7" d="M208.8,91c0,0-4.6-2.7-5.1,0.7c-0.5,3.5-1.3,9.4-1.3,9.4l-1.3,7.5l-1.6,15.1l0.2,2.6c0,0,4.9-1.6,6-1.1
	c1.1,0.6,2.1-6.3,2.1-6.3l1.9-7.2l0.3-15.2L208.8,91z"/>
<path class="st2" d="M208.8,91c0,0-4.6-2.7-5.1,0.7c-0.5,3.5-1.3,9.4-1.3,9.4l-1.3,7.5l-1.6,15.1l0.2,2.6c0,0,4.9-1.6,6-1.1
	c1.1,0.6,2.1-6.3,2.1-6.3l1.9-7.2l0.3-15.2L208.8,91z"/>
<path class="st7" d="M206.3,73.2c0,0-4.8,5.4-12,6.5c-7.2,1.1-16.2,1.4-16.2,1.4s-2.3,4,1,8.3l18.2-0.4c0,0,4-0.9,7.1,0L206.3,73.2z
	"/>
<path class="st10" d="M206.3,73.2c0,0-4.8,5.4-12,6.5c-7.2,1.1-16.2,1.4-16.2,1.4s-2.3,4,1,8.3l18.2-0.4c0,0,4-0.9,7.1,0L206.3,73.2
	z"/>
<path class="st11" d="M166.8,95.3"/>
<path class="st2" d="M222.8,53.9c-1.8,3.8-4.9,6.6-9.3,6.6c-0.2,0-0.4,0-0.6,0c-2.1-1.6-3.7-2.7-3.7-2.7s14.6-17.1,13.6-9.7
	C222.5,50.4,222.1,52.2,222.8,53.9z"/>
<path class="st8" d="M224.6,49c0,6.2-5,11.2-11.2,11.1s-11.2-5-11.1-11.2c0-6.2,5-11.1,11.2-11.1C219.6,37.8,224.6,42.8,224.6,49
	C224.6,48.9,224.6,49,224.6,49z"/>
<path class="st9" d="M231.5,117.1c0,0-24.9,2.2-25.8-1c-0.9-3.2,2.5-11.8,2.5-11.8l-1.1-12l0-0.5c0,0,3.1-13,3-14
	c-0.1-0.9,5-11.8,6.1-14.1c0.1-0.3,0.2-0.4,0.2-0.4l0.2,0.1l0.1,0.1l1.2,0.7l4.8-1.1l5.8-3l0.5,33.2L231.5,117.1z"/>
<path class="st2" d="M218.5,63.8c0,0-1.7-0.5-2.4,1.2c-0.3,0.7-0.6,1.4-0.9,2.1l-0.7,4l-1.2,6.2l-0.9,27.6l0.4,4.9l2.2-4l0.4-25.8
	V77c0.1-2.8,0.8-5.5,1.9-8.1l0.3-0.7l1.9-2.5L218.5,63.8z"/>
<path class="st7" d="M218.2,63.5c0,0-1.7-0.5-2.4,1.2c-0.3,0.7-0.6,1.4-0.9,2.1l-0.7,4l-1.2,6.2l-0.9,27.6l0.4,4.9l2.2-4l0.4-25.8
	v-3.2c0.1-2.8,0.8-5.5,1.9-8.1l0.3-0.7l1.9-2.5L218.2,63.5z"/>
<path class="st2" d="M225.4,56.4c0,0-5.9,6.2-8,7c0,0,1,4.7,2.1,5.7c0,0,6.2-6.3,7.3-6.8l0.9-2.2L225.4,56.4z"/>
<path class="st9" d="M225.4,56c0,0-5.9,6.2-8,7c0,0,1,4.7,2.1,5.7c0,0,6.2-6.3,7.3-6.8l0.9-2.2L225.4,56z"/>
<path class="st2" d="M216.6,63.4l-0.1,0.2l-1.9,5.1l-3.4,9.5c0,0,0,0.1-0.1,0.3c-0.6,1.7-3.6,11.2-4.2,13.9l0-0.5c0,0,3.1-13,3-14
	c-0.1-0.9,5-11.8,6.1-14.1c0.2-0.1,0.3-0.2,0.4-0.3L216.6,63.4z"/>
<path class="st7" d="M216.3,63.4l-1.9,5.2l-3.4,9.5c0,0,0,0.1-0.1,0.3c-0.6,1.9-4,12.4-4.2,14.4c-0.3,2.1-4.5,13.6-4.5,13.6
	l-2.4,19.9c-2.2-1.7,0.9-17.9,0.9-17.9s3.5-24.1,4.3-32.1c0.8-8,5.2-10.3,5.2-10.3c2-0.1,3.9-1,5-1.7
	C215.5,64,215.9,63.7,216.3,63.4z"/>
<path class="st2" d="M240.7,191.3c-0.5,3.9-1.2,14.7-1.2,14.7c-2.4,3.6-7.8,1.7-7.8,1.7s-0.6-1.1-1.4-5.2
	c-0.9-4.1-1.4-18.6-1.4-18.6l-2-12.2c-1.8-4.7-2.3-10.2-2.3-10.2c-0.8-2.1-2.8-16.2-2.8-16.2s0.8,12.6,0.3,19.2
	c-0.5,6.6,2.7,15.6,2.7,15.6s1.8,8.4,0.9,11c-0.9,2.6,2.3,13.3,2.3,13.3c-0.3,3.1-9.5,1.8-9.5,1.8s-4.3-11.6-5.1-18.6
	c-0.5-4.2-1.2-8.4-2.2-12.5l-0.7-9.7l-1.3-5.7l-1.6-7.6c-1.8-5.5-2.3-14.8-2.3-14.8l-1.4-9.1c-0.9-4.5,0.3-9.8,1.1-12.5
	c0.3-1.2,0.6-1.9,0.6-1.9c0.8,0.6,5.4,1.2,7.7,1.8c1.3,0.3,2.6,0.4,3.9,0.3c6-0.5,11.9-1.6,17.6-3.2c0.4-0.1,0.6-0.2,0.6-0.2l0.1,1
	l0.3,2.5l0.5,4.4c0,0,1.6,23.4,0.6,26.6c-0.9,3.2,0.6,13.8,0.6,13.8c-0.9,2.5,1.8,12.8,1.8,12.8S241.3,187.4,240.7,191.3z"/>
<path class="st12" d="M240.7,190.9c-0.5,3.9-1.2,14.7-1.2,14.7c-2.4,3.6-7.8,1.7-7.8,1.7s-0.6-1.1-1.4-5.2
	c-0.9-4.1-1.4-18.6-1.4-18.6l-2-12.2c-1.8-4.7-2.3-10.2-2.3-10.2c-0.8-2.1-2.8-16.2-2.8-16.2s0.8,12.6,0.3,19.2
	c-0.5,6.6,2.7,15.6,2.7,15.6s1.8,8.4,0.9,11c-0.9,2.6,2.3,13.3,2.3,13.3c-0.3,3.1-9.5,1.8-9.5,1.8s-4.3-11.6-5.1-18.6
	c-0.5-4.2-1.2-8.4-2.2-12.5l-0.7-9.7l-1.3-5.7l-1.6-7.6c-1.8-5.5-2.3-14.8-2.3-14.8l-1.4-9.1c-0.9-4.5,0.3-9.8,1.1-12.5
	c0.3-1.2,0.6-1.9,0.6-1.9c0.8,0.6,5.4,1.2,7.7,1.8c1.3,0.3,2.6,0.4,3.9,0.3c6-0.5,11.9-1.6,17.6-3.2l0.6-0.2l0.1,1l0.3,2.5l0.5,4.4
	c0,0,1.6,23.4,0.6,26.6c-0.9,3.2,0.6,13.8,0.6,13.8c-0.9,2.5,1.8,12.8,1.8,12.8S241.3,187.1,240.7,190.9z"/>
<path class="st2" d="M224.6,49c0,2-0.5,3.9-1.5,5.6c-1.7,0.3-3.6,0-4.9-1.2c-0.9-0.8-1.5-1.9-2.2-2.8c-0.5-0.6-1-1.1-1.6-1.6
	c-0.4-0.4-0.8-0.7-1.3-0.9c-0.5-0.2-1-0.2-1.5,0c-0.6,0.3-0.8,1.1-1.2,1.7c-0.3,0.5-0.7,0.9-1.3,1.1c-0.6,0.2-1.2,0-1.5-0.5
	c-0.4-0.6-0.1-1.7-0.7-2.1c-0.2-0.1-0.3-0.2-0.5-0.2c-0.8-0.4-0.9-1.5-1-2.4c0-0.4-0.1-0.9-0.5-1.2c-0.4-0.2-0.9-0.1-1.3-0.1
	c-0.1,0-0.3,0-0.4,0c2.5-5.6,9.1-8.2,14.7-5.7C222,40.6,224.6,44.6,224.6,49L224.6,49z"/>
<path class="st13" d="M202.6,34.5c-0.9,0.6-1.4,1.6-1.5,2.7c0,0.2,0,0.4,0,0.5c0.1,0.2,0.2,0.4,0.3,0.5c0.6,1.1-0.3,2.5-0.2,3.7
	c0.2,1.2,1.2,2.2,2.4,2.2c0.4,0,0.9-0.1,1.3,0.1c0.4,0.2,0.5,0.7,0.5,1.2c0.1,0.9,0.2,2,1,2.4c0.2,0.1,0.3,0.1,0.5,0.2
	c0.6,0.4,0.4,1.4,0.7,2.1c0.3,0.5,1,0.7,1.5,0.5c0.6-0.2,1-0.6,1.3-1.1c0.4-0.6,0.6-1.4,1.2-1.7c0.5-0.2,1-0.2,1.5,0
	c0.5,0.2,0.9,0.5,1.3,0.9c0.6,0.5,1.1,1,1.6,1.6c0.8,0.9,1.3,2,2.2,2.8c1.7,1.5,4.2,1.6,6.3,0.8c0.3-0.1,0.6-0.3,0.8-0.5
	c0.2-0.3,0.3-0.6,0.4-0.9c0.2-1,0.3-2.1,0.2-3.1c-0.1-0.8-0.2-1.6-0.2-2.4c0.1-0.9,0.4-1.7,0.4-2.6c0.1-1.5-0.7-3-1.6-4.2
	c-0.6-0.7-1.2-1.4-1.7-2.2c-0.4-0.7-0.7-1.4-1.2-2.1c-1.1-1.5-2.9-2.4-4.7-2.8s-3.7-0.1-5.6,0.2c-1.6,0.3-3.2,0.7-4.9,0.8
	C205,34,203.9,33.5,202.6,34.5z"/>
<path class="st2" d="M216.3,63.4l-1.9,5.2l-3.4,9.5c0,0,0,0.1-0.1,0.3v0l4.2-14.2C215.5,64,215.9,63.7,216.3,63.4z"/>
<path class="st8" d="M237.4,123.2c0,0,0.2,6.3-1.5,7.9l-4.5-8.5l3.8-1.8L237.4,123.2z"/>
<path class="st2" d="M247.9,125.5c-2.1,2.4-11.1,2.9-11.1,2.9l-9-14.1c0,0-2.1-1.5-6.1-8.1s-3.9-11.7-3.6-15.5
	c0.2-3.8,2.7-14.8,2.7-14.8c0.4-2.5,6-17.9,6-17.9c0.6,1.2,1.7,2.1,3,3c3.4,2.2,8.3,3.1,8.3,3.1c7.8,1.1,6.3,9.1,6.3,9.1
	s0.1,31.1-0.4,34.9S247.9,125.5,247.9,125.5z"/>
<polygon class="st9" points="237.5,124.4 237.2,126.7 234.1,125.6 231.8,122.1 233.5,120.7 "/>
<path class="st2" d="M237.4,115.5l-1.6,0.2l-15.9,1.6c-2.5,0.3-5.1,0.1-7.6-0.4l-7.4-1.5c0.3-1.2,0.6-1.9,0.6-1.9
	c0.8,0.6,5.4,1.2,7.7,1.8c1.3,0.3,2.6,0.4,3.9,0.3c6-0.5,11.9-1.6,17.6-3.2l0.7,0.9L237.4,115.5z"/>
<g class="st14">
	<path d="M205.7,113.5c-0.1,0-0.1-0.1-0.2-0.1c0,0,0,0,0,0L205.7,113.5z"/>
	<path d="M239.4,173.3c0,0-2.7-10.3-1.8-12.8c0,0-1.6-10.7-0.6-13.8c0.9-3.2-0.6-26.6-0.6-26.6l-0.5-4.4l-0.3-2.5l-0.1-1l-0.6,0.2
		l-0.4,0.1l0,0.4l0.3,2.5l0.5,4.4c0,0,1.6,23.4,0.6,26.6c-0.9,3.2,0.6,13.8,0.6,13.8c-0.9,2.5,1.8,12.8,1.8,12.8s1.9,13.7,1.4,17.6
		s-1.2,14.7-1.2,14.7c-1.8,2.7-5.1,2.3-6.8,2l0,0.1c0,0,5.4,2,7.8-1.7c0,0,0.7-10.8,1.2-14.7C241.3,187.1,239.4,173.3,239.4,173.3z"
		/>
	<path d="M225.7,190.7c0.9-2.6-0.9-11-0.9-11s-3.2-9-2.7-15.6c0.2-2.8,0.2-6.6,0.1-10c-0.7-4.5-1.4-9.5-1.4-9.5s0.8,12.6,0.3,19.2
		c-0.5,6.6,2.7,15.6,2.7,15.6s1.8,8.4,0.9,11c-0.9,2.6,2.3,13.3,2.3,13.3c-0.2,2.5-6.2,2.2-8.5,2l0.1,0.2c0,0,9.2,1.3,9.5-1.8
		C228,204,224.8,193.3,225.7,190.7z"/>
</g>
<path class="st7" d="M248.3,125.5c-2.1,2.4-11.1,2.9-11.1,2.9l-9-14.1c0,0-2.1-1.5-6.1-8.1s-3.8-11.7-3.6-15.5
	c0.2-3.8,2.7-14.8,2.7-14.8c0.4-2.5,6-17.9,6-17.9c0.6,1.2,1.7,2.1,3,3c3.4,2.2,8.3,3.1,8.3,3.1c7.8,1.1,6.3,9.1,6.3,9.1
	s0.1,31.1-0.4,34.9S248.3,125.5,248.3,125.5z"/>
<path class="st2" d="M228.8,65.6l-1.9,0.7l1.3,0.9l-9.7,23.4c0.2-3.8,2.7-14.8,2.7-14.8c0.4-2.5,6-17.9,6-17.9c0.6,1.2,1.7,2.1,3,3
	L228.8,65.6z"/>
<polygon class="st2" points="231.1,107.2 241.1,104.7 242.4,108.7 232.2,111.2 "/>
<path class="st2" d="M236.8,67.2c0,0-4.5,4.2-2.8,13.7s4.4,19.7,4.4,19.7l-7.3,20.3c0,0,5.1,5.3,7.6,6l7.3-16.2
	c0,0,3.4-5.6,2.5-14.5s-4.2-23.1-4.2-23.1S244.4,64.4,236.8,67.2z"/>
<path class="st7" d="M237.2,67.2c0,0-4.5,4.2-2.8,13.7c1.7,9.4,4.4,19.7,4.4,19.7l-7.3,20.3c0,0,5.1,5.3,7.6,6l7.3-16.2
	c0,0,3.4-5.6,2.5-14.5s-4.2-23.1-4.2-23.1S244.7,64.4,237.2,67.2z"/>
<path class="st2" d="M231.7,121.4c0,0,5.7,7.9,5.3,10c-0.4,2.1-2.1,1-2.1,1l-2.3-3.1l-2-5.8C230.6,123.5,230.8,121,231.7,121.4z"/>
<path class="st2" d="M231,121.4c0,0,5.7,7.9,5.3,10c-0.4,2.1-2.1,1-2.1,1l-2.3-3.1l-2-5.8C229.9,123.5,230.1,121,231,121.4z"/>
<path class="st12" d="M231.3,121.4c0,0,5.7,7.9,5.3,10c-0.4,2.1-2.1,1-2.1,1l-2.3-3.1l-2-5.8C230.2,123.5,230.4,121,231.3,121.4z"/>
</svg>
