<?xml version="1.0" encoding="utf-8"?>
<!-- Generator: Adobe Illustrator 23.0.2, SVG Export Plug-In . SVG Version: 6.00 Build 0)  -->
<svg version="1.1" id="f7e01b52-fe13-4534-b7fc-d479bcd2a427"
	 xmlns="http://www.w3.org/2000/svg" xmlns:xlink="http://www.w3.org/1999/xlink" x="0px" y="0px" viewBox="0 0 285.1 231.3"
	 style="enable-background:new 0 0 285.1 231.3;" xml:space="preserve">
<style type="text/css">
	.st0{opacity:0.1;fill:#31B096;enable-background:new    ;}
	.st1{fill:#3F3D56;}
	.st2{fill:#31B096;}
	.st3{fill:#35323E;}
	.st4{fill:#504F60;}
	.st5{fill:#A1616A;}
	.st6{opacity:0.1;enable-background:new    ;}
	.st7{fill:#464353;}
	.st8{opacity:4.000000e-02;enable-background:new    ;}
	.st9{fill:#FFFFFF;}
	.st10{opacity:0.1;}
	.st11{fill:#FBBEBE;}
	.st12{opacity:5.000000e-02;enable-background:new    ;}
	.st13{fill:#F86D70;}
	.st14{opacity:7.000000e-02;enable-background:new    ;}
</style>
<title>exams</title>
<path class="st0" d="M276.6,136.7c0,0.2,0,0.4,0,0.5c0,3-0.2,6.1-0.5,9.1c0,0,0,0,0,0.1c0,0.3-0.1,0.5-0.1,0.7
	c0,0.4-0.1,0.8-0.2,1.3c-0.7,5.2-1.8,10.3-3.3,15.2l0,0c-2.1,6.7-5,13.1-8.7,19.1c-1.1,1.8-2.4,3.6-3.6,5.3l0,0
	c-0.7,0.9-1.4,1.8-2.1,2.7c-0.5,0.6-1,1.2-1.6,1.8l-0.3,0.4c-2.8,3-5.8,5.9-8.9,8.5c-5.2,4.3-10.8,8-16.5,11.5
	c-0.3,0.2-0.6,0.4-1,0.6c0,0,0,0-0.1,0c-7.7,4.7-15.7,8.9-24,12.2c-9,3.7-18.3,6.4-27.9,7.6c-13.3,1.6-26.8,0.3-40.1-2
	c-11-1.9-21.9-4.5-32.6-7.8l-1.8-0.6c-0.9-0.3-1.8-0.6-2.7-0.9c-5.5-1.8-10.9-3.8-16.3-6.1c-13.5-5.6-26.4-12.5-38.5-20.6
	c-1.5-1-3.1-2.1-4.5-3.2c-2.1-1.5-4.2-3.1-6.2-4.6l-1.3-1c-5.3-4.2-10.3-8.8-14.9-13.7c-6.2-6.8-11.5-14.4-15-23.1
	c-0.5-1.4-1.1-2.8-1.5-4.2l0-0.1c-0.2-0.7-0.4-1.4-0.6-2.2c-0.3-1.1-0.5-2.2-0.8-3.3c0-0.2-0.1-0.4-0.1-0.6c-0.7-3.7-1-7.5-0.9-11.2
	c0.1-3.3,0.5-6.6,1.2-9.8l0,0c0.7-3.3,1.8-6.6,3.3-9.7l0,0c1.3-2.8,3-5.4,5-7.7l0,0c1.4-1.6,3-3.1,4.7-4.4c3.1-2.3,6.6-4,10.2-5.2
	l0,0c1.7-0.6,3.4-1.1,5.1-1.6c1.2-0.4,2.4-0.7,3.7-1l3.6-1c2.3-0.6,4.6-1.3,6.9-2c6.2-1.9,12.3-4.2,17.9-7.6
	c0.9-0.5,1.8-1.1,2.7-1.8c1.2-0.8,2.3-1.7,3.4-2.6l0,0c1.1-1,2.2-2,3.3-3c0.2-0.2,0.3-0.3,0.5-0.5c0.9-0.9,1.7-1.9,2.5-2.9
	c0.4-0.5,0.7-1,1.1-1.5c0.5-0.7,0.9-1.4,1.4-2.1l0,0c2.1-3.6,3.5-7.6,3.3-11.9c0-0.7-0.1-1.4-0.2-2.1c-0.4-2.5-0.7-5-1-7.5
	c-1.1-10.1-0.6-19.2,6.9-27.7c9.4-10.7,24.1-12.8,37.5-12C161.7,5,197,27.2,228,53.5c2.7,2.3,5.3,4.6,7.9,6.9c0.7,0.6,1.3,1.2,2,1.8
	c4.9,4.4,9.7,9,14.2,13.9c0.4,0.4,0.7,0.8,1.1,1.2c0.2,0.2,0.4,0.5,0.7,0.7c1.4,1.6,2.8,3.2,4.1,4.9c3.5,4.4,6.7,9.1,9.3,14.1
	c4.1,7.8,6.9,16.3,8.2,25l0,0c0.5,3.2,0.8,6.4,1,9.6c0,0.9,0.1,1.9,0.1,2.8c0,0.3,0,0.6,0,0.9C276.6,135.8,276.6,136.2,276.6,136.7z
	"/>
<polygon class="st1" points="113.6,131.8 109,214 113.6,214 117.4,130.7 "/>
<rect x="39.5" y="173.4" class="st2" width="57.1" height="12.4"/>
<path class="st1" d="M100.4,184.4v7.8h-59c-2.1-1.5-4.2-3.1-6.2-4.6v-3.1H100.4z"/>
<path class="st3" d="M112.1,166.7c-0.2,0.7-0.4,1.5-0.6,2.2c-0.7,2.1-1.4,4.2-1.6,6.4c-0.2,2.9,0.6,6.3-1.4,8.4
	c-0.5,0.5-1.2,1-1.7,1.5c-0.1,0.1-0.1,0.2-0.2,0.3c-0.4,0.7-0.5,1.5-0.5,2.3c0,1.7,0.1,3.3,0.3,5c0.7,5.7,2,11.4,0.3,16.8
	c-0.3,0.9-0.7,1.9-1.1,2.7c-0.9,1.9-1.8,3.8-2.1,5.8c-0.2,1.5-0.1,3.1-0.2,4.7c-0.9-0.3-1.8-0.6-2.7-0.9c-5.5-1.8-10.9-3.8-16.3-6.1
	c0-0.1,0-0.2,0-0.2c0.4-2.6-0.2-5.2-0.8-7.7c-1.4-5.3-3.5-10.6-4.7-15.9c-0.5-2.1-0.8-4.2-1-6.3c0-0.5-0.1-1-0.1-1.4
	c0-0.6,0-1.3,0-1.9c0.1-1.3,0.1-2.8-0.9-3.5c-0.6-0.4-1.3-0.5-1.9-0.7c-1.3-0.5-2.1-1.6-3.1-2.5c-1-0.9-2.3-1.3-3.6-1.1
	c-6.5,1.5-11.2,7-17.3,9.8c-0.2,0.1-0.5,0.2-0.7,0.3c-0.8,0.3-1.5,0.7-2.2,1.1c-0.5,0.3-0.8,0.8-1,1.4c-0.2,0.6,0,1.3,0.1,1.9
	c0.1,1,0.1,2.1-0.1,3.1c-0.1,0.4-0.2,0.8-0.3,1.2c-0.2,0.7-0.5,1.4-0.8,2c-1.5-1-3.1-2.1-4.5-3.2c-2.1-1.5-4.2-3.1-6.2-4.6l-1.2-1
	c-5.3-4.2-10.3-8.8-14.9-13.7c0.6-1.7,1.5-3.3,1.9-5.1c0.2-1,0.3-2.1,0.7-3.1c0.4-1,0.9-2,1.6-2.9c2.5-3.4,5.4-6.4,8.9-8.9
	c3.6-2.6,7.7-4.6,10.9-7.5c1.3-1.1,2.4-2.5,3.3-4c0.1-0.1,0.1-0.2,0.2-0.3c0.3-0.5,0.4-1.1,0.5-1.6c0.2-1.3,0.2-2.7,0.3-4
	c3.9,0.7,7.9,0.8,11.9,0.4c4.6-0.5,9.1-1.8,13.7-2.3c0.3,0,0.7-0.1,1-0.1c1.5-0.1,3-0.1,4.4-0.1c1.2,0,2.5,0.1,3.7,0.1l13.6,0.5
	c1.5,0.1,3,0.1,4.5,0.7c1.7,0.7,3,2,4.1,3.4c0.1,0.2,0.3,0.4,0.4,0.6c0.9,1.3,1.6,2.7,2.1,4.2c0.1,0.1,0.1,0.3,0.2,0.5
	c0.1,0.4,0.2,0.8,0.3,1.2c0.1,0.3,0.1,0.6,0.2,1c0.3,1.6,0.5,3.2,1,4.8c0,0.1,0.1,0.2,0.1,0.3c0.6,1.7,1.6,3.2,2.4,4.8
	c0.5,1.2,1,2.4,1.2,3.7C112.7,161.5,112.7,164.1,112.1,166.7z"/>
<path class="st2" d="M70.7,63.5c-1.2-1-3-0.3-4.4,0.4c-1.2,0.5-2.4,1-3.7,1.3c-0.3,0.1-0.5,0.1-0.8,0.1c-0.6-0.1-0.8-0.8-1.2-1.2
	c-0.7-0.7-2-0.5-2.9-0.2s-1.9,1-2.9,0.9c-1.1-0.1-2.1-0.9-3.2-0.9c-2,0-3.6,2.4-5.5,1.7c-1.1-0.4-2-1.9-3.1-1.4
	c-0.9,0.3-0.9,1.5-1.5,2.3c-0.6,0.9-1.8,1.2-2.8,1.6c-3.2,1.3-5.4,4.9-4.9,8.3c0.2,1.9,1.2,3.6,1.8,5.5C37.3,87,36.6,93,38.9,98
	c0.3-0.3,0.4-0.4,0.7-0.6c-0.7,1.5-0.9,3.2-0.4,4.8c0.2,0.8,0.6,1.5,0.9,2.3c0.3,0.9,0.6,1.8,0.7,2.7l2.5,11.1c1,4.3,2,8.7,2.1,13.1
	c0.1,2.9-0.1,5.8-0.7,8.6c4.5-0.8,8.7-2.8,13.3-2.7c1.7,0,3.4,0.3,5,0.5c4.9,0.7,9.8,1,14.7,1c0.8,0,1.5-0.1,2.3-0.3
	c0.6-0.3,1.2-0.8,1.8-1.1c1.2-0.7,2.6-0.9,3.9-0.9c6.2-0.1,12.1,2.1,18.2,2.9c2.4-5.1,2.6-11.2,0.7-16.5c-0.6-1.6-1.3-3.1-1.5-4.8
	c-0.1-1-0.1-2-0.1-3.1c0-2.6-0.5-5.2-1.4-7.7c-0.4-1-0.8-1.9-0.7-3c0-1,0.5-2,1-2.9c1-1.8,2-3.7,3.4-5.3c1.5-1.6,3.3-2.8,5.1-4
	l4.4-3c-0.6-3.8-1.4-7.9-3-11.4s-4.1-6.8-7.4-8.9c-1.1-0.7-2.3-1.2-3.5-1.7c-1.7-0.7-3.4-1.3-5.3-1.4c-2.1-0.1-4.1,0.4-6.2,0.8
	C83.5,67.7,75.9,67.5,70.7,63.5z"/>
<path class="st1" d="M119.4,130.2l-2.1,2.7l-4,5l-4.6,5.8l-1.3,1.6h-2.5L43,145.4l-38.8,0H2.5c-0.2-0.7-0.4-1.4-0.6-2.2
	c-0.3-1.1-0.5-2.2-0.8-3.3c0-0.2-0.1-0.4-0.1-0.6l14.1-9.2l5.3,0l0,0l16.2-0.1l0,0l9-0.1h1.6h1l0,0l6,0l0,0l45.9-0.3l0,0l2.3,0l0,0
	h1l2.7,0l10-0.1l1.9-0.7l0.1,0.1L119.4,130.2z"/>
<path class="st4" d="M118.5,128.7l-0.2,0.3l-1.6,1.9l-3.2,3.8l-6.8,8l-60.2-1.5L1,140c0-0.2-0.1-0.4-0.1-0.6
	c-0.7-3.7-1-7.5-0.9-11.2l5-2.6l1.2-0.6l9-4.6l7.9-4l20.6,2.7l4.6,0.6l2.1,0.3l3,0.4l0.3,0l47.3,6.1l5.2,0.7l3.1,0.4L118.5,128.7
	L118.5,128.7z"/>
<path class="st1" d="M108.7,142.6l0,1.1l-0.3,6.4l-1.6,35.2l-0.3,7.6l-0.9,19.6l-0.5,11.1l-1.8-0.6c-0.9-0.3-1.8-0.6-2.7-0.9
	l4.2-76.7l0.1-1.6l1.9-0.6L108.7,142.6z"/>
<path class="st1" d="M4.3,142.5l-0.1,3L4,149.8c-0.5-1.4-1.1-2.8-1.5-4.2l0-0.1c-0.2-0.7-0.4-1.4-0.6-2.2L4.3,142.5z"/>
<ellipse class="st5" cx="79.7" cy="81" rx="13.3" ry="17.9"/>
<ellipse class="st6" cx="79.7" cy="81" rx="13.3" ry="17.9"/>
<circle class="st5" cx="81.6" cy="70.2" r="18.5"/>
<path class="st7" d="M82,41.7c-1.1,0.1-2.2,0.3-3.3,0.5c-2.9,0.7-5.4,2.3-7.9,3.8c-1.1,0.7-2.2,1.4-2.9,2.4
	c-1.2,1.8-0.8,4.2-1.4,6.2c-0.4,1-1,2-1.6,3c-1.5,2.7-2.3,5.6-3.1,8.5c-0.2,0.6-0.2,1.4,0.4,1.6c0.4,0.1,0.8,0,1.1-0.1
	c2.1-0.7,4.7-0.9,6.2,0.5c1.5,1.4,1.4,3.8,3.2,4.9c2.1,1.2,5.4-0.3,7.3,1.2c0.8,0.6,1.1,1.6,1.8,2.4c1.6,1.7,4.5,1.6,7,1.3
	c1.4-0.2,3.2-0.3,4,0.7c0.4,0.5,0.5,1.1,1,1.5c0.9,0.8,2.4,0.4,3.3-0.4c0.8-0.8,1.2-1.9,2-2.8c1.4-1.7,3.8-2.7,5.2-4.4
	c1.2-1.4,1.5-3.2,1.9-5l1.2-6.5c0.5-2.6,0.9-5.5-0.5-7.8c-0.5-0.8-1.3-1.5-1.7-2.4c-0.3-0.6-0.5-1.2-0.8-1.7
	c-0.4-0.6-0.9-1.1-1.5-1.5l-2.8-2.4c-1-0.9-2-1.6-3.1-2.3C92.7,40.7,86.6,41.3,82,41.7z"/>
<path class="st5" d="M21.2,89.3c-0.7,0.7-1.3,1.5-2,2.2c-0.6,0.6-1.3,1.1-2,1.6c-1.1,0.8-2.2,1.7-3.3,2.6c-1.1,0.9-2.1,1.9-3,3
	c-1.5,2.1-2.3,4.6-3.7,6.8c-1.3,1.9-3.1,3.4-4.4,5.3c-0.6,0.8-1,1.7-1.2,2.6c-0.2,0.9-0.3,1.8-0.3,2.8c0,1.5,0,3.1,0.3,4.6
	s1,3,2.2,3.9c1.1,0.9,2.5,1.3,3.9,1.7c0.7,0.2,1.5,0.3,2.2,0.1c0.5-0.2,0.9-0.6,1.3-1.1l3.5-4c2.3-2.7,4.8-5.5,8-7.1
	c1-0.5,2.1-0.9,3.1-1.3c4.3-2.1,7.3-6.3,8.5-10.9c0.3-1.1,0.5-2.3,0.7-3.4l0.5-3.2c0-0.2,0-0.3,0-0.5c-0.1-0.2-0.2-0.3-0.4-0.4
	c-2.4-2-4.7-4.1-6.8-6.5c-0.5-0.6-1-1.3-1.6-1.8c-0.7-0.6-0.7-0.5-1.5,0C23.5,87.1,22.3,88.1,21.2,89.3z"/>
<path class="st1" d="M45.2,110.3c-0.1-0.3-0.4-0.4-0.7-0.3c-0.3,0.1-0.4,0.4-0.3,0.7c0,0,0,0,0,0l-0.3,0.1l8.6,17.6l1.6-0.8
	l-8.6-17.6L45.2,110.3z"/>
<path class="st8" d="M21.2,89.3c-0.7,0.7-1.3,1.5-2,2.2c-0.6,0.6-1.3,1.1-2,1.6c-1.1,0.8-2.2,1.7-3.3,2.6c-1.1,0.9-2.1,1.9-3,3
	c-1.5,2.1-2.3,4.6-3.7,6.8c-1.3,1.9-3.1,3.4-4.4,5.3c-0.6,0.8-1,1.7-1.2,2.6c-0.2,0.9-0.3,1.8-0.3,2.8c0,1.5,0,3.1,0.3,4.6
	s1,3,2.2,3.9c1.1,0.9,2.5,1.3,3.9,1.7c0.7,0.2,1.5,0.3,2.2,0.1c0.5-0.2,0.9-0.6,1.3-1.1l3.5-4c2.3-2.7,4.8-5.5,8-7.1
	c1-0.5,2.1-0.9,3.1-1.3c4.3-2.1,7.3-6.3,8.5-10.9c0.3-1.1,0.5-2.3,0.7-3.4l0.5-3.2c0-0.2,0-0.3,0-0.5c-0.1-0.2-0.2-0.3-0.4-0.4
	c-2.4-2-4.7-4.1-6.8-6.5c-0.5-0.6-1-1.3-1.6-1.8c-0.7-0.6-0.7-0.5-1.5,0C23.5,87.1,22.3,88.1,21.2,89.3z"/>
<path class="st5" d="M120.6,121.8c0,1.8-0.1,3.7-0.9,5.4c-0.3,0.7-0.8,1.4-1.6,1.7c-0.5,0.1-0.9,0.1-1.4,0.1
	c-5.7-0.5-11.4,0-16.9,1.3c1.5-2.9,0.6-6.5,1-9.7c0.1-0.9,0.3-1.8,0.4-2.7c0.3-3.2-1.1-6.3-1.7-9.4c-0.5-2.7-0.5-5.5,0-8.2
	c0.1-0.7,0.3-1.4,0.7-2c0.4-0.6,1-1.1,1.6-1.4c2.3-1.3,5.1-1.5,7.7-1.3c1.8,0.1,5.3,0,6.8,1c1.6,1.2,2.1,5.2,2.6,7
	c0.7,2.8,1.1,5.7,1.3,8.6C120.6,115.4,120.6,118.6,120.6,121.8z"/>
<polygon class="st9" points="17.3,128.2 27.7,135.1 74.4,133.4 43.5,128.2 "/>
<path class="st2" d="M31,73.2c-1.7,1.5-3.1,3.3-4.8,4.9C24,80.2,21.5,82.1,19,84c1.8,0.5,3.3,1.9,3.7,3.8c0.1,0.4,0.2,0.9,0.3,1.3
	c0.3,1,0.9,1.8,1.6,2.6c2.9,3.3,7,5.7,8.7,9.8c0.1,0.2,0.2,0.4,0.3,0.5c0.1,0.1,0.3,0.1,0.4,0.1c1.6-0.2,2.8-1.4,3.7-2.6
	c2.1-2.6,3.9-5.5,4.9-8.6c1-3.2,1.2-6.7,0.1-9.8c-0.6-1.6-1.4-3-2.3-4.4c-0.7-1.2-1.5-2.5-2.2-3.7c-0.4-0.7-0.9-2-1.6-2.3
	C35.1,69.7,32,72.1,31,73.2z"/>
<path class="st2" d="M115.9,91.8l2.5,5.8c-5.4-1.9-11.4-1.1-16.1,2.2c-1.4,1-2.7,2.3-3.3,3.9c-0.6,0.1-1.3-0.1-1.7-0.7
	c-0.4-0.5-0.6-1.1-0.6-1.8c-0.2-2.2,0.6-4.4,1.4-6.5c0.4-1,0.8-2,1.5-2.7c0.7-0.8,1.6-1.3,2.5-1.8c2.9-1.6,6-3,9.1-4
	c1.3-0.4,2.7-0.4,3.5,0.8C115.5,88.5,115.3,90.2,115.9,91.8z"/>
<path class="st5" d="M17.4,109.1c0.6,0.5,1.2,1.1,1.8,1.5c0.7,0.5,1.4,0.9,2.1,1.2l2.8,1.4c0.9,0.5,1.8,0.8,2.8,1.1
	c1.2,0.3,2.5,0.4,3.7,0.7c1.5,0.4,3,1.2,4.5,1.6c1.5,0.5,3.3,0.5,4.6-0.4c0.8-0.6,1.4-1.6,2.4-1.7c0.6-0.1,1.2,0.2,1.8,0.5l7.4,3.9
	c1,0.5,2.1,1.1,2.6,2.1s0.2,2.5-0.9,2.8c-0.4,0-0.8,0.1-1.2,0.1c-0.4,0-0.8,0.3-0.8,0.7c0,0.2,0.1,0.5,0.2,0.7
	c0.3,0.8,0.4,1.7,0,2.4c-0.4,0.7-1.3,1.2-2.1,0.9c0.1,1.1-1.1,1.9-2.2,2.2c-2.7,0.7-5.6,0.3-8.4-0.2c-1.1-0.2-2.2-0.4-3.2-0.9
	c-0.5-0.2-0.9-0.5-1.4-0.7c-1.3-0.6-2.8-0.5-4.3-0.5c-6.7,0.1-13.4-1.1-20-2.4c-1.2-0.2-2.5-0.5-3.5-1.2c-2-1.3-2.8-4-2.4-6.4
	c0.3-2.4,1.5-4.6,2.7-6.7l1.5-2.7c0.2-0.4,0.5-0.8,0.8-1.1C10.9,106.2,15.4,107.6,17.4,109.1z"/>
<path class="st8" d="M17.4,109.1c0.6,0.5,1.2,1.1,1.8,1.5c0.7,0.5,1.4,0.9,2.1,1.2l2.8,1.4c0.9,0.5,1.8,0.8,2.8,1.1
	c1.2,0.3,2.5,0.4,3.7,0.7c1.5,0.4,3,1.2,4.5,1.6c1.5,0.5,3.3,0.5,4.6-0.4c0.8-0.6,1.4-1.6,2.4-1.7c0.6-0.1,1.2,0.2,1.8,0.5l7.4,3.9
	c1,0.5,2.1,1.1,2.6,2.1s0.2,2.5-0.9,2.8c-0.4,0-0.8,0.1-1.2,0.1c-0.4,0-0.8,0.3-0.8,0.7c0,0.2,0.1,0.5,0.2,0.7
	c0.3,0.8,0.4,1.7,0,2.4c-0.4,0.7-1.3,1.2-2.1,0.9c0.1,1.1-1.1,1.9-2.2,2.2c-2.7,0.7-5.6,0.3-8.4-0.2c-1.1-0.2-2.2-0.4-3.2-0.9
	c-0.5-0.2-0.9-0.5-1.4-0.7c-1.3-0.6-2.8-0.5-4.3-0.5c-6.7,0.1-13.4-1.1-20-2.4c-1.2-0.2-2.5-0.5-3.5-1.2c-2-1.3-2.8-4-2.4-6.4
	c0.3-2.4,1.5-4.6,2.7-6.7l1.5-2.7c0.2-0.4,0.5-0.8,0.8-1.1C10.9,106.2,15.4,107.6,17.4,109.1z"/>
<path class="st5" d="M105.4,114.1c-1.5,0.7-3.2,0.8-4.8,1.3s-2.9,1.5-4.3,2.3c-3.7,2.1-8.1,2.9-12.3,3.6c-2.6,0.5-5.2,0.9-7.8,0.8
	c-3.5-0.1-6.9-1.3-10.3-2.2s-7-1.5-10.4-0.5c-3.6,1.1-6.4,3.8-7.6,7.3c-0.7,2.1-0.8,4.3-0.7,6.5c0.7,0.5,1.7-0.2,2.1-1
	c0.4-0.8,0.6-1.8,1.3-2.2c1.3,0.4,1.6,2.2,2.7,3c0.7,0.5,1.6,0.7,2.4,0.8l4.4,0.6c1.1,0.1,2.3,0.3,3-0.5c0.4-0.4,0.6-0.9,0.9-1.3
	c0.7-0.8,1.9-0.9,2.9-0.8c3.2,0.3,6.3,2.4,9.5,1.9c1.1-0.2,2.1-0.6,3.2-1c6.3-2.2,13.2-0.9,19.7-2.1c2.5-0.5,4.9-1.3,7.2-2.2
	c1.3-0.5,2.6-1,3.7-1.8c2.1-1.6,3.2-4.2,3-6.9c-0.2-2-1.2-3.8-2.8-5.1c-0.5-0.4-1.2-1.3-1.8-1.5
	C107.5,112.7,106.4,113.6,105.4,114.1z"/>
<g class="st10">
	<path d="M97,77.3c-0.5-0.4-0.6-1.1-1-1.5c-0.9-1-2.6-0.9-4-0.7c-2.5,0.3-5.5,0.4-7-1.3c-0.7-0.7-1-1.7-1.8-2.4
		c-1.9-1.4-5.2,0-7.3-1.2c-1.8-1.1-1.7-3.5-3.2-4.9c-1.5-1.4-4.2-1.2-6.2-0.5c-0.3,0.2-0.7,0.2-1.1,0.1c-0.7-0.2-0.6-1-0.4-1.6
		c0.8-2.9,1.6-5.8,3.1-8.5c0.6-1,1.2-1.9,1.6-3c0.6-1.8,0.3-3.9,1.1-5.6c-0.9,0.6-1.7,1.2-2.3,2c-1.2,1.8-0.8,4.2-1.4,6.2
		c-0.4,1-1,2-1.6,3C63.8,60,63,63,62.3,65.9c-0.2,0.6-0.2,1.4,0.4,1.6c0.4,0.1,0.8,0,1.1-0.1c2.1-0.7,4.7-0.9,6.2,0.5
		c1.5,1.4,1.4,3.8,3.2,4.9c2.1,1.2,5.4-0.3,7.3,1.2c0.8,0.6,1.1,1.6,1.8,2.4c1.6,1.7,4.5,1.6,7,1.3c1.4-0.2,3.2-0.3,4,0.7
		c0.4,0.5,0.5,1.1,1,1.5c0.9,0.8,2.4,0.4,3.3-0.4c0.5-0.6,1-1.2,1.4-1.9C98.3,77.8,97.5,77.7,97,77.3z"/>
	<path d="M102.2,74.1c-0.2,0.2-0.4,0.5-0.5,0.7c1.1-0.8,2.3-1.5,3.1-2.5c0.2-0.3,0.4-0.5,0.6-0.8C104.2,72.3,103,73,102.2,74.1z"/>
</g>
<polygon class="st1" points="160.5,131.2 161.4,214 165.4,213.4 164.5,131.2 "/>
<polygon class="st1" points="184.7,146.2 185.6,229 189.6,228.4 188.8,146.2 "/>
<path class="st1" d="M260.1,188L260.1,188l0-1.6v-0.9l-0.2-14.6l-0.2-22.8l0-2h-4l0,1.9l0.1,12.2l0.1,5.3l0,0l0,4.3l0.1,7.4l0,4.4
	l0,0v0.5l0.1,5.7l0.1,5l0.3-0.4c0.5-0.6,1-1.2,1.6-1.8L260.1,188z"/>
<polygon class="st2" points="180.2,159.6 177.9,163 180.2,178.8 199.9,184.1 231.6,184.1 250.6,185.3 259.7,179.1 258.1,168.4 
	251.2,159.6 "/>
<path class="st1" d="M177.9,163l-1.2,9.6c0,0-6.1,18.8,42.7,17.6c48.7-1.2,40.4-5,40.4-5l-0.3-11.1c0,0,1.7,5.3-23.1,4.5
	c-24.8-0.7-47.9-3-47.9-3S180,177.2,177.9,163z"/>
<path class="st11" d="M218.5,77.2c-2.8,1.3-4.9,3.7-6.3,6.4c-1.4,2.7-2.2,5.7-3,8.7c-0.8,3.1-1.7,6.2-2.1,9.4
	c-0.8,5.7-0.2,11.7,2.4,16.8s7.4,9.2,13.1,10.2c2.2,0.4,4.4,0.3,6.6,0.1c4-0.4,7.9-1.3,11.7-2.6c4-1.3,8.1-3.4,9.9-7.2
	c1-2.2,1.1-4.7,1.1-7.1c-0.1-6.6-1.1-13.2-3-19.6c-0.5-1.8-1.2-3.7-2.3-5.3s-2.7-2.7-4.3-3.7C235.7,78.7,226.8,73.4,218.5,77.2z"/>
<path class="st12" d="M218.5,77.2c-2.8,1.3-4.9,3.7-6.3,6.4c-1.4,2.7-2.2,5.7-3,8.7c-0.8,3.1-1.7,6.2-2.1,9.4
	c-0.8,5.7-0.2,11.7,2.4,16.8s7.4,9.2,13.1,10.2c2.2,0.4,4.4,0.3,6.6,0.1c4-0.4,7.9-1.3,11.7-2.6c4-1.3,8.1-3.4,9.9-7.2
	c1-2.2,1.1-4.7,1.1-7.1c-0.1-6.6-1.1-13.2-3-19.6c-0.5-1.8-1.2-3.7-2.3-5.3s-2.7-2.7-4.3-3.7C235.7,78.7,226.8,73.4,218.5,77.2z"/>
<path class="st2" d="M215.4,113.5c0.8,1.1,1.8,2.1,2.9,2.9c2.7,1.9,6.3,2.2,9.6,2.3c2.7,0.1,5.7-0.1,7.4-2.2
	c0.8-0.9,1.1-2.1,1.4-3.3c1.9-7.2,3.2-14.5,4-21.9l7.6,0c3.3,14.2,3,28.9,2.7,43.4l-0.4,21.2l-4.9-0.5c-11.7-1.2-23.4-2.5-35.1-2.7
	c-6.9-0.1-13.8,0.1-20.6,0.7l10.7-31.9c1.4-4.1,2.8-8.3,3.1-12.7c0.5-6.3-1.3-13,1.2-18.8c0.2-0.5,0.4-1,0.9-1.2
	c0.4-0.2,1-0.2,1.5-0.1c1,0.1,3.9,0,4.6,0.6c1,0.9,0.4,1,0,2.5c-0.7,2.6-1.3,5-1.3,7.7C210.8,104.4,212.3,109.6,215.4,113.5z"/>
<path class="st7" d="M260.1,188L260.1,188c1.3-1.7,2.5-3.5,3.6-5.3c-0.6-1.2-1.2-2.4-1.7-3.7c-0.8-1.9-1.2-4-1.7-6
	c-0.1-0.7-0.3-1.4-0.4-2.1c-1.6-7.5-3.1-15.2-3.4-22.8c0-0.6,0-1.3-0.1-1.9c0-0.1,0-0.2,0-0.3c0-0.7,0-1.4,0-2.1
	c0-1.7,0.1-3.5,0.3-5.2c0-0.3,0.1-0.7,0.1-1c0-0.1,0-0.1,0-0.2l19.6-0.7l0,0l1.6-0.1c1.1,0,2.3-0.1,3.3-0.7c1.6-1.1,1.8-3.3,1.7-5.2
	c-0.1-4.8-0.6-9.6-1.6-14.3c-0.7-3.5-1.8-7.1-4.2-9.9c-2-2.2-4.8-3.9-5.8-6.6c-0.4-1-0.5-2.2-1-3.2c-0.5-1-1.3-1.7-2.1-2.5
	c-2.7-2.7-4.9-5.8-6.6-9.1c-1.2-2.4-2.4-4.9-4-6.6c-0.1-0.1-0.1-0.2-0.2-0.2c-1.3-1.3-2.8-1.8-4.5-1c-0.3,0.2-0.6,0.3-0.9,0.6l0,0
	c-0.6,0.5-1.2,1-1.7,1.6c-1.8,2-3.3,4.3-4.7,6.6c-0.9,1.7-1.7,3.4-2.4,5.2c-0.5,1.4-0.9,2.9-1.3,4.3c-0.2,1.1-0.4,2.2-0.6,3.3
	c-0.6,4.1-0.6,8.4-0.5,12.6c0.1,3.9,0.3,7.7,0.6,11.6c0.1,0.9,0.2,1.9,0.3,2.8c0.2,1.8,0.5,3.7,0.8,5.5c0.1,0.7,0.3,1.4,0.4,2.1
	c0,0.2,0.1,0.4,0.1,0.6l0,0.1c0.4,1.6,0.7,3.2,0.9,4.9c0,0.2,0,0.4,0.1,0.6c0,0.9,0,1.9,0,2.8c-0.1,1.1-0.2,2.2-0.2,3.3
	c0,0.2,0,0.4,0,0.6c0,0.6,0,1.1,0,1.7c0.1,1.3,0.2,2.7,0.5,4c0.5,2.5,1.3,4.8,2.5,7c0.1,0.2,0.2,0.4,0.3,0.6c1.5,2.6,3.3,5,4.7,7.7
	c1.2,2.4,2,4.9,2.6,7.6c0.2,0.9,0.4,1.7,0.5,2.6c0.3,1.4,0.5,2.8,0.8,4.2c0,0.1,0,0.3,0.1,0.4c0.3,1.9,0.7,3.7,1.1,5.5
	c0.3,1.1,0.5,2.1,0.9,3.1L260.1,188z"/>
<path class="st13" d="M256.3,165.3c0,0.3,0,0.5,0,0.8c-0.1,1.3-0.2,2.5-0.3,3.8c-0.2,1.7-0.7,3.4-1.2,5c-0.4,1.1-0.9,2.1-1.5,3.1
	c-0.5,0.9-1.2,1.7-1.9,2.4c-1.7,1.8-4.2,2.4-6.6,3.1c-1.1,0.3-2.2,0.8-3.2,1.3c-0.2,0.1-0.4,0.2-0.5,0.3l-3,2
	c-0.9,0.6-1.9,1.3-2.5,2.2c-0.1,0.2-0.2,0.3-0.3,0.5c-0.4,0.8-0.7,1.7-0.9,2.7c-1.6,6.5-3.1,13.1-4.2,19.7c-0.1,0.4-0.1,0.9-0.2,1.3
	l0,0.1c0,0,0-0.1,0-0.1c-7.7,4.7-15.7,8.9-24,12.2l-1.8-15c-0.2-1.2-0.2-2.5-0.2-3.7c0.2-1.9,1-3.8,1.2-5.7c0.2-1.9-0.2-3.8-1-5.5
	c-0.3-0.7-0.8-1.3-0.8-2c-0.1-0.7,0.3-1.4,1.1-1.5c0.6-0.6,0.6-1.5,0.5-2.4c-0.1-0.5-0.2-0.9-0.4-1.3c-0.5-1.2-1.1-2.5-0.7-3.7
	c0.1-0.2,0.2-0.5,0.1-0.7c0,0,0,0,0,0c-0.1-0.3-0.5-0.5-0.7-0.7c-0.4-0.5,0-1.2,0.2-1.8c0.2-0.6,0.4-1.3,0.4-2
	c0-0.4,0.1-0.7,0.1-1.1c0.1-0.5,0.1-1,0.3-1.5c0.7-2.8,2.4-5.2,4.7-6.8c1.1-0.8,2.4-1.3,3.5-2c1.2-0.8,2.3-1.7,3.4-2.6
	c2.5-2.1,5.2-4.1,7.9-6c2.9-2,6-3.9,9.1-5.6c0.7-0.4,1.3-0.7,2-1.1c0.7-0.4,1.5-0.7,2.2-1.1c2.4-1.1,5.1-0.7,7.7,0
	c1.1,0.3,2.2,0.7,3.2,1c1,0.3,2,0.8,2.9,1.3c2.3,1.4,4.3,3.4,5,5.9c0,0,0,0,0,0C256.3,161.9,256.3,163.6,256.3,165.3z"/>
<path class="st6" d="M256.3,165.3c0,0.3,0,0.5,0,0.8c-0.1,1.3-0.2,2.5-0.3,3.8c-0.2,1.7-0.7,3.4-1.2,5c-0.4,1.1-0.9,2.1-1.5,3.1
	c-0.5,0.9-1.2,1.7-1.9,2.4c-1.7,1.8-4.2,2.4-6.6,3.1c-1.1,0.3-2.2,0.8-3.2,1.3c-0.2,0.1-0.4,0.2-0.5,0.3l-3,2
	c-0.9,0.6-1.9,1.3-2.5,2.2c-0.1,0.2-0.2,0.3-0.3,0.5c-0.4,0.8-0.7,1.7-0.9,2.7c-1.6,6.5-3.1,13.1-4.2,19.7c-0.1,0.4-0.1,0.9-0.2,1.3
	l0,0.1c0,0,0-0.1,0-0.1c-7.7,4.7-15.7,8.9-24,12.2l-1.8-15c-0.2-1.2-0.2-2.5-0.2-3.7c0.2-1.9,1-3.8,1.2-5.7c0.2-1.9-0.2-3.8-1-5.5
	c-0.3-0.7-0.8-1.3-0.8-2c-0.1-0.7,0.3-1.4,1.1-1.5c0.6-0.6,0.6-1.5,0.5-2.4c-0.1-0.5-0.2-0.9-0.4-1.3c-0.5-1.2-1.1-2.5-0.7-3.7
	c0.1-0.2,0.2-0.5,0.1-0.7c0,0,0,0,0,0c-0.1-0.3-0.5-0.5-0.7-0.7c-0.4-0.5,0-1.2,0.2-1.8c0.2-0.6,0.4-1.3,0.4-2
	c0-0.4,0.1-0.7,0.1-1.1c0.1-0.5,0.1-1,0.3-1.5c0.7-2.8,2.4-5.2,4.7-6.8c1.1-0.8,2.4-1.3,3.5-2c1.2-0.8,2.3-1.7,3.4-2.6
	c2.5-2.1,5.2-4.1,7.9-6c2.9-2,6-3.9,9.1-5.6c0.7-0.4,1.3-0.7,2-1.1c0.7-0.4,1.5-0.7,2.2-1.1c2.4-1.1,5.1-0.7,7.7,0
	c1.1,0.3,2.2,0.7,3.2,1c1,0.3,2,0.8,2.9,1.3c2.3,1.4,4.3,3.4,5,5.9c0,0,0,0,0,0C256.3,161.9,256.3,163.6,256.3,165.3z"/>
<path class="st1" d="M228.9,117.5c-0.1-0.3-0.4-0.4-0.7-0.3c-0.3,0.1-0.4,0.4-0.3,0.7c0,0,0,0,0,0l-0.3,0.1l8.6,17.6l1.6-0.8
	l-8.6-17.6L228.9,117.5z"/>
<circle class="st11" cx="239.7" cy="80.6" r="18.5"/>
<path class="st7" d="M264,69.2c-0.1-1.5-0.3-2.9-0.7-4.4c-1.1-4.7-3.1-9.3-6.5-12.6c-0.2-0.8-0.5-1.6-0.8-2.4c0,0,0,0,0-0.1
	c-1-2.8-2.5-5.4-4.4-7.7c-1.1-1.3-2.5-2.7-4.2-2.7c-0.5,0-1,0.1-1.4-0.2c-0.3-0.2-0.6-0.5-0.8-0.8c-1.7-2.2-4.6-3.3-7.3-2.7l-0.2,0
	c-0.1,0-0.2,0-0.3,0.1s-0.2,0.1-0.4,0.1c0.1,0.2,0.3,0.4,0.4,0.7c0.3,0.6,0.7,1.2,1,1.9c0.2,0.5,0.5,1.1,0.7,1.6
	c-3,0.3-5.4,2.4-7.6,4.4l-5.2,4.7c0,0,0,0,0,0l-0.1,0.1c0,0-0.1,0.1-0.1,0.1c0,0,0,0,0,0c0,0-0.1,0.1-0.1,0.1
	c-0.1,0.1-0.1,0.2-0.2,0.3c0,0-0.1,0.1-0.1,0.1c0,0,0,0,0,0c0,0,0,0.1,0,0.1c0,0,0,0,0,0c0,0,0,0,0,0.1c-0.1,0.2,0,0.4,0,0.6l3.4,0
	h0.4c0,0.5,0,0.9,0,1.4c-0.5,0.4-1.1,0.8-1.6,1.3c-0.5,0.5-1,1-1.5,1.6c-3.1,3.7-4.7,8.5-4.8,13.4c0,0.1,0,0.3,0,0.4
	c0,0.4,0,0.9,0,1.3c0,0.3,0,0.6,0,0.9c0,0.4,0.1,0.7,0.3,1.1c0,0,0.1,0.1,0.1,0.1c0.2,0.2,0.4,0.3,0.6,0.4l0.2,0.1l0,0
	c0.1,0.1,0.2,0.1,0.4,0.2c1.1,0.6,1.7,1.8,2.7,2.6c0.1,0,0.1,0.1,0.2,0.1l0.1,0.1l0.1,0.1l0.1,0.1c0.1,0,0.1,0.1,0.2,0.1l0,0l0,0
	l0.1,0.1h0l0,0c0.1,0.1,0.2,0.1,0.3,0.1l0.2,0.1l0,0c0,0,0.1,0,0.1,0c0.1,0,0.2,0.1,0.3,0.1l0.3,0.1c0.1,0,0.2,0,0.3,0.1l0.2,0
	l0.2,0c0.3,0,0.6,0,0.8,0l0,0c0.9,0,1.7-0.1,2.6-0.2l7.4-0.9c1.7-0.2,3.4-0.4,5,0c1.4,0.3,2.7,1,4,1.4c0.3,0.1,0.6,0.2,0.9,0.3
	c0.1,0,0.2,0.1,0.3,0.1l0.2,0l0.4,0.1c0.1,0,0.3,0.1,0.4,0.1c0.2,0,0.4,0.1,0.6,0.1c0.1,0,0.3,0,0.4,0.1h0l0.4,0.1h0.1l0,0l0.3,0
	c0.1,0,0.3,0,0.4,0.1c0.3,0,0.6,0.1,0.9,0.1c0.5,0,1,0.1,1.4,0.1l0.5,0l0.5,0l1.4,0.1h0.1h0.2c0.6,0,1.2,0,1.8-0.1
	c0.1,0,0.2,0,0.3-0.1c0.1,0,0.2-0.1,0.3-0.1c1.1-0.4,1.9-1.4,2.4-2.4c0.1-0.2,0.2-0.4,0.3-0.7c0.1-0.2,0.2-0.4,0.3-0.7
	c0.1-0.3,0.2-0.6,0.3-0.9c0-0.1,0-0.2,0.1-0.2s0.1-0.2,0.1-0.4c0.1-0.3,0.1-0.7,0.2-1c0-0.1,0-0.2,0-0.3c0-0.3,0-0.6,0.1-0.8
	c0-0.2,0-0.4,0-0.6C264,69.8,264,69.4,264,69.2z M256.6,51.9c-0.2-0.2-0.5-0.4-0.7-0.6C256.2,51.5,256.4,51.7,256.6,51.9L256.6,51.9
	z"/>
<path class="st7" d="M204.2,79.6c-2.2-0.3-4.3-1.2-6.5-0.8c-1.3,0.3-2.5,1.1-3.6,2c-4,3.2-7.4,7.1-10,11.5c-0.4,0.7-0.8,1.4-0.9,2.2
	c-0.1,0.9,0.1,1.8,0.4,2.7c2,5.8,6.2,10.7,8.1,16.5c2,6.1,1.3,12.9-0.2,19.2c-1.8,7.8-4.8,15.2-8.9,22.1c-0.6,1-1.2,2-2,2.8
	c-1,1-2.5,1.7-3.1,3.1c-0.3,0.6-0.4,1.2-0.6,1.9c-0.6,1.7-2,3.2-2.1,5c-0.1,1.4,0.6,2.7,1,4c0.7,2.3,0.6,4.7-0.2,7
	c-1.5,4-5.3,7.7-4.2,11.8c2.5-0.7,5.2-1.6,6.4-3.9c0.4-0.8,0.6-1.8,1.3-2.4c1.4-1.2,3.7-0.1,5.2-1.2c1.1-0.8,1.2-2.5,0.7-3.8
	c-0.5-1.3-1.3-2.4-1.7-3.8c-0.7-2.4,0.4-5,0.2-7.4c-0.1-1.2-0.4-2.3-0.5-3.4c0-2.2,1.2-4.3,2.8-5.8c1.6-1.5,3.7-2.5,5.7-3.5l7.5-3.7
	c2.7-1.4,5.7-3,6.6-5.9c0.3-1.1,0.3-2.3,0.4-3.4c0.3-17.5,4.6-34.6,9-51.5c0.7-2.6,1.4-5.2,2.4-7.8c1-2.5,3-4.5,4-6.9
	C215.6,75.3,210.3,80.3,204.2,79.6z"/>
<path class="st13" d="M245.8,189c0.7,4,1.1,8.2,1.4,12.3c-5.2,4.3-10.8,8-16.5,11.5c-0.3,0.2-0.6,0.4-1,0.6l0,0.1c0,0,0-0.1,0-0.1
	c-0.4-1-1.2-1.7-2.2-2.1c-2.1-4.5-4.3-8.9-6.4-13.4c-1.2-2.4-2.3-4.9-2.9-7.5c0-0.1,0-0.1,0-0.2c-0.4-2-0.5-4.1-0.8-6.2
	c-0.1-1.2-0.4-2.3-0.8-3.4c-0.3-1-0.8-2-1.2-2.9c-0.5-1.2-1-2.4-1-3.7c0-0.4,0-0.9-0.2-1.2c-0.2-0.3-0.5-0.6-0.8-0.8
	c-0.8-0.7-1.1-1.7-1-2.7c-1.7,0.1-2.7,1.9-3.4,3.5c-0.6,1.5-1.5,3-2.5,4.3c-0.7,0.9-1.7,1.7-2.7,2.3c-0.1,0-0.2,0.1-0.3,0.1
	c-2.4,1.1-5.2,0.7-7.8,0.2c-2.3-0.4-4.6-0.9-6.5-2.4l-0.2-0.2c-0.5-0.5-1-1-1.4-1.5c-1.5-2.1-2.2-4.9-2.6-7.5c0-0.2-0.1-0.5-0.1-0.7
	c-0.3-1.9-0.3-3.7-0.2-5.6c0-0.5,0.1-0.9,0.1-1.4c0-0.3,0.1-0.6,0.1-0.9c0,0,0,0,0,0c0.1-0.5,0.2-1,0.2-1.4c0.3-1.6,0.6-3.3,1.4-4.7
	c0.6-0.9,1.3-1.6,2.1-2.3c0.3-0.2,0.6-0.5,1-0.7c0.5-0.4,1.1-0.7,1.6-1c1.4-0.8,2.8-1.5,4.3-2.1c0.4-0.1,0.7-0.3,1.1-0.4
	c1.4-0.5,2.9-0.6,4.4-0.3c1.3,0.2,2.6,0.3,3.9,0.2c3.4-0.1,6.8-0.7,10.2-1.1c4.7-0.6,9.7-0.6,13.8,1.7c0.2,0.1,0.4,0.2,0.6,0.4
	c2,1.3,3.6,3.2,5,5.2c0.3,0.4,0.5,0.9,0.8,1.3c0.6,1,1.1,2.1,1.5,3.2c0.3,0.5,0.4,1.1,0.4,1.7c0,0.1,0,0.2,0,0.3
	c-0.1,0.4-0.2,0.8-0.3,1.2c-0.2,1.6,1.2,2.9,1.7,4.4c0.3,1,0.3,2,0.5,3c0.3,1.4,1,2.7,1.6,4c1,2.1,1.9,4.2,2.6,6.5
	c0.5,1.5,0.9,3.1,1.3,4.7c0.1,0.5,0.2,1,0.3,1.5C245.3,186.3,245.6,187.7,245.8,189z"/>
<polygon class="st1" points="276.6,146.3 276.6,148.4 276.2,148.3 275.8,148.3 271.1,148.3 259.7,148.1 256.5,148.1 255.7,148.1 
	250.9,148 244.1,147.9 229.7,147.7 204.7,147.4 195.7,147.3 192.1,147.3 188.8,147.2 186.7,147.2 184.7,147.2 170.2,147 
	166.1,146.9 165.2,146.9 164.7,145.4 160.5,134.7 159.8,132.8 160.3,130.5 162.9,132.2 164.5,132.4 190.8,135.7 195.8,136.3 
	206.2,137.6 216.5,138.9 220.5,139.4 244.3,142.3 251,143.1 256.5,143.8 276,146.3 "/>
<polygon class="st4" points="160.3,130.5 165.5,144 276.6,146.3 276.6,131.6 "/>
<polygon class="st1" points="166.1,145.5 167,228.2 171,227.7 170.1,145.5 "/>
<path class="st1" d="M276.2,148.3h-0.4c-0.7,5.2-1.8,10.3-3.3,15.2l-1.3-15.3l-0.1-0.7l4.9-0.6l0.2,0L276.2,148.3z"/>
<polygon class="st9" points="260.4,138.5 218.2,139.4 205,135.1 240.2,133.1 "/>
<path class="st11" d="M207.4,121.7c-0.4,0.2-0.8,0.5-1.2,0.8c-0.2,0.4-0.4,0.8-0.4,1.3l-0.7,4.2c-0.1,0.4-0.1,0.8,0.1,1.2
	c0.2,0.4,0.7,0.5,1,0.2c0,0.8,0,1.7,0.5,2.4c0.5,0.7,1.5,1,2.2,0.6c0.4,0.7,1.3,0.9,1.9,0.5c0.1,0,0.1-0.1,0.2-0.1
	c-0.4,0.1-0.4,0.8-0.1,1.1c0.3,0.3,0.7,0.5,1.2,0.5c5.1,0.7,10.2,0.1,15-1.9c0.4-0.2-0.7-5.7-0.8-6.3c-0.3-1.3-0.4-3-1.6-3.8
	c-2.7-2.1-7.4-2.6-10.7-2.3C211.6,120.2,209.4,120.8,207.4,121.7z"/>
<path class="st6" d="M250.4,122.4c-10.4,0.2-21.1,0.4-31-2.8c1,3.7,0.9,7.6-0.2,11.2l48.8,4c2.1,0.2,10.6,1.1,12.7,0.7
	s-16.9-6.7-16.2-8.7c2.1-5.3,9.1-8.4,4.1-8.6C262.1,118,256.9,122.2,250.4,122.4z"/>
<path class="st7" d="M250.7,122.9c-10.4,0.2-21.1,0.4-31-2.8c1,3.7,0.9,7.6-0.2,11.2l48.8,4c2.1,0.2,10.6,1.2,12.7,0.7
	c2-0.5,1.5-3,2.3-4.9c2.1-5.3-9.3-12.2-14.4-12.4C262.4,118.6,257.1,122.8,250.7,122.9z"/>
<path class="st11" d="M234.1,123.7c0.4,0.2,0.8,0.5,1.2,0.8c0.2,0.4,0.4,0.8,0.4,1.3l0.7,4.2c0.1,0.4,0.1,0.8-0.1,1.2
	c-0.2,0.4-0.7,0.5-1,0.2c0,0.8,0,1.7-0.5,2.4s-1.5,1-2.2,0.6c-0.4,0.7-1.3,0.9-1.9,0.5c-0.1,0-0.1-0.1-0.2-0.1
	c0.4,0.1,0.4,0.8,0.1,1.1c-0.3,0.3-0.7,0.5-1.2,0.5c-5.1,0.7-10.2,0.1-15-1.9c-0.4-0.2,0.7-5.7,0.8-6.3c0.3-1.3,0.4-3,1.6-3.8
	c2.7-2.1,7.4-2.6,10.7-2.3C229.9,122.2,232.1,122.8,234.1,123.7z"/>
<path class="st7" d="M165.2,114.6c-1,1.2-1.9,2.5-2.5,3.9c-1.2,2.7-1,5.9-0.8,8.8c0.1,0.9,0.1,1.7,0.6,2.5c0.4,0.5,0.9,1,1.5,1.3
	c2.5,1.4,5.4,1.8,8.3,2.2c4.4,0.5,8.8,0.8,13.2,0.9c10.9,0.3,22-0.6,32.6,1.8c-1.3-2-1.3-4.6-0.6-6.9c0.7-2.3,2.2-4.3,3.5-6.2
	c-4.9-1.5-10.1,0.9-15.2,0.6c-5.2-0.2-10.1-3.3-15.3-3.3c-1.1,0-2.3,0.1-3.4-0.1s-2.2-1.1-2.3-2.2c1.4,0.3,2.7-0.9,3.3-2.2
	s0.7-2.8,1.2-4.1c1.4-3.3,5.2-4.8,7.5-7.5c0.4-0.4,0.7-0.9,0.7-1.5c-0.1-0.5-0.3-0.9-0.6-1.3c-1.9-2.6-4.9-4-7.3-6.1
	c-0.8-0.7-2.6-3.4-3.5-3.6c-1.8-0.5-3.3,2.1-4.4,3.3C176,101.2,170.4,107.8,165.2,114.6z"/>
<path class="st14" d="M223.2,113.8c0.7,0.5,1.4,1.2,1.9,1.9c0.6,0.7,0.8,1.7,0.6,2.6c-0.2-1.7,0.8-3.3,2.4-4L223.2,113.8z"/>
<g class="st10">
	<path d="M239.2,38.2c-0.3-0.9-0.7-1.8-1.2-2.6c-0.3,0.1-0.6,0.1-0.8,0.2c0.5,0.8,0.9,1.7,1.3,2.5C238.7,38.3,238.9,38.2,239.2,38.2
		z"/>
	<path d="M255.9,49.6c0.1,0.1,0.2,0.1,0.2,0.2c0,0,0,0,0-0.1C256,49.7,256,49.6,255.9,49.6z"/>
	<path d="M229.1,50.8c0.1-0.1,0.3-0.2,0.4-0.4l0-1.4l-3.1,0c-0.5,0.5-1,1.1-0.7,1.7L229.1,50.8z"/>
	<path d="M262.8,73.9c-0.5,1-1.3,2-2.4,2.4c-0.8,0.3-1.8,0.3-2.6,0.2c-3-0.1-6.1-0.3-9-1.3c-1.3-0.5-2.6-1.1-4-1.4
		c-1.6-0.3-3.4-0.1-5,0l-7.4,0.9c-2.2,0.3-4.6,0.4-6.3-0.9c-1-0.8-1.6-1.9-2.7-2.6c-0.5-0.3-1-0.4-1.3-0.9c-0.2-0.3-0.3-0.7-0.3-1.1
		c0-0.3,0-0.6,0-0.9c0,0.9,0,1.8,0,2.6c0,0.4,0.1,0.7,0.3,1.1c0.3,0.4,0.8,0.6,1.3,0.9c1.1,0.6,1.7,1.8,2.7,2.6
		c1.7,1.3,4.2,1.2,6.3,0.9l7.4-0.9c1.7-0.2,3.4-0.4,5,0c1.4,0.3,2.7,1,4,1.4c2.9,1,6,1.2,9,1.3c0.9,0,1.8,0.1,2.6-0.2
		c1.1-0.4,1.9-1.4,2.4-2.4c1.1-2,1.4-4.2,1.2-6.5C263.9,70.8,263.5,72.4,262.8,73.9z"/>
</g>
<path class="st6" d="M239.1,40.1l4,3.7C243.1,43.8,239.7,42.4,239.1,40.1z"/>
</svg>
