<?xml version="1.0" encoding="utf-8"?>
<!-- Generator: Adobe Illustrator 23.0.3, SVG Export Plug-In . SVG Version: 6.00 Build 0)  -->
<svg version="1.1" id="Layer_1" xmlns="http://www.w3.org/2000/svg" xmlns:xlink="http://www.w3.org/1999/xlink" x="0px" y="0px"
	 viewBox="0 0 425.2 327.2" style="enable-background:new 0 0 425.2 327.2;" xml:space="preserve">
<style type="text/css">
	.st0{opacity:0.1;fill:#EBAF41;enable-background:new    ;}
	.st1{fill:#3A3768;}
	.st2{fill:#D48A9B;}
	.st3{opacity:5.000000e-02;enable-background:new    ;}
	.st4{fill:#EFC6CD;}
	.st5{opacity:0.1;enable-background:new    ;}
	.st6{fill:#FFFFFF;}
	.st7{fill:#D3DAE1;}
	.st8{fill:url(#SVGID_1_);}
	.st9{fill:#585B8A;}
	.st10{opacity:0.2;enable-background:new    ;}
	.st11{fill:#636992;}
	.st12{fill:#FFD6D6;}
	.st13{fill:#DCE6F2;}
	.st14{fill:#565988;}
	.st15{fill:#505484;}
	.st16{fill:#575988;}
	.st17{fill:#D28690;}
	.st18{fill:#575989;}
	.st19{fill:#353045;}
	.st20{fill:#F0F3F7;}
	.st21{fill:#663D5C;}
	.st22{fill:#EBAF41;}
	.st23{opacity:0.3;enable-background:new    ;}
	.st24{opacity:0.15;}
	.st25{fill:#FFD037;}
	.st26{fill:#65617D;}
	.st27{fill:#9D9CB5;}
	.st28{fill:#4B4770;}
	.st29{fill:#D4DFEC;}
</style>
<title>business deal</title>
<path class="st0" d="M419.8,98.9c0,0.3,0,0.6-0.3,0.9c-2.7,11.6-6.6,23-12.8,33.4c-0.3,0.3-0.3,0.6-0.6,0.9
	c-4.2,6.6-9,12.8-14.6,18.2c-3,3-6.6,6-10.4,8.1c-5.7,3-12.2,4.2-18.5,5.1c-6.6,0.9-13.4,1.8-20.3,2.7c-2.4,0.3-4.8,0.6-7.2,0.9
	c-6.6,0.9-13.1,2.1-19.4,3.6c-7.8,1.8-15.5,4.2-22.4,7.5c-0.6,0.3-1.2,0.6-1.8,0.9c-0.6,0.3-1.2,0.6-1.8,0.9
	c-0.6,0.3-1.2,0.6-1.5,0.9c-0.3,0.3-0.6,0.3-0.9,0.6s-0.6,0.3-0.9,0.6c-0.9,0.6-1.5,0.9-2.4,1.5l0,0c-0.6,0.3-0.9,0.6-1.5,0.9
	c-3,1.8-5.7,3.6-8.7,5.4l-1.8,1.2l-2.7,1.8c-0.6,0.3-1.2,0.6-1.8,1.2c-0.3,0.3-0.9,0.6-1.2,0.9c-2.1,1.2-4.2,2.4-6.3,3.9
	c-0.6,0.3-0.9,0.6-1.5,0.9c-4.2,2.4-8.7,4.5-13.4,6l0,0c-2.4,0.9-4.8,1.5-7.2,2.1c-1.5,0.3-2.7,0.6-4.2,0.6
	c-3.9,0.6-7.5,0.6-11.3,0.3c-7.5-0.9-14.3-3.6-21.8-4.8c-15.2-1.8-29.8,4.2-44.2,9.3c-3.6,1.2-7.2,2.4-10.7,3.3
	c-2.4,0.6-4.8,1.5-7.2,2.1c-14.6,3.9-29.5,6.6-44.8,7.8c-6.3,0.6-12.8,0.9-19.1,0.3c-2.4,0-4.8-0.3-7.2-0.9
	c-8.1-1.2-15.5-3.9-21.5-8.7c-5.1-3.9-8.4-9-11-14.3c-2.7-5.4-4.8-11.3-5.7-17.3c0-0.9-0.3-1.5-0.3-2.4c0.3-1.2,0-2.7,0-4.2
	c-0.6-7.5,0.3-15.2,2.7-22.4c2.7-8.1,6.9-15.8,8.7-24.2c0-0.3,0.3-0.6,0.3-0.9c0.3-1.2,0.3-2.4,0.6-3.9c0.9-10.1-2.7-19.7-5.7-29.5
	c0-0.3-0.3-0.6-0.3-0.9c-0.3-1.2-0.6-2.1-0.9-3.3c-2.7-10.4-3.3-21.5-0.9-31.9c0-0.3,0.3-0.6,0.3-0.9c1.5-6.6,4.5-12.5,8.7-17.9
	c4.5-5.7,10.1-10.4,16.4-14.3c3-2.1,6.3-3.9,9.5-5.7c2.4-1.2,4.5-2.4,7.2-3.6c19.4-9,41.8-13.1,63.9-12.2c1.2,0,2.4,0,3.6,0.3
	c0.9,0,2.4,0,3.6,0.3c14.3,1.5,28.1,4.8,41.8,8.4c4.5,1.2,9.3,2.4,13.7,3.6c2.1,0.6,4.2,1.2,6.3,1.5c10.1,2.7,20.3,4.8,30.4,6.6
	c2.1,0.6,4.5,0.9,6.9,1.5c8.4,1.2,16.7,1.8,25.1,2.1c3.3,0,6.6,0,9.8,0c1.8,0,3.3,0,5.1-0.3c17-1.2,33.4-5.1,49.8-9
	c2.4-0.6,4.8-1.2,7.2-1.5c3-0.6,6.3-1.5,9.5-2.1c19.7-3.9,37-1.5,55.2,6.3c4.2,1.8,8.4,3.9,10.7,7.5s3.3,7.5,3.6,11.6
	c0.6,5.7,1.2,11.6,1.2,17.3c0,0.3,0,0.6,0,0.9C423.1,75.6,422.2,87.6,419.8,98.9z"/>
<path class="st0" d="M290,133.2h-1.2v0.6v0.6h1.5L290,133.2z M275.7,133.2L275.7,133.2c0,0.3,0,0.6,0,0.9l0,0l0,0h11l0,0l0.9-0.9
	H275.7z M245.8,133.2V99.8h12.8l-0.3-0.3h-0.3h-0.3l-0.3-0.3c0,0-0.3,0-0.3-0.3l0,0l0,0h-11v-1.8h-0.3h-0.3l0,0l0,0h-0.3H245
	c-0.3,0-0.3,0.3-0.6,0.3h-0.3l-0.3,0.3c-0.6,0.3-0.9,0.6-1.5,0.9l-0.3,0.3c-0.3,0.3-0.6,0.3-0.9,0.6c0,0-0.3,0-0.3,0.3h-0.3h-0.3
	l0,0c-0.6,0.3-0.9,0.3-1.5,0.3v32.5h-19.1l0,0c0,0.3,0.3,0.6,0.3,0.9h18.8v35.8h0.3h0.3h0.6h0.9h0.3h0.6l0,0h0.9h0.3h0.3h0.6l0,0
	h1.5l0,0h0.3h0.3v-34.9h29.5l0,0l0,0c0-0.3,0-0.6,0-0.9l0,0L245.8,133.2z M290,133.2h-1.2v0.6v0.6h1.5L290,133.2z M274.8,133.2
	c0,0.3,0,0.6,0,0.9H287l0.9-0.9H274.8z M245.8,133.2V99.8h12.8l-0.3-0.3h-0.3h-0.3l-0.3-0.3c0,0-0.3,0-0.3-0.3l0,0l0,0h-11v-1.8
	h-0.3h-0.3l0,0l0,0h-0.3H245c-0.3,0-0.3,0.3-0.6,0.3h-0.3l-0.3,0.3c-0.6,0.3-0.9,0.6-1.5,0.9l-0.3,0.3c-0.3,0.3-0.6,0.3-0.9,0.6
	c0,0-0.3,0-0.3,0.3h-0.3h-0.3l0,0c-0.6,0.3-0.9,0.3-1.5,0.3v32.5h-19.1l0,0c0,0.3,0.3,0.6,0.3,0.9h18.8v35.8h0.3h0.3h0.6h0.9h0.3
	h0.6l0,0h0.9h0.3h0.3h0.6l0,0h1.5l0,0h0.3h0.3v-34.9h28.9c0-0.3,0-0.6,0-0.9h-28.9V133.2z M342.5,63.7h80.3c0-0.3,0-0.6,0-0.9h-80.3
	V22.2c-2.4,0.6-4.8,1.2-7.2,1.5v38.8h-87.4l-0.3-0.3l0.3-0.3l0,0l32.5-29.2c-3.3,0-6.6,0.3-9.8,0l-25.1,22.4V31.2
	c-2.1-0.6-4.5-0.9-6.9-1.2v24.5l-36.4-32.8c-4.5-1.2-9.3-2.4-13.7-3.6l49.5,44.8l-0.3,0.3h-91V9.7c-1.2-0.3-2.4-0.3-3.9-0.3
	c-1.2,0-2.4,0-3.6-0.3v53.7H75.8V21.3c-2.4,1.2-4.8,2.4-7.2,3.6v37.9H33.7c0,0.3-0.3,0.6-0.3,0.9h34.9v35.2H35.5
	c0,0.3,0.3,0.6,0.3,0.9h32.8v33.4H40.8c0,0.3,0,0.6-0.3,0.9h28.1v93.4c2.4,0.3,4.8,0.6,7.2,0.9v-94h63.9v85.9
	c2.4-0.6,4.8-1.2,7.2-2.1v-83.9h91.9v74.9c2.4-0.6,4.8-1.2,7.2-2.1l0,0v-72.8h89.5v35.2c2.4-0.3,4.8-0.6,7.2-0.9v-34.3h63.6
	c0.3-0.3,0.3-0.6,0.6-0.9h-64.2V99.8h77.3c0-0.3,0.3-0.6,0.3-0.9h-77.6V63.7z M75.8,63.7h63.9v35.2H75.8V63.7z M75.8,133.2V99.8
	h63.9v33.4H75.8z M146.8,63.7h91.9v35.2h-91.9V63.7z M146.8,133.2V99.8h91.9v33.4H146.8z M335.4,133.2h-89.5V99.8h89.5V133.2z
	 M335.4,98.9h-89.5V64.6l1.2-0.9h88.3V98.9z M275.7,133.2L275.7,133.2c0,0.3,0,0.6,0,0.9l0,0l0,0h11l0,0l0.9-0.9H275.7z M290,133.2
	h-1.2v0.6v0.6h1.5L290,133.2z M245.8,133.2V99.8h12.8l-0.3-0.3h-0.3h-0.3l-0.3-0.3c0,0-0.3,0-0.3-0.3l0,0l0,0h-11v-1.8h-0.3h-0.3
	l0,0l0,0h-0.3H245c-0.3,0-0.3,0.3-0.6,0.3h-0.3l-0.3,0.3c-0.6,0.3-0.9,0.6-1.5,0.9l-0.3,0.3c-0.3,0.3-0.6,0.3-0.9,0.6
	c0,0-0.3,0-0.3,0.3h-0.3h-0.3l0,0c-0.6,0.3-0.9,0.3-1.5,0.3v32.5h-19.1l0,0c0,0.3,0.3,0.6,0.3,0.9h18.8v35.8h0.3h0.3h0.6h0.9h0.3
	h0.6l0,0h0.9h0.3h0.3h0.6l0,0h1.5l0,0h0.3h0.3v-34.9h29.5l0,0l0,0c0-0.3,0-0.6,0-0.9l0,0L245.8,133.2z"/>
<path class="st0" d="M106.5,39.5h0.3c-0.3-0.3-0.6-0.6-0.6-0.9l0,0c0-0.6,1.2-1.2,2.4-1.2h16.7c1.2,0,2.4,0.6,2.4,1.2l0,0
	c0,0.6-1.2,1.2-2.4,1.2h-0.6c0.3,0.3,0.6,0.6,0.6,0.9c0,0.6-0.9,1.2-1.8,1.2h4.8c1.2,0,2.4,0.6,2.4,1.2s-1.2,1.2-2.4,1.2h-16.7
	c-1.2,0-2.4-0.6-2.4-1.2s0.9-1.2,1.8-1.2h-4.8c-1.2,0-2.4-0.6-2.4-1.2S105,39.5,106.5,39.5z"/>
<path class="st0" d="M285.8,52.1h0.6c-0.3-0.3-0.6-0.6-0.6-0.9l0,0c0-0.6,1.2-1.2,2.4-1.2h16.7c1.2,0,2.4,0.6,2.4,1.2l0,0
	c0,0.6-1.2,1.2-2.4,1.2h-0.6c0.3,0.3,0.6,0.6,0.6,0.9c0,0.6-0.9,1.2-1.8,1.2h4.8c1.2,0,2.4,0.6,2.4,1.2s-1.2,1.2-2.4,1.2h-16.7
	c-1.2,0-2.4-0.6-2.4-1.2c0-0.6,0.9-1.2,1.8-1.2h-4.8c-1.2,0-2.4-0.6-2.4-1.2S284.6,52.1,285.8,52.1z"/>
<path class="st0" d="M80.8,104.6h0.6c-0.3-0.3-0.6-0.6-0.6-0.9l0,0c0-0.6,1.2-1.2,2.4-1.2h16.7c1.2,0,2.4,0.6,2.4,1.2l0,0
	c0,0.6-1.2,1.2-2.4,1.2h-0.6c0.3,0.3,0.6,0.6,0.6,0.9c0,0.6-0.9,1.2-1.8,1.2h4.8c1.2,0,2.4,0.6,2.4,1.2s-1.2,1.2-2.4,1.2H86.5
	c-1.2,0-2.4-0.6-2.4-1.2s0.9-1.2,1.8-1.2h-4.8c-1.2,0-2.4-0.6-2.4-1.2C78.7,105.2,79.6,104.6,80.8,104.6z"/>
<ellipse transform="matrix(0.2002 -0.9798 0.9798 0.2002 27.8929 486.126)" class="st0" cx="311.7" cy="226" rx="25.1" ry="83"/>
<path class="st1" d="M302.3,155.3c0,0,4.5-21.5,21.2-19.7c0,0,11.6,0.9,14,8.4v16.7L302.3,155.3z"/>
<polygon class="st2" points="394.5,163.4 244.7,151.1 225.6,155 226.8,181.9 227.9,181.9 229.4,222.2 376.6,248.7 392.1,235.6 
	392.1,191.7 394.2,190.5 "/>
<polygon class="st3" points="394.8,163.4 394.2,190.5 378,198.3 377.7,169.9 "/>
<polygon class="st3" points="392.1,191.7 392.4,234.7 376.6,247.8 377.7,198.3 "/>
<polygon class="st3" points="228.2,183.7 377.7,201.9 377.7,198.3 227.9,182.2 "/>
<polygon class="st3" points="392.1,193.5 392.1,191.7 377.2,198.3 377.2,201.9 "/>
<polygon class="st4" points="225.3,155 244.4,151.1 394.2,163.4 377.5,169.9 "/>
<polygon class="st5" points="378.3,164.3 385.5,164.6 373.6,168.5 367.3,167.9 "/>
<polygon class="st6" points="378.3,164 385.5,164.3 373.6,168.2 367.3,167.6 "/>
<path class="st7" d="M377.5,164.6c0.3,0,0.6,0,0.9,0.3c0.3,0,0.3,0,0.6,0s0.6,0.3,1.2,0.3"/>
<path class="st7" d="M377.2,164.9c0.3,0,0.6,0,0.9,0.3c0.3,0,0.3,0,0.6,0c0.3,0,0.6,0.3,1.2,0.3"/>
<path class="st7" d="M376.3,165.5c0.3,0,0.6,0,0.9,0.3c0.3,0,0.3,0,0.6,0c0.3,0,0.6,0.3,1.2,0.3"/>
<polygon class="st5" points="346.4,160.7 353.9,161 341.6,164.6 335.4,164.3 "/>
<polygon class="st6" points="346.4,160.4 353.9,160.7 341.6,164.3 335.4,164 "/>
<path class="st7" d="M345.5,161c0.3,0,0.6,0,0.9,0.3c0.3,0,0.3,0,0.6,0s0.6,0.3,1.2,0.3"/>
<path class="st7" d="M345.2,161.3c0.3,0,0.6,0,0.9,0.3c0.3,0,0.3,0,0.6,0c0.3,0,0.6,0.3,1.2,0.3"/>
<path class="st7" d="M344.3,161.9c0.3,0,0.6,0,0.9,0.3c0.3,0,0.3,0,0.6,0s0.6,0.3,1.2,0.3"/>
<polygon class="st5" points="361.6,162.5 369.1,162.8 356.9,166.7 350.6,166.1 "/>
<polygon class="st6" points="361.6,162.2 369.1,162.5 356.9,166.1 350.6,165.8 "/>
<path class="st7" d="M361,162.8c0.3,0,0.6,0,0.9,0.3c0.3,0,0.3,0,0.6,0c0.3,0,0.6,0.3,1.2,0.3"/>
<path class="st7" d="M360.4,163.1c0.3,0,0.6,0,0.9,0.3c0.3,0,0.3,0,0.6,0s0.6,0.3,1.2,0.3"/>
<path class="st7" d="M359.5,163.7c0.3,0,0.6,0,0.9,0.3c0.3,0,0.3,0,0.6,0c0.3,0,0.6,0.3,1.2,0.3"/>
<ellipse class="st0" cx="195.4" cy="296.8" rx="78.5" ry="16.1"/>
<linearGradient id="SVGID_1_" gradientUnits="userSpaceOnUse" x1="260.5491" y1="6622.6821" x2="260.5491" y2="6395.8716" gradientTransform="matrix(1 0 0 1 -54.11 -6315.8052)">
	<stop  offset="0" style="stop-color:#808080;stop-opacity:0.25"/>
	<stop  offset="0.54" style="stop-color:#808080;stop-opacity:0.12"/>
	<stop  offset="1" style="stop-color:#808080;stop-opacity:0.1"/>
</linearGradient>
<path class="st8" d="M281.4,164.6c-0.9-7.5-4.2-14.3-4.2-14.3l0.3-2.4c0,0,0-1.2,0-3c0-1.2,0.3-2.4,0.6-3.6c0.6-2.1-0.9-4.8-0.9-5.1
	c-0.3-0.3,0-5.1-1.5-7.2c-1.5-2.4-11.6-6.6-11.6-6.6s-0.6-1.2-1.2-2.4l0,0c-0.6-1.2-1.5-2.1-2.4-3.3c-0.6-0.6-1.2-1.2-1.8-0.9
	c-0.3-0.6-0.3-1.2-0.6-2.1h0.3c0.3,0,0.9,0,1.2,0c0.9-0.3,1.5-1.2,2.1-1.8c2.7-3.9,4.8-8.4,5.4-13.1c0-0.9,0-2.1,0-3
	c-0.3-0.6-0.6-1.5-0.9-2.1c-0.6-1.5-1.5-2.7-2.7-3.9c-1.8-1.8-4.2-3-6.9-3.9c-3-0.9-6-0.9-9-0.6c-0.9,0-1.5,0.3-2.4,0.3s-2.1,0-3,0
	l-5.1-0.3l0,0h-0.9c-0.3,0.6,0,1.5,0.3,2.1c0.3,0.6,0.9,1.2,0.9,2.1c0,0.9-0.6,1.2-0.9,1.8c-0.3,0.6-0.6,1.5-0.3,2.1
	c0,0,0,0.3,0.3,0.3c0.3,0.6,1.2,0.6,1.8,0.6l0,0c-1.8,2.1-2.7,4.8-2.7,7.8c0,4.8,2.7,9.3,6.9,11.3c0,0.3,0,0.6,0.3,0.9
	c0.9,2.7,0.9,5.7,0.9,8.4v0.3v-0.3c0,0-6,4.2-7.8,5.1c-1.8,1.2-3.6,4.8-3.6,5.7c0,0.9-3,15.8-3,15.8c-0.6,1.5-0.9,3-1.5,4.5
	l-3.6,3.3c0,0-7.5,0.6-9.5,0.3v0.3c-1.8-0.3-3.9-0.6-5.7-0.9c-1.2,0-2.1,0-3,0.3l0,0l0,0c-1.2,0.3-2.1,0.6-3.3,0.9
	c0,0-0.3,0-0.3,0.3v-0.6l-8.1-0.3l-4.2-0.9c0,0-1.5-1.2-2.4-0.9c-0.9,0.3-2.7-0.9-2.7-0.9c-0.3-0.3-0.9-0.6-1.2-0.9
	c0-0.9-0.3-1.5-0.3-1.5s-3.3-12.5-5.7-20c-1.5-5.1-3.9-7.5-5.1-8.4c-0.3-1.2-0.6-1.8-0.6-1.8c-0.3-0.9-1.8-3-2.1-3l0,0h-0.3
	c-0.6-3.3-1.2-7.5,0-11c2.7-2.4,4.5-5.7,4.5-9.5c0,0,0,0,0-0.3s0,0,0-0.3c0-3-0.9-5.7-3-7.8l0,0l0,0c0.6-0.6,0.9-1.2,0.6-2.1
	c-0.3-0.6-0.9-1.2-1.2-2.1c-0.3-0.6-0.3-1.2-0.3-1.8c-0.3-0.9-0.6-1.5-1.2-2.1v0.3c-1.5-1.8-4.2-2.7-6.6-2.1
	c-1.8,0.3-3.3,1.2-5.1,1.5c-1.2,0.3-2.7,0-3.9,0.3c-1.2,0-2.4,0.6-3.3,0.9c-0.3,0-0.6,0.3-0.6,0.6c-0.3,0.3-0.3,0.6-0.3,0.9
	c-0.3,1.5-1.8,2.7-2.7,3.9c-1.2,1.5-1.8,3.3-1.8,5.1c0,0.6,0,0.9,0,1.5c0,0.3,0.3,0.6,0.3,0.9c0.3,0.9-0.3,1.8-0.6,2.7
	c-0.3,1.2-0.3,2.1,0.3,3.3c1.5,3.3,6.6,4.5,7.5,8.1c0.9,0.3,1.8,0.6,2.4,0.9c0,0.3,0,0.6,0.3,1.2l0,0c-1.5,1.2-1.8,3.9-1.8,3.9h-0.3
	c-0.6,0.6-2.4,2.1-4.2,3.3c-2.1,1.5-5.4,6-7.8,7.5c-2.4,1.5-4.2,10.1-3.9,13.1c0.6,3.3,2.7,11.9,1.8,15.2s1.2,17.9,1.2,17.9
	c1.5,0.3,2.7,0.6,4.2,1.2v0.6v1.8c0,0-3.9,14-2.4,24.5c1.5,10.7-0.6,11.9-0.6,11.9s0.6,4.8-0.6,6.3c-1.2,1.5-1.2,5.1-1.2,5.1
	s0,8.1,0,10.4c0.3,2.4,0.3,6.6-0.6,7.5c-0.9,0.9-2.4,7.5-2.1,9.5c0,2.1-2.7,6.6-1.2,12.2c1.5,6-4.8,6-4.8,6s0.9,9,2.4,11.3l0.3,0.3
	c0,0,0,0.3,0,0.6c-0.6,2.4-1.5,6-0.9,6.9c0.9,1.2,1.5,1.2,1.5,1.2l0.3,6c0,0,6.9,5.7,11.9,5.4s4.2-5.4,4.2-5.4l-4.5-11.3l-0.3-0.3
	l5.4-9.5c0,0,1.5-4.2,1.8-5.4c0.3-1.5,2.1-6.6,2.1-6.6s4.8-11,4.8-12.2s0.6-8.4,1.5-9.8c0.9-1.5,3.3-9.5,3.3-9.5l0,0
	c0.9,0.9,1.2,2.1,0.9,3.3c-0.6,2.1-0.3,6.3-0.3,6.3s-0.3,3.6-0.6,5.4c-0.6,1.8-0.6,17.3,0.3,20.9c0.6,3,0.6,8.4,0.6,10.4
	c-0.6,2.1-0.9,4.8,0,5.4c1.5,0.6,9,0.3,9,0.3s3.3-1.2,7.5,2.7c4.2,3.9,17.6-1.2,17.6-1.2s4.2-1.2-3.9-4.2c-5.7-2.1-9.3-3.6-11.6-5.4
	c0,0,0-0.3,0.3-0.3c0,0-3.3-3-0.6-8.7c2.7-5.4,2.7-10.1,2.7-10.1l0.6-18.5l-1.5-24.5l-1.2-25.7h0.3c0.3,4.8,1.2,16.1,6,13.7
	c6-2.7,0.9-9.8,0.9-9.8l-2.7-5.4l0.9-0.3l-3-9.8c-0.3-1.8-0.3-3.9,0-6c0-1.2,0-2.4,0-3.3c3.9-0.6,7.8-1.5,8.7-1.2
	c0.9,0.3,5.4,0.3,7.2,0.3c-0.6,0.6-1.2,0.9-1.2,0.9l7.2,4.8c0,0,2.4-1.5,3-2.7c0.6,0,0.9-0.3,1.5-0.6c0,1.8,0.6,3.6,2.1,3.6
	c0.3,0,0.9,0,1.2-0.3l11.9-2.4l-0.9,6.3l0.6,1.2c-0.3,5.4-0.9,11-1.2,16.1l-0.3,1.2l0,0c-0.6,7.8-0.9,13.7-0.9,13.7
	c0.6-1.2,1.8-2.4,3-3v11.6c0,0,0.6,18.2,0.6,20.6c0,2.4,0,8.1,0,8.1s1.2,6.9,2.1,9c0.9,2.1,1.5,12.5,1.5,12.5s1.8,2.7,0.9,3.9
	c-0.9,1.2,3,3.3,3,3.3s-2.4,3.3-2.7,5.4c0,0.3,0.3,0.6,0.6,0.9l-0.3,0.3c-1.2,0.6-2.7,1.2-5.1,0.9c-6.6-0.6-11.3,5.7-7.2,6.9
	c4.2,1.2,16.4,1.5,16.4,1.5s3.6-2.4,6.6-1.2c0,2.4,0,4.8,0,5.1l0,0c-1.8,1.5-5.1,4.2-8.4,5.4c-4.8,1.5-5.7,8.1,0.3,8.7
	c6,0.9,14.9-0.9,14.9-0.9s4.5-3.3,8.1-4.2c3.6-0.6,6.6-2.4,6-4.5c-0.3-1.2-1.5-4.5-2.1-6.9v-0.3c0-0.3,0.3-0.6,0.3-0.6
	s-1.8-9.3-0.3-11.6c1.5-2.4,0.6-25.4,0.6-25.4s-2.4-6-1.2-9.5s-2.1-8.7-2.1-8.7s0.3-10.1,1.2-15.8c0-0.3,0-0.6,0-0.6
	c1.5-0.6,3.3-1.2,4.8-1.8c0,0,0.9-12.8,1.5-15.5c0-0.3,0-0.6,0.3-1.2l0.3-2.1l0,0l0.6-2.4l0,0l1.5-8.1l2.7-3.6l7.2-7.5
	C280.5,175.9,282.3,171.7,281.4,164.6z M170.1,119.2L170.1,119.2C170.1,119.2,170.1,118.9,170.1,119.2
	C170.1,118.9,170.1,118.9,170.1,119.2z M241.4,128.2l-0.3,0.6l0.9-0.9l-1.5,1.5L241.4,128.2L241.4,128.2z M234.5,142.2
	c-0.3,0.6-0.6,1.5-0.9,2.4l0.6-1.5L234.5,142.2z"/>
<path class="st9" d="M212.1,165.5c0,0-0.9,6.3,1.8,6.3c2.7,0,4.8-4.8,4.8-4.8l-1.2-3.9L212.1,165.5z"/>
<path class="st10" d="M212.1,165.5c0,0-0.9,6.3,1.8,6.3c2.7,0,4.8-4.8,4.8-4.8l-1.2-3.9L212.1,165.5z"/>
<path class="st11" d="M148.6,302.1c-5.1,0.3-11.6-5.4-11.6-5.4l-0.3-6c0,0-0.3,0.3-1.2-1.2c-0.6-0.9,0.3-4.5,0.9-6.9
	c0-1.2,0.3-1.8,0.3-1.8l11,3l0.6,1.5l4.2,11.3C152.4,296.8,153.6,302.1,148.6,302.1z"/>
<path class="st11" d="M199.6,285.4c0,0-12.8,5.1-17,1.2c-4.2-3.9-7.2-2.7-7.2-2.7s-7.2,0-8.7-0.3c-0.9-0.3-0.3-3,0-5.4
	c0.3-1.5,0.6-2.7,0.6-2.7s12.5-4.2,14.6-1.8c0.6,0.9,1.2,1.5,2.1,2.1c2.4,1.8,6,3.3,11.6,5.4C203.5,284.2,199.6,285.4,199.6,285.4z"
	/>
<path class="st12" d="M188,184.9l3.6,7.2c0,0,5.1,7.2-0.9,9.8c-6,2.7-6-15.8-6-15.8L188,184.9z"/>
<path class="st13" d="M173.3,123.7c0,0,3.9,1.8,6.3,9.3c2.4,7.5,5.4,20,5.4,20s2.1,14.3,1.8,17.6c-0.3,2.1-0.3,3.9,0,6l3,9.8l-6,2.1
	l-9.3-34.9L173.3,123.7z"/>
<path class="st3" d="M173.3,123.7c0,0,3.9,1.8,6.3,9.3c2.4,7.5,5.4,20,5.4,20s2.1,14.3,1.8,17.6c-0.3,2.1-0.3,3.9,0,6l3,9.8l-6,2.1
	l-9.3-34.9L173.3,123.7z"/>
<path class="st5" d="M147.7,283.9l0.6,1.5l-0.6,1.2c-2.4,1.2-9,0.3-9,0.3s-1.2-1.5-2.7-3.9c0.3-1.2,0.6-2.1,0.6-2.1L147.7,283.9z"/>
<path class="st5" d="M184.7,276.2c-3.3,7.2-14,4.5-17.3,3.6c-0.6-0.3-0.9-0.3-0.9-0.3s0-0.6,0-1.5c0.3-1.5,0.6-2.7,0.6-2.7
	s12.5-4.2,14.6-1.8c0.6,0.9,1.2,1.5,2.1,2.1C184.4,275.9,184.4,275.9,184.7,276.2z"/>
<path class="st14" d="M184.1,266.9c-2.7,5.4,0.6,8.7,0.6,8.7c-3.3,7.2-14,4.5-17.3,3.6c-0.6,0-0.9-0.3-0.9-0.3s0.3-7.5-0.6-11.3
	c-0.9-3.6-0.6-18.8-0.3-20.9c0.3-1.8,0.6-5.4,0.6-5.4s-0.3-4.2,0.3-6.3c0.3-1.2,0-2.4-0.9-3.3l0,0c0,0-2.4,8.4-3.3,9.5
	c-0.9,1.2-1.2,8.7-1.2,9.8c0,1.2-4.8,12.2-4.8,12.2s-1.8,5.1-2.1,6.6c-0.3,1.5-1.8,5.4-1.8,5.4l-5.4,10.1c-2.4,1.2-9,0.3-9,0.3
	s-1.2-1.5-3-4.2c-1.8-2.4-2.4-11.3-2.4-11.3s6,0,4.5-6c-1.5-6,1.2-10.4,1.2-12.2s1.2-8.4,2.1-9.5c0.9-0.9,0.6-5.1,0.3-7.5
	c-0.3-2.4,0-10.4,0-10.4s0.3-3.6,1.2-5.4c1.2-1.8,0.6-6.3,0.6-6.3s2.1-1.2,0.6-11.6c-1.5-10.4,2.4-24.5,2.4-24.5V175l0.3-3.3
	c0,0,31.6-2.1,34,0.3c0.6,0.6,1.2,1.5,1.5,2.4c0.9,1.8,1.5,3.9,1.8,6l1.2,33.4l1.2,24.5l-0.3,18.5
	C186.5,256.8,186.8,261.3,184.1,266.9z"/>
<path class="st5" d="M174.8,201l-3.3,71.6l-3.9,6.6c-0.6,0-0.9-0.3-0.9-0.3s0.3-7.5-0.6-11.3c-0.9-3.6-0.6-18.8-0.3-20.9
	c0.3-1.8,0.6-5.4,0.6-5.4s-0.3-4.2,0.3-6.3c0.3-1.2,0-2.4-0.9-3.3v-0.3L174.8,201z"/>
<path class="st5" d="M139,278c0,0,8.7-3.3,9.8-2.4c1.2,1.2-10.1,2.7-10.1,2.7L139,278z"/>
<path class="st5" d="M181.4,269c-0.3,0-8.7,3-8.1,6.3C174.2,278.3,181.4,269,181.4,269z"/>
<path class="st12" d="M155.4,106.1c0,0,2.7,6.9,1.2,10.1c-1.5,3.6,16.1,9.5,16.1,9.5s-5.1-13.4-0.3-20.9
	C177.5,97.4,155.4,106.1,155.4,106.1z"/>
<path class="st15" d="M257.8,302.1c-3.3,0.6-7.8,4.2-7.8,4.2s-8.7,1.8-14.3,0.9c-6-0.9-4.8-7.2-0.3-8.7c3.3-1.2,6.3-3.9,8.1-5.4
	c0.6-0.6,1.2-1.2,1.2-1.2l16.4-3.3c0,0,0.3,0.9,0.6,2.1c0.6,2.1,1.5,5.7,2.1,6.9C264.1,299.8,261.1,301.2,257.8,302.1z"/>
<path class="st15" d="M253.6,289.3c0,0-6.9,0.6-9.8-0.9c-3-1.8-7.2,0.9-7.2,0.9s-11.9-0.3-15.8-1.5s0.6-7.5,7.2-6.9
	c2.4,0.3,3.9-0.3,5.1-0.9c1.2-0.9,1.8-1.8,2.1-3.3l14,0.9l1.8,5.1L253.6,289.3z"/>
<path class="st5" d="M251.2,284.8c0,0-16.1-2.7-18.2-4.8c1.2-0.9,1.8-1.8,2.1-3.3l14,0.9l1.8,5.1L251.2,284.8z"/>
<path class="st16" d="M227,192l0.3,24.2c0,0,0.6,18.2,0.6,20.6s0,8.1,0,8.1s1.2,6.9,2.1,9c0.6,2.1,1.2,12.5,1.2,12.5
	s1.8,2.7,0.9,3.9c-0.6,1.2,3,3.3,3,3.3s-2.4,3.3-2.4,5.4c0,2.1,18.5,5.1,18.5,5.1l-7.2-74.6l-6-18.2L227,192z"/>
<path class="st5" d="M227,192l0.3,24.2c0,0,0.6,18.2,0.6,20.6s0,8.1,0,8.1s1.2,6.9,2.1,9c0.6,2.1,1.2,12.5,1.2,12.5s1.8,2.7,0.9,3.9
	c-0.6,1.2,3,3.3,3,3.3s-2.4,3.3-2.4,5.4c0,2.1,18.5,5.1,18.5,5.1l-7.2-74.6l-6-18.2L227,192z"/>
<path class="st5" d="M261.7,290.8c-5.4,12.8-18.2,3-18.2,3s0-0.3,0-0.6c0.6-0.6,1.2-1.2,1.2-1.2l16.4-3.3
	C260.8,288.7,261.1,289.6,261.7,290.8z"/>
<path class="st16" d="M261.7,289.6c-5.4,13.4-18.5,3.3-18.5,3.3s-0.3-7.2,0.3-10.1c0.9-3.3-0.9-12.8-0.9-12.8s-0.9-8.7-1.8-10.4
	c-0.9-2.1-0.9-6-0.9-6.3s0.3-3-0.3-4.8s-1.2-6.3-1.2-6.3s0-6.3-0.6-9.8l-2.7-13.1l-4.8-26.3l1.5-0.3l26-4.5c0,0,4.8,24.8,3.3,27.5
	c-0.3,0.6-0.6,1.8-0.9,3.3c-0.9,5.7-1.2,15.8-1.2,15.8s3.3,5.1,2.1,8.7c-1.2,3.6,1.2,9.5,1.2,9.5s0.6,23-0.6,25.4
	C259.9,280.4,261.7,289.6,261.7,289.6z"/>
<path class="st17" d="M259.3,120.7c0,0-23.6,16.4-18.2,8.4c3-4.5,2.4-10.1,1.2-14.3c-0.6-2.1-1.2-4.2-2.4-6.3c0,0,20-8.4,17.3-0.9
	c-0.6,1.8-0.9,3.6-0.9,5.4C256.6,115.6,257.5,118.3,259.3,120.7z"/>
<path class="st17" d="M216.9,158.6c0,0-9.8-3-11.6,0s0.6,9,3.6,9.8c3,0.9,9.8-3.3,9.8-3.3L216.9,158.6z"/>
<path class="st9" d="M228.2,153.5l-4.2,3.9c0,0-7.2,0.6-9.3,0.3c0,0,1.8,12.8-0.9,14.3l16.7-3.3L228.2,153.5z"/>
<path class="st5" d="M228.2,153.5l-4.2,3.9c0,0-7.2,0.6-9.3,0.3c0,0,1.8,12.8-0.9,14.3l16.7-3.3L228.2,153.5z"/>
<path class="st5" d="M175.4,98.9c0,6.9-5.7,12.5-12.5,12.5c-6.3-3-12.5-5.7-12.5-12.5c-0.3-6.9,5.1-12.5,11.9-12.8
	c6.9-0.3,12.5,5.1,12.8,11.9C175.4,98.3,175.4,98.6,175.4,98.9L175.4,98.9z"/>
<path class="st12" d="M175.4,98.6c0,6.9-5.7,12.2-12.2,12.2c-6.9,0-12.2-5.7-12.2-12.2c0-6.9,5.7-12.2,12.2-12.2
	c3.6,0,7.2,1.8,9.5,4.5C174.2,93,175.4,95.9,175.4,98.6z"/>
<path class="st5" d="M182.6,174.4c-1.2,0.9-2.4,1.5-3.9,2.1c0,0-6.3-0.9-7.2,0.3c-0.9,1.2-9,1.5-9,1.5s-12.2-0.6-14-2.1
	c-0.6-0.6-1.2-0.9-1.8-1.2l0.3-3.3c0,0,31.6-2.1,34,0.3C181.7,172.9,182.3,173.5,182.6,174.4z"/>
<path class="st13" d="M184.1,172.3c-0.3,1.5-5.4,3.6-5.4,3.6s-6.3-0.9-7.2,0.3c-0.9,1.2-9,1.5-9,1.5s-12.2-0.6-14-2.1
	c-1.8-1.5-6-2.4-6-2.4s-2.1-14.6-1.2-17.9c0.9-3.3-1.2-11.9-1.8-15.2c-0.6-3.3,1.5-11.9,3.6-13.1c2.4-1.5,5.7-6,7.5-7.5
	c1.8-1.2,3.6-2.7,4.2-3.3h0.3c0,0,0.3-2.7,1.8-3.9c1.2-1.2,13.4,8.4,13.4,8.4s0,0.6,0.9-0.6c0.3-0.3,1.8,2.1,2.1,3
	c0,0,6.6,11.6,7.2,14s2.1,10.1,2.4,11.9c0,0.6,0.3,2.1,0.3,4.5c0,0.6,0,0.9,0,1.5c0.3,3.9,0.6,8.7,0.6,12.2c0,0.3,0,0.9,0,1.2
	C184.1,169.6,184.1,170.8,184.1,172.3z"/>
<path class="st5" d="M142,142.5c0,0,4.5,5.7,6,5.7C149.8,148.2,142,142.5,142,142.5z"/>
<path class="st5" d="M151.8,154.4c0,0-7.5,8.1-6.6,9.5C146.2,165.5,151.8,154.4,151.8,154.4z"/>
<path class="st5" d="M146.2,170.5c0,0,8.7-9.3,9-12.5L146.2,170.5z"/>
<path class="st5" d="M156.9,171.1c0,0,9.8-5.1,10.7-9.3C168.6,157.7,156.9,171.1,156.9,171.1z"/>
<path class="st5" d="M169.5,121l-1.5,3.3l2.4,1.2l2.1,6.3c0,0,6.3,12.2,6,18.8c-0.3,6.3,1.2,16.1,1.2,16.1l3.6-0.6l-1.8-19.4
	c-0.3-3-0.9-5.7-2.1-8.4c-3-6.6-8.1-18.5-8.4-18.5c-0.6,0,0,0.3,0,0.3L169.5,121z"/>
<path class="st18" d="M169.8,120.7l-1.5,3.3l2.4,1.2l2.1,6.3c0,0,6.3,12.2,6,18.8c-0.3,6.3,1.2,16.1,1.2,16.1l3.6-0.6l-1.8-18.8
	c-0.3-3-0.9-5.7-2.1-8.4c-3-6.6-8.1-18.5-8.4-18.5c-0.6,0,0,0.3,0,0.3L169.8,120.7z"/>
<path class="st12" d="M210,169c-1.8,0-6-2.1-7.5-3l-0.6-0.3v-6.3c0.3-0.3,0.9-0.6,1.2-0.6c2.1-0.9,6.6-2.4,9,1.8
	C215.1,166.1,212.1,169.3,210,169z"/>
<path class="st5" d="M172.4,90.9c-0.3,0-0.3,0.3-0.6,0.3c-1.5,0.3-3-0.9-4.2,0c-0.9,0.6-0.9,1.5-0.9,2.4c-0.3,1.5-0.3,3-0.6,4.5
	c0,0.6-0.3,1.2-0.3,1.5c-0.6,1.5-2.4,2.1-3.9,2.1c-0.6,0-1.2-0.3-1.5-0.6c-0.3-0.3-0.3-0.6-0.6-0.9c-1.8-1.5-2.4,2.4-2.1,3.6
	c0.9,1.8,3.9,3.6,2.4,6c-0.3,0.3-0.6,0.6-0.9,0.9c-6.6-2.1-10.1-9-8.1-15.5c2.1-6.6,9-10.1,15.5-8.1
	C168.9,87.6,170.9,89.1,172.4,90.9z"/>
<path class="st19" d="M159.3,100.1c0.3,0.3,0.3,0.6,0.6,0.9c0.6,0.3,0.9,0.6,1.5,0.6c1.5,0,3.3-0.6,3.9-2.1c0.3-0.6,0.3-1.2,0.3-1.5
	l0.6-4.5c0-0.9,0.3-1.8,0.9-2.4c1.2-0.9,3,0.3,4.2,0s1.8-1.2,1.5-2.4c-0.3-0.6-0.6-1.2-0.9-2.1c-0.3-0.6-0.3-1.2-0.3-1.8
	c-0.9-3-4.5-4.8-7.5-4.2c-1.8,0.3-3.3,1.2-5.1,1.5c-1.2,0.3-2.4,0-3.6,0.3c-1.2,0-2.4,0.6-3.3,0.9c-0.3,0-0.6,0.3-0.6,0.6
	c-0.3,0.3-0.3,0.6-0.3,0.9c-0.3,1.5-1.8,2.7-2.7,3.9c-1.2,1.5-1.8,3.3-1.8,5.1c0,0.6,0,0.9,0,1.5c0,0.3,0.3,0.6,0.3,0.9
	c0.3,0.9-0.3,1.8-0.6,2.7c-0.3,1.2-0.3,2.1,0.3,3.3c1.5,3.3,6.3,4.5,7.5,8.1c0.9,0.3,1.8,0.6,3,0.9c0.9,0,2.1-0.3,2.7-1.2
	c1.2-2.4-1.8-4.2-2.4-6C156.6,102.5,157.2,98.6,159.3,100.1z"/>
<path class="st5" d="M257.2,107.3c-0.6,1.8-0.9,3.6-0.9,5.4c-0.6,0.6-1.2-0.9-1.8-0.6c-1.8,1.2-4.2,3.6-6.3,3.6
	c-2.1,0-4.2-0.6-6-1.5c-0.6-2.1-1.2-4.2-2.4-6.3C239.9,108.2,259.9,99.8,257.2,107.3z"/>
<path class="st17" d="M261.1,102.5c0,7.2-5.7,12.8-12.8,12.8c-7.2,0-12.8-5.7-12.8-12.8c0-7.2,5.7-12.8,12.8-12.8
	C255.1,89.7,261.1,95.3,261.1,102.5L261.1,102.5z"/>
<path class="st20" d="M260.5,123.7c0,0-2.4,2.7-2.7,3c-0.3,0.3-7.5,29.8-7.5,30.1c0,0.3-8.4,27.2-8.4,27.2l-13.1,6.6l1.2-32.8
	l9.5-26.9c0,0,3.3-3.6,4.2-5.1c0.9-1.2,13.4-9.3,13.4-9.3l2.1,4.5L260.5,123.7z"/>
<path class="st5" d="M258.7,121.3L243.5,132l-0.3-6c0.9-1.2,13.4-9.3,13.4-9.3L258.7,121.3z"/>
<path class="st20" d="M259,120.7l-15.2,10.7l-0.3-6c0.9-1.2,13.4-9.3,13.4-9.3L259,120.7z"/>
<path class="st9" d="M243.2,122.8l0.6,2.7l-3.3,3.6L243.2,122.8c-0.3,0-6,4.2-7.8,5.1c-1.8,1.2-3.6,4.8-3.6,5.7
	c0,0.9-2.7,16.1-2.7,16.1s-2.1,5.7-1.5,7.2c0.6,1.5-3.3,51-3.3,51c0.9-2.1,2.7-3.3,5.1-3.9l-1.2-29.2c0,0,1.5-19.4,1.8-19.7
	c0.3-0.3,3.9-11.6,3.9-11.6L243.2,122.8z"/>
<path class="st5" d="M244.1,125.8l-0.3,5.4c0,0-3.6,11.6-4.8,13.4c-1.2,1.8-5.1,13.1-5.1,13.1l-2.1,19.7l-3.6,1.8l-2.1-3.3l3-19.1
	c0,0,5.7-16.1,6.6-17.6l4.2-8.7L244.1,125.8z"/>
<path class="st21" d="M243.5,125.5l-0.3,5.4c0,0-3.6,11.6-4.8,13.4s-5.1,13.1-5.1,13.1l-2.1,19.7l-3.6,1.8l-1.8-3.3l3-19.1
	c0,0,5.7-16.1,6.6-17.6l4.2-8.7L243.5,125.5z"/>
<path class="st17" d="M200.8,167l7.2,4.8c0,0,5.1-2.7,2.1-4.8c-3-1.8-5.4-2.1-6.6-2.1C202.3,164.9,200.8,167,200.8,167z"/>
<path class="st17" d="M206.2,157.7c-0.3,0.3-0.6,0.6-0.6,0.9c0,1.5,0.3,5.4,1.5,3.6c1.5-2.1,1.2-4.2,3.6-2.7
	c1.5,0.9,2.7,2.1,3.9,3.6l-0.9-4.5C213.6,158.6,208.8,156.2,206.2,157.7z"/>
<path class="st5" d="M261.1,215.6c-0.3,0.6-0.6,1.8-0.9,3.3c-14.6,4.5-25.1-4.8-25.1-4.8c-1.2-4.5-2.4-8.7-3.3-13.1
	c-0.3-1.5-0.3-4.5,0-8.1l26-4.5C257.8,188.4,262.9,213.2,261.1,215.6z"/>
<path class="st9" d="M276,141.9c-0.6,2.1-0.3,6.6-0.3,6.6l-6,28.1c0,0-3,21.8-3.3,24.5c-0.6,3-1.2,15.5-1.2,15.5
	c-16.7,8.4-29.8-3-29.8-3c-1.2-4.5-2.4-8.7-3.3-13.1c-0.9-4.8,1.5-24.5,2.7-33.4c0.3-2.7,0.6-4.2,0.6-4.2l4.5-16.1
	c0,0,5.4-13.7,7.2-17.6c2.1-3.9,9.8-12.8,9.8-12.8c0.9-0.6,2.7,1.5,3.9,3.6c0.9,1.5,1.5,3,1.5,3s9.8,4.2,11.3,6.6
	c1.5,2.4,1.2,7.2,1.5,7.2C275.1,136.8,276.6,139.5,276,141.9z"/>
<path class="st5" d="M252.7,131.7c0,0,0.6,4.5-1.2,5.7s-15.5,28.3-16.4,29.8c0.3-2.7,0.6-4.2,0.6-4.2l4.5-16.1
	c0,0,5.4-13.7,7.2-17.6c2.1-3.9,9.8-12.8,9.8-12.8c0.9-0.6,2.7,1.5,3.9,3.6C259.3,124,255.4,130.9,252.7,131.7z"/>
<path class="st9" d="M252.4,131.4c0,0,0.6,4.5-1.2,5.7s-15.5,28.3-16.4,29.8c0.3-2.7,0.6-4.2,0.6-4.2l4.5-16.1
	c0,0,5.4-13.7,7.2-17.6c2.1-3.9,9.8-12.8,9.8-12.8c0.9-0.6,2.7,1.5,3.9,3.6C259,123.7,255.1,130.6,252.4,131.4z"/>
<polygon class="st22" points="271.8,170.8 267.3,195.3 267.3,195.3 266.7,197.7 266.7,197.7 265.8,202.8 261.7,201.9 259.6,201.6 
	231.8,195.6 230,195.3 225.3,194.1 226.2,188.1 226.5,185.8 230,163.4 "/>
<path class="st17" d="M246.1,190.8c0,0-11,3.9-8.7,8.7c2.4,4.8,17.6-3.6,17.6-3.6L246.1,190.8z"/>
<path class="st5" d="M253.9,224.6c0,0.3,0.3,4.5,2.1,6C257.8,232,253.9,224.6,253.9,224.6z"/>
<path class="st5" d="M242.9,239.5c0,0,2.1,5.4,9.8,7.8C260.5,249.6,242.9,239.5,242.9,239.5z"/>
<path class="st5" d="M261.1,102.5c0,4.5-2.4,9-6.6,11c-0.6-0.3-1.5-0.9-1.8-1.5c-0.6-0.6-0.9-1.5-0.6-2.4c0.3-0.6,0.9-1.2,1.2-1.8
	c0-0.3,0-0.9,0-1.2c0-0.6-0.3-1.2-0.3-1.8s-0.3-1.2-0.9-1.2c-0.6,0-0.9,0.3-1.5,0.6c-0.9,0.9-3,1.5-4.2,0.6s-0.9-3-1.2-4.2
	c0-0.3,0-0.3-0.3-0.6c-0.3,0-0.3,0-0.6,0c-0.6,0-1.2-0.6-1.5-1.2c0-0.6-0.3-1.2-0.3-2.1c0-0.6-0.3-1.5-0.9-1.8
	c-0.6-0.3-0.9-0.3-1.5-0.3h-2.4c4.2-5.7,12.2-6.9,17.9-2.7C259,94.4,261.1,98.3,261.1,102.5L261.1,102.5z"/>
<path class="st21" d="M250.6,104c0.3-0.3,0.9-0.9,1.5-0.6c0.6,0,0.9,0.9,0.9,1.2l0.3,1.8c0,0.3,0,0.9,0,1.2
	c-0.3,0.6-0.9,1.2-1.2,1.8c-0.3,0.9,0,1.8,0.6,2.4c0.9,1.2,2.4,2.1,3.9,2.4c0.3,0,0.9,0,1.2,0c0.9-0.3,1.5-1.2,2.1-1.8
	c2.7-3.9,4.8-8.4,5.1-13.1c0-0.9,0-1.8,0-3c-0.3-0.6-0.6-1.5-0.9-2.1c-0.6-1.5-1.5-2.7-2.4-3.9c-1.8-1.8-4.2-3-6.6-3.9
	c-2.7-0.9-5.7-0.9-8.7-0.6c-0.9,0-1.5,0.3-2.4,0.3c-0.9,0-1.8,0-3,0l-5.7-0.3c-0.3,0.6,0,1.5,0.3,2.1c0.3,0.6,0.9,1.2,0.9,2.1
	c0,0.6-0.6,1.2-0.9,1.8s-0.6,1.5-0.3,2.1c0.3,0.6,1.2,0.6,1.8,0.6h3c0.6,0,0.9,0,1.5,0.3s0.9,1.2,0.9,1.8c0,0.6,0,1.2,0.3,2.1
	c0.3,0.6,0.6,1.2,1.5,1.2c0.3,0,0.3,0,0.6,0c0.3,0,0.3,0.3,0.3,0.6c0.3,1.2-0.3,3.6,1.2,4.2C247.6,105.5,249.7,104.9,250.6,104z"/>
<path class="st5" d="M267,129.4c-3-0.3-5.7,1.5-6.6,4.2c-1.5,4.5-4.2,12.2-3.6,15.5c0.9,4.5,2.1,11.9,2.1,11.9s4.8,2.7,2.4,5.4
	c-2.4,2.7-3,6.6-3,6.6s-3,1.2-3.6,4.2c-0.6,2.7-5.1,6.6-5.1,6.6l-6.6,6.6c0,0,11,11.3,13.4,11.9l6.9-8.1l8.1-10.7l7.2-7.5
	c0,0,1.8-3.9,0.9-11.3c-0.9-7.5-4.2-14.3-4.2-14.3l0.3-2.4C274.8,148.2,275.7,130.6,267,129.4z"/>
<path class="st9" d="M267.6,129.4c-3-0.3-5.7,1.5-6.6,4.2c-1.5,4.5-4.2,12.2-3.6,15.5c0.9,4.5,2.1,11.9,2.1,11.9s4.8,2.7,2.4,5.4
	c-2.4,2.7-3,6.6-3,6.6s-3,1.2-3.6,4.2c-0.6,2.7-5.1,6.6-5.1,6.6l-6.6,6.6c0,0,11,11.3,13.4,11.9l6.9-8.1l8.1-10.7l7.2-7.5
	c0,0,1.8-3.9,0.9-11.3c-0.9-7.5-4.2-14.3-4.2-14.3l0.3-2.4C275.7,148.2,276.3,130.6,267.6,129.4z"/>
<path class="st5" d="M260.8,154.4c0,0,7.2,8.7,9.8,6.6C273.9,159.2,260.8,154.4,260.8,154.4z"/>
<path class="st5" d="M263.5,147.9c0.6,0.3,6.9,8.7,9.8,7.8C276.6,154.7,263.5,147.9,263.5,147.9z"/>
<path class="st5" d="M265.2,162.5c0,0,0.3,4.8,5.4,4.2C275.7,166.1,265.2,162.5,265.2,162.5z"/>
<polygon class="st5" points="242.9,123.4 240.2,129.4 243.5,125.8 "/>
<polygon class="st20" points="242.9,122.8 240.2,129.1 243.5,125.5 "/>
<polygon class="st23" points="231.8,195.6 230,195.3 226.2,188.1 226.5,185.8 "/>
<polygon class="st23" points="267.3,195.3 266.7,197.7 266.7,197.7 261.7,201.9 259.6,201.6 "/>
<path class="st5" d="M184.1,168.2c-0.9,0.3-2.1,0.3-3,0.3c-5.1,0.6-17-5.4-17-5.4s-14.6-12.2-18.8-23.9s5.1-13.4,5.1-13.4
	c3.6-2.1,11,3.6,12.2,4.5c1.2,0.9,2.1,3.3,1.8,4.8c0,1.5,2.4,3.3,2.4,3.3s4.5,7.5,5.4,8.4c1.2,0.9,1.2,1.5,1.8,3
	c0.3,1.5,3.3,2.7,4.5,2.4c1.2,0,2.7,0.3,2.7,1.2c0,0.6,1.2,0.9,2.1,0.9C183.5,158.9,183.8,164.3,184.1,168.2z"/>
<path class="st5" d="M184.1,167c-0.9,0-1.5,0.3-2.1,0.3c-5.1,0.6-17-5.4-17-5.4s-14.6-12.2-18.8-23.9c-4.2-11.6,5.1-13.4,5.1-13.4
	c3.6-2.1,11,3.6,12.2,4.5c1.2,0.9,2.1,3.3,1.8,4.8c0,1.5,2.4,3.3,2.4,3.3s4.5,7.5,5.4,8.4c1.2,0.9,1.2,1.5,1.8,3
	c0.6,1.5,3.3,2.7,4.5,2.4c1.2,0,2.7,0.3,2.7,1.2c0,0.3,0.6,0.6,1.5,0.9c0,0.6,0,0.9,0,1.5C183.5,158.3,183.8,163.4,184.1,167z"/>
<path class="st5" d="M203.2,158.6l-0.3,7.5h-0.3l-0.6-0.3v-6.3C202.3,158.9,202.6,158.9,203.2,158.6z"/>
<path class="st13" d="M150.4,125.5c0,0-9.3,1.8-5.1,13.4s18.8,23.9,18.8,23.9s11.9,6,17,5.4c5.1-0.6,12.8-2.4,13.7-2.1
	c0.9,0.3,7.8,0.3,7.8,0.3l0.3-7.8l-7.8-0.3l-3.9-0.9c0,0-1.5-1.2-2.1-0.9c-0.6,0.3-2.7-0.9-2.7-0.9s-1.2-1.2-2.4-1.2
	c-0.9,0-3-0.3-3-0.9s-1.5-1.2-2.7-1.2s-4.2-1.2-4.5-2.4c-0.3-1.5-0.6-2.1-1.8-3c-1.2-0.9-5.4-8.4-5.4-8.4s-2.7-1.8-2.4-3.3
	c0.3-1.5-0.9-3.9-1.8-4.8C161.4,129.1,153.6,123.7,150.4,125.5z"/>
<path class="st5" d="M174.2,152c0,0-3.6,3.6-2.7,4.2L174.2,152z"/>
<path class="st5" d="M177.8,155c0,0-4.8,3.6-3.3,3.9C175.7,158.9,177.8,155,177.8,155z"/>
<path class="st5" d="M170.1,160.1c0.6,0.3,10.4,6.3,14.3,6L170.1,160.1z"/>
<path class="st5" d="M170.6,121c0,0-1.8,5.7-2.4,5.7s-9.3-7.2-12.8-10.1h0.3c0,0,0.3-2.7,1.8-3.9C158.7,111.5,170.6,121,170.6,121z"
	/>
<path class="st13" d="M170.4,120.4c0,0-1.8,5.7-2.4,5.7s-9.3-7.2-12.8-10.1h0.3c0,0,0.3-2.7,1.8-3.9
	C158.1,110.9,170.4,120.4,170.4,120.4z"/>
<g class="st24">
	<path d="M147.1,101.9L147.1,101.9c1.2,2.7,4.5,3.9,6.3,6C152.1,105.5,148.9,104,147.1,101.9z"/>
	<path d="M158.7,108.2c-0.6,0.9-1.5,1.2-2.7,1.2c-0.9,0-1.8-0.3-2.7-0.6c0.3,0.3,0.6,0.9,0.6,1.5c0.9,0.3,1.8,0.6,3,0.9
		c0.9,0,2.1-0.3,2.7-1.2c0.6-1.5,0-2.7-0.9-3.9C159.3,106.4,159.3,107.3,158.7,108.2z"/>
	<path d="M173.3,88.8c-0.3-0.6-0.6-1.2-0.9-2.1c-0.3-0.6-0.3-1.2-0.3-1.8c-0.3-0.9-0.6-1.5-1.2-2.1c0,0.3,0,0.3,0.3,0.6
		c0,0.6,0.3,1.2,0.3,1.8c0.3,0.6,0.9,1.2,0.9,2.1c0.3,1.2-0.6,2.1-1.5,2.4c-1.5,0.3-3-0.9-4.2,0c-0.9,0.6-0.9,1.5-0.9,2.4
		c-0.3,1.5-0.3,3-0.6,4.5c0,0.6-0.3,1.2-0.3,1.5c-0.6,1.5-2.4,2.1-3.9,2.1c-0.6,0-1.2-0.3-1.5-0.6c-0.3-0.3-0.6-0.6-0.6-0.9
		c-1.8-1.5-2.4,2.4-2.1,3.6c0.3,0.6,0.6,0.9,0.9,1.5c-0.3-1.2,0.3-5.1,2.1-3.3c0.3,0.3,0.6,0.6,0.6,0.9c0.6,0.3,0.9,0.6,1.5,0.6
		c1.5,0,3.3-0.6,3.9-2.1c0.3-0.6,0.3-1.2,0.3-1.5c0.3-1.5,0.3-3,0.6-4.5c0-0.9,0.3-1.8,0.9-2.4c1.2-0.9,3,0.3,4.2,0
		C172.7,90.9,173.3,89.7,173.3,88.8z"/>
</g>
<path class="st5" d="M259,113.2c-0.3,0-0.9,0-1.2,0c-1.5-0.3-3-1.2-3.9-2.4c-0.6-0.6-0.9-1.5-0.6-2.4c0.3-0.6,0.9-1.2,1.2-1.8
	c0-0.3,0-0.9,0-1.2l-0.3-1.8c0-0.6-0.3-1.2-0.9-1.2c-0.6,0-0.9,0.3-1.5,0.6c-0.9,0.9-3,1.5-4.2,0.6c-1.2-0.6-0.9-3-1.2-4.2
	c0-0.3,0-0.3-0.3-0.6c-0.3,0-0.3,0-0.6,0c-0.6,0-1.2-0.6-1.5-1.2c0-0.6-0.3-1.2-0.3-2.1c0-0.6-0.3-1.5-0.9-1.8s-0.9-0.3-1.5-0.3h-3
	c-0.6,0-1.5,0-1.8-0.6c-0.3-0.6,0-1.5,0.3-2.1s0.9-1.2,0.9-1.8s-0.3-1.5-0.9-2.1c-0.3-0.3-0.3-0.6-0.6-1.2h-0.9
	c-0.3,0.6,0,1.5,0.3,2.1s0.9,1.2,0.9,2.1s-0.6,1.2-0.9,1.8c-0.3,0.6-0.6,1.5-0.3,2.1c0.3,0.6,1.2,0.6,1.8,0.6h3c0.6,0,0.9,0,1.5,0.3
	s0.9,1.2,0.9,1.8s0,1.2,0.3,2.1c0.3,0.6,0.6,1.2,1.5,1.2c0.3,0,0.3,0,0.6,0c0.3,0,0.3,0.3,0.3,0.6c0.3,1.2-0.3,3.6,1.2,4.2
	c1.2,0.6,3.3,0,4.2-0.6c0.3-0.3,0.9-0.9,1.5-0.6c0.6,0,0.9,0.9,0.9,1.2l0.3,1.8c0,0.3,0,0.9,0,1.2c-0.3,0.6-0.9,1.2-1.2,1.8
	c-0.3,0.9,0,1.8,0.6,2.4c0.9,1.2,2.4,2.1,3.9,2.4c0.3,0,0.9,0,1.2,0c0.6-0.3,1.2-0.6,1.5-1.2C259.6,113.2,259.3,113.2,259,113.2z"/>
<ellipse class="st0" cx="81.1" cy="283" rx="9.3" ry="1.5"/>
<ellipse class="st0" cx="408.2" cy="245.7" rx="9.3" ry="1.5"/>
<ellipse class="st0" cx="312.7" cy="303.6" rx="27.2" ry="4.2"/>
<ellipse class="st0" cx="389.7" cy="286" rx="21.2" ry="3.3"/>
<ellipse class="st0" cx="386.4" cy="318.3" rx="35.8" ry="5.4"/>
<ellipse class="st0" cx="41.1" cy="323" rx="27.2" ry="4.2"/>
<path class="st22" d="M81.7,237.4c0,0,1.2,1.5-0.6,3.6c-1.5,2.1-2.7,3.9-2.4,5.1c0,0,2.4-3.9,4.2-3.9
	C85,241.9,83.8,239.5,81.7,237.4z"/>
<path class="st5" d="M81.7,237.4l0.3,0.3c1.8,2.1,3,4.2,1.2,4.2c-1.8,0-3.6,3-4.2,3.9c0,0,0,0,0,0.3c0,0,2.4-3.9,4.2-3.9
	C85,241.9,83.8,239.5,81.7,237.4z"/>
<path class="st25" d="M83.5,238.9c0,0.6,0,0.9,0,0.9S83.5,239.5,83.5,238.9C83.5,238.6,83.5,238.9,83.5,238.9S83.5,238.6,83.5,238.9
	z"/>
<path class="st25" d="M84.4,239.5c-0.3,0.3-0.9,0.3-0.9,0.3S83.8,239.8,84.4,239.5C84.7,239.2,84.4,239.5,84.4,239.5
	S84.7,239.5,84.4,239.5z"/>
<path class="st22" d="M76.1,237.4c0,0-1.2,1.5,0.6,3.6c1.5,2.1,2.7,3.9,2.4,5.1c0,0-2.4-3.9-4.2-3.9C72.8,241.9,74,239.5,76.1,237.4
	z"/>
<path class="st5" d="M76.1,237.4l-0.3,0.3c-1.8,2.1-3,4.2-1.2,4.2c1.8,0,3.6,3,4.2,3.9c0,0,0,0,0,0.3c0,0-2.4-3.9-4.2-3.9
	C72.8,241.9,74,239.5,76.1,237.4z"/>
<path class="st25" d="M74,238.9c0,0.6,0,0.9,0,0.9C74.3,239.8,74.3,239.5,74,238.9C74.3,238.6,74.3,238.9,74,238.9
	C74.3,238.9,74,238.6,74,238.9z"/>
<path class="st25" d="M73.4,239.5c0.3,0.3,0.9,0.3,0.9,0.3S74,239.8,73.4,239.5C73.1,239.2,73.4,239.5,73.4,239.5
	S73.1,239.5,73.4,239.5z"/>
<ellipse class="st0" cx="78.7" cy="254.7" rx="11" ry="1.8"/>
<path class="st26" d="M84.7,244v0.3v0.6v0.3v0.6v0.3v0.6l-0.9,6.9c0,0.6-1.2,1.2-2.4,1.2h-4.5c-1.2,0-2.4-0.6-2.4-1.2l-0.9-6.9V246
	v-0.3v-0.6v-0.3v-0.6V244c0-0.3,0.6-0.6,1.2-0.6h9C84.1,243.4,84.7,243.7,84.7,244z"/>
<polygon class="st27" points="84.4,244.5 84.4,245.1 73.4,245.1 73.4,244.5 "/>
<polygon class="st27" points="84.4,245.4 84.4,246 73.4,246 73.4,245.4 "/>
<polygon class="st27" points="84.4,246.3 84.1,246.9 73.4,246.9 73.4,246.3 "/>
<path class="st22" d="M400.7,232c0,0-1.2,6.3,4.5,6.9l0.3-0.6C405.8,238,401,233.8,400.7,232z"/>
<path class="st22" d="M407.6,238l-1.5,0.3l0,0c0,0-3.6-3-3.6-9.5c0.6,0.9,1.2,1.8,1.8,2.7C405.8,233.5,407.3,235.9,407.6,238z"/>
<path class="st22" d="M408.2,238.6c-0.3,0-0.6,0.3-0.6,0c-3.6-0.9-2.4-12.2-2.4-12.2c0.3,0,0.3,1.5,1.2,3.6
	C407.6,233.2,409.1,238,408.2,238.6z"/>
<path class="st22" d="M415.9,232c0,0,0.3,6.3-5.7,6.9l-0.3-0.6C410,238,415.6,233.8,415.9,232z"/>
<path class="st22" d="M414.2,228.7c0,6.6-4.8,9.5-4.8,9.5l0,0l-1.5-0.3c0.3-2.1,1.8-4.5,3.3-6.6
	C412.1,230.5,413.3,229.6,414.2,228.7z"/>
<path class="st22" d="M409.4,238c-0.3,0.3-0.6,0.6-0.9,0.6l0,0h-0.3c-0.9,0.3-1.2-0.3-1.2-1.5c0-1.8,1.2-5.1,2.4-7.8
	c0.6-1.2,1.2-2.4,2.1-3.3C411.8,226.6,411.5,235.3,409.4,238z"/>
<path class="st22" d="M408.5,222.5c0,0-3.9,14-0.6,16.1C411.2,240.7,409.1,223.7,408.5,222.5z"/>
<path class="st5" d="M400.7,232c0,0-1.2,6.3,4.5,6.9l0.3-0.6C405.8,238,401,233.8,400.7,232z"/>
<path class="st5" d="M407.6,238l-1.5,0.3l0,0c0,0-3.6-3-3.6-9.5c0.6,0.9,1.2,1.8,1.8,2.7C405.8,233.5,407.3,235.9,407.6,238z"/>
<path class="st5" d="M408.2,238.6c-0.3,0-0.6,0.3-0.6,0c-3.6-0.9-2.4-12.2-2.4-12.2c0.3,0,0.3,1.5,1.2,3.6
	C407.6,233.2,409.1,238,408.2,238.6z"/>
<path class="st5" d="M415.9,232c0,0,0.3,6.3-5.7,6.9l-0.3-0.6C410,238,415.6,233.8,415.9,232z"/>
<path class="st5" d="M414.2,228.7c0,6.6-4.8,9.5-4.8,9.5l0,0l-1.5-0.3c0.3-2.1,1.8-4.5,3.3-6.6C412.1,230.5,413.3,229.6,414.2,228.7
	z"/>
<path class="st5" d="M409.4,238c-0.3,0.3-0.6,0.6-0.9,0.6l0,0h-0.3c-0.9,0.3-1.2-0.3-1.2-1.5c0-1.8,1.2-5.1,2.4-7.8
	c0.6-1.2,1.2-2.4,2.1-3.3C411.8,226.6,411.5,235.3,409.4,238z"/>
<path class="st5" d="M408.5,222.5c0,0-3.9,14-0.6,16.1C411.2,240.7,409.1,223.7,408.5,222.5z"/>
<path class="st22" d="M400.7,232c0,0-0.9,6.3,5.1,6.9l0.3-0.6C406.4,238,401,233.8,400.7,232z"/>
<path class="st22" d="M408.2,238l-1.5,0.3l0,0c0,0-4.2-3-4.2-9.5c0,0,1.2,1.2,2.4,2.7C406.1,233.5,407.9,235.9,408.2,238z"/>
<path class="st5" d="M408.2,238l-1.5,0.3c-1.2-1.2-1.8-4.2-2.1-6.9C406.1,233.5,407.9,235.9,408.2,238z"/>
<path class="st22" d="M408.5,238.6c-0.3,0-0.6,0.3-0.6,0c-3.6-0.9-3-12.2-3-12.2c0.3,0,0.9,1.5,1.8,3.6
	C408.2,233.2,409.7,238,408.5,238.6z"/>
<path class="st22" d="M415.9,232c0,0,0.9,6.3-5.1,6.9l-0.3-0.6C410.3,238,415.6,233.8,415.9,232z"/>
<path class="st22" d="M414.2,228.7c0,6.6-4.2,9.5-4.2,9.5l0,0l-1.5-0.3c0.3-2.1,1.8-4.5,3.3-6.6C413,229.9,414.2,228.7,414.2,228.7z
	"/>
<path class="st5" d="M411.8,231.4c-0.3,2.4-0.6,5.4-1.8,6.6l-0.3,0.3l-1.5-0.3C408.8,235.9,410.6,233.5,411.8,231.4z"/>
<path class="st22" d="M410,238c-0.3,0.3-0.6,0.6-0.9,0.6l0,0h-0.3c-0.9,0.3-1.2-0.3-1.2-1.5c0-1.8,1.2-5.1,2.4-7.8
	c0.9-1.8,1.5-3,1.8-3.3C411.8,226.6,412.1,235.3,410,238z"/>
<path class="st5" d="M408.5,238.6c-0.3,0-0.3,0-0.6-0.3c-1.8-0.9-1.8-4.8-1.2-8.7C408.2,233.2,409.7,238,408.5,238.6z"/>
<path class="st5" d="M410,238c-0.3,0.3-0.3,0.6-0.9,0.6l0,0c-0.3,0-0.3,0-0.6-0.3c-0.3-0.3-0.9-0.6-0.9-1.2c0-1.8,1.2-5.1,2.4-7.8
	C410.3,233.2,410.6,236.8,410,238z"/>
<path class="st22" d="M408.5,222.5c0,0-3.3,14,0,16.1C411.8,240.7,409.1,223.7,408.5,222.5z"/>
<polygon class="st28" points="414.8,237.7 400.7,237.7 400.7,240.1 402.8,240.1 402.8,240.4 403.7,244.8 412.1,244.8 413,240.4 
	413,240.1 414.8,240.1 "/>
<polygon class="st5" points="414.8,237.7 400.7,237.7 400.7,240.1 402.8,240.1 402.8,240.4 403.7,244.8 412.1,244.8 413,240.4 
	413,240.1 414.8,240.1 "/>
<polygon class="st28" points="413.6,239.2 413.3,240.4 412.7,244.8 404.3,244.8 403.4,240.4 403.4,239.2 "/>
<polygon class="st5" points="413.6,239.2 413.3,240.4 403.4,240.4 403.4,239.2 "/>
<rect x="401.3" y="237.7" class="st28" width="14" height="2.4"/>
<path class="st22" d="M56.4,277.7c-0.3,0.6-0.6,1.2-0.9,1.8c0,0,0,0.3-0.3,0.6h-0.3c-0.6,0-0.9-0.3-1.5,0c0-0.3,0-0.3,0-0.6
	c0-2.1-0.3-4.8-2.1-3.6c-1.8,1.2-0.6,3,0.6,4.5l0.3,0.3c-1.2,0.9-1.2,2.7-1.5,4.5c-0.3,1.8-1.8,3.9-3,5.1l-0.3,0.3
	c-0.9-0.6-2.1-0.9-3-0.9c0-0.3,0-0.3,0-0.6c-0.9-3.3-2.7-8.7-5.1-9.8l0.3-0.3c0.9-1.2,2.1-3.3,0.6-3.6c-1.5-0.6-1.8,1.8-1.8,3.3
	c0,0.3,0,0.3,0,0.6c-0.6,0-1.2,0.3-1.8,0.9l-0.3-0.3c-1.2-1.5-3.9-3.9-4.5-2.1c-0.6,1.8,1.5,3.9,3,5.4l0,0c-0.9,4.2,3.3,7.5,5.7,9
	l0.3,0.3c-3.3,3.9-5.4,11-5.4,11l9.3,1.5c0,0,6-5.1,5.4-10.1l0,0c6-1.2,7.5-7.8,6.6-11.3l0,0c1.2-0.6,2.1-1.2,2.7-2.1
	C61.7,278,58.1,275.3,56.4,277.7z"/>
<path class="st5" d="M56.4,277.7c-0.3,0.6-0.6,1.2-0.9,1.8c0,0,0,0.3-0.3,0.6h-0.3c-0.6,0-0.9-0.3-1.5,0c0-0.3,0-0.3,0-0.6
	c0-2.1-0.3-4.8-2.1-3.6c-1.8,1.2-0.6,3,0.6,4.5l0.3,0.3c-1.2,0.9-1.2,2.7-1.5,4.5c-0.3,1.8-1.8,3.9-3,5.1l-0.3,0.3
	c-0.9-0.6-2.1-0.9-3-0.9c0-0.3,0-0.3,0-0.6c-0.9-3.3-2.7-8.7-5.1-9.8l0.3-0.3c0.9-1.2,2.1-3.3,0.6-3.6c-1.5-0.6-1.8,1.8-1.8,3.3
	c0,0.3,0,0.3,0,0.6c-0.6,0-1.2,0.3-1.8,0.9l-0.3-0.3c-1.2-1.5-3.9-3.9-4.5-2.1c-0.6,1.8,1.5,3.9,3,5.4l0,0c-0.9,4.2,3.3,7.5,5.7,9
	l0.3,0.3c-3.3,3.9-5.4,11-5.4,11l9.3,1.5c0,0,6-5.1,5.4-10.1l0,0c6-1.2,7.5-7.8,6.6-11.3l0,0c1.2-0.6,2.1-1.2,2.7-2.1
	C61.7,278,58.1,275.3,56.4,277.7z"/>
<path class="st22" d="M38.2,280.4l-1.2,3c0,0-0.6-0.3-1.2-1.2c-1.5-1.2-3.6-3.6-3-5.4c0.6-1.8,3.3,0.6,4.5,2.1
	C37.9,279.8,38.2,280.4,38.2,280.4z"/>
<path class="st22" d="M40.5,278.6c-0.3,0.3-0.6,0.9-0.9,1.2c0-0.6-0.3-1.2-0.3-1.8c0-1.5,0-3.6,1.8-3.3
	C42.9,275,41.4,277.4,40.5,278.6z"/>
<path class="st22" d="M54.3,278.9c0,0.9,0,1.8,0,1.8c-0.6-0.3-0.9-0.9-1.2-1.2c-1.2-1.2-2.7-3.3-0.6-4.5
	C54,274.1,54.3,277.1,54.3,278.9z"/>
<path class="st22" d="M60.5,280.4c-0.6,0.9-1.8,1.8-2.7,2.1c-0.3,0-0.6,0.3-0.9,0.3l-1.5-1.8c0-0.6,0.3-1.2,0.6-1.8s0.6-1.2,0.9-1.8
	C58.7,275.3,62.3,278,60.5,280.4z"/>
<path class="st5" d="M37.3,279.2c0.6,0.6,0.9,1.2,0.9,1.2l-1.2,3c0,0-0.6-0.3-1.2-1.2c0.3-0.9,0.6-2.1,1.2-2.7
	C37,279.5,37.3,279.5,37.3,279.2z"/>
<path class="st5" d="M40.5,278.6c-0.3,0.3-0.6,0.9-0.9,1.2c0-0.6-0.3-1.2-0.3-1.8C39.6,278,40.2,278.3,40.5,278.6z"/>
<path class="st22" d="M45.6,290.8l-2.7,1.2c0,0-0.6-0.3-1.5-0.9c-2.7-1.8-8.4-6-4.8-11c3.6-5.1,6.9,4.2,8.1,8.4
	C45.6,289.9,45.6,290.8,45.6,290.8z"/>
<path class="st5" d="M52.8,279.8c0.3-0.3,0.9-0.6,1.5-0.6c0,0.9,0,1.8,0,1.8C53.7,280.4,53.1,280.1,52.8,279.8z"/>
<path class="st5" d="M57.6,282.4c-0.3,0-0.6,0.3-0.9,0.3l-1.2-1.8c0-0.6,0.3-1.2,0.6-1.8C57,279.8,57.6,281,57.6,282.4z"/>
<path class="st22" d="M51,294.1h-0.3c-9,1.5-3-3.6-3-3.6s0.3-0.3,0.9-0.9c1.2-1.2,2.7-3.3,3-5.1c0.3-3,0.6-5.7,3.9-4.8
	C58.7,280.4,59.6,292.3,51,294.1z"/>
<rect x="34" y="316.2" class="st29" width="17" height="4.5"/>
<rect x="31.3" y="301.5" class="st29" width="22.1" height="15.5"/>
<rect x="34" y="316.2" class="st5" width="17" height="4.5"/>
<rect x="31.3" y="301.5" class="st5" width="22.1" height="15.5"/>
<rect x="35.2" y="316.2" class="st29" width="17" height="4.5"/>
<path class="st5" d="M45,288.7c0.3,1.2,0.6,2.4,0.6,2.4l-2.7,1.2c0,0-0.6-0.3-1.5-0.9C42.6,289.9,43.8,289,45,288.7z"/>
<path class="st5" d="M51,294.1h-0.3c-9,1.5-3-3.6-3-3.6s0.3-0.3,0.9-0.9C50.4,291.1,51,292.6,51,294.1z"/>
<path class="st22" d="M36.7,302.4c0,0,5.1-17.9,11.9-12.2s-3,14-3,14L36.7,302.4z"/>
<circle class="st5" cx="39" cy="283" r="0.6"/>
<circle class="st5" cx="39" cy="285.4" r="0.6"/>
<circle class="st5" cx="55.5" cy="283.3" r="0.6"/>
<circle class="st5" cx="42.3" cy="296.8" r="0.6"/>
<circle class="st5" cx="54.3" cy="287.8" r="0.6"/>
<circle class="st5" cx="48.3" cy="293.5" r="0.6"/>
<circle class="st5" cx="41.1" cy="283.9" r="0.6"/>
<circle class="st5" cx="53.7" cy="285.1" r="0.6"/>
<circle class="st5" cx="51.9" cy="289.3" r="0.6"/>
<circle class="st5" cx="45.9" cy="296.5" r="0.6"/>
<circle class="st5" cx="44.7" cy="293.8" r="0.6"/>
<circle class="st5" cx="42" cy="287.5" r="0.6"/>
<rect x="35.2" y="316.2" class="st5" width="17" height="1.5"/>
<rect x="32.5" y="301.5" class="st29" width="22.1" height="15.5"/>
<circle class="st5" cx="46.8" cy="298.9" r="0.6"/>
<circle class="st5" cx="43.5" cy="299.5" r="0.6"/>
<circle class="st0" cx="21.7" cy="26.4" r="4.2"/>
<circle class="st0" cx="410.9" cy="153.8" r="5.4"/>
<circle class="st0" cx="421.3" cy="142.2" r="3.9"/>
<circle class="st0" cx="28.6" cy="11.8" r="5.4"/>
<circle class="st0" cx="7.7" cy="36.6" r="5.4"/>
</svg>
