<svg version="1.1" id="Layer_1" xmlns="http://www.w3.org/2000/svg" x="0" y="0" viewBox="0 0 141.7 119" xml:space="preserve"><style>.st0{fill:#f5f5f5}.st2{opacity:.5}.st4{fill:#5a5773}.st5{fill:#605d82}.st6{opacity:.1;enable-background:new}.st8{fill:#a1616a}.st10{fill:#67647e}.st13{fill:#fff}.st15{fill:#3c6fe9}.st17{fill:#0038ba}.st18,.st22{opacity:5.000000e-02;enable-background:new}.st22{opacity:.5;fill:#3c6fe9}</style><ellipse class="st0" cx="84.5" cy="102.7" rx="57.2" ry="16.4"/><path d="M24.8 0c-1.3 0-2.7 0-3.9.5-3.4 1.3-5 5.4-4.4 8.9.5 3.5 2.6 6.6 4.9 9.5s4.6 5.6 5.8 9c.6 1.7.9 3.6.3 5.2-.9 2.6-3.8 4-6.6 4.4s-5.5-.3-8.3-.5c-1.2-.1-2.3-.1-3.4.3-1.2.4-2.2 1.3-3.1 2.1-3.6 3.4-6.4 8.1-6 13.1.5 5.6 5.2 10 10.3 12.4 1.7.8 3.5 1.4 5 2.6 3.9 3 4.8 8.5 4.4 13.4-.4 4.9-1.7 9.8-1 14.7.9 5.7 4.7 10.8 9.9 13.2 4.6 2.1 10.4 2 14.6-1 2-1.5 3.5-3.5 4.8-5.6 2-3.2 3.6-6.6 4.8-10.1.6-1.7 1.1-3.5 2.5-4.7.8-.7 1.9-1.1 2.9-1.4 3.2-.9 6.5-1.2 9.7-2s6.4-2.4 8.1-5.2c2.5-4 1.3-9.1 1.3-13.7 0-10.7 6.4-20.2 8.7-30.6.8-3.4 1.1-7.1-.7-10.2-1.2-2.1-3.1-3.5-5.2-4.7-4.5-2.5-9.7-3.6-14.8-4.7-7.1-1.5-15.7-1.7-21.1-6.6C39.1 3.4 31.9 0 24.8 0z" fill="#f3fbfe"/><g class="st2"><linearGradient id="SVGID_1_" gradientUnits="userSpaceOnUse" x1="137.123" y1="411.051" x2="172.156" y2="411.051" gradientTransform="translate(-120 -353.15)"><stop offset="0" stop-color="gray" stop-opacity=".25"/><stop offset=".54" stop-color="gray" stop-opacity=".12"/><stop offset="1" stop-color="gray" stop-opacity=".1"/></linearGradient><path d="M50.4 41.3c0-2.6-.4-5.1-1.2-7.6l-2-6.1v-.3c.1-3.9-3-5.9-4.2-5.6-1.2.2-4.5-1.5-4.5-1.5-.2-.3-.4-.5-.6-.8 2.4-1.7 2.9-5.1 1.2-7.5 0 0 0-.1-.1-.1.4-.3.6-.6.8-1.1.3-.8.1-1.6-.4-2.3-.2-.3-.4-.5-.7-.8-.4-.4-.8-.7-1.2-1-1-.6-2.2-1.3-3.5-1.5h-.7l-.6.3c-.9.5-2 .3-3 .2s-2.3.2-2.6 1.2c-.1.3-.1.6-.2.9-.2.8-.7 1.3-1.2 2-.5.6-.8 1.5-.4 2.2.1.2.3.4.3.7 0 .2-.1.4-.2.5-.1.4.1.8.4 1.1.1.1.3.3.5.4.5.3 1.1.3 1.6.6.3.1.5.3.7.5.5.5.8 1.3.8 2h.1v.1h.4c.2.3.4.5.6.8 0 .1-.1.3-.1.4-.4.3-3.5 2.4-7.1 1.9-3.8-.5-6 16.1-6 16.1-.1.9-.2 1.9-.2 2.9 0 2.5.5 5.7 3.4 5.2l1.5-.5v8.3s.2 2.3-.5 3.8c-.8 1.5 2.4 1 2.4 1l.3.3-.1.2.1.1c-.4 1.4-1 2.8-1.7 4.1h.1c-.1.1-.1.2-.1.2l2.8 1.4c1.3 4.4 4.1 14.6 3.2 16.5.2.4 1.1 2.5.9 4.5-.2 1.7 2.3 9.7 3.2 12.6l-.4.1 1.5 5.5-.3 3.5s-1.8 5 2.5 4 3.2-5 3.2-5l.1-8.1s-.4-.2-.9-.5c-.4-1-1.1-3.2-1.1-4.8 0-2-1.4-10.9-1.4-10.9v-.5c-.2-2.4-.7-10.5-.3-14.7.3-.2.6-.4 1-.6 1.1 2.7 3.8 9.9 3.6 13-.2 3.8 0 .8 0 .3v5c0 .7 0 1.5-.1 2.2v1.8l-.6-.1-.1 1.4c-.2 2.2.1 4.3.8 6.4.2.6.4 1 .4 1.2.1.5 0 4.4 0 4.4s.7 5.1 3.7 4.1c1.4-.4 2-1.8 2.4-3.1.4-1.5.2-3.2-.4-4.6-.4-1.1-.9-2.6-.6-3.8.5-2 .5-5 .5-5h-.3c.1-.2.2-.3.2-.5 0 0-.1-7.4.9-8.4.5-.5.5-1.8.3-2.9-.2-1.5-.3-3.1-.2-4.6.1-.8.2-1.5.3-1.7.3-.6.6-6.3-.7-9.1l.3-.1v-.2c.2.5.4 1 .7 1.5.1 0 .1.1.2.1 3.5-.6 3.7-3.9 3.5-5.7.1.1.2.1.2.1l.3-4.7c.3-.8.5-1.7.5-2.8-.1-3.6-1.9-8.5-1.9-8.5zm-3.9 13.4c-.2-2.1-.6-4-.6-4l-1.6-5.8v-2.1l2.6 9.7-.4 2.2z" fill="url(#SVGID_1_)"/></g><path class="st4" d="M39.2 86.5l-.2 1.3c-.2 2.1.1 4.2.8 6.2.2.5.3 1 .4 1.2.1.5 0 4.3 0 4.3s.6 4.9 3.6 4c1.3-.4 2-1.7 2.3-3 .3-1.5.2-3.1-.4-4.5-.4-1.1-.9-2.6-.5-3.7.5-2 .5-4.8.5-4.8l-6.5-1z"/><path class="st5" d="M36 63.7s4.1 10 3.9 13.7c-.2 3.7 0 .8 0 .3.1-.9 0 9.2-.3 10.3 0 0 4.3 3.2 6-1 0 0-.1-7.3.8-8.2.5-.5.5-1.8.3-2.8-.2-1.5-.3-3-.2-4.5.1-.8.1-1.4.3-1.7.3-.6.6-7.8-1.3-9.8L36 63.7z"/><path class="st6" d="M40.1 88c.3-1.2.4-11.2.3-10.3 0 .5-.2 3.4 0-.3.2-3.7-3.9-13.7-3.9-13.7l9.2-3.5-.1-.1-9.6 3.6s4.1 10 3.9 13.7c-.2 3.7 0 .8 0 .3.1-.9 0 9.2-.3 10.3 0 0 1.7 1.3 3.4 1.1-1.5-.1-2.9-1.1-2.9-1.1z"/><path class="st4" d="M32.4 96.1l1.5 5.4-.3 3.5s-1.8 4.8 2.4 3.9 3-4.8 3-4.8l.1-7.9s-1.7-.9-2.4-.8-4.3.7-4.3.7z"/><path class="st5" d="M25.2 61.2s4.8 15.7 3.7 18.1c0 0 1.2 2.3.9 4.4-.2 2 3.4 13.3 3.4 13.3l5.3-.9s-1.3-3.2-1.3-5.2-1.4-10.6-1.4-10.6-1.2-15.8.2-17.5l-10.8-1.6z"/><path d="M35.6 64.1c-.9 3.6.1 16.7.1 16.7s1.4 8.6 1.4 10.6c0 1.5.7 3.7 1.1 4.7h.3s-1.3-3.2-1.3-5.2-1.4-10.6-1.4-10.6-.9-12-.2-16.2zm-6.8 15.1v-.1c.1.1.1.1 0 .1zm7-15.9c0-.2.1-.4.2-.5l-10.8-1.7s.1.2.2.6l10.4 1.6z" opacity=".1"/><path class="st8" d="M50.4 55.5s1.6 5.9-3.2 6.7c-.1 0-.1 0-.2-.1 0 0-2.7-5.4-.6-7.5l4 .9zM31.1 16.3s.3 4.4-3.2 6.5 7.4 7.9 7.4 7.9l5.7-9s-2.4.3-3.9-3.9l-6-1.5z"/><path class="st6" d="M28.7 23.2s5.4 11.2 10.2.6l7.5 37s-11.6 3.6-11.7 5.3S23 61.8 23 61.8s2.5-4.6 1.9-7.5c-.6-2.8 3.8-31.1 3.8-31.1z"/><path d="M28.7 23s5.4 11.2 10.2.6l7.5 37s-11.6 3.6-11.7 5.3c-.1 1.7-11.7-4.3-11.7-4.3s2.5-4.6 1.9-7.5c-.6-2.9 3.8-31.1 3.8-31.1z" fill="#e1e7ef"/><path class="st4" d="M34 99s-1.4-3.1 1.8-3.1 2.6 2.7 2.6 2.7L34 99zm7.1-7.9s-1.3-3.3 1.9-3.4c3.2-.1 1.6 2.9 1.6 2.9l-3.5.5z"/><path class="st6" d="M38.5 20.6s3.2 1.6 4.4 1.4c1.2-.2 4.2 1.8 4 5.8l1.9 6c.8 2.4 1.1 4.9 1.1 7.4 0 0 2.7 7.6 1.3 10.9l-.3 4.6s-2.4-1.4-4.9-.9l.6-3.8-2.8-10.7-4.7-11.5-.6-9.2z"/><path class="st10" d="M38.5 20.4s3.2 1.6 4.4 1.4c1.2-.2 4.2 1.8 4 5.8l1.9 6c.8 2.4 1.1 4.9 1.1 7.4 0 0 2.7 7.6 1.3 10.9l-.3 4.6s-2.4-1.4-4.9-.9l.6-3.8-2.8-10.7-4.7-11.5-.6-9.2z"/><path class="st6" d="M43.8 33.2v11.9l1.6 5.7s1 6.2.7 8.1-5.4 2.3-6.7.7-.6-15-.6-15l-.3-19.7.2-.6 5.1 8.9z"/><path class="st10" d="M44 32.6v11.9l1.6 5.7s1 6.2.7 8.1-5.4 2.3-6.7.7-.6-15-.6-15l-.3-19.7 5.3 8.3z"/><path class="st6" d="M22.8 42.5L26.2 53l-1.6 4.5s7.5 7.9 12.2 4.1c0 0 .5-16.1-.5-19.9-1-3.8-6.1-16.5-6.1-16.5l-1-3.4-5.6 3.2-.8 17.5z"/><path class="st10" d="M22.5 42v10.3s.2 2.2-.5 3.7 2.3.9 2.3.9 7.5 7.9 12.2 4.1c0 0 .5-16.1-.5-19.9-1-3.8-6.1-16.5-6.1-16.5l-1-3.4-5.6 3.2-.8 17.6z"/><path class="st6" d="M30.7 19.4s-3.2 2.4-6.9 1.8c-3.7-.5-5.8 15.9-5.8 15.9s-1.4 8.4 3 7.7l9.8-3.3s-2.1-2.2-1.8-5.1l-4.7 1.9.2-9.1 6.2-9.8z"/><path class="st6" d="M18.2 36.8s-1.4 8.4 3 7.7l9.8-3.3s-2.1-2.2-1.8-5.1L24.5 38l-6.3-1.2z"/><path class="st8" d="M29 37.3s3.3-4.3 5.7-2.2c2.4 2.1-4.8 5.9-4.8 5.9l-.9-3.7z"/><path class="st10" d="M30.7 19.2s-3.2 2.4-6.9 1.8c-3.7-.5-5.8 15.8-5.8 15.8s-1.4 8.4 3 7.7l9.8-3.3S28.7 39 29 36.1L24.3 38l.2-9 5.4-4.4.8-5.4z"/><path class="st6" d="M37.2 18l-6-1.5s.3.4 0 1.7c1 1.1 2.1 2.6 3.7 2.6 1.1 0 2.2-.4 3.1-1-.4-.6-.6-1.2-.8-1.8z"/><circle class="st8" cx="34.7" cy="15.4" r="5.3"/><path class="st6" d="M36.7 13.1c1.2-.2 2.6-.8 3-1.9.3-.8.1-1.6-.4-2.3-.4-.7-1.1-1.2-1.7-1.6-1-.7-2.2-1.4-3.5-1.6h-.7c-.1.1-.3.2-.4.3-.9.5-2 .3-3 .2s-2.2.2-2.5 1.2c-.1.3-.1.6-.2.9-.2.7-.7 1.3-1.1 1.9-.4.6-.8 1.4-.4 2.1.1.2.3.4.3.7 0 .2-.1.4-.2.5-.1.5.3 1.1.8 1.3.5.2 1.1.3 1.6.6 1 .5 1.6 1.5 1.6 2.6.5 0 1 .1 1.3-.3.1-.1.2-.4.3-.5.2-.2.4-.3.6-.5 1.1-.9.3-2.2.9-3.1.3-.5.9-.3 1.4-.3.8 0 1.6-.1 2.3-.2z"/><path d="M36.6 13c1.2-.2 2.6-.8 3-1.9.3-.8.1-1.6-.4-2.3-.4-.7-1.1-1.2-1.7-1.6-1-.7-2.2-1.4-3.5-1.6h-.7c-.2.1-.4.2-.5.3-.9.5-1.9.3-2.9.2-1 0-2.2.2-2.5 1.2-.1.3-.1.6-.2.9-.2.7-.7 1.3-1.1 1.9-.4.6-.8 1.4-.4 2.1.1.2.3.4.3.7 0 .2-.1.4-.2.5-.1.5.3 1.1.8 1.3s1.1.3 1.6.6c1 .5 1.6 1.5 1.6 2.6.5 0 1 .1 1.3-.3.1-.1.2-.4.3-.5.2-.2.4-.3.6-.5 1.1-.9.3-2.2.9-3.1.3-.5.9-.3 1.4-.3.8 0 1.6-.1 2.3-.2z" fill="#4a4347"/><path class="st6" d="M43 30.7s1.2 6 .6 8.3c-.3 1.3-.3 2.7.1 4.1m-19.4-9.9s-.5 4 .3 4.8"/><path d="M53.7 82.5c.1 0 .2-.1.2-.2s-.1-.2-.2-.2-.2.1-.2.2c-.1.1 0 .2.2.2z"/><g class="st2"><linearGradient id="SVGID_2_" gradientUnits="userSpaceOnUse" x1="204.522" y1="460.177" x2="204.522" y2="372.559" gradientTransform="translate(-120 -353.15)"><stop offset="0" stop-color="gray" stop-opacity=".25"/><stop offset=".54" stop-color="gray" stop-opacity=".12"/><stop offset="1" stop-color="gray" stop-opacity=".1"/></linearGradient><path d="M129.2 53.9v-.1L84.6 19.4h-.2L39.8 53.8V107h.1v.1h89.4l-.1-53.2z" fill="url(#SVGID_2_)"/></g><path class="st13" d="M127.7 105.5H41.3V54.1l43.2-33.2 43.2 33.2z"/><path fill="#e0e0e0" d="M124.6 102.4H44.4V54.8l40.1-30.9 40.1 30.9z"/><path transform="rotate(-14.693 81.79 60.742)" class="st15" d="M56.5 28.6H107v64.3H56.5z"/><path class="st0" d="M59.5 32.7H110V97H59.5z"/><path d="M64 56.7h7.4v1.6H64zm17 0h7.4v1.6H81zm17 0h7.4v1.6H98z" fill="#89daf8"/><path class="st17" d="M63.5 67.6c0-2.3 1.9-4.1 4.2-4.1v-1c-2.9 0-5.2 2.2-5.2 5.1 0 1.5.7 2.9 1.8 3.9l.7-.7c-1-.8-1.5-1.9-1.5-3.2z"/><path class="st15" d="M67.7 62.5v1c2.3 0 4.2 1.9 4.1 4.2 0 2.3-1.9 4.1-4.2 4.1-1 0-1.9-.4-2.7-1l-.7.7c2.2 1.9 5.4 1.7 7.3-.5 1.9-2.2 1.7-5.4-.5-7.3-.8-.7-2-1.2-3.3-1.2z"/><path class="st17" d="M101.8 63.5c2.3 0 4.1 1.9 4.1 4.2h1c0-2.9-2.2-5.2-5.1-5.2-1.5 0-2.9.7-3.9 1.8l.7.7c.9-.9 2-1.5 3.2-1.5z"/><path class="st15" d="M106.9 67.8h-1c0 2.3-1.9 4.2-4.2 4.1-2.3 0-4.2-1.9-4.1-4.2 0-1 .4-1.9 1-2.7l-.7-.7c-1.9 2.2-1.7 5.4.5 7.3 2.2 1.9 5.4 1.7 7.3-.5.8-.8 1.2-2 1.2-3.3zm-20.2-5l-.2 1c1.5.7 2.5 2.2 2.5 3.9 0 2.3-1.9 4.2-4.2 4.2s-4.2-1.9-4.2-4.2c0-1.7 1-3.1 2.5-3.8l-.4-.9c-2.6 1.2-3.8 4.3-2.6 6.9 1.2 2.6 4.3 3.8 6.9 2.6 1.9-.8 3.1-2.7 3.1-4.7 0-2.3-1.4-4.2-3.4-5z"/><path class="st17" d="M85 63.5c.5 0 1 .1 1.5.3l.2-1c-.5-.2-1.1-.3-1.7-.3-.7 0-1.5.2-2.1.5l.5.9c.5-.3 1-.4 1.6-.4z"/><path class="st18" d="M41.7 54.2l43.2 25.7-43.2 25.6z"/><path class="st13" d="M41.4 54.2l43.2 25.7-43.2 25.6z"/><path class="st18" d="M127.4 54.2L84.2 79.9l43.2 25.6z"/><path class="st13" d="M127.7 54.2L84.6 79.9l43.1 25.6z"/><path class="st18" d="M41.4 104.7L84.6 71l43.1 33.7z"/><path class="st13" d="M41.4 105.5l43.2-33.6 43.1 33.6z"/><path class="st22" d="M62.4 35.6h20.3v1.6H62.4z"/><path d="M63.6 40.4h41.7v.1H63.6zm0 3.2h41.7v.1H63.6zm0 3.3h41.7v.1H63.6zm0 3.2h41.7v.1H63.6zm0 3.2h41.7v.1H63.6z" fill="#dce0ed" opacity=".5"/><path class="st22" d="M105.3 53.5H63.6v-6.4l3.8 1.9 4 .5 3.5-1 4.1-3.3 2.2-1.2 1.5-.3 1.5.1 2.4 1.2 3.3 2.1 2.6.3 2-.7 4.4-3.5 2.2-.8 2.3.3 1.9 1.1z"/><path class="st15" d="M70.9 49.5c-3.8 0-7.2-2.3-7.3-2.3l.1-.2s5.4 3.6 9.9 1.8c1.7-.6 2.8-1.7 4-2.6 1.2-1 2.3-2 3.9-2.4 1.8-.5 3.7 0 5.1 1.1 1.2 1 3.7 2.7 6.4 2.2 1.3-.2 2.5-1.2 3.7-2.3 2.3-2 4.7-4 8.7-1.1l-.1.1c-4-2.9-6.3-.9-8.5 1.1-1.2 1-2.4 2-3.7 2.3-2.7.5-5.2-1.2-6.5-2.2-1.4-1.2-3.3-1.6-5-1.1-1.5.4-2.6 1.3-3.8 2.4-1.1 1-2.3 2-4 2.6-1 .5-2 .6-2.9.6z"/><circle cx="83.7" cy="43.7" r="1" fill="#e9425e"/></svg>