<?xml version="1.0" encoding="utf-8"?>
<!-- Generator: Adobe Illustrator 23.0.2, SVG Export Plug-In . SVG Version: 6.00 Build 0)  -->
<svg version="1.1" id="Layer_1" xmlns="http://www.w3.org/2000/svg" xmlns:xlink="http://www.w3.org/1999/xlink" x="0px" y="0px"
	 viewBox="0 0 141.7 119" style="enable-background:new 0 0 141.7 119;" xml:space="preserve">
<style type="text/css">
	.st0{fill:#F5F5F5;}
	.st1{fill:#F3FBFE;}
	.st2{opacity:0.5;}
	.st3{fill:url(#SVGID_1_);}
	.st4{fill:#5A5773;}
	.st5{fill:#605D82;}
	.st6{opacity:0.1;enable-background:new    ;}
	.st7{opacity:0.1;}
	.st8{fill:#A1616A;}
	.st9{fill:#E1E7EF;}
	.st10{fill:#67647E;}
	.st11{fill:#4A4347;}
	.st12{fill:url(#SVGID_2_);}
	.st13{fill:#FFFFFF;}
	.st14{fill:#E0E0E0;}
	.st15{fill:#3C6FE9;}
	.st16{fill:#89DAF8;}
	.st17{fill:#0038BA;}
	.st18{opacity:5.000000e-02;enable-background:new    ;}
	.st19{display:none;}
	.st20{display:inline;fill:none;stroke:#535461;stroke-width:2;stroke-miterlimit:10;}
	.st21{display:inline;fill:#3C6FE9;}
	.st22{opacity:0.5;fill:#3C6FE9;enable-background:new    ;}
	.st23{opacity:0.5;fill:#DCE0ED;enable-background:new    ;}
	.st24{fill:#E9425E;}
</style>
<title>newsletter</title>
<ellipse class="st0" cx="84.5" cy="102.7" rx="57.2" ry="16.4"/>
<path class="st1" d="M24.8,0c-1.3,0-2.7,0-3.9,0.5c-3.4,1.3-5,5.4-4.4,8.9c0.5,3.5,2.6,6.6,4.9,9.5s4.6,5.6,5.8,9
	c0.6,1.7,0.9,3.6,0.3,5.2c-0.9,2.6-3.8,4-6.6,4.4s-5.5-0.3-8.3-0.5c-1.2-0.1-2.3-0.1-3.4,0.3c-1.2,0.4-2.2,1.3-3.1,2.1
	c-3.6,3.4-6.4,8.1-6,13.1c0.5,5.6,5.2,10,10.3,12.4c1.7,0.8,3.5,1.4,5,2.6c3.9,3,4.8,8.5,4.4,13.4c-0.4,4.9-1.7,9.8-1,14.7
	c0.9,5.7,4.7,10.8,9.9,13.2c4.6,2.1,10.4,2,14.6-1c2-1.5,3.5-3.5,4.8-5.6c2-3.2,3.6-6.6,4.8-10.1c0.6-1.7,1.1-3.5,2.5-4.7
	c0.8-0.7,1.9-1.1,2.9-1.4c3.2-0.9,6.5-1.2,9.7-2s6.4-2.4,8.1-5.2c2.5-4,1.3-9.1,1.3-13.7c0-10.7,6.4-20.2,8.7-30.6
	c0.8-3.4,1.1-7.1-0.7-10.2c-1.2-2.1-3.1-3.5-5.2-4.7c-4.5-2.5-9.7-3.6-14.8-4.7c-7.1-1.5-15.7-1.7-21.1-6.6C39.1,3.4,31.9,0,24.8,0z
	"/>
<g class="st2">
	
		<linearGradient id="SVGID_1_" gradientUnits="userSpaceOnUse" x1="137.1226" y1="411.0515" x2="172.156" y2="411.0515" gradientTransform="matrix(1 0 0 1 -120 -353.1506)">
		<stop  offset="0" style="stop-color:#808080;stop-opacity:0.25"/>
		<stop  offset="0.54" style="stop-color:#808080;stop-opacity:0.12"/>
		<stop  offset="1" style="stop-color:#808080;stop-opacity:0.1"/>
	</linearGradient>
	<path class="st3" d="M50.4,41.3c0-2.6-0.4-5.1-1.2-7.6l-2-6.1c0-0.1,0-0.2,0-0.3c0.1-3.9-3-5.9-4.2-5.6c-1.2,0.2-4.5-1.5-4.5-1.5v0
		c-0.2-0.3-0.4-0.5-0.6-0.8c2.4-1.7,2.9-5.1,1.2-7.5c0,0,0-0.1-0.1-0.1c0.4-0.3,0.6-0.6,0.8-1.1c0.3-0.8,0.1-1.6-0.4-2.3
		c-0.2-0.3-0.4-0.5-0.7-0.8c-0.4-0.4-0.8-0.7-1.2-1C36.5,6,35.3,5.3,34,5.1c-0.2,0-0.5,0-0.7,0c-0.2,0.1-0.4,0.2-0.6,0.3
		c-0.9,0.5-2,0.3-3,0.2s-2.3,0.2-2.6,1.2C27,7.1,27,7.4,26.9,7.7c-0.2,0.8-0.7,1.3-1.2,2c-0.5,0.6-0.8,1.5-0.4,2.2
		c0.1,0.2,0.3,0.4,0.3,0.7c0,0.2-0.1,0.4-0.2,0.5c-0.1,0.4,0.1,0.8,0.4,1.1c0.1,0.1,0.3,0.3,0.5,0.4c0.5,0.3,1.1,0.3,1.6,0.6
		c0.3,0.1,0.5,0.3,0.7,0.5c0.5,0.5,0.8,1.3,0.8,2l0.1,0c0,0,0,0.1,0,0.1c0.1,0,0.2,0,0.4,0c0.2,0.3,0.4,0.5,0.6,0.8
		c0,0.1-0.1,0.3-0.1,0.4c-0.4,0.3-3.5,2.4-7.1,1.9c-3.8-0.5-6,16.1-6,16.1c-0.1,0.9-0.2,1.9-0.2,2.9c0,2.5,0.5,5.7,3.4,5.2l1.5-0.5
		v8.3c0,0,0.2,2.3-0.5,3.8c-0.8,1.5,2.4,1,2.4,1s0.1,0.1,0.3,0.3l-0.1,0.2l0.1,0.1c-0.4,1.4-1,2.8-1.7,4.1l0.1,0
		c-0.1,0.1-0.1,0.2-0.1,0.2s1.2,0.6,2.8,1.4c1.3,4.4,4.1,14.6,3.2,16.5l0,0l0,0c0.2,0.4,1.1,2.5,0.9,4.5c-0.2,1.7,2.3,9.7,3.2,12.6
		l-0.4,0.1l1.5,5.5l-0.3,3.5c0,0-1.8,5,2.5,4s3.2-5,3.2-5l0.1-8.1c0,0-0.4-0.2-0.9-0.5c-0.4-1-1.1-3.2-1.1-4.8
		c0-2-1.4-10.9-1.4-10.9v0v0v0v-0.1v0c0-0.1,0-0.3,0-0.4v0c-0.2-2.4-0.7-10.5-0.3-14.7c0.3-0.2,0.6-0.4,1-0.6
		c1.1,2.7,3.8,9.9,3.6,13c-0.2,3.8,0,0.8,0,0.3c0-0.1,0,0,0,0.4c0,0.1,0,0.2,0,0.2c0,0.1,0,0.2,0,0.3c0,0.1,0,0.2,0,0.3
		c0,0,0,0.1,0,0.2c0,0.1,0,0.2,0,0.4c0,0.1,0,0.1,0,0.2c0,0.3,0,0.7,0,1.1c0,0.1,0,0.1,0,0.2c0,0.2,0,0.5,0,0.7c0,0.3,0,0.6,0,1
		c0,0.7,0,1.5-0.1,2.2c0,0.1,0,0.1,0,0.2c0,0.1,0,0.3,0,0.4s0,0.3,0,0.4c0,0.1,0,0.3,0,0.4c0,0.1,0,0.3,0,0.4l-0.6-0.1l-0.1,1.4
		c-0.2,2.2,0.1,4.3,0.8,6.4c0.2,0.6,0.4,1,0.4,1.2c0.1,0.5,0,4.4,0,4.4s0.7,5.1,3.7,4.1c1.4-0.4,2-1.8,2.4-3.1
		c0.4-1.5,0.2-3.2-0.4-4.6c-0.4-1.1-0.9-2.6-0.6-3.8c0.5-2,0.5-5,0.5-5l-0.3,0c0.1-0.2,0.2-0.3,0.2-0.5c0,0-0.1-7.4,0.9-8.4
		c0.5-0.5,0.5-1.8,0.3-2.9c-0.2-1.5-0.3-3.1-0.2-4.6c0.1-0.8,0.2-1.5,0.3-1.7c0.3-0.6,0.6-6.3-0.7-9.1l0.3-0.1l0-0.2l0,0
		c0.2,0.5,0.4,1,0.7,1.5c0.1,0,0.1,0.1,0.2,0.1c3.5-0.6,3.7-3.9,3.5-5.7c0.1,0.1,0.2,0.1,0.2,0.1l0.3-4.7c0.3-0.8,0.5-1.7,0.5-2.8
		C52.2,46.2,50.4,41.3,50.4,41.3z M46.5,54.7c-0.2-2.1-0.6-4-0.6-4l-1.6-5.8v-2.1l2.6,9.7L46.5,54.7z"/>
</g>
<path class="st4" d="M39.2,86.5L39,87.8c-0.2,2.1,0.1,4.2,0.8,6.2c0.2,0.5,0.3,1,0.4,1.2c0.1,0.5,0,4.3,0,4.3s0.6,4.9,3.6,4
	c1.3-0.4,2-1.7,2.3-3c0.3-1.5,0.2-3.1-0.4-4.5c-0.4-1.1-0.9-2.6-0.5-3.7c0.5-2,0.5-4.8,0.5-4.8L39.2,86.5z"/>
<path class="st5" d="M36,63.7c0,0,4.1,10,3.9,13.7c-0.2,3.7,0,0.8,0,0.3c0.1-0.9,0,9.2-0.3,10.3c0,0,4.3,3.2,6-1
	c0,0-0.1-7.3,0.8-8.2c0.5-0.5,0.5-1.8,0.3-2.8c-0.2-1.5-0.3-3-0.2-4.5c0.1-0.8,0.1-1.4,0.3-1.7c0.3-0.6,0.6-7.8-1.3-9.8L36,63.7z"/>
<path class="st6" d="M40.1,88c0.3-1.2,0.4-11.2,0.3-10.3c0,0.5-0.2,3.4,0-0.3c0.2-3.7-3.9-13.7-3.9-13.7l9.2-3.5
	c0,0-0.1-0.1-0.1-0.1L36,63.7c0,0,4.1,10,3.9,13.7c-0.2,3.7,0,0.8,0,0.3c0.1-0.9,0,9.2-0.3,10.3c0,0,1.7,1.3,3.4,1.1
	C41.5,89,40.1,88,40.1,88z"/>
<path class="st4" d="M32.4,96.1l1.5,5.4l-0.3,3.5c0,0-1.8,4.8,2.4,3.9s3-4.8,3-4.8l0.1-7.9c0,0-1.7-0.9-2.4-0.8S32.4,96.1,32.4,96.1
	z"/>
<path class="st5" d="M25.2,61.2c0,0,4.8,15.7,3.7,18.1c0,0,1.2,2.3,0.9,4.4C29.6,85.7,33.2,97,33.2,97l5.3-0.9c0,0-1.3-3.2-1.3-5.2
	c0-2-1.4-10.6-1.4-10.6S34.6,64.5,36,62.8L25.2,61.2z"/>
<g class="st7">
	<path d="M35.6,64.1c-0.9,3.6,0.1,16.7,0.1,16.7s1.4,8.6,1.4,10.6c0,1.5,0.7,3.7,1.1,4.7l0.3,0c0,0-1.3-3.2-1.3-5.2
		c0-2-1.4-10.6-1.4-10.6S34.9,68.3,35.6,64.1z"/>
	<path d="M28.8,79.2L28.8,79.2c0,0,0-0.1,0-0.1C28.9,79.2,28.9,79.2,28.8,79.2z"/>
	<path d="M35.8,63.3c0-0.2,0.1-0.4,0.2-0.5l-10.8-1.7c0,0,0.1,0.2,0.2,0.6L35.8,63.3z"/>
</g>
<path class="st8" d="M50.4,55.5c0,0,1.6,5.9-3.2,6.7c-0.1,0-0.1,0-0.2-0.1c0,0-2.7-5.4-0.6-7.5L50.4,55.5z"/>
<path class="st8" d="M31.1,16.3c0,0,0.3,4.4-3.2,6.5s7.4,7.9,7.4,7.9l5.7-9c0,0-2.4,0.3-3.9-3.9L31.1,16.3z"/>
<path class="st6" d="M28.7,23.2c0,0,5.4,11.2,10.2,0.6l7.5,37c0,0-11.6,3.6-11.7,5.3s-11.7-4.3-11.7-4.3s2.5-4.6,1.9-7.5
	C24.3,51.5,28.7,23.2,28.7,23.2z"/>
<path class="st9" d="M28.7,23c0,0,5.4,11.2,10.2,0.6l7.5,37c0,0-11.6,3.6-11.7,5.3c-0.1,1.7-11.7-4.3-11.7-4.3s2.5-4.6,1.9-7.5
	C24.3,51.2,28.7,23,28.7,23z"/>
<path class="st4" d="M34,99c0,0-1.4-3.1,1.8-3.1s2.6,2.7,2.6,2.7L34,99z"/>
<path class="st4" d="M41.1,91.1c0,0-1.3-3.3,1.9-3.4c3.2-0.1,1.6,2.9,1.6,2.9L41.1,91.1z"/>
<path class="st6" d="M38.5,20.6c0,0,3.2,1.6,4.4,1.4c1.2-0.2,4.2,1.8,4,5.8l1.9,6c0.8,2.4,1.1,4.9,1.1,7.4l0,0c0,0,2.7,7.6,1.3,10.9
	l-0.3,4.6c0,0-2.4-1.4-4.9-0.9l0.6-3.8l-2.8-10.7l-4.7-11.5L38.5,20.6z"/>
<path class="st10" d="M38.5,20.4c0,0,3.2,1.6,4.4,1.4c1.2-0.2,4.2,1.8,4,5.8l1.9,6c0.8,2.4,1.1,4.9,1.1,7.4l0,0
	c0,0,2.7,7.6,1.3,10.9l-0.3,4.6c0,0-2.4-1.4-4.9-0.9l0.6-3.8l-2.8-10.7l-4.7-11.5L38.5,20.4z"/>
<path class="st6" d="M43.8,33.2v11.9l1.6,5.7c0,0,1,6.2,0.7,8.1s-5.4,2.3-6.7,0.7s-0.6-15-0.6-15l-0.3-19.7l0.2-0.6L43.8,33.2z"/>
<path class="st10" d="M44,32.6v11.9l1.6,5.7c0,0,1,6.2,0.7,8.1s-5.4,2.3-6.7,0.7s-0.6-15-0.6-15l-0.3-19.7L44,32.6z"/>
<path class="st6" d="M22.8,42.5L26.2,53l-1.6,4.5c0,0,7.5,7.9,12.2,4.1c0,0,0.5-16.1-0.5-19.9c-1-3.8-6.1-16.5-6.1-16.5l-1-3.4
	L23.6,25L22.8,42.5z"/>
<path class="st10" d="M22.5,42v10.3c0,0,0.2,2.2-0.5,3.7c-0.7,1.5,2.3,0.9,2.3,0.9s7.5,7.9,12.2,4.1c0,0,0.5-16.1-0.5-19.9
	c-1-3.8-6.1-16.5-6.1-16.5l-1-3.4l-5.6,3.2L22.5,42z"/>
<path class="st6" d="M30.7,19.4c0,0-3.2,2.4-6.9,1.8C20.1,20.7,18,37.1,18,37.1s-1.4,8.4,3,7.7l9.8-3.3c0,0-2.1-2.2-1.8-5.1
	l-4.7,1.9l0.2-9.1L30.7,19.4z"/>
<path class="st6" d="M18.2,36.8c0,0-1.4,8.4,3,7.7l9.8-3.3c0,0-2.1-2.2-1.8-5.1l-4.7,1.9L18.2,36.8z"/>
<path class="st8" d="M29,37.3c0,0,3.3-4.3,5.7-2.2c2.4,2.1-4.8,5.9-4.8,5.9L29,37.3z"/>
<path class="st10" d="M30.7,19.2c0,0-3.2,2.4-6.9,1.8C20.1,20.5,18,36.8,18,36.8s-1.4,8.4,3,7.7l9.8-3.3c0,0-2.1-2.2-1.8-5.1
	l-4.7,1.9l0.2-9l5.4-4.4L30.7,19.2z"/>
<path class="st6" d="M37.2,18l-6-1.5c0,0,0.3,0.4,0,1.7c1,1.1,2.1,2.6,3.7,2.6c1.1,0,2.2-0.4,3.1-1C37.6,19.2,37.4,18.6,37.2,18z"/>
<circle class="st8" cx="34.7" cy="15.4" r="5.3"/>
<path class="st6" d="M36.7,13.1c1.2-0.2,2.6-0.8,3-1.9c0.3-0.8,0.1-1.6-0.4-2.3c-0.4-0.7-1.1-1.2-1.7-1.6c-1-0.7-2.2-1.4-3.5-1.6
	c-0.2,0-0.4,0-0.7,0C33.3,5.8,33.1,5.9,33,6C32.1,6.5,31,6.3,30,6.2s-2.2,0.2-2.5,1.2c-0.1,0.3-0.1,0.6-0.2,0.9
	c-0.2,0.7-0.7,1.3-1.1,1.9c-0.4,0.6-0.8,1.4-0.4,2.1c0.1,0.2,0.3,0.4,0.3,0.7c0,0.2-0.1,0.4-0.2,0.5c-0.1,0.5,0.3,1.1,0.8,1.3
	c0.5,0.2,1.1,0.3,1.6,0.6c1,0.5,1.6,1.5,1.6,2.6c0.5,0,1,0.1,1.3-0.3c0.1-0.1,0.2-0.4,0.3-0.5c0.2-0.2,0.4-0.3,0.6-0.5
	c1.1-0.9,0.3-2.2,0.9-3.1c0.3-0.5,0.9-0.3,1.4-0.3C35.2,13.3,36,13.2,36.7,13.1z"/>
<path class="st11" d="M36.6,13c1.2-0.2,2.6-0.8,3-1.9c0.3-0.8,0.1-1.6-0.4-2.3c-0.4-0.7-1.1-1.2-1.7-1.6c-1-0.7-2.2-1.4-3.5-1.6
	c-0.2,0-0.4,0-0.7,0c-0.2,0.1-0.4,0.2-0.5,0.3c-0.9,0.5-1.9,0.3-2.9,0.2c-1,0-2.2,0.2-2.5,1.2c-0.1,0.3-0.1,0.6-0.2,0.9
	c-0.2,0.7-0.7,1.3-1.1,1.9c-0.4,0.6-0.8,1.4-0.4,2.1c0.1,0.2,0.3,0.4,0.3,0.7c0,0.2-0.1,0.4-0.2,0.5c-0.1,0.5,0.3,1.1,0.8,1.3
	s1.1,0.3,1.6,0.6c1,0.5,1.6,1.5,1.6,2.6c0.5,0,1,0.1,1.3-0.3c0.1-0.1,0.2-0.4,0.3-0.5c0.2-0.2,0.4-0.3,0.6-0.5
	c1.1-0.9,0.3-2.2,0.9-3.1c0.3-0.5,0.9-0.3,1.4-0.3C35.1,13.2,35.9,13.1,36.6,13z"/>
<path class="st6" d="M43,30.7c0,0,1.2,6,0.6,8.3c-0.3,1.3-0.3,2.7,0.1,4.1"/>
<path class="st6" d="M24.3,33.2c0,0-0.5,4,0.3,4.8"/>
<path d="M53.7,82.5c0.1,0,0.2-0.1,0.2-0.2c0-0.1-0.1-0.2-0.2-0.2c-0.1,0-0.2,0.1-0.2,0.2C53.4,82.4,53.5,82.5,53.7,82.5L53.7,82.5z"
	/>
<g class="st2">
	
		<linearGradient id="SVGID_2_" gradientUnits="userSpaceOnUse" x1="204.5222" y1="460.1771" x2="204.5222" y2="372.5589" gradientTransform="matrix(1 0 0 1 -120 -353.1506)">
		<stop  offset="0" style="stop-color:#808080;stop-opacity:0.25"/>
		<stop  offset="0.54" style="stop-color:#808080;stop-opacity:0.12"/>
		<stop  offset="1" style="stop-color:#808080;stop-opacity:0.1"/>
	</linearGradient>
	<path class="st12" d="M129.2,53.9v-0.1L84.6,19.4c-0.1,0-0.1,0-0.2,0L39.8,53.8v53.2h0.1v0.1h89.4L129.2,53.9L129.2,53.9z"/>
</g>
<polygon class="st13" points="127.7,105.5 41.3,105.5 41.3,54.1 84.5,20.9 127.7,54.1 "/>
<polygon class="st14" points="124.6,102.4 44.4,102.4 44.4,54.8 84.5,23.9 124.6,54.8 "/>
<rect x="56.5" y="28.6" transform="matrix(0.9673 -0.2536 0.2536 0.9673 -12.7296 22.7284)" class="st15" width="50.5" height="64.3"/>
<rect x="59.5" y="32.7" class="st0" width="50.5" height="64.3"/>
<g>
	<g>
		<rect x="64" y="56.7" class="st16" width="7.4" height="1.6"/>
		<rect x="81" y="56.7" class="st16" width="7.4" height="1.6"/>
		<rect x="98" y="56.7" class="st16" width="7.4" height="1.6"/>
	</g>
	<path class="st17" d="M63.5,67.6c0-2.3,1.9-4.1,4.2-4.1h0v-1h0c-2.9,0-5.2,2.2-5.2,5.1c0,1.5,0.7,2.9,1.8,3.9l0.7-0.7
		C64,70,63.5,68.9,63.5,67.6z"/>
	<path class="st15" d="M67.7,62.5v1c2.3,0,4.2,1.9,4.1,4.2c0,2.3-1.9,4.1-4.2,4.1c-1,0-1.9-0.4-2.7-1l-0.7,0.7
		c2.2,1.9,5.4,1.7,7.3-0.5c1.9-2.2,1.7-5.4-0.5-7.3C70.2,63,69,62.5,67.7,62.5z"/>
	<path class="st17" d="M101.8,63.5c2.3,0,4.1,1.9,4.1,4.2v0h1c0,0,0,0,0,0c0-2.9-2.2-5.2-5.1-5.2c-1.5,0-2.9,0.7-3.9,1.8l0.7,0.7
		C99.5,64.1,100.6,63.5,101.8,63.5z"/>
	<path class="st15" d="M106.9,67.8h-1c0,2.3-1.9,4.2-4.2,4.1c-2.3,0-4.2-1.9-4.1-4.2c0-1,0.4-1.9,1-2.7l-0.7-0.7
		c-1.9,2.2-1.7,5.4,0.5,7.3c2.2,1.9,5.4,1.7,7.3-0.5C106.5,70.3,106.9,69.1,106.9,67.8L106.9,67.8z"/>
	<path class="st15" d="M86.7,62.8l-0.2,1C88,64.5,89,66,89,67.7c0,2.3-1.9,4.2-4.2,4.2s-4.2-1.9-4.2-4.2c0-1.7,1-3.1,2.5-3.8
		L82.7,63c-2.6,1.2-3.8,4.3-2.6,6.9c1.2,2.6,4.3,3.8,6.9,2.6c1.9-0.8,3.1-2.7,3.1-4.7C90.1,65.5,88.7,63.6,86.7,62.8z"/>
	<path class="st17" d="M85,63.5c0.5,0,1,0.1,1.5,0.3l0.2-1c-0.5-0.2-1.1-0.3-1.7-0.3c-0.7,0-1.5,0.2-2.1,0.5l0.5,0.9
		C83.9,63.6,84.4,63.5,85,63.5z"/>
</g>
<polygon class="st18" points="41.7,54.2 84.9,79.9 41.7,105.5 "/>
<polygon class="st13" points="41.4,54.2 84.6,79.9 41.4,105.5 "/>
<polygon class="st18" points="127.4,54.2 84.2,79.9 127.4,105.5 "/>
<polygon class="st13" points="127.7,54.2 84.6,79.9 127.7,105.5 "/>
<polygon class="st18" points="41.4,104.7 84.6,71 127.7,104.7 "/>
<polygon class="st13" points="41.4,105.5 84.6,71.9 127.7,105.5 "/>
<g class="st19">
	<path class="st20" d="M306.7,669.2c0,0-13.3-45,2.5-78.1c6.7-13.9,8.7-29.5,5.8-44.6c-1.5-7.2-3.6-14.2-6.3-20.9"/>
	<path class="st21" d="M318.5,504.6c0,5.5-10,21.5-10,21.5s-10-16-10-21.5s4.5-10,10-10S318.5,499.1,318.5,504.6z"/>
	<path class="st21" d="M335,535.1c-3,4.6-20.1,12.6-20.1,12.6s0.3-18.9,3.3-23.5c3.2-4.5,9.5-5.5,13.9-2.3
		C336.4,525,337.6,530.7,335,535.1z"/>
	<path class="st21" d="M334.2,587.4c-4.9,2.5-23.7,0.8-23.7,0.8s9.8-16.1,14.7-18.6c4.8-2.7,10.9-1,13.6,3.8s1,10.9-3.8,13.6
		C334.8,587.1,334.5,587.3,334.2,587.4L334.2,587.4z"/>
	<path class="st21" d="M324.8,626.8c-4.4,3.3-23.2,4.8-23.2,4.8s6.9-17.5,11.4-20.8c4.6-3.1,10.8-1.8,13.9,2.8
		C329.6,617.7,328.8,623.5,324.8,626.8z"/>
	<path class="st21" d="M293.9,548.8c4,3.8,22.4,7.8,22.4,7.8s-4.5-18.3-8.5-22.2c-4.1-3.7-10.5-3.3-14.1,0.9
		C290.3,539.3,290.4,545.1,293.9,548.8L293.9,548.8z"/>
	<path class="st21" d="M283.5,595c4.9,2.5,23.7,0.8,23.7,0.8s-9.8-16.1-14.7-18.6c-5-2.3-11,0-13.2,5
		C277.1,586.9,278.9,592.5,283.5,595L283.5,595z"/>
	<path class="st21" d="M279.5,641.3c4.4,3.3,23.2,4.8,23.2,4.8s-6.9-17.5-11.4-20.8c-4.3-3.5-10.6-2.9-14.1,1.4s-2.9,10.6,1.4,14.1
		C278.9,641,279.2,641.2,279.5,641.3z"/>
</g>
<rect x="62.4" y="35.6" class="st22" width="20.3" height="1.6"/>
<rect x="63.6" y="40.4" class="st23" width="41.7" height="0.1"/>
<rect x="63.6" y="43.6" class="st23" width="41.7" height="0.1"/>
<rect x="63.6" y="46.9" class="st23" width="41.7" height="0.1"/>
<rect x="63.6" y="50.1" class="st23" width="41.7" height="0.1"/>
<rect x="63.6" y="53.3" class="st23" width="41.7" height="0.1"/>
<polygon class="st22" points="105.3,53.5 63.6,53.5 63.6,47.1 67.4,49 71.4,49.5 74.9,48.5 79,45.2 81.2,44 82.7,43.7 84.2,43.8 
	86.6,45 89.9,47.1 92.5,47.4 94.5,46.7 98.9,43.2 101.1,42.4 103.4,42.7 105.3,43.8 "/>
<path class="st15" d="M70.9,49.5c-3.8,0-7.2-2.3-7.3-2.3l0.1-0.2c0,0,5.4,3.6,9.9,1.8c1.7-0.6,2.8-1.7,4-2.6c1.2-1,2.3-2,3.9-2.4
	c1.8-0.5,3.7,0,5.1,1.1c1.2,1,3.7,2.7,6.4,2.2c1.3-0.2,2.5-1.2,3.7-2.3c2.3-2,4.7-4,8.7-1.1l-0.1,0.1c-4-2.9-6.3-0.9-8.5,1.1
	c-1.2,1-2.4,2-3.7,2.3c-2.7,0.5-5.2-1.2-6.5-2.2c-1.4-1.2-3.3-1.6-5-1.1c-1.5,0.4-2.6,1.3-3.8,2.4c-1.1,1-2.3,2-4,2.6
	C72.8,49.4,71.8,49.5,70.9,49.5z"/>
<circle class="st24" cx="83.7" cy="43.7" r="1"/>
</svg>
