<svg version="1.1" id="Layer_1" xmlns="http://www.w3.org/2000/svg" x="0" y="0" viewBox="0 0 283.5 245.3" xml:space="preserve"><style>.st1{fill:#fff}.st2{fill:#bdbdbd}.st3{fill:#ff5252}.st4{fill:#ff0}.st5{fill:#69f0ae}.st6{fill:#e0e0e0}.st11{fill:#3c6fe9}.st13{fill:#2196f3}</style><linearGradient id="SVGID_1_" gradientUnits="userSpaceOnUse" x1="216.294" y1="519.654" x2="216.294" y2="655.367" gradientTransform="matrix(1 0 0 -1 0 764.96)"><stop offset="0" stop-color="gray" stop-opacity=".25"/><stop offset=".54" stop-color="gray" stop-opacity=".12"/><stop offset="1" stop-color="gray" stop-opacity=".1"/></linearGradient><path fill="url(#SVGID_1_)" d="M149.1 109.6h134.3v135.7H149.1z"/><path class="st1" d="M151 131.1h130.7v110.6H151z"/><path class="st2" d="M151 111h130.7v20.1H151z"/><ellipse transform="rotate(-80.781 161.008 121.013)" class="st3" cx="161" cy="121" rx="5" ry="5"/><circle class="st4" cx="173.8" cy="121" r="5"/><circle class="st5" cx="186.6" cy="121" r="5"/><path class="st6" d="M162.5 157h107.7v6.7H162.5zm0 17.3h107.7v6.7H162.5zm0 17.4h107.7v6.7H162.5zm0 17.3h107.7v6.7H162.5z"/><linearGradient id="SVGID_2_" gradientUnits="userSpaceOnUse" x1="205.689" y1="592.189" x2="205.689" y2="617.257" gradientTransform="matrix(1 0 0 -1 0 764.96)"><stop offset="0" stop-color="gray" stop-opacity=".25"/><stop offset=".54" stop-color="gray" stop-opacity=".12"/><stop offset="1" stop-color="gray" stop-opacity=".1"/></linearGradient><circle cx="205.7" cy="160.2" r="12.5" fill="url(#SVGID_2_)"/><linearGradient id="SVGID_3_" gradientUnits="userSpaceOnUse" x1="236.542" y1="574.834" x2="236.542" y2="599.902" gradientTransform="matrix(1 0 0 -1 0 764.96)"><stop offset="0" stop-color="gray" stop-opacity=".25"/><stop offset=".54" stop-color="gray" stop-opacity=".12"/><stop offset="1" stop-color="gray" stop-opacity=".1"/></linearGradient><circle cx="236.5" cy="177.6" r="12.5" fill="url(#SVGID_3_)"/><linearGradient id="SVGID_4_" gradientUnits="userSpaceOnUse" x1="221.115" y1="557.479" x2="221.115" y2="582.547" gradientTransform="matrix(1 0 0 -1 0 764.96)"><stop offset="0" stop-color="gray" stop-opacity=".25"/><stop offset=".54" stop-color="gray" stop-opacity=".12"/><stop offset="1" stop-color="gray" stop-opacity=".1"/></linearGradient><circle cx="221.1" cy="194.9" r="12.5" fill="url(#SVGID_4_)"/><linearGradient id="SVGID_5_" gradientUnits="userSpaceOnUse" x1="264.181" y1="540.124" x2="264.181" y2="565.192" gradientTransform="matrix(1 0 0 -1 0 764.96)"><stop offset="0" stop-color="gray" stop-opacity=".25"/><stop offset=".54" stop-color="gray" stop-opacity=".12"/><stop offset="1" stop-color="gray" stop-opacity=".1"/></linearGradient><circle cx="264.2" cy="212.3" r="12.5" fill="url(#SVGID_5_)"/><circle class="st11" cx="205.7" cy="160.2" r="10.6"/><circle class="st11" cx="236.5" cy="177.6" r="10.6"/><circle class="st11" cx="221.1" cy="194.9" r="10.6"/><circle class="st5" cx="264.2" cy="212.3" r="10.6"/><linearGradient id="SVGID_6_" gradientUnits="userSpaceOnUse" x1="67.17" y1="629.248" x2="67.17" y2="764.961" gradientTransform="matrix(1 0 0 -1 0 764.96)"><stop offset="0" stop-color="gray" stop-opacity=".25"/><stop offset=".54" stop-color="gray" stop-opacity=".12"/><stop offset="1" stop-color="gray" stop-opacity=".1"/></linearGradient><path fill="url(#SVGID_6_)" d="M0 0h134.3v135.7H0z"/><path class="st1" d="M1.8 21.5h130.7v110.6H1.8z"/><path class="st2" d="M1.8 1.4h130.7v20.1H1.8z"/><circle class="st3" cx="11.9" cy="11.4" r="5"/><circle class="st4" cx="24.7" cy="11.4" r="5"/><circle class="st5" cx="37.5" cy="11.4" r="5"/><path class="st6" d="M30.4 48h12.3v57.6H30.4zm20.4 0h12.3v57.6H50.8zm20.4 0h12.3v57.6H71.2zm20.4 0h12.3v57.6H91.6z"/><path class="st13" d="M30.4 76.8h12.3v28.8H30.4z"/><path class="st13" d="M30.4 64.7h12.3v12.6H30.4z" opacity=".4"/><path opacity=".4" fill="#69f0ae" d="M50.9 70.7h12.3v12.6H50.9z"/><path opacity=".4" fill="#ff0" d="M91.6 71.4h12.3V84H91.6z"/><path class="st5" d="M50.8 83h12.3v22.5H50.8z"/><path class="st11" d="M71.2 72.6h12.3v33H71.2z"/><path opacity=".4" fill="#3c6fe9" d="M71.2 61.1h12.3v11.5H71.2z"/><path class="st4" d="M91.6 84h12.3v21.5H91.6z"/><linearGradient id="SVGID_7_" gradientUnits="userSpaceOnUse" x1="130.162" y1="577.681" x2="130.162" y2="713.394" gradientTransform="matrix(1 0 0 -1 0 764.96)"><stop offset="0" stop-color="gray" stop-opacity=".25"/><stop offset=".54" stop-color="gray" stop-opacity=".12"/><stop offset="1" stop-color="gray" stop-opacity=".1"/></linearGradient><path fill="url(#SVGID_7_)" d="M63 51.6h134.3v135.7H63z"/><path class="st1" d="M64.8 73h130.7v110.6H64.8z"/><path class="st2" d="M64.8 52.9h130.7V73H64.8z"/><circle class="st3" cx="74.9" cy="63" r="5"/><circle class="st4" cx="87.7" cy="63" r="5"/><circle class="st5" cx="100.5" cy="63" r="5"/><path class="st13" d="M130.2 90.4h-.2v75.8h.2c20.9 0 37.9-17 37.9-37.9s-17-37.9-37.9-37.9z"/><path class="st5" d="M129.9 90.4c-20.8.1-37.6 16.9-37.7 37.7h37.7V90.4z"/><linearGradient id="SVGID_8_" gradientUnits="userSpaceOnUse" x1="268.852" y1="528.273" x2="268.852" y2="568.083" gradientTransform="matrix(1 0 0 -1 -159 696.59)"><stop offset="0" stop-color="gray" stop-opacity=".25"/><stop offset=".54" stop-color="gray" stop-opacity=".12"/><stop offset="1" stop-color="gray" stop-opacity=".1"/></linearGradient><path d="M90.2 128.5v.2c0 21.8 17.6 39.4 39.3 39.6v-39.8H90.2z" fill="url(#SVGID_8_)"/><path class="st11" d="M91.3 129v.2c0 20.9 16.8 37.8 37.7 37.9V129H91.3z"/></svg>