<svg version="1.1" id="ebf8a77a-edff-4dc3-b5b4-de0e5991af45" xmlns="http://www.w3.org/2000/svg" x="0" y="0" viewBox="0 0 425.2 322.4" xml:space="preserve"><style>.st1{fill:#3f3d56}.st2{fill:#f2f2f2}.st3{fill:none;stroke:#3f3d56;stroke-miterlimit:10}.st4{fill:#3c6fe9}.st5{fill:#575a89}.st6{fill:#ffb9b9}.st7{opacity:.1;enable-background:new}.st8{fill:#2f2e41}</style><path d="M198.9 79.1c-21.4 10.7-44.7 15.4-67.5 19s-45.7 6.4-68.2 13.9c-14.4 4.9-29.7 12.7-36.8 24.9-6.9 11.7-4.3 24.2-.7 35.1 2.7 8.2 6.2 16.5 13.7 21.5 5.2 3.5 11.9 5.1 17.6 8.1 19.7 10.3 22.8 34.4 19.7 56.6-1.5 10.4-4 21-4 31.2s3 20.3 11.1 26.4c8 6 20.1 7.2 31.9 6.2 24-1.9 48.2-11.9 71.2-22.6 50.9-23.7 99.7-51.9 148.4-80.1 18-10.4 36.1-20.9 52.7-33.2 9.2-6.9 18.3-14.7 22.5-24.2 5.4-12 1.3-25-9.6-30.4-18.3-9-48.9 2.9-64.6-8.9-8.7-6.5-9.8-18.4-8.4-29.5 3-24 15.6-50.4 6-70.6-6.6-13.9-23.9-22-42.9-20-20 2.2-42 15.2-47.9 32.8-6.1 18.1-25.3 34.3-44.2 43.8z" opacity=".1" fill="#89daf8"/><ellipse class="st1" cx="326.1" cy="273.5" rx="41" ry="5.3"/><path class="st2" d="M49.2 51.1h123.7v77.2H49.2z"/><path class="st3" d="M57 43.6h123.7v77.2H57z"/><path class="st1" d="M137.9 100.9c10.4-10.4 10.4-27.3 0-37.7-5-5-11.8-7.8-18.9-7.8V82l18.9 18.9z"/><path class="st4" d="M119 55.4c-14.7 0-26.7 11.9-26.7 26.7 0 9.8 5.3 18.8 13.9 23.4L119 82V55.4z"/><path class="st5" d="M137.9 100.9L119 82l-12.8 23.4c10.5 5.7 23.3 3.9 31.7-4.5z"/><path class="st4" d="M61.7 104.8h5.1v5.1h-5.1z"/><path class="st1" d="M69.1 104.8h5.1v5.1h-5.1z"/><path class="st5" d="M76.5 104.8h5.1v5.1h-5.1z"/><path class="st1" d="M150 105.9h21v.9h-21zm0 2.5h21v.9h-21zm0 2.6h21v.9h-21z"/><path class="st2" d="M88.1 158.7h70.4v77.2H88.1z"/><path class="st3" d="M95.2 151.3h70.4v77.2H95.2z"/><path class="st4" d="M98.9 219.8h3.8v3.8h-3.8z"/><path class="st1" d="M104.4 219.8h3.8v3.8h-3.8z"/><path class="st5" d="M109.8 219.8h3.8v3.8h-3.8z"/><path class="st1" d="M141.5 221.4h14.8v.6h-14.8zm0 1.8h14.8v.6h-14.8zm0 1.8h14.8v.6h-14.8zm-11.1-60.1v6.2c10.3 0 18.7 8.4 18.7 18.7 0 5-2 9.7-5.5 13.2l4.4 4.4c9.8-9.8 9.8-25.6 0-35.3-4.6-4.6-11-7.2-17.6-7.2z"/><path class="st5" d="M148 207.6l-4.4-4.4c-6.6 6.6-17.1 7.3-24.6 1.7l-3.8 5c10 7.4 24 6.5 32.8-2.3z"/><path class="st4" d="M111.7 189.9c0-10.3 8.4-18.7 18.7-18.7V165c-13.8 0-25 11.2-25 25 0 7.8 3.6 15.2 9.9 19.9l3.8-5c-4.7-3.6-7.5-9.2-7.4-15z"/><path class="st6" d="M313.6 83.3s-1.2 8.6 1.8 9.6 2.2 8.6 2.2 8.6l-8.9 6.8-7.9.7-2-10.3 1.2-2.6s4.5-5.3 1.3-10.8c-3.2-5.5 12.3-2 12.3-2z"/><path class="st7" d="M313.6 83.3s-1.2 8.6 1.8 9.6 2.2 8.6 2.2 8.6l-8.9 6.8-7.9.7-2-10.3 1.2-2.6s4.5-5.3 1.3-10.8c-3.2-5.5 12.3-2 12.3-2z"/><path class="st5" d="M305.3 150.3l-10.4 24.5s-8.1-4.6-12.9-4.1-10.8-5.3-10.8-5.3l6-28.8 11.1-30.6 15.4 9.8 1.6 34.5z"/><path class="st7" d="M305.3 150.3l-10.4 24.5s-8.1-4.6-12.9-4.1-10.8-5.3-10.8-5.3l6-28.8 11.1-30.6 15.4 9.8 1.6 34.5z"/><path class="st5" d="M321.7 254.4v7.9h-7.4l1.1-9.2zm19.4-13.8l5.4 3.4-3.9 9.1-4.2-.5-3.9-5.7z"/><path class="st8" d="M323.2 148l9.8 23s-3.5 25.5-3.3 27.6.3 3-.5 4.8-1.2 3-.7 5.1.7 3 .3 3.8c-.3.8-2.6 34.9-3.8 37.2-1.2 2.3.7 6.1-.5 6.5s-9.8-.5-10.3-2.5 1.7-6.8.5-8.3c-1.2-1.5.2-55.1-1.5-58.7-1.7-3.6-19.9-6.9-19.9-6.9s-1.7-10.6-.7-12.2c1-1.7 2.3-12.1 2.3-12.1l28.3-7.3zm-9.6 113s4.6-5.5 8.6 0c0 0 .3 6.5 3.1 7.8 2.8 1.3 1.5 6.6-2.5 6.8s-9.1.8-9.3-1.3.7-3.5-.8-4.1c-1.5-.7 0-4.5 0-4.5l.9-4.7z"/><path class="st8" d="M314.1 181.9s-.2 11.9-1.3 13.6-1.8 2.6-1.2 4.5c.7 1.8 1.7 5.1 1.2 5.8s.5 4.1.5 4.1S326 216 332 228.7c0 0 6.1 10.1 7.9 10.3 1.8.2 4-1.2 3 2.6s-4.8 8.8-7.6 8.3-5-5.3-5-5.3-22-22.3-24.3-23c-2.3-.7-8.9-6-10.1-9.3-1.2-3.3-3.6-30.9-2.5-32.8s5.5-4.3 5.5-4.3l15.2 6.7z"/><path class="st8" d="M342.7 240s10.3.3 10.4 2.8-4.3 17.2-3.6 20.7-5.1 11.4-8.9 9.8c-3.8-1.7-.8-10.3-.8-10.3s-3.8-11.7-3.1-11.9 7.3-2.2 6.9-4.1c-.4-2.1-.9-7-.9-7z"/><circle class="st6" cx="305.9" cy="81.9" r="10.3"/><path class="st4" d="M316.3 97.7s-5.6 6-9.8 5c-4.1-1-6.3-8.1-6.3-8.1l-7.4-1.3s-5.3 23.5-5.3 25.8c0 2.3 5.3 27.3 5.3 31.8s-4.3 7.1 2.3 6.9c6.6-.2 3.5-2.3 13.1-2.5 9.6-.2 11.1 2 13.1-1.5 1.4-2.3 3-4.3 5-6.1l-3.5-12.2-.5-34.6s-4.2-8.3-6.2-7.6c-.1-.1 1 3.6.2 4.4z"/><path class="st5" d="M314.2 91.8s8.8 1 11.3 2.8c2.5 1.8 9.4 3.1 9.3 4.5-.2 1.3-8.1 20.2-8.1 20.2s-3.6 14.9-.5 18.4c3.1 3.5 14.9 41.4 12.9 44.5s-8.3-9.6-8.3-9.6-8.4-27.3-13.1-31.9-5-29.6-5-30.8c.1-1.3 1.5-18.1 1.5-18.1zm-12.9 1.9s-10.9-4.1-14.7-2.4-6.1 2-6.1 2l-1.3 16.2s-.5 23.3-4.8 29c-4.3 5.6-7.1 29.1-6.5 31.4.7 2.3-1.2 6.3 1.7 5.3 2.8-1 10.6-23.8 10.6-23.8s0-13.1 4.6-16.7 12.2-18.7 12.6-22.3c.3-3.6 3.5-13.7 3.5-13.7l.4-5z"/><path class="st6" d="M338.6 145.9s-5 9.3-5.6 10.9c-.7 1.7-5.3 12.9-11.9 10.4s6.5-14.6 6.5-14.6l3-10.1c-.1 0 7.7-1.6 8 3.4z"/><path class="st5" d="M282.2 93.2h-1.7s-1.7-1.3-3.6-.5c-2 .8-6.6-.3-6.6.2s-5.1-1.5-7.3-.5-9.9 1.3-9.9 1.3-3.1 7.9-1 9.4c2.2 1.5 5.3.3 6.8 1.5s4.3-.2 5.3 1.3 4.6 4.1 5.5 2.5c.8-1.7-.8-3.1 2.6-1.3s8.9 1.8 8.9 1.8l1-15.7z"/><path class="st8" d="M306.9 74.3c-1.4-.3-2.8 0-4.2.3-1.4.2-3 .3-4.1-.5-.9-.6-1.4-1.5-1.9-2.5-.2-.3-.4-.7-.4-1.1-.1-.7.4-1.3.8-1.8 2.1-2.4 5.3-3.6 8.4-4 2.6-.3 5.3-.1 7.7.9 2.4 1 4.5 3 5.4 5.4.4 1.2.7 2.5.8 3.9.1 1 .2 2 .1 2.9-.1.7-.3 1.4-.6 2.1l-1.6 4.7c-.1.4-.3.9-.6 1.2-.3.4-.8.5-1.2.3.1-.5.1-1 .1-1.6-.1-.5-.5-.9-1-1-.6-.1-1.1.4-1.6.6-1 .3-2.2-.3-2.5-1.3v-.2c-.1-.5.1-1.1-.1-1.6-.2-.6-.9-.9-1.3-1.3-.9-.8-1.2-2.1-.9-3.2.1-.4.5-.6.4-1-.4-.6-1.2-1-1.7-1.2z"/><path class="st2" d="M193.1 110.4h70.4v77.2h-70.4z"/><path class="st3" d="M200.2 103h70.4v77.2h-70.4z"/><path fill="none" stroke="#3f3d56" stroke-width="2" stroke-miterlimit="10" d="M207 107.9v59h57.1"/><path class="st5" d="M210.1 146.2h12.8v20.4h-12.8z"/><path class="st1" d="M228.6 132.3h12.8v34.3h-12.8z"/><path class="st4" d="M247 116.1h12.8v50.5H247zm-40.8 55.4h3.8v3.8h-3.8z"/><path class="st1" d="M211.6 171.5h3.8v3.8h-3.8z"/><path class="st5" d="M217.1 171.5h3.8v3.8h-3.8z"/><path class="st1" d="M248.7 173.2h14.8v.6h-14.8zm0 1.8h14.8v.6h-14.8zm0 1.8h14.8v.6h-14.8z"/><path class="st6" d="M254.8 93.7c3 .1 5.3 2.9 4.9 5.9-.3 2.7-1.4 6.1-4.8 7.4-6.1 2.3-5.8-10.8-4.6-11.2.7-.4 1.9-2.2 4.5-2.1z"/><path class="st5" d="M333 98.2l1.8.9s4 8.1 4.1 9.3c.2 1.2 2.8 5.5 1.8 6.6-1 1.2-2.5 4.1-1.5 5.3 1 1.2 3.3 5.8 3.3 7.4s-2.5 6.1-.8 6.6 1.2 6.9.8 7.4-4.6 8.6-4.6 8.6-.8-9.3-8.9-5.5c0 0-.7-4.6 0-5 .7-.3 2.3-2.3 1-2.6-1.3-.3-3.1-4.3-2.8-4.8.3-.5 1.2-1.2.3-1.7-.8-.5-1.5-3.3-1.3-3.8.2-.5-1.8-2.8-1.8-2.8l8.6-25.9z"/></svg>