<?xml version="1.0" encoding="utf-8"?>
<!-- Generator: Adobe Illustrator 23.0.3, SVG Export Plug-In . SVG Version: 6.00 Build 0)  -->
<svg version="1.1" id="ebf8a77a-edff-4dc3-b5b4-de0e5991af45"
	 xmlns="http://www.w3.org/2000/svg" xmlns:xlink="http://www.w3.org/1999/xlink" x="0px" y="0px" viewBox="0 0 425.2 322.4"
	 style="enable-background:new 0 0 425.2 322.4;" xml:space="preserve">
<style type="text/css">
	.st0{opacity:0.1;fill:#89DAF8;enable-background:new    ;}
	.st1{fill:#3F3D56;}
	.st2{fill:#F2F2F2;}
	.st3{fill:none;stroke:#3F3D56;stroke-miterlimit:10;}
	.st4{fill:#3C6FE9;}
	.st5{fill:#575A89;}
	.st6{fill:#FFB9B9;}
	.st7{opacity:0.1;enable-background:new    ;}
	.st8{fill:#2F2E41;}
	.st9{fill:none;stroke:#3F3D56;stroke-width:2;stroke-miterlimit:10;}
</style>
<title>setup analytics</title>
<path class="st0" d="M198.9,79.1c-21.4,10.7-44.7,15.4-67.5,19s-45.7,6.4-68.2,13.9c-14.4,4.9-29.7,12.7-36.8,24.9
	c-6.9,11.7-4.3,24.2-0.7,35.1c2.7,8.2,6.2,16.5,13.7,21.5c5.2,3.5,11.9,5.1,17.6,8.1c19.7,10.3,22.8,34.4,19.7,56.6
	c-1.5,10.4-4,21-4,31.2s3,20.3,11.1,26.4c8,6,20.1,7.2,31.9,6.2c24-1.9,48.2-11.9,71.2-22.6c50.9-23.7,99.7-51.9,148.4-80.1
	c18-10.4,36.1-20.9,52.7-33.2c9.2-6.9,18.3-14.7,22.5-24.2c5.4-12,1.3-25-9.6-30.4c-18.3-9-48.9,2.9-64.6-8.9
	c-8.7-6.5-9.8-18.4-8.4-29.5c3-24,15.6-50.4,6-70.6c-6.6-13.9-23.9-22-42.9-20c-20,2.2-42,15.2-47.9,32.8
	C237,53.4,217.8,69.6,198.9,79.1z"/>
<ellipse class="st1" cx="326.1" cy="273.5" rx="41" ry="5.3"/>
<rect x="49.2" y="51.1" class="st2" width="123.7" height="77.2"/>
<rect x="57" y="43.6" class="st3" width="123.7" height="77.2"/>
<path class="st1" d="M137.9,100.9c10.4-10.4,10.4-27.3,0-37.7c-5-5-11.8-7.8-18.9-7.8V82L137.9,100.9z"/>
<path class="st4" d="M119,55.4c-14.7,0-26.7,11.9-26.7,26.7c0,9.8,5.3,18.8,13.9,23.4L119,82V55.4z"/>
<path class="st5" d="M137.9,100.9L119,82l-12.8,23.4C116.7,111.1,129.5,109.3,137.9,100.9L137.9,100.9z"/>
<rect x="61.7" y="104.8" class="st4" width="5.1" height="5.1"/>
<rect x="69.1" y="104.8" class="st1" width="5.1" height="5.1"/>
<rect x="76.5" y="104.8" class="st5" width="5.1" height="5.1"/>
<rect x="150" y="105.9" class="st1" width="21" height="0.9"/>
<rect x="150" y="108.4" class="st1" width="21" height="0.9"/>
<rect x="150" y="111" class="st1" width="21" height="0.9"/>
<rect x="88.1" y="158.7" class="st2" width="70.4" height="77.2"/>
<rect x="95.2" y="151.3" class="st3" width="70.4" height="77.2"/>
<rect x="98.9" y="219.8" class="st4" width="3.8" height="3.8"/>
<rect x="104.4" y="219.8" class="st1" width="3.8" height="3.8"/>
<rect x="109.8" y="219.8" class="st5" width="3.8" height="3.8"/>
<rect x="141.5" y="221.4" class="st1" width="14.8" height="0.6"/>
<rect x="141.5" y="223.2" class="st1" width="14.8" height="0.6"/>
<rect x="141.5" y="225" class="st1" width="14.8" height="0.6"/>
<path class="st1" d="M130.4,164.9v6.2c10.3,0,18.7,8.4,18.7,18.7c0,5-2,9.7-5.5,13.2l4.4,4.4c9.8-9.8,9.8-25.6,0-35.3
	C143.4,167.5,137,164.9,130.4,164.9z"/>
<path class="st5" d="M148,207.6l-4.4-4.4c-6.6,6.6-17.1,7.3-24.6,1.7l-3.8,5C125.2,217.3,139.2,216.4,148,207.6z"/>
<path class="st4" d="M111.7,189.9c0-10.3,8.4-18.7,18.7-18.7v-6.2c-13.8,0-25,11.2-25,25c0,7.8,3.6,15.2,9.9,19.9l3.8-5
	C114.4,201.3,111.6,195.7,111.7,189.9z"/>
<path class="st6" d="M313.6,83.3c0,0-1.2,8.6,1.8,9.6s2.2,8.6,2.2,8.6l-8.9,6.8l-7.9,0.7l-2-10.3l1.2-2.6c0,0,4.5-5.3,1.3-10.8
	C298.1,79.8,313.6,83.3,313.6,83.3z"/>
<path class="st7" d="M313.6,83.3c0,0-1.2,8.6,1.8,9.6s2.2,8.6,2.2,8.6l-8.9,6.8l-7.9,0.7l-2-10.3l1.2-2.6c0,0,4.5-5.3,1.3-10.8
	C298.1,79.8,313.6,83.3,313.6,83.3z"/>
<path class="st5" d="M305.3,150.3l-10.4,24.5c0,0-8.1-4.6-12.9-4.1s-10.8-5.3-10.8-5.3l6-28.8l11.1-30.6l15.4,9.8L305.3,150.3z"/>
<path class="st7" d="M305.3,150.3l-10.4,24.5c0,0-8.1-4.6-12.9-4.1s-10.8-5.3-10.8-5.3l6-28.8l11.1-30.6l15.4,9.8L305.3,150.3z"/>
<polygon class="st5" points="321.7,254.4 321.7,262.3 314.3,262.3 315.4,253.1 "/>
<polygon class="st5" points="341.1,240.6 346.5,244 342.6,253.1 338.4,252.6 334.5,246.9 "/>
<path class="st8" d="M323.2,148l9.8,23c0,0-3.5,25.5-3.3,27.6s0.3,3-0.5,4.8s-1.2,3-0.7,5.1s0.7,3,0.3,3.8
	c-0.3,0.8-2.6,34.9-3.8,37.2c-1.2,2.3,0.7,6.1-0.5,6.5s-9.8-0.5-10.3-2.5c-0.5-2,1.7-6.8,0.5-8.3c-1.2-1.5,0.2-55.1-1.5-58.7
	c-1.7-3.6-19.9-6.9-19.9-6.9s-1.7-10.6-0.7-12.2c1-1.7,2.3-12.1,2.3-12.1L323.2,148z"/>
<path class="st8" d="M313.6,261c0,0,4.6-5.5,8.6,0c0,0,0.3,6.5,3.1,7.8c2.8,1.3,1.5,6.6-2.5,6.8s-9.1,0.8-9.3-1.3s0.7-3.5-0.8-4.1
	c-1.5-0.7,0-4.5,0-4.5L313.6,261z"/>
<path class="st8" d="M314.1,181.9c0,0-0.2,11.9-1.3,13.6s-1.8,2.6-1.2,4.5c0.7,1.8,1.7,5.1,1.2,5.8s0.5,4.1,0.5,4.1
	S326,216,332,228.7c0,0,6.1,10.1,7.9,10.3c1.8,0.2,4-1.2,3,2.6c-1,3.8-4.8,8.8-7.6,8.3c-2.8-0.5-5-5.3-5-5.3s-22-22.3-24.3-23
	c-2.3-0.7-8.9-6-10.1-9.3c-1.2-3.3-3.6-30.9-2.5-32.8s5.5-4.3,5.5-4.3L314.1,181.9z"/>
<path class="st8" d="M342.7,240c0,0,10.3,0.3,10.4,2.8s-4.3,17.2-3.6,20.7s-5.1,11.4-8.9,9.8c-3.8-1.7-0.8-10.3-0.8-10.3
	s-3.8-11.7-3.1-11.9s7.3-2.2,6.9-4.1C343.2,244.9,342.7,240,342.7,240z"/>
<circle class="st6" cx="305.9" cy="81.9" r="10.3"/>
<path class="st4" d="M316.3,97.7c0,0-5.6,6-9.8,5c-4.1-1-6.3-8.1-6.3-8.1l-7.4-1.3c0,0-5.3,23.5-5.3,25.8c0,2.3,5.3,27.3,5.3,31.8
	c0,4.5-4.3,7.1,2.3,6.9c6.6-0.2,3.5-2.3,13.1-2.5c9.6-0.2,11.1,2,13.1-1.5c1.4-2.3,3-4.3,5-6.1l-3.5-12.2l-0.5-34.6
	c0,0-4.2-8.3-6.2-7.6C316,93.2,317.1,96.9,316.3,97.7z"/>
<path class="st5" d="M314.2,91.8c0,0,8.8,1,11.3,2.8c2.5,1.8,9.4,3.1,9.3,4.5c-0.2,1.3-8.1,20.2-8.1,20.2s-3.6,14.9-0.5,18.4
	c3.1,3.5,14.9,41.4,12.9,44.5s-8.3-9.6-8.3-9.6s-8.4-27.3-13.1-31.9s-5-29.6-5-30.8C312.8,108.6,314.2,91.8,314.2,91.8z"/>
<path class="st5" d="M301.3,93.7c0,0-10.9-4.1-14.7-2.4s-6.1,2-6.1,2l-1.3,16.2c0,0-0.5,23.3-4.8,29c-4.3,5.6-7.1,29.1-6.5,31.4
	c0.7,2.3-1.2,6.3,1.7,5.3c2.8-1,10.6-23.8,10.6-23.8s0-13.1,4.6-16.7s12.2-18.7,12.6-22.3c0.3-3.6,3.5-13.7,3.5-13.7L301.3,93.7z"/>
<path class="st6" d="M338.6,145.9c0,0-5,9.3-5.6,10.9c-0.7,1.7-5.3,12.9-11.9,10.4s6.5-14.6,6.5-14.6l3-10.1
	C330.5,142.5,338.3,140.9,338.6,145.9z"/>
<path class="st5" d="M282.2,93.2h-1.7c0,0-1.7-1.3-3.6-0.5c-2,0.8-6.6-0.3-6.6,0.2s-5.1-1.5-7.3-0.5c-2.2,1-9.9,1.3-9.9,1.3
	s-3.1,7.9-1,9.4c2.2,1.5,5.3,0.3,6.8,1.5c1.5,1.2,4.3-0.2,5.3,1.3c1,1.5,4.6,4.1,5.5,2.5c0.8-1.7-0.8-3.1,2.6-1.3s8.9,1.8,8.9,1.8
	L282.2,93.2z"/>
<path class="st8" d="M306.9,74.3c-1.4-0.3-2.8,0-4.2,0.3c-1.4,0.2-3,0.3-4.1-0.5c-0.9-0.6-1.4-1.5-1.9-2.5c-0.2-0.3-0.4-0.7-0.4-1.1
	c-0.1-0.7,0.4-1.3,0.8-1.8c2.1-2.4,5.3-3.6,8.4-4c2.6-0.3,5.3-0.1,7.7,0.9c2.4,1,4.5,3,5.4,5.4c0.4,1.2,0.7,2.5,0.8,3.9
	c0.1,1,0.2,2,0.1,2.9c-0.1,0.7-0.3,1.4-0.6,2.1l-1.6,4.7c-0.1,0.4-0.3,0.9-0.6,1.2c-0.3,0.4-0.8,0.5-1.2,0.3c0.1-0.5,0.1-1,0.1-1.6
	c-0.1-0.5-0.5-0.9-1-1c-0.6-0.1-1.1,0.4-1.6,0.6c-1,0.3-2.2-0.3-2.5-1.3c0-0.1,0-0.1,0-0.2c-0.1-0.5,0.1-1.1-0.1-1.6
	c-0.2-0.6-0.9-0.9-1.3-1.3c-0.9-0.8-1.2-2.1-0.9-3.2c0.1-0.4,0.5-0.6,0.4-1C308.2,74.9,307.4,74.5,306.9,74.3z"/>
<rect x="193.1" y="110.4" class="st2" width="70.4" height="77.2"/>
<rect x="200.2" y="103" class="st3" width="70.4" height="77.2"/>
<polyline class="st9" points="207,107.9 207,166.9 264.1,166.9 "/>
<rect x="210.1" y="146.2" class="st5" width="12.8" height="20.4"/>
<rect x="228.6" y="132.3" class="st1" width="12.8" height="34.3"/>
<rect x="247" y="116.1" class="st4" width="12.8" height="50.5"/>
<rect x="206.2" y="171.5" class="st4" width="3.8" height="3.8"/>
<rect x="211.6" y="171.5" class="st1" width="3.8" height="3.8"/>
<rect x="217.1" y="171.5" class="st5" width="3.8" height="3.8"/>
<rect x="248.7" y="173.2" class="st1" width="14.8" height="0.6"/>
<rect x="248.7" y="175" class="st1" width="14.8" height="0.6"/>
<rect x="248.7" y="176.8" class="st1" width="14.8" height="0.6"/>
<path class="st6" d="M254.8,93.7c3,0.1,5.3,2.9,4.9,5.9c-0.3,2.7-1.4,6.1-4.8,7.4c-6.1,2.3-5.8-10.8-4.6-11.2
	C251,95.4,252.2,93.6,254.8,93.7z"/>
<path class="st5" d="M333,98.2l1.8,0.9c0,0,4,8.1,4.1,9.3c0.2,1.2,2.8,5.5,1.8,6.6c-1,1.2-2.5,4.1-1.5,5.3c1,1.2,3.3,5.8,3.3,7.4
	s-2.5,6.1-0.8,6.6c1.7,0.5,1.2,6.9,0.8,7.4s-4.6,8.6-4.6,8.6s-0.8-9.3-8.9-5.5c0,0-0.7-4.6,0-5c0.7-0.3,2.3-2.3,1-2.6
	c-1.3-0.3-3.1-4.3-2.8-4.8c0.3-0.5,1.2-1.2,0.3-1.7c-0.8-0.5-1.5-3.3-1.3-3.8c0.2-0.5-1.8-2.8-1.8-2.8L333,98.2z"/>
</svg>
