<?xml version="1.0" encoding="utf-8"?>
<!-- Generator: Adobe Illustrator 23.0.2, SVG Export Plug-In . SVG Version: 6.00 Build 0)  -->
<svg version="1.1" id="Layer_1" xmlns="http://www.w3.org/2000/svg" xmlns:xlink="http://www.w3.org/1999/xlink" x="0px" y="0px"
	 viewBox="0 0 283.5 245.3" style="enable-background:new 0 0 283.5 245.3;" xml:space="preserve">
<style type="text/css">
	.st0{fill:url(#SVGID_1_);}
	.st1{fill:#FFFFFF;}
	.st2{fill:#BDBDBD;}
	.st3{fill:#FF5252;}
	.st4{fill:#FFFF00;}
	.st5{fill:#69F0AE;}
	.st6{fill:#E0E0E0;}
	.st7{fill:url(#SVGID_2_);}
	.st8{fill:url(#SVGID_3_);}
	.st9{fill:url(#SVGID_4_);}
	.st10{fill:url(#SVGID_5_);}
	.st11{fill:#3C6FE9;}
	.st12{fill:url(#SVGID_6_);}
	.st13{fill:#2196F3;}
	.st14{opacity:0.4;}
	.st15{opacity:0.4;fill:#69F0AE;enable-background:new    ;}
	.st16{opacity:0.4;fill:#FFFF00;enable-background:new    ;}
	.st17{opacity:0.4;fill:#3C6FE9;enable-background:new    ;}
	.st18{fill:url(#SVGID_7_);}
	.st19{fill:url(#SVGID_8_);}
</style>
<title>analytics</title>
<linearGradient id="SVGID_1_" gradientUnits="userSpaceOnUse" x1="216.2944" y1="519.6545" x2="216.2944" y2="655.3672" gradientTransform="matrix(1 0 0 -1 0 764.9606)">
	<stop  offset="0" style="stop-color:#808080;stop-opacity:0.25"/>
	<stop  offset="0.54" style="stop-color:#808080;stop-opacity:0.12"/>
	<stop  offset="1" style="stop-color:#808080;stop-opacity:0.1"/>
</linearGradient>
<rect x="149.1" y="109.6" class="st0" width="134.3" height="135.7"/>
<rect x="151" y="131.1" class="st1" width="130.7" height="110.6"/>
<rect x="151" y="111" class="st2" width="130.7" height="20.1"/>
<ellipse transform="matrix(0.1602 -0.9871 0.9871 0.1602 15.7627 260.558)" class="st3" cx="161" cy="121" rx="5" ry="5"/>
<circle class="st4" cx="173.8" cy="121" r="5"/>
<circle class="st5" cx="186.6" cy="121" r="5"/>
<rect x="162.5" y="157" class="st6" width="107.7" height="6.7"/>
<rect x="162.5" y="174.3" class="st6" width="107.7" height="6.7"/>
<rect x="162.5" y="191.7" class="st6" width="107.7" height="6.7"/>
<rect x="162.5" y="209" class="st6" width="107.7" height="6.7"/>
<linearGradient id="SVGID_2_" gradientUnits="userSpaceOnUse" x1="205.6886" y1="592.1887" x2="205.6886" y2="617.257" gradientTransform="matrix(1 0 0 -1 0 764.9606)">
	<stop  offset="0" style="stop-color:#808080;stop-opacity:0.25"/>
	<stop  offset="0.54" style="stop-color:#808080;stop-opacity:0.12"/>
	<stop  offset="1" style="stop-color:#808080;stop-opacity:0.1"/>
</linearGradient>
<circle class="st7" cx="205.7" cy="160.2" r="12.5"/>
<linearGradient id="SVGID_3_" gradientUnits="userSpaceOnUse" x1="236.5419" y1="574.8337" x2="236.5419" y2="599.902" gradientTransform="matrix(1 0 0 -1 0 764.9606)">
	<stop  offset="0" style="stop-color:#808080;stop-opacity:0.25"/>
	<stop  offset="0.54" style="stop-color:#808080;stop-opacity:0.12"/>
	<stop  offset="1" style="stop-color:#808080;stop-opacity:0.1"/>
</linearGradient>
<circle class="st8" cx="236.5" cy="177.6" r="12.5"/>
<linearGradient id="SVGID_4_" gradientUnits="userSpaceOnUse" x1="221.1152" y1="557.4787" x2="221.1152" y2="582.547" gradientTransform="matrix(1 0 0 -1 0 764.9606)">
	<stop  offset="0" style="stop-color:#808080;stop-opacity:0.25"/>
	<stop  offset="0.54" style="stop-color:#808080;stop-opacity:0.12"/>
	<stop  offset="1" style="stop-color:#808080;stop-opacity:0.1"/>
</linearGradient>
<circle class="st9" cx="221.1" cy="194.9" r="12.5"/>
<linearGradient id="SVGID_5_" gradientUnits="userSpaceOnUse" x1="264.1813" y1="540.1237" x2="264.1813" y2="565.192" gradientTransform="matrix(1 0 0 -1 0 764.9606)">
	<stop  offset="0" style="stop-color:#808080;stop-opacity:0.25"/>
	<stop  offset="0.54" style="stop-color:#808080;stop-opacity:0.12"/>
	<stop  offset="1" style="stop-color:#808080;stop-opacity:0.1"/>
</linearGradient>
<circle class="st10" cx="264.2" cy="212.3" r="12.5"/>
<circle class="st11" cx="205.7" cy="160.2" r="10.6"/>
<circle class="st11" cx="236.5" cy="177.6" r="10.6"/>
<circle class="st11" cx="221.1" cy="194.9" r="10.6"/>
<circle class="st5" cx="264.2" cy="212.3" r="10.6"/>
<linearGradient id="SVGID_6_" gradientUnits="userSpaceOnUse" x1="67.1702" y1="629.2479" x2="67.1702" y2="764.9606" gradientTransform="matrix(1 0 0 -1 0 764.9606)">
	<stop  offset="0" style="stop-color:#808080;stop-opacity:0.25"/>
	<stop  offset="0.54" style="stop-color:#808080;stop-opacity:0.12"/>
	<stop  offset="1" style="stop-color:#808080;stop-opacity:0.1"/>
</linearGradient>
<rect class="st12" width="134.3" height="135.7"/>
<rect x="1.8" y="21.5" class="st1" width="130.7" height="110.6"/>
<rect x="1.8" y="1.4" class="st2" width="130.7" height="20.1"/>
<circle class="st3" cx="11.9" cy="11.4" r="5"/>
<circle class="st4" cx="24.7" cy="11.4" r="5"/>
<circle class="st5" cx="37.5" cy="11.4" r="5"/>
<rect x="30.4" y="48" class="st6" width="12.3" height="57.6"/>
<rect x="50.8" y="48" class="st6" width="12.3" height="57.6"/>
<rect x="71.2" y="48" class="st6" width="12.3" height="57.6"/>
<rect x="91.6" y="48" class="st6" width="12.3" height="57.6"/>
<rect x="30.4" y="76.8" class="st13" width="12.3" height="28.8"/>
<g class="st14">
	<rect x="30.4" y="64.7" class="st13" width="12.3" height="12.6"/>
</g>
<rect x="50.9" y="70.7" class="st15" width="12.3" height="12.6"/>
<rect x="91.6" y="71.4" class="st16" width="12.3" height="12.6"/>
<rect x="50.8" y="83" class="st5" width="12.3" height="22.5"/>
<rect x="71.2" y="72.6" class="st11" width="12.3" height="33"/>
<rect x="71.2" y="61.1" class="st17" width="12.3" height="11.5"/>
<rect x="91.6" y="84" class="st4" width="12.3" height="21.5"/>
<linearGradient id="SVGID_7_" gradientUnits="userSpaceOnUse" x1="130.1623" y1="577.6812" x2="130.1623" y2="713.3939" gradientTransform="matrix(1 0 0 -1 0 764.9606)">
	<stop  offset="0" style="stop-color:#808080;stop-opacity:0.25"/>
	<stop  offset="0.54" style="stop-color:#808080;stop-opacity:0.12"/>
	<stop  offset="1" style="stop-color:#808080;stop-opacity:0.1"/>
</linearGradient>
<rect x="63" y="51.6" class="st18" width="134.3" height="135.7"/>
<rect x="64.8" y="73" class="st1" width="130.7" height="110.6"/>
<rect x="64.8" y="52.9" class="st2" width="130.7" height="20.1"/>
<circle class="st3" cx="74.9" cy="63" r="5"/>
<circle class="st4" cx="87.7" cy="63" r="5"/>
<circle class="st5" cx="100.5" cy="63" r="5"/>
<path class="st13" d="M130.2,90.4h-0.2v75.8h0.2c20.9,0,37.9-17,37.9-37.9S151.1,90.4,130.2,90.4L130.2,90.4z"/>
<path class="st5" d="M129.9,90.4c-20.8,0.1-37.6,16.9-37.7,37.7h37.7V90.4z"/>
<linearGradient id="SVGID_8_" gradientUnits="userSpaceOnUse" x1="268.8522" y1="528.2731" x2="268.8522" y2="568.0835" gradientTransform="matrix(1 0 0 -1 -159 696.5906)">
	<stop  offset="0" style="stop-color:#808080;stop-opacity:0.25"/>
	<stop  offset="0.54" style="stop-color:#808080;stop-opacity:0.12"/>
	<stop  offset="1" style="stop-color:#808080;stop-opacity:0.1"/>
</linearGradient>
<path class="st19" d="M90.2,128.5c0,0.1,0,0.2,0,0.2c0,21.8,17.6,39.4,39.3,39.6v-39.8H90.2z"/>
<path class="st11" d="M91.3,129c0,0.1,0,0.2,0,0.2c0,20.9,16.8,37.8,37.7,37.9V129H91.3z"/>
</svg>
