<?xml version="1.0" encoding="utf-8"?>
<!-- Generator: Adobe Illustrator 23.0.2, SVG Export Plug-In . SVG Version: 6.00 Build 0)  -->
<svg version="1.1" id="fb638577-3af1-4e62-8e8d-f046cc0653af"
	 xmlns="http://www.w3.org/2000/svg" xmlns:xlink="http://www.w3.org/1999/xlink" x="0px" y="0px" viewBox="0 0 141.7 106.7"
	 style="enable-background:new 0 0 141.7 106.7;" xml:space="preserve">
<style type="text/css">
	.st0{opacity:0.1;fill:#3C6FE9;enable-background:new    ;}
	.st1{fill:none;stroke:#535461;stroke-width:0.2464;stroke-miterlimit:10;}
	.st2{fill:#3C6FE9;}
	.st3{opacity:0.25;enable-background:new    ;}
	.st4{fill:#C8CAD7;}
	.st5{opacity:0.1;enable-background:new    ;}
	.st6{fill:#474157;}
	.st7{fill:#F4F4F7;}
	.st8{fill:#FFFFFF;}
	.st9{fill:#EDEDF4;}
	.st10{fill:#65617D;}
	.st11{opacity:0.2;fill:#5A5773;enable-background:new    ;}
	.st12{fill:url(#SVGID_1_);}
	.st13{fill:#FBBEBE;}
	.st14{fill:#E7EFFD;}
	.st15{fill:#3F3D56;}
	.st16{fill:#E3A79F;}
	.st17{opacity:0.1;}
	.st18{fill:#6C63FF;}
	.st19{fill:#E9425E;}
	.st20{fill:url(#SVGID_2_);}
	.st21{fill:url(#SVGID_3_);}
</style>
<title>site stats</title>
<path class="st0" d="M137.9,73.1c-0.1,0.1-0.3,0.2-0.4,0.3c-0.5,0.3-1,0.6-1.6,0.9c-2.9,1.3-6.5,2-9.9,2.4c-7.8,1-15.7,1.2-23.6,1.4
	c-21.4,0.5-42.8,1-64.1-0.2c-8.4-0.5-17-1.3-24.7-3.7c-1.1-0.3-2.2-0.7-3.2-1.1c-2.1-0.8-4.2-1.9-5.9-3.1c-1.6-1.1-2.9-2.5-3.7-3.9
	c-1.6-3.1-0.8-6.6,1.1-9.7c0.8-1.2,1.6-2.4,2.6-3.5c1.4-1.7,3-3.4,4.4-5.1c5.1-6.1,8.4-13.8,3.7-20.1c-1.4-1.8-3.3-3.4-4.4-5.2
	c-1.4-2.4-1.3-5.1-0.9-7.6c0.1-0.3,0.1-0.7,0.2-1c0.8-3.8,2.2-8,6.6-10.4C18.8,1,25.3,1.1,31,2c8.9,1.4,17.1,4.3,25.3,6.9
	s16.9,5,26,5.3c8,0.2,17.4-1.5,22.7-5.9c5.2-4.3,14.9-4.6,21.9-2c4.8,1.8,8.4,5,9.9,8.6c0.3,0.7,0.5,1.5,0.7,2.2
	c0.1,0.7,0.2,1.4,0.1,2.1c0,0.3-0.1,0.7-0.1,1c-1.2,7.1-9.6,12.7-14.7,19c-2.5,3.1-4.3,6.8-2.5,10.2c2.6,5.1,11.8,6.9,17.3,10.7
	c1.1,0.7,2,1.5,2.7,2.4C142.9,65.9,141.9,70.4,137.9,73.1z"/>
<g id="bcb547b9-8dd8-4d76-924a-52de61933c6c">
	<path class="st1" d="M36.3,40c0,0-5.7-10-14.2-12.9c-3.6-1.2-6.7-3.5-8.9-6.6c-1-1.5-1.9-3.1-2.6-4.7"/>
	<path class="st2" d="M5.3,13.9c1,0.9,5.5,1.9,5.5,1.9s-1.1-4.5-2.1-5.4c-1-0.9-2.5-0.9-3.5,0.1C4.3,11.4,4.3,13,5.3,13.9z"/>
	<path class="st2" d="M7.9,22.1c1.3,0.3,5.7-1.4,5.7-1.4s-3.4-3.2-4.7-3.4c-1.3-0.2-2.6,0.7-2.8,2C5.7,20.5,6.6,21.8,7.9,22.1
		L7.9,22.1z"/>
	<path class="st2" d="M17.2,30.9c1.3-0.4,4.2-4,4.2-4s-4.5-1-5.8-0.6c-1.3,0.4-2,1.8-1.6,3.1c0.4,1.3,1.8,2,3.1,1.6
		C17.1,30.9,17.1,30.9,17.2,30.9L17.2,30.9z"/>
	<path class="st2" d="M25.8,35.9c1.3-0.2,4.8-3.3,4.8-3.3s-4.3-1.8-5.6-1.6c-1.3,0.2-2.2,1.5-2,2.8C23.1,35.3,24.4,36.2,25.8,35.9z"
		/>
	<path class="st2" d="M17.3,17.2c0,1.4-2.5,5.3-2.5,5.3s-2.5-3.9-2.5-5.3c0-1.4,1-2.5,2.4-2.5s2.5,1,2.5,2.4
		C17.3,17.1,17.3,17.1,17.3,17.2L17.3,17.2z"/>
	<path class="st2" d="M27.2,23.2c-0.4,1.3-3.9,4.3-3.9,4.3s-1.2-4.5-0.8-5.8c0.5-1.3,1.9-1.9,3.1-1.5C26.9,20.7,27.6,22,27.2,23.2
		L27.2,23.2z"/>
	<path class="st2" d="M36.1,30.4c-0.2,1.3-3.1,4.9-3.1,4.9s-1.9-4.2-1.7-5.6c0.2-1.3,1.4-2.3,2.7-2.1C35.3,27.8,36.3,29,36.1,30.4
		C36.1,30.4,36.1,30.4,36.1,30.4L36.1,30.4z"/>
	<path class="st3" d="M5.3,13.9c1,0.9,5.5,1.9,5.5,1.9s-1.1-4.5-2.1-5.4c-1-0.9-2.5-0.9-3.5,0.1C4.3,11.4,4.3,13,5.3,13.9z"/>
	<path class="st3" d="M7.9,22.1c1.3,0.3,5.7-1.4,5.7-1.4s-3.4-3.2-4.7-3.4c-1.3-0.2-2.6,0.7-2.8,2C5.7,20.5,6.6,21.8,7.9,22.1
		L7.9,22.1z"/>
	<path class="st3" d="M17.2,30.9c1.3-0.4,4.2-4,4.2-4s-4.5-1-5.8-0.6c-1.3,0.4-2,1.8-1.6,3.1c0.4,1.3,1.8,2,3.1,1.6
		C17.1,30.9,17.1,30.9,17.2,30.9L17.2,30.9z"/>
	<path class="st3" d="M25.8,35.9c1.3-0.2,4.8-3.3,4.8-3.3s-4.3-1.8-5.6-1.6c-1.3,0.2-2.2,1.5-2,2.8C23.1,35.3,24.4,36.2,25.8,35.9z"
		/>
	<path class="st3" d="M17.3,17.2c0,1.4-2.5,5.3-2.5,5.3s-2.5-3.9-2.5-5.3c0-1.4,1-2.5,2.4-2.5s2.5,1,2.5,2.4
		C17.3,17.1,17.3,17.1,17.3,17.2L17.3,17.2z"/>
	<path class="st3" d="M27.2,23.2c-0.4,1.3-3.9,4.3-3.9,4.3s-1.2-4.5-0.8-5.8c0.5-1.3,1.9-1.9,3.1-1.5C26.9,20.7,27.6,22,27.2,23.2
		L27.2,23.2z"/>
	<path class="st3" d="M36.1,30.4c-0.2,1.3-3.1,4.9-3.1,4.9s-1.9-4.2-1.7-5.6c0.2-1.3,1.4-2.3,2.7-2.1C35.3,27.8,36.3,29,36.1,30.4
		C36.1,30.4,36.1,30.4,36.1,30.4L36.1,30.4z"/>
	<path class="st1" d="M36,39.8c0,0-1.1-11.5-7.7-17.6c-2.8-2.6-4.7-5.9-5.4-9.6c-0.3-1.8-0.5-3.6-0.5-5.4"/>
	<path class="st2" d="M18.2,3.4c0.5,1.3,4.3,4,4.3,4s0.8-4.6,0.3-5.8c-0.5-1.3-1.9-1.9-3.2-1.4S17.7,2.1,18.2,3.4L18.2,3.4z"/>
	<path class="st2" d="M17.3,11.9c1.1,0.8,5.7,1,5.7,1s-1.8-4.3-2.9-5.1c-1.1-0.8-2.6-0.5-3.4,0.6C15.9,9.6,16.2,11.1,17.3,11.9
		L17.3,11.9z"/>
	<path class="st2" d="M22.2,23.7c1.4,0.1,5.5-2,5.5-2s-3.7-2.8-5.1-2.9c-1.3-0.1-2.6,0.8-2.7,2.2c-0.1,1.3,0.8,2.6,2.2,2.7
		C22.1,23.7,22.2,23.7,22.2,23.7L22.2,23.7z"/>
	<path class="st2" d="M28,31.8c1.3,0.3,5.7-1,5.7-1s-3.2-3.4-4.5-3.7c-1.3-0.3-2.7,0.4-3,1.8C25.9,30.1,26.7,31.5,28,31.8L28,31.8z"
		/>
	<path class="st2" d="M27.9,11.2c-0.5,1.2-4.4,3.8-4.4,3.8s-0.7-4.6-0.1-5.8C24,8,25.4,7.5,26.6,8C27.8,8.6,28.4,10,27.9,11.2z"/>
	<path class="st2" d="M34.5,20.8c-0.9,1-5.3,2.4-5.3,2.4s0.7-4.6,1.6-5.6c0.9-1,2.4-1.2,3.5-0.3C35.3,18.1,35.4,19.7,34.5,20.8
		C34.5,20.7,34.5,20.8,34.5,20.8z"/>
	<path class="st2" d="M39.7,31c-0.7,1.2-4.9,3.2-4.9,3.2s0-4.6,0.7-5.8c0.7-1.2,2.2-1.5,3.4-0.8C40,28.3,40.4,29.8,39.7,31L39.7,31z
		"/>
</g>
<ellipse class="st0" cx="78.8" cy="104.7" rx="41.3" ry="2.1"/>
<path class="st2" d="M32.8,100.7c0,0-5.2-0.3-4.6,3.3c0,0-0.1,0.6,0.5,0.9c0,0,0-0.3,0.5-0.2c0.2,0,0.4,0,0.6,0
	c0.3,0,0.5-0.1,0.7-0.3l0,0c0,0,1.5-0.6,2-3c0,0,0.4-0.5,0.4-0.7l-0.9,0.4c0,0,0.3,0.6,0.1,1.2c0,0,0-1.1-0.2-1.1
	c0,0-0.5,0.2-0.5,0.2s0.5,1.1,0.1,1.9c0,0,0.1-1.4-0.3-1.8l-0.6,0.4c0,0,0.6,1.1,0.2,2.1c0,0,0.1-1.4-0.3-2l-0.6,0.4
	c0,0,0.6,1.1,0.2,1.9c0,0,0-1.7-0.3-1.8c0,0-0.5,0.4-0.6,0.6c0,0,0.4,0.8,0.1,1.2c0,0-0.1-1.1-0.3-1.1c0,0-0.5,0.7-0.5,1.2
	c0,0,0-0.7,0.4-1.3c-0.3,0.1-0.5,0.2-0.7,0.4c0,0,0.1-0.5,0.9-0.6c0,0,0.4-0.6,0.5-0.6c0,0-0.8-0.1-1.3,0.1c0,0,0.4-0.5,1.4-0.3
	l0.6-0.5c0,0-1-0.1-1.5,0c0,0,0.5-0.4,1.6-0.1l0.6-0.4c0,0-0.9-0.2-1.4-0.1c0,0,0.6-0.3,1.6,0l0.4-0.2c0,0-0.6-0.1-0.8-0.1
	c-0.2,0-0.2-0.1-0.2-0.1c0.4-0.1,0.8,0,1.2,0.1C31.9,101.1,32.8,100.8,32.8,100.7z"/>
<ellipse class="st0" cx="29.2" cy="105.3" rx="3.7" ry="0.6"/>
<path class="st2" d="M23.7,100.9c0,0-2.9-0.2-2.6,1.9c0,0.2,0.1,0.4,0.3,0.5c0,0,0-0.2,0.3-0.1c0.1,0,0.2,0,0.3,0
	c0.1,0,0.3-0.1,0.4-0.2l0,0c0,0,0.8-0.3,1.1-1.7c0,0,0.2-0.3,0.2-0.4l-0.5,0.2c0,0,0.2,0.4,0,0.7c0,0,0-0.6-0.1-0.6
	c0,0-0.3,0.1-0.3,0.1s0.3,0.6,0.1,1.1c0,0,0.1-0.8-0.2-1l-0.4,0.2c0,0,0.3,0.6,0.1,1.2c0,0,0.1-0.8-0.2-1.1l-0.3,0.2
	c0,0,0.3,0.6,0.1,1.1c0,0,0-0.9-0.2-1c-0.1,0.1-0.2,0.2-0.3,0.3c0,0,0.2,0.5,0.1,0.7c0,0-0.1-0.6-0.2-0.6c0,0-0.3,0.4-0.3,0.7
	c0-0.3,0.1-0.5,0.2-0.7c-0.2,0-0.3,0.1-0.4,0.2c0,0,0-0.3,0.5-0.3c0,0,0.2-0.3,0.3-0.3c0,0-0.4,0-0.7,0.1c0,0,0.2-0.3,0.8-0.2
	l0.3-0.3c0,0-0.6-0.1-0.8,0c0,0,0.3-0.2,0.9-0.1l0.3-0.2c-0.3-0.1-0.5-0.1-0.8-0.1c0,0,0.3-0.2,0.9,0l0.2-0.1c0,0-0.4-0.1-0.5-0.1
	c-0.1,0-0.1,0-0.1,0c0.2,0,0.5,0,0.7,0.1C23.2,101.1,23.7,100.9,23.7,100.9z"/>
<ellipse class="st0" cx="21.6" cy="103.5" rx="2.1" ry="0.4"/>
<path class="st2" d="M29.3,96.5c0,0-3.5-0.2-3.1,2.3c0,0.3,0.1,0.5,0.3,0.6c0,0,0-0.2,0.4-0.1c0.1,0,0.3,0,0.4,0
	c0.2,0,0.3-0.1,0.5-0.2l0,0c0,0,1-0.4,1.4-2c0,0,0.3-0.4,0.3-0.4l-0.6,0.3c0,0,0.2,0.4,0,0.8c0,0,0-0.8-0.1-0.8c0,0-0.3,0.2-0.3,0.2
	s0.4,0.8,0.1,1.3c0,0,0.1-0.9-0.2-1.2l-0.4,0.2c0,0,0.4,0.8,0.1,1.4c0,0,0.1-1-0.2-1.4l-0.4,0.3c0,0,0.4,0.8,0.2,1.3
	c0,0,0-1.1-0.2-1.2c0,0-0.3,0.3-0.4,0.4c0,0,0.3,0.6,0.1,0.8c0,0-0.1-0.8-0.2-0.8c0,0-0.3,0.5-0.4,0.8c0-0.3,0.1-0.6,0.3-0.9
	c-0.2,0-0.4,0.1-0.5,0.3c0,0,0.1-0.4,0.6-0.4c0,0,0.3-0.4,0.3-0.4c0,0-0.5,0-0.9,0.1c0,0,0.3-0.3,1-0.2l0.4-0.3c0,0-0.7-0.1-1,0
	c0,0,0.3-0.3,1.1-0.1l0.4-0.2c0,0-0.6-0.1-1-0.1c0,0,0.4-0.2,1.1,0l0.3-0.1c0,0-0.4-0.1-0.6-0.1c-0.1,0-0.1-0.1-0.1-0.1
	c0.3,0,0.6,0,0.8,0.1C28.6,96.8,29.3,96.6,29.3,96.5z"/>
<ellipse class="st0" cx="26.8" cy="99.7" rx="2.5" ry="0.4"/>
<path class="st4" d="M83.4,101.9v1H54.9V102c4.8-1.8,7.3-7.2,5.5-12c-0.9-2.3-2.6-4.2-4.9-5.3h27.7c-2.6,1.2-4.5,3.5-5.2,6.2
	c-0.9,3.7,0.5,7.7,3.6,9.9C82.2,101.3,82.8,101.6,83.4,101.9z"/>
<path class="st5" d="M83.2,84.7c-2.6,1.2-4.5,3.5-5.2,6.2H60.7c-0.7-2.7-2.6-5-5.2-6.2H83.2z"/>
<path class="st4" d="M22.3,79.8v5.4c0,3,2.2,5.4,4.9,5.4H111c2.7,0,4.9-2.4,4.9-5.4v-5.4H22.3z"/>
<path class="st5" d="M83.4,101.9v1H54.9V102c0.8-0.3,1.5-0.7,2.2-1.2h24.5C82.2,101.3,82.8,101.6,83.4,101.9z"/>
<path class="st4" d="M46.7,101.2h45c0.6,0,1.2,0.5,1.2,1.2v0.5c0,0.6-0.5,1.2-1.2,1.2h-45c-0.6,0-1.2-0.5-1.2-1.2v-0.5
	C45.5,101.7,46,101.2,46.7,101.2z"/>
<path class="st6" d="M115.9,20.6c0-2.7-2.2-4.9-4.9-4.9l0,0H27.2c-2.7,0-4.9,2.2-4.9,4.9l0,0v60.3h93.6V20.6z"/>
<path class="st7" d="M113.3,22.8v51.8c0,1.3-1.1,2.4-2.4,2.4c0,0,0,0,0,0H27.2c-1.3,0-2.4-1.1-2.4-2.4c0,0,0,0,0,0V22.8
	c0-1.3,1.1-2.4,2.4-2.4h83.7C112.2,20.4,113.3,21.4,113.3,22.8L113.3,22.8z"/>
<circle class="st8" cx="69.1" cy="18" r="1.1"/>
<circle class="st8" cx="69.1" cy="85.5" r="2.8"/>
<path class="st8" d="M113.3,22.8H24.8c0-1.3,1.1-2.4,2.4-2.4c0,0,0,0,0,0h83.7C112.2,20.4,113.3,21.4,113.3,22.8
	C113.3,22.8,113.3,22.8,113.3,22.8z"/>
<circle class="st9" cx="27.2" cy="21.6" r="0.6"/>
<circle class="st9" cx="29" cy="21.6" r="0.6"/>
<circle class="st9" cx="30.9" cy="21.6" r="0.6"/>
<rect x="33.2" y="29.4" class="st8" width="71.4" height="41.7"/>
<path class="st10" d="M45.4,64.7H48v0.5h-2.6V64.7z M46.7,63.4c0.2,0,0.3-0.1,0.3-0.3c0-0.2-0.1-0.3-0.3-0.3c0,0-0.1,0-0.1,0
	l-0.7-0.5l0,0l0.5,0.7c0,0,0,0.1,0,0.1C46.4,63.2,46.5,63.4,46.7,63.4C46.7,63.4,46.7,63.4,46.7,63.4z"/>
<path class="st10" d="M46.7,60.9c-1.2,0-2.1,1-2.1,2.1c0,0.5,0.2,0.9,0.5,1.3h0.6l0,0l0.2-0.2l-0.2-0.2l-0.2,0.2
	c-0.2-0.2-0.3-0.6-0.4-0.9h0.3v-0.3H45c0-0.3,0.2-0.6,0.4-0.9l0.2,0.2l0.2-0.2l-0.2-0.2c0.2-0.2,0.6-0.3,0.9-0.4v0.3h0.3v-0.3
	c0.3,0,0.6,0.2,0.9,0.4L47.5,62l0.2,0.2L48,62c0.2,0.2,0.3,0.6,0.4,0.9H48v0.3h0.3c0,0.3-0.2,0.6-0.4,0.9l-0.2-0.2l-0.2,0.2l0.2,0.2
	l0,0h0.6c0.7-0.9,0.6-2.3-0.4-3C47.6,61,47.2,60.9,46.7,60.9L46.7,60.9z"/>
<path class="st10" d="M46.7,51.9c-0.2,0-0.3,0-0.4-0.1c0,0-0.1,0-0.1,0c0,0,0,0,0,0l0,0.5c0,0,0,0,0,0c0,0,0,0,0,0l0.1-0.1
	c0,0,0,0,0.1,0c0,0,0,0,0,0l0.2,0.3c0,0,0,0,0.1,0c0,0,0,0,0,0l0.2-0.3c0,0,0,0,0.1,0c0,0,0,0,0,0l0.1,0.1c0,0,0,0,0.1,0
	c0,0,0,0,0,0l0-0.5c0,0,0-0.1-0.1-0.1c0,0,0,0,0,0C47,51.9,46.8,51.9,46.7,51.9L46.7,51.9z"/>
<path class="st10" d="M48.1,50.6l-0.5-0.5c0-1.6-1-2.3-1-2.3s-1,0.7-1,2.3l-0.5,0.5c0,0,0,0,0,0.1l0.2,1.1c0,0,0,0.1,0.1,0.1
	c0,0,0,0,0,0l0.7-0.5c0.1,0.1,0.3,0.2,0.5,0.2c0.2,0,0.3-0.1,0.5-0.2l0.7,0.5c0,0,0.1,0,0.1,0c0,0,0,0,0,0L48.1,50.6
	C48.2,50.6,48.2,50.6,48.1,50.6z M46.7,49.6c-0.2,0-0.3-0.1-0.3-0.3s0.1-0.3,0.3-0.3c0.2,0,0.3,0.1,0.3,0.3c0,0,0,0,0,0
	C47,49.4,46.9,49.6,46.7,49.6L46.7,49.6z"/>
<path class="st10" d="M48.3,39.3L48.3,39.3c-0.1,0-0.2,0-0.2-0.1l0,0c-0.2-1.4-1-1.4-1-1.8c0-0.3,0.9-0.4,1-1.8l0,0
	c0-0.1,0.1-0.1,0.1-0.1h0.1c0.1,0,0.1-0.1,0.1-0.1c0-0.1-0.1-0.1-0.1-0.2c0,0,0,0,0,0H45c-0.1,0-0.1,0.1-0.1,0.1
	c0,0.1,0.1,0.1,0.1,0.2c0,0,0,0,0,0h0.1c0.1,0,0.1,0,0.1,0.1l0,0c0.2,1.4,1,1.4,1,1.8c0,0.3-0.9,0.4-1,1.8l0,0
	c0,0.1-0.1,0.1-0.1,0.1H45c-0.1,0-0.1,0.1-0.1,0.1c0,0.1,0.1,0.1,0.1,0.2c0,0,0,0,0,0h3.3c0.1,0,0.1-0.1,0.1-0.1c0,0,0,0,0,0
	C48.5,39.4,48.4,39.3,48.3,39.3z M45.7,39c0.3-0.8,0.8-0.7,0.8-1v-0.6c0-0.2-0.4-0.3-0.6-0.7c0,0,0-0.1,0-0.1c0,0,0,0,0,0h1.4
	c0,0,0.1,0,0.1,0.1c0,0,0,0,0,0c-0.2,0.3-0.6,0.5-0.6,0.7v0.6c0,0.3,0.5,0.2,0.8,1c0,0.1,0,0.2-0.1,0.2h-1.8
	C45.7,39.1,45.7,39.1,45.7,39z"/>
<path class="st11" d="M93.2,37.5c0,0.8-0.6,1.4-1.4,1.4H56.6c-0.8,0-1.4-0.6-1.4-1.3c0-0.8,0.6-1.4,1.3-1.4c0,0,0.1,0,0.1,0h35.2
	C92.6,36.1,93.2,36.7,93.2,37.5z"/>
<path class="st11" d="M93.2,50.2c0,0.8-0.6,1.4-1.4,1.4h0H56.6c-0.8,0-1.4-0.7-1.3-1.4c0-0.7,0.6-1.3,1.3-1.3h35.2
	C92.6,48.8,93.2,49.5,93.2,50.2z"/>
<path class="st11" d="M93.2,63c0,0.8-0.6,1.4-1.4,1.4H56.6c-0.8,0-1.4-0.6-1.4-1.3c0-0.8,0.6-1.4,1.3-1.4c0,0,0.1,0,0.1,0h35.2
	C92.6,61.7,93.2,62.3,93.2,63z"/>
<path class="st2" d="M86.1,36.1v2.7H56.6c-0.8,0-1.4-0.6-1.4-1.3c0-0.8,0.6-1.4,1.3-1.4c0,0,0.1,0,0.1,0H86.1z"/>
<path class="st2" d="M91.4,48.8v2.7H56.6c-0.8,0-1.4-0.7-1.3-1.4c0-0.7,0.6-1.3,1.3-1.3L91.4,48.8z"/>
<path class="st2" d="M78.5,61.7v2.7H56.6c-0.8,0-1.4-0.6-1.4-1.3c0-0.8,0.6-1.4,1.3-1.4c0,0,0.1,0,0.1,0L78.5,61.7z"/>
<linearGradient id="SVGID_1_" gradientUnits="userSpaceOnUse" x1="-494.6743" y1="-773.2342" x2="-494.6743" y2="-703.6409" gradientTransform="matrix(1 0 0 -1 605.84 -667.7283)">
	<stop  offset="0" style="stop-color:#808080;stop-opacity:0.25"/>
	<stop  offset="0.54" style="stop-color:#808080;stop-opacity:0.12"/>
	<stop  offset="1" style="stop-color:#808080;stop-opacity:0.1"/>
</linearGradient>
<path class="st12" d="M127.9,57.8c0.1-0.2-0.4-1.2-0.4-1.3s-0.5-0.6-0.5-0.9c0-0.3-0.7-1-0.7-1s-0.9-0.4-1-1.2s-1.1-0.9-1.1-0.9l0,0
	c0,0,0-0.1,0-0.2c0-0.3,0-0.7-0.1-1c-0.1-0.2-0.3-0.4-0.6-0.5c0,0-0.1-0.7-0.3-0.9c-0.2-0.2-0.3-0.6-0.2-0.9
	c0.1-0.3-0.1-1.1-0.6-1.2c-0.5-0.1-1-0.3-1-0.3s-0.1,0-0.1,0l-0.1,0c-0.1,0-0.2,0-0.4,0c-0.1,0-0.2,0-0.3-0.1
	c-0.2-0.2-1.5-0.5-1.8-0.5s-1-0.3-1-0.3l-0.7-0.6c-0.2-0.2-0.6-0.8-0.6-0.9l0,0l0,0l0,0c-0.1-0.1-0.1-0.3-0.2-0.4l0,0
	c0.2-0.3,0.5-0.5,0.6-0.9c0,0,0-0.1,0-0.1c0,0,0.1,0,0.1,0l0,0c0.2-0.1,0.3-0.2,0.4-0.4l0,0c0,0,0-0.1,0-0.1l0,0c0,0,0-0.1,0-0.1
	l0,0c0,0,0-0.1,0-0.1c0,0,0,0,0,0s0-0.1,0-0.1l0,0c0-0.1,0-0.2,0.1-0.4l0,0l0,0c0.1-0.5,0.4-0.8,0.6-1.3l0,0c0-0.1,0.1-0.1,0.1-0.2
	c0-0.1,0-0.1,0.1-0.2c0,0,0,0,0-0.1c0-0.1,0-0.1,0-0.2c0,0,0,0,0-0.1c0-0.1,0-0.1,0-0.2c0-0.4,0-0.8-0.2-1.2
	c-0.1-0.3-0.3-0.6-0.4-0.9c-0.2-0.5-0.2-1-0.5-1.5c-0.4-0.8-1.3-1.1-2.1-0.9c-0.4,0.1-0.7,0.4-1.1,0.5c-0.5,0.2-1,0-1.5,0
	c-0.5-0.1-1.1-0.1-1.5,0.3c-0.5,0.4-0.6,1.1-1.1,1.5c-0.2,0.2-0.4,0.3-0.6,0.5c-0.1,0.1-0.2,0.3-0.3,0.4c0,0,0,0,0,0c0,0,0,0,0,0
	c0,0,0,0,0,0.1c0,0,0,0,0,0c0,0,0,0.1,0,0.1l0,0c0,0,0,0.1,0,0.1c0,0,0,0,0,0c0,0,0,0,0,0.1v0c0,0,0,0.1,0,0.1c0,0,0,0,0,0
	c0,0,0,0,0,0c0.1,0.1,0.1,0.3,0.2,0.4c0,0.1,0,0.2,0,0.3c0,0.1-0.1,0.2-0.2,0.2c-0.3,0.3-0.6,0.8-0.8,1.2c0,0.1,0,0.1-0.1,0.2l0,0
	l0,0c0,0,0.1,0,0.1,0c0,0,0.1,0,0.1,0c0.1,0,0.2,0,0.3,0l0.1,0c0.1,0,0.2-0.1,0.3-0.1c0,0,0,0.1,0,0.1c0,0,0,0,0,0.1
	c0,1.5,0.9,2.9,2.2,3.6l0,0.1l0,0.1l0,0c0,0-0.3-0.2-0.6,0.3c-0.2,0.3-0.5,0.5-0.8,0.6c0,0-3.1,0.5-3.2,0.9l-1.4,0.1
	c0,0-0.5,0.1-0.6,1.1s-0.3,1.2-0.3,1.2s-0.6,1-0.5,1.6c0.1,0.5-0.5,0.8-0.5,0.8l-0.1,1c0,0-0.6-0.1-0.7,0.6c-0.2,0.7-0.4,1-0.4,1
	s-0.9,0.8-1,1.4l-0.6,0.4c0,0-1.3-0.3-1.6-0.8l-0.1-0.1c0,0,0,0,0,0l0,0c-0.2-0.2-0.6-0.6-0.6-0.5c0,0.1,0,0.2,0,0.3l-0.1-0.1L98,55
	c0,0-2-2.3-3.2-2.4l0,0c-0.3,0.1-0.5,0.3-0.6,0.5c-0.2,0.5-0.3,1.4,0.1,1.9l2,2.1l0.1,0l0.4,0.6c-0.1,0.2-0.1,0.3-0.2,0.5v0
	c0,0,0,0.1,0,0.1l0,0c0,0,0,0.1,0,0.1c0,0,0,0,0,0.1c0,0,0,0,0,0c0,0.2-0.1,0.3-0.1,0.4l-0.1,0l0.1,0c0,0,0,0,0,0c0,0,0,0,0,0
	c0,0,0.1,0,0.1,0c0.6,0.3,3.5,1.6,3.7,1.7c0.2,0.2,1.3,0.9,2.3,0.3c1-0.5,1.2-1.4,1.2-1.4s1-1.4,1-1.6c0-0.2,0.8-0.4,0.8-0.4
	s0.1,2.2-0.3,3.1c-0.4,0.8-1.1,4.5-1.1,4.5c0,0,0.1,0,0.1,0l0,0.2c0.1,0,0.1,0,0.2,0c-0.1,0.4-0.4,2.3-0.4,2.3s-0.1,0.9-0.3,1.2
	s-0.2,1.9-0.2,1.9l-0.3,1.1c0,0,0,0.1,0.1,0.2l0,0c0,0,0.3,0.6,0.8,1c0,0.2-0.1,0.4-0.1,0.5c-0.1,0.3-0.2,0.5-0.1,0.8
	c0,0-0.3,1.3-0.3,1.7c0,0.4-0.2,1.3-0.2,1.3l-0.3,2.9c0,0-0.2,2.5-0.1,3.2c0.1,0.7-0.1,1.6-0.1,1.6s0.2,2,0.2,2.2
	c-0.1,0.2-0.3,1.2-0.2,1.7c0.2,0.5,0.1,1.9,0.1,1.9s0.1,1.9,0.2,2.5c0.1,0.6,0,1.4,0,1.4s-0.1,1.3-0.2,1.3c0,0-0.5,0.9,0.4,1.8
	c0.9,0.9,0.3,0.7,0.3,0.7s-0.7-0.4-0.6,0.4c0.1,0.7,0.2,0.5,0.2,0.5l-0.2,0.6l0.1,0c0,0-0.1,0.1-0.1,0.1c-0.1,0.1-0.2,0.2-0.3,0.4
	c-0.2,0.2-0.2,0.5-0.2,0.5s-1.2,1.4-2.4,2c-0.6,0.4-1.1,0.7-1.4,0.9c-0.2,0.2-0.2,0.4,0.3,0.6c0.9,0.3,2.5,0.5,3.7,0.1
	c0.7-0.2,1.3-0.6,1.8-1.2c0,0,0.7-0.4,1.4-0.2c0.7,0.1,2.1-0.8,2.1-0.8l0-0.2l-0.1-0.7c-0.1-0.1-0.1-0.3-0.1-0.4
	c0-0.2,0-0.4-0.1-0.6c0-0.1,0-0.1,0-0.2l0.1,0c0,0-0.2-0.9,0.1-1c0.3-0.2,0.2-2.4,0.2-2.4s-0.4-0.5-0.6-0.6s0-1.1,0-1.3
	c0-0.1,0.3-2.7,0.3-2.7s-0.1-0.8,0-1.2c0.1-0.4-0.2-1.7-0.2-1.7s-0.1-0.2,0.1-0.4c0.2-0.2,0.1-2,0.1-2s0-0.9,0-1.1
	c0-0.2,0.2-1.1,0.4-1.4c0.2-0.3,0.1-1.2,0.1-1.2l0,0l0-0.1c0,0,0-0.1,0-0.1l0-0.1c0.1-0.5,0.2-1,0.3-1.5c0.2-0.7,0.5-1.9,0.5-1.9
	l1.6-4.1l0,0c0,0,0.7,1.3,0.7,2.6c0,0,0.2,1.5,0.1,1.9c-0.1,0.4,0.2,2.3,0.2,2.3s0.2,2.7,0.2,2.8c0,0.1,0.3,2.2,0.4,2.5
	c0.2,0.3-0.2,1.3-0.3,1.4c-0.1,0.1,0,2.6,0,2.6s-0.3,1.9-0.3,2.3c-0.1,0.4-0.3,1.9-0.1,2.5c0.2,0.6,0.1,0.7,0.1,0.7s0.6,0.6,0.2,0.7
	c-0.5,0.1-0.8,0.6-0.7,1.1c0,0,0,0.1,0,0.1c0.2,0.6,0.5,1.2,0.7,1.8l0.3-0.1v0.2l0,1c0,0,0.1,1,0.1,1.2c-0.1,0.4-0.1,0.9-0.1,1.3
	c0,0.1,0,0.2,0,0.2s0,0.9,1.9,0.6c1.9-0.3,2.2-1,2.2-1s0,0,0-0.1c0-0.2,0.1-0.5,0.1-0.7c0.1-0.3-0.5-1.5-0.5-1.5s-0.1-0.8-0.3-1
	c-0.1-0.1-0.1-0.2-0.1-0.4c0-0.1,0-0.1,0-0.2c0,0,0.1,0,0.1,0c0.1,0-0.1-0.6,0.3-0.8c0.4-0.2,0.3-0.6,0.2-0.7
	c-0.1-0.2,0.2-1.1,0.2-1.1c-0.1-0.2,0-0.4,0.1-0.5c0.2-0.2,0.4-1.9,0.4-1.9l0-6.3c0,0,0.1-1.1,0-1.6s-0.3-1.3-0.1-1.6
	c0.2-0.2,0-1.3,0-1.3s0-2.3,0.3-2.9c0.3-0.6,0.2-4.2,0.2-4.2l0.1-2.4c0,0,0.6-0.5,0.4-3.2c0.6,0,1.3-0.1,1.4,0
	c0.2,0.2,1.4,0.9,2.1,0.4c0.2-0.1,0.8-0.7,0.8-0.7l-0.3-5c0.2,0.3,0.3,0.5,0.3,0.5c0-0.7,2-3,2-3s1.9-2.4,2.3-2.7
	c0.4-0.3,1.2-1.8,1.2-1.8c0.1-0.3,0.3-0.6,0.4-0.8C128.4,58.8,127.8,58,127.9,57.8z M123.5,59.6c-0.5,0.1-1.6,1.2-1.6,1.5
	c0,0.2-0.1,0.3-0.2,0.4c0-0.1,0-0.2,0-0.3c-0.1-1.5-0.2-3.3-0.2-3.5c0.1-0.3,0.1-1.7,0.1-1.7l0,0l0,0c0.3,1.1,1.4,2.3,1.4,2.3
	s0.2,0.5,0.4,0.6C123.6,58.9,123.5,59.6,123.5,59.6L123.5,59.6z"/>
<path class="st10" d="M96.5,59.2c0,0,0.6-3.2,2.6-3.2l1.4,3l-1,0.7C99.6,59.6,97.5,59.7,96.5,59.2z"/>
<path class="st5" d="M100.5,59l-1,0.7c0,0-1.5,0-2.5-0.2c-0.2,0-0.4-0.1-0.5-0.2c0,0,0,0,0-0.1c0,0,0,0,0,0c0.1-0.4,0.2-0.8,0.4-1.2
	c0.1-0.1,0.1-0.3,0.2-0.4c0.3-0.6,0.7-1.1,1.3-1.4c0.2-0.1,0.4-0.2,0.7-0.2h0.1h0l0,0.1l0.5,1L100.5,59z"/>
<path class="st10" d="M117,72.4c0,0,2.1-0.2,2.3-0.1s1.4,0.9,2.1,0.4c0.7-0.5,0.2-2.2,0.2-2.2c0-0.1-0.1-2.4-0.1-2.4l-1.2-1.7
	l-1.6-2.9l-3.2-0.3l0.1,4.7l0,2.4L117,72.4z"/>
<path class="st5" d="M117,72.4c0,0,2.1-0.2,2.3-0.1s1.4,0.9,2.1,0.4c0.7-0.5,0.2-2.2,0.2-2.2c0-0.1-0.1-2.4-0.1-2.4l-1.2-1.7
	l-1.6-2.9l-3.2-0.3l0.1,4.7l0,2.4L117,72.4z"/>
<path class="st13" d="M98.7,55.9c0,0-0.2,2-1.4,2.1c0,0-0.4-0.2-0.8-0.6c-1.1-0.8-2.9-2.4-2.4-3.9c0.7-2.1,4.1,1.8,4.1,1.8l0.3,0.3
	L98.7,55.9z"/>
<path class="st5" d="M98.7,55.9c0,0-0.2,2-1.4,2.1c0,0-0.4-0.2-0.8-0.6l-0.1-0.1c0.2,0.1,0.5,0.2,0.7,0.2c0.4,0,0.8-0.2,0.9-0.6
	c0.1-0.3,0.3-0.5,0.4-0.8c0.1-0.2,0.1-0.3,0.1-0.5L98.7,55.9z"/>
<path class="st14" d="M98.1,59.6l-0.3-0.4l-1-1.2l-0.5-0.6c0.2,0.1,0.5,0.2,0.7,0.2c0.4,0,0.8-0.2,0.9-0.6c0.1-0.3,0.3-0.5,0.3-0.8
	c0.2-0.4,0.2-0.7,0.1-0.8c-0.1-0.1,0.4,0.3,0.5,0.5l0,0l0.1,0.1l0,0.1l0.5,1c0,0,0,0,0,0C99.6,57.4,99.8,59.3,98.1,59.6z"/>
<path class="st10" d="M108.1,102.3c0,0-1.4,0.9-2.1,0.8c-0.7-0.1-1.4,0.2-1.4,0.2c-0.5,0.5-1.1,0.9-1.8,1.1
	c-1.1,0.4-2.7,0.2-3.6-0.1c-0.4-0.1-0.5-0.3-0.3-0.5c0.2-0.2,0.7-0.6,1.4-0.9c1.1-0.7,2.4-2,2.4-2s0-0.3,0.2-0.5
	c0.1-0.1,0.2-0.2,0.3-0.3c0.2-0.2,0.3-0.4,0.3-0.4l4.1,0.1c0,0,0.1,0.3,0.1,0.6c0,0.2,0.1,0.4,0.1,0.6c0,0.1,0,0.3,0.1,0.4l0.1,0.7
	L108.1,102.3z"/>
<path class="st10" d="M116.7,103.5c0,0.2-0.1,0.6-0.1,0.7c0,0.1,0,0.1,0,0.1s-0.3,0.7-2.2,1s-1.8-0.6-1.8-0.6s0-0.1,0-0.2
	c0-0.4,0.1-0.9,0.1-1.3c0.1-0.2-0.1-1.2-0.1-1.2l0-1l0-0.7l3.1-0.3c0,0.2,0.1,0.5,0.1,0.7c0,0.1,0.1,0.2,0.1,0.3
	c0.2,0.2,0.3,1,0.3,1S116.7,103.2,116.7,103.5z"/>
<path class="st5" d="M107.7,99.8c0,0,0.1,0.3,0.1,0.6c-0.4,0.1-2.4,0.4-2.9,0.2c-0.5-0.3-1.7-0.4-1.7-0.4l0-0.1
	c0.2-0.2,0.3-0.4,0.3-0.4L107.7,99.8z"/>
<path class="st5" d="M115.7,100.7c-0.8-0.1-2.5,0.2-3.1,0.3l0-0.7l3.1-0.3C115.7,100.2,115.7,100.5,115.7,100.7z"/>
<path class="st15" d="M117.5,75.5l-0.1,2.3c0,0,0.1,3.6-0.2,4.1c-0.2,0.6-0.2,2.8-0.2,2.8s0.2,1.1,0,1.3c-0.2,0.2-0.1,1.1,0.1,1.5
	c0.1,0.4,0,1.6,0,1.6l0,6.3c0,0-0.2,1.6-0.4,1.9c-0.1,0.1-0.2,0.3-0.1,0.5c0,0-0.2,0.9-0.2,1.1c0,0.2,0.2,0.5-0.2,0.7
	c-0.4,0.2-0.3,0.8-0.3,0.8c-0.9-0.2-3.5,0.4-3.5,0.4c-0.3-0.6-0.5-1.2-0.7-1.8c-0.2-0.5,0.1-1,0.6-1.2c0,0,0.1,0,0.1,0
	c0.3,0-0.2-0.7-0.2-0.7s0.1-0.1-0.1-0.7s0-2.1,0.1-2.5c0-0.4,0.3-2.3,0.3-2.3s-0.1-2.4,0-2.5s0.4-1.1,0.3-1.4
	c-0.2-0.3-0.4-2.4-0.4-2.5c0-0.1-0.2-2.8-0.2-2.8s-0.2-1.9-0.2-2.3c0-0.4-0.1-1.9-0.1-1.9c0-1.2-0.7-2.6-0.7-2.6l0,0l-1.5,4.1
	c0,0-0.2,1.2-0.5,1.9c-0.1,0.5-0.2,1-0.3,1.4l0,0.1c0,0,0,0.1,0,0.1l0,0.1l0,0c0,0,0.1,0.9-0.1,1.2c-0.2,0.3-0.4,1.1-0.4,1.4
	c0,0.2,0,1.1,0,1.1s0.1,1.8-0.1,2c-0.1,0.1-0.1,0.2-0.1,0.4c0,0,0.3,1.3,0.2,1.7c-0.1,0.3,0,1.2,0,1.2s-0.3,2.6-0.3,2.7
	c0,0.1-0.2,1.2,0,1.2c0.2,0.1,0.6,0.6,0.6,0.6s0.1,2.2-0.2,2.3c-0.3,0.2-0.1,1-0.1,1s-2.4,0.5-3,0.2c-0.5-0.3-1.7-0.4-1.7-0.4
	l0.2-0.5c0,0-0.1,0.2-0.2-0.5c-0.1-0.7,0.6-0.4,0.6-0.4s0.5,0.1-0.3-0.7c-0.9-0.9-0.4-1.7-0.4-1.7s0.2-1.3,0.2-1.3s0.2-0.8,0-1.4
	c-0.1-0.6-0.2-2.5-0.2-2.5s0.1-1.4-0.1-1.9c-0.1-0.5,0.1-1.4,0.1-1.7c0-0.2-0.1-2.2-0.1-2.2s0.2-0.9,0.1-1.6
	c-0.1-0.7,0.1-3.2,0.1-3.2l0.3-2.9c0,0,0.2-0.9,0.2-1.3c0-0.4,0.2-1.6,0.2-1.6c0-0.3,0-0.5,0.1-0.8c0.2-0.3,0.2-1.4,0.2-1.4l1.6-3.7
	l0.8-3.2l10.6-0.1c0,0,0,0.3,0.1,0.8c0.1,0.5,0.2,1.3,0.3,2.2c0.1,0.8,0.2,1.8,0.3,2.9C118.1,74.9,117.5,75.5,117.5,75.5z"/>
<path class="st13" d="M116.5,46.4L114,49c0,0-3.2-1.3-2.8-1.7c0.1-0.2,0.1-0.7,0-1.3c-0.1-0.9-0.4-2-0.4-2s5.5-0.9,5.1,0
	c-0.2,0.3-0.1,0.7,0,1.1C116,45.6,116.2,46,116.5,46.4z"/>
<path class="st5" d="M115.9,44.1c-0.2,0.3-0.2,0.4-0.1,0.7c-0.7,0.8-1.6,1.6-2.8,1.6c-0.6,0-1.2-0.1-1.8-0.4c-0.1-0.9-0.4-2-0.4-2
	S116.4,43.2,115.9,44.1z"/>
<path class="st13" d="M117,42.4c0,2.2-1.8,4-4,4c-2.2,0-3.9-1.8-4-4c0,0,0,0,0-0.1c0.1-2.2,1.9-3.9,4-3.9
	C115.2,38.5,116.9,40.3,117,42.4L117,42.4z"/>
<path class="st5" d="M117.5,68.5c-0.5,0-2.3,0-4.2,0h0l-0.6,0h0c-2.3,0-4.6-0.4-5.5-0.3c-1.9,0.2,0.7-1.8,0.7-1.8
	c1.5,0.4,2.9,0.5,4.4,0.4l0.6,0c1.8-0.1,3.5-0.3,4.5-0.5C117.3,66.8,117.4,67.6,117.5,68.5z"/>
<path class="st16" d="M117.5,68.4c-0.5,0-2.3,0-4.2,0h0l-0.6,0h0c-2.3,0-4.6-0.4-5.5-0.3c-1.9,0.2,0.7-1.8,0.7-1.8
	c1.5,0.4,2.9,0.5,4.4,0.4l0.6,0c1.8-0.1,3.5-0.3,4.5-0.5C117.3,66.7,117.4,67.5,117.5,68.4z"/>
<path class="st5" d="M111.9,47.5l-3.1,1.4l-2.4,18.2c0,0,1.4-0.6,2.2-0.2c0.8,0.4,3.3,0,3.3,0s1.8-0.1,2.1,0.1s3.4-0.8,3.4-0.8
	s0.6-1.3,0.1-1.5c-0.4-0.2,0.1-2.2,0.1-2.2l-0.3-13.2l-0.5-1.7l-1.4-0.9l-1.5,1.2l-0.7,0.1L111.9,47.5z"/>
<path class="st14" d="M111.9,47.3l-3.1,1.4L106.5,67c0,0,1.4-0.6,2.2-0.2s3.3,0,3.3,0s1.8-0.1,2.1,0.1c0.3,0.2,3.4-0.8,3.4-0.8
	s0.6-1.3,0.1-1.5c-0.4-0.2,0.1-2.2,0.1-2.2l-0.3-13.2l-0.5-1.7l-1.4-0.9l-1.5,1.2l-0.7,0.1L111.9,47.3z"/>
<path class="st5" d="M111.9,48.1c0,0,0.9,1,0.9,1.3c0,0.2-0.1,0.7-0.1,0.7l-0.7,1.3c0,0-0.4,1.7-0.4,2s-0.6,3.4-0.6,3.4l-0.7,4.7
	l-0.9,6.1l0.9,1.5l1.1-0.9l1.4-10.9l0.3-2.1c0,0,0.3-3.9,0.3-4.3s-0.2-1.4-0.2-1.4s0.2-1,1.1-1.2c0.9-0.2-0.1,0-0.1,0l-0.5-0.4
	l-0.4,0.2C113.4,48.1,112.1,47.7,111.9,48.1z"/>
<path class="st15" d="M111.8,48c0,0,0.9,1,0.9,1.3c0,0.2-0.1,0.7-0.1,0.7l-0.7,1.3c0,0-0.4,1.7-0.4,2s-0.6,3.4-0.6,3.4l-0.7,4.7
	l-0.9,6.1l0.9,1.5l1.1-0.9l1.4-10.9l0.3-2.1c0,0,0.3-3.9,0.3-4.3s-0.2-1.4-0.2-1.4s0.2-1,1.1-1.2c0.9-0.2-0.1-0.1-0.1-0.1l-0.5-0.4
	l-0.4,0.2C113.3,48,112,47.6,111.8,48z"/>
<path class="st5" d="M111.2,46.3c0,0-0.1,0.1-0.2,0.8c0,0.7-0.5,2.2-0.5,2.2s1.7-1.2,2.6-1.1L111.2,46.3z"/>
<path class="st14" d="M111.2,46.1c0,0-0.1,0.1-0.2,0.8c0,0.7-0.5,2.2-0.5,2.2s1.7-1.2,2.6-1.1L111.2,46.1z"/>
<path class="st5" d="M115.9,45.8l-2.7,2.4c0,0,2.3,1.4,2.6,1.7c0.3,0.3,0.6-3.3,0.6-3.3L115.9,45.8z"/>
<path class="st14" d="M116,45.6l-2.7,2.4c0,0,2.3,1.4,2.6,1.7c0.3,0.3,0.6-3.3,0.6-3.3L116,45.6z"/>
<path class="st5" d="M111.3,46.3c0,0-0.3-0.1-0.6,0.3c-0.2,0.3-0.5,0.5-0.8,0.6c0,0-3,0.5-3.1,0.9l-1.4,0.1c0,0-0.5,0.1-0.5,1.1
	c0,1-0.3,1.1-0.3,1.1s-0.6,1-0.5,1.6c0,0.5-0.4,0.8-0.4,0.8l2.1,5.4c0,0,0.1,2.2-0.3,3c-0.4,0.8-1.1,4.4-1.1,4.4s0.3-0.1,0.3,0.1
	s-0.4,2.4-0.4,2.4s-0.1,0.9-0.3,1.2c-0.2,0.3-0.2,1.9-0.2,1.9l-0.3,1.1c0,0,0.6,1.4,1.6,1.2c1-0.2,2.7-4,2.7-4l1.1-4.1l0.9-4
	l0.2-2.7l0.4-6l0.6-4C110.9,48.7,111.5,46.6,111.3,46.3z"/>
<path class="st10" d="M111.2,46.1c0,0-0.3-0.1-0.6,0.3c-0.2,0.3-0.5,0.5-0.8,0.6c0,0-3,0.5-3.1,0.9l-1.4,0.1c0,0-0.5,0.1-0.5,1.1
	c-0.1,1-0.3,1.1-0.3,1.1s-0.6,1-0.5,1.6c0,0.5-0.4,0.8-0.4,0.8l2.1,5.4c0,0,0.1,2.2-0.3,3c-0.4,0.8-1.1,4.4-1.1,4.4s0.3-0.1,0.3,0.1
	c0,0.2-0.4,2.4-0.4,2.4s-0.1,0.9-0.3,1.2s-0.2,1.9-0.2,1.9l-0.3,1.1c0,0,0.6,1.4,1.6,1.2s2.7-4,2.7-4l1.1-4.1l0.9-4l0.2-2.7l0.4-6
	l0.6-4C110.8,48.5,111.4,46.4,111.2,46.1z"/>
<path class="st5" d="M100.5,59l-1,0.7c0,0-1.5,0-2.5-0.2l-0.5-0.2l-0.1,0l0.1,0c0.6,0.2,1,0.2,1.3,0c1.4-0.5,1.2-2.7,1.2-3.2
	c0-0.1,0-0.1,0-0.1l0,0c0,0,0,0,0,0c0,0,0,0.1,0.1,0.1c0,0,0,0,0.1,0.1l0,0l0.5,1c0,0,0,0,0,0L100.5,59z"/>
<path class="st10" d="M103.9,52.5l-0.5,0.1l-0.1,0.9c0,0-0.5-0.1-0.7,0.6c-0.2,0.6-0.4,0.9-0.4,0.9s-0.9,0.8-1,1.4l-0.6,0.3
	c0,0-1.3-0.3-1.6-0.8c0,0,0.6,4.3-2.6,3.2c0,0,3.6,1.6,3.7,1.8s1.3,0.8,2.3,0.3c1-0.5,1.2-1.3,1.2-1.3s1-1.3,1-1.5
	c0-0.2,0.8-0.4,0.8-0.4l1.4-3.5L103.9,52.5z"/>
<path class="st5" d="M115.5,47.8l0.5-2.2c0,0,0.2,0.7,0.4,0.9l0.7,0.5c0,0,0.7,0.3,1,0.3s1.6,0.3,1.8,0.5c0.2,0.2,0.8,0.1,0.8,0.1
	s0.5,0.2,1,0.3s0.7,0.9,0.6,1.2c-0.1,0.3,0,0.7,0.2,0.9c0.2,0.2,0.3,0.8,0.3,0.8c0.2,0.1,0.4,0.3,0.6,0.5c0.2,0.4,0.1,1.2,0.1,1.2
	l-2.5,3.5c0,0,0,1.3-0.1,1.6c-0.1,0.3,0.3,5.4,0.3,5.4l0.5,8.7c0,0-0.7,0.6-0.8,0.6c-0.1,0.1-0.3-3.1-0.3-3.2s-3.8-5.8-3.8-5.8
	s-0.5-0.8-0.5-1s-0.5-1.9-0.5-1.9l-0.7-3.2L115.5,47.8z"/>
<path class="st10" d="M123.8,52.6c0,0.1,0,0.2,0,0.2l-2.5,3.5l0,0c0,0,0,1.3-0.1,1.6c-0.1,0.2,0.1,2,0.2,3.4c0.1,1.1,0.2,2,0.2,2
	l0.2,3.7l0.3,5c0,0-0.7,0.6-0.8,0.6c-0.1,0.1-0.3-3.1-0.3-3.2s-3.8-5.7-3.8-5.7s-0.5-0.8-0.5-1c0-0.2-0.5-1.9-0.5-1.9l-0.7-3.2
	l0.3-9.9l0.3-2.2c0,0,0.4,0.7,0.6,0.9s0.7,0.5,0.7,0.5s0.7,0.3,1,0.3c0.2,0,1.6,0.3,1.8,0.5s0.8,0.1,0.8,0.1s0.5,0.2,1,0.3
	s0.7,0.9,0.6,1.2c-0.1,0.3,0,0.7,0.2,0.9c0.2,0.2,0.3,0.8,0.3,0.8c0.2,0.1,0.4,0.3,0.6,0.5C123.8,51.9,123.8,52.4,123.8,52.6z"/>
<path class="st5" d="M103.5,96.9c0.1,0,3.6,0.1,3.5,0.7C106.9,98.2,103.5,96.9,103.5,96.9z"/>
<path class="st5" d="M104.3,97.9c0,0,2.3,0.4,1.7,0.7C105.4,98.9,104.3,97.9,104.3,97.9z"/>
<path class="st5" d="M113,96.6c0,0,3.9,0.3,3.3,0.8c-0.6,0.4-2,0.5-2,0.5C114.2,97.9,113,96.6,113,96.6z"/>
<path class="st5" d="M112.5,98.3c0,0,2.2,0.4,2.2,0.8S112.5,98.3,112.5,98.3z"/>
<path class="st5" d="M113.7,88.3c0,0,2,0.5,2.1,0.8L113.7,88.3z"/>
<path class="st5" d="M106.1,89.7c0,0-1,0.3,0,0.9C107,91.2,106.1,89.7,106.1,89.7z"/>
<path class="st5" d="M110.6,73.7c0.1,0,1.9-0.6,2.6-0.3c0.5,0.2,0.9,0.3,1.4,0.3L110.6,73.7z"/>
<path class="st5" d="M110.9,75.6l0,0.2l-1.5,4.1c0,0-0.2,1.2-0.5,1.9c-0.1,0.5-0.2,1-0.3,1.4l1.4-8.5L110.9,75.6z"/>
<path class="st15" d="M113.3,68.5l-0.6,0h0l-0.4-1.7l0.6,0L113.3,68.5z"/>
<path class="st13" d="M121.1,66.4l-0.4,0.3l-1.4,1.1c0,0-3.7,2-4.8,0.1c-0.9-1.7,3.3-2.9,4.4-3.1l0.2-0.1L121.1,66.4z"/>
<path class="st5" d="M105.2,50.1c0,0,0.7,0.3,0.9,0.8C106.2,51.3,105.2,50.1,105.2,50.1z"/>
<path class="st5" d="M102.9,55.1c0,0-1.1,1.3-0.6,1.8S102.9,55.1,102.9,55.1z"/>
<path class="st5" d="M121.9,50.8c0,0-1,0.1-1,1L121.9,50.8z"/>
<path class="st5" d="M112.7,64.4c0.1-0.1,2.4-3.5,2.9-3.2L112.7,64.4z"/>
<path class="st5" d="M117,42.4c0,0.7-0.2,1.3-0.5,1.9h0c-0.2-0.1-0.4-0.3-0.6-0.5c-0.2-0.2-0.6-0.3-0.9-0.1
	c-0.3,0.2-0.5,0.5-0.4,0.9c-0.1-0.5-0.1-1.1-0.2-1.6c-0.1-0.5-0.5-1.1-1-1.1c-0.2,0-0.5,0.1-0.6-0.1c-0.1-0.1-0.1-0.3-0.2-0.4
	c-0.4-0.6-1.5-0.3-1.9,0c-0.5,0.3-1,0.8-1.5,1c0.1-2.2,1.9-3.9,4-3.9C115.2,38.5,116.9,40.3,117,42.4L117,42.4z"/>
<path class="st15" d="M112.5,41.2c0.1,0.1,0.1,0.3,0.2,0.4c0.2,0.2,0.4,0.1,0.6,0.1c0.5,0,0.9,0.5,1,1.1c0.1,0.5,0.1,1.1,0.2,1.6
	c0-0.3,0.1-0.7,0.4-0.9c0.3-0.2,0.7-0.1,0.9,0.1c0.2,0.2,0.3,0.5,0.6,0.5c0.3,0.1,0.5-0.2,0.6-0.5c0.1-0.3,0.1-0.6,0.1-0.8
	c0.1-0.5,0.5-0.9,0.6-1.4c0.2-0.6,0.2-1.3,0-1.9c-0.1-0.3-0.3-0.6-0.4-0.9c-0.2-0.5-0.2-1-0.5-1.5c-0.4-0.8-1.3-1.1-2.1-0.8
	c-0.4,0.1-0.7,0.4-1,0.5c-0.5,0.2-1,0-1.5,0c-0.5-0.1-1.1-0.1-1.5,0.3c-0.5,0.4-0.6,1.1-1,1.5c-0.2,0.2-0.4,0.3-0.6,0.5
	c-0.2,0.2-0.4,0.4-0.3,0.7c0,0.3,0.4,0.7,0.2,1c0,0.1-0.1,0.2-0.2,0.2c-0.4,0.4-0.6,0.9-0.8,1.4c0.9,0.3,1.8-0.7,2.5-1.2
	C111,40.9,112.1,40.6,112.5,41.2z"/>
<path class="st5" d="M121.1,66.4l-0.4,0.3c-0.4-0.6-1.9-1.8-1.9-1.8l0.1-0.1l0.2-0.1L121.1,66.4z"/>
<path class="st14" d="M121.5,65.8c0,0-0.1,0.4-0.3,0.7c-0.2,0.3-0.3,0.6-0.3,0.4c0-0.5-1.9-2-1.9-2l0.3-0.3l0.3-0.3L121.5,65.8z"/>
<path class="st5" d="M121.6,63.3l0.2,3.7c-0.5-0.8-1.9-2.9-2.8-2.8l2.2-2.5c0.1-0.1,0.2-0.2,0.3-0.3
	C121.5,62.5,121.6,63.3,121.6,63.3z"/>
<path class="st5" d="M121.5,65.8c0,0-0.1,0.4-0.3,0.7c-0.6-0.8-1.4-1.7-2-1.9l0.3-0.3L121.5,65.8z"/>
<path class="st10" d="M123.2,52.4l0.6,0.5c0,0,1,0,1.1,0.8c0.1,0.8,1,1.2,1,1.2s0.7,0.7,0.7,1c0,0.3,0.5,0.9,0.5,0.9
	s0.5,1.1,0.4,1.2c-0.1,0.2,0.5,1,0.3,1.3c-0.2,0.3-0.3,0.5-0.4,0.8c0,0-0.8,1.5-1.2,1.8s-2.2,2.7-2.2,2.7s-2,2.3-2,3
	c0,0-1.9-3.2-3-3.1l2.2-2.5c0,0,0.4-0.4,0.4-0.7c0-0.2,1.1-1.4,1.6-1.4c0,0,0.1-0.7-0.1-0.7c-0.2,0-0.4-0.5-0.4-0.5
	s-1.5-1.7-1.5-2.8C121.2,54.6,123.2,52.4,123.2,52.4z"/>
<path class="st5" d="M124.1,53.9c0,0-1.4,1-1.1,1.4C123.3,55.6,124.1,53.9,124.1,53.9z"/>
<path class="st5" d="M124.1,58.2c0,0,2.6-0.8,2.9,0H124.1z"/>
<path class="st5" d="M108.1,102.3c0,0-1.4,0.9-2.1,0.8c-0.7-0.1-1.4,0.2-1.4,0.2c-0.5,0.5-1.1,0.9-1.8,1.1c-1.1,0.4-2.7,0.2-3.6-0.1
	c-0.4-0.1-0.5-0.3-0.3-0.5c1,0.2,3.2,0.6,3.7,0.3c0.8-0.4,1.9-1.2,1.9-1.2s1.4-0.2,1.6-0.2c0.1,0,1.2-0.5,1.9-0.7L108.1,102.3z"/>
<path class="st5" d="M116.5,104.2C116.5,104.3,116.5,104.3,116.5,104.2c0,0.1-0.3,0.8-2.2,1.1s-1.8-0.6-1.8-0.6s0-0.1,0-0.2
	C113.1,104.7,114.4,104.9,116.5,104.2z"/>
<path class="st5" d="M105.8,53.7c0,0,0,3.8-0.3,4.2C105.2,58.3,105.8,53.7,105.8,53.7z"/>
<path class="st5" d="M120.8,55l0.5,1.4C121.3,56.3,121.5,55,120.8,55z"/>
<g class="st17">
	<path d="M109.1,40.4c0.1-0.3-0.2-0.6-0.2-1c0,0.1-0.1,0.2-0.1,0.3C108.8,40,109,40.3,109.1,40.4C109.1,40.5,109.1,40.5,109.1,40.4z
		"/>
	<path d="M114.6,44c-0.1-0.5-0.1-1.1-0.2-1.6c-0.1-0.5-0.5-1.1-1-1.1c-0.2,0-0.5,0.1-0.6-0.1c-0.1-0.1-0.1-0.3-0.2-0.4
		c-0.4-0.6-1.5-0.3-1.9,0c-0.7,0.5-1.6,1.4-2.5,1.2c0,0.1-0.1,0.2-0.1,0.3c0.9,0.3,1.8-0.7,2.5-1.2c0.5-0.3,1.6-0.6,1.9,0
		c0.1,0.1,0.1,0.3,0.2,0.4c0.2,0.2,0.4,0.1,0.6,0.1c0.5,0,0.9,0.5,1,1.1c0.1,0.5,0.1,1.1,0.2,1.6C114.5,44.3,114.6,44.1,114.6,44z"
		/>
	<path d="M117.1,43.4c-0.1,0.3-0.3,0.5-0.6,0.5c-0.3-0.1-0.4-0.3-0.6-0.5c-0.2-0.2-0.6-0.3-0.9-0.1c-0.3,0.2-0.5,0.5-0.4,0.8
		c0.1-0.2,0.2-0.4,0.4-0.5c0.3-0.2,0.7-0.1,0.9,0.1c0.2,0.2,0.3,0.5,0.6,0.5c0.3,0.1,0.5-0.2,0.6-0.5c0-0.2,0.1-0.3,0.1-0.5
		C117.1,43.3,117.1,43.3,117.1,43.4z"/>
	<path d="M117.9,41.1c-0.2,0.5-0.5,0.9-0.6,1.4c0,0.1,0,0.2,0,0.3c0.1-0.5,0.4-0.9,0.6-1.4c0.1-0.2,0.1-0.5,0.2-0.7
		C117.9,40.9,117.9,41,117.9,41.1z"/>
</g>
<circle class="st18" cx="64.7" cy="50.2" r="2.3"/>
<g>
	<polygon class="st19" points="69.2,32.2 49.2,68.3 89.1,68.3 	"/>
	<polygon class="st8" points="69.2,35 51.6,67 86.7,67 	"/>
	
		<linearGradient id="SVGID_2_" gradientUnits="userSpaceOnUse" x1="69.1563" y1="1375.4481" x2="69.1563" y2="1371.153" gradientTransform="matrix(1 0 0 1 0 -1309.6576)">
		<stop  offset="0" style="stop-color:#808080;stop-opacity:0.25"/>
		<stop  offset="0.54" style="stop-color:#808080;stop-opacity:0.12"/>
		<stop  offset="1" style="stop-color:#808080;stop-opacity:0.1"/>
	</linearGradient>
	<circle class="st20" cx="69.2" cy="63.7" r="2.2"/>
	<circle class="st19" cx="69.2" cy="63.7" r="1.8"/>
	
		<linearGradient id="SVGID_3_" gradientUnits="userSpaceOnUse" x1="69.182" y1="1369.8295" x2="69.182" y2="1357.083" gradientTransform="matrix(1 0 0 1 0 -1309.6576)">
		<stop  offset="0" style="stop-color:#808080;stop-opacity:0.25"/>
		<stop  offset="0.54" style="stop-color:#808080;stop-opacity:0.12"/>
		<stop  offset="1" style="stop-color:#808080;stop-opacity:0.1"/>
	</linearGradient>
	<rect x="68.6" y="47.4" class="st21" width="1.2" height="12.7"/>
	<rect x="68.8" y="47.5" class="st19" width="0.7" height="12.4"/>
</g>
</svg>
