<svg version="1.1" id="e8f68bdd-4984-4f2e-95b7-7fc8ec281257" xmlns="http://www.w3.org/2000/svg" xmlns:xlink="http://www.w3.org/1999/xlink" x="0" y="0" viewBox="0 0 283.5 236.3" xml:space="preserve"><style>.st0{opacity:.5}.st3{fill:#e0e0e0}.st4{opacity:.7;fill:#3c6fe9;enable-background:new}.st6{fill:#f5f5f5}.st8{fill:#fff}.st10,.st14{opacity:.4;fill:#3c6fe9;enable-background:new}.st14{fill:#bdbdbd}.st18{fill:#3c6fe9}.st22{fill:#47e6b1}.st23{fill:#4d8af0}.st23,.st25,.st26{opacity:.5;enable-background:new}.st25{fill:#f55f44}.st26{fill:#47e6b1}</style><g class="st0"><linearGradient id="SVGID_1_" gradientUnits="userSpaceOnUse" x1="122.799" y1="-452.9" x2="122.799" y2="-258.043" gradientTransform="matrix(1 0 0 -1 0 -231.48)"><stop offset="0" stop-color="gray" stop-opacity=".25"/><stop offset=".54" stop-color="gray" stop-opacity=".12"/><stop offset="1" stop-color="gray" stop-opacity=".1"/></linearGradient><path fill="url(#SVGID_1_)" d="M50.3 26.6h145v194.9h-145z"/></g><path fill="#f2f2f2" d="M52.2 29.2h140.5v188.1H52.2z"/><path class="st3" d="M63.1 37.1h48.3v1.5H63.1z"/><path class="st4" d="M63.1 43.9h48.3v1.5H63.1z"/><path class="st3" d="M118.6 37.1h48.3v1.5h-48.3zm7.6 43.1h48.3v1.5h-48.3zm1.1 4.1h48.3v1.5h-48.3zm2.3 4.2h48.3V90h-48.3zm-3.4 58.5h48.3v1.5h-48.3zm1.1 4.2h48.3v1.5h-48.3zm2.3 4.1h48.3v1.5h-48.3z"/><g class="st0"><linearGradient id="SVGID_2_" gradientUnits="userSpaceOnUse" x1="89.19" y1="-348.296" x2="89.19" y2="-296.184" gradientTransform="matrix(1 0 0 -1 0 -231.48)"><stop offset="0" stop-color="gray" stop-opacity=".25"/><stop offset=".54" stop-color="gray" stop-opacity=".12"/><stop offset="1" stop-color="gray" stop-opacity=".1"/></linearGradient><path fill="url(#SVGID_2_)" d="M63.5 64.7h51.4v52.1H63.5z"/></g><path class="st6" d="M63.8 65.8h50.5v49.8H63.8z"/><g class="st0"><linearGradient id="SVGID_3_" gradientUnits="userSpaceOnUse" x1="89.188" y1="-332.813" x2="89.188" y2="-300.337" gradientTransform="matrix(1 0 0 -1 0 -231.48)"><stop offset="0" stop-color="gray" stop-opacity=".25"/><stop offset=".54" stop-color="gray" stop-opacity=".12"/><stop offset="1" stop-color="gray" stop-opacity=".1"/></linearGradient><path fill="url(#SVGID_3_)" d="M65.6 68.9h47.1v32.5H65.6z"/></g><path class="st8" d="M65.9 69.2h46.5v31.3H65.9z"/><defs><path id="SVGID_4_" d="M65.9 69.2h46.5v31.3H65.9z"/></defs><clipPath id="SVGID_5_"><use xlink:href="#SVGID_4_" overflow="visible"/></clipPath><g clip-path="url(#SVGID_5_)"><path class="st10" d="M62 99.4l11.7-18.1 4.9 7.9 10.6-10.9 9.1 10.9 7.9-16.2 20.4 32.5-66.1-2.3z"/><circle class="st10" cx="71.1" cy="73.8" r="3.4"/></g><g class="st0"><linearGradient id="SVGID_6_" gradientUnits="userSpaceOnUse" x1="89.19" y1="-415.135" x2="89.19" y2="-363.023" gradientTransform="matrix(1 0 0 -1 0 -231.48)"><stop offset="0" stop-color="gray" stop-opacity=".25"/><stop offset=".54" stop-color="gray" stop-opacity=".12"/><stop offset="1" stop-color="gray" stop-opacity=".1"/></linearGradient><path fill="url(#SVGID_6_)" d="M63.5 131.5h51.4v52.1H63.5z"/></g><path class="st6" d="M63.8 132.7h50.5v49.8H63.8z"/><g class="st0"><linearGradient id="SVGID_7_" gradientUnits="userSpaceOnUse" x1="89.188" y1="-399.655" x2="89.188" y2="-367.179" gradientTransform="matrix(1 0 0 -1 0 -231.48)"><stop offset="0" stop-color="gray" stop-opacity=".25"/><stop offset=".54" stop-color="gray" stop-opacity=".12"/><stop offset="1" stop-color="gray" stop-opacity=".1"/></linearGradient><path fill="url(#SVGID_7_)" d="M65.6 135.7h47.1v32.5H65.6z"/></g><path id="b429ac3a-f8a8-4171-bcce-5b6c002c0714" class="st8" d="M65.9 136.1h46.5v31.3H65.9z"/><defs><path id="SVGID_8_" d="M65.9 136.1h46.5v31.3H65.9z"/></defs><clipPath id="SVGID_9_"><use xlink:href="#SVGID_8_" overflow="visible"/></clipPath><g clip-path="url(#SVGID_9_)"><path class="st14" d="M62 166.3l11.7-18.1 4.9 7.9 10.6-11 9.1 11 7.9-16.2 20.4 32.4-66.1-2.2z"/><circle class="st14" cx="71.1" cy="140.6" r="3.4"/></g><g class="st0"><linearGradient id="SVGID_10_" gradientUnits="userSpaceOnUse" x1="365.135" y1="-395.666" x2="365.135" y2="-200.81" gradientTransform="scale(1 -1) rotate(-11.239 1135.507 821.372)"><stop offset="0" stop-color="gray" stop-opacity=".25"/><stop offset=".54" stop-color="gray" stop-opacity=".12"/><stop offset="1" stop-color="gray" stop-opacity=".1"/></linearGradient><path fill="url(#SVGID_10_)" d="M71.6 208.1l38-191.2 142.2 28.3-38 191.1z"/></g><path transform="rotate(-78.761 161.461 125.816)" class="st8" d="M67.4 55.6h188.1v140.5H67.4z"/><path transform="rotate(-78.761 167.965 40.86)" class="st3" d="M167.2-9h1.5v99.7h-1.5z"/><path transform="rotate(-78.761 140.137 180.87)" class="st3" d="M139.4 131h1.5v99.7h-1.5z"/><path transform="rotate(-78.761 127.333 187.181)" class="st3" d="M126.6 148.7h1.5v77h-1.5z"/><path transform="rotate(-78.761 101.937 190.987)" class="st4" d="M101.2 176.6h1.5v28.7h-1.5z"/><path transform="rotate(-78.761 141.828 44.524)" class="st4" d="M141.1 19.6h1.5v49.8h-1.5z"/><path transform="rotate(-78.761 159.766 56.943)" class="st3" d="M159 12h1.5v89.9H159z"/><path transform="rotate(-78.761 124.739 58.838)" opacity=".7" fill="#3ad29f" d="M124 47.9h1.5v21.9H124z"/><path transform="rotate(-78.761 161.193 74.937)" class="st3" d="M160.4 25.1h1.5v99.7h-1.5z"/><g class="st0"><linearGradient id="SVGID_11_" gradientUnits="userSpaceOnUse" x1="364.942" y1="-331.856" x2="364.942" y2="-280.497" gradientTransform="scale(1 -1) rotate(-11.239 1135.546 821.37)"><stop offset="0" stop-color="gray" stop-opacity=".25"/><stop offset=".54" stop-color="gray" stop-opacity=".12"/><stop offset="1" stop-color="gray" stop-opacity=".1"/></linearGradient><path fill="url(#SVGID_11_)" d="M111.1 150.8l10-50.3 87.7 17.4-10 50.4z"/></g><path transform="rotate(-78.761 160.006 134.189)" class="st8" d="M134.9 90h50.2v88.4h-50.2z"/><path transform="rotate(-78.761 159.5 83.456)" class="st3" d="M158.7 33.6h1.5v99.7h-1.5z"/><path transform="rotate(-78.761 131.117 128.445)" class="st18" d="M112.8 123h36.6v11h-36.6z"/><path transform="rotate(-78.761 149.198 138.201)" fill="#3ad29f" d="M136.9 132.7h24.5v11h-24.5z"/><path transform="rotate(-78.761 167.354 147.582)" fill="#f55f44" d="M160.7 142.1h13.2v11h-13.2z"/><path transform="rotate(-78.761 187.94 144.745)" fill="#fdd835" d="M174.5 139.3h26.8v11h-26.8z"/><g class="st0"><path class="st22" d="M39.7 199.1h1.1v6.4h-1.1z"/><path class="st22" d="M37.1 201.8h6.4v1.1h-6.4z"/></g><path class="st23" d="M172.4 2.5c-.6-.3-1-1-.8-1.7V.6c0-.4-.3-.7-.7-.7-.2 0-.4.1-.6.3l-.1.1c-.3.6-1 1-1.7.8h-.2c-.4 0-.7.3-.7.7 0 .2.1.4.3.6l.1.1c.6.3 1 1 .8 1.7v.2c0 .4.3.7.7.7.2 0 .4-.1.6-.3l.1-.1c.3-.6 1-1 1.7-.8h.2c.4 0 .7-.3.7-.7 0-.2-.1-.4-.3-.6l-.1-.1z"/><path d="M44.9 34.6c-.6-.3-1-1-.8-1.7v-.2c0-.4-.3-.7-.7-.7-.2 0-.4.1-.6.3l-.1.1c-.3.6-1 1-1.7.8h-.2c-.4 0-.7.3-.7.7 0 .2.1.4.3.6l.1.1c.6.3 1 1 .8 1.7v.2c0 .4.3.7.7.7.2 0 .4-.1.6-.3l.1-.1c.3-.6 1-1 1.7-.8h.2c.4 0 .7-.3.7-.7 0-.2-.1-.4-.3-.6l-.1-.1zm-10.1 94.2c-.6-.3-1-1-.8-1.7v-.2c0-.4-.3-.7-.7-.7-.2 0-.4.1-.6.3l-.1.1c-.3.6-1 1-1.7.8h-.2c-.4 0-.7.3-.7.7 0 .2.1.4.3.6l.1.1c.6.3 1 1 .8 1.7v.2c0 .4.3.7.7.7.2 0 .4-.1.6-.3l.1-.1c.3-.6 1-1 1.7-.8h.2c.4 0 .7-.3.7-.7 0-.2-.1-.4-.3-.6 0-.1-.1-.1-.1-.1z" fill="#fdd835" opacity=".5"/><circle class="st25" cx="104.3" cy="8.8" r="2.3"/><circle class="st25" cx="2.3" cy="98" r="2.3"/><circle class="st25" cx="266.7" cy="37.1" r="2.3"/><circle class="st23" cx="253.8" cy="104.7" r="2.3"/><circle class="st26" cx="11.6" cy="44.8" r="2.3"/><circle class="st26" cx="263.4" cy="199.8" r="2.3"/><circle class="st26" cx="281.2" cy="133" r="2.3"/><linearGradient id="SVGID_12_" gradientUnits="userSpaceOnUse" x1="196.87" y1="-464.283" x2="196.87" y2="-417.024" gradientTransform="matrix(1 0 0 -1 0 -231.48)"><stop offset="0" stop-color="gray" stop-opacity=".25"/><stop offset=".54" stop-color="gray" stop-opacity=".12"/><stop offset="1" stop-color="gray" stop-opacity=".1"/></linearGradient><path fill="url(#SVGID_12_)" d="M168.1 185.5h57.6v47.3h-57.6z"/><linearGradient id="SVGID_13_" gradientUnits="userSpaceOnUse" x1="337.73" y1="-485.993" x2="337.73" y2="-453.657" gradientTransform="matrix(1 0 0 -1 -140.93 -298.71)"><stop offset="0" stop-color="gray" stop-opacity=".25"/><stop offset=".54" stop-color="gray" stop-opacity=".12"/><stop offset="1" stop-color="gray" stop-opacity=".1"/></linearGradient><path d="M180 176.5c0-9.3 7.6-16.8 16.9-16.8 9.3 0 16.8 7.5 16.8 16.8v10.8h4.7v-10.8c0-11.9-9.7-21.6-21.6-21.6-11.9 0-21.6 9.7-21.6 21.6v10.8h4.7l.1-10.8z" fill="url(#SVGID_13_)"/><path class="st6" d="M180.6 176.3c0-8.9 7.2-16.2 16.2-16.2 8.9 0 16.2 7.2 16.2 16.2v10.3h4.5v-10.3c0-11.4-9.3-20.7-20.7-20.7-11.4 0-20.7 9.3-20.7 20.7v10.3h4.5v-10.3z"/><path class="st18" d="M168.7 186H225v45.9h-56.3z"/><path class="st6" d="M168.7 186H225v45.9h-56.3z"/><path class="st18" d="M168.7 195H225v27.8h-56.3z"/><linearGradient id="SVGID_14_" gradientUnits="userSpaceOnUse" x1="337.732" y1="-517.011" x2="337.732" y2="-498.254" gradientTransform="matrix(1 0 0 -1 -140.93 -298.71)"><stop offset="0" stop-color="gray" stop-opacity=".25"/><stop offset=".54" stop-color="gray" stop-opacity=".12"/><stop offset="1" stop-color="gray" stop-opacity=".1"/></linearGradient><path d="M200.9 203.7c0-2.3-1.8-4.1-4.1-4.1s-4.1 1.8-4.1 4.1c0 1.1.4 2.1 1.1 2.8v8.8c0 1.7 1.3 3 3 3s3-1.3 3-3v-8.8c.7-.8 1.1-1.8 1.1-2.8z" fill="url(#SVGID_14_)"/><path d="M200.4 204.4c0-2-1.6-3.6-3.6-3.6s-3.6 1.6-3.6 3.6c0 .9.3 1.8 1 2.4v7.6c0 1.4 1.2 2.6 2.6 2.6s2.6-1.2 2.6-2.6v-7.6c.6-.6 1-1.5 1-2.4z" opacity=".2"/></svg>