<?xml version="1.0" encoding="utf-8"?>
<!-- Generator: Adobe Illustrator 23.0.3, SVG Export Plug-In . SVG Version: 6.00 Build 0)  -->
<svg version="1.1" id="ebf8a77a-edff-4dc3-b5b4-de0e5991af45"
	 xmlns="http://www.w3.org/2000/svg" xmlns:xlink="http://www.w3.org/1999/xlink" x="0px" y="0px" viewBox="0 0 425.2 322.4"
	 style="enable-background:new 0 0 425.2 322.4;" xml:space="preserve">
<style type="text/css">
	.st0{fill:#3C6FE9;}
	.st1{fill:#444053;}
	.st2{fill:none;stroke:#444053;stroke-width:0.3891;stroke-miterlimit:10;}
	.st3{fill:none;stroke:#444053;stroke-width:0.2918;stroke-miterlimit:10;}
	.st4{opacity:0.1;fill:#89DAF8;enable-background:new    ;}
	.st5{opacity:0.1;fill:#3C6FE9;enable-background:new    ;}
	.st6{fill:url(#SVGID_1_);}
	.st7{fill:#FFFFFF;}
	.st8{opacity:4.000000e-02;fill:#5A5773;enable-background:new    ;}
	.st9{fill:#5A5773;}
	.st10{opacity:0.2;fill:none;stroke:#5A5773;stroke-width:0.3891;stroke-miterlimit:10;enable-background:new    ;}
	
		.st11{opacity:0.2;fill:none;stroke:#5A5773;stroke-width:0.3891;stroke-miterlimit:10;stroke-dasharray:4.6692;enable-background:new    ;}
	.st12{opacity:0.2;fill:#3C6FE9;enable-background:new    ;}
	.st13{opacity:0.5;fill:#3C6FE9;enable-background:new    ;}
	.st14{opacity:0.2;fill:#5A5773;enable-background:new    ;}
	.st15{fill:url(#SVGID_2_);}
	.st16{fill:#2D293D;}
	.st17{opacity:0.1;enable-background:new    ;}
	.st18{fill:#575988;}
	.st19{opacity:5.000000e-02;enable-background:new    ;}
	.st20{opacity:5.000000e-02;}
	.st21{fill:#FFCDD3;}
	.st22{fill:#DCE6F2;}
	.st23{fill:#656691;}
	.st24{opacity:0.1;}
	.st25{fill:#FFD037;}
	.st26{fill:#65617D;}
	.st27{fill:#9D9CB5;}
</style>
<title>setup analytics</title>
<path class="st0" d="M83.3,5.6c0,0-1.5,5.7,8.8,21.9s9.5,18.5,8.9,23.1s-0.6,7.2-6.5,12.8c0,0-17.8,5.9-20.2,9.5
	c-2.4,3.7,3.9,16.9,3.9,16.9s6.1,16.1-15.7,22.3c0,0-17.1,0-21.8,3.8c0,0,1.8-6.5-3.9-16.2s2.2-19,2.2-19s6.3-3.5,10.3-3.7
	c4-0.3,5.3-2.1,2.7-6.7c0,0-3.7-1.9-8.9,2.2c-5.2,4.2-9,7.1-13.5,6.8s-10.9-2.2-15.1-10.6S8,48.6,4.9,43.2S0,36.7,0,36.7
	s4,3,17.8-7.2s21-5.9,21-5.9s11.1,3,12.8,22.5c0,0,3.2,18.6,9.8,7.3c0,0-2.2-6.3-6.6-15.7s7.4-18.1,16.1-21.1S83.3,5.6,83.3,5.6z"/>
<path class="st1" d="M12.1,40.8L12.1,40.8c2.7-1.2,15.2,5.6,25.3,11.5l-0.1,0.1C23.1,44,14.2,39.9,12.1,40.8z"/>
<path class="st1" d="M37.1,52.2L37.1,52.2c8.1,4.6,17.7,10.6,25,15.5c0.7,0.5,1.4,0.9,2.1,1.4l-0.1,0.2c-0.7-0.4-1.4-0.9-2.1-1.4
	C54.7,63.1,45.1,57,37.1,52.2z"/>
<path class="st1" d="M63.9,69.2l0.2-0.1c14.5,8.7,34.8,6.6,35,6.6l-2.2,2.5C96.6,78.2,78.4,77.9,63.9,69.2z"/>
<path class="st2" d="M77.9,18.6c0,0-4.7,13.2-1.1,22.5s-3.9,32.3-3.9,32.3s-2.5,9.7-6.5,12.1c0,0-5.8,7.2-9.2,8s-11.2,8.1-11,12.2"
	/>
<path class="st2" d="M84.3,19.6c0,0-3.3,6.8-8.3,6.7"/>
<path class="st2" d="M91,28.4c0,0-2,9.3-14.5,11.9"/>
<path class="st2" d="M96.2,42.2c0,0-5.9,9.4-18.6,8.3"/>
<path class="st2" d="M95.1,59.9c0,0-11.1,7.3-19.5,3.3"/>
<path class="st2" d="M70.1,19.6c0,0,2.9,6.1,6.1,4.3"/>
<path class="st2" d="M59.5,28.9c0,0,3.9,8.2,16.1,6.8"/>
<path class="st2" d="M58.3,41.2c0,0,10.7,6.5,19.4,4.7"/>
<path class="st2" d="M63.9,54.4c0,0,8.5,6.8,12.5,5.2"/>
<path class="st2" d="M61.9,59.4c0,0,2.3,7.1,0,8.4"/>
<path class="st2" d="M54.4,70.1c0,0,4.4-4.3,3.2-5.1"/>
<path class="st2" d="M46.4,34c0,0,3.8,18.2-1.1,23.1"/>
<path class="st2" d="M30.4,77.3c0,0,17.3-11.1,18.8-17.7"/>
<path class="st2" d="M20.4,69.4c0,0,16.3-7.6,20.7-14.9"/>
<path class="st3" d="M31.3,28.2c0,0,7.9,13.1,3,22.3"/>
<path class="st3" d="M15.1,57.5c0,0,12.1-4.9,14.5-9.6"/>
<path class="st3" d="M17.6,32.2c0,0,4,7.4,2.2,10.7"/>
<path class="st2" d="M59.4,76.2c0,0,10.9-1.5,12.1,1.4"/>
<path class="st2" d="M76.8,98.6c0,0-0.6-11.9-7.4-16.5"/>
<path class="st2" d="M47,81c0,0,11.4,1.4,15.5,8.8"/>
<path class="st2" d="M66.2,107.2c0,0,1.8-8.7-6.6-14.9"/>
<path class="st2" d="M38.7,91.6c0,0,9.5-0.5,14.6,4"/>
<path class="st2" d="M51.8,108.8c0,0-0.9-6.9-3.4-8.2"/>
<path class="st4" d="M198.9,79.1c-21.4,10.7-44.7,15.4-67.5,19s-45.7,6.4-68.2,13.9c-14.4,4.9-29.7,12.7-36.8,24.9
	c-6.9,11.7-4.3,24.2-0.7,35.1c2.7,8.2,6.2,16.5,13.7,21.5c5.2,3.5,11.9,5.1,17.6,8.1c19.7,10.3,22.8,34.4,19.7,56.6
	c-1.5,10.4-4,21-4,31.2s3,20.3,11.1,26.4c8,6,20.1,7.2,31.9,6.2c24-1.9,48.2-11.9,71.2-22.6c50.9-23.7,99.7-51.9,148.4-80.1
	c18-10.4,36.1-20.9,52.7-33.2c9.2-6.9,18.3-14.7,22.5-24.2c5.4-12,1.3-25-9.6-30.4c-18.3-9-48.9,2.9-64.6-8.9
	c-8.7-6.5-9.8-18.4-8.4-29.5c3-24,15.6-50.4,6-70.6c-6.6-13.9-23.9-22-42.9-20c-20,2.2-42,15.2-47.9,32.8
	C237,53.4,217.8,69.6,198.9,79.1z"/>
<ellipse class="st5" cx="250.1" cy="298.5" rx="39" ry="9.6"/>
<linearGradient id="SVGID_1_" gradientUnits="userSpaceOnUse" x1="237.35" y1="733.6312" x2="237.35" y2="524.1312" gradientTransform="matrix(1 0 0 1 0 -469.0312)">
	<stop  offset="0" style="stop-color:#808080;stop-opacity:0.25"/>
	<stop  offset="0.54" style="stop-color:#808080;stop-opacity:0.12"/>
	<stop  offset="1" style="stop-color:#808080;stop-opacity:0.1"/>
</linearGradient>
<path class="st6" d="M57.3,55.1h360.1c2.7,0,4.9,2.2,4.9,4.9v199.7c0,2.7-2.2,4.9-4.9,4.9H57.3c-2.7,0-4.9-2.2-4.9-4.9V60
	C52.4,57.3,54.6,55.1,57.3,55.1z"/>
<path class="st7" d="M57.8,58h358.9c2.7,0,4.9,2.2,4.9,4.9V259c0,2.7-2.2,4.9-4.9,4.9H57.8c-2.7,0-4.9-2.2-4.9-4.9V62.9
	C53,60.2,55.2,58,57.8,58z"/>
<path class="st7" d="M57.8,58h358.9c2.7,0,4.9,2.2,4.9,4.9V259c0,2.7-2.2,4.9-4.9,4.9H57.8c-2.7,0-4.9-2.2-4.9-4.9V62.9
	C53,60.2,55.2,58,57.8,58z"/>
<path class="st8" d="M57.8,58h358.9c2.7,0,4.9,2.2,4.9,4.9V259c0,2.7-2.2,4.9-4.9,4.9H57.8c-2.7,0-4.9-2.2-4.9-4.9V62.9
	C53,60.2,55.2,58,57.8,58z"/>
<path class="st9" d="M419.8,55.7H54.9c-1,0-1.9,0.8-1.9,1.9v7.9h368.6v-7.9C421.6,56.5,420.8,55.7,419.8,55.7z"/>
<g>
	<circle class="st7" cx="60.3" cy="60.6" r="2.5"/>
	<circle class="st7" cx="67.2" cy="60.6" r="2.5"/>
	<circle class="st7" cx="74" cy="60.6" r="2.5"/>
</g>
<path class="st5" d="M81.6,111h299.5c2.2,0,4,1.8,4,4v110.4c0,2.2-1.8,4-4,4H81.6c-2.2,0-4-1.8-4-4V115
	C77.7,112.8,79.4,111,81.6,111z"/>
<path class="st7" d="M89.1,99.6l299.4,7.6c2.2,0.1,3.9,1.9,3.9,4.1l-2.8,110.3c-0.1,2.2-1.9,3.9-4.1,3.9l-299.4-7.6
	c-2.2-0.1-3.9-1.9-3.9-4.1L85,103.5C85.1,101.2,86.9,99.5,89.1,99.6z"/>
<line class="st10" x1="131.1" y1="124.6" x2="345.3" y2="130"/>
<line class="st10" x1="130.7" y1="141.3" x2="344.8" y2="146.7"/>
<line class="st10" x1="130.3" y1="158" x2="344.4" y2="163.5"/>
<line class="st10" x1="129.9" y1="174.8" x2="344" y2="180.2"/>
<line class="st11" x1="149.3" y1="170.7" x2="148.8" y2="192"/>
<line class="st10" x1="129.4" y1="191.5" x2="343.6" y2="196.9"/>
<line class="st11" x1="173" y1="192.6" x2="173.8" y2="160.9"/>
<path class="st12" d="M314.7,158.4c-3.8,0.3-7.5-1.8-9.8-4.1c-2.4-2.3-4.1-5.2-5.7-8c-0.5-0.9-1.1-1.8-1.6-2.7
	c-2.9-4.6-5.8-7.7-9.1-9.7c-1.2-0.7-2.5-1.3-3.9-1.8c-0.1,0.3-0.3,0.6-0.5,0.8c-0.5,0.5-1.2,0.8-1.9,0.8h-0.1c-1.3,0-2.4-1-2.6-2.4
	c-1.2,0.1-2.4,0.3-3.6,0.7c-3.4,1.3-6,4-8.3,6.7c-2.8,3.3-5.6,6.7-8.1,10.2c-0.5,0.7-1,1.4-1.6,2.1c-2.8,3.9-5.6,7.9-9.3,11
	c-5,4.2-11,6-16,4.9c-6.1-1.4-10.4-6.8-13.5-11.3c-0.4-0.6-0.8-1.2-1.2-1.8c-2.9-4.3-5.9-8.7-10.3-11.3c-5.8-3.4-13.8-2.8-19.1,1.4
	c-2.6,2.1-4.5,4.8-6.3,7.5c-0.6,0.9-1.3,1.9-2,2.8c-3.5,4.7-7,7.3-10.8,7.8c-1.5,0.2-3,0.2-4.5,0c-1-0.1-2-0.1-3.1-0.1
	c-5.2,0.2-9.8,3.1-12.3,7.7L149,192l168.2,4.3l0.9-37.1c-1.1,0.6-2.6,0.2-3.2-0.9C314.7,158.5,314.7,158.5,314.7,158.4L314.7,158.4z
	"/>
<line class="st11" x1="199.2" y1="140.6" x2="197.9" y2="193.2"/>
<line class="st11" x1="222.7" y1="160.8" x2="221.8" y2="193.8"/>
<line class="st11" x1="246" y1="164.6" x2="245.2" y2="194.4"/>
<line class="st11" x1="268.6" y1="138" x2="267.2" y2="195"/>
<line class="st11" x1="291.7" y1="136" x2="290.2" y2="195.6"/>
<line class="st11" x1="317.2" y1="158.4" x2="316.2" y2="196.2"/>
<path class="st0" d="M284.3,129.6c-0.5-0.5-1.2-0.8-1.9-0.8c-1.3,0-2.4,1-2.6,2.3c0,0.2,0,0.3,0,0.5c0,0.1,0,0.2,0,0.3
	c0.1,0.6,0.4,1.2,0.8,1.6c0.5,0.5,1.1,0.8,1.8,0.8h0.1c0.7,0,1.4-0.3,1.9-0.8c0.2-0.2,0.4-0.5,0.5-0.8c0.1-0.2,0.2-0.5,0.2-0.8
	c0-0.1,0-0.2,0-0.4C285.1,130.8,284.8,130.1,284.3,129.6z M284.1,132.4c-0.1,0.2-0.2,0.4-0.4,0.5c-0.7,0.8-2,0.8-2.8,0
	c-0.3-0.3-0.5-0.6-0.6-1c0-0.1,0-0.2,0-0.3c0-0.2,0-0.3,0-0.5c0.2-0.9,1-1.5,1.9-1.5h0.1c1,0,1.9,0.9,1.9,1.9v0.1
	C284.3,131.9,284.3,132.1,284.1,132.4z"/>
<circle class="st0" cx="317.2" cy="157.9" r="2.3"/>
<path class="st0" d="M280.4,131.6c0,0.1,0,0.2,0,0.3c-0.3,0-0.5,0-0.8,0c-1.2,0.1-2.4,0.3-3.6,0.7c-3.4,1.3-6,4-8.3,6.7
	c-2.8,3.3-5.6,6.7-8.1,10.2c-0.5,0.7-1,1.4-1.6,2.1c-2.8,3.9-5.6,7.9-9.3,11c-5,4.2-11,6-16,4.9c-6-1.4-10.4-6.8-13.5-11.3
	c-0.4-0.6-0.8-1.2-1.2-1.8c-2.9-4.3-5.9-8.7-10.3-11.3c-5.8-3.4-13.8-2.8-19.1,1.4c-2.5,2-4.5,4.8-6.3,7.5c-0.6,0.9-1.3,1.9-2,2.8
	c-3.5,4.7-7,7.3-10.8,7.8c-1.5,0.2-3,0.2-4.5,0c-1-0.1-2-0.1-3.1-0.1c-5.5,0.2-10.5,3.6-12.8,8.6l-0.7-0.3c2.4-5.3,7.6-8.8,13.5-9.1
	c1,0,2.1,0,3.1,0.1c1.5,0.2,2.9,0.2,4.4,0c3.6-0.5,7-3,10.3-7.5c0.7-0.9,1.3-1.9,2-2.8c1.9-2.7,3.9-5.6,6.5-7.7
	c5.7-4.5,13.6-5.1,19.9-1.5c4.6,2.7,7.6,7.2,10.5,11.5c0.4,0.6,0.8,1.2,1.2,1.8c3,4.4,7.2,9.6,13,10.9c4.8,1.1,10.5-0.6,15.3-4.7
	c3.6-3.1,6.5-7,9.2-10.8c0.5-0.7,1-1.4,1.6-2.1c2.6-3.5,5.3-7,8.2-10.3c2.4-2.8,5.1-5.6,8.6-7c1.2-0.5,2.5-0.7,3.9-0.8
	c0.3,0,0.5,0,0.8,0C280.5,131.3,280.4,131.4,280.4,131.6z"/>
<path class="st0" d="M317.4,158.3c-4.6,1.7-9.4-0.8-12.1-3.5c-2.4-2.3-4.1-5.2-5.7-8c-0.5-0.9-1.1-1.8-1.6-2.7
	c-2.9-4.6-5.8-7.7-9.1-9.7c-1.2-0.7-2.5-1.3-3.9-1.8c-0.2-0.1-0.5-0.2-0.8-0.2c0.1-0.2,0.2-0.5,0.2-0.8c0.3,0.1,0.5,0.1,0.8,0.2
	c1.4,0.4,2.8,1.1,4.1,1.9c3.4,2.1,6.4,5.3,9.3,9.9c0.6,0.9,1.1,1.8,1.6,2.7c1.6,2.7,3.3,5.6,5.6,7.8c2.6,2.5,7.1,4.9,11.3,3.4
	L317.4,158.3z"/>
<path class="st13" d="M131.6,121.1l7.2,0.2c0.2,0,0.3,0.2,0.3,0.4l-0.1,2.8c0,0.2-0.2,0.3-0.4,0.3l-7.2-0.2c-0.2,0-0.3-0.2-0.3-0.4
	l0.1-2.8C131.2,121.2,131.4,121.1,131.6,121.1z"/>
<path class="st0" d="M131.1,137.8l7.2,0.2c0.2,0,0.3,0.2,0.3,0.4l-0.1,2.8c0,0.2-0.2,0.3-0.4,0.3l-7.2-0.2c-0.2,0-0.3-0.2-0.3-0.4
	l0.1-2.8C130.8,138,130.9,137.8,131.1,137.8z"/>
<path class="st13" d="M130.7,154.5l7.2,0.2c0.2,0,0.3,0.2,0.3,0.4l-0.1,2.8c0,0.2-0.2,0.3-0.4,0.3l-7.2-0.2c-0.2,0-0.3-0.2-0.3-0.4
	l0.1-2.8C130.4,154.7,130.5,154.5,130.7,154.5z"/>
<path class="st13" d="M130.3,171.3l7.2,0.2c0.2,0,0.3,0.2,0.3,0.4l-0.1,2.8c0,0.2-0.2,0.3-0.4,0.3l-7.2-0.2c-0.2,0-0.3-0.2-0.3-0.4
	l0.1-2.8C129.9,171.4,130.1,171.3,130.3,171.3z"/>
<path class="st13" d="M129.9,188l7.2,0.2c0.2,0,0.3,0.2,0.3,0.4l-0.1,2.8c0,0.2-0.2,0.3-0.4,0.3l-7.2-0.2c-0.2,0-0.3-0.2-0.3-0.4
	l0.1-2.8C129.5,188.1,129.7,188,129.9,188z"/>
<path class="st13" d="M144.6,195.4l7.2,0.2c0.2,0,0.3,0.2,0.3,0.4l-0.1,2.8c0,0.2-0.2,0.3-0.4,0.3l-7.2-0.2c-0.2,0-0.3-0.2-0.3-0.4
	l0.1-2.8C144.2,195.5,144.4,195.4,144.6,195.4z"/>
<path class="st13" d="M169.3,196l7.2,0.2c0.2,0,0.3,0.2,0.3,0.4l-0.1,2.8c0,0.2-0.2,0.3-0.4,0.3l-7.2-0.2c-0.2,0-0.3-0.2-0.3-0.4
	l0.1-2.8C168.9,196.2,169.1,196,169.3,196z"/>
<path class="st0" d="M193.3,197.7l7.2,0.2c0.2,0,0.3,0.2,0.3,0.4l-0.1,2.8c0,0.2-0.2,0.3-0.4,0.3l-7.2-0.2c-0.2,0-0.3-0.2-0.3-0.4
	l0.1-2.8C192.9,197.8,193.1,197.7,193.3,197.7z"/>
<path class="st13" d="M218.1,197.2l7.2,0.2c0.2,0,0.3,0.2,0.3,0.4l-0.1,2.8c0,0.2-0.2,0.3-0.4,0.3l-7.2-0.2c-0.2,0-0.3-0.2-0.3-0.4
	l0.1-2.8C217.7,197.4,217.9,197.2,218.1,197.2z"/>
<path class="st13" d="M241.5,197.8l7.2,0.2c0.2,0,0.3,0.2,0.3,0.4l-0.1,2.8c0,0.2-0.2,0.3-0.4,0.3l-7.2-0.2c-0.2,0-0.3-0.2-0.3-0.4
	l0.1-2.8C241.2,198,241.3,197.8,241.5,197.8z"/>
<path class="st0" d="M263.5,198.4l7.2,0.2c0.2,0,0.3,0.2,0.3,0.4l-0.1,2.8c0,0.2-0.2,0.3-0.4,0.3l-7.2-0.2c-0.2,0-0.3-0.2-0.3-0.4
	l0.1-2.8C263.1,198.6,263.3,198.4,263.5,198.4z"/>
<path class="st0" d="M286.6,199l7.2,0.2c0.2,0,0.3,0.2,0.3,0.4l-0.1,2.8c0,0.2-0.2,0.3-0.4,0.3l-7.2-0.2c-0.2,0-0.3-0.2-0.3-0.4
	l0.1-2.8C286.2,199.1,286.4,199,286.6,199z"/>
<path class="st0" d="M311.9,201.2l6.9,0.2c0.3,0,0.5,0.3,0.5,0.6l-0.1,2.4c0,0.3-0.3,0.5-0.6,0.5l-6.9-0.2c-0.3,0-0.5-0.3-0.5-0.6
	l0.1-2.4C311.3,201.5,311.6,201.2,311.9,201.2z"/>
<path class="st0" d="M381.7,237.9c2.1,0,3.9,1.7,3.9,3.9c0,2.1-1.7,3.9-3.9,3.9c-2.1,0-3.9-1.7-3.9-3.9c0-1,0.4-2,1.1-2.7
	C379.7,238.3,380.6,237.9,381.7,237.9 M381.7,237.3c-2.5,0-4.5,2-4.5,4.5s2,4.5,4.5,4.5s4.5-2,4.5-4.5l0,0
	C386.1,239.3,384.1,237.3,381.7,237.3z"/>
<path class="st0" d="M380.5,243.1l0.2-0.3c0.2,0.2,0.5,0.4,0.9,0.4s0.7-0.2,0.7-0.5s-0.3-0.6-1.1-0.6v-0.4c0.7,0,1-0.2,1-0.5
	s-0.2-0.4-0.6-0.4c-0.3,0-0.5,0.1-0.7,0.3l-0.2-0.3c0.3-0.2,0.6-0.4,1-0.4c0.6,0,1.1,0.3,1.1,0.8c0,0.4-0.3,0.6-0.6,0.7l0,0
	c0.4,0,0.7,0.4,0.7,0.8c0,0.6-0.5,0.9-1.1,0.9C381.2,243.5,380.8,243.4,380.5,243.1z"/>
<path class="st9" d="M400.1,238.2c2.1,0,3.9,1.7,3.9,3.9c0,2.1-1.7,3.9-3.9,3.9c-2.1,0-3.9-1.7-3.9-3.9c0-1,0.4-2,1.1-2.7
	C398.1,238.6,399,238.1,400.1,238.2 M400.1,237.6c-2.5,0-4.5,2-4.5,4.5s2,4.5,4.5,4.5s4.5-2,4.5-4.5l0,0
	C404.5,239.5,402.5,237.6,400.1,237.6L400.1,237.6L400.1,237.6z"/>
<path class="st9" d="M400.1,241.5c0-0.2,0-0.4,0-0.6l0,0c-0.1,0.2-0.2,0.3-0.3,0.5l-0.8,1h2.1v0.4h-2.6v-0.3l1.6-2.1h0.6v3.3h-0.5
	L400.1,241.5z"/>
<path class="st9" d="M389.9,239.5c0.2-0.2,0.4-0.2,0.6,0l2,2c0.2,0.1,0.2,0.4,0,0.6l0,0l-2,2c-0.1,0.2-0.4,0.2-0.5,0l0,0
	c-0.2-0.1-0.2-0.4,0-0.5l0,0l1.7-1.7l-1.7-1.7C389.7,239.9,389.7,239.6,389.9,239.5L389.9,239.5L389.9,239.5z"/>
<path class="st9" d="M386.5,241.7c0,2.4,2,4.4,4.4,4.4s4.4-2,4.4-4.4s-2-4.4-4.4-4.4l0,0C388.4,237.4,386.5,239.3,386.5,241.7z
	 M387.2,241.7c0-2,1.7-3.7,3.7-3.7s3.7,1.7,3.7,3.7s-1.7,3.7-3.7,3.7c-1,0-1.9-0.4-2.6-1.1C387.5,243.7,387.2,242.7,387.2,241.7z"/>
<path class="st14" d="M66.1,75.9h85.4c0.8,0,1.5,0.7,1.5,1.5v6.3c0,0.8-0.7,1.5-1.5,1.5H66.1c-0.8,0-1.5-0.7-1.5-1.5v-6.3
	C64.6,76.5,65.3,75.9,66.1,75.9z"/>
<linearGradient id="SVGID_2_" gradientUnits="userSpaceOnUse" x1="180.0871" y1="840.3696" x2="180.0871" y2="633.2191" gradientTransform="matrix(0.9993 -3.838781e-02 3.838781e-02 0.9993 14.439 -529.7874)">
	<stop  offset="0" style="stop-color:#808080;stop-opacity:0.25"/>
	<stop  offset="0.54" style="stop-color:#808080;stop-opacity:0.12"/>
	<stop  offset="1" style="stop-color:#808080;stop-opacity:0.1"/>
</linearGradient>
<path class="st15" d="M275.2,296.9c-0.6-2.3-1.1-4.4-1.1-4.4s0-2.6-1.2-4.5v-0.6l0,0l-0.2-4.7c0.3-0.9,0.7-1.7,1.1-2.5
	c0.8-1.5-0.3-7-0.3-7s-3.5-7.6-2.9-12.5s-7.3-21.5-7.3-21.5c0-1.6,0.1-3.2,0.5-4.8c0.1-0.3,0.1-0.7,0.1-1v-0.1l0,0
	c-0.2-3.2-3-9.2-3-9.2l-0.1-11.5c0,0,1.4-6.9-1.6-15.9c-1-3.1-1.7-5.7-2.2-7.6c-0.1-0.2-0.1-0.4-0.1-0.6c5.4-1,9.6-1.9,9.6-1.9
	s-3.7-13.1-5.9-15.4s-4.2-9.5-4.2-9.5s-1.5-9.3,0.2-12.1s1.8-7.5,1.8-7.5s4-3.1,4.5-4.5c0.5-1.3,1.2-4.4,1.1-5.9
	c-0.1-1.6-0.6-3-0.5-3.8s-1.4-3.9-0.7-5.4c0.2-0.5,0.2-1,0.2-1.4l0,0l0,0c0-1.3-0.2-2.6-0.5-3.9c-1.2-1-2.6-1.6-4.1-2l-0.1-0.4
	l-0.3-0.9c-0.1-0.1-0.3-0.2-0.4-0.2v-0.3l-0.1-1.3l0.5-3c1.1-5.3-6-5.8-6-5.8c-0.5-0.8-1.2-1.4-2.1-1.7c-1.4-0.4,0.1,7.9,0.8,8.4
	c0.5,0.4,2.1,3,2.9,4.2l0,0l0.1,0.2c-0.1,0.1-0.2,0.2-0.3,0.4l0.3,1.8l0.1,0.3c-0.4,0.6-0.8,1.2-1,1.9c0,0,1.3,1.4,1.1,2.9
	c-0.2,1.6,0.5,3.5,0.6,3.6c-0.1-0.1-1-1-1.9-0.8s-3.4,1.1-3.4,1.1s-1.9,0.4-1.7,0.8s-1.2,2.3-1.2,2.3l-5.2-4.6
	c-0.1-0.1-0.1-0.3-0.2-0.4c-0.2-0.7-0.4-1.4-0.5-2.1c0.5-0.2,1.1-0.3,1.6-0.6c0.5-0.2,1-0.5,1.4-0.9c0.5-0.6,0.6-1.5,0.7-2.2
	c0.3-1.5,1.2-2.8,1.7-4.3c0.9-2.4,1.2-5,0.7-7.5c-0.1-0.8-0.4-1.5-0.9-2.2c-0.9-1.1-2.4-1.5-3.5-2.4s-1.9-2.2-3.2-2.9
	c-1.2-0.6-2.6-0.4-3.9-0.2c-2.5,0.5-4.9,1.5-7.1,2.9c-0.7,0.5-1.5,1-2.4,0.9c-0.7-0.1-1.3-0.7-1.8-1.2c0,0,0,0,0-0.1l-0.1-0.1
	c-0.5,1.2-0.7,2.5-0.6,3.8c0,0.2,0,0.4,0,0.6c0,0.1,0,0.1,0,0.2s0,0.1,0,0.2l0,0c0,0.1,0,0.2,0,0.3c-0.1,0.3-0.2,0.5-0.4,0.7
	c-0.1,0.2-0.3,0.4-0.4,0.6c0-0.1,0-0.1,0.1-0.2c-0.3,0.5-0.5,1-0.5,1.6c0,0.4,0.1,0.8,0.4,1.1c0.3,0.2,0.5,0.5,0.9,0.6
	c-0.1,0.6-0.1,1.1-0.1,1.7c0.1,3.4,2.1,6.5,5.1,8.2l0.2,0.4c0.7,1.7,1.3,3.6,1.1,5.5c0,0.1,0,0.3,0,0.4c-0.1,0.1-0.1,0.1-0.2,0.2
	l0,0c0,0-8.4,0.4-10.4-1.3s-4.8,4.5-4.8,4.5s-3,0.7-3.6,0.1c-0.6-0.6-4.1,0.1-4.1,0.1c-1.5-1.2-3.4-1.8-5.3-1.7
	c-1.2-0.8-2.5-1.5-3.9-2l0,0H197l0,0c-0.6-0.2-1.3-0.3-1.9-0.2c0,0-4.2-3.2-5.5-5s-7.2-8.3-7.3-8.3v-0.3l-0.1-1
	c-0.2,0-0.3,0.1-0.5,0.1c0-0.1-0.1-0.2-0.1-0.3c-0.4-0.9-0.8-1.9-1.3-2.7c0,0,0-1.2,0.3-1.6s-0.3-4.9-0.3-4.9s-4-8.5-7.1-1.9
	c0,0-6.1,4.4-0.7,9.1c0,0,2.1,0.9,2.5,1.7c0.2,0.5,1,1.9,1.5,2.9l0.2,0.4l-0.1,0.1l0.1,0.8v0.3c-1,0.6-1.6,1.2-1.4,1.6
	c0.3,0.7,0.5,1.5,0.7,2.2c0,0,7.6,8.8,8.7,12.7c0,0,20,10.8,26.4,11.4l-0.9,5.8c0,0-0.2,3.5-0.1,4.7c0.1,1.2-0.5,6.9-0.5,6.9
	s-0.8,8.3-1.7,9.5s-0.5,6.2-0.5,6.2c-0.1,2.4-0.5,4.8-1,7.1c-0.8,3.2,0,7.1,0,7.1s-3,7.6,4.6,2.2c0,0,3.8-0.4,8.2-0.7
	c0,0.1,0,0.3,0,0.4c0,0.6,0,1.2,0,1.8c0.1,4.3,0.3,10.2,0.7,14.6c0.6,7.9,3.6,23.3,3.6,23.3l0.3,7.8c-0.1,0.7-0.2,1.5-0.1,2.2
	c0.1,2.8,0.9,5.4,2.4,7.8l0.8,5.2c0,0,1.6,3.4,1.6,5.4c0,0.2,0,0.3,0,0.5c0,0.3-0.1,0.5,0,0.8c0,2.4,1.7,8,1.7,8s0.3,5.7,1.2,6
	c0.7,0.3-0.9,3.3-1.3,4.2c0-0.1,0-0.1,0-0.2l-0.1,0.2c-0.2,0.5-0.2,1-0.2,1.5c-0.1,0.8,0.3,1.6,1,2c1.7,0.9,2.6,1.7,1.2,2.1
	c-0.5,0.1-1,0.2-1.5,0.4l-0.1-0.2c-0.4,0.2-0.6,0.6-0.5,1c0,0.4,0.1,1,0.6,1.9c1.5,3,2.5,4.1,2.5,4.1l0.7-0.1
	c-0.1,0.3-0.2,0.5-0.4,0.7c-0.2,0.4-0.6,0.7-0.9,0.9c-0.4,0.2-0.8,0.4-1.2,0.4c-0.9,0.1-1.8,0.5-2.4,1.3c-0.8,1.1-1.3,2.7,0.5,3.9
	l6.2,1.9c0,0,10.6,1,9.9-1.4s-1.1-4.4-1.1-4.4c0-1.4-0.4-2.9-1-4.2c-0.1-0.2-0.2-0.4-0.4-0.6l0.4-0.1c0,0,0.6-5.2,1.6-6.3
	c0.2-0.2,0.3-0.4,0.2-0.6c0.1-0.3-0.2-0.4-0.5-0.5c0,0.1,0,0.1-0.1,0.2c-0.3-0.1-0.7-0.1-1-0.1c0,0-0.4-2.7,0.6-3.8
	c0.2-0.2,0.2-0.5,0.2-0.8c0-0.4-0.1-0.7-0.2-1.1c0,0,0,0,0,0.1c-0.7-2.5-2.7-6.3-2.7-6.3s-0.2-2.5,0.5-3.5s-0.6-13.5-0.6-13.5
	s0-6.1-0.9-8.8c-0.9-2.8,0.7-6.2,0.7-6.2s0-0.1,0-0.2l0,0c0,0-0.1-0.4-0.1-0.9c0,0,0,0,0,0.1c-0.2-1.6-0.7-4.5-1-5.8
	c-0.4-1.9-0.3-11-0.3-11l1.4-4l3,6.6l3.3,8.8c0,0,1.5,1.8,1.6,3.7c0,0.1,0,0.2,0,0.3c0,0.2,0,0.4,0,0.6c0,1.1,0.3,2.2,1,3.2
	c0,0,0.9,4.2,2.2,5.2c1.2,1,1.3,3.1,1.3,3.1s1.7,6.1,2.4,7.1c0.6,0.9,0.7,3.4,0.8,4.1l0,0c0,0.1,0,0.2,0,0.2s0.3,2.2,0.4,4
	c0,0.2,0,0.4,0,0.7l0,0c0,0.5,0,1-0.1,1.5v0.1c0-0.1,0-0.2,0-0.3c-0.3,1.3-0.4,2.6-0.3,3.8c0,2.2,0.5,4.8,1.9,6.3
	c2.4,2.6,3.9,2.2,3.9,2.2s-1,3.4-2.3,4.1c-0.1,0-0.1,0.1-0.1,0.1c0-0.1,0-0.1,0-0.2c-0.3,0.3-0.4,0.8-0.4,1.2c0,1.5,1,3.8,1.9,4.8
	c0.3,0.3,0.7,0.5,1.2,0.6c-0.1,0.1-0.1,0.1-0.2,0.1c-0.1,0.1-0.3,0.2-0.5,0.2c-0.2,0.1-0.5,0.2-0.7,0.2c-0.9,0.1-1.8,0.5-2.4,1.3
	c-0.8,1.1-1.3,2.7,0.4,3.9l6.2,1.9C265.2,298.3,275.8,299.2,275.2,296.9z"/>
<path class="st16" d="M235.1,302.4l-6-1.9c-1.7-1.3-1.2-2.8-0.4-3.9c0.5-0.7,1.4-1.2,2.3-1.3c0.4-0.1,0.8-0.2,1.1-0.4
	c0.4-0.2,0.7-0.5,0.9-0.9c0.4-0.7,0.6-1.5,0.6-2.3c0,0,6.4-2.2,8.3-0.3c0.3,0.3,0.6,0.7,0.8,1.1c0.6,1.3,1,2.7,1,4.1
	c0,0,0.4,2.1,1,4.4C245.4,303.3,235.1,302.4,235.1,302.4z"/>
<path class="st16" d="M264,298.3l-6-1.9c-1.7-1.3-1.2-2.8-0.4-3.9c0.5-0.7,1.4-1.2,2.3-1.3c0.2,0,0.5-0.1,0.7-0.2s0.3-0.1,0.5-0.2
	c1.6-1,1.5-3.2,1.5-3.2s6.4-2.2,8.3-0.3c0.2,0.2,0.5,0.5,0.7,0.8c1.2,1.9,1.2,4.5,1.2,4.5s0.4,2.1,1,4.4
	C274.2,299.3,264,298.3,264,298.3z"/>
<path class="st17" d="M241.9,291.3c0.3,0.3,0.6,0.7,0.8,1.1l0,0l-9.7,1.5c0.4-0.7,0.6-1.5,0.6-2.3
	C233.6,291.6,240,289.5,241.9,291.3z"/>
<path class="st17" d="M271.4,288.1l0.1,1.8c-1.4,2.6-8.8,2.3-11,1.1c0.2-0.1,0.3-0.1,0.5-0.2c1.6-1,1.5-3.2,1.5-3.2s6.4-2.2,8.3-0.3
	C271,287.5,271.2,287.8,271.4,288.1z"/>
<path class="st18" d="M272.3,280.2c-0.4,0.8-0.8,1.7-1.1,2.5l0.3,6.5c-1.6,2.8-10.2,2.2-11.4,0.8s-2.6-5.3-1.3-6
	c1.3-0.7,2.2-4.1,2.2-4.1s-1.4,0.4-3.7-2.2c-2.3-2.6-1.9-8.5-1.6-9.9c0.3-1.4-0.2-6.1-0.2-6.1s0-3.3-0.7-4.4s-2.3-7.1-2.3-7.1
	s-0.1-2.1-1.3-3.1s-2.1-5.2-2.1-5.2c-0.7-1-1.1-2.3-1-3.5c0.2-2.1-1.6-4.3-1.6-4.3l-3.2-8.8l-2.9-6.6l-1.3,4c0,0-0.1,9.1,0.3,11
	c0.4,1.9,1.1,6.9,1.1,6.9s-1.5,3.4-0.7,6.2s0.8,8.8,0.8,8.8s1.2,12.5,0.6,13.5c-0.6,1-0.4,3.5-0.4,3.5s3.7,7.2,2.6,8.2
	s-0.6,3.8-0.6,3.8s2.3-0.1,1.4,0.9s-1.5,6.3-1.5,6.3l-10,1.6c0,0-1-1.1-2.4-4.1s0.1-2.7,1.5-3.1c1.3-0.4,0.4-1.2-1.2-2.1
	c-1.6-0.9-0.8-3.2-0.8-3.2s2.2-4.2,1.4-4.5s-1.1-6-1.1-6s-1.9-6.7-1.6-8.6c0.4-1.8-1.6-6.2-1.6-6.2l-0.8-5.2c-3.2-5-2.2-9.8-2.2-9.8
	l-0.3-8c0,0-2.9-15.5-3.6-23.3c-0.4-5-0.6-11.9-0.7-16.2c-0.1-2.4-0.1-4-0.1-4l35.6-5.1c0,0,0,1.7,0.9,5.3c0.4,1.9,1.1,4.5,2.1,7.6
	c2.9,9,1.6,15.9,1.6,15.9l0.1,11.5c0,0,3.4,7.6,2.9,10.3c-0.3,1.6-0.5,3.2-0.5,4.8c0,0,7.7,16.5,7.1,21.5
	c-0.6,4.9,2.8,12.5,2.8,12.5S273,278.7,272.3,280.2z"/>
<path class="st19" d="M250.1,237.8l10.8-1.9C261,235.9,255.1,242.5,250.1,237.8z"/>
<path class="st17" d="M259,225.4c0,0,0.5,3.8-1.8,5.4C257.2,230.7,261.4,229.9,259,225.4z"/>
<path class="st17" d="M257.8,213.1c0,0-8.8,7.8-12.2,7.4C242.4,220,257.8,213.1,257.8,213.1z"/>
<path class="st17" d="M236.8,241.9c0,0-6.9,1.8-7,4.6S236.8,241.9,236.8,241.9z"/>
<path class="st19" d="M239.6,276.3c0,0-9.7,2.2-6.9,3.3c2.8,1.1,7.4,1.9,7.4,1.9S243.3,281.7,239.6,276.3z"/>
<g class="st20">
	<path d="M230.8,281.7c-0.5-0.3-0.9-0.8-0.9-1.4l-0.1,0.2c0,0-0.8,2.3,0.8,3.2c0.2,0.1,0.4,0.2,0.5,0.3c0.3-0.1,0.6-0.1,0.9-0.2
		C233.3,283.5,232.4,282.7,230.8,281.7z"/>
	<path d="M243.4,280.6c0.3-0.3,0.2-0.9,0-1.7c-0.4,0.7-0.5,1.7-0.5,2.4C243,281,243.2,280.8,243.4,280.6z"/>
	<path d="M240.3,239.4c-0.3,1-0.5,2-0.5,3.1c0.2-0.7,0.4-1.4,0.7-2.1C240.4,240.3,240.4,240,240.3,239.4z"/>
	<path d="M262.5,234.2c0.1-0.3,0.1-0.6,0.1-0.9c-0.1,0.6-0.2,1.2-0.2,1.7C262.4,234.7,262.5,234.5,262.5,234.2z"/>
	<path d="M241.2,268.9c0.1-0.2,0.2-0.9,0.2-1.8c-0.3,0.7-0.4,1.5-0.4,2.3C241,269.2,241.1,269,241.2,268.9z"/>
	<path d="M243.9,284.4c-0.6,1.9-0.9,5.1-0.9,5.1l-10,1.6c0,0-1-1.1-2.4-4.1c-0.1-0.3-0.2-0.5-0.3-0.7c-0.6,0.3-0.8,0.9,0.1,2.7
		c1.4,3,2.4,4.1,2.4,4.1l10-1.6c0,0,0.5-5.2,1.5-6.3C244.6,284.8,244.3,284.5,243.9,284.4z"/>
	<path d="M230.1,270.1c0,0,0.3,5.7,1.1,6l0,0c0.4-1,0.6-1.9,0.2-2c-0.8-0.3-1.1-6-1.1-6s-1.9-6.7-1.6-8.6c0.4-1.8-1.6-6.2-1.6-6.2
		l-0.8-5.2c-3.2-5-2.2-9.8-2.2-9.8l-0.3-8c0,0-2.9-15.5-3.6-23.3c-0.4-5-0.6-11.9-0.7-16.2c0-0.8,0-1.5,0-2h-0.3c0,0,0,1.6,0.1,4
		c0.1,4.3,0.3,11.2,0.7,16.2c0.6,7.9,3.6,23.3,3.6,23.3l0.3,8c0,0-1,4.8,2.2,9.8l0.8,5.2c0,0,1.9,4.3,1.6,6.2
		C228.1,263.3,230.1,270.1,230.1,270.1z"/>
	<path d="M260.3,287.8c-0.9-1.1-1.5-2.5-1.7-3.9c-1,1,0.3,4.5,1.5,5.9s9.9,2,11.4-0.8l-0.1-1.6C269.2,289.8,261.4,289.2,260.3,287.8
		z"/>
	<path d="M272.5,278c-0.4,0.8-0.8,1.7-1.1,2.5v1.2c0.2-0.4,0.4-1,0.8-1.7C272.5,279.3,272.6,278.6,272.5,278
		C272.5,277.9,272.5,277.9,272.5,278z"/>
	<path d="M260.5,279.7c0.3-0.6,0.5-1.3,0.7-2c0,0-1.4,0.4-3.7-2.2c-1.7-1.9-1.9-5.5-1.8-7.9c-0.4,1.4-0.8,7.3,1.6,9.9
		C258.8,279.2,259.9,279.6,260.5,279.7z"/>
	<path d="M255.4,261.5c0.2,1.6,0.3,3.3,0.4,4.9c0-0.3,0.1-0.5,0.1-0.8c0.4-1.4-0.2-6.1-0.2-6.1s0-3.3-0.7-4.4s-2.3-7.1-2.3-7.1
		s-0.1-2.1-1.3-3.1s-2.1-5.2-2.1-5.2c-0.7-1-1.1-2.3-1-3.5c0.2-2.1-1.6-4.3-1.6-4.3l-3.2-8.9l-2.9-6.6l-1.3,4c0,0,0,0.5,0,1.3
		l1.1-3.2l2.9,6.6l3.2,8.8c0,0,1.7,2.2,1.6,4.3c-0.1,1.3,0.2,2.5,1,3.5c0,0,0.9,4.2,2.1,5.2c1.2,1,1.3,3.1,1.3,3.1s1.6,6.1,2.3,7.1
		S255.4,261.5,255.4,261.5z"/>
</g>
<path class="st21" d="M256.5,108.8l-0.5,3.1l0.1,1.3l0.1,1l-3.4,0.5l-0.4-0.7l0,0c-0.8-1.3-2.4-3.8-2.8-4.2
	c-0.7-0.5-2.1-8.9-0.7-8.4c0.8,0.3,1.6,0.9,2,1.7C250.7,103,257.6,103.5,256.5,108.8z"/>
<path class="st17" d="M256.2,114.2l-3.4,0.5l-0.4-0.7l0,0c0.9-1.1,2.5-1.5,3.8-0.8V114.2z"/>
<path class="st22" d="M257.1,115.8l-4.5,1.2l-0.1-0.7l-0.3-1.8c0,0,1.7-2.5,4.4-0.8l0.3,0.9L257.1,115.8z"/>
<path class="st21" d="M183,112l-4.8,2.8c0,0-0.2-0.4-0.5-0.9c-0.5-1-1.2-2.4-1.5-2.9c-0.3-0.8-2.4-1.7-2.4-1.7
	c-5.3-4.7,0.6-9.1,0.6-9.1c3-6.6,6.9,1.9,6.9,1.9s0.7,4.5,0.3,4.9c-0.3,0.3-0.3,1.6-0.3,1.6c0.5,0.9,0.9,1.8,1.3,2.7
	C182.9,111.7,183,112,183,112z"/>
<path class="st17" d="M183,112l-4.8,2.8c0,0-0.2-0.4-0.5-0.9c0.7-0.6,3-2.7,3.8-2.6c0.4,0,0.8,0,1.2,0C182.9,111.7,183,112,183,112z
	"/>
<path class="st22" d="M183.6,113.4l-5.4,2.9l-0.2-1.2l-0.1-0.8c0,0,3.1-2.8,4-2.8c0.5,0,1,0,1.4-0.1l0.1,1L183.6,113.4z"/>
<path class="st21" d="M244.1,129.4c0,0-23.7,3.6-19.3,2c3.1-1.1,4.2-3.1,4.4-5.3c0.1-1.8-0.4-3.8-1.1-5.5c-0.6-1.5-1.4-2.9-2.3-4.2
	c0,0,17.8-10.7,14.6-1.5c-0.5,1.4-0.8,2.9-0.9,4.4c-0.1,1.5,0.2,3,0.6,4.4C240.8,125.9,242.2,127.9,244.1,129.4z"/>
<path class="st17" d="M240.3,114.9c-0.5,1.4-0.8,2.9-0.9,4.4c-1.7,1.5-3.5,1.5-6,1.6c-1.9,0.1-3.9,0.6-5.4-0.2
	c-0.6-1.5-1.4-2.9-2.3-4.2C225.7,116.4,243.6,105.6,240.3,114.9z"/>
<circle class="st21" cx="232.7" cy="111.6" r="9.9"/>
<path class="st17" d="M244.1,129.4c0,0-23.7,3.6-19.3,2c3.1-1.1,4.2-3.1,4.4-5.3c1.1-1.3,3.5-2.3,5-2.9c1.4-0.5,2.9-0.6,4.3-0.2
	c0.6,0.1,1.1,0.4,1.6,0.7C240.8,125.9,242.2,127.9,244.1,129.4z"/>
<path class="st17" d="M257.1,115.8l-4.5,1.2l-0.1-0.7c0.9-1.4,2.7-2.1,4.3-1.7L257.1,115.8z"/>
<path class="st17" d="M183.6,113.4l-5.4,2.9l-0.2-1.2c1.9-1.2,5.1-2.5,5.4-2.7L183.6,113.4z"/>
<path class="st17" d="M255.8,189.2c-9.2,1.8-22.2,4.2-24.4,3.7c-1.8-0.5-7.3-0.2-12.1,0.2c-0.1-2.4-0.1-4-0.1-4l35.6-5.1
	C255,183.9,255,185.5,255.8,189.2z"/>
<path class="st23" d="M264.9,186.6c0,0-30.2,6.4-33.5,5.5s-20,0.9-20,0.9c-7.3,5.3-4.5-2.2-4.5-2.2s-0.8-3.9,0-7.1
	c0.5-2.3,0.8-4.7,1-7.1c0,0-0.4-5,0.5-6.2s1.6-9.5,1.6-9.5s0.6-5.7,0.5-6.9s0.1-4.7,0.1-4.7l0.9-5.8c-6.2-0.6-25.6-11.5-25.6-11.5
	c-1.1-3.9-8.5-12.7-8.5-12.7c-0.1-0.8-0.4-1.5-0.7-2.2c-0.5-1.3,6.8-4.2,6.8-4.2s5.8,6.6,7,8.4s5.3,5,5.3,5c0.6-0.1,1.2,0,1.8,0.2
	h0.1l0,0c1.4,0.5,2.6,1.1,3.8,2c3-0.3,5.1,1.7,5.1,1.7s3.4-0.6,4-0.1s3.5-0.1,3.5-0.1s2.7-6.2,4.6-4.5c2,1.7,10.1,1.3,10.1,1.3
	c1-1.5,3.6-2.6,5.2-3.2c1.4-0.5,2.9-0.6,4.3-0.2c0.6,0.2,1.2,0.4,1.7,0.8l5.1,4.6c0,0,1.3-1.9,1.2-2.3s1.6-0.8,1.6-0.8
	s2.4-0.8,3.3-1.1c0.9-0.3,1.8,0.7,1.8,0.8c0-0.1-0.7-2.1-0.5-3.6s-1.1-2.9-1.1-2.9c2.6-7.2,9.4-1.5,9.4-1.5s0.9,3.9,0.3,5.4
	s0.8,4.6,0.7,5.4c-0.1,0.8,0.4,2.2,0.5,3.8s-0.7,4.6-1.1,5.9s-4.3,4.5-4.3,4.5s-0.1,4.7-1.7,7.5c-1.6,2.8-0.2,12.1-0.2,12.1
	s1.9,7.2,4.1,9.5C261.4,173.5,264.9,186.6,264.9,186.6z"/>
<path class="st17" d="M218.5,133.8c0,0-1-2.7-1.9-2.9c-0.8-0.3-1.7-0.6-2.4-1l0.5-1c0,0,3.1,0.7,3.7,1.6
	C218.9,131.4,218.5,133.8,218.5,133.8z"/>
<path class="st17" d="M201.6,128.4c-0.1,0.8-7.5,1.9-7.5,1.9l3.6-3.9l0,0h0.1l0,0C199.2,126.9,200.5,127.6,201.6,128.4z"/>
<circle class="st18" cx="179.8" cy="117.9" r="0.7"/>
<circle class="st18" cx="180.7" cy="119.2" r="0.7"/>
<circle class="st18" cx="181.6" cy="120.3" r="0.7"/>
<circle class="st18" cx="182.5" cy="121.6" r="0.7"/>
<circle class="st18" cx="260.6" cy="118.6" r="0.5"/>
<circle class="st18" cx="260.8" cy="119.8" r="0.5"/>
<circle class="st18" cx="260.9" cy="121" r="0.5"/>
<path class="st17" d="M219.4,156.3c-0.1-0.1,19.5,22.8,33.5,8.6C252.9,164.9,230.1,168.8,219.4,156.3z"/>
<path class="st17" d="M209.1,168.9c0,0,11.2-0.1,12.5,3l0.1,3.3c-0.6,0.4-1.4,0.4-2.1,0.1c-1.2-0.6-8-3.7-10.4-2L209.1,168.9z"/>
<path class="st23" d="M209.4,168.9c0,0,10.7-0.1,11.9,2.9l0.1,3.2c-0.6,0.4-1.4,0.4-2,0.1c-1.1-0.5-7.7-3.6-9.9-1.9L209.4,168.9z"/>
<path class="st17" d="M214.3,144.5c1.2,2.6,2.8,5,4.6,7.3c2,2.5,4.4,4.6,7,6.3C226,158,214.6,146,214.3,144.5z"/>
<path class="st17" d="M210.2,131.6c0,0,2.2,8,7.1,10.5L210.2,131.6z"/>
<path class="st17" d="M207.3,132.5c-0.1-0.1-1.4,6.4,6.6,9.7C213.9,142.3,210.5,141.2,207.3,132.5z"/>
<path class="st17" d="M255.9,125.2c-0.1,0,4,2.4,5.1,3.5C261,128.8,258.3,125,255.9,125.2z"/>
<path class="st16" d="M230.4,120.7c0.2,0.5,0.4,1.1,0.8,1.3c0.3,0.1,0.6,0.2,0.9,0.2c3,0.1,6.1,0.1,8.9-1.2c0.5-0.2,1-0.5,1.3-1
	c0.5-0.6,0.5-1.4,0.7-2.2c0.3-1.5,1.1-2.8,1.7-4.3c0.9-2.4,1.2-5,0.7-7.6c-0.1-0.8-0.4-1.5-0.8-2.2c-0.8-1.1-2.3-1.5-3.4-2.4
	s-1.8-2.2-3.1-2.9c-1.1-0.6-2.5-0.4-3.7-0.2c-2.4,0.5-4.8,1.5-6.8,2.9c-0.7,0.5-1.5,1-2.3,0.9c-0.7-0.1-1.3-0.7-1.8-1.2
	c-0.5,1.4-0.7,2.9-0.6,4.3c0,0.2,0,0.4,0,0.6c-0.1,0.3-0.2,0.5-0.4,0.7c-0.7,0.9-1.1,2.3-0.4,3.1c0.3,0.4,0.8,0.6,1.2,0.9
	c0.6,0.7,0.4,1.7,0.5,2.6c0,0.3,0.1,0.6,0.3,0.9c0.3,0.3,0.8,0.4,1.2,0.2c0.4-0.1,0.9-0.2,1.3-0.2c0.5,0.1,0.9,0.4,1.2,0.8
	C229.1,116.6,229.8,118.6,230.4,120.7z"/>
<g class="st24">
	<path d="M242.7,119.2c-0.4,0.4-0.8,0.7-1.3,0.9c-2.7,1.3-5.9,1.3-8.9,1.2c-0.3,0-0.6,0-0.9-0.2c-0.5-0.2-0.7-0.8-0.8-1.3
		c-0.7-2.1-1.3-4-2.7-5.7c-0.3-0.4-0.7-0.7-1.2-0.8c-0.4,0-0.9,0-1.3,0.2c-0.4,0.1-0.9,0-1.2-0.2c-0.2-0.3-0.3-0.6-0.3-0.9
		c0-0.9,0.1-1.9-0.5-2.6c-0.3-0.4-0.8-0.6-1.2-0.9c-0.4-0.6-0.5-1.3-0.3-2c-0.5,0.9-0.7,1.9,0,2.6c0.3,0.4,0.8,0.6,1.2,0.9
		c0.6,0.7,0.4,1.7,0.5,2.6c0,0.3,0.1,0.6,0.3,0.9c0.3,0.3,0.8,0.4,1.2,0.2c0.4-0.1,0.9-0.2,1.3-0.2c0.5,0.1,0.9,0.4,1.2,0.8
		c1.5,1.7,2.1,3.6,2.7,5.7c0.2,0.5,0.4,1.1,0.8,1.3c0.3,0.1,0.6,0.2,0.9,0.2c3,0.1,6.1,0.1,8.9-1.2c0.5-0.2,1-0.5,1.3-0.9
		c0.2-0.2,0.3-0.5,0.4-0.8C242.7,119.1,242.7,119.2,242.7,119.2z"/>
	<path d="M223,105.6c0.1-0.1,0.2-0.3,0.3-0.5c0-0.2,0-0.4,0-0.6c-0.1-1.2,0-2.4,0.3-3.6l-0.1-0.1c-0.5,1.4-0.7,2.9-0.6,4.3
		C222.9,105.3,223,105.4,223,105.6z"/>
</g>
<path class="st17" d="M228.9,126.7c0,0,12.4,1.2,13.4-0.7"/>
<path class="st17" d="M252.6,120.7c0,0,6.8-0.3,8.4,2.3"/>
<path class="st0" d="M402.3,250.7c0,0,2.3,3-1.1,7.6c-3.4,4.6-6.2,8.4-5,11.2c0,0,5.1-8.5,9.2-8.6
	C409.6,260.8,406.9,255.8,402.3,250.7z"/>
<path class="st17" d="M402.3,250.7c0.2,0.3,0.4,0.6,0.5,0.9c4,4.7,6.2,9.2,2.3,9.3c-3.6,0.1-8,6.6-9,8.2c0,0.1,0.1,0.3,0.1,0.4
	c0,0,5.1-8.5,9.2-8.6C409.6,260.8,406.9,255.8,402.3,250.7z"/>
<path class="st25" d="M406.6,254.5c0,1.1-0.1,1.9-0.3,1.9c-0.1,0-0.3-0.9-0.3-1.9s0.1-0.6,0.3-0.6S406.6,253.5,406.6,254.5z"/>
<path class="st25" d="M408.1,255.8c-0.9,0.5-1.7,0.8-1.8,0.7c-0.1-0.1,0.6-0.6,1.6-1.2s0.6-0.1,0.6,0
	C408.5,255.5,409,255.3,408.1,255.8z"/>
<path class="st0" d="M390.1,250.7c0,0-2.3,3,1.1,7.6c3.4,4.6,6.2,8.4,5,11.2c0,0-5.1-8.5-9.2-8.6
	C382.8,260.8,385.6,255.8,390.1,250.7z"/>
<path class="st17" d="M390.1,250.7c-0.2,0.3-0.4,0.6-0.5,0.9c-4,4.7-6.2,9.2-2.3,9.3c3.6,0.1,8,6.6,9,8.2c0,0.1-0.1,0.3-0.1,0.4
	c0,0-5.1-8.5-9.2-8.6C382.8,260.8,385.6,255.8,390.1,250.7z"/>
<path class="st25" d="M385.8,254.5c0,1.1,0.1,1.9,0.3,1.9c0.1,0,0.3-0.9,0.3-1.9s-0.1-0.6-0.3-0.6S385.8,253.5,385.8,254.5z"/>
<path class="st25" d="M384.3,255.8c0.9,0.5,1.7,0.8,1.8,0.7c0.1-0.1-0.6-0.6-1.6-1.2c-0.9-0.5-0.6-0.1-0.6,0
	C383.9,255.5,383.4,255.3,384.3,255.8z"/>
<ellipse class="st5" cx="396.2" cy="288.9" rx="24.1" ry="3.7"/>
<path class="st26" d="M408.6,265.4l-0.1,0.9l-0.2,1.3l-0.1,0.6l-0.2,1.3l-0.1,0.6l-0.2,1.3l-1.8,15.1c-0.2,1.4-2.4,2.4-5,2.4h-9.6
	c-2.7,0-4.9-1.1-5-2.4l-1.9-15.1l-0.2-1.3l-0.1-0.6l-0.2-1.3l-0.1-0.6l-0.2-1.3l-0.1-0.9c-0.1-0.8,1.1-1.4,2.6-1.4H406
	C407.5,264,408.7,264.7,408.6,265.4z"/>
<polygon class="st27" points="408.5,266.4 408.3,267.7 384.1,267.7 383.9,266.4 "/>
<polygon class="st27" points="408.3,268.3 408.1,269.6 384.3,269.6 384.1,268.3 "/>
<polygon class="st27" points="408,270.1 407.9,271.5 384.5,271.5 384.4,270.1 "/>
</svg>
