<svg version="1.1" id="Layer_1" xmlns="http://www.w3.org/2000/svg" x="0" y="0" viewBox="0 0 283.5 219.4" xml:space="preserve"><style>.st1{opacity:.1}.st2{fill:#3c6fe9}.st6{fill:#f6f7f9}.st7{opacity:.2}.st11{fill:#a27772}.st12{opacity:.1;enable-background:new}.st13{fill:#fbbebe}.st14{fill:#7c7cdd}.st17{fill:#ffd037}</style><path d="M61.5.2c-9.1-.3-18.6-.6-26.9 3.3S20 16.9 22.7 25.6c.9 2.8 2.7 5.3 4.1 7.9 7.4 12.9 7.8 29.6.9 42.8C22.4 86.5 13.5 94.2 7 103.7s-10 22.6-3.7 32.2c4.3 6.5 12.4 9.7 20.2 10.5s15.7-.4 23.5-.8c15.3-.6 30.5 2.3 44.5 8.4 19.3 8.4 35.9 22.9 56.2 28.5 2.4.7 5 1.2 7.5.8 4.4-.8 7.6-4.5 11.1-7.3 11-9.1 26.3-10.9 40.7-11.3 14.3-.4 29.3-.1 42.2-6.3 11.3-5.4 20-15.4 25.4-26.7s7.8-23.8 8.7-36.3c.5-7.4.5-15.1-2.2-22.1-3-7.8-9.1-14.1-15.4-19.5-6.6-5.7-13.9-10.9-22.1-13.9-9.8-3.7-20.5-4.2-30.9-5.1-21.4-1.8-42.7-5.2-63.6-10.2-19.8-4.7-41.6-9.9-59.7-19.6C80.3.2 71.7.5 61.5.2z" opacity=".1" fill="#89daf8"/><g class="st1"><path class="st2" d="M187.2 165.1s.9-13 8.2-20.1c3.1-3 5.1-6.8 5.8-11.1.3-2 .4-4 .4-6.1"/><path class="st2" d="M206.3 123.4c-.5 1.4-4.7 4.6-4.7 4.6s-1-5.1-.5-6.6c.5-1.4 2.1-2.2 3.6-1.6 1.4.6 2.1 2.2 1.6 3.6zm1.3 9.6c-1.2.9-6.5 1.3-6.5 1.3s1.9-4.9 3.1-5.8c1.3-.9 3-.6 3.9.7.9 1.2.6 2.9-.5 3.8zm-5.3 13.5c-1.5.2-6.2-2.1-6.2-2.1s4.1-3.2 5.6-3.4c1.5-.1 2.8 1.1 2.9 2.6.1 1.4-.9 2.7-2.3 2.9zm-6.3 9.3c-1.5.4-6.5-1-6.5-1s3.5-3.9 5-4.3c1.5-.5 3 .3 3.5 1.8s-.3 3-1.8 3.5h-.2zm-.4-23.3c.7 1.4 5.1 4.2 5.1 4.2s.6-5.2 0-6.6c-.7-1.4-2.4-1.9-3.7-1.2-1.5.7-2 2.3-1.4 3.6zm-7.3 11c1 1.1 6.1 2.5 6.1 2.5s-1-5.2-2-6.3-2.8-1.2-3.9-.1c-1.1 1.1-1.2 2.8-.2 3.9zm-5.5 11.7c.8 1.3 5.6 3.5 5.6 3.5s-.1-5.2-.9-6.5c-.9-1.3-2.6-1.6-3.9-.7-1.2.8-1.6 2.5-.8 3.7z"/><path class="st2" d="M206.3 123.4c-.5 1.4-4.7 4.6-4.7 4.6s-1-5.1-.5-6.6c.5-1.4 2.1-2.2 3.6-1.6 1.4.6 2.1 2.2 1.6 3.6zm1.3 9.6c-1.2.9-6.5 1.3-6.5 1.3s1.9-4.9 3.1-5.8c1.3-.9 3-.6 3.9.7.9 1.2.6 2.9-.5 3.8zm-5.3 13.5c-1.5.2-6.2-2.1-6.2-2.1s4.1-3.2 5.6-3.4c1.5-.1 2.8 1.1 2.9 2.6.1 1.4-.9 2.7-2.3 2.9zm-6.3 9.3c-1.5.4-6.5-1-6.5-1s3.5-3.9 5-4.3c1.5-.5 3 .3 3.5 1.8s-.3 3-1.8 3.5h-.2zm-.4-23.3c.7 1.4 5.1 4.2 5.1 4.2s.6-5.2 0-6.6c-.7-1.4-2.4-1.9-3.7-1.2-1.5.7-2 2.3-1.4 3.6zm-7.3 11c1 1.1 6.1 2.5 6.1 2.5s-1-5.2-2-6.3-2.8-1.2-3.9-.1c-1.1 1.1-1.2 2.8-.2 3.9zm-5.5 11.7c.8 1.3 5.6 3.5 5.6 3.5s-.1-5.2-.9-6.5c-.9-1.3-2.6-1.6-3.9-.7-1.2.8-1.6 2.5-.8 3.7z"/></g><g class="st1"><path class="st2" d="M189.8 115.9s.9-13 8.2-20.1c3.1-3 5.1-6.8 5.8-11.1.3-2 .4-4 .4-6.1"/><path class="st2" d="M208.8 74.2c-.5 1.4-4.7 4.6-4.7 4.6s-1-5.1-.5-6.6c.5-1.4 2.1-2.2 3.6-1.6 1.4.5 2.2 2.1 1.6 3.6zm1.4 9.5c-1.2.9-6.5 1.3-6.5 1.3s1.9-4.9 3.1-5.8c1.2-.9 3-.7 3.9.5s.7 3-.5 4zm-5.3 13.5c-1.5.2-6.2-2.1-6.2-2.1s4.1-3.2 5.6-3.4c1.5-.2 2.9.9 3.1 2.4.2 1.5-.9 2.9-2.4 3.1 0 .1-.1.1-.1 0zm-6.3 9.4c-1.5.4-6.5-1-6.5-1s3.5-3.9 5-4.3 3 .5 3.4 1.9-.5 3-1.9 3.4zm-.5-23.3c.7 1.4 5.1 4.2 5.1 4.2s.6-5.2 0-6.6-2.3-2-3.7-1.4c-1.4.7-2 2.3-1.4 3.8 0-.1 0 0 0 0zm-7.2 11c1 1.1 6.1 2.5 6.1 2.5s-1-5.2-2-6.3a2.81 2.81 0 0 0-3.9-.1c-1.1 1.1-1.2 2.8-.2 3.9zm-5.5 11.7c.8 1.3 5.6 3.5 5.6 3.5s-.1-5.2-.9-6.5c-.8-1.3-2.5-1.7-3.8-.9s-1.7 2.5-.9 3.9c-.1-.1-.1-.1 0 0z"/><path class="st2" d="M208.8 74.2c-.5 1.4-4.7 4.6-4.7 4.6s-1-5.1-.5-6.6c.5-1.4 2.1-2.2 3.6-1.6 1.4.5 2.2 2.1 1.6 3.6zm1.4 9.5c-1.2.9-6.5 1.3-6.5 1.3s1.9-4.9 3.1-5.8c1.2-.9 3-.7 3.9.5s.7 3-.5 4zm-5.3 13.5c-1.5.2-6.2-2.1-6.2-2.1s4.1-3.2 5.6-3.4c1.5-.2 2.9.9 3.1 2.4.2 1.5-.9 2.9-2.4 3.1 0 .1-.1.1-.1 0zm-6.3 9.4c-1.5.4-6.5-1-6.5-1s3.5-3.9 5-4.3 3 .5 3.4 1.9-.5 3-1.9 3.4zm-.5-23.3c.7 1.4 5.1 4.2 5.1 4.2s.6-5.2 0-6.6-2.3-2-3.7-1.4c-1.4.7-2 2.3-1.4 3.8 0-.1 0 0 0 0zm-7.2 11c1 1.1 6.1 2.5 6.1 2.5s-1-5.2-2-6.3a2.81 2.81 0 0 0-3.9-.1c-1.1 1.1-1.2 2.8-.2 3.9zm-5.5 11.7c.8 1.3 5.6 3.5 5.6 3.5s-.1-5.2-.9-6.5c-.8-1.3-2.5-1.7-3.8-.9s-1.7 2.5-.9 3.9c-.1-.1-.1-.1 0 0z"/></g><g class="st1"><path class="st2" d="M50.7 132.9s-11.2-6.7-14.2-16.4c-1.2-4.1-3.8-7.7-7.2-10.2-1.6-1.2-3.4-2.2-5.2-3.1M22 97.1c1 1.1 2 6.3 2 6.3s-5.1-1.4-6.1-2.5c-1-1.2-.9-2.9.3-3.9 1.1-1 2.7-.9 3.8.1z"/><path class="st2" d="M31.1 100.3c.3 1.5-1.7 6.4-1.7 6.4s-3.5-3.9-3.8-5.4.7-3 2.2-3.3 3 .7 3.3 2.2v.1zm9.7 10.7c-.5 1.4-4.7 4.6-4.7 4.6s-1-5.1-.5-6.6 2.1-2.2 3.5-1.7c1.5.5 2.2 2.1 1.7 3.5.1.1 0 .2 0 .2zm5.5 9.9c-.3 1.5-3.8 5.4-3.8 5.4s-1.9-4.9-1.6-6.4c.3-1.5 1.7-2.5 3.2-2.2 1.5.2 2.5 1.7 2.2 3.2zm-21-10.1c1.5 0 6-2.6 6-2.6s-4.4-2.9-5.9-2.9-2.8 1.2-2.8 2.8c.1 1.4 1.2 2.6 2.7 2.7zm6.6 11.4c1.5-.4 5-4.3 5-4.3s-5-1.4-6.5-1c-1.5.5-2.3 2-1.8 3.5.4 1.4 1.9 2.2 3.3 1.8zm7.9 10.2c1.5-.2 5.6-3.4 5.6-3.4s-4.7-2.3-6.2-2.1c-1.5.1-2.7 1.4-2.6 2.9s1.4 2.7 2.9 2.6h.3zM22 97.1c1 1.1 2 6.3 2 6.3s-5.1-1.4-6.1-2.5c-1-1.2-.9-2.9.3-3.9 1.1-1 2.7-.9 3.8.1z"/><path class="st2" d="M31.1 100.3c.3 1.5-1.7 6.4-1.7 6.4s-3.5-3.9-3.8-5.4.7-3 2.2-3.3 3 .7 3.3 2.2v.1zm9.7 10.7c-.5 1.4-4.7 4.6-4.7 4.6s-1-5.1-.5-6.6 2.1-2.2 3.5-1.7c1.5.5 2.2 2.1 1.7 3.5.1.1 0 .2 0 .2zm5.5 9.9c-.3 1.5-3.8 5.4-3.8 5.4s-1.9-4.9-1.6-6.4c.3-1.5 1.7-2.5 3.2-2.2 1.5.2 2.5 1.7 2.2 3.2zm-21-10.1c1.5 0 6-2.6 6-2.6s-4.4-2.9-5.9-2.9-2.8 1.2-2.8 2.8c.1 1.4 1.2 2.6 2.7 2.7zm6.6 11.4c1.5-.4 5-4.3 5-4.3s-5-1.4-6.5-1c-1.5.5-2.3 2-1.8 3.5.4 1.4 1.9 2.2 3.3 1.8zm7.9 10.2c1.5-.2 5.6-3.4 5.6-3.4s-4.7-2.3-6.2-2.1c-1.5.1-2.7 1.4-2.6 2.9s1.4 2.7 2.9 2.6h.3z"/></g><path d="M187.9 211.4c7.5 3.3 16.7 1.3 25.3 1.5 1.2 0 2.4.1 3.3.7.9.6 1.4 1.5 2 2.3 2.4 2.9 7.3 3.9 11.6 3.4s8.2-2.1 12.3-3.4c7-2.2 15-3.1 21.9-.8.6.2 1.3.5 2 .4 1.5-.2 2-1.8 3-2.7 1.9-1.6 6.1-1.2 6.9-3.3.5-1.2-.6-2.5-1.9-3.4-4.7-3.3-11.5-3.8-17.6-3.3-6.2.5-12.2 1.9-18.4 1.9-7.7 0-15.2-2.1-22.8-3-5.3-.6-11.1-.5-16.1 1.3-5.4 1.9-6.6 6.2-11.5 8.4zm-142.4-10c12.8 3.7 28.5 1.4 43.1 1.7 2 0 4.1.1 5.7.8 1.6.6 2.4 1.7 3.5 2.6 4.1 3.3 12.5 4.4 19.8 3.8 7.3-.6 14-2.4 20.9-3.8 11.9-2.4 25.6-3.6 37.4-.9 1.1.2 2.2.5 3.4.4 2.6-.2 3.3-2 5.2-3 3.3-1.8 10.3-1.3 11.8-3.7.8-1.4-1.1-2.9-3.2-3.8-8-3.7-19.6-4.3-30.1-3.7s-20.9 2.1-31.5 2.1c-13.2 0-25.9-2.4-39-3.4-9-.7-18.9-.6-27.4 1.4-9.3 2.1-11.3 7-19.6 9.5zm-34.4 9.1c3.7 2.2 8.1.9 12.3 1 .6 0 1.2.1 1.6.5.5.4.7 1 1 1.5 1.2 2 3.6 2.6 5.6 2.3 2.1-.3 4-1.4 6-2.3 3.4-1.5 7.3-2.1 10.6-.5.3.2.6.3 1 .3.7-.1 1-1.2 1.5-1.8.9-1.1 2.9-.8 3.4-2.2.2-.8-.3-1.7-.9-2.3-2.3-2.2-5.6-2.6-8.6-2.2-3 .3-6 1.3-9 1.3-3.8 0-7.4-1.4-11.1-2-2.6-.4-5.4-.4-7.8.8-2.7 1.2-3.3 4.1-5.6 5.6z" opacity=".1" fill="#3c6fe9"/><linearGradient id="SVGID_1_" gradientUnits="userSpaceOnUse" x1="180.92" y1="390.05" x2="180.92" y2="199.05" gradientTransform="translate(-59.52 -189.65)"><stop offset="0" stop-color="gray" stop-opacity=".25"/><stop offset=".54" stop-color="gray" stop-opacity=".12"/><stop offset="1" stop-color="gray" stop-opacity=".1"/></linearGradient><path d="M182.4 9.4H60.5c-6.2 0-11.2 5-11.2 11.1v168.8c0 6.2 5 11.1 11.2 11.1h121.8c6.2 0 11.2-5 11.2-11.1V20.5c0-6.2-5-11.1-11.1-11.1z" fill="url(#SVGID_1_)"/><path d="M56.3 11.6h130.3c2.9 0 5.2 2.3 5.2 5.2v176.6c0 2.9-2.3 5.2-5.2 5.2H56.3c-2.9 0-5.2-2.3-5.2-5.2V16.9c0-2.9 2.3-5.3 5.2-5.3z" fill="#535461"/><path class="st6" d="M58.2 29.3h126.4V181H58.2z"/><circle class="st6" cx="120.9" cy="20.2" r="1.7"/><circle class="st6" cx="120.9" cy="189.6" r="5.2"/><g class="st7"><path class="st2" d="M58.2 29.3h126.4v7.6H58.2z"/></g><circle class="st6" cx="62.2" cy="33.1" r="1.6"/><circle class="st6" cx="66.3" cy="33.1" r="1.6"/><circle class="st6" cx="70.4" cy="33.1" r="1.6"/><path d="M62 73.9h117.7v.4H62zm0 9.2h117.7v.4H62zm0 9.1h117.7v.4H62zm0 9.1h117.7v.4H62zm0 9.2h117.7v.4H62z" fill="#dce0ed"/><g class="st7"><path class="st2" d="M179.7 110.9H61.9v-18l10.8 5.3 11.2 1.5 9.8-2.9 11.8-9.2 6-3.4 4.3-.9 4.2.2 6.9 3.4 9.3 6 7.3.9 5.8-2 12.3-10.1 6.2-2.2 6.6 1 5.3 3.1z"/></g><path class="st2" d="M82.4 99.7c-10.6 0-20.4-6.5-20.6-6.6l.3-.4c.2.1 15.3 10.1 28.1 5.1 4.7-1.8 8-4.7 11.2-7.4 3.4-2.9 6.5-5.6 10.9-6.7 5-1.3 10.4-.1 14.5 3.3 3.5 2.9 10.5 7.5 18 6.2 3.8-.7 7-3.5 10.3-6.4 6.5-5.6 13.2-11.4 24.7-3.1l-.3.4c-11.2-8.1-17.8-2.4-24.1 3.1-3.4 3-6.7 5.8-10.6 6.5-7.6 1.4-14.8-3.3-18.4-6.3-4-3.3-9.2-4.5-14-3.2-4.2 1.1-7.3 3.8-10.7 6.6-3.3 2.8-6.6 5.6-11.4 7.5-2.4 1-5.2 1.5-7.9 1.4z"/><circle class="st2" cx="118.7" cy="83.3" r="2.9"/><g class="st7"><path class="st2" d="M156.7 44.7h-36.8c-.3 0-.6.3-.6.6v24.9c0 .3.3.6.6.6.2 0 .3-.1.4-.2l6.4-6.8c.1-.1.3-.2.4-.2h29.6c.3 0 .6-.3.6-.6V45.3c0-.4-.2-.6-.6-.6z"/></g><path class="st6" d="M127.8 49.3h21v2.6h-21zm0 5.8h5.8v2.6h-5.8z"/><g class="st7"><path class="st2" d="M71.9 129.6h5.8v2.6h-5.8z"/></g><g class="st7"><path class="st2" d="M71.9 134.7h5.8v2.6h-5.8z"/></g><g class="st7"><path class="st2" d="M71.9 139.8h5.8v2.6h-5.8z"/></g><g class="st7"><path class="st2" d="M71.9 144.8h5.8v2.6h-5.8z"/></g><g class="st7"><path class="st2" d="M71.9 149.9h5.8v2.6h-5.8z"/></g><g class="st7"><path class="st2" d="M71.9 155h5.8v2.6h-5.8z"/></g><g class="st7"><path class="st2" d="M71.9 160h5.8v2.6h-5.8z"/></g><g class="st7"><path class="st2" d="M71.9 165.1h5.8v2.6h-5.8z"/></g><g class="st7"><path class="st2" d="M82.8 167.7h5.8v2.6h-5.8z"/></g><g class="st7"><path class="st2" d="M92.9 167.7h5.8v2.6h-5.8z"/></g><g class="st7"><path class="st2" d="M103.1 167.7h5.8v2.6h-5.8z"/></g><g class="st7"><path class="st2" d="M113.2 167.7h5.8v2.6h-5.8z"/></g><g class="st7"><path class="st2" d="M123.3 167.7h5.8v2.6h-5.8z"/></g><g class="st7"><path class="st2" d="M133.5 167.7h5.8v2.6h-5.8z"/></g><g class="st7"><path class="st2" d="M143.6 167.7h5.8v2.6h-5.8z"/></g><g class="st7"><path class="st2" d="M153.8 167.7h5.8v2.6h-5.8z"/></g><g class="st7"><path class="st2" d="M163.9 167.7h5.8v2.6h-5.8z"/></g><path class="st6" d="M140.1 55.1h8.7v2.6h-8.7z"/><path class="st2" d="M82.8 148.7h5.8v16.4h-5.8zm10.1-7.6h5.8v24h-5.8zm10.2-6.4h5.8v30.4h-5.8zm10.1 3.3h5.8v27.1h-5.8zm10.1-5.8h5.8v32.9h-5.8z"/><g class="st7"><path class="st2" d="M133.5 144.8h5.8v20.3h-5.8z"/></g><g class="st7"><path class="st2" d="M143.6 144.8h5.8v20.3h-5.8z"/></g><g class="st7"><path class="st2" d="M153.8 144.8h5.8v20.3h-5.8z"/></g><g class="st7"><path class="st2" d="M163.9 144.8h5.8v20.3h-5.8z"/></g><linearGradient id="SVGID_2_" gradientUnits="userSpaceOnUse" x1="293.037" y1="401.041" x2="293.037" y2="228.077" gradientTransform="translate(-59.52 -189.65)"><stop offset="0" stop-color="gray" stop-opacity=".25"/><stop offset=".54" stop-color="gray" stop-opacity=".12"/><stop offset="1" stop-color="gray" stop-opacity=".1"/></linearGradient><path d="M259.5 71.5c-6.2-3.6-8.6-4.5-8.6-4.5l-.1-.1c-.7-.5-1.2-1.2-1.6-2v-.4c.1-1.9 1.5-3.6 2.7-5.1l3.3-3.9c.4-.4.7-.8.8-1.3.1-.3.1-.5.1-.8v-.3c0-1 0-1.9-.1-2.9 0-.8-.2-1.9-1.1-2.1-.4-.1-1 .1-1.2-.3-.1-.2-.1-.3-.1-.5.2-.6.3-1.3.3-2 0-.3 0-.7-.1-1-.5-1.4-2.2-2-3.6-2.2-1.5-.3-3.1-.5-4.1-1.6-.3-.4-.5-.8-.8-1.1-.4-.4-.9-.6-1.5-.7-1.8-.5-3.8-.3-5.5.5-.7.3-1.4.7-2.2.7s-1.5-.6-2.3-.7c-1.3-.2-2.5.7-3.2 1.9-.4.7-.6 1.4-.6 2.2v.1c0 .8.3 1.6.8 2.2.6.6 1.4 1 1.6 1.7.1.3.1.6.2 1v.2c-1.3 1.7-2.1 3.8-2.1 6 0 4.3 2.9 8.1 7 9.4v.3c0 1.2-.3 2.4-1.4 3.3l-8.8 3.6s-5.3-.6-7.2 7.1c-.3 1.3-.4 2.6-.3 3.9.1 1.2-.1 3.2-1.5 5.9-2.2 4.3-1.7 14.1 2.8 15.1 4.2.9 5.9.5 6 .5v.2c-.1 1.8-.7 17.7-3.2 19.6-.7.5-.5.9 0 1.1v.3c-.1 1.2-.4 5.6-2.1 8.1-1.9 2.9-1.7 19.7-1.7 19.7l-1.3 9.9s.8 6.1 0 7.2c-.7 1-1.7 23.6-1.8 28.5h-.1c-.8 0-1.5.5-1.9 1.2-1 1.7-4.7 4.8-4.7 4.8-.8 1.1-3.7 2.2-5.3 2.7l-.6.3c-.6.3-1 .8-1.3 1.4-.2.4-.3.8-.1 1.2.4 1 8.6 1.6 10.7.7 1.6-.8 8.1-1.8 10.8-2.2 1-.1 1.8-.9 1.9-1.9 0-.3 0-.7-.3-1-.5-.6-.8-2.4-.9-3.5.2-.1.4-.2.6-.4-.2-3.5.3-7.1 1.5-10.4 2-5.2 2.6-15 2.1-21.3 0 0 6.1-26 10.8-28.5.1.1 2.4 3.1 2.7 12.2.3 9.3 3.7 15.4 3.7 15.4s-1.5 15.8 0 21.8l-1.9 9.4-.2-.2s.1.3.1.7v.2h.1c.2 1.2.5 3.2.4 4.4-.1.7-.3 1.6-.4 2.5-.2 1.4-.3 2.8.5 3.1 1.2.5 8.5 1.2 9.8-.4.6-.7.7-1.6.4-2.4-.1-.2-.2-.4-.4-.6 0 0-1.9-3.2-1.4-5.4.1-.4 0-.9-.2-1.3.1-1.1.5-6.2 1.7-10.5 1.2-4.7 3.9-14.9 1.9-21.7-.1-.3-.2-.5-.2-.8-1.1-3.7-1.5-7.5-1.1-11.4-.7-3.3-.7-6.6 0-9.9 1.2-5.4 2-10.8 2-10.8s.7-7.2.1-11.6v-.3l.3-.1s-1.7-7.5-2.3-12.2c-.1-1.1-.3-2.5-.5-4.1.5-.1 1.1-.2 1.6-.4 5.3-1.9 7-18.6 7-18.6V83c0 .2 1.8-7.9-4.4-11.5zm-39.9 129c-.2-.1-.3-.1-.3-.1l.3.1z" fill="url(#SVGID_2_)"/><path d="M256.2 167.9c2.3 6.7-.4 17.5-1.6 22.4S253 201 253 201c-4.9.8-8.5-.2-8.5-.2l2-10c-1.5-5.9 0-21.7 0-21.7s-3.3-6.1-3.6-15.4c-.3-9.2-2.5-12.1-2.6-12.2-4.6 2.4-10.6 28.4-10.6 28.4.5 6.3-.1 16-2 21.2-1.2 3.3-1.7 6.8-1.5 10.4-.7.6-1.6.7-2.6.5-2.8-.5-6.1-2.8-6.1-2.8s1-28.3 1.8-29.3c.8-1.1 0-7.2 0-7.2l1.3-9.9s-.2-16.8 1.6-19.7c1.6-2.5 2-6.9 2-8.1v-.3l2.8-3.4s27.1-2 29.1 0c.5.5.8 1.6 1 3.1.6 4.4-.1 11.6-.1 11.6s-.8 5.3-2 10.8c-.7 3.3-.7 6.6 0 9.9-.2 3.7.1 7.5 1.2 11.2z" fill="#65617d"/><path class="st11" d="M254.5 210.4c-1.2 1.6-8.3.9-9.5.4-.7-.3-.7-1.7-.5-3.1.1-.9.3-1.8.4-2.5.2-1.7-.6-5.3-.6-5.3s1.6 1.7 2 0c.2-.7.8-1.1 1.4-1.3.8-.2 1.7-.2 2.5.2 1.3.5 3.4 1.7 3 3.3-.5 2.2 1.4 5.4 1.4 5.4.1.2.3.4.4.6.2.7.1 1.6-.5 2.3z"/><path class="st12" d="M254.5 210.4c-1.2 1.6-8.3.9-9.5.4-.7-.3-.7-1.7-.5-3.1.8.4 2.1.7 4.2.5.5 0 1-.1 1.5 0 1.5.1 3.1 0 4.6-.1.4.7.3 1.6-.3 2.3zm-24.8-40.6c.5 6.3-.1 16-2 21.2-1.2 3.3-1.7 6.8-1.5 10.4-.7.6-1.6.7-2.6.5.6-4.1 3.1-21.7 4.7-35.6 1.8-15.8 10.3-26.7 10.3-26.7l1.7 1.9c-4.7 2.4-10.6 28.3-10.6 28.3z"/><path class="st13" d="M251.6 68.1l-1.2 5.8-5.8 9.7-7.1-3s-9.7-10.2-3.6-11.6c.7-.2 1.4-.5 2-.9 1.2-.9 1.6-2.2 1.6-3.5 0-2.1-1-4.2-1-4.2l12.5-3.9c-.5 1.6-.8 3.3-.9 5.1-.1 3.4 1.2 5.1 2.2 5.9.4.2.9.4 1.3.6z"/><path class="st12" d="M249 56.4c-.5 1.6-.8 3.3-.9 5.1-.2.3-.5.5-.7.8-2.6 2.5-6.4 3.4-9.9 2.3 0-2.1-1-4.2-1-4.2l12.5-4z"/><path class="st13" d="M250.4 54.9c0 5.5-4.4 9.9-9.9 9.9s-9.9-4.4-9.9-9.9 4.4-9.9 9.9-9.9 9.9 4.3 9.9 9.9c0-.1 0-.1 0 0z"/><path class="st12" d="M251.6 68.1l-1.2 5.8-5.8 9.7-7.1-3s-9.7-10.2-3.6-11.6c.7-.2 1.4-.5 2-.9-1.1 3 3.4 9.3 3.4 9.3.5.8 1.7.3 1.7.3 2.9-.4 8.3-8.9 9.2-10.3.5.3 1 .5 1.4.7zm5.6 56.3c-1.7.4-11.2 2.5-14.8 2-4-.6-11.7-1-11.7-1s-4.9.3-6.4-.4v-.3l2.8-3.4s27.1-2 29.1 0c.5.5.8 1.7 1 3.1z"/><path class="st14" d="M239.4 77.7s-5.1-7.1-3.2-9.8l-8.6 3.5s-5.2-.6-7.1 7.1c-.3 1.3-.4 2.6-.3 3.9.1 1.2-.1 3.2-1.4 5.9-2.1 4.3-1.6 14 2.7 15 4.4 1 5.9.5 5.9.5s-.6 17.7-3.1 19.8c-2.5 2 6.4 1.5 6.4 1.5s7.7.4 11.7 1 15.1-2 15.1-2-1.6-7.5-2.2-12.2c-.6-4.7-1.9-14.8-1.9-14.8l9.9-13.4s1.7-8.1-4.4-11.7-8.4-4.5-8.4-4.5-6.1 10-9.3 10.5c-.1-.1-1.3.4-1.8-.3z"/><path class="st12" d="M228.1 80.5s-.1 3.2.5 4.5 2.7 8.2 2.7 8.2h-4.8s2.6-2.8 2.4-4.2c-.3-1.4-.8-8.5-.8-8.5z"/><path class="st13" d="M242.4 104.6s-10.7-2.6-11.7-4.8-3.7-7.2-3.7-7.2l1.1-1.5 5.2 4.1s6.2 4.9 9.1 5.4c2.9.4 0 4 0 4z"/><path d="M242.4 104.6s-10.7-2.6-11.7-4.8-3.7-7.2-3.7-7.2l1.1-1.5 5.2 4.1s6.2 4.9 9.1 5.4c2.9.4 0 4 0 4z" opacity=".05"/><path class="st13" d="M251.6 92v5.8h-.9c-4.6 0-9.1 1.2-13.2 3.4l-1.7 1-.5.3-3-6.8 2.8-2.5h.1c.7.1 3.7.3 4.9-.1s2.7-1.7 6.2-.8c1.7.4 3.2 2.4 4.9 1.8l.4-2.1z"/><path class="st12" d="M261 81.4l1.9 2.2v5.3s-1.6 16.7-6.9 18.5c-5.2 1.8-14.6-1.1-14.6-1.1s-2.4-6.4-1.3-6.8c1.1-.4 10-2.7 10-2.7S250 87 252 84.1c0 0-1.3-9.1 3.1-9.3 4.3-.1 5.9 6.6 5.9 6.6z"/><path class="st14" d="M261.3 81.4l1.9 2.2v5.3s-1.6 16.7-6.9 18.5c-5.2 1.8-14.6-1.1-14.6-1.1s-2.4-6.4-1.3-6.8c1.1-.4 10-2.7 10-2.7s-.1-9.8 1.8-12.7c0 0-1.3-9.1 3.1-9.3 4.4-.1 6 6.6 6 6.6z"/><path class="st12" d="M247.7 59c0-.6.1-1.3-.2-1.9-.3-.6-.9-1-1.5-.9-.8.2-1.2 1.3-2 1.5-.7.2-1.4-.3-1.8-.9-.3-.6-.3-1.4-.3-2.1v-2.4c0-.9 0-1.8-.6-2.5-.7-.9-2.3-1.2-3.3-1.2-.7 0-1.4.3-1.9.8-.6.5-1.2.8-2 .7-.7-.1-1.2-.6-1.4-1.2 3.3-4.3 9.5-5.2 13.8-1.9s5.2 9.5 1.9 13.8c-.3.4-.7.8-1.1 1.2.3-1 .4-2 .4-3z"/><path d="M234.1 49.8c-.7-.1-1.2-.6-1.4-1.2-.1-.3-.1-.6-.2-1-.2-.8-1-1.2-1.6-1.7-1.1-1.2-1-3.1-.2-4.5.6-1.1 1.8-2.1 3.1-1.9.8.1 1.5.7 2.3.7s1.5-.4 2.2-.7c1.7-.8 3.6-.9 5.4-.5.5.1 1.1.4 1.5.7.3.4.5.7.8 1.1.9 1.2 2.5 1.4 4 1.6 1.4.3 3.1.8 3.5 2.2.3.9 0 1.9-.2 2.9-.1.2 0 .4 0 .6.2.4.8.2 1.2.3.8.2 1 1.2 1 2.1 0 1 .1 1.9.1 2.9.1.9-.2 1.8-.9 2.4l-3.2 3.8c-1.4 1.7-2.9 3.7-2.6 5.9-.7.3-1.5-.3-1.7-1-.2-.7 0-1.5.1-2.2.3-1.2.4-2.5.5-3.8 0-.6.1-1.3-.2-1.9-.3-.6-.9-1-1.5-.9-.8.2-1.2 1.3-2 1.5-.7.2-1.4-.3-1.8-.9-.3-.6-.3-1.4-.3-2.1v-2.4c0-.9 0-1.8-.6-2.5-.7-.9-2.3-1.2-3.3-1.2-.7 0-1.4.3-1.9.8-.7.7-1.3 1.1-2.1.9z" fill="#7c5c5c"/><path class="st12" d="M236.3 80.2l3 12.5c.1 0 2.5 0-3-12.5zm10.4-2.1s-4 6.5-2.4 13.2l.7.1s-1.3-3.1 1.7-13.3zm2.5 36.8s4.9-1.6 5.2 2.1c0 .1-.9-2.5-5.2-2.1zm-14.1-21.5s-1 6.8.8 9.5c0 0-3.5 1.5-8.5 1.2l-.6-10.7h8.3z"/><path class="st12" d="M235.8 102.2l-.5.3-3-6.8 2.8-2.5h.1c0 .3-.8 6.1.6 9z"/><path class="st14" d="M235.1 93.1s-1 6.8.8 9.5c0 0-3.5 1.5-8.5 1.2L224 93.1h11.1z"/><path class="st11" d="M226.7 206.2c-.1 1-.9 1.8-1.9 1.9-2.6.4-9 1.4-10.6 2.2-2 1-10.1.3-10.5-.7-.1-.4-.1-.8.1-1.2.3-.6.7-1.1 1.3-1.4l.6-.3c1.5-.5 4.4-1.6 5.1-2.7 0 0 3.6-3.1 4.6-4.8.4-.7 1.1-1.1 1.9-1.2.8 0 1.8.4 2.2 2.2 0 0 4.6 2.7 5.9.3 0 0 .2 3.6 1 4.5.3.5.4.9.3 1.2z"/><path class="st12" d="M226.7 206.2c-.1 1-.9 1.8-1.9 1.9-2.6.4-9 1.4-10.6 2.2-2 1-10.1.3-10.5-.7-.1-.4-.1-.8.1-1.2.3-.6.7-1.1 1.3-1.4 1.3.9 4.2 1.7 10.6.7 6.1-1 9.1-1.9 10.6-2.5.4.3.5.7.4 1z"/><path d="M253.2 47.9c.1-.8.3-1.5.3-2.2l-.3 1.8c-.1.1-.1.2 0 .4zm-5.7 9.1c.2.3.2.7.2 1.1 0-.5 0-1.1-.2-1.5-.3-.6-.9-1-1.5-.9-.8.2-1.2 1.3-2 1.5-.7.2-1.4-.3-1.8-.9-.3-.6-.3-1.4-.3-2.1v-2.4c0-.9 0-1.8-.6-2.5-.7-.9-2.3-1.2-3.3-1.2-.7 0-1.4.3-1.9.8-.6.5-1.2.8-2 .7-.7-.1-1.2-.6-1.4-1.2-.1-.3-.1-.6-.2-1-.2-.8-1-1.2-1.6-1.7-.5-.6-.8-1.3-.8-2-.1.9.2 1.8.8 2.5.5.6 1.4 1 1.6 1.7.1.3.1.6.2 1 .2.6.7 1.1 1.4 1.2.8.1 1.4-.2 2-.7.5-.5 1.2-.8 1.9-.8 1 0 2.6.3 3.3 1.2.5.7.6 1.6.6 2.5v2.4c0 .7 0 1.5.3 2.1s1.1 1.1 1.8.9c.8-.3 1.2-1.3 2-1.5.6-.3 1.2.2 1.5.8zm8-2.7c-.2.5-.5 1-.8 1.3-1.1 1.3-2.1 2.6-3.2 3.8-1.3 1.6-2.8 3.5-2.7 5.6.1-1.9 1.4-3.6 2.7-5.1l3.2-3.8c.4-.4.6-.8.8-1.3.1-.3.1-.7.1-1 0 .1-.1.3-.1.5zm-8.4 10.1c-.1-.2-.1-.3-.1-.5 0 .3 0 .6.1 1 .2.7 1 1.3 1.7 1v-.4c-.7.1-1.5-.4-1.7-1.1z"/><path class="st12" d="M215 200.2s1 1.8 4.7.2m26.3.2s3.2 3.7 7.1 1.2m2.1-45.2s-2.2 1.4-2.3 2.2 1.2-.6 1.2-.6l1.1-1.6zm.9 10.7c-.8.6-1.7 1-2.8 1.1-1.7.1-1.5 2.3-.4 1.6 1.1-.7 3.2-2.7 3.2-2.7zm.4 1.4s-1.1 5.3-1.9 4.3"/><path class="st2" d="M35.9 193.2s1.4 1.9-.7 4.7c-2.1 2.8-3.8 5.2-3.1 7 0 0 3.2-5.3 5.8-5.4s.8-3.1-2-6.3z"/><path class="st12" d="M35.9 193.2l.3.6c2.5 3 3.9 5.7 1.4 5.8-2.3.1-5 4.1-5.6 5.1 0 .1 0 .2.1.2 0 0 3.2-5.3 5.8-5.4s.8-3.1-2-6.3z"/><path class="st17" d="M38.5 195.6c0 .7-.1 1.2-.2 1.2s-.2-.5-.2-1.2.1-.3.2-.3c.2-.1.2-.4.2.3zm1 .8c-.6.3-1.1.5-1.1.4s.4-.4 1-.7.4-.1.4 0c-.1.1.2 0-.3.3z"/><path class="st2" d="M28.3 193.2s-1.4 1.9.7 4.7 3.8 5.2 3.1 7c0 0-3.2-5.3-5.8-5.4s-.9-3.1 2-6.3z"/><path class="st12" d="M28.3 193.2l-.3.6c-2.5 3-3.9 5.7-1.4 5.8 2.3.1 5 4.1 5.6 5.1 0 .1 0 .2-.1.2 0 0-3.2-5.3-5.8-5.4s-.9-3.1 2-6.3z"/><path class="st17" d="M25.6 195.6c0 .7.1 1.2.2 1.2s.2-.5.2-1.2-.1-.3-.2-.3-.2-.4-.2.3z"/><path class="st17" d="M24.7 196.4c.6.3 1.1.5 1.1.4s-.4-.4-1-.7-.4-.1-.4 0-.3 0 .3.3z"/><path d="M26 204.7s4-.1 5.2-1 6.2-1.9 6.5-.5 6.1 6.9 1.5 6.9c-4.5 0-10.6-.7-11.8-1.4-1.1-.8-1.4-4-1.4-4z" fill="#a8a8a8"/><path d="M39.4 209.6c-4.5 0-10.6-.7-11.8-1.4-.9-.6-1.3-2.6-1.4-3.5H26s.3 3.2 1.5 4 7.2 1.5 11.8 1.4c1.3 0 1.8-.5 1.7-1.2-.2.5-.7.7-1.6.7z" opacity=".2"/></svg>