<svg version="1.1" id="Layer_1" xmlns="http://www.w3.org/2000/svg" x="0" y="0" viewBox="0 0 283.5 213.9" xml:space="preserve"><style>.st0{opacity:.1;enable-background:new}.st0,.st1{fill:#6c63ff}.st2{fill:#444053}.st3{fill:none;stroke:#444053;stroke-miterlimit:10}.st5{fill:#d2d4de}.st6{opacity:.1;enable-background:new}.st8{fill:#dfe3ef}.st9{fill:#fff}.st11{fill:#65617d}.st12{fill:#fbbebe}.st13{fill:#e7effd}.st14{fill:#3f3d56}.st16{opacity:.1}.st17,.st18{opacity:.2;fill:#6c63ff;enable-background:new}.st18{opacity:.5}.st20{fill:#2d293d}.st21{fill:#575988}.st22{opacity:5.000000e-02;enable-background:new}.st24{fill:#ffcdd3}.st25{fill:#dce6f2}.st26{fill:#656691}.st27{opacity:.1;fill:#fff;enable-background:new}.st28{fill:#efb7b9}.st29{fill:#925978}.st30{fill:#4c4981}</style><path class="st0" d="M145.9 43.1c-17.8 3-35.7 1.4-52.9-.8s-34.3-5-52.2-4.5c-11.5.4-24.3 2.6-32.2 9.5C1 54-.1 63.1 0 71.3.1 77.5.6 84 4.8 88.9c2.9 3.5 7.4 6 10.7 9.2 11.7 11.1 8.4 28.4 1 43-3.5 6.8-7.8 13.6-10.1 20.6-2.3 7-2.6 14.6 1.8 20.4 4.4 5.8 12.8 9.1 21.5 10.9 17.7 3.6 37.3 1.7 56.3-.8 42-5.8 83.6-15.1 125.1-24.4 15.3-3.4 30.8-6.9 45.5-12 8.2-2.8 16.5-6.3 21.8-11.9 6.7-7.1 6.7-16.9.1-22.9-11-10-35.7-8.1-44.3-19.4-4.7-6.2-2.8-14.6.8-22 7.7-15.8 22.9-31.4 20.7-47.3-1.5-10.9-12.1-20.1-26.1-22.6-14.7-2.7-33.5 1.8-41.9 12.6-8.5 11.1-26.1 18.2-41.8 20.8z"/><path class="st1" d="M260.8 55.7s-3.5-1.4-14.7 3.7-12.6 4.5-15.5 3.7c-2.9-.8-4.5-1-7.6-5.2 0 0-2.2-11.9-4.3-13.7s-11.1 1-11.1 1-10.8 2.5-12.8-11.9c0 0 1.5-10.9-.5-14.2 0 0 4 1.7 10.6-1.1s11.9 3 11.9 3 1.7 4.3 1.5 6.9.9 3.5 4 2.3c0 0 1.5-2.2-.6-5.8-2.2-3.6-3.8-6.4-3.1-9.2s2.4-6.7 8-8.7 13.3-2.3 17-3.9c3.7-1.5 4.6-2.5 4.6-2.5s-2.3 2.3 3.1 11.9c5.3 9.6 1.9 13.8 1.9 13.8s-2.8 6.8-15.4 6.2c0 0-12.1.4-5.5 5.6 0 0 4.2-.9 10.5-2.9s10.9 6.3 12 12c1.1 5.8 6 9 6 9z"/><path class="st2" d="M244.5 7.3c.6 1.8-4.9 9.2-9.5 15.1h-.1c6.6-8.3 10-13.7 9.6-15.1z"/><path class="st2" d="M235.1 22.2c-3.7 4.8-8.3 10.4-12 14.5-.4.4-.7.8-1 1.2l-.1-.1c.3-.4.7-.8 1-1.2 3.6-4.1 8.4-9.7 12.1-14.4z"/><path class="st2" d="M222 37.8l.1.1c-6.8 8.4-7.2 21.6-7.2 21.7l-1.4-1.6c-.1-.2 1.7-11.7 8.5-20.2z"/><path class="st3" d="M252.9 51.1s-8-4.1-14.2-2.7c-6.2 1.5-20.2-5.3-20.2-5.3s-5.9-2.4-7.1-5.2c0 0-4.1-4.3-4.3-6.5s-4.2-7.8-6.8-8.1m51.5 31.8s-4-2.7-3.5-5.9m-2.7 9.4s-5.7-2.1-6.3-10.3m-3 12.4s-5.5-4.6-3.7-12.5m-7.4 10.3s-3.7-7.7-.4-12.7m28.2.2s-4.2 1.3-3.3 3.5m-1.7-11s-5.6 1.8-5.7 9.6m-2.1-11.4s-5.1 6.2-4.7 11.9m-4.1-9.5s-5 4.8-4.4 7.5m1.4-9.2s-4.7.8-5.4-.7m-.8-5s2.4 3.2 3 2.4m20.6-4.4s-11.9.9-14.6-2.7m-11.5-11.2s5.6 12 9.6 13.5m-3.7-19.2s3.4 11 7.7 14.4"/><path d="M250.8 20.7s-9 3.9-14.5 0m-2.7-12.9s2.1 8.1 4.8 10m11.1-6.2s-5.1 1.9-7 .4" stroke-width=".75" fill="none" stroke="#444053" stroke-miterlimit="10"/><path class="st3" d="M217.9 34.4s0 7.1-1.9 7.6m-13.8 1.5s7.6.7 11.1-3.3m2.6-14.2s-1.8 7.2-6.9 9.1m-11.4.9s5.4 1.9 10-2.9m2.3-13.2s-.5 6.1-3.8 8.9m-8.3-2.1s4.5 0 5.5-1.4"/><ellipse class="st0" cx="168.7" cy="201.8" rx="88.2" ry="4.2"/><path class="st1" d="M46.1 204.9s-9-.5-7.9 5.8c0 0-.2 1.1.8 1.6 0 0 0-.5.9-.3.3.1.7.1 1 0 .4 0 .9-.2 1.2-.5 0 0 2.5-1 3.5-5.2 0 0 .7-.9.7-1.1l-1.5.6s.5 1.1.1 2c0 0 0-2-.3-1.9-.1 0-.8.4-.8.4s.9 1.9.2 3.3c0 0 .2-2.4-.5-3.2l-1.1.6s1 2 .3 3.6c0 0 .2-2.5-.6-3.4l-1 .7s1 1.9.4 3.3c0 0-.1-2.9-.6-3.1 0 0-.8.7-1 1.1 0 0 .7 1.4.2 2.2 0 0-.2-1.9-.5-1.9 0 0-.8 1.3-.9 2.1 0-.8.3-1.6.7-2.3-.5.1-.9.3-1.3.7 0 0 .1-.9 1.5-1 0 0 .7-1 .9-1 0 0-1.4-.1-2.2.2 0 0 .7-.8 2.4-.5l1-.8s-1.8-.2-2.6 0c0 0 .9-.7 2.8-.2l1-.6s-1.5-.3-2.4-.2c0 0 1-.5 2.7 0l.7-.3s-1.1-.2-1.5-.2-.3-.1-.3-.1c.7-.1 1.4 0 2.1.2.3 0 1.9-.5 1.9-.6z"/><ellipse class="st0" cx="39.9" cy="212.8" rx="6.4" ry="1.1"/><path class="st1" d="M30.3 205.2s-5.1-.3-4.5 3.2c-.1.4.1.7.5.9 0 0 0-.3.5-.2h.6c.2 0 .5-.1.7-.3 0 0 1.4-.6 2-2.9 0 0 .4-.5.4-.6l-.9.4c.2.4.2.8.1 1.1 0 0 0-1.1-.2-1.1l-.4.2s.5 1.1.1 1.9c0 0 .1-1.3-.3-1.8l-.6.4s.6 1.1.2 2c0 0 .1-1.4-.3-1.9l-.5.4s.6 1.1.2 1.8c0 0 0-1.6-.3-1.7l-.6.6s.4.8.1 1.2c0 0-.1-1.1-.2-1.1 0 0-.5.7-.5 1.2 0-.5.2-.9.4-1.3-.3.1-.5.2-.7.4 0 0 .1-.5.8-.5.1-.2.3-.4.5-.6-.4 0-.8 0-1.2.1 0 0 .4-.5 1.4-.2l.5-.4s-1-.1-1.4 0c0 0 .5-.4 1.6-.1l.6-.3c-.5-.1-.9-.1-1.4-.1 0 0 .5-.3 1.6 0l.4-.2s-.6-.1-.8-.1-.2-.1-.2-.1c.4-.1.8 0 1.2.1-.3 0 .6-.4.6-.4z"/><ellipse class="st0" cx="26.8" cy="209.7" rx="3.6" ry=".6"/><path class="st1" d="M40 197.6s-6.1-.4-5.4 3.9c-.1.4.1.9.5 1.1 0 0 0-.3.6-.2h.7c.3 0 .6-.1.8-.3 0 0 1.7-.7 2.4-3.5 0 0 .5-.6.5-.8l-1 .4s.4.7.1 1.4c0 0 0-1.3-.2-1.3l-.5.2s.6 1.3.1 2.2c0 0 .2-1.6-.3-2.2l-.7.4s.7 1.3.2 2.4c0 0 .1-1.7-.4-2.3l-.7.5s.7 1.3.2 2.2c0 0-.1-2-.4-2.1-.3.2-.5.5-.7.7 0 0 .5 1 .2 1.5 0 0-.2-1.3-.3-1.3 0 0-.6.9-.6 1.5 0-.5.2-1.1.5-1.5-.3.1-.6.2-.9.5 0 0 .1-.6 1-.7 0 0 .5-.7.6-.7 0 0-.9-.1-1.5.2 0 0 .5-.6 1.7-.3l.7-.5s-1.2-.2-1.7 0c0 0 .6-.5 1.9-.1l.7-.4c-.5-.1-1.1-.2-1.7-.1 0 0 .7-.4 1.9 0l.5-.2s-.8-.2-1-.2c-.2 0-.2-.1-.2-.1.5-.1 1 0 1.4.2-.1 0 1-.4 1-.5z"/><ellipse class="st0" cx="35.7" cy="203.1" rx="4.3" ry=".7"/><path class="st5" d="M166.9 195.7v2h-57.7v-1.6c9.8-3.6 14.8-14.6 11.2-24.4-1.8-4.7-5.3-8.6-9.9-10.7h56c-5.2 2.4-9.1 7-10.5 12.6-1.9 7.6 1 15.5 7.3 20.1 1.2.8 2.3 1.5 3.6 2z"/><path class="st6" d="M166.5 161c-5.2 2.4-9.1 7-10.5 12.6h-35c-1.4-5.6-5.3-10.2-10.5-12.6h56z"/><path class="st5" d="M43.1 151.1v11c0 6.1 4.4 11 9.9 11h169.8c5.5 0 9.9-4.9 9.9-11v-11H43.1z"/><path class="st6" d="M166.9 195.7v2h-57.7v-1.6c1.6-.6 3.1-1.4 4.5-2.4h49.7c1 .8 2.2 1.5 3.5 2z"/><path class="st5" d="M92.5 194.3h91.1c1.3 0 2.4 1.1 2.4 2.4v1c0 1.3-1.1 2.4-2.4 2.4H92.5c-1.3 0-2.4-1.1-2.4-2.4v-1c0-1.3 1-2.4 2.4-2.4z"/><path d="M232.7 31c0-5.5-4.4-9.9-9.9-9.9H53c-5.5 0-9.9 4.4-9.9 9.9v122.2h189.6V31z" fill="#30374e"/><path class="st8" d="M227.5 35.4v105c0 2.7-2.2 4.9-4.9 4.9H53.1c-2.7 0-4.9-2.2-4.9-4.9v-105c0-2.7 2.2-4.9 4.9-4.9h169.5c2.7.1 4.9 2.2 4.9 4.9z"/><circle class="st9" cx="137.9" cy="25.9" r="2.3"/><circle class="st9" cx="137.9" cy="162.5" r="5.6"/><path class="st9" d="M227.5 35.4H48.2c0-2.7 2.2-4.9 4.9-4.9h169.5c2.7.1 4.9 2.2 4.9 4.9z"/><circle class="st8" cx="53.1" cy="33" r="1.2"/><circle class="st8" cx="56.8" cy="33" r="1.2"/><circle class="st8" cx="60.4" cy="33" r="1.2"/><path class="st9" d="M65.1 48.9h144.7v84.5H65.1z"/><linearGradient id="SVGID_1_" gradientUnits="userSpaceOnUse" x1="-367.165" y1="-7.833" x2="-367.165" y2="46.48" gradientTransform="matrix(1 0 0 -1 604.25 192.448)"><stop offset="0" stop-color="gray" stop-opacity=".25"/><stop offset=".54" stop-color="gray" stop-opacity=".12"/><stop offset="1" stop-color="gray" stop-opacity=".1"/></linearGradient><path d="M250.2 163.1c.1-.1-.3-.9-.3-1s-.4-.5-.4-.7c0-.2-.5-.8-.5-.8s-.7-.3-.8-1c-.1-.7-.9-.7-.9-.7v-.1c0-.3 0-.5-.1-.8-.1-.2-.3-.3-.4-.4 0-.2-.1-.5-.2-.7-.2-.2-.2-.5-.2-.7.1-.2-.1-.9-.5-1l-.8-.2h-.5c-.1 0-.2 0-.2-.1-.1-.1-1.2-.4-1.4-.4-.3-.1-.5-.1-.8-.2l-.6-.4c-.2-.2-.4-.4-.5-.7 0-.1-.1-.2-.1-.3.2-.2.4-.4.5-.7v-.1h.1l.3-.3v-.7c.1-.3.3-.7.4-1 0 0 0-.1.1-.1 0-.1 0-.1.1-.2v-.4c0-.3 0-.6-.1-.9-.1-.2-.2-.5-.3-.7-.2-.4-.2-.8-.4-1.1-.3-.6-1-.9-1.6-.7-.3.1-.5.3-.8.4-.4.1-.8 0-1.2 0-.4-.1-.8-.1-1.2.2-.4.3-.5.9-.8 1.2-.1.1-.3.2-.5.4-.1.1-.2.2-.2.3v.4c.1.1.1.2.1.3v.2c0 .1-.1.1-.1.2-.3.3-.5.6-.6 1v.1h.6c.1 0 .2-.1.3-.1v.1c0 1.2.7 2.3 1.7 2.8v.2s-.2-.1-.5.2c-.2.2-.4.4-.6.5 0 0-2.4.4-2.5.7l-1.1.1s-.4.1-.4.9-.2.9-.2.9-.5.8-.4 1.2c0 .3-.1.5-.4.6l-.1.7c-.3 0-.5.2-.6.4-.1.3-.2.5-.3.7 0 0-.7.6-.8 1.1l-.4.3s-1-.2-1.3-.7l-.1-.1-.4-.4v.2l-.1-.1-.1-.3s-1.5-1.8-2.5-1.9c-.2.1-.4.2-.4.4-.1.4-.2 1.1.1 1.5l1.6 1.7.3.4c-.1.1-.1.3-.1.4v.2c0 .1-.1.2-.1.3h-.1.2c.5.2 2.8 1.2 2.9 1.4.5.4 1.2.5 1.8.2.4-.2.8-.6 1-1.1.3-.4.5-.8.8-1.2 0-.2.6-.3.6-.3s.1 1.7-.2 2.4c-.3.6-.9 3.5-.9 3.5h.1v.2h.1c0 .3-.3 1.8-.3 1.8 0 .3-.1.6-.2.9-.1.2-.1 1.5-.1 1.5l-.2.9s0 .1.1.2c.1.3.3.6.6.8 0 .1-.1.3-.1.4-.1.2-.1.4-.1.6-.1.4-.2.9-.2 1.3 0 .3-.1.7-.1 1l-.2 2.3s-.2 2-.1 2.5c0 .4 0 .8-.1 1.3 0 0 .2 1.6.1 1.7s-.2.9-.1 1.3.1 1.5.1 1.5.1 1.5.2 1.9v1.1c0 .3-.1.7-.1 1 0 0-.4.7.3 1.4s.3.6.3.6-.6-.3-.5.3.1.4.2.4l-.1.4h.1s0 .1-.1.1l-.3.3c-.1.1-.2.2-.2.4-.6.6-1.2 1.1-1.9 1.6-.4.2-.7.4-1.1.7-.2.2-.1.3.2.4.9.3 1.9.3 2.9.1.5-.2 1-.5 1.4-.9.3-.2.7-.2 1.1-.2.6.1 1.7-.6 1.7-.6v-.2l-.1-.5c-.1-.1-.1-.2-.1-.3v-.7h.1s-.1-.7.1-.8c.2-.1.2-1.8.2-1.8-.1-.2-.3-.3-.5-.5-.2-.1 0-.9 0-1 0-.1.2-2.1.2-2.1v-.9c.1-.3-.1-1.3-.1-1.3 0-.1 0-.2.1-.3.1-.2.1-1.6.1-1.6v-.9c0-.4.1-.7.3-1.1.1-.2.1-.9.1-.9v.1-.1c.1-.4.1-.8.2-1.1.2-.5.4-1.5.4-1.5l1.2-3.2c.3.6.5 1.3.6 2 .1.5.1 1 .1 1.5 0 .6 0 1.2.1 1.8 0 0 .2 2.1.2 2.2 0 .1.2 1.7.3 2 .1.2-.1 1-.2 1.1-.1.1 0 2 0 2s-.2 1.5-.2 1.8-.2 1.5-.1 2l.1.5s.5.5.2.5c-.4.1-.6.5-.6.9v.1c.2.5.4.9.6 1.4h.2v1c0 .3.1.6 0 .9 0 .1-.1.7-.1 1v.2s0 .7 1.5.5 1.7-.8 1.7-.8v-.1c0-.1.1-.4.1-.6.1-.2-.4-1.2-.4-1.2s-.1-.6-.2-.8c-.1-.1-.1-.2-.1-.3v-.2h.1s-.1-.5.2-.6c.2-.1.3-.4.2-.6 0-.3 0-.6.1-.9 0-.1 0-.3.1-.4.2-.2.3-1.5.3-1.5v-6.1c-.1-.4-.2-1-.1-1.2.1-.2 0-1 0-1s0-1.8.2-2.2c.2-.5.1-3.3.1-3.3l.1-1.8s.4-.4.3-2.5h1.1c.1.1 1.1.7 1.6.3.2-.2.4-.3.7-.5l-.2-3.9.2.4c0-.5 1.6-2.3 1.6-2.3s1.4-1.9 1.8-2.1c.3-.2.9-1.4.9-1.4.1-.2.2-.4.3-.7-.5-.3-1-.9-.9-1zm-3.4 1.3c-.4 0-1.2.9-1.2 1.1 0 .1-.1.3-.2.4v-.2c-.1-1.2-.2-2.6-.1-2.7.1-.4.1-.9.1-1.3.3.8 1.1 1.8 1.1 1.8s.1.4.3.4v.5z" fill="url(#SVGID_1_)"/><path class="st11" d="M225.7 164.1s.5-2.5 2-2.5l1.1 2.3-.7.5s-1.7.1-2.4-.3z"/><path class="st6" d="M228.8 163.9l-.7.5c-.7 0-1.3 0-2-.2-.1 0-.3-.1-.4-.1l.3-.9c0-.1.1-.2.2-.3.2-.5.5-.8 1-1.1.2-.1.3-.1.5-.1h.1l.4.8.6 1.4z"/><path class="st11" d="M241.6 174.4s1.6-.2 1.8 0 1.1.7 1.6.3c.5-.4.2-1.7.2-1.7 0-.1-.1-1.9-.1-1.9l-1-1.3-1.2-2.3-2.5-.2.1 3.6v1.9l1.1 1.6z"/><path class="st6" d="M241.6 174.4s1.6-.2 1.8 0 1.1.7 1.6.3c.5-.4.2-1.7.2-1.7 0-.1-.1-1.9-.1-1.9l-1-1.3-1.2-2.3-2.5-.2.1 3.6v1.9l1.1 1.6z"/><path class="st12" d="M227.4 161.5s-.1 1.6-1.1 1.6c0 0-.3-.2-.7-.4-.9-.6-2.2-1.9-1.9-3.1.5-1.7 3.2 1.4 3.2 1.4l.2.2.3.3z"/><path class="st6" d="M227.4 161.5s-.1 1.6-1.1 1.6c0 0-.3-.2-.7-.4l-.1-.1c.2.1.4.1.5.1.3 0 .6-.2.7-.4l.3-.6c0-.1.1-.3.1-.4l.3.2z"/><path class="st13" d="M226.9 164.4l-.2-.3-.7-1-.4-.5c.2.1.4.1.5.1.3 0 .6-.2.7-.4l.3-.6c.1-.4.1-.5.1-.6.2.1.3.2.4.4l.1.1v.1l.4.7c0 .3.1 1.8-1.2 2z"/><path class="st11" d="M234.7 197.8s-1.1.7-1.6.6c-.4 0-.8 0-1.1.2-.4.4-.8.7-1.4.9-.9.3-2.1.2-2.8-.1-.3-.1-.4-.2-.2-.4.3-.3.7-.5 1.1-.7.7-.5 1.3-1 1.9-1.6 0-.1.1-.3.2-.4.1-.1.2-.2.2-.3.1-.2.3-.3.3-.3l3.2.1s.1.2.1.5c0 .2.1.3 0 .5 0 .1 0 .2.1.3l.1.5-.1.2zm6.7.9c0 .2-.1.4-.1.6v.1s-.2.6-1.7.8c-1.5.2-1.4-.5-1.4-.5v-.2c0-.3.1-.7.1-1v-2.2l2.4-.2c0 .2 0 .4.1.5 0 .1.1.2.1.3.1.1.2.8.2.8s.4.8.3 1z"/><path class="st6" d="M234.4 195.8s.1.2.1.5c-.3.1-1.9.3-2.2.1-.4-.2-.9-.3-1.4-.3v-.1c.1-.2.3-.3.3-.3l3.2.1zm6.3.7c-.6-.1-1.9.1-2.5.2v-.5l2.4-.2c0 .2.1.3.1.5z"/><path class="st14" d="M242 176.8v1.8s.1 2.8-.1 3.2c-.2.5-.2 2.2-.2 2.2s.1.8 0 1 0 .9.1 1.2c.1.4.1.8 0 1.2v4.9s-.1 1.3-.3 1.5c-.1.1-.1.3-.1.4-.1.3-.1.6-.1.9.1.2 0 .5-.2.6-.3.1-.2.6-.2.6-.7-.2-2.7.3-2.7.3-.2-.5-.4-.9-.6-1.4-.1-.4.1-.8.4-.9h.1c.3 0-.2-.5-.2-.5s.1-.1-.1-.5c-.1-.5 0-1.7.1-2l.2-1.8s-.1-1.9 0-2 .3-.8.2-1.1c-.1-.2-.3-1.9-.3-2 0-.1-.2-2.2-.2-2.2s-.2-1.5-.1-1.8c0-.5 0-1-.1-1.5 0-.7-.2-1.4-.6-2l-1.2 3.2s-.2 1-.4 1.5c-.1.4-.2.7-.2 1.1v.3s.1.7 0 .9c-.2.3-.3.7-.3 1.1v.9s.1 1.4-.1 1.5c-.1.1-.1.2-.1.3 0 0 .2 1.1.1 1.3-.1.3-.1.6 0 .9 0 0-.2 2-.2 2.1 0 .1-.2.9 0 1 .2.1.3.3.5.5 0 0 .1 1.7-.2 1.8-.2.1-.1.8-.1.8s-1.9.4-2.3.2c-.4-.2-.9-.3-1.4-.3l.1-.4s-.1.2-.2-.4c-.1-.5.5-.3.5-.3s.4.1-.2-.6c-.7-.7-.3-1.4-.3-1.4.1-.3.1-.7.1-1 .1-.4.1-.7 0-1.1-.1-.5-.2-1.9-.2-1.9s.1-1.1-.1-1.5c-.1-.4.1-1.1.1-1.3s-.1-1.7-.1-1.7c.1-.4.1-.8.1-1.2-.1-.5.1-2.5.1-2.5l.2-2.2c.1-.3.1-.7.1-1 0-.4.1-.9.2-1.3 0-.2 0-.4.1-.6.1-.4.2-.7.2-1.1l1.2-2.9.6-2.5 8.2-.1s0 .2.1.6c0 .4.1 1 .2 1.7s.2 1.4.2 2.3c.3 2.7-.3 3.2-.3 3.2z"/><path class="st12" d="M241.3 154.1l-1.9 2.1s-2.5-1-2.2-1.3c.1-.1.1-.5 0-1-.1-.7-.3-1.5-.3-1.5s4.3-.7 3.9 0c-.1.3-.1.6 0 .9.1.2.3.5.5.8z"/><path class="st6" d="M240.8 152.3c-.1.3-.2.3-.1.6-.6.6-1.3 1.3-2.2 1.3-.5 0-.9-.1-1.4-.3-.1-.7-.3-1.5-.3-1.5s4.4-.8 4-.1z"/><path class="st12" d="M241.6 151c0 1.7-1.3 3.1-3 3.2-1.7 0-3.1-1.3-3.2-3v-.2c.1-1.7 1.5-3 3.2-3 1.7 0 3 1.4 3 3z"/><path class="st6" d="M242.1 171.4h-3.8c-1.8 0-3.6-.3-4.3-.2-1.5.1.5-1.4.5-1.4 1.1.3 2.3.4 3.5.3h.4c1.4-.1 2.8-.2 3.5-.4 0 .4.1 1 .2 1.7z"/><path d="M242.1 171.3h-3.8c-1.8 0-3.6-.3-4.3-.2-1.5.1.5-1.4.5-1.4 1.1.3 2.3.4 3.5.3h.4c1.4-.1 2.8-.2 3.5-.4 0 .4.1 1 .2 1.7z" fill="#e3a79f"/><path class="st6" d="M237.7 155l-2.4 1.1-1.9 14.3s1.1-.5 1.7-.2 2.5 0 2.5 0 1.4-.1 1.6.1c.2.2 2.6-.6 2.6-.6s.4-1 .1-1.1c-.3-.1.1-1.7.1-1.7l-.2-10.3-.4-1.3-1.1-.7-1.1.9-.5.1-1-.6z"/><path class="st13" d="M237.7 154.8l-2.4 1.1-1.8 14.3s1.1-.5 1.7-.2c.6.3 2.5 0 2.5 0s1.4-.1 1.6.1c.2.2 2.6-.6 2.6-.6s.4-1 .1-1.1c-.3-.1.1-1.7.1-1.7l-.2-10.3-.4-1.3-1.1-.7-1.1.9-.5.1-1.1-.6z"/><path class="st6" d="M237.7 155.5s.7.8.7 1v.6l-.5 1.1s-.3 1.3-.3 1.6c0 .3-.5 2.6-.5 2.6l-.5 3.6-.7 4.8.7 1.2.8-.7 1.1-8.5.2-1.7s.2-3 .2-3.3c0-.4-.1-.8-.1-1.1 0 0 .2-.8.9-1 .7-.2-.1 0-.1 0l-.4-.3-.4.1c.1-.1-.9-.4-1.1 0z"/><path class="st14" d="M237.6 155.4s.7.8.7 1v.6l-.5 1.1s-.3 1.3-.3 1.6c0 .3-.5 2.6-.5 2.6l-.5 3.6-.7 4.8.7 1.2.8-.7 1.1-8.5.2-1.7s.2-3 .2-3.3c0-.4-.1-.8-.1-1.1 0 0 .2-.8.9-1 .7-.2-.1 0-.1 0l-.4-.3-.4.1c.1-.1-.9-.4-1.1 0z"/><path class="st6" d="M237.1 154s-.1.1-.1.6c-.1.6-.2 1.1-.4 1.7 0 0 1.4-.9 2-.8l-1.5-1.5z"/><path class="st13" d="M237.1 153.9s-.1.1-.1.6c-.1.6-.2 1.1-.4 1.7 0 0 1.4-.9 2-.8l-1.5-1.5z"/><path class="st6" d="M240.8 153.6l-2.1 1.9s1.8 1.1 2 1.3c.2.3.5-2.5.5-2.5l-.4-.7z"/><path class="st13" d="M240.9 153.5l-2.1 1.9s1.8 1.1 2 1.3c.2.3.5-2.5.5-2.5l-.4-.7z"/><path class="st6" d="M237.2 154s-.2-.1-.5.2c-.2.2-.4.4-.6.5 0 0-2.4.4-2.5.7l-1.1.1s-.4.1-.4.9-.2.9-.2.9-.5.8-.4 1.2c0 .3-.1.5-.3.6l1.6 4.2s0 1.7-.2 2.4c-.3.6-.9 3.5-.9 3.5s.2-.1.2.1-.3 1.9-.3 1.9c0 .3-.1.6-.2.9-.1.2-.1 1.5-.1 1.5l-.2.9s.5 1.1 1.2.9c.7-.2 2.1-3.1 2.1-3.1l.9-3.2.7-3.1.2-2.1.3-4.7.5-3.1c-.1-.2.4-1.8.2-2.1z"/><path class="st11" d="M237.1 153.9s-.2-.1-.5.2c-.2.2-.4.4-.6.5 0 0-2.4.4-2.5.7l-1.1.1s-.4.1-.4.9-.2.9-.2.9-.5.8-.4 1.2c0 .3-.1.5-.4.6l1.6 4.2s.1 1.7-.2 2.4c-.3.6-.9 3.5-.9 3.5s.2-.1.2.1-.3 1.9-.3 1.9c0 .3-.1.6-.2.9-.1.2-.1 1.5-.1 1.5l-.2.9s.5 1.1 1.2.9c.7-.2 2.1-3.1 2.1-3.1l.9-3.2.7-3.1.2-2.1.3-4.7.5-3.1c0-.2.5-1.9.3-2.1z"/><path class="st6" d="M228.8 163.9l-.7.5c-.7 0-1.3 0-2-.2l-.4-.2h-.1.1c.3.1.7.1 1 0 1.1-.4.9-2.1.9-2.5v-.1.1l.4.7.8 1.7z"/><path class="st11" d="M231.4 158.9l-.4.1v.7c-.3 0-.5.2-.5.4 0 .3-.2.5-.3.7 0 0-.7.6-.7 1.1l-.4.3s-1-.2-1.2-.6c0 0 .5 3.3-2 2.5 0 0 2.8 1.2 2.9 1.4.5.4 1.2.5 1.8.2.4-.2.8-.6.9-1.1 0 0 .7-1.1.8-1.2s.6-.3.6-.3l1.1-2.7-2.6-1.5z"/><path class="st6" d="M240.5 155.2l.4-1.7c.1.2.2.5.3.7l.6.4c.2.1.5.2.7.2.2 0 1.2.3 1.4.4.1.1.6 0 .6 0l.8.2c.4.1.6.7.5 1-.1.2 0 .5.2.7.1.2.2.4.2.7.2.1.3.2.4.4.1.3.1.6.1.9l-1.9 2.7c0 .4 0 .9-.1 1.3-.1.2.3 4.2.3 4.2l.4 6.8c-.2.2-.4.3-.6.5-.1.1-.2-2.4-.2-2.5s-3-4.5-3-4.5c-.2-.2-.3-.5-.4-.8 0-.1-.4-1.5-.4-1.5l-.6-2.5.3-7.6z"/><path class="st11" d="M247 159v.1l-1.9 2.7v1.3c0 .1.1 1.5.1 2.7.1.8.1 1.5.1 1.5l.2 2.9.2 3.9c-.2.2-.4.3-.6.5-.1.1-.2-2.4-.2-2.5s-3-4.5-3-4.5c-.2-.2-.3-.5-.4-.8 0-.1-.4-1.5-.4-1.5l-.6-2.5.2-7.7.2-1.7c.1.2.3.5.5.7l.6.4c.2.1.5.2.7.2.2 0 1.2.3 1.4.4.1.1.6 0 .6 0l.8.2c.4.1.6.7.5 1-.1.2 0 .5.2.7.1.2.2.4.2.7.2.1.4.2.4.4.2.4.2.6.2.9z"/><path class="st6" d="M231.1 193.6c.1 0 2.8.1 2.7.5 0 .5-2.7-.5-2.7-.5zm.6.7s1.8.3 1.3.6c-.4.3-1.3-.6-1.3-.6zm6.8-1s3 .2 2.6.6-1.5.4-1.6.4l-1-1zm-.3 1.3s1.7.3 1.7.6c.1.4-1.7-.6-1.7-.6zm.9-7.8s1.5.4 1.6.6l-1.6-.6zm-6 1.1s-.8.2 0 .7c.8.5 0-.7 0-.7zm3.6-12.4c.1 0 1.5-.5 2-.2.4.1.7.2 1.1.2h-3.1zm.2 1.4v.1l-1.2 3.2s-.2 1-.4 1.5c-.1.4-.2.7-.2 1.1l1.1-6.6.7.7z"/><path class="st14" d="M238.8 171.3h-.5l-.3-1.3h.4l.4 1.3z"/><path class="st12" d="M244.9 169.8l-.3.3-1.1.9s-2.9 1.6-3.7.1c-.7-1.3 2.6-2.2 3.4-2.4h.2l1.5 1.1z"/><path class="st6" d="M232.4 157s.6.2.7.6c.2.4-.7-.6-.7-.6zm-1.7 3.9s-.8 1-.5 1.4c.3.4.5-1.4.5-1.4zm14.8-3.3s-.8.1-.8.7l.8-.7zm-7.2 10.6c.1-.1 1.9-2.7 2.3-2.5l-2.3 2.5zm3.3-17.2c0 .5-.1 1-.4 1.5-.2 0-.3-.3-.4-.4-.2-.2-.5-.2-.7-.1-.2.1-.4.4-.3.7-.1-.4-.1-.9-.2-1.3s-.4-.8-.8-.8c-.2 0-.4.1-.5-.1-.1-.1-.1-.2-.1-.3-.3-.5-1.1-.2-1.5 0-.4.3-.8.6-1.2.8.1-1.7 1.5-3 3.2-3 1.6 0 2.9 1.4 2.9 3z"/><path class="st14" d="M238.2 150.1c.1.1.1.2.1.3.1.1.3.1.5.1.4 0 .7.4.8.8s.1.9.2 1.3c0-.3.1-.5.3-.7.2-.1.5-.1.7.1.1.1.2.4.4.4s.4-.1.5-.4c0-.2.1-.4.1-.6.1-.4.4-.7.5-1.1.2-.5.2-1 0-1.5-.1-.2-.2-.5-.3-.7-.1-.4-.2-.8-.4-1.1-.3-.6-1-.9-1.6-.7-.3.1-.5.3-.8.4-.4.1-.8 0-1.2 0-.4-.1-.8-.1-1.2.2-.4.3-.5.9-.8 1.2-.1.1-.3.2-.5.4-.2.1-.3.3-.3.5 0 .3.3.5.2.8 0 .1-.1.1-.1.2-.3.3-.5.7-.6 1.1.7.2 1.4-.5 2-.9.3-.4 1.2-.6 1.5-.1z"/><path class="st6" d="M244.9 169.8l-.3.3c-.3-.5-1.5-1.4-1.5-1.4h.2l1.6 1.1z"/><path class="st13" d="M245.2 169.3s-.1.3-.2.5c-.1.3-.2.5-.2.3 0-.4-1.5-1.6-1.5-1.6l.2-.2.2-.2 1.5 1.2z"/><path class="st6" d="M245.3 167.3l.2 2.9c-.4-.6-1.5-2.2-2.2-2.2l1.7-2c.1-.1.1-.2.2-.2 0 .9.1 1.5.1 1.5z"/><path class="st6" d="M245.2 169.3s-.1.3-.2.5c-.5-.6-1.1-1.4-1.6-1.5l.2-.2 1.6 1.2z"/><path class="st11" d="M246.5 158.8l.5.4s.8 0 .9.7c.1.7.8.9.8.9s.5.5.5.8.4.7.4.7.4.8.3 1c-.1.1.4.8.3 1l-.3.6s-.6 1.2-.9 1.4c-.3.2-1.7 2.1-1.7 2.1s-1.5 1.8-1.5 2.3c0 0-1.5-2.5-2.4-2.4l1.7-2s.3-.3.3-.5.8-1.1 1.2-1.1c0 0 .1-.5-.1-.5s-.3-.4-.3-.4-1.1-1.4-1.2-2.2c-.1-1.1 1.5-2.8 1.5-2.8z"/><path class="st6" d="M247.2 160s-1.1.8-.9 1.1c.3.2.9-1.1.9-1.1zm0 3.3s2-.6 2.2 0h-2.2zm-12.5 34.5s-1.1.7-1.6.6c-.4 0-.8 0-1.1.2-.4.4-.8.7-1.4.9-.9.3-2.1.2-2.8-.1-.3-.1-.4-.2-.2-.4.8.2 2.5.5 2.9.2l1.5-.9s1.1-.2 1.3-.2c.5-.2 1-.3 1.5-.6l-.1.3zm6.6 1.5c0 .1-.2.6-1.7.8-1.5.2-1.4-.5-1.4-.5v-.2c.4.2 1.4.4 3.1-.1zm-8.3-39.4s0 3-.2 3.2c-.3.3.2-3.2.2-3.2zm11.7.9l.4 1.1c-.1 0 .1-1.1-.4-1.1z"/><g class="st16"><path d="M235.5 149.5c.1-.2-.2-.5-.2-.7v.2c0 .1.1.3.2.5zm4.3 2.8c-.1-.4-.1-.8-.2-1.2-.1-.4-.4-.8-.8-.8-.2 0-.4.1-.5-.1-.1-.1-.1-.2-.1-.3-.3-.5-1.1-.2-1.5 0-.5.4-1.3 1.1-1.9.9 0 .1-.1.2-.1.2.7.2 1.4-.5 2-.9.4-.2 1.2-.5 1.5 0 .1.1.1.2.1.3.1.1.3.1.5.1.4 0 .7.4.8.8s.1.9.2 1.3c-.1-.1 0-.2 0-.3z"/><path d="M241.7 151.8c-.1.2-.2.4-.5.4-.2 0-.3-.3-.4-.4-.2-.2-.5-.2-.7-.1-.2.1-.4.4-.3.6.1-.2.2-.3.3-.4.2-.1.5-.1.7.1.1.1.2.4.4.4s.4-.1.5-.4c0-.1.1-.2.1-.4 0 .1 0 .1-.1.2zm.7-1.8c-.1.4-.4.7-.5 1.1v.2c.1-.4.4-.7.5-1.1.1-.2.1-.4.1-.5-.1.1-.1.2-.1.3z"/></g><path class="st8" d="M78.7 56.9h18.5V76H78.7zm23.7 0h18.5V76h-18.5z"/><path class="st17" d="M126.1 56.9h18.5V76h-18.5zm23.8 0h18.5V76h-18.5zm23.7 0h18.5V76h-18.5z"/><path transform="rotate(-37.108 188.94 63.004)" class="st0" d="M179.7 53.4h18.5v19.1h-18.5z"/><path class="st9" d="M88 58.9c-1.7 0-3.1 1.4-3.1 3.1s1.4 3.1 3.1 3.1 3-1.4 3-3.1c0-1.7-1.3-3.1-3-3.1zm2.1 3.9c-.1 0-.3-.1-.4-.2v-.2c.2 0 .3 0 .5-.1.1 0 0 0 0-.1-.3-.2-.2-.6-.2-.9 0-.3-.1-.5-.3-.7-.1-.1-.3-.1-.5-.1-.1 0-.3 0-.4.1-.6.2-.2 1.1-.5 1.6 0 .1-.1.1 0 .2s.3.1.4.1v.2c0 .1-.2.1-.2.1-.1 0-.2.1-.2.1v.1h.2c.3.1.5.2.7.4.2.2.3.4.3.7 0 .1 0 .1-.1.2l-.1.1h-.1c0-.4-.3-.8-.7-1-.2-.1-.4-.1-.6-.1-.1 0-.2 0-.2-.1v-.4c0-.1.1-.1.1-.1.1-.1.1-.3.1-.5.1 0 .1-.2.2-.3 0-.1.1-.3 0-.3 0-.1.1-.1.1-.2v-.6c-.2-.6-.6-.8-1-.8s-.8.2-.9.6c-.1.2-.1.4 0 .6 0 .1 0 .2.1.3-.1 0-.1.2 0 .3 0 .1 0 .3.2.3 0 .1 0 .2.1.4 0 .1.1.1.1.2v.5c0 .1-.3.2-.4.2-.2 0-.4.1-.6.2-.8-1.3-.3-2.9.9-3.7.4-.2.9-.4 1.3-.4a2.732 2.732 0 0 1 2.7 2.7c0 .4-.1.7-.2 1.1-.2-.4-.3-.4-.4-.5z"/><path class="st18" d="M88.2 73.1v-3.4l1.6 1.6.4-.4-2.2-2.3-2.2 2.2.4.4 1.6-1.6V73h.4zm23.7 0v-3.4l1.6 1.6.4-.4-2.2-2.2-2.2 2.2.4.4 1.6-1.6v3.4h.4z"/><path class="st9" d="M111.7 61.4h-.1l-1.3 1.7v.1l2.2.2s.1 0 .1-.1l-.9-1.9zm1.5.9s-.1 0 0 0h-.1l-.3.3v.1l.4.7.6.1s.1 0 .1-.1l-.7-1.1zm.2-.6c.2 0 .3-.1.3-.3 0-.2-.1-.4-.3-.4-.2 0-.4.1-.4.3 0 .2.1.4.4.4-.1 0-.1 0 0 0z"/><path class="st9" d="M114.4 60.4l-.9-.1-.1-.9c0-.2-.2-.4-.4-.3l-4.1.4c-.2 0-.4.2-.3.4l.4 4.1c0 .2.2.4.4.3h.2v.2c0 .2.1.4.3.4l4.1.4c.2 0 .4-.1.4-.3l.4-4.1c0-.3-.2-.5-.4-.5zm-5.1 2.4c-.1 0-.1 0-.1-.1l-.2-2.8c0-.1 0-.1.1-.1l3.9-.3c.1 0 .1 0 .1.1l.1.7-2.8-.2c-.2 0-.4.1-.4.3l-.2 2.4h-.5zm5.1-1.9l-.2 2.8c0 .1-.1.1-.1.1h-.2l-3.6-.3c-.1 0-.1 0-.1-.1l.1-.6.2-2.2c0-.1 0-.1.1-.1l2.8.2h.4l.6.2c-.1-.1 0 0 0 0z"/><path class="st8" d="M78.7 94.9h42.2v31.4H78.7z"/><path class="st1" d="M104.6 104.6c-7.7-2.7-16.2 1.4-18.8 9.2-.5 1.6-.8 3.2-.8 4.8 0 .6-.5 1.1-1.1 1.1-.6 0-1.1-.5-1.1-1.1 0-9.3 7.6-16.9 16.9-16.9 1.9 0 3.7.3 5.4.9"/><path class="st9" d="M105.3 102.5c6.8 2.3 11.4 8.8 11.5 16 0 .6-.5 1.1-1.1 1.1-.6 0-1.1-.5-1.1-1.1 0-6.3-4-11.9-10-14"/><path class="st1" d="M101.4 111.1c-.6 0-1.2.3-1.6.8-.3-.5-.9-.8-1.5-.8-1 0-1.8.8-1.8 1.8 0 .8.3 1.5.8 2.2 1 1.3 2.6 2.5 2.6 2.5s1.6-1.2 2.6-2.5c.5-.6.7-1.4.8-2.2-.1-1-.9-1.8-1.9-1.8z"/><path class="st8" d="M132.5 81.7h64v47.6h-64z"/><path class="st9" d="M139.1 117.6h2.6v8.8h-2.6zm5-10.9h2.6v19.7h-2.6z"/><path class="st8" d="M149.1 96.9h2.6v29.5h-2.6z"/><path class="st9" d="M154.1 89.9h2.6v36.4h-2.6z"/><path class="st1" d="M149.1 89.9h2.6v36.4h-2.6zm10 16.4h2.6v20h-2.6z"/><path class="st9" d="M164.1 101.1h2.6v25.2h-2.6zm5-7.8h2.6v33.1h-2.6z"/><path class="st17" d="M174.1 111.6h2.6v14.7h-2.6zm5-6.8h2.6v21.5h-2.6zm4.9-7.9h2.6v29.5H184zm5 0h2.6v29.5H189z"/><path class="st11" d="M203.7 77.1l2.5-1.4 1.2.7 24.1 115.8-1.4.2-3-2.6z"/><path class="st6" d="M206.2 75.7l23.9 116.7 1.4-.2-24.1-115.8z"/><path class="st11" d="M188.5 82l18.3 1.8v1.4l-18.2-1.6zm2 17.3h19.4v2h-19.7zm1.8 18.1l19.6-.8 2.4.8v1.3l-17.4.9h-4.5z"/><path class="st6" d="M197.2 118.4l17.1-1v1.3l-17.4.9z"/><path class="st6" d="M192.3 117.4l4.9 1-.3 1.2h-4.5z"/><path class="st11" d="M194 137l21.7-2 2.4.6v1.4l-19.4 2-4.7.4z"/><path class="st6" d="M198.7 137.8l17.2-1.7 2.2-.5v1.4l-19.4 2z"/><path class="st6" d="M193.8 138.1l4.9-.3v1.2l-4.7.4z"/><path class="st11" d="M195.1 156.5l24.4-3.3 2.1.9v1.6l-21.1 3.1h-4.9z"/><path class="st6" d="M200.5 157.8l21.1-3.7v1.6l-21.1 3.1zm-5.1.1l5.1-.1v1h-4.9z"/><path class="st11" d="M196.5 176.6l26.8-5 2.3 1.4v1.1l-23.4 5.7-4.9.3z"/><path class="st6" d="M202.2 178.6l23.4-5.6v1.1l-23.4 5.7zm-5.2.3l5.2-.3v1.2l-4.9.3z"/><path class="st11" d="M190.3 74.3l-2.2.4 7.8 124.5 2.3.8h1.8z"/><path class="st6" d="M189.2 74.5l9 125.5h1.8l-9.7-125.7z"/><path transform="rotate(-37.108 191.199 62.221)" class="st9" d="M181.9 52.6h18.5v19.1h-18.5z"/><path transform="rotate(-37.108 191.199 62.221)" class="st8" d="M181.9 52.6h18.5v19.1h-18.5z"/><path class="st18" d="M195.5 67.5l-2.1-2.7 2.2.3.1-.6-3.1-.4-.4 3.2.5.1.3-2.2 2.1 2.7.4-.4z"/><path class="st9" d="M190.7 61.5c-1.3 1-3.1.7-4.1-.6-.5-.6-.7-1.4-.6-2.2 0-.1.1-.2.3-.2.1 0 .2.1.2.3-.2 1.3.7 2.6 2 2.8.7.1 1.3-.1 1.8-.5 1.1-.8 1.2-2.4.4-3.4-.8-1-2.1-1.2-3.1-.6l.5.7c.1.1 0 .3-.1.3-.1.1-.2 0-.3 0l-.7-.9c-.1-.1-.1-.2 0-.3 1.3-.9 3.1-.6 4 .7 1.1 1.3.9 3-.3 3.9z"/><path class="st9" d="M187.2 58.8h1.8c.2 0 .5.2.5.4s-.2.5-.4.5h-.2l-1.7-.5c-.1 0-.1-.1-.1-.2s0-.2.1-.2z"/><linearGradient id="SVGID_2_" gradientUnits="userSpaceOnUse" x1="-844.666" y1="69.024" x2="-844.666" y2="128.321" gradientTransform="scale(1.00004 -1.00004) rotate(2.2 4585.51 27066.42)"><stop offset="0" stop-color="gray" stop-opacity=".25"/><stop offset=".54" stop-color="gray" stop-opacity=".12"/><stop offset="1" stop-color="gray" stop-opacity=".1"/></linearGradient><path d="M209.7 117.8c-.2-.7-.3-1.2-.3-1.2 0-.4-.1-.9-.3-1.3v-.3l-.1-1.4c.1-.2.2-.5.3-.7.2-.4-.1-2-.1-2s-1-2.2-.8-3.6c.2-1.4-2.1-6.1-2.1-6.1 0-.5 0-.9.1-1.4v-.3c-.1-.9-.9-2.6-.9-2.6v-3.3s.4-2-.5-4.5c-.3-.9-.5-1.6-.6-2.2v-.2c1.6-.3 2.7-.5 2.7-.5s-1.1-3.8-1.7-4.4-1.2-2.7-1.2-2.7-.4-2.7.1-3.5c.5-.8.5-2.2.5-2.2s1.1-.9 1.3-1.3c.2-.5.3-1.1.3-1.7 0-.4-.2-.8-.1-1.1 0-.2-.4-1.1-.2-1.6 0-.1.1-.3.1-.4 0-.4-.1-.7-.1-1.1-.4-.3-.8-.5-1.2-.6v-.1l-.1-.3s-.1 0-.1-.1v-.5l.2-.9c.3-1.5-1.7-1.7-1.7-1.7-.1-.2-.4-.4-.6-.5-.4-.1 0 2.3.2 2.4.3.4.6.8.8 1.2v.1l-.1.1.1.5v.1l-.3.6c.2.2.3.5.3.8 0 .4 0 .7.2 1 0 0-.3-.3-.5-.2-.3.1-1 .3-1 .3s-.5.1-.5.2-.3.7-.3.7L200 68v-.1c-.1-.2-.1-.4-.1-.6.2 0 .3-.1.5-.2s.3-.2.4-.3c.1-.2.2-.4.2-.6.1-.4.3-.8.5-1.2.3-.7.3-1.4.2-2.2 0-.2-.1-.4-.2-.6-.2-.3-.7-.4-1-.7-.3-.2-.5-.6-.9-.8-.4-.1-.7-.2-1.1-.1-.7.2-1.4.4-2 .8-.2.2-.4.2-.7.2-.2-.1-.4-.2-.5-.3-.1.3-.2.7-.2 1.1v.5c0 .1-.1.1-.1.2s-.1.1-.1.2v-.1c-.1.1-.1.3-.1.5 0 .1 0 .2.1.3.1.1.2.1.2.2v.5c0 1 .6 1.9 1.5 2.3 0 0 0 .1.1.1.2.5.3 1 .3 1.6v.2s-2.4.1-3-.4c-.6-.5-1.4 1.3-1.4 1.3s-.9.2-1 0c-.2-.2-1.2 0-1.2 0-.4-.4-1-.5-1.5-.5-.3-.2-.7-.4-1.1-.6-.2-.1-.4-.1-.5 0 0 0-1.2-.9-1.6-1.4-.4-.5-2.1-2.4-2.1-2.4v.1-.3h-.1v-.1c-.1-.3-.2-.5-.4-.8 0 0 0-.4.1-.4.1-.1-.1-1.4-.1-1.4s-1.2-2.4-2-.5c0 0-1.7 1.3-.2 2.6 0 0 .6.3.7.5.1.1.3.6.4.8l.1.1v.3c-.3.2-.5.3-.4.5.1.2.2.4.2.6 0 0 2.2 2.5 2.5 3.6 0 0 5.7 3.1 7.6 3.3l-.2 1.7s-.1 1 0 1.4c0 .4-.1 2-.1 2s-.2 2.4-.5 2.7-.2 1.8-.2 1.8c0 .7-.1 1.4-.3 2-.1.7-.1 1.4 0 2 0 0-.8 2.2 1.3.6 0 0 1.1-.1 2.4-.2v.6c0 1.2.1 2.9.2 4.2.2 2.2 1 6.7 1 6.7l.1 2.2v.6c0 .8.3 1.6.7 2.2l.2 1.5s.4 1 .5 1.6v.3c0 .7.5 2.3.5 2.3s.1 1.6.3 1.7c.2.1-.2 1-.4 1.2 0 .1-.1.3-.1.4 0 .2.1.4.3.6.5.3.7.5.3.6-.1 0-.3.1-.4.1v-.1c-.1 0-.2.2-.2.3 0 .2.1.4.2.5.2.4.4.8.7 1.2h.2c0 .1-.1.1-.1.2-.1.1-.2.2-.3.2-.1.1-.2.1-.3.1-.3 0-.5.2-.7.4-.2.3-.4.8.1 1.1l1.8.5s3 .2 2.8-.4-.3-1.2-.3-1.2c0-.4-.1-.8-.3-1.2 0-.1-.1-.1-.1-.2h.1s.2-1.5.4-1.8c.1-.1.1-.1.1-.2s-.1-.1-.2-.1v.1h-.3s-.1-.8.2-1.1c0-.1.1-.2.1-.2v-.3c-.2-.6-.5-1.2-.8-1.8 0 0 0-.7.1-1 .2-.3-.2-3.9-.2-3.9s0-1.7-.2-2.5.2-1.8.2-1.8v-.3c-.1-.5-.2-1.3-.3-1.7-.1-.5-.1-3.2-.1-3.2l.4-1.1.9 1.9.9 2.5c.2.3.4.7.5 1.1v.3c0 .3.1.6.3.9 0 0 .3 1.2.6 1.5.2.2.4.6.4.9 0 0 .5 1.7.7 2 .2.2.2 1 .2 1.2v.1s.1.6.1 1.2v.2c0 .1 0 .3-.1.4v-.1c-.1.4-.1.7-.1 1.1 0 .6.1 1.4.5 1.8.7.7 1.1.6 1.1.6s-.3 1-.7 1.2v-.1c-.1.1-.1.2-.1.4 0 .5.2 1 .5 1.4.1.1.2.1.3.2h-.1s-.1 0-.1.1c-.1 0-.1 0-.2.1-.3 0-.5.2-.7.4-.2.3-.4.8.1 1.1l1.8.5c-.6.2 2.5.4 2.3-.2z" fill="url(#SVGID_2_)"/><path class="st20" d="M198.2 119.3l-1.7-.5c-.5-.4-.3-.8-.1-1.1.2-.2.4-.3.7-.4.1 0 .2-.1.3-.1.1-.1.2-.1.2-.2.1-.2.2-.4.2-.7 0 0 1.8-.6 2.4-.1.1.1.2.2.2.3.2.4.3.8.3 1.2 0 0 .1.6.3 1.2.1.7-2.8.4-2.8.4zm8.3-1.1l-1.7-.5c-.5-.4-.3-.8-.1-1.1.2-.2.4-.3.7-.4.1 0 .1 0 .2-.1 0 0 .1 0 .1-.1.5-.3.4-.9.4-.9s1.8-.6 2.4-.1l.2.2c.2.4.3.8.3 1.3 0 0 .1.6.3 1.2.1.7-2.8.5-2.8.5z"/><path class="st6" d="M200.1 116.2c.1.1.2.2.2.3l-2.8.4c.1-.2.2-.4.2-.7.1 0 1.9-.6 2.4 0zm8.5-1v.5c-.4.7-2.5.7-3.1.3 0 0 .1 0 .1-.1.5-.3.4-.9.4-.9s1.8-.6 2.4-.1c.1.2.1.3.2.3z"/><path class="st21" d="M208.8 113c-.1.2-.2.5-.3.7l.1 1.9c-.4.8-2.9.6-3.3.2-.3-.4-.7-1.5-.4-1.7.4-.2.6-1.2.6-1.2s-.4.1-1.1-.6-.5-2.4-.4-2.8-.1-1.7-.1-1.7 0-.9-.2-1.2c-.2-.3-.7-2-.7-2 0-.3-.1-.6-.4-.9-.3-.3-.6-1.5-.6-1.5-.2-.3-.3-.6-.3-1 0-.6-.4-1.2-.4-1.2l-.9-2.5-.8-1.9-.4 1.1s0 2.6.1 3.2c.1.5.3 2 .3 2s-.4 1-.2 1.8.2 2.5.2 2.5.4 3.6.2 3.9c-.2.3-.1 1-.1 1s1.1 2 .7 2.3c-.3.3-.2 1.1-.2 1.1s.7 0 .4.3c-.3.3-.4 1.8-.4 1.8l-2.9.4c-.3-.4-.5-.8-.7-1.2-.4-.9 0-.8.4-.9.4-.1.1-.3-.3-.6s-.2-.9-.2-.9.6-1.2.4-1.3c-.2-.1-.3-1.7-.3-1.7s-.5-1.9-.4-2.5c.1-.5-.4-1.8-.4-1.8l-.2-1.5c-.5-.8-.8-1.8-.6-2.8l-.1-2.3s-.8-4.4-1-6.7c-.1-1.4-.2-3.4-.2-4.6v-1.1l10.2-1.5c0 .5.1 1 .2 1.5.1.6.3 1.3.6 2.2.8 2.6.5 4.5.5 4.5v3.3s1 2.2.8 2.9c-.1.5-.1.9-.1 1.4 0 0 2.2 4.7 2 6.1-.2 1.4.8 3.6.8 3.6s.4 1.4.1 1.9z"/><path class="st22" d="M202.5 100.8l3.1-.5s-1.7 1.9-3.1.5z"/><path class="st6" d="M205 97.3s.1 1.1-.5 1.5c0 0 1.2-.2.5-1.5zm-.3-3.5s-2.5 2.2-3.5 2.1 3.5-2.1 3.5-2.1zm-6 8.2s-2 .5-2 1.3 2-1.3 2-1.3z"/><path class="st22" d="M199.5 111.9s-2.8.6-2 1l2.1.6c.1-.1 1-.1-.1-1.6z"/><path d="M197 113.4c-.1-.1-.2-.2-.3-.4v.1s-.2.6.2.9l.1.1c.1 0 .2 0 .2-.1.5-.1.2-.3-.2-.6zm3.6-.3c.1-.1.1-.2 0-.5-.1.2-.2.5-.1.7 0-.1 0-.2.1-.2zm-.9-11.8c-.1.3-.1.6-.2.9 0-.2.1-.4.2-.6v-.3zm6.4-1.5v-.3c0 .2 0 .3-.1.5 0 0 0-.1.1-.2zm-6.1 9.9c0-.2.1-.4 0-.5-.1.2-.1.4-.1.7 0-.1 0-.1.1-.2zm.7 4.5l-.3 1.5-2.9.4c-.3-.4-.5-.8-.7-1.2 0-.1-.1-.1-.1-.2-.2.1-.2.3 0 .8.2.4.4.8.7 1.2l2.9-.4s.2-1.5.4-1.8c.2-.2.1-.3 0-.3zm-3.9-4.1s.1 1.6.3 1.7c.1-.3.2-.5.1-.6-.2-.1-.3-1.7-.3-1.7s-.5-1.9-.5-2.5c.1-.5-.4-1.8-.4-1.8l-.2-1.5c-.5-.8-.8-1.8-.6-2.8l-.1-2.3s-.8-4.4-1-6.7c-.1-1.4-.2-3.4-.2-4.6v-.6h-.1v1.1c0 1.2.1 3.2.2 4.6.2 2.2 1 6.7 1 6.7l.1 2.3c-.1 1 .1 2 .6 2.8l.2 1.5s.5 1.2.4 1.8c-.1.6.5 2.6.5 2.6zm8.6 5.1c-.2-.3-.4-.7-.5-1.1-.3.3.1 1.3.4 1.7.3.4 2.8.6 3.3-.2v-.5c-.6.6-2.9.4-3.2.1zm3.5-2.9c-.1.2-.2.5-.3.7v.3c.1-.2.1-.3.2-.5.1-.1.1-.3.1-.5zm-3.4.5c.1-.2.2-.4.2-.6 0 0-.4.1-1.1-.6-.5-.5-.6-1.6-.5-2.2-.1.4-.2 2.1.4 2.8.5.5.8.6 1 .6zm-1.5-5.2c.1.5.1.9.1 1.4v-.2c.1-.4-.1-1.7-.1-1.7s0-.9-.2-1.2-.7-2-.7-2c0-.3-.1-.6-.4-.9-.3-.3-.6-1.5-.6-1.5-.2-.3-.3-.6-.3-1 0-.6-.5-1.2-.5-1.2l-.9-2.5-.8-1.9-.4 1.1v.4l.3-.9.8 1.9.9 2.5s.5.6.5 1.2c0 .4.1.7.3 1 0 0 .2 1.2.6 1.5.2.2.4.6.4.9 0 0 .5 1.7.7 2 .3.2.3 1.1.3 1.1z" opacity=".05"/><path class="st24" d="M204.3 63.9l-.1.9v.7l-1 .1-.1-.2c-.2-.4-.5-.8-.8-1.2-.2-.1-.6-2.5-.2-2.4.2.1.4.3.6.5 0 0 1.9.1 1.6 1.6z"/><path class="st6" d="M204.2 65.5l-1 .1-.1-.2c.3-.3.7-.4 1.1-.2v.3z"/><path class="st25" d="M204.5 65.9l-1.3.4v-.2l-.1-.5c.3-.4.8-.5 1.2-.2l.1.3.1.2z"/><path class="st24" d="M183.3 64.8l-1.4.8-.1-.2c-.1-.3-.4-.7-.4-.8-.1-.2-.7-.5-.7-.5-1.5-1.3.2-2.6.2-2.6.8-1.9 2 .6 2 .6s.2 1.3.1 1.4c-.1.1-.1.4-.1.4.1.3.3.5.4.8v.1z"/><path class="st6" d="M183.3 64.8l-1.4.8-.1-.2c.2-.2.9-.8 1.1-.7h.3l.1.1z"/><path class="st25" d="M183.5 65.3l-1.5.8v-.5s.9-.8 1.1-.8h.4v.5z"/><path class="st24" d="M200.8 69.8s-6.8 1-5.5.6c.9-.3 1.2-.9 1.2-1.5 0-.5-.1-1.1-.3-1.6-.2-.4-.4-.8-.7-1.2 0 0 5.1-3.1 4.2-.4-.1.4-.2.8-.2 1.2 0 .4 0 .8.2 1.2.1.7.5 1.3 1.1 1.7z"/><path class="st6" d="M199.7 65.7c-.1.4-.2.8-.2 1.2-.5.4-1 .4-1.7.5-.5 0-1.1.2-1.6-.1-.2-.4-.4-.8-.7-1.2 0 0 5.1-3.1 4.2-.4z"/><circle class="st24" cx="197.5" cy="64.7" r="2.8"/><path class="st6" d="M200.8 69.8s-6.8 1-5.5.6c.9-.3 1.2-.9 1.2-1.5.3-.4 1-.7 1.4-.8.4-.1.8-.2 1.2-.1.2 0 .3.1.5.2.2.6.6 1.2 1.2 1.6zm3.7-3.9l-1.3.4v-.2c.3-.4.8-.6 1.2-.5l.1.3zm-21-.6l-1.5.8v-.3c.5-.3 1-.5 1.6-.7l-.1.2zm20.6 21.6c-2.6.5-6.4 1.2-7 1-.5-.1-2.1-.1-3.5 0v-1.1l10.2-1.5c.1.6.2 1.1.3 1.6z"/><path class="st26" d="M206.7 86.2s-8.6 1.8-9.6 1.6c-.9-.2-5.7.2-5.7.2-2.1 1.5-1.3-.6-1.3-.6-.1-.7-.1-1.4 0-2 .2-.7.2-1.3.3-2 0 0-.1-1.4.1-1.8.2-.3.5-2.7.5-2.7s.2-1.6.1-2v-1.4l.2-1.7c-1.8-.2-7.3-3.3-7.3-3.3-.3-1.1-2.4-3.6-2.4-3.6 0-.2-.1-.4-.2-.6-.2-.4 1.9-1.2 1.9-1.2s1.7 1.9 2 2.4c.4.5 1.5 1.4 1.5 1.4h.5c.4.1.8.3 1.1.6.5 0 1.1.1 1.5.5 0 0 1-.2 1.1 0 .2.2 1 0 1 0s.8-1.8 1.3-1.3c.6.5 2.9.4 2.9.4.3-.4 1-.7 1.5-.9.4-.1.8-.2 1.2-.1.2 0 .3.1.5.2l1.5 1.3s.4-.5.3-.7c-.1-.1.5-.2.5-.2s.7-.2.9-.3.5.2.5.2c-.1-.3-.2-.7-.2-1 0-.3-.1-.6-.3-.8.7-2.1 2.7-.4 2.7-.4s.2 1.1.1 1.5.2 1.3.2 1.6c0 .2.1.6.1 1.1 0 .6-.1 1.1-.3 1.7-.1.4-1.2 1.3-1.2 1.3s0 1.4-.5 2.2c-.5.8-.1 3.5-.1 3.5s.6 2.1 1.2 2.7c.9.4 1.9 4.2 1.9 4.2z"/><path class="st6" d="M193.5 71.1s-.3-.8-.5-.8c-.2-.1-.5-.2-.7-.3l.1-.3s.9.2 1.1.5c.1.2 0 .9 0 .9zm-4.9-1.6c0 .2-2.1.5-2.1.5l1-1.1c.4.2.8.4 1.1.6z"/><circle class="st21" cx="182.4" cy="66.5" r=".2"/><circle class="st21" cx="182.6" cy="66.9" r=".2"/><circle class="st21" cx="182.9" cy="67.2" r=".2"/><circle class="st21" cx="183.2" cy="67.6" r=".2"/><circle class="st21" cx="205.5" cy="66.7" r=".2"/><circle class="st21" cx="205.6" cy="67.1" r=".2"/><circle class="st21" cx="205.6" cy="67.4" r=".2"/><path class="st6" d="M193.7 77.5s5.6 6.5 9.6 2.5c0 0-6.5 1.1-9.6-2.5zm-2.9 3.6s3.2 0 3.6.9v1c-.2.1-.4.1-.6 0-.3-.2-2.3-1.1-3-.6v-1.3z"/><path class="st26" d="M190.8 81.1s3.1 0 3.4.8v.9c-.2.1-.4.1-.6 0-.3-.2-2.2-1-2.8-.5v-1.2z"/><path class="st6" d="M192.3 74.1c.4.7.8 1.4 1.3 2.1.6.7 1.2 1.3 2 1.8 0 0-3.3-3.4-3.3-3.9zm-1.2-3.7s.6 2.3 2 3l-2-3zm-.8.3s-.4 1.8 1.9 2.8c-.1 0-1-.3-1.9-2.8zm13.9-2.1s1.1.7 1.5 1c-.1 0-.9-1-1.5-1z"/><path class="st20" d="M196.9 67.3c0 .1.1.3.2.4.1 0 .2.1.3 0 .9 0 1.8 0 2.5-.3.1-.1.3-.2.4-.3.1-.2.2-.4.2-.6.1-.4.3-.8.5-1.2.3-.7.3-1.4.2-2.2 0-.2-.1-.4-.2-.6-.2-.3-.7-.4-1-.7-.3-.2-.5-.6-.9-.8-.3-.1-.7-.2-1.1-.1-.7.1-1.4.4-2 .8-.2.2-.4.2-.7.2-.2-.1-.4-.2-.5-.4-.2.4-.2.8-.2 1.2v.2c0 .1-.1.1-.1.2-.2.2-.3.6-.1.9l.3.3c.2.2.1.5.1.7 0 .1 0 .2.1.2.1.1.2.1.4.1.1 0 .2-.1.4 0 .1 0 .3.1.3.2.5.7.7 1.2.9 1.8z"/><path d="M200.4 66.9c-.1.1-.2.2-.4.3-.8.4-1.7.4-2.5.3h-.3c-.1-.1-.2-.2-.2-.4-.1-.6-.4-1.2-.8-1.6-.1-.1-.2-.2-.3-.2h-.4c-.1 0-.3 0-.4-.1-.1-.1-.1-.2-.1-.2 0-.2 0-.5-.1-.7l-.3-.3c-.1-.2-.2-.4-.1-.6-.2.2-.2.5 0 .7l.3.3c.2.2.1.5.1.7 0 .1 0 .2.1.2.1.1.2.1.4.1.1 0 .2-.1.4 0 .1 0 .3.1.3.2.4.5.6 1 .8 1.6 0 .2.1.3.2.4.1 0 .2.1.3 0 .9 0 1.7 0 2.5-.3.1-.1.3-.2.4-.3.1 0 .1-.1.1-.1zm-5.7-3.9l.1-.1v-.2c0-.3 0-.7.1-1-.2.4-.2.8-.2 1.2v.1z"/><path class="st6" d="M196.4 69s3.5.3 3.8-.2m3-1.5s2-.1 2.4.6"/><path transform="rotate(-89.91 216.096 164.06)" class="st9" d="M206.5 154.8h19.1v18.5h-19.1z"/><path transform="rotate(-89.91 216.096 164.06)" class="st9" d="M206.5 154.8h19.1v18.5h-19.1z"/><path class="st18" d="M216.4 170.9v-3.4l1.6 1.6.4-.4-2.2-2.2-2.2 2.2.4.4 1.6-1.6v3.4h.4z"/><path class="st8" d="M213 159.3h3.1v-3.1h-.2c-1.6 0-2.8 1.3-2.9 2.8v.3z"/><path class="st8" d="M214.1 161.4c1 1.2 2.8 1.4 4 .4 1.2-1 1.4-2.8.4-4-.5-.6-1.2-1-2-1.1v3.1h-3.1c.1.6.3 1.1.7 1.6z"/><path class="st1" d="M53.4 25.8c-1.6 3.3-4.2 7.1-7.2 5.7-3-1.4-5.2-7.6-3.6-10.9s5.3-4.8 8.3-3.4c3 1.4 4.1 5.3 2.5 8.6z"/><path class="st1" d="M47 33.6s-.6-.1-.4-.6c0 0 0-.1.1-.1.1-.1.2-.3.2-.4v-1l1.6-.1s-.6.5-.5.8c0 0 0 .1.1.1h.2c.4.1.2.4.2.4-.1.7-1.5.9-1.5.9z"/><path class="st2" d="M48 32.3l-1.1.2v-.2c.3-.1.8-.1 1.1 0 0-.1 0-.1 0 0z"/><path class="st1" d="M47 33.6s-.6-.1-.4-.6c.2.1.5.1.7 0 .4-.1.7-.3.9-.7.4.1.2.4.2.4 0 .7-1.4.9-1.4.9z"/><path class="st6" d="M47 33.6s-.6-.1-.4-.6c.2.1.5.1.7 0 .4-.1.7-.3.9-.7.4.1.2.4.2.4 0 .7-1.4.9-1.4.9z"/><path class="st27" d="M47.8 17.5s-1.8-.2-2.3 1h.6c.1.1.3.1.4.1.4-.5.8-.9 1.3-1.1z"/><path class="st1" d="M44.3 41.6c-.3.3-.6.6-1 .8-.1.1-.2.1-.3.2-2.8 1.6-7.8 1.6-10.2-.5-2.2-1.9-2.9-4.8-2.1-7.2 0-.1.1-.2.1-.3.2-.5.5-1 .9-1.4 1.8-2 4.7-2.4 7.3-1.2.2.1.4.2.7.4.1.1.2.1.3.2.3.2.5.4.7.6l.4.4c.8.7 1.5 1.5 2.2 2.4.2.3.4.5.6.8l.3.6c.5.8.7 1.6.7 2.5v.2c0 .3-.1.6-.3.9.1.2-.1.4-.3.6z"/><path class="st6" d="M44.3 41.6c-.3.3-.6.6-1 .8-.1.1-.2.1-.3.2-2.8 1.6-7.8 1.6-10.2-.5-2.2-1.9-2.9-4.8-2.1-7.2 0-.1.1-.2.1-.3.2-.5.5-1 .9-1.4 1.8-2 4.7-2.4 7.3-1.2.2.1.4.2.7.4.1.1.2.1.3.2.3.2.5.4.7.6l.4.4c.8.7 1.5 1.5 2.2 2.4.2.3.4.5.6.8l.3.6c.5.8.7 1.6.7 2.5v.2c0 .3-.1.6-.3.9.1.2-.1.4-.3.6z"/><path class="st1" d="M45.9 41.5c-.2-.2-.3-.3-.5-.4-.1 0-.1-.1-.2-.1-.2-.1-.3-.1-.5-.1h-.2l.2-1.1.1-.5c.1.1.1.3.2.4.1.2.2.3.4.3h.1l.1-.1s0-.1.1-.1c.2-.4.4-.1.4-.1.3.1.4.4.4.8v.8c.1.1-.2.6-.6.2z"/><path class="st2" d="M45.4 41.1c-.1 0-.1-.1-.2-.1.1-.2.1-.6.2-.9v-.2h.1v.3l-.1.9z"/><path class="st1" d="M45.9 41.5c.1-.2.2-.4.2-.7v-.5c-.1-.2-.2-.4-.3-.5.2-.4.4-.1.4-.1.3.1.4.4.4.8v.8c0 .1-.3.6-.7.2z"/><path class="st6" d="M45.9 41.5c.1-.2.2-.4.2-.7v-.5c-.1-.2-.2-.4-.3-.5.2-.4.4-.1.4-.1.3.1.4.4.4.8v.8c0 .1-.3.6-.7.2z"/><path class="st27" d="M31.3 36.2s-.7 1.6.3 2.5c0-.2.1-.4.2-.6.1-.1.2-.2.2-.4-.4-.4-.6-.9-.7-1.5z"/><path class="st1" d="M56.7 31.3c-1.3.9-2.9 1.7-4.4 2.1-1.1.3-2.2.5-3.1.2-.4-.1-.8-.3-1.1-.6-.2-.2-.4-.4-.5-.6-1.1-1.6-1-4.6-.2-7.1.6-1.7 1.6-3.3 2.8-4.1 3.1-2 7.1-1.4 8.9 1.4s.7 6.7-2.4 8.7z"/><path class="st6" d="M56.7 31.3c-1.3.9-2.9 1.7-4.4 2.1-1.1.3-2.2.5-3.1.2-.4-.1-.8-.3-1.1-.6-.2-.2-.4-.4-.5-.6-1.1-1.6-1-4.6-.2-7.1.6-1.7 1.6-3.3 2.8-4.1 3.1-2 7.1-1.4 8.9 1.4s.7 6.7-2.4 8.7z"/><path class="st1" d="M49 34.6c-.4.6-1.7 0-1.7 0s-.4-.4 0-.7c0 0 .1 0 .1-.1.1-.1.3-.2.4-.3l.1-.1c.1-.1.2-.3.3-.4 0-.1.1-.2.1-.2l1.4.7c-.1 0-.3.1-.4.1-.2.1-.4.2-.4.3v.1s0 .1.1.1l.1.1c.1.3-.1.4-.1.4z"/><path class="st2" d="M48.8 34l-1-.4.1-.1c.2.1.6.3.9.5 0-.1 0 0 0 0z"/><path class="st1" d="M49 34.6c-.4.6-1.7 0-1.7 0s-.4-.4 0-.7c.2.2.4.3.6.4.4.1.8.1 1.1-.1.2.3 0 .4 0 .4z"/><path class="st6" d="M49 34.6c-.4.6-1.7 0-1.7 0s-.4-.4 0-.7c.2.2.4.3.6.4.4.1.8.1 1.1-.1.2.3 0 .4 0 .4z"/><path class="st27" d="M56.3 21.3s-1.4-1.1-2.4-.4c.2.1.4.2.5.4l.3.3c.5-.3 1.1-.4 1.6-.3z"/><g class="st16"><path d="M28.6 30.2c-.1.2-.2.4-.2.6-1-.8-.3-2.4-.3-2.4.1.6.3 1.1.7 1.5 0 0-.1.1-.2.3zM41.3 33l.3-1.6c.1.1.1.3.2.4 0 .4-.1.8-.3 1.2h-.2zm-.1.5c0 .1-.1.1-.1.2-.3.3-.6.6-1 .8-.1.1-.2.1-.3.2-2.4 1.3-6.4 1.5-9 .3.2-.6.6-1.2 1-1.8 1.8-2 4.7-2.4 7.3-1.2.6.3 1.2.7 1.7 1.1.1.2.3.3.4.4z"/><path d="M42.7 33.6s-.1 0 0 0c-.2-.2-.3-.3-.5-.4 0 0-.1-.1-.2-.1-.2-.1-.3-.1-.5-.1h-.2l.3-1.6c.1.1.1.3.2.4.1.2.3.3.4.3h.1l.1-.1.1-.1c.2-.4.4-.1.4-.1.6.2.4 1.7.4 1.7s-.2.5-.6.1z"/><path d="M42.2 33.2s-.1-.1-.2-.1c.1-.3.1-.7.2-1h.1l-.1 1.1zm.5.4c.1-.2.2-.4.2-.7 0-.4-.1-.8-.4-1.1.2-.4.4-.1.4-.1.6.2.4 1.7.4 1.7s-.2.6-.6.2z"/><path class="st6" d="M42.7 33.6c.1-.2.2-.4.2-.7 0-.4-.1-.8-.4-1.1.2-.4.4-.1.4-.1.6.2.4 1.7.4 1.7s-.2.6-.6.2zm-14.3-2.8c-1-.8-.3-2.4-.3-2.4.1.6.3 1.1.7 1.5 0 .1-.1.3-.2.4-.1 0-.2.2-.2.5z"/></g><path class="st1" d="M41.3 33.4l-.1.1c-.3.3-.6.5-.9.7l-.1.1c-.1 0-.1.1-.2.1-2.4 1.3-6.5 1.5-9.1.2-.4-.2-.8-.4-1.1-.7-2.8-2.4-3.2-6.4-1-8.9 1.8-2 4.7-2.4 7.3-1.2.1 0 .2.1.2.1.5.3 1 .6 1.5 1 1 .8 1.8 1.8 2.6 2.7.2.2.3.4.5.6 0 .1.1.1.1.2.1.1.1.2.2.3.1.1.1.2.1.2.5.8.7 1.6.7 2.5 0 .4-.1.8-.3 1.2-.1.3-.2.6-.4.8z"/><path class="st1" d="M42.9 33.3s-.1-.1 0 0c-.2-.2-.3-.3-.5-.4-.1 0-.1-.1-.2-.1-.2-.1-.3-.1-.5-.1h-.2l.3-1.6c.1.1.1.3.2.4.1.2.3.3.4.3h.1l.1-.1s0-.1.1-.1c.2-.4.4-.1.4-.1.6.2.4 1.7.4 1.7s-.2.5-.6.1z"/><path class="st2" d="M42.4 32.9c-.1 0-.1-.1-.2-.1.1-.3.1-.7.2-1h.1l-.1 1.1z"/><path class="st1" d="M42.9 33.3c.1-.2.2-.4.2-.7 0-.4-.1-.8-.4-1.1.2-.4.4-.1.4-.1.6.2.4 1.7.4 1.7s-.2.6-.6.2z"/><path class="st6" d="M42.9 33.3c.1-.2.2-.4.2-.7 0-.4-.1-.8-.4-1.1.2-.4.4-.1.4-.1.6.2.4 1.7.4 1.7s-.2.6-.6.2z"/><path class="st27" d="M28.3 28s-.7 1.6.3 2.5c0-.2.1-.4.2-.6.1-.1.2-.2.2-.4-.4-.4-.6-.9-.7-1.5z"/><g class="st16"><path d="M38.5 16.9c-.1.1-.3.1-.4.1-.2 0-.4.1-.6.2.1-1.3 1.8-1.6 1.8-1.6-.4.2-.7.7-.8 1.3zM41 28.4l.3.6c-.2-.1-.5-.2-.7-.3-1.8-.9-3.6-2.8-4.6-4.9.6.3 1.2.7 1.7 1.1 1 .8 1.8 1.8 2.6 2.7.3.3.5.6.7.8zm3.2.4c-.3.2-.7.4-1.2.4 0-.1-.1-.2-.1-.2l1.5-.6c-.1.1-.1.2-.2.4z"/><path d="M43.7 30.9s-.6.1-.5-.4v-.1c0-.2.1-.3 0-.5v-.2c0-.2-.1-.3-.2-.5 0-.1-.1-.2-.1-.2l1.5-.6c-.1.1-.1.3-.2.4-.1.2-.1.4-.1.5l.1.1h.2c.4 0 .3.2.3.2.3.7-1 1.3-1 1.3z"/><path d="M44.2 29.4l-1 .5v-.2c.3-.1.7-.3 1-.3 0-.1 0 0 0 0zm-.5 1.5s-.6.1-.5-.4c.2 0 .5-.1.7-.2.3-.2.6-.5.6-.9.4 0 .3.2.3.2.2.7-1.1 1.3-1.1 1.3z"/><path class="st6" d="M43.7 30.9s-.6.1-.5-.4c.2 0 .5-.1.7-.2.3-.2.6-.5.6-.9.4 0 .3.2.3.2.2.7-1.1 1.3-1.1 1.3zm-5.2-14c-.1.1-.3.1-.4.1-.2 0-.4.1-.6.2.1-1.3 1.8-1.6 1.8-1.6-.4.2-.7.7-.8 1.3z"/></g><path class="st1" d="M44.3 28.6c-.3.2-.7.4-1.2.4h-.8c-.4-.1-.8-.2-1.1-.3-.1-.1-.3-.1-.4-.2-1.7-.9-3.4-2.7-4.4-4.6-.7-1.3-1.1-2.7-.9-4 .5-3.7 3.5-6.3 6.8-5.9 3.3.4 5.6 3.7 5.1 7.4-.1 1.3-.4 2.5-.8 3.7 0 .1-.1.2-.1.3-.5 1.4-1.2 2.6-2.2 3.2z"/><path class="st6" d="M44.3 28.6c-.3.2-.7.4-1.2.4h-.8c-.4-.1-.8-.2-1.1-.3-.1-.1-.3-.1-.4-.2-1.7-.9-3.4-2.7-4.4-4.6-.7-1.3-1.1-2.7-.9-4 .5-3.7 3.5-6.3 6.8-5.9 3.3.4 5.6 3.7 5.1 7.4-.1 1.3-.4 2.5-.8 3.7 0 .1-.1.2-.1.3-.5 1.4-1.2 2.6-2.2 3.2z"/><path class="st1" d="M43.8 30.8s-.6.1-.5-.4v-.1c0-.2.1-.3 0-.5v-.2c0-.2-.1-.3-.2-.5 0-.1-.1-.2-.1-.2l1.5-.6c-.1.1-.1.3-.2.4-.1.2-.1.4-.1.5l.1.1h.2c.4 0 .3.2.3.2.3.6-1 1.3-1 1.3z"/><path class="st2" d="M44.3 29.2l-1 .5v-.2c.3-.1.7-.2 1-.3z"/><path class="st1" d="M43.8 30.8s-.6.1-.5-.4c.2 0 .5-.1.7-.2.3-.2.6-.5.6-.9.4 0 .3.2.3.2.2.6-1.1 1.3-1.1 1.3z"/><path class="st6" d="M43.8 30.8s-.6.1-.5-.4c.2 0 .5-.1.7-.2.3-.2.6-.5.6-.9.4 0 .3.2.3.2.2.6-1.1 1.3-1.1 1.3z"/><path class="st27" d="M39.4 15.3s-1.7.4-1.8 1.6c.2-.1.4-.2.6-.2.1 0 .3 0 .4-.1.1-.4.4-.9.8-1.3z"/><path class="st1" d="M62.7 43.6c-2.2 2.5-6.2 2.6-9 .2-1.4-1.2-2.8-2.6-3.6-4.1-.5-.7-.7-1.6-.7-2.5 0-.4.1-.8.3-1.2.1-.3.3-.5.5-.7.6-.7 1.4-1.2 2.2-1.5 2.9-1.1 7.1-1 9.2.8 2.7 2.5 3.2 6.5 1.1 9z"/><path class="st1" d="M49.6 37.6c-.1-.1-.1-.3-.2-.4-.1-.2-.3-.3-.4-.3h-.1l-.1.1s0 .1-.1.1c-.2.4-.4.1-.4.1-.6-.2-.4-1.7-.4-1.7s.2-.5.6-.2l.1.1c.1.1.2.2.4.3.1 0 .1.1.2.1.2.1.3.1.5.1h.2l-.3 1.7z"/><path class="st2" d="M48.9 36.9h-.1l.1-1.1c.1 0 .1.1.2.1-.1.3-.1.7-.2 1z"/><path class="st1" d="M48.7 37.1c-.2.4-.4.1-.4.1-.6-.2-.4-1.7-.4-1.7s.2-.5.6-.2c-.1.2-.2.4-.2.7 0 .5.1.8.4 1.1z"/><path class="st6" d="M48.7 37.1c-.2.4-.4.1-.4.1-.6-.2-.4-1.7-.4-1.7s.2-.5.6-.2c-.1.2-.2.4-.2.7 0 .5.1.8.4 1.1z"/><path class="st27" d="M63.1 40.6s.7-1.7-.3-2.4c0 .2-.1.4-.2.6-.1.1-.2.2-.2.4.4.3.7.8.7 1.4z"/><path class="st6" d="M50.1 39.7c-.5-.7-.7-1.6-.7-2.5-.1-.2-.3-.3-.4-.3h-.1l-.1.1s0 .1-.1.1c-.2.4-.4.1-.4.1-.6-.2-.4-1.7-.4-1.7s.2-.5.6-.2l.1.1c.1.1.2.2.4.3.1 0 .1.1.2.1.2.1.3.1.5.1.1-.3.3-.5.5-.7.6-.7 1.4-1.2 2.2-1.5-.4 2.4-1.1 4.7-2.3 6zm-3.5.8c-.2 0-.4-.1-.5-.1-.2 0-.3-.1-.5-.2h-.1c-.1-.1-.3-.1-.4-.2-.1-.1-.2-.1-.3-.2-1.9-1.1-3.7-3.3-4.6-5.5-.2-.6-.4-1.3-.4-1.9v-1c.1-1 .4-1.9.9-2.8.1-.1.1-.2.2-.3 1.2-1.9 3.3-3.1 5.6-2.9-.5 1.4-1.2 2.6-2.1 3.2-.1.2-.1.4-.1.5l.1.1h.2c.4 0 .3.2.3.2.2.7-1.1 1.3-1.1 1.3s-.6.1-.5-.4v-.1c0-.2.1-.3 0-.5v-.2c0-.2-.1-.3-.2-.5h-.8c-.4-.1-.8-.2-1.1-.3.1.1.1.2.1.2.5.8.7 1.6.7 2.5.1.2.3.3.4.3h.1l.1-.1s0-.1.1-.1c.2-.4.4-.1.4-.1.6.2.4 1.7.4 1.7s-.2.5-.7.2l-.1-.1c-.1-.1-.2-.2-.4-.3-.1 0-.1-.1-.2-.1-.2-.1-.3-.1-.5-.1-.1.3-.3.5-.5.7l-.1.1c.8.7 1.5 1.5 2.2 2.4.2.3.4.5.6.8l.3.6c.5.8.7 1.6.7 2.5.1.2.2.3.4.3h.1l.1-.1s0-.1.1-.1c.2-.4.4-.1.4-.1.5 0 .6.3.7.7z"/><g class="st16"><path d="M43.7 28c-.1.1-.3.1-.4.1-.2 0-.4.1-.6.2.1-1.3 1.8-1.6 1.8-1.6-.4.2-.7.7-.8 1.3zm8.8 4.6c0 .2-.1.5-.1.8-1.1.3-2.2.5-3.1.2-.2.1-.4.2-.4.3v.1s0 .1.1.1l.1.1c.3.3 0 .4 0 .4-.4.6-1.7 0-1.7 0s-.4-.4 0-.7c0 0 .1 0 .1-.1.1-.1.3-.2.4-.3l.1-.1c.1-.1.2-.3.3-.4-.2-.2-.4-.4-.5-.6-1.1-1.6-1-4.6-.2-7.1 3.1.4 5.3 3.7 4.9 7.3zm-3.1 7.3c-.3.2-.7.4-1.2.4 0-.1-.1-.2-.1-.2l1.5-.6c0 .1-.1.3-.2.4z"/><path d="M48.9 42s-.6.1-.5-.4v-.1c0-.2.1-.3 0-.5v-.2c0-.2-.1-.3-.2-.5 0-.1-.1-.2-.1-.2l1.5-.6c-.1.1-.1.3-.2.4-.1.2-.1.4-.1.5l.1.1h.2c.4 0 .3.2.3.2.3.7-1 1.3-1 1.3z"/><path d="M49.5 40.5l-1 .5v-.2c.2-.1.6-.3 1-.3-.1 0-.1 0 0 0zm-.6 1.5s-.6.1-.5-.4c.2 0 .5-.1.7-.2.3-.2.6-.5.7-.9.4 0 .3.2.3.2.1.7-1.2 1.3-1.2 1.3z"/><path class="st6" d="M48.9 42s-.6.1-.5-.4c.2 0 .5-.1.7-.2.3-.2.6-.5.7-.9.4 0 .3.2.3.2.1.7-1.2 1.3-1.2 1.3zm-5.2-14c-.1.1-.3.1-.4.1-.2 0-.4.1-.6.2.1-1.3 1.8-1.6 1.8-1.6-.4.2-.7.7-.8 1.3z"/></g><path class="st1" d="M52.1 32.9c-.5 3.7-1.7 8.1-5 7.7-3.3-.4-7.4-5.5-6.9-9.2.5-3.7 3.5-6.3 6.8-5.9s5.6 3.7 5.1 7.4z"/><path class="st1" d="M48.6 42.3s-.6.1-.5-.4v-.1c0-.2.1-.3 0-.5v-.2c-.1-.3-.1-.5-.3-.7l1.5-.6s-.4.7-.2.9l.1.1h.2c.4 0 .3.2.3.2.2.6-1.1 1.3-1.1 1.3z"/><path class="st2" d="M49.1 40.7l-1 .5V41c.3-.1.7-.3 1-.3-.1 0 0 0 0 0z"/><path class="st1" d="M48.6 42.3s-.6.1-.5-.4c.2 0 .5-.1.7-.2.3-.2.6-.5.6-.9.4 0 .3.2.3.2.2.6-1.1 1.3-1.1 1.3z"/><path class="st6" d="M48.6 42.3s-.6.1-.5-.4c.2 0 .5-.1.7-.2.3-.2.6-.5.6-.9.4 0 .3.2.3.2.2.6-1.1 1.3-1.1 1.3z"/><path class="st27" d="M44.2 26.8s-1.7.4-1.8 1.6c.2-.1.4-.2.6-.2.1 0 .3 0 .4-.1.1-.5.4-1 .8-1.3z"/><path class="st3" d="M48.5 41c-.6 0-1 .6-1 1.2v.2c.2.7 1.1 1 1.7 1.5s.9 1.3.9 2c.1 1.5-.4 2.9-1.4 4-.5.5-1.2.9-1.7 1.5-.6.7-1.1 1.4-1.5 2.2-.3.6-.6 1.2-.6 1.9-.1 1.1.4 2.1 1.1 2.9.6.8 1.4 1.6 1.9 2.5.7 1.3.8 2.8.3 4.2 0 .1-.1.2-.2.3-.1.1-.2 0-.3 0"/><path class="st3" d="M45.4 40.8c-.2.2-.2.4 0 .6.2.2.4.3.6.3.3 0 .6-.1.8.1.2.1.2.3.2.5s0 .4.1.6c.1.2.1.3.3.4.1.2.3.3.5.4.4.2.9 0 1.3.2.6.2.9.8 1 1.3.2.7.3 1.4.1 2.1-.1.4-.3.9-.6 1.3-.2.4-.4.9-.4 1.3 0 .5.3.9.7 1.1"/><path class="st28" d="M67.1 65.8l-.5.3.6 2.3s.2.1.5.3c.6.4 1.4 1 1.9 1.7.7 1 3.9 3.9 3.5 2.7s-.6-1-.6-1 .7-1.8-1-2.6c-1.3-.6-3.2-2.4-4-3.2-.2-.3-.4-.5-.4-.5z"/><path class="st29" d="M76.6 72c.3.3.5.6.7.9.2.3.2.8.1 1.1l-.3.6c-.4 1 .7 2 .5 3-.1.6-.7 1.1-1.2 1.5-.5.4-1 1-.8 1.6.1.3.2.6.4.8.2.3.2.6 0 .9-.3.4-1.1.4-1.2.9-.1.5.5.9.3 1.3-.2.2-.4.3-.6.2-.2-.1-.4-.1-.7-.2-.5 0-.9.3-.9.8 0 .2 0 .3.1.5s.4.4.4.7c0 .2-.1.3-.3.4-.6.3-1.2.1-1.5-.5-.2-.4-.1-.9-.1-1.4 0-.5 0-1-.3-1.3-.2-.1-.4-.3-.6-.3-.6-.3-1.1-.7-1.5-1.1-.4-.4-.7-.9-.7-1.5s.6-1.2.5-1.8c0-.6-.7-1.1-1.2-1.5-.5-.4-1.1-1-.9-1.6.2-.7 1.1-.9 1.5-1.4.2-.2.3-.5.3-.7.1-.5.1-.9.2-1.4.1-.5.3-.9.7-1.2.5-.3 1.1-.3 1.7-.2s1.2.2 1.7.1c.4-.1.8-.3 1.2-.4.5-.1 1.1.1 1.4.5.2.2.2.3.5.3.2 0 .4.1.6.4z"/><path d="M75.8 82.6c-.2.2-.4.3-.7.3.3-.1.5-.2.7-.3zm-2.1 2.1h-.3c.2-.2.4-.3.7-.2.2 0 .5.1.7.2h.3c-.2.2-.4.2-.6.2-.4-.1-.6-.1-.8-.2zM69 72.3c-.1.5-.1.9-.2 1.4-.1.3-.2.5-.3.7-.4.6-1.3.8-1.5 1.4-.2.6.4 1.2.9 1.6.5.4 1.2.8 1.2 1.5s-.5 1.2-.5 1.8c0 .6.3 1.1.7 1.5.4.4 1 .8 1.5 1.1l.6.3c.3.3.4.8.3 1.3 0 .5-.1.9.1 1.4.3.5.8.7 1.4.5-.1.2-.2.2-.3.3-.6.3-1.2.1-1.5-.5-.2-.4-.1-.9-.1-1.4 0-.5 0-1-.3-1.3-.2-.1-.4-.3-.6-.3-.6-.3-1.1-.7-1.5-1.1-.4-.4-.7-.9-.7-1.5s.6-1.2.5-1.8c0-.6-.7-1.1-1.2-1.5-.5-.4-1.1-1-.9-1.6.2-.7 1.1-.9 1.5-1.4.2-.2.3-.5.3-.7.1-.5.1-.9.2-1.4.1-.5.3-.9.7-1.2.1-.1.2-.1.3-.1-.3.2-.5.6-.6 1z"/><path class="st30" d="M57.5 78.4l-.5-.7s-.9 1.3.4 2.2.1-1.5.1-1.5z"/><path class="st6" d="M57.5 78.4l-.5-.7s-.9 1.3.4 2.2.1-1.5.1-1.5z"/><path class="st28" d="M53.1 100.6s-.1 1.3-.3 2.6c-.1.9-.4 1.8-.6 2.2-.7.9-.5 4-.5 4l-.8 3.5c.1.7-.4 1.6-.7 2-.1.1-.1.2-.1.2l.6 1 1 .2s1.6-.5 1.1-1.6c-.1-.2-.1-.4-.1-.7 0-1.4.9-3.7.9-3.7s2.2-4.3 2-5.2v-.3c-.1-1 .5-2.7.5-2.7l-3-1.5zm-14.7-6.4c-1.5 1-4.2 3.6-4.7 4.3-.6.9-2.1 1.8-2.1 1.8l-1.1.6c-.1.1-.3.2-.4.4-.1.1-.1.2-.2.2l1.6 1.8s.4-.3.9-.7c.5-.4 1-1 1.2-1.4.3-.7 2-1.6 2-1.6s3.2-1.9 3.6-2.2c.4-.3.7-.6 1.2-.8.2-.1.5-.2.8-.4.8-.4 1.6-.9 2.4-1.4L42 92.7l-2.7 1.1c-.4.1-.7.2-.9.4z"/><path class="st6" d="M50.1 115c-.1.1-.1.2-.1.2l.6 1 1 .2s1.6-.5 1.1-1.6c-.1-.2-.1-.4-.1-.7-.5.1-.7.8-.7.8s-.1.3-.8.6c-.6.1-.9-.3-1-.5z"/><path class="st2" d="M50 114.9c-.2.2-.3 1-.3 1.6v.5c0 .1.8.4 1.4.3.5-.1 2.7.5 2.7.5.7 0 1.5-.1 2.1-.4.7-.2.6-.6.3-.8-.2-.2-.5-.3-.8-.4-.3-.1-.6-.4-.8-.6-.3-.4-.6-.7-1-1-.3-.2-.7-.4-1-.4-.5.1-.7.8-.7.8s-.1.3-.8.6-1.1-.7-1.1-.7z"/><path class="st6" d="M49.6 116.5v.5c0 .1.8.4 1.4.3.5-.1 2.7.5 2.7.5.7 0 1.5-.1 2.1-.4.7-.2.6-.6.3-.8-.6.2-1.7.5-2.3.5-.8-.1-3.5-.5-4.2-.6zm-19.4-15.1l-.2.2 1.6 1.8s.4-.3.9-.7c-.1-.9-2.1-1.5-2.1-1.5l-.2.2z"/><path class="st2" d="M28.6 102s.1 2 .6 2.7c.3.6.6.5 1.2.2l.6-.3c1-.5 1-1 1-1 1.5-1.4-1.7-2.3-1.7-2.3l-.1.2c-.4 0-.7.1-1 .2-.3.1-.5.1-.6.3z"/><path class="st6" d="M28.6 102s.1 2 .6 2.7c.3.6.6.5 1.2.2-.5-.3-.9-.7-1-1.2-.2-.6-.3-1.3-.2-2-.3 0-.5.1-.6.3z"/><path class="st28" d="M67.1 74.9l-2.7 2-.6.4.4 1.3.4 1.4 1.1 1.2s1.5-.2 2.4-1c.3-.3.5-.6.6-1 0-.1 0-.2.1-.4.1-.1.1-.3.2-.4.1-.1.3-.2.4-.3.8-.4 1.9-.3 1.9-.3s-.3-3.4-.8-2.9c-.4.3-1.3.2-1.9.1-.3-.1-.6-.1-.6-.1h-.9z"/><circle class="st6" cx="72" cy="76" r="2.8"/><circle class="st28" cx="72.1" cy="75.9" r="2.8"/><path class="st2" d="M57.3 79.4c-.5.4-1.2 1.3-1.2 1.3l.7 4 3.8 1.4c.2-.2 3-2.6 4.1-2.2 1.1.4 3.3-.9 3.3-.9s.9-1.9 1.2-2.4-.2-2.2-.2-2.2c-.1.1-.2.2-.2.4-.2.3-.4.6-.7.8-.3.2-.6.4-1 .4h-.3c-1.4.2-1.7-1.1-1.9-1.7v-.2l-.6-1.2-.3-.8s-6 3-6.5 3.1c0 .1-.1.1-.2.2z"/><path class="st29" d="M68.8 78.8c-.1.1-.2.2-.2.3l.7 1.2c0-.3 0-.6-.1-.9l-.4-.6z"/><path class="st9" d="M68.4 79.4c-.1.1-.2.2-.3.2l.9 1.5c.1-.2.2-.3.2-.4l-.8-1.3zm-.9.6l1.1 1.9c.1-.1.1-.3.2-.4l-1-1.6s-.2 0-.3.1zm-.7 0l1.5 2.5.2-.4-1.3-2.1h-.4zm1.3 3.1l-.2.1L66 80c.2.1.4.1.5.1l1.7 2.8-.1.2z"/><path class="st29" d="M63.8 76.3l1.3 2.1v-.2l-.6-1.2-.5-.9-.2.2z"/><path class="st9" d="M63.2 76.6l4.1 6.9c.1-.1.2-.1.4-.2l-4.1-6.9-.4.2zm-.6.3l4.1 6.9c.1 0 .3-.1.4-.1L63 76.8l-.4.1zm-.6.3l4.1 6.8c.1 0 .3-.1.4-.1L62.3 77l-.3.2zm-.6.2l3.9 6.6h.4l-4-6.7-.3.1zm-.6.3l3.7 6.2h.2c.1 0 .2.1.3.1l-3.9-6.5-.3.2zm-.6.3l3.6 6c.1 0 .3-.1.4-.1l-3.7-6.1-.3.2z"/><path class="st29" d="M59.6 78.3l3.6 6c.1-.1.2-.1.4-.2l-3.6-6-.4.2zm-.6.3l3.6 6.1c.1-.1.2-.1.3-.2l-3.6-6-.3.1zm-.6.3l3.7 6.1c.1-.1.2-.1.3-.2l-3.6-6.1-.4.2zm-.6.3l3.7 6.3.3-.2-3.6-6.3-.4.2z"/><path class="st9" d="M57.3 79.4l3.8 6.4c.1-.1.2-.2.3-.2l-3.8-6.3c-.2 0-.2 0-.3.1zm-.3.2l-.3.3 3.7 6.2.2.1.2-.2-3.8-6.4zm-.5.5c-.1.1-.2.2-.2.3l3.1 5.2.6.2-3.5-5.7zm-.4.6l.2 1 2.2 3.6.6.2-3-4.8z"/><path class="st29" d="M56.4 82.5l.2 1.1.9 1.4.5.2zm.3 1.8l.1.5.3.1z"/><path class="st6" d="M57.3 79.4l.4 1.2 1.4 2.9 3.1-1.4c.2-.5.3-1 .3-1.6 0-.6.2-1.5 1.7-2 .1 0 .2-.1.3-.1.2 0 .3-.1.5-.2.7-.3 1.3-.9 1.6-1.7v-.1l2.1-1.5s0-.1-.1-.1c-.3.2-.6.1-.6.1h-.9l-2.7 2-.4-.8s-6 3-6.5 3.1c0 .1-.1.1-.2.2z"/><path class="st30" d="M62.3 73.2c-.2.6-.5 1.1-1.1 1.5-.9.6-.7 1-.7 1l-2.6 1.6s-.4.6-.9.5c-.4-.1.6 2.7.6 2.7l1.4 2.9 3.1-1.4c.2-.5.3-1 .3-1.6 0-.6.3-1.6 2-2.1 1-.2 1.7-.9 2.1-1.9v-.1l2.1-1.5c-.2-.3-.4-.5-.8-.6-.1 0-.2 0-.3-.1-.3-.1-.4-.2-.4-.5 0-.4 0-2-.7-2-.7.2-4.1 1.6-4.1 1.6z"/><path class="st30" d="M67.5 74.4l-1.3 1.2.3 1v-.1l2.1-1.5c-.2-.3-.4-.5-.8-.6h-.3z"/><path class="st6" d="M67.5 74.4l-1.3 1.2.3 1v-.1l2.1-1.5c-.2-.3-.4-.5-.8-.6h-.3zm-.4-8.6l-.5.3.6 2.3s.2.1.5.3c-.1-.2-.3-1.4-.4-2.1v-.4h.1c-.1-.2-.3-.4-.3-.4z"/><path class="st30" d="M62.8 64.7s-.8 3.3-.4 4.9c0 0 .3 2.4-.1 3.6l3.9-.6.1-.7s-.7-.5-.8-1.1c-.1-.6-.3-1.3-.3-1.3 0-.6-.1-1.2-.2-1.7-.1-.4.5-.5.9-.2.1 0 .1.1.2.1-.2.3-.1.6.1.8.2.1.4.2.5.2.3.1.6.1.9.2 0 0-.3-1.4-.4-2.1v-.4c.1-.1 1.1.9 1.1.9s0-1.2-.5-1.5c0 0-.1.3-.4.2s-3.2-2-3.2-2-1.1-1-1.4.7z"/><path class="st6" d="M65.5 66l.4 1.4c.1 0 .1.1.2.1-.2.3-.1.6.1.8.2.1.4.2.5.2.2.1.5.1.7.1 0 0-.3-1.4-.4-2.1l-1.5-.5z"/><path class="st30" d="M65.6 66l.4 1.5c-.2.3-.1.6.1.8.4.3 1.4.4 1.4.4s-.3-1.4-.4-2.1l-1.5-.6z"/><path class="st27" d="M65.7 66l.4 1.5c-.2.3-.1.6.1.8.4.3 1.4.4 1.4.4s-.3-1.4-.4-2.1l-1.5-.6z"/><path class="st6" d="M55.9 102.2l-2.9-1.6s-.1 1.3-.3 2.6c1 .6 1.9 1.2 2.7 1.6 0-.9.5-2.6.5-2.6zm-17.5-8c.3.6.7 1.1 1.2 1.6 0 0 .3.4.8 1 .2-.1.5-.2.8-.4.8-.4 1.6-.9 2.4-1.4L42 92.7l-2.7 1.1c-.4.1-.7.2-.9.4z"/><path class="st2" d="M47.5 85.1c-.5.8-3 3.5-3 3.5-.4.5-.8 1.1-1.1 1.7-.4.8-1.8 1.8-2.8 2.8-1 .9-1 .3-1.6.6-.7.3 1.2 2.3 1.2 2.3s3.1 4.2 6.5 4.4c3.5.2 8.6 4.8 10.7 5.2 2.1.5.8-.7 1.7-1.1s1.3-1.3 1.3-1.3-.3-2.4-.1-3c.3-.5.6-2.7.6-2.7s0-1.9.1-2.2c.1-.3.1-2.6 0-3.2-.1-.7.5-1.6.5-1.6s-.2-.3.1-1.1c.3-.8-.2-3.2-.2-3.2-4.5-2.6-5.3-5.5-5.3-5.5l-.6.2c-3.5-.9-7.4 3.4-8 4.2z"/><path class="st6" d="M55.5 80.9s.4 3.8 5.8 5.3c-4.5-2.6-5.3-5.5-5.3-5.5l-.5.2zm.6 6.6s-4.5 7.3-4.6 7.7c-.1.3 4.8-7.5 4.6-7.7zm-.4-2.3s-3.5 5.2-4.1 5.4c0 0 3.3-5 4.1-5.4zm-2.1-1.3s-2.4 1.7-4.3 1.5l4.3-1.5zm-.6-1.1s-2.3 1-2.9.9l2.9-.9zm5.3 6.7l.2 4.8-.8-1.4zm14.5-15.9c0 .3-.2.5-.1.8.1.2.2.3.3.5.4.3.7.7.7 1.2.1.7-.5 1.3-.4 2 0 .2.1.4.2.6l.3.3c.2.2.6.2.9.2.5-.1.9-.5 1.1-1 .1-.5.1-1 0-1.5-.2-1.3-.9-2.5-1.5-3.7 0-.1-.1-.2-.2-.2-.2-.1-1.1-.1-1.3 0-.3 0 .3.6 0 .8z"/><path class="st29" d="M72.9 73.5c0 .3-.2.5-.1.8.1.2.2.3.3.5.4.3.7.7.7 1.2.1.7-.5 1.3-.4 2 0 .2.1.4.2.6l.3.3c.2.2.6.2.9.2.5-.1.9-.5 1.1-1 .1-.5.1-1 0-1.5-.2-1.3-.9-2.5-1.5-3.7 0-.1-.1-.2-.2-.2-.2-.1-1.1-.1-1.3 0-.3 0 .3.7 0 .8z"/><path class="st28" d="M77.9 90.3l-1.4 1.1.5.4 2.9 2s1 2.1 2.7 1.5c1.7-.6-1-2.3-1.2-2.4-.2-.1-.5-.3-.5-.3l-2.6-2-.4-.3z"/><path class="st6" d="M77.9 90.3l-1.4 1.1.5.4c.7-.4 1.2-.9 1.3-1.1l-.4-.4zm-16.3-9.2l-3.1 2 2.2 3c.2-.2 3-2.6 4.1-2.2 1.1.4 3.3-.9 3.3-.9s.9-1.9 1.2-2.4-.2-2.2-.2-2.2c.1-.1.3-.2.4-.3h-.4c-.6.3-.9.7-.9 1.5v.7c.1 1.2-.4 1.7-.4 1.7-.3.6-.9 1-1.5 1.2-1.1.4-4.7-2.1-4.7-2.1z"/><path class="st30" d="M61.7 81.3l-3.1 2 2.4 3.4s1.2-.7 1.6-1.1 2.4-1.3 2.4-1.3c2.4.9 3.5-.6 3.5-.6s2.8 4.4 3 4.4c.2 0 1.7 1.2 1.7 1.2s1.2 1.5 1.5 1.6c.1 0 .3.1.4.2 0 0 .1 0 .1.1l-1 .6c.1.3.4.5.6.6.5.2 3.5-1.6 3.5-2.1 0-.1 0-.2-.1-.2-.2-.3-.5-.5-.8-.6h-.1s-1.8-1.8-2.3-2c-.6-.3-2.5-3.4-2.5-3.4s-1-1.3-.9-1.6c.1-.3-.5-2.7-.9-2.7s-.6-.6-.6-.6c.3-.6 0-.7-.3-.8h-.6c-.7.3-1 .8-.9 1.7v.4c.1 1.2-.4 1.7-.4 1.7-.3.6-.9 1-1.5 1.2-1.1.4-4.7-2.1-4.7-2.1z"/><path class="st6" d="M78.2 90.2v.1c0 .4-3 2.3-3.5 2.1-.2-.1-.4-.3-.6-.5l1-.6s-.1 0-.1-.1c.9-.2 1.7-.8 2.2-1.6l1 .6z"/><path class="st30" d="M75.2 91.2l-1 .6c.1.3.4.5.7.7.5.2 3.5-1.6 3.5-2.1 0-.3-.6-.7-.9-.8-.6.8-1.4 1.4-2.3 1.6z"/><path class="st27" d="M75.2 91.2l-1 .6c.1.3.4.5.7.7.5.2 3.5-1.6 3.5-2.1 0-.3-.6-.7-.9-.8-.6.8-1.4 1.4-2.3 1.6z"/><path class="st30" d="M68.2 80l.7.3.7-2H69c-.5.3-.8.8-.8 1.7z"/><path class="st6" d="M68.3 80l.7.3.7-2h-.6c-.5.3-.9.8-.8 1.7zm4.8-6.6c0 .3-.2.5-.1.8.1.2.2.3.3.5.4.3.7.7.7 1.2.1.7-.5 1.3-.4 2 0 .2.1.4.2.6.1.1.2.2.3.2.2.2.6.2.9.2.1 0 .2-.1.3-.1-.2.1-.3.2-.5.2-.4.1-.9-.1-1.1-.5-.1-.2-.2-.4-.2-.6-.1-.7.5-1.3.4-2 0-.5-.4-.9-.7-1.2-.2-.1-.3-.3-.3-.5-.1-.2.1-.5.1-.8.2-.1-.3-.7 0-1l.1-.1c-.3.4.2 1 0 1.1zm-6.5 5.5s-1 .1-1.1.6c0 0 .9-.9.8-1.1"/><path class="st28" d="M82.9 94s-2.5-1.2-2.2.3c.3 1.5 2.2-.3 2.2-.3z"/><path transform="rotate(-24.55 84.86 98.048)" class="st1" d="M83.6 83.3h2.6v29.5h-2.6z"/><path class="st3" d="M48 41.1c-.5 1-1.6 1.9-1.3 3 .2.6.7.9 1.2 1.2 1.1.7 2.3 1.5 3.1 2.5.8 1.1 1.3 2.5.8 3.8-.3.9-1 1.5-1.5 2.4-.5 1-.6 2.2-.3 3.3.3 1.1.8 2.2 1.4 3.1.2.4.5.7.9.9.3.1.6.1.9.1 1.1 0 2 .7 2.6 1.6.6.9.8 2 .9 3 .1.5.1 1.1.4 1.5.4.6 1.2.8 2 .9 1.9.3 3.8.4 5.8.3"/><path class="st2" d="M63.1 67.3h1.2c.6 0 1.1.5 1.1 1.1 0 .6-.5 1.1-1.1 1.1h-1.2c-.6 0-1.1-.5-1.1-1.1 0-.5.5-1.1 1.1-1.1z"/></svg>