<?xml version="1.0" encoding="utf-8"?>
<!-- Generator: Adobe Illustrator 23.0.2, SVG Export Plug-In . SVG Version: 6.00 Build 0)  -->
<svg version="1.1" id="b847c0d8-de26-4ae3-b269-ef35a8ef771f"
	 xmlns="http://www.w3.org/2000/svg" xmlns:xlink="http://www.w3.org/1999/xlink" x="0px" y="0px" viewBox="0 0 290 208.6"
	 style="enable-background:new 0 0 290 208.6;" xml:space="preserve">
<style type="text/css">
	.st0{opacity:0.1;fill:#31B096;enable-background:new    ;}
	.st1{fill:#D0D2D5;}
	.st2{opacity:0.1;enable-background:new    ;}
	.st3{fill:#444053;}
	.st4{fill:#31B096;}
	.st5{fill:#FFFFFF;}
	.st6{opacity:0.3;fill:#31B096;enable-background:new    ;}
	.st7{opacity:0.2;fill:#3F3D56;enable-background:new    ;}
	.st8{fill:#EE8E9E;}
	.st9{fill:#454B69;}
	.st10{opacity:0.1;}
	.st11{opacity:0.6;fill:#444053;enable-background:new    ;}
	.st12{fill:#3F3D56;}
	.st13{fill:url(#SVGID_1_);}
	.st14{fill:#A26565;}
	.st15{fill:#EFB7B9;}
</style>
<title>youtube tutorial</title>
<path class="st0" d="M167.2,31.3c-18.2-0.6-35.5-6.5-52-12.9S82.3,4.8,64.6,1.4C53.2-0.8,40.1-1.1,30.9,5.1
	c-8.8,5.9-11.7,16.1-13.2,25.5c-1.2,7.1-1.8,14.5,1.3,21.2c2.2,4.6,6.1,8.5,8.8,12.9c9.4,15.4,2.8,34.3-7.4,49.3
	c-4.8,7-10.3,13.8-14,21.2c-3.7,7.5-5.4,16.1-2.2,23.7c3.2,7.6,10.8,13.3,19.1,17.3c16.8,8.1,36.5,10.5,55.8,11.8
	c42.6,2.9,85.5,1.7,128.2,0.4c15.8-0.5,31.7-0.9,47.3-3.4c8.6-1.4,17.6-3.5,23.8-8.7c8-6.6,9.9-17.8,4.6-26.1
	c-9-13.9-33.7-17.3-40-32.3c-3.4-8.2,0.1-17.4,5.1-25c10.7-16.3,28.7-30.7,29.7-49.3c0.7-12.8-8-25.7-21.4-31.7
	c-14-6.4-33.5-5.6-43.8,5C202,27.7,183.3,31.8,167.2,31.3z"/>
<polygon class="st1" points="169.1,189.6 120.2,189 120.4,187.7 122.7,167 165.7,167 168.8,187.7 169.1,189.3 "/>
<polygon class="st2" points="169.1,189.3 144.7,189.3 120.2,189 120.4,187.7 168.8,187.7 "/>
<rect x="112.1" y="188.1" class="st1" width="64.9" height="1.6"/>
<path class="st3" d="M238.9,42.7c0-2.3-1.8-4.1-4.1-4.1c0,0,0,0,0,0H53.6c-2.3,0-4.1,1.8-4.1,4.1c0,0,0,0,0,0v109.9h189.4V42.7z"/>
<path class="st1" d="M49.5,151.5v12.9c0,2.2,1.8,4.1,4.1,4.1l0,0h181.3c2.2,0,4.1-1.8,4.1-4.1v-12.9H49.5z"/>
<rect x="57.3" y="45.5" class="st0" width="174.7" height="98.8"/>
<path class="st4" d="M145.1,163.6c1.3,0,2.5-0.6,3.3-1.6l0,0c0.1-0.2,0.2-0.3,0.3-0.5l-2.3-0.4l2.5,0c0.5-1.1,0.5-2.3,0.1-3.4
	l-3.4,1.8l3.1-2.3c-1.2-2-3.8-2.7-5.8-1.5c-2,1.2-2.7,3.8-1.5,5.8c0.1,0.2,0.2,0.3,0.3,0.5l0,0C142.6,163,143.8,163.6,145.1,163.6z"
	/>
<polygon class="st2" points="149.4,168.5 168.9,188.1 165.9,168.5 "/>
<path class="st5" d="M63.1,63.4h113.3c0.4,0,0.7,0.3,0.7,0.7v67.4c0,0.4-0.3,0.7-0.7,0.7H63.1c-0.4,0-0.7-0.3-0.7-0.7V64
	C62.5,63.6,62.8,63.4,63.1,63.4z"/>
<rect x="57.5" y="45.5" class="st5" width="174.6" height="5.8"/>
<path class="st4" d="M58.4,46.5H63c0.1,0,0.2,0.1,0.2,0.2v3.1c0,0.1-0.1,0.2-0.2,0.2h-4.6c-0.1,0-0.2-0.1-0.2-0.2v-3.1
	C58.2,46.6,58.3,46.5,58.4,46.5z"/>
<path class="st6" d="M118.1,46.5h52.4c0.1,0,0.1,0.1,0.1,0.1v3.2c0,0.1-0.1,0.1-0.1,0.1h-52.4c-0.1,0-0.1-0.1-0.1-0.1v-3.2
	C117.9,46.6,118,46.5,118.1,46.5z"/>
<path class="st3" d="M169,48.7h-0.1l0,0c0.2-0.2,0.2-0.4,0.3-0.7c0-0.6-0.5-1-1-1s-1,0.5-1,1c0,0.6,0.5,1,1,1c0.2,0,0.5-0.1,0.7-0.3
	l0,0v0.1l0.8,0.8l0.3-0.3L169,48.7z M168.1,48.7c-0.4,0-0.7-0.3-0.7-0.7c0-0.4,0.3-0.7,0.7-0.7c0.4,0,0.7,0.3,0.7,0.7c0,0,0,0,0,0
	C168.8,48.3,168.5,48.7,168.1,48.7C168.1,48.7,168.1,48.7,168.1,48.7z"/>
<circle class="st4" cx="229.5" cy="48.3" r="1.8"/>
<path class="st5" d="M186,57.6h15.1c0.3,0,0.6,0.3,0.6,0.6V68c0,0.3-0.3,0.6-0.6,0.6H186c-0.3,0-0.6-0.3-0.6-0.6v-9.8
	C185.4,57.9,185.7,57.6,186,57.6z"/>
<path class="st5" d="M206.1,57.6h20.8c0.1,0,0.2,0.1,0.2,0.2v1.4c0,0.1-0.1,0.2-0.2,0.2h-20.8c-0.1,0-0.2-0.1-0.2-0.2v-1.4
	C206,57.7,206,57.6,206.1,57.6z"/>
<path class="st5" d="M206.1,61.3h20.8c0.1,0,0.2,0.1,0.2,0.2V63c0,0.1-0.1,0.2-0.2,0.2h-20.8c-0.1,0-0.2-0.1-0.2-0.2v-1.4
	C206,61.4,206,61.3,206.1,61.3z"/>
<path class="st5" d="M206.1,65.1h20.8c0.1,0,0.2,0.1,0.2,0.2v1.4c0,0.1-0.1,0.2-0.2,0.2h-20.8c-0.1,0-0.2-0.1-0.2-0.2v-1.4
	C206,65.2,206,65.1,206.1,65.1z"/>
<path class="st5" d="M186,74.9h15.1c0.3,0,0.6,0.3,0.6,0.6v9.8c0,0.3-0.3,0.6-0.6,0.6H186c-0.3,0-0.6-0.3-0.6-0.6v-9.8
	C185.4,75.2,185.7,74.9,186,74.9z"/>
<path class="st5" d="M206.1,74.9h20.8c0.1,0,0.2,0.1,0.2,0.2v1.4c0,0.1-0.1,0.2-0.2,0.2h-20.8c-0.1,0-0.2-0.1-0.2-0.2V75
	C206,75,206,74.9,206.1,74.9z"/>
<path class="st5" d="M206.1,78.7h20.8c0.1,0,0.2,0.1,0.2,0.2v1.4c0,0.1-0.1,0.2-0.2,0.2h-20.8c-0.1,0-0.2-0.1-0.2-0.2v-1.4
	C206,78.7,206,78.7,206.1,78.7z"/>
<path class="st5" d="M206.1,82.4h20.7c0.1,0,0.2,0.1,0.2,0.2V84c0,0.1-0.1,0.2-0.2,0.2h-20.7c-0.1,0-0.2-0.1-0.2-0.2v-1.4
	C206,82.5,206,82.4,206.1,82.4z"/>
<path class="st5" d="M186,92.2h15.1c0.3,0,0.6,0.3,0.6,0.6v9.8c0,0.3-0.3,0.6-0.6,0.6H186c-0.3,0-0.6-0.3-0.6-0.6v-9.8
	C185.4,92.5,185.7,92.2,186,92.2z"/>
<path class="st5" d="M206.1,92.2h20.7c0.1,0,0.2,0.1,0.2,0.2v1.4c0,0.1-0.1,0.2-0.2,0.2h-20.7c-0.1,0-0.2-0.1-0.2-0.2v-1.4
	C206,92.3,206,92.2,206.1,92.2z"/>
<path class="st5" d="M206.1,96h20.7c0.1,0,0.2,0.1,0.2,0.2v1.4c0,0.1-0.1,0.2-0.2,0.2h-20.7c-0.1,0-0.2-0.1-0.2-0.2v-1.4
	C206,96,206,96,206.1,96z"/>
<path class="st5" d="M206.1,99.7h20.7c0.1,0,0.2,0.1,0.2,0.2v1.4c0,0.1-0.1,0.2-0.2,0.2h-20.7c-0.1,0-0.2-0.1-0.2-0.2v-1.4
	C206,99.8,206,99.7,206.1,99.7z"/>
<path class="st5" d="M186,109.5h15.1c0.3,0,0.6,0.3,0.6,0.6v9.8c0,0.3-0.3,0.6-0.6,0.6H186c-0.3,0-0.6-0.3-0.6-0.6v-9.8
	C185.4,109.8,185.7,109.5,186,109.5z"/>
<path class="st5" d="M206.1,109.5h20.7c0.1,0,0.2,0.1,0.2,0.2v1.4c0,0.1-0.1,0.2-0.2,0.2h-20.7c-0.1,0-0.2-0.1-0.2-0.2v-1.4
	C206,109.6,206,109.5,206.1,109.5z"/>
<path class="st5" d="M206.1,113.3h20.7c0.1,0,0.2,0.1,0.2,0.2v1.4c0,0.1-0.1,0.2-0.2,0.2h-20.7c-0.1,0-0.2-0.1-0.2-0.2v-1.4
	C206,113.4,206,113.3,206.1,113.3z"/>
<path class="st5" d="M206.1,117h20.7c0.1,0,0.2,0.1,0.2,0.2v1.4c0,0.1-0.1,0.2-0.2,0.2h-20.7c-0.1,0-0.2-0.1-0.2-0.2v-1.4
	C206,117.1,206,117,206.1,117z"/>
<path class="st5" d="M186,126.8h15.1c0.3,0,0.6,0.3,0.6,0.6v9.8c0,0.3-0.3,0.6-0.6,0.6H186c-0.3,0-0.6-0.3-0.6-0.6v-9.8
	C185.4,127.1,185.7,126.8,186,126.8z"/>
<path class="st5" d="M206.1,126.8h20.7c0.1,0,0.2,0.1,0.2,0.2v1.4c0,0.1-0.1,0.2-0.2,0.2h-20.7c-0.1,0-0.2-0.1-0.2-0.2V127
	C206,126.9,206,126.8,206.1,126.8z"/>
<path class="st5" d="M206.1,130.6h20.7c0.1,0,0.2,0.1,0.2,0.2v1.4c0,0.1-0.1,0.2-0.2,0.2h-20.7c-0.1,0-0.2-0.1-0.2-0.2v-1.4
	C206,130.7,206,130.6,206.1,130.6z"/>
<path class="st5" d="M206.1,134.3h20.7c0.1,0,0.2,0.1,0.2,0.2v1.4c0,0.1-0.1,0.2-0.2,0.2h-20.7c-0.1,0-0.2-0.1-0.2-0.2v-1.4
	C206,134.4,206,134.3,206.1,134.3z"/>
<rect x="79" y="81.6" class="st0" width="25.8" height="1.3"/>
<rect x="81.3" y="74.5" class="st0" width="2.5" height="7.1"/>
<rect x="84.9" y="74.5" class="st0" width="2.5" height="7.1"/>
<rect x="88.6" y="74.5" class="st0" width="2.5" height="7.1"/>
<rect x="92.2" y="74.5" class="st0" width="2.5" height="7.1"/>
<rect x="95.8" y="74.5" class="st0" width="2.5" height="7.1"/>
<rect x="99.5" y="74.5" class="st0" width="2.5" height="7.1"/>
<rect x="81.3" y="75.8" class="st0" width="2.5" height="0.8"/>
<rect x="84.9" y="75.8" class="st0" width="2.5" height="0.8"/>
<rect x="88.6" y="75.8" class="st0" width="2.5" height="0.8"/>
<rect x="92.2" y="75.8" class="st0" width="2.5" height="0.8"/>
<rect x="95.8" y="75.8" class="st0" width="2.5" height="0.8"/>
<rect x="99.5" y="75.8" class="st0" width="2.5" height="0.8"/>
<rect x="81.3" y="79.3" class="st0" width="2.5" height="0.8"/>
<rect x="84.9" y="79.3" class="st0" width="2.5" height="0.8"/>
<rect x="88.6" y="79.3" class="st0" width="2.5" height="0.8"/>
<rect x="92.2" y="79.3" class="st0" width="2.5" height="0.8"/>
<rect x="95.8" y="79.3" class="st0" width="2.5" height="0.8"/>
<rect x="99.5" y="79.3" class="st0" width="2.5" height="0.8"/>
<rect x="135.6" y="85" class="st0" width="25.8" height="1.3"/>
<rect x="137.9" y="77.9" class="st0" width="2.5" height="7.1"/>
<rect x="141.5" y="77.9" class="st0" width="2.5" height="7.1"/>
<rect x="145.1" y="77.9" class="st0" width="2.5" height="7.1"/>
<rect x="148.7" y="77.9" class="st0" width="2.5" height="7.1"/>
<rect x="152.4" y="77.9" class="st0" width="2.5" height="7.1"/>
<rect x="156" y="77.9" class="st0" width="2.5" height="7.1"/>
<rect x="137.9" y="79.3" class="st0" width="2.5" height="0.8"/>
<rect x="141.5" y="79.3" class="st0" width="2.5" height="0.8"/>
<rect x="145.1" y="79.3" class="st0" width="2.5" height="0.8"/>
<rect x="148.7" y="79.3" class="st0" width="2.5" height="0.8"/>
<rect x="152.4" y="79.3" class="st0" width="2.5" height="0.8"/>
<rect x="156" y="79.3" class="st0" width="2.5" height="0.8"/>
<rect x="137.9" y="82.7" class="st0" width="2.5" height="0.8"/>
<rect x="141.5" y="82.7" class="st0" width="2.5" height="0.8"/>
<rect x="145.1" y="82.7" class="st0" width="2.5" height="0.8"/>
<rect x="148.7" y="82.7" class="st0" width="2.5" height="0.8"/>
<rect x="152.4" y="82.7" class="st0" width="2.5" height="0.8"/>
<rect x="156" y="82.7" class="st0" width="2.5" height="0.8"/>
<rect x="135.6" y="94.8" class="st0" width="25.8" height="1.3"/>
<rect x="137.9" y="87.7" class="st0" width="2.5" height="7.1"/>
<rect x="141.5" y="87.7" class="st0" width="2.5" height="7.1"/>
<rect x="145.1" y="87.7" class="st0" width="2.5" height="7.1"/>
<rect x="148.7" y="87.7" class="st0" width="2.5" height="7.1"/>
<rect x="152.4" y="87.7" class="st0" width="2.5" height="7.1"/>
<rect x="156" y="87.7" class="st0" width="2.5" height="7.1"/>
<rect x="137.9" y="89" class="st0" width="2.5" height="0.8"/>
<rect x="141.5" y="89" class="st0" width="2.5" height="0.8"/>
<rect x="145.1" y="89" class="st0" width="2.5" height="0.8"/>
<rect x="148.7" y="89" class="st0" width="2.5" height="0.8"/>
<rect x="152.4" y="89" class="st0" width="2.5" height="0.8"/>
<rect x="156" y="89" class="st0" width="2.5" height="0.8"/>
<rect x="137.9" y="92.5" class="st0" width="2.5" height="0.8"/>
<rect x="141.5" y="92.5" class="st0" width="2.5" height="0.8"/>
<rect x="145.1" y="92.5" class="st0" width="2.5" height="0.8"/>
<rect x="148.7" y="92.5" class="st0" width="2.5" height="0.8"/>
<rect x="152.4" y="92.5" class="st0" width="2.5" height="0.8"/>
<rect x="156" y="92.5" class="st0" width="2.5" height="0.8"/>
<path class="st0" d="M94.8,96.7c-0.2-0.2-0.4-0.5-0.5-0.8l3.7-0.6l-4,0c-0.8-1.7-0.8-3.6-0.1-5.4l5.4,2.8l-5-3.7
	c1.9-3.2,6-4.4,9.2-2.5c3.2,1.9,4.4,6,2.5,9.2c-0.2,0.3-0.4,0.6-0.6,0.9c0.3,0.4,0.6,0.8,0.8,1.2l-4.8,2.5l5.1-1.7
	c0.7,2.2,0.3,4.6-1.1,6.3c2.3,2.9,1.8,7.2-1.1,9.5c-2.9,2.3-7.2,1.8-9.5-1.1c-1.9-2.5-1.9-5.9,0-8.4C92.9,102.6,92.9,99.1,94.8,96.7
	L94.8,96.7z"/>
<path class="st0" d="M106.9,100.9c0,1.5-0.5,3-1.4,4.2c2.3,2.9,1.8,7.2-1.1,9.5c-2.9,2.3-7.2,1.8-9.5-1.1c-1.9-2.5-1.9-5.9,0-8.4
	C93.9,103.9,106.9,100.1,106.9,100.9z"/>
<path class="st7" d="M101.2,117.8C101.2,117.8,101.3,117.9,101.2,117.8l-2.3,0.1c0,0,0,0,0-0.1c-0.2-0.3-0.3-0.7-0.3-1.1
	c0-0.3,0-0.5,0.1-0.8l0,0c0.1,0,0.3,0,0.5,0.1c0.5,0.1,1.1,0.1,1.6,0c0.2,0,0.3,0,0.5-0.1c0,0,0,0,0,0c0.1,0.3,0.1,0.5,0.1,0.8
	C101.5,117.1,101.4,117.5,101.2,117.8z"/>
<path class="st0" d="M93,117.9H80.2c0-0.1-0.1-0.2-0.1-0.2c-0.5-1.4-0.4-3,0.1-4.4c-2.6-1.8-3.6-5.1-2.5-8c-0.3-0.2-0.5-0.4-0.7-0.6
	l3.4-1.7l-3.8,1.2c-1.2-1.4-1.9-3.2-1.7-5.1l6,1.1l-5.8-2c0.8-3.7,4.4-6,8.1-5.2c3.7,0.8,6,4.4,5.2,8.1c-0.1,0.3-0.2,0.7-0.3,1
	c0.4,0.3,0.8,0.6,1.1,1l-3.9,3.8l4.4-3.2c1.3,1.9,1.7,4.3,0.8,6.4C92.9,111.8,94,115,93,117.9z"/>
<path class="st0" d="M93,117.9H80.2c0-0.1-0.1-0.2-0.1-0.2c-0.5-1.4-0.4-3,0.1-4.4c-1.2-0.8,10.1-8.3,10.3-7.6
	c0.5,1.5,0.4,3-0.1,4.4C92.9,111.8,94,115,93,117.9z"/>
<path class="st0" d="M150.9,108.7c-0.8,1.3-2,2.3-3.4,2.8c0.1,0.5,0.1,1,0,1.5l-5.4-0.3l5.3,1.1c-0.2,0.7-0.4,1.4-0.8,2
	c-0.5,0.8-1.1,1.5-1.8,2h-7.4v0.2h-7.5c0-0.1,0-0.1,0-0.2c0.6-2.1,2.1-3.8,4.1-4.6c-0.4-3.1,1.4-6.1,4.3-7.2c0-0.3-0.1-0.6-0.1-0.9
	l3.5,1.4l-3.5-2c0.2-1.9,1.2-3.5,2.7-4.7l3.2,5.2l-2.4-5.7c3.3-1.8,7.4-0.6,9.2,2.6C152.1,104.1,152.1,106.6,150.9,108.7
	L150.9,108.7z"/>
<path class="st0" d="M146.6,115.9c-0.5,0.8-1.1,1.5-1.8,2h-7.4v0.2h-7.5c0-0.1,0-0.1,0-0.2c0.6-2.1,2.1-3.8,4.1-4.6
	c-0.1-0.5,1.4-0.4,3.3-0.1C141.2,113.8,146.8,115.5,146.6,115.9z"/>
<path class="st8" d="M114.6,97.8c0,0,0.9,5-1.1,6.7c-2.1,1.6,1.8,11.5,8.1,10.3c6.3-1.1,8.9-9.4,8.9-9.4s-6.3-1.3-4-8L114.6,97.8z"
	/>
<path class="st2" d="M114.6,97.8c0,0,0.9,5-1.1,6.7c-2.1,1.6,1.8,11.5,8.1,10.3c6.3-1.1,8.9-9.4,8.9-9.4s-6.3-1.3-4-8L114.6,97.8z"
	/>
<circle class="st8" cx="120.2" cy="91" r="10.5"/>
<path class="st4" d="M137.4,110.9v7.1h-34.6v-6.8c0-1.8,1.1-3.4,2.7-4l1-0.4c2.5-1.1,5.6-2.4,6.6-2.9c0.1-0.1,0.2-0.1,0.3-0.2
	c0.5-0.5,0.4,0.2,0.4,0.2s0,0.1,0,0.4c-0.1,1.6,0.2,7.9,7.6,7.4c7.2-0.5,7.5-5.4,7.5-6.8c0-0.1,0-0.3,0-0.4c0.5,0.1,1,0.3,1.5,0.5
	c1.5,0.6,3.7,1.4,4.3,1.9c0.2,0.1,0.4,0.3,0.7,0.4c0.3,0.2,0.5,0.3,0.8,0.6C136.9,108.5,137.4,109.7,137.4,110.9z"/>
<path class="st2" d="M130.2,104.8c-0.6,2.8-2.5,8.1-9.4,8.3c-7.4,0.1-7.8-7.2-7.7-9.2c0.1-0.1,0.2-0.1,0.3-0.2
	c0.5-0.5,0.4,0.2,0.4,0.2s-0.9,8.3,7.5,7.7c8.5-0.6,7.4-7.2,7.4-7.2C128.7,104.3,129.3,104.6,130.2,104.8z"/>
<path class="st9" d="M107.8,91.6c0.7-0.2,1.5,0.1,1.9,0.7c0.4,0.5,0.4,1.2,0.5,1.8c0.5,0.1,0.7-0.4,0.8-0.8c0.2-1.6,0.2-3.2,0.7-4.7
	c0.5-1.5,1.7-3,3.5-3.6c0.6-0.2,1.3-0.3,1.9-0.2c0.4,0.1,0.7,0.2,1.1,0.3c1.3,0.2,2.7-0.4,3.9,0c0.8,0.3,1.3,0.9,1.6,1.5
	c0.2,0.3,0.4,0.6,0.6,0.9c0.5,0.5,1.3,0.6,2.1,0.7c0.7,0.1,1.6,0.4,1.9,1c0.3,0.5,0.1,1.1,0,1.7c-0.1,0.9,0,1.8,0.4,2.6
	c0.1,0.3,0.4,0.6,0.8,0.5c0.1-0.1,0.3-0.2,0.4-0.3c0.9-1.2,0.8-2.8,1.9-3.8c0.4-0.4,0.8-0.6,1.2-1c0.5-0.5,0.8-1.3,0.6-2.1
	c-0.2-0.8-0.9-1.5-1.4-2.2c-0.7-0.9-1.2-2-1.5-3.1c-0.1-0.1-0.1-0.3,0-0.4c0.1-0.1,0.2-0.2,0.4-0.3c0.6-0.4,0.8-1.2,0.5-1.8
	c-0.3-0.6-1-1.1-1.7-1.4c-0.8-0.3-1.6-0.4-2.4-0.5c-0.5,0.1-1.1-0.2-1.3-0.6c-0.1-0.2-0.1-0.4-0.1-0.6c-0.2-0.4-0.6-0.6-1-0.7
	c-0.4-0.1-0.9,0-1.3,0.1c-0.5,0.1-1.1,0.4-1.5,0.1c-0.2-0.1-0.4-0.4-0.6-0.5c-0.5-0.2-1,0.2-1.4,0.6c-0.3,0.4-0.8,0.7-1.2,0.8
	c-0.5,0.2-1.1,0.2-1.5-0.1c-0.3-0.2-0.5-0.6-0.8-0.8c-0.5-0.5-1.2-0.7-1.9-0.8c-0.7,0-1.4,0-2.1,0.2c-1.3,0.3-2.6,0.8-3.7,1.6
	c-0.6,0.3-1.1,0.8-1.4,1.3c-0.2,0.4-0.3,0.9-0.3,1.4c-0.1,1.5,0.4,3,1.7,4.1c-0.8,0.3-1,1.1-1.2,1.8c-0.3,1.1-0.6,2.3-0.5,3.4
	c0.1,0.6,0.2,1.2,0.1,1.8c-0.1,0.3-0.1,0.6-0.1,0.9C107.2,91.3,107.4,91.5,107.8,91.6z"/>
<g class="st10">
	<path d="M133.3,86.2c-0.1,0.2-0.3,0.5-0.5,0.7c-0.3,0.4-0.8,0.6-1.2,1c-1.1,1.1-1.1,2.6-1.9,3.8c-0.1,0.1-0.2,0.2-0.4,0.3
		c-0.3,0.1-0.6-0.2-0.8-0.5c-0.2-0.3-0.3-0.7-0.4-1c0,0.1,0,0.2-0.1,0.3c-0.1,0.9,0,1.8,0.4,2.6c0.1,0.3,0.4,0.6,0.8,0.5
		c0.1-0.1,0.3-0.2,0.4-0.3c0.9-1.2,0.8-2.8,1.9-3.8c0.4-0.4,0.8-0.6,1.2-1c0.5-0.5,0.8-1.3,0.6-2.1
		C133.4,86.5,133.3,86.4,133.3,86.2z"/>
	<path d="M130.9,78.8c-0.1,0.1-0.3,0.2-0.4,0.3c-0.1,0.1-0.1,0.3,0,0.4c0.1,0.4,0.2,0.8,0.4,1.1l0,0c0.6-0.4,0.8-1.2,0.5-1.8
		c0-0.1-0.1-0.2-0.2-0.3C131.2,78.6,131,78.7,130.9,78.8z"/>
	<path d="M108.8,81.1c-0.9-0.7-1.5-1.8-1.6-2.9c0,0.2-0.1,0.5-0.1,0.7c-0.1,1.1,0.2,2.2,0.8,3.1C108.1,81.6,108.4,81.3,108.8,81.1z"
		/>
	<path d="M128.2,89c0.1-0.6,0.3-1.2,0-1.7c-0.3-0.6-1.1-0.8-1.9-1s-1.6-0.3-2.1-0.7c-0.3-0.3-0.5-0.6-0.6-0.9
		c-0.4-0.6-0.8-1.3-1.6-1.5c-1.2-0.4-2.6,0.2-3.9,0c-0.4-0.1-0.7-0.2-1.1-0.3c-0.6-0.1-1.3,0-1.9,0.2c-1.8,0.6-2.9,2.1-3.5,3.6
		c-0.5,1.5-0.5,3.1-0.7,4.7c0,0.4-0.3,0.9-0.8,0.8c0-0.6-0.1-1.3-0.5-1.8c-0.4-0.6-1.2-0.9-1.9-0.7c-0.2,0-0.4-0.2-0.5-0.3
		c0,0.2,0,0.5,0,0.7c-0.1,0.3-0.1,0.6-0.1,0.9c0.1,0.3,0.3,0.6,0.7,0.6c0.7-0.2,1.5,0.1,1.9,0.7c0.4,0.5,0.4,1.2,0.5,1.8
		c0.5,0.1,0.7-0.4,0.8-0.8c0.2-1.6,0.2-3.2,0.7-4.7c0.5-1.5,1.7-3,3.5-3.6c0.6-0.2,1.3-0.3,1.9-0.2c0.4,0.1,0.7,0.2,1.1,0.3
		c1.3,0.2,2.7-0.4,3.9,0c0.8,0.3,1.3,0.9,1.6,1.5c0.2,0.3,0.4,0.6,0.6,0.9c0.5,0.5,1.3,0.6,2.1,0.7s1.5,0.4,1.8,0.9
		C128.2,89.1,128.2,89,128.2,89z"/>
	<path d="M107.2,88.2c0-0.5,0-0.9-0.1-1.4c-0.1,0.5-0.1,1,0,1.5c0,0.1,0,0.3,0,0.4C107.2,88.5,107.2,88.4,107.2,88.2z"/>
</g>
<path class="st3" d="M95,128.2v-4.5c0-0.1,0.1-0.1,0.1-0.1c0,0,0,0,0,0h0.5c0.1,0,0.1,0.1,0.1,0.1l0,0v1.9l2.1-1.9
	c0.1-0.1,0.4-0.1,0.5,0c0,0.1,0.1,0.1,0.1,0.2v4.1c0,0.2-0.2,0.3-0.4,0.3c-0.1,0-0.1,0-0.2-0.1l-2.1-1.9v1.9c0,0.1-0.1,0.1-0.1,0.1
	c0,0,0,0,0,0h-0.5C95,128.3,95,128.2,95,128.2z"/>
<path class="st3" d="M145.4,123.7v4.5c0,0.1-0.1,0.1-0.1,0.1c0,0,0,0,0,0h-0.5c-0.1,0-0.1-0.1-0.1-0.1l0,0v-1.9l-2.1,1.9
	c-0.1,0.1-0.4,0.1-0.5,0c0-0.1-0.1-0.1-0.1-0.2v-4.1c0-0.2,0.2-0.3,0.4-0.3c0.1,0,0.1,0,0.2,0.1l2.1,1.9v-1.9c0-0.1,0.1-0.1,0.1-0.1
	l0,0h0.5C145.3,123.5,145.4,123.6,145.4,123.7z"/>
<path class="st3" d="M119.3,128.4h-1c-0.3,0-0.5-0.2-0.5-0.5v-3.7c0-0.3,0.2-0.5,0.5-0.5h1c0.3,0,0.5,0.2,0.5,0.5v3.7
	C119.8,128.2,119.6,128.4,119.3,128.4z M122.6,127.9v-3.7c0-0.3-0.2-0.5-0.5-0.5h-1c-0.3,0-0.5,0.2-0.5,0.5v3.7
	c0,0.3,0.2,0.5,0.5,0.5h1C122.3,128.4,122.5,128.2,122.6,127.9C122.6,127.9,122.6,127.9,122.6,127.9z"/>
<rect x="90.1" y="117.6" class="st11" width="60.2" height="0.7"/>
<circle class="st3" cx="108.7" cy="117.9" r="1.6"/>
<rect x="90.1" y="117.6" class="st3" width="18.6" height="0.7"/>
<ellipse class="st4" cx="242.6" cy="190.3" rx="14.9" ry="2.9"/>
<ellipse class="st12" cx="242.4" cy="189.1" rx="1.7" ry="2.3"/>
<ellipse class="st12" cx="242.4" cy="186.3" rx="1.7" ry="2.3"/>
<ellipse class="st12" cx="242.4" cy="183.5" rx="1.7" ry="2.3"/>
<ellipse class="st12" cx="242.4" cy="180.7" rx="1.7" ry="2.3"/>
<ellipse class="st12" cx="242.4" cy="177.9" rx="1.7" ry="2.3"/>
<ellipse class="st12" cx="242.4" cy="175.2" rx="1.7" ry="2.3"/>
<ellipse class="st12" cx="242.4" cy="172.4" rx="1.7" ry="2.3"/>
<path class="st4" d="M248.9,153.4c0.2-0.3,0.5-0.6,0.6-1l-4.6-0.8l4.9,0c1-2.1,1-4.5,0.2-6.6l-6.6,3.4l6.1-4.5
	c-2.3-4-7.4-5.3-11.4-3c-4,2.3-5.3,7.4-3,11.4c0.2,0.3,0.4,0.7,0.7,1c-0.4,0.5-0.7,1-0.9,1.5l5.9,3.1l-6.3-2.1
	c-0.9,2.7-0.4,5.6,1.3,7.8c-2.8,3.6-2.2,8.8,1.4,11.7c3.6,2.8,8.8,2.2,11.7-1.4c2.4-3,2.4-7.3,0-10.3
	C251.2,160.6,251.2,156.4,248.9,153.4L248.9,153.4z"/>
<path class="st2" d="M234,158.5c0,1.9,0.6,3.7,1.8,5.1c-2.8,3.6-2.2,8.8,1.4,11.7c3.6,2.8,8.8,2.2,11.7-1.4c2.4-3,2.4-7.3,0-10.3
	C250,162.2,234,157.6,234,158.5z"/>
<ellipse class="st0" cx="75.3" cy="203.3" rx="24.8" ry="5.3"/>
<linearGradient id="SVGID_1_" gradientUnits="userSpaceOnUse" x1="109.4235" y1="592.3043" x2="109.4235" y2="695.148" gradientTransform="matrix(1 0 0 -1 -35 798.7406)">
	<stop  offset="0" style="stop-color:#808080;stop-opacity:0.25"/>
	<stop  offset="0.54" style="stop-color:#808080;stop-opacity:0.12"/>
	<stop  offset="1" style="stop-color:#808080;stop-opacity:0.1"/>
</linearGradient>
<path class="st13" d="M83.6,202.7c-0.5-0.2-1-0.2-1.6-0.2c-1.1-0.1-2.1-0.6-2.9-1.4c-0.5-0.5-0.9-1.1-1.1-1.8
	c0.2,0.1,0.3,0.1,0.5,0.2c-0.5-1.2,0-2.5,0.5-3.7c0.8-2,1.5-4,2.2-6.1c1.8-5.1,3.3-10.5,3.2-16c0-2-0.4-3.8-0.4-5.8
	c-0.1-1.5,0.2-2.9,0.2-4.4c0-0.2,0-0.4,0-0.6c0.9-0.8,1.4-2,1.3-3.2c0-0.3-0.1-0.6-0.1-0.9c-0.1-0.5-0.2-1.1-0.4-1.6
	c-0.2-0.5-0.4-1.1-0.6-1.6c-0.4-1-0.6-2.1-0.9-3.2c0.1,0,0.2,0,0.3,0.1c-0.1-0.1-0.1-0.2-0.2-0.3c-0.2-0.7-0.3-1.4-0.3-2l0.2-0.1
	c0.1-0.7,0.1-1.4-0.1-2c0.1-1.1,0.3-2.2,0.4-3.2c0-0.4,0-0.9-0.3-1c-0.1-0.6-0.1-1.2-0.1-1.7c-0.1-2-0.2-4-0.3-6.1
	c-0.1-2-0.2-4.1-0.3-6.1c0-1.3,0-2.6-0.3-3.9c0.1-0.6,0-1.2-0.2-1.8c-0.5-1.5-1.9-2.6-3.4-2.6c-0.4-0.6-1-1.2-1.6-1.6
	c0.3-0.7,0.6-1.3,0.9-1.9c2.4-0.8,4.1-3.1,4.1-5.8c0-1-0.2-2-0.7-2.9c0-0.1,0.1-0.2,0.1-0.3c0.1-0.5,0.1-1.1-0.1-1.6
	c-0.1-0.2-0.2-0.4-0.3-0.6c-0.1-0.1-0.1-0.3-0.2-0.4l-0.1-0.2c-0.1-0.1-0.2-0.2-0.3-0.3c-0.2-0.2-0.4-0.5-0.6-0.7
	c-0.2-0.3-0.5-0.5-0.8-0.7c-0.4-0.3-0.9-0.5-1.4-0.6c-0.3-0.1-0.6-0.1-0.9-0.1c-0.2,0-0.3,0-0.5,0c-0.4,0-0.7,0-1,0
	c-0.1,0-0.2,0-0.3,0c-0.6-0.1-1.2-0.2-1.8-0.4l-0.3-0.1c-0.1,0-0.2,0-0.3-0.1c-0.3,0-0.6-0.1-0.8-0.1h-0.3c-0.3,0-0.6,0-0.8,0.1
	l-0.3,0c-0.7,0.1-1.4,0.3-2,0.6c-0.1,0-0.2,0.1-0.3,0.1l-0.1,0c-0.1,0-0.1,0.1-0.2,0.1l0,0l-0.2,0.1l0,0c-2,1.3-3.2,3.9-3.5,6.4
	c-0.3,2.8,0.3,5.7,0.8,8.5l0.5,2.5c0,0.1,0,0.2,0.1,0.3c-0.7,0.6-1.3,1.4-1.7,2.3c-0.5,1.3-0.5,2.6-0.5,4c0,0.3,0,0.6,0,0.8
	c-0.1,0.5-0.1,1-0.2,1.6c-0.2,2.4,0.1,4.9,0.1,7.3c-0.1,1.9-0.3,3.8-0.2,5.6c0.1,1.7,0.6,3.3,1,4.9l0.6,2.3c0,0.1,0.1,0.2,0.2,0.3
	c0.1,0.1,0.2,0.1,0.4,0.1c-0.4,0.9-0.8,1.9-1,2.9c-0.2,0.6-0.3,1.2-0.4,1.9c-0.1,1.1,0.2,2.3,0.4,3.4c0.4,1.7,0.8,3.4,1.2,5
	c0.3,1.2,0.6,2.4,0.8,3.5c0.6,2.3,1.1,4.7,1.2,7.1c0.1,1.2,0,2.4-0.3,3.6c-0.7,3.5-0.8,7.2-0.3,10.7c0.4,3,1.1,6,2,8.9
	c0.2-0.1,0.4-0.2,0.6-0.3l-0.1,0.2c-0.3,0.5-0.6,1-0.8,1.5c-0.2,0.3-0.3,0.7-0.4,1.1c-0.3,1-0.4,2.1-0.4,3.1c0,0.2,0,0.4,0.1,0.6
	c0.1,0.4,0.5,0.6,0.9,0.7c1.1,0.3,2.2,0.2,3.3,0.1c0,0,0,0,0,0.1c0.1,0.4,0.5,0.6,0.9,0.7c1.6,0.4,3.2,0,4.8-0.1
	c1.6-0.2,3.2,0,4.7-0.4c0.2,0,0.4-0.1,0.7-0.3c0.4-0.3,0.7-0.7,0.8-1.1c0-0.1,0.1-0.2,0.1-0.4C84.5,203.4,84.1,202.9,83.6,202.7z
	 M78.3,179.5c-0.1,0.6-0.3,1.2-0.5,1.7c-1.2,2.6-2.1,5.3-2.6,8.1c-0.3,1.8-0.5,3.7-0.6,5.6c0,1.4,0,2.8-0.5,4.1l0.2,0
	c-0.1,0.1-0.1,0.3-0.2,0.3l0,0.1c-0.3-0.6-0.6-1.2-0.7-1.9c0,0-0.1,0-0.3-0.1c-0.7-4-1-8-0.7-12c0-0.5,0.1-1,0.2-1.4
	c0.1-0.4,0.3-0.8,0.5-1.2c0.3-0.7,0.4-1.3,0.5-2c0.3-1.8,0.4-3.6,0.3-5.4c-0.1-1.7,0.3-3.4,0.7-5.1c0.2-0.8,0.3-1.6,0.4-2.4l0-0.2
	c1.5,2.5,2.5,5.2,3.1,8C78.3,176.8,78.4,178.2,78.3,179.5z M67.5,143.2L67.5,143.2c0.3,0.3,0.5,0.5,0.7,0.8c0.1,0.1,0.2,0.2,0.2,0.4
	c0.1,0.4-0.2,0.7-0.5,0.9c-0.1,0.1-0.2,0.2-0.3,0.4C67.7,144.9,67.6,144.1,67.5,143.2L67.5,143.2z"/>
<path class="st4" d="M64.1,127.5l-0.3,2.1c-0.1,0.7-0.2,1.4-0.2,2.2c-0.2,2.4,0.1,4.8,0.1,7.3c-0.1,1.9-0.4,3.7-0.2,5.6
	c0.1,1.6,0.6,3.2,1.1,4.8l0.7,2.3c0,0.1,0.1,0.2,0.2,0.3c0.1,0.1,0.3,0.1,0.4,0.1l2.9-0.3c-0.2-0.9-0.4-1.8-0.5-2.6
	c-0.1-0.7-0.1-1.4-0.2-2.1c-0.2-2.2-0.3-4.3-0.5-6.5l-0.3-3.8c-0.1-1.7-0.3-3.3-0.7-4.9C66.1,130.2,65.2,128.7,64.1,127.5z"/>
<path class="st2" d="M64.1,127.5l-0.3,2.1c-0.1,0.7-0.2,1.4-0.2,2.2c-0.2,2.4,0.1,4.8,0.1,7.3c-0.1,1.9-0.4,3.7-0.2,5.6
	c0.1,1.6,0.6,3.2,1.1,4.8l0.7,2.3c0,0.1,0.1,0.2,0.2,0.3c0.1,0.1,0.3,0.1,0.4,0.1l2.9-0.3c-0.2-0.9-0.4-1.8-0.5-2.6
	c-0.1-0.7-0.1-1.4-0.2-2.1c-0.2-2.2-0.3-4.3-0.5-6.5l-0.3-3.8c-0.1-1.7-0.3-3.3-0.7-4.9C66.1,130.2,65.2,128.7,64.1,127.5z"/>
<path class="st14" d="M69.3,200c-0.2,0.3-0.3,0.7-0.5,1c-0.3,1-0.4,2.1-0.4,3.1c0,0.2,0,0.4,0.1,0.6c0.1,0.4,0.6,0.6,1,0.7
	c1.6,0.4,3.3,0,5-0.1c1.7-0.2,3.3,0,4.9-0.4c0.2,0,0.5-0.1,0.7-0.2c0.4-0.3,0.7-0.7,0.9-1.1c0-0.1,0.1-0.2,0.1-0.4
	c0.1-0.6-0.4-1-0.9-1.2c-0.5-0.2-1.1-0.2-1.6-0.2c-2.3-0.2-4.2-2-4.6-4.3c0-0.1-2.7,0-3,0.1c-0.3,0.2-0.5,0.6-0.7,0.9
	C69.8,199,69.6,199.5,69.3,200z"/>
<path class="st2" d="M69.3,200c-0.2,0.3-0.3,0.7-0.5,1c-0.3,1-0.4,2.1-0.4,3.1c0,0.2,0,0.4,0.1,0.6c0.1,0.4,0.6,0.6,1,0.7
	c1.6,0.4,3.3,0,5-0.1c1.7-0.2,3.3,0,4.9-0.4c0.2,0,0.5-0.1,0.7-0.2c0.4-0.3,0.7-0.7,0.9-1.1c0-0.1,0.1-0.2,0.1-0.4
	c0.1-0.6-0.4-1-0.9-1.2c-0.5-0.2-1.1-0.2-1.6-0.2c-2.3-0.2-4.2-2-4.6-4.3c0-0.1-2.7,0-3,0.1c-0.3,0.2-0.5,0.6-0.7,0.9
	C69.8,199,69.6,199.5,69.3,200z"/>
<path class="st14" d="M73.8,200.8c-0.2,0.3-0.3,0.7-0.5,1c-0.3,1-0.4,2.1-0.4,3.1c0,0.2,0,0.4,0.1,0.6c0.1,0.4,0.6,0.6,0.9,0.7
	c1.6,0.4,3.3,0,5-0.1s3.3,0,4.9-0.4c0.2,0,0.5-0.1,0.7-0.3c0.4-0.3,0.7-0.7,0.9-1.1c0-0.1,0.1-0.2,0.1-0.4c0.1-0.5-0.4-1-0.9-1.2
	c-0.5-0.2-1.1-0.2-1.6-0.2c-2.3-0.2-4.2-2-4.6-4.3c0-0.1-2.7-0.1-3,0.1c-0.3,0.2-0.5,0.6-0.7,0.9C74.3,199.8,74,200.3,73.8,200.8z"
	/>
<path class="st9" d="M85.5,174.2c0,5.4-1.5,10.7-3.4,15.8c-0.7,2-1.5,4-2.3,6c-0.5,1.2-1,2.5-0.5,3.6c-1.5-0.6-3-0.9-4.6-0.6
	c0.6-1.2,0.5-2.7,0.6-4c0.1-1.9,0.2-3.7,0.6-5.5c0.5-2.8,1.4-5.5,2.7-8c0.3-0.5,0.4-1.1,0.5-1.7c0.2-1.3,0-2.6-0.2-3.9
	c-0.6-2.8-1.7-5.5-3.2-7.9l0,0.2c-0.1,0.8-0.2,1.6-0.4,2.4c-0.4,1.7-0.8,3.4-0.7,5c0.1,1.8,0,3.6-0.3,5.4c-0.1,0.7-0.3,1.4-0.5,2
	c-0.2,0.4-0.4,0.8-0.5,1.2c-0.1,0.5-0.2,0.9-0.2,1.4c-0.2,4.1,0,8.2,0.8,12.2c-1.4-0.1-2.8,0.3-4,0.9c-1-2.9-1.7-5.8-2.1-8.8
	c-0.5-3.5-0.4-7.2,0.3-10.7c0.2-1.2,0.3-2.4,0.3-3.5c-0.1-2.4-0.7-4.7-1.3-7l-0.9-3.5c-0.4-1.7-0.8-3.3-1.3-5
	c-0.3-1.1-0.6-2.2-0.5-3.4c0.1-0.6,0.2-1.2,0.4-1.8c0.6-2,1.6-3.9,2.8-5.7c4.8,0.3,9.7-0.2,14.5-0.6c0.2,0,0.5,0,0.7,0.1
	c0.2,0.2,0.3,0.4,0.3,0.6l1.8,10.3c0.3,1.4,0.5,2.9,0.5,4.3c0,1.5-0.2,2.9-0.2,4.4C85.1,170.4,85.4,172.2,85.5,174.2z"/>
<path class="st2" d="M75.5,168.1c-0.1,0.8-0.2,1.6-0.4,2.4c-1.1-1.8-2.2-3.6-3.2-5.5c-0.3-0.5-0.5-1-0.7-1.5l-0.7-1.5
	c-0.1-0.3-0.3-0.5-0.4-0.8c-0.2-0.4-0.3-0.8-0.4-1.3c0.4-0.1,1.2,0.9,1.5,1.1c0.5,0.5,1,1.1,1.5,1.7c0.6,0.6,1.1,1.3,1.6,2.1
	C74.9,165.9,75.3,166.9,75.5,168.1z"/>
<path class="st15" d="M79.6,118.2c0,0-2.7,4.3-2.2,5.2c0.5,0.9-8.5-0.8-8.5-0.8s4.9-4.3,4.4-6.1S79.6,118.2,79.6,118.2z"/>
<circle class="st15" cx="77.2" cy="113.4" r="6.1"/>
<path class="st4" d="M79.6,122.7c-0.6-0.9-1.5-1.6-2.6-2.1c-0.6-0.2-1.2-0.4-1.8-0.4l-2.4-0.4c-0.6-0.1-1.2-0.2-1.8,0
	c-0.3,0.1-0.5,0.3-0.8,0.6c-0.8,0.8-1.7,1.6-2.7,2.1c-0.3,0.1-0.6,0.2-0.9,0.3c-1.2,0.5-2.1,1.6-2.6,2.8c-0.5,1.2-0.5,2.6-0.5,3.9
	c0,0.5,0,0.9,0.1,1.4c0.1,0.4,0.3,0.9,0.5,1.3c0.3,0.9,0.6,1.8,0.8,2.7c0.6,2.4,1.1,4.8,1.6,7.3c0,0.4,0.1,0.7,0.3,1
	c0.2,0.3,0.5,0.6,0.8,0.8c0.3,0.2,0.5,0.4,0.7,0.7c0.1,0.1,0.2,0.2,0.2,0.4c0.1,0.4-0.3,0.7-0.5,0.9c-0.5,0.6-0.9,1.2-1.1,2
	c-0.1,0.2-0.2,0.3-0.2,0.5c0.1,0.1,0.1,0.3,0.1,0.4c0,0.1-0.1,0.3-0.2,0.4c-0.2,0.3-0.3,0.7-0.3,1.1c1.9,0.8,3.9,1.3,5.9,1.4
	c0.5,0,1,0,1.5,0.1c0.4,0,0.7,0.1,1.1,0.2c0.5,0,1,0.1,1.6,0c2.7-0.1,5.5-0.1,8-1.2c0.2-1.3-0.3-2.6-0.6-3.8c-0.5-2-0.6-4.1-1-6.1
	c-0.3-1.4-0.6-2.7-0.8-4.1s-0.3-2.8,0.1-4.2c0.3-1.2,0.4-2.4,0.8-3.6c0.4-1.2,0.6-2.5,0.2-3.7C82.7,123.7,81.2,122.6,79.6,122.7z"/>
<path class="st14" d="M82.6,110.2c0.3-1.1-0.3-2.2-1-3.1c-0.8-0.9-1.7-1.8-2.9-2c-1-0.2-1.9,0-2.9,0c-0.9-0.1-1.7-0.4-2.5-0.5
	c-0.8-0.1-1.6-0.1-2.3,0.1c-0.7,0.1-1.4,0.3-2.1,0.6c-2.6,1.1-4.1,4-4.4,6.8c-0.4,2.8,0.3,5.6,0.9,8.4l0.6,2.5
	c0.6,2.6,1.2,5.2,1.3,7.9c0.2,2.7-0.1,5.4-1.2,7.8c3.5-1.9,6.3-5,7.7-8.7c0.4-1,0.7-2.1,1.1-3.1c0.4-0.9,0.9-1.7,1.2-2.6
	c0.4-1,0.6-2.1,0.5-3.1c0-0.8-0.2-1.6-0.1-2.4s0.2-1.6,0.8-2.2c0.5-0.5,1.2-0.8,1.8-1.1c1-0.5,1.9-1.2,2.6-2.1
	c0.4-0.5,0.4-0.8,0.5-1.3C82.1,111.2,82.5,110.8,82.6,110.2z"/>
<path class="st15" d="M82.6,155.8c0.1,0.6-0.1,1.3,0.1,1.9c0.1,0.5,0.3,0.9,0.5,1.3c0.1,0.5,0.2,1.1,0.2,1.6c0,0.5,0,1-0.4,1.2
	c-0.2,0.1-0.4,0.1-0.6,0.2s-0.3,0.3-0.2,0.5c0.1,0.2,0.3,0.1,0.5,0.2c0.2,0,0.3,0.2,0.3,0.3c0,0-0.1,0.1-0.1,0.1
	c-0.2,0.1-0.3,0.1-0.5,0.2c-0.1,0.1-0.2,0.3-0.2,0.5c0,0.2,0.2,0.2,0.3,0.2c0,0,0,0,0.1,0c-0.1,0.2-0.1,0.3-0.1,0.5
	c0.6,0.3,1.4-0.1,2-0.4c0.3-0.1,0.5-0.3,0.8-0.5c1-0.8,1.5-2,1.5-3.2c0-0.3-0.1-0.6-0.1-0.9c-0.1-0.5-0.2-1-0.4-1.6
	c-0.2-0.5-0.4-1.1-0.6-1.6c-0.4-1.1-0.7-2.3-1.1-3.4c0-0.1-0.1-0.2-0.2-0.3c-0.1,0-0.2-0.1-0.3-0.1c-0.4,0-0.9,0-1.3,0.1
	c-0.3,0.1-0.7,0.3-0.8,0.5s0.1,0.5,0.2,0.7C82.3,154.4,82.5,155,82.6,155.8z"/>
<path class="st2" d="M82.2,125.3c0.1,0.1,0.2,0.3,0.3,0.4c0.9,1.6,0.9,3.4,0.9,5.2c0,2,0.2,4,0.3,6l0.3,6c0,0.6,0.1,1.1,0.1,1.7
	c0.4,0.1,0.4,0.6,0.4,1c-0.3,2.5-1,5-0.3,7.3c0,0.1,0.1,0.2,0.2,0.3c-0.4-0.1-0.8-0.1-1.1,0c-0.4,0.1-0.7,0.2-1.1,0.3
	c-0.5,0.1-1,0.1-1.3,0.5c-0.4-1.1-0.6-2.1-0.8-3.2c-0.2-1-0.2-2-0.6-3c-0.2-0.4-0.4-0.7-0.6-1.1c-1.1-1.9-1.6-4-2.1-6.1
	c-0.2-1-0.3-2-0.2-3c0.1-0.5,0.1-0.9,0.1-1.4c0-0.5-0.1-1-0.2-1.5c-0.2-1.4-0.1-2.9,0.3-4.2c0.4-1.3,0.7-2.6,1.5-3.7
	C79.2,125.9,80.9,125.3,82.2,125.3z"/>
<path class="st4" d="M82.5,125.1c0.1,0.1,0.2,0.3,0.3,0.4c0.9,1.6,0.9,3.4,0.9,5.2c0,2,0.2,4,0.3,6l0.3,6c0,0.6,0.1,1.1,0.1,1.7
	c0.4,0.1,0.4,0.6,0.4,1c-0.3,2.5-1,5-0.3,7.3c0,0.1,0.1,0.2,0.2,0.3c-0.4-0.1-0.8-0.1-1.1,0c-0.4,0.1-0.7,0.2-1.1,0.3
	c-0.5,0.1-1,0.1-1.3,0.5c-0.4-1.1-0.6-2.2-0.8-3.3c-0.2-1-0.2-2-0.6-3c-0.2-0.4-0.4-0.7-0.6-1.1c-1.1-1.9-1.6-4-2.1-6.1
	c-0.2-1-0.3-2-0.2-3c0.2-0.9,0.2-1.9-0.1-2.9c-0.2-1.4-0.1-2.9,0.3-4.2c0.4-1.3,0.7-2.6,1.5-3.7C79.6,125.7,81.2,125.1,82.5,125.1z"
	/>
<g class="st10">
	<path d="M81.6,107.1c-0.8-0.9-1.7-1.8-2.9-2c-1-0.2-1.9,0-2.9,0c-0.9-0.1-1.7-0.4-2.5-0.5c-0.8-0.1-1.6-0.1-2.3,0.1
		c-0.7,0.1-1.4,0.3-2.1,0.6c-0.4,0.2-0.7,0.4-1,0.6c0.6-0.2,1.2-0.4,1.9-0.5c0.8-0.1,1.6-0.2,2.3-0.1c0.9,0.1,1.7,0.4,2.5,0.5
		c1,0.1,2-0.2,2.9,0c1.2,0.2,2.1,1.1,2.9,2c0.7,0.9,1.3,2,1,3.1c-0.2,0.6-0.5,1.1-0.6,1.6s-0.1,0.8-0.5,1.3
		c-0.5,0.7-1.1,1.2-1.8,1.7c0.2-0.1,0.4-0.2,0.6-0.3c1-0.5,1.9-1.2,2.6-2.1c0.4-0.5,0.4-0.8,0.5-1.3c0.1-0.6,0.5-1.1,0.6-1.6
		C82.9,109.1,82.3,108,81.6,107.1z"/>
	<path d="M77.1,116.4c0.1-0.1,0.2-0.2,0.3-0.3c-0.6,0.3-1.2,0.5-1.6,1c-0.6,0.6-0.8,1.4-0.8,2.2c0,0.8,0.1,1.6,0.1,2.4
		c0,1.1-0.2,2.1-0.5,3.1c-0.3,0.9-0.8,1.7-1.2,2.6c-0.4,1-0.7,2.1-1.1,3.1c-1.3,3.2-3.5,6-6.4,7.9c0,0,0,0.1,0,0.1
		c3.5-1.9,6.3-5,7.7-8.7c0.4-1,0.7-2.1,1.1-3.1c0.4-0.9,0.9-1.7,1.2-2.6c0.4-1,0.6-2.1,0.5-3.1c0-0.8-0.2-1.6-0.1-2.4
		S76.6,117,77.1,116.4z"/>
</g>
</svg>
