<?xml version="1.0" encoding="utf-8"?>
<!-- Generator: Adobe Illustrator 23.0.2, SVG Export Plug-In . SVG Version: 6.00 Build 0)  -->
<svg version="1.1" id="Layer_1" xmlns="http://www.w3.org/2000/svg" xmlns:xlink="http://www.w3.org/1999/xlink" x="0px" y="0px"
	 viewBox="0 0 284.4 218.2" style="enable-background:new 0 0 284.4 218.2;" xml:space="preserve">
<style type="text/css">
	.st0{opacity:0.1;fill:#89DAF8;enable-background:new    ;}
	.st1{opacity:0.1;fill:#3C6FE9;enable-background:new    ;}
	.st2{fill:#D6D6E3;}
	.st3{fill:#AEBEE1;}
	.st4{fill:#535461;}
	.st5{opacity:0.1;enable-background:new    ;}
	.st6{fill:#E3EDF9;}
	.st7{fill:url(#SVGID_1_);}
	.st8{fill:#F8B9BF;}
	.st9{fill:#D9DFE8;}
	.st10{fill:#3C6FE9;}
	.st11{opacity:0.1;}
	.st12{fill:#68739D;}
	.st13{fill:#6394E2;}
	.st14{fill:#B96B6B;}
	.st15{fill:none;stroke:#535461;stroke-width:2;stroke-miterlimit:10;}
	.st16{fill:url(#SVGID_2_);}
	.st17{fill:#FA595F;}
	.st18{fill:#F37291;}
	.st19{fill:#96A2D0;}
</style>
<title>co-working</title>
<path class="st0" d="M265.6,123.5c-10.4,15.7-7.8,37.5-2.6,54.8c1.8,5.8,3.8,11.9,2.6,18.3c-1.5,7.8-7.4,13.9-13.5,17.2
	c-11.1,6.1-23.9,5.6-33.5-1.3c-8.2-6-13.8-16.3-22.3-22c-14.1-9.5-32.8-4.4-49,3.8c-11.5,5.8-24.1,13.2-34.9,8.6
	c-7.6-3.3-12.6-12-15.1-21.6c-1.2-4.6-2-9.6-4.5-13.1c-1.5-2.1-3.5-3.5-5.6-4.7c-19.1-10.8-44.4-2.8-63-15
	c-12.5-8.2-19.9-24.7-22.7-42.2S0.2,70.3,2,52c1.3-13,3.2-26.9,10.5-37.4c7.7-11,20.1-15.7,31.1-14.4s20.6,7.9,29,15.8
	c10.5,9.9,20.1,22.4,33.4,25.8c9.1,2.3,18.9,0.2,28.4-1c16-1.9,31.8-0.9,47.5,0.4c15.1,1.2,30.2,2.6,44.3,7.8
	c10,3.6,17.8,10.9,27.2,15.7c6.1,3.2,12.9,3.7,18.6,7.8c7.1,5.1,13.3,14.3,10.8,25.8C280.6,109.2,271.2,115.2,265.6,123.5z"/>
<rect x="222.8" y="64.9" class="st1" width="10.3" height="15.7"/>
<rect x="223.8" y="66.4" class="st1" width="8.3" height="12.6"/>
<rect x="201.8" y="54" class="st1" width="15.9" height="15.7"/>
<rect x="203.4" y="55.5" class="st1" width="12.8" height="12.6"/>
<rect x="16.3" y="30.7" class="st1" width="48.6" height="1.3"/>
<rect x="16.3" y="37" class="st1" width="48.6" height="1.3"/>
<rect x="98.3" y="114.5" class="st2" width="5" height="55.4"/>
<path class="st3" d="M248.1,120.3V69.2c0-3,2.4-5.4,5.4-5.4l0,0c3,0,5.4,2.4,5.4,5.4v61.9c0,3-2.4,5.4-5.4,5.4l0,0h-33.3
	c-3,0-5.4-2.4-5.4-5.4l0,0l0,0c0-3,2.4-5.4,5.4-5.4l0,0h22.6C245.7,125.7,248.1,123.3,248.1,120.3z"/>
<path class="st4" d="M248.1,120.3V69.2c0-3,2.4-5.4,5.4-5.4l0,0c3,0,5.4,2.4,5.4,5.4v61.9c0,3-2.4,5.4-5.4,5.4l0,0h-33.3
	c-3,0-5.4-2.4-5.4-5.4l0,0l0,0c0-3,2.4-5.4,5.4-5.4l0,0h22.6C245.7,125.7,248.1,123.3,248.1,120.3z"/>
<path class="st2" d="M214.8,130.8c0.2-2.9,2.5-5.1,5.4-5.1h22.6c3,0,5.4-2.4,5.4-5.4l0,0V69.2c0-2.9,2.3-5.2,5.1-5.4v67H214.8z"/>
<path class="st3" d="M48.7,122.1V70.9c0-3-2.4-5.4-5.4-5.4l0,0c-3,0-5.4,2.4-5.4,5.4v61.9c0,3,2.4,5.4,5.4,5.4c0,0,0,0,0,0h33.3
	c3,0,5.4-2.4,5.4-5.4l0,0c0-3-2.4-5.4-5.4-5.4H54.1C51.1,127.5,48.7,125.1,48.7,122.1L48.7,122.1z"/>
<path class="st4" d="M48.7,122.1V70.9c0-3-2.4-5.4-5.4-5.4l0,0c-3,0-5.4,2.4-5.4,5.4v61.9c0,3,2.4,5.4,5.4,5.4c0,0,0,0,0,0h33.3
	c3,0,5.4-2.4,5.4-5.4l0,0c0-3-2.4-5.4-5.4-5.4H54.1C51.1,127.5,48.7,125.1,48.7,122.1L48.7,122.1z"/>
<path class="st2" d="M82,132.5c-0.2-2.9-2.5-5.1-5.4-5.1H54.1c-3,0-5.4-2.4-5.4-5.4l0,0V70.9c0-2.9-2.3-5.2-5.1-5.4v67H82z"/>
<rect x="196.4" y="114.5" class="st2" width="5" height="56.7"/>
<rect x="98.3" y="114.5" class="st5" width="5" height="4.1"/>
<rect x="196.4" y="114.5" class="st5" width="5" height="4.1"/>
<path class="st5" d="M116,80.8c-0.1,0.9-0.2,1.8-0.3,2.7H115v-2.7H116z"/>
<path class="st4" d="M136.3,108.4c0,0.9-0.6,1.6-1.4,1.6h-15.2v-1.6h12.6c0.6,0,0.9-0.7,0.6-1.2L121.5,84c-0.2-0.3-0.5-0.6-0.9-0.6
	H115v-2.7h7.1c0.3,0,0.5,0.2,0.6,0.4l13.1,25.3C136.1,107,136.3,107.7,136.3,108.4z"/>
<path class="st4" d="M108.5,104.1l-0.2,0.4l-1.9-1.3l6-46.2h1.5c0,0,0.1,0.2,0.2,0.6C115.1,61.6,120.2,84.2,108.5,104.1z"/>
<path class="st5" d="M114.1,57.6l-5.6,46.5l-0.2,0.4l-1.9-1.3l6-46.2h1.5C113.9,57,114,57.3,114.1,57.6z"/>
<rect x="85.3" y="78.7" transform="matrix(0.1189 -0.9929 0.9929 0.1189 16.3136 179.4527)" class="st2" width="47.9" height="3.7"/>
<path class="st6" d="M92.1,108.4c0,0.2-0.2,0.4-0.4,0.4H91c-0.2,0-0.4-0.2-0.4-0.4c0,0,0,0,0-0.1c0-0.2,0.2-0.4,0.4-0.4h0.7
	c0.2,0,0.4,0.1,0.4,0.3C92.1,108.3,92.1,108.3,92.1,108.4z"/>
<path class="st6" d="M94.1,108.4c0,0.2-0.2,0.4-0.4,0.4H93c-0.2,0-0.4-0.2-0.4-0.4c0-0.1,0-0.1,0-0.1c0-0.1,0.1-0.1,0.1-0.2
	c0.1-0.1,0.2-0.1,0.3-0.1h0.7c0.2,0,0.3,0.1,0.4,0.3C94.1,108.3,94.1,108.3,94.1,108.4z"/>
<path class="st6" d="M95.8,108.4c0,0.2-0.2,0.4-0.4,0.4h-0.7c-0.2,0-0.4-0.2-0.4-0.4c0-0.1,0-0.1,0-0.2c0.1-0.2,0.2-0.3,0.4-0.3h0.7
	C95.6,107.9,95.8,108.1,95.8,108.4L95.8,108.4L95.8,108.4z"/>
<path class="st6" d="M97.7,108.4c0,0.2-0.2,0.4-0.4,0.4h-0.7c-0.2,0-0.4-0.2-0.4-0.4c0-0.1,0-0.2,0.1-0.3l0.1-0.1
	c0.1-0.1,0.2-0.1,0.3-0.1h0.7c0.1,0,0.2,0.1,0.3,0.1C97.7,108.2,97.7,108.3,97.7,108.4z"/>
<path class="st5" d="M92.1,108.3c0,0,0,0.1,0,0.1c0,0.2-0.2,0.4-0.4,0.4H91c-0.2,0-0.4-0.2-0.4-0.4c0,0,0,0,0-0.1L92.1,108.3z"/>
<path class="st5" d="M94,108.2c0,0.1,0,0.1,0,0.2c0,0.2-0.2,0.4-0.4,0.4H93c-0.2,0-0.4-0.2-0.4-0.4c0-0.1,0-0.1,0-0.1L94,108.2z"/>
<path class="st5" d="M95.7,108.1c0.1,0.1,0.1,0.2,0.1,0.2c0,0.2-0.2,0.4-0.4,0.4h-0.7c-0.2,0-0.4-0.2-0.4-0.4c0-0.1,0-0.1,0-0.2
	L95.7,108.1z"/>
<path class="st5" d="M97.7,108.4c0,0.2-0.2,0.4-0.4,0.4h-0.7c-0.2,0-0.4-0.2-0.4-0.4c0-0.1,0-0.2,0.1-0.3l1.3-0.1
	C97.7,108.2,97.7,108.3,97.7,108.4z"/>
<path class="st2" d="M101.6,110.1H89.1v-0.6c0-0.5,0.4-1,0.9-1l10-0.4c0.8,0,1.5,0.6,1.5,1.4c0,0,0,0,0,0.1L101.6,110.1z"/>
<path class="st4" d="M163.3,108.4c0,0.9,0.6,1.6,1.4,1.6h15.2v-1.6h-12.6c-0.6,0-0.9-0.7-0.6-1.2L178.1,84c0.2-0.3,0.5-0.6,0.9-0.6
	h5.6v-2.7h-7.1c-0.3,0-0.5,0.2-0.6,0.4l-13.1,25.3C163.5,107,163.3,107.7,163.3,108.4z"/>
<path class="st4" d="M191.1,104.1l0.2,0.4l1.9-1.3l-6-46.2h-1.5c0,0-0.1,0.2-0.2,0.6C184.5,61.6,179.4,84.2,191.1,104.1z"/>
<path class="st5" d="M185.6,57.6l5.6,46.5l0.2,0.4l1.9-1.3l-6-46.2h-1.5C185.7,57,185.7,57.3,185.6,57.6z"/>
<rect x="188.5" y="56.6" transform="matrix(0.9929 -0.1189 0.1189 0.9929 -8.2267 23.2067)" class="st2" width="3.7" height="47.9"/>
<path class="st6" d="M207.5,108.4c0,0.2,0.2,0.4,0.4,0.4h0.7c0.2,0,0.4-0.2,0.4-0.4l0,0c0,0,0,0,0-0.1c0-0.2-0.2-0.4-0.4-0.4h-0.7
	c-0.2,0-0.4,0.1-0.4,0.3C207.5,108.3,207.5,108.3,207.5,108.4z"/>
<path class="st6" d="M205.6,108.4c0,0.2,0.2,0.4,0.4,0.4h0.7c0.2,0,0.4-0.2,0.4-0.4l0,0c0-0.1,0-0.1,0-0.1c0-0.1-0.1-0.1-0.1-0.2
	c-0.1-0.1-0.2-0.1-0.3-0.1H206c-0.2,0-0.3,0.1-0.4,0.3C205.6,108.3,205.6,108.3,205.6,108.4z"/>
<path class="st6" d="M203.8,108.4c0,0.2,0.2,0.4,0.4,0.4h0.7c0.2,0,0.4-0.2,0.4-0.4l0,0c0-0.1,0-0.1-0.1-0.2
	c-0.1-0.2-0.2-0.3-0.4-0.3h-0.7C204,107.9,203.8,108.1,203.8,108.4L203.8,108.4L203.8,108.4z"/>
<path class="st6" d="M201.9,108.4c0,0.2,0.2,0.4,0.4,0.4h0.7c0.2,0,0.4-0.2,0.4-0.4c0-0.1,0-0.2-0.1-0.3l-0.1-0.1
	c-0.1-0.1-0.2-0.1-0.3-0.1h-0.7c-0.1,0-0.2,0.1-0.3,0.1C201.9,108.2,201.9,108.3,201.9,108.4z"/>
<path class="st5" d="M207.5,108.3c0,0,0,0.1,0,0.1c0,0.2,0.2,0.4,0.4,0.4h0.7c0.2,0,0.4-0.2,0.4-0.4l0,0c0,0,0,0,0-0.1L207.5,108.3z
	"/>
<path class="st5" d="M205.6,108.2c0,0.1,0,0.1,0,0.2c0,0.2,0.2,0.4,0.4,0.4h0.7c0.2,0,0.4-0.2,0.4-0.4l0,0c0-0.1,0-0.1,0-0.1
	L205.6,108.2z"/>
<path class="st5" d="M203.9,108.1c-0.1,0.1-0.1,0.2-0.1,0.2c0,0.2,0.2,0.4,0.4,0.4h0.7c0.2,0,0.4-0.2,0.4-0.4l0,0
	c0-0.1,0-0.1-0.1-0.2L203.9,108.1z"/>
<path class="st5" d="M201.9,108.4c0,0.2,0.2,0.4,0.4,0.4h0.7c0.2,0,0.4-0.2,0.4-0.4c0-0.1,0-0.2-0.1-0.3l-1.3-0.1
	C201.9,108.2,201.9,108.3,201.9,108.4z"/>
<path class="st2" d="M198,110.1h12.5v-0.6c0-0.5-0.4-1-0.9-1l-10-0.4c-0.8,0-1.5,0.6-1.5,1.4c0,0,0,0,0,0.1V110.1z"/>
<linearGradient id="SVGID_1_" gradientUnits="userSpaceOnUse" x1="299.7977" y1="288.7453" x2="299.7977" y2="158.5174" gradientTransform="matrix(1 9.000000e-02 -9.000000e-02 1 -56.4307 -140.2706)">
	<stop  offset="0" style="stop-color:#808080;stop-opacity:0.25"/>
	<stop  offset="0.54" style="stop-color:#808080;stop-opacity:0.12"/>
	<stop  offset="1" style="stop-color:#808080;stop-opacity:0.1"/>
</linearGradient>
<path class="st7" d="M250.4,117c5.8-9.9,3.7-29.9,3.9-30.3c0.2-0.3-0.6-9.7-5.9-12c-1-1.9-1.9-4.1-1.9-4.1c-0.1,0.1-0.2,0.2-0.3,0.2
	c-0.1-0.1-0.1-0.2-0.1-0.4c-0.1-0.2-0.1-0.4-0.2-0.6c0.2,0.1,0.3,0.1,0.5,0.1c0.4,0.1,0.8,0.1,1.2-0.1c0.1-0.1,0.3-0.2,0.4-0.3
	c0.4-0.3,0.7-0.8,0.9-1.3l1.6-3.7c0.7-1.7,1.4-3.4,1.8-5.2c0.6-2.7,0.3-5.5-0.6-8.1c-0.4-1-0.9-2-1.7-2.6c-1.7-1.2-4.1-0.4-6.1-1.1
	c-0.7-0.2-1.2-0.6-1.9-0.8c-1.4-0.5-3-0.2-4.4,0.4c-1.3,0.6-2.5,1.6-3.6,2.5c-0.6,0.5-1.5,0.9-2.2,1.5c-0.7,0.5-1.2,1.2-1.1,2
	c0.1,1,1.1,1.5,2,1.7c0.2,0,0.3,0.1,0.5,0.1c-3.5,3.6-3.5,9.3,0.1,12.9c1.1,1.1,2.4,1.8,3.8,2.3c0.5,0.9,0.9,1.8,1.2,2.8
	c0.1,0.1,0.1,0.3,0.1,0.4c-1.5,0.4-2.7,0.8-3,1c-0.7,0.6,0.8,5.9,0.8,5.9c-0.4,0.5-0.8,1-1.2,1.6c-3,4.6-5,9.8-5.6,15.3
	c-0.3,2-0.6,4-1,6L210,99.6l-0.1,0.5l-0.4-0.1l0,0l-1.4-0.3l-0.1,0.3l-0.2-0.1c-3.4-1.6-9.1-3.6-12.9-1.5c-4,2.2,4.7,5.1,10.3,6.6
	c-1.9,0.1-3.6,0.5-5.1,1.6c-4.1,3.1,7.5,4.7,12.9,5.2l0.2,0v0.1l1.9,0.2l0.5,0.1l0.1,0.7c0,0,2.7,0.5,6.3,1c-4.1,1-9.2,1.7-12.7,2.2
	c-3.7,0.4-6.9,3.1-7.9,6.7c-0.3,1-0.4,2.2-0.1,3.2c1.1,3.7-0.2,30.7-0.5,36.5l-6.6,3.8c0,0-10.4,1.3-3.5,3.7
	c0.6,0.2,1.3,0.4,1.9,0.5c-0.9,0.6-0.8,1.3,1.8,2.3c6.9,2.4,23-0.1,23-0.1s-0.4-2.9-0.9-5.2l0.2,0c0,0-1.7-6.2,0.9-9.3
	c2.5-3.1-0.4-26.8-0.4-26.8s4.4-1.8,17.6-1.9c10.6,2.7,15.8-7,15.7-12.1C250.4,117.2,250.4,117.1,250.4,117z"/>
<path class="st8" d="M211.1,101.6l-1.1,4.6c0,0-1-0.2-2.5-0.6c-5.1-1.3-16-4.5-11.6-6.9c3.7-2,9.3-0.1,12.5,1.5
	c1.2,0.6,2.1,1.1,2.5,1.3C211,101.6,211.1,101.6,211.1,101.6z"/>
<path class="st5" d="M210.8,102.9l-0.8,3.3c0,0-1-0.2-2.5-0.6l0.9-5.4c1.2,0.6,2.1,1.1,2.5,1.3L210.8,102.9z"/>
<polygon class="st9" points="210.8,106.5 207.7,105.7 208.6,100 211.2,100.6 "/>
<polygon class="st5" points="210.8,106.5 209.5,106.2 210,100.3 211.2,100.6 "/>
<path class="st10" d="M241.1,82.7c0,0-6-3.5-8.7,6.5s-2.9,14.6-2.9,14.6l-19-3.8l-0.6,7c0,0,20.4,6.6,22.9,6.1
	c2.6-0.5,10.9-14.4,10.9-14.4S251.2,87.8,241.1,82.7z"/>
<g class="st11">
	<path d="M211.1,101.6l-1.1,4.6c0,0-1-0.2-2.5-0.6c-5.1-1.3-16-4.5-11.6-6.9c3.7-2,9.3-0.1,12.5,1.5c1.2,0.6,2.1,1.1,2.5,1.3
		C211,101.6,211.1,101.6,211.1,101.6z"/>
	<path class="st5" d="M210.8,102.9l-0.8,3.3c0,0-1-0.2-2.5-0.6l0.9-5.4c1.2,0.6,2.1,1.1,2.5,1.3L210.8,102.9z"/>
	<polygon points="210.8,106.5 207.7,105.7 208.6,100 211.2,100.6 	"/>
	<polygon class="st5" points="210.8,106.5 209.5,106.2 210,100.3 211.2,100.6 	"/>
	<path d="M241.1,82.9c0,0-6-3.5-8.7,6.5s-2.9,14.6-2.9,14.6l-19-3.8l-0.6,7c0,0,20.4,6.6,22.9,6.1c2.6-0.5,10.9-14.4,10.9-14.4
		S251.2,88,241.1,82.9z"/>
</g>
<path class="st12" d="M202.8,160.1l-7.8,4.5c0,0-10.1,1.2-3.4,3.6s22.3-0.1,22.3-0.1s-0.9-7-2.1-8
	C210.6,159.1,202.8,160.1,202.8,160.1z"/>
<path class="st13" d="M233.1,109.9c0,0-3.9,2-10.8,3.8c-4,1-9.1,1.7-12.6,2.2c-3.6,0.4-6.7,3-7.7,6.5c-0.3,1-0.4,2.1-0.1,3.1
	c1.1,4-0.6,36.6-0.6,36.6l11.8,1.1c0,0-1.6-6,0.8-9c2.5-3-0.4-26-0.4-26s4.3-1.8,17.1-1.9c11.8,3,16.7-9.9,14.9-13.6
	C243.8,108.9,233.1,109.9,233.1,109.9z"/>
<g class="st11">
	<path d="M202.8,160.1l-7.8,4.5c0,0-10.1,1.2-3.4,3.6s22.3-0.1,22.3-0.1s-0.9-7-2.1-8C210.6,159.1,202.8,160.1,202.8,160.1z"/>
	<path d="M233.1,109.9c0,0-3.9,2-10.8,3.8c-4,1-9.1,1.7-12.6,2.2c-3.6,0.4-6.7,3-7.7,6.5c-0.3,1-0.4,2.1-0.1,3.1
		c1.1,4-0.6,36.6-0.6,36.6l11.8,1.1c0,0-1.6-6,0.8-9c2.5-3-0.4-26-0.4-26s4.3-1.8,17.1-1.9c11.8,3,16.7-9.9,14.9-13.6
		C243.8,108.9,233.1,109.9,233.1,109.9z"/>
</g>
<path class="st12" d="M206.4,162.8l-7.8,4.5c0,0-10.1,1.2-3.4,3.6c6.7,2.4,22.3-0.1,22.3-0.1s-0.9-7-2.1-8
	C214.3,161.8,206.4,162.8,206.4,162.8z"/>
<path class="st13" d="M234.3,128.8c-12.8,0.1-17.1,1.9-17.1,1.9s2.9,23,0.4,26c-2.5,3-0.8,9-0.8,9l-11.8-1.1c0,0,0-0.4,0.1-1.1
	c0.3-5.7,1.5-31.9,0.5-35.5c-0.3-1-0.2-2.1,0.1-3.1c1-3.5,4.1-6.1,7.7-6.5c3.5-0.4,8.5-1.1,12.5-2.2l0.2-0.1
	c6.8-1.7,10.5-3.7,10.5-3.7s10.7-1,12.5,2.7c0.3,0.6,0.4,1.2,0.4,1.8C249.7,122,244.6,131.5,234.3,128.8z"/>
<path class="st8" d="M216.5,107.3l-0.4,4.7c0,0-1-0.1-2.6-0.2c-5.3-0.6-16.5-2.1-12.5-5.1c3.4-2.6,9.2-1.4,12.6-0.4
	c1.3,0.4,2.2,0.8,2.7,0.9C216.4,107.2,216.5,107.3,216.5,107.3z"/>
<path class="st8" d="M247.9,76.7c0,0-1.6,1.2-3.5,2.6c-2.1,0.5-4.6,0.9-6.4,1.1c0.6-2,0.3-4.3-0.5-6.3c-0.8-2.1-1.8-4-3.2-5.8
	l10.7-3.3c-0.8,2.1-0.5,4.6,0.3,6.7C246,73.4,246.9,75.1,247.9,76.7z"/>
<path class="st5" d="M216.4,108.6l-0.3,3.4c0,0-1-0.1-2.6-0.2l0.1-5.5c1.3,0.4,2.2,0.8,2.7,0.9L216.4,108.6z"/>
<polygon class="st9" points="216.9,112.2 213.7,111.9 213.8,106 216.4,106.3 "/>
<path class="st5" d="M247.9,76.7c0,0-1.6,1.2-3.5,2.6c-2.1,0.5-4.6,0.9-6.4,1.1c0.6-2,0.3-4.3-0.5-6.3c2.6-0.8,6.3-1.7,7.8-2.5
	C246,73.4,246.9,75.1,247.9,76.7z"/>
<path class="st9" d="M245.8,71.7c0,0,1.8,4.1,2.9,5.9c1.1,1.8-13.1,3.5-13.1,3.5s-1.5-5.1-0.8-5.7C235.5,74.9,244.6,72.9,245.8,71.7
	z"/>
<path class="st5" d="M249.6,117.1c-0.6,1.1-1.3,2-2.2,2.9c-6.3,6-16.6-0.3-21.2-3.7c6.8-1.7,10.5-3.7,10.5-3.7s10.7-1,12.5,2.7
	C249.5,115.8,249.6,116.5,249.6,117.1z"/>
<path class="st10" d="M247.4,119.5c-7.2,6.8-19.5-2.2-22.8-4.9c-0.5-0.4-0.8-0.7-0.8-0.7c1.3-1.2,2.5-3.8,3.4-7
	c0.9-3.1,1.5-6.2,1.8-9.3c0.6-5.3,2.5-10.4,5.4-14.9c0.4-0.6,0.8-1.1,1.1-1.6c2.7-3.4,7.2-5.6,7.2-5.6c9.6-2.8,10.9,11.4,10.6,11.8
	C253.2,87.8,255.8,111.6,247.4,119.5z"/>
<path class="st5" d="M248.4,100.1c0,0-6.1,15-8.6,15.9c-1.4,0.5-8.9-0.4-15.1-1.3c-0.5-0.4-0.8-0.7-0.8-0.7c1.3-1.2,2.5-3.8,3.4-7
	l8,0.4c0,0-0.5-4.6,0.7-14.9c1.2-10.3,7.6-7.7,7.6-7.7C254.2,88.3,248.4,100.1,248.4,100.1z"/>
<polygon class="st5" points="216.9,112.2 215.5,112 215.2,106.2 216.4,106.3 "/>
<path class="st10" d="M243.4,84.1c0,0-6.5-2.6-7.6,7.7c-1.2,10.3-0.7,14.9-0.7,14.9l-19.4-0.9l0.4,7c0,0,21.1,3.5,23.6,2.6
	c2.5-0.9,8.6-15.9,8.6-15.9S254.1,87.6,243.4,84.1z"/>
<path class="st5" d="M243.8,68.8c-0.3-1.5,1.3-1.5,1.9-3L235,69.2c0.7,1,1.4,2,2,3.2c0.6,0.2,1.1,0.3,1.7,0.3
	C241.2,72.9,242,70.4,243.8,68.8z"/>
<ellipse class="st8" cx="238.9" cy="62.9" rx="8.9" ry="8.9"/>
<path class="st5" d="M230.2,55c0.1,0.9,1.1,1.5,2,1.7c0.9,0.2,1.9,0.2,2.7,0.7c1.3,0.8,1.6,2.5,1.4,4c-0.1,0.8-0.2,1.9,0.5,2.4
	c0.2,0.1,0.5,0.2,0.7,0.3c0.7,0.2,1.4,0.2,2.2,0.1c0.4-0.1,0.9-0.2,1.3,0c0.7,0.2,1.1,0.9,1.2,1.6c0.1,0.7,0.1,1.4,0.2,2
	c0.3,1.7,1.6,3.1,3.4,3.5c0.4,0.1,0.8,0.1,1.2-0.1c0.5-0.3,0.7-0.8,0.9-1.3l1.5-3.6c0.7-1.6,1.4-3.3,1.7-5c0.5-2.6,0.3-5.3-0.6-7.8
	c-0.4-1-0.9-1.9-1.7-2.5c-1.7-1.1-4-0.4-6-1c-0.6-0.2-1.2-0.6-1.8-0.8c-1.4-0.5-2.9-0.2-4.2,0.4c-1.3,0.6-2.4,1.6-3.5,2.5
	C232.1,52.6,230,53.4,230.2,55z"/>
<path class="st14" d="M230.4,54.8c0.1,0.9,1.1,1.5,2,1.7c0.9,0.2,1.9,0.2,2.7,0.7c1.3,0.8,1.6,2.5,1.4,4c-0.1,0.8-0.2,1.9,0.5,2.4
	c0.2,0.1,0.5,0.2,0.7,0.3c0.7,0.2,1.4,0.2,2.2,0.1c0.4-0.1,0.9-0.2,1.3,0c0.7,0.2,1.1,0.9,1.2,1.6c0.1,0.7,0.1,1.4,0.2,2
	c0.3,1.7,1.6,3.1,3.4,3.5c0.4,0.1,0.8,0.1,1.2-0.1c0.5-0.3,0.7-0.8,0.9-1.3l1.5-3.6c0.7-1.6,1.4-3.3,1.7-5c0.5-2.6,0.3-5.3-0.6-7.8
	c-0.4-1-0.9-1.9-1.7-2.5c-1.7-1.1-4-0.4-6-1c-0.6-0.2-1.2-0.6-1.8-0.8c-1.4-0.5-2.9-0.2-4.2,0.4c-1.3,0.6-2.4,1.6-3.5,2.5
	C232.4,52.4,230.2,53.2,230.4,54.8z"/>
<path class="st5" d="M237.7,89.7c0,0-3.4,13.1-6.7,14.3c-3.4,1.2-1.9,1.6-1.9,1.6"/>
<rect x="234.2" y="137.8" class="st2" width="3.7" height="24.1"/>
<rect x="234.2" y="137.8" class="st5" width="3.7" height="1.8"/>
<path class="st2" d="M226.9,137.6v0.5c0,0.7,0.5,1.2,1.2,1.2l0,0h16c0.7,0,1.2-0.5,1.2-1.2l0,0v-0.5c0-0.7-0.5-1.2-1.2-1.2l0,0h-16
	C227.4,136.5,226.9,137,226.9,137.6L226.9,137.6z"/>
<path class="st5" d="M227.2,136.9H245c-0.2-0.3-0.6-0.4-0.9-0.4h-16C227.7,136.5,227.4,136.6,227.2,136.9z"/>
<path class="st2" d="M222.4,160.6h27.4c0.8,0,1.4,0.6,1.4,1.4v0.1c0,0.8-0.6,1.4-1.4,1.4h-27.4c-0.8,0-1.4-0.6-1.4-1.4V162
	C221,161.2,221.6,160.6,222.4,160.6z"/>
<circle class="st4" cx="249.4" cy="165.3" r="1.8"/>
<circle class="st4" cx="222.7" cy="165.3" r="1.8"/>
<circle class="st4" cx="236.1" cy="165.3" r="1.8"/>
<path class="st2" d="M234.3,108.1h24.5c1.2,0,2.2,1,2.2,2.2v0.2c0,1.2-1,2.2-2.2,2.2h-24.5c-1.2,0-2.2-1-2.2-2.2v-0.2
	C232.1,109.1,233.1,108.1,234.3,108.1z"/>
<path class="st5" d="M237.9,160.6c0,0-1.4,1.4-3.7,0"/>
<path class="st5" d="M261,110.4v0.4c0,1-0.8,1.8-1.8,1.8H234c-1,0-1.8-0.8-1.8-1.8v-0.4H261z"/>
<rect x="208" y="114.5" class="st2" width="5" height="63.2"/>
<rect x="208" y="114.5" class="st5" width="5" height="4.1"/>
<rect x="58.9" y="139.5" class="st2" width="3.7" height="24.1"/>
<rect x="58.9" y="139.5" class="st5" width="3.7" height="1.8"/>
<path class="st2" d="M69.9,139.4v0.5c0,0.7-0.5,1.2-1.2,1.2l0,0h-16c-0.7,0-1.2-0.5-1.2-1.2l0,0v-0.5c0-0.7,0.5-1.2,1.2-1.2h16
	C69.4,138.2,69.9,138.7,69.9,139.4L69.9,139.4L69.9,139.4z"/>
<path class="st5" d="M69.7,138.6H51.9c0.2-0.3,0.6-0.4,0.9-0.4h16C69.1,138.2,69.4,138.4,69.7,138.6z"/>
<path class="st2" d="M47.1,162.3h27.4c0.8,0,1.4,0.6,1.4,1.4v0.1c0,0.8-0.6,1.4-1.4,1.4H47.1c-0.8,0-1.4-0.6-1.4-1.4v-0.1
	C45.7,162.9,46.3,162.3,47.1,162.3z"/>
<circle class="st4" cx="47.4" cy="167" r="1.8"/>
<circle class="st4" cx="74.1" cy="167" r="1.8"/>
<circle class="st4" cx="60.8" cy="167" r="1.8"/>
<path class="st5" d="M58.9,162.3c0,0,1.4,1.4,3.7,0"/>
<path class="st15" d="M152.6,89.7c0,0-4.1-7.5-2.6-14c0.7-2.7,0.4-5.6-0.7-8.1c-0.5-1.2-1.2-2.4-1.9-3.5"/>
<path class="st10" d="M148.2,60c0.2,1-0.9,4.2-0.9,4.2s-2.4-2.5-2.6-3.4c-0.3-1,0.3-2,1.2-2.3s2,0.3,2.3,1.2
	C148.2,59.8,148.2,59.9,148.2,60L148.2,60z"/>
<path class="st10" d="M152.3,64.7c-0.4,0.9-3.1,3-3.1,3s-0.7-3.4-0.3-4.3c0.3-1,1.3-1.5,2.3-1.2c1,0.3,1.5,1.3,1.2,2.3
	C152.4,64.6,152.4,64.7,152.3,64.7L152.3,64.7z"/>
<path class="st10" d="M154.3,74.1c-0.8,0.6-4.2,1.1-4.2,1.1s1.1-3.2,1.9-3.9c0.8-0.6,1.9-0.5,2.6,0.2
	C155.2,72.3,155.1,73.4,154.3,74.1C154.3,74,154.3,74.1,154.3,74.1z"/>
<path class="st10" d="M154.1,81.4c-0.7,0.8-3.9,1.7-3.9,1.7s0.6-3.4,1.2-4.1c0.6-0.8,1.8-0.9,2.6-0.3s0.9,1.8,0.3,2.6
	C154.2,81.4,154.1,81.4,154.1,81.4L154.1,81.4z"/>
<path class="st10" d="M145.6,68.8c0.9,0.5,4.3,0.5,4.3,0.5s-1.5-3.1-2.4-3.6c-0.8-0.6-2-0.3-2.5,0.5C144.4,67,144.6,68.2,145.6,68.8
	C145.5,68.7,145.6,68.7,145.6,68.8L145.6,68.8z"/>
<path class="st10" d="M145.5,77.4c1,0.3,4.2-0.8,4.2-0.8s-2.4-2.5-3.3-2.7c-1-0.2-1.9,0.4-2.2,1.4C144.1,76.2,144.6,77.1,145.5,77.4
	z"/>
<path class="st10" d="M146.6,85.8c0.9,0.4,4.3-0.1,4.3-0.1s-1.9-2.9-2.8-3.3c-0.9-0.4-2,0-2.4,0.9C145.3,84.3,145.7,85.4,146.6,85.8
	L146.6,85.8z"/>
<path class="st10" d="M148.2,60c0.2,1-0.9,4.2-0.9,4.2s-2.4-2.5-2.6-3.4c-0.3-1,0.3-2,1.2-2.3s2,0.3,2.3,1.2
	C148.2,59.8,148.2,59.9,148.2,60L148.2,60z"/>
<path class="st10" d="M152.3,64.7c-0.4,0.9-3.1,3-3.1,3s-0.7-3.4-0.3-4.3c0.3-1,1.3-1.5,2.3-1.2c1,0.3,1.5,1.3,1.2,2.3
	C152.4,64.6,152.4,64.7,152.3,64.7L152.3,64.7z"/>
<path class="st10" d="M154.3,74.1c-0.8,0.6-4.2,1.1-4.2,1.1s1.1-3.2,1.9-3.9c0.8-0.6,1.9-0.5,2.6,0.2
	C155.2,72.3,155.1,73.4,154.3,74.1C154.3,74,154.3,74.1,154.3,74.1z"/>
<path class="st10" d="M154.1,81.4c-0.7,0.8-3.9,1.7-3.9,1.7s0.6-3.4,1.2-4.1c0.6-0.8,1.8-0.9,2.6-0.3s0.9,1.8,0.3,2.6
	C154.2,81.4,154.1,81.4,154.1,81.4L154.1,81.4z"/>
<path class="st10" d="M145.6,68.8c0.9,0.5,4.3,0.5,4.3,0.5s-1.5-3.1-2.4-3.6c-0.8-0.6-2-0.3-2.5,0.5C144.4,67,144.6,68.2,145.6,68.8
	C145.5,68.7,145.6,68.7,145.6,68.8L145.6,68.8z"/>
<path class="st10" d="M145.5,77.4c1,0.3,4.2-0.8,4.2-0.8s-2.4-2.5-3.3-2.7c-1-0.2-1.9,0.4-2.2,1.4C144.1,76.2,144.6,77.1,145.5,77.4
	z"/>
<path class="st10" d="M146.6,85.8c0.9,0.4,4.3-0.1,4.3-0.1s-1.9-2.9-2.8-3.3c-0.9-0.4-2,0-2.4,0.9C145.3,84.3,145.7,85.4,146.6,85.8
	L146.6,85.8z"/>
<path class="st10" d="M150.9,110.5L150.9,110.5c-2.4,0-4.3-1.9-4.3-4.3c0-0.1,0-0.2,0-0.3l1.2-19.2h6.2l1.2,19.2
	c0.2,2.4-1.7,4.5-4,4.6C151.1,110.4,151,110.5,150.9,110.5z"/>
<rect x="21.2" y="16.1" class="st1" width="3.5" height="14.7"/>
<rect x="25.7" y="16.1" class="st1" width="3.5" height="14.7"/>
<rect x="30.3" y="16.1" class="st1" width="3.5" height="14.7"/>
<rect x="34.8" y="16.1" class="st1" width="3.5" height="14.7"/>
<rect x="43.9" y="16.1" class="st1" width="3.5" height="14.7"/>
<rect x="48.5" y="16.1" class="st1" width="3.5" height="14.7"/>
<rect x="21.2" y="18.8" class="st1" width="3.5" height="0.8"/>
<rect x="21.2" y="27.9" class="st1" width="3.5" height="0.8"/>
<rect x="25.7" y="18.8" class="st1" width="3.5" height="0.8"/>
<rect x="25.7" y="27.9" class="st1" width="3.5" height="0.8"/>
<rect x="30.3" y="18.8" class="st1" width="3.5" height="0.8"/>
<rect x="30.3" y="27.9" class="st1" width="3.5" height="0.8"/>
<rect x="34.8" y="18.8" class="st1" width="3.5" height="0.8"/>
<rect x="34.8" y="27.9" class="st1" width="3.5" height="0.8"/>
<rect x="39.4" y="18.8" class="st1" width="3.5" height="0.8"/>
<rect x="39.4" y="27.9" class="st1" width="3.5" height="0.8"/>
<rect x="43.9" y="18.8" class="st1" width="3.5" height="0.8"/>
<rect x="43.9" y="27.9" class="st1" width="3.5" height="0.8"/>
<rect x="48.5" y="18.8" class="st1" width="3.5" height="0.8"/>
<rect x="48.5" y="27.9" class="st1" width="3.5" height="0.8"/>
<rect x="39.4" y="16.1" class="st1" width="3.5" height="14.7"/>
<rect x="55.1" y="16.1" transform="matrix(0.9075 -0.4201 0.4201 0.9075 -4.5675 26.0338)" class="st1" width="3.5" height="14.7"/>
<rect x="53.3" y="19.2" transform="matrix(0.9075 -0.4201 0.4201 0.9075 -3.1345 24.9474)" class="st1" width="3.5" height="0.8"/>
<rect x="57.1" y="27.5" transform="matrix(0.9075 -0.4201 0.4201 0.9075 -6.2561 27.3192)" class="st1" width="3.5" height="0.8"/>
<linearGradient id="SVGID_2_" gradientUnits="userSpaceOnUse" x1="112.9949" y1="324.1598" x2="112.9949" y2="194.8045" gradientTransform="matrix(1 0 0 1 -39.7 -149.7)">
	<stop  offset="0" style="stop-color:#808080;stop-opacity:0.25"/>
	<stop  offset="0.54" style="stop-color:#808080;stop-opacity:0.12"/>
	<stop  offset="1" style="stop-color:#808080;stop-opacity:0.1"/>
</linearGradient>
<path class="st16" d="M98.4,167.3l-6.4-4.1c0-5.8-0.1-32.6,1.1-36.2c0.3-1,0.3-2.2,0.1-3.2c-0.8-3.6-3.9-6.4-7.6-7
	c-3.5-0.6-8.5-1.5-12.5-2.7c3.6-0.4,6.3-0.7,6.3-0.7l0.1-0.7l2.3-0.1v-0.1H82c5.4-0.3,16.9-1.4,13-4.6c-1.3-1.1-3.1-1.6-4.9-1.8
	c5.6-1.3,14.4-3.8,10.5-6.1c-3.7-2.2-9.4-0.5-12.9,0.9l-0.2,0.1l0-0.3l-1.4,0.3l0,0l-0.4,0.1l0-0.5l-19.1,2.9
	c-0.2-2.2-0.4-4.4-0.8-6.5c0.4-2.9,2.4-7,1.7-9.2c-0.8-2.6-4.1-3.4-5.6-5.8c-0.4-0.6-0.7-1.2-1.1-1.7c-0.8-1.1-1.7-2-2.7-2.9
	c0.1-1.5,0.4-3,1-4.4c0.4-0.9,0.8-1.8,1.3-2.7c4.6-1.1,7.5-5.7,6.7-10.4c1.2,0.5,2.7,0.6,3.4-0.4l-0.4-0.2c0,0,0.1-0.1,0.1-0.1
	c-0.7-0.3-1.5-0.6-2.1-1.1c-0.2-0.2-0.3-0.4-0.4-0.5c-0.4-0.7-0.3-1.6-0.6-2.3c-0.2-0.3-0.4-0.6-0.7-0.9c-0.6-0.6-1.3-1-2.2-1.2
	c-0.9-0.3-1.9-0.4-2.8-0.8c-2.4-2.8-6.3-3.9-9.9-2.8l-0.3,0.1c0.5-2.2-1-4.4-3.2-4.9c-2.2-0.5-4.3,0.9-4.9,3.1
	c0.1-0.9,0.5-1.8,1.1-2.5c-0.1,0.1-0.1,0.1-0.2,0.2c-1.7,1.6-1.7,4.2-0.2,5.8l0,0l0.1,0.1c0.3,0.4,0.6,0.7,1,0.9
	c-1.5-0.5-2.5-1.8-2.7-3.4c0,0.1,0,0.2,0,0.3c0.1,2.3,2.1,4,4.4,3.9h0l0.1,0l-0.1,0.1c-2.4,3.6-2.1,8.3,0.8,11.5
	c0.2,0.4,0.4,0.7,0.7,1.1c0.1,0.1,0.2,0.2,0.3,0.3c0.7,0.7,1.6,1.2,2.7,1.2c0.2,0.2,0.4,0.4,0.5,0.6c-0.2,0.7-0.4,1.4-0.7,2.1
	c-0.5,1.3-1.2,2.7-2,3.9c-5.5,1.5-5.9,10.8-5.7,11.2c0.2,0.4-0.8,15,3.2,32.6c-0.2,5,2.8,13.4,13.2,11.2c13,0.7,17.3,2.7,17.3,2.7
	s-1.2,22.7,0.5,26c1.1,2.1,0.3,5.1-0.5,7.2c-0.3,0.5-0.6,1.1-0.7,1.7c-0.3,0.5-0.4,0.9-0.4,0.9h0.2c-0.7,2.3-1.1,5.1-1.1,5.1
	s15.8,3.2,22.7,1.1c2.7-0.8,2.8-1.6,1.9-2.2c0.6-0.1,1.3-0.2,1.9-0.4C108.7,169.1,98.4,167.3,98.4,167.3z"/>
<path class="st17" d="M64.1,59.8c0,5-4.1,9.1-9.1,9.1s-9.1-4.1-9.1-9.1s4.1-9.1,9.1-9.1S64.1,54.8,64.1,59.8z"/>
<path class="st8" d="M84.6,102.6l0.9,4.6c0,0,1-0.2,2.6-0.5c5.2-1.1,16.2-3.8,11.9-6.3c-3.7-2.2-9.3-0.5-12.6,0.9
	c-1.2,0.5-2.2,1-2.6,1.2C84.7,102.5,84.6,102.6,84.6,102.6z"/>
<path class="st5" d="M84.8,103.9l0.7,3.3c0,0,1-0.2,2.6-0.5l-0.7-5.4c-1.2,0.5-2.2,1-2.6,1.2L84.8,103.9z"/>
<polygon class="st9" points="84.7,107.4 87.9,106.8 87.2,101 84.6,101.5 "/>
<polygon class="st5" points="84.7,107.4 86.1,107.2 85.8,101.3 84.6,101.5 "/>
<path class="st10" d="M55.5,82.3c0,0,6.2-3.2,8.4,6.9c2.3,10.1,2.3,14.7,2.3,14.7l19.2-3l0.3,7c0,0-20.6,5.7-23.2,5.1
	S52.2,98.1,52.2,98.1S45.2,87,55.5,82.3z"/>
<g class="st11">
	<path d="M84.6,102.6l0.9,4.6c0,0,1-0.2,2.6-0.5c5.2-1.1,16.2-3.8,11.9-6.3c-3.7-2.2-9.3-0.5-12.6,0.9c-1.2,0.5-2.2,1-2.6,1.2
		C84.7,102.5,84.6,102.6,84.6,102.6z"/>
	<path class="st5" d="M84.8,103.9l0.7,3.3c0,0,1-0.2,2.6-0.5l-0.7-5.4c-1.2,0.5-2.2,1-2.6,1.2L84.8,103.9z"/>
	<polygon points="84.7,107.4 87.9,106.8 87.2,101 84.6,101.5 	"/>
	<polygon class="st5" points="84.7,107.4 86.1,107.2 85.8,101.3 84.6,101.5 	"/>
	<path d="M56,82.8c0,0,6.2-3.2,8.4,6.9c2.3,10.1,2.3,14.7,2.3,14.7l19.2-3l0.3,7c0,0-20.6,5.7-23.2,5.1
		c-2.5-0.6-10.2-14.9-10.2-14.9S45.7,87.5,56,82.8z"/>
</g>
<path class="st18" d="M90.4,161.4l7.6,4.8c0,0,10,1.7,3.2,3.7c-6.8,2.1-22.3-1.1-22.3-1.1s1.2-7,2.4-7.9
	C82.6,160,90.4,161.4,90.4,161.4z"/>
<path class="st19" d="M62.3,109.8c0,0,3.8,2.2,10.6,4.2c4,1.2,9,2.1,12.4,2.7c3.6,0.6,6.6,3.3,7.4,6.8c0.3,1,0.3,2.1-0.1,3.1
	c-1.3,3.9-1.1,36.6-1.1,36.6l-11.8,0.6c0,0,1.9-5.9-0.4-9.1s1.6-26,1.6-26s-4.2-1.9-17-2.6c-12,2.5-16.3-10.6-14.3-14.2
	C51.7,108.4,62.3,109.8,62.3,109.8z"/>
<g class="st11">
	<path d="M90.4,161.4l7.6,4.8c0,0,10,1.7,3.2,3.7c-6.8,2.1-22.3-1.1-22.3-1.1s1.2-7,2.4-7.9C82.6,160,90.4,161.4,90.4,161.4z"/>
	<path d="M62.3,109.8c0,0,3.8,2.2,10.6,4.2c4,1.2,9,2.1,12.4,2.7c3.6,0.6,6.6,3.3,7.4,6.8c0.3,1,0.3,2.1-0.1,3.1
		c-1.3,3.9-1.1,36.6-1.1,36.6l-11.8,0.6c0,0,1.9-5.9-0.4-9.1s1.6-26,1.6-26s-4.2-1.9-17-2.6c-12,2.5-16.3-10.6-14.3-14.2
		C51.7,108.4,62.3,109.8,62.3,109.8z"/>
</g>
<path class="st18" d="M86.6,164l7.6,4.8c0,0,10,1.7,3.2,3.7c-6.8,2.1-22.3-1.1-22.3-1.1s1.2-7,2.4-7.9C78.8,162.6,86.6,164,86.6,164
	z"/>
<path class="st19" d="M60.2,128.7c12.8,0.7,17,2.6,17,2.6s-1.2,22.2,0.5,25.4c1.8,3.4-1.6,9.6-1.6,9.6l11.8-0.6c0,0,0-0.4,0-1.1
	c0-5.7-0.1-31.9,1.1-35.5c0.3-1,0.3-2.1,0.1-3.1c-0.9-3.6-3.8-6.3-7.4-6.8c-3.5-0.6-8.5-1.5-12.4-2.7l-0.2-0.1
	c-6.7-2-10.4-4.2-10.4-4.2s-7.9-0.6-9.9,3c-0.3,0.5-1.3,1.4-1.4,2.1C47,122.4,49.8,130.9,60.2,128.7z"/>
<path class="st8" d="M79,108l0.2,4.7c0,0,1,0,2.6-0.1c5.3-0.3,16.6-1.4,12.7-4.5c-3.3-2.7-9.1-1.8-12.6-1c-1.3,0.3-2.3,0.7-2.7,0.8
	C79.1,108,79,108,79,108z"/>
<path class="st8" d="M48.9,76.1c0,0,1.5,1.3,3.4,2.8c2.1,0.6,4.6,1.1,6.3,1.4c-0.5-2-0.1-4.3,0.7-6.3c0.9-2,2-4,3.4-5.7l-10.5-3.8
	c0.7,2.2,0.3,4.6-0.6,6.7C51,72.8,50,74.5,48.9,76.1z"/>
<path class="st5" d="M79,109.3l0.2,3.4c0,0,1,0,2.6-0.1l0.2-5.5c-1.3,0.3-2.3,0.7-2.7,0.8L79,109.3z"/>
<polygon class="st9" points="78.3,112.9 81.6,112.7 81.7,106.9 79.1,107 "/>
<path class="st10" d="M47.5,118.9c6.8,7.1,19.6-1.3,23-3.8c0.6-0.4,0.9-0.7,0.9-0.7c-1.3-1.3-3.3-2.5-4.1-5.7
	c-0.7-3.3-1.2-6.6-1.5-10c-0.2-2.7,2.6-7.7,1.7-10.3c-0.8-2.6-4.1-3.4-5.4-5.6c-0.4-0.6-0.7-1.2-1.1-1.6c-2.6-3.5-7-5.9-7-5.9
	c-9.4-3.2-10.2,10.3-9.9,10.7C44.4,86.2,43.3,101.1,47.5,118.9z"/>
<path class="st5" d="M47.5,99.4c0,0,5.5,15.3,7.9,16.2c1.4,0.6,9-0.1,15.2-0.7c0.6-0.4,0.9-0.7,0.9-0.7c-1.3-1.3-2.3-3.9-3.1-7.2
	l-8,0c0,0,0.6-4.6-0.1-14.9S53,84.2,53,84.2C42.1,87.4,47.5,99.4,47.5,99.4z"/>
<polygon class="st5" points="78.3,112.9 79.7,112.8 80.3,106.9 79.1,107 "/>
<path class="st10" d="M53.2,83.6c0,0,6.6-2.3,7.3,8.1c0.7,10.3,0.1,14.9,0.1,14.9l19.4-0.1l-0.8,7c0,0-21.2,2.5-23.7,1.6
	c-2.4-1-7.9-16.2-7.9-16.2S42.3,86.7,53.2,83.6z"/>
<path class="st5" d="M53.4,68.4c0.4-1.5-1.3-1.6-1.8-3l10.5,3.8c-0.8,1-1.5,2-2.1,3.1c-0.6,0.2-1.1,0.2-1.7,0.3
	C55.8,72.6,55.1,70,53.4,68.4z"/>
<circle class="st8" cx="58.5" cy="62.7" r="8.9"/>
<path class="st5" d="M54,90.2c0,0,2.8,13.3,6.1,14.6c3.3,1.3,1.8,1.6,1.8,1.6"/>
<path class="st5" d="M65.5,97.7c0,0-2.3,0.7-5.1-2.8"/>
<circle class="st17" cx="47.9" cy="50.4" r="4"/>
<path class="st17" d="M45.1,52.6c-1.5-1.6-1.5-4,0-5.5c-0.1,0.1-0.1,0.1-0.2,0.2c-1.6,1.5-1.7,4.1-0.2,5.7c1.5,1.6,4.1,1.7,5.7,0.2
	l0,0c0.1-0.1,0.1-0.1,0.2-0.2C48.9,54.3,46.5,54.1,45.1,52.6z"/>
<path class="st17" d="M47.4,54.1c-2.1,0.1-4-1.4-4.2-3.5c0,0.1,0,0.2,0,0.3c0.2,2.2,2.1,3.9,4.3,3.8c2.2-0.1,3.9-2.1,3.8-4.3
	c0-0.1,0-0.2,0-0.3C51.2,52.2,49.5,53.9,47.4,54.1z"/>
<path class="st5" d="M61.8,53.9c0.9,0.5,2,0.6,3,0.9c1,0.3,2,0.8,2.5,1.8c0.3,0.7,0.3,1.5,0.6,2.2c0.5,1,1.6,1.5,2.7,1.9
	c-0.9,1.2-2.8,0.9-4.1,0.1c-1.3-0.8-2.3-2-3.8-2.3s-3,0.4-3.7,1.7c-0.4,0.7-0.5,1.5-0.7,2.3c-0.5,2-1.5,4.1-3.3,5.3
	c-1.8,1.2-4.4,1.2-5.8-0.4c-0.8-0.9-1.1-2.2-1.3-3.4c-0.1-0.6-0.2-1.1-0.2-1.7c0.1-1.4,1-2.7,2-3.8c1.2-1.3,2.4-2.5,3.6-3.7
	c1.1-1,2.3-2.8,3.9-2.9C59,51.6,60.3,53.2,61.8,53.9z"/>
<path class="st17" d="M61.6,53.7c0.9,0.5,2,0.6,3,0.9c1,0.3,2,0.8,2.5,1.8c0.3,0.7,0.3,1.5,0.6,2.2c0.5,1,1.6,1.5,2.7,1.9
	c-0.9,1.2-2.8,0.9-4.1,0.1s-2.3-2-3.8-2.3s-3,0.4-3.7,1.7c-0.4,0.7-0.5,1.5-0.7,2.3c-0.5,2-1.5,4.1-3.3,5.3
	c-1.8,1.2-4.4,1.2-5.8-0.4c-0.8-0.9-1.1-2.2-1.3-3.4c-0.1-0.6-0.2-1.1-0.2-1.7c0.1-1.4,1-2.7,2-3.8c1.2-1.3,2.4-2.5,3.6-3.7
	c1.1-1,2.3-2.8,3.9-2.9C58.7,51.3,60,53,61.6,53.7z"/>
<path class="st2" d="M38,109.9h24.5c1.2,0,2.2,1,2.2,2.2v0.2c0,1.2-1,2.2-2.2,2.2H38c-1.2,0-2.2-1-2.2-2.2V112
	C35.8,110.8,36.8,109.9,38,109.9z"/>
<path class="st5" d="M35.8,112.2v0.4c0,1,0.8,1.8,1.8,1.8h25.2c1,0,1.8-0.8,1.8-1.8v-0.4H35.8z"/>
<rect x="86.6" y="114.5" class="st2" width="5" height="63.2"/>
<rect x="86.6" y="114.5" class="st5" width="5" height="4.1"/>
<rect x="84.2" y="110" class="st2" width="131.1" height="8.2"/>
</svg>
