<?xml version="1.0" encoding="utf-8"?>
<!-- Generator: Adobe Illustrator 23.0.3, SVG Export Plug-In . SVG Version: 6.00 Build 0)  -->
<svg version="1.1" id="layer" xmlns="http://www.w3.org/2000/svg" xmlns:xlink="http://www.w3.org/1999/xlink" x="0px" y="0px"
	 viewBox="0 0 500 499.9" style="enable-background:new 0 0 500 499.9;" xml:space="preserve">
<style type="text/css">
	.st0{fill:#FECB00;}
	.st1{fill:#808080;}
	.st2{fill:#444444;}
	.st3{fill:#FFFFFF;}
</style>
<g id="Symbols">
	<g id="blokker_x2F_Nav_x2F_Toppmeny_x2F_desktop" transform="translate(-130.000000, -10.000000)">
		<g id="Logos_x2F_AF-Gruppen-logo" transform="translate(130.000000, 10.000000)">
			<g id="AF-Gruppen-logo">
				<path id="Fill-4" class="st0" d="M460.2,0H39.8C17.9,0,0,17.9,0,39.8v299.1h500V39.8C500,17.9,482.1,0,460.2,0"/>
				<path id="Fill-1" class="st1" d="M0,338.8v121.3c0,21.9,17.9,39.8,39.8,39.8h420.4c21.9,0,39.8-17.9,39.8-39.8V338.8H0z"/>
				<path id="Fill-7" class="st2" d="M434.5,165c3.4,0,6.1-2.7,6.1-6.1v-28.8c0-3.4-2.7-6.1-6.1-6.1h-108c-3.4,0-6.1,2.7-6.1,6.1
					v28.8c0,3.4,2.7,6.1,6.1,6.1H434.5z"/>
				<path id="Fill-9" class="st2" d="M271.3,119.9c0-24.8,20.1-44.9,44.9-44.9h118.9c3.4,0,6.1,2.7,6.1,6.1v29
					c0,3.4-2.7,6.1-6.1,6.1H326.4c-7.7,0-13.9,6.2-13.9,13.9v127.7c0,3.4-2.7,6.1-6.1,6.1h-28.9c-3.4,0-6.1-2.7-6.1-6.1L271.3,119.9
					z"/>
				<path id="Fill-11" class="st2" d="M162,126.4c3.4-6.1,10-10.3,17.5-10.3h28.8c7.7,0,13.9,6.2,13.9,13.9v127.7
					c0,3.4,2.7,6.1,6.1,6.1h28.9c3.4,0,6.1-2.7,6.1-6.1V119.9c0-24.8-20.1-44.9-44.9-44.9h-39.1c-23.1,0-43.2,12.8-53.7,31.7
					L43.1,255c-0.5,0.8-0.7,1.8-0.7,2.8c0,3.3,2.7,6,6,6h33.5c2.3,0,4.2-1.3,5.3-3.1L162,126.4z"/>
				<path id="Fill-13" class="st2" d="M99.4,255c-0.4,0.8-0.7,1.8-0.7,2.8c0,3.3,2.7,6,6,6h33.5c2.3,0,4.2-1.3,5.3-3.1l51.6-92.7
					c1-1.8,3-3.1,5.2-3.1h8.1c3.4,0,6.1-2.7,6.1-6.1V130c0-3.4-2.7-6.1-6.1-6.1h-28.8c-4.6,0-8.6,2.5-10.7,6.3L99.4,255z"/>
				<path id="Fill-15" class="st3" d="M82.6,424.3L80.4,412c-0.7-3.5-1.4-8.4-2-12.2h-0.2c-0.6,3.7-1.4,8.9-2,12.2l-2.4,12.3H82.6z
					 M72.8,431l-2.9,13.9h-8.3l11.9-53.6h9.9l11.1,53.6h-8.3L83.3,431L72.8,431L72.8,431z"/>
				<polygon id="Fill-17" class="st3" points="106.6,391.3 128.6,391.3 128.6,398.7 115.1,398.7 115.1,414.7 127.7,414.7 
					127.7,421.8 115.1,421.8 115.1,444.9 106.6,444.9 				"/>
				<path id="Fill-19" class="st3" d="M184.6,443.5c-2.3,1-6.7,1.9-10.4,1.9c-5.5,0-10-1.5-13.6-5.2c-4.2-4.4-6.8-12.1-6.7-21.6
					c0.2-20.1,11.1-27.8,21.6-27.8c3.7,0,6.6,0.7,8.3,1.6l-1.7,7.3c-1.4-0.8-3.4-1.3-6.1-1.3c-6.9,0-13.3,5.1-13.3,20.2
					c0,14.6,5.6,19.5,11.2,19.5c1.4,0,2.3-0.2,2.8-0.4v-15H171v-7h13.6V443.5z"/>
				<path id="Fill-21" class="st3" d="M207.2,416.2h2.2c5.1,0,8.3-4,8.3-9.5c0-5.2-2.1-8.8-7.6-8.9c-1.1,0-2.1,0.1-2.9,0.3V416.2z
					 M198.8,392.1c2.9-0.7,6.7-1,10.2-1c5.6,0,10.2,1,13.3,3.9c3,2.9,4.1,6.4,4.1,10.9c0,6.2-3,11.1-8.4,13.5v0.2
					c3.8,1.4,5.7,4.9,6.8,11.3c1.1,6.5,2.4,12.3,3.3,14.1h-8.8c-0.6-1.5-1.8-6.8-2.7-13c-1-7-3-9.2-7.3-9.2h-1.9v22.3H199v-53H198.8
					z"/>
				<path id="Fill-23" class="st3" d="M248,391.3v35.3c0,8.7,2.7,11.5,6,11.5c3.7,0,6.2-2.7,6.2-11.5v-35.3h8.5v33.9
					c0,13.8-5.5,20.4-14.7,20.4c-9.8,0-14.6-6.7-14.6-20v-34.3H248z"/>
				<path id="Fill-25" class="st3" d="M292.3,417c0.6,0.2,1.2,0.2,2.1,0.2c5.6,0,8.7-3.8,8.7-9.9c0-5-2.1-9.2-7.8-9.2
					c-1.2,0-2.2,0.2-2.9,0.4V417H292.3z M283.9,392.1c2.7-0.6,6.2-1,9.9-1c5.7,0,10.3,1,13.4,4.1c2.9,2.7,4.3,6.8,4.3,11.5
					c0,5.4-1.5,9.1-4,11.9c-3.2,3.7-8.4,5.6-12.9,5.6c-0.9,0-1.6,0-2.4-0.1V445h-8.4v-52.9H283.9z"/>
				<path id="Fill-27" class="st3" d="M332.1,417c0.6,0.2,1.2,0.2,2.1,0.2c5.6,0,8.7-3.8,8.7-9.9c0-5-2.1-9.2-7.8-9.2
					c-1.2,0-2.2,0.2-2.9,0.4V417H332.1z M323.6,392.1c2.7-0.6,6.2-1,9.9-1c5.6,0,10.3,1,13.4,4.1c2.9,2.7,4.3,6.8,4.3,11.5
					c0,5.4-1.5,9.1-4,11.9c-3.2,3.7-8.3,5.6-12.9,5.6c-0.9,0-1.6,0-2.4-0.1V445h-8.4v-52.9H323.6z"/>
				<polygon id="Fill-29" class="st3" points="384.6,420.5 371.9,420.5 371.9,437.5 386.4,437.5 386.4,444.9 363.4,444.9 
					363.4,391.3 385.4,391.3 385.4,398.7 371.9,398.7 371.9,413.5 384.6,413.5 				"/>
				<path id="Fill-31" class="st3" d="M399,444.9v-53.6h7.8l9.1,22.9c1.9,4.8,4.6,11.8,6.3,16.9h0.2c-0.5-6.8-1-15.1-1-24.7v-15.2
					h7.5v53.6H421l-9.1-22.8c-2-4.9-4.4-11.4-5.9-17h-0.2c0.4,6.2,0.6,13.8,0.6,24.9v15H399z"/>
			</g>
		</g>
	</g>
</g>
</svg>
