<?xml version="1.0" encoding="utf-8"?>
<!-- Generator: Adobe Illustrator 23.0.1, SVG Export Plug-In . SVG Version: 6.00 Build 0)  -->
<svg version="1.1" id="Layer_1" xmlns="http://www.w3.org/2000/svg" xmlns:xlink="http://www.w3.org/1999/xlink" x="0px" y="0px"
	 viewBox="0 0 43 43" style="enable-background:new 0 0 43 43;" xml:space="preserve">
<style type="text/css">
	.st0{fill:#3C6FE9;}
	.st1{fill:#FFFFFF;}
	.st2{fill:#153559;}
</style>
<circle class="st0" cx="146.3" cy="29.3" r="21.3"/>
<path class="st1" d="M143.2,42.3V30.6h-3.9V26h3.9v-3.6c0-4,2.4-6.1,5.9-6.1c1.7,0,3.1,0.1,3.6,0.2v4.1h-2.4c-1.9,0-2.3,0.9-2.3,2.2
	V26h4.3l-0.6,4.6H148v11.6"/>
<circle class="st2" cx="21.7" cy="21.3" r="21.3"/>
<path class="st1" d="M15.7,34.3h-5.4V16.9h5.4V34.3z M13,14.5c-1.7,0-3.1-1.4-3.1-3.1s1.4-3.1,3.1-3.1s3.1,1.4,3.1,3.1
	S14.7,14.5,13,14.5z M35.9,34.3h-5.4v-8.4c0-2,0-4.6-2.8-4.6s-3.2,2.2-3.2,4.4v8.6h-5.4V16.9h5.2v2.4h0.1c0.7-1.4,2.5-2.8,5.1-2.8
	c5.5,0,6.5,3.6,6.5,8.3L35.9,34.3L35.9,34.3z"/>
</svg>
