<?xml version="1.0" encoding="utf-8"?>
<!-- Generator: Adobe Illustrator 23.0.1, SVG Export Plug-In . SVG Version: 6.00 Build 0)  -->
<svg version="1.1" id="Layer_1" xmlns="http://www.w3.org/2000/svg" xmlns:xlink="http://www.w3.org/1999/xlink" x="0px" y="0px"
	 viewBox="0 0 450 185" style="enable-background:new 0 0 450 185;" xml:space="preserve">
<style type="text/css">
	.st0{clip-path:url(#SVGID_2_);fill:#18243F;}
	.st1{clip-path:url(#SVGID_2_);fill:#E9435E;}
	.st2{fill:#18243F;}
</style>
<g>
	<defs>
		<rect id="SVGID_1_" x="25" y="24.5" width="400" height="135.9"/>
	</defs>
	<clipPath id="SVGID_2_">
		<use xlink:href="#SVGID_1_"  style="overflow:visible;"/>
	</clipPath>
	<path class="st0" d="M240.5,39.1c1.7,0,3.1-1.3,3.1-2.9c0-1.6-1.4-2.9-3.1-2.9c-1.7,0-3.1,1.3-3.1,2.9
		C237.4,37.8,238.8,39.1,240.5,39.1"/>
	<path class="st0" d="M209.5,39.1c1.7,0,3.1-1.3,3.1-2.9c0-1.6-1.4-2.9-3.1-2.9c-1.7,0-3.1,1.3-3.1,2.9
		C206.4,37.8,207.8,39.1,209.5,39.1"/>
	<path class="st0" d="M194,61c1.7,0,3.1-1.3,3.1-2.9c0-1.6-1.4-2.9-3.1-2.9s-3.1,1.3-3.1,2.9C190.9,59.7,192.3,61,194,61"/>
	<path class="st0" d="M225,91.7c2.6,0,4.6-2,4.6-4.4c0-2.4-2.1-4.4-4.6-4.4c-2.6,0-4.6,2-4.6,4.4C220.4,89.8,222.4,91.7,225,91.7"/>
	<path class="st0" d="M225,62.5c2.6,0,4.6-2,4.6-4.4c0-2.4-2.1-4.4-4.6-4.4c-2.6,0-4.6,2-4.6,4.4C220.4,60.5,222.4,62.5,225,62.5"/>
	<path class="st0" d="M194,47.9c2.6,0,4.6-2,4.6-4.4s-2.1-4.4-4.6-4.4s-4.6,2-4.6,4.4S191.5,47.9,194,47.9"/>
	<path class="st0" d="M194,77.1c2.6,0,4.6-2,4.6-4.4c0-2.4-2.1-4.4-4.6-4.4s-4.6,2-4.6,4.4C189.4,75.1,191.5,77.1,194,77.1"/>
	<path class="st1" d="M256,47.9c2.6,0,4.6-2,4.6-4.4s-2.1-4.4-4.6-4.4c-2.6,0-4.6,2-4.6,4.4S253.4,47.9,256,47.9"/>
	<path class="st0" d="M256,77.1c2.6,0,4.6-2,4.6-4.4c0-2.4-2.1-4.4-4.6-4.4c-2.6,0-4.6,2-4.6,4.4C251.3,75.1,253.4,77.1,256,77.1"/>
	<path class="st0" d="M225,33.2c2.6,0,4.6-2,4.6-4.4s-2.1-4.4-4.6-4.4c-2.6,0-4.6,2-4.6,4.4S222.4,33.2,225,33.2"/>
	<path class="st0" d="M209.5,67.7c1.4,0,2.5-1,2.5-2.3c0-1.3-1.1-2.3-2.5-2.3c-1.4,0-2.5,1-2.5,2.3
		C207.1,66.7,208.2,67.7,209.5,67.7"/>
	<path class="st0" d="M225,45.8c1.4,0,2.5-1,2.5-2.3c0-1.3-1.1-2.3-2.5-2.3c-1.4,0-2.5,1-2.5,2.3C222.5,44.8,223.6,45.8,225,45.8"/>
	<path class="st0" d="M240.5,53.1c1.4,0,2.5-1,2.5-2.3c0-1.3-1.1-2.3-2.5-2.3c-1.4,0-2.5,1-2.5,2.3C238,52.1,239.1,53.1,240.5,53.1"
		/>
	<path class="st0" d="M209.5,53.1c1.4,0,2.5-1,2.5-2.3c0-1.3-1.1-2.3-2.5-2.3c-1.4,0-2.5,1-2.5,2.3
		C207.1,52.1,208.2,53.1,209.5,53.1"/>
	<path class="st0" d="M256,61c1.7,0,3.1-1.3,3.1-2.9c0-1.6-1.4-2.9-3.1-2.9c-1.7,0-3.1,1.3-3.1,2.9C252.9,59.7,254.2,61,256,61"/>
	<path class="st0" d="M240.5,82.9c1.7,0,3.1-1.3,3.1-2.9c0-1.6-1.4-2.9-3.1-2.9c-1.7,0-3.1,1.3-3.1,2.9
		C237.4,81.6,238.8,82.9,240.5,82.9"/>
	<path class="st0" d="M209.5,82.9c1.7,0,3.1-1.3,3.1-2.9c0-1.6-1.4-2.9-3.1-2.9c-1.7,0-3.1,1.3-3.1,2.9
		C206.4,81.6,207.8,82.9,209.5,82.9"/>
	<path class="st0" d="M240.5,67.7c1.4,0,2.5-1,2.5-2.3c0-1.3-1.1-2.3-2.5-2.3c-1.4,0-2.5,1-2.5,2.3C238,66.7,239.1,67.7,240.5,67.7"
		/>
	<path class="st0" d="M225,75c1.4,0,2.5-1,2.5-2.3c0-1.3-1.1-2.3-2.5-2.3c-1.4,0-2.5,1-2.5,2.3C222.5,74,223.6,75,225,75"/>
	<path class="st0" d="M126.3,132.2c1.8,0,3.3,0.5,4.5,1.6c1.2,1.1,1.9,2.4,2.2,4.1h-13.3c0.3-1.7,1-3.1,2.2-4.2
		C123.1,132.7,124.6,132.2,126.3,132.2 M138.2,140c0-2.4-0.5-4.5-1.5-6.4c-1-1.8-2.4-3.3-4.2-4.3c-1.8-1-3.8-1.5-6.1-1.5
		c-2.3,0-4.4,0.5-6.2,1.5c-1.8,1-3.3,2.5-4.3,4.3c-1,1.8-1.6,3.9-1.6,6.2c0,2.3,0.5,4.4,1.6,6.2c1.1,1.8,2.6,3.3,4.5,4.3
		c2,1,4.2,1.5,6.8,1.5c2,0,3.8-0.3,5.4-1c1.6-0.6,2.9-1.6,4-2.9l-2.9-3.4c-1.7,1.7-3.8,2.5-6.4,2.5c-2,0-3.7-0.5-5.1-1.5
		c-1.4-1-2.2-2.4-2.5-4.1h18.4C138.2,140.9,138.2,140.3,138.2,140 M112.6,146.4c-0.8,0.6-1.8,1-3.1,1c-1.1,0-1.9-0.3-2.4-0.9
		c-0.6-0.6-0.8-1.5-0.8-2.6v-11.2h6.3v-4.4h-6.3v-5.4h-5.5v5.4h-3.9v4.4h3.9V144c0,2.6,0.7,4.5,2.1,5.9c1.4,1.3,3.4,2,6,2
		c1,0,2-0.1,2.9-0.4c0.9-0.3,1.7-0.7,2.4-1.2L112.6,146.4z M91,124.2c1,0,1.9-0.3,2.5-1c0.7-0.7,1-1.5,1-2.4c0-0.9-0.3-1.7-1-2.3
		c-0.7-0.6-1.5-0.9-2.5-0.9c-1,0-1.8,0.3-2.5,0.9c-0.7,0.6-1,1.4-1,2.4s0.3,1.7,1,2.3C89.1,123.9,90,124.2,91,124.2 M88.2,151.6h5.5
		v-23.5h-5.5V151.6z M74.8,127.8c-1.7,0-3.3,0.3-4.7,0.8c-1.4,0.6-2.5,1.4-3.4,2.5v-3h-5.2v23.5H67v-11.9c0-2.3,0.6-4,1.8-5.3
		c1.2-1.2,2.8-1.8,4.8-1.8c1.8,0,3.2,0.5,4.1,1.6c1,1,1.5,2.6,1.5,4.6v12.7h5.5v-13.4c0-3.4-0.9-6-2.7-7.7
		C80.1,128.7,77.7,127.8,74.8,127.8 M45.5,145.8c-2.1,0-3.8-0.6-5.2-1.9c-1.3-1.2-2-2.9-2-4.9c0-2,0.7-3.6,2-4.8
		c1.3-1.2,3.1-1.8,5.2-1.8c2.1,0,3.8,0.6,5.1,1.8c1.3,1.2,2,2.8,2,4.8c0,2-0.7,3.6-2,4.9C49.2,145.2,47.5,145.8,45.5,145.8
		 M52.8,128.1v3.1c-0.9-1.1-2.1-2-3.5-2.5c-1.4-0.6-2.9-0.8-4.6-0.8c-2.2,0-4.2,0.5-6,1.4c-1.8,0.9-3.2,2.3-4.3,4
		c-1,1.7-1.6,3.7-1.6,5.9c0,2.2,0.5,4.2,1.6,5.9c1,1.7,2.5,3.1,4.3,4c1.8,1,3.8,1.4,6,1.4c1.6,0,3.1-0.3,4.4-0.8
		c1.3-0.5,2.5-1.3,3.4-2.3v1.2c0,2.4-0.6,4.2-1.8,5.4c-1.2,1.2-3.1,1.8-5.7,1.8c-1.6,0-3.2-0.3-4.8-0.8c-1.6-0.5-2.9-1.2-3.9-2
		l-2.5,4.1c1.3,1.1,3,1.9,5,2.5s4.2,0.9,6.4,0.9c8.4,0,12.7-4.1,12.7-12.4v-19.9H52.8z M25,151.6h5.7v-30.8H25V151.6z"/>
	<path class="st0" d="M423.5,146.4c-0.8,0.6-1.8,1-3.1,1c-1.1,0-1.9-0.3-2.4-0.9c-0.6-0.6-0.8-1.5-0.8-2.6v-11.2h6.3v-4.4h-6.3v-5.4
		h-5.5v5.4h-3.9v4.4h3.9V144c0,2.6,0.7,4.5,2.1,5.9c1.4,1.3,3.4,2,6,2c1,0,2-0.1,2.9-0.4c0.9-0.3,1.7-0.7,2.4-1.2L423.5,146.4z
		 M396.7,127.8c-1.7,0-3.3,0.3-4.7,0.8c-1.4,0.6-2.5,1.4-3.4,2.5v-3h-5.2v23.5h5.5v-11.9c0-2.3,0.6-4,1.8-5.3
		c1.2-1.2,2.8-1.8,4.8-1.8c1.8,0,3.2,0.5,4.1,1.6c1,1,1.4,2.6,1.4,4.6v12.7h5.5v-13.4c0-3.4-0.9-6-2.7-7.7
		C402,128.7,399.6,127.8,396.7,127.8 M367.9,132.2c1.8,0,3.3,0.5,4.5,1.6c1.2,1.1,1.9,2.4,2.2,4.1h-13.3c0.3-1.7,1-3.1,2.2-4.2
		C364.7,132.7,366.2,132.2,367.9,132.2 M379.8,140c0-2.4-0.5-4.5-1.5-6.4c-1-1.8-2.4-3.3-4.2-4.3c-1.8-1-3.8-1.5-6.1-1.5
		c-2.3,0-4.4,0.5-6.2,1.5c-1.8,1-3.3,2.5-4.3,4.3c-1,1.8-1.6,3.9-1.6,6.2c0,2.3,0.5,4.4,1.6,6.2c1.1,1.8,2.6,3.3,4.5,4.3
		c2,1,4.2,1.5,6.8,1.5c2,0,3.8-0.3,5.5-1c1.6-0.6,2.9-1.6,4-2.9l-2.9-3.4c-1.7,1.7-3.8,2.5-6.4,2.5c-2,0-3.7-0.5-5.1-1.5
		c-1.4-1-2.2-2.4-2.5-4.1h18.4C379.8,140.9,379.8,140.3,379.8,140 M342.8,127.8c-1.8,0-3.5,0.3-5.1,1c-1.5,0.7-2.8,1.6-3.7,2.9
		c-0.8-1.3-1.9-2.3-3.2-2.9c-1.4-0.7-2.9-1-4.7-1c-1.6,0-3.1,0.3-4.4,0.8c-1.3,0.6-2.4,1.4-3.3,2.4v-3h-5.2v23.5h5.5v-11.9
		c0-2.3,0.5-4,1.6-5.2c1.1-1.2,2.6-1.8,4.5-1.8c1.7,0,3,0.5,3.9,1.6c0.9,1,1.4,2.6,1.4,4.6v12.7h5.5v-11.9c0-2.3,0.6-4,1.7-5.2
		c1.1-1.2,2.6-1.8,4.4-1.8c1.7,0,3,0.5,3.9,1.6c0.9,1,1.4,2.6,1.4,4.6v12.7h5.5v-13.4c0-3.4-0.9-6-2.6-7.7S345.7,127.8,342.8,127.8
		 M297.7,132.2c1.8,0,3.3,0.5,4.5,1.6s1.9,2.4,2.2,4.1h-13.3c0.3-1.7,1-3.1,2.2-4.2C294.5,132.7,296,132.2,297.7,132.2 M309.6,140
		c0-2.4-0.5-4.5-1.5-6.4c-1-1.8-2.4-3.3-4.2-4.3c-1.8-1-3.8-1.5-6.1-1.5c-2.3,0-4.4,0.5-6.2,1.5c-1.8,1-3.3,2.5-4.3,4.3
		c-1,1.8-1.6,3.9-1.6,6.2c0,2.3,0.5,4.4,1.6,6.2c1.1,1.8,2.6,3.3,4.5,4.3c2,1,4.2,1.5,6.8,1.5c2,0,3.8-0.3,5.4-1
		c1.6-0.6,2.9-1.6,4-2.9l-2.9-3.4c-1.7,1.7-3.8,2.5-6.4,2.5c-2,0-3.7-0.5-5.1-1.5c-1.4-1-2.2-2.4-2.5-4.1h18.4
		C309.6,140.9,309.6,140.3,309.6,140 M275.4,131.5v-3.4h-5.2v23.5h5.5v-11.4c0-2.3,0.6-4.1,1.8-5.4c1.2-1.2,2.9-1.9,5-1.9
		c0.4,0,0.8,0,1.3,0.1v-5.2C279.8,127.8,277,129.1,275.4,131.5 M261.2,128.1V140c0,2.3-0.6,4-1.7,5.3s-2.7,1.8-4.7,1.8
		c-1.8,0-3.1-0.5-4.1-1.6c-1-1-1.4-2.6-1.4-4.7v-12.7h-5.5v13.4c0,3.4,0.9,6,2.7,7.8c1.8,1.7,4.3,2.6,7.4,2.6c1.5,0,2.9-0.3,4.3-0.9
		c1.3-0.6,2.4-1.4,3.3-2.4v3h5.2v-23.5H261.2z M230.3,151.9c2.3,0,4.3-0.5,6-1.4c1.7-1,3.1-2.3,4-4.1l-4.2-2.5
		c-0.7,1.1-1.5,1.9-2.5,2.4c-1,0.5-2.1,0.8-3.3,0.8c-2.1,0-3.8-0.7-5.1-2c-1.3-1.3-2-3.1-2-5.3c0-2.2,0.7-4,2-5.3c1.3-1.3,3-2,5.1-2
		c1.2,0,2.3,0.3,3.3,0.8c1,0.5,1.9,1.4,2.5,2.4l4.2-2.5c-0.9-1.8-2.2-3.1-3.9-4c-1.7-0.9-3.8-1.4-6.1-1.4c-2.5,0-4.7,0.5-6.6,1.5
		c-1.9,1-3.4,2.4-4.5,4.3c-1.1,1.8-1.6,3.9-1.6,6.2s0.5,4.4,1.6,6.2c1.1,1.8,2.6,3.3,4.5,4.3C225.7,151.4,227.9,151.9,230.3,151.9
		 M203.6,147.2c-2,0-3.7-0.7-5-2c-1.3-1.3-2-3.1-2-5.3s0.7-4,2-5.3c1.3-1.3,3-2,5-2c2,0,3.7,0.7,5,2c1.3,1.3,2,3.1,2,5.3
		s-0.7,4-2,5.3C207.3,146.5,205.6,147.2,203.6,147.2 M203.6,151.9c2.4,0,4.6-0.5,6.5-1.5c1.9-1,3.4-2.5,4.5-4.3
		c1.1-1.8,1.6-3.9,1.6-6.2s-0.5-4.4-1.6-6.2c-1.1-1.8-2.6-3.2-4.5-4.3c-1.9-1-4.1-1.5-6.5-1.5c-2.4,0-4.5,0.5-6.4,1.5
		c-1.9,1-3.4,2.4-4.5,4.3c-1.1,1.8-1.6,3.9-1.6,6.2s0.5,4.4,1.6,6.2c1.1,1.8,2.6,3.3,4.5,4.3C199.1,151.4,201.2,151.9,203.6,151.9
		 M180.9,131.5v-3.4h-5.2v23.5h5.5v-11.4c0-2.3,0.6-4.1,1.8-5.4c1.2-1.2,2.9-1.9,5-1.9c0.4,0,0.8,0,1.3,0.1v-5.2
		C185.3,127.8,182.5,129.1,180.9,131.5 M159.1,137.8h-6.7v-12.2h6.7c2.5,0,4.4,0.5,5.7,1.6c1.3,1.1,1.9,2.6,1.9,4.5
		c0,2-0.6,3.5-1.9,4.5C163.5,137.3,161.6,137.8,159.1,137.8 M159.4,120.8h-12.7v30.8h5.7v-8.9h6.9c2.7,0,5-0.4,7-1.3
		c2-0.9,3.5-2.1,4.5-3.8c1.1-1.7,1.6-3.6,1.6-5.8c0-2.3-0.5-4.2-1.6-5.8c-1.1-1.6-2.6-2.9-4.5-3.8
		C164.3,121.2,162,120.8,159.4,120.8"/>
	<path class="st1" d="M91,126c2.6,0,4.6-2,4.6-4.4c0-2.4-2.1-4.4-4.6-4.4s-4.6,2-4.6,4.4C86.3,124,88.4,126,91,126"/>
</g>
<path class="st2" d="M537.6,40.9c2.4,0,4.6-0.5,6.5-1.5c1.9-1,3.4-2.5,4.5-4.3c1.1-1.8,1.6-3.9,1.6-6.2s-0.5-4.4-1.6-6.2
	c-1.1-1.8-2.6-3.2-4.5-4.3c-1.9-1-4.1-1.5-6.5-1.5c-2.4,0-4.5,0.5-6.4,1.5c-1.9,1-3.4,2.4-4.5,4.3c-1.1,1.8-1.6,3.9-1.6,6.2
	s0.5,4.4,1.6,6.2c1.1,1.8,2.6,3.3,4.5,4.3C533.1,40.4,535.2,40.9,537.6,40.9"/>
</svg>
