<?xml version="1.0" encoding="utf-8"?>
<!-- Generator: Adobe Illustrator 23.0.1, SVG Export Plug-In . SVG Version: 6.00 Build 0)  -->
<svg version="1.1" xmlns="http://www.w3.org/2000/svg" xmlns:xlink="http://www.w3.org/1999/xlink" x="0px" y="0px"
	 viewBox="0 0 357 185" style="enable-background:new 0 0 357 185;" xml:space="preserve">
<style type="text/css">
	.st0{fill:#18243F;}
	.st1{clip-path:url(#SVGID_2_);fill:#18243F;}
	.st2{clip-path:url(#SVGID_2_);fill:#3C6FE9;}
</style>
<g id="Layer_2">
</g>
<g id="Layer_1">
	<path class="st0" d="M537.6,40.9c2.4,0,4.6-0.5,6.5-1.5c1.9-1,3.4-2.5,4.5-4.3c1.1-1.8,1.6-3.9,1.6-6.2s-0.5-4.4-1.6-6.2
		c-1.1-1.8-2.6-3.2-4.5-4.3c-1.9-1-4.1-1.5-6.5-1.5c-2.4,0-4.5,0.5-6.4,1.5c-1.9,1-3.4,2.4-4.5,4.3c-1.1,1.8-1.6,3.9-1.6,6.2
		s0.5,4.4,1.6,6.2c1.1,1.8,2.6,3.3,4.5,4.3C533.1,40.4,535.2,40.9,537.6,40.9"/>
	<g>
		<defs>
			<rect id="SVGID_1_" x="25.5" y="23.5" width="305.8" height="137"/>
		</defs>
		<clipPath id="SVGID_2_">
			<use xlink:href="#SVGID_1_"  style="overflow:visible;"/>
		</clipPath>
		<path class="st1" d="M128.1,132c1.8,0,3.3,0.5,4.5,1.6c1.2,1.1,1.9,2.5,2.2,4.2h-13.5c0.3-1.7,1-3.2,2.2-4.2
			C124.8,132.5,126.3,132,128.1,132 M140.1,139.8c0-2.4-0.5-4.6-1.5-6.4c-1-1.9-2.4-3.3-4.3-4.3c-1.8-1-3.9-1.5-6.2-1.5
			c-2.3,0-4.4,0.5-6.3,1.6c-1.9,1-3.3,2.5-4.4,4.3c-1.1,1.9-1.6,3.9-1.6,6.3c0,2.3,0.5,4.4,1.6,6.3c1.1,1.9,2.6,3.3,4.6,4.3
			c2,1,4.3,1.6,6.9,1.6c2,0,3.9-0.3,5.5-1c1.6-0.7,3-1.6,4-2.9l-3-3.4c-1.7,1.7-3.8,2.6-6.5,2.6c-2,0-3.8-0.5-5.1-1.5
			c-1.4-1-2.2-2.4-2.6-4.2H140C140.1,140.7,140.1,140.2,140.1,139.8 M114.1,146.3c-0.8,0.7-1.9,1-3.1,1c-1.1,0-1.9-0.3-2.4-0.9
			c-0.6-0.6-0.8-1.5-0.8-2.6v-11.3h6.4V128h-6.4v-5.4h-5.6v5.4h-3.9v4.4h3.9v11.4c0,2.6,0.7,4.6,2.1,6c1.4,1.4,3.4,2,6.1,2
			c1,0,2-0.1,3-0.4c0.9-0.3,1.7-0.7,2.4-1.2L114.1,146.3z M92.3,123.9c1,0,1.9-0.3,2.6-1c0.7-0.7,1-1.5,1-2.5c0-0.9-0.3-1.7-1-2.3
			c-0.7-0.6-1.5-0.9-2.5-0.9c-1,0-1.9,0.3-2.5,1c-0.7,0.6-1,1.4-1,2.4s0.3,1.7,1,2.4S91.3,123.9,92.3,123.9 M89.5,151.6H95v-23.8
			h-5.6V151.6z M75.9,127.5c-1.8,0-3.3,0.3-4.7,0.8c-1.4,0.6-2.6,1.4-3.5,2.5v-3.1h-5.3v23.8H68v-12c0-2.3,0.6-4.1,1.8-5.3
			c1.2-1.2,2.8-1.8,4.8-1.8c1.8,0,3.2,0.5,4.2,1.6c1,1.1,1.5,2.6,1.5,4.7v12.9h5.6v-13.6c0-3.4-0.9-6-2.7-7.8
			C81.3,128.4,78.9,127.5,75.9,127.5 M46.2,145.8c-2.1,0-3.9-0.6-5.2-1.9c-1.3-1.3-2-2.9-2-4.9c0-2,0.7-3.6,2-4.8
			c1.3-1.2,3.1-1.9,5.2-1.9c2.1,0,3.8,0.6,5.2,1.9c1.3,1.2,2,2.9,2,4.8c0,2-0.7,3.7-2,4.9C50,145.1,48.3,145.8,46.2,145.8
			 M53.6,127.8v3.2c-0.9-1.2-2.1-2-3.5-2.6c-1.4-0.6-3-0.8-4.7-0.8c-2.3,0-4.3,0.5-6.1,1.4c-1.8,1-3.3,2.3-4.3,4
			c-1.1,1.7-1.6,3.7-1.6,6s0.5,4.3,1.6,6c1.1,1.8,2.5,3.1,4.3,4.1c1.8,1,3.9,1.4,6.1,1.4c1.6,0,3.1-0.3,4.5-0.8
			c1.4-0.5,2.5-1.3,3.5-2.4v1.2c0,2.4-0.6,4.2-1.8,5.4c-1.2,1.2-3.1,1.8-5.7,1.8c-1.6,0-3.2-0.3-4.8-0.8c-1.6-0.5-2.9-1.2-3.9-2.1
			l-2.5,4.2c1.3,1.1,3,1.9,5.1,2.5c2,0.6,4.2,0.9,6.5,0.9c8.5,0,12.8-4.2,12.8-12.5v-20.2H53.6z M25.5,151.6h5.8v-31.1h-5.8V151.6z"
			/>
		<path class="st2" d="M321.7,151.8c3,0,5.4-0.6,7.1-1.8c1.7-1.2,2.6-2.8,2.6-4.9c0-1.5-0.4-2.7-1.2-3.6c-0.8-0.9-1.8-1.5-2.9-1.8
			c-1.1-0.4-2.6-0.7-4.5-1.1c-1.5-0.3-2.7-0.5-3.6-0.8c-0.9-0.3-1.6-0.6-2.2-1.2c-0.6-0.5-0.9-1.2-0.9-2.1c0-1.2,0.5-2.1,1.5-2.8
			c1-0.7,2.5-1.1,4.6-1.1c2.7,0,5,0.7,6.9,2l1.4-2.5c-1-0.7-2.2-1.2-3.7-1.6c-1.5-0.4-3-0.6-4.5-0.6c-2.9,0-5.2,0.6-6.8,1.9
			c-1.6,1.2-2.4,2.8-2.4,4.8c0,1.6,0.4,2.8,1.2,3.7c0.8,0.9,1.8,1.5,3,1.9s2.7,0.7,4.6,1.1c1.4,0.2,2.6,0.5,3.4,0.7
			c0.9,0.3,1.6,0.6,2.1,1.1c0.6,0.5,0.8,1.2,0.8,2c0,1.2-0.5,2.2-1.5,2.8c-1,0.7-2.6,1-4.7,1c-1.6,0-3.1-0.2-4.6-0.7
			c-1.5-0.5-2.7-1.1-3.7-1.9l-1.4,2.5c1,0.8,2.3,1.5,4.1,2.1C318,151.5,319.8,151.8,321.7,151.8 M301.1,151.8c2,0,3.8-0.4,5.4-1.2
			c1.6-0.8,2.9-1.9,3.8-3.4l-2.4-1.6c-0.8,1.2-1.8,2-2.9,2.6c-1.2,0.6-2.5,0.8-3.9,0.8c-1.7,0-3.2-0.4-4.6-1.1
			c-1.3-0.8-2.4-1.8-3.2-3.2c-0.8-1.4-1.1-3-1.1-4.8c0-1.8,0.4-3.4,1.1-4.8c0.8-1.4,1.8-2.5,3.2-3.2c1.3-0.8,2.9-1.1,4.6-1.1
			c1.4,0,2.7,0.3,3.9,0.9c1.2,0.6,2.2,1.4,2.9,2.6l2.4-1.6c-0.9-1.5-2.2-2.7-3.8-3.4c-1.6-0.8-3.4-1.2-5.4-1.2
			c-2.3,0-4.4,0.5-6.2,1.5c-1.8,1-3.3,2.4-4.3,4.2c-1,1.8-1.6,3.9-1.6,6.1c0,2.3,0.5,4.3,1.6,6.2c1,1.8,2.5,3.2,4.3,4.2
			C296.7,151.3,298.8,151.8,301.1,151.8 M283.1,123c0.7,0,1.2-0.2,1.6-0.7c0.4-0.4,0.7-1,0.7-1.6c0-0.6-0.2-1.1-0.7-1.5
			c-0.4-0.4-1-0.6-1.6-0.6c-0.7,0-1.2,0.2-1.6,0.7c-0.4,0.4-0.7,1-0.7,1.6c0,0.6,0.2,1.2,0.7,1.6C281.9,122.8,282.5,123,283.1,123
			 M281.5,151.6h3.2v-23.4h-3.2V151.6z M277,147.9c-0.4,0.4-1,0.7-1.6,0.9c-0.6,0.2-1.2,0.3-1.9,0.3c-1.3,0-2.3-0.4-3-1.1
			c-0.7-0.7-1-1.8-1-3.2v-14h7.1v-2.7h-7.1V123h-3.2v5.1h-4.2v2.7h4.2V145c0,2.2,0.6,3.8,1.8,5c1.2,1.2,2.9,1.8,5.1,1.8
			c0.9,0,1.9-0.1,2.7-0.4c0.9-0.3,1.6-0.7,2.2-1.2L277,147.9z M257.9,128.2l-8.8,19.9l-8.8-19.9H237l10.5,23.4l-1,2.3
			c-0.7,1.4-1.4,2.4-2.1,3c-0.8,0.6-1.7,0.9-2.7,0.9c-1.7,0-3.1-0.6-4.3-1.8l-1.5,2.4c0.7,0.7,1.6,1.2,2.5,1.6c1,0.4,2,0.5,3.2,0.5
			c1.7,0,3.2-0.5,4.5-1.4c1.2-0.9,2.3-2.5,3.3-4.7l11.7-26.2H257.9z M231,151.6h3.2v-33H231V151.6z M214.2,149.3
			c-1.9,0-3.3-0.4-4.4-1.2c-1-0.8-1.6-1.9-1.6-3.2c0-2.8,2-4.2,6-4.2h7.3v3.8c-0.6,1.5-1.6,2.7-2.8,3.5
			C217.5,148.9,216,149.3,214.2,149.3 M215.3,128c-1.8,0-3.6,0.3-5.2,0.8c-1.7,0.5-3.1,1.3-4.3,2.3l1.4,2.4c1-0.9,2.1-1.5,3.5-2
			c1.4-0.5,2.8-0.7,4.3-0.7c2.2,0,3.8,0.5,4.9,1.6c1.1,1.1,1.7,2.6,1.7,4.6v1.4h-7.4c-3.1,0-5.4,0.6-6.9,1.8
			c-1.4,1.2-2.2,2.8-2.2,4.8c0,2,0.8,3.7,2.3,4.9c1.5,1.2,3.6,1.9,6.2,1.9c1.9,0,3.5-0.3,4.9-1c1.4-0.7,2.4-1.6,3.1-2.8v3.6h3v-14.5
			c0-3-0.8-5.3-2.4-6.8C220.7,128.7,218.4,128,215.3,128 M191.2,128c-2,0-3.8,0.4-5.3,1.2c-1.5,0.8-2.7,1.9-3.6,3.3v-4.3h-3v23.4
			h3.2v-12.3c0-2.6,0.7-4.7,2.2-6.2c1.5-1.5,3.5-2.2,6-2.2c2.3,0,4,0.6,5.2,1.9c1.2,1.3,1.8,3.1,1.8,5.6v13.3h3.2V138
			c0-3.3-0.9-5.7-2.6-7.5C196.5,128.8,194.2,128,191.2,128 M153,140.6l7.5-16.7l7.5,16.7H153z M172.9,151.6h3.5l-14.2-31.1h-3.2
			l-14.2,31.1h3.4l3.7-8.3h17.3L172.9,151.6z"/>
		<path class="st1" d="M194.1,38.3c1.7,0,3.1-1.3,3.1-3c0-1.6-1.4-3-3.1-3c-1.7,0-3.1,1.3-3.1,3C191,37,192.4,38.3,194.1,38.3"/>
		<path class="st1" d="M162.8,38.3c1.7,0,3.1-1.3,3.1-3c0-1.6-1.4-3-3.1-3c-1.7,0-3.1,1.3-3.1,3C159.6,37,161,38.3,162.8,38.3"/>
		<path class="st1" d="M147.1,60.5c1.7,0,3.1-1.3,3.1-3c0-1.6-1.4-3-3.1-3c-1.7,0-3.1,1.3-3.1,3C143.9,59.2,145.3,60.5,147.1,60.5"
			/>
		<path class="st1" d="M178.4,91.6c2.6,0,4.7-2,4.7-4.4c0-2.5-2.1-4.4-4.7-4.4c-2.6,0-4.7,2-4.7,4.4
			C173.7,89.6,175.8,91.6,178.4,91.6"/>
		<path class="st2" d="M178.4,62c2.6,0,4.7-2,4.7-4.4c0-2.5-2.1-4.4-4.7-4.4c-2.6,0-4.7,2-4.7,4.4C173.7,60,175.8,62,178.4,62"/>
		<path class="st1" d="M147.1,47.2c2.6,0,4.7-2,4.7-4.4c0-2.5-2.1-4.4-4.7-4.4c-2.6,0-4.7,2-4.7,4.4
			C142.4,45.2,144.5,47.2,147.1,47.2"/>
		<path class="st2" d="M147.1,76.8c2.6,0,4.7-2,4.7-4.4c0-2.5-2.1-4.4-4.7-4.4c-2.6,0-4.7,2-4.7,4.4
			C142.4,74.8,144.5,76.8,147.1,76.8"/>
		<path class="st1" d="M209.8,47.2c2.6,0,4.7-2,4.7-4.4c0-2.5-2.1-4.4-4.7-4.4c-2.6,0-4.7,2-4.7,4.4
			C205.1,45.2,207.2,47.2,209.8,47.2"/>
		<path class="st2" d="M209.8,76.8c2.6,0,4.7-2,4.7-4.4c0-2.5-2.1-4.4-4.7-4.4c-2.6,0-4.7,2-4.7,4.4
			C205.1,74.8,207.2,76.8,209.8,76.8"/>
		<path class="st2" d="M178.4,32.4c2.6,0,4.7-2,4.7-4.4c0-2.5-2.1-4.4-4.7-4.4c-2.6,0-4.7,2-4.7,4.4
			C173.7,30.4,175.8,32.4,178.4,32.4"/>
		<path class="st1" d="M162.8,67.3c1.4,0,2.5-1.1,2.5-2.4c0-1.3-1.1-2.4-2.5-2.4c-1.4,0-2.5,1.1-2.5,2.4
			C160.2,66.3,161.4,67.3,162.8,67.3"/>
		<path class="st1" d="M178.4,45.1c1.4,0,2.5-1.1,2.5-2.4c0-1.3-1.1-2.4-2.5-2.4c-1.4,0-2.5,1.1-2.5,2.4
			C175.9,44.1,177,45.1,178.4,45.1"/>
		<path class="st1" d="M194.1,52.5c1.4,0,2.5-1.1,2.5-2.4c0-1.3-1.1-2.4-2.5-2.4c-1.4,0-2.5,1.1-2.5,2.4
			C191.6,51.5,192.7,52.5,194.1,52.5"/>
		<path class="st1" d="M162.8,52.5c1.4,0,2.5-1.1,2.5-2.4c0-1.3-1.1-2.4-2.5-2.4c-1.4,0-2.5,1.1-2.5,2.4
			C160.2,51.5,161.4,52.5,162.8,52.5"/>
		<path class="st1" d="M209.8,60.5c1.7,0,3.1-1.3,3.1-3c0-1.6-1.4-3-3.1-3c-1.7,0-3.1,1.3-3.1,3C206.6,59.2,208,60.5,209.8,60.5"/>
		<path class="st1" d="M194.1,82.7c1.7,0,3.1-1.3,3.1-3c0-1.6-1.4-3-3.1-3c-1.7,0-3.1,1.3-3.1,3C191,81.4,192.4,82.7,194.1,82.7"/>
		<path class="st1" d="M162.8,82.7c1.7,0,3.1-1.3,3.1-3c0-1.6-1.4-3-3.1-3c-1.7,0-3.1,1.3-3.1,3C159.6,81.4,161,82.7,162.8,82.7"/>
		<path class="st1" d="M194.1,67.3c1.4,0,2.5-1.1,2.5-2.4c0-1.3-1.1-2.4-2.5-2.4c-1.4,0-2.5,1.1-2.5,2.4
			C191.6,66.3,192.7,67.3,194.1,67.3"/>
		<path class="st1" d="M178.4,74.7c1.4,0,2.5-1.1,2.5-2.4s-1.1-2.4-2.5-2.4c-1.4,0-2.5,1.1-2.5,2.4S177,74.7,178.4,74.7"/>
	</g>
</g>
</svg>
