<svg version="1.1" id="Layer_1" xmlns="http://www.w3.org/2000/svg" xmlns:xlink="http://www.w3.org/1999/xlink" x="0" y="0" viewBox="0 0 450 185" xml:space="preserve"><style>.st1,.st2{clip-path:url(#SVGID_2_);fill:#fff}.st2{fill:#e9435e}</style><path d="M537.6 40.9c2.4 0 4.6-.5 6.5-1.5 1.9-1 3.4-2.5 4.5-4.3 1.1-1.8 1.6-3.9 1.6-6.2s-.5-4.4-1.6-6.2c-1.1-1.8-2.6-3.2-4.5-4.3-1.9-1-4.1-1.5-6.5-1.5-2.4 0-4.5.5-6.4 1.5-1.9 1-3.4 2.4-4.5 4.3-1.1 1.8-1.6 3.9-1.6 6.2s.5 4.4 1.6 6.2c1.1 1.8 2.6 3.3 4.5 4.3s4 1.5 6.4 1.5" fill="#18243f"/><defs><path id="SVGID_1_" d="M25 25.1h400V161H25z"/></defs><clipPath id="SVGID_2_"><use xlink:href="#SVGID_1_" overflow="visible"/></clipPath><path class="st1" d="M126.3 132.8c1.8 0 3.3.5 4.5 1.6s1.9 2.4 2.2 4.1h-13.3c.3-1.7 1-3.1 2.2-4.2 1.2-.9 2.7-1.5 4.4-1.5m11.9 7.8c0-2.4-.5-4.5-1.5-6.4-1-1.8-2.4-3.3-4.2-4.3-1.8-1-3.8-1.5-6.1-1.5s-4.4.5-6.2 1.5c-1.8 1-3.3 2.5-4.3 4.3-1 1.8-1.6 3.9-1.6 6.2 0 2.3.5 4.4 1.6 6.2 1.1 1.8 2.6 3.3 4.5 4.3 2 1 4.2 1.5 6.8 1.5 2 0 3.8-.3 5.4-1 1.6-.6 2.9-1.6 4-2.9l-2.9-3.4c-1.7 1.7-3.8 2.5-6.4 2.5-2 0-3.7-.5-5.1-1.5-1.4-1-2.2-2.4-2.5-4.1h18.4c.1-.5.1-1.1.1-1.4m-25.6 6.4c-.8.6-1.8 1-3.1 1-1.1 0-1.9-.3-2.4-.9-.6-.6-.8-1.5-.8-2.6v-11.2h6.3v-4.4h-6.3v-5.4h-5.5v5.4h-3.9v4.4h3.9v11.3c0 2.6.7 4.5 2.1 5.9 1.4 1.3 3.4 2 6 2 1 0 2-.1 2.9-.4.9-.3 1.7-.7 2.4-1.2l-1.6-3.9zM91 124.8c1 0 1.9-.3 2.5-1 .7-.7 1-1.5 1-2.4 0-.9-.3-1.7-1-2.3-.7-.6-1.5-.9-2.5-.9s-1.8.3-2.5.9c-.7.6-1 1.4-1 2.3 0 .9.3 1.7 1 2.4s1.5 1 2.5 1m-2.8 27.4h5.5v-23.5h-5.5v23.5zm-13.4-23.8c-1.7 0-3.3.3-4.7.8-1.4.6-2.5 1.4-3.4 2.5v-3h-5.2v23.5H67v-11.9c0-2.3.6-4 1.8-5.3 1.2-1.2 2.8-1.8 4.8-1.8 1.8 0 3.2.5 4.1 1.6 1 1 1.5 2.6 1.5 4.6v12.7h5.5v-13.4c0-3.4-.9-6-2.7-7.7-1.9-1.7-4.3-2.6-7.2-2.6m-29.3 18.1c-2.1 0-3.8-.6-5.2-1.9-1.3-1.2-2-2.9-2-4.9 0-2 .7-3.6 2-4.8 1.3-1.2 3.1-1.8 5.2-1.8s3.8.6 5.1 1.8c1.3 1.2 2 2.8 2 4.8s-.7 3.6-2 4.9-3.1 1.9-5.1 1.9m7.3-17.8v3.1c-.9-1.1-2.1-2-3.5-2.5-1.4-.6-2.9-.8-4.6-.8-2.2 0-4.2.5-6 1.4-1.8.9-3.2 2.3-4.3 4-1 1.7-1.6 3.7-1.6 5.9s.5 4.2 1.6 5.9c1 1.7 2.5 3.1 4.3 4 1.8 1 3.8 1.4 6 1.4 1.6 0 3.1-.3 4.4-.8 1.3-.5 2.5-1.3 3.4-2.3v1.2c0 2.4-.6 4.2-1.8 5.4-1.2 1.2-3.1 1.8-5.7 1.8-1.6 0-3.2-.3-4.8-.8-1.6-.5-2.9-1.2-3.9-2l-2.5 4.1c1.3 1.1 3 1.9 5 2.5 2 .6 4.2.9 6.4.9 8.4 0 12.7-4.1 12.7-12.4v-19.9h-5.1zM25 152.2h5.7v-30.8H25v30.8zm398.5-5.2c-.8.6-1.8 1-3.1 1-1.1 0-1.9-.3-2.4-.9-.6-.6-.8-1.5-.8-2.6v-11.2h6.3v-4.4h-6.3v-5.4h-5.5v5.4h-3.9v4.4h3.9v11.3c0 2.6.7 4.5 2.1 5.9 1.4 1.3 3.4 2 6 2 1 0 2-.1 2.9-.4.9-.3 1.7-.7 2.4-1.2l-1.6-3.9zm-26.8-18.6c-1.7 0-3.3.3-4.7.8-1.4.6-2.5 1.4-3.4 2.5v-3h-5.2v23.5h5.5v-11.9c0-2.3.6-4 1.8-5.3 1.2-1.2 2.8-1.8 4.8-1.8 1.8 0 3.2.5 4.1 1.6 1 1 1.5 2.6 1.5 4.6v12.7h5.5v-13.4c0-3.4-.9-6-2.7-7.7-1.9-1.7-4.3-2.6-7.2-2.6m-28.8 4.4c1.8 0 3.3.5 4.5 1.6 1.2 1.1 1.9 2.4 2.2 4.1h-13.3c.3-1.7 1-3.1 2.2-4.2 1.2-.9 2.7-1.5 4.4-1.5m11.9 7.8c0-2.4-.5-4.5-1.5-6.4-1-1.8-2.4-3.3-4.2-4.3-1.8-1-3.8-1.5-6.1-1.5s-4.4.5-6.2 1.5c-1.8 1-3.3 2.5-4.3 4.3-1 1.8-1.6 3.9-1.6 6.2 0 2.3.5 4.4 1.6 6.2 1.1 1.8 2.6 3.3 4.5 4.3 2 1 4.2 1.5 6.8 1.5 2 0 3.8-.3 5.4-1s2.9-1.6 4-2.9l-2.9-3.4c-1.7 1.7-3.8 2.5-6.4 2.5-2 0-3.7-.5-5.1-1.5-1.4-1-2.2-2.4-2.5-4.1h18.4c.1-.5.1-1.1.1-1.4m-37-12.2c-1.8 0-3.5.3-5.1 1-1.5.7-2.8 1.6-3.7 2.9-.8-1.3-1.9-2.3-3.2-2.9-1.4-.7-2.9-1-4.7-1-1.6 0-3.1.3-4.4.8-1.3.6-2.4 1.4-3.3 2.4v-3h-5.2v23.5h5.5v-11.9c0-2.3.5-4 1.6-5.2 1.1-1.2 2.6-1.8 4.5-1.8 1.7 0 3 .5 3.9 1.6.9 1 1.4 2.6 1.4 4.6v12.7h5.5v-11.9c0-2.3.6-4 1.7-5.2 1.1-1.2 2.6-1.8 4.4-1.8 1.7 0 3 .5 3.9 1.6.9 1 1.4 2.6 1.4 4.6v12.7h5.5v-13.4c0-3.4-.9-6-2.6-7.7s-4.2-2.6-7.1-2.6m-45.1 4.4c1.8 0 3.3.5 4.5 1.6 1.2 1.1 1.9 2.4 2.2 4.1h-13.3c.3-1.7 1-3.1 2.2-4.2 1.2-.9 2.7-1.5 4.4-1.5m11.9 7.8c0-2.4-.5-4.5-1.5-6.4-1-1.8-2.4-3.3-4.2-4.3-1.8-1-3.8-1.5-6.1-1.5s-4.4.5-6.2 1.5c-1.8 1-3.3 2.5-4.3 4.3-1 1.8-1.6 3.9-1.6 6.2 0 2.3.5 4.4 1.6 6.2 1.1 1.8 2.6 3.3 4.5 4.3 2 1 4.2 1.5 6.8 1.5 2 0 3.8-.3 5.4-1 1.6-.6 2.9-1.6 4-2.9l-2.9-3.4c-1.7 1.7-3.8 2.5-6.4 2.5-2 0-3.7-.5-5.1-1.5-1.4-1-2.2-2.4-2.5-4.1h18.4c.1-.5.1-1.1.1-1.4m-34.2-8.5v-3.4h-5.2v23.5h5.5v-11.4c0-2.3.6-4.1 1.8-5.4 1.2-1.2 2.9-1.9 5-1.9.4 0 .8 0 1.3.1v-5.2c-4 0-6.8 1.3-8.4 3.7m-14.2-3.4v11.9c0 2.3-.6 4-1.7 5.3-1.2 1.2-2.7 1.8-4.7 1.8-1.8 0-3.1-.5-4.1-1.6s-1.4-2.6-1.4-4.7v-12.7h-5.5v13.4c0 3.4.9 6 2.7 7.8 1.8 1.7 4.3 2.6 7.4 2.6 1.5 0 2.9-.3 4.3-.9 1.3-.6 2.4-1.4 3.3-2.4v3h5.2v-23.5h-5.5zm-30.9 23.8c2.3 0 4.3-.5 6-1.4 1.7-1 3.1-2.3 4-4.1l-4.2-2.5c-.7 1.1-1.5 1.9-2.5 2.4s-2.1.8-3.3.8c-2.1 0-3.8-.7-5.1-2-1.3-1.3-2-3.1-2-5.3 0-2.2.7-4 2-5.3 1.3-1.3 3-2 5.1-2 1.2 0 2.3.3 3.3.8s1.9 1.4 2.5 2.4l4.2-2.5c-.9-1.8-2.2-3.1-3.9-4-1.7-.9-3.8-1.4-6.1-1.4-2.5 0-4.7.5-6.6 1.5-1.9 1-3.4 2.4-4.5 4.3-1.1 1.8-1.6 3.9-1.6 6.2 0 2.3.5 4.4 1.6 6.2 1.1 1.8 2.6 3.3 4.5 4.3 2 1.1 4.2 1.6 6.6 1.6m-26.7-4.7c-2 0-3.7-.7-5-2-1.3-1.3-2-3.1-2-5.3 0-2.2.7-4 2-5.3 1.3-1.3 3-2 5-2s3.7.7 5 2c1.3 1.3 2 3.1 2 5.3 0 2.2-.7 4-2 5.3-1.3 1.3-3 2-5 2m0 4.7c2.4 0 4.6-.5 6.5-1.5 1.9-1 3.4-2.5 4.5-4.3 1.1-1.8 1.6-3.9 1.6-6.2 0-2.3-.5-4.4-1.6-6.2-1.1-1.8-2.6-3.2-4.5-4.3-1.9-1-4.1-1.5-6.5-1.5-2.4 0-4.5.5-6.4 1.5-1.9 1-3.4 2.4-4.5 4.3-1.1 1.8-1.6 3.9-1.6 6.2 0 2.3.5 4.4 1.6 6.2 1.1 1.8 2.6 3.3 4.5 4.3 1.8 1 4 1.5 6.4 1.5m-22.7-20.4v-3.4h-5.2v23.5h5.5v-11.4c0-2.3.6-4.1 1.8-5.4 1.2-1.2 2.9-1.9 5-1.9.4 0 .8 0 1.3.1v-5.2c-4 0-6.8 1.3-8.4 3.7m-21.8 6.4h-6.7v-12.2h6.7c2.5 0 4.4.5 5.7 1.6 1.3 1.1 1.9 2.6 1.9 4.5s-.6 3.5-1.9 4.5c-1.3 1-3.2 1.6-5.7 1.6m.3-17.1h-12.7v30.8h5.7v-8.9h6.9c2.7 0 5-.4 7-1.3s3.5-2.1 4.5-3.8c1.1-1.7 1.6-3.6 1.6-5.8 0-2.3-.5-4.2-1.6-5.8-1.1-1.6-2.6-2.9-4.5-3.8-2-1-4.3-1.4-6.9-1.4"/><path class="st2" d="M91 126.6c2.6 0 4.6-2 4.6-4.4 0-2.4-2.1-4.4-4.6-4.4-2.6 0-4.6 2-4.6 4.4-.1 2.4 2 4.4 4.6 4.4"/><path class="st1" d="M240.5 39.7c1.7 0 3.1-1.3 3.1-2.9s-1.4-2.9-3.1-2.9c-1.7 0-3.1 1.3-3.1 2.9s1.4 2.9 3.1 2.9m-31 0c1.7 0 3.1-1.3 3.1-2.9s-1.4-2.9-3.1-2.9c-1.7 0-3.1 1.3-3.1 2.9s1.4 2.9 3.1 2.9M194 61.6c1.7 0 3.1-1.3 3.1-2.9 0-1.6-1.4-2.9-3.1-2.9-1.7 0-3.1 1.3-3.1 2.9 0 1.6 1.4 2.9 3.1 2.9m31 30.7c2.6 0 4.6-2 4.6-4.4 0-2.4-2.1-4.4-4.6-4.4-2.6 0-4.6 2-4.6 4.4 0 2.5 2 4.4 4.6 4.4m0-29.2c2.6 0 4.6-2 4.6-4.4 0-2.4-2.1-4.4-4.6-4.4-2.6 0-4.6 2-4.6 4.4 0 2.4 2 4.4 4.6 4.4m-31-14.6c2.6 0 4.6-2 4.6-4.4 0-2.4-2.1-4.4-4.6-4.4-2.6 0-4.6 2-4.6 4.4 0 2.4 2.1 4.4 4.6 4.4m0 29.2c2.6 0 4.6-2 4.6-4.4 0-2.4-2.1-4.4-4.6-4.4-2.6 0-4.6 2-4.6 4.4 0 2.4 2.1 4.4 4.6 4.4"/><path class="st2" d="M256 48.5c2.6 0 4.6-2 4.6-4.4 0-2.4-2.1-4.4-4.6-4.4-2.6 0-4.6 2-4.6 4.4-.1 2.4 2 4.4 4.6 4.4"/><path class="st1" d="M256 77.7c2.6 0 4.6-2 4.6-4.4 0-2.4-2.1-4.4-4.6-4.4-2.6 0-4.6 2-4.6 4.4-.1 2.4 2 4.4 4.6 4.4m-31-43.9c2.6 0 4.6-2 4.6-4.4 0-2.4-2.1-4.4-4.6-4.4-2.6 0-4.6 2-4.6 4.4 0 2.5 2 4.4 4.6 4.4m-15.5 34.5c1.4 0 2.5-1 2.5-2.3s-1.1-2.3-2.5-2.3-2.5 1-2.5 2.3 1.2 2.3 2.5 2.3M225 46.4c1.4 0 2.5-1 2.5-2.3s-1.1-2.3-2.5-2.3-2.5 1-2.5 2.3 1.1 2.3 2.5 2.3m15.5 7.3c1.4 0 2.5-1 2.5-2.3 0-1.3-1.1-2.3-2.5-2.3s-2.5 1-2.5 2.3c0 1.3 1.1 2.3 2.5 2.3m-31 0c1.4 0 2.5-1 2.5-2.3 0-1.3-1.1-2.3-2.5-2.3s-2.5 1-2.5 2.3c.1 1.3 1.2 2.3 2.5 2.3m46.5 7.9c1.7 0 3.1-1.3 3.1-2.9 0-1.6-1.4-2.9-3.1-2.9-1.7 0-3.1 1.3-3.1 2.9 0 1.6 1.3 2.9 3.1 2.9m-15.5 22c1.7 0 3.1-1.3 3.1-2.9 0-1.6-1.4-2.9-3.1-2.9-1.7 0-3.1 1.3-3.1 2.9 0 1.5 1.4 2.9 3.1 2.9m-31 0c1.7 0 3.1-1.3 3.1-2.9 0-1.6-1.4-2.9-3.1-2.9-1.7 0-3.1 1.3-3.1 2.9 0 1.5 1.4 2.9 3.1 2.9m31-15.3c1.4 0 2.5-1 2.5-2.3s-1.1-2.3-2.5-2.3-2.5 1-2.5 2.3 1.1 2.3 2.5 2.3M225 75.7c1.4 0 2.5-1 2.5-2.3S226.4 71 225 71s-2.5 1-2.5 2.3 1.1 2.4 2.5 2.4"/></svg>