<?xml version="1.0" encoding="utf-8"?>
<!-- Generator: Adobe Illustrator 23.0.1, SVG Export Plug-In . SVG Version: 6.00 Build 0)  -->
<svg version="1.1" id="Layer_1" xmlns="http://www.w3.org/2000/svg" xmlns:xlink="http://www.w3.org/1999/xlink" x="0px" y="0px"
	 viewBox="0 0 450 185" style="enable-background:new 0 0 450 185;" xml:space="preserve">
<style type="text/css">
	.st0{fill:#18243F;}
	.st1{clip-path:url(#SVGID_2_);fill:#FFFFFF;}
	.st2{clip-path:url(#SVGID_2_);fill:#E9435E;}
</style>
<path class="st0" d="M537.6,40.9c2.4,0,4.6-0.5,6.5-1.5c1.9-1,3.4-2.5,4.5-4.3c1.1-1.8,1.6-3.9,1.6-6.2s-0.5-4.4-1.6-6.2
	c-1.1-1.8-2.6-3.2-4.5-4.3c-1.9-1-4.1-1.5-6.5-1.5c-2.4,0-4.5,0.5-6.4,1.5c-1.9,1-3.4,2.4-4.5,4.3c-1.1,1.8-1.6,3.9-1.6,6.2
	s0.5,4.4,1.6,6.2c1.1,1.8,2.6,3.3,4.5,4.3C533.1,40.4,535.2,40.9,537.6,40.9"/>
<g>
	<defs>
		<rect id="SVGID_1_" x="25" y="25.1" width="400" height="135.9"/>
	</defs>
	<clipPath id="SVGID_2_">
		<use xlink:href="#SVGID_1_"  style="overflow:visible;"/>
	</clipPath>
	<path class="st1" d="M126.3,132.8c1.8,0,3.3,0.5,4.5,1.6s1.9,2.4,2.2,4.1h-13.3c0.3-1.7,1-3.1,2.2-4.2
		C123.1,133.4,124.6,132.8,126.3,132.8 M138.2,140.6c0-2.4-0.5-4.5-1.5-6.4c-1-1.8-2.4-3.3-4.2-4.3c-1.8-1-3.8-1.5-6.1-1.5
		c-2.3,0-4.4,0.5-6.2,1.5c-1.8,1-3.3,2.5-4.3,4.3c-1,1.8-1.6,3.9-1.6,6.2c0,2.3,0.5,4.4,1.6,6.2c1.1,1.8,2.6,3.3,4.5,4.3
		c2,1,4.2,1.5,6.8,1.5c2,0,3.8-0.3,5.4-1c1.6-0.6,2.9-1.6,4-2.9l-2.9-3.4c-1.7,1.7-3.8,2.5-6.4,2.5c-2,0-3.7-0.5-5.1-1.5
		c-1.4-1-2.2-2.4-2.5-4.1h18.4C138.2,141.5,138.2,140.9,138.2,140.6 M112.6,147c-0.8,0.6-1.8,1-3.1,1c-1.1,0-1.9-0.3-2.4-0.9
		c-0.6-0.6-0.8-1.5-0.8-2.6v-11.2h6.3v-4.4h-6.3v-5.4h-5.5v5.4h-3.9v4.4h3.9v11.3c0,2.6,0.7,4.5,2.1,5.9c1.4,1.3,3.4,2,6,2
		c1,0,2-0.1,2.9-0.4c0.9-0.3,1.7-0.7,2.4-1.2L112.6,147z M91,124.8c1,0,1.9-0.3,2.5-1c0.7-0.7,1-1.5,1-2.4c0-0.9-0.3-1.7-1-2.3
		c-0.7-0.6-1.5-0.9-2.5-0.9c-1,0-1.8,0.3-2.5,0.9c-0.7,0.6-1,1.4-1,2.3c0,0.9,0.3,1.7,1,2.4S90,124.8,91,124.8 M88.2,152.2h5.5
		v-23.5h-5.5V152.2z M74.8,128.4c-1.7,0-3.3,0.3-4.7,0.8c-1.4,0.6-2.5,1.4-3.4,2.5v-3h-5.2v23.5H67v-11.9c0-2.3,0.6-4,1.8-5.3
		c1.2-1.2,2.8-1.8,4.8-1.8c1.8,0,3.2,0.5,4.1,1.6c1,1,1.5,2.6,1.5,4.6v12.7h5.5v-13.4c0-3.4-0.9-6-2.7-7.7
		C80.1,129.3,77.7,128.4,74.8,128.4 M45.5,146.5c-2.1,0-3.8-0.6-5.2-1.9c-1.3-1.2-2-2.9-2-4.9c0-2,0.7-3.6,2-4.8
		c1.3-1.2,3.1-1.8,5.2-1.8c2.1,0,3.8,0.6,5.1,1.8c1.3,1.2,2,2.8,2,4.8c0,2-0.7,3.6-2,4.9S47.5,146.5,45.5,146.5 M52.8,128.7v3.1
		c-0.9-1.1-2.1-2-3.5-2.5c-1.4-0.6-2.9-0.8-4.6-0.8c-2.2,0-4.2,0.5-6,1.4c-1.8,0.9-3.2,2.3-4.3,4c-1,1.7-1.6,3.7-1.6,5.9
		c0,2.2,0.5,4.2,1.6,5.9c1,1.7,2.5,3.1,4.3,4c1.8,1,3.8,1.4,6,1.4c1.6,0,3.1-0.3,4.4-0.8c1.3-0.5,2.5-1.3,3.4-2.3v1.2
		c0,2.4-0.6,4.2-1.8,5.4c-1.2,1.2-3.1,1.8-5.7,1.8c-1.6,0-3.2-0.3-4.8-0.8c-1.6-0.5-2.9-1.2-3.9-2l-2.5,4.1c1.3,1.1,3,1.9,5,2.5
		c2,0.6,4.2,0.9,6.4,0.9c8.4,0,12.7-4.1,12.7-12.4v-19.9H52.8z M25,152.2h5.7v-30.8H25V152.2z"/>
	<path class="st1" d="M423.5,147c-0.8,0.6-1.8,1-3.1,1c-1.1,0-1.9-0.3-2.4-0.9c-0.6-0.6-0.8-1.5-0.8-2.6v-11.2h6.3v-4.4h-6.3v-5.4
		h-5.5v5.4h-3.9v4.4h3.9v11.3c0,2.6,0.7,4.5,2.1,5.9c1.4,1.3,3.4,2,6,2c1,0,2-0.1,2.9-0.4c0.9-0.3,1.7-0.7,2.4-1.2L423.5,147z
		 M396.7,128.4c-1.7,0-3.3,0.3-4.7,0.8c-1.4,0.6-2.5,1.4-3.4,2.5v-3h-5.2v23.5h5.5v-11.9c0-2.3,0.6-4,1.8-5.3
		c1.2-1.2,2.8-1.8,4.8-1.8c1.8,0,3.2,0.5,4.1,1.6c1,1,1.5,2.6,1.5,4.6v12.7h5.5v-13.4c0-3.4-0.9-6-2.7-7.7
		C402,129.3,399.6,128.4,396.7,128.4 M367.9,132.8c1.8,0,3.3,0.5,4.5,1.6c1.2,1.1,1.9,2.4,2.2,4.1h-13.3c0.3-1.7,1-3.1,2.2-4.2
		C364.7,133.4,366.2,132.8,367.9,132.8 M379.8,140.6c0-2.4-0.5-4.5-1.5-6.4c-1-1.8-2.4-3.3-4.2-4.3c-1.8-1-3.8-1.5-6.1-1.5
		c-2.3,0-4.4,0.5-6.2,1.5c-1.8,1-3.3,2.5-4.3,4.3c-1,1.8-1.6,3.9-1.6,6.2c0,2.3,0.5,4.4,1.6,6.2c1.1,1.8,2.6,3.3,4.5,4.3
		c2,1,4.2,1.5,6.8,1.5c2,0,3.8-0.3,5.4-1s2.9-1.6,4-2.9l-2.9-3.4c-1.7,1.7-3.8,2.5-6.4,2.5c-2,0-3.7-0.5-5.1-1.5
		c-1.4-1-2.2-2.4-2.5-4.1h18.4C379.8,141.5,379.8,140.9,379.8,140.6 M342.8,128.4c-1.8,0-3.5,0.3-5.1,1c-1.5,0.7-2.8,1.6-3.7,2.9
		c-0.8-1.3-1.9-2.3-3.2-2.9c-1.4-0.7-2.9-1-4.7-1c-1.6,0-3.1,0.3-4.4,0.8c-1.3,0.6-2.4,1.4-3.3,2.4v-3h-5.2v23.5h5.5v-11.9
		c0-2.3,0.5-4,1.6-5.2c1.1-1.2,2.6-1.8,4.5-1.8c1.7,0,3,0.5,3.9,1.6c0.9,1,1.4,2.6,1.4,4.6v12.7h5.5v-11.9c0-2.3,0.6-4,1.7-5.2
		c1.1-1.2,2.6-1.8,4.4-1.8c1.7,0,3,0.5,3.9,1.6c0.9,1,1.4,2.6,1.4,4.6v12.7h5.5v-13.4c0-3.4-0.9-6-2.6-7.7S345.7,128.4,342.8,128.4
		 M297.7,132.8c1.8,0,3.3,0.5,4.5,1.6c1.2,1.1,1.9,2.4,2.2,4.1h-13.3c0.3-1.7,1-3.1,2.2-4.2C294.5,133.4,296,132.8,297.7,132.8
		 M309.6,140.6c0-2.4-0.5-4.5-1.5-6.4c-1-1.8-2.4-3.3-4.2-4.3c-1.8-1-3.8-1.5-6.1-1.5c-2.3,0-4.4,0.5-6.2,1.5
		c-1.8,1-3.3,2.5-4.3,4.3c-1,1.8-1.6,3.9-1.6,6.2c0,2.3,0.5,4.4,1.6,6.2c1.1,1.8,2.6,3.3,4.5,4.3c2,1,4.2,1.5,6.8,1.5
		c2,0,3.8-0.3,5.4-1c1.6-0.6,2.9-1.6,4-2.9l-2.9-3.4c-1.7,1.7-3.8,2.5-6.4,2.5c-2,0-3.7-0.5-5.1-1.5c-1.4-1-2.2-2.4-2.5-4.1h18.4
		C309.6,141.5,309.6,140.9,309.6,140.6 M275.4,132.1v-3.4h-5.2v23.5h5.5v-11.4c0-2.3,0.6-4.1,1.8-5.4c1.2-1.2,2.9-1.9,5-1.9
		c0.4,0,0.8,0,1.3,0.1v-5.2C279.8,128.4,277,129.7,275.4,132.1 M261.2,128.7v11.9c0,2.3-0.6,4-1.7,5.3c-1.2,1.2-2.7,1.8-4.7,1.8
		c-1.8,0-3.1-0.5-4.1-1.6s-1.4-2.6-1.4-4.7v-12.7h-5.5v13.4c0,3.4,0.9,6,2.7,7.8c1.8,1.7,4.3,2.6,7.4,2.6c1.5,0,2.9-0.3,4.3-0.9
		c1.3-0.6,2.4-1.4,3.3-2.4v3h5.2v-23.5H261.2z M230.3,152.5c2.3,0,4.3-0.5,6-1.4c1.7-1,3.1-2.3,4-4.1l-4.2-2.5
		c-0.7,1.1-1.5,1.9-2.5,2.4c-1,0.5-2.1,0.8-3.3,0.8c-2.1,0-3.8-0.7-5.1-2c-1.3-1.3-2-3.1-2-5.3c0-2.2,0.7-4,2-5.3c1.3-1.3,3-2,5.1-2
		c1.2,0,2.3,0.3,3.3,0.8c1,0.5,1.9,1.4,2.5,2.4l4.2-2.5c-0.9-1.8-2.2-3.1-3.9-4c-1.7-0.9-3.8-1.4-6.1-1.4c-2.5,0-4.7,0.5-6.6,1.5
		c-1.9,1-3.4,2.4-4.5,4.3c-1.1,1.8-1.6,3.9-1.6,6.2c0,2.3,0.5,4.4,1.6,6.2c1.1,1.8,2.6,3.3,4.5,4.3
		C225.7,152,227.9,152.5,230.3,152.5 M203.6,147.8c-2,0-3.7-0.7-5-2c-1.3-1.3-2-3.1-2-5.3c0-2.2,0.7-4,2-5.3c1.3-1.3,3-2,5-2
		c2,0,3.7,0.7,5,2c1.3,1.3,2,3.1,2,5.3c0,2.2-0.7,4-2,5.3C207.3,147.1,205.6,147.8,203.6,147.8 M203.6,152.5c2.4,0,4.6-0.5,6.5-1.5
		c1.9-1,3.4-2.5,4.5-4.3c1.1-1.8,1.6-3.9,1.6-6.2c0-2.3-0.5-4.4-1.6-6.2c-1.1-1.8-2.6-3.2-4.5-4.3c-1.9-1-4.1-1.5-6.5-1.5
		c-2.4,0-4.5,0.5-6.4,1.5c-1.9,1-3.4,2.4-4.5,4.3c-1.1,1.8-1.6,3.9-1.6,6.2c0,2.3,0.5,4.4,1.6,6.2c1.1,1.8,2.6,3.3,4.5,4.3
		C199,152,201.2,152.5,203.6,152.5 M180.9,132.1v-3.4h-5.2v23.5h5.5v-11.4c0-2.3,0.6-4.1,1.8-5.4c1.2-1.2,2.9-1.9,5-1.9
		c0.4,0,0.8,0,1.3,0.1v-5.2C185.3,128.4,182.5,129.7,180.9,132.1 M159.1,138.5h-6.7v-12.2h6.7c2.5,0,4.4,0.5,5.7,1.6
		c1.3,1.1,1.9,2.6,1.9,4.5s-0.6,3.5-1.9,4.5C163.5,137.9,161.6,138.5,159.1,138.5 M159.4,121.4h-12.7v30.8h5.7v-8.9h6.9
		c2.7,0,5-0.4,7-1.3c2-0.9,3.5-2.1,4.5-3.8c1.1-1.7,1.6-3.6,1.6-5.8c0-2.3-0.5-4.2-1.6-5.8c-1.1-1.6-2.6-2.9-4.5-3.8
		C164.3,121.8,162,121.4,159.4,121.4"/>
	<path class="st2" d="M91,126.6c2.6,0,4.6-2,4.6-4.4c0-2.4-2.1-4.4-4.6-4.4c-2.6,0-4.6,2-4.6,4.4C86.3,124.6,88.4,126.6,91,126.6"/>
	<path class="st1" d="M240.5,39.7c1.7,0,3.1-1.3,3.1-2.9s-1.4-2.9-3.1-2.9c-1.7,0-3.1,1.3-3.1,2.9S238.8,39.7,240.5,39.7"/>
	<path class="st1" d="M209.5,39.7c1.7,0,3.1-1.3,3.1-2.9s-1.4-2.9-3.1-2.9c-1.7,0-3.1,1.3-3.1,2.9S207.8,39.7,209.5,39.7"/>
	<path class="st1" d="M194,61.6c1.7,0,3.1-1.3,3.1-2.9c0-1.6-1.4-2.9-3.1-2.9c-1.7,0-3.1,1.3-3.1,2.9
		C190.9,60.3,192.3,61.6,194,61.6"/>
	<path class="st1" d="M225,92.3c2.6,0,4.6-2,4.6-4.4c0-2.4-2.1-4.4-4.6-4.4c-2.6,0-4.6,2-4.6,4.4C220.4,90.4,222.4,92.3,225,92.3"/>
	<path class="st1" d="M225,63.1c2.6,0,4.6-2,4.6-4.4c0-2.4-2.1-4.4-4.6-4.4c-2.6,0-4.6,2-4.6,4.4C220.4,61.1,222.4,63.1,225,63.1"/>
	<path class="st1" d="M194,48.5c2.6,0,4.6-2,4.6-4.4c0-2.4-2.1-4.4-4.6-4.4c-2.6,0-4.6,2-4.6,4.4C189.4,46.5,191.5,48.5,194,48.5"/>
	<path class="st1" d="M194,77.7c2.6,0,4.6-2,4.6-4.4c0-2.4-2.1-4.4-4.6-4.4c-2.6,0-4.6,2-4.6,4.4C189.4,75.7,191.5,77.7,194,77.7"/>
	<path class="st2" d="M256,48.5c2.6,0,4.6-2,4.6-4.4c0-2.4-2.1-4.4-4.6-4.4c-2.6,0-4.6,2-4.6,4.4C251.3,46.5,253.4,48.5,256,48.5"/>
	<path class="st1" d="M256,77.7c2.6,0,4.6-2,4.6-4.4c0-2.4-2.1-4.4-4.6-4.4c-2.6,0-4.6,2-4.6,4.4C251.3,75.7,253.4,77.7,256,77.7"/>
	<path class="st1" d="M225,33.8c2.6,0,4.6-2,4.6-4.4c0-2.4-2.1-4.4-4.6-4.4c-2.6,0-4.6,2-4.6,4.4C220.4,31.9,222.4,33.8,225,33.8"/>
	<path class="st1" d="M209.5,68.3c1.4,0,2.5-1,2.5-2.3s-1.1-2.3-2.5-2.3c-1.4,0-2.5,1-2.5,2.3S208.2,68.3,209.5,68.3"/>
	<path class="st1" d="M225,46.4c1.4,0,2.5-1,2.5-2.3s-1.1-2.3-2.5-2.3c-1.4,0-2.5,1-2.5,2.3S223.6,46.4,225,46.4"/>
	<path class="st1" d="M240.5,53.7c1.4,0,2.5-1,2.5-2.3c0-1.3-1.1-2.3-2.5-2.3c-1.4,0-2.5,1-2.5,2.3C238,52.7,239.1,53.7,240.5,53.7"
		/>
	<path class="st1" d="M209.5,53.7c1.4,0,2.5-1,2.5-2.3c0-1.3-1.1-2.3-2.5-2.3c-1.4,0-2.5,1-2.5,2.3
		C207.1,52.7,208.2,53.7,209.5,53.7"/>
	<path class="st1" d="M256,61.6c1.7,0,3.1-1.3,3.1-2.9c0-1.6-1.4-2.9-3.1-2.9c-1.7,0-3.1,1.3-3.1,2.9
		C252.9,60.3,254.2,61.6,256,61.6"/>
	<path class="st1" d="M240.5,83.6c1.7,0,3.1-1.3,3.1-2.9c0-1.6-1.4-2.9-3.1-2.9c-1.7,0-3.1,1.3-3.1,2.9
		C237.4,82.2,238.8,83.6,240.5,83.6"/>
	<path class="st1" d="M209.5,83.6c1.7,0,3.1-1.3,3.1-2.9c0-1.6-1.4-2.9-3.1-2.9c-1.7,0-3.1,1.3-3.1,2.9
		C206.4,82.2,207.8,83.6,209.5,83.6"/>
	<path class="st1" d="M240.5,68.3c1.4,0,2.5-1,2.5-2.3s-1.1-2.3-2.5-2.3c-1.4,0-2.5,1-2.5,2.3S239.1,68.3,240.5,68.3"/>
	<path class="st1" d="M225,75.7c1.4,0,2.5-1,2.5-2.3S226.4,71,225,71c-1.4,0-2.5,1-2.5,2.3S223.6,75.7,225,75.7"/>
</g>
</svg>
