<?xml version="1.0" encoding="utf-8"?>
<!-- Generator: Adobe Illustrator 23.0.1, SVG Export Plug-In . SVG Version: 6.00 Build 0)  -->
<svg version="1.1" xmlns="http://www.w3.org/2000/svg" xmlns:xlink="http://www.w3.org/1999/xlink" x="0px" y="0px"
	 viewBox="0 0 401 95" style="enable-background:new 0 0 401 95;" xml:space="preserve">
<style type="text/css">
	.st0{clip-path:url(#SVGID_2_);fill:#FFFFFF;}
	.st1{clip-path:url(#SVGID_2_);fill:#E9435E;}
</style>
<g id="Layer_2">
</g>
<g id="Layer_1">
	<g>
		<defs>
			<rect id="SVGID_1_" x="25.4" y="23.9" width="349.6" height="47.1"/>
		</defs>
		<clipPath id="SVGID_2_">
			<use xlink:href="#SVGID_1_"  style="overflow:visible;"/>
		</clipPath>
		<path class="st0" d="M61.1,34.2c1.2,0,2.2-0.9,2.2-2s-1-2-2.2-2c-1.2,0-2.2,0.9-2.2,2S59.9,34.2,61.1,34.2"/>
		<path class="st0" d="M39.5,34.2c1.2,0,2.2-0.9,2.2-2s-1-2-2.2-2s-2.2,0.9-2.2,2S38.3,34.2,39.5,34.2"/>
		<path class="st0" d="M28.6,49.5c1.2,0,2.2-0.9,2.2-2s-1-2-2.2-2c-1.2,0-2.2,0.9-2.2,2S27.5,49.5,28.6,49.5"/>
		<path class="st0" d="M50.3,71c1.8,0,3.2-1.4,3.2-3.1c0-1.7-1.5-3.1-3.2-3.1s-3.2,1.4-3.2,3.1C47.1,69.6,48.5,71,50.3,71"/>
		<path class="st0" d="M50.3,50.5c1.8,0,3.2-1.4,3.2-3.1c0-1.7-1.5-3.1-3.2-3.1s-3.2,1.4-3.2,3.1C47.1,49.2,48.5,50.5,50.3,50.5"/>
		<path class="st0" d="M28.6,40.3c1.8,0,3.2-1.4,3.2-3.1c0-1.7-1.5-3.1-3.2-3.1c-1.8,0-3.2,1.4-3.2,3.1
			C25.4,38.9,26.9,40.3,28.6,40.3"/>
		<path class="st0" d="M28.6,60.8c1.8,0,3.2-1.4,3.2-3.1c0-1.7-1.5-3.1-3.2-3.1c-1.8,0-3.2,1.4-3.2,3.1
			C25.4,59.4,26.9,60.8,28.6,60.8"/>
		<path class="st1" d="M72,40.3c1.8,0,3.2-1.4,3.2-3.1c0-1.7-1.5-3.1-3.2-3.1s-3.2,1.4-3.2,3.1C68.7,38.9,70.2,40.3,72,40.3"/>
		<path class="st0" d="M72,60.8c1.8,0,3.2-1.4,3.2-3.1c0-1.7-1.5-3.1-3.2-3.1s-3.2,1.4-3.2,3.1C68.7,59.4,70.2,60.8,72,60.8"/>
		<path class="st0" d="M50.3,30.1c1.8,0,3.2-1.4,3.2-3.1s-1.5-3.1-3.2-3.1s-3.2,1.4-3.2,3.1S48.5,30.1,50.3,30.1"/>
		<path class="st0" d="M39.5,54.2c1,0,1.7-0.7,1.7-1.6c0-0.9-0.8-1.6-1.7-1.6c-1,0-1.7,0.7-1.7,1.6C37.8,53.5,38.5,54.2,39.5,54.2"
			/>
		<path class="st0" d="M50.3,38.9c1,0,1.7-0.7,1.7-1.6c0-0.9-0.8-1.6-1.7-1.6c-1,0-1.7,0.7-1.7,1.6C48.6,38.1,49.3,38.9,50.3,38.9"
			/>
		<path class="st0" d="M61.1,44c1,0,1.7-0.7,1.7-1.6c0-0.9-0.8-1.6-1.7-1.6s-1.7,0.7-1.7,1.6C59.4,43.3,60.2,44,61.1,44"/>
		<path class="st0" d="M39.5,44c1,0,1.7-0.7,1.7-1.6c0-0.9-0.8-1.6-1.7-1.6c-1,0-1.7,0.7-1.7,1.6C37.8,43.3,38.5,44,39.5,44"/>
		<path class="st0" d="M72,49.5c1.2,0,2.2-0.9,2.2-2s-1-2-2.2-2c-1.2,0-2.2,0.9-2.2,2S70.8,49.5,72,49.5"/>
		<path class="st0" d="M61.1,64.9c1.2,0,2.2-0.9,2.2-2s-1-2-2.2-2c-1.2,0-2.2,0.9-2.2,2S59.9,64.9,61.1,64.9"/>
		<path class="st0" d="M39.5,64.9c1.2,0,2.2-0.9,2.2-2s-1-2-2.2-2s-2.2,0.9-2.2,2S38.3,64.9,39.5,64.9"/>
		<path class="st0" d="M61.1,54.2c1,0,1.7-0.7,1.7-1.6c0-0.9-0.8-1.6-1.7-1.6s-1.7,0.7-1.7,1.6C59.4,53.5,60.2,54.2,61.1,54.2"/>
		<path class="st0" d="M50.3,59.3c1,0,1.7-0.7,1.7-1.6s-0.8-1.6-1.7-1.6c-1,0-1.7,0.7-1.7,1.6S49.3,59.3,50.3,59.3"/>
		<path class="st0" d="M166.1,44.7c1.2,0,2.3,0.4,3.1,1.1c0.8,0.7,1.3,1.7,1.5,2.9h-9.3c0.2-1.2,0.7-2.2,1.6-2.9
			C163.8,45.1,164.8,44.7,166.1,44.7 M174.4,50.1c0-1.7-0.4-3.2-1.1-4.4c-0.7-1.3-1.7-2.3-3-3c-1.3-0.7-2.7-1.1-4.3-1.1
			c-1.6,0-3.1,0.4-4.4,1.1c-1.3,0.7-2.3,1.7-3,3c-0.7,1.3-1.1,2.7-1.1,4.3c0,1.6,0.4,3.1,1.1,4.3c0.7,1.3,1.8,2.3,3.2,3
			c1.4,0.7,3,1.1,4.8,1.1c1.4,0,2.7-0.2,3.8-0.7c1.1-0.4,2.1-1.1,2.8-2l-2.1-2.4c-1.2,1.2-2.7,1.8-4.5,1.8c-1.4,0-2.6-0.4-3.5-1.1
			c-1-0.7-1.5-1.7-1.8-2.9h12.9C174.3,50.8,174.4,50.4,174.4,50.1 M156.4,54.6c-0.6,0.5-1.3,0.7-2.2,0.7c-0.7,0-1.3-0.2-1.7-0.6
			c-0.4-0.4-0.6-1-0.6-1.8V45h4.4v-3.1H152v-3.7h-3.8v3.7h-2.7V45h2.7v7.9c0,1.8,0.5,3.2,1.5,4.1c1,0.9,2.4,1.4,4.2,1.4
			c0.7,0,1.4-0.1,2-0.3c0.6-0.2,1.2-0.5,1.6-0.8L156.4,54.6z M141.3,39.1c0.7,0,1.3-0.2,1.8-0.7c0.5-0.5,0.7-1,0.7-1.7
			c0-0.6-0.2-1.2-0.7-1.6c-0.5-0.4-1.1-0.6-1.8-0.6c-0.7,0-1.3,0.2-1.8,0.7c-0.5,0.4-0.7,1-0.7,1.6c0,0.7,0.2,1.2,0.7,1.6
			S140.6,39.1,141.3,39.1 M139.4,58.2h3.8V41.8h-3.8V58.2z M130,41.6c-1.2,0-2.3,0.2-3.3,0.6s-1.8,1-2.4,1.7v-2.1h-3.7v16.4h3.8
			v-8.3c0-1.6,0.4-2.8,1.2-3.7c0.8-0.9,1.9-1.3,3.4-1.3c1.3,0,2.2,0.4,2.9,1.1c0.7,0.7,1,1.8,1,3.2v8.9h3.8v-9.4
			c0-2.4-0.6-4.2-1.9-5.4C133.7,42.2,132.1,41.6,130,41.6 M109.5,54.2c-1.5,0-2.7-0.4-3.6-1.3s-1.4-2-1.4-3.4c0-1.4,0.5-2.5,1.4-3.3
			c0.9-0.9,2.1-1.3,3.6-1.3c1.5,0,2.6,0.4,3.6,1.3c0.9,0.9,1.4,2,1.4,3.3c0,1.4-0.5,2.5-1.4,3.4S111,54.2,109.5,54.2 M114.6,41.8V44
			c-0.7-0.8-1.5-1.4-2.4-1.8c-1-0.4-2.1-0.6-3.2-0.6c-1.6,0-3,0.3-4.2,1c-1.3,0.7-2.3,1.6-3,2.8c-0.7,1.2-1.1,2.6-1.1,4.1
			c0,1.6,0.4,2.9,1.1,4.1c0.7,1.2,1.7,2.1,3,2.8c1.3,0.7,2.7,1,4.2,1c1.1,0,2.2-0.2,3.1-0.6c0.9-0.4,1.7-0.9,2.4-1.6v0.9
			c0,1.7-0.4,2.9-1.3,3.8c-0.8,0.8-2.2,1.2-4,1.2c-1.1,0-2.2-0.2-3.3-0.5c-1.1-0.4-2-0.8-2.7-1.4l-1.7,2.9c0.9,0.8,2.1,1.3,3.5,1.7
			c1.4,0.4,2.9,0.6,4.5,0.6c5.9,0,8.9-2.9,8.9-8.7V41.8H114.6z M95.2,58.2h4V36.7h-4V58.2z"/>
		<path class="st0" d="M373.9,54.6c-0.6,0.5-1.3,0.7-2.2,0.7c-0.7,0-1.3-0.2-1.7-0.6c-0.4-0.4-0.6-1-0.6-1.8V45h4.4v-3.1h-4.4v-3.8
			h-3.8v3.8H363V45h2.7v7.9c0,1.8,0.5,3.2,1.5,4.1c1,0.9,2.4,1.4,4.2,1.4c0.7,0,1.4-0.1,2-0.3c0.6-0.2,1.2-0.5,1.6-0.8L373.9,54.6z
			 M355.2,41.6c-1.2,0-2.3,0.2-3.3,0.6c-1,0.4-1.8,1-2.4,1.7v-2.1h-3.7v16.4h3.8v-8.3c0-1.6,0.4-2.8,1.2-3.7
			c0.8-0.9,1.9-1.3,3.3-1.3c1.3,0,2.2,0.4,2.9,1.1c0.7,0.7,1,1.8,1,3.2v8.9h3.8v-9.4c0-2.4-0.6-4.2-1.9-5.4
			C358.9,42.2,357.3,41.6,355.2,41.6 M335.1,44.7c1.3,0,2.3,0.4,3.1,1.1c0.8,0.7,1.3,1.7,1.5,2.9h-9.3c0.2-1.2,0.7-2.2,1.6-2.9
			S333.8,44.7,335.1,44.7 M343.4,50.1c0-1.7-0.4-3.2-1.1-4.4c-0.7-1.3-1.7-2.3-2.9-3c-1.3-0.7-2.7-1.1-4.3-1.1
			c-1.6,0-3.1,0.4-4.4,1.1c-1.3,0.7-2.3,1.7-3,3c-0.7,1.3-1.1,2.7-1.1,4.3c0,1.6,0.4,3.1,1.1,4.3c0.7,1.3,1.8,2.3,3.2,3
			c1.4,0.7,3,1.1,4.8,1.1c1.4,0,2.7-0.2,3.8-0.7c1.1-0.5,2.1-1.1,2.8-2l-2.1-2.4c-1.2,1.2-2.7,1.8-4.5,1.8c-1.4,0-2.6-0.4-3.5-1.1
			c-1-0.7-1.5-1.7-1.8-2.9h12.9C343.3,50.8,343.4,50.4,343.4,50.1 M317.5,41.6c-1.3,0-2.5,0.2-3.5,0.7c-1.1,0.5-1.9,1.2-2.6,2
			c-0.6-0.9-1.3-1.6-2.3-2c-1-0.5-2-0.7-3.3-0.7c-1.1,0-2.2,0.2-3.1,0.6c-0.9,0.4-1.7,1-2.3,1.7v-2.1h-3.7v16.4h3.8v-8.3
			c0-1.6,0.4-2.8,1.2-3.7c0.8-0.8,1.8-1.3,3.1-1.3c1.2,0,2.1,0.4,2.7,1.1c0.6,0.7,1,1.8,1,3.2v8.9h3.8v-8.3c0-1.6,0.4-2.8,1.2-3.6
			c0.8-0.9,1.8-1.3,3.1-1.3c1.2,0,2.1,0.4,2.7,1.1c0.6,0.7,1,1.8,1,3.2v8.9h3.8v-9.4c0-2.4-0.6-4.2-1.8-5.4
			C321.2,42.2,319.6,41.6,317.5,41.6 M286,44.7c1.3,0,2.3,0.4,3.1,1.1c0.8,0.7,1.3,1.7,1.5,2.9h-9.3c0.2-1.2,0.7-2.2,1.6-2.9
			S284.7,44.7,286,44.7 M294.3,50.1c0-1.7-0.4-3.2-1.1-4.4c-0.7-1.3-1.7-2.3-2.9-3c-1.3-0.7-2.7-1.1-4.3-1.1c-1.6,0-3.1,0.4-4.4,1.1
			c-1.3,0.7-2.3,1.7-3,3c-0.7,1.3-1.1,2.7-1.1,4.3c0,1.6,0.4,3.1,1.1,4.3c0.7,1.3,1.8,2.3,3.2,3c1.4,0.7,3,1.1,4.8,1.1
			c1.4,0,2.7-0.2,3.8-0.7c1.1-0.5,2.1-1.1,2.8-2l-2.1-2.4c-1.2,1.2-2.7,1.8-4.5,1.8c-1.4,0-2.6-0.4-3.5-1.1c-1-0.7-1.5-1.7-1.8-2.9
			h12.9C294.3,50.8,294.3,50.4,294.3,50.1 M270.4,44.2v-2.4h-3.7v16.4h3.8v-8c0-1.6,0.4-2.9,1.3-3.8c0.8-0.9,2-1.3,3.5-1.3
			c0.3,0,0.6,0,0.9,0.1v-3.7C273.4,41.6,271.5,42.5,270.4,44.2 M260.4,41.8v8.3c0,1.6-0.4,2.8-1.2,3.7c-0.8,0.9-1.9,1.3-3.3,1.3
			c-1.2,0-2.2-0.4-2.8-1.1c-0.7-0.7-1-1.8-1-3.3v-8.9h-3.8v9.4c0,2.4,0.6,4.2,1.9,5.4c1.3,1.2,3,1.8,5.2,1.8c1.1,0,2.1-0.2,3-0.6
			c0.9-0.4,1.7-1,2.3-1.7v2.1h3.7V41.8H260.4z M238.8,58.4c1.6,0,3-0.3,4.2-1c1.2-0.7,2.1-1.6,2.8-2.8l-2.9-1.7
			c-0.5,0.8-1.1,1.3-1.8,1.7c-0.7,0.4-1.5,0.6-2.3,0.6c-1.5,0-2.6-0.5-3.6-1.4c-0.9-0.9-1.4-2.2-1.4-3.7s0.5-2.8,1.4-3.7
			c0.9-0.9,2.1-1.4,3.6-1.4c0.8,0,1.6,0.2,2.3,0.6c0.7,0.4,1.3,0.9,1.8,1.7l2.9-1.7c-0.6-1.2-1.5-2.2-2.8-2.8c-1.2-0.7-2.6-1-4.3-1
			c-1.7,0-3.3,0.4-4.6,1.1c-1.3,0.7-2.4,1.7-3.2,3c-0.8,1.3-1.1,2.7-1.1,4.3c0,1.6,0.4,3.1,1.1,4.3c0.8,1.3,1.8,2.3,3.2,3
			C235.6,58.1,237.1,58.4,238.8,58.4 M220.1,55.2c-1.4,0-2.6-0.5-3.5-1.4c-0.9-0.9-1.4-2.2-1.4-3.7c0-1.5,0.5-2.8,1.4-3.7
			c0.9-0.9,2.1-1.4,3.5-1.4c1.4,0,2.6,0.5,3.5,1.4c0.9,0.9,1.4,2.2,1.4,3.7c0,1.5-0.5,2.8-1.4,3.7C222.7,54.7,221.5,55.2,220.1,55.2
			 M220.1,58.4c1.7,0,3.2-0.4,4.5-1.1c1.3-0.7,2.4-1.7,3.1-3c0.7-1.3,1.1-2.7,1.1-4.3c0-1.6-0.4-3.1-1.1-4.3c-0.7-1.3-1.8-2.3-3.1-3
			c-1.3-0.7-2.8-1.1-4.5-1.1c-1.7,0-3.2,0.4-4.5,1.1c-1.3,0.7-2.4,1.7-3.1,3c-0.7,1.3-1.1,2.7-1.1,4.3c0,1.6,0.4,3.1,1.1,4.3
			c0.7,1.3,1.8,2.3,3.1,3C216.9,58.1,218.4,58.4,220.1,58.4 M204.3,44.2v-2.4h-3.7v16.4h3.8v-8c0-1.6,0.4-2.9,1.3-3.8
			c0.8-0.9,2-1.3,3.5-1.3c0.3,0,0.6,0,0.9,0.1v-3.7C207.3,41.6,205.4,42.5,204.3,44.2 M189,48.6h-4.7v-8.5h4.7c1.7,0,3.1,0.4,4,1.1
			c0.9,0.7,1.4,1.8,1.4,3.2c0,1.4-0.5,2.4-1.4,3.2C192,48.3,190.7,48.6,189,48.6 M189.2,36.7h-8.9v21.5h4V52h4.9
			c1.9,0,3.5-0.3,4.9-0.9c1.4-0.6,2.4-1.5,3.2-2.7c0.7-1.2,1.1-2.5,1.1-4.1c0-1.6-0.4-2.9-1.1-4.1c-0.7-1.1-1.8-2-3.2-2.6
			C192.7,37,191,36.7,189.2,36.7"/>
		<path class="st1" d="M141.3,40.3c1.8,0,3.2-1.4,3.2-3.1c0-1.7-1.5-3.1-3.2-3.1c-1.8,0-3.2,1.4-3.2,3.1
			C138.1,39,139.5,40.3,141.3,40.3"/>
	</g>
</g>
</svg>
