<?xml version="1.0" encoding="utf-8"?>
<!-- Generator: Adobe Illustrator 23.0.1, SVG Export Plug-In . SVG Version: 6.00 Build 0)  -->
<svg version="1.1" id="Layer_1" xmlns="http://www.w3.org/2000/svg" xmlns:xlink="http://www.w3.org/1999/xlink" x="0px" y="0px"
	 viewBox="0 0 250 150" style="enable-background:new 0 0 250 150;" xml:space="preserve">
<style type="text/css">
	.st0{clip-path:url(#SVGID_2_);fill:#18243F;}
	.st1{clip-path:url(#SVGID_4_);fill:#3C6FE9;}
	.st2{clip-path:url(#SVGID_6_);fill:#18243F;}
	.st3{clip-path:url(#SVGID_8_);fill:#18243F;}
	.st4{clip-path:url(#SVGID_10_);fill:#18243F;}
	.st5{clip-path:url(#SVGID_12_);fill:#18243F;}
	.st6{clip-path:url(#SVGID_14_);fill:#3C6FE9;}
	.st7{clip-path:url(#SVGID_16_);fill:#18243F;}
	.st8{clip-path:url(#SVGID_18_);fill:#3C6FE9;}
	.st9{clip-path:url(#SVGID_20_);fill:#18243F;}
	.st10{clip-path:url(#SVGID_22_);fill:#3C6FE9;}
	.st11{clip-path:url(#SVGID_24_);fill:#3C6FE9;}
	.st12{clip-path:url(#SVGID_26_);fill:#18243F;}
	.st13{clip-path:url(#SVGID_28_);fill:#18243F;}
	.st14{clip-path:url(#SVGID_30_);fill:#18243F;}
	.st15{clip-path:url(#SVGID_32_);fill:#18243F;}
	.st16{clip-path:url(#SVGID_34_);fill:#18243F;}
	.st17{clip-path:url(#SVGID_36_);fill:#18243F;}
	.st18{clip-path:url(#SVGID_38_);fill:#18243F;}
	.st19{clip-path:url(#SVGID_40_);fill:#18243F;}
	.st20{clip-path:url(#SVGID_42_);fill:#18243F;}
</style>
<g>
	<g>
		<g>
			<g>
				<defs>
					<rect id="SVGID_1_" x="31.2" y="33" width="187.6" height="84"/>
				</defs>
				<clipPath id="SVGID_2_">
					<use xlink:href="#SVGID_1_"  style="overflow:visible;"/>
				</clipPath>
				<path class="st0" d="M94.2,99.5c1.1,0,2,0.3,2.8,1c0.7,0.7,1.2,1.5,1.4,2.6h-8.3c0.2-1,0.6-2,1.4-2.6
					C92.1,99.8,93.1,99.5,94.2,99.5 M101.6,104.3c0-1.5-0.3-2.8-0.9-3.9c-0.6-1.2-1.5-2-2.6-2.6c-1.1-0.6-2.4-0.9-3.8-0.9
					s-2.7,0.3-3.9,1c-1.2,0.6-2,1.5-2.7,2.6c-0.7,1.2-1,2.4-1,3.9c0,1.4,0.3,2.7,1,3.9c0.7,1.2,1.6,2,2.8,2.6c1.2,0.6,2.6,1,4.2,1
					c1.2,0,2.4-0.2,3.4-0.6c1-0.4,1.8-1,2.5-1.8l-1.8-2.1c-1,1-2.3,1.6-4,1.6c-1.2,0-2.3-0.3-3.1-0.9c-0.9-0.6-1.4-1.5-1.6-2.6h11.6
					C101.6,104.8,101.6,104.5,101.6,104.3 M85.6,108.3c-0.5,0.4-1.2,0.6-1.9,0.6s-1.2-0.2-1.5-0.6c-0.4-0.4-0.5-0.9-0.5-1.6v-6.9
					h3.9V97h-3.9v-3.3h-3.4V97h-2.4v2.7h2.4v7c0,1.6,0.4,2.8,1.3,3.7c0.9,0.9,2.1,1.2,3.8,1.2c0.6,0,1.2-0.1,1.8-0.2
					c0.6-0.2,1-0.4,1.5-0.7L85.6,108.3z M72.2,94.6c0.6,0,1.2-0.2,1.6-0.6c0.4-0.4,0.6-0.9,0.6-1.5c0-0.6-0.2-1-0.6-1.4
					c-0.4-0.4-0.9-0.6-1.5-0.6s-1.2,0.2-1.5,0.6c-0.4,0.4-0.6,0.9-0.6,1.5c0,0.6,0.2,1,0.6,1.5C71.1,94.5,71.6,94.6,72.2,94.6
					 M70.4,111.5h3.4V96.9h-3.4V111.5L70.4,111.5z M62.1,96.7c-1.1,0-2,0.2-2.9,0.5c-0.9,0.4-1.6,0.9-2.2,1.5v-1.9h-3.3v14.6h3.4
					V104c0-1.4,0.4-2.5,1.1-3.3c0.7-0.7,1.7-1.1,3-1.1c1.1,0,2,0.3,2.6,1c0.6,0.7,0.9,1.6,0.9,2.9v7.9h3.4V103
					c0-2.1-0.6-3.7-1.7-4.8C65.4,97.3,63.9,96.7,62.1,96.7 M43.9,108c-1.3,0-2.4-0.4-3.2-1.2s-1.2-1.8-1.2-3c0-1.2,0.4-2.2,1.2-3
					c0.8-0.7,1.9-1.2,3.2-1.2c1.3,0,2.3,0.4,3.2,1.2c0.8,0.7,1.2,1.8,1.2,3c0,1.2-0.4,2.3-1.2,3C46.3,107.5,45.2,108,43.9,108
					 M48.5,96.9v2c-0.6-0.7-1.3-1.2-2.2-1.6c-0.9-0.4-1.8-0.5-2.9-0.5c-1.4,0-2.6,0.3-3.8,0.9c-1.1,0.6-2,1.4-2.6,2.5
					c-0.7,1-1,2.3-1,3.7s0.3,2.6,1,3.7c0.7,1.1,1.5,1.9,2.6,2.5s2.4,0.9,3.8,0.9c1,0,1.9-0.2,2.8-0.5c0.9-0.3,1.5-0.8,2.2-1.5v0.7
					c0,1.5-0.4,2.6-1.1,3.3c-0.7,0.7-1.9,1.1-3.5,1.1c-1,0-2-0.2-3-0.5c-1-0.3-1.8-0.7-2.4-1.3l-1.5,2.6c0.8,0.7,1.8,1.2,3.1,1.5
					c1.2,0.4,2.6,0.6,4,0.6c5.2,0,7.9-2.6,7.9-7.7V96.9H48.5L48.5,96.9z M31.2,111.5h3.6V92.5h-3.6V111.5z"/>
			</g>
		</g>
		<g>
			<g>
				<defs>
					<rect id="SVGID_3_" x="31.2" y="33" width="187.6" height="84"/>
				</defs>
				<clipPath id="SVGID_4_">
					<use xlink:href="#SVGID_3_"  style="overflow:visible;"/>
				</clipPath>
				<path class="st1" d="M212.9,111.7c1.8,0,3.3-0.4,4.4-1.1c1-0.7,1.6-1.7,1.6-3c0-0.9-0.2-1.7-0.7-2.2c-0.5-0.6-1.1-0.9-1.8-1.1
					c-0.7-0.2-1.6-0.4-2.8-0.7c-0.9-0.2-1.7-0.3-2.2-0.5c-0.6-0.2-1-0.4-1.4-0.7s-0.6-0.7-0.6-1.3c0-0.7,0.3-1.3,0.9-1.7
					c0.6-0.4,1.5-0.7,2.8-0.7c1.7,0,3.1,0.4,4.2,1.2l0.9-1.5c-0.6-0.4-1.4-0.7-2.3-1c-0.9-0.2-1.8-0.4-2.8-0.4
					c-1.8,0-3.2,0.4-4.2,1.2c-1,0.7-1.5,1.7-1.5,3c0,1,0.2,1.7,0.7,2.3c0.5,0.6,1.1,0.9,1.8,1.2s1.7,0.4,2.8,0.7
					c0.9,0.1,1.6,0.3,2.1,0.4c0.6,0.2,1,0.4,1.3,0.7c0.4,0.3,0.5,0.7,0.5,1.2c0,0.7-0.3,1.4-0.9,1.7c-0.6,0.4-1.6,0.6-2.9,0.6
					c-1,0-1.9-0.1-2.8-0.4c-0.9-0.3-1.7-0.7-2.3-1.2l-0.9,1.5c0.6,0.5,1.4,0.9,2.5,1.3C210.6,111.5,211.7,111.7,212.9,111.7
					 M200.2,111.7c1.2,0,2.3-0.2,3.3-0.7c1-0.5,1.8-1.2,2.3-2.1l-1.5-1c-0.5,0.7-1.1,1.2-1.8,1.6c-0.7,0.4-1.5,0.5-2.4,0.5
					c-1,0-2-0.2-2.8-0.7c-0.8-0.5-1.5-1.1-2-2c-0.5-0.9-0.7-1.8-0.7-3c0-1.2,0.2-2.1,0.7-3c0.5-0.9,1.1-1.5,2-2
					c0.8-0.5,1.8-0.7,2.8-0.7c0.9,0,1.7,0.2,2.4,0.6c0.7,0.4,1.4,0.9,1.8,1.6l1.5-1c-0.6-0.9-1.4-1.7-2.3-2.1
					c-1-0.5-2.1-0.7-3.3-0.7c-1.4,0-2.7,0.3-3.8,0.9c-1.1,0.6-2,1.5-2.6,2.6c-0.6,1.1-1,2.4-1,3.8c0,1.4,0.3,2.6,1,3.8
					c0.6,1.1,1.5,2,2.6,2.6C197.5,111.4,198.8,111.7,200.2,111.7 M189.2,94.1c0.4,0,0.7-0.1,1-0.4c0.2-0.2,0.4-0.6,0.4-1
					c0-0.4-0.1-0.7-0.4-0.9c-0.2-0.2-0.6-0.4-1-0.4s-0.7,0.1-1,0.4c-0.2,0.2-0.4,0.6-0.4,1c0,0.4,0.1,0.7,0.4,1
					C188.4,93.9,188.8,94.1,189.2,94.1 M188.2,111.5h2V97.1h-2V111.5z M185.5,109.3c-0.2,0.2-0.6,0.4-1,0.6
					c-0.4,0.1-0.7,0.2-1.2,0.2c-0.8,0-1.4-0.2-1.8-0.7c-0.4-0.4-0.6-1.1-0.6-2v-8.6h4.4v-1.7h-4.4v-3.1h-2v3.1h-2.6v1.7h2.6v8.7
					c0,1.4,0.4,2.3,1.1,3.1c0.7,0.7,1.8,1.1,3.1,1.1c0.6,0,1.2-0.1,1.7-0.2c0.6-0.2,1-0.4,1.4-0.7L185.5,109.3z M173.8,97.2
					l-5.4,12.2L163,97.2h-2l6.5,14.4l-0.6,1.4c-0.4,0.9-0.9,1.5-1.3,1.8c-0.5,0.4-1,0.6-1.7,0.6c-1,0-1.9-0.4-2.6-1.1l-0.9,1.5
					c0.4,0.4,1,0.7,1.5,1c0.6,0.2,1.2,0.3,2,0.3c1,0,2-0.3,2.8-0.9c0.7-0.6,1.4-1.5,2-2.9l7.2-16.1H173.8z M157.2,111.5h2V91.3h-2
					V111.5z M146.9,110.1c-1.2,0-2-0.2-2.7-0.7c-0.6-0.5-1-1.2-1-2c0-1.7,1.2-2.6,3.7-2.6h4.5v2.3c-0.4,0.9-1,1.7-1.7,2.2
					C148.9,109.9,148,110.1,146.9,110.1 M147.6,97c-1.1,0-2.2,0.2-3.2,0.5c-1,0.3-1.9,0.8-2.6,1.4l0.9,1.5c0.6-0.6,1.3-0.9,2.2-1.2
					c0.9-0.3,1.7-0.4,2.6-0.4c1.4,0,2.3,0.3,3,1s1,1.6,1,2.8v0.9h-4.6c-1.9,0-3.3,0.4-4.2,1.1c-0.9,0.7-1.4,1.7-1.4,3
					c0,1.2,0.5,2.3,1.4,3s2.2,1.2,3.8,1.2c1.2,0,2.2-0.2,3-0.6c0.9-0.4,1.5-1,1.9-1.7v2.2h1.8v-8.9c0-1.8-0.5-3.3-1.5-4.2
					C150.9,97.5,149.5,97,147.6,97 M132.9,97c-1.2,0-2.3,0.2-3.3,0.7c-0.9,0.5-1.7,1.2-2.2,2v-2.6h-1.8v14.4h2v-7.6
					c0-1.6,0.4-2.9,1.4-3.8c0.9-0.9,2.2-1.4,3.7-1.4c1.4,0,2.5,0.4,3.2,1.2c0.7,0.8,1.1,1.9,1.1,3.4v8.2h2v-8.4c0-2-0.6-3.5-1.6-4.6
					C136.1,97.5,134.7,97,132.9,97 M109.4,104.8l4.6-10.3l4.6,10.3H109.4z M121.6,111.5h2.2l-8.7-19.1h-2l-8.7,19.1h2.1l2.3-5.1
					h10.6L121.6,111.5z"/>
			</g>
		</g>
		<g>
			<g>
				<defs>
					<rect id="SVGID_5_" x="31.2" y="33" width="187.6" height="84"/>
				</defs>
				<clipPath id="SVGID_6_">
					<use xlink:href="#SVGID_5_"  style="overflow:visible;"/>
				</clipPath>
				<path class="st2" d="M134.7,42.1c1,0,1.9-0.8,1.9-1.8c0-1-0.9-1.8-1.9-1.8s-1.9,0.8-1.9,1.8C132.8,41.3,133.6,42.1,134.7,42.1"
					/>
			</g>
		</g>
		<g>
			<g>
				<defs>
					<rect id="SVGID_7_" x="31.2" y="33" width="187.6" height="84"/>
				</defs>
				<clipPath id="SVGID_8_">
					<use xlink:href="#SVGID_7_"  style="overflow:visible;"/>
				</clipPath>
				<path class="st3" d="M115.4,42.1c1,0,1.9-0.8,1.9-1.8c0-1-0.9-1.8-1.9-1.8s-1.9,0.8-1.9,1.8C113.4,41.3,114.3,42.1,115.4,42.1"
					/>
			</g>
		</g>
		<g>
			<g>
				<defs>
					<rect id="SVGID_9_" x="31.2" y="33" width="187.6" height="84"/>
				</defs>
				<clipPath id="SVGID_10_">
					<use xlink:href="#SVGID_9_"  style="overflow:visible;"/>
				</clipPath>
				<path class="st4" d="M105.8,55.6c1,0,1.9-0.8,1.9-1.8s-0.9-1.8-1.9-1.8c-1,0-1.9,0.8-1.9,1.8C103.9,54.8,104.7,55.6,105.8,55.6"
					/>
			</g>
		</g>
		<g>
			<g>
				<defs>
					<rect id="SVGID_11_" x="31.2" y="33" width="187.6" height="84"/>
				</defs>
				<clipPath id="SVGID_12_">
					<use xlink:href="#SVGID_11_"  style="overflow:visible;"/>
				</clipPath>
				<path class="st5" d="M125,74.8c1.6,0,2.9-1.2,2.9-2.7s-1.3-2.7-2.9-2.7s-2.9,1.2-2.9,2.7C122.1,73.5,123.4,74.8,125,74.8"/>
			</g>
		</g>
		<g>
			<g>
				<defs>
					<rect id="SVGID_13_" x="31.2" y="33" width="187.6" height="84"/>
				</defs>
				<clipPath id="SVGID_14_">
					<use xlink:href="#SVGID_13_"  style="overflow:visible;"/>
				</clipPath>
				<path class="st6" d="M125,56.6c1.6,0,2.9-1.2,2.9-2.7s-1.3-2.7-2.9-2.7s-2.9,1.2-2.9,2.7C122.1,55.3,123.4,56.6,125,56.6"/>
			</g>
		</g>
		<g>
			<g>
				<defs>
					<rect id="SVGID_15_" x="31.2" y="33" width="187.6" height="84"/>
				</defs>
				<clipPath id="SVGID_16_">
					<use xlink:href="#SVGID_15_"  style="overflow:visible;"/>
				</clipPath>
				<path class="st7" d="M105.8,47.6c1.6,0,2.9-1.2,2.9-2.7s-1.3-2.7-2.9-2.7s-2.9,1.2-2.9,2.7C103,46.3,104.2,47.6,105.8,47.6"/>
			</g>
		</g>
		<g>
			<g>
				<defs>
					<rect id="SVGID_17_" x="31.2" y="33" width="187.6" height="84"/>
				</defs>
				<clipPath id="SVGID_18_">
					<use xlink:href="#SVGID_17_"  style="overflow:visible;"/>
				</clipPath>
				<path class="st8" d="M105.8,65.7c1.6,0,2.9-1.2,2.9-2.7s-1.3-2.7-2.9-2.7S103,61.5,103,63C103,64.4,104.2,65.7,105.8,65.7"/>
			</g>
		</g>
		<g>
			<g>
				<defs>
					<rect id="SVGID_19_" x="31.2" y="33" width="187.6" height="84"/>
				</defs>
				<clipPath id="SVGID_20_">
					<use xlink:href="#SVGID_19_"  style="overflow:visible;"/>
				</clipPath>
				<path class="st9" d="M144.3,47.6c1.6,0,2.9-1.2,2.9-2.7s-1.3-2.7-2.9-2.7c-1.6,0-2.9,1.2-2.9,2.7
					C141.4,46.3,142.7,47.6,144.3,47.6"/>
			</g>
		</g>
		<g>
			<g>
				<defs>
					<rect id="SVGID_21_" x="31.2" y="33" width="187.6" height="84"/>
				</defs>
				<clipPath id="SVGID_22_">
					<use xlink:href="#SVGID_21_"  style="overflow:visible;"/>
				</clipPath>
				<path class="st10" d="M144.3,65.7c1.6,0,2.9-1.2,2.9-2.7s-1.3-2.7-2.9-2.7c-1.6,0-2.9,1.2-2.9,2.7
					C141.4,64.4,142.7,65.7,144.3,65.7"/>
			</g>
		</g>
		<g>
			<g>
				<defs>
					<rect id="SVGID_23_" x="31.2" y="33" width="187.6" height="84"/>
				</defs>
				<clipPath id="SVGID_24_">
					<use xlink:href="#SVGID_23_"  style="overflow:visible;"/>
				</clipPath>
				<path class="st11" d="M125,38.5c1.6,0,2.9-1.2,2.9-2.7c0-1.5-1.3-2.7-2.9-2.7s-2.9,1.2-2.9,2.7C122.1,37.3,123.4,38.5,125,38.5"
					/>
			</g>
		</g>
		<g>
			<g>
				<defs>
					<rect id="SVGID_25_" x="31.2" y="33" width="187.6" height="84"/>
				</defs>
				<clipPath id="SVGID_26_">
					<use xlink:href="#SVGID_25_"  style="overflow:visible;"/>
				</clipPath>
				<path class="st12" d="M115.4,59.8c0.9,0,1.5-0.7,1.5-1.5s-0.7-1.5-1.5-1.5s-1.5,0.7-1.5,1.5C113.8,59.2,114.5,59.8,115.4,59.8"
					/>
			</g>
		</g>
		<g>
			<g>
				<defs>
					<rect id="SVGID_27_" x="31.2" y="33" width="187.6" height="84"/>
				</defs>
				<clipPath id="SVGID_28_">
					<use xlink:href="#SVGID_27_"  style="overflow:visible;"/>
				</clipPath>
				<path class="st13" d="M125,46.3c0.9,0,1.5-0.7,1.5-1.5s-0.7-1.5-1.5-1.5s-1.5,0.7-1.5,1.5C123.5,45.7,124.1,46.3,125,46.3"/>
			</g>
		</g>
		<g>
			<g>
				<defs>
					<rect id="SVGID_29_" x="31.2" y="33" width="187.6" height="84"/>
				</defs>
				<clipPath id="SVGID_30_">
					<use xlink:href="#SVGID_29_"  style="overflow:visible;"/>
				</clipPath>
				<path class="st14" d="M134.7,50.8c0.9,0,1.5-0.7,1.5-1.5s-0.7-1.5-1.5-1.5s-1.5,0.7-1.5,1.5C133.1,50.2,133.8,50.8,134.7,50.8"
					/>
			</g>
		</g>
		<g>
			<g>
				<defs>
					<rect id="SVGID_31_" x="31.2" y="33" width="187.6" height="84"/>
				</defs>
				<clipPath id="SVGID_32_">
					<use xlink:href="#SVGID_31_"  style="overflow:visible;"/>
				</clipPath>
				<path class="st15" d="M115.4,50.8c0.9,0,1.5-0.7,1.5-1.5s-0.7-1.5-1.5-1.5s-1.5,0.7-1.5,1.5C113.8,50.2,114.5,50.8,115.4,50.8"
					/>
			</g>
		</g>
		<g>
			<g>
				<defs>
					<rect id="SVGID_33_" x="31.2" y="33" width="187.6" height="84"/>
				</defs>
				<clipPath id="SVGID_34_">
					<use xlink:href="#SVGID_33_"  style="overflow:visible;"/>
				</clipPath>
				<path class="st16" d="M144.3,55.6c1,0,1.9-0.8,1.9-1.8s-0.9-1.8-1.9-1.8c-1,0-1.9,0.8-1.9,1.8C142.3,54.8,143.2,55.6,144.3,55.6
					"/>
			</g>
		</g>
		<g>
			<g>
				<defs>
					<rect id="SVGID_35_" x="31.2" y="33" width="187.6" height="84"/>
				</defs>
				<clipPath id="SVGID_36_">
					<use xlink:href="#SVGID_35_"  style="overflow:visible;"/>
				</clipPath>
				<path class="st17" d="M134.7,69.3c1,0,1.9-0.8,1.9-1.8s-0.9-1.8-1.9-1.8s-1.9,0.8-1.9,1.8S133.6,69.3,134.7,69.3"/>
			</g>
		</g>
		<g>
			<g>
				<defs>
					<rect id="SVGID_37_" x="31.2" y="33" width="187.6" height="84"/>
				</defs>
				<clipPath id="SVGID_38_">
					<use xlink:href="#SVGID_37_"  style="overflow:visible;"/>
				</clipPath>
				<path class="st18" d="M115.4,69.3c1,0,1.9-0.8,1.9-1.8s-0.9-1.8-1.9-1.8s-1.9,0.8-1.9,1.8C113.4,68.5,114.3,69.3,115.4,69.3"/>
			</g>
		</g>
		<g>
			<g>
				<defs>
					<rect id="SVGID_39_" x="31.2" y="33" width="187.6" height="84"/>
				</defs>
				<clipPath id="SVGID_40_">
					<use xlink:href="#SVGID_39_"  style="overflow:visible;"/>
				</clipPath>
				<path class="st19" d="M134.7,59.8c0.9,0,1.5-0.7,1.5-1.5s-0.7-1.5-1.5-1.5s-1.5,0.7-1.5,1.5C133.1,59.2,133.8,59.8,134.7,59.8"
					/>
			</g>
		</g>
		<g>
			<g>
				<defs>
					<rect id="SVGID_41_" x="31.2" y="33" width="187.6" height="84"/>
				</defs>
				<clipPath id="SVGID_42_">
					<use xlink:href="#SVGID_41_"  style="overflow:visible;"/>
				</clipPath>
				<path class="st20" d="M125,64.4c0.9,0,1.5-0.7,1.5-1.5c0-0.8-0.7-1.5-1.5-1.5s-1.5,0.7-1.5,1.5C123.5,63.7,124.1,64.4,125,64.4"
					/>
			</g>
		</g>
	</g>
</g>
</svg>
