<?xml version="1.0" encoding="utf-8"?>
<!-- Generator: Adobe Illustrator 23.0.1, SVG Export Plug-In . SVG Version: 6.00 Build 0)  -->
<svg version="1.1" xmlns="http://www.w3.org/2000/svg" xmlns:xlink="http://www.w3.org/1999/xlink" x="0px" y="0px"
	 viewBox="0 0 367 185" style="enable-background:new 0 0 367 185;" xml:space="preserve">
<style type="text/css">
	.st0{fill:#18243F;}
	.st1{clip-path:url(#SVGID_2_);fill:#18243F;}
	.st2{clip-path:url(#SVGID_2_);fill:#31B096;}
</style>
<g id="Layer_2">
</g>
<g id="Layer_1">
	<path class="st0" d="M537.6,40.9c2.4,0,4.6-0.5,6.5-1.5c1.9-1,3.4-2.5,4.5-4.3c1.1-1.8,1.6-3.9,1.6-6.2s-0.5-4.4-1.6-6.2
		c-1.1-1.8-2.6-3.2-4.5-4.3c-1.9-1-4.1-1.5-6.5-1.5c-2.4,0-4.5,0.5-6.4,1.5c-1.9,1-3.4,2.4-4.5,4.3c-1.1,1.8-1.6,3.9-1.6,6.2
		s0.5,4.4,1.6,6.2c1.1,1.8,2.6,3.3,4.5,4.3C533.1,40.4,535.2,40.9,537.6,40.9"/>
	<g>
		<defs>
			<rect id="SVGID_1_" x="25" y="25.3" width="317" height="135.7"/>
		</defs>
		<clipPath id="SVGID_2_">
			<use xlink:href="#SVGID_1_"  style="overflow:visible;"/>
		</clipPath>
		<path class="st1" d="M199,39.9c1.7,0,3.1-1.3,3.1-2.9c0-1.6-1.4-2.9-3.1-2.9c-1.7,0-3.1,1.3-3.1,2.9
			C195.9,38.6,197.3,39.9,199,39.9"/>
		<path class="st1" d="M168,39.9c1.7,0,3.1-1.3,3.1-2.9c0-1.6-1.4-2.9-3.1-2.9s-3.1,1.3-3.1,2.9C164.9,38.6,166.3,39.9,168,39.9"/>
		<path class="st1" d="M152.6,61.8c1.7,0,3.1-1.3,3.1-2.9c0-1.6-1.4-2.9-3.1-2.9s-3.1,1.3-3.1,2.9C149.5,60.5,150.9,61.8,152.6,61.8
			"/>
		<path class="st1" d="M183.5,92.5c2.6,0,4.6-2,4.6-4.4c0-2.4-2.1-4.4-4.6-4.4c-2.6,0-4.6,2-4.6,4.4
			C178.9,90.5,180.9,92.5,183.5,92.5"/>
		<path class="st1" d="M183.5,63.3c2.6,0,4.6-2,4.6-4.4c0-2.4-2.1-4.4-4.6-4.4c-2.6,0-4.6,2-4.6,4.4
			C178.9,61.3,180.9,63.3,183.5,63.3"/>
		<path class="st1" d="M152.6,48.7c2.6,0,4.6-2,4.6-4.4c0-2.4-2.1-4.4-4.6-4.4s-4.6,2-4.6,4.4C147.9,46.7,150,48.7,152.6,48.7"/>
		<path class="st2" d="M152.6,77.9c2.6,0,4.6-2,4.6-4.4c0-2.4-2.1-4.4-4.6-4.4s-4.6,2-4.6,4.4C147.9,75.9,150,77.9,152.6,77.9"/>
		<path class="st1" d="M214.4,48.7c2.6,0,4.6-2,4.6-4.4c0-2.4-2.1-4.4-4.6-4.4c-2.6,0-4.6,2-4.6,4.4
			C209.8,46.7,211.9,48.7,214.4,48.7"/>
		<path class="st2" d="M214.4,77.9c2.6,0,4.6-2,4.6-4.4c0-2.4-2.1-4.4-4.6-4.4c-2.6,0-4.6,2-4.6,4.4
			C209.8,75.9,211.9,77.9,214.4,77.9"/>
		<path class="st2" d="M183.5,34c2.6,0,4.6-2,4.6-4.4c0-2.4-2.1-4.4-4.6-4.4c-2.6,0-4.6,2-4.6,4.4C178.9,32.1,180.9,34,183.5,34"/>
		<path class="st1" d="M168,68.5c1.4,0,2.5-1,2.5-2.3c0-1.3-1.1-2.3-2.5-2.3c-1.4,0-2.5,1-2.5,2.3C165.6,67.5,166.7,68.5,168,68.5"
			/>
		<path class="st1" d="M183.5,46.6c1.4,0,2.5-1,2.5-2.3c0-1.3-1.1-2.3-2.5-2.3c-1.4,0-2.5,1-2.5,2.3C181,45.6,182.1,46.6,183.5,46.6
			"/>
		<path class="st1" d="M199,53.9c1.4,0,2.5-1,2.5-2.3c0-1.3-1.1-2.3-2.5-2.3c-1.4,0-2.5,1-2.5,2.3C196.5,52.9,197.6,53.9,199,53.9"
			/>
		<path class="st1" d="M168,53.9c1.4,0,2.5-1,2.5-2.3c0-1.3-1.1-2.3-2.5-2.3c-1.4,0-2.5,1-2.5,2.3C165.6,52.9,166.7,53.9,168,53.9"
			/>
		<path class="st1" d="M214.4,61.8c1.7,0,3.1-1.3,3.1-2.9c0-1.6-1.4-2.9-3.1-2.9c-1.7,0-3.1,1.3-3.1,2.9
			C211.3,60.5,212.7,61.8,214.4,61.8"/>
		<path class="st1" d="M199,83.7c1.7,0,3.1-1.3,3.1-2.9c0-1.6-1.4-2.9-3.1-2.9c-1.7,0-3.1,1.3-3.1,2.9
			C195.9,82.4,197.3,83.7,199,83.7"/>
		<path class="st1" d="M168,83.7c1.7,0,3.1-1.3,3.1-2.9c0-1.6-1.4-2.9-3.1-2.9s-3.1,1.3-3.1,2.9C164.9,82.4,166.3,83.7,168,83.7"/>
		<path class="st1" d="M199,68.5c1.4,0,2.5-1,2.5-2.3c0-1.3-1.1-2.3-2.5-2.3c-1.4,0-2.5,1-2.5,2.3C196.5,67.5,197.6,68.5,199,68.5"
			/>
		<path class="st1" d="M183.5,75.8c1.4,0,2.5-1,2.5-2.3c0-1.3-1.1-2.3-2.5-2.3c-1.4,0-2.5,1-2.5,2.3C181,74.8,182.1,75.8,183.5,75.8
			"/>
		<path class="st1" d="M127.2,132.6c1.8,0,3.3,0.5,4.5,1.6c1.2,1.1,1.9,2.5,2.2,4.2h-13.4c0.3-1.7,1-3.1,2.2-4.2
			C124,133.1,125.5,132.6,127.2,132.6 M139.2,140.4c0-2.4-0.5-4.6-1.5-6.4c-1-1.8-2.4-3.3-4.3-4.3c-1.8-1-3.9-1.5-6.2-1.5
			c-2.3,0-4.4,0.5-6.3,1.6c-1.9,1-3.3,2.5-4.4,4.3c-1,1.8-1.6,3.9-1.6,6.2c0,2.3,0.5,4.4,1.6,6.3c1.1,1.8,2.6,3.3,4.6,4.3
			c2,1,4.3,1.6,6.9,1.6c2,0,3.9-0.3,5.5-1c1.6-0.6,3-1.6,4-2.9l-3-3.4c-1.7,1.7-3.8,2.6-6.4,2.6c-2,0-3.7-0.5-5.1-1.5
			c-1.4-1-2.2-2.4-2.5-4.1h18.6C139.2,141.3,139.2,140.8,139.2,140.4 M113.3,146.9c-0.8,0.7-1.9,1-3.1,1c-1.1,0-1.9-0.3-2.4-0.9
			c-0.6-0.6-0.8-1.5-0.8-2.6V133h6.3v-4.4H107v-5.4h-5.5v5.4h-3.9v4.4h3.9v11.4c0,2.6,0.7,4.6,2.1,5.9c1.4,1.4,3.4,2,6,2
			c1,0,2-0.1,2.9-0.4c0.9-0.3,1.7-0.7,2.4-1.2L113.3,146.9z M91.5,124.5c1,0,1.9-0.3,2.5-1c0.7-0.7,1-1.5,1-2.5c0-0.9-0.3-1.7-1-2.3
			c-0.7-0.6-1.5-0.9-2.5-0.9c-1,0-1.8,0.3-2.5,1c-0.7,0.6-1,1.4-1,2.4c0,0.9,0.3,1.7,1,2.4C89.7,124.2,90.5,124.5,91.5,124.5
			 M88.8,152.1h5.5v-23.7h-5.5V152.1z M75.2,128.1c-1.7,0-3.3,0.3-4.7,0.8c-1.4,0.6-2.5,1.4-3.5,2.5v-3.1h-5.3v23.7h5.5v-12
			c0-2.3,0.6-4.1,1.8-5.3c1.2-1.2,2.8-1.8,4.8-1.8c1.8,0,3.2,0.5,4.2,1.6c1,1.1,1.5,2.6,1.5,4.7v12.9h5.5v-13.6c0-3.4-0.9-6-2.7-7.8
			S78.2,128.1,75.2,128.1 M45.6,146.3c-2.1,0-3.9-0.6-5.2-1.9c-1.3-1.3-2-2.9-2-4.9c0-2,0.7-3.6,2-4.8c1.3-1.2,3.1-1.9,5.2-1.9
			c2.1,0,3.8,0.6,5.2,1.9c1.3,1.2,2,2.9,2,4.8c0,2-0.7,3.6-2,4.9C49.5,145.7,47.7,146.3,45.6,146.3 M53,128.4v3.1
			c-0.9-1.2-2.1-2-3.5-2.6c-1.4-0.6-3-0.8-4.7-0.8c-2.2,0-4.3,0.5-6.1,1.4c-1.8,0.9-3.3,2.3-4.3,4c-1,1.7-1.6,3.7-1.6,6
			c0,2.2,0.5,4.2,1.6,6c1,1.7,2.5,3.1,4.3,4.1c1.8,1,3.9,1.4,6.1,1.4c1.6,0,3.1-0.3,4.5-0.8c1.4-0.5,2.5-1.3,3.5-2.3v1.2
			c0,2.4-0.6,4.2-1.8,5.4c-1.2,1.2-3.1,1.8-5.7,1.8c-1.6,0-3.2-0.3-4.8-0.8s-2.9-1.2-3.9-2.1l-2.5,4.2c1.3,1.1,3,1.9,5.1,2.5
			c2,0.6,4.2,0.9,6.5,0.9c8.5,0,12.8-4.2,12.8-12.5v-20.1H53z M25,152.1h5.8v-31H25V152.1z"/>
		<path class="st2" d="M338.9,128.8l-8.8,19.8l-8.8-19.8h-3.3l10.4,23.3l-1,2.3c-0.7,1.4-1.4,2.4-2.1,3c-0.8,0.6-1.7,0.9-2.7,0.9
			c-1.7,0-3.1-0.6-4.3-1.8l-1.5,2.3c0.7,0.7,1.6,1.2,2.5,1.6c1,0.4,2,0.5,3.1,0.5c1.7,0,3.2-0.5,4.5-1.4c1.2-0.9,2.3-2.5,3.3-4.7
			l11.7-26.1H338.9z M307.3,128.6c-2.1,0-3.9,0.4-5.5,1.3c-1.6,0.9-2.8,2.1-3.7,3.6c-0.7-1.6-1.8-2.9-3.2-3.7
			c-1.4-0.8-3.1-1.2-5.1-1.2c-1.9,0-3.6,0.4-5.1,1.2c-1.5,0.8-2.6,1.9-3.5,3.3v-4.3h-3v23.3h3.1v-12.2c0-2.6,0.7-4.7,2.1-6.2
			c1.4-1.5,3.3-2.2,5.7-2.2c2.2,0,3.8,0.6,5,1.9c1.2,1.3,1.8,3.1,1.8,5.5v13.2h3.1v-12.2c0-2.6,0.7-4.7,2.1-6.2
			c1.4-1.5,3.3-2.2,5.7-2.2c2.1,0,3.8,0.6,4.9,1.9c1.2,1.3,1.8,3.1,1.8,5.5v13.2h3.1v-13.5c0-3.3-0.8-5.8-2.5-7.4
			C312.5,129.4,310.2,128.6,307.3,128.6 M262.5,131.3c2.3,0,4.2,0.7,5.7,2.2c1.5,1.4,2.4,3.3,2.6,5.6h-16.5c0.2-2.3,1.1-4.2,2.6-5.6
			C258.4,132,260.3,131.3,262.5,131.3 M273.8,140.4c0-2.3-0.5-4.4-1.5-6.1c-1-1.8-2.3-3.2-4-4.2c-1.7-1-3.6-1.5-5.8-1.5
			c-2.2,0-4.1,0.5-5.8,1.5c-1.7,1-3.1,2.4-4.1,4.2c-1,1.8-1.5,3.8-1.5,6.1s0.5,4.3,1.6,6.1c1,1.8,2.5,3.2,4.3,4.2s4,1.5,6.4,1.5
			c1.9,0,3.6-0.3,5.1-1c1.6-0.7,2.8-1.6,3.9-2.8l-1.8-2c-0.9,1-1.9,1.8-3.1,2.3c-1.2,0.5-2.5,0.8-4,0.8c-2.6,0-4.7-0.7-6.4-2.2
			c-1.7-1.5-2.6-3.5-2.8-5.9h19.5L273.8,140.4z M234.8,149.5c-1.7,0-3.1-0.4-4.5-1.1c-1.3-0.8-2.3-1.8-3.1-3.2
			c-0.8-1.4-1.1-3-1.1-4.7c0-1.8,0.4-3.4,1.1-4.7c0.8-1.4,1.8-2.5,3.1-3.2c1.3-0.8,2.8-1.1,4.5-1.1c1.6,0,3.1,0.4,4.4,1.1
			c1.3,0.8,2.3,1.8,3.1,3.2c0.8,1.4,1.1,3,1.1,4.7c0,1.8-0.4,3.4-1.1,4.7c-0.8,1.4-1.8,2.5-3.1,3.2
			C237.9,149.1,236.4,149.5,234.8,149.5 M243.4,119.2v14c-1-1.5-2.2-2.7-3.7-3.4c-1.5-0.8-3.2-1.2-5.1-1.2c-2.2,0-4.2,0.5-5.9,1.5
			c-1.8,1-3.2,2.4-4.2,4.2c-1,1.8-1.5,3.9-1.5,6.2s0.5,4.4,1.5,6.2c1,1.8,2.4,3.2,4.2,4.2c1.8,1,3.8,1.5,5.9,1.5
			c2,0,3.7-0.4,5.3-1.2c1.6-0.8,2.8-2,3.7-3.6v4.6h3v-32.9H243.4z M208.1,149.8c-1.9,0-3.3-0.4-4.3-1.2c-1-0.8-1.6-1.9-1.6-3.2
			c0-2.8,2-4.2,6-4.2h7.3v3.8c-0.6,1.5-1.6,2.7-2.8,3.5C211.4,149.4,209.9,149.8,208.1,149.8 M209.2,128.6c-1.8,0-3.6,0.3-5.2,0.8
			c-1.7,0.5-3.1,1.3-4.3,2.3l1.4,2.3c1-0.9,2.1-1.5,3.5-2c1.4-0.5,2.8-0.7,4.3-0.7c2.2,0,3.8,0.5,4.9,1.6c1.1,1,1.7,2.6,1.7,4.6v1.4
			h-7.4c-3.1,0-5.4,0.6-6.9,1.8c-1.4,1.2-2.2,2.8-2.2,4.8c0,2,0.8,3.7,2.3,4.9c1.5,1.2,3.6,1.9,6.2,1.9c1.9,0,3.5-0.3,4.9-1
			c1.4-0.7,2.4-1.6,3.1-2.8v3.6h3v-14.5c0-3-0.8-5.2-2.4-6.8C214.6,129.4,212.3,128.6,209.2,128.6 M187.3,152.3c2,0,3.8-0.4,5.4-1.2
			c1.6-0.8,2.9-1.9,3.8-3.4l-2.3-1.6c-0.8,1.2-1.7,2-2.9,2.6c-1.2,0.6-2.5,0.8-3.9,0.8c-1.7,0-3.2-0.4-4.5-1.1
			c-1.3-0.8-2.4-1.8-3.1-3.2c-0.8-1.4-1.1-3-1.1-4.8c0-1.8,0.4-3.4,1.1-4.7c0.8-1.4,1.8-2.5,3.1-3.2c1.3-0.8,2.9-1.1,4.5-1.1
			c1.4,0,2.7,0.3,3.9,0.9c1.2,0.6,2.2,1.4,2.9,2.6l2.3-1.6c-0.9-1.5-2.2-2.7-3.7-3.4c-1.6-0.8-3.4-1.2-5.4-1.2
			c-2.3,0-4.4,0.5-6.2,1.5c-1.8,1-3.2,2.4-4.3,4.2c-1,1.8-1.6,3.8-1.6,6.1s0.5,4.3,1.6,6.1c1,1.8,2.5,3.2,4.3,4.2
			C183,151.8,185,152.3,187.3,152.3 M152,141.1l7.4-16.7l7.4,16.7H152z M171.9,152.1h3.5l-14.2-31h-3.2l-14.2,31h3.4l3.7-8.3h17.3
			L171.9,152.1z"/>
	</g>
</g>
</svg>
