<svg version="1.1" id="Layer_1" xmlns="http://www.w3.org/2000/svg" x="0" y="0" viewBox="0 0 238.8 113.4" xml:space="preserve"><style>.st0{fill:#18243f}.st1{fill:#ebaf41}</style><path class="st0" d="M85 89.3c1.6 0 2.8.4 3.9 1.3s1.7 2 1.7 3.5H79.3c.3-1.6.8-2.7 1.9-3.5 1-.9 2.2-1.3 3.8-1.3m9.9 6.4c0-2-.4-3.9-1.3-5.2-.8-1.6-2-2.7-3.6-3.6-1.6-.8-3.2-1.3-5.1-1.3s-3.8.4-5.1 1.3c-1.6.8-2.8 2-3.6 3.6-.9 1.6-1.3 3.4-1.3 5.1 0 1.9.4 3.8 1.3 5.1.9 1.6 2.1 2.7 3.9 3.6 1.7.8 3.6 1.3 5.6 1.3 1.7 0 3.2-.3 4.7-.8 1.3-.7 2.4-1.3 3.4-2.4l-2.4-2.9c-1.5 1.5-3.2 2.1-5.2 2.1-1.7 0-3.2-.4-4.4-1.3-1.2-.8-1.9-1.9-2.1-3.5H95c-.1-.2-.1-.7-.1-1.1m-21.6 5.5c-.7.7-1.6.8-2.5.8-.9 0-1.6-.3-2-.8-.5-.5-.8-1.3-.8-2.1v-9.2h5v-3.6h-5.1v-4.7h-4.7v4.7h-3.4v3.8h3.4v9.4c0 2.1.7 3.9 1.7 5 1.2 1.2 2.9 1.7 5 1.7.8 0 1.7-.1 2.4-.4.8-.3 1.5-.7 1.9-1.1l-.9-3.5zM55.2 82.6c.8 0 1.6-.3 2.1-.8.7-.7.8-1.3.8-2 0-.8-.3-1.5-.8-1.9-.7-.5-1.3-.8-2.1-.8s-1.6.3-2.1.8c-.7.5-.8 1.2-.8 1.9 0 .8.3 1.6.8 1.9.6.5 1.3.9 2.1.9m-2.3 22.9h4.7V85.8h-4.7v19.7zm-11.4-20c-1.6 0-2.8.3-4 .8s-2.1 1.2-2.9 2v-2.5h-4.4v19.7h4.7v-9.9c0-1.9.5-3.4 1.6-4.6 1.1-1.1 2.3-1.6 4.2-1.6 1.6 0 2.7.4 3.5 1.3.8.9 1.3 2.1 1.3 3.9v10.7h4.7V94.1c0-2.9-.8-5-2.1-6.4-2-1.4-3.9-2.2-6.6-2.2M17 100.7c-1.7 0-3.2-.5-4.4-1.6-1.2-1.1-1.7-2.4-1.7-4.2s.7-2.9 1.7-4.2c1.2-1.1 2.5-1.6 4.4-1.6s3.2.5 4.4 1.6c1.2 1.1 1.7 2.4 1.7 4.2s-.6 3.1-1.7 4.1c-1 1.1-2.6 1.7-4.4 1.7m6.2-14.9v2.7c-.8-1.1-1.7-1.7-2.9-2.1-1.2-.5-2.4-.8-3.9-.8-1.9 0-3.6.4-5 1.2-1.6.8-2.7 1.9-3.6 3.4-.9 1.6-1.3 3.2-1.3 5 0 1.9.4 3.6 1.3 5 .9 1.5 2 2.5 3.6 3.4s3.2 1.3 5 1.3c1.3 0 2.7-.3 3.8-.7 1.2-.4 2-1.1 2.9-1.9v1.1c0 2-.5 3.6-1.6 4.7s-2.7 1.6-4.7 1.6c-1.3 0-2.7-.3-4.2-.7s-2.4-1.1-3.4-1.7l-2 3.5c1.1.9 2.5 1.7 4.3 2 1.7.5 3.5.8 5.4.8 7.1 0 10.6-3.5 10.6-10.5V86.2l-4.3-.4zM0 105.5h4.7V79.7H0v25.8z"/><path class="st1" d="M230.9 105.7c2.5 0 4.6-.5 5.8-1.6 1.2-1.1 2.1-2.4 2.1-4.2 0-1.3-.4-2.1-1.1-2.9-.7-.8-1.6-1.3-2.4-1.6-.9-.4-2.1-.7-3.8-.9-1.3-.3-2.1-.4-2.9-.7-.8-.3-1.3-.7-1.7-1.1-.5-.4-.8-1.1-.8-1.7 0-1.1.4-1.7 1.3-2.3.8-.7 2.1-.9 3.9-.9 2.1 0 4.2.7 5.6 1.7l1.2-2.1c-.8-.7-1.7-1.1-3.2-1.3-1.3-.4-2.5-.5-3.9-.5-2.4 0-4.4.5-5.6 1.6-1.5 1.1-2 2.4-2 4 0 1.3.4 2.3 1.1 3.1.7.8 1.6 1.3 2.4 1.6 1.1.4 2.1.7 3.9.9 1.2.1 2.1.4 2.9.7.8.3 1.3.5 1.7.9s.8 1.1.8 1.7c0 1.1-.4 1.7-1.3 2.4s-2.1.8-4 .8c-1.3 0-2.7-.1-3.9-.7-1.3-.4-2.1-.9-3.1-1.6l-1.2 2c.8.7 1.9 1.3 3.4 1.7 1.6.8 3.3 1 4.8 1m-18.6-17.4c1.9 0 3.5.7 4.7 1.7 1.3 1.3 1.9 2.7 2.1 4.7h-13.8c.1-1.9.9-3.5 2.1-4.7s3-1.7 4.9-1.7m9.2 7.5c0-1.9-.4-3.6-1.3-5-.9-1.6-1.9-2.7-3.4-3.5-1.5-.8-3.1-1.3-4.8-1.3-1.7 0-3.5.4-4.8 1.3-1.6.8-2.5 1.9-3.4 3.6-.8 1.6-1.3 3.2-1.3 5 0 1.9.4 3.6 1.3 5 .8 1.6 2 2.7 3.6 3.6 1.6.9 3.4 1.3 5.1 1.3 1.6 0 2.9-.3 4.4-.8s2.4-1.3 3.2-2.4l-1.6-1.7c-.8.8-1.7 1.6-2.7 1.9-1.1.4-2.1.7-3.4.7-2.1 0-4-.7-5.2-1.9-1.5-1.3-2.1-2.9-2.3-4.8h16.2l.4-1zm-27.8 9.9c1.7 0 3.2-.4 4.6-1.1s2.4-1.7 3.2-2.9l-1.9-1.3c-.7 1.1-1.6 1.7-2.4 2.1-1.1.5-2 .8-3.2.8-1.5 0-2.7-.4-3.9-.9-1.2-.7-1.9-1.6-2.7-2.7-.7-1.2-.9-2.4-.9-4s.4-2.8.9-4c.7-1.2 1.6-2 2.7-2.7 1.2-.7 2.4-.9 3.9-.9 1.2 0 2.1.3 3.2.8s1.7 1.3 2.4 2.1l1.9-1.3c-.8-1.3-1.7-2.1-3.2-2.9-1.3-.7-2.8-1.1-4.7-1.1-1.9 0-3.6.4-5.1 1.3-1.6.8-2.7 1.9-3.6 3.6-.8 1.6-1.3 3.2-1.3 5 0 1.9.4 3.6 1.3 5 .8 1.6 2 2.7 3.6 3.6 1.5 1.1 3.3 1.5 5.2 1.5m-14.8-23.9c.7 0 1.1-.1 1.5-.7.4-.4.7-.8.7-1.5 0-.5-.1-.9-.7-1.3-.4-.4-.8-.7-1.5-.7s-1.1.1-1.5.7c-.4.4-.7.8-.7 1.3s.1 1.1.7 1.3c.4.7.8.9 1.5.9m-1.5 23.7h2.7V86.2h-2.7v19.3zm-4.8-19.3l-7.2 16.5-7.2-16.5h-2.7l8.6 19.3h2.7l8.6-19.3h-2.8zm-26 3.7v-3.8h-2.5v19.3h2.7v-9.8c0-2.3.7-4.2 1.7-5.1 1.2-1.2 2.8-1.9 4.7-1.9h.7v-2.5c-1.7 0-3.4.4-4.7 1.1-.8.5-1.9 1.4-2.6 2.7m-15.4-1.6c1.9 0 3.5.7 4.7 1.7 1.3 1.3 1.9 2.7 2.1 4.7h-13.7c.1-1.9.9-3.5 2.1-4.7 1.5-1.3 2.9-1.7 4.8-1.7m9.4 7.5c0-1.9-.4-3.6-1.3-5-.9-1.6-1.9-2.7-3.4-3.5-1.5-.8-3.1-1.3-4.8-1.3-1.9 0-3.5.4-4.8 1.3-1.6.8-2.5 1.9-3.4 3.6-.8 1.6-1.3 3.2-1.3 5 0 1.9.4 3.6 1.3 5 .8 1.6 2 2.7 3.6 3.6 1.6.9 3.4 1.3 5.1 1.3 1.6 0 2.9-.3 4.4-.8 1.5-.5 2.4-1.3 3.2-2.4l-1.6-1.7c-.8.8-1.7 1.6-2.7 1.9-1.1.4-2.1.7-3.4.7-2.1 0-4-.7-5.2-1.9-1.5-1.3-2.1-2.9-2.3-4.8h16.2l.4-1zm-30.8 9.9c2.1 0 3.9-.4 5.2-.9 1.6-.7 2.5-1.6 3.2-2.5.8-1.1 1.1-2.1 1.1-3.6 0-1.6-.4-2.8-1.3-3.9-.8-.9-1.7-1.7-2.9-2-1.2-.5-2.7-.9-4.7-1.5-1.6-.4-2.9-.8-3.9-1.1-1.1-.4-1.7-.8-2.4-1.6-.7-.7-.9-1.6-.9-2.4 0-1.5.7-2.4 1.7-3.4s2.9-1.3 5-1.3c1.2 0 2.4.1 3.6.7 1.3.4 2.4.9 3.5 1.7l.9-2.1c-1.1-.8-2.1-1.3-3.8-1.7-1.5-.4-2.9-.7-4.4-.7-2.1 0-3.9.4-5.2 1.1-1.5.7-2.4 1.6-3.2 2.5-.7 1.1-1.1 2.1-1.1 3.6 0 1.6.4 2.9 1.3 3.9.8.9 1.7 1.7 2.9 2 1.2.5 2.7.9 4.7 1.5 1.7.4 2.9.8 3.9 1.1.9.4 1.7.8 2.3 1.5.7.7.9 1.6.9 2.4 0 1.3-.7 2.4-1.7 3.4-1.2.8-2.9 1.3-5.1 1.3-1.7 0-3.4-.4-4.7-.9-1.6-.7-2.8-1.3-3.8-2.3l-1.1 2.1c1.1 1.1 2.3 1.7 4.2 2.4 2 .5 3.9.7 5.8.7"/><circle class="st1" cx="119.5" cy="52.4" r="3.9"/><circle class="st0" cx="145.3" cy="40.3" r="3.9"/><circle class="st0" cx="145.3" cy="16.2" r="3.9"/><circle class="st0" cx="94.1" cy="16.2" r="3.9"/><circle class="st0" cx="94.1" cy="40.3" r="3.9"/><circle class="st0" cx="55.3" cy="79.7" r="3.9"/><circle class="st1" cx="119.5" cy="28.3" r="3.9"/><circle class="st1" cx="119.5" cy="3.9" r="3.9"/><circle class="st0" cx="94.1" cy="28.3" r="2.5"/><circle class="st0" cx="145.3" cy="28.3" r="2.5"/><circle class="st1" cx="132.5" cy="10.2" r="2.5"/><circle class="st1" cx="106.7" cy="10.2" r="2.5"/><circle class="st1" cx="106.7" cy="46.4" r="2.5"/><circle class="st1" cx="132.5" cy="46.4" r="2.5"/><circle class="st1" cx="178.8" cy="79.7" r="2.5"/><circle class="st1" cx="106.7" cy="22.3" r="2"/><circle class="st0" cx="106.7" cy="34.3" r="2"/><circle class="st1" cx="132.5" cy="34.3" r="2"/><circle class="st0" cx="119.5" cy="40.3" r="2"/><circle class="st0" cx="119.5" cy="16.2" r="2"/><circle class="st0" cx="132.5" cy="22.3" r="2"/></svg>