<svg xmlns="http://www.w3.org/2000/svg" viewBox="0 0 42.5 42.5"><circle cx="88.7" cy="21.3" r="21.3" fill="#4367af"/><circle cx="21.3" cy="21.3" r="21.3" fill="#153559"/><path d="M82.7 34.3h-5.4V16.9h5.4v17.4zM80 14.5c-1.7 0-3.1-1.4-3.1-3.1s1.4-3.1 3.1-3.1 3.1 1.4 3.1 3.1-1.4 3.1-3.1 3.1zm22.9 19.8h-5.4v-8.4c0-2 0-4.6-2.8-4.6s-3.2 2.2-3.2 4.4v8.6h-5.4V16.9h5.2v2.4h.1c.7-1.4 2.5-2.8 5.1-2.8 5.5 0 6.5 3.6 6.5 8.3l-.1 9.5zm-84.7 0V22.6h-3.9V18h3.9v-3.6c0-4 2.4-6.1 5.9-6.1 1.7 0 3.1.1 3.6.2v4.1h-2.4c-1.9 0-2.3.9-2.3 2.2V18h4.3l-.6 4.6H23v11.6" fill="#fff"/></svg>