<?xml version="1.0" encoding="utf-8"?>
<!-- Generator: Adobe Illustrator 23.0.2, SVG Export Plug-In . SVG Version: 6.00 Build 0)  -->
<svg version="1.1" id="Layer_1" xmlns="http://www.w3.org/2000/svg" xmlns:xlink="http://www.w3.org/1999/xlink" x="0px" y="0px"
	 viewBox="0 0 141.7 98.6" style="enable-background:new 0 0 141.7 98.6;" xml:space="preserve">
<style type="text/css">
	.st0{opacity:0.1;fill:#89DAF8;enable-background:new    ;}
	.st1{fill:#444053;}
	.st2{fill:none;stroke:#444053;stroke-miterlimit:10;}
	.st3{fill:#D2D4DE;}
	.st4{opacity:0.1;enable-background:new    ;}
	.st5{fill:#18243F;}
	.st6{fill:#DFE3EF;}
	.st7{fill:#FFFFFF;}
	.st8{fill:url(#SVGID_1_);}
	.st9{fill:#65617D;}
	.st10{fill:#FBBEBE;}
	.st11{fill:#E7EFFD;}
	.st12{fill:#3F3D56;}
	.st13{fill:#E3A79F;}
	.st14{opacity:0.1;}
	.st15{opacity:0.1;fill:#6C63FF;enable-background:new    ;}
	.st16{fill:#3C6FE9;}
	.st17{opacity:0.2;fill:#6C63FF;enable-background:new    ;}
	.st18{opacity:0.5;fill:#6C63FF;enable-background:new    ;}
	.st19{fill:url(#SVGID_2_);}
	.st20{fill:#2D293D;}
	.st21{fill:#575988;}
	.st22{opacity:5.000000e-02;enable-background:new    ;}
	.st23{opacity:5.000000e-02;}
	.st24{fill:#FFCDD3;}
	.st25{fill:#DCE6F2;}
	.st26{fill:#656691;}
	.st27{opacity:0.1;fill:#FFFFFF;enable-background:new    ;}
	.st28{fill:url(#SVGID_3_);}
	.st29{fill:url(#SVGID_4_);}
	.st30{fill:url(#SVGID_5_);}
	.st31{fill:#EBAF41;}
	.st32{fill:#31B096;}
	.st33{fill:#2196F3;}
	.st34{fill:#F5F5F5;}
	.st35{fill:#153559;}
	.st36{fill:#E9425E;}
	.st37{opacity:0.7;}
	.st38{opacity:0.7;fill:#31B096;enable-background:new    ;}
	.st39{opacity:0.7;fill:#E9425E;enable-background:new    ;}
	.st40{opacity:0.7;fill:#EBAF41;enable-background:new    ;}
</style>
<title>data trends</title>
<path class="st0" d="M72.9,17.1c-8.9,1.5-17.8,0.7-26.4-0.4c-8.6-1.1-17.2-2.5-26.1-2.2c-5.7,0.2-12.1,1.3-16.1,4.8
	C0.5,22.6,0,27.1,0,31.2c0,3.1,0.3,6.3,2.4,8.8c1.5,1.7,3.7,3,5.4,4.6c5.9,5.6,4.2,14.2,0.5,21.5c-1.7,3.4-3.9,6.8-5.1,10.3
	C2,79.9,1.9,83.7,4.1,86.6c2.2,2.9,6.4,4.5,10.7,5.4c8.8,1.8,18.7,0.9,28.2-0.4c21-2.9,41.8-7.6,62.5-12.2c7.7-1.7,15.4-3.5,22.8-6
	c4.1-1.4,8.3-3.2,10.9-6c3.3-3.6,3.4-8.4,0.1-11.4c-5.5-5-17.9-4-22.2-9.7c-2.4-3.1-1.4-7.3,0.4-11c3.9-7.9,11.5-15.7,10.4-23.6
	c-0.7-5.5-6-10-13.1-11.3C107.5-0.9,98,1.3,93.9,6.7C89.6,12.3,80.8,15.8,72.9,17.1z"/>
<path class="st1" d="M111,14.5L111,14.5c-3.3,4.3-3.6,10.8-3.6,10.9l-0.7-0.8C106.7,24.5,107.6,18.7,111,14.5z"/>
<path class="st2" d="M112.6,24.8c0,0-1.8-3.8-0.2-6.3"/>
<path class="st2" d="M115.7,15.1c0,0-2.5,2.4-2.2,3.7"/>
<path class="st2" d="M114.2,14.3c0,0-2.4,0.4-2.7-0.3"/>
<path class="st2" d="M111.1,11.4c0,0,1.2,1.6,1.5,1.2"/>
<path class="st2" d="M108.9,12.8c0,0,0,3.5-1,3.8"/>
<path class="st2" d="M101.1,17.3c0,0,3.8,0.3,5.6-1.6"/>
<path class="st2" d="M108,8.6c0,0-0.9,3.6-3.5,4.5"/>
<path class="st2" d="M98.8,13.6c0,0,2.7,0.9,5-1.4"/>
<path class="st2" d="M98.9,8.9c0,0,2.2,0,2.8-0.7"/>
<ellipse class="st0" cx="84.3" cy="96.5" rx="44.1" ry="2.1"/>
<path class="st3" d="M83.4,93.4v1H54.6v-0.8c4.9-1.8,7.4-7.3,5.6-12.2c-0.9-2.4-2.7-4.3-4.9-5.3h28c-2.6,1.2-4.5,3.5-5.2,6.3
	c-1,3.8,0.5,7.8,3.7,10C82.2,92.8,82.8,93.2,83.4,93.4z"/>
<path class="st4" d="M83.2,76.1c-2.6,1.2-4.5,3.5-5.2,6.3H60.5c-0.7-2.8-2.6-5.1-5.2-6.3H83.2z"/>
<path class="st3" d="M21.5,71.1v5.5c0,3,2.2,5.5,4.9,5.5h84.9c2.7,0,4.9-2.5,4.9-5.5v-5.5H21.5z"/>
<path class="st4" d="M83.4,93.4v1H54.6v-0.8c0.8-0.3,1.5-0.7,2.2-1.2h24.9C82.2,92.8,82.8,93.2,83.4,93.4z"/>
<path class="st3" d="M46.2,92.7h45.6c0.6,0,1.2,0.5,1.2,1.2v0.5c0,0.6-0.5,1.2-1.2,1.2H46.2c-0.6,0-1.2-0.5-1.2-1.2v-0.5
	C45,93.3,45.6,92.7,46.2,92.7z"/>
<path class="st5" d="M116.3,11.1c0-2.7-2.2-4.9-4.9-4.9l0,0H26.5c-2.7,0-4.9,2.2-4.9,4.9l0,0v61.1h94.8L116.3,11.1L116.3,11.1z"/>
<path class="st6" d="M113.7,13.3v52.5c0,1.3-1.1,2.4-2.4,2.4l0,0H26.6c-1.3,0-2.4-1.1-2.4-2.4l0,0V13.3c0-1.3,1.1-2.4,2.4-2.4l0,0
	h84.8C112.7,10.9,113.8,12,113.7,13.3L113.7,13.3z"/>
<circle class="st7" cx="68.9" cy="8.5" r="1.1"/>
<circle class="st7" cx="68.9" cy="76.8" r="2.8"/>
<path class="st7" d="M113.7,13.3H24.1c0-1.3,1.1-2.4,2.4-2.4c0,0,0,0,0,0h84.8C112.7,10.9,113.7,12,113.7,13.3
	C113.7,13.3,113.7,13.3,113.7,13.3z"/>
<circle class="st6" cx="26.6" cy="12.1" r="0.6"/>
<circle class="st6" cx="28.4" cy="12.1" r="0.6"/>
<circle class="st6" cx="30.2" cy="12.1" r="0.6"/>
<rect x="32.6" y="20" class="st7" width="72.3" height="42.3"/>
<linearGradient id="SVGID_1_" gradientUnits="userSpaceOnUse" x1="-485.6541" y1="254.2476" x2="-485.6541" y2="227.0744" gradientTransform="matrix(1 0 0 1 604.25 -158.5306)">
	<stop  offset="0" style="stop-color:#808080;stop-opacity:0.25"/>
	<stop  offset="0.54" style="stop-color:#808080;stop-opacity:0.12"/>
	<stop  offset="1" style="stop-color:#808080;stop-opacity:0.1"/>
</linearGradient>
<path class="st8" d="M125.1,77.1c0-0.1-0.2-0.5-0.2-0.5c0,0-0.2-0.2-0.2-0.4s-0.3-0.4-0.3-0.4s-0.4-0.1-0.4-0.5s-0.4-0.3-0.4-0.3
	l0,0c0,0,0,0,0-0.1c0-0.1,0-0.3,0-0.4c0-0.1-0.1-0.2-0.2-0.2c0-0.1-0.1-0.2-0.1-0.3c-0.1-0.1-0.1-0.2-0.1-0.3s0-0.4-0.2-0.5
	c-0.2,0-0.4-0.1-0.4-0.1l0,0l0,0c0,0-0.1,0-0.1,0c0,0-0.1,0-0.1,0c-0.1-0.1-0.6-0.2-0.7-0.2c-0.1,0-0.3-0.1-0.4-0.1l-0.3-0.2
	c-0.1-0.1-0.2-0.2-0.2-0.3l0,0l0,0c0,0,0-0.1-0.1-0.2l0,0c0.1-0.1,0.2-0.2,0.2-0.3l0,0c0,0,0,0,0,0l0,0c0.1,0,0.1-0.1,0.1-0.2l0,0
	c0,0,0,0,0,0v0c0,0,0,0,0,0v0c0,0,0,0,0,0v0v0l0,0c0,0,0-0.1,0-0.1l0,0c0.1-0.2,0.1-0.3,0.2-0.5l0,0c0,0,0,0,0-0.1c0,0,0,0,0-0.1
	c0,0,0,0,0,0c0,0,0,0,0-0.1c0,0,0,0,0,0c0,0,0,0,0-0.1c0-0.2,0-0.3-0.1-0.5c0-0.1-0.1-0.2-0.2-0.3c-0.1-0.2-0.1-0.4-0.2-0.6
	c-0.1-0.3-0.5-0.4-0.8-0.3c-0.1,0-0.3,0.2-0.4,0.2c-0.2,0.1-0.4,0-0.6,0c-0.2,0-0.4,0-0.6,0.1c-0.2,0.1-0.2,0.4-0.4,0.6
	c-0.1,0.1-0.2,0.1-0.2,0.2c0,0-0.1,0.1-0.1,0.2v0v0c0,0,0,0,0,0v0c0,0,0,0,0,0l0,0c0,0,0,0,0,0c0,0,0,0,0,0c0,0,0,0,0,0l0,0l0,0l0,0
	v0c0,0,0,0.1,0.1,0.1c0,0,0,0.1,0,0.1s0,0.1-0.1,0.1c-0.1,0.1-0.2,0.3-0.3,0.5c0,0,0,0,0,0.1l0,0h0c0,0,0,0,0.1,0h0c0,0,0.1,0,0.1,0
	l0,0c0,0,0.1,0,0.1,0c0,0,0,0,0,0v0c0,0.6,0.3,1.1,0.9,1.4c0,0,0,0,0,0c0,0,0,0,0,0l0,0c0,0-0.1-0.1-0.2,0.1
	c-0.1,0.1-0.2,0.2-0.3,0.2c0,0-1.2,0.2-1.2,0.3l-0.6,0c0,0-0.2,0-0.2,0.4c0,0.4-0.1,0.4-0.1,0.4s-0.2,0.4-0.2,0.6
	c0,0.1-0.1,0.2-0.2,0.3l0,0.4c-0.1,0-0.3,0.1-0.3,0.2l0,0c0,0.1-0.1,0.3-0.2,0.4c0,0-0.4,0.3-0.4,0.6l-0.2,0.1c0,0-0.5-0.1-0.6-0.3
	l0,0l0,0l0,0c-0.1-0.1-0.1-0.1-0.2-0.2c0,0,0,0.1,0,0.1l0,0l-0.1-0.1c0,0-0.8-0.9-1.3-0.9l0,0c-0.1,0-0.2,0.1-0.2,0.2
	c-0.1,0.2-0.1,0.6,0,0.7l0.8,0.8l0,0l0.2,0.2c0,0.1,0,0.1-0.1,0.2l0,0c0,0,0,0,0,0v0l0,0c0,0,0,0,0,0v0c0,0.1,0,0.1,0,0.1l0,0l0,0
	l0,0v0l0,0c0.2,0.1,1.4,0.6,1.4,0.7c0.2,0.2,0.6,0.3,0.9,0.1c0.2-0.1,0.4-0.3,0.5-0.5c0.1-0.2,0.3-0.4,0.4-0.6
	c0-0.1,0.3-0.2,0.3-0.2s0,0.9-0.1,1.2s-0.4,1.7-0.4,1.7c0,0,0,0,0.1,0l0,0.1c0,0,0,0,0.1,0c0,0.2-0.1,0.9-0.1,0.9
	c0,0.2,0,0.3-0.1,0.5c-0.1,0.1-0.1,0.7-0.1,0.7l-0.1,0.4c0,0,0,0,0,0.1l0,0c0.1,0.1,0.2,0.3,0.3,0.4c0,0.1,0,0.1,0,0.2
	c0,0.1-0.1,0.2,0,0.3c0,0.2-0.1,0.4-0.1,0.6c0,0.2,0,0.3-0.1,0.5l-0.1,1.1c0,0-0.1,1,0,1.2c0,0.2,0,0.4,0,0.6c0,0,0.1,0.8,0.1,0.9
	c0,0.1-0.1,0.4-0.1,0.6s0,0.8,0,0.8s0,0.7,0.1,1c0,0.2,0,0.4,0,0.5c0,0.2,0,0.3-0.1,0.5c0,0-0.2,0.3,0.2,0.7s0.1,0.3,0.1,0.3
	s-0.3-0.1-0.2,0.1c0,0.3,0.1,0.2,0.1,0.2l-0.1,0.2h0c0,0,0,0,0,0c0,0-0.1,0.1-0.1,0.1c0,0-0.1,0.1-0.1,0.2c-0.3,0.3-0.6,0.6-0.9,0.8
	c-0.2,0.1-0.4,0.2-0.5,0.4c-0.1,0.1-0.1,0.2,0.1,0.2c0.5,0.1,1,0.1,1.4,0c0.3-0.1,0.5-0.2,0.7-0.4c0.2-0.1,0.4-0.1,0.6-0.1
	c0.3,0,0.8-0.3,0.8-0.3l0-0.1l0-0.3c0,0,0-0.1,0-0.2c0-0.1,0-0.2,0-0.2c0,0,0,0,0-0.1l0,0c0,0-0.1-0.3,0-0.4s0.1-0.9,0.1-0.9
	c-0.1-0.1-0.1-0.2-0.2-0.2c-0.1,0,0-0.4,0-0.5c0,0,0.1-1.1,0.1-1.1c0-0.1,0-0.3,0-0.5c0-0.1-0.1-0.7-0.1-0.7c0,0,0-0.1,0-0.1
	c0.1-0.1,0-0.8,0-0.8s0-0.3,0-0.4c0-0.2,0.1-0.4,0.1-0.5c0.1-0.1,0-0.5,0-0.5l0,0v0c0,0,0,0,0,0v0c0-0.2,0.1-0.4,0.1-0.6
	c0.1-0.3,0.2-0.8,0.2-0.8l0.6-1.6v0c0.2,0.3,0.3,0.7,0.3,1c0,0.2,0,0.5,0,0.7c0,0.3,0,0.6,0.1,0.9c0,0,0.1,1.1,0.1,1.1
	c0,0,0.1,0.9,0.2,1c0.1,0.1-0.1,0.5-0.1,0.5c0,0,0,1,0,1s-0.1,0.8-0.1,0.9c0,0.1-0.1,0.8,0,1s0,0.3,0,0.3s0.2,0.2,0.1,0.3
	c-0.2,0-0.3,0.2-0.3,0.4c0,0,0,0,0,0c0.1,0.2,0.2,0.5,0.3,0.7l0.1,0V94l0,0.4c0,0.1,0,0.3,0,0.5c0,0.1,0,0.3-0.1,0.5
	c0,0.1,0,0.1,0,0.1s0,0.3,0.7,0.2s0.9-0.4,0.9-0.4s0,0,0,0c0-0.1,0-0.2,0-0.3c0-0.1-0.2-0.6-0.2-0.6s0-0.3-0.1-0.4c0,0,0-0.1,0-0.1
	c0,0,0,0,0-0.1l0,0c0,0,0-0.2,0.1-0.3c0.1,0,0.1-0.2,0.1-0.3c0-0.1,0-0.3,0.1-0.4c0-0.1,0-0.1,0-0.2c0.1-0.1,0.2-0.7,0.2-0.7l0-2.5
	c0-0.2,0-0.4,0-0.6c0-0.2-0.1-0.5,0-0.6s0-0.5,0-0.5s0-0.9,0.1-1.1c0.1-0.2,0.1-1.6,0.1-1.6l0-0.9c0,0,0.2-0.2,0.2-1.3
	c0.2,0,0.5,0,0.5,0c0.1,0.1,0.5,0.4,0.8,0.2c0.1-0.1,0.2-0.2,0.3-0.2l-0.1-2c0.1,0.1,0.1,0.2,0.1,0.2c0-0.3,0.8-1.2,0.8-1.2
	s0.7-0.9,0.9-1c0.2-0.1,0.5-0.7,0.5-0.7c0-0.1,0.1-0.2,0.2-0.3C125.3,77.5,125,77.2,125.1,77.1z M123.4,77.8c-0.2,0-0.6,0.5-0.6,0.6
	c0,0.1,0,0.1-0.1,0.2c0,0,0-0.1,0-0.1c0-0.6-0.1-1.3-0.1-1.3c0-0.2,0-0.4,0-0.6l0,0l0,0c0.1,0.4,0.5,0.9,0.5,0.9s0.1,0.2,0.2,0.2
	C123.4,77.5,123.4,77.8,123.4,77.8L123.4,77.8z"/>
<path class="st9" d="M112.8,77.6c0,0,0.2-1.3,1-1.3l0.6,1.2l-0.4,0.3C114,77.8,113.2,77.8,112.8,77.6z"/>
<path class="st4" d="M114.4,77.5l-0.4,0.3c-0.3,0-0.7,0-1-0.1c-0.1,0-0.1,0-0.2-0.1c0,0,0,0,0,0l0,0c0-0.2,0.1-0.3,0.1-0.5
	c0-0.1,0-0.1,0.1-0.2c0.1-0.2,0.3-0.4,0.5-0.5c0.1,0,0.2-0.1,0.3-0.1h0l0,0l0.2,0.4L114.4,77.5z"/>
<path class="st9" d="M120.8,82.8c0,0,0.8-0.1,0.9,0c0.1,0,0.5,0.4,0.8,0.2s0.1-0.8,0.1-0.9s0-0.9,0-0.9l-0.5-0.6l-0.6-1.1l-1.2-0.1
	l0,1.8v0.9L120.8,82.8z"/>
<path class="st4" d="M120.8,82.8c0,0,0.8-0.1,0.9,0c0.1,0,0.5,0.4,0.8,0.2s0.1-0.8,0.1-0.9s0-0.9,0-0.9l-0.5-0.6l-0.6-1.1l-1.2-0.1
	l0,1.8v0.9L120.8,82.8z"/>
<path class="st10" d="M113.7,76.4c0,0-0.1,0.8-0.6,0.8c0,0-0.1-0.1-0.3-0.2c-0.4-0.3-1.1-0.9-0.9-1.5c0.3-0.8,1.6,0.7,1.6,0.7
	l0.1,0.1L113.7,76.4z"/>
<path class="st4" d="M113.7,76.4c0,0-0.1,0.8-0.6,0.8c0,0-0.1-0.1-0.3-0.2l0,0c0.1,0,0.2,0.1,0.3,0.1c0.1,0,0.3-0.1,0.3-0.2
	c0-0.1,0.1-0.2,0.1-0.3c0-0.1,0-0.1,0-0.2L113.7,76.4z"/>
<path class="st11" d="M113.5,77.8l-0.1-0.1l-0.4-0.5l-0.2-0.2c0.1,0,0.2,0.1,0.3,0.1c0.1,0,0.3-0.1,0.3-0.2c0-0.1,0.1-0.2,0.1-0.3
	c0.1-0.2,0.1-0.3,0-0.3c0.1,0.1,0.1,0.1,0.2,0.2l0,0l0,0l0,0l0.2,0.4c0,0,0,0,0,0C114.1,76.9,114.1,77.7,113.5,77.8z"/>
<path class="st9" d="M117.3,94.5c0,0-0.5,0.4-0.8,0.3c-0.2,0-0.4,0-0.5,0.1c-0.2,0.2-0.4,0.4-0.7,0.4c-0.4,0.1-1.1,0.1-1.4,0
	c-0.2,0-0.2-0.1-0.1-0.2c0.2-0.1,0.3-0.3,0.5-0.4c0.3-0.2,0.6-0.5,0.9-0.8c0-0.1,0-0.1,0.1-0.2c0,0,0.1-0.1,0.1-0.1
	c0.1-0.1,0.1-0.2,0.1-0.2l1.6,0c0,0,0,0.1,0,0.2c0,0.1,0,0.1,0,0.2c0,0.1,0,0.1,0,0.2L117.3,94.5L117.3,94.5z"/>
<path class="st9" d="M120.7,94.9c0,0.1,0,0.2,0,0.3c0,0,0,0,0,0s-0.1,0.3-0.8,0.4c-0.7,0.1-0.7-0.2-0.7-0.2s0,0,0-0.1
	c0-0.2,0-0.3,0.1-0.5c0-0.1,0-0.3,0-0.4l0-0.4v-0.3l1.2-0.1c0,0.1,0,0.2,0,0.3c0,0,0,0.1,0,0.1c0.1,0.1,0.1,0.4,0.1,0.4
	S120.7,94.8,120.7,94.9z"/>
<path class="st4" d="M117.2,93.5c0,0,0,0.1,0,0.2c-0.2,0-0.9,0.2-1.1,0.1c-0.2-0.1-0.4-0.1-0.7-0.2l0,0c0.1-0.1,0.1-0.2,0.1-0.2
	L117.2,93.5z"/>
<path class="st4" d="M120.3,93.8c-0.3,0-1,0.1-1.2,0.1v-0.3l1.2-0.1C120.3,93.7,120.3,93.7,120.3,93.8z"/>
<path class="st12" d="M121,84l0,0.9c0,0,0,1.4-0.1,1.6c-0.1,0.2-0.1,1.1-0.1,1.1s0.1,0.4,0,0.5c-0.1,0.1,0,0.4,0,0.6
	c0,0.2,0,0.4,0,0.6l0,2.5c0,0-0.1,0.6-0.2,0.7c0,0-0.1,0.1,0,0.2c0,0.1,0,0.3-0.1,0.4c0,0.1,0,0.2-0.1,0.3c-0.1,0.1-0.1,0.3-0.1,0.3
	c-0.3-0.1-1.4,0.1-1.4,0.1c-0.1-0.2-0.2-0.5-0.3-0.7c-0.1-0.2,0-0.4,0.2-0.5c0,0,0,0,0,0c0.1,0-0.1-0.3-0.1-0.3s0,0,0-0.3
	c-0.1-0.2,0-0.8,0-1l0.1-0.9c0,0,0-1,0-1c0,0,0.2-0.4,0.1-0.5c-0.1-0.1-0.2-0.9-0.2-1s-0.1-1.1-0.1-1.1s-0.1-0.7-0.1-0.9
	c0-0.2,0-0.5,0-0.7c0-0.3-0.1-0.7-0.3-1v0l-0.6,1.6c0,0-0.1,0.5-0.2,0.7c0,0.2-0.1,0.4-0.1,0.6v0c0,0,0,0,0,0v0l0,0c0,0,0,0.3,0,0.4
	c-0.1,0.2-0.1,0.3-0.1,0.5c0,0.1,0,0.4,0,0.4s0,0.7,0,0.8c0,0,0,0.1,0,0.1c0,0,0.1,0.5,0.1,0.7c0,0.1,0,0.3,0,0.4c0,0-0.1,1-0.1,1.1
	c0,0-0.1,0.4,0,0.5c0.1,0.1,0.2,0.1,0.2,0.2c0,0,0,0.8-0.1,0.9c-0.1,0.1,0,0.4,0,0.4s-0.9,0.2-1.1,0.1c-0.2-0.1-0.4-0.1-0.7-0.2
	l0.1-0.2c0,0,0,0.1-0.1-0.2c0-0.3,0.2-0.1,0.2-0.1s0.2,0-0.1-0.3c-0.3-0.3-0.2-0.7-0.1-0.7c0-0.2,0-0.3,0.1-0.5c0-0.2,0-0.3,0-0.5
	c0-0.2-0.1-1-0.1-1s0-0.5,0-0.7c-0.1-0.2,0-0.6,0.1-0.6c0-0.1-0.1-0.9-0.1-0.9c0-0.2,0-0.4,0-0.6c0-0.3,0-1.2,0-1.2l0.1-1.1
	c0-0.2,0.1-0.3,0.1-0.5c0-0.2,0-0.4,0.1-0.6c0-0.1,0-0.2,0-0.3c0-0.2,0.1-0.4,0.1-0.6l0.6-1.4l0.3-1.3l4.1,0c0,0,0,0.1,0,0.3
	s0.1,0.5,0.1,0.8c0,0.3,0.1,0.7,0.1,1.1C121.3,83.8,121,84,121,84z"/>
<path class="st10" d="M120.6,72.6l-1,1c0,0-1.2-0.5-1.1-0.7c0-0.1,0-0.3,0-0.5c0-0.4-0.1-0.8-0.1-0.8s2.2-0.3,2,0
	c-0.1,0.1-0.1,0.3,0,0.4C120.5,72.3,120.5,72.5,120.6,72.6z"/>
<path class="st4" d="M120.4,71.7c-0.1,0.1-0.1,0.1-0.1,0.3c-0.3,0.3-0.6,0.6-1.1,0.6c-0.2,0-0.5,0-0.7-0.2c0-0.4-0.1-0.8-0.1-0.8
	S120.6,71.4,120.4,71.7z"/>
<path class="st10" d="M120.8,71.1c0,0.8-0.6,1.6-1.5,1.6c-0.8,0-1.6-0.6-1.6-1.5c0,0,0-0.1,0-0.1v0c0-0.8,0.7-1.5,1.6-1.5
	C120.1,69.6,120.8,70.3,120.8,71.1z"/>
<path class="st4" d="M121,81.3c-0.2,0-0.9,0-1.6,0h0h-0.2h0c-0.9,0-1.8-0.2-2.1-0.1c-0.8,0.1,0.3-0.7,0.3-0.7
	c0.6,0.1,1.1,0.2,1.7,0.2l0.2,0c0.7,0,1.4-0.1,1.7-0.2C121,80.6,121,80.9,121,81.3z"/>
<path class="st13" d="M121,81.2c-0.2,0-0.9,0-1.6,0h0h-0.2h0c-0.9,0-1.8-0.2-2.1-0.1c-0.8,0.1,0.3-0.7,0.3-0.7
	c0.6,0.1,1.1,0.2,1.7,0.2l0.2,0c0.7,0,1.4-0.1,1.7-0.2C121,80.6,121,80.9,121,81.2z"/>
<path class="st4" d="M118.9,73.1l-1.2,0.6l-0.9,7.1c0,0,0.5-0.2,0.9-0.1c0.3,0.2,1.3,0,1.3,0s0.7,0,0.8,0c0.1,0.1,1.3-0.3,1.3-0.3
	s0.2-0.5,0-0.6s0-0.8,0-0.8l-0.1-5.1l-0.2-0.7l-0.6-0.3l-0.6,0.4l-0.3,0L118.9,73.1z"/>
<path class="st11" d="M118.9,73l-1.2,0.6l-0.9,7.1c0,0,0.5-0.2,0.9-0.1c0.3,0.2,1.3,0,1.3,0s0.7,0,0.8,0c0.1,0.1,1.3-0.3,1.3-0.3
	s0.2-0.5,0-0.6c-0.2-0.1,0-0.8,0-0.8l-0.1-5.1l-0.2-0.7l-0.6-0.3l-0.6,0.4l-0.3,0L118.9,73z"/>
<path class="st4" d="M118.8,73.3c0,0,0.3,0.4,0.3,0.5c0,0.1,0,0.3,0,0.3l-0.3,0.5c0,0-0.1,0.6-0.1,0.8s-0.2,1.3-0.2,1.3l-0.3,1.8
	l-0.3,2.4l0.3,0.6l0.4-0.3l0.5-4.2l0.1-0.8c0,0,0.1-1.5,0.1-1.7c0-0.2,0-0.4-0.1-0.6c0,0,0.1-0.4,0.4-0.5c0.3-0.1,0,0,0,0l-0.2-0.2
	l-0.2,0.1C119.4,73.3,118.9,73.1,118.8,73.3z"/>
<path class="st12" d="M118.8,73.3c0,0,0.3,0.4,0.3,0.5c0,0.1,0,0.3,0,0.3l-0.3,0.5c0,0-0.1,0.7-0.1,0.8c0,0.1-0.2,1.3-0.2,1.3
	l-0.3,1.8l-0.3,2.4l0.3,0.6l0.4-0.3l0.5-4.2l0.1-0.8c0,0,0.1-1.5,0.1-1.7c0-0.2,0-0.4-0.1-0.6c0,0,0.1-0.4,0.4-0.5c0.3-0.1,0,0,0,0
	l-0.2-0.2l-0.2,0.1C119.4,73.3,118.9,73.1,118.8,73.3z"/>
<path class="st4" d="M118.6,72.6c0,0,0,0-0.1,0.3c0,0.3-0.1,0.6-0.2,0.8c0,0,0.7-0.5,1-0.4L118.6,72.6z"/>
<path class="st11" d="M118.6,72.5c0,0,0,0-0.1,0.3c0,0.3-0.1,0.6-0.2,0.8c0,0,0.7-0.5,1-0.4L118.6,72.5z"/>
<path class="st4" d="M120.4,72.4l-1.1,0.9c0,0,0.9,0.5,1,0.7c0.1,0.1,0.2-1.3,0.2-1.3L120.4,72.4z"/>
<path class="st11" d="M120.5,72.3l-1.1,0.9c0,0,0.9,0.5,1,0.7c0.1,0.1,0.2-1.3,0.2-1.3L120.5,72.3z"/>
<path class="st4" d="M118.6,72.6c0,0-0.1-0.1-0.2,0.1c-0.1,0.1-0.2,0.2-0.3,0.2c0,0-1.2,0.2-1.2,0.3l-0.5,0c0,0-0.2,0-0.2,0.4
	s-0.1,0.4-0.1,0.4s-0.2,0.4-0.2,0.6c0,0.1-0.1,0.2-0.2,0.3l0.8,2.1c0,0,0,0.9-0.1,1.2c-0.1,0.3-0.4,1.7-0.4,1.7s0.1,0,0.1,0
	s-0.1,0.9-0.1,0.9c0,0.1,0,0.3-0.1,0.4c-0.1,0.1-0.1,0.7-0.1,0.7l-0.1,0.4c0,0,0.2,0.5,0.6,0.5c0.4-0.1,1.1-1.5,1.1-1.5l0.4-1.6
	l0.3-1.6l0.1-1.1l0.1-2.4l0.2-1.6C118.4,73.5,118.7,72.7,118.6,72.6z"/>
<path class="st9" d="M118.6,72.5c0,0-0.1-0.1-0.2,0.1c-0.1,0.1-0.2,0.2-0.3,0.2c0,0-1.2,0.2-1.2,0.3l-0.5,0c0,0-0.2,0-0.2,0.4
	c0,0.4-0.1,0.4-0.1,0.4s-0.2,0.4-0.2,0.6c0,0.1-0.1,0.2-0.2,0.3l0.8,2.1c0,0,0,0.9-0.1,1.2s-0.4,1.7-0.4,1.7s0.1,0,0.1,0
	s-0.1,0.9-0.1,0.9c0,0.1,0,0.3-0.1,0.4c-0.1,0.1-0.1,0.7-0.1,0.7l-0.1,0.4c0,0,0.2,0.5,0.6,0.5c0.4-0.1,1.1-1.5,1.1-1.5l0.4-1.6
	l0.3-1.6l0.1-1.1l0.1-2.4l0.2-1.6C118.4,73.5,118.7,72.6,118.6,72.5z"/>
<path class="st4" d="M114.4,77.5l-0.4,0.3c-0.3,0-0.7,0-1-0.1l-0.2-0.1l0,0l0,0c0.2,0.1,0.3,0.1,0.5,0c0.5-0.2,0.5-1.1,0.4-1.3
	c0,0,0,0,0,0l0,0l0,0c0,0,0,0,0,0l0,0l0,0l0.2,0.4c0,0,0,0,0,0L114.4,77.5z"/>
<path class="st9" d="M115.7,75l-0.2,0l0,0.4c-0.1,0-0.3,0.1-0.3,0.2c0,0.1-0.1,0.3-0.2,0.4c0,0-0.4,0.3-0.4,0.5l-0.2,0.1
	c0,0-0.5-0.1-0.6-0.3c0,0,0.2,1.7-1,1.3c0,0,1.4,0.6,1.5,0.7c0.2,0.2,0.6,0.3,0.9,0.1c0.2-0.1,0.4-0.3,0.5-0.5c0,0,0.4-0.5,0.4-0.6
	c0-0.1,0.3-0.2,0.3-0.2l0.6-1.3L115.7,75z"/>
<path class="st4" d="M120.3,73.2l0.2-0.9c0,0.1,0.1,0.2,0.2,0.3l0.3,0.2c0.1,0.1,0.2,0.1,0.4,0.1c0.1,0,0.6,0.1,0.7,0.2
	c0.1,0.1,0.3,0,0.3,0s0.2,0.1,0.4,0.1c0.2,0,0.3,0.4,0.2,0.5c0,0.1,0,0.3,0.1,0.3c0.1,0.1,0.1,0.2,0.1,0.3c0.1,0,0.2,0.1,0.2,0.2
	c0,0.1,0.1,0.3,0,0.4l-1,1.4c0,0.2,0,0.4,0,0.6c0,0.1,0.1,2.1,0.1,2.1l0.2,3.4c-0.1,0.1-0.2,0.2-0.3,0.2c-0.1,0-0.1-1.2-0.1-1.2
	s-1.5-2.2-1.5-2.2c-0.1-0.1-0.1-0.3-0.2-0.4c0-0.1-0.2-0.7-0.2-0.7l-0.3-1.3L120.3,73.2z"/>
<path class="st9" d="M123.5,75.1C123.5,75.1,123.5,75.2,123.5,75.1l-1,1.4l0,0c0,0.2,0,0.4,0,0.6c0,0.1,0,0.8,0.1,1.3
	c0,0.4,0.1,0.8,0.1,0.8l0.1,1.4l0.1,2c-0.1,0.1-0.2,0.2-0.3,0.2c-0.1,0-0.1-1.2-0.1-1.2s-1.5-2.2-1.5-2.2c-0.1-0.1-0.1-0.3-0.2-0.4
	c0-0.1-0.2-0.7-0.2-0.7l-0.3-1.3l0.1-3.9l0.1-0.9c0.1,0.1,0.1,0.2,0.2,0.3l0.3,0.2c0.1,0.1,0.2,0.1,0.4,0.1c0.1,0,0.6,0.1,0.7,0.2
	c0.1,0.1,0.3,0,0.3,0s0.2,0.1,0.4,0.1c0.2,0,0.3,0.4,0.2,0.5c0,0.1,0,0.3,0.1,0.3c0.1,0.1,0.1,0.2,0.1,0.3c0.1,0,0.2,0.1,0.2,0.2
	C123.5,74.8,123.5,74.9,123.5,75.1z"/>
<path class="st4" d="M115.6,92.4c0,0,1.4,0,1.4,0.3S115.6,92.4,115.6,92.4z"/>
<path class="st4" d="M115.9,92.7c0,0,0.9,0.1,0.7,0.3C116.3,93.1,115.9,92.7,115.9,92.7z"/>
<path class="st4" d="M119.3,92.2c0,0,1.5,0.1,1.3,0.3c-0.2,0.2-0.8,0.2-0.8,0.2C119.6,92.6,119.4,92.4,119.3,92.2z"/>
<path class="st4" d="M119.1,92.9c0,0,0.8,0.1,0.9,0.3C120,93.3,119.1,92.9,119.1,92.9z"/>
<path class="st4" d="M119.5,89c0,0,0.8,0.2,0.8,0.3L119.5,89z"/>
<path class="st4" d="M116.6,89.5c0,0-0.4,0.1,0,0.3C116.9,90.1,116.6,89.5,116.6,89.5z"/>
<path class="st4" d="M118.3,83.3c0,0,0.7-0.2,1-0.1c0.2,0.1,0.4,0.1,0.5,0.1L118.3,83.3z"/>
<path class="st4" d="M118.4,84L118.4,84l-0.6,1.6c0,0-0.1,0.5-0.2,0.7c0,0.2-0.1,0.4-0.1,0.6l0.5-3.3L118.4,84z"/>
<path class="st12" d="M119.4,81.2h-0.2h0l-0.1-0.6l0.2,0L119.4,81.2z"/>
<path class="st10" d="M122.4,80.5l-0.2,0.1l-0.5,0.4c0,0-1.5,0.8-1.9,0c-0.3-0.6,1.3-1.1,1.7-1.2l0.1,0L122.4,80.5z"/>
<path class="st4" d="M116.2,74.1c0,0,0.3,0.1,0.3,0.3C116.6,74.6,116.2,74.1,116.2,74.1z"/>
<path class="st4" d="M115.3,76c0,0-0.4,0.5-0.2,0.7S115.3,76,115.3,76z"/>
<path class="st4" d="M122.8,74.4c0,0-0.4,0-0.4,0.4L122.8,74.4z"/>
<path class="st4" d="M119.1,79.7c0,0,0.9-1.4,1.1-1.2L119.1,79.7z"/>
<path class="st4" d="M120.8,71.1c0,0.2-0.1,0.5-0.2,0.7h0c-0.1,0-0.1-0.1-0.2-0.2c-0.1-0.1-0.2-0.1-0.3,0c-0.1,0.1-0.2,0.2-0.2,0.3
	c0-0.2,0-0.4-0.1-0.6c0-0.2-0.2-0.4-0.4-0.4c-0.1,0-0.2,0-0.2,0c0,0,0-0.1-0.1-0.1c-0.1-0.2-0.6-0.1-0.7,0c-0.2,0.1-0.4,0.3-0.6,0.4
	c0-0.8,0.7-1.5,1.6-1.5C120.1,69.6,120.8,70.3,120.8,71.1L120.8,71.1z"/>
<path class="st12" d="M119.1,70.6c0,0,0,0.1,0.1,0.1c0.1,0.1,0.2,0,0.2,0c0.2,0,0.3,0.2,0.4,0.4s0,0.4,0.1,0.6c0-0.1,0-0.3,0.2-0.3
	c0.1-0.1,0.2,0,0.3,0c0.1,0.1,0.1,0.2,0.2,0.2c0.1,0,0.2-0.1,0.2-0.2c0-0.1,0-0.2,0.1-0.3c0-0.2,0.2-0.4,0.2-0.6
	c0.1-0.2,0.1-0.5,0-0.7c0-0.1-0.1-0.2-0.2-0.3c-0.1-0.2-0.1-0.4-0.2-0.6c-0.1-0.3-0.5-0.4-0.8-0.3c-0.1,0-0.3,0.1-0.4,0.2
	c-0.2,0.1-0.4,0-0.6,0c-0.2,0-0.4,0-0.6,0.1c-0.2,0.1-0.2,0.4-0.4,0.6c-0.1,0.1-0.2,0.1-0.2,0.2c-0.1,0.1-0.1,0.2-0.1,0.3
	c0,0.1,0.1,0.3,0.1,0.4c0,0,0,0.1-0.1,0.1c-0.1,0.1-0.2,0.3-0.3,0.5c0.3,0.1,0.7-0.3,1-0.5C118.5,70.5,118.9,70.4,119.1,70.6z"/>
<path class="st4" d="M122.4,80.5l-0.2,0.1c-0.1-0.2-0.7-0.7-0.7-0.7l0,0l0.1,0L122.4,80.5z"/>
<path class="st11" d="M122.6,80.2c0,0-0.1,0.1-0.1,0.3c-0.1,0.1-0.1,0.2-0.1,0.1c0-0.2-0.8-0.8-0.8-0.8l0.1-0.1l0.1-0.1L122.6,80.2z
	"/>
<path class="st4" d="M122.6,79.2l0.1,1.4c-0.2-0.3-0.7-1.1-1.1-1.1l0.9-1c0,0,0.1-0.1,0.1-0.1C122.6,78.9,122.6,79.2,122.6,79.2z"/>
<path class="st4" d="M122.6,80.2c0,0-0.1,0.1-0.1,0.3c-0.2-0.3-0.5-0.7-0.8-0.7l0.1-0.1L122.6,80.2z"/>
<path class="st9" d="M123.3,75l0.2,0.2c0,0,0.4,0,0.4,0.3c0,0.3,0.4,0.5,0.4,0.5s0.3,0.3,0.3,0.4c0,0.1,0.2,0.3,0.2,0.4
	c0,0,0.2,0.4,0.2,0.5c0,0.1,0.2,0.4,0.1,0.5c-0.1,0.1-0.1,0.2-0.1,0.3c0,0-0.3,0.6-0.5,0.7c-0.2,0.1-0.9,1-0.9,1s-0.8,0.9-0.8,1.2
	c0,0-0.7-1.2-1.2-1.2l0.9-1c0,0,0.1-0.2,0.1-0.3c0-0.1,0.4-0.5,0.6-0.6c0,0,0-0.3,0-0.3c-0.1,0-0.1-0.2-0.1-0.2s-0.6-0.7-0.6-1.1
	S123.3,75,123.3,75z"/>
<path class="st4" d="M123.6,75.6c0,0-0.5,0.4-0.4,0.5C123.3,76.3,123.6,75.6,123.6,75.6z"/>
<path class="st4" d="M123.6,77.2c0,0,1-0.3,1.1,0H123.6z"/>
<path class="st4" d="M117.3,94.5c0,0-0.5,0.4-0.8,0.3c-0.2,0-0.4,0-0.5,0.1c-0.2,0.2-0.4,0.4-0.7,0.4c-0.4,0.1-1.1,0.1-1.4,0
	c-0.2,0-0.2-0.1-0.1-0.2c0.4,0.1,1.2,0.2,1.5,0.1c0.2-0.1,0.5-0.3,0.7-0.4c0,0,0.6-0.1,0.6-0.1C116.9,94.6,117.1,94.5,117.3,94.5
	L117.3,94.5z"/>
<path class="st4" d="M120.7,95.2C120.7,95.2,120.7,95.2,120.7,95.2c0,0-0.1,0.3-0.8,0.4c-0.7,0.1-0.7-0.2-0.7-0.2s0,0,0-0.1
	C119.3,95.4,119.8,95.5,120.7,95.2z"/>
<path class="st4" d="M116.5,75.5c0,0,0,1.5-0.1,1.6C116.2,77.3,116.5,75.5,116.5,75.5z"/>
<path class="st4" d="M122.3,76l0.2,0.5C122.5,76.5,122.6,76,122.3,76z"/>
<g class="st14">
	<path d="M117.7,70.3c0-0.1-0.1-0.2-0.1-0.4c0,0,0,0.1,0,0.1C117.6,70.1,117.7,70.2,117.7,70.3C117.7,70.3,117.7,70.3,117.7,70.3z"
		/>
	<path d="M119.9,71.7c0-0.2,0-0.4-0.1-0.6c0-0.2-0.2-0.4-0.4-0.4c-0.1,0-0.2,0-0.2,0c0,0,0-0.1-0.1-0.1c-0.1-0.2-0.6-0.1-0.7,0
		c-0.3,0.2-0.6,0.5-1,0.5c0,0,0,0.1,0,0.1c0.3,0.1,0.7-0.3,1-0.5c0.2-0.1,0.6-0.2,0.7,0c0,0,0,0.1,0.1,0.1c0.1,0.1,0.2,0,0.2,0
		c0.2,0,0.3,0.2,0.4,0.4s0,0.4,0.1,0.6C119.9,71.8,119.9,71.8,119.9,71.7z"/>
	<path d="M120.9,71.5c0,0.1-0.1,0.2-0.2,0.2c-0.1,0-0.1-0.1-0.2-0.2c-0.1-0.1-0.2-0.1-0.3,0c-0.1,0.1-0.2,0.2-0.2,0.3
		c0-0.1,0.1-0.1,0.1-0.2c0.1-0.1,0.2,0,0.3,0c0.1,0.1,0.1,0.2,0.2,0.2s0.2-0.1,0.2-0.2C120.9,71.5,120.9,71.5,120.9,71.5
		C120.9,71.4,120.9,71.4,120.9,71.5z"/>
	<path d="M121.2,70.6c-0.1,0.2-0.2,0.4-0.2,0.6c0,0,0,0.1,0,0.1c0-0.2,0.2-0.4,0.2-0.6c0-0.1,0-0.2,0.1-0.3
		C121.2,70.5,121.2,70.5,121.2,70.6z"/>
</g>
<rect x="39.4" y="24" class="st6" width="9.2" height="9.6"/>
<rect x="51.2" y="24" class="st6" width="9.2" height="9.6"/>
<rect x="63.1" y="24" class="st6" width="9.2" height="9.6"/>
<rect x="74.9" y="24" class="st6" width="9.2" height="9.6"/>
<rect x="86.8" y="24" class="st6" width="9.2" height="9.6"/>
<rect x="89.8" y="22.3" transform="matrix(0.7975 -0.6033 0.6033 0.7975 2.7902 62.4717)" class="st15" width="9.2" height="9.6"/>
<rect x="39.4" y="43" class="st6" width="21.1" height="15.7"/>
<path class="st16" d="M52.3,47.8c-3.9-1.3-8.1,0.7-9.4,4.6c-0.3,0.8-0.4,1.6-0.4,2.4c0,0.3-0.2,0.5-0.5,0.5s-0.5-0.2-0.5-0.5
	c0-4.7,3.8-8.5,8.5-8.5c0.9,0,1.8,0.1,2.7,0.4"/>
<path class="st7" d="M52.6,46.8c3.4,1.2,5.7,4.4,5.7,8c0,0.3-0.2,0.5-0.5,0.5c-0.3,0-0.5-0.2-0.5-0.5c0-3.2-2-6-5-7"/>
<rect x="66.3" y="36.5" class="st6" width="32" height="23.8"/>
<rect x="69.6" y="54.4" class="st7" width="1.3" height="4.4"/>
<rect x="72" y="48.9" class="st7" width="1.3" height="9.8"/>
<rect x="74.5" y="44" class="st6" width="1.3" height="14.7"/>
<rect x="77" y="40.5" class="st7" width="1.3" height="18.2"/>
<rect x="74.5" y="40.5" class="st16" width="1.3" height="18.2"/>
<rect x="79.5" y="48.7" class="st16" width="1.3" height="10"/>
<rect x="82" y="46.1" class="st7" width="1.3" height="12.6"/>
<rect x="84.5" y="42.2" class="st7" width="1.3" height="16.5"/>
<rect x="87" y="51.4" class="st17" width="1.3" height="7.4"/>
<rect x="89.5" y="48" class="st17" width="1.3" height="10.8"/>
<rect x="92" y="44" class="st17" width="1.3" height="14.7"/>
<rect x="94.5" y="44" class="st17" width="1.3" height="14.7"/>
<polygon class="st9" points="101.8,34.1 103.1,33.4 103.7,33.8 115.8,91.7 115,91.8 113.5,90.5 "/>
<polygon class="st4" points="103.1,33.4 115,91.8 115.8,91.7 103.7,33.8 "/>
<polygon class="st9" points="94.3,36.6 103.4,37.5 103.4,38.2 94.3,37.4 "/>
<polygon class="st9" points="95.2,45.2 104.9,45.2 104.9,46.2 95.1,46.2 "/>
<polygon class="st9" points="96.1,54.2 105.9,53.9 107.2,54.2 107.2,54.9 98.4,55.4 96.2,55.4 "/>
<polygon class="st4" points="98.6,54.8 107.2,54.2 107.2,54.9 98.4,55.4 "/>
<polygon class="st4" points="96.1,54.2 98.6,54.8 98.4,55.4 96.2,55.4 "/>
<polygon class="st9" points="97,64.1 107.8,63.1 109,63.4 109,64.1 99.4,65.1 97,65.3 "/>
<polygon class="st4" points="99.3,64.5 108,63.6 109,63.4 109,64.1 99.4,65.1 "/>
<polygon class="st4" points="96.9,64.6 99.3,64.5 99.4,65.1 97,65.3 "/>
<polygon class="st9" points="97.5,73.8 109.7,72.2 110.8,72.6 110.8,73.4 100.3,75 97.8,75 "/>
<polygon class="st4" points="100.3,74.5 110.8,72.6 110.8,73.4 100.3,75 "/>
<polygon class="st4" points="97.7,74.5 100.3,74.5 100.3,75 97.8,75 "/>
<polygon class="st9" points="98.3,83.9 111.6,81.4 112.8,82.1 112.8,82.6 101.1,85.5 98.7,85.6 "/>
<polygon class="st4" points="101.1,84.9 112.8,82.1 112.8,82.6 101.1,85.5 "/>
<polygon class="st4" points="98.5,85 101.1,84.9 101.1,85.5 98.7,85.6 "/>
<polygon class="st9" points="95.1,32.7 94,32.9 98,95.2 99.1,95.6 100,95.6 "/>
<polygon class="st4" points="94.6,32.8 99.1,95.6 100,95.6 95.1,32.7 "/>
<rect x="91" y="21.9" transform="matrix(0.7975 -0.6033 0.6033 0.7975 3.2499 63.074)" class="st7" width="9.2" height="9.6"/>
<rect x="91" y="21.9" transform="matrix(0.7975 -0.6033 0.6033 0.7975 3.2499 63.074)" class="st6" width="9.2" height="9.6"/>
<path class="st18" d="M97.8,29.3l-1-1.4l1.1,0.1l0-0.3l-1.6-0.2l-0.2,1.6l0.3,0l0.2-1.1l1,1.4L97.8,29.3z"/>
<path class="st7" d="M95.3,26.3c-0.6,0.5-1.5,0.4-2-0.3C93.1,25.8,93,25.4,93,25c0-0.1,0.1-0.1,0.1-0.1l0,0c0.1,0,0.1,0.1,0.1,0.1
	c-0.1,0.7,0.3,1.3,1,1.4c0.3,0,0.7,0,0.9-0.2c0.5-0.4,0.6-1.2,0.2-1.7c-0.4-0.5-1-0.6-1.6-0.3l0.3,0.4c0,0,0,0.1,0,0.2
	c0,0-0.1,0-0.1,0l-0.3-0.5c0,0,0-0.1,0-0.2c0.6-0.5,1.6-0.3,2,0.3C96,25,95.9,25.9,95.3,26.3L95.3,26.3z"/>
<path class="st7" d="M93.6,25l0.9,0c0.1,0,0.2,0.1,0.2,0.2c0,0.1-0.1,0.2-0.2,0.2c0,0,0,0,0,0c0,0,0,0-0.1,0l-0.8-0.3
	C93.5,25.1,93.5,25.1,93.6,25L93.6,25C93.5,25,93.6,25,93.6,25z"/>
<linearGradient id="SVGID_2_" gradientUnits="userSpaceOnUse" x1="-931.5941" y1="196.5283" x2="-931.5941" y2="166.8857" gradientTransform="matrix(0.9993 -3.838781e-02 3.838781e-02 0.9993 1021.2875 -176.8077)">
	<stop  offset="0" style="stop-color:#808080;stop-opacity:0.25"/>
	<stop  offset="0.54" style="stop-color:#808080;stop-opacity:0.12"/>
	<stop  offset="1" style="stop-color:#808080;stop-opacity:0.1"/>
</linearGradient>
<path class="st19" d="M104.8,54.5c-0.1-0.3-0.1-0.6-0.1-0.6c0-0.2-0.1-0.4-0.2-0.6v-0.1l0,0l0-0.7c0-0.1,0.1-0.2,0.2-0.4
	c0.1-0.2,0-1,0-1s-0.5-1.1-0.4-1.8c0.1-0.7-1-3.1-1-3.1c0-0.2,0-0.5,0.1-0.7c0,0,0-0.1,0-0.1v0l0,0c0-0.5-0.4-1.3-0.4-1.3l0-1.6
	c0,0,0.2-1-0.2-2.3c-0.1-0.4-0.2-0.8-0.3-1.1c0,0,0-0.1,0-0.1c0.8-0.1,1.4-0.3,1.4-0.3s-0.5-1.9-0.8-2.2c-0.3-0.3-0.6-1.4-0.6-1.4
	s-0.2-1.3,0-1.7s0.2-1.1,0.2-1.1s0.6-0.4,0.6-0.6c0.1-0.3,0.1-0.6,0.2-0.8c0-0.2-0.1-0.4-0.1-0.5c0-0.1-0.2-0.6-0.1-0.8
	c0-0.1,0-0.1,0-0.2l0,0l0,0c0-0.2,0-0.4-0.1-0.5c-0.2-0.1-0.4-0.2-0.6-0.3l0,0l0-0.1c0,0,0,0-0.1,0v0l0-0.2l0.1-0.4
	c0.1-0.8-0.9-0.8-0.9-0.8c-0.1-0.1-0.2-0.2-0.3-0.2c-0.2-0.1,0,1.1,0.1,1.2c0.2,0.2,0.3,0.4,0.4,0.6l0,0l0,0c0,0,0,0,0,0l0,0.3l0,0
	c-0.1,0.1-0.1,0.2-0.1,0.3c0.1,0.1,0.2,0.3,0.2,0.4c0,0.2,0,0.3,0.1,0.5c0,0-0.1-0.1-0.3-0.1c-0.1,0-0.5,0.2-0.5,0.2
	s-0.3,0.1-0.2,0.1c0,0-0.2,0.3-0.2,0.3l-0.7-0.7c0,0,0,0,0-0.1c0-0.1-0.1-0.2-0.1-0.3c0.1,0,0.1,0,0.2-0.1c0.1,0,0.1-0.1,0.2-0.1
	c0.1-0.1,0.1-0.2,0.1-0.3c0.1-0.2,0.1-0.4,0.2-0.6c0.1-0.3,0.2-0.7,0.1-1.1c0-0.1-0.1-0.2-0.1-0.3c-0.1-0.2-0.3-0.2-0.5-0.3
	s-0.3-0.3-0.4-0.4c-0.2-0.1-0.4-0.1-0.5,0c-0.4,0.1-0.7,0.2-1,0.4c-0.1,0.1-0.2,0.1-0.3,0.1c-0.1,0-0.2-0.1-0.2-0.2v0l0,0
	c-0.1,0.2-0.1,0.4-0.1,0.5c0,0,0,0.1,0,0.1c0,0,0,0,0,0c0,0,0,0,0,0l0,0c0,0,0,0,0,0c0,0,0,0.1-0.1,0.1c0,0,0,0,0,0.1c0,0,0,0,0,0
	c0,0.1-0.1,0.1-0.1,0.2c0,0.1,0,0.1,0.1,0.2c0,0,0.1,0.1,0.1,0.1c0,0.1,0,0.2,0,0.2c0,0.5,0.3,0.9,0.7,1.2c0,0,0,0,0,0.1
	c0.1,0.2,0.2,0.5,0.2,0.8c0,0,0,0,0,0.1l0,0l0,0c0,0-1.2,0.1-1.5-0.2c-0.3-0.2-0.7,0.6-0.7,0.6s-0.4,0.1-0.5,0c-0.1-0.1-0.6,0-0.6,0
	c-0.2-0.2-0.5-0.3-0.8-0.2c-0.2-0.1-0.4-0.2-0.6-0.3l0,0h0l0,0c-0.1,0-0.2,0-0.3,0c0,0-0.6-0.5-0.8-0.7s-1-1.2-1-1.2v0l0-0.1
	c0,0,0,0-0.1,0l0,0c0-0.1-0.1-0.3-0.2-0.4c0,0,0-0.2,0-0.2s0-0.7,0-0.7s-0.6-1.2-1-0.3c0,0-0.9,0.6-0.1,1.3c0,0,0.3,0.1,0.3,0.2
	c0,0.1,0.1,0.3,0.2,0.4l0,0.1l0,0l0,0.1v0c-0.1,0.1-0.2,0.2-0.2,0.2c0,0.1,0.1,0.2,0.1,0.3c0,0,1.1,1.3,1.2,1.8c0,0,2.9,1.5,3.8,1.6
	l-0.1,0.8c0,0,0,0.5,0,0.7s-0.1,1-0.1,1s-0.1,1.2-0.2,1.4s-0.1,0.9-0.1,0.9c0,0.3-0.1,0.7-0.1,1c-0.1,0.3-0.1,0.7,0,1
	c0,0-0.4,1.1,0.7,0.3c0,0,0.5,0,1.2-0.1c0,0,0,0,0,0.1c0,0.1,0,0.2,0,0.3c0,0.6,0,1.4,0.1,2.1c0.1,1.1,0.5,3.3,0.5,3.3l0,1.1
	c0,0.1,0,0.2,0,0.3c0,0.4,0.1,0.8,0.3,1.1l0.1,0.7c0,0,0.2,0.5,0.2,0.8c0,0,0,0,0,0.1c0,0,0,0.1,0,0.1c0,0.3,0.2,1.1,0.2,1.1
	s0,0.8,0.2,0.9c0.1,0-0.1,0.5-0.2,0.6c0,0,0,0,0,0l0,0c0,0.1,0,0.1,0,0.2c0,0.1,0,0.2,0.1,0.3c0.2,0.1,0.4,0.2,0.2,0.3
	c-0.1,0-0.1,0-0.2,0c0,0,0,0,0,0c-0.1,0-0.1,0.1-0.1,0.1c0,0.1,0,0.2,0.1,0.3c0.1,0.2,0.2,0.4,0.3,0.6l0.1,0c0,0,0,0.1,0,0.1
	c0,0-0.1,0.1-0.1,0.1c0,0-0.1,0-0.2,0.1c-0.1,0-0.3,0.1-0.3,0.2c-0.1,0.2-0.2,0.4,0.1,0.6l0.9,0.3c0,0,1.5,0.1,1.4-0.2
	c-0.1-0.3-0.1-0.6-0.1-0.6c0-0.2,0-0.4-0.1-0.6c0,0,0-0.1-0.1-0.1l0,0c0,0,0.1-0.7,0.2-0.9c0,0,0-0.1,0-0.1c0,0,0-0.1-0.1-0.1
	c0,0,0,0,0,0c0,0-0.1,0-0.1,0c0,0-0.1-0.4,0.1-0.5c0,0,0-0.1,0-0.1c0,0,0-0.1,0-0.2c0,0,0,0,0,0c-0.1-0.3-0.2-0.6-0.4-0.9
	c0,0,0-0.4,0.1-0.5c0.1-0.1-0.1-1.9-0.1-1.9s0-0.9-0.1-1.3c-0.1-0.4,0.1-0.9,0.1-0.9v-0.1l0,0c0,0,0,0,0-0.1v0
	c0-0.2-0.1-0.6-0.1-0.8c-0.1-0.3,0-1.6,0-1.6l0.2-0.6l0.4,0.9l0.5,1.3c0.1,0.1,0.2,0.3,0.2,0.5c0,0,0,0,0,0c0,0,0,0.1,0,0.1
	c0,0.2,0,0.3,0.1,0.4c0,0,0.1,0.6,0.3,0.7c0.1,0.1,0.2,0.3,0.2,0.4c0,0,0.2,0.9,0.3,1c0.1,0.1,0.1,0.5,0.1,0.6l0,0c0,0,0,0,0,0
	s0,0.3,0,0.6v0.1c0,0.1,0,0.1,0,0.2v0c0,0,0,0,0,0c0,0.2,0,0.4,0,0.5c0,0.3,0.1,0.7,0.3,0.9c0.3,0.4,0.5,0.3,0.5,0.3
	s-0.1,0.5-0.3,0.6c0,0,0,0,0,0c0,0,0,0,0,0c0,0-0.1,0.1,0,0.2c0,0.2,0.1,0.5,0.3,0.7c0,0,0.1,0.1,0.2,0.1l0,0c0,0,0,0-0.1,0
	c0,0-0.1,0-0.1,0c-0.1,0-0.3,0.1-0.3,0.2c-0.1,0.2-0.2,0.4,0.1,0.6l0.9,0.3C103.4,54.6,104.9,54.8,104.8,54.5z"/>
<path class="st20" d="M99.1,55.2L98.2,55c-0.2-0.2-0.2-0.4-0.1-0.6c0.1-0.1,0.2-0.2,0.3-0.2c0.1,0,0.1,0,0.2-0.1
	c0,0,0.1-0.1,0.1-0.1c0.1-0.1,0.1-0.2,0.1-0.3c0,0,0.9-0.3,1.2,0c0,0,0.1,0.1,0.1,0.2c0.1,0.2,0.1,0.4,0.1,0.6c0,0,0.1,0.3,0.1,0.6
	C100.6,55.3,99.1,55.2,99.1,55.2z"/>
<path class="st20" d="M103.2,54.7l-0.9-0.3c-0.2-0.2-0.2-0.4-0.1-0.6c0.1-0.1,0.2-0.2,0.3-0.2c0,0,0.1,0,0.1,0c0,0,0,0,0.1,0
	c0.2-0.1,0.2-0.5,0.2-0.5s0.9-0.3,1.2,0c0,0,0.1,0.1,0.1,0.1c0.1,0.2,0.2,0.4,0.2,0.6c0,0,0.1,0.3,0.1,0.6
	C104.7,54.8,103.2,54.7,103.2,54.7z"/>
<path class="st4" d="M100.1,53.7c0,0,0.1,0.1,0.1,0.2l0,0L98.8,54c0.1-0.1,0.1-0.2,0.1-0.3C98.9,53.7,99.8,53.4,100.1,53.7z"/>
<path class="st4" d="M104.3,53.2l0,0.3c-0.2,0.4-1.3,0.3-1.6,0.2c0,0,0,0,0.1,0c0.2-0.1,0.2-0.5,0.2-0.5s0.9-0.3,1.2,0
	C104.2,53.1,104.3,53.2,104.3,53.2z"/>
<path class="st21" d="M104.4,52.1c-0.1,0.1-0.1,0.2-0.1,0.4l0,0.9c-0.2,0.4-1.5,0.3-1.6,0.1c-0.2-0.2-0.4-0.8-0.2-0.9
	c0.2-0.1,0.3-0.6,0.3-0.6s-0.2,0.1-0.5-0.3c-0.3-0.4-0.3-1.2-0.2-1.4c0-0.2,0-0.9,0-0.9s0-0.5-0.1-0.6c-0.1-0.1-0.3-1-0.3-1
	c0-0.2-0.1-0.3-0.2-0.4c-0.2-0.1-0.3-0.7-0.3-0.7c-0.1-0.1-0.1-0.3-0.1-0.5c0-0.3-0.2-0.6-0.2-0.6l-0.4-1.3l-0.4-0.9l-0.2,0.6
	c0,0,0,1.3,0,1.6s0.2,1,0.2,1s-0.2,0.5-0.1,0.9c0.1,0.4,0.1,1.3,0.1,1.3s0.2,1.8,0.1,1.9c-0.1,0.1-0.1,0.5-0.1,0.5s0.5,1,0.4,1.2
	c-0.1,0.1-0.1,0.5-0.1,0.5s0.3,0,0.2,0.1c-0.1,0.1-0.2,0.9-0.2,0.9l-1.4,0.2c-0.1-0.2-0.2-0.4-0.3-0.6c-0.2-0.4,0-0.4,0.2-0.4
	c0.2-0.1,0.1-0.2-0.2-0.3c-0.2-0.1-0.1-0.5-0.1-0.5s0.3-0.6,0.2-0.6c-0.1,0-0.2-0.9-0.2-0.9s-0.3-1-0.2-1.2S98,48.5,98,48.5
	l-0.1-0.7c-0.3-0.4-0.4-0.9-0.3-1.4l0-1.1c0,0-0.4-2.2-0.5-3.3c-0.1-0.7-0.1-1.7-0.1-2.3c0-0.3,0-0.6,0-0.6l5.1-0.7
	c0,0.2,0.1,0.5,0.1,0.8c0.1,0.3,0.2,0.6,0.3,1.1c0.4,1.3,0.2,2.3,0.2,2.3l0,1.6c0,0,0.5,1.1,0.4,1.5c0,0.2-0.1,0.5-0.1,0.7
	c0,0,1.1,2.4,1,3.1s0.4,1.8,0.4,1.8S104.5,51.8,104.4,52.1z"/>
<path class="st22" d="M101.3,46l1.5-0.3C102.8,45.7,101.9,46.7,101.3,46z"/>
<path class="st4" d="M102.5,44.2c0,0,0.1,0.5-0.2,0.8C102.3,45,102.9,44.9,102.5,44.2z"/>
<path class="st4" d="M102.4,42.5c0,0-1.3,1.1-1.7,1C100.2,43.4,102.4,42.5,102.4,42.5z"/>
<path class="st4" d="M99.3,46.6c0,0-1,0.3-1,0.7C98.3,47.6,99.3,46.6,99.3,46.6z"/>
<path class="st22" d="M99.8,51.5c0,0-1.4,0.3-1,0.5c0.3,0.1,0.7,0.2,1.1,0.3C99.8,52.3,100.3,52.3,99.8,51.5z"/>
<g class="st23">
	<path d="M98.5,52.3c-0.1,0-0.1-0.1-0.1-0.2l0,0c0,0-0.1,0.3,0.1,0.5l0.1,0c0,0,0.1,0,0.1,0C98.8,52.5,98.7,52.4,98.5,52.3z"/>
	<path d="M100.3,52.1c0,0,0-0.1,0-0.2C100.2,52,100.2,52.1,100.3,52.1C100.2,52.2,100.3,52.1,100.3,52.1z"/>
	<path d="M99.9,46.2c0,0.1-0.1,0.3-0.1,0.4c0-0.1,0-0.2,0.1-0.3C99.9,46.4,99.9,46.3,99.9,46.2z"/>
	<path d="M103,45.5c0,0,0-0.1,0-0.1c0,0.1,0,0.2,0,0.2C103,45.6,103,45.5,103,45.5z"/>
	<path d="M100,50.4c0-0.1,0-0.2,0-0.3C100,50.3,99.9,50.4,100,50.4C100,50.5,100,50.5,100,50.4z"/>
	<path d="M100.4,52.7c-0.1,0.2-0.1,0.5-0.1,0.7l-1.4,0.2c-0.1-0.2-0.2-0.4-0.3-0.6c0,0,0-0.1,0-0.1c-0.1,0-0.1,0.1,0,0.4
		c0.1,0.2,0.2,0.4,0.3,0.6l1.4-0.2c0,0,0.1-0.7,0.2-0.9C100.5,52.7,100.4,52.7,100.4,52.7z"/>
	<path d="M98.4,50.6c0,0,0,0.8,0.2,0.9l0,0c0-0.1,0.1-0.3,0-0.3c-0.1,0-0.2-0.9-0.2-0.9s-0.3-1-0.2-1.2c0-0.3-0.2-0.9-0.2-0.9
		l-0.1-0.7c-0.3-0.4-0.4-0.9-0.3-1.4l0-1.1c0,0-0.4-2.2-0.5-3.3c-0.1-0.7-0.1-1.7-0.1-2.3c0-0.1,0-0.2,0-0.3h0c0,0,0,0.2,0,0.6
		c0,0.6,0,1.6,0.1,2.3c0.1,1.1,0.5,3.3,0.5,3.3l0,1.1c-0.1,0.5,0,1,0.3,1.4l0.1,0.7c0,0,0.3,0.6,0.2,0.9
		C98.1,49.7,98.4,50.6,98.4,50.6z"/>
	<path d="M102.7,53.2c-0.1-0.2-0.2-0.3-0.2-0.6c-0.1,0.1,0,0.6,0.2,0.8c0.2,0.2,1.4,0.3,1.6-0.1l0-0.2
		C104,53.4,102.9,53.4,102.7,53.2z"/>
	<path d="M104.5,51.7c-0.1,0.1-0.1,0.2-0.1,0.4v0.2c0-0.1,0.1-0.2,0.1-0.2C104.5,51.9,104.5,51.8,104.5,51.7L104.5,51.7z"/>
	<path d="M102.7,52c0-0.1,0.1-0.2,0.1-0.3c0,0-0.2,0.1-0.5-0.3c-0.2-0.3-0.3-0.8-0.2-1.1c0,0.2-0.1,1,0.2,1.4
		C102.5,51.9,102.6,52,102.7,52z"/>
	<path d="M102,49.4c0,0.2,0,0.5,0,0.7c0,0,0-0.1,0-0.1c0-0.2,0-0.9,0-0.9s0-0.5-0.1-0.6c-0.1-0.1-0.3-1-0.3-1c0-0.2-0.1-0.3-0.2-0.4
		c-0.2-0.1-0.3-0.7-0.3-0.7c-0.1-0.1-0.1-0.3-0.1-0.5c0-0.3-0.2-0.6-0.2-0.6l-0.4-1.3l-0.4-0.9l-0.2,0.6v0.2l0.1-0.5l0.4,0.9
		l0.4,1.3c0,0,0.2,0.3,0.2,0.6c0,0.2,0,0.3,0.1,0.5c0,0,0.1,0.6,0.3,0.7c0.1,0.1,0.2,0.3,0.2,0.4c0,0,0.2,0.9,0.3,1
		C102,48.9,102,49.4,102,49.4z"/>
</g>
<path class="st24" d="M102.2,27.5l-0.1,0.4l0,0.2l0,0.1l-0.5,0.1l-0.1-0.1l0,0c-0.1-0.2-0.2-0.4-0.4-0.6c-0.1-0.1-0.3-1.3-0.1-1.2
	c0.1,0,0.2,0.1,0.3,0.2C101.3,26.7,102.3,26.8,102.2,27.5z"/>
<path class="st4" d="M102.1,28.3l-0.5,0.1l-0.1-0.1l0,0c0.1-0.2,0.4-0.2,0.5-0.1L102.1,28.3z"/>
<path class="st25" d="M102.2,28.5l-0.6,0.2l0-0.1l0-0.3c0.1-0.2,0.4-0.2,0.6-0.1l0,0.1L102.2,28.5z"/>
<path class="st24" d="M91.7,28L91,28.4l-0.1-0.1c-0.1-0.1-0.2-0.3-0.2-0.4c0-0.1-0.3-0.2-0.3-0.2c-0.8-0.7,0.1-1.3,0.1-1.3
	c0.4-0.9,1,0.3,1,0.3s0.1,0.6,0,0.7s0,0.2,0,0.2C91.5,27.6,91.6,27.8,91.7,28C91.6,28,91.7,28,91.7,28z"/>
<path class="st4" d="M91.7,28L91,28.4l-0.1-0.1c0.1-0.1,0.4-0.4,0.5-0.4C91.5,27.9,91.6,27.9,91.7,28C91.6,28,91.7,28,91.7,28z"/>
<path class="st25" d="M91.7,28.2L91,28.6l0-0.2l0-0.1c0,0,0.4-0.4,0.6-0.4c0.1,0,0.1,0,0.2,0l0,0.1L91.7,28.2z"/>
<path class="st24" d="M100.4,30.5c0,0-3.4,0.5-2.8,0.3c0.4-0.2,0.6-0.4,0.6-0.8c0-0.3,0-0.5-0.2-0.8c-0.1-0.2-0.2-0.4-0.3-0.6
	c0,0,2.6-1.5,2.1-0.2c-0.1,0.2-0.1,0.4-0.1,0.6c0,0.2,0,0.4,0.1,0.6C99.9,30,100.1,30.3,100.4,30.5z"/>
<path class="st4" d="M99.8,28.4c-0.1,0.2-0.1,0.4-0.1,0.6c-0.2,0.2-0.5,0.2-0.8,0.2c-0.3,0-0.6,0.1-0.8,0c-0.1-0.2-0.2-0.4-0.3-0.6
	C97.8,28.6,100.3,27.1,99.8,28.4z"/>
<circle class="st24" cx="98.8" cy="27.9" r="1.4"/>
<path class="st4" d="M100.4,30.5c0,0-3.4,0.5-2.8,0.3c0.4-0.2,0.6-0.4,0.6-0.8c0.2-0.2,0.5-0.3,0.7-0.4c0.2-0.1,0.4-0.1,0.6,0
	c0.1,0,0.2,0,0.2,0.1C99.9,30,100.1,30.3,100.4,30.5z"/>
<path class="st4" d="M102.2,28.5l-0.6,0.2l0-0.1c0.1-0.2,0.4-0.3,0.6-0.2L102.2,28.5z"/>
<path class="st4" d="M91.7,28.2L91,28.6l0-0.2c0.2-0.1,0.5-0.3,0.8-0.4L91.7,28.2z"/>
<path class="st4" d="M102.1,39c-1.3,0.3-3.2,0.6-3.5,0.5c-0.2-0.1-1,0-1.7,0c0-0.3,0-0.6,0-0.6l5.1-0.7C102,38.5,102,38.8,102.1,39z
	"/>
<path class="st26" d="M103.4,38.7c0,0-4.3,0.9-4.8,0.8c-0.5-0.1-2.9,0.1-2.9,0.1c-1,0.8-0.6-0.3-0.6-0.3c-0.1-0.3-0.1-0.7,0-1
	c0.1-0.3,0.1-0.7,0.1-1c0,0,0-0.7,0.1-0.9c0.1-0.2,0.2-1.4,0.2-1.4s0.1-0.8,0.1-1s0-0.7,0-0.7l0.1-0.8c-0.9-0.1-3.7-1.6-3.7-1.6
	c-0.1-0.5-1.2-1.8-1.2-1.8c0-0.1,0-0.2-0.1-0.3c-0.1-0.2,1-0.6,1-0.6s0.8,0.9,1,1.2s0.8,0.7,0.8,0.7c0.1,0,0.2,0,0.3,0h0l0,0
	c0.2,0.1,0.4,0.2,0.5,0.3c0.3,0,0.5,0.1,0.7,0.2c0,0,0.5-0.1,0.6,0c0.1,0.1,0.5,0,0.5,0s0.4-0.9,0.7-0.6c0.3,0.2,1.4,0.2,1.4,0.2
	c0.1-0.2,0.5-0.4,0.7-0.5c0.2-0.1,0.4-0.1,0.6,0c0.1,0,0.2,0.1,0.2,0.1l0.7,0.7c0,0,0.2-0.3,0.2-0.3c0-0.1,0.2-0.1,0.2-0.1
	s0.3-0.1,0.5-0.2c0.1,0,0.2,0.1,0.3,0.1c-0.1-0.2-0.1-0.3-0.1-0.5c0-0.1,0-0.3-0.2-0.4c0.4-1,1.3-0.2,1.3-0.2s0.1,0.5,0,0.8
	c-0.1,0.2,0.1,0.7,0.1,0.8c0,0.1,0.1,0.3,0.1,0.5c0,0.3-0.1,0.6-0.2,0.8c-0.1,0.2-0.6,0.6-0.6,0.6s0,0.7-0.2,1.1
	c-0.2,0.4,0,1.7,0,1.7s0.3,1,0.6,1.4C102.9,36.8,103.4,38.7,103.4,38.7z"/>
<path class="st4" d="M96.7,31.1c0,0-0.1-0.4-0.3-0.4c-0.1,0-0.2-0.1-0.3-0.1l0.1-0.1c0,0,0.4,0.1,0.5,0.2
	C96.8,30.8,96.7,31.1,96.7,31.1z"/>
<path class="st4" d="M94.3,30.3c0,0.1-1.1,0.3-1.1,0.3l0.5-0.6l0,0h0l0,0C94,30.1,94.1,30.2,94.3,30.3z"/>
<circle class="st21" cx="91.2" cy="28.8" r="0.1"/>
<circle class="st21" cx="91.3" cy="29" r="0.1"/>
<circle class="st21" cx="91.5" cy="29.2" r="0.1"/>
<circle class="st21" cx="91.6" cy="29.4" r="0.1"/>
<circle class="st21" cx="102.8" cy="28.9" r="0.1"/>
<circle class="st21" cx="102.8" cy="29.1" r="0.1"/>
<circle class="st21" cx="102.8" cy="29.3" r="0.1"/>
<path class="st4" d="M96.9,34.3c0,0,2.8,3.3,4.8,1.2C101.7,35.6,98.4,36.1,96.9,34.3z"/>
<path class="st4" d="M95.4,36.1c0,0,1.6,0,1.8,0.4l0,0.5c-0.1,0-0.2,0.1-0.3,0c-0.2-0.1-1.1-0.5-1.5-0.3L95.4,36.1z"/>
<path class="st26" d="M95.4,36.1c0,0,1.5,0,1.7,0.4l0,0.5c-0.1,0-0.2,0-0.3,0c-0.2-0.1-1.1-0.5-1.4-0.3L95.4,36.1z"/>
<path class="st4" d="M96.1,32.6c0.2,0.4,0.4,0.7,0.7,1c0.3,0.3,0.6,0.7,1,0.9C97.8,34.6,96.2,32.9,96.1,32.6z"/>
<path class="st4" d="M95.5,30.8c0,0,0.3,1.1,1,1.5L95.5,30.8z"/>
<path class="st4" d="M95.1,30.9c0,0-0.2,0.9,0.9,1.4C96.1,32.3,95.6,32.2,95.1,30.9z"/>
<path class="st4" d="M102.1,29.9c0,0,0.6,0.3,0.7,0.5C102.8,30.4,102.4,29.9,102.1,29.9z"/>
<path class="st20" d="M98.4,29.2c0,0.1,0.1,0.1,0.1,0.2c0,0,0.1,0,0.1,0c0.4,0,0.9,0,1.3-0.2c0.1,0,0.1-0.1,0.2-0.1
	c0-0.1,0.1-0.2,0.1-0.3c0.1-0.2,0.1-0.4,0.2-0.6c0.1-0.3,0.2-0.7,0.1-1.1c0-0.1-0.1-0.2-0.1-0.3c-0.1-0.2-0.3-0.2-0.5-0.3
	c-0.1-0.1-0.3-0.3-0.4-0.4C99.4,26,99.2,26,99,26c-0.3,0.1-0.7,0.2-1,0.4c-0.1,0.1-0.2,0.1-0.3,0.1c-0.1,0-0.2-0.1-0.2-0.2
	c-0.1,0.2-0.1,0.4-0.1,0.6c0,0,0,0.1,0,0.1c0,0,0,0.1-0.1,0.1c-0.1,0.1-0.2,0.3,0,0.4c0,0,0.1,0.1,0.2,0.1c0.1,0.1,0.1,0.2,0.1,0.4
	c0,0,0,0.1,0,0.1c0,0,0.1,0,0.2,0c0.1,0,0.1,0,0.2,0c0.1,0,0.1,0.1,0.2,0.1C98.2,28.7,98.4,28.9,98.4,29.2z"/>
<g class="st14">
	<path d="M100.2,29c0,0.1-0.1,0.1-0.2,0.1c-0.4,0.2-0.8,0.2-1.3,0.2c0,0-0.1,0-0.1,0c-0.1,0-0.1-0.1-0.1-0.2
		c-0.1-0.3-0.2-0.6-0.4-0.8c0-0.1-0.1-0.1-0.2-0.1c-0.1,0-0.1,0-0.2,0c-0.1,0-0.1,0-0.2,0c0,0,0-0.1,0-0.1c0-0.1,0-0.3-0.1-0.4
		c0,0-0.1-0.1-0.2-0.1c-0.1-0.1-0.1-0.2,0-0.3c-0.1,0.1-0.1,0.3,0,0.4c0,0,0.1,0.1,0.2,0.1c0.1,0.1,0.1,0.2,0.1,0.4c0,0,0,0.1,0,0.1
		c0,0,0.1,0,0.2,0c0.1,0,0.1,0,0.2,0c0.1,0,0.1,0.1,0.2,0.1c0.2,0.2,0.3,0.5,0.4,0.8c0,0.1,0,0.1,0.1,0.2c0,0,0.1,0,0.1,0
		c0.4,0,0.9,0,1.3-0.2C100,29.2,100.1,29.2,100.2,29C100.2,29.1,100.2,29.1,100.2,29L100.2,29z"/>
	<path d="M97.4,27.1C97.4,27.1,97.4,27,97.4,27.1c0-0.1,0-0.1,0-0.2c0-0.2,0-0.3,0-0.5l0,0C97.4,26.6,97.3,26.8,97.4,27.1
		C97.4,27,97.4,27.1,97.4,27.1z"/>
</g>
<path class="st4" d="M98.2,30.1c0,0,1.8,0.2,1.9-0.1"/>
<path class="st4" d="M101.6,29.2c0,0,1,0,1.2,0.3"/>
<rect x="103.3" y="73" transform="matrix(1.570792e-03 -1 1 1.570792e-03 30.275 185.5362)" class="st7" width="9.6" height="9.2"/>
<rect x="103.3" y="73" transform="matrix(1.570792e-03 -1 1 1.570792e-03 30.275 185.5362)" class="st7" width="9.6" height="9.2"/>
<path class="st18" d="M108.2,81v-1.7l0.8,0.8l0.2-0.2l-1.1-1.1l-1.1,1.1l0.2,0.2l0.8-0.8V81L108.2,81z"/>
<path class="st6" d="M106.5,75.3h1.5v-1.5c0,0-0.1,0-0.1,0c-0.8,0-1.4,0.6-1.4,1.4l0,0C106.5,75.2,106.5,75.2,106.5,75.3z"/>
<path class="st6" d="M107,76.3c0.5,0.6,1.4,0.7,2,0.2c0.6-0.5,0.7-1.4,0.2-2c-0.2-0.3-0.6-0.5-1-0.5v1.5h-1.5
	C106.7,75.8,106.9,76,107,76.3z"/>
<path class="st27" d="M31.6,15.9c0,0,0.3-0.8-0.2-1.2c0,0.1,0,0.2-0.1,0.3c0,0-0.1,0.1-0.1,0.2C31.4,15.3,31.5,15.6,31.6,15.9z"/>
<linearGradient id="SVGID_3_" gradientUnits="userSpaceOnUse" x1="227.0901" y1="312.1821" x2="227.0901" y2="306.978" gradientTransform="matrix(1 0 0 1 -158 -280.9606)">
	<stop  offset="0" style="stop-color:#808080;stop-opacity:0.25"/>
	<stop  offset="0.54" style="stop-color:#808080;stop-opacity:0.12"/>
	<stop  offset="1" style="stop-color:#808080;stop-opacity:0.1"/>
</linearGradient>
<path class="st28" d="M67.8,26L67.8,26l0,5.2h0c1.4,0,2.6-1.2,2.6-2.6S69.2,26,67.8,26L67.8,26z"/>
<linearGradient id="SVGID_4_" gradientUnits="userSpaceOnUse" x1="224.484" y1="312.1845" x2="224.484" y2="308.7276" gradientTransform="matrix(1 0 0 1 -158 -280.9606)">
	<stop  offset="0" style="stop-color:#808080;stop-opacity:0.25"/>
	<stop  offset="0.54" style="stop-color:#808080;stop-opacity:0.12"/>
	<stop  offset="1" style="stop-color:#808080;stop-opacity:0.1"/>
</linearGradient>
<path class="st29" d="M65.3,27.8c-0.5,1.4,0.2,2.8,1.6,3.3c0.3,0.1,0.5,0.1,0.8,0.1V29L65.3,27.8z"/>
<linearGradient id="SVGID_5_" gradientUnits="userSpaceOnUse" x1="224.5567" y1="309.9423" x2="224.5567" y2="306.9721" gradientTransform="matrix(1 0 0 1 -158 -280.9606)">
	<stop  offset="0" style="stop-color:#808080;stop-opacity:0.25"/>
	<stop  offset="0.54" style="stop-color:#808080;stop-opacity:0.12"/>
	<stop  offset="1" style="stop-color:#808080;stop-opacity:0.1"/>
</linearGradient>
<path class="st30" d="M67.8,26c-1.1,0-2.1,0.7-2.4,1.7l2.4,1.2V26z"/>
<path class="st31" d="M67.8,26.1L67.8,26.1l0,5h0c1.4,0,2.5-1.1,2.5-2.5C70.3,27.2,69.2,26.1,67.8,26.1z"/>
<path class="st16" d="M65.4,27.8C65,29.1,65.7,30.5,67,31c0.3,0.1,0.5,0.1,0.8,0.1V29L65.4,27.8z"/>
<path class="st32" d="M67.8,26.1c-1,0-2,0.7-2.3,1.7l2.3,1.2V26.1z"/>
<path class="st16" d="M55.8,26.8L55.8,26.8l0,2.7h0c0.7,0,1.3-0.6,1.3-1.3C57.2,27.4,56.6,26.8,55.8,26.8z"/>
<path class="st33" d="M54.6,27.7c-0.2,0.7,0.1,1.5,0.8,1.7c0.1,0,0.3,0.1,0.4,0.1v-1.2L54.6,27.7z"/>
<path class="st34" d="M55.8,26.8c-0.6,0-1.1,0.4-1.3,0.9l1.3,0.6V26.8z"/>
<rect x="14.5" y="-450" class="st5" width="176" height="132.7"/>
<rect x="190.5" y="-450" class="st35" width="177" height="132.7"/>
<rect x="367.5" y="-450" class="st36" width="75.8" height="132.7"/>
<rect x="41.3" y="26.2" class="st34" width="0.9" height="5.5"/>
<rect x="42.8" y="26.2" class="st34" width="0.9" height="5.5"/>
<rect x="44.3" y="26.2" class="st34" width="0.9" height="5.5"/>
<rect x="45.8" y="26.2" class="st34" width="0.9" height="5.5"/>
<rect x="41.3" y="28.9" class="st16" width="0.9" height="2.8"/>
<g class="st37">
	<rect x="41.3" y="27.8" class="st16" width="0.9" height="1.2"/>
</g>
<rect x="42.8" y="29.5" class="st32" width="0.9" height="2.2"/>
<rect x="42.8" y="28.1" class="st38" width="0.9" height="1.4"/>
<rect x="44.3" y="28.5" class="st36" width="0.9" height="3.2"/>
<rect x="44.3" y="27.4" class="st39" width="0.9" height="1.1"/>
<rect x="45.8" y="29.6" class="st31" width="0.9" height="2.1"/>
<rect x="45.8" y="29" class="st40" width="0.9" height="0.6"/>
<rect x="76.9" y="27.4" class="st34" width="0.9" height="4.3"/>
<rect x="78.4" y="27.4" class="st34" width="0.9" height="4.3"/>
<rect x="79.8" y="27.4" class="st34" width="0.9" height="4.3"/>
<rect x="81.3" y="27.4" class="st34" width="0.9" height="4.3"/>
<rect x="76.9" y="29.6" class="st16" width="0.9" height="2.1"/>
<g class="st37">
	<rect x="76.9" y="28.7" class="st16" width="0.9" height="0.9"/>
</g>
<rect x="78.4" y="30" class="st32" width="0.9" height="1.7"/>
<rect x="78.4" y="28.9" class="st38" width="0.9" height="1.1"/>
<rect x="79.8" y="29.2" class="st36" width="0.9" height="2.4"/>
<rect x="79.8" y="28.4" class="st39" width="0.9" height="0.8"/>
<rect x="81.3" y="30.1" class="st31" width="0.9" height="1.6"/>
<rect x="81.3" y="29.6" class="st40" width="0.9" height="0.5"/>
<g>
	<path class="st16" d="M53.1,31.1l0.1-0.5h0.6v0.2h-0.4l0,0.2c0,0,0.1,0,0.2,0c0.1,0,0.2,0,0.2,0.1c0.1,0.1,0.1,0.1,0.1,0.3
		c0,0.1,0,0.1,0,0.2c0,0.1-0.1,0.1-0.1,0.1s-0.1,0-0.2,0c-0.1,0-0.1,0-0.2,0s-0.1-0.1-0.1-0.1c0,0,0-0.1,0-0.2h0.2c0,0,0,0.1,0,0.1
		c0,0,0.1,0,0.1,0c0,0,0.1,0,0.1,0c0,0,0-0.1,0-0.1s0-0.1,0-0.1c0,0-0.1,0-0.1,0s-0.1,0-0.1,0l0,0L53.1,31.1z"/>
	<path class="st16" d="M54.6,31.3h0.1v0.2h-0.1v0.2h-0.2v-0.2h-0.4l0-0.1l0.4-0.7h0.2V31.3z M54.1,31.3h0.2v-0.4l0,0L54.1,31.3z"/>
	<path class="st16" d="M54.8,31.5C54.8,31.5,54.8,31.5,54.8,31.5c0.1-0.1,0.1-0.1,0.1-0.1c0,0,0.1,0,0.1,0c0,0,0,0,0,0.1
		c0,0,0,0.1,0,0.1c0,0,0,0-0.1,0C54.9,31.6,54.9,31.6,54.8,31.5C54.8,31.6,54.8,31.6,54.8,31.5z"/>
	<path class="st16" d="M55.4,30.9L55.4,30.9c0.1,0,0.1,0,0.2,0c0.1,0,0.2,0,0.2,0.1c0-0.1,0.1-0.1,0.2-0.1c0.1,0,0.1,0,0.2,0.1
		c0,0,0.1,0.1,0.1,0.2v0.5h-0.2v-0.5c0,0,0-0.1,0-0.1s0,0-0.1,0c-0.1,0-0.1,0-0.1,0.1v0.5h-0.2v-0.5c0,0,0-0.1,0-0.1c0,0,0,0-0.1,0
		c-0.1,0-0.1,0-0.1,0.1v0.6h-0.2v-0.8L55.4,30.9L55.4,30.9z"/>
	<path class="st16" d="M56.5,30.7C56.5,30.6,56.6,30.6,56.5,30.7c0.1-0.1,0.1-0.1,0.1-0.1c0,0,0.1,0,0.1,0c0,0,0,0,0,0.1
		c0,0,0,0.1,0,0.1c0,0,0,0-0.1,0S56.6,30.7,56.5,30.7C56.6,30.7,56.5,30.7,56.5,30.7z M56.8,31.7h-0.2v-0.8h0.2V31.7z"/>
	<path class="st16" d="M57.2,31.7H57v-1.1h0.2V31.7z"/>
	<path class="st16" d="M57.6,31.7h-0.2v-1.1h0.2V31.7z"/>
</g>
</svg>
