<?xml version="1.0" encoding="utf-8"?>
<!-- Generator: Adobe Illustrator 23.0.2, SVG Export Plug-In . SVG Version: 6.00 Build 0)  -->
<svg version="1.1" id="Layer_1" xmlns="http://www.w3.org/2000/svg" xmlns:xlink="http://www.w3.org/1999/xlink" x="0px" y="0px"
	 viewBox="0 0 141.7 98.1" style="enable-background:new 0 0 141.7 98.1;" xml:space="preserve">
<style type="text/css">
	.st0{fill:url(#SVGID_1_);}
	.st1{fill:#FFFFFF;}
	.st2{fill:#BDBDBD;}
	.st3{fill:#FF5252;}
	.st4{fill:#FFFF00;}
	.st5{fill:#69F0AE;}
	.st6{fill:#E0E0E0;}
	.st7{fill:#F5F5F5;}
	.st8{fill:#2196F3;}
	.st9{opacity:0.4;}
	.st10{opacity:0.4;fill:#69F0AE;enable-background:new    ;}
	.st11{fill:#6C63FF;}
	.st12{opacity:0.4;fill:#6C63FF;enable-background:new    ;}
	.st13{opacity:0.4;fill:#FFFF00;enable-background:new    ;}
	.st14{fill:url(#SVGID_2_);}
	.st15{fill:url(#SVGID_3_);}
	.st16{fill:url(#SVGID_4_);}
	.st17{fill:#7C4DFF;}
</style>
<title>charts</title>
<linearGradient id="SVGID_1_" gradientUnits="userSpaceOnUse" x1="70.8661" y1="0.9606" x2="70.8661" y2="99.083" gradientTransform="matrix(1 0 0 -1 0 99.083)">
	<stop  offset="0" style="stop-color:#808080;stop-opacity:0.25"/>
	<stop  offset="0.54" style="stop-color:#808080;stop-opacity:0.12"/>
	<stop  offset="1" style="stop-color:#808080;stop-opacity:0.1"/>
</linearGradient>
<rect class="st0" width="141.7" height="98.1"/>
<rect x="1.8" y="1.4" class="st1" width="138.7" height="92.4"/>
<rect x="1.8" y="1.4" class="st2" width="138.7" height="9.1"/>
<circle class="st3" cx="8.3" cy="6" r="2.2"/>
<circle class="st4" cx="14.8" cy="6" r="2.2"/>
<circle class="st5" cx="21.2" cy="6" r="2.2"/>
<rect x="14.8" y="20" class="st6" width="23.6" height="2.7"/>
<rect x="14.8" y="24.5" class="st6" width="23.6" height="2.7"/>
<rect x="14.8" y="29" class="st6" width="39.3" height="2.7"/>
<rect x="14.8" y="33.5" class="st6" width="46.7" height="2.7"/>
<rect x="16.7" y="50.5" class="st7" width="7.1" height="33"/>
<rect x="28.4" y="50.5" class="st7" width="7.1" height="33"/>
<rect x="40.1" y="50.5" class="st7" width="7.1" height="33"/>
<rect x="51.8" y="50.5" class="st7" width="7.1" height="33"/>
<rect x="16.7" y="67" class="st8" width="7.1" height="16.5"/>
<g class="st9">
	<rect x="16.7" y="60.1" class="st8" width="7.1" height="7.2"/>
</g>
<rect x="28.4" y="70.6" class="st5" width="7.1" height="12.9"/>
<rect x="28.4" y="62.2" class="st10" width="7.1" height="8.4"/>
<rect x="40.1" y="64.6" class="st11" width="7.1" height="18.9"/>
<rect x="40.1" y="58" class="st12" width="7.1" height="6.6"/>
<rect x="51.8" y="71.2" class="st4" width="7.1" height="12.3"/>
<rect x="51.8" y="67.3" class="st13" width="7.1" height="3.8"/>
<linearGradient id="SVGID_2_" gradientUnits="userSpaceOnUse" x1="268.1087" y1="-107.1253" x2="268.1087" y2="-72.1732" gradientTransform="matrix(1 0 0 -1 -158 -44.917)">
	<stop  offset="0" style="stop-color:#808080;stop-opacity:0.25"/>
	<stop  offset="0.54" style="stop-color:#808080;stop-opacity:0.12"/>
	<stop  offset="1" style="stop-color:#808080;stop-opacity:0.1"/>
</linearGradient>
<path class="st14" d="M101.4,27.3L101.4,27.3l-0.1,35h0.1c9.7,0,17.5-7.8,17.5-17.5S111.1,27.3,101.4,27.3L101.4,27.3z"/>
<linearGradient id="SVGID_3_" gradientUnits="userSpaceOnUse" x1="250.6284" y1="-107.1253" x2="250.6284" y2="-83.9206" gradientTransform="matrix(1 0 0 -1 -158 -44.917)">
	<stop  offset="0" style="stop-color:#808080;stop-opacity:0.25"/>
	<stop  offset="0.54" style="stop-color:#808080;stop-opacity:0.12"/>
	<stop  offset="1" style="stop-color:#808080;stop-opacity:0.1"/>
</linearGradient>
<path class="st15" d="M84.9,39c-3.2,9.1,1.7,19.1,10.8,22.2c1.8,0.6,3.7,1,5.6,1v-15L84.9,39z"/>
<linearGradient id="SVGID_4_" gradientUnits="userSpaceOnUse" x1="251.112" y1="-92.0975" x2="251.112" y2="-72.1732" gradientTransform="matrix(1 0 0 -1 -158 -44.917)">
	<stop  offset="0" style="stop-color:#808080;stop-opacity:0.25"/>
	<stop  offset="0.54" style="stop-color:#808080;stop-opacity:0.12"/>
	<stop  offset="1" style="stop-color:#808080;stop-opacity:0.1"/>
</linearGradient>
<path class="st16" d="M101.3,27.3c-7.4,0-14,4.7-16.4,11.7l16.4,8.2L101.3,27.3z"/>
<path class="st11" d="M101.4,28.1L101.4,28.1l-0.1,33.3h0.1c9.2,0,16.7-7.5,16.7-16.7S110.6,28.1,101.4,28.1z"/>
<path class="st8" d="M85.7,39.3c-3,8.7,1.6,18.2,10.3,21.2c1.7,0.6,3.5,0.9,5.4,0.9V47.1L85.7,39.3z"/>
<path class="st5" d="M101.3,28.1c-7.1,0-13.4,4.5-15.7,11.2l15.7,7.8V28.1z"/>
<rect x="84" y="65.7" class="st8" width="2.1" height="2.2"/>
<rect x="101.3" y="65.7" class="st17" width="2.1" height="2.2"/>
<rect x="118.6" y="65.7" class="st5" width="2.1" height="2.2"/>
<rect x="86.7" y="66.2" class="st7" width="7.2" height="1.3"/>
<rect x="104.2" y="66.2" class="st7" width="7.2" height="1.3"/>
<rect x="121.7" y="66.2" class="st7" width="7.2" height="1.3"/>
</svg>
