<?xml version="1.0" encoding="utf-8"?>
<!-- Generator: Adobe Illustrator 23.0.3, SVG Export Plug-In . SVG Version: 6.00 Build 0)  -->
<svg version="1.1" id="Layer_1" xmlns="http://www.w3.org/2000/svg" xmlns:xlink="http://www.w3.org/1999/xlink" x="0px" y="0px"
	 viewBox="0 0 141.7 98.6" style="enable-background:new 0 0 141.7 98.6;" xml:space="preserve">
<style type="text/css">
	.st0{fill:#18243F;}
	.st1{fill:#153559;}
	.st2{fill:#E9425E;}
	.st3{opacity:0.1;fill:#EBAF41;enable-background:new    ;}
	.st4{fill:#EBAF41;}
	.st5{fill:#444053;}
	.st6{fill:none;stroke:#444053;stroke-width:0.1147;stroke-miterlimit:10;}
	.st7{fill:none;stroke:#444053;stroke-width:8.605453e-02;stroke-miterlimit:10;}
	.st8{fill:#D2D4DE;}
	.st9{opacity:0.1;enable-background:new    ;}
	.st10{fill:#30374E;}
	.st11{fill:#DFE3EF;}
	.st12{fill:#FFFFFF;}
	.st13{fill:url(#SVGID_1_);}
	.st14{fill:#65617D;}
	.st15{fill:#FBBEBE;}
	.st16{fill:#E7EFFD;}
	.st17{fill:#3F3D56;}
	.st18{fill:#E3A79F;}
	.st19{opacity:0.1;}
	.st20{opacity:0.2;fill:#EBAF41;enable-background:new    ;}
	.st21{opacity:0.5;fill:#EBAF41;enable-background:new    ;}
	.st22{fill:url(#SVGID_2_);}
	.st23{fill:#2D293D;}
	.st24{fill:#575988;}
	.st25{opacity:5.000000e-02;enable-background:new    ;}
	.st26{opacity:5.000000e-02;}
	.st27{fill:#FFCDD3;}
	.st28{fill:#DCE6F2;}
	.st29{fill:#656691;}
	.st30{opacity:0.1;fill:#FFFFFF;enable-background:new    ;}
	.st31{fill:#EFB7B9;}
	.st32{fill:#925978;}
	.st33{fill:#4C4981;}
	.st34{fill:url(#SVGID_3_);}
	.st35{fill:url(#SVGID_4_);}
	.st36{fill:url(#SVGID_5_);}
	.st37{fill:#3C6FE9;}
	.st38{fill:#31B096;}
	.st39{fill:#2196F3;}
	.st40{fill:#F5F5F5;}
	.st41{opacity:0.7;}
	.st42{opacity:0.7;fill:#31B096;enable-background:new    ;}
	.st43{opacity:0.7;fill:#E9425E;enable-background:new    ;}
	.st44{opacity:0.7;fill:#EBAF41;enable-background:new    ;}
</style>
<title>data trends</title>
<rect x="14.5" y="-450" class="st0" width="176" height="132.7"/>
<rect x="190.5" y="-450" class="st1" width="177" height="132.7"/>
<rect x="367.5" y="-450" class="st2" width="75.8" height="132.7"/>
<path class="st3" d="M73.9,20c-8.2,1.4-16.4,0.6-24.3-0.4c-7.9-1-15.8-2.3-24-2.1c-5.3,0.2-11.1,1.2-14.8,4.4c-3.5,3.1-4,7.3-4,11
	c0,2.8,0.3,5.8,2.2,8.1c1.3,1.6,3.4,2.7,4.9,4.2c5.4,5.1,3.9,13,0.4,19.8c-1.6,3.1-3.6,6.2-4.6,9.5s-1.2,6.7,0.8,9.4
	c2,2.6,5.9,4.2,9.9,5c8.1,1.7,17.2,0.8,25.9-0.4c19.3-2.7,38.4-6.9,57.5-11.2c7.1-1.6,14.1-3.2,20.9-5.5c3.8-1.3,7.6-2.9,10-5.5
	c3.1-3.3,3.1-7.8,0.1-10.5c-5.1-4.6-16.4-3.7-20.4-8.9c-2.2-2.9-1.3-6.7,0.4-10.1c3.6-7.3,10.5-14.4,9.5-21.7
	c-0.7-5-5.6-9.2-12-10.4c-6.8-1.2-15.4,0.8-19.3,5.8C89.2,15.5,81.2,18.8,73.9,20z"/>
<path class="st4" d="M126.7,25.8c0,0-1.6-0.7-6.7,1.7s-5.8,2.1-7.1,1.7c-1.3-0.4-2.1-0.4-3.5-2.4c0,0-1-5.4-2-6.3
	c-1-0.8-5.1,0.5-5.1,0.5s-5,1.1-5.9-5.5c0,0,0.7-5-0.2-6.5c0,0,1.8,0.8,4.9-0.5s5.5,1.4,5.5,1.4s0.8,2,0.7,3.2
	c-0.1,1.2,0.4,1.6,1.9,1.1c0,0,0.7-1-0.3-2.7s-1.7-2.9-1.4-4.2s1.1-3.1,3.7-4c2.6-0.9,6.1-1.1,7.8-1.8c1.7-0.7,2.1-1.2,2.1-1.2
	s-1,1,1.4,5.5c2.5,4.4,0.9,6.4,0.9,6.4s-1.3,3.1-7.1,2.9c0,0-5.6,0.2-2.5,2.6c0,0,1.9-0.4,4.8-1.3c2.9-0.9,5,2.9,5.5,5.5
	C124.5,24.3,126.7,25.8,126.7,25.8z"/>
<path class="st5" d="M119.3,3.6L119.3,3.6c0.3,0.8-2.2,4.2-4.4,6.9l0,0C117.9,6.7,119.4,4.2,119.3,3.6z"/>
<path class="st5" d="M114.9,10.4L114.9,10.4c-1.7,2.2-3.8,4.8-5.5,6.7c-0.2,0.2-0.3,0.4-0.5,0.6l0,0c0.2-0.2,0.3-0.4,0.5-0.6
	C111.1,15.1,113.2,12.6,114.9,10.4z"/>
<path class="st5" d="M108.9,17.6L108.9,17.6c-3.1,3.9-3.3,10-3.3,10l-0.7-0.8C105,26.8,105.8,21.5,108.9,17.6z"/>
<path class="st6" d="M123.1,23.7c0,0-3.7-1.9-6.5-1.2s-9.3-2.4-9.3-2.4s-2.7-1.1-3.3-2.4c0,0-1.9-2-2-3s-1.9-3.6-3.1-3.7"/>
<path class="st6" d="M122.6,25.5c0,0-1.8-1.2-1.6-2.7"/>
<path class="st6" d="M119.8,27.1c0,0-2.6-1-2.9-4.7"/>
<path class="st6" d="M115.5,28.1c0,0-2.5-2.1-1.7-5.8"/>
<path class="st6" d="M110.4,27.1c0,0-1.7-3.5-0.2-5.8"/>
<path class="st6" d="M123.2,21.3c0,0-1.9,0.6-1.5,1.6"/>
<path class="st6" d="M120.9,17.9c0,0-2.6,0.8-2.6,4.4"/>
<path class="st6" d="M117.3,17c0,0-2.3,2.9-2.2,5.5"/>
<path class="st6" d="M113.2,18.2c0,0-2.3,2.2-2,3.4"/>
<path class="st6" d="M111.8,17.4c0,0-2.2,0.4-2.5-0.3"/>
<path class="st6" d="M109,14.8c0,0,1.1,1.4,1.4,1.1"/>
<path class="st6" d="M119.9,13.9c0,0-5.5,0.4-6.7-1.2"/>
<path class="st6" d="M107.9,7.5c0,0,2.6,5.5,4.4,6.2"/>
<path class="st6" d="M110.6,4.9c0,0,1.6,5.1,3.5,6.6"/>
<path class="st7" d="M122.2,9.7c0,0-4.2,1.8-6.6,0"/>
<path class="st7" d="M114.3,3.8c0,0,0.9,3.7,2.2,4.6"/>
<path class="st7" d="M121.6,5.5c0,0-2.3,0.9-3.2,0.2"/>
<path class="st6" d="M107,16c0,0,0,3.2-0.9,3.5"/>
<path class="st6" d="M99.8,20.2c0,0,3.5,0.3,5.1-1.5"/>
<path class="st6" d="M106.1,12.2c0,0-0.8,3.3-3.2,4.2"/>
<path class="st6" d="M97.7,16.7c0,0,2.5,0.9,4.6-1.3"/>
<path class="st6" d="M103.4,9.3c0,0-0.2,2.8-1.8,4.1"/>
<path class="st6" d="M97.8,12.5c0,0,2.1,0,2.5-0.7"/>
<ellipse class="st3" cx="84.4" cy="93" rx="40.6" ry="1.9"/>
<path class="st4" d="M28.1,94.4c0,0-4.1-0.3-3.7,2.7c0,0-0.1,0.5,0.4,0.7c0,0,0-0.2,0.4-0.1c0.1,0,0.3,0,0.4,0
	c0.2,0,0.4-0.1,0.6-0.2l0,0c0,0,1.2-0.5,1.6-2.4c0,0,0.3-0.4,0.3-0.5l-0.7,0.3c0,0,0.2,0.5,0.1,0.9c0,0,0-0.9-0.2-0.9
	c0,0-0.4,0.2-0.4,0.2s0.4,0.9,0.1,1.5c0,0,0.1-1.1-0.2-1.5l-0.5,0.3c0,0,0.5,0.9,0.2,1.6c0,0,0.1-1.1-0.3-1.6l-0.4,0.3
	c0,0,0.5,0.9,0.2,1.5c0,0,0-1.3-0.3-1.4c0,0-0.4,0.3-0.4,0.5c0,0,0.3,0.6,0.1,1c0,0-0.1-0.9-0.2-0.9c0,0-0.4,0.6-0.4,1
	c0-0.4,0.1-0.7,0.3-1c-0.2,0-0.4,0.1-0.6,0.3c0,0,0.1-0.4,0.7-0.4c0,0,0.3-0.4,0.4-0.5c0,0-0.6-0.1-1,0.1c0,0,0.3-0.4,1.1-0.2
	l0.4-0.4c0,0-0.8-0.1-1.2,0c0,0,0.4-0.3,1.3-0.1l0.5-0.3c0,0-0.7-0.2-1.1-0.1c0,0,0.4-0.2,1.3,0l0.3-0.2c0,0-0.5-0.1-0.7-0.1
	s-0.2-0.1-0.2-0.1c0.3-0.1,0.7,0,1,0.1C27.3,94.7,28.1,94.4,28.1,94.4z"/>
<path class="st4" d="M20.8,94.5c0,0-2.3-0.1-2.1,1.5c0,0.2,0.1,0.3,0.2,0.4c0,0,0-0.1,0.2-0.1c0.1,0,0.2,0,0.3,0
	c0.1,0,0.2-0.1,0.3-0.1l0,0c0,0,0.7-0.3,0.9-1.3C20.7,94.9,20.9,94.7,20.8,94.5l-0.3,0.2c0.1,0.2,0.1,0.4,0,0.5c0,0,0-0.5-0.1-0.5
	c0,0-0.2,0.1-0.2,0.1s0.2,0.5,0.1,0.9c0,0,0.1-0.6-0.1-0.8l-0.3,0.2c0,0,0.3,0.5,0.1,0.9c0,0,0-0.6-0.1-0.9l-0.3,0.2
	c0,0,0.3,0.5,0.1,0.9c0,0,0-0.7-0.2-0.8c-0.1,0.1-0.2,0.2-0.3,0.3c0,0,0.2,0.4,0.1,0.6c0,0-0.1-0.5-0.1-0.5c0,0-0.2,0.3-0.2,0.6
	c0-0.2,0.1-0.4,0.2-0.6c-0.1,0-0.2,0.1-0.3,0.2c0,0,0-0.2,0.4-0.3c0.1-0.1,0.1-0.2,0.2-0.3c-0.2,0-0.4,0-0.6,0.1
	c0,0,0.2-0.2,0.6-0.1l0.2-0.2c0,0-0.5-0.1-0.7,0c0,0,0.2-0.2,0.7-0.1l0.3-0.2c-0.2,0-0.4-0.1-0.6-0.1c0,0,0.2-0.1,0.7,0l0.2-0.1
	c0,0-0.3-0.1-0.4-0.1c-0.1,0-0.1,0-0.1,0c0.2,0,0.4,0,0.5,0.1C20.4,94.7,20.8,94.5,20.8,94.5z"/>
<ellipse class="st3" cx="19.2" cy="96.6" rx="1.7" ry="0.3"/>
<path class="st4" d="M25.2,91c0,0-2.8-0.2-2.5,1.8c0,0.2,0.1,0.4,0.3,0.5c0,0,0-0.1,0.3-0.1c0.1,0,0.2,0,0.3,0
	c0.1,0,0.3-0.1,0.4-0.2l0,0c0,0,0.8-0.3,1.1-1.6C25.1,91.5,25.3,91.2,25.2,91l-0.4,0.3c0,0,0.2,0.3,0,0.6c0,0,0-0.6-0.1-0.6
	c0,0-0.2,0.1-0.2,0.1s0.3,0.6,0.1,1c0,0,0.1-0.7-0.2-1l-0.3,0.2c0,0,0.3,0.6,0.1,1.1c0,0,0.1-0.8-0.2-1.1L23.7,92c0,0,0.3,0.6,0.1,1
	c0,0,0-0.9-0.2-1c-0.1,0.1-0.2,0.2-0.3,0.3c0,0,0.2,0.4,0.1,0.7c0,0-0.1-0.6-0.1-0.6c0,0-0.3,0.4-0.3,0.7c0-0.3,0.1-0.5,0.2-0.7
	c-0.2,0-0.3,0.1-0.4,0.2c0,0,0-0.3,0.5-0.3c0,0,0.2-0.3,0.3-0.3c0,0-0.4,0-0.7,0.1c0,0,0.2-0.3,0.8-0.1l0.3-0.2c0,0-0.6-0.1-0.8,0
	c0,0,0.3-0.2,0.9-0.1l0.3-0.2c-0.3-0.1-0.5-0.1-0.8-0.1c0,0,0.3-0.2,0.9,0l0.2-0.1c0,0-0.4-0.1-0.5-0.1s-0.1,0-0.1,0
	c0.2,0,0.5,0,0.7,0.1C24.8,91.3,25.3,91.1,25.2,91z"/>
<ellipse class="st3" cx="23.3" cy="93.5" rx="2" ry="0.3"/>
<path class="st8" d="M83.6,90.2v0.9H57.1v-0.7c4.5-1.7,6.8-6.7,5.1-11.2c-0.8-2.2-2.4-3.9-4.5-4.9h25.8c-2.4,1.1-4.2,3.2-4.8,5.8
	c-0.9,3.5,0.5,7.1,3.4,9.2C82.5,89.6,83,89.9,83.6,90.2z"/>
<path class="st9" d="M83.4,74.2c-2.4,1.1-4.2,3.2-4.8,5.8H62.5c-0.7-2.6-2.4-4.7-4.8-5.8H83.4z"/>
<path class="st8" d="M26.7,69.6v5c0,2.8,2,5,4.5,5h78.1c2.5,0,4.5-2.3,4.5-5v-5H26.7z"/>
<path class="st9" d="M83.6,90.2v0.9H57.1v-0.7c0.7-0.3,1.4-0.6,2-1.1H82C82.5,89.6,83,89.9,83.6,90.2z"/>
<path class="st8" d="M49.4,89.5h41.9c0.6,0,1.1,0.5,1.1,1.1v0.5c0,0.6-0.5,1.1-1.1,1.1H49.4c-0.6,0-1.1-0.5-1.1-1.1v-0.5
	C48.3,90,48.8,89.5,49.4,89.5z"/>
<path class="st10" d="M113.8,14.5c0-2.5-2-4.5-4.5-4.5l0,0H31.2c-2.5,0-4.5,2-4.5,4.5l0,0v56.2h87.2V14.5z"/>
<path class="st11" d="M111.5,16.5v48.3c0,1.2-1,2.2-2.2,2.2l0,0H31.3c-1.2,0-2.2-1-2.2-2.2c0,0,0,0,0,0V16.5c0-1.2,1-2.2,2.2-2.2
	c0,0,0,0,0,0h77.9C110.5,14.2,111.5,15.2,111.5,16.5C111.5,16.5,111.5,16.5,111.5,16.5z"/>
<circle class="st12" cx="70.3" cy="12.1" r="1"/>
<circle class="st12" cx="70.3" cy="74.9" r="2.6"/>
<path class="st12" d="M111.5,16.5H29.1c0-1.2,1-2.2,2.2-2.2c0,0,0,0,0,0h77.9C110.5,14.2,111.5,15.2,111.5,16.5
	C111.5,16.5,111.5,16.5,111.5,16.5z"/>
<circle class="st11" cx="31.3" cy="15.4" r="0.6"/>
<circle class="st11" cx="33" cy="15.4" r="0.6"/>
<circle class="st11" cx="34.6" cy="15.4" r="0.6"/>
<rect x="36.8" y="22.7" class="st12" width="66.5" height="38.9"/>
<linearGradient id="SVGID_1_" gradientUnits="userSpaceOnUse" x1="-488.387" y1="-14.534" x2="-488.387" y2="10.4332" gradientTransform="matrix(1 0 0 -1 604.25 77.7212)">
	<stop  offset="0" style="stop-color:#808080;stop-opacity:0.25"/>
	<stop  offset="0.54" style="stop-color:#808080;stop-opacity:0.12"/>
	<stop  offset="1" style="stop-color:#808080;stop-opacity:0.1"/>
</linearGradient>
<path class="st13" d="M121.9,75.1c0-0.1-0.2-0.4-0.2-0.5c0,0-0.2-0.2-0.2-0.3s-0.2-0.4-0.2-0.4s-0.3-0.1-0.4-0.4
	c0-0.3-0.4-0.3-0.4-0.3l0,0c0,0,0,0,0-0.1c0-0.1,0-0.2,0-0.4c0-0.1-0.1-0.1-0.2-0.2c0-0.1-0.1-0.2-0.1-0.3c-0.1-0.1-0.1-0.2-0.1-0.3
	c0-0.1,0-0.4-0.2-0.4c-0.2,0-0.4-0.1-0.4-0.1l0,0l0,0c0,0-0.1,0-0.1,0c0,0-0.1,0-0.1,0c-0.1-0.1-0.6-0.2-0.6-0.2
	c-0.1,0-0.2-0.1-0.4-0.1l-0.3-0.2c-0.1-0.1-0.2-0.2-0.2-0.3l0,0l0,0c0-0.1,0-0.1-0.1-0.2l0,0c0.1-0.1,0.2-0.2,0.2-0.3l0,0
	c0,0,0,0,0,0l0,0c0.1,0,0.1-0.1,0.1-0.2l0,0c0,0,0,0,0,0v0c0,0,0,0,0,0c0,0,0,0,0,0c0,0,0,0,0,0c0,0,0,0,0,0v0l0,0c0,0,0-0.1,0-0.1
	l0,0c0.1-0.2,0.1-0.3,0.2-0.5l0,0c0,0,0,0,0-0.1c0,0,0,0,0-0.1c0,0,0,0,0,0c0,0,0,0,0-0.1c0,0,0,0,0,0c0,0,0-0.1,0-0.1
	c0-0.1,0-0.3-0.1-0.4c0-0.1-0.1-0.2-0.2-0.3c-0.1-0.2-0.1-0.4-0.2-0.5c-0.1-0.3-0.5-0.4-0.8-0.3c-0.1,0-0.2,0.1-0.4,0.2
	c-0.2,0.1-0.4,0-0.6,0c-0.2,0-0.4,0-0.5,0.1c-0.2,0.1-0.2,0.4-0.4,0.6c-0.1,0.1-0.2,0.1-0.2,0.2c-0.1,0-0.1,0.1-0.1,0.2v0
	c0,0,0,0,0,0c0,0,0,0,0,0c0,0,0,0,0,0c0,0,0,0,0,0l0,0c0,0,0,0,0,0c0,0,0,0,0,0c0,0,0,0,0,0l0,0l0,0l0,0c0,0,0,0,0,0
	c0,0,0,0.1,0.1,0.1c0,0,0,0.1,0,0.1c0,0,0,0.1-0.1,0.1c-0.1,0.1-0.2,0.3-0.3,0.4c0,0,0,0,0,0.1l0,0h0c0,0,0,0,0.1,0h0
	c0,0,0.1,0,0.1,0l0,0c0,0,0.1,0,0.1,0c0,0,0,0,0,0v0c0,0.5,0.3,1,0.8,1.3c0,0,0,0,0,0c0,0,0,0,0,0l0,0c0,0-0.1-0.1-0.2,0.1
	c-0.1,0.1-0.2,0.2-0.3,0.2c0,0-1.1,0.2-1.1,0.3l-0.5,0c0,0-0.2,0-0.2,0.4c0,0.4-0.1,0.4-0.1,0.4s-0.2,0.4-0.2,0.6
	c0,0.1-0.1,0.2-0.2,0.3l0,0.3c-0.1,0-0.2,0.1-0.3,0.2c0,0,0,0,0,0c0,0.1-0.1,0.2-0.2,0.3c0,0-0.3,0.3-0.4,0.5l-0.2,0.1
	c0,0-0.5-0.1-0.6-0.3l0,0l0,0l0,0c-0.1-0.1-0.1-0.1-0.2-0.2c0,0,0,0.1,0,0.1l0,0l-0.1-0.1c0,0-0.7-0.8-1.2-0.9l0,0
	c-0.1,0-0.2,0.1-0.2,0.2c-0.1,0.2-0.1,0.5,0,0.7l0.7,0.8l0,0l0.2,0.2c0,0.1,0,0.1-0.1,0.2l0,0c0,0,0,0,0,0v0l0,0c0,0,0,0,0,0v0
	c0,0.1,0,0.1,0,0.1l0,0l0,0l0,0c0,0,0,0,0,0l0,0c0.2,0.1,1.3,0.6,1.3,0.6c0.2,0.2,0.5,0.2,0.8,0.1c0.2-0.1,0.4-0.3,0.4-0.5
	c0.1-0.2,0.3-0.4,0.4-0.5c0-0.1,0.3-0.2,0.3-0.2s0,0.8-0.1,1.1c-0.1,0.3-0.4,1.6-0.4,1.6c0,0,0,0,0.1,0l0,0.1c0,0,0,0,0.1,0
	c0,0.1-0.1,0.8-0.1,0.8c0,0.1,0,0.3-0.1,0.4c-0.1,0.1-0.1,0.7-0.1,0.7l-0.1,0.4c0,0,0,0,0,0.1l0,0c0.1,0.1,0.2,0.3,0.3,0.4
	c0,0.1,0,0.1,0,0.2c0,0.1-0.1,0.2,0,0.3c0,0.2-0.1,0.4-0.1,0.6c0,0.2,0,0.3-0.1,0.5l-0.1,1c0,0-0.1,0.9,0,1.1c0,0.2,0,0.4,0,0.6
	c0,0,0.1,0.7,0.1,0.8c0,0.1-0.1,0.4-0.1,0.6c0.1,0.2,0,0.7,0,0.7s0,0.7,0.1,0.9c0,0.2,0,0.3,0,0.5c0,0.2,0,0.3-0.1,0.5
	c0,0-0.2,0.3,0.1,0.6c0.3,0.3,0.1,0.3,0.1,0.3s-0.3-0.1-0.2,0.1s0.1,0.2,0.1,0.2l-0.1,0.2l0,0c0,0,0,0,0,0c0,0-0.1,0.1-0.1,0.1
	c0,0-0.1,0.1-0.1,0.2c-0.3,0.3-0.5,0.5-0.9,0.7c-0.2,0.1-0.3,0.2-0.5,0.3c-0.1,0.1-0.1,0.1,0.1,0.2c0.4,0.1,0.9,0.1,1.3,0
	c0.2-0.1,0.5-0.2,0.6-0.4c0.2-0.1,0.3-0.1,0.5-0.1c0.3,0,0.8-0.3,0.8-0.3l0-0.1l0-0.2c0,0,0-0.1,0-0.2c0-0.1,0-0.1,0-0.2
	c0,0,0,0,0-0.1l0,0c0,0-0.1-0.3,0-0.4c0.1-0.1,0.1-0.8,0.1-0.8c-0.1-0.1-0.1-0.2-0.2-0.2c-0.1,0,0-0.4,0-0.5c0,0,0.1-1,0.1-1
	c0-0.1,0-0.3,0-0.4c0-0.1-0.1-0.6-0.1-0.6c0,0,0-0.1,0-0.1c0.1-0.1,0-0.7,0-0.7s0-0.3,0-0.4c0-0.2,0.1-0.3,0.1-0.5
	c0.1-0.1,0-0.4,0-0.4l0,0v0c0,0,0,0,0,0v0c0-0.2,0.1-0.3,0.1-0.5c0.1-0.3,0.2-0.7,0.2-0.7l0.6-1.5v0c0.2,0.3,0.2,0.6,0.3,0.9
	c0,0.2,0,0.5,0,0.7c0,0.3,0,0.5,0.1,0.8c0,0,0.1,1,0.1,1s0.1,0.8,0.2,0.9s-0.1,0.5-0.1,0.5s0,0.9,0,0.9s-0.1,0.7-0.1,0.8
	c0,0.1-0.1,0.7,0,0.9s0,0.2,0,0.2s0.2,0.2,0.1,0.2c-0.2,0-0.3,0.2-0.3,0.4c0,0,0,0,0,0c0.1,0.2,0.2,0.4,0.3,0.6l0.1,0v0.1l0,0.4
	c0,0.1,0,0.3,0,0.4c0,0.1,0,0.3-0.1,0.5c0,0.1,0,0.1,0,0.1s0,0.3,0.7,0.2s0.8-0.4,0.8-0.4s0,0,0,0c0-0.1,0-0.2,0-0.3
	c0-0.1-0.2-0.5-0.2-0.5s0-0.3-0.1-0.4c0,0,0-0.1,0-0.1c0,0,0,0,0-0.1l0,0c0,0,0-0.2,0.1-0.3c0.1-0.1,0.1-0.2,0.1-0.3
	c0-0.1,0-0.3,0.1-0.4c0-0.1,0-0.1,0-0.2c0.1-0.1,0.2-0.7,0.2-0.7l0-2.3c0-0.2,0-0.4,0-0.6c0-0.2-0.1-0.5,0-0.6s0-0.5,0-0.5
	s0-0.8,0.1-1c0.1-0.2,0.1-1.5,0.1-1.5l0-0.8c0,0,0.2-0.2,0.2-1.2c0.2,0,0.4,0,0.5,0c0.1,0.1,0.5,0.3,0.8,0.2
	c0.1-0.1,0.2-0.2,0.3-0.2l-0.1-1.8c0.1,0.1,0.1,0.2,0.1,0.2c0-0.3,0.7-1.1,0.7-1.1s0.7-0.9,0.8-1s0.4-0.6,0.4-0.6
	c0-0.1,0.1-0.2,0.1-0.3C122.1,75.5,121.9,75.2,121.9,75.1z M120.3,75.8c-0.2,0-0.6,0.4-0.6,0.5c0,0.1,0,0.1-0.1,0.2c0,0,0-0.1,0-0.1
	c0-0.5-0.1-1.2-0.1-1.2c0-0.2,0-0.4,0-0.6l0,0l0,0c0.1,0.4,0.5,0.8,0.5,0.8s0.1,0.2,0.1,0.2C120.3,75.5,120.3,75.8,120.3,75.8
	L120.3,75.8z"/>
<path class="st14" d="M110.6,75.6c0,0,0.2-1.2,0.9-1.2l0.5,1.1l-0.3,0.2C111.7,75.8,111,75.8,110.6,75.6z"/>
<path class="st9" d="M112.1,75.5l-0.3,0.2c-0.3,0-0.6,0-0.9-0.1c-0.1,0-0.1,0-0.2-0.1c0,0,0,0,0,0l0,0c0-0.1,0.1-0.3,0.1-0.4
	c0-0.1,0-0.1,0.1-0.2c0.1-0.2,0.3-0.4,0.4-0.5c0.1,0,0.2-0.1,0.2-0.1h0l0,0l0.2,0.4L112.1,75.5z"/>
<path class="st14" d="M118,80.4c0,0,0.7-0.1,0.8,0c0.1,0.1,0.5,0.3,0.7,0.2c0.3-0.2,0.1-0.8,0.1-0.8s0-0.9,0-0.9l-0.4-0.6l-0.6-1.1
	l-1.1-0.1l0,1.7v0.9L118,80.4z"/>
<path class="st9" d="M118,80.4c0,0,0.7-0.1,0.8,0c0.1,0.1,0.5,0.3,0.7,0.2c0.3-0.2,0.1-0.8,0.1-0.8s0-0.9,0-0.9l-0.4-0.6l-0.6-1.1
	l-1.1-0.1l0,1.7v0.9L118,80.4z"/>
<path class="st15" d="M111.4,74.4c0,0-0.1,0.7-0.5,0.7c0,0-0.1-0.1-0.3-0.2c-0.4-0.3-1-0.9-0.9-1.4c0.3-0.8,1.5,0.6,1.5,0.6l0.1,0.1
	L111.4,74.4z"/>
<path class="st9" d="M111.4,74.4c0,0-0.1,0.7-0.5,0.7c0,0-0.1-0.1-0.3-0.2l0,0c0.1,0,0.2,0.1,0.2,0.1c0.1,0,0.3-0.1,0.3-0.2
	c0-0.1,0.1-0.2,0.1-0.3c0-0.1,0-0.1,0-0.2L111.4,74.4z"/>
<path class="st16" d="M111.2,75.8l-0.1-0.1l-0.3-0.4l-0.2-0.2c0.1,0,0.2,0.1,0.2,0.1c0.1,0,0.3-0.1,0.3-0.2c0-0.1,0.1-0.2,0.1-0.3
	c0.1-0.2,0.1-0.2,0-0.3c0.1,0.1,0.1,0.1,0.2,0.2l0,0l0,0l0,0l0.2,0.3c0,0,0,0,0,0C111.7,75,111.8,75.7,111.2,75.8z"/>
<path class="st14" d="M114.8,91.1c0,0-0.5,0.3-0.8,0.3c-0.2,0-0.3,0-0.5,0.1c-0.2,0.2-0.4,0.3-0.6,0.4c-0.4,0.1-1,0.1-1.3,0
	c-0.2-0.1-0.2-0.1-0.1-0.2c0.1-0.1,0.3-0.2,0.5-0.3c0.3-0.2,0.6-0.5,0.9-0.7c0-0.1,0-0.1,0.1-0.2c0,0,0.1-0.1,0.1-0.1
	c0.1-0.1,0.1-0.2,0.1-0.2l1.5,0c0,0,0,0.1,0,0.2c0,0.1,0,0.1,0,0.2c0,0.1,0,0.1,0,0.1L114.8,91.1L114.8,91.1z"/>
<path class="st14" d="M117.9,91.5c0,0.1,0,0.2,0,0.3c0,0,0,0,0,0s-0.1,0.3-0.8,0.4c-0.7,0.1-0.7-0.2-0.7-0.2s0,0,0-0.1
	c0-0.2,0-0.3,0.1-0.5c0-0.1,0-0.3,0-0.4l0-0.4v-0.2l1.1-0.1c0,0.1,0,0.2,0,0.2c0,0,0,0.1,0,0.1c0.1,0.1,0.1,0.4,0.1,0.4
	S117.9,91.4,117.9,91.5z"/>
<path class="st9" d="M114.6,90.2c0,0,0,0.1,0,0.2c-0.2,0-0.9,0.1-1,0.1c-0.2-0.1-0.4-0.1-0.6-0.1l0,0c0.1-0.1,0.1-0.2,0.1-0.2
	L114.6,90.2z"/>
<path class="st9" d="M117.5,90.5c-0.3,0-0.9,0.1-1.1,0.1v-0.2l1.1-0.1C117.5,90.4,117.5,90.4,117.5,90.5z"/>
<path class="st17" d="M118.1,81.5l0,0.8c0,0,0,1.3-0.1,1.5c-0.1,0.2-0.1,1-0.1,1s0.1,0.4,0,0.5c-0.1,0.1,0,0.4,0,0.6
	c0,0.2,0,0.4,0,0.6l0,2.3c0,0-0.1,0.6-0.1,0.7c0,0.1-0.1,0.1,0,0.2c0,0.1,0,0.3-0.1,0.4c0,0.1,0,0.2-0.1,0.3
	c-0.1,0.1-0.1,0.3-0.1,0.3c-0.3-0.1-1.3,0.1-1.3,0.1c-0.1-0.2-0.2-0.4-0.3-0.6c-0.1-0.2,0-0.4,0.2-0.4c0,0,0,0,0,0
	c0.1,0-0.1-0.2-0.1-0.2s0,0,0-0.2s0-0.8,0-0.9l0.1-0.8c0,0,0-0.9,0-0.9c0,0,0.2-0.4,0.1-0.5c-0.1-0.1-0.2-0.9-0.2-0.9
	c0,0-0.1-1-0.1-1s-0.1-0.7-0.1-0.8c0-0.2,0-0.5,0-0.7c0-0.3-0.1-0.6-0.3-0.9l0,0l-0.6,1.5c0,0-0.1,0.4-0.2,0.7
	c0,0.2-0.1,0.3-0.1,0.5v0c0,0,0,0,0,0v0l0,0c0,0,0,0.3,0,0.4c-0.1,0.2-0.1,0.3-0.1,0.5c0,0.1,0,0.4,0,0.4s0,0.6,0,0.7
	c0,0,0,0.1,0,0.1c0,0,0.1,0.5,0.1,0.6c0,0.1,0,0.3,0,0.4c0,0-0.1,0.9-0.1,1c0,0-0.1,0.4,0,0.4c0.1,0.1,0.1,0.1,0.2,0.2
	c0,0,0,0.8-0.1,0.8c-0.1,0.1,0,0.4,0,0.4s-0.9,0.2-1.1,0.1c-0.2-0.1-0.4-0.1-0.6-0.1l0.1-0.2c0,0,0,0.1-0.1-0.2
	c0-0.2,0.2-0.1,0.2-0.1s0.2,0-0.1-0.3c-0.3-0.3-0.2-0.6-0.1-0.6c0-0.2,0-0.3,0.1-0.5c0-0.2,0-0.3,0-0.5c0-0.2-0.1-0.9-0.1-0.9
	s0-0.5,0-0.7c-0.1-0.2,0-0.5,0.1-0.6c0-0.1-0.1-0.8-0.1-0.8c0-0.2,0-0.4,0-0.6c0-0.2,0-1.1,0-1.1l0.1-1c0-0.2,0.1-0.3,0.1-0.5
	c0-0.2,0-0.4,0.1-0.6c0-0.1,0-0.2,0-0.3c0-0.2,0.1-0.3,0.1-0.5l0.6-1.3l0.3-1.2l3.8,0c0,0,0,0.1,0,0.3c0,0.2,0.1,0.5,0.1,0.8
	c0,0.3,0.1,0.7,0.1,1.1C118.4,81.3,118.1,81.5,118.1,81.5z"/>
<path class="st15" d="M117.8,71l-0.9,0.9c0,0-1.1-0.5-1-0.6c0-0.1,0-0.3,0-0.5c0-0.3-0.1-0.7-0.1-0.7s2-0.3,1.8,0
	c-0.1,0.1-0.1,0.3,0,0.4C117.6,70.8,117.7,70.9,117.8,71z"/>
<path class="st9" d="M117.6,70.2c-0.1,0.1-0.1,0.1-0.1,0.3c-0.3,0.3-0.6,0.6-1,0.6c-0.2,0-0.4-0.1-0.6-0.1c0-0.3-0.1-0.7-0.1-0.7
	S117.8,69.9,117.6,70.2z"/>
<path class="st15" d="M118,69.6c0,0.8-0.6,1.4-1.4,1.5c-0.8,0-1.4-0.6-1.5-1.4c0,0,0-0.1,0-0.1v0c0-0.8,0.7-1.4,1.5-1.4
	C117.3,68.2,117.9,68.8,118,69.6z"/>
<path class="st9" d="M118.2,79c-0.2,0-0.8,0-1.5,0h0h-0.2h0c-0.8,0-1.6-0.1-2-0.1c-0.7,0.1,0.3-0.6,0.3-0.6c0.5,0.1,1.1,0.2,1.6,0.2
	l0.2,0c0.6,0,1.3-0.1,1.6-0.2C118.1,78.4,118.1,78.6,118.2,79z"/>
<path class="st18" d="M118.2,78.9c-0.2,0-0.8,0-1.5,0h0h-0.2h0c-0.8,0-1.6-0.1-2-0.1c-0.7,0.1,0.3-0.6,0.3-0.6
	c0.5,0.1,1.1,0.2,1.6,0.2l0.2,0c0.6,0,1.3-0.1,1.6-0.2C118.1,78.3,118.1,78.6,118.2,78.9z"/>
<path class="st9" d="M116.2,71.4l-1.1,0.5l-0.9,6.6c0,0,0.5-0.2,0.8-0.1c0.3,0.1,1.2,0,1.2,0s0.6,0,0.7,0c0.1,0.1,1.2-0.3,1.2-0.3
	s0.2-0.5,0-0.5s0-0.8,0-0.8l-0.1-4.7l-0.2-0.6l-0.5-0.3l-0.5,0.4l-0.3,0L116.2,71.4z"/>
<path class="st16" d="M116.2,71.4l-1.1,0.5l-0.8,6.6c0,0,0.5-0.2,0.8-0.1s1.2,0,1.2,0s0.6,0,0.7,0c0.1,0.1,1.2-0.3,1.2-0.3
	s0.2-0.5,0-0.5c-0.2-0.1,0-0.8,0-0.8l-0.1-4.7l-0.2-0.6l-0.5-0.3l-0.5,0.4l-0.3,0L116.2,71.4z"/>
<path class="st9" d="M116.1,71.7c0,0,0.3,0.4,0.3,0.5s0,0.3,0,0.3l-0.2,0.5c0,0-0.1,0.6-0.1,0.7s-0.2,1.2-0.2,1.2l-0.3,1.7l-0.3,2.2
	l0.3,0.6l0.4-0.3l0.5-3.9l0.1-0.8c0,0,0.1-1.4,0.1-1.5c0-0.2,0-0.3-0.1-0.5c0,0,0.1-0.4,0.4-0.4c0.3-0.1,0,0,0,0l-0.2-0.1l-0.2,0.1
	C116.7,71.6,116.2,71.5,116.1,71.7z"/>
<path class="st17" d="M116.1,71.6c0,0,0.3,0.4,0.3,0.5c0,0.1,0,0.3,0,0.3l-0.2,0.5c0,0-0.1,0.6-0.1,0.7s-0.2,1.2-0.2,1.2l-0.3,1.7
	l-0.3,2.2l0.3,0.6l0.4-0.3l0.5-3.9l0.1-0.8c0,0,0.1-1.4,0.1-1.5c0-0.2,0-0.3-0.1-0.5c0,0,0.1-0.4,0.4-0.4s0,0,0,0l-0.2-0.1l-0.2,0.1
	C116.6,71.6,116.2,71.5,116.1,71.6z"/>
<path class="st9" d="M115.9,71c0,0,0,0-0.1,0.3c0,0.3-0.1,0.5-0.2,0.8c0,0,0.6-0.4,0.9-0.4L115.9,71z"/>
<path class="st16" d="M115.9,70.9c0,0,0,0-0.1,0.3c0,0.3-0.1,0.5-0.2,0.8c0,0,0.6-0.4,0.9-0.4L115.9,70.9z"/>
<path class="st9" d="M117.6,70.8l-1,0.9c0,0,0.8,0.5,0.9,0.6c0.1,0.1,0.2-1.2,0.2-1.2L117.6,70.8z"/>
<path class="st16" d="M117.6,70.7l-1,0.9c0,0,0.8,0.5,0.9,0.6c0.1,0.1,0.2-1.2,0.2-1.2L117.6,70.7z"/>
<path class="st9" d="M115.9,71c0,0-0.1-0.1-0.2,0.1c-0.1,0.1-0.2,0.2-0.3,0.2c0,0-1.1,0.2-1.1,0.3l-0.5,0c0,0-0.2,0-0.2,0.4
	s-0.1,0.4-0.1,0.4s-0.2,0.4-0.2,0.6c0,0.1-0.1,0.2-0.2,0.3l0.7,1.9c0,0,0,0.8-0.1,1.1s-0.4,1.6-0.4,1.6s0.1,0,0.1,0
	c0,0.1-0.1,0.9-0.1,0.9c0,0.1,0,0.3-0.1,0.4c-0.1,0.1-0.1,0.7-0.1,0.7l-0.1,0.4c0,0,0.2,0.5,0.6,0.4s1-1.4,1-1.4l0.4-1.5l0.3-1.4
	l0.1-1l0.1-2.2l0.2-1.4C115.8,71.9,116,71.1,115.9,71z"/>
<path class="st14" d="M115.9,70.9c0,0-0.1-0.1-0.2,0.1c-0.1,0.1-0.2,0.2-0.3,0.2c0,0-1.1,0.2-1.1,0.3l-0.5,0c0,0-0.2,0-0.2,0.4
	c0,0.4-0.1,0.4-0.1,0.4s-0.2,0.4-0.2,0.6c0,0.1-0.1,0.2-0.2,0.3l0.7,1.9c0,0,0,0.8-0.1,1.1c-0.1,0.3-0.4,1.6-0.4,1.6s0.1,0,0.1,0
	s-0.1,0.9-0.1,0.9c0,0.1,0,0.3-0.1,0.4c-0.1,0.1-0.1,0.7-0.1,0.7l-0.1,0.4c0,0,0.2,0.5,0.6,0.4c0.3-0.1,1-1.4,1-1.4l0.4-1.5l0.3-1.4
	l0.1-1l0.1-2.2l0.2-1.4C115.7,71.8,116,71,115.9,70.9z"/>
<path class="st9" d="M112.1,75.5l-0.3,0.2c-0.3,0-0.6,0-0.9-0.1l-0.2-0.1l0,0l0,0c0.2,0.1,0.3,0.1,0.5,0c0.5-0.2,0.4-1,0.4-1.2
	c0,0,0,0,0,0l0,0l0,0c0,0,0,0,0,0l0,0l0,0l0.2,0.3c0,0,0,0,0,0L112.1,75.5z"/>
<path class="st14" d="M113.3,73.2l-0.2,0l0,0.3c-0.1,0-0.2,0.1-0.3,0.2c0,0.1-0.1,0.2-0.1,0.3c0,0-0.3,0.3-0.3,0.5l-0.2,0.1
	c0,0-0.5-0.1-0.6-0.3c0,0,0.2,1.5-0.9,1.2c0,0,1.3,0.6,1.3,0.6c0.2,0.2,0.5,0.2,0.8,0.1c0.2-0.1,0.4-0.3,0.4-0.5
	c0,0,0.3-0.5,0.4-0.6c0-0.1,0.3-0.2,0.3-0.2l0.5-1.2L113.3,73.2z"/>
<path class="st9" d="M117.4,71.5l0.2-0.8c0,0.1,0.1,0.2,0.2,0.3l0.3,0.2c0.1,0.1,0.2,0.1,0.3,0.1c0.1,0,0.6,0.1,0.6,0.2
	c0.1,0.1,0.3,0,0.3,0s0.2,0.1,0.4,0.1s0.3,0.3,0.2,0.4c0,0.1,0,0.2,0.1,0.3c0.1,0.1,0.1,0.2,0.1,0.3c0.1,0,0.2,0.1,0.2,0.2
	c0,0.1,0.1,0.3,0,0.4l-0.9,1.3c0,0.2,0,0.4,0,0.6c0,0.1,0.1,1.9,0.1,1.9l0.2,3.1c-0.1,0.1-0.2,0.2-0.3,0.2c-0.1,0-0.1-1.1-0.1-1.1
	c0,0-1.4-2.1-1.4-2.1c-0.1-0.1-0.1-0.2-0.2-0.4c0-0.1-0.2-0.7-0.2-0.7l-0.3-1.2L117.4,71.5z"/>
<path class="st14" d="M120.4,73.3C120.4,73.3,120.4,73.3,120.4,73.3l-0.9,1.3l0,0c0,0.2,0,0.4,0,0.6c0,0.1,0,0.7,0.1,1.2
	c0,0.4,0.1,0.7,0.1,0.7l0.1,1.3l0.1,1.8c-0.1,0.1-0.2,0.2-0.3,0.2c-0.1,0-0.1-1.1-0.1-1.1c0,0-1.4-2.1-1.4-2.1
	c-0.1-0.1-0.1-0.2-0.2-0.4c0-0.1-0.2-0.7-0.2-0.7l-0.3-1.2l0.1-3.6l0.1-0.8c0.1,0.1,0.1,0.2,0.2,0.3l0.3,0.2
	c0.1,0.1,0.2,0.1,0.3,0.1c0.1,0,0.6,0.1,0.6,0.2c0.1,0.1,0.3,0,0.3,0s0.2,0.1,0.4,0.1c0.2,0,0.3,0.3,0.2,0.4c0,0.1,0,0.2,0.1,0.3
	c0.1,0.1,0.1,0.2,0.1,0.3c0.1,0,0.2,0.1,0.2,0.2C120.4,73,120.4,73.2,120.4,73.3z"/>
<path class="st9" d="M113.1,89.2c0,0,1.3,0,1.3,0.3C114.4,89.6,113.1,89.2,113.1,89.2z"/>
<path class="st9" d="M113.4,89.5c0,0,0.8,0.1,0.6,0.3C113.8,89.9,113.4,89.5,113.4,89.5z"/>
<path class="st9" d="M116.5,89c0,0,1.4,0.1,1.2,0.3c-0.2,0.2-0.7,0.2-0.7,0.2C116.8,89.4,116.7,89.2,116.5,89z"/>
<path class="st9" d="M116.4,89.7c0,0,0.8,0.1,0.8,0.3C117.2,90.1,116.4,89.7,116.4,89.7z"/>
<path class="st9" d="M116.8,86.1c0,0,0.7,0.2,0.8,0.3L116.8,86.1z"/>
<path class="st9" d="M114,86.6c0,0-0.4,0.1,0,0.3C114.4,87.1,114,86.6,114,86.6z"/>
<path class="st9" d="M115.7,80.8c0,0,0.7-0.2,0.9-0.1c0.2,0.1,0.3,0.1,0.5,0.1L115.7,80.8z"/>
<path class="st9" d="M115.8,81.5L115.8,81.5l-0.6,1.5c0,0-0.1,0.4-0.2,0.7c0,0.2-0.1,0.3-0.1,0.5l0.5-3.1L115.8,81.5z"/>
<path class="st17" d="M116.6,79h-0.2h0l-0.1-0.6l0.2,0L116.6,79z"/>
<path class="st15" d="M119.5,78.2l-0.1,0.1l-0.5,0.4c0,0-1.3,0.7-1.7,0c-0.3-0.6,1.2-1,1.6-1.1l0.1,0L119.5,78.2z"/>
<path class="st9" d="M113.7,72.4c0,0,0.3,0.1,0.3,0.3C114.1,72.8,113.7,72.4,113.7,72.4z"/>
<path class="st9" d="M112.9,74.1c0,0-0.4,0.5-0.2,0.6S112.9,74.1,112.9,74.1z"/>
<path class="st9" d="M119.7,72.6c0,0-0.4,0-0.4,0.3L119.7,72.6z"/>
<path class="st9" d="M116.4,77.5c0,0,0.9-1.3,1-1.1L116.4,77.5z"/>
<path class="st9" d="M118,69.6c0,0.2-0.1,0.5-0.2,0.7h0c-0.1,0-0.1-0.1-0.2-0.2c-0.1-0.1-0.2-0.1-0.3,0c-0.1,0.1-0.2,0.2-0.2,0.3
	c0-0.2,0-0.4-0.1-0.6c0-0.2-0.2-0.4-0.4-0.4c-0.1,0-0.2,0-0.2,0c0,0,0-0.1-0.1-0.1c-0.1-0.2-0.5-0.1-0.7,0c-0.2,0.1-0.4,0.3-0.6,0.4
	c0-0.8,0.7-1.4,1.5-1.4C117.3,68.2,117.9,68.8,118,69.6L118,69.6z"/>
<path class="st17" d="M116.4,69.2c0,0,0,0.1,0.1,0.1c0.1,0.1,0.1,0,0.2,0c0.2,0,0.3,0.2,0.4,0.4s0,0.4,0.1,0.6
	c0-0.1,0.1-0.2,0.2-0.3c0.1-0.1,0.2,0,0.3,0c0.1,0.1,0.1,0.2,0.2,0.2s0.2-0.1,0.2-0.2c0-0.1,0-0.2,0.1-0.3c0-0.2,0.2-0.3,0.2-0.5
	c0.1-0.2,0.1-0.5,0-0.7c0-0.1-0.1-0.2-0.2-0.3c-0.1-0.2-0.1-0.4-0.2-0.5c-0.1-0.3-0.5-0.4-0.7-0.3c-0.1,0-0.2,0.1-0.4,0.2
	c-0.2,0.1-0.4,0-0.5,0c-0.2,0-0.4,0-0.5,0.1c-0.2,0.1-0.2,0.4-0.4,0.5c-0.1,0.1-0.1,0.1-0.2,0.2c-0.1,0.1-0.1,0.1-0.1,0.2
	c0,0.1,0.1,0.2,0.1,0.3c0,0,0,0.1-0.1,0.1c-0.1,0.1-0.2,0.3-0.3,0.5c0.3,0.1,0.7-0.3,0.9-0.4C115.8,69.1,116.2,69,116.4,69.2z"/>
<path class="st9" d="M119.5,78.2l-0.1,0.1c-0.1-0.2-0.7-0.7-0.7-0.7l0,0l0.1,0L119.5,78.2z"/>
<path class="st16" d="M119.6,78c0,0-0.1,0.1-0.1,0.2s-0.1,0.2-0.1,0.1c0-0.2-0.7-0.7-0.7-0.7l0.1-0.1l0.1-0.1L119.6,78z"/>
<path class="st9" d="M119.6,77.1l0.1,1.3c-0.2-0.3-0.7-1-1-1l0.8-0.9c0,0,0.1-0.1,0.1-0.1C119.6,76.8,119.6,77.1,119.6,77.1z"/>
<path class="st9" d="M119.6,78c0,0-0.1,0.1-0.1,0.2c-0.2-0.3-0.5-0.6-0.7-0.7l0.1-0.1L119.6,78z"/>
<path class="st14" d="M120.2,73.2l0.2,0.2c0,0,0.4,0,0.4,0.3s0.4,0.4,0.4,0.4s0.2,0.2,0.2,0.4c0,0.1,0.2,0.3,0.2,0.3
	s0.2,0.4,0.2,0.4c0,0.1,0.2,0.4,0.1,0.5c-0.1,0.1-0.1,0.2-0.1,0.3c0,0-0.3,0.5-0.4,0.6c-0.1,0.1-0.8,1-0.8,1s-0.7,0.8-0.7,1.1
	c0,0-0.7-1.1-1.1-1.1l0.8-0.9c0,0,0.1-0.1,0.1-0.2s0.4-0.5,0.6-0.5c0,0,0-0.2,0-0.3c-0.1,0-0.1-0.2-0.1-0.2s-0.5-0.6-0.5-1
	S120.2,73.2,120.2,73.2z"/>
<path class="st9" d="M120.5,73.7c0,0-0.5,0.4-0.4,0.5C120.2,74.4,120.5,73.7,120.5,73.7z"/>
<path class="st9" d="M120.5,75.3c0,0,0.9-0.3,1,0H120.5z"/>
<path class="st9" d="M114.8,91.1c0,0-0.5,0.3-0.8,0.3c-0.2,0-0.3,0-0.5,0.1c-0.2,0.2-0.4,0.3-0.6,0.4c-0.4,0.1-1,0.1-1.3,0
	c-0.2-0.1-0.2-0.1-0.1-0.2c0.4,0.1,1.1,0.2,1.3,0.1c0.2-0.1,0.5-0.3,0.7-0.4c0,0,0.5-0.1,0.6-0.1C114.3,91.2,114.5,91.1,114.8,91.1
	L114.8,91.1z"/>
<path class="st9" d="M117.8,91.8C117.8,91.8,117.8,91.8,117.8,91.8c0,0-0.1,0.3-0.8,0.4c-0.7,0.1-0.7-0.2-0.7-0.2s0,0,0-0.1
	C116.6,92,117,92,117.8,91.8z"/>
<path class="st9" d="M114,73.7c0,0,0,1.4-0.1,1.5C113.7,75.3,114,73.7,114,73.7z"/>
<path class="st9" d="M119.3,74.1l0.2,0.5C119.5,74.6,119.6,74.1,119.3,74.1z"/>
<g class="st19">
	<path d="M115.1,68.9c0-0.1-0.1-0.2-0.1-0.3c0,0,0,0.1,0,0.1C115,68.7,115.1,68.8,115.1,68.9C115.1,68.9,115.1,68.9,115.1,68.9z"/>
	<path d="M117.1,70.2c0-0.2,0-0.4-0.1-0.6c0-0.2-0.2-0.4-0.4-0.4c-0.1,0-0.2,0-0.2,0c0,0,0-0.1-0.1-0.1c-0.1-0.2-0.5-0.1-0.7,0
		c-0.2,0.2-0.6,0.5-0.9,0.4c0,0,0,0.1,0,0.1c0.3,0.1,0.7-0.3,0.9-0.4c0.2-0.1,0.6-0.2,0.7,0c0,0,0,0.1,0.1,0.1c0.1,0.1,0.1,0,0.2,0
		c0.2,0,0.3,0.2,0.4,0.4c0,0.2,0,0.4,0.1,0.6C117.1,70.3,117.1,70.2,117.1,70.2z"/>
	<path d="M118,70c0,0.1-0.1,0.2-0.2,0.2c-0.1,0-0.1-0.1-0.2-0.2c-0.1-0.1-0.2-0.1-0.3,0c-0.1,0.1-0.2,0.2-0.2,0.3
		c0-0.1,0.1-0.1,0.1-0.2c0.1-0.1,0.2,0,0.3,0c0.1,0.1,0.1,0.2,0.2,0.2c0.1,0,0.2-0.1,0.2-0.2C118,70,118,70,118,70
		C118,69.9,118,69.9,118,70z"/>
	<path d="M118.3,69.1c-0.1,0.2-0.2,0.3-0.2,0.5c0,0,0,0.1,0,0.1c0-0.2,0.2-0.3,0.2-0.5c0-0.1,0-0.2,0.1-0.2
		C118.3,69.1,118.3,69.1,118.3,69.1z"/>
</g>
<rect x="64.9" y="26.4" class="st20" width="8.5" height="8.8"/>
<rect x="75.8" y="26.4" class="st20" width="8.5" height="8.8"/>
<rect x="86.7" y="26.4" class="st20" width="8.5" height="8.8"/>
<rect x="89.5" y="24.7" transform="matrix(0.7975 -0.6033 0.6033 0.7975 1.3946 62.4509)" class="st3" width="8.5" height="8.8"/>
<rect x="43.1" y="43.8" class="st11" width="19.4" height="14.5"/>
<path class="st4" d="M55,48.2c-3.6-1.2-7.4,0.7-8.7,4.2c-0.2,0.7-0.4,1.5-0.4,2.2c0,0.3-0.2,0.5-0.5,0.5c-0.3,0-0.5-0.2-0.5-0.5
	c0-4.3,3.5-7.8,7.8-7.8c0.9,0,1.7,0.1,2.5,0.4"/>
<path class="st12" d="M55.3,47.3c3.1,1.1,5.3,4,5.3,7.4c0,0.3-0.2,0.5-0.5,0.5c-0.3,0-0.5-0.2-0.5-0.5c0-2.9-1.8-5.5-4.6-6.4"/>
<rect x="67.8" y="37.8" class="st11" width="29.4" height="21.9"/>
<rect x="70.8" y="54.2" class="st12" width="1.2" height="4"/>
<rect x="73.1" y="49.2" class="st12" width="1.2" height="9"/>
<rect x="75.4" y="44.7" class="st11" width="1.2" height="13.5"/>
<rect x="77.7" y="41.5" class="st12" width="1.2" height="16.8"/>
<rect x="75.4" y="41.5" class="st4" width="1.2" height="16.8"/>
<rect x="80" y="49.1" class="st4" width="1.2" height="9.2"/>
<rect x="82.3" y="46.7" class="st12" width="1.2" height="11.6"/>
<rect x="84.6" y="43.1" class="st12" width="1.2" height="15.2"/>
<rect x="86.9" y="51.5" class="st20" width="1.2" height="6.8"/>
<rect x="89.2" y="48.4" class="st20" width="1.2" height="9.9"/>
<rect x="91.5" y="44.7" class="st20" width="1.2" height="13.5"/>
<rect x="93.8" y="44.7" class="st20" width="1.2" height="13.5"/>
<polygon class="st14" points="100.5,35.7 101.7,35 102.2,35.3 113.3,88.5 112.6,88.7 111.2,87.5 "/>
<polygon class="st9" points="101.7,35 112.6,88.7 113.3,88.5 102.2,35.3 "/>
<polygon class="st14" points="93.6,37.9 102,38.7 102,39.4 93.6,38.6 "/>
<polygon class="st14" points="94.4,45.8 103.4,45.8 103.4,46.8 94.3,46.8 "/>
<polygon class="st14" points="95.3,54.1 104.3,53.8 105.4,54.1 105.4,54.7 97.4,55.2 95.3,55.2 "/>
<polygon class="st9" points="97.5,54.6 105.4,54.1 105.4,54.7 97.4,55.2 "/>
<polygon class="st9" points="95.3,54.1 97.5,54.6 97.4,55.2 95.3,55.2 "/>
<polygon class="st14" points="96.1,63.2 106,62.2 107.1,62.5 107.1,63.2 98.2,64.1 96.1,64.3 "/>
<polygon class="st9" points="98.2,63.5 106.1,62.8 107.1,62.5 107.1,63.2 98.2,64.1 "/>
<polygon class="st9" points="95.9,63.7 98.2,63.5 98.2,64.1 96.1,64.3 "/>
<polygon class="st14" points="96.5,72.1 107.8,70.6 108.7,71 108.7,71.7 99.1,73.2 96.8,73.2 "/>
<polygon class="st9" points="99.1,72.7 108.7,71 108.7,71.7 99.1,73.2 "/>
<polygon class="st9" points="96.7,72.8 99.1,72.7 99.1,73.2 96.8,73.2 "/>
<polygon class="st14" points="97.2,81.4 109.5,79.1 110.6,79.7 110.6,80.2 99.8,82.8 97.6,83 "/>
<polygon class="st9" points="99.8,82.3 110.6,79.7 110.6,80.2 99.8,82.8 "/>
<polygon class="st9" points="97.5,82.4 99.8,82.3 99.8,82.8 97.6,83 "/>
<polygon class="st14" points="94.3,34.3 93.3,34.5 96.9,91.8 98,92.1 98.8,92.1 "/>
<polygon class="st9" points="93.8,34.4 98,92.1 98.8,92.1 94.3,34.3 "/>
<rect x="90.5" y="24.4" transform="matrix(0.7975 -0.6033 0.6033 0.7975 1.8219 63.0048)" class="st12" width="8.5" height="8.8"/>
<rect x="90.5" y="24.4" transform="matrix(0.7975 -0.6033 0.6033 0.7975 1.8219 63.0048)" class="st11" width="8.5" height="8.8"/>
<path class="st21" d="M96.8,31.2L95.8,30l1,0.1l0-0.3l-1.4-0.2l-0.2,1.4l0.3,0l0.1-1l0.9,1.3L96.8,31.2z"/>
<path class="st12" d="M94.5,28.5c-0.6,0.4-1.4,0.3-1.9-0.3c-0.2-0.3-0.3-0.6-0.3-1c0-0.1,0.1-0.1,0.1-0.1c0,0,0,0,0,0
	c0.1,0,0.1,0.1,0.1,0.1c-0.1,0.6,0.3,1.2,0.9,1.3c0.3,0,0.6,0,0.8-0.2c0.5-0.4,0.6-1.1,0.2-1.6c-0.3-0.4-1-0.6-1.4-0.3l0.3,0.3
	c0,0.1,0,0.1,0,0.1c0,0-0.1,0-0.1,0l-0.3-0.4c0,0,0-0.1,0-0.2c0.6-0.4,1.4-0.3,1.9,0.3C95.2,27.2,95.1,28,94.5,28.5L94.5,28.5z"/>
<path class="st12" d="M92.9,27.2l0.8,0c0.1,0,0.2,0.1,0.2,0.2c0,0.1-0.1,0.2-0.2,0.2c0,0,0,0,0,0c0,0,0,0-0.1,0l-0.8-0.2
	C92.9,27.4,92.8,27.3,92.9,27.2C92.9,27.3,92.9,27.3,92.9,27.2C92.9,27.3,92.9,27.2,92.9,27.2z"/>
<linearGradient id="SVGID_2_" gradientUnits="userSpaceOnUse" x1="-1032.6851" y1="37.9235" x2="-1032.6851" y2="65.182" gradientTransform="matrix(0.9993 -3.838781e-02 -3.838781e-02 -0.9993 1130.2566 53.3919)">
	<stop  offset="0" style="stop-color:#808080;stop-opacity:0.25"/>
	<stop  offset="0.54" style="stop-color:#808080;stop-opacity:0.12"/>
	<stop  offset="1" style="stop-color:#808080;stop-opacity:0.1"/>
</linearGradient>
<path class="st22" d="M103.3,54.3c-0.1-0.3-0.1-0.6-0.1-0.6c0-0.2-0.1-0.4-0.2-0.6v-0.1l0,0l0-0.6c0-0.1,0.1-0.2,0.1-0.3
	c0.1-0.2,0-0.9,0-0.9s-0.5-1-0.4-1.6c0.1-0.6-1-2.8-1-2.8c0-0.2,0-0.4,0.1-0.6c0,0,0-0.1,0-0.1c0,0,0,0,0,0l0,0
	c0-0.4-0.4-1.2-0.4-1.2l0-1.5c0,0,0.2-0.9-0.2-2.1c-0.1-0.4-0.2-0.7-0.3-1c0,0,0-0.1,0-0.1c0.7-0.1,1.3-0.3,1.3-0.3s-0.5-1.7-0.8-2
	c-0.3-0.3-0.6-1.2-0.6-1.2s-0.2-1.2,0-1.6s0.2-1,0.2-1s0.5-0.4,0.6-0.6c0.1-0.3,0.1-0.5,0.2-0.8c0-0.2-0.1-0.4-0.1-0.5
	c0-0.1-0.2-0.5-0.1-0.7c0-0.1,0-0.1,0-0.2c0,0,0,0,0,0l0,0c0-0.2,0-0.3-0.1-0.5c-0.2-0.1-0.3-0.2-0.5-0.3l0,0l0-0.1c0,0,0,0-0.1,0v0
	l0-0.2l0.1-0.4c0.1-0.7-0.8-0.8-0.8-0.8c-0.1-0.1-0.2-0.2-0.3-0.2c-0.2-0.1,0,1,0.1,1.1c0.1,0.2,0.3,0.4,0.4,0.6l0,0l0,0
	c0,0,0,0,0,0l0,0.2l0,0c-0.1,0.1-0.1,0.2-0.1,0.3c0.1,0.1,0.2,0.2,0.2,0.4c0,0.2,0,0.3,0.1,0.5c0,0-0.1-0.1-0.3-0.1
	c-0.1,0-0.4,0.1-0.4,0.1s-0.2,0.1-0.2,0.1c0,0.1-0.2,0.3-0.2,0.3l-0.7-0.6c0,0,0,0,0-0.1c0-0.1-0.1-0.2-0.1-0.3c0.1,0,0.1,0,0.2-0.1
	c0.1,0,0.1-0.1,0.2-0.1c0.1-0.1,0.1-0.2,0.1-0.3c0.1-0.2,0.1-0.4,0.2-0.6c0.1-0.3,0.2-0.7,0.1-1c0-0.1-0.1-0.2-0.1-0.3
	c-0.1-0.1-0.3-0.2-0.5-0.3c-0.1-0.1-0.2-0.3-0.4-0.4c-0.2-0.1-0.3-0.1-0.5,0c-0.3,0.1-0.7,0.2-0.9,0.4c-0.1,0.1-0.2,0.1-0.3,0.1
	c-0.1,0-0.2-0.1-0.2-0.2c0,0,0,0,0,0l0,0c-0.1,0.2-0.1,0.3-0.1,0.5c0,0,0,0.1,0,0.1c0,0,0,0,0,0c0,0,0,0,0,0l0,0c0,0,0,0,0,0
	c0,0,0,0.1-0.1,0.1c0,0,0,0-0.1,0.1c0,0,0,0,0,0c0,0.1-0.1,0.1-0.1,0.2c0,0.1,0,0.1,0.1,0.1c0,0,0.1,0.1,0.1,0.1c0,0.1,0,0.1,0,0.2
	c0,0.5,0.3,0.9,0.7,1.1c0,0,0,0,0,0.1c0.1,0.2,0.2,0.5,0.1,0.7c0,0,0,0,0,0.1l0,0l0,0c0,0-1.1,0.1-1.4-0.2s-0.6,0.6-0.6,0.6
	s-0.4,0.1-0.5,0c-0.1-0.1-0.5,0-0.5,0c-0.2-0.2-0.4-0.2-0.7-0.2C93.4,32,93.2,32,93,31.9l0,0h0l0,0c-0.1,0-0.2,0-0.2,0
	c0,0-0.6-0.4-0.7-0.7s-1-1.1-1-1.1v0l0-0.1c0,0,0,0-0.1,0l0,0c0-0.1-0.1-0.2-0.2-0.4c0,0,0-0.2,0-0.2c0,0,0-0.6,0-0.6
	s-0.5-1.1-0.9-0.3c0,0-0.8,0.6-0.1,1.2c0,0,0.3,0.1,0.3,0.2c0,0.1,0.1,0.3,0.2,0.4l0,0.1l0,0l0,0.1v0c-0.1,0.1-0.2,0.2-0.2,0.2
	c0,0.1,0.1,0.2,0.1,0.3c0,0,1,1.2,1.1,1.7c0,0,2.6,1.4,3.5,1.5l-0.1,0.8c0,0,0,0.5,0,0.6c0,0.2-0.1,0.9-0.1,0.9s-0.1,1.1-0.2,1.3
	s-0.1,0.8-0.1,0.8c0,0.3-0.1,0.6-0.1,0.9c-0.1,0.3-0.1,0.6,0,0.9c0,0-0.4,1,0.6,0.3c0,0,0.5-0.1,1.1-0.1c0,0,0,0,0,0.1
	c0,0.1,0,0.2,0,0.2c0,0.6,0,1.3,0.1,1.9c0.1,1,0.5,3.1,0.5,3.1l0,1c0,0.1,0,0.2,0,0.3c0,0.4,0.1,0.7,0.3,1l0.1,0.7
	c0,0,0.2,0.4,0.2,0.7c0,0,0,0,0,0.1c0,0,0,0.1,0,0.1c0,0.3,0.2,1.1,0.2,1.1s0,0.8,0.2,0.8c0.1,0-0.1,0.4-0.2,0.6c0,0,0,0,0,0l0,0
	c0,0.1,0,0.1,0,0.2c0,0.1,0,0.2,0.1,0.3c0.2,0.1,0.3,0.2,0.2,0.3c-0.1,0-0.1,0-0.2,0c0,0,0,0,0,0c-0.1,0-0.1,0.1-0.1,0.1
	c0,0.1,0,0.2,0.1,0.3c0.1,0.2,0.2,0.4,0.3,0.5l0.1,0c0,0,0,0.1,0,0.1c0,0-0.1,0.1-0.1,0.1c0,0-0.1,0-0.2,0.1c-0.1,0-0.2,0.1-0.3,0.2
	c-0.1,0.1-0.2,0.3,0.1,0.5l0.8,0.2c0,0,1.4,0.1,1.3-0.2c-0.1-0.3-0.1-0.6-0.1-0.6c0-0.2,0-0.4-0.1-0.5c0,0,0-0.1-0.1-0.1l0,0
	c0,0,0.1-0.7,0.2-0.8c0,0,0-0.1,0-0.1c0,0,0-0.1-0.1-0.1c0,0,0,0,0,0c0,0-0.1,0-0.1,0c0,0-0.1-0.4,0.1-0.5c0,0,0-0.1,0-0.1
	c0,0,0-0.1,0-0.1c0,0,0,0,0,0c-0.1-0.3-0.2-0.6-0.4-0.8c0,0,0-0.3,0.1-0.5c0.1-0.1-0.1-1.8-0.1-1.8s0-0.8-0.1-1.2s0.1-0.8,0.1-0.8v0
	l0,0c0,0,0,0,0-0.1v0c0-0.2-0.1-0.6-0.1-0.8c-0.1-0.2,0-1.5,0-1.5l0.2-0.5l0.4,0.9l0.4,1.2c0.1,0.1,0.2,0.3,0.2,0.5c0,0,0,0,0,0
	c0,0,0,0.1,0,0.1c0,0.1,0,0.3,0.1,0.4c0,0,0.1,0.6,0.3,0.7c0.1,0.1,0.2,0.3,0.2,0.4c0,0,0.2,0.8,0.3,0.9c0.1,0.1,0.1,0.4,0.1,0.5
	l0,0c0,0,0,0,0,0s0,0.3,0,0.5v0.1c0,0.1,0,0.1,0,0.2c0,0,0,0,0,0c0,0,0,0,0,0c0,0.2,0,0.3,0,0.5c0,0.3,0.1,0.6,0.2,0.8
	c0.3,0.3,0.5,0.3,0.5,0.3s-0.1,0.4-0.3,0.5c0,0,0,0,0,0c0,0,0,0,0,0c0,0-0.1,0.1,0,0.2c0,0.2,0.1,0.5,0.2,0.6c0,0,0.1,0.1,0.2,0.1
	l0,0c0,0,0,0-0.1,0c0,0-0.1,0-0.1,0c-0.1,0-0.2,0.1-0.3,0.2c-0.1,0.1-0.2,0.3,0.1,0.5l0.8,0.2C102,54.5,103.3,54.6,103.3,54.3z"/>
<path class="st23" d="M98,55l-0.8-0.2c-0.2-0.2-0.2-0.4-0.1-0.5c0.1-0.1,0.2-0.2,0.3-0.2c0.1,0,0.1,0,0.1-0.1c0,0,0.1-0.1,0.1-0.1
	c0.1-0.1,0.1-0.2,0.1-0.3c0,0,0.8-0.3,1.1,0c0,0,0.1,0.1,0.1,0.1c0.1,0.2,0.1,0.4,0.1,0.5c0,0,0.1,0.3,0.1,0.6S98,55,98,55z"/>
<path class="st23" d="M101.8,54.5l-0.8-0.2c-0.2-0.2-0.2-0.4-0.1-0.5c0.1-0.1,0.2-0.2,0.3-0.2c0,0,0.1,0,0.1,0c0,0,0,0,0.1,0
	c0.2-0.1,0.2-0.4,0.2-0.4s0.8-0.3,1.1,0c0,0,0.1,0.1,0.1,0.1c0.1,0.2,0.2,0.4,0.2,0.6c0,0,0.1,0.3,0.1,0.6
	C103.1,54.6,101.8,54.5,101.8,54.5z"/>
<path class="st9" d="M98.9,53.6c0,0,0.1,0.1,0.1,0.1l0,0l-1.3,0.2c0.1-0.1,0.1-0.2,0.1-0.3C97.8,53.6,98.6,53.3,98.9,53.6z"/>
<path class="st9" d="M102.8,53.2l0,0.2c-0.2,0.3-1.2,0.3-1.4,0.1c0,0,0,0,0.1,0c0.2-0.1,0.2-0.4,0.2-0.4s0.8-0.3,1.1,0
	C102.7,53.1,102.7,53.1,102.8,53.2z"/>
<path class="st24" d="M102.9,52.1c-0.1,0.1-0.1,0.2-0.1,0.3l0,0.9c-0.2,0.4-1.3,0.3-1.5,0.1s-0.3-0.7-0.2-0.8
	c0.2-0.1,0.3-0.5,0.3-0.5s-0.2,0.1-0.5-0.3c-0.3-0.3-0.3-1.1-0.2-1.3s0-0.8,0-0.8s0-0.4-0.1-0.6c-0.1-0.1-0.3-0.9-0.3-0.9
	c0-0.2-0.1-0.3-0.2-0.4c-0.2-0.1-0.3-0.7-0.3-0.7c-0.1-0.1-0.1-0.3-0.1-0.5c0-0.3-0.2-0.6-0.2-0.6l-0.4-1.2L98.7,44l-0.2,0.5
	c0,0,0,1.2,0,1.5c0.1,0.2,0.1,0.9,0.1,0.9s-0.2,0.4-0.1,0.8c0.1,0.4,0.1,1.2,0.1,1.2s0.2,1.6,0.1,1.8s-0.1,0.5-0.1,0.5
	s0.5,0.9,0.3,1.1c-0.1,0.1-0.1,0.5-0.1,0.5s0.3,0,0.2,0.1C99.1,53,99,53.7,99,53.7l-1.3,0.2c-0.1-0.2-0.2-0.4-0.3-0.5
	c-0.2-0.4,0-0.4,0.2-0.4c0.2-0.1,0.1-0.2-0.2-0.3c-0.2-0.1-0.1-0.4-0.1-0.4s0.3-0.5,0.2-0.6c-0.1,0-0.2-0.8-0.2-0.8
	s-0.3-0.9-0.2-1.1c0-0.2-0.2-0.8-0.2-0.8l-0.1-0.7c-0.2-0.4-0.4-0.8-0.3-1.3l0-1.1c0,0-0.4-2-0.5-3.1c-0.1-0.7-0.1-1.6-0.1-2.1
	c0-0.3,0-0.5,0-0.5l4.7-0.7c0,0.2,0.1,0.5,0.1,0.7c0.1,0.3,0.1,0.6,0.3,1c0.4,1.2,0.2,2.1,0.2,2.1l0,1.5c0,0,0.5,1,0.4,1.3
	c0,0.2-0.1,0.4-0.1,0.6c0,0,1,2.2,0.9,2.8c-0.1,0.6,0.4,1.6,0.4,1.6S103,51.9,102.9,52.1z"/>
<path class="st25" d="M100,46.5l1.4-0.2C101.4,46.3,100.6,47.2,100,46.5z"/>
<path class="st9" d="M101.1,44.9c0,0,0.1,0.5-0.2,0.7C100.9,45.6,101.5,45.5,101.1,44.9z"/>
<path class="st9" d="M101,43.3c0,0-1.2,1-1.6,1C98.9,44.2,101,43.3,101,43.3z"/>
<path class="st9" d="M98.2,47.1c0,0-0.9,0.2-0.9,0.6C97.3,48.1,98.2,47.1,98.2,47.1z"/>
<path class="st25" d="M98.6,51.6c0,0-1.3,0.3-0.9,0.4c0.3,0.1,0.6,0.2,1,0.3C98.7,52.3,99.1,52.3,98.6,51.6z"/>
<g class="st26">
	<path d="M97.4,52.3c-0.1,0-0.1-0.1-0.1-0.2l0,0c0,0-0.1,0.3,0.1,0.4l0.1,0c0,0,0.1,0,0.1,0C97.8,52.5,97.6,52.4,97.4,52.3z"/>
	<path d="M99.1,52.2c0,0,0-0.1,0-0.2C99,52,99,52.2,99.1,52.2C99,52.2,99.1,52.2,99.1,52.2z"/>
	<path d="M98.7,46.8c0,0.1-0.1,0.3-0.1,0.4c0-0.1,0.1-0.2,0.1-0.3C98.7,46.9,98.7,46.8,98.7,46.8z"/>
	<path d="M101.6,46.1c0,0,0-0.1,0-0.1c0,0.1,0,0.2,0,0.2C101.6,46.1,101.6,46.1,101.6,46.1z"/>
	<path d="M98.8,50.6c0-0.1,0-0.2,0-0.2C98.8,50.5,98.8,50.6,98.8,50.6C98.8,50.7,98.8,50.7,98.8,50.6z"/>
	<path d="M99.1,52.7c-0.1,0.2-0.1,0.4-0.1,0.7l-1.3,0.2c-0.1-0.2-0.2-0.4-0.3-0.5c0,0,0-0.1,0-0.1c-0.1,0-0.1,0.1,0,0.4
		c0.1,0.2,0.2,0.4,0.3,0.5l1.3-0.2c0,0,0.1-0.7,0.2-0.8C99.2,52.7,99.2,52.7,99.1,52.7z"/>
	<path d="M97.3,50.8c0,0,0,0.8,0.2,0.8l0,0c0.1-0.1,0.1-0.2,0-0.3c-0.1,0-0.2-0.8-0.2-0.8s-0.3-0.9-0.2-1.1c0-0.2-0.2-0.8-0.2-0.8
		l-0.1-0.7c-0.2-0.4-0.4-0.8-0.3-1.3l0-1.1c0,0-0.4-2-0.5-3.1C96,41.8,96,40.9,96,40.3c0-0.1,0-0.2,0-0.3h0c0,0,0,0.2,0,0.5
		c0,0.6,0,1.5,0.1,2.1c0.1,1,0.5,3.1,0.5,3.1l0,1.1c-0.1,0.5,0,0.9,0.3,1.3l0.1,0.7c0,0,0.3,0.6,0.2,0.8S97.3,50.8,97.3,50.8z"/>
	<path d="M101.3,53.1c-0.1-0.2-0.2-0.3-0.2-0.5c-0.1,0.1,0,0.6,0.2,0.8c0.2,0.2,1.3,0.3,1.5-0.1l0-0.2
		C102.5,53.4,101.5,53.3,101.3,53.1z"/>
	<path d="M102.9,51.8c-0.1,0.1-0.1,0.2-0.1,0.3l0,0.2c0-0.1,0.1-0.2,0.1-0.2C102.9,52,102.9,51.9,102.9,51.8L102.9,51.8z"/>
	<path d="M101.3,52.1c0-0.1,0.1-0.2,0.1-0.3c0,0-0.2,0.1-0.5-0.3c-0.2-0.2-0.3-0.7-0.2-1c0,0.2-0.1,1,0.2,1.3
		C101.1,52,101.3,52,101.3,52.1z"/>
	<path d="M100.7,49.7c0,0.2,0,0.4,0,0.6c0,0,0-0.1,0-0.1c0-0.2,0-0.8,0-0.8s0-0.4-0.1-0.6s-0.3-0.9-0.3-0.9c0-0.2-0.1-0.3-0.2-0.4
		c-0.2-0.1-0.3-0.7-0.3-0.7c-0.1-0.1-0.1-0.3-0.1-0.5c0-0.3-0.2-0.6-0.2-0.6l-0.4-1.2l-0.4-0.9l-0.2,0.5v0.2l0.1-0.4l0.4,0.9
		l0.4,1.2c0,0,0.2,0.3,0.2,0.6c0,0.2,0,0.3,0.1,0.5c0,0,0.1,0.6,0.3,0.7c0.1,0.1,0.2,0.3,0.2,0.4c0,0,0.2,0.8,0.3,0.9
		C100.7,49.2,100.7,49.7,100.7,49.7z"/>
</g>
<path class="st27" d="M100.8,29.6l-0.1,0.4l0,0.2l0,0.1l-0.5,0.1l-0.1-0.1l0,0c-0.1-0.2-0.2-0.4-0.4-0.6c-0.1-0.1-0.3-1.2-0.1-1.1
	c0.1,0,0.2,0.1,0.3,0.2C100,28.8,100.9,28.9,100.8,29.6z"/>
<path class="st9" d="M100.8,30.3l-0.5,0.1l-0.1-0.1l0,0c0.1-0.1,0.3-0.2,0.5-0.1L100.8,30.3z"/>
<path class="st28" d="M100.9,30.5l-0.6,0.2l0-0.1l0-0.2c0.1-0.2,0.4-0.2,0.6-0.1l0,0.1L100.9,30.5z"/>
<path class="st27" d="M91.1,30l-0.6,0.4l-0.1-0.1c-0.1-0.1-0.2-0.3-0.2-0.4c0-0.1-0.3-0.2-0.3-0.2C89.2,29,90,28.4,90,28.4
	c0.4-0.9,0.9,0.3,0.9,0.3s0.1,0.6,0,0.6c0,0,0,0.2,0,0.2C91,29.7,91.1,29.8,91.1,30C91.1,30,91.1,30,91.1,30z"/>
<path class="st9" d="M91.1,30l-0.6,0.4l-0.1-0.1c0.1-0.1,0.4-0.4,0.5-0.3C91,29.9,91.1,29.9,91.1,30C91.1,30,91.1,30,91.1,30z"/>
<path class="st28" d="M91.2,30.2l-0.7,0.4l0-0.2l0-0.1c0,0,0.4-0.4,0.5-0.4c0.1,0,0.1,0,0.2,0l0,0.1L91.2,30.2z"/>
<path class="st27" d="M99.2,32.3c0,0-3.1,0.5-2.5,0.3c0.4-0.1,0.6-0.4,0.6-0.7c0-0.2,0-0.5-0.1-0.7c-0.1-0.2-0.2-0.4-0.3-0.6
	c0,0,2.3-1.4,1.9-0.2c-0.1,0.2-0.1,0.4-0.1,0.6c0,0.2,0,0.4,0.1,0.6C98.7,31.8,98.9,32.1,99.2,32.3z"/>
<path class="st9" d="M98.7,30.4c-0.1,0.2-0.1,0.4-0.1,0.6c-0.2,0.2-0.5,0.2-0.8,0.2c-0.2,0-0.5,0.1-0.7,0c-0.1-0.2-0.2-0.4-0.3-0.6
	C96.8,30.6,99.1,29.2,98.7,30.4z"/>
<circle class="st27" cx="97.7" cy="29.9" r="1.3"/>
<path class="st9" d="M99.2,32.3c0,0-3.1,0.5-2.5,0.3c0.4-0.1,0.6-0.4,0.6-0.7c0.2-0.2,0.5-0.3,0.7-0.4c0.2-0.1,0.4-0.1,0.6,0
	c0.1,0,0.1,0,0.2,0.1C98.7,31.8,98.9,32.1,99.2,32.3z"/>
<path class="st9" d="M100.9,30.5l-0.6,0.2l0-0.1c0.1-0.2,0.4-0.3,0.6-0.2L100.9,30.5z"/>
<path class="st9" d="M91.2,30.2l-0.7,0.4l0-0.2c0.2-0.1,0.5-0.2,0.7-0.3L91.2,30.2z"/>
<path class="st9" d="M100.7,40.1c-1.2,0.2-2.9,0.6-3.2,0.5c-0.2-0.1-1,0-1.6,0c0-0.3,0-0.5,0-0.5l4.7-0.7
	C100.6,39.7,100.7,39.9,100.7,40.1z"/>
<path class="st29" d="M101.9,39.8c0,0-4,0.8-4.4,0.7c-0.4-0.1-2.6,0.1-2.6,0.1c-1,0.7-0.6-0.3-0.6-0.3c-0.1-0.3-0.1-0.6,0-0.9
	c0.1-0.3,0.1-0.6,0.1-0.9c0,0,0-0.7,0.1-0.8c0.1-0.2,0.2-1.3,0.2-1.3s0.1-0.7,0.1-0.9c0-0.2,0-0.6,0-0.6l0.1-0.8
	c-0.8-0.1-3.4-1.5-3.4-1.5c-0.1-0.5-1.1-1.7-1.1-1.7c0-0.1,0-0.2-0.1-0.3c-0.1-0.2,0.9-0.6,0.9-0.6s0.8,0.9,0.9,1.1
	c0.2,0.2,0.7,0.7,0.7,0.7c0.1,0,0.2,0,0.2,0c0,0,0,0,0,0l0,0c0.2,0.1,0.3,0.2,0.5,0.3c0.2,0,0.5,0.1,0.7,0.2c0,0,0.4-0.1,0.5,0
	c0.1,0.1,0.5,0,0.5,0s0.3-0.8,0.6-0.6c0.3,0.2,1.3,0.2,1.3,0.2c0.1-0.2,0.5-0.3,0.7-0.4c0.2-0.1,0.4-0.1,0.6,0
	c0.1,0,0.2,0.1,0.2,0.1l0.7,0.6c0,0,0.2-0.2,0.2-0.3c0-0.1,0.2-0.1,0.2-0.1s0.3-0.1,0.4-0.1c0.1,0,0.2,0.1,0.2,0.1
	c-0.1-0.2-0.1-0.3-0.1-0.5c0-0.1,0-0.3-0.1-0.4c0.3-1,1.2-0.2,1.2-0.2s0.1,0.5,0,0.7c-0.1,0.2,0.1,0.6,0.1,0.7
	c0,0.1,0.1,0.3,0.1,0.5c0,0.3-0.1,0.5-0.1,0.8c-0.1,0.2-0.6,0.6-0.6,0.6s0,0.6-0.2,1s0,1.6,0,1.6s0.3,1,0.5,1.2
	C101.4,38.1,101.9,39.8,101.9,39.8z"/>
<path class="st9" d="M95.8,32.9c0,0-0.1-0.4-0.2-0.4c-0.1,0-0.2-0.1-0.3-0.1l0.1-0.1c0,0,0.4,0.1,0.5,0.2
	C95.9,32.5,95.8,32.9,95.8,32.9z"/>
<path class="st9" d="M93.6,32.2c0,0.1-1,0.2-1,0.2l0.5-0.5l0,0h0l0,0C93.3,31.9,93.4,32,93.6,32.2z"/>
<circle class="st24" cx="90.7" cy="30.8" r="0.1"/>
<circle class="st24" cx="90.8" cy="30.9" r="0.1"/>
<circle class="st24" cx="91" cy="31.1" r="0.1"/>
<circle class="st24" cx="91.1" cy="31.3" r="0.1"/>
<circle class="st24" cx="101.4" cy="30.9" r="0.1"/>
<circle class="st24" cx="101.4" cy="31" r="0.1"/>
<circle class="st24" cx="101.4" cy="31.2" r="0.1"/>
<path class="st9" d="M95.9,35.8c0,0,2.6,3,4.4,1.1C100.3,36.9,97.3,37.5,95.9,35.8z"/>
<path class="st9" d="M94.6,37.5c0,0,1.5,0,1.6,0.4l0,0.4c-0.1,0.1-0.2,0.1-0.3,0c-0.2-0.1-1.1-0.5-1.4-0.3L94.6,37.5z"/>
<path class="st29" d="M94.6,37.5c0,0,1.4,0,1.6,0.4l0,0.4c-0.1,0-0.2,0.1-0.3,0c-0.1-0.1-1-0.5-1.3-0.3L94.6,37.5z"/>
<path class="st9" d="M95.3,34.3c0.2,0.3,0.4,0.7,0.6,1c0.3,0.3,0.6,0.6,0.9,0.8C96.8,36,95.3,34.5,95.3,34.3z"/>
<path class="st9" d="M94.7,32.6c0,0,0.3,1,0.9,1.4L94.7,32.6z"/>
<path class="st9" d="M94.3,32.7c0,0-0.2,0.8,0.9,1.3C95.2,34,94.8,33.8,94.3,32.7z"/>
<path class="st9" d="M100.7,31.7c0,0,0.5,0.3,0.7,0.5C101.4,32.2,101,31.7,100.7,31.7z"/>
<path class="st23" d="M97.4,31.1c0,0.1,0.1,0.1,0.1,0.2c0,0,0.1,0,0.1,0c0.4,0,0.8,0,1.2-0.2c0.1,0,0.1-0.1,0.2-0.1
	C99,31,99,30.9,99,30.8c0.1-0.2,0.1-0.4,0.2-0.6c0.1-0.3,0.2-0.7,0.1-1c0-0.1-0.1-0.2-0.1-0.3c-0.1-0.1-0.3-0.2-0.4-0.3
	c-0.1-0.1-0.2-0.3-0.4-0.4c-0.2-0.1-0.3-0.1-0.5,0c-0.3,0.1-0.6,0.2-0.9,0.4c-0.1,0.1-0.2,0.1-0.3,0.1c-0.1,0-0.2-0.1-0.2-0.2
	c-0.1,0.2-0.1,0.4-0.1,0.6c0,0,0,0.1,0,0.1c0,0,0,0.1-0.1,0.1c-0.1,0.1-0.1,0.3,0,0.4c0,0,0.1,0.1,0.2,0.1c0.1,0.1,0.1,0.2,0.1,0.3
	c0,0,0,0.1,0,0.1c0,0,0.1,0.1,0.2,0c0.1,0,0.1,0,0.2,0c0.1,0,0.1,0.1,0.2,0.1C97.2,30.6,97.3,30.9,97.4,31.1z"/>
<g class="st19">
	<path d="M99,30.9c0,0.1-0.1,0.1-0.2,0.1c-0.4,0.2-0.8,0.2-1.2,0.2c0,0-0.1,0-0.1,0c-0.1,0-0.1-0.1-0.1-0.2
		c-0.1-0.3-0.2-0.5-0.4-0.8c0-0.1-0.1-0.1-0.2-0.1c-0.1,0-0.1,0-0.2,0c-0.1,0-0.1,0-0.2,0c0,0,0-0.1,0-0.1c0-0.1,0-0.2-0.1-0.3
		c0,0-0.1-0.1-0.2-0.1c-0.1-0.1-0.1-0.2,0-0.3c-0.1,0.1-0.1,0.2,0,0.3c0,0,0.1,0.1,0.2,0.1c0.1,0.1,0.1,0.2,0.1,0.3c0,0,0,0.1,0,0.1
		c0,0,0.1,0.1,0.2,0c0.1,0,0.1,0,0.2,0c0.1,0,0.1,0.1,0.2,0.1c0.2,0.2,0.3,0.5,0.4,0.8c0,0.1,0.1,0.1,0.1,0.2c0,0,0.1,0,0.1,0
		c0.4,0,0.8,0,1.2-0.2C98.8,31.1,98.9,31.1,99,30.9C99,31,99,31,99,30.9L99,30.9z"/>
	<path d="M96.4,29.2C96.4,29.1,96.4,29.1,96.4,29.2c0-0.1,0-0.1,0-0.2c0-0.2,0-0.3,0-0.5l0,0C96.4,28.7,96.4,28.9,96.4,29.2
		C96.4,29.1,96.4,29.1,96.4,29.2z"/>
</g>
<path class="st9" d="M97.2,31.9c0,0,1.6,0.2,1.8-0.1"/>
<path class="st9" d="M100.3,31.1c0,0,0.9,0,1.1,0.3"/>
<rect x="101.8" y="71.4" transform="matrix(1.570794e-03 -1 1 1.570794e-03 30.4433 181.7001)" class="st12" width="8.8" height="8.5"/>
<rect x="101.8" y="71.4" transform="matrix(1.570794e-03 -1 1 1.570794e-03 30.4433 181.7001)" class="st12" width="8.8" height="8.5"/>
<path class="st21" d="M106.3,78.7v-1.6l0.7,0.7l0.2-0.2l-1-1l-1,1l0.2,0.2l0.7-0.7v1.6L106.3,78.7z"/>
<path class="st11" d="M104.8,73.4h1.4V72c0,0-0.1,0-0.1,0C105.4,72,104.8,72.6,104.8,73.4C104.8,73.3,104.8,73.3,104.8,73.4
	C104.8,73.4,104.8,73.4,104.8,73.4z"/>
<path class="st11" d="M105.3,74.4c0.5,0.6,1.3,0.7,1.8,0.2c0.6-0.5,0.7-1.3,0.2-1.8c-0.2-0.3-0.6-0.5-0.9-0.5v1.4H105
	C105,73.9,105.1,74.2,105.3,74.4z"/>
<path class="st4" d="M31.4,12c-0.7,1.5-2,3.3-3.3,2.6c-1.4-0.7-2.4-3.5-1.7-5s2.5-2.2,3.8-1.6C31.6,8.7,32.1,10.5,31.4,12z"/>
<path class="st4" d="M28.5,15.6c0,0-0.3,0-0.2-0.3c0,0,0,0,0-0.1c0-0.1,0.1-0.1,0.1-0.2c0,0,0-0.1,0-0.1c0-0.1,0-0.2,0-0.4l0.7,0
	c0,0-0.3,0.2-0.3,0.4c0,0,0,0,0,0c0,0,0,0,0,0c0,0,0,0,0.1,0c0.2,0.1,0.1,0.2,0.1,0.2C29.1,15.5,28.5,15.6,28.5,15.6z"/>
<path class="st5" d="M28.9,15l-0.5,0.1c0,0,0-0.1,0-0.1C28.6,15,28.8,15,28.9,15C28.9,15,28.9,15,28.9,15z"/>
<path class="st4" d="M28.5,15.6c0,0-0.3,0-0.2-0.3c0.1,0,0.2,0,0.3,0c0.2,0,0.3-0.2,0.4-0.3c0.2,0.1,0.1,0.2,0.1,0.2
	C29.1,15.5,28.5,15.6,28.5,15.6z"/>
<path class="st9" d="M28.5,15.6c0,0-0.3,0-0.2-0.3c0.1,0,0.2,0,0.3,0c0.2,0,0.3-0.2,0.4-0.3c0.2,0.1,0.1,0.2,0.1,0.2
	C29.1,15.5,28.5,15.6,28.5,15.6z"/>
<path class="st30" d="M28.9,8.2c0,0-0.8-0.1-1,0.4c0.1,0,0.2,0,0.3,0c0.1,0,0.1,0,0.2,0C28.4,8.5,28.6,8.3,28.9,8.2z"/>
<path class="st4" d="M27.3,19.3c-0.1,0.1-0.3,0.3-0.5,0.4c0,0-0.1,0.1-0.1,0.1c-1.3,0.7-3.6,0.7-4.7-0.2c-1-0.9-1.4-2.2-1-3.3
	c0-0.1,0-0.1,0.1-0.2c0.1-0.2,0.2-0.5,0.4-0.7c0.8-0.9,2.2-1.1,3.3-0.6c0.1,0,0.2,0.1,0.3,0.2c0,0,0.1,0.1,0.1,0.1
	c0.1,0.1,0.2,0.2,0.3,0.3c0.1,0.1,0.1,0.1,0.2,0.2l0,0c0.4,0.3,0.7,0.7,1,1.1c0.1,0.1,0.2,0.2,0.3,0.4c0.1,0.1,0.1,0.2,0.2,0.3
	c0.2,0.3,0.3,0.7,0.3,1.1c0,0,0,0.1,0,0.1v0c0,0.1-0.1,0.3-0.1,0.4C27.4,19.1,27.3,19.2,27.3,19.3z"/>
<path class="st9" d="M27.3,19.3c-0.1,0.1-0.3,0.3-0.5,0.4c0,0-0.1,0.1-0.1,0.1c-1.3,0.7-3.6,0.7-4.7-0.2c-1-0.9-1.4-2.2-1-3.3
	c0-0.1,0-0.1,0.1-0.2c0.1-0.2,0.2-0.5,0.4-0.7c0.8-0.9,2.2-1.1,3.3-0.6c0.1,0,0.2,0.1,0.3,0.2c0,0,0.1,0.1,0.1,0.1
	c0.1,0.1,0.2,0.2,0.3,0.3c0.1,0.1,0.1,0.1,0.2,0.2l0,0c0.4,0.3,0.7,0.7,1,1.1c0.1,0.1,0.2,0.2,0.3,0.4c0.1,0.1,0.1,0.2,0.2,0.3
	c0.2,0.3,0.3,0.7,0.3,1.1c0,0,0,0.1,0,0.1v0c0,0.1-0.1,0.3-0.1,0.4C27.4,19.1,27.3,19.2,27.3,19.3z"/>
<path class="st4" d="M28,19.3C28,19.3,28,19.3,28,19.3c-0.1-0.1-0.2-0.1-0.2-0.2c0,0,0,0-0.1,0c-0.1,0-0.2-0.1-0.2-0.1
	c0,0-0.1,0-0.1,0l0.1-0.5v0l0-0.2c0,0.1,0.1,0.1,0.1,0.2c0.1,0.1,0.1,0.2,0.2,0.2c0,0,0,0,0.1,0c0,0,0,0,0,0c0,0,0,0,0,0
	c0.1-0.2,0.2-0.1,0.2-0.1c0.1,0,0.2,0.2,0.2,0.4c0,0,0,0,0,0.1c0,0.1,0,0.2,0,0.3C28.3,19.2,28.2,19.4,28,19.3z"/>
<path class="st5" d="M27.8,19.1C27.7,19.1,27.7,19.1,27.8,19.1c0-0.1,0-0.3,0-0.4c0,0,0,0,0,0c0,0,0,0,0,0c0,0,0,0,0.1,0l0,0.1v0
	L27.8,19.1z"/>
<path class="st4" d="M28,19.3c0.1-0.1,0.1-0.2,0.1-0.3c0-0.1,0-0.1,0-0.2c0,0,0,0,0-0.1c0-0.1-0.1-0.2-0.1-0.2
	c0.1-0.2,0.2-0.1,0.2-0.1c0.1,0,0.2,0.2,0.2,0.4c0,0,0,0,0,0.1c0,0.1,0,0.2,0,0.3C28.3,19.2,28.2,19.4,28,19.3z"/>
<path class="st9" d="M28,19.3c0.1-0.1,0.1-0.2,0.1-0.3c0-0.1,0-0.1,0-0.2c0,0,0,0,0-0.1c0-0.1-0.1-0.2-0.1-0.2
	c0.1-0.2,0.2-0.1,0.2-0.1c0.1,0,0.2,0.2,0.2,0.4c0,0,0,0,0,0.1c0,0.1,0,0.2,0,0.3C28.3,19.2,28.2,19.4,28,19.3z"/>
<path class="st30" d="M21.3,16.8c0,0-0.3,0.8,0.1,1.1c0-0.1,0-0.2,0.1-0.3c0-0.1,0.1-0.1,0.1-0.2C21.4,17.3,21.3,17.1,21.3,16.8z"/>
<path class="st4" d="M33,14.6c-0.6,0.4-1.3,0.8-2,1c-0.5,0.2-1,0.2-1.4,0.1c-0.2-0.1-0.3-0.2-0.5-0.3c-0.1-0.1-0.2-0.2-0.2-0.3
	c-0.5-0.8-0.5-2.1-0.1-3.2c0.3-0.8,0.7-1.5,1.3-1.9c1.4-0.9,3.3-0.6,4.1,0.7C34.9,11.9,34.4,13.7,33,14.6z"/>
<path class="st9" d="M33,14.6c-0.6,0.4-1.3,0.8-2,1c-0.5,0.2-1,0.2-1.4,0.1c-0.2-0.1-0.3-0.2-0.5-0.3c-0.1-0.1-0.2-0.2-0.2-0.3
	c-0.5-0.8-0.5-2.1-0.1-3.2c0.3-0.8,0.7-1.5,1.3-1.9c1.4-0.9,3.3-0.6,4.1,0.7C34.9,11.9,34.4,13.7,33,14.6z"/>
<path class="st4" d="M29.4,16.1c-0.2,0.3-0.8,0-0.8,0s-0.2-0.2,0-0.3c0,0,0,0,0.1,0c0.1,0,0.1-0.1,0.2-0.1c0,0,0,0,0.1-0.1
	c0.1-0.1,0.1-0.1,0.1-0.2c0,0,0-0.1,0-0.1l0.6,0.3c-0.1,0-0.1,0-0.2,0c-0.1,0-0.2,0.1-0.2,0.1c0,0,0,0,0,0.1c0,0,0,0,0,0
	c0,0,0,0,0,0C29.5,16.1,29.4,16.1,29.4,16.1z"/>
<path class="st5" d="M29.3,15.8l-0.5-0.2c0,0,0,0,0.1-0.1C29,15.6,29.2,15.7,29.3,15.8C29.3,15.8,29.3,15.8,29.3,15.8z"/>
<path class="st4" d="M29.4,16.1c-0.2,0.3-0.8,0-0.8,0s-0.2-0.2,0-0.3c0.1,0.1,0.2,0.1,0.3,0.2c0.2,0.1,0.4,0,0.5,0
	C29.5,16.1,29.4,16.1,29.4,16.1z"/>
<path class="st9" d="M29.4,16.1c-0.2,0.3-0.8,0-0.8,0s-0.2-0.2,0-0.3c0.1,0.1,0.2,0.1,0.3,0.2c0.2,0.1,0.4,0,0.5,0
	C29.5,16.1,29.4,16.1,29.4,16.1z"/>
<path class="st30" d="M32.8,10c0,0-0.6-0.5-1.1-0.2c0.1,0,0.2,0.1,0.2,0.2c0,0.1,0.1,0.1,0.1,0.1C32.3,10,32.5,9.9,32.8,10z"/>
<g class="st19">
	<path d="M20,14.1c-0.1,0.1-0.1,0.2-0.1,0.3c-0.5-0.4-0.1-1.1-0.1-1.1c0,0.3,0.1,0.5,0.3,0.7C20.1,13.9,20.1,14,20,14.1z"/>
	<path d="M25.9,15.3l0.1-0.7c0,0.1,0.1,0.1,0.1,0.2c0,0.2-0.1,0.4-0.1,0.5C25.9,15.3,25.9,15.3,25.9,15.3z"/>
	<path d="M25.8,15.6C25.8,15.6,25.8,15.6,25.8,15.6c-0.2,0.2-0.4,0.4-0.5,0.5c0,0-0.1,0.1-0.1,0.1c-1.1,0.6-3,0.7-4.1,0.1
		c0.1-0.3,0.3-0.6,0.5-0.8c0.8-0.9,2.2-1.1,3.3-0.6c0.3,0.1,0.5,0.3,0.8,0.5C25.7,15.5,25.8,15.5,25.8,15.6z"/>
	<path d="M26.5,15.6C26.5,15.6,26.5,15.6,26.5,15.6c-0.1-0.1-0.2-0.1-0.2-0.2c0,0,0,0-0.1,0c-0.1,0-0.2-0.1-0.2-0.1c0,0-0.1,0-0.1,0
		l0.1-0.7c0,0.1,0.1,0.1,0.1,0.2c0.1,0.1,0.1,0.2,0.2,0.2c0,0,0,0,0.1,0c0,0,0,0,0,0l0,0c0.1-0.2,0.2-0.1,0.2-0.1
		c0.3,0.1,0.2,0.8,0.2,0.8S26.7,15.8,26.5,15.6z"/>
	<path d="M26.3,15.5C26.3,15.4,26.2,15.4,26.3,15.5c0-0.2,0-0.4,0-0.5c0,0,0,0,0.1,0L26.3,15.5z"/>
	<path d="M26.5,15.6c0.1-0.1,0.1-0.2,0.1-0.3c0-0.2-0.1-0.4-0.2-0.5c0.1-0.2,0.2-0.1,0.2-0.1c0.3,0.1,0.2,0.8,0.2,0.8
		S26.7,15.8,26.5,15.6z"/>
	<path class="st9" d="M26.5,15.6c0.1-0.1,0.1-0.2,0.1-0.3c0-0.2-0.1-0.4-0.2-0.5c0.1-0.2,0.2-0.1,0.2-0.1c0.3,0.1,0.2,0.8,0.2,0.8
		S26.7,15.8,26.5,15.6z"/>
	<path class="st9" d="M19.9,14.3c-0.5-0.4-0.1-1.1-0.1-1.1c0,0.3,0.1,0.5,0.3,0.7c0,0.1,0,0.1-0.1,0.2C20,14.1,20,14.2,19.9,14.3z"
		/>
</g>
<path class="st4" d="M25.9,15.5L25.9,15.5c-0.2,0.2-0.3,0.3-0.5,0.4l0,0c0,0-0.1,0-0.1,0.1c-1.1,0.6-3,0.7-4.2,0.1
	c-0.2-0.1-0.3-0.2-0.5-0.3c-1.3-1.1-1.5-3-0.5-4.1c0.8-0.9,2.2-1.1,3.4-0.6c0,0,0.1,0,0.1,0.1c0.2,0.1,0.5,0.3,0.7,0.5
	c0.4,0.4,0.8,0.8,1.2,1.3c0.1,0.1,0.1,0.2,0.2,0.3c0,0,0,0.1,0.1,0.1c0,0,0.1,0.1,0.1,0.1s0,0.1,0.1,0.1c0.2,0.3,0.3,0.7,0.3,1.1
	c0,0.2-0.1,0.4-0.1,0.5C26,15.3,25.9,15.4,25.9,15.5z"/>
<path class="st4" d="M26.6,15.5C26.6,15.5,26.6,15.5,26.6,15.5c-0.1-0.1-0.2-0.1-0.2-0.2c0,0,0,0-0.1,0c-0.1,0-0.2-0.1-0.2-0.1
	c0,0-0.1,0-0.1,0l0.1-0.7c0,0.1,0.1,0.1,0.1,0.2c0.1,0.1,0.1,0.2,0.2,0.2c0,0,0,0,0.1,0c0,0,0,0,0,0c0,0,0,0,0,0
	c0.1-0.2,0.2-0.1,0.2-0.1c0.3,0.1,0.2,0.8,0.2,0.8S26.8,15.7,26.6,15.5z"/>
<path class="st5" d="M26.4,15.3C26.4,15.3,26.3,15.3,26.4,15.3c0-0.2,0-0.4,0-0.5c0,0,0,0,0.1,0L26.4,15.3z"/>
<path class="st4" d="M26.6,15.5c0.1-0.1,0.1-0.2,0.1-0.3c0-0.2-0.1-0.4-0.2-0.5c0.1-0.2,0.2-0.1,0.2-0.1c0.3,0.1,0.2,0.8,0.2,0.8
	S26.8,15.7,26.6,15.5z"/>
<path class="st9" d="M26.6,15.5c0.1-0.1,0.1-0.2,0.1-0.3c0-0.2-0.1-0.4-0.2-0.5c0.1-0.2,0.2-0.1,0.2-0.1c0.3,0.1,0.2,0.8,0.2,0.8
	S26.8,15.7,26.6,15.5z"/>
<path class="st30" d="M19.9,13.1c0,0-0.3,0.8,0.1,1.1c0-0.1,0-0.2,0.1-0.3c0-0.1,0.1-0.1,0.1-0.2C20,13.6,19.9,13.3,19.9,13.1z"/>
<g class="st19">
	<path d="M24.6,7.9c-0.1,0-0.1,0-0.2,0c-0.1,0-0.2,0-0.3,0.1c0-0.6,0.8-0.8,0.8-0.8C24.8,7.5,24.6,7.7,24.6,7.9z"/>
	<path d="M25.7,13.3c0.1,0.1,0.1,0.2,0.2,0.3c-0.1,0-0.2-0.1-0.3-0.1c-0.8-0.4-1.6-1.3-2.1-2.3c0.3,0.1,0.5,0.3,0.8,0.5
		c0.4,0.4,0.8,0.8,1.2,1.3C25.5,13,25.6,13.1,25.7,13.3z"/>
	<path d="M27.2,13.4c-0.2,0.1-0.3,0.2-0.5,0.2c0,0,0-0.1-0.1-0.1l0.7-0.3C27.3,13.3,27.2,13.4,27.2,13.4z"/>
	<path d="M27,14.4c0,0-0.3,0-0.2-0.2c0,0,0,0,0-0.1c0-0.1,0-0.1,0-0.2c0,0,0-0.1,0-0.1c0-0.1,0-0.2-0.1-0.2c0,0,0-0.1-0.1-0.1
		l0.7-0.3c0,0.1-0.1,0.1-0.1,0.2c0,0.1-0.1,0.2,0,0.2c0,0,0,0,0,0c0,0,0,0,0.1,0h0.1c0.2,0,0.2,0.1,0.2,0.1
		C27.6,14.1,27,14.4,27,14.4z"/>
	<path d="M27.2,13.7l-0.5,0.2c0,0,0-0.1,0-0.1C26.9,13.8,27.1,13.7,27.2,13.7C27.2,13.7,27.2,13.7,27.2,13.7z"/>
	<path d="M27,14.4c0,0-0.3,0-0.2-0.2c0.1,0,0.2,0,0.3-0.1c0.2-0.1,0.3-0.3,0.3-0.4c0.2,0,0.2,0.1,0.2,0.1C27.6,14.1,27,14.4,27,14.4
		z"/>
	<path class="st9" d="M27,14.4c0,0-0.3,0-0.2-0.2c0.1,0,0.2,0,0.3-0.1c0.2-0.1,0.3-0.3,0.3-0.4c0.2,0,0.2,0.1,0.2,0.1
		C27.6,14.1,27,14.4,27,14.4z"/>
	<path class="st9" d="M24.6,7.9c-0.1,0-0.1,0-0.2,0c-0.1,0-0.2,0-0.3,0.1c0-0.6,0.8-0.8,0.8-0.8C24.8,7.5,24.6,7.7,24.6,7.9z"/>
</g>
<path class="st4" d="M27.2,13.3c-0.2,0.1-0.3,0.2-0.5,0.2c-0.1,0-0.3,0-0.4,0c-0.2,0-0.4-0.1-0.5-0.1c-0.1,0-0.1-0.1-0.2-0.1l0,0
	c-0.8-0.4-1.6-1.2-2-2.1c-0.3-0.6-0.5-1.3-0.4-1.8c0.2-1.7,1.6-2.9,3.1-2.7c1.5,0.2,2.6,1.7,2.4,3.4c-0.1,0.6-0.2,1.2-0.4,1.7
	c0,0,0,0.1,0,0.1C28,12.5,27.7,13.1,27.2,13.3z"/>
<path class="st9" d="M27.2,13.3c-0.2,0.1-0.3,0.2-0.5,0.2c-0.1,0-0.3,0-0.4,0c-0.2,0-0.4-0.1-0.5-0.1c-0.1,0-0.1-0.1-0.2-0.1l0,0
	c-0.8-0.4-1.6-1.2-2-2.1c-0.3-0.6-0.5-1.3-0.4-1.8c0.2-1.7,1.6-2.9,3.1-2.7c1.5,0.2,2.6,1.7,2.4,3.4c-0.1,0.6-0.2,1.2-0.4,1.7
	c0,0,0,0.1,0,0.1C28,12.5,27.7,13.1,27.2,13.3z"/>
<path class="st4" d="M27,14.3c0,0-0.3,0-0.2-0.2c0,0,0,0,0-0.1c0-0.1,0-0.1,0-0.2c0,0,0-0.1,0-0.1c0-0.1,0-0.2-0.1-0.2
	c0,0,0-0.1-0.1-0.1l0.7-0.3c0,0.1-0.1,0.1-0.1,0.2c0,0.1-0.1,0.2,0,0.2c0,0,0,0,0,0c0,0,0,0,0.1,0h0.1c0.2,0,0.2,0.1,0.2,0.1
	C27.6,14,27,14.3,27,14.3z"/>
<path class="st5" d="M27.3,13.6l-0.5,0.2c0,0,0-0.1,0-0.1C26.9,13.7,27.1,13.6,27.3,13.6C27.2,13.6,27.2,13.6,27.3,13.6z"/>
<path class="st4" d="M27,14.3c0,0-0.3,0-0.2-0.2c0.1,0,0.2,0,0.3-0.1c0.2-0.1,0.3-0.3,0.3-0.4c0.2,0,0.2,0.1,0.2,0.1
	C27.6,14,27,14.3,27,14.3z"/>
<path class="st9" d="M27,14.3c0,0-0.3,0-0.2-0.2c0.1,0,0.2,0,0.3-0.1c0.2-0.1,0.3-0.3,0.3-0.4c0.2,0,0.2,0.1,0.2,0.1
	C27.6,14,27,14.3,27,14.3z"/>
<path class="st30" d="M25,7.2c0,0-0.8,0.2-0.8,0.8c0.1,0,0.2-0.1,0.3-0.1c0.1,0,0.1,0,0.2,0C24.7,7.6,24.8,7.4,25,7.2z"/>
<path class="st4" d="M35.7,20.2c-1,1.2-2.8,1.2-4.1,0.1c-0.6-0.5-1.3-1.2-1.7-1.9c-0.2-0.3-0.3-0.7-0.3-1.1c0-0.2,0-0.4,0.1-0.5
	c0.1-0.1,0.1-0.2,0.2-0.3c0.3-0.3,0.6-0.5,1-0.7c1.3-0.5,3.3-0.5,4.2,0.4C36.5,17.2,36.7,19.1,35.7,20.2z"/>
<path class="st4" d="M29.7,17.5c0-0.1-0.1-0.1-0.1-0.2c-0.1-0.1-0.1-0.2-0.2-0.2c0,0,0,0-0.1,0c0,0,0,0,0,0c0,0,0,0,0,0
	c-0.1,0.2-0.2,0.1-0.2,0.1c-0.3-0.1-0.2-0.8-0.2-0.8s0.1-0.2,0.3-0.1c0,0,0,0,0,0c0.1,0.1,0.1,0.1,0.2,0.1c0,0,0,0,0.1,0
	c0.1,0,0.2,0.1,0.2,0.1c0,0,0.1,0,0.1,0L29.7,17.5z"/>
<path class="st5" d="M29.4,17.1C29.3,17.1,29.3,17.1,29.4,17.1l0-0.5c0,0,0,0,0.1,0C29.4,16.8,29.4,17,29.4,17.1z"/>
<path class="st4" d="M29.3,17.3c-0.1,0.2-0.2,0.1-0.2,0.1c-0.3-0.1-0.2-0.8-0.2-0.8s0.1-0.2,0.3-0.1c0,0.1-0.1,0.2-0.1,0.3
	C29.1,16.9,29.1,17.1,29.3,17.3z"/>
<path class="st9" d="M29.3,17.3c-0.1,0.2-0.2,0.1-0.2,0.1c-0.3-0.1-0.2-0.8-0.2-0.8s0.1-0.2,0.3-0.1c0,0.1-0.1,0.2-0.1,0.3
	C29.1,16.9,29.1,17.1,29.3,17.3z"/>
<path class="st30" d="M35.9,18.8c0,0,0.3-0.8-0.2-1.1c0,0.1,0,0.2-0.1,0.3c0,0.1-0.1,0.1-0.1,0.2C35.7,18.3,35.9,18.6,35.9,18.8z"/>
<path class="st9" d="M29.9,18.4c-0.2-0.3-0.3-0.7-0.3-1.1c-0.1-0.1-0.1-0.2-0.2-0.2c0,0,0,0-0.1,0c0,0,0,0,0,0c0,0,0,0,0,0
	c-0.1,0.2-0.2,0.1-0.2,0.1c-0.3-0.1-0.2-0.8-0.2-0.8s0.1-0.2,0.3-0.1c0,0,0,0,0,0c0.1,0.1,0.1,0.1,0.2,0.1c0,0,0,0,0.1,0
	c0.1,0,0.2,0.1,0.2,0.1c0.1-0.1,0.1-0.2,0.2-0.3c0.3-0.3,0.6-0.5,1-0.7C30.8,16.8,30.5,17.8,29.9,18.4z"/>
<path class="st9" d="M28.3,18.8c-0.1,0-0.2,0-0.2-0.1c-0.1,0-0.1,0-0.2-0.1l0,0c-0.1,0-0.1-0.1-0.2-0.1c-0.1,0-0.1,0-0.1-0.1
	c-0.9-0.5-1.7-1.5-2.1-2.5c-0.1-0.3-0.2-0.6-0.2-0.9c0-0.2,0-0.3,0-0.5c0.1-0.5,0.2-0.9,0.4-1.3c0,0,0-0.1,0.1-0.1
	c0.6-0.9,1.5-1.4,2.6-1.3c-0.2,0.6-0.5,1.2-1,1.5c0,0.1-0.1,0.2,0,0.2c0,0,0,0,0,0c0,0,0,0,0.1,0h0.1c0.2,0,0.2,0.1,0.2,0.1
	c0.1,0.3-0.5,0.6-0.5,0.6s-0.3,0-0.2-0.2c0,0,0,0,0-0.1c0-0.1,0-0.1,0-0.2c0,0,0-0.1,0-0.1c0-0.1,0-0.2-0.1-0.2c-0.1,0-0.3,0-0.4,0
	c-0.2,0-0.4-0.1-0.5-0.1c0,0,0,0.1,0.1,0.1c0.2,0.3,0.3,0.7,0.3,1.1c0.1,0.1,0.1,0.2,0.2,0.2c0,0,0,0,0.1,0c0,0,0,0,0,0c0,0,0,0,0,0
	c0.1-0.2,0.2-0.1,0.2-0.1c0.3,0.1,0.2,0.8,0.2,0.8s-0.1,0.2-0.3,0.1c0,0,0,0,0,0c0-0.1-0.1-0.1-0.2-0.1c0,0,0,0-0.1,0
	c-0.1,0-0.2-0.1-0.2-0.1c-0.1,0.1-0.1,0.2-0.2,0.3l0,0.1l0,0c0.4,0.3,0.7,0.7,1,1.1c0.1,0.1,0.2,0.2,0.3,0.4
	c0.1,0.1,0.1,0.2,0.2,0.3c0.2,0.3,0.3,0.7,0.3,1.1c0.1,0.1,0.1,0.2,0.2,0.2c0,0,0,0,0.1,0c0,0,0,0,0,0c0,0,0,0,0,0
	c0.1-0.2,0.2-0.1,0.2-0.1C28.2,18.5,28.3,18.6,28.3,18.8z"/>
<g class="st19">
	<path d="M27,13.1c-0.1,0-0.1,0-0.2,0c-0.1,0-0.2,0-0.3,0.1c0-0.6,0.8-0.8,0.8-0.8C27.2,12.6,27,12.8,27,13.1z"/>
	<path d="M31,15.2c0,0.1,0,0.2,0,0.4c-0.5,0.2-1,0.2-1.4,0.1c-0.1,0-0.2,0.1-0.2,0.1c0,0,0,0,0,0.1c0,0,0,0,0,0c0,0,0,0,0,0
		c0.1,0.2,0,0.2,0,0.2c-0.2,0.3-0.8,0-0.8,0s-0.2-0.2,0-0.3c0,0,0,0,0.1,0c0.1,0,0.1-0.1,0.2-0.1c0,0,0,0,0.1-0.1
		c0.1-0.1,0.1-0.1,0.1-0.2c-0.1-0.1-0.2-0.2-0.2-0.3c-0.5-0.8-0.5-2.1-0.1-3.2C30.2,12,31.2,13.5,31,15.2z"/>
	<path d="M29.6,18.5c-0.2,0.1-0.3,0.2-0.5,0.2c0,0,0-0.1-0.1-0.1l0.7-0.3C29.7,18.4,29.6,18.5,29.6,18.5z"/>
	<path d="M29.4,19.5c0,0-0.3,0-0.2-0.2c0,0,0,0,0-0.1c0-0.1,0-0.1,0-0.2c0,0,0-0.1,0-0.1c0-0.1,0-0.2-0.1-0.2c0,0,0-0.1-0.1-0.1
		l0.7-0.3c0,0.1-0.1,0.1-0.1,0.2c0,0.1-0.1,0.2,0,0.2c0,0,0,0,0,0c0,0,0,0,0.1,0h0.1c0.2,0,0.2,0.1,0.2,0.1
		C30,19.2,29.4,19.5,29.4,19.5z"/>
	<path d="M29.6,18.8L29.2,19c0,0,0-0.1,0-0.1C29.3,18.9,29.5,18.8,29.6,18.8C29.6,18.8,29.6,18.8,29.6,18.8z"/>
	<path d="M29.4,19.5c0,0-0.3,0-0.2-0.2c0.1,0,0.2,0,0.3-0.1c0.2-0.1,0.3-0.3,0.3-0.4c0.2,0,0.2,0.1,0.2,0.1
		C30,19.2,29.4,19.5,29.4,19.5z"/>
	<path class="st9" d="M29.4,19.5c0,0-0.3,0-0.2-0.2c0.1,0,0.2,0,0.3-0.1c0.2-0.1,0.3-0.3,0.3-0.4c0.2,0,0.2,0.1,0.2,0.1
		C30,19.2,29.4,19.5,29.4,19.5z"/>
	<path class="st9" d="M27,13.1c-0.1,0-0.1,0-0.2,0c-0.1,0-0.2,0-0.3,0.1c0-0.6,0.8-0.8,0.8-0.8C27.2,12.6,27,12.8,27,13.1z"/>
</g>
<path class="st4" d="M30.8,15.3C30.6,17,30,19,28.5,18.8c-1.5-0.2-3.4-2.5-3.2-4.2s1.6-2.9,3.1-2.7C30,12.1,31,13.6,30.8,15.3z"/>
<path class="st4" d="M29.2,19.6c0,0-0.3,0-0.2-0.2c0,0,0,0,0-0.1c0-0.1,0-0.1,0-0.2c0,0,0-0.1,0-0.1c0-0.1-0.1-0.2-0.1-0.3l0.7-0.3
	c0,0-0.2,0.3-0.1,0.4c0,0,0,0,0,0c0,0,0,0,0.1,0h0.1c0.2,0,0.2,0.1,0.2,0.1C29.8,19.3,29.2,19.6,29.2,19.6z"/>
<path class="st5" d="M29.5,18.9L29,19.1c0,0,0-0.1,0-0.1C29.1,19,29.3,18.9,29.5,18.9C29.4,18.9,29.4,18.9,29.5,18.9z"/>
<path class="st4" d="M29.2,19.6c0,0-0.3,0-0.2-0.2c0.1,0,0.2,0,0.3-0.1c0.2-0.1,0.3-0.3,0.3-0.4c0.2,0,0.2,0.1,0.2,0.1
	C29.8,19.3,29.2,19.6,29.2,19.6z"/>
<path class="st9" d="M29.2,19.6c0,0-0.3,0-0.2-0.2c0.1,0,0.2,0,0.3-0.1c0.2-0.1,0.3-0.3,0.3-0.4c0.2,0,0.2,0.1,0.2,0.1
	C29.8,19.3,29.2,19.6,29.2,19.6z"/>
<path class="st30" d="M27.2,12.5c0,0-0.8,0.2-0.8,0.8c0.1,0,0.2-0.1,0.3-0.1c0.1,0,0.1,0,0.2,0C26.9,12.9,27,12.7,27.2,12.5z"/>
<path class="st6" d="M29.2,19c-0.3,0-0.5,0.3-0.4,0.5c0,0,0,0,0,0.1c0.1,0.3,0.5,0.4,0.8,0.7c0.3,0.2,0.4,0.6,0.4,0.9
	c0.1,0.7-0.2,1.3-0.7,1.8c-0.2,0.2-0.5,0.4-0.8,0.7c-0.3,0.3-0.5,0.6-0.7,1c-0.2,0.3-0.3,0.6-0.3,0.9c0,0.5,0.2,0.9,0.5,1.3
	s0.6,0.7,0.9,1.2c0.3,0.6,0.4,1.3,0.1,1.9c0,0.1,0,0.1-0.1,0.1c0,0-0.1,0-0.1,0c0,0,0,0,0,0"/>
<path class="st6" d="M27.8,19c-0.1,0.1-0.1,0.2,0,0.3c0.1,0.1,0.2,0.1,0.3,0.1c0.1,0,0.3,0,0.4,0c0.1,0.1,0.1,0.2,0.1,0.3
	c0,0.1,0,0.2,0,0.3c0,0.1,0.1,0.1,0.1,0.2c0.1,0.1,0.1,0.1,0.2,0.2c0.2,0.1,0.4,0,0.6,0.1c0.3,0.1,0.4,0.4,0.5,0.6
	c0.1,0.3,0.1,0.6,0.1,1c-0.1,0.2-0.2,0.4-0.3,0.6c-0.1,0.2-0.2,0.4-0.2,0.6c0,0.2,0.1,0.4,0.3,0.5"/>
<path class="st31" d="M37.7,30.4l-0.2,0.1l0.3,1.1c0,0,0.1,0.1,0.2,0.1c0.3,0.2,0.7,0.5,0.9,0.8c0.3,0.5,1.8,1.8,1.6,1.3
	c-0.2-0.6-0.3-0.5-0.3-0.5s0.3-0.8-0.5-1.2c-0.6-0.3-1.5-1.1-1.9-1.5C37.8,30.5,37.7,30.4,37.7,30.4z"/>
<path class="st32" d="M42.1,33.3c0.1,0.1,0.2,0.3,0.3,0.4c0.1,0.2,0.1,0.3,0,0.5c0,0.1-0.1,0.2-0.1,0.3c-0.2,0.4,0.3,0.9,0.2,1.4
	c-0.1,0.3-0.3,0.5-0.5,0.7s-0.5,0.5-0.4,0.8c0,0.1,0.1,0.3,0.2,0.4c0.1,0.1,0.1,0.3,0,0.4c-0.1,0.2-0.5,0.2-0.6,0.4
	c-0.1,0.2,0.2,0.4,0.1,0.6c-0.1,0.1-0.2,0.1-0.3,0.1c-0.1,0-0.2-0.1-0.3-0.1c-0.2,0-0.4,0.1-0.4,0.4c0,0.1,0,0.1,0,0.2
	c0.1,0.1,0.2,0.2,0.2,0.3c0,0.1-0.1,0.1-0.1,0.2c-0.3,0.1-0.6,0-0.7-0.2c-0.1-0.2-0.1-0.4-0.1-0.6c0-0.2,0-0.4-0.2-0.6
	c-0.1-0.1-0.2-0.1-0.3-0.2c-0.3-0.1-0.5-0.3-0.7-0.5c-0.2-0.2-0.3-0.4-0.3-0.7c0-0.3,0.3-0.5,0.2-0.8c0-0.3-0.3-0.5-0.6-0.7
	c-0.2-0.2-0.5-0.4-0.4-0.7c0.1-0.3,0.5-0.4,0.7-0.7c0.1-0.1,0.1-0.2,0.2-0.3c0.1-0.2,0.1-0.4,0.1-0.6c0-0.2,0.2-0.4,0.3-0.6
	c0.2-0.2,0.5-0.1,0.8-0.1c0.3,0,0.5,0.1,0.8,0c0.2,0,0.4-0.2,0.6-0.2c0.2,0,0.5,0.1,0.6,0.2c0.1,0.1,0.1,0.1,0.2,0.1
	C41.9,33.1,42,33.2,42.1,33.3z"/>
<g class="st19">
	<path d="M41.7,38.2c-0.1,0.1-0.2,0.1-0.3,0.2C41.5,38.2,41.6,38.2,41.7,38.2z"/>
	<path d="M40.7,39.1c0,0-0.1,0-0.1,0c0.1-0.1,0.2-0.1,0.3-0.1c0.1,0,0.2,0,0.3,0.1c0,0,0.1,0,0.1,0c0,0,0,0,0,0
		c-0.1,0.1-0.2,0.1-0.3,0.1C40.9,39.2,40.8,39.2,40.7,39.1z"/>
	<path d="M38.6,33.4c-0.1,0.2-0.1,0.4-0.1,0.6c0,0.1-0.1,0.2-0.2,0.3c-0.2,0.3-0.6,0.3-0.7,0.7c-0.1,0.3,0.2,0.6,0.4,0.7
		c0.2,0.2,0.5,0.4,0.6,0.7c0,0.3-0.2,0.5-0.2,0.8c0,0.3,0.1,0.5,0.3,0.7c0.2,0.2,0.4,0.4,0.7,0.5c0.1,0,0.2,0.1,0.3,0.2
		c0.2,0.1,0.2,0.4,0.2,0.6c0,0.2,0,0.4,0.1,0.6c0.1,0.2,0.4,0.3,0.6,0.2c0,0-0.1,0-0.1,0.1c-0.3,0.1-0.6,0-0.7-0.2
		c-0.1-0.2-0.1-0.4-0.1-0.6c0-0.2,0-0.4-0.2-0.6c-0.1-0.1-0.2-0.1-0.3-0.2c-0.3-0.1-0.5-0.3-0.7-0.5c-0.2-0.2-0.3-0.4-0.3-0.7
		c0-0.3,0.3-0.5,0.2-0.8c0-0.3-0.3-0.5-0.6-0.7s-0.5-0.4-0.4-0.7c0.1-0.3,0.5-0.4,0.7-0.7c0.1-0.1,0.1-0.2,0.2-0.3
		c0.1-0.2,0.1-0.4,0.1-0.6c0-0.2,0.2-0.4,0.3-0.6c0,0,0.1,0,0.1-0.1C38.7,33.1,38.6,33.2,38.6,33.4z"/>
</g>
<path class="st33" d="M33.3,36.2l-0.2-0.3c0,0-0.4,0.6,0.2,1C33.9,37.3,33.3,36.2,33.3,36.2z"/>
<path class="st9" d="M33.3,36.2l-0.2-0.3c0,0-0.4,0.6,0.2,1C33.9,37.3,33.3,36.2,33.3,36.2z"/>
<path class="st31" d="M31.3,46.4c0,0,0,0.6-0.1,1.2c-0.1,0.4-0.2,0.8-0.3,1c-0.3,0.4-0.2,1.8-0.2,1.8l-0.4,1.6
	c0,0.3-0.2,0.7-0.3,0.9c0,0.1-0.1,0.1-0.1,0.1l0.3,0.5l0.4,0.1c0,0,0.8-0.3,0.5-0.7c0-0.1-0.1-0.2-0.1-0.3c0-0.6,0.4-1.7,0.4-1.7
	s1-2,0.9-2.4c0,0,0-0.1,0-0.1c0-0.4,0.2-1.2,0.2-1.2L31.3,46.4z"/>
<path class="st31" d="M24.5,43.5c-0.7,0.5-1.9,1.7-2.1,2c-0.3,0.4-1,0.8-1,0.8l-0.5,0.3c-0.1,0-0.1,0.1-0.2,0.2c0,0-0.1,0.1-0.1,0.1
	l0.7,0.8c0,0,0.2-0.2,0.4-0.3c0.2-0.2,0.5-0.5,0.5-0.6c0.1-0.3,0.9-0.7,0.9-0.7s1.5-0.9,1.6-1c0.2-0.1,0.3-0.3,0.5-0.4
	c0.1-0.1,0.2-0.1,0.4-0.2c0.4-0.2,0.7-0.4,1.1-0.7l-0.7-1l-1.3,0.5C24.8,43.4,24.6,43.4,24.5,43.5z"/>
<path class="st9" d="M29.9,53C29.9,53.1,29.9,53.1,29.9,53l0.2,0.5l0.4,0.1c0,0,0.8-0.3,0.5-0.7c0-0.1-0.1-0.2-0.1-0.3
	c-0.2,0.1-0.3,0.4-0.3,0.4s0,0.1-0.4,0.3C30.1,53.3,30,53.2,29.9,53z"/>
<path class="st5" d="M29.8,53c-0.1,0.1-0.1,0.5-0.2,0.7c0,0.1,0,0.2,0,0.2c0,0.1,0.4,0.2,0.6,0.1c0.2-0.1,1.2,0.2,1.2,0.2
	c0.3,0,0.7,0,1-0.2c0.3-0.1,0.3-0.3,0.2-0.4c-0.1-0.1-0.2-0.1-0.4-0.2c-0.1-0.1-0.3-0.2-0.4-0.3c-0.1-0.2-0.3-0.3-0.5-0.4
	c-0.2-0.1-0.3-0.2-0.4-0.2c-0.2,0-0.3,0.4-0.3,0.4s0,0.1-0.4,0.3C30,53.4,29.9,53,29.8,53z"/>
<path class="st9" d="M29.7,53.7c0,0.1,0,0.2,0,0.2c0,0.1,0.4,0.2,0.6,0.1c0.2-0.1,1.2,0.2,1.2,0.2c0.3,0,0.7,0,1-0.2
	c0.3-0.1,0.3-0.3,0.2-0.4c-0.3,0.1-0.8,0.2-1.1,0.2C31.2,54,30,53.8,29.7,53.7z"/>
<path class="st9" d="M20.8,46.8L20.8,46.8c0,0-0.1,0.1-0.1,0.1l0.7,0.8c0,0,0.2-0.2,0.4-0.3C21.7,47,20.8,46.7,20.8,46.8L20.8,46.8z
	"/>
<path class="st5" d="M20,47.1c0,0,0.1,0.9,0.3,1.3c0.2,0.3,0.3,0.2,0.5,0.1c0.1,0,0.2-0.1,0.3-0.1c0.5-0.2,0.5-0.4,0.5-0.4
	c0.7-0.7-0.8-1.1-0.8-1.1l-0.1,0.1c-0.2,0-0.3,0-0.5,0.1C20.2,47,20.1,47,20,47.1z"/>
<path class="st9" d="M20,47.1c0,0,0.1,0.9,0.3,1.3c0.2,0.3,0.3,0.2,0.5,0.1c-0.2-0.1-0.4-0.3-0.5-0.6c-0.1-0.3-0.1-0.6-0.1-0.9
	C20.2,47,20.1,47,20,47.1z"/>
<path class="st31" d="M37.7,34.6l-1.2,0.9l-0.3,0.2l0.2,0.6l0.2,0.6l0.5,0.5c0,0,0.7-0.1,1.1-0.4c0.1-0.1,0.2-0.3,0.3-0.5
	c0-0.1,0-0.1,0-0.2c0-0.1,0.1-0.1,0.1-0.2c0.1-0.1,0.1-0.1,0.2-0.2c0.4-0.2,0.9-0.1,0.9-0.1s-0.1-1.6-0.4-1.3
	c-0.2,0.2-0.6,0.1-0.9,0.1c-0.2,0-0.3-0.1-0.3-0.1L37.7,34.6z"/>
<circle class="st9" cx="40" cy="35.1" r="1.3"/>
<circle class="st31" cx="40" cy="35.1" r="1.3"/>
<path class="st5" d="M33.2,36.7c-0.2,0.2-0.5,0.6-0.5,0.6l0.3,1.9l1.8,0.7h0c0.1-0.1,1.4-1.2,1.9-1c0.5,0.2,1.5-0.4,1.5-0.4
	s0.4-0.9,0.5-1.1s-0.1-1-0.1-1c0,0.1-0.1,0.1-0.1,0.2c-0.1,0.1-0.2,0.3-0.3,0.4c-0.1,0.1-0.3,0.2-0.4,0.2c0,0-0.1,0-0.1,0
	c-0.6,0.1-0.8-0.5-0.9-0.8c0-0.1,0-0.1,0-0.1l-0.3-0.6l-0.2-0.4c0,0-2.7,1.4-3,1.4C33.3,36.6,33.2,36.7,33.2,36.7z"/>
<path class="st32" d="M38.5,36.4L38.5,36.4c0,0.1-0.1,0.1-0.1,0.2l0.3,0.6c0-0.1,0-0.3,0-0.4L38.5,36.4z"/>
<path class="st12" d="M38.3,36.7c0,0-0.1,0.1-0.1,0.1l0,0l0.4,0.7c0-0.1,0.1-0.1,0.1-0.2L38.3,36.7z"/>
<path class="st12" d="M37.9,36.9l0.5,0.9c0-0.1,0.1-0.1,0.1-0.2l-0.5-0.8C38,36.9,38,36.9,37.9,36.9z"/>
<path class="st12" d="M37.6,37l0.7,1.2l0.1-0.2l-0.6-1h0C37.7,37,37.7,37,37.6,37L37.6,37z"/>
<path class="st12" d="M38.2,38.4L38.2,38.4L38.2,38.4l-1-1.4c0.1,0,0.2,0.1,0.3,0.1L38.2,38.4L38.2,38.4z"/>
<path class="st32" d="M36.2,35.2l0.6,1v0c0-0.1,0-0.1,0-0.1l-0.3-0.6l-0.2-0.4L36.2,35.2z"/>
<path class="st12" d="M35.9,35.4l1.9,3.2c0.1,0,0.1-0.1,0.2-0.1l-1.9-3.2L35.9,35.4z"/>
<path class="st12" d="M35.6,35.5l1.9,3.2c0.1,0,0.1,0,0.2-0.1l-1.9-3.2L35.6,35.5z"/>
<path class="st12" d="M35.4,35.7l1.9,3.1c0.1,0,0.1,0,0.2-0.1l-1.9-3.1L35.4,35.7z"/>
<path class="st12" d="M35.1,35.8l1.8,3c0.1,0,0.1,0,0.2,0l-1.9-3.1L35.1,35.8z"/>
<path class="st12" d="M34.8,35.9l1.7,2.8c0,0,0.1,0,0.1,0c0,0,0.1,0,0.1,0l-1.8-3L34.8,35.9z"/>
<path class="st12" d="M34.5,36.1l1.7,2.8c0.1,0,0.1,0,0.2-0.1L34.7,36L34.5,36.1z"/>
<path class="st32" d="M34.3,36.2l1.7,2.8c0.1,0,0.1-0.1,0.2-0.1l-1.7-2.8L34.3,36.2z"/>
<path class="st32" d="M34,36.3l1.7,2.8c0.1,0,0.1-0.1,0.2-0.1l-1.7-2.8L34,36.3z"/>
<path class="st32" d="M33.7,36.5l1.7,2.8c0,0,0.1-0.1,0.2-0.1l-1.7-2.8L33.7,36.5z"/>
<path class="st32" d="M33.4,36.6l1.7,2.9l0.1-0.1l-1.7-2.8L33.4,36.6z"/>
<path class="st12" d="M33.2,36.7L33.2,36.7l1.7,3c0,0,0.1-0.1,0.1-0.1l-1.7-2.9l0,0C33.3,36.6,33.2,36.7,33.2,36.7z"/>
<path class="st12" d="M33.1,36.8c0,0-0.1,0.1-0.1,0.1l1.7,2.8l0.1,0v0l0.1-0.1L33.1,36.8z"/>
<path class="st12" d="M32.9,37c0,0.1-0.1,0.1-0.1,0.2l1.4,2.4l0.3,0.1L32.9,37z"/>
<path class="st12" d="M32.7,37.3L32.7,37.3l0.1,0.5l1,1.7l0.3,0.1L32.7,37.3z"/>
<polygon class="st32" points="32.8,38.1 32.9,38.6 33.3,39.3 33.6,39.4 "/>
<polygon class="st32" points="32.9,38.9 33,39.1 33.1,39.2 "/>
<path class="st9" d="M33.2,36.7c0.1,0.3,0.2,0.5,0.2,0.5l0.7,1.4l1.4-0.6c0.1-0.2,0.1-0.5,0.1-0.7c0-0.3,0.1-0.7,0.8-0.9
	c0,0,0.1,0,0.1,0c0.1,0,0.2-0.1,0.2-0.1c0.3-0.1,0.6-0.4,0.7-0.8l0,0l0.9-0.7c0,0,0,0,0,0c-0.2,0-0.3-0.1-0.3-0.1l-0.4,0l-1.2,0.9
	l-0.2-0.4c0,0-2.7,1.4-3,1.4C33.3,36.6,33.2,36.7,33.2,36.7z"/>
<path class="st33" d="M35.5,33.8c-0.1,0.3-0.3,0.5-0.5,0.7c-0.4,0.3-0.3,0.5-0.3,0.5l-1.2,0.7c0,0-0.2,0.3-0.4,0.2s0.3,1.3,0.3,1.3
	l0.7,1.4l1.4-0.6c0.1-0.2,0.1-0.5,0.1-0.7c0-0.3,0.1-0.7,0.9-0.9c0.4-0.1,0.8-0.4,1-0.9c0,0,0,0,0,0l0.9-0.7
	c-0.1-0.1-0.2-0.2-0.4-0.3c-0.1,0-0.1,0-0.2,0c-0.1,0-0.2-0.1-0.2-0.2c0-0.2,0-0.9-0.3-0.9C37.1,33.2,35.5,33.8,35.5,33.8z"/>
<path class="st33" d="M37.9,34.4l-0.6,0.5l0.2,0.5c0,0,0,0,0,0l0.9-0.7c-0.1-0.1-0.2-0.2-0.4-0.3C38,34.4,38,34.4,37.9,34.4z"/>
<path class="st9" d="M37.9,34.4l-0.6,0.5l0.2,0.5c0,0,0,0,0,0l0.9-0.7c-0.1-0.1-0.2-0.2-0.4-0.3C38,34.4,38,34.4,37.9,34.4z"/>
<path class="st9" d="M37.7,30.4l-0.2,0.1l0.3,1.1c0,0,0.1,0.1,0.2,0.1c0-0.1-0.1-0.7-0.2-1c0-0.1,0-0.2,0-0.2s0,0,0,0
	C37.8,30.5,37.7,30.4,37.7,30.4z"/>
<path class="st33" d="M35.7,29.9c0,0-0.4,1.5-0.2,2.3c0,0,0.1,1.1,0,1.6l1.8-0.3l0.1-0.3c0,0-0.3-0.2-0.4-0.5s-0.1-0.6-0.1-0.6
	c0-0.3-0.1-0.5-0.1-0.8c-0.1-0.2,0.2-0.2,0.4-0.1c0,0,0.1,0,0.1,0.1c-0.1,0.1,0,0.3,0.1,0.3c0.1,0.1,0.2,0.1,0.3,0.1l0,0
	c0.1,0,0.3,0.1,0.4,0.1c0,0-0.1-0.6-0.2-1c0-0.1,0-0.2,0-0.2c0.1,0,0.5,0.4,0.5,0.4s0-0.6-0.2-0.7c0,0,0,0.2-0.2,0.1
	c-0.1-0.1-1.5-0.8-1.5-0.8S35.9,29.2,35.7,29.9z"/>
<path class="st9" d="M37,30.5l0.2,0.7c0,0,0.1,0,0.1,0.1c-0.1,0.1,0,0.3,0.1,0.3c0.1,0.1,0.2,0.1,0.3,0.1l0,0c0.1,0,0.2,0,0.3,0.1
	c0,0-0.1-0.6-0.2-1L37,30.5z"/>
<path class="st33" d="M37.1,30.5l0.2,0.7c-0.1,0.1,0,0.3,0.1,0.3c0.2,0.1,0.7,0.2,0.7,0.2s-0.1-0.6-0.2-1L37.1,30.5z"/>
<path class="st30" d="M37.1,30.5l0.2,0.7c-0.1,0.1,0,0.3,0.1,0.4c0.2,0.1,0.7,0.2,0.7,0.2s-0.1-0.6-0.2-1L37.1,30.5z"/>
<path class="st9" d="M32.6,47.2l-1.3-0.7c0,0,0,0.6-0.1,1.2c0.5,0.3,0.9,0.6,1.2,0.8C32.3,48,32.6,47.2,32.6,47.2z"/>
<path class="st9" d="M24.5,43.5c0.2,0.3,0.3,0.5,0.5,0.7c0,0,0.1,0.2,0.4,0.4c0.1-0.1,0.2-0.1,0.4-0.2c0.4-0.2,0.7-0.4,1.1-0.7
	l-0.7-1l-1.3,0.5C24.8,43.3,24.6,43.4,24.5,43.5z"/>
<path class="st5" d="M28.7,39.3c-0.2,0.4-1.4,1.6-1.4,1.6c-0.2,0.2-0.4,0.5-0.5,0.8c-0.2,0.4-0.8,0.9-1.3,1.3
	c-0.5,0.4-0.5,0.1-0.8,0.3c-0.3,0.2,0.6,1,0.6,1s1.4,2,3,2s3.9,2.2,4.9,2.4c1,0.2,0.4-0.3,0.8-0.5s0.6-0.6,0.6-0.6s-0.2-1.1,0-1.4
	s0.3-1.2,0.3-1.2s0-0.9,0.1-1c0.1-0.1,0-1.2,0-1.5c-0.1-0.3,0.2-0.7,0.2-0.7s-0.1-0.2,0-0.5c0.1-0.4-0.1-1.5-0.1-1.5
	c-2.1-1.2-2.4-2.5-2.4-2.5l-0.3,0.1C30.8,37,29,38.9,28.7,39.3z"/>
<path class="st9" d="M32.4,37.4c0,0,0.2,1.7,2.7,2.4c-2.1-1.2-2.4-2.5-2.4-2.5L32.4,37.4z"/>
<path class="st9" d="M32.7,40.4c0,0-2.1,3.3-2.1,3.5C30.5,44.1,32.8,40.5,32.7,40.4z"/>
<path class="st9" d="M32.5,39.3c0,0-1.6,2.4-1.9,2.5C30.6,41.8,32.1,39.5,32.5,39.3z"/>
<path class="st9" d="M31.5,38.8c0,0-1.1,0.8-2,0.7L31.5,38.8z"/>
<path class="st9" d="M31.2,38.3c0,0-1.1,0.4-1.3,0.4L31.2,38.3z"/>
<polygon class="st9" points="33.7,41.3 33.8,43.5 33.4,42.9 "/>
<path class="st9" d="M40.4,34c0,0.1-0.1,0.2-0.1,0.4c0,0.1,0.1,0.2,0.2,0.2c0.2,0.2,0.3,0.3,0.3,0.6c0,0.3-0.2,0.6-0.2,0.9
	c0,0.1,0,0.2,0.1,0.3c0,0,0.1,0.1,0.1,0.1c0.1,0.1,0.3,0.1,0.4,0.1c0.2-0.1,0.4-0.2,0.5-0.5c0.1-0.2,0.1-0.5,0-0.7
	c-0.1-0.6-0.4-1.2-0.7-1.7c0,0-0.1-0.1-0.1-0.1c-0.1-0.1-0.5-0.1-0.6,0C40.2,33.7,40.5,33.9,40.4,34z"/>
<path class="st32" d="M40.4,34c0,0.1-0.1,0.2-0.1,0.4c0,0.1,0.1,0.2,0.2,0.2c0.2,0.2,0.3,0.3,0.3,0.6c0,0.3-0.2,0.6-0.2,0.9
	c0,0.1,0,0.2,0.1,0.3c0,0,0.1,0.1,0.1,0.1c0.1,0.1,0.3,0.1,0.4,0.1c0.2-0.1,0.4-0.2,0.5-0.5c0.1-0.2,0.1-0.5,0-0.7
	c-0.1-0.6-0.4-1.2-0.7-1.7c0,0-0.1-0.1-0.1-0.1c-0.1-0.1-0.5-0.1-0.6,0C40.3,33.6,40.5,33.9,40.4,34z"/>
<path class="st31" d="M42.7,41.7L42,42.2l0.2,0.2l1.3,0.9c0,0,0.5,1,1.3,0.7c0.8-0.3-0.5-1.1-0.5-1.1s-0.2-0.1-0.2-0.1l-1.2-0.9
	L42.7,41.7z"/>
<path class="st9" d="M42.7,41.7L42,42.2l0.2,0.2c0.3-0.2,0.6-0.4,0.6-0.5L42.7,41.7z"/>
<path class="st9" d="M35.2,37.5l-1.4,0.9l1,1.4c0.1-0.1,1.4-1.2,1.9-1c0.5,0.2,1.5-0.4,1.5-0.4s0.4-0.9,0.5-1.1c0.1-0.2-0.1-1-0.1-1
	c0.1-0.1,0.1-0.1,0.2-0.2c-0.1,0-0.1,0-0.2,0c-0.3,0.1-0.4,0.3-0.4,0.7c0,0,0,0.1,0,0.1c0,0.1,0,0.1,0,0.2v0
	c0.1,0.6-0.2,0.8-0.2,0.8c-0.2,0.3-0.4,0.5-0.7,0.6C36.8,38.6,35.2,37.5,35.2,37.5z"/>
<path class="st33" d="M35.2,37.6l-1.4,0.9l1.1,1.6c0,0,0.6-0.3,0.7-0.5s1.1-0.6,1.1-0.6c1.1,0.4,1.6-0.3,1.6-0.3s1.3,2,1.4,2
	c0.1,0,0.8,0.6,0.8,0.6s0.5,0.7,0.7,0.8c0.1,0,0.1,0,0.2,0.1c0,0,0,0,0,0L41,42.4c0,0,0,0,0,0l0,0c0.1,0.1,0.2,0.2,0.3,0.3
	c0.2,0.1,1.6-0.8,1.6-1c0,0,0-0.1,0-0.1c-0.1-0.1-0.2-0.2-0.4-0.3l0,0l0,0c0,0-0.8-0.8-1.1-0.9c-0.3-0.1-1.1-1.5-1.1-1.5
	s-0.5-0.6-0.4-0.7c0.1-0.1-0.2-1.2-0.4-1.3c-0.2,0-0.3-0.3-0.3-0.3c0.1-0.3,0-0.3-0.2-0.4c-0.1,0-0.2,0-0.3,0
	c-0.3,0.1-0.4,0.4-0.4,0.8c0,0.1,0,0.1,0,0.2c0.1,0.6-0.2,0.8-0.2,0.8c-0.2,0.3-0.4,0.5-0.7,0.6C36.9,38.7,35.2,37.6,35.2,37.6z"/>
<path class="st9" d="M42.8,41.6C42.8,41.7,42.8,41.7,42.8,41.6c0,0.3-1.4,1.1-1.6,1c-0.1-0.1-0.2-0.1-0.3-0.2l0,0c0,0,0,0,0,0
	l0.5-0.3c0,0,0,0,0,0l0,0c0.4-0.1,0.8-0.3,1-0.7L42.8,41.6z"/>
<path class="st33" d="M41.4,42.1L41,42.4c0.1,0.1,0.2,0.2,0.3,0.3c0.2,0.1,1.6-0.8,1.6-1c0-0.2-0.3-0.3-0.4-0.4
	C42.2,41.7,41.9,42,41.4,42.1z"/>
<path class="st30" d="M41.4,42.1L41,42.4c0.1,0.1,0.2,0.2,0.3,0.3c0.2,0.1,1.6-0.8,1.6-1c0-0.2-0.3-0.3-0.4-0.4
	C42.2,41.7,41.9,42,41.4,42.1z"/>
<path class="st33" d="M38.2,37l0.3,0.1l0.3-0.9c-0.1,0-0.2,0-0.3,0C38.4,36.3,38.2,36.6,38.2,37z"/>
<path class="st9" d="M38.3,37l0.3,0.1l0.3-0.9c-0.1,0-0.2,0-0.3,0C38.4,36.3,38.2,36.5,38.3,37z"/>
<path class="st9" d="M40.5,33.9c0,0.1-0.1,0.2-0.1,0.4c0,0.1,0.1,0.2,0.2,0.2c0.2,0.2,0.3,0.3,0.3,0.6c0,0.3-0.2,0.6-0.2,0.9
	c0,0.1,0,0.2,0.1,0.3c0,0,0.1,0.1,0.1,0.1c0.1,0.1,0.3,0.1,0.4,0.1c0,0,0.1,0,0.1,0c-0.1,0-0.1,0.1-0.2,0.1c-0.2,0-0.4,0-0.5-0.2
	c-0.1-0.1-0.1-0.2-0.1-0.3c0-0.3,0.2-0.6,0.2-0.9c0-0.2-0.2-0.4-0.3-0.6c-0.1-0.1-0.1-0.1-0.2-0.2C40.3,34.2,40.4,34.1,40.5,33.9
	c0,0-0.2-0.3-0.1-0.4c0,0,0,0,0.1,0C40.4,33.6,40.6,33.9,40.5,33.9z"/>
<path class="st9" d="M37.5,36.5c0,0-0.4,0-0.5,0.3c0,0,0.4-0.4,0.4-0.5"/>
<path class="st31" d="M45,43.4c0,0-1.2-0.6-1,0.1C44.1,44.2,45,43.4,45,43.4z"/>
<rect x="45.3" y="38.5" transform="matrix(0.9096 -0.4155 0.4155 0.9096 -14.657 23.1573)" class="st4" width="1.2" height="13.5"/>
<path class="st6" d="M29,19.1c-0.2,0.5-0.7,0.9-0.6,1.4c0.1,0.3,0.3,0.4,0.5,0.6c0.5,0.3,1.1,0.7,1.4,1.2c0.4,0.5,0.6,1.2,0.4,1.7
	c-0.2,0.4-0.5,0.7-0.7,1.1c-0.2,0.5-0.3,1-0.1,1.5c0.1,0.5,0.3,1,0.6,1.4c0.1,0.2,0.2,0.3,0.4,0.4c0.1,0,0.3,0,0.4,0
	c0.5,0,0.9,0.3,1.2,0.8s0.4,0.9,0.4,1.4c0,0.2,0,0.5,0.2,0.7c0.2,0.3,0.6,0.4,0.9,0.4c0.9,0.1,1.8,0.2,2.7,0.1"/>
<path class="st5" d="M35.9,31.1h0.5c0.3,0,0.5,0.2,0.5,0.5v0c0,0.3-0.2,0.5-0.5,0.5h-0.5c-0.3,0-0.5-0.2-0.5-0.5v0
	C35.4,31.4,35.6,31.1,35.9,31.1z"/>
<g>
	<rect x="42.8" y="26.3" class="st11" width="8.5" height="8.9"/>
	<rect x="53.8" y="26.3" class="st11" width="8.5" height="8.9"/>
	<rect x="64.8" y="26.3" class="st11" width="8.5" height="8.9"/>
	<rect x="75.7" y="26.3" class="st11" width="8.5" height="8.9"/>
	
		<linearGradient id="SVGID_3_" gradientUnits="userSpaceOnUse" x1="228.3573" y1="-214.6747" x2="228.3573" y2="-209.8575" gradientTransform="matrix(1 0 0 -1 -158 -181.6694)">
		<stop  offset="0" style="stop-color:#808080;stop-opacity:0.25"/>
		<stop  offset="0.54" style="stop-color:#808080;stop-opacity:0.12"/>
		<stop  offset="1" style="stop-color:#808080;stop-opacity:0.1"/>
	</linearGradient>
	<path class="st34" d="M69.2,28.2L69.2,28.2V33l0,0c1.3,0,2.4-1.1,2.4-2.4S70.4,28.2,69.2,28.2L69.2,28.2z"/>
	
		<linearGradient id="SVGID_4_" gradientUnits="userSpaceOnUse" x1="225.8741" y1="-214.6769" x2="225.8741" y2="-211.4745" gradientTransform="matrix(1 0 0 -1 -158 -181.6694)">
		<stop  offset="0" style="stop-color:#808080;stop-opacity:0.25"/>
		<stop  offset="0.54" style="stop-color:#808080;stop-opacity:0.12"/>
		<stop  offset="1" style="stop-color:#808080;stop-opacity:0.1"/>
	</linearGradient>
	<path class="st35" d="M66.8,29.8c-0.5,1.3,0.2,2.6,1.5,3.1c0.3,0.1,0.5,0.1,0.7,0.1v-2L66.8,29.8z"/>
	
		<linearGradient id="SVGID_5_" gradientUnits="userSpaceOnUse" x1="226.0413" y1="-212.5997" x2="226.0413" y2="-209.8482" gradientTransform="matrix(1 0 0 -1 -158 -181.6694)">
		<stop  offset="0" style="stop-color:#808080;stop-opacity:0.25"/>
		<stop  offset="0.54" style="stop-color:#808080;stop-opacity:0.12"/>
		<stop  offset="1" style="stop-color:#808080;stop-opacity:0.1"/>
	</linearGradient>
	<path class="st36" d="M69.2,28.2c-1,0-1.9,0.6-2.2,1.6l2.2,1.1V28.2z"/>
	<path class="st4" d="M69.2,28.3L69.2,28.3v4.6l0,0c1.3,0,2.3-1,2.3-2.3S70.4,28.3,69.2,28.3z"/>
	<path class="st37" d="M66.9,29.8c-0.4,1.2,0.3,2.5,1.5,3c0.3,0.1,0.5,0.1,0.7,0.1v-1.9L66.9,29.8z"/>
	<path class="st38" d="M69.2,28.3c-0.9,0-1.9,0.6-2.1,1.6l2.1,1.1V28.3z"/>
	<path class="st37" d="M58,28.9L58,28.9v2.5l0,0c0.6,0,1.2-0.6,1.2-1.2C59.3,29.5,58.8,28.9,58,28.9z"/>
	<path class="st39" d="M56.9,29.7c-0.2,0.6,0.1,1.4,0.7,1.6c0.1,0,0.3,0.1,0.4,0.1v-1.1L56.9,29.7z"/>
	<path class="st40" d="M58,28.9c-0.6,0-1,0.4-1.2,0.8l1.2,0.6V28.9z"/>
	<rect x="44.6" y="28.4" class="st40" width="0.8" height="5.1"/>
	<rect x="46" y="28.4" class="st40" width="0.8" height="5.1"/>
	<rect x="47.4" y="28.4" class="st40" width="0.8" height="5.1"/>
	<rect x="48.8" y="28.4" class="st40" width="0.8" height="5.1"/>
	<rect x="44.6" y="30.9" class="st37" width="0.8" height="2.6"/>
	<g class="st41">
		<rect x="44.6" y="29.8" class="st37" width="0.8" height="1.1"/>
	</g>
	<rect x="46" y="31.4" class="st38" width="0.8" height="2"/>
	<rect x="46" y="30.1" class="st42" width="0.8" height="1.3"/>
	<rect x="47.4" y="30.5" class="st2" width="0.8" height="3"/>
	<rect x="47.4" y="29.5" class="st43" width="0.8" height="1"/>
	<rect x="48.8" y="31.5" class="st4" width="0.8" height="1.9"/>
	<rect x="48.8" y="30.9" class="st44" width="0.8" height="0.6"/>
	<rect x="77.6" y="29.5" class="st40" width="0.8" height="4"/>
	<rect x="79" y="29.5" class="st40" width="0.8" height="4"/>
	<rect x="80.3" y="29.5" class="st40" width="0.8" height="4"/>
	<rect x="81.7" y="29.5" class="st40" width="0.8" height="4"/>
	<rect x="77.6" y="31.5" class="st37" width="0.8" height="1.9"/>
	<g class="st41">
		<rect x="77.6" y="30.7" class="st37" width="0.8" height="0.8"/>
	</g>
	<rect x="79" y="31.9" class="st38" width="0.8" height="1.6"/>
	<rect x="79" y="30.9" class="st42" width="0.8" height="1"/>
	<rect x="80.3" y="31.1" class="st2" width="0.8" height="2.2"/>
	<rect x="80.3" y="30.4" class="st43" width="0.8" height="0.7"/>
	<rect x="81.7" y="32" class="st4" width="0.8" height="1.5"/>
	<rect x="81.7" y="31.5" class="st44" width="0.8" height="0.5"/>
	<g>
		<path class="st37" d="M55.5,32.9l0.1-0.5h0.6v0.2h-0.4v0.2c0,0,0.1,0,0.2,0c0.1,0,0.2,0,0.2,0.1c0.1,0.1,0.1,0.1,0.1,0.3
			c0,0.1,0,0.1,0,0.2c0,0.1-0.1,0.1-0.1,0.1s-0.1,0-0.2,0c-0.1,0-0.1,0-0.2,0s-0.1-0.1-0.1-0.1s0-0.1,0-0.2h0.2v0.1H56h0.1v-0.1
			v-0.1H56h-0.1l0,0L55.5,32.9z"/>
		<path class="st37" d="M56.9,33.1L56.9,33.1l0.1,0.2h-0.1v0.2h-0.2v-0.2h-0.4v-0.1l0.4-0.6h0.2V33.1z M56.5,33.1h0.2v-0.4l0,0
			L56.5,33.1z"/>
		<path class="st37" d="M57.1,33.3L57.1,33.3C57.2,33.2,57.2,33.2,57.1,33.3l0.2-0.1c0,0,0,0,0,0.1v0.1
			C57.3,33.4,57.3,33.4,57.1,33.3C57.2,33.4,57.2,33.4,57.1,33.3C57.1,33.4,57.1,33.4,57.1,33.3z"/>
		<path class="st37" d="M57.7,32.7L57.7,32.7c0.1,0,0.1,0,0.2,0c0.1,0,0.2,0,0.2,0.1c0-0.1,0.1-0.1,0.2-0.1c0.1,0,0.1,0,0.2,0.1
			c0,0,0.1,0.1,0.1,0.2v0.5h-0.2V33v-0.1c0,0,0,0-0.1,0c-0.1,0-0.1,0-0.1,0.1v0.5h-0.2V33v-0.1c0,0,0,0-0.1,0s-0.1,0-0.1,0.1v0.6
			h-0.2L57.7,32.7L57.7,32.7L57.7,32.7z"/>
		<path class="st37" d="M58.7,32.5C58.7,32.4,58.8,32.4,58.7,32.5C58.8,32.4,58.8,32.4,58.7,32.5l0.2-0.1c0,0,0,0,0,0.1v0.1
			C58.9,32.6,58.9,32.6,58.7,32.5C58.7,32.6,58.8,32.5,58.7,32.5C58.8,32.5,58.7,32.5,58.7,32.5z M59,33.4h-0.2v-0.7H59V33.4z"/>
		<path class="st37" d="M59.3,33.4h-0.2v-1h0.2V33.4z"/>
		<path class="st37" d="M59.7,33.4h-0.2v-1h0.2V33.4z"/>
	</g>
</g>
</svg>
