<?xml version="1.0" encoding="utf-8"?>
<!-- Generator: Adobe Illustrator 23.0.2, SVG Export Plug-In . SVG Version: 6.00 Build 0)  -->
<svg version="1.1" id="cb7db7bb-371f-430c-ab8e-9f8547f8cfe6"
	 xmlns="http://www.w3.org/2000/svg" xmlns:xlink="http://www.w3.org/1999/xlink" x="0px" y="0px" viewBox="0 0 285.6 217.8"
	 style="enable-background:new 0 0 285.6 217.8;" xml:space="preserve">
<style type="text/css">
	.st0{fill:#F3FBFE;}
	.st1{opacity:0.1;fill:#3C6FE9;enable-background:new    ;}
	.st2{fill:#E7E7E7;}
	.st3{opacity:0.1;enable-background:new    ;}
	.st4{fill:#18243F;}
	.st5{fill:#153559;}
	.st6{fill:#FFFFFF;}
	.st7{fill:#3C6FE9;}
	.st8{fill:#EDEDF4;}
	.st9{fill:#89DAF8;}
	.st10{opacity:0.5;fill:#DCE0ED;enable-background:new    ;}
	.st11{opacity:0.5;fill:#3C6FE9;enable-background:new    ;}
	.st12{fill:#E9425E;}
</style>
<title>dashboard</title>
<path class="st0" d="M280.1,49.6c-2.9-5.6-6.7-10.7-11.2-15.2l-156-1.3l128.4-15.3c-8.4-2.8-17.2-4.3-26.1-4.4
	C202.9,5.1,187,0,169.7,0c-15.6,0-29.9,4.1-41.7,11c-10-4.3-21.3-6.8-33.4-6.8c-34.7,0-63.5,20.3-70,47.2L280.1,49.6z"/>
<path class="st0" d="M285.6,72.1c0-7.4-1.7-14.6-4.9-21.3l-270.3,24C7.6,79,5.5,83.6,4.1,88.4l83.7,10.6l-85.6,7.7
	c2.6,30.5,33.5,54.5,71.2,54.5c19,0,36.2-6.1,49-16c12.8,10.1,30.3,16.4,49.5,16.4c28.5,0,53.1-13.7,64.5-33.5
	c23-6.2,40.8-21.6,46.9-41L177.4,73h108.2C285.6,72.7,285.6,72.4,285.6,72.1z"/>
<ellipse class="st1" cx="127.6" cy="214.5" rx="72.7" ry="3.2"/>
<path class="st2" d="M170.7,208.8v2h-58v-1.6c9.9-3.7,14.9-14.6,11.3-24.5c-1.8-4.7-5.3-8.6-9.9-10.7h56.3
	c-9.6,4.4-13.8,15.7-9.4,25.3C162.9,203.5,166.4,206.9,170.7,208.8L170.7,208.8z"/>
<path class="st3" d="M170.3,174c-5.2,2.4-9.1,7-10.5,12.6h-35.2c-1.4-5.6-5.3-10.2-10.5-12.6H170.3z"/>
<path class="st2" d="M46.3,164v11c0,6.1,4.4,11,9.9,11h170.7c5.5,0,9.9-4.9,9.9-11v-11H46.3z"/>
<path class="st3" d="M170.7,208.8v2h-58v-1.6c1.6-0.6,3.1-1.4,4.5-2.4h50C168.3,207.6,169.5,208.3,170.7,208.8z"/>
<path class="st2" d="M95.9,207.4h91.6c1.3,0,2.4,1.1,2.4,2.4v1.1c0,1.3-1.1,2.4-2.4,2.4H95.9c-1.3,0-2.4-1.1-2.4-2.4v-1.1
	C93.6,208.5,94.6,207.4,95.9,207.4z"/>
<path class="st4" d="M236.9,43.3c0-5.5-4.5-9.9-9.9-9.9H56.3c-5.5,0-9.9,4.4-10,9.9v122.8h190.6V43.3z"/>
<path class="st5" d="M231.7,47.7v105.5c0,2.7-2.2,4.9-4.9,4.9l0,0H56.4c-2.7,0-4.9-2.2-4.9-4.9l0,0V47.7c0-2.7,2.2-4.9,4.9-4.9
	h170.4C229.5,42.8,231.7,45,231.7,47.7L231.7,47.7z"/>
<circle class="st6" cx="141.6" cy="38.1" r="2.3"/>
<circle class="st6" cx="141.6" cy="175.4" r="5.7"/>
<path class="st5" d="M89.6,45.3v112.9H56.4c-2.7,0-4.9-2.2-4.9-4.9l0,0V47.7l0.2-0.7l0.5-1.8L89.6,45.3L89.6,45.3z"/>
<polygon class="st5" points="93.8,47.1 93.8,57.2 51.5,57.2 51.5,47.7 51.7,47.1 "/>
<path class="st7" d="M231.7,47.7H51.5c0-2.7,2.2-4.9,4.9-4.9l0,0h170.4C229.5,42.8,231.7,45,231.7,47.7L231.7,47.7z"/>
<circle class="st8" cx="56.4" cy="45.3" r="1.2"/>
<circle class="st8" cx="60.1" cy="45.3" r="1.2"/>
<circle class="st8" cx="63.7" cy="45.3" r="1.2"/>
<rect x="57.8" y="51.6" class="st7" width="25.4" height="2.3"/>
<rect x="57.8" y="63" class="st9" width="25.4" height="2.3"/>
<rect x="57.8" y="71" class="st9" width="25.4" height="2.3"/>
<rect x="57.8" y="79.1" class="st9" width="25.4" height="2.3"/>
<rect x="57.8" y="87.2" class="st9" width="25.4" height="2.3"/>
<rect x="57.8" y="95.2" class="st9" width="25.4" height="2.3"/>
<rect x="57.8" y="103.3" class="st9" width="25.4" height="2.3"/>
<rect x="57.8" y="111.4" class="st9" width="25.4" height="2.3"/>
<rect x="110.4" y="60.2" class="st10" width="112.6" height="0.4"/>
<rect x="110.4" y="68.9" class="st10" width="112.6" height="0.4"/>
<rect x="110.4" y="77.6" class="st10" width="112.6" height="0.4"/>
<rect x="110.4" y="86.4" class="st10" width="112.6" height="0.4"/>
<rect x="110.4" y="95.1" class="st10" width="112.6" height="0.4"/>
<polygon class="st11" points="223,95.5 110.2,95.5 110.2,78.3 120.6,83.4 131.3,84.8 140.7,82 152,73.2 157.7,69.9 161.9,69.1 
	165.9,69.3 172.4,72.6 181.3,78.3 188.3,79.1 193.9,77.2 205.6,67.6 211.6,65.5 217.9,66.5 223,69.4 "/>
<path class="st7" d="M129.9,84.8c-10.2,0-19.5-6.2-19.7-6.3l0.3-0.4c0.2,0.1,14.6,9.7,26.9,4.9c4.5-1.7,7.7-4.5,10.8-7.1
	c3.2-2.7,6.3-5.3,10.4-6.4c4.8-1.3,10-0.1,13.9,3.1c3.4,2.8,10.1,7.2,17.2,5.9c3.6-0.7,6.7-3.3,9.9-6.1c6.2-5.4,12.6-10.9,23.7-3
	l-0.3,0.4c-10.7-7.7-17-2.3-23,2.9c-3.3,2.8-6.4,5.5-10.1,6.2c-7.3,1.4-14.1-3.2-17.6-6c-3.8-3.1-8.9-4.3-13.4-3
	c-4,1.1-7,3.6-10.2,6.3c-3.1,2.7-6.3,5.4-10.9,7.2C135.1,84.4,132.5,84.9,129.9,84.8z"/>
<circle class="st12" cx="164.6" cy="69.1" r="2.8"/>
<g>
	<rect x="120.3" y="115" class="st9" width="16.6" height="3.5"/>
	<rect x="158.4" y="115" class="st9" width="16.6" height="3.5"/>
	<rect x="196.4" y="115" class="st9" width="16.6" height="3.5"/>
</g>
<path class="st7" d="M119.2,139.6c0-5.1,4.2-9.1,9.3-9.1h0.1v-2.3h-0.1c-6.4,0-11.6,5-11.6,11.4c0,3.4,1.5,6.5,4,8.8l1.7-1.7
	C120.4,144.9,119.2,142.3,119.2,139.6z"/>
<path class="st11" d="M128.8,128.2v2.3c5.1,0,9.3,4.2,9.2,9.4c0,5.1-4.2,9.3-9.4,9.2c-2.2,0-4.3-0.8-5.9-2.2l-1.7,1.7
	c4.8,4.2,12.2,3.7,16.4-1.1c4.2-4.8,3.7-12.2-1.1-16.4C134.2,129.2,131.6,128.2,128.8,128.2L128.8,128.2z"/>
<path class="st11" d="M205,130.4c5.1,0,9.1,4.2,9.1,9.3c0,0,0,0.1,0,0.1h2.3c0,0,0-0.1,0-0.1c0-6.4-5-11.6-11.4-11.6
	c-3.4,0-6.5,1.5-8.8,4l1.7,1.7C199.7,131.6,202.3,130.4,205,130.4z"/>
<path class="st7" d="M216.4,140h-2.3c0,5.1-4.2,9.3-9.4,9.2c-5.1,0-9.3-4.2-9.2-9.4c0-2.2,0.8-4.3,2.2-5.9l-1.7-1.7
	c-4.2,4.8-3.7,12.2,1.1,16.4c4.8,4.2,12.2,3.7,16.4-1.1C215.4,145.5,216.4,142.8,216.4,140L216.4,140z"/>
<path class="st11" d="M171.2,128.9l-0.5,2.3c3.4,1.4,5.6,4.7,5.6,8.6c0,5.1-4.2,9.3-9.3,9.3c-5.1,0-9.3-4.2-9.3-9.3
	c0-3.7,2.2-7,5.6-8.5l-1-2.1c-5.8,2.6-8.5,9.5-5.8,15.4c2.6,5.8,9.5,8.5,15.4,5.8c4.2-1.9,6.8-6,6.8-10.6
	C178.7,134.8,175.7,130.5,171.2,128.9z"/>
<path class="st7" d="M167.4,130.4c1.1,0,2.2,0.2,3.2,0.7l0.5-2.3c-1.2-0.5-2.4-0.7-3.7-0.7c-1.7,0-3.3,0.4-4.8,1l1.1,2.1
	C164.8,130.6,166.1,130.4,167.4,130.4z"/>
</svg>
