<?xml version="1.0" encoding="UTF-8" standalone="no"?>
<svg
   xmlns:dc="http://purl.org/dc/elements/1.1/"
   xmlns:cc="http://creativecommons.org/ns#"
   xmlns:rdf="http://www.w3.org/1999/02/22-rdf-syntax-ns#"
   xmlns:svg="http://www.w3.org/2000/svg"
   xmlns="http://www.w3.org/2000/svg"
   xmlns:sodipodi="http://sodipodi.sourceforge.net/DTD/sodipodi-0.dtd"
   xmlns:inkscape="http://www.inkscape.org/namespaces/inkscape"
   version="1.1"
   id="cb7db7bb-371f-430c-ab8e-9f8547f8cfe6"
   x="0"
   y="0"
   viewBox="0 0 285.6 217.8"
   xml:space="preserve"
   sodipodi:docname="dashboard2.svg"
   inkscape:version="0.92.4 (33fec40, 2019-01-16)"><metadata
     id="metadata4299"><rdf:RDF><cc:Work
         rdf:about=""><dc:format>image/svg+xml</dc:format><dc:type
           rdf:resource="http://purl.org/dc/dcmitype/StillImage" /></cc:Work></rdf:RDF></metadata><defs
     id="defs4297" /><sodipodi:namedview
     pagecolor="#ffffff"
     bordercolor="#666666"
     borderopacity="1"
     objecttolerance="10"
     gridtolerance="10"
     guidetolerance="10"
     inkscape:pageopacity="0"
     inkscape:pageshadow="2"
     inkscape:window-width="1850"
     inkscape:window-height="1016"
     id="namedview4295"
     showgrid="false"
     inkscape:snap-grids="true"
     inkscape:snap-to-guides="false"
     inkscape:snap-page="false"
     inkscape:snap-global="false"
     inkscape:zoom="4"
     inkscape:cx="178.82004"
     inkscape:cy="85.793228"
     inkscape:window-x="597"
     inkscape:window-y="1107"
     inkscape:window-maximized="1"
     inkscape:current-layer="cb7db7bb-371f-430c-ab8e-9f8547f8cfe6" /><style
     id="style4234">.st2{fill:#e7e7e7}.st3{opacity:.1;enable-background:new}.st5{fill:#153559}.st6{fill:#fff}.st7{fill:#3c6fe9}.st8{fill:#ededf4}.st9{fill:#89daf8}.st11{opacity:.5;enable-background:new;fill:#3c6fe9}</style><path
     d="M 280.05424,50.200887 C 277.13181,44.533044 273.30242,39.37126 268.76761,34.816744 L 111.56096,33.500995 240.95413,18.015641 C 232.48916,15.18172 223.62109,13.663548 214.65224,13.562336 202.2571,5.1617847 186.23411,0 168.8003,0 153.07965,0 138.66903,4.1496701 126.77776,11.133261 116.7004,6.7811681 105.313,4.2508815 93.119403,4.2508815 c -34.968405,0 -63.991175,20.5459275 -70.54145,47.7718115 z m 5.54255,22.772579 c 0,-7.489648 -1.71315,-14.776874 -4.9379,-21.558042 L 8.2681146,75.706176 C 5.4464565,79.957057 3.3302131,84.612785 1.919384,89.470935 l 84.347421,10.728415 -86.2621175,7.79328 c 2.620111,30.8695 33.7591215,55.16025 71.7507335,55.16025 19.146965,0 36.479999,-6.1739 49.379009,-16.19383 12.899,10.22235 30.53437,16.59868 49.88289,16.59868 28.72045,0 53.51072,-13.86597 64.9989,-33.90584 23.17791,-6.27511 41.11559,-21.86168 47.26278,-41.496704 L 176.55986,73.884369 h 109.03693 z"
     id="path4236"
     inkscape:connector-curvature="0"
     style="fill:#f3fbfe;stroke-width:1.00992262" /><ellipse
     cx="142.80003"
     cy="214.5"
     rx="72.699997"
     ry="3.2"
     id="ellipse4238"
     style="opacity:0.1;fill:#3c6fe9" /><path
     class="st2"
     d="m 171.9,208.8 v 2 h -58 v -1.6 c 9.9,-3.7 14.9,-14.6 11.3,-24.5 -1.8,-4.7 -5.3,-8.6 -9.9,-10.7 h 56.3 c -9.6,4.4 -13.8,15.7 -9.4,25.3 1.9,4.2 5.4,7.6 9.7,9.5 z"
     id="path4240"
     inkscape:connector-curvature="0"
     style="fill:#e7e7e7" /><path
     class="st3"
     d="m 171.5,174 c -5.2,2.4 -9.1,7 -10.5,12.6 H 125.8 C 124.4,181 120.5,176.4 115.3,174 Z"
     id="path4242"
     inkscape:connector-curvature="0"
     style="opacity:0.1;enable-background:new" /><path
     class="st2"
     d="m 47.5,164 v 11 c 0,6.1 4.4,11 9.9,11 h 170.7 c 5.5,0 9.9,-4.9 9.9,-11 v -11 z"
     id="path4244"
     inkscape:connector-curvature="0"
     style="fill:#e7e7e7" /><path
     class="st3"
     d="m 171.9,208.8 v 2 h -58 v -1.6 c 1.6,-0.6 3.1,-1.4 4.5,-2.4 h 50 c 1.1,0.8 2.3,1.5 3.5,2 z"
     id="path4246"
     inkscape:connector-curvature="0"
     style="opacity:0.1;enable-background:new" /><path
     class="st2"
     d="m 97.1,207.4 h 91.6 c 1.3,0 2.4,1.1 2.4,2.4 v 1.1 c 0,1.3 -1.1,2.4 -2.4,2.4 H 97.1 c -1.3,0 -2.4,-1.1 -2.4,-2.4 v -1.1 c 0.1,-1.3 1.1,-2.4 2.4,-2.4 z"
     id="path4248"
     inkscape:connector-curvature="0"
     style="fill:#e7e7e7" /><path
     d="m 238.1,43.3 c 0,-5.5 -4.5,-9.9 -9.9,-9.9 H 57.5 c -5.5,0 -9.9,4.4 -10,9.9 v 122.8 h 190.6 z"
     id="path4250"
     inkscape:connector-curvature="0"
     style="fill:#18243f" /><path
     class="st5"
     d="m 232.9,47.7 v 105.5 c 0,2.7 -2.2,4.9 -4.9,4.9 H 57.6 c -2.7,0 -4.9,-2.2 -4.9,-4.9 V 47.7 c 0,-2.7 2.2,-4.9 4.9,-4.9 H 228 c 2.7,0 4.9,2.2 4.9,4.9 z"
     id="path4252"
     inkscape:connector-curvature="0"
     style="fill:#153559" /><circle
     class="st6"
     cx="142.80003"
     cy="38.099998"
     r="2.3"
     id="circle4254"
     style="fill:#ffffff" /><circle
     class="st6"
     cx="142.80003"
     cy="175.39999"
     r="5.6999998"
     id="circle4256"
     style="fill:#ffffff" /><path
     class="st5"
     d="M 90.8,45.3 V 158.2 H 57.6 c -2.7,0 -4.9,-2.2 -4.9,-4.9 V 47.7 l 0.2,-0.7 0.5,-1.8 z"
     id="path4258"
     inkscape:connector-curvature="0"
     style="fill:#153559" /><path
     class="st5"
     d="M 95,47.1 V 57.2 H 52.7 v -9.5 l 0.2,-0.6 z"
     id="path4260"
     inkscape:connector-curvature="0"
     style="fill:#153559" /><path
     class="st7"
     d="M 232.9,47.7 H 52.7 c 0,-2.7 2.2,-4.9 4.9,-4.9 H 228 c 2.7,0 4.9,2.2 4.9,4.9 z"
     id="path4262"
     inkscape:connector-curvature="0"
     style="fill:#3c6fe9" /><circle
     class="st8"
     cx="57.599991"
     cy="45.299999"
     r="1.2"
     id="circle4264"
     style="fill:#ededf4" /><circle
     class="st8"
     cx="61.300011"
     cy="45.299999"
     r="1.2"
     id="circle4266"
     style="fill:#ededf4" /><circle
     class="st8"
     cx="64.900009"
     cy="45.299999"
     r="1.2"
     id="circle4268"
     style="fill:#ededf4" /><path
     class="st7"
     d="m 59,51.6 h 25.4 v 2.3 H 59 Z"
     id="path4270"
     inkscape:connector-curvature="0"
     style="fill:#3c6fe9" /><path
     class="st9"
     d="m 59,63 h 25.4 v 2.3 H 59 Z m 0,8 h 25.4 v 2.3 H 59 Z m 0,8.1 h 25.4 v 2.3 H 59 Z m 0,8.1 h 25.4 v 2.3 H 59 Z m 0,8 h 25.4 v 2.3 H 59 Z m 0,8.1 h 25.4 v 2.3 H 59 Z m 0,8.1 h 25.4 v 2.3 H 59 Z"
     id="path4272"
     inkscape:connector-curvature="0"
     style="fill:#89daf8" /><path
     d="m 111.6,60.2 h 112.6 v 0.4 H 111.6 Z m 0,8.7 h 112.6 v 0.4 H 111.6 Z m 0,8.7 H 224.2 V 78 H 111.6 Z m 0,8.8 h 112.6 v 0.4 H 111.6 Z m 0,8.7 h 112.6 v 0.4 H 111.6 Z"
     id="path4274"
     inkscape:connector-curvature="0"
     style="opacity:0.5;fill:#dce0ed" /><path
     class="st11"
     d="M 224.2,95.5 H 111.4 V 78.3 l 10.4,5.1 10.7,1.4 9.4,-2.8 11.3,-8.8 5.7,-3.3 4.2,-0.8 4,0.2 6.5,3.3 8.9,5.7 7,0.8 5.6,-1.9 11.7,-9.6 6,-2.1 6.3,1 5.1,2.9 z"
     id="path4276"
     inkscape:connector-curvature="0"
     style="opacity:0.5;fill:#3c6fe9;enable-background:new" /><path
     class="st7"
     d="m 131.1,84.8 c -10.2,0 -19.5,-6.2 -19.7,-6.3 l 0.3,-0.4 c 0.2,0.1 14.6,9.7 26.9,4.9 4.5,-1.7 7.7,-4.5 10.8,-7.1 3.2,-2.7 6.3,-5.3 10.4,-6.4 4.8,-1.3 10,-0.1 13.9,3.1 3.4,2.8 10.1,7.2 17.2,5.9 3.6,-0.7 6.7,-3.3 9.9,-6.1 6.2,-5.4 12.6,-10.9 23.7,-3 l -0.3,0.4 c -10.7,-7.7 -17,-2.3 -23,2.9 -3.3,2.8 -6.4,5.5 -10.1,6.2 -7.3,1.4 -14.1,-3.2 -17.6,-6 -3.8,-3.1 -8.9,-4.3 -13.4,-3 -4,1.1 -7,3.6 -10.2,6.3 -3.1,2.7 -6.3,5.4 -10.9,7.2 -2.7,1 -5.3,1.5 -7.9,1.4 z"
     id="path4278"
     inkscape:connector-curvature="0"
     style="fill:#3c6fe9" /><circle
     cx="165.80003"
     cy="69.099998"
     r="2.8"
     id="circle4280"
     style="fill:#e9425e" /><path
     class="st9"
     d="m 121.5,115 h 16.6 v 3.5 h -16.6 z m 38.1,0 h 16.6 v 3.5 h -16.6 z m 38,0 h 16.6 v 3.5 h -16.6 z"
     id="path4282"
     inkscape:connector-curvature="0"
     style="fill:#89daf8" /><path
     class="st7"
     d="m 120.4,139.6 c 0,-5.1 4.2,-9.1 9.3,-9.1 h 0.1 v -2.3 h -0.1 c -6.4,0 -11.6,5 -11.6,11.4 0,3.4 1.5,6.5 4,8.8 l 1.7,-1.7 c -2.2,-1.8 -3.4,-4.4 -3.4,-7.1 z"
     id="path4284"
     inkscape:connector-curvature="0"
     style="fill:#3c6fe9" /><path
     class="st11"
     d="m 130,128.2 v 2.3 c 5.1,0 9.3,4.2 9.2,9.4 0,5.1 -4.2,9.3 -9.4,9.2 -2.2,0 -4.3,-0.8 -5.9,-2.2 l -1.7,1.7 c 4.8,4.2 12.2,3.7 16.4,-1.1 4.2,-4.8 3.7,-12.2 -1.1,-16.4 -2.1,-1.9 -4.7,-2.9 -7.5,-2.9 z m 76.2,2.2 c 5.1,0 9.1,4.2 9.1,9.3 v 0.1 h 2.3 v -0.1 c 0,-6.4 -5,-11.6 -11.4,-11.6 -3.4,0 -6.5,1.5 -8.8,4 l 1.7,1.7 c 1.8,-2.2 4.4,-3.4 7.1,-3.4 z"
     id="path4286"
     inkscape:connector-curvature="0"
     style="opacity:0.5;fill:#3c6fe9;enable-background:new" /><path
     class="st7"
     d="m 217.6,140 h -2.3 c 0,5.1 -4.2,9.3 -9.4,9.2 -5.1,0 -9.3,-4.2 -9.2,-9.4 0,-2.2 0.8,-4.3 2.2,-5.9 l -1.7,-1.7 c -4.2,4.8 -3.7,12.2 1.1,16.4 4.8,4.2 12.2,3.7 16.4,-1.1 1.9,-2 2.9,-4.7 2.9,-7.5 z"
     id="path4288"
     inkscape:connector-curvature="0"
     style="fill:#3c6fe9" /><path
     class="st11"
     d="m 172.4,128.9 -0.5,2.3 c 3.4,1.4 5.6,4.7 5.6,8.6 0,5.1 -4.2,9.3 -9.3,9.3 -5.1,0 -9.3,-4.2 -9.3,-9.3 0,-3.7 2.2,-7 5.6,-8.5 l -1,-2.1 c -5.8,2.6 -8.5,9.5 -5.8,15.4 2.6,5.8 9.5,8.5 15.4,5.8 4.2,-1.9 6.8,-6 6.8,-10.6 0,-5 -3,-9.3 -7.5,-10.9 z"
     id="path4290"
     inkscape:connector-curvature="0"
     style="opacity:0.5;fill:#3c6fe9;enable-background:new" /><path
     class="st7"
     d="m 168.6,130.4 c 1.1,0 2.2,0.2 3.2,0.7 l 0.5,-2.3 c -1.2,-0.5 -2.4,-0.7 -3.7,-0.7 -1.7,0 -3.3,0.4 -4.8,1 l 1.1,2.1 c 1.1,-0.6 2.4,-0.8 3.7,-0.8 z"
     id="path4292"
     inkscape:connector-curvature="0"
     style="fill:#3c6fe9" /></svg>