<?xml version="1.0" encoding="utf-8"?>
<!-- Generator: Adobe Illustrator 23.0.1, SVG Export Plug-In . SVG Version: 6.00 Build 0)  -->
<svg version="1.1" id="b86c1a25-be3a-4728-a0a8-9021f461e354"
	 xmlns="http://www.w3.org/2000/svg" xmlns:xlink="http://www.w3.org/1999/xlink" x="0px" y="0px" viewBox="0 0 1167.7 718.4"
	 style="enable-background:new 0 0 1167.7 718.4;" xml:space="preserve">
<style type="text/css">
	.st0{fill:#CCE9F6;}
	.st1{fill:#3C6FE9;}
	.st2{fill:#444053;}
	.st3{fill:none;stroke:#444053;stroke-miterlimit:10;}
	.st4{fill:none;stroke:#444053;stroke-width:0.75;stroke-miterlimit:10;}
	.st5{fill:#153559;}
	.st6{fill:#EDEDF4;}
	.st7{fill:#89DAF8;}
	.st8{opacity:0.5;fill:#3C6FE9;}
	.st9{fill:#0038BA;}
	.st10{fill:#18243F;}
	.st11{fill:#E9425E;}
	.st12{fill:#31B096;}
	.st13{fill:#EBAF41;}
	.st14{fill:#1F7060;}
	.st15{fill:#907634;}
	.st16{fill:#46FCD7;}
	.st17{fill:#F0C161;}
</style>
<title>dark analytics</title>
<path class="st0" d="M1145.8,229.9c-11.2-25.6-26.3-49.3-44.8-70.2l-621.9-6l512-70.7C958,70,922.9,63.1,887.3,62.7
	C838,23.5,774.6,0,705.5,0c-62,0-119.3,19-166.1,51.1c-41.3-20.8-86.9-31.6-133.1-31.5c-138.2,0-253.3,94.1-279.1,218.9
	L1145.8,229.9z"/>
<path class="st0" d="M736.5,338.6l67.8,10.4l0,0l2.3,0.3l0,0l1.5,0.2l2.8,0.4l11.3,1.7l120.9,18.4l39.5,6l175.9,26.8
	c-23.3,86.1-89.7,155.6-175.9,186.4c-3.7,1.3-7.4,2.6-11.2,3.8c-26.8,53.9-71.5,98-126.8,125.3H583.8c-19-9.4-36.9-20.8-53.4-34.2
	c-3.3-2.7-6.6-5.4-9.7-8.2c-1.2-1.1-2.4-2.2-3.6-3.3c-1.6,1.4-3.2,2.9-4.8,4.3c-3.8,3.3-7.7,6.5-11.7,9.5
	c-16,12.4-33.4,23.1-51.6,31.9H194.2c-12.4-5.9-24.3-12.7-35.6-20.3C90.2,652.3,43.8,578.6,37.7,494.3l120.7-12.6l33.9-3.5
	l102.5-10.7l84.2-8.8l-118.8-17.4l-72.9-10.7l-28.9-4.2L45.3,409.7c5.7-21.9,14.2-43,25.2-62.7l87.9-9.1l72.5-7.5l72.8-7.5
	l124.2-12.8l1.7-0.2l370.7-38.2l16.6-1.8l165.8-17.1l165.6-17.1c12.8,31.4,19.4,64.9,19.4,98.8c0,1.4,0,2.7,0,4L736.5,338.6z"/>
<path class="st1" d="M1141.8,579.4c0,0-14-5.7-58.8,14.8s-50.3,17.9-61.9,14.8s-18-3.9-30.5-21c0,0-8.8-47.5-17.2-54.8
	s-44.5,4.2-44.5,4.2s-43.2,9.9-51.4-47.8c0,0,5.8-43.5-2.1-56.8c0,0,16,6.9,42.5-4.3s47.7,12,47.7,12s6.7,17.3,6,27.6
	s3.5,14.2,16.2,9.2c0,0,6.2-8.8-2.6-23.4s-15.1-25.5-12.6-36.8s9.5-27,32.2-34.9s53.4-9.4,68.2-15.5s18.3-10.2,18.3-10.2
	s-9.1,9.1,12.3,47.7s7.8,55.4,7.8,55.4s-11.4,27.2-61.7,25c0,0-48.5,1.8-22.1,22.3c0,0,16.9-3.4,42.2-11.5s43.6,25.2,48.1,48.3
	S1141.8,579.4,1141.8,579.4z"/>
<path class="st2" d="M1076.7,385.8l0.3-0.1c2,7.4-19.7,37-38.2,60.5l-0.2-0.2C1064.6,412.8,1078.2,391.4,1076.7,385.8z"/>
<path class="st2" d="M1038.9,445.6l0.1,0.3c-14.8,18.8-33.4,41.2-48.3,57.9c-1.4,1.6-2.8,3.2-4.2,4.9l-0.4-0.3
	c1.4-1.7,2.8-3.4,4.2-5C1005.2,486.7,1024.1,464.4,1038.9,445.6z"/>
<path class="st2" d="M986.5,507.9l0.3,0.5c-27.1,33.8-28.9,86.4-28.9,86.8l-5.7-6.6C952.2,588.1,959.2,542,986.5,507.9z"/>
<path class="st3" d="M1110.4,561.1c0,0-31.9-16.6-56.8-10.7s-81-21.1-81-21.1s-23.8-9.7-28.6-20.7c0,0-16.3-17.3-17.3-26.2
	s-16.8-31.4-27.2-32.2"/>
<path class="st3" d="M1105.8,577.1c0,0-16.1-10.8-14.2-23.5"/>
<path class="st3" d="M1081.1,591.1c0,0-23-8.3-25.3-41.1"/>
<path class="st3" d="M1044,599.5c0,0-22-18.2-14.7-50.1"/>
<path class="st3" d="M999.4,590.6c0,0-14.7-30.7-1.6-50.7"/>
<path class="st3" d="M1110.8,540.8c0,0-16.6,5.3-13.1,14"/>
<path class="st3" d="M1090.7,510.6c0,0-22.3,7.1-22.8,38.6"/>
<path class="st3" d="M1059.7,503.3c0,0-20.3,25-18.8,47.8"/>
<path class="st3" d="M1024.2,513.2c0,0-20.1,19.2-17.6,29.9"/>
<path class="st3" d="M1012,506.4c0,0-18.9,3.4-21.5-2.8"/>
<path class="st3" d="M987.5,483.6c0,0,9.5,12.6,12,9.8"/>
<path class="st3" d="M1082.1,475.6c0,0-47.6,3.5-58.3-10.9"/>
<path class="st3" d="M977.5,419.9c0,0,22.3,47.9,38.5,54"/>
<path class="st3" d="M1000.9,397.1c0,0,13.7,44.1,30.7,57.8"/>
<path class="st4" d="M1102.1,439.2c0,0-36.2,15.5-57.9-0.2"/>
<path class="st4" d="M1033.2,387.7c0,0,8.3,32.4,19.4,40.2"/>
<path class="st4" d="M1096.6,402.9c0,0-20.3,7.7-27.9,1.8"/>
<path class="st3" d="M970.1,494.2c0,0,0,28.3-7.7,30.3"/>
<path class="st3" d="M907.2,530.8c0,0,30.5,2.6,44.6-13.2"/>
<path class="st3" d="M962.2,460.8c0,0-7.4,28.7-27.8,36.4"/>
<path class="st3" d="M888.8,500.6c0,0,21.6,7.5,40.2-11.6"/>
<path class="st3" d="M938.2,436.2c0,0-2,24.3-15.3,35.7"/>
<path class="st3" d="M889.7,463.5c0,0,17.9,0.1,22.1-5.7"/>
<path class="st5" d="M982.7,213.2V696c0,12.4-10,22.4-22.4,22.4H180.9c-11.6,0-21.2-8.8-22.3-20.3c-0.1-0.7-0.1-1.4-0.1-2.1V213.2
	c0-0.5,0-1,0.1-1.4h824.1C982.7,212.2,982.7,212.7,982.7,213.2z"/>
<path class="st1" d="M960.3,191.8H180.9c-8,0-15.4,4.3-19.4,11.2c-1.7,3-2.7,6.3-2.9,9.8h824.1C981.9,201,972.1,191.8,960.3,191.8z"
	/>
<circle class="st6" cx="180.8" cy="203" r="5.6"/>
<circle class="st6" cx="197.6" cy="203" r="5.6"/>
<circle class="st6" cx="214.4" cy="203" r="5.6"/>
<rect x="187.4" y="230.6" class="st1" width="116.3" height="10.7"/>
<rect x="187.4" y="282.8" class="st7" width="116.3" height="10.7"/>
<rect x="187.4" y="319.7" class="st7" width="116.3" height="10.7"/>
<rect x="187.4" y="356.7" class="st7" width="116.3" height="10.7"/>
<rect x="187.4" y="393.6" class="st7" width="116.3" height="10.7"/>
<rect x="187.4" y="430.5" class="st7" width="116.3" height="10.7"/>
<rect x="187.4" y="467.4" class="st7" width="116.3" height="10.7"/>
<rect x="187.4" y="504.3" class="st7" width="116.3" height="10.7"/>
<rect x="427.8" y="270" class="st8" width="515.3" height="1.7"/>
<rect x="427.8" y="310" class="st8" width="515.3" height="1.7"/>
<rect x="427.8" y="349.9" class="st8" width="515.3" height="1.7"/>
<rect x="427.8" y="389.9" class="st8" width="515.3" height="1.7"/>
<rect x="427.8" y="429.9" class="st8" width="515.3" height="1.7"/>
<polygon class="st8" points="943.2,431.6 427.2,431.6 427.2,353 474.5,376.3 523.5,382.9 566.5,370 618.3,329.8 644.4,314.7 
	663.4,311 681.7,312 711.7,326.8 752.4,352.8 784.4,356.9 809.8,348.2 863.6,304.1 891,294.4 919.8,298.8 943.2,312.3 "/>
<path class="st1" d="M517.1,383c-46.5,0-89.4-28.4-89.9-28.8l1.3-1.9c0.7,0.4,66.8,44.2,122.9,22.3c20.5-8,35.1-20.4,49.2-32.4
	c14.7-12.5,28.6-24.4,47.6-29.5c21.8-5.9,45.5-0.6,63.6,14.3c15.4,12.7,46.2,33,78.6,27c16.6-3.1,30.5-15.2,45.3-28
	c28.3-24.6,57.6-49.9,108.3-13.5l-1.4,1.9c-49.2-35.4-77.8-10.6-105.4,13.4c-15,13-29.2,25.3-46.3,28.5
	c-33.4,6.3-64.8-14.5-80.5-27.4c-17.5-14.4-40.5-19.5-61.5-13.8c-18.5,5-32.2,16.7-46.7,29.1c-14.2,12.1-29,24.7-49.8,32.8
	C541,381,529.1,383.1,517.1,383z"/>
<circle class="st9" cx="675.8" cy="310.8" r="12.8"/>
<g>
	<rect x="473.4" y="521.2" class="st7" width="75.8" height="16.1"/>
	<rect x="647.3" y="521.2" class="st7" width="75.8" height="16.1"/>
	<rect x="821.2" y="521.2" class="st7" width="75.8" height="16.1"/>
</g>
<path class="st9" d="M468,633.4c0-23.5,19.1-41.5,42.6-41.5h0.3v-10.7h-0.3c-29.4,0-53.2,22.8-53.2,52.2c0,15.4,6.6,30,18.2,40.1
	l7.6-7.6C473.5,657.8,468,645.9,468,633.4z"/>
<path class="st1" d="M511.9,581.2v10.7c23.5,0.1,42.4,19.3,42.3,42.8c-0.1,23.5-19.3,42.4-42.8,42.3c-10-0.1-19.7-3.6-27.3-10.1
	l-7.6,7.6c22.1,19.3,55.7,17.1,75.1-5c19.3-22.1,17.1-55.7-5-75.1C537.1,585.9,524.7,581.3,511.9,581.2z"/>
<path class="st9" d="M860.8,591.4c23.5,0,41.5,19.1,41.5,42.5v0.3H913c0-0.1,0-0.2,0-0.3c0-29.3-22.8-53.2-52.2-53.2
	c-15.3,0-29.9,6.7-40,18.2l7.6,7.6C836.5,596.9,848.3,591.4,860.8,591.4z"/>
<path class="st1" d="M913,635.3h-10.7c-0.1,23.5-19.3,42.4-42.8,42.3c-23.5-0.1-42.4-19.3-42.3-42.8c0.1-10,3.6-19.7,10.1-27.3
	l-7.6-7.6c-19.3,22.1-17.1,55.7,5,75.1c22.1,19.3,55.7,17.1,75.1-5C908.3,660.4,913,648.1,913,635.3L913,635.3z"/>
<path class="st1" d="M706.2,584.4l-2.1,10.6c15.6,6.3,25.6,21.6,25.6,39.5c0,23.5-19.1,42.5-42.6,42.5s-42.5-19.1-42.5-42.6
	c0-16.9,10-32.2,25.5-39l-4.8-9.5c-26.8,12.1-38.8,43.6-26.7,70.4c12.1,26.8,43.6,38.8,70.4,26.7c19.1-8.6,31.4-27.6,31.4-48.5
	C740.4,611.4,726.7,591.8,706.2,584.4z"/>
<path class="st9" d="M688.5,591.3c5.1,0,10.1,1,14.8,3.1l2.1-10.6c-5.4-2.1-11.1-3.1-16.9-3.1c-7.5,0-15,1.6-21.8,4.7l4.8,9.6
	C676.8,592.5,682.6,591.3,688.5,591.3z"/>
<rect x="313.5" y="-91.1" class="st9" width="87.8" height="28.2"/>
<rect x="225.7" y="-91.1" class="st7" width="87.8" height="28.2"/>
<rect x="435.9" y="-77" class="st10" width="91.3" height="68.9"/>
<rect x="527.3" y="-77" class="st5" width="91.8" height="68.9"/>
<circle class="st11" cx="117.8" cy="-102.5" r="4.2"/>
<rect x="-122" y="-115.6" class="st12" width="91.3" height="49"/>
<rect x="-30.9" y="-115.6" class="st13" width="91.3" height="49"/>
<rect x="-76.5" y="-81.2" class="st14" width="45.6" height="14.6"/>
<rect x="14.7" y="-81.2" class="st15" width="45.6" height="14.6"/>
<rect x="-122" y="-81.2" class="st16" width="45.6" height="14.6"/>
<rect x="-30.9" y="-81.2" class="st17" width="45.6" height="14.6"/>
</svg>
