<?xml version="1.0" encoding="utf-8"?>
<!-- Generator: Adobe Illustrator 23.0.3, SVG Export Plug-In . SVG Version: 6.00 Build 0)  -->
<svg version="1.1" id="a6f4e524-a1b8-434a-a0ca-43acb27f4769"
	 xmlns="http://www.w3.org/2000/svg" xmlns:xlink="http://www.w3.org/1999/xlink" x="0px" y="0px" viewBox="0 0 283.5 218.9"
	 style="enable-background:new 0 0 283.5 218.9;" xml:space="preserve">
<style type="text/css">
	.st0{opacity:0.1;fill:#EBAF41;enable-background:new    ;}
	.st1{fill:#EBAF41;}
	.st2{fill:#464353;}
	.st3{fill:#FFFFFF;}
	.st4{fill:#FFFFFF;stroke:#FFFFFF;stroke-miterlimit:10;}
	.st5{opacity:0.5;fill:#EBAF41;enable-background:new    ;}
	.st6{fill:#504F60;}
	.st7{opacity:0.1;enable-background:new    ;}
	.st8{fill:#3F3D56;}
	.st9{fill:none;stroke:#33313F;stroke-linecap:round;stroke-miterlimit:10;}
	.st10{fill:none;stroke:#33313F;stroke-width:0.75;stroke-linecap:round;stroke-miterlimit:10;}
	.st11{fill:#FFFFFF;stroke:#33313F;stroke-linecap:round;stroke-miterlimit:10;}
	.st12{fill:#FFFFFF;stroke:#33313F;stroke-miterlimit:10;}
	.st13{fill:#33313F;}
	.st14{fill:#65617D;}
	.st15{fill:url(#SVGID_1_);}
	.st16{fill:#DB8B8B;}
	.st17{fill:#2E3037;}
	.st18{fill:#35323E;}
</style>
<title>prototyping process</title>
<ellipse class="st0" cx="88.5" cy="209.7" rx="60.6" ry="9.2"/>
<path class="st0" d="M87.5,9.7c9.6-8.5,24.7-10.2,38.5-9.5c43.2,2.1,82.1,22.7,115.8,46c12.2,8.4,24.2,17.5,32.1,29.1
	c16.1,23.6,11.3,56.4-11.1,75.9c-7.6,6.6-16.9,11.7-26.4,16.2c-16.9,8-35.1,14.4-54.2,16.3c-13.7,1.3-27.5,0.2-41.1-1.6
	C103.2,177,66,165.7,34.8,146.5c-13.7-8.4-26.6-18.9-32.2-32.6s-2-31,11.9-39c5.8-3.3,12.7-4.9,19.5-6.3c10-2.1,20.1-4.1,29.1-8.4
	c9.3-4.4,20.3-12.9,18.4-22.6C79.5,27.3,77.9,18.1,87.5,9.7z"/>
<path class="st1" d="M235.1,22.6c1.7,11.4-3.1,21.5-3.1,21.5s-7.6-8.3-9.3-19.7C221.7,18,222.8,12,224,8c0.4-1.5,2-2.4,3.4-2
	c0.7,0.2,1.3,0.6,1.6,1.2C231.3,10.8,234.1,16.2,235.1,22.6z"/>
<path class="st1" d="M267.1,40.7c1.7,0,3.4,0.2,5.1,0.6c2.8,0.7,2.8,4.7,0.1,5.4c-1.6,0.5-3.3,0.7-5.1,0.8
	c-6.3,0.1-11.4-3.3-11.4-3.3S260.9,40.8,267.1,40.7z"/>
<path class="st1" d="M249.5,23.4c-5.8,6.4-7.1,14.8-7.1,14.8s8.2-2,14-8.4c2.7-3,4.4-6.4,5.5-9.1c0.6-1.4-0.2-3.1-1.6-3.6
	c-0.7-0.3-1.5-0.2-2.2,0.1C255.4,18.4,252.2,20.5,249.5,23.4z"/>
<path class="st2" d="M135.6,22.2h121.1c2.8,0,5.1,2.3,5.1,5.1v147.9c0,2.8-2.3,5.1-5.1,5.1H135.6c-2.8,0-5.1-2.3-5.1-5.1V27.3
	C130.6,24.5,132.8,22.2,135.6,22.2z"/>
<rect x="141.9" y="38.2" class="st0" width="108.6" height="126.1"/>
<circle class="st3" cx="196.2" cy="172.6" r="4.6"/>
<path class="st3" d="M196.2,33.6c-1.2,0-2.2-1-2.2-2.2s1-2.2,2.2-2.2s2.2,1,2.2,2.2l0,0C198.3,32.7,197.4,33.6,196.2,33.6z"/>
<path class="st3" d="M196.2,29.4c1.1,0,2.1,0.9,2.1,2.1c0,1.1-0.9,2.1-2.1,2.1c-1.1,0-2.1-0.9-2.1-2.1l0,0
	C194.1,30.3,195,29.4,196.2,29.4 M196.2,29.1c-1.3,0-2.3,1-2.3,2.3c0,1.3,1,2.3,2.3,2.3s2.3-1,2.3-2.3l0,0
	C198.5,30.2,197.4,29.2,196.2,29.1L196.2,29.1z"/>
<path class="st4" d="M148,77.2h20.3c0.6,0,1.1,0.5,1.1,1.1v28.4c0,0.6-0.5,1.1-1.1,1.1H148c-0.6,0-1.1-0.5-1.1-1.1V78.3
	C146.9,77.7,147.4,77.2,148,77.2z"/>
<path class="st5" d="M150.9,84.9h14.6c1,0,1.8,0.8,1.8,1.8v6.1c0,1-0.8,1.8-1.8,1.8h-14.6c-1,0-1.8-0.8-1.8-1.8v-6.1
	C149,85.8,149.8,84.9,150.9,84.9z"/>
<path class="st1" d="M153.3,98.6h9.8c0.2,0,0.4,0.2,0.4,0.4v0.6c0,0.2-0.2,0.4-0.4,0.4h-9.8c-0.2,0-0.4-0.2-0.4-0.4V99
	C152.9,98.8,153,98.6,153.3,98.6z"/>
<path class="st4" d="M186.1,77.2h20.3c0.6,0,1.1,0.5,1.1,1.1v28.4c0,0.6-0.5,1.1-1.1,1.1h-20.3c-0.6,0-1.1-0.5-1.1-1.1V78.3
	C185,77.7,185.5,77.2,186.1,77.2z"/>
<path class="st5" d="M191.3,82h10c0.2,0,0.4,0.2,0.4,0.4v5c0,0.2-0.2,0.4-0.4,0.4h-10c-0.2,0-0.4-0.2-0.4-0.4v-5
	C190.9,82.2,191.1,82,191.3,82z"/>
<path class="st1" d="M189.8,93.1h12.9c0.2,0,0.4,0.2,0.4,0.4v0.6c0,0.2-0.2,0.4-0.4,0.4h-12.9c-0.2,0-0.4-0.2-0.4-0.4v-0.6
	C189.3,93.3,189.5,93.1,189.8,93.1z"/>
<path class="st1" d="M189.8,95.9h12.9c0.2,0,0.4,0.2,0.4,0.4V97c0,0.2-0.2,0.4-0.4,0.4h-12.9c-0.2,0-0.4-0.2-0.4-0.4v-0.6
	C189.3,96.1,189.5,95.9,189.8,95.9z"/>
<path class="st4" d="M224,55.5h20.3c0.6,0,1.1,0.5,1.1,1.1V85c0,0.6-0.5,1.1-1.1,1.1H224c-0.6,0-1.1-0.5-1.1-1.1V56.6
	C222.9,56,223.4,55.5,224,55.5z"/>
<path class="st5" d="M227.2,60.2h13.9c0.2,0,0.4,0.2,0.4,0.4v6.1c0,0.2-0.2,0.4-0.4,0.4h-13.9c-0.2,0-0.4-0.2-0.4-0.4v-6.1
	C226.8,60.4,227,60.2,227.2,60.2z"/>
<path class="st5" d="M227.2,70.2h13.9c0.2,0,0.4,0.2,0.4,0.4v6.1c0,0.2-0.2,0.4-0.4,0.4h-13.9c-0.2,0-0.4-0.2-0.4-0.4v-6.1
	C226.8,70.3,227,70.2,227.2,70.2z"/>
<path class="st1" d="M226.6,82.5h2.9c0.5,0,1,0.4,1,1v0.2c0,0.5-0.4,1-1,1h-2.9c-0.5,0-1-0.4-1-1v-0.2
	C225.6,83,226.1,82.5,226.6,82.5z"/>
<path class="st1" d="M232.7,82.5h2.9c0.5,0,1,0.4,1,1v0.2c0,0.5-0.4,1-1,1h-2.9c-0.5,0-1-0.4-1-1v-0.2
	C231.7,83,232.2,82.5,232.7,82.5z"/>
<path class="st1" d="M238.8,82.5h2.9c0.5,0,1,0.4,1,1v0.2c0,0.5-0.4,1-1,1h-2.9c-0.5,0-1-0.4-1-1v-0.2
	C237.8,83,238.3,82.5,238.8,82.5z"/>
<path class="st4" d="M223.9,99h20.3c0.6,0,1.1,0.5,1.1,1.1v28.4c0,0.6-0.5,1.1-1.1,1.1h-20.3c-0.6,0-1.1-0.5-1.1-1.1v-28.4
	C222.8,99.5,223.3,99,223.9,99z"/>
<path class="st5" d="M224.9,102.5h6c0.2,0,0.4,0.2,0.4,0.4v6.1c0,0.2-0.2,0.4-0.4,0.4h-6c-0.2,0-0.4-0.2-0.4-0.4v-6.1
	C224.6,102.7,224.7,102.5,224.9,102.5z"/>
<path class="st1" d="M227.6,113.6h12.9c0.2,0,0.4,0.2,0.4,0.4v0.6c0,0.2-0.2,0.4-0.4,0.4h-12.9c-0.2,0-0.4-0.2-0.4-0.4V114
	C227.2,113.7,227.4,113.6,227.6,113.6z"/>
<path class="st1" d="M227.6,116.6h12.9c0.2,0,0.4,0.2,0.4,0.4v0.6c0,0.2-0.2,0.4-0.4,0.4h-12.9c-0.2,0-0.4-0.2-0.4-0.4V117
	C227.2,116.8,227.4,116.6,227.6,116.6z"/>
<path class="st1" d="M227.6,119.7h12.9c0.2,0,0.4,0.2,0.4,0.4v0.6c0,0.2-0.2,0.4-0.4,0.4h-12.9c-0.2,0-0.4-0.2-0.4-0.4v-0.6
	C227.2,119.8,227.4,119.7,227.6,119.7z"/>
<path class="st4" d="M182.4,91.8L182,92l-2.8,1.3l-0.3,0.1c-0.1,0-0.2,0-0.2-0.1l0,0c0,0,0,0,0-0.1v-0.8c0-0.1-0.1-0.1-0.1-0.1l0,0
	h-6.8c-0.1,0-0.1-0.1-0.1-0.1v-1.1c0-0.1,0.1-0.1,0.1-0.1h6.8c0.1,0,0.1-0.1,0.1-0.1V90c0,0,0,0,0-0.1s0.1-0.1,0.2-0.1l0,0l0.3,0.1
	l2.8,1.4l0.3,0.2C182.5,91.6,182.5,91.7,182.4,91.8L182.4,91.8z"/>
<path class="st4" d="M220.2,84.9l-0.2,0.3l-1.8,2.5l-0.2,0.2c0,0.1-0.1,0.1-0.2,0l0,0l0,0l-0.4-0.7c0-0.1-0.1-0.1-0.2-0.1l-6,3.2
	c-0.1,0-0.1,0-0.2-0.1l0,0l-0.5-1c0-0.1,0-0.1,0.1-0.2l0,0l6-3.2c0.1,0,0.1-0.1,0.1-0.2l0,0l-0.4-0.7l0,0c0-0.1,0-0.1,0.1-0.1l0,0
	h0.3l3.1-0.1h0.4C220.1,84.7,220.2,84.8,220.2,84.9L220.2,84.9z"/>
<path class="st4" d="M220.2,98h-0.4h-3.1h-0.3c-0.1,0-0.1-0.1-0.1-0.1l0,0l0,0l0.3-0.7c0-0.1,0-0.1-0.1-0.2l0,0l-6.1-2.9
	c-0.1,0-0.1-0.1-0.1-0.2l0.5-1c0-0.1,0.1-0.1,0.2-0.1l0,0l6.1,2.9c0.1,0,0.1,0,0.2-0.1l0.4-0.7c0-0.1,0.1-0.1,0.2-0.1c0,0,0,0,0.1,0
	l0.2,0.2l1.9,2.4l0.2,0.3C220.3,97.8,220.3,97.9,220.2,98L220.2,98z"/>
<polygon class="st6" points="108.3,154.9 108.3,155.6 107,201.6 104.8,201.6 105.8,155.6 105.9,154.7 "/>
<polygon class="st7" points="108.3,154.9 108.3,155.6 107,201.6 104.8,201.6 105.8,155.6 105.9,154.7 "/>
<polygon class="st6" points="121,193.8 119.3,193.8 95,193.7 93.7,193.7 94.3,191.6 120.8,191.6 "/>
<polygon class="st7" points="108.3,154.9 108.3,155.6 105.8,155.6 105.9,154.7 "/>
<rect x="105.1" y="153.7" class="st6" width="4.1" height="1.5"/>
<polygon class="st7" points="95.2,191.6 95,193.7 93.7,193.7 94.3,191.6 "/>
<polygon class="st6" points="98.7,153.7 98.6,154.4 93.2,207.7 90.7,207.6 96.4,154.4 96.5,153.8 "/>
<polygon class="st7" points="121,193.8 119.3,193.8 119.1,191.6 120.8,191.6 "/>
<polygon class="st6" points="123.6,207.6 121.1,207.7 115.7,154.4 115.6,153.7 117.8,153.8 117.9,154.4 "/>
<rect x="79.5" y="101.1" class="st3" width="54.6" height="52.4"/>
<path class="st3" d="M68.6,101.1h76.5c0.6,0,1.1,0.5,1.1,1.1v50.2c0,0.6-0.5,1.1-1.1,1.1H68.6c-0.6,0-1.1-0.5-1.1-1.1v-50.2
	C67.5,101.6,68,101.1,68.6,101.1z"/>
<path class="st6" d="M107.9,83.6v12.6h-2.1V83.6c0-0.6,0.5-1.1,1.1-1.1C107.4,82.6,107.9,83,107.9,83.6L107.9,83.6z"/>
<rect x="105.7" y="95.1" class="st7" width="2.1" height="1.2"/>
<path class="st6" d="M108.7,96v4.2h-3.8V96c0-0.3,0.2-0.5,0.5-0.5h2.8C108.4,95.5,108.7,95.7,108.7,96L108.7,96z"/>
<circle class="st7" cx="106.8" cy="98.1" r="0.8"/>
<circle class="st8" cx="106.8" cy="97.9" r="0.8"/>
<rect x="104.9" y="99.6" class="st7" width="3.8" height="0.5"/>
<rect x="103.3" y="100.3" class="st7" width="6.9" height="1.2"/>
<rect x="103.3" y="100" class="st6" width="6.9" height="1.2"/>
<path class="st7" d="M93.1,152.1h28.5c0.8,0,1.5,0.7,1.5,1.5l0,0l0,0H91.6l0,0l0,0C91.6,152.8,92.2,152.1,93.1,152.1z"/>
<polygon class="st7" points="96.5,153.8 98.7,153.7 98.6,154.4 96.4,154.4 "/>
<rect x="105.1" y="153.7" class="st7" width="4.1" height="0.6"/>
<polygon class="st7" points="117.9,154.4 115.7,154.4 115.6,153.7 117.8,153.8 "/>
<path class="st6" d="M93.1,152.5h28.5c0.8,0,1.5,0.7,1.5,1.5l0,0l0,0H91.6l0,0l0,0C91.6,153.2,92.2,152.5,93.1,152.5L93.1,152.5z"/>
<path class="st9" d="M132.2,107.3c0.2,0,0.4,0.1,0.4,0.3v0.1c-0.4,3.6-0.1,7.2,0.3,10.8c0.2,1.6,0.4,3.4,1.2,4.6
	c0.1,0.2,0.1,0.3-0.1,0.5c-0.2,0.2-0.5,0.2-0.7,0.2l-11.4,0.1c-0.2,0-0.4-0.2-0.4-0.4v-0.1c0.9-3.9,0.7-8.2,0.4-12.2
	c-0.2-2-0.3-3.1,1.2-3.2s3.1-0.2,4.6-0.3C128,107.6,131,107.5,132.2,107.3z"/>
<path class="st9" d="M123.5,130.7c-0.2,0-0.4,0.1-0.4,0.3v0.1c0.4,3.6,0.1,7.2-0.3,10.8c-0.2,1.6-0.4,3.4-1.2,4.6
	c-0.1,0.1-0.1,0.3,0.1,0.5s0.5,0.2,0.7,0.2l11.4,0.1c0.2,0,0.4-0.2,0.4-0.4v-0.1c-0.9-3.9-0.7-8.2-0.4-12.2c0.2-2,0.3-3.1-1.2-3.2
	s-3.1-0.2-4.6-0.3C127.6,131,124.7,130.9,123.5,130.7z"/>
<path class="st9" d="M126.8,137.3c1.3-0.1,2.7,0,4,0c0.2,0,0.3,0.2,0.3,0.3l0.1,1v0.1h-0.1c-0.6,0-1.1,0-1.7,0c-0.3,0-0.7,0.1-1,0.1
	c-0.6,0-1.1,0.1-1.7,0c-0.8,0-1.6-0.1-2.4-0.3v-0.9c0-0.4,0-0.4,0.4-0.4L126.8,137.3z"/>
<path class="st9" d="M126.8,142c1.3,0.1,2.7,0,4-0.1c0.2,0,0.3-0.2,0.3-0.3l0.1-1v-0.1h-0.1c-0.6,0-1.1,0.1-1.7,0
	c-0.3,0-0.7-0.1-1-0.1c-0.6-0.1-1.1-0.1-1.7,0c-0.8,0-1.6,0.1-2.4,0.3v0.9c0,0.4,0,0.4,0.4,0.4L126.8,142z"/>
<path class="st9" d="M126.8,143.8c1.3-0.1,2.7,0,4,0.1c0.2,0,0.3,0.2,0.3,0.3l0.1,1v0.1h-0.1c-0.6,0-1.1-0.1-1.7,0
	c-0.3,0-0.7,0.1-1,0.1c-0.6,0-1.1,0.1-1.7,0c-0.8,0-1.6-0.1-2.4-0.3v-0.9c0-0.4,0-0.4,0.4-0.4L126.8,143.8z"/>
<path class="st10" d="M128.5,122c0.1,0.3,0.2,0.6,0.1,0.9c0,0,0,0,0,0.1h-0.1l-2.4,0.1c0,0,0.1-0.7,0.2-0.8c0.1-0.3,0.3-0.2,0.6-0.2
	L128.5,122z"/>
<path class="st10" d="M132.2,122c0.1,0.3,0.2,0.6,0.1,0.9c0,0,0,0,0,0.1h-0.1l-2.4,0.1c0,0,0.1-0.7,0.2-0.8c0.1-0.3,0.3-0.2,0.6-0.2
	L132.2,122z"/>
<path class="st10" d="M130.7,109.8l0.3,2.8c0,0.4-0.3,0.8-0.7,0.8l0,0c-2.1,0.2-4.2,0.2-6.2,0c-0.4,0-0.7-0.3-0.7-0.7
	c0-0.5-0.1-1-0.2-1.5s-0.2-1,0.4-1.2s1.4,0,2.1-0.1c0.8,0,1.6,0,2.4-0.1C128.3,109.9,130.7,109.8,130.7,109.8z"/>
<path class="st10" d="M130.7,119.9l0.3-2.8c0-0.4-0.3-0.8-0.7-0.8l0,0c-2.1-0.2-4.2-0.2-6.2,0c-0.4,0-0.7,0.3-0.7,0.7
	c0,0.5-0.1,1-0.2,1.5s-0.2,1,0.4,1.2s1.4,0,2.1,0.1c0.8,0,1.6,0,2.4,0.1C128.3,119.8,130.7,120,130.7,119.9z"/>
<path class="st9" d="M127.4,132.6c-0.1,0.9-0.1,1.9-0.2,2.8c-0.9,0-1.9-0.1-2.8-0.3c-0.3,0-0.5-0.2-0.5-0.5v-0.1
	c0-0.6-0.3-1.9,0.5-2C124.7,132.5,127.4,132.6,127.4,132.6z"/>
<path class="st11" d="M82.3,119.8c0.4,0,0.8,0.3,0.9,0.7c0,0.1,0,0.1,0,0.2c-0.3,3.4-0.1,6.9,0.3,10.3c0.2,1.5,0.4,3.1,1,4.3
	c0.2,0.3,0,0.7-0.3,0.9c-0.1,0-0.2,0.1-0.3,0.1l0,0l-11.3,0.1c-0.2,0-0.5-0.2-0.5-0.4v-0.1c0.9-3.9,0.7-8.1,0.3-12.1
	c-0.2-2-0.3-3.1,1.2-3.2s3.1-0.2,4.6-0.3C78.7,120.1,81,120,82.3,119.8z"/>
<path class="st12" d="M98.1,119.8c-0.2,0-0.4,0.1-0.5,0.3v0.1c0.4,3.6,0.1,7.2-0.3,10.8c-0.2,1.6-0.4,3.3-1.2,4.6
	c-0.1,0.2-0.1,0.4,0.1,0.5s0.4,0.2,0.6,0.2l11.4,0.1c0.2,0,0.4-0.2,0.4-0.4v-0.1c-0.9-3.9-0.7-8.2-0.3-12.2c0.2-2,0.3-3.1-1.2-3.2
	s-3.1-0.2-4.6-0.3C102.2,120.1,99.3,120,98.1,119.8z"/>
<line class="st9" x1="75.6" y1="122.1" x2="81.4" y2="129.8"/>
<line class="st9" x1="81.4" y1="121.5" x2="75.8" y2="130.2"/>
<line class="st9" x1="101.4" y1="122.5" x2="104.5" y2="126.7"/>
<line class="st9" x1="104.5" y1="122.1" x2="101.5" y2="126.9"/>
<path class="st9" d="M77.5,132.3c1.3-0.1,2.7,0,4,0c0.2,0,0.3,0.2,0.3,0.3l0.1,1v0.1h-0.1c-0.6,0-1.1-0.1-1.7,0
	c-0.3,0-0.7,0.1-1,0.1c-0.6,0-1.1,0.1-1.7,0c-0.8,0-1.6-0.1-2.4-0.3v-0.9c0-0.4,0-0.4,0.4-0.4L77.5,132.3z"/>
<path class="st9" d="M101.8,128.4c1.3-0.1,2.7,0,4,0.1c0.2,0,0.3,0.2,0.3,0.3l0.1,1v0.1h-0.1c-0.6,0-1.1-0.1-1.7,0
	c-0.3,0-0.7,0.1-1,0.1c-0.6,0.1-1.1,0.1-1.7,0c-0.8,0-1.6-0.1-2.4-0.3v-0.9c0-0.4,0-0.4,0.4-0.4L101.8,128.4z"/>
<path class="st9" d="M103.8,131.3c-1.3-0.1-2.7,0-4,0c-0.2,0-0.3,0.2-0.3,0.3l-0.1,1v0.1h0.1c0.6,0,1.1,0,1.7,0c0.3,0,0.7,0.1,1,0.1
	c0.6,0,1.1,0.1,1.7,0c0.8,0,1.6-0.1,2.4-0.3v-0.9c0-0.4,0-0.4-0.4-0.4L103.8,131.3z"/>
<path class="st9" d="M87.3,129.4c0,0,3.8-0.2,4.4,0"/>
<path class="st9" d="M91.7,127.4c0,0,1.6,1.6,1.6,2s-2.1,1.7-2.1,1.7"/>
<path class="st9" d="M111.8,125.9c0,0,3.4-1.6,4.1-1.7"/>
<path class="st9" d="M115.2,122.4c0,0,2.1,0.9,2.3,1.3c0.1,0.4-1.3,2.4-1.3,2.4"/>
<path class="st9" d="M111.8,130c0,0,3.5,1.5,4,1.9"/>
<path class="st9" d="M116.7,130.1c0,0,0.8,2.2,0.6,2.5s-2.7,0.6-2.7,0.6"/>
<path class="st10" d="M125.2,122c0.1,0.3,0.2,0.6,0.1,0.9c0,0,0,0,0,0.1h-0.1l-2.4,0.1c0,0,0.1-0.7,0.2-0.8c0.1-0.3,0.3-0.2,0.6-0.2
	L125.2,122z"/>
<polygon class="st13" points="79.4,144 80.2,143.2 79.4,143.1 79,143.8 "/>
<polygon class="st14" points="73.2,149.6 74.1,148.4 74.3,148.2 77.1,145.3 78,144.3 78.5,144.2 79.1,143.6 79.5,143.9 78.9,144.7 
	78.9,145 77.9,146.1 75.2,149.1 75,149.2 73.9,150.3 "/>
<polygon class="st13" points="74.3,148.2 77.1,145.3 77.9,146.1 75.2,149.1 "/>
<linearGradient id="SVGID_1_" gradientUnits="userSpaceOnUse" x1="2098.1108" y1="1449.639" x2="2098.1108" y2="1311.0687" gradientTransform="matrix(1 0 0 1 -2036.77 -1231.6833)">
	<stop  offset="0" style="stop-color:#808080;stop-opacity:0.25"/>
	<stop  offset="0.54" style="stop-color:#808080;stop-opacity:0.12"/>
	<stop  offset="1" style="stop-color:#808080;stop-opacity:0.1"/>
</linearGradient>
<path class="st15" d="M78.5,149.3c-0.8-0.8-1.5-1.6-2.1-2.6c-1.2-1.9-3.3-2.9-4.7-3.5v-0.6h0.1V142l0,0l-0.1-1.5l0,0l0,0l-0.5-7.6
	c0,0-1.8-5.1,1.4-9.7c3.2-4.7,0.2-9.2-2.8-10.9c0,0-1.4-7.4-0.2-9.2c-1.6-0.9-3.3-1.8-5-2.5c0-0.1-0.1-0.2-0.1-0.3
	c0-0.7-0.1-1.4-0.1-2.1c0-0.4,0.1-0.7,0.2-1.1c0-0.1,0.1-0.3,0.1-0.4c2.9-1.1,4.9-3.9,4.9-7c0-0.9-0.2-1.8-0.5-2.6
	c0.2-0.3,0.3-0.6,0.4-0.9c0.2-0.8,0-1.6-0.5-2.4c-0.8-1.7-2.8-3.4-4.3-4c-2.1-0.8-5.2-0.6-7.4-0.4c-1.2,0.1-2.6,0.6-3,1.7
	c-0.2,0.4-0.2,0.9-0.3,1.3c-0.5,1.7-2.4,2.5-3.6,3.8c-1.1,1.1-1.5,2.7-1.9,4.2c-1,4.3-1.2,8.8-0.7,13.2c0.1,1,0.3,2,0.5,3
	c-0.7,1-1.4,2.8-1.1,6L44.8,124l-1,6.6c0,0-0.6,2.7,1.8,5.1c1.5,1.5,3.4,4,4.5,5.6c-0.5,1.4-0.7,3-0.7,4.5c0,0.7,0.1,1.4,0.1,2
	c0.1,1.4,0.4,2.7,0.8,4c0.3,2.7,0.8,6.2,1.9,8.4l0.4,11.9c0,0-0.6,10.9-1.8,13.1c-1.2,2.1,2.6,20.3,2.6,20.3v2.5l-0.6,1.9l-0.2-0.1
	c-3,3.7,0,5.1,0,5.1s0.8,0,2.1,0.1c-0.2,1.1,0.3,2.2,1.3,2.6c0,0,17,0.8,20,0s2.2-3.5,0.6-3.3c-0.6,0.1-1.5-0.1-2.4-0.3
	c0.9-1.1,0.2-2.6-1-2.4c-1.6,0.2-5.2-1.2-5.2-1.2l0,0c-0.1,0-0.2-0.1-0.4-0.1c-1.3-0.3-2.7-0.7-4-1.1c-0.8-1.6-2.6-6.1-1.3-9.5
	c0.6-1.5,0.8-3.6,0.8-5.6c0-6,0.9-12,2.6-17.8l2.4-8.2c0,0,3.4-9.9,3.6-12.7v-4c2.8,1.8,5,1.3,6.5,0.4c0.7-0.4,1-1.4,0.5-2.1
	C78.7,149.5,78.6,149.4,78.5,149.3z M51.8,128.6c0.1-0.3,0.1-0.6,0.2-0.9c0.5,0,0.9,0,1.4,0c0.6,1.2,0.8,2.5,0.7,3.8
	C53,131.2,51.4,130.4,51.8,128.6L51.8,128.6z"/>
<path class="st16" d="M53.7,207l-0.8,2.3l2.5,2.5l8.3,1.9l6-0.6l-0.4-2.1l0,0c-0.2-0.9-1-1.6-1.9-1.9c-2.5-0.6-7.1-1.9-8.1-3.7
	L53.7,207z"/>
<path class="st7" d="M53.7,207l-0.8,2.3l2.5,2.5l8.3,1.9l6-0.6l-0.4-2.1l0,0c-0.2-0.9-1-1.6-1.9-1.9c-2.5-0.6-7.1-1.9-8.1-3.7
	L53.7,207z"/>
<path class="st17" d="M67.8,212.5l-1.2-1.5l1.2-1.8c0,0,3.5,1.4,5,1.2s2.3,2.5-0.6,3.3s-19.2,0-19.2,0s-2.9-1.3,0-5l2.5,1.9
	c0,0,4.2,2.3,6.3,1.9L67.8,212.5L67.8,212.5z"/>
<path class="st16" d="M73,215.8l-6,0.6l-8.3-1.9l-2.5-2.5l0.2-0.6l0.3-0.9l0.3-0.8l5.6-1.5c0.3,0.5,0.7,0.8,1.1,1.1
	c1.8,1.2,5.1,2.1,7,2.6c0.1,0,0.2,0,0.2,0.1c0.8,0.3,1.4,0.9,1.7,1.8L73,215.8z"/>
<path class="st7" d="M73,215.8l-6,0.6l-8.3-1.9l-2.5-2.5l0.2-0.6l2.3,1.8c0,0,4.2,2.3,6.3,1.9h6l-1.2-1.5l1-1.6
	c0.8,0.3,1.4,0.9,1.7,1.8L73,215.8z"/>
<path class="st17" d="M71,215.2l-1.2-1.5l1.2-1.8c0,0,3.5,1.4,5,1.2s2.3,2.5-0.6,3.3s-19.2,0-19.2,0s-2.9-1.3,0-5l2.5,1.9
	c0,0,4.2,2.3,6.3,1.9L71,215.2z"/>
<path class="st16" d="M66.2,103.7c0,0-9.2,1-7.9-2.9c0.4-1.1,0.5-2.3,0.3-3.4c-0.2-1.4-0.8-2.7-1.6-3.9l8.7,1.3
	c-0.5,0.9-0.9,1.8-1.2,2.8C63.4,101.7,66.2,103.7,66.2,103.7z"/>
<path class="st18" d="M50.5,147.6c0,0,0.2,8.3,2.1,12.3l0.4,11.7c0,0-0.6,10.8-1.7,12.9c-1.2,2.1,2.5,20,2.5,20v3.1
	c0,0,6.2,2.3,7.9-0.4L60,184.3l0.8-31.7L50.5,147.6z"/>
<path class="st7" d="M50.5,147.6c0,0,0.2,8.3,2.1,12.3l0.4,11.7c0,0-0.6,10.8-1.7,12.9c-1.2,2.1,2.5,20,2.5,20v3.1
	c0,0,6.2,2.3,7.9-0.4L60,184.3l0.8-31.7L50.5,147.6z"/>
<path class="st1" d="M46.6,121l-1.2,3.1l-1,6.5c-0.3,1.8,0.4,3.7,1.7,5c2.3,2.3,5.4,7.1,5.4,7.1l3.7-11c0,0-3.7-0.6-3.1-3.1
	c0.6-2.5,0.4-7.1,0.4-7.1L46.6,121z"/>
<path class="st7" d="M63.7,209.3c-2.5,3.9-6.3,1.7-7,1.2l0.3-0.8l5.6-1.5C62.9,208.6,63.2,209,63.7,209.3z"/>
<path class="st18" d="M71.4,155.1c-0.2,2.7-3.5,12.5-3.5,12.5l-2.3,8.1c-1.7,5.7-2.5,11.6-2.5,17.5c0,2-0.2,4-0.7,5.5
	c-1.5,4.2,1.5,10,1.5,10c-2.7,4.8-7.3,1.5-7.3,1.5v-3.1c0,0-3.6-16.7-2.7-20c1-3.3,1.3-12.1,1.3-12.1v-16c-3.1-3.1-5-7.1-5.3-11.5
	c0-0.6-0.1-1.3-0.1-2c-0.2-4.3,2.8-9.4,4-11.2c0.3-0.4,0.5-0.7,0.5-0.7l17,6.7l0,0v0.7v1.5L71.4,155.1z"/>
<path class="st7" d="M65.6,94.9c-0.5,0.9-0.9,1.8-1.2,2.8c-1.9,0.7-4,0.6-5.9-0.2c-0.2-1.4-0.8-2.7-1.6-3.9L65.6,94.9z"/>
<circle class="st16" cx="61.8" cy="90.3" r="7.5"/>
<path class="st7" d="M71.4,142.6L71.4,142.6c-8.1,1.7-18.3-6.7-18.3-6.7c0.3-0.5,0.5-0.9,0.7-1.4c0.3-0.4,0.5-0.7,0.5-0.7l17,6.7
	v0.7L71.4,142.6z"/>
<path class="st1" d="M69.3,103.5c0,0-10.8-6.5-14.2-3.8l-4.8,6.2c0,0-3.1,1-2.5,7.1l-2.3,11.2l6.9,1.7c0,0,4,3.8,0.8,9.4
	c0,0,10.2,8.5,18.3,6.7l-0.6-9c0,0-1.7-5,1.3-9.6c3.1-4.6,0.2-9-2.7-10.8C69.5,112.6,68.1,105.3,69.3,103.5z"/>
<path class="st16" d="M69.9,142.8c0,0,4,0.8,6,3.8c0.6,0.9,1.2,1.8,2,2.5c0.6,0.6,0.7,1.5,0.1,2.2c-0.1,0.1-0.2,0.2-0.3,0.3
	c-1.5,0.9-4,1.5-7.1-1.1C65.1,146,69.9,142.8,69.9,142.8z"/>
<path class="st7" d="M63.9,107.2c0,0-3.8-0.4-4.8,9.6s-2.5,12.3-2.5,12.3s-1,5.2,1.3,8.3s6.7,9.6,6.7,9.6s4.8,1.3,5.8-3.5l-6-11.1
	c0,0-1-3.8,1.3-6.5C68.1,123.2,69.9,105.3,63.9,107.2z"/>
<path class="st1" d="M64.3,106.6c0,0-3.8-0.4-4.8,9.6S57,128.5,57,128.5s-1,5.2,1.3,8.3s6.7,9.6,6.7,9.6s4.8,1.3,5.8-3.5l-6-11.2
	c0,0-1-3.8,1.3-6.5S70.3,104.7,64.3,106.6z"/>
<path class="st7" d="M67.5,113.8c0,0,0.4,6-1.3,9.2c-1.7,3.3-1.7,7.5,0,9.8"/>
<path class="st7" d="M68.4,106.5c0,0-1.5-1.5-6-1.7c-4.4-0.2-6.3-1.5-6.3-1.5"/>
<path class="st7" d="M57.8,80.6c-1.2,0.1-2.5,0.5-2.9,1.6c-0.2,0.4-0.2,0.8-0.3,1.3c-0.4,1.7-2.3,2.5-3.5,3.7
	c-1,1.1-1.5,2.7-1.8,4.2c-1,4.3-1.2,8.7-0.7,13.1c0.4,3.2,1.1,6.3,1.4,9.5c0.2,3.2-0.2,6.6-1.9,9.3c-0.8,1.2-1.7,2.2-2.3,3.4
	c1.1,0.9,2.6,1,4,1.1c1.7,0.1,3.3,0.1,5,0c0.9,0,1.8-0.1,2.5-0.5c0.6-0.4,1-0.8,1.3-1.4c0.9-1.6,1.2-3.5,1.1-5.4
	c0-1.9-0.3-3.7-0.4-5.6c0-1,0.1-2.1,0.6-2.9c0.4-0.6,1.1-1,1.6-1.5c2.1-1.8,2.8-4.7,2.8-7.5c0.1-2.7-0.4-5.5-0.2-8.2
	c0.1-1.1,0.5-2.4,1.5-2.6c0.3-0.1,0.7,0,1-0.1c0.8-0.3,0.8-1.5,1-2.4c0.3-1,1.1-1.7,1.3-2.7c0.6-2.3-2.4-5.1-4.3-5.9
	C62.8,80.1,59.8,80.3,57.8,80.6z"/>
<path class="st18" d="M57.5,80.2c-1.2,0.1-2.5,0.5-2.9,1.6c-0.1,0.4-0.2,0.8-0.3,1.3c-0.4,1.7-2.3,2.5-3.5,3.7
	c-1,1.1-1.5,2.7-1.8,4.2c-1,4.3-1.2,8.7-0.7,13.1c0.4,3.2,1.1,6.3,1.4,9.5c0.2,3.2-0.2,6.6-1.9,9.3c-0.8,1.2-1.7,2.2-2.3,3.4
	c1.1,0.9,2.6,1,4,1.1c1.7,0.1,3.3,0.1,5,0c0.9,0,1.8-0.1,2.5-0.5c0.6-0.4,1-0.8,1.3-1.4c0.9-1.6,1.2-3.5,1.1-5.4s-0.3-3.7-0.4-5.6
	c0-1,0.1-2.1,0.6-2.9c0.4-0.6,1.1-1,1.6-1.5c2.1-1.8,2.8-4.8,2.8-7.5s-0.4-5.5-0.2-8.2c0.1-1.1,0.5-2.4,1.5-2.6c0.3-0.1,0.7,0,1-0.1
	c0.8-0.3,0.8-1.5,1-2.4c0.3-1,1.1-1.7,1.3-2.7c0.6-2.3-2.4-5.1-4.3-5.9C62.6,79.7,59.6,79.9,57.5,80.2z"/>
</svg>
