<?xml version="1.0" encoding="utf-8"?>
<!-- Generator: Adobe Illustrator 23.0.3, SVG Export Plug-In . SVG Version: 6.00 Build 0)  -->
<svg version="1.1" id="ebf8a77a-edff-4dc3-b5b4-de0e5991af45"
	 xmlns="http://www.w3.org/2000/svg" xmlns:xlink="http://www.w3.org/1999/xlink" x="0px" y="0px" viewBox="0 0 425.2 322.4"
	 style="enable-background:new 0 0 425.2 322.4;" xml:space="preserve">
<style type="text/css">
	.st0{opacity:0.1;fill:#31B096;enable-background:new    ;}
	.st1{fill:#57B894;}
	.st2{fill:#F2F2F2;}
	.st3{fill:#31B096;}
	.st4{opacity:0.3;fill:#31B096;enable-background:new    ;}
	.st5{fill:#E6E6E6;}
	.st6{fill:#3F3D56;}
	.st7{fill:#FBBEBE;}
	.st8{opacity:0.1;enable-background:new    ;}
	.st9{fill:#2F2E41;}
</style>
<title>setup analytics</title>
<path class="st0" d="M211.9,77.2c-22.8,7.3-46.5,8.3-69.6,8.4c-23.1,0-46.1-0.7-69.5,3.2c-15,2.6-31.3,8-40.2,18.9
	c-8.6,10.5-8,23.2-6.1,34.6c1.4,8.5,3.6,17.3,10.2,23.4c4.6,4.3,11,6.9,16.1,10.7c17.9,13.2,17.2,37.5,10.7,59
	c-3.1,10-7.2,20.1-8.8,30.2c-1.6,10.1-0.2,20.5,6.9,27.8c7,7.2,18.8,10.2,30.6,11c24,1.8,49.5-4.3,73.8-11.4
	c53.9-15.6,106.5-35.9,159-56.3c19.4-7.5,38.9-15.1,57.2-24.7c10.2-5.4,20.3-11.7,26-20.4c7.2-11,5.1-24.5-4.8-31.5
	c-16.7-11.7-48.8-4.7-62.5-18.8c-7.6-7.8-6.8-19.7-3.8-30.4c6.7-23.3,23.2-47.4,16.8-68.8c-4.4-14.8-20.2-25.4-39.3-26.4
	c-20.1-0.9-43.8,8.5-52.4,25C253.5,57.7,232.1,70.8,211.9,77.2z"/>
<path class="st1" d="M349,184.8c-0.1,4.6-0.3,9.8-0.7,15.3l13.3-16.6l0.1,0.3c-1.1-3.7-2.7-7.3-4.8-10.6l0.1,0.2L349,184.8z"/>
<path class="st1" d="M349,184l7.7-11.1c-2.2-3.3-4.9-5.9-7.9-7.5c-0.2-0.1-0.3-0.2-0.5-0.2C348.5,166.4,349.1,173.8,349,184z"/>
<path class="st1" d="M363.2,216.2c0.3-1.9,0.6-3.9,0.8-5.8l-20.1,15.8l0-0.1c-0.3,1.1-0.6,2.3-0.9,3.4l20.2-13.5L363.2,216.2z"/>
<path class="st1" d="M346.2,215.6l18-16.7l0.1,0.3c-0.2-5.1-1.1-10.3-2.5-15.2l-13.6,16.9C347.7,206.1,347.1,210.9,346.2,215.6z"/>
<path class="st1" d="M347.8,200.7l-24-23.9l0.1-0.3c-1.9,3.1-3.6,6.4-4.9,9.9l27.4,25.9C347.1,208.2,347.5,204.3,347.8,200.7z"/>
<path class="st1" d="M345.8,215.9c0.2-1,0.4-2,0.5-3l-27.5-26l0.1-0.3c-0.5,1.2-0.9,2.5-1.3,3.8l0.1-0.3L345.8,215.9z"/>
<path class="st1" d="M344.1,225.4l19.9-15.6l0.1,0.3c0.3-3.5,0.4-7,0.2-10.5l-18.2,16.9C345.5,219.5,344.8,222.5,344.1,225.4z"/>
<path class="st1" d="M315.8,214.8l22.5,26.1c1.5-3.4,2.8-6.9,4-10.5l-27.1-25.4c-0.1,3.4,0.1,6.7,0.5,10.1L315.8,214.8z"/>
<path class="st1" d="M348,165.2l0.2-0.1c-4.7-2.2-9.7-1.6-14.3,1.1l14.8,17.8C348.8,172.9,348,165.3,348,165.2z"/>
<path class="st1" d="M342.4,231.3c-1,3.2-2.2,6.4-3.6,9.5l20.4-12.1l0,0.3c1.4-2.8,2.5-5.7,3.2-8.8c0.3-1.2,0.5-2.4,0.7-3.6
	l-20.5,13.7C342.6,230.6,342.5,231,342.4,231.3z"/>
<path class="st1" d="M348.6,184.8l-15.1-18.2l0.1-0.3c-3.5,2.1-6.7,5.5-9.6,9.9l23.8,23.7C348.4,194.5,348.6,189.4,348.6,184.8z"/>
<path class="st1" d="M342.4,229.8c1.3-4.3,2.4-8.8,3.2-13.2l-28.1-25.9c-0.5,1.7-1,3.6-1.4,5.4c-0.6,2.7-0.9,5.4-1,8.2L342.4,229.8
	L342.4,229.8z"/>
<path class="st1" d="M371.3,257.8c-3,3.5-6.5,7.4-10.3,11.3l20.8-4.3l-0.1,0.3c1.6-3.6,2.6-7.4,3.1-11.2l-0.1,0.3L371.3,257.8z"/>
<path class="st1" d="M383.6,242.7c-0.1-0.2-0.1-0.3-0.2-0.5c-0.7,1-4.9,7.1-11.5,14.9l13-3.6C385.3,249.6,384.9,245.9,383.6,242.7z"
	/>
<path class="st1" d="M341.1,286.3c-1,0.7-1.9,1.3-2.9,2l24.2,2.5l-0.2,0.3c1.5-1.3,2.9-2.6,4.3-4l-25.5-0.7L341.1,286.3z"/>
<path class="st1" d="M349.6,279.7l24.5-1.4l-0.1,0.3c3.1-4.1,5.7-8.6,7.8-13.3l-21.2,4.4C356.8,273.3,353.2,276.7,349.6,279.7z"/>
<path class="st1" d="M341.7,285.9l25.3,0.7l-0.1,0.3c2.5-2.5,4.8-5.1,6.9-7.9l-24.8,1.4C346.5,282.3,344.1,284.2,341.7,285.9z"/>
<path class="st1" d="M311.5,300.2c0.2-0.2,0.3-0.4,0.5-0.6c5.1-1.1,10-2.8,14.7-5.1l-0.4-18.2c0.2-0.5,0.3-1,0.5-1.4l0.4,19.3
	c3.4-1.7,6.6-3.5,9.8-5.6l-4.3-33.6c0.2-0.1,0.4-0.2,0.5-0.3l4.3,33.6l0,0c3.8-2.5,7.4-5.2,10.9-8.1l-4.5-33.1
	c0.2-0.1,0.3-0.3,0.5-0.4l4.5,33.1c0.8-0.6,1.5-1.3,2.3-1.9l-4-33.5c0.2-0.2,0.3-0.3,0.5-0.5l4,33.5c3.1-2.7,5.9-5.4,8.5-8
	l-3.3-33.7l0.3-0.2c-0.9,0.3-1.9,0.6-2.8,1c1.7-2.2,3.2-4.5,4.5-6.9l-20.6,12.2c-1.3,2.9-2.8,5.7-4.5,8.3c-0.4,0.4-0.7,0.8-1.1,1.2
	l0.1,0.4c-0.2,0.2-0.3,0.5-0.5,0.7l-0.1-0.5c-0.2,0.2-0.4,0.5-0.6,0.7c2.4-3.5,4.5-7.2,6.3-11l-22.3-25.9c0.3,2.4,0.7,4.8,1.1,7.2
	c-2.1-3-4.6-5.7-7.5-8.1l0.2,0.2l-4,13.4c1.4,4.4,2.8,9.4,4,14.7l7.4-19.6c0.1,0.3,0.1,0.6,0.2,0.9l-7.4,19.6c1.1,5,2,9.9,2.7,14.5
	l9.3-16.6c0.1,0.2,0.1,0.5,0.2,0.7l-9.4,16.8c0.4,3.1,0.7,6.2,0.9,9.1l11.5-17.2c0.1,0.2,0.2,0.4,0.2,0.6l-11.7,17.4l-0.1-0.1
	c0.1,1.2,0.1,2.3,0.1,3.5l13.2-16.7c0.1,0.2,0.2,0.4,0.2,0.6l-13.4,17c0,0.4,0,0.7,0,1.1c0,3.4-0.1,6.8-0.5,10.1l1.3-1.5
	c-0.2,0.5-0.4,1.1-0.7,1.6l-0.7,0.8c-0.1,0.5-0.1,1-0.2,1.5c-0.2,0.6-0.5,1.3-0.7,1.9c0.2-1.1,0.3-2.3,0.5-3.5l-29.3-17.7
	c8.4,18.4,23.3,35.4,24.2,36.5c0.6-1.4,1.2-2.8,1.7-4.2c0.2,0,0.3-0.1,0.5-0.1c-0.1,0.2-0.1,0.3-0.2,0.5c-0.1,0-0.2,0-0.3,0
	c0.1,0,0.2,0,0.2,0.1c-0.4,1-0.8,2-1.2,3c0.6-0.6,1.5-1.5,2.5-2.7c6.7,1.3,24.8,3.9,39.7-2.3l-23.7-3.7
	C322,297.2,316.9,299,311.5,300.2z M326.2,269.6l0.5-0.6l0,0.9l-0.5,0.6L326.2,269.6z"/>
<path class="st1" d="M383.1,242l0.2,0c-2.2-4.7-6.4-7.4-11.7-8.2l0,23.2C378.7,248.5,383,242.1,383.1,242z"/>
<path class="st1" d="M336.6,289.4c-2.8,1.8-5.8,3.5-8.8,5l23.5,3.7l-0.2,0.3c2.9-1.2,5.6-2.8,8-4.7c1-0.8,1.9-1.5,2.8-2.3l-24.5-2.5
	C337.2,289,336.9,289.2,336.6,289.4z"/>
<path class="st1" d="M360.9,268.7c3.8-3.9,7.2-7.7,10.2-11.1l0-23.7l0.3-0.1c-4-0.6-8.7,0-13.7,1.5L360.9,268.7z"/>
<path class="st1" d="M309.1,214.5c-3.1-2.5-6.5-4.1-9.9-4.7c-0.2,0-0.4-0.1-0.5-0.1c0.5,1.2,3.4,7.9,6.5,17.7L309.1,214.5z"/>
<path class="st1" d="M309.2,243.7L279,228.4l0-0.3c-0.9,3.6-1.4,7.2-1.6,10.9l34,16.2C310.8,251.1,310,247.2,309.2,243.7z"/>
<path class="st1" d="M311.6,255.9l-34.2-16.3l0-0.3c-0.1,1.3-0.1,2.6-0.1,4l0-0.3l34.6,15.9C311.8,257.8,311.7,256.8,311.6,255.9z"
	/>
<path class="st1" d="M313.1,273.7L279.5,258c1,3.2,2.2,6.4,3.6,9.4l0-0.3l29.5,17.9C313,281.2,313.1,277.5,313.1,273.7z"/>
<path class="st1" d="M298.4,209.9l0.1-0.1c-5.2-0.6-9.7,1.4-13.2,5.5l19.6,12.4C301.5,217,298.4,210,298.4,209.9z"/>
<path class="st1" d="M305.1,228.4l-20-12.7l0-0.3c-2.6,3.1-4.7,7.3-6,12.4l30,15.2C307.8,237.7,306.5,232.8,305.1,228.4z"/>
<path class="st1" d="M313.1,273.1c-0.1-4.5-0.4-9.1-1-13.6l-34.7-15.9c0,1.8,0.1,3.7,0.3,5.6c0.3,2.7,0.8,5.5,1.6,8.1L313.1,273.1
	L313.1,273.1z"/>
<path class="st2" d="M284.8,192.6L184,179.9c-4.6-38,2.3-75.1,14.1-112l100.8,12.7C283.7,116.8,279.2,154.1,284.8,192.6z"/>
<rect x="239.2" y="57.4" transform="matrix(0.1251 -0.9921 0.9921 0.1251 124.4526 318.066)" class="st3" width="6.7" height="62.1"/>
<rect x="237.8" y="60.6" transform="matrix(0.1251 -0.9921 0.9921 0.1251 107.6402 327.4491)" class="st4" width="3.3" height="84.2"/>
<rect x="236.5" y="71.3" transform="matrix(0.1251 -0.9921 0.9921 0.1251 95.852 335.4674)" class="st4" width="3.3" height="84.2"/>
<rect x="235.1" y="82" transform="matrix(0.1251 -0.9921 0.9921 0.1251 84.0638 343.4857)" class="st4" width="3.3" height="84.2"/>
<rect x="233.8" y="92.7" transform="matrix(0.1251 -0.9921 0.9921 0.1251 72.2757 351.5039)" class="st4" width="3.3" height="84.2"/>
<rect x="232.4" y="103.4" transform="matrix(0.1251 -0.9921 0.9921 0.1251 60.4875 359.5222)" class="st4" width="3.3" height="84.2"/>
<rect x="231.1" y="114.1" transform="matrix(0.1251 -0.9921 0.9921 0.1251 48.6993 367.5404)" class="st4" width="3.3" height="84.2"/>
<rect x="229.7" y="124.8" transform="matrix(0.1251 -0.9921 0.9921 0.1251 36.9112 375.5587)" class="st4" width="3.3" height="84.2"/>
<path class="st5" d="M237,155.1l-94.3-37.8c5.2-37.9,21.3-72.1,42-104.8l94.3,37.8C255.2,81.5,241.4,116.5,237,155.1z"/>
<rect x="219.2" y="12.7" transform="matrix(0.372 -0.9282 0.9282 0.372 99.1576 234.0268)" class="st3" width="6.7" height="62.1"/>
<rect x="214.3" y="14.6" transform="matrix(0.372 -0.9282 0.9282 0.372 82.9742 236.0656)" class="st4" width="3.3" height="84.2"/>
<rect x="210.3" y="24.6" transform="matrix(0.372 -0.9282 0.9282 0.372 71.1706 238.6256)" class="st4" width="3.3" height="84.2"/>
<rect x="206.3" y="34.6" transform="matrix(0.372 -0.9282 0.9282 0.372 59.3671 241.1857)" class="st4" width="3.3" height="84.2"/>
<rect x="202.3" y="44.6" transform="matrix(0.372 -0.9282 0.9282 0.372 47.5635 243.7458)" class="st4" width="3.3" height="84.2"/>
<rect x="198.3" y="54.6" transform="matrix(0.372 -0.9282 0.9282 0.372 35.7599 246.3059)" class="st4" width="3.3" height="84.2"/>
<rect x="194.2" y="64.6" transform="matrix(0.372 -0.9282 0.9282 0.372 23.9564 248.866)" class="st4" width="3.3" height="84.2"/>
<rect x="190.2" y="74.6" transform="matrix(0.372 -0.9282 0.9282 0.372 12.1528 251.4261)" class="st4" width="3.3" height="84.2"/>
<path class="st2" d="M213.7,164.3H112.1c-9.3-37.1-7.1-74.8,0-112.9h101.6C203.2,89.2,203.4,126.8,213.7,164.3z"/>
<rect x="127.8" y="62.9" class="st3" width="62.1" height="6.7"/>
<rect x="115.4" y="79.1" class="st4" width="84.2" height="3.3"/>
<rect x="115.4" y="89.8" class="st4" width="84.2" height="3.3"/>
<rect x="115.4" y="100.6" class="st4" width="84.2" height="3.3"/>
<rect x="115.4" y="111.4" class="st4" width="84.2" height="3.3"/>
<rect x="115.4" y="122.2" class="st4" width="84.2" height="3.3"/>
<rect x="115.4" y="132.9" class="st4" width="84.2" height="3.3"/>
<rect x="115.4" y="143.7" class="st4" width="84.2" height="3.3"/>
<path class="st6" d="M145.2,141.7l-35-27.2c-0.7-1.2-2-2-3.5-2H87.9c-2.2,0-4,1.8-4,4l0,0v166.8c0,7.2,5.8,13,13,13h194
	c7.2,0,13-5.8,13-13V153.5c0-6.5-5.3-11.8-11.8-11.8H145.2z"/>
<rect x="262" y="180.4" class="st3" width="35.2" height="12.3"/>
<path class="st2" d="M22,321.6c0,0,160.9-92,355.2,0"/>
<path class="st7" d="M56.4,110.4c0,0,1.7,9.2,0.5,9.8c-1,0.6-1.9,1.3-2.8,2.1l3.1,4.3l7.4,1.6l7.1-6.6V115c0,0-2.1-3.3-1.7-5.4
	C70.4,107.6,56.4,110.4,56.4,110.4z"/>
<path class="st8" d="M56.4,110.4c0,0,1.7,9.2,0.5,9.8c-1,0.6-1.9,1.3-2.8,2.1l3.1,4.3l7.4,1.6l7.1-6.6V115c0,0-2.1-3.3-1.7-5.4
	C70.4,107.6,56.4,110.4,56.4,110.4z"/>
<path class="st9" d="M44.5,126.1l-1,0.5c0,0-2.2,0.9-3.3,8.3c-1,7.4-3.5,25.2-2.8,25.7s0.3,4,0.3,4l5.2-27.1L44.5,126.1z"/>
<path class="st9" d="M56.8,83.9c-0.2,0.3-0.2,0.7-0.4,1.1c-0.7,1.5-2.6,1.2-4,1.8c-1.2,0.5-2,1.8-2.1,3.3c0,0.6,0.1,1.2,0,1.8
	c-0.1,1.1-0.7,2.1-0.9,3.2c-0.5,2.7,0.7,7,2,5.5c0.4-0.5,0.9-0.8,1.4-1.2c1.2-1.1,1.8-2.8,2.7-4.1c0.1-0.2,0.3-0.4,0.5-0.5
	c0.7-0.3,1.3,0.6,1.9,1.2c1.1,1.2,3,1.3,4.1,0.2c0.1-0.1,0.2-0.2,0.3-0.3c0.2-0.2,0.4-0.5,0.6-0.6c0.3-0.1,0.6-0.2,0.9-0.1
	c1.4,0.2,2.6,1,3.5,2.1c0.5,0.6,0.8,1.2,1.4,1.7c0.6,0.4,1.4,0.6,1.9,0.1c1,0.7,1.4,2.2,1.4,3.6c0,1.4-0.3,2.7-0.2,4.1
	s0.6,2.8,1.7,3.3c0.2-1.2,0.8-2.4,1.8-3.2c0.7-0.6,1.6-0.8,2.3-1.5c1.3-1.4,0.9-3.8,0.9-5.9c0.1-2.5,0.9-5,1.1-7.5
	c0.1-1.3-0.1-2.6-0.7-3.6c-0.5-0.7-1.1-1.2-1.9-1.6L71,82.9c-0.3-0.2-0.6-0.3-0.9-0.4c-0.9-0.2-1.6,0.7-2.5,1
	c-0.7,0.2-1.4,0.3-2.2,0.3c-2.3-0.1-2.9,0.4-4.5-1.1c-0.2-0.2-0.6-0.4-0.9-0.3C59.1,82.5,57.3,82.9,56.8,83.9z"/>
<polygon class="st7" points="60.1,292.6 63.7,300.5 56.6,302.9 53,301 53.9,292.6 "/>
<path class="st9" d="M56.8,299.3c0,0-5.7-3.5-6.7-2.2c-1,1.2-9.3,10-9.3,10s-12.8,6.9-2.9,7.9s25.9-6,25.9-6s0.9-9.3,0.2-9.5
	s-3.6,1.6-5,1C58.1,300.3,57.4,299.8,56.8,299.3z"/>
<polygon class="st7" points="69.4,301 69.4,308.1 60.1,306 62.1,298.8 "/>
<path class="st9" d="M59.9,303.5c0,0,9.5-1.6,10.4,3.1s3.1,11.6,0.9,13.3c-2.2,1.7-13.8,4-14,1c-0.2-2.9,1.2-8.6,1.2-8.6
	s0.9-4.5,0.3-5.7C58.2,305.3,59.9,303.5,59.9,303.5z"/>
<path class="st9" d="M40.9,186.8c0,0-7.8,49.4-1.4,73.6c6.4,24.2,10.9,38.5,10.9,38.5s11.1-3.1,11.1-5.2c0-2.1-4.3-32.8-5.4-35.7
	c-1-2.9-2.8-4-1.2-6.4c1.6-2.4,4.1-18,4.1-18s5.7,25.7,6,26.4c0.3,0.7-3.6,40.2-3.6,40.2s11.4,8.3,12.1,2.1
	c0.2-1.6,7.8-56.6,7.8-57.3s3.1-53.5-1.9-56.1S40.9,186.8,40.9,186.8z"/>
<circle class="st7" cx="63.2" cy="102.1" r="11.7"/>
<path class="st3" d="M60.6,125.4v-1.2l-3.5-5.7c0,0-3.5,0.3-4,1.9c-0.5,1.6-6.4,14-6.4,14l-6.2,55.8c0,0,17.1,4.1,19.7,1.2
	c2.6-2.9,12.4-66.8,12.4-66.8l1.4-7.8c0,0-2.4-3.5-2.9-2.9c-0.5,0.5-9.5,10.5-9.5,10.5l-0.2,1.6L60.6,125.4z"/>
<path class="st9" d="M57,117.4c0,0-3.2-0.8-4.2,1.1c-1,1.9-1,2.6-2.1,3.3c-1,0.7-7.1,3.8-7.4,5c-0.3,1.2-7.8,39.4-7.8,39.4
	s-3.6,11.4-1.9,19.2c1.7,7.8,0.5,9.3,4.1,10s4.1,0.7,4.1-0.3s4.7-36.1,7.9-38.5c3.3-2.4,2.4-28.8,2.4-28.8s4.7-5.7,4.7-6.6
	S57.7,117.3,57,117.4z"/>
<path class="st9" d="M66.8,123.7c0.5,0.1,7.1-8.5,7.6-8.1c0.5,0.3,3.1,4.8,3.5,4.8s15,3.6,16.2,10.4c1.2,6.7-8.5,28.1-8.5,28.1
	s-4.1,12.3-3.3,17.6c0.6,4.1,0.5,8.2-0.3,12.3c-0.3,1.4-1.6,2.9-1.2,3.6c0.3,0.7-7.6-0.9-10.9,1c-3.3,1.9-18,3.3-17.1,1.2
	c0.9-2.1,1.4-10.2,3.8-18.8c2.4-8.6,8.6-29,7.6-30.4C63.2,144.1,65.8,123.5,66.8,123.7z"/>
<path class="st9" d="M92,128.7l2.2,2.1c0,0,2.6,4.5,2.2,6.6c-0.3,2.1,7.3,33.3,4.1,34.4c-3.1,1-10.5,6.2-11.4,7.6
	c-0.9,1.4-2.9,3.8-4.3,4.5c-1.4,0.7-2.8,1.9-3.6,1.2s-2.8-14.9-1.4-15.4c1.4-0.5,2.8-2.1,4.1-2.1c1.4,0,2.2-1.4,2.2-2.6
	s-1-8.5-1-8.5L83,139.4L92,128.7z"/>
<path class="st9" d="M58.9,85.7c-0.1,0.2-0.2,0.5-0.3,0.8c-0.6,1.2-2.3,0.9-3.5,1.3c-1.1,0.4-1.8,1.4-1.9,2.5c0,0.5,0,0.9,0,1.4
	c-0.1,0.9-0.6,1.6-0.8,2.5c-0.4,2,0.6,5.3,1.8,4.2c0.4-0.3,0.8-0.6,1.2-0.9c1-0.8,1.6-2.1,2.4-3.1c0.1-0.2,0.3-0.3,0.4-0.4
	c0.6-0.3,1.2,0.4,1.7,0.9c1.1,1,2.8,1,3.9-0.1c0.2-0.2,0.3-0.4,0.5-0.5c0.2-0.1,0.5-0.1,0.8-0.1c1.2,0.2,2.2,0.7,3.1,1.6
	c0.4,0.5,0.8,0.9,1.2,1.3c0.5,0.3,1.2,0.4,1.6,0c0.9,0.5,1.2,1.7,1.2,2.7c0,1-0.2,2.1-0.2,3.1c0.1,1,0.5,2.2,1.5,2.5
	c0.2-1,0.8-1.8,1.6-2.4c0.7-0.4,1.5-0.6,2-1.2c1.1-1.1,0.8-2.9,0.8-4.5c0.1-1.9,0.8-3.8,1-5.7c0.1-1,0-2-0.6-2.7
	c-0.5-0.5-1-0.9-1.7-1.2l-5.2-2.9c-0.2-0.1-0.5-0.3-0.8-0.3c-0.8-0.1-1.4,0.5-2.2,0.8c-0.6,0.2-1.3,0.3-1.9,0.2c-2,0-2.6,0.3-4-0.8
	c-0.2-0.2-0.5-0.3-0.8-0.2C60.9,84.6,59.3,84.9,58.9,85.7z"/>
</svg>
