<svg version="1.1" id="f7e01b52-fe13-4534-b7fc-d479bcd2a427" xmlns="http://www.w3.org/2000/svg" x="0" y="0" viewBox="0 0 285.1 231.3" xml:space="preserve"><style>.st1{fill:#3f3d56}.st2{fill:#31b096}.st4{fill:#504f60}.st5{fill:#a1616a}.st6{opacity:.1;enable-background:new}.st7{fill:#464353}.st8{opacity:4.000000e-02;enable-background:new}.st9{fill:#fff}.st11{fill:#fbbebe}.st13{fill:#f86d70}</style><path d="M276.6 136.7v.5c0 3-.2 6.1-.5 9.1v.1c0 .3-.1.5-.1.7 0 .4-.1.8-.2 1.3-.7 5.2-1.8 10.3-3.3 15.2-2.1 6.7-5 13.1-8.7 19.1-1.1 1.8-2.4 3.6-3.6 5.3l-2.1 2.7c-.5.6-1 1.2-1.6 1.8l-.3.4c-2.8 3-5.8 5.9-8.9 8.5-5.2 4.3-10.8 8-16.5 11.5-.3.2-.6.4-1 .6h-.1c-7.7 4.7-15.7 8.9-24 12.2-9 3.7-18.3 6.4-27.9 7.6-13.3 1.6-26.8.3-40.1-2-11-1.9-21.9-4.5-32.6-7.8l-1.8-.6-2.7-.9c-5.5-1.8-10.9-3.8-16.3-6.1-13.5-5.6-26.4-12.5-38.5-20.6-1.5-1-3.1-2.1-4.5-3.2-2.1-1.5-4.2-3.1-6.2-4.6l-1.3-1c-5.3-4.2-10.3-8.8-14.9-13.7-6.2-6.8-11.5-14.4-15-23.1-.5-1.4-1.1-2.8-1.5-4.2v-.1c-.2-.7-.4-1.4-.6-2.2-.3-1.1-.5-2.2-.8-3.3 0-.2-.1-.4-.1-.6-.7-3.7-1-7.5-.9-11.2.1-3.3.5-6.6 1.2-9.8.7-3.3 1.8-6.6 3.3-9.7 1.3-2.8 3-5.4 5-7.7 1.4-1.6 3-3.1 4.7-4.4 3.1-2.3 6.6-4 10.2-5.2 1.7-.6 3.4-1.1 5.1-1.6 1.2-.4 2.4-.7 3.7-1l3.6-1c2.3-.6 4.6-1.3 6.9-2 6.2-1.9 12.3-4.2 17.9-7.6.9-.5 1.8-1.1 2.7-1.8 1.2-.8 2.3-1.7 3.4-2.6l3.3-3 .5-.5c.9-.9 1.7-1.9 2.5-2.9.4-.5.7-1 1.1-1.5.5-.7.9-1.4 1.4-2.1 2.1-3.6 3.5-7.6 3.3-11.9 0-.7-.1-1.4-.2-2.1-.4-2.5-.7-5-1-7.5-1.1-10.1-.6-19.2 6.9-27.7 9.4-10.7 24.1-12.8 37.5-12 38.7 2.5 74 24.7 105 51 2.7 2.3 5.3 4.6 7.9 6.9.7.6 1.3 1.2 2 1.8 4.9 4.4 9.7 9 14.2 13.9.4.4.7.8 1.1 1.2.2.2.4.5.7.7 1.4 1.6 2.8 3.2 4.1 4.9 3.5 4.4 6.7 9.1 9.3 14.1 4.1 7.8 6.9 16.3 8.2 25 .5 3.2.8 6.4 1 9.6 0 .9.1 1.9.1 2.8v2.3z" opacity=".1" fill="#31b096"/><path class="st1" d="M113.6 131.8L109 214h4.6l3.8-83.3z"/><path class="st2" d="M39.5 173.4h57.1v12.4H39.5z"/><path class="st1" d="M100.4 184.4v7.8h-59c-2.1-1.5-4.2-3.1-6.2-4.6v-3.1h65.2z"/><path d="M112.1 166.7c-.2.7-.4 1.5-.6 2.2-.7 2.1-1.4 4.2-1.6 6.4-.2 2.9.6 6.3-1.4 8.4-.5.5-1.2 1-1.7 1.5-.1.1-.1.2-.2.3-.4.7-.5 1.5-.5 2.3 0 1.7.1 3.3.3 5 .7 5.7 2 11.4.3 16.8-.3.9-.7 1.9-1.1 2.7-.9 1.9-1.8 3.8-2.1 5.8-.2 1.5-.1 3.1-.2 4.7l-2.7-.9c-5.5-1.8-10.9-3.8-16.3-6.1v-.2c.4-2.6-.2-5.2-.8-7.7-1.4-5.3-3.5-10.6-4.7-15.9-.5-2.1-.8-4.2-1-6.3 0-.5-.1-1-.1-1.4v-1.9c.1-1.3.1-2.8-.9-3.5-.6-.4-1.3-.5-1.9-.7-1.3-.5-2.1-1.6-3.1-2.5-1-.9-2.3-1.3-3.6-1.1-6.5 1.5-11.2 7-17.3 9.8-.2.1-.5.2-.7.3-.8.3-1.5.7-2.2 1.1-.5.3-.8.8-1 1.4-.2.6 0 1.3.1 1.9.1 1 .1 2.1-.1 3.1l-.3 1.2c-.2.7-.5 1.4-.8 2-1.5-1-3.1-2.1-4.5-3.2-2.1-1.5-4.2-3.1-6.2-4.6l-1.2-1c-5.3-4.2-10.3-8.8-14.9-13.7.6-1.7 1.5-3.3 1.9-5.1.2-1 .3-2.1.7-3.1.4-1 .9-2 1.6-2.9 2.5-3.4 5.4-6.4 8.9-8.9 3.6-2.6 7.7-4.6 10.9-7.5 1.3-1.1 2.4-2.5 3.3-4 .1-.1.1-.2.2-.3.3-.5.4-1.1.5-1.6.2-1.3.2-2.7.3-4 3.9.7 7.9.8 11.9.4 4.6-.5 9.1-1.8 13.7-2.3.3 0 .7-.1 1-.1 1.5-.1 3-.1 4.4-.1 1.2 0 2.5.1 3.7.1l13.6.5c1.5.1 3 .1 4.5.7 1.7.7 3 2 4.1 3.4.1.2.3.4.4.6.9 1.3 1.6 2.7 2.1 4.2.1.1.1.3.2.5l.3 1.2c.1.3.1.6.2 1 .3 1.6.5 3.2 1 4.8 0 .1.1.2.1.3.6 1.7 1.6 3.2 2.4 4.8.5 1.2 1 2.4 1.2 3.7.5 2.3.5 4.9-.1 7.5z" fill="#35323e"/><path class="st2" d="M70.7 63.5c-1.2-1-3-.3-4.4.4-1.2.5-2.4 1-3.7 1.3-.3.1-.5.1-.8.1-.6-.1-.8-.8-1.2-1.2-.7-.7-2-.5-2.9-.2s-1.9 1-2.9.9c-1.1-.1-2.1-.9-3.2-.9-2 0-3.6 2.4-5.5 1.7-1.1-.4-2-1.9-3.1-1.4-.9.3-.9 1.5-1.5 2.3-.6.9-1.8 1.2-2.8 1.6-3.2 1.3-5.4 4.9-4.9 8.3.2 1.9 1.2 3.6 1.8 5.5 1.7 5.1 1 11.1 3.3 16.1.3-.3.4-.4.7-.6-.7 1.5-.9 3.2-.4 4.8.2.8.6 1.5.9 2.3.3.9.6 1.8.7 2.7l2.5 11.1c1 4.3 2 8.7 2.1 13.1.1 2.9-.1 5.8-.7 8.6 4.5-.8 8.7-2.8 13.3-2.7 1.7 0 3.4.3 5 .5 4.9.7 9.8 1 14.7 1 .8 0 1.5-.1 2.3-.3.6-.3 1.2-.8 1.8-1.1 1.2-.7 2.6-.9 3.9-.9 6.2-.1 12.1 2.1 18.2 2.9 2.4-5.1 2.6-11.2.7-16.5-.6-1.6-1.3-3.1-1.5-4.8-.1-1-.1-2-.1-3.1 0-2.6-.5-5.2-1.4-7.7-.4-1-.8-1.9-.7-3 0-1 .5-2 1-2.9 1-1.8 2-3.7 3.4-5.3 1.5-1.6 3.3-2.8 5.1-4l4.4-3c-.6-3.8-1.4-7.9-3-11.4s-4.1-6.8-7.4-8.9c-1.1-.7-2.3-1.2-3.5-1.7-1.7-.7-3.4-1.3-5.3-1.4-2.1-.1-4.1.4-6.2.8-5.9 1.2-13.5 1-18.7-3z"/><path class="st1" d="M119.4 130.2l-2.1 2.7-4 5-4.6 5.8-1.3 1.6h-2.5l-61.9.1H2.5c-.2-.7-.4-1.4-.6-2.2-.3-1.1-.5-2.2-.8-3.3 0-.2-.1-.4-.1-.6l14.1-9.2h5.3l16.2-.1 9-.1h8.6l45.9-.3h6l10-.1 1.9-.7.1.1 1.3 1.3z"/><path class="st4" d="M118.5 128.7l-.2.3-1.6 1.9-3.2 3.8-6.8 8-60.2-1.5L1 140c0-.2-.1-.4-.1-.6-.7-3.7-1-7.5-.9-11.2l5-2.6 1.2-.6 9-4.6 7.9-4 20.6 2.7 4.6.6 2.1.3 3 .4h.3l47.3 6.1 5.2.7 3.1.4 9.2 1.1z"/><path class="st1" d="M108.7 142.6v1.1l-.3 6.4-1.6 35.2-.3 7.6-.9 19.6-.5 11.1-1.8-.6-2.7-.9 4.2-76.7.1-1.6 1.9-.6 1.9-.6zm-104.4-.1l-.1 3-.2 4.3c-.5-1.4-1.1-2.8-1.5-4.2v-.1c-.2-.7-.4-1.4-.6-2.2l2.4-.8z"/><ellipse class="st5" cx="79.7" cy="81" rx="13.3" ry="17.9"/><ellipse class="st6" cx="79.7" cy="81" rx="13.3" ry="17.9"/><circle class="st5" cx="81.6" cy="70.2" r="18.5"/><path class="st7" d="M82 41.7c-1.1.1-2.2.3-3.3.5-2.9.7-5.4 2.3-7.9 3.8-1.1.7-2.2 1.4-2.9 2.4-1.2 1.8-.8 4.2-1.4 6.2-.4 1-1 2-1.6 3-1.5 2.7-2.3 5.6-3.1 8.5-.2.6-.2 1.4.4 1.6.4.1.8 0 1.1-.1 2.1-.7 4.7-.9 6.2.5s1.4 3.8 3.2 4.9c2.1 1.2 5.4-.3 7.3 1.2.8.6 1.1 1.6 1.8 2.4 1.6 1.7 4.5 1.6 7 1.3 1.4-.2 3.2-.3 4 .7.4.5.5 1.1 1 1.5.9.8 2.4.4 3.3-.4.8-.8 1.2-1.9 2-2.8 1.4-1.7 3.8-2.7 5.2-4.4 1.2-1.4 1.5-3.2 1.9-5l1.2-6.5c.5-2.6.9-5.5-.5-7.8-.5-.8-1.3-1.5-1.7-2.4-.3-.6-.5-1.2-.8-1.7-.4-.6-.9-1.1-1.5-1.5l-2.8-2.4c-1-.9-2-1.6-3.1-2.3-4.3-2.2-10.4-1.6-15-1.2z"/><path class="st5" d="M21.2 89.3c-.7.7-1.3 1.5-2 2.2-.6.6-1.3 1.1-2 1.6-1.1.8-2.2 1.7-3.3 2.6-1.1.9-2.1 1.9-3 3-1.5 2.1-2.3 4.6-3.7 6.8-1.3 1.9-3.1 3.4-4.4 5.3-.6.8-1 1.7-1.2 2.6-.2.9-.3 1.8-.3 2.8 0 1.5 0 3.1.3 4.6s1 3 2.2 3.9c1.1.9 2.5 1.3 3.9 1.7.7.2 1.5.3 2.2.1.5-.2.9-.6 1.3-1.1l3.5-4c2.3-2.7 4.8-5.5 8-7.1 1-.5 2.1-.9 3.1-1.3 4.3-2.1 7.3-6.3 8.5-10.9.3-1.1.5-2.3.7-3.4l.5-3.2V95c-.1-.2-.2-.3-.4-.4-2.4-2-4.7-4.1-6.8-6.5-.5-.6-1-1.3-1.6-1.8-.7-.6-.7-.5-1.5 0-1.7.8-2.9 1.8-4 3z"/><path class="st1" d="M45.2 110.3c-.1-.3-.4-.4-.7-.3-.3.1-.4.4-.3.7l-.3.1 8.6 17.6 1.6-.8-8.6-17.6-.3.3z"/><path class="st8" d="M21.2 89.3c-.7.7-1.3 1.5-2 2.2-.6.6-1.3 1.1-2 1.6-1.1.8-2.2 1.7-3.3 2.6-1.1.9-2.1 1.9-3 3-1.5 2.1-2.3 4.6-3.7 6.8-1.3 1.9-3.1 3.4-4.4 5.3-.6.8-1 1.7-1.2 2.6-.2.9-.3 1.8-.3 2.8 0 1.5 0 3.1.3 4.6s1 3 2.2 3.9c1.1.9 2.5 1.3 3.9 1.7.7.2 1.5.3 2.2.1.5-.2.9-.6 1.3-1.1l3.5-4c2.3-2.7 4.8-5.5 8-7.1 1-.5 2.1-.9 3.1-1.3 4.3-2.1 7.3-6.3 8.5-10.9.3-1.1.5-2.3.7-3.4l.5-3.2V95c-.1-.2-.2-.3-.4-.4-2.4-2-4.7-4.1-6.8-6.5-.5-.6-1-1.3-1.6-1.8-.7-.6-.7-.5-1.5 0-1.7.8-2.9 1.8-4 3z"/><path class="st5" d="M120.6 121.8c0 1.8-.1 3.7-.9 5.4-.3.7-.8 1.4-1.6 1.7-.5.1-.9.1-1.4.1-5.7-.5-11.4 0-16.9 1.3 1.5-2.9.6-6.5 1-9.7.1-.9.3-1.8.4-2.7.3-3.2-1.1-6.3-1.7-9.4-.5-2.7-.5-5.5 0-8.2.1-.7.3-1.4.7-2 .4-.6 1-1.1 1.6-1.4 2.3-1.3 5.1-1.5 7.7-1.3 1.8.1 5.3 0 6.8 1 1.6 1.2 2.1 5.2 2.6 7 .7 2.8 1.1 5.7 1.3 8.6.4 3.2.4 6.4.4 9.6z"/><path class="st9" d="M17.3 128.2l10.4 6.9 46.7-1.7-30.9-5.2z"/><path class="st2" d="M31 73.2c-1.7 1.5-3.1 3.3-4.8 4.9-2.2 2.1-4.7 4-7.2 5.9 1.8.5 3.3 1.9 3.7 3.8.1.4.2.9.3 1.3.3 1 .9 1.8 1.6 2.6 2.9 3.3 7 5.7 8.7 9.8.1.2.2.4.3.5.1.1.3.1.4.1 1.6-.2 2.8-1.4 3.7-2.6 2.1-2.6 3.9-5.5 4.9-8.6 1-3.2 1.2-6.7.1-9.8-.6-1.6-1.4-3-2.3-4.4-.7-1.2-1.5-2.5-2.2-3.7-.4-.7-.9-2-1.6-2.3-1.5-1-4.6 1.4-5.6 2.5zm84.9 18.6l2.5 5.8c-5.4-1.9-11.4-1.1-16.1 2.2-1.4 1-2.7 2.3-3.3 3.9-.6.1-1.3-.1-1.7-.7-.4-.5-.6-1.1-.6-1.8-.2-2.2.6-4.4 1.4-6.5.4-1 .8-2 1.5-2.7.7-.8 1.6-1.3 2.5-1.8 2.9-1.6 6-3 9.1-4 1.3-.4 2.7-.4 3.5.8.8 1.5.6 3.2 1.2 4.8z"/><path class="st5" d="M17.4 109.1c.6.5 1.2 1.1 1.8 1.5.7.5 1.4.9 2.1 1.2l2.8 1.4c.9.5 1.8.8 2.8 1.1 1.2.3 2.5.4 3.7.7 1.5.4 3 1.2 4.5 1.6 1.5.5 3.3.5 4.6-.4.8-.6 1.4-1.6 2.4-1.7.6-.1 1.2.2 1.8.5l7.4 3.9c1 .5 2.1 1.1 2.6 2.1s.2 2.5-.9 2.8c-.4 0-.8.1-1.2.1-.4 0-.8.3-.8.7 0 .2.1.5.2.7.3.8.4 1.7 0 2.4s-1.3 1.2-2.1.9c.1 1.1-1.1 1.9-2.2 2.2-2.7.7-5.6.3-8.4-.2-1.1-.2-2.2-.4-3.2-.9-.5-.2-.9-.5-1.4-.7-1.3-.6-2.8-.5-4.3-.5-6.7.1-13.4-1.1-20-2.4-1.2-.2-2.5-.5-3.5-1.2-2-1.3-2.8-4-2.4-6.4.3-2.4 1.5-4.6 2.7-6.7l1.5-2.7c.2-.4.5-.8.8-1.1 2.2-1.8 6.7-.4 8.7 1.1z"/><path class="st8" d="M17.4 109.1c.6.5 1.2 1.1 1.8 1.5.7.5 1.4.9 2.1 1.2l2.8 1.4c.9.5 1.8.8 2.8 1.1 1.2.3 2.5.4 3.7.7 1.5.4 3 1.2 4.5 1.6 1.5.5 3.3.5 4.6-.4.8-.6 1.4-1.6 2.4-1.7.6-.1 1.2.2 1.8.5l7.4 3.9c1 .5 2.1 1.1 2.6 2.1s.2 2.5-.9 2.8c-.4 0-.8.1-1.2.1-.4 0-.8.3-.8.7 0 .2.1.5.2.7.3.8.4 1.7 0 2.4s-1.3 1.2-2.1.9c.1 1.1-1.1 1.9-2.2 2.2-2.7.7-5.6.3-8.4-.2-1.1-.2-2.2-.4-3.2-.9-.5-.2-.9-.5-1.4-.7-1.3-.6-2.8-.5-4.3-.5-6.7.1-13.4-1.1-20-2.4-1.2-.2-2.5-.5-3.5-1.2-2-1.3-2.8-4-2.4-6.4.3-2.4 1.5-4.6 2.7-6.7l1.5-2.7c.2-.4.5-.8.8-1.1 2.2-1.8 6.7-.4 8.7 1.1z"/><path class="st5" d="M105.4 114.1c-1.5.7-3.2.8-4.8 1.3s-2.9 1.5-4.3 2.3c-3.7 2.1-8.1 2.9-12.3 3.6-2.6.5-5.2.9-7.8.8-3.5-.1-6.9-1.3-10.3-2.2s-7-1.5-10.4-.5c-3.6 1.1-6.4 3.8-7.6 7.3-.7 2.1-.8 4.3-.7 6.5.7.5 1.7-.2 2.1-1 .4-.8.6-1.8 1.3-2.2 1.3.4 1.6 2.2 2.7 3 .7.5 1.6.7 2.4.8l4.4.6c1.1.1 2.3.3 3-.5.4-.4.6-.9.9-1.3.7-.8 1.9-.9 2.9-.8 3.2.3 6.3 2.4 9.5 1.9 1.1-.2 2.1-.6 3.2-1 6.3-2.2 13.2-.9 19.7-2.1 2.5-.5 4.9-1.3 7.2-2.2 1.3-.5 2.6-1 3.7-1.8 2.1-1.6 3.2-4.2 3-6.9-.2-2-1.2-3.8-2.8-5.1-.5-.4-1.2-1.3-1.8-1.5-1.1-.4-2.2.5-3.2 1z"/><path d="M97 77.3c-.5-.4-.6-1.1-1-1.5-.9-1-2.6-.9-4-.7-2.5.3-5.5.4-7-1.3-.7-.7-1-1.7-1.8-2.4-1.9-1.4-5.2 0-7.3-1.2-1.8-1.1-1.7-3.5-3.2-4.9-1.5-1.4-4.2-1.2-6.2-.5-.3.2-.7.2-1.1.1-.7-.2-.6-1-.4-1.6.8-2.9 1.6-5.8 3.1-8.5.6-1 1.2-1.9 1.6-3 .6-1.8.3-3.9 1.1-5.6-.9.6-1.7 1.2-2.3 2-1.2 1.8-.8 4.2-1.4 6.2-.4 1-1 2-1.6 3-1.7 2.6-2.5 5.6-3.2 8.5-.2.6-.2 1.4.4 1.6.4.1.8 0 1.1-.1 2.1-.7 4.7-.9 6.2.5s1.4 3.8 3.2 4.9c2.1 1.2 5.4-.3 7.3 1.2.8.6 1.1 1.6 1.8 2.4 1.6 1.7 4.5 1.6 7 1.3 1.4-.2 3.2-.3 4 .7.4.5.5 1.1 1 1.5.9.8 2.4.4 3.3-.4.5-.6 1-1.2 1.4-1.9-.7.2-1.5.1-2-.3zm5.2-3.2c-.2.2-.4.5-.5.7 1.1-.8 2.3-1.5 3.1-2.5.2-.3.4-.5.6-.8-1.2.8-2.4 1.5-3.2 2.6z"/><path class="st1" d="M160.5 131.2l.9 82.8 4-.6-.9-82.2zm24.2 15l.9 82.8 4-.6-.8-82.2zm75.4 41.8v-2.5l-.2-14.6-.2-22.8v-2h-4v1.9l.1 12.2.1 5.3v4.3l.1 7.4v4.9l.1 5.7.1 5 .3-.4c.5-.6 1-1.2 1.6-1.8l2-2.6z"/><path class="st2" d="M180.2 159.6l-2.3 3.4 2.3 15.8 19.7 5.3h31.7l19 1.2 9.1-6.2-1.6-10.7-6.9-8.8z"/><path class="st1" d="M177.9 163l-1.2 9.6s-6.1 18.8 42.7 17.6c48.7-1.2 40.4-5 40.4-5l-.3-11.1s1.7 5.3-23.1 4.5c-24.8-.7-47.9-3-47.9-3s-8.5 1.6-10.6-12.6z"/><path class="st11" d="M218.5 77.2c-2.8 1.3-4.9 3.7-6.3 6.4-1.4 2.7-2.2 5.7-3 8.7-.8 3.1-1.7 6.2-2.1 9.4-.8 5.7-.2 11.7 2.4 16.8s7.4 9.2 13.1 10.2c2.2.4 4.4.3 6.6.1 4-.4 7.9-1.3 11.7-2.6 4-1.3 8.1-3.4 9.9-7.2 1-2.2 1.1-4.7 1.1-7.1-.1-6.6-1.1-13.2-3-19.6-.5-1.8-1.2-3.7-2.3-5.3s-2.7-2.7-4.3-3.7c-6.6-4.6-15.5-9.9-23.8-6.1z"/><path d="M218.5 77.2c-2.8 1.3-4.9 3.7-6.3 6.4-1.4 2.7-2.2 5.7-3 8.7-.8 3.1-1.7 6.2-2.1 9.4-.8 5.7-.2 11.7 2.4 16.8s7.4 9.2 13.1 10.2c2.2.4 4.4.3 6.6.1 4-.4 7.9-1.3 11.7-2.6 4-1.3 8.1-3.4 9.9-7.2 1-2.2 1.1-4.7 1.1-7.1-.1-6.6-1.1-13.2-3-19.6-.5-1.8-1.2-3.7-2.3-5.3s-2.7-2.7-4.3-3.7c-6.6-4.6-15.5-9.9-23.8-6.1z" opacity=".05"/><path class="st2" d="M215.4 113.5c.8 1.1 1.8 2.1 2.9 2.9 2.7 1.9 6.3 2.2 9.6 2.3 2.7.1 5.7-.1 7.4-2.2.8-.9 1.1-2.1 1.4-3.3 1.9-7.2 3.2-14.5 4-21.9h7.6c3.3 14.2 3 28.9 2.7 43.4l-.4 21.2-4.9-.5c-11.7-1.2-23.4-2.5-35.1-2.7-6.9-.1-13.8.1-20.6.7l10.7-31.9c1.4-4.1 2.8-8.3 3.1-12.7.5-6.3-1.3-13 1.2-18.8.2-.5.4-1 .9-1.2.4-.2 1-.2 1.5-.1 1 .1 3.9 0 4.6.6 1 .9.4 1 0 2.5-.7 2.6-1.3 5-1.3 7.7.1 4.9 1.6 10.1 4.7 14z"/><path class="st7" d="M260.1 188c1.3-1.7 2.5-3.5 3.6-5.3-.6-1.2-1.2-2.4-1.7-3.7-.8-1.9-1.2-4-1.7-6-.1-.7-.3-1.4-.4-2.1-1.6-7.5-3.1-15.2-3.4-22.8 0-.6 0-1.3-.1-1.9v-2.4c0-1.7.1-3.5.3-5.2 0-.3.1-.7.1-1v-.2l19.6-.7 1.6-.1c1.1 0 2.3-.1 3.3-.7 1.6-1.1 1.8-3.3 1.7-5.2-.1-4.8-.6-9.6-1.6-14.3-.7-3.5-1.8-7.1-4.2-9.9-2-2.2-4.8-3.9-5.8-6.6-.4-1-.5-2.2-1-3.2s-1.3-1.7-2.1-2.5c-2.7-2.7-4.9-5.8-6.6-9.1-1.2-2.4-2.4-4.9-4-6.6-.1-.1-.1-.2-.2-.2-1.3-1.3-2.8-1.8-4.5-1-.3.2-.6.3-.9.6-.6.5-1.2 1-1.7 1.6-1.8 2-3.3 4.3-4.7 6.6-.9 1.7-1.7 3.4-2.4 5.2-.5 1.4-.9 2.9-1.3 4.3l-.6 3.3c-.6 4.1-.6 8.4-.5 12.6.1 3.9.3 7.7.6 11.6.1.9.2 1.9.3 2.8.2 1.8.5 3.7.8 5.5.1.7.3 1.4.4 2.1 0 .2.1.4.1.6v.1c.4 1.6.7 3.2.9 4.9 0 .2 0 .4.1.6v2.8c-.1 1.1-.2 2.2-.2 3.3v2.3c.1 1.3.2 2.7.5 4 .5 2.5 1.3 4.8 2.5 7l.3.6c1.5 2.6 3.3 5 4.7 7.7 1.2 2.4 2 4.9 2.6 7.6.2.9.4 1.7.5 2.6.3 1.4.5 2.8.8 4.2 0 .1 0 .3.1.4.3 1.9.7 3.7 1.1 5.5.3 1.1.5 2.1.9 3.1l2.2-2.8z"/><path class="st13" d="M256.3 165.3v.8c-.1 1.3-.2 2.5-.3 3.8-.2 1.7-.7 3.4-1.2 5-.4 1.1-.9 2.1-1.5 3.1-.5.9-1.2 1.7-1.9 2.4-1.7 1.8-4.2 2.4-6.6 3.1-1.1.3-2.2.8-3.2 1.3-.2.1-.4.2-.5.3l-3 2c-.9.6-1.9 1.3-2.5 2.2-.1.2-.2.3-.3.5-.4.8-.7 1.7-.9 2.7-1.6 6.5-3.1 13.1-4.2 19.7-.1.4-.1.9-.2 1.3-7.7 4.7-15.7 8.9-24 12.2l-1.8-15c-.2-1.2-.2-2.5-.2-3.7.2-1.9 1-3.8 1.2-5.7.2-1.9-.2-3.8-1-5.5-.3-.7-.8-1.3-.8-2-.1-.7.3-1.4 1.1-1.5.6-.6.6-1.5.5-2.4-.1-.5-.2-.9-.4-1.3-.5-1.2-1.1-2.5-.7-3.7.1-.2.2-.5.1-.7-.1-.3-.5-.5-.7-.7-.4-.5 0-1.2.2-1.8.2-.6.4-1.3.4-2 0-.4.1-.7.1-1.1.1-.5.1-1 .3-1.5.7-2.8 2.4-5.2 4.7-6.8 1.1-.8 2.4-1.3 3.5-2 1.2-.8 2.3-1.7 3.4-2.6 2.5-2.1 5.2-4.1 7.9-6 2.9-2 6-3.9 9.1-5.6.7-.4 1.3-.7 2-1.1.7-.4 1.5-.7 2.2-1.1 2.4-1.1 5.1-.7 7.7 0 1.1.3 2.2.7 3.2 1 1 .3 2 .8 2.9 1.3 2.3 1.4 4.3 3.4 5 5.9.4 1.8.4 3.5.4 5.2z"/><path class="st6" d="M256.3 165.3v.8c-.1 1.3-.2 2.5-.3 3.8-.2 1.7-.7 3.4-1.2 5-.4 1.1-.9 2.1-1.5 3.1-.5.9-1.2 1.7-1.9 2.4-1.7 1.8-4.2 2.4-6.6 3.1-1.1.3-2.2.8-3.2 1.3-.2.1-.4.2-.5.3l-3 2c-.9.6-1.9 1.3-2.5 2.2-.1.2-.2.3-.3.5-.4.8-.7 1.7-.9 2.7-1.6 6.5-3.1 13.1-4.2 19.7-.1.4-.1.9-.2 1.3-7.7 4.7-15.7 8.9-24 12.2l-1.8-15c-.2-1.2-.2-2.5-.2-3.7.2-1.9 1-3.8 1.2-5.7.2-1.9-.2-3.8-1-5.5-.3-.7-.8-1.3-.8-2-.1-.7.3-1.4 1.1-1.5.6-.6.6-1.5.5-2.4-.1-.5-.2-.9-.4-1.3-.5-1.2-1.1-2.5-.7-3.7.1-.2.2-.5.1-.7-.1-.3-.5-.5-.7-.7-.4-.5 0-1.2.2-1.8.2-.6.4-1.3.4-2 0-.4.1-.7.1-1.1.1-.5.1-1 .3-1.5.7-2.8 2.4-5.2 4.7-6.8 1.1-.8 2.4-1.3 3.5-2 1.2-.8 2.3-1.7 3.4-2.6 2.5-2.1 5.2-4.1 7.9-6 2.9-2 6-3.9 9.1-5.6.7-.4 1.3-.7 2-1.1.7-.4 1.5-.7 2.2-1.1 2.4-1.1 5.1-.7 7.7 0 1.1.3 2.2.7 3.2 1 1 .3 2 .8 2.9 1.3 2.3 1.4 4.3 3.4 5 5.9.4 1.8.4 3.5.4 5.2z"/><path class="st1" d="M228.9 117.5c-.1-.3-.4-.4-.7-.3-.3.1-.4.4-.3.7l-.3.1 8.6 17.6 1.6-.8-8.6-17.6-.3.3z"/><circle class="st11" cx="239.7" cy="80.6" r="18.5"/><path class="st7" d="M264 69.2c-.1-1.5-.3-2.9-.7-4.4-1.1-4.7-3.1-9.3-6.5-12.6-.2-.8-.5-1.6-.8-2.4v-.1c-1-2.8-2.5-5.4-4.4-7.7-1.1-1.3-2.5-2.7-4.2-2.7-.5 0-1 .1-1.4-.2-.3-.2-.6-.5-.8-.8-1.7-2.2-4.6-3.3-7.3-2.7h-.2c-.1 0-.2 0-.3.1s-.2.1-.4.1c.1.2.3.4.4.7.3.6.7 1.2 1 1.9.2.5.5 1.1.7 1.6-3 .3-5.4 2.4-7.6 4.4l-5.2 4.7-.1.1-.1.1-.1.1c-.1.1-.1.2-.2.3l-.1.1v.2c-.1.2 0 .4 0 .6h3.8V52c-.5.4-1.1.8-1.6 1.3s-1 1-1.5 1.6c-3.1 3.7-4.7 8.5-4.8 13.4v2.6c0 .4.1.7.3 1.1l.1.1c.2.2.4.3.6.4l.2.1c.1.1.2.1.4.2 1.1.6 1.7 1.8 2.7 2.6.1 0 .1.1.2.1l.1.1.1.1.1.1c.1 0 .1.1.2.1l.1.1c.1.1.2.1.3.1l.2.1h.1c.1 0 .2.1.3.1l.3.1c.1 0 .2 0 .3.1h1.2c.9 0 1.7-.1 2.6-.2l7.4-.9c1.7-.2 3.4-.4 5 0 1.4.3 2.7 1 4 1.4l.9.3c.1 0 .2.1.3.1h.2l.4.1c.1 0 .3.1.4.1.2 0 .4.1.6.1.1 0 .3 0 .4.1l.4.1h.4c.1 0 .3 0 .4.1.3 0 .6.1.9.1.5 0 1 .1 1.4.1h1l1.4.1h.3c.6 0 1.2 0 1.8-.1.1 0 .2 0 .3-.1.1 0 .2-.1.3-.1 1.1-.4 1.9-1.4 2.4-2.4.1-.2.2-.4.3-.7.1-.2.2-.4.3-.7l.3-.9c0-.1 0-.2.1-.2s.1-.2.1-.4c.1-.3.1-.7.2-1v-.3c0-.3 0-.6.1-.8v-1.2zm-7.4-17.3c-.2-.2-.5-.4-.7-.6.3.2.5.4.7.6zm-52.4 27.7c-2.2-.3-4.3-1.2-6.5-.8-1.3.3-2.5 1.1-3.6 2-4 3.2-7.4 7.1-10 11.5-.4.7-.8 1.4-.9 2.2-.1.9.1 1.8.4 2.7 2 5.8 6.2 10.7 8.1 16.5 2 6.1 1.3 12.9-.2 19.2-1.8 7.8-4.8 15.2-8.9 22.1-.6 1-1.2 2-2 2.8-1 1-2.5 1.7-3.1 3.1-.3.6-.4 1.2-.6 1.9-.6 1.7-2 3.2-2.1 5-.1 1.4.6 2.7 1 4 .7 2.3.6 4.7-.2 7-1.5 4-5.3 7.7-4.2 11.8 2.5-.7 5.2-1.6 6.4-3.9.4-.8.6-1.8 1.3-2.4 1.4-1.2 3.7-.1 5.2-1.2 1.1-.8 1.2-2.5.7-3.8-.5-1.3-1.3-2.4-1.7-3.8-.7-2.4.4-5 .2-7.4-.1-1.2-.4-2.3-.5-3.4 0-2.2 1.2-4.3 2.8-5.8 1.6-1.5 3.7-2.5 5.7-3.5l7.5-3.7c2.7-1.4 5.7-3 6.6-5.9.3-1.1.3-2.3.4-3.4.3-17.5 4.6-34.6 9-51.5.7-2.6 1.4-5.2 2.4-7.8 1-2.5 3-4.5 4-6.9-5.8-.9-11.1 4.1-17.2 3.4z"/><path class="st13" d="M245.8 189c.7 4 1.1 8.2 1.4 12.3-5.2 4.3-10.8 8-16.5 11.5-.3.2-.6.4-1 .6-.4-1-1.2-1.7-2.2-2.1-2.1-4.5-4.3-8.9-6.4-13.4-1.2-2.4-2.3-4.9-2.9-7.5v-.2c-.4-2-.5-4.1-.8-6.2-.1-1.2-.4-2.3-.8-3.4-.3-1-.8-2-1.2-2.9-.5-1.2-1-2.4-1-3.7 0-.4 0-.9-.2-1.2-.2-.3-.5-.6-.8-.8-.8-.7-1.1-1.7-1-2.7-1.7.1-2.7 1.9-3.4 3.5-.6 1.5-1.5 3-2.5 4.3-.7.9-1.7 1.7-2.7 2.3-.1 0-.2.1-.3.1-2.4 1.1-5.2.7-7.8.2-2.3-.4-4.6-.9-6.5-2.4l-.2-.2c-.5-.5-1-1-1.4-1.5-1.5-2.1-2.2-4.9-2.6-7.5 0-.2-.1-.5-.1-.7-.3-1.9-.3-3.7-.2-5.6 0-.5.1-.9.1-1.4 0-.3.1-.6.1-.9.1-.5.2-1 .2-1.4.3-1.6.6-3.3 1.4-4.7.6-.9 1.3-1.6 2.1-2.3.3-.2.6-.5 1-.7.5-.4 1.1-.7 1.6-1 1.4-.8 2.8-1.5 4.3-2.1.4-.1.7-.3 1.1-.4 1.4-.5 2.9-.6 4.4-.3 1.3.2 2.6.3 3.9.2 3.4-.1 6.8-.7 10.2-1.1 4.7-.6 9.7-.6 13.8 1.7.2.1.4.2.6.4 2 1.3 3.6 3.2 5 5.2.3.4.5.9.8 1.3.6 1 1.1 2.1 1.5 3.2.3.5.4 1.1.4 1.7v.3l-.3 1.2c-.2 1.6 1.2 2.9 1.7 4.4.3 1 .3 2 .5 3 .3 1.4 1 2.7 1.6 4 1 2.1 1.9 4.2 2.6 6.5.5 1.5.9 3.1 1.3 4.7l.3 1.5c.4 1.5.7 2.9.9 4.2z"/><path class="st1" d="M276.6 146.3v2.1l-.4-.1h-5.1l-11.4-.2h-4l-4.8-.1-6.8-.1-14.4-.2-25-.3-9-.1h-3.6l-3.3-.1h-4.1l-14.5-.2-4.1-.1h-.9l-.5-1.5-4.2-10.7-.7-1.9.5-2.3 2.6 1.7 1.6.2 26.3 3.3 5 .6 10.4 1.3 10.3 1.3 4 .5 23.8 2.9 6.7.8 5.5.7 19.5 2.5z"/><path class="st4" d="M160.3 130.5l5.2 13.5 111.1 2.3v-14.7z"/><path class="st1" d="M166.1 145.5l.9 82.7 4-.5-.9-82.2zm110.1 2.8h-.4c-.7 5.2-1.8 10.3-3.3 15.2l-1.3-15.3-.1-.7 4.9-.6h.2v1.4z"/><path class="st9" d="M260.4 138.5l-42.2.9-13.2-4.3 35.2-2z"/><path class="st11" d="M207.4 121.7c-.4.2-.8.5-1.2.8-.2.4-.4.8-.4 1.3l-.7 4.2c-.1.4-.1.8.1 1.2.2.4.7.5 1 .2 0 .8 0 1.7.5 2.4s1.5 1 2.2.6c.4.7 1.3.9 1.9.5.1 0 .1-.1.2-.1-.4.1-.4.8-.1 1.1.3.3.7.5 1.2.5 5.1.7 10.2.1 15-1.9.4-.2-.7-5.7-.8-6.3-.3-1.3-.4-3-1.6-3.8-2.7-2.1-7.4-2.6-10.7-2.3-2.4.1-4.6.7-6.6 1.6z"/><path class="st6" d="M250.4 122.4c-10.4.2-21.1.4-31-2.8 1 3.7.9 7.6-.2 11.2l48.8 4c2.1.2 10.6 1.1 12.7.7s-16.9-6.7-16.2-8.7c2.1-5.3 9.1-8.4 4.1-8.6-6.5-.2-11.7 4-18.2 4.2z"/><path class="st7" d="M250.7 122.9c-10.4.2-21.1.4-31-2.8 1 3.7.9 7.6-.2 11.2l48.8 4c2.1.2 10.6 1.2 12.7.7 2-.5 1.5-3 2.3-4.9 2.1-5.3-9.3-12.2-14.4-12.4-6.5-.1-11.8 4.1-18.2 4.2z"/><path class="st11" d="M234.1 123.7c.4.2.8.5 1.2.8.2.4.4.8.4 1.3l.7 4.2c.1.4.1.8-.1 1.2-.2.4-.7.5-1 .2 0 .8 0 1.7-.5 2.4s-1.5 1-2.2.6c-.4.7-1.3.9-1.9.5-.1 0-.1-.1-.2-.1.4.1.4.8.1 1.1-.3.3-.7.5-1.2.5-5.1.7-10.2.1-15-1.9-.4-.2.7-5.7.8-6.3.3-1.3.4-3 1.6-3.8 2.7-2.1 7.4-2.6 10.7-2.3 2.4.1 4.6.7 6.6 1.6z"/><path class="st7" d="M165.2 114.6c-1 1.2-1.9 2.5-2.5 3.9-1.2 2.7-1 5.9-.8 8.8.1.9.1 1.7.6 2.5.4.5.9 1 1.5 1.3 2.5 1.4 5.4 1.8 8.3 2.2 4.4.5 8.8.8 13.2.9 10.9.3 22-.6 32.6 1.8-1.3-2-1.3-4.6-.6-6.9.7-2.3 2.2-4.3 3.5-6.2-4.9-1.5-10.1.9-15.2.6-5.2-.2-10.1-3.3-15.3-3.3-1.1 0-2.3.1-3.4-.1s-2.2-1.1-2.3-2.2c1.4.3 2.7-.9 3.3-2.2s.7-2.8 1.2-4.1c1.4-3.3 5.2-4.8 7.5-7.5.4-.4.7-.9.7-1.5-.1-.5-.3-.9-.6-1.3-1.9-2.6-4.9-4-7.3-6.1-.8-.7-2.6-3.4-3.5-3.6-1.8-.5-3.3 2.1-4.4 3.3-5.7 6.3-11.3 12.9-16.5 19.7z"/><path d="M223.2 113.8c.7.5 1.4 1.2 1.9 1.9.6.7.8 1.7.6 2.6-.2-1.7.8-3.3 2.4-4l-4.9-.5z" opacity=".07"/><path d="M239.2 38.2c-.3-.9-.7-1.8-1.2-2.6-.3.1-.6.1-.8.2.5.8.9 1.7 1.3 2.5.2 0 .4-.1.7-.1zm16.7 11.4c.1.1.2.1.2.2v-.1c-.1 0-.1-.1-.2-.1zm-26.8 1.2c.1-.1.3-.2.4-.4V49h-3.1c-.5.5-1 1.1-.7 1.7l3.4.1zm33.7 23.1c-.5 1-1.3 2-2.4 2.4-.8.3-1.8.3-2.6.2-3-.1-6.1-.3-9-1.3-1.3-.5-2.6-1.1-4-1.4-1.6-.3-3.4-.1-5 0l-7.4.9c-2.2.3-4.6.4-6.3-.9-1-.8-1.6-1.9-2.7-2.6-.5-.3-1-.4-1.3-.9-.2-.3-.3-.7-.3-1.1v-.9 2.6c0 .4.1.7.3 1.1.3.4.8.6 1.3.9 1.1.6 1.7 1.8 2.7 2.6 1.7 1.3 4.2 1.2 6.3.9l7.4-.9c1.7-.2 3.4-.4 5 0 1.4.3 2.7 1 4 1.4 2.9 1 6 1.2 9 1.3.9 0 1.8.1 2.6-.2 1.1-.4 1.9-1.4 2.4-2.4 1.1-2 1.4-4.2 1.2-6.5-.1 1.7-.5 3.3-1.2 4.8z"/><path class="st6" d="M239.1 40.1l4 3.7s-3.4-1.4-4-3.7z"/></svg>