<svg version="1.1" id="fb638577-3af1-4e62-8e8d-f046cc0653af" xmlns="http://www.w3.org/2000/svg" x="0" y="0" viewBox="0 0 425.2 320.2" xml:space="preserve"><style>.st1{fill:none;stroke:#535461;stroke-width:.7389;stroke-miterlimit:10}.st2,.st4{fill:#3c6fe9}.st4{enable-background:new;opacity:.1}.st5{fill:#c8cad7}.st6{opacity:.1;enable-background:new}.st9{fill:#fff}.st10{fill:#ededf4}.st11{fill:#65617d}.st14{fill:#fbbebe}.st15{fill:#e7effd}.st16{fill:#3f3d56}.st20{fill:#e9425e}</style><path d="M413.7 219.2c-.3.3-.9.6-1.2.9-1.5.9-3 1.8-4.8 2.7-8.7 3.9-19.5 6-29.7 7.2-23.4 3-47.1 3.6-70.8 4.2-64.2 1.5-128.3 3-192.2-.6-25.2-1.5-51-3.9-74.1-11.1-3.3-.9-6.6-2.1-9.6-3.3-6.3-2.4-12.6-5.7-17.7-9.3-4.8-3.3-8.7-7.5-11.1-11.7-4.8-9.3-2.4-19.8 3.3-29.1 2.4-3.6 4.8-7.2 7.8-10.5 4.2-5.1 9-10.2 13.2-15.3C42.1 125 52 101.9 37.9 83c-4.2-5.4-9.9-10.2-13.2-15.6-4.2-7.2-3.9-15.3-2.7-22.8.3-.9.3-2.1.6-3 2.4-11.4 6.6-24 19.8-31.2C56.5 3 76 3.3 93.1 6c26.7 4.2 51.3 12.9 75.9 20.7s50.7 15 78 15.9c24 .6 52.2-4.5 68.1-17.7 15.6-12.9 44.7-13.8 65.7-6 14.4 5.4 25.2 15 29.7 25.8.9 2.1 1.5 4.5 2.1 6.6.3 2.1.6 4.2.3 6.3 0 .9-.3 2.1-.3 3-3.6 21.3-28.8 38.1-44.1 57-7.5 9.3-12.9 20.4-7.5 30.6 7.8 15.3 35.4 20.7 51.9 32.1 3.3 2.1 6 4.5 8.1 7.2 7.7 10.1 4.7 23.6-7.3 31.7z" opacity=".1" fill="#89daf8"/><g id="bcb547b9-8dd8-4d76-924a-52de61933c6c"><path class="st1" d="M109 119.9s-17.1-30-42.6-38.7c-10.8-3.6-20.1-10.5-26.7-19.8-3-4.5-5.7-9.3-7.8-14.1"/><path class="st2" d="M16 41.7c3 2.7 16.5 5.7 16.5 5.7s-3.3-13.5-6.3-16.2c-3-2.7-7.5-2.7-10.5.3C13 34.2 13 39 16 41.7zm7.8 24.5c3.9.9 17.1-4.2 17.1-4.2s-10.2-9.6-14.1-10.2c-3.9-.6-7.8 2.1-8.4 6-1.2 3.7 1.5 7.5 5.4 8.4zm27.9 26.4c3.9-1.2 12.6-12 12.6-12s-13.5-3-17.4-1.8c-3.9 1.2-6 5.4-4.8 9.3 1.2 3.9 5.4 6 9.3 4.8 0-.3 0-.3.3-.3zm25.8 15c3.9-.6 14.4-9.9 14.4-9.9S79 92.3 75.1 92.9s-6.6 4.5-6 8.4c.3 4.5 4.2 7.2 8.4 6.3zM52 51.6c0 4.2-7.5 15.9-7.5 15.9S37 55.8 37 51.6s3-7.5 7.2-7.5 7.5 3 7.5 7.2c.3 0 .3 0 .3.3zm29.7 17.9C80.5 73.4 70 82.4 70 82.4S66.4 68.9 67.6 65c1.5-3.9 5.7-5.7 9.3-4.5 3.9 1.6 6 5.4 4.8 9zm26.7 21.6c-.6 3.9-9.3 14.7-9.3 14.7S93.4 93.2 94 89c.6-3.9 4.2-6.9 8.1-6.3 3.9.6 6.9 4.2 6.3 8.4z"/><path d="M16 41.7c3 2.7 16.5 5.7 16.5 5.7s-3.3-13.5-6.3-16.2c-3-2.7-7.5-2.7-10.5.3C13 34.2 13 39 16 41.7zm7.8 24.5c3.9.9 17.1-4.2 17.1-4.2s-10.2-9.6-14.1-10.2c-3.9-.6-7.8 2.1-8.4 6-1.2 3.7 1.5 7.5 5.4 8.4zm27.9 26.4c3.9-1.2 12.6-12 12.6-12s-13.5-3-17.4-1.8c-3.9 1.2-6 5.4-4.8 9.3 1.2 3.9 5.4 6 9.3 4.8 0-.3 0-.3.3-.3zm25.8 15c3.9-.6 14.4-9.9 14.4-9.9S79 92.3 75.1 92.9s-6.6 4.5-6 8.4c.3 4.5 4.2 7.2 8.4 6.3zM52 51.6c0 4.2-7.5 15.9-7.5 15.9S37 55.8 37 51.6s3-7.5 7.2-7.5 7.5 3 7.5 7.2c.3 0 .3 0 .3.3zm29.7 17.9C80.5 73.4 70 82.4 70 82.4S66.4 68.9 67.6 65c1.5-3.9 5.7-5.7 9.3-4.5 3.9 1.6 6 5.4 4.8 9zm26.7 21.6c-.6 3.9-9.3 14.7-9.3 14.7S93.4 93.2 94 89c.6-3.9 4.2-6.9 8.1-6.3 3.9.6 6.9 4.2 6.3 8.4z" opacity=".25"/><path class="st1" d="M108.1 119.3S104.8 84.8 85 66.5c-8.4-7.8-14.1-17.7-16.2-28.8-.9-5.4-1.5-10.8-1.5-16.2"/><path class="st2" d="M54.7 10.2c1.5 3.9 12.9 12 12.9 12s2.4-13.8.9-17.4C67 .9 62.8-.9 58.9.6s-5.7 5.7-4.2 9.6zM52 35.7c3.3 2.4 17.1 3 17.1 3s-5.4-12.9-8.7-15.3c-3.3-2.4-7.8-1.5-10.2 1.8-2.4 3.6-1.5 8.1 1.8 10.5zM66.7 71c4.2.3 16.5-6 16.5-6s-11.1-8.4-15.3-8.7c-3.9-.3-7.8 2.4-8.1 6.6-.3 3.9 2.4 7.8 6.6 8.1h.3zm17.4 24.3c3.9.9 17.1-3 17.1-3s-9.6-10.2-13.5-11.1c-3.9-.9-8.1 1.2-9 5.4-.9 3.6 1.5 7.8 5.4 8.7zm-.3-61.7C82.3 37.2 70.6 45 70.6 45s-2.1-13.8-.3-17.4 6-5.1 9.6-3.6c3.6 1.8 5.4 6 3.9 9.6zm19.8 28.8c-2.7 3-15.9 7.2-15.9 7.2s2.1-13.8 4.8-16.8 7.2-3.6 10.5-.9c3 2.4 3.3 7.2.6 10.5 0-.3 0 0 0 0zm15.6 30.5c-2.1 3.6-14.7 9.6-14.7 9.6s0-13.8 2.1-17.4c2.1-3.6 6.6-4.5 10.2-2.4 3.3 2.1 4.5 6.6 2.4 10.2z"/></g><ellipse class="st4" cx="236.5" cy="314" rx="123.9" ry="6.3"/><path class="st2" d="M98.5 302s-15.6-.9-13.8 9.9c0 0-.3 1.8 1.5 2.7 0 0 0-.9 1.5-.6h1.8c.9 0 1.5-.3 2.1-.9 0 0 4.5-1.8 6-9 0 0 1.2-1.5 1.2-2.1l-2.7 1.2s.9 1.8.3 3.6c0 0 0-3.3-.6-3.3l-1.5.6s1.5 3.3.3 5.7c0 0 .3-4.2-.9-5.4l-1.8 1.2s1.8 3.3.6 6.3c0 0 .3-4.2-.9-6l-1.8 1.2s1.8 3.3.6 5.7c0 0 0-5.1-.9-5.4 0 0-1.5 1.2-1.8 1.8 0 0 1.2 2.4.3 3.6 0 0-.3-3.3-.9-3.3 0 0-1.5 2.1-1.5 3.6 0 0 0-2.1 1.2-3.9-.9.3-1.5.6-2.1 1.2 0 0 .3-1.5 2.7-1.8 0 0 1.2-1.8 1.5-1.8 0 0-2.4-.3-3.9.3 0 0 1.2-1.5 4.2-.9l1.8-1.5s-3-.3-4.5 0c0 0 1.5-1.2 4.8-.3l1.8-1.2s-2.7-.6-4.2-.3c0 0 1.8-.9 4.8 0l1.2-.6s-1.8-.3-2.4-.3c-.6 0-.6-.3-.6-.3 1.2-.3 2.4 0 3.6.3.3 1.2 3 .3 3 0z"/><ellipse class="st4" cx="87.7" cy="315.8" rx="11.1" ry="1.8"/><path class="st2" d="M71.2 302.6s-8.7-.6-7.8 5.7c0 .6.3 1.2.9 1.5 0 0 0-.6.9-.3h.9c.3 0 .9-.3 1.2-.6 0 0 2.4-.9 3.3-5.1 0 0 .6-.9.6-1.2l-1.5.6s.6 1.2 0 2.1c0 0 0-1.8-.3-1.8l-.9.3s.9 1.8.3 3.3c0 0 .3-2.4-.6-3l-1.2.6s.9 1.8.3 3.6c0 0 .3-2.4-.6-3.3l-.9.6s.9 1.8.3 3.3c0 0 0-2.7-.6-3l-.9.9s.6 1.5.3 2.1c0 0-.3-1.8-.6-1.8 0 0-.9 1.2-.9 2.1 0-.9.3-1.5.6-2.1-.6 0-.9.3-1.2.6 0 0 0-.9 1.5-.9 0 0 .6-.9.9-.9 0 0-1.2 0-2.1.3 0 0 .6-.9 2.4-.6l.9-.9s-1.8-.3-2.4 0c0 0 .9-.6 2.7-.3l.9-.6c-.9-.3-1.5-.3-2.4-.3 0 0 .9-.6 2.7 0l.6-.3s-1.2-.3-1.5-.3h-.3c.6 0 1.5 0 2.1.3.9 0 2.4-.6 2.4-.6z"/><ellipse class="st4" cx="64.9" cy="310.4" rx="6.3" ry="1.2"/><path class="st2" d="M88 289.4s-10.5-.6-9.3 6.9c0 .9.3 1.5.9 1.8 0 0 0-.6 1.2-.3H82c.6 0 .9-.3 1.5-.6 0 0 3-1.2 4.2-6l.9-1.2-1.8.9s.6 1.2 0 2.4c0 0 0-2.4-.3-2.4l-.9.6s1.2 2.4.3 3.9c0 0 .3-2.7-.6-3.6l-1.2.6s1.2 2.4.3 4.2c0 0 .3-3-.6-4.2l-1.2.9s1.2 2.4.6 3.9c0 0 0-3.3-.6-3.6l-1.2 1.2s.9 1.8.3 2.4c0 0-.3-2.4-.6-2.4 0 0-.9 1.5-1.2 2.4 0-.9.3-1.8.9-2.7-.6 0-1.2.3-1.5.9 0 0 .3-1.2 1.8-1.2l.9-1.2s-1.5 0-2.7.3c0 0 .9-.9 3-.6l1.2-.9s-2.1-.3-3 0c0 0 .9-.9 3.3-.3l1.2-.6s-1.8-.3-3-.3c0 0 1.2-.6 3.3 0l.9-.3s-1.2-.3-1.8-.3c-.3 0-.3-.3-.3-.3.9 0 1.8 0 2.4.3-.6.3 1.5-.3 1.5-.6z"/><ellipse class="st4" cx="80.5" cy="299" rx="7.5" ry="1.2"/><path class="st5" d="M250.3 305.6v3h-85.5v-2.7c14.4-5.4 21.9-21.6 16.5-36-2.7-6.9-7.8-12.6-14.7-15.9h83.1c-7.8 3.6-13.5 10.5-15.6 18.6-2.7 11.1 1.5 23.1 10.8 29.7 1.8 1.5 3.6 2.4 5.4 3.3z"/><path class="st6" d="M249.7 254c-7.8 3.6-13.5 10.5-15.6 18.6h-51.9c-2.1-8.1-7.8-15-15.6-18.6h83.1z"/><path class="st5" d="M67 239.3v16.2c0 9 6.6 16.2 14.7 16.2H333c8.1 0 14.7-7.2 14.7-16.2v-16.2H67z"/><path class="st6" d="M250.3 305.6v3h-85.5v-2.7c2.4-.9 4.5-2.1 6.6-3.6h73.5c1.8 1.5 3.6 2.4 5.4 3.3z"/><path class="st5" d="M140.2 303.5h134.9c1.8 0 3.6 1.5 3.6 3.6v1.5c0 1.8-1.5 3.6-3.6 3.6H140.2c-1.8 0-3.6-1.5-3.6-3.6v-1.5c0-2.1 1.5-3.6 3.6-3.6z"/><path d="M347.7 61.8c0-8.1-6.6-14.7-14.7-14.7H81.7c-8.1 0-14.7 6.6-14.7 14.7v180.8h280.7V61.8z" fill="#474157"/><path d="M339.9 68.3v155.3c0 3.9-3.3 7.2-7.2 7.2h-251c-3.9 0-7.2-3.3-7.2-7.2V68.3c0-3.9 3.3-7.2 7.2-7.2h251c3.9.1 7.2 3 7.2 7.2z" fill="#f4f4f7"/><circle class="st9" cx="207.4" cy="54" r="3.3"/><circle class="st9" cx="207.4" cy="256.4" r="8.4"/><path class="st9" d="M339.9 68.3H74.5c0-3.9 3.3-7.2 7.2-7.2h251c3.9.1 7.2 3 7.2 7.2z"/><circle class="st10" cx="81.7" cy="64.7" r="1.8"/><circle class="st10" cx="87.1" cy="64.7" r="1.8"/><circle class="st10" cx="92.8" cy="64.7" r="1.8"/><path class="st9" d="M99.7 88.1h214.1v125.1H99.7z"/><path class="st11" d="M136.3 194h7.8v1.5h-7.8V194zm3.9-3.9c.6 0 .9-.3.9-.9s-.3-.9-.9-.9h-.3l-2.1-1.5 1.5 2.1v.3c0 .3.3.9.9.9z"/><path class="st11" d="M140.2 182.6c-3.6 0-6.3 3-6.3 6.3 0 1.5.6 2.7 1.5 3.9h1.8l.6-.6-.6-.6-.6.6c-.6-.6-.9-1.8-1.2-2.7h.9v-.9h-1.2c0-.9.6-1.8 1.2-2.7l.6.6.6-.6-.6-.6c.6-.6 1.8-.9 2.7-1.2v.9h.9v-.9c.9 0 1.8.6 2.7 1.2l-.6.6.6.6.9-.6c.6.6.9 1.8 1.2 2.7h-1.2v.9h.9c0 .9-.6 1.8-1.2 2.7l-.6-.6-.6.6.6.6h1.8c2.1-2.7 1.8-6.9-1.2-9-.9-.9-2.1-1.2-3.6-1.2zm0-27c-.6 0-.9 0-1.2-.3h-.3v1.5l.3-.3h.3l.6.9h.3l.6-.9h.3l.3.3h.3v-1.5s0-.3-.3-.3c-.3.6-.9.6-1.2.6z"/><path class="st11" d="M144.4 151.7l-1.5-1.5c0-4.8-3-6.9-3-6.9s-3 2.1-3 6.9l-1.5 1.5v.3l.6 3.3s0 .3.3.3l2.1-1.5c.3.3.9.6 1.5.6s.9-.3 1.5-.6l2.1 1.5h.3l.6-3.9c.3 0 .3 0 0 0zm-4.2-3c-.6 0-.9-.3-.9-.9s.3-.9.9-.9.9.3.9.9c0 .3-.3.9-.9.9zm4.8-30.9c-.3 0-.6 0-.6-.3-.6-4.2-3-4.2-3-5.4 0-.9 2.7-1.2 3-5.4 0-.3.3-.3.3-.3h.3c.3 0 .3-.3.3-.3 0-.3-.3-.3-.3-.6h-9.9c-.3 0-.3.3-.3.3 0 .3.3.3.3.6h.3c.3 0 .3 0 .3.3.6 4.2 3 4.2 3 5.4 0 .9-2.7 1.2-3 5.4 0 .3-.3.3-.3.3h-.3c-.3 0-.3.3-.3.3 0 .3.3.3.3.6h9.9c.3 0 .3-.3.3-.3.3-.3 0-.6-.3-.6zm-7.8-.9c.9-2.4 2.4-2.1 2.4-3v-1.8c0-.6-1.2-.9-1.8-2.1v-.3h4.2s.3 0 .3.3c-.6.9-1.8 1.5-1.8 2.1v1.8c0 .9 1.5.6 2.4 3 0 .3 0 .6-.3.6h-5.4v-.6z"/><path d="M279.6 112.4c0 2.4-1.8 4.2-4.2 4.2H169.9c-2.4 0-4.2-1.8-4.2-3.9 0-2.4 1.8-4.2 3.9-4.2h105.9c2.3-.3 4.1 1.5 4.1 3.9zm0 38.1c0 2.4-1.8 4.2-4.2 4.2H169.9c-2.4 0-4.2-2.1-3.9-4.2 0-2.1 1.8-3.9 3.9-3.9h105.6c2.3-.3 4.1 1.8 4.1 3.9zm0 38.4c0 2.4-1.8 4.2-4.2 4.2H169.9c-2.4 0-4.2-1.8-4.2-3.9 0-2.4 1.8-4.2 3.9-4.2h105.9c2.3 0 4.1 1.8 4.1 3.9z" opacity=".2" fill="#5a5773"/><path class="st2" d="M258.3 108.2v8.1h-88.5c-2.4 0-4.2-1.8-4.2-3.9 0-2.4 1.8-4.2 3.9-4.2h88.8zm15.9 38.1v8.1H169.9c-2.4 0-4.2-2.1-3.9-4.2 0-2.1 1.8-3.9 3.9-3.9h104.3zM235.6 185v8.1h-65.7c-2.4 0-4.2-1.8-4.2-3.9 0-2.4 1.8-4.2 3.9-4.2h66z"/><linearGradient id="SVGID_1_" gradientUnits="userSpaceOnUse" x1="-272.506" y1="6653.388" x2="-272.506" y2="6444.606" gradientTransform="translate(605.84 -6337.02)"><stop offset="0" stop-color="gray" stop-opacity=".25"/><stop offset=".54" stop-color="gray" stop-opacity=".12"/><stop offset="1" stop-color="gray" stop-opacity=".1"/></linearGradient><path d="M383.7 173.3c.3-.6-1.2-3.6-1.2-3.9s-1.5-1.8-1.5-2.7c0-.9-2.1-3-2.1-3s-2.7-1.2-3-3.6c-.3-2.4-3.3-2.7-3.3-2.7v-.6c0-.9 0-2.1-.3-3-.3-.6-.9-1.2-1.8-1.5 0 0-.3-2.1-.9-2.7-.6-.6-.9-1.8-.6-2.7.3-.9-.3-3.3-1.8-3.6s-3-.9-3-.9h-1.8c-.3 0-.6 0-.9-.3-.6-.6-4.5-1.5-5.4-1.5s-3-.9-3-.9l-2.1-1.8c-.6-.6-1.8-2.4-1.8-2.7-.3-.3-.3-.9-.6-1.2.6-.9 1.5-1.5 1.8-2.7v-.3h.3c.6-.3.9-.6 1.2-1.2v-1.2c0-.3 0-.6.3-1.2.3-1.5 1.2-2.4 1.8-3.9 0-.3.3-.3.3-.6s0-.3.3-.6v-1.8c0-1.2 0-2.4-.6-3.6-.3-.9-.9-1.8-1.2-2.7-.6-1.5-.6-3-1.5-4.5-1.2-2.4-3.9-3.3-6.3-2.7-1.2.3-2.1 1.2-3.3 1.5-1.5.6-3 0-4.5 0-1.5-.3-3.3-.3-4.5.9-1.5 1.2-1.8 3.3-3.3 4.5-.6.6-1.2.9-1.8 1.5-.3.3-.6.9-.9 1.2v1.5c.3.3.3.9.6 1.2v.9c0 .3-.3.6-.6.6-.9.9-1.8 2.4-2.4 3.6 0 .3 0 .3-.3.6h1.8c.3 0 .6-.3.9-.3v.6c0 4.5 2.7 8.7 6.6 10.8v.6s-.9-.6-1.8.9c-.6.9-1.5 1.5-2.4 1.8 0 0-9.3 1.5-9.6 2.7l-4.2.3s-1.5.3-1.8 3.3c-.3 3-.9 3.6-.9 3.6s-1.8 3-1.5 4.8c.3 1.5-1.5 2.4-1.5 2.4l-.3 3s-1.8-.3-2.1 1.8c-.6 2.1-1.2 3-1.2 3s-2.7 2.4-3 4.2l-1.8 1.2s-3.9-.9-4.8-2.4l-.3-.3c-.6-.6-1.8-1.8-1.8-1.5v.9l-.3-.3v-1.2s-6-6.9-9.6-7.2c-.9.3-1.5.9-1.8 1.5-.6 1.5-.9 4.2.3 5.7l6 6.3h.3l1.2 1.8c-.3.6-.3.9-.6 1.5v.9c0 .6-.3.9-.3 1.2h-.3.6c1.8.9 10.5 4.8 11.1 5.1.6.6 3.9 2.7 6.9.9 3-1.5 3.6-4.2 3.6-4.2s3-4.2 3-4.8c0-.6 2.4-1.2 2.4-1.2s.3 6.6-.9 9.3c-1.2 2.4-3.3 13.5-3.3 13.5h.3v.6h.6c-.3 1.2-1.2 6.9-1.2 6.9s-.3 2.7-.9 3.6c-.6.9-.6 5.7-.6 5.7l-.9 3.3s0 .3.3.6c0 0 .9 1.8 2.4 3 0 .6-.3 1.2-.3 1.5-.3.9-.6 1.5-.3 2.4 0 0-.9 3.9-.9 5.1 0 1.2-.6 3.9-.6 3.9l-.9 8.7s-.6 7.5-.3 9.6c.3 2.1-.3 4.8-.3 4.8s.6 6 .6 6.6c-.3.6-.9 3.6-.6 5.1.6 1.5.3 5.7.3 5.7s.3 5.7.6 7.5c.3 1.8 0 4.2 0 4.2s-.3 3.9-.6 3.9c0 0-1.5 2.7 1.2 5.4s.9 2.1.9 2.1-2.1-1.2-1.8 1.2c.3 2.1.6 1.5.6 1.5l-.6 1.8h.3l-.3.3c-.3.3-.6.6-.9 1.2-.6.6-.6 1.5-.6 1.5s-3.6 4.2-7.2 6c-1.8 1.2-3.3 2.1-4.2 2.7-.6.6-.6 1.2.9 1.8 2.7.9 7.5 1.5 11.1.3 2.1-.6 3.9-1.8 5.4-3.6 0 0 2.1-1.2 4.2-.6 2.1.3 6.3-2.4 6.3-2.4v-.6l-.3-2.1c-.3-.3-.3-.9-.3-1.2 0-.6 0-1.2-.3-1.8v-.6h.3s-.6-2.7.3-3c.9-.6.6-7.2.6-7.2s-1.2-1.5-1.8-1.8c-.6-.3 0-3.3 0-3.9 0-.3.9-8.1.9-8.1s-.3-2.4 0-3.6c.3-1.2-.6-5.1-.6-5.1s-.3-.6.3-1.2.3-6 .3-6v-3.3c0-.6.6-3.3 1.2-4.2.6-.9.3-3.6.3-3.6v-.9l.9-4.5c.6-2.1 1.5-5.7 1.5-5.7l4.8-12.3s2.1 3.9 2.1 7.8c0 0 .6 4.5.3 5.7-.3 1.2.6 6.9.6 6.9s.6 8.1.6 8.4c0 .3.9 6.6 1.2 7.5.6.9-.6 3.9-.9 4.2-.3.3 0 7.8 0 7.8s-.9 5.7-.9 6.9c-.3 1.2-.9 5.7-.3 7.5.6 1.8.3 2.1.3 2.1s1.8 1.8.6 2.1c-1.5.3-2.4 1.8-2.1 3.3v.3c.6 1.8 1.5 3.6 2.1 5.4l.9-.3v3.6s.3 3 .3 3.6c-.3 1.2-.3 2.7-.3 3.9v.6s0 2.7 5.7 1.8c5.7-.9 6.6-3 6.6-3v-.3c0-.6.3-1.5.3-2.1.3-.9-1.5-4.5-1.5-4.5s-.3-2.4-.9-3c-.3-.3-.3-.6-.3-1.2v-.6h.3c.3 0-.3-1.8.9-2.4 1.2-.6.9-1.8.6-2.1-.3-.6.6-3.3.6-3.3-.3-.6 0-1.2.3-1.5.6-.6 1.2-5.7 1.2-5.7v-18.9s.3-3.3 0-4.8-.9-3.9-.3-4.8c.6-.6 0-3.9 0-3.9s0-6.9.9-8.7.6-12.6.6-12.6l.3-7.2s1.8-1.5 1.2-9.6c1.8 0 3.9-.3 4.2 0 .6.6 4.2 2.7 6.3 1.2.6-.3 2.4-2.1 2.4-2.1l-.9-15c.6.9.9 1.5.9 1.5 0-2.1 6-9 6-9s5.7-7.2 6.9-8.1 3.6-5.4 3.6-5.4c.3-.9.9-1.8 1.2-2.4.9.3-.9-2.1-.6-2.7zm-13.2 5.4c-1.5.3-4.8 3.6-4.8 4.5 0 .6-.3.9-.6 1.2v-.9c-.3-4.5-.6-9.9-.6-10.5.3-.9.3-5.1.3-5.1.9 3.3 4.2 6.9 4.2 6.9s.6 1.5 1.2 1.8c.6 0 .3 2.1.3 2.1z" fill="url(#SVGID_1_)"/><path class="st11" d="M289.5 177.5s1.8-9.6 7.8-9.6l4.2 9-3 2.1c.3-.3-6 0-9-1.5z"/><path class="st6" d="M301.5 176.9l-3 2.1s-4.5 0-7.5-.6c-.6 0-1.2-.3-1.5-.6v-.3c.3-1.2.6-2.4 1.2-3.6.3-.3.3-.9.6-1.2.9-1.8 2.1-3.3 3.9-4.2.6-.3 1.2-.6 2.1-.6h.3v.3l1.5 3 2.4 5.7z"/><path class="st11" d="M351 217.1s6.3-.6 6.9-.3c.6.3 4.2 2.7 6.3 1.2 2.1-1.5.6-6.6.6-6.6 0-.3-.3-7.2-.3-7.2l-3.6-5.1-4.8-8.7-9.6-.9.3 14.1v7.2l4.2 6.3z"/><path class="st6" d="M351 217.1s6.3-.6 6.9-.3c.6.3 4.2 2.7 6.3 1.2 2.1-1.5.6-6.6.6-6.6 0-.3-.3-7.2-.3-7.2l-3.6-5.1-4.8-8.7-9.6-.9.3 14.1v7.2l4.2 6.3z"/><path class="st14" d="M296.1 167.6s-.6 6-4.2 6.3c0 0-1.2-.6-2.4-1.8-3.3-2.4-8.7-7.2-7.2-11.7 2.1-6.3 12.3 5.4 12.3 5.4l.9.9.6.9z"/><path class="st6" d="M296.1 167.6s-.6 6-4.2 6.3c0 0-1.2-.6-2.4-1.8l-.3-.3c.6.3 1.5.6 2.1.6 1.2 0 2.4-.6 2.7-1.8.3-.9.9-1.5 1.2-2.4.3-.6.3-.9.3-1.5l.6.9z"/><path class="st15" d="M294.3 178.7l-.9-1.2-3-3.6-1.5-1.8c.6.3 1.5.6 2.1.6 1.2 0 2.4-.6 2.7-1.8.3-.9.9-1.5.9-2.4.6-1.2.6-2.1.3-2.4-.3-.3 1.2.9 1.5 1.5l.3.3v.3l1.5 3c.6.9 1.2 6.6-3.9 7.5z"/><path class="st11" d="M324.3 306.8s-4.2 2.7-6.3 2.4c-2.1-.3-4.2.6-4.2.6-1.5 1.5-3.3 2.7-5.4 3.3-3.3 1.2-8.1.6-10.8-.3-1.2-.3-1.5-.9-.9-1.5s2.1-1.8 4.2-2.7c3.3-2.1 7.2-6 7.2-6s0-.9.6-1.5l.9-.9c.6-.6.9-1.2.9-1.2l12.3.3s.3.9.3 1.8c0 .6.3 1.2.3 1.8 0 .3 0 .9.3 1.2l.3 2.1.3.6zm25.8 3.6c0 .6-.3 1.8-.3 2.1v.3s-.9 2.1-6.6 3c-5.7.9-5.4-1.8-5.4-1.8v-.6c0-1.2.3-2.7.3-3.9.3-.6-.3-3.6-.3-3.6v-5.1l9.3-.9c0 .6.3 1.5.3 2.1 0 .3.3.6.3.9.6.6.9 3 .9 3s1.5 3.6 1.5 4.5z"/><path class="st6" d="M323.1 299.3s.3.9.3 1.8c-1.2.3-7.2 1.2-8.7.6-1.5-.9-5.1-1.2-5.1-1.2v-.3c.6-.6.9-1.2.9-1.2l12.6.3zm24 2.7c-2.4-.3-7.5.6-9.3.9v-2.1l9.3-.9v2.1z"/><path class="st16" d="M352.5 226.4l-.3 6.9s.3 10.8-.6 12.3c-.6 1.8-.6 8.4-.6 8.4s.6 3.3 0 3.9c-.6.6-.3 3.3.3 4.5.3 1.2 0 4.8 0 4.8v18.9s-.6 4.8-1.2 5.7c-.3.3-.6.9-.3 1.5 0 0-.6 2.7-.6 3.3s.6 1.5-.6 2.1c-1.2.6-.9 2.4-.9 2.4-2.7-.6-10.5 1.2-10.5 1.2-.9-1.8-1.5-3.6-2.1-5.4-.6-1.5.3-3 1.8-3.6h.3c.9 0-.6-2.1-.6-2.1s.3-.3-.3-2.1 0-6.3.3-7.5c0-1.2.9-6.9.9-6.9s-.3-7.2 0-7.5c.3-.3 1.2-3.3.9-4.2-.6-.9-1.2-7.2-1.2-7.5 0-.3-.6-8.4-.6-8.4s-.6-5.7-.6-6.9c0-1.2-.3-5.7-.3-5.7 0-3.6-2.1-7.8-2.1-7.8l-4.5 12.3s-.6 3.6-1.5 5.7c-.3 1.5-.6 3-.9 4.2v.9s.3 2.7-.3 3.6c-.6.9-1.2 3.3-1.2 4.2v3.3s.3 5.4-.3 6c-.3.3-.3.6-.3 1.2 0 0 .9 3.9.6 5.1-.3.9 0 3.6 0 3.6s-.9 7.8-.9 8.1c0 .3-.6 3.6 0 3.6.6.3 1.8 1.8 1.8 1.8s.3 6.6-.6 6.9c-.9.6-.3 3-.3 3s-7.2 1.5-9 .6c-1.5-.9-5.1-1.2-5.1-1.2l.6-1.5s-.3.6-.6-1.5 1.8-1.2 1.8-1.2 1.5.3-.9-2.1c-2.7-2.7-1.2-5.1-1.2-5.1l.6-3.9s.6-2.4 0-4.2c-.3-1.8-.6-7.5-.6-7.5s.3-4.2-.3-5.7c-.3-1.5.3-4.2.3-5.1 0-.6-.3-6.6-.3-6.6s.6-2.7.3-4.8c-.3-2.1.3-9.6.3-9.6l.9-8.7s.6-2.7.6-3.9c0-1.2.6-4.8.6-4.8 0-.9 0-1.5.3-2.4.6-.9.6-4.2.6-4.2l4.8-11.1 2.4-9.6 31.8-.3s0 .9.3 2.4.6 3.9.9 6.6c.3 2.4.6 5.4.9 8.7-.9 11.1-2.7 12.9-2.7 12.9z"/><path class="st14" d="M349.5 139.1l-7.5 7.8s-9.6-3.9-8.4-5.1c.3-.6.3-2.1 0-3.9-.3-2.7-1.2-6-1.2-6s16.5-2.7 15.3 0c-.6.9-.3 2.1 0 3.3.3 1.5.9 2.7 1.8 3.9z"/><path class="st6" d="M347.7 132.2c-.6.9-.6 1.2-.3 2.1-2.1 2.4-4.8 4.8-8.4 4.8-1.8 0-3.6-.3-5.4-1.2-.3-2.7-1.2-6-1.2-6s16.8-2.4 15.3.3z"/><path class="st14" d="M351 127.1c0 6.6-5.4 12-12 12s-11.7-5.4-12-12v-.3c.3-6.6 5.7-11.7 12-11.7 6.6.3 11.7 5.7 12 12z"/><path class="st6" d="M352.5 205.4h-14.4c-6.9 0-13.8-1.2-16.5-.9-5.7.6 2.1-5.4 2.1-5.4 4.5 1.2 8.7 1.5 13.2 1.2h1.8c5.4-.3 10.5-.9 13.5-1.5-.3 1.5 0 3.9.3 6.6z"/><path d="M352.5 205.1h-14.4c-6.9 0-13.8-1.2-16.5-.9-5.7.6 2.1-5.4 2.1-5.4 4.5 1.2 8.7 1.5 13.2 1.2h1.8c5.4-.3 10.5-.9 13.5-1.5-.3 1.5 0 3.9.3 6.6z" fill="#e3a79f"/><path class="st6" d="M335.7 142.4l-9.3 4.2-7.2 54.6s4.2-1.8 6.6-.6c2.4 1.2 9.9 0 9.9 0s5.4-.3 6.3.3c.9.6 10.2-2.4 10.2-2.4s1.8-3.9.3-4.5c-1.2-.6.3-6.6.3-6.6l-.9-39.6-1.5-5.1-4.2-2.7-4.5 3.6-2.1.3-3.9-1.5z"/><path class="st15" d="M335.7 141.8l-9.3 4.2-6.9 54.9s4.2-1.8 6.6-.6c2.4 1.2 9.9 0 9.9 0s5.4-.3 6.3.3c.9.6 10.2-2.4 10.2-2.4s1.8-3.9.3-4.5c-1.2-.6.3-6.6.3-6.6l-.9-39.6-1.5-5.1-4.2-2.7-4.5 3.6-2.1.3-4.2-1.8z"/><path class="st6" d="M335.7 144.2s2.7 3 2.7 3.9c0 .6-.3 2.1-.3 2.1l-2.1 3.9s-1.2 5.1-1.2 6-1.8 10.2-1.8 10.2l-2.1 14.1-2.7 18.3 2.7 4.5 3.3-2.7 4.2-32.7.9-6.3s.9-11.7.9-12.9-.6-4.2-.6-4.2.6-3 3.3-3.6c2.7-.6-.3 0-.3 0l-1.5-1.2-1.2.6c.3 0-3.6-1.2-4.2 0z"/><path class="st16" d="M335.4 143.9s2.7 3 2.7 3.9c0 .6-.3 2.1-.3 2.1l-2.1 3.9s-1.2 5.1-1.2 6-1.8 10.2-1.8 10.2l-2.1 14.1-2.7 18.3 2.7 4.5 3.3-2.7 4.2-32.7.9-6.3s.9-11.7.9-12.9-.6-4.2-.6-4.2.6-3 3.3-3.6-.3-.3-.3-.3l-1.5-1.2-1.2.6c.3.3-3.6-.9-4.2.3z"/><path class="st6" d="M333.6 138.8s-.3.3-.6 2.4c0 2.1-1.5 6.6-1.5 6.6s5.1-3.6 7.8-3.3l-5.7-5.7z"/><path class="st15" d="M333.6 138.2s-.3.3-.6 2.4c0 2.1-1.5 6.6-1.5 6.6s5.1-3.6 7.8-3.3l-5.7-5.7z"/><path class="st6" d="M347.7 137.3l-8.1 7.2s6.9 4.2 7.8 5.1c.9.9 1.8-9.9 1.8-9.9l-1.5-2.4z"/><path class="st15" d="M348 136.7l-8.1 7.2s6.9 4.2 7.8 5.1c.9.9 1.8-9.9 1.8-9.9l-1.5-2.4z"/><path class="st6" d="M333.9 138.8s-.9-.3-1.8.9c-.6.9-1.5 1.5-2.4 1.8 0 0-9 1.5-9.3 2.7l-4.2.3s-1.5.3-1.5 3.3-.9 3.3-.9 3.3-1.8 3-1.5 4.8c0 1.5-1.2 2.4-1.2 2.4l6.3 16.2s.3 6.6-.9 9-3.3 13.2-3.3 13.2.9-.3.9.3-1.2 7.2-1.2 7.2-.3 2.7-.9 3.6-.6 5.7-.6 5.7l-.9 3.3s1.8 4.2 4.8 3.6c3-.6 8.1-12 8.1-12l3.3-12.3 2.7-12 .6-8.1 1.2-18 1.8-12c-.3 0 1.5-6.3.9-7.2z"/><path class="st11" d="M333.6 138.2s-.9-.3-1.8.9c-.6.9-1.5 1.5-2.4 1.8 0 0-9 1.5-9.3 2.7l-4.2.3s-1.5.3-1.5 3.3c-.3 3-.9 3.3-.9 3.3s-1.8 3-1.5 4.8c0 1.5-1.2 2.4-1.2 2.4l6.3 16.2s.3 6.6-.9 9c-1.2 2.4-3.3 13.2-3.3 13.2s.9-.3.9.3-1.2 7.2-1.2 7.2-.3 2.7-.9 3.6c-.6.9-.6 5.7-.6 5.7l-.9 3.3s1.8 4.2 4.8 3.6c3-.6 8.1-12 8.1-12l3.3-12.3 2.7-12 .6-8.1 1.2-18 1.8-12c-.3 0 1.5-6.3.9-7.2z"/><path class="st6" d="M301.5 176.9l-3 2.1s-4.5 0-7.5-.6l-1.5-.6h-.3.3c1.8.6 3 .6 3.9 0 4.2-1.5 3.6-8.1 3.6-9.6v-.3s0 .3.3.3l.3.3 1.5 3 2.4 5.4z"/><path class="st11" d="M311.7 157.4l-1.5.3-.3 2.7s-1.5-.3-2.1 1.8c-.6 1.8-1.2 2.7-1.2 2.7s-2.7 2.4-3 4.2l-1.8.9s-3.9-.9-4.8-2.4c0 0 1.8 12.9-7.8 9.6 0 0 10.8 4.8 11.1 5.4.3.6 3.9 2.4 6.9.9 3-1.5 3.6-3.9 3.6-3.9s3-3.9 3-4.5c0-.6 2.4-1.2 2.4-1.2l4.2-10.5-8.7-6z"/><path class="st6" d="M346.5 143.3l1.5-6.6s.6 2.1 1.2 2.7l2.1 1.5s2.1.9 3 .9 4.8.9 5.4 1.5c.6.6 2.4.3 2.4.3s1.5.6 3 .9c1.5.3 2.1 2.7 1.8 3.6-.3.9 0 2.1.6 2.7.6.6.9 2.4.9 2.4.6.3 1.2.9 1.8 1.5.6 1.2.3 3.6.3 3.6l-7.5 10.5s0 3.9-.3 4.8.9 16.2.9 16.2l1.5 26.1s-2.1 1.8-2.4 1.8c-.3.3-.9-9.3-.9-9.6 0-.3-11.4-17.4-11.4-17.4s-1.5-2.4-1.5-3-1.5-5.7-1.5-5.7l-2.1-9.6 1.2-29.1z"/><path class="st11" d="M371.4 157.7v.6l-7.5 10.5s0 3.9-.3 4.8c-.3.6.3 6 .6 10.2.3 3.3.6 6 .6 6l.6 11.1.9 15s-2.1 1.8-2.4 1.8c-.3.3-.9-9.3-.9-9.6 0-.3-11.4-17.1-11.4-17.1s-1.5-2.4-1.5-3c0-.6-1.5-5.7-1.5-5.7l-2.1-9.6.9-29.7.9-6.6s1.2 2.1 1.8 2.7c.6.6 2.1 1.5 2.1 1.5s2.1.9 3 .9c.6 0 4.8.9 5.4 1.5.6.6 2.4.3 2.4.3s1.5.6 3 .9c1.5.3 2.1 2.7 1.8 3.6-.3.9 0 2.1.6 2.7.6.6.9 2.4.9 2.4.6.3 1.2.9 1.8 1.5.3 1.2.3 2.7.3 3.3z"/><path class="st6" d="M310.5 290.6c.3 0 10.8.3 10.5 2.1-.3 1.8-10.5-2.1-10.5-2.1zm2.4 3s6.9 1.2 5.1 2.1c-1.8.9-5.1-2.1-5.1-2.1zm26.1-3.9s11.7.9 9.9 2.4c-1.8 1.2-6 1.5-6 1.5-.3 0-3.9-3.9-3.9-3.9zm-1.5 5.1s6.6 1.2 6.6 2.4-6.6-2.4-6.6-2.4zm3.6-30s6 1.5 6.3 2.4l-6.3-2.4zm-22.8 4.2s-3 .9 0 2.7c2.7 1.8 0-2.7 0-2.7zm13.5-48c.3 0 5.7-1.8 7.8-.9 1.5.6 2.7.9 4.2.9h-12zm.9 5.7v.6l-4.5 12.3s-.6 3.6-1.5 5.7c-.3 1.5-.6 3-.9 4.2L330 224l2.7 2.7z"/><path class="st16" d="M339.9 205.4h-1.8l-1.2-5.1h1.8l1.2 5.1z"/><path class="st14" d="M363.3 199.1l-1.2.9-4.2 3.3s-11.1 6-14.4.3c-2.7-5.1 9.9-8.7 13.2-9.3l.6-.3 6 5.1z"/><path class="st6" d="M315.6 150.2s2.1.9 2.7 2.4c.3 1.2-2.7-2.4-2.7-2.4zm-6.9 15s-3.3 3.9-1.8 5.4c1.5 1.5 1.8-5.4 1.8-5.4zm57-12.9s-3 .3-3 3l3-3zm-27.6 40.8c.3-.3 7.2-10.5 8.7-9.6l-8.7 9.6zm12.9-66c0 2.1-.6 3.9-1.5 5.7-.6-.3-1.2-.9-1.8-1.5-.6-.6-1.8-.9-2.7-.3-.9.6-1.5 1.5-1.2 2.7-.3-1.5-.3-3.3-.6-4.8s-1.5-3.3-3-3.3c-.6 0-1.5.3-1.8-.3-.3-.3-.3-.9-.6-1.2-1.2-1.8-4.5-.9-5.7 0-1.5.9-3 2.4-4.5 3 .3-6.6 5.7-11.7 12-11.7 6 0 11.1 5.4 11.4 11.7z"/><path class="st16" d="M337.5 123.5c.3.3.3.9.6 1.2.6.6 1.2.3 1.8.3 1.5 0 2.7 1.5 3 3.3.3 1.5.3 3.3.6 4.8 0-.9.3-2.1 1.2-2.7.9-.6 2.1-.3 2.7.3.6.6.9 1.5 1.8 1.5.9.3 1.5-.6 1.8-1.5.3-.9.3-1.8.3-2.4.3-1.5 1.5-2.7 1.8-4.2.6-1.8.6-3.9 0-5.7-.3-.9-.9-1.8-1.2-2.7-.6-1.5-.6-3-1.5-4.5-1.2-2.4-3.9-3.3-6.3-2.4-1.2.3-2.1 1.2-3 1.5-1.5.6-3 0-4.5 0-1.5-.3-3.3-.3-4.5.9-1.5 1.2-1.8 3.3-3 4.5-.6.6-1.2.9-1.8 1.5-.6.6-1.2 1.2-.9 2.1 0 .9 1.2 2.1.6 3 0 .3-.3.6-.6.6-1.2 1.2-1.8 2.7-2.4 4.2 2.7.9 5.4-2.1 7.5-3.6 1.5-.9 4.8-1.8 6 0z"/><path class="st6" d="M363.3 199.1l-1.2.9c-1.2-1.8-5.7-5.4-5.7-5.4l.3-.3.6-.3 6 5.1z"/><path class="st15" d="M364.5 197.3s-.3 1.2-.9 2.1c-.6.9-.9 1.8-.9 1.2 0-1.5-5.7-6-5.7-6l.9-.9.9-.9 5.7 4.5z"/><path class="st6" d="M364.8 189.8l.6 11.1c-1.5-2.4-5.7-8.7-8.4-8.4l6.6-7.5.9-.9c0 3.3.3 5.7.3 5.7z"/><path class="st6" d="M364.5 197.3s-.3 1.2-.9 2.1c-1.8-2.4-4.2-5.1-6-5.7l.9-.9 6 4.5z"/><path class="st11" d="M369.6 157.1l1.8 1.5s3 0 3.3 2.4c.3 2.4 3 3.6 3 3.6s2.1 2.1 2.1 3 1.5 2.7 1.5 2.7 1.5 3.3 1.2 3.6c-.3.6 1.5 3 .9 3.9-.6.9-.9 1.5-1.2 2.4 0 0-2.4 4.5-3.6 5.4-1.2.9-6.6 8.1-6.6 8.1s-6 6.9-6 9c0 0-5.7-9.6-9-9.3l6.6-7.5s1.2-1.2 1.2-2.1c0-.6 3.3-4.2 4.8-4.2 0 0 .3-2.1-.3-2.1s-1.2-1.5-1.2-1.5-4.5-5.1-4.5-8.4c0-3.9 6-10.5 6-10.5z"/><path class="st6" d="M372.3 161.6s-4.2 3-3.3 4.2c.9.9 3.3-4.2 3.3-4.2zm0 12.9s7.8-2.4 8.7 0h-8.7zm-48 132.3s-4.2 2.7-6.3 2.4c-2.1-.3-4.2.6-4.2.6-1.5 1.5-3.3 2.7-5.4 3.3-3.3 1.2-8.1.6-10.8-.3-1.2-.3-1.5-.9-.9-1.5 3 .6 9.6 1.8 11.1.9 2.4-1.2 5.7-3.6 5.7-3.6s4.2-.6 4.8-.6c.3 0 3.6-1.5 5.7-2.1l.3.9zm25.2 5.7c0 .3 0 .3 0 0 0 .3-.9 2.4-6.6 3.3s-5.4-1.8-5.4-1.8v-.6c1.8.6 5.7 1.2 12-.9zM317.4 161s0 11.4-.9 12.6.9-12.6.9-12.6zm45 3.9l1.5 4.2c0-.3.6-4.2-1.5-4.2z"/><g opacity=".1"><path d="M327.3 121.1c.3-.9-.6-1.8-.6-3 0 .3-.3.6-.3.9 0 .9.6 1.8.9 2.1 0 .3 0 .3 0 0zm16.5 10.8c-.3-1.5-.3-3.3-.6-4.8s-1.5-3.3-3-3.3c-.6 0-1.5.3-1.8-.3-.3-.3-.3-.9-.6-1.2-1.2-1.8-4.5-.9-5.7 0-2.1 1.5-4.8 4.2-7.5 3.6 0 .3-.3.6-.3.9 2.7.9 5.4-2.1 7.5-3.6 1.5-.9 4.8-1.8 5.7 0 .3.3.3.9.6 1.2.6.6 1.2.3 1.8.3 1.5 0 2.7 1.5 3 3.3.3 1.5.3 3.3.6 4.8 0 0 .3-.6.3-.9z"/><path d="M351.3 130.1c-.3.9-.9 1.5-1.8 1.5-.9-.3-1.2-.9-1.8-1.5-.6-.6-1.8-.9-2.7-.3-.9.6-1.5 1.5-1.2 2.4.3-.6.6-1.2 1.2-1.5.9-.6 2.1-.3 2.7.3.6.6.9 1.5 1.8 1.5.9.3 1.5-.6 1.8-1.5 0-.6.3-.9.3-1.5-.3.3-.3.3-.3.6zm2.4-6.9c-.6 1.5-1.5 2.7-1.8 4.2v.9c.3-1.5 1.2-2.7 1.8-4.2.3-.6.3-1.5.6-2.1-.6.6-.6.9-.6 1.2z"/></g><ellipse transform="rotate(-80.781 194.177 150.513)" cx="194.2" cy="150.5" rx="6.9" ry="6.9" fill="#6c63ff"/><path class="st20" d="M207.7 96.5l-60 108.3h119.6z"/><path class="st9" d="M207.7 104.9l-52.8 96h105.2z"/><linearGradient id="SVGID_2_" gradientUnits="userSpaceOnUse" x1="207.669" y1="-1186.162" x2="207.669" y2="-1173.282" gradientTransform="matrix(1 0 0 -1 0 -988.894)"><stop offset="0" stop-color="gray" stop-opacity=".25"/><stop offset=".54" stop-color="gray" stop-opacity=".12"/><stop offset="1" stop-color="gray" stop-opacity=".1"/></linearGradient><circle cx="207.7" cy="191" r="6.6" fill="url(#SVGID_2_)"/><circle class="st20" cx="207.7" cy="191" r="5.4"/><linearGradient id="SVGID_3_" gradientUnits="userSpaceOnUse" x1="207.669" y1="-1169.313" x2="207.669" y2="-1131.089" gradientTransform="matrix(1 0 0 -1 0 -988.894)"><stop offset="0" stop-color="gray" stop-opacity=".25"/><stop offset=".54" stop-color="gray" stop-opacity=".12"/><stop offset="1" stop-color="gray" stop-opacity=".1"/></linearGradient><path fill="url(#SVGID_3_)" d="M205.9 142.1h3.6v38.1h-3.6z"/><path class="st20" d="M206.5 142.4h2.1v37.2h-2.1z"/></svg>