<svg version="1.1" id="fb638577-3af1-4e62-8e8d-f046cc0653af" xmlns="http://www.w3.org/2000/svg" x="0" y="0" viewBox="0 0 141.7 106.7" xml:space="preserve"><style>.st0{opacity:.1;fill:#3c6fe9;enable-background:new}.st1{fill:none;stroke:#535461;stroke-width:.2464;stroke-miterlimit:10}.st2{fill:#3c6fe9}.st4{fill:#c8cad7}.st5{opacity:.1;enable-background:new}.st8{fill:#fff}.st9{fill:#ededf4}.st10{fill:#65617d}.st13{fill:#fbbebe}.st14{fill:#e7effd}.st15{fill:#3f3d56}.st19{fill:#e9425e}</style><path class="st0" d="M137.9 73.1c-.1.1-.3.2-.4.3-.5.3-1 .6-1.6.9-2.9 1.3-6.5 2-9.9 2.4-7.8 1-15.7 1.2-23.6 1.4-21.4.5-42.8 1-64.1-.2-8.4-.5-17-1.3-24.7-3.7-1.1-.3-2.2-.7-3.2-1.1-2.1-.8-4.2-1.9-5.9-3.1-1.6-1.1-2.9-2.5-3.7-3.9-1.6-3.1-.8-6.6 1.1-9.7.8-1.2 1.6-2.4 2.6-3.5 1.4-1.7 3-3.4 4.4-5.1 5.1-6.1 8.4-13.8 3.7-20.1-1.4-1.8-3.3-3.4-4.4-5.2-1.4-2.4-1.3-5.1-.9-7.6.1-.3.1-.7.2-1 .8-3.8 2.2-8 6.6-10.4C18.8 1 25.3 1.1 31 2c8.9 1.4 17.1 4.3 25.3 6.9s16.9 5 26 5.3c8 .2 17.4-1.5 22.7-5.9 5.2-4.3 14.9-4.6 21.9-2 4.8 1.8 8.4 5 9.9 8.6.3.7.5 1.5.7 2.2.1.7.2 1.4.1 2.1 0 .3-.1.7-.1 1-1.2 7.1-9.6 12.7-14.7 19-2.5 3.1-4.3 6.8-2.5 10.2 2.6 5.1 11.8 6.9 17.3 10.7 1.1.7 2 1.5 2.7 2.4 2.6 3.4 1.6 7.9-2.4 10.6z"/><g id="bcb547b9-8dd8-4d76-924a-52de61933c6c"><path class="st1" d="M36.3 40s-5.7-10-14.2-12.9c-3.6-1.2-6.7-3.5-8.9-6.6-1-1.5-1.9-3.1-2.6-4.7"/><path class="st2" d="M5.3 13.9c1 .9 5.5 1.9 5.5 1.9s-1.1-4.5-2.1-5.4c-1-.9-2.5-.9-3.5.1-.9.9-.9 2.5.1 3.4zm2.6 8.2c1.3.3 5.7-1.4 5.7-1.4s-3.4-3.2-4.7-3.4c-1.3-.2-2.6.7-2.8 2-.4 1.2.5 2.5 1.8 2.8zm9.3 8.8c1.3-.4 4.2-4 4.2-4s-4.5-1-5.8-.6c-1.3.4-2 1.8-1.6 3.1.4 1.3 1.8 2 3.1 1.6 0-.1 0-.1.1-.1zm8.6 5c1.3-.2 4.8-3.3 4.8-3.3S26.3 30.8 25 31c-1.3.2-2.2 1.5-2 2.8.1 1.5 1.4 2.4 2.8 2.1zm-8.5-18.7c0 1.4-2.5 5.3-2.5 5.3s-2.5-3.9-2.5-5.3 1-2.5 2.4-2.5 2.5 1 2.5 2.4c.1 0 .1 0 .1.1zm9.9 6c-.4 1.3-3.9 4.3-3.9 4.3s-1.2-4.5-.8-5.8c.5-1.3 1.9-1.9 3.1-1.5 1.3.5 2 1.8 1.6 3zm8.9 7.2c-.2 1.3-3.1 4.9-3.1 4.9s-1.9-4.2-1.7-5.6c.2-1.3 1.4-2.3 2.7-2.1 1.3.2 2.3 1.4 2.1 2.8z"/><path d="M5.3 13.9c1 .9 5.5 1.9 5.5 1.9s-1.1-4.5-2.1-5.4c-1-.9-2.5-.9-3.5.1-.9.9-.9 2.5.1 3.4zm2.6 8.2c1.3.3 5.7-1.4 5.7-1.4s-3.4-3.2-4.7-3.4c-1.3-.2-2.6.7-2.8 2-.4 1.2.5 2.5 1.8 2.8zm9.3 8.8c1.3-.4 4.2-4 4.2-4s-4.5-1-5.8-.6c-1.3.4-2 1.8-1.6 3.1.4 1.3 1.8 2 3.1 1.6 0-.1 0-.1.1-.1zm8.6 5c1.3-.2 4.8-3.3 4.8-3.3S26.3 30.8 25 31c-1.3.2-2.2 1.5-2 2.8.1 1.5 1.4 2.4 2.8 2.1zm-8.5-18.7c0 1.4-2.5 5.3-2.5 5.3s-2.5-3.9-2.5-5.3 1-2.5 2.4-2.5 2.5 1 2.5 2.4c.1 0 .1 0 .1.1zm9.9 6c-.4 1.3-3.9 4.3-3.9 4.3s-1.2-4.5-.8-5.8c.5-1.3 1.9-1.9 3.1-1.5 1.3.5 2 1.8 1.6 3zm8.9 7.2c-.2 1.3-3.1 4.9-3.1 4.9s-1.9-4.2-1.7-5.6c.2-1.3 1.4-2.3 2.7-2.1 1.3.2 2.3 1.4 2.1 2.8z" opacity=".25"/><path class="st1" d="M36 39.8s-1.1-11.5-7.7-17.6c-2.8-2.6-4.7-5.9-5.4-9.6-.3-1.8-.5-3.6-.5-5.4"/><path class="st2" d="M18.2 3.4c.5 1.3 4.3 4 4.3 4s.8-4.6.3-5.8C22.3.3 20.9-.3 19.6.2s-1.9 1.9-1.4 3.2zm-.9 8.5c1.1.8 5.7 1 5.7 1s-1.8-4.3-2.9-5.1c-1.1-.8-2.6-.5-3.4.6-.8 1.2-.5 2.7.6 3.5zm4.9 11.8c1.4.1 5.5-2 5.5-2s-3.7-2.8-5.1-2.9c-1.3-.1-2.6.8-2.7 2.2-.1 1.3.8 2.6 2.2 2.7h.1zm5.8 8.1c1.3.3 5.7-1 5.7-1s-3.2-3.4-4.5-3.7c-1.3-.3-2.7.4-3 1.8-.3 1.2.5 2.6 1.8 2.9zm-.1-20.6c-.5 1.2-4.4 3.8-4.4 3.8s-.7-4.6-.1-5.8c.6-1.2 2-1.7 3.2-1.2 1.2.6 1.8 2 1.3 3.2zm6.6 9.6c-.9 1-5.3 2.4-5.3 2.4s.7-4.6 1.6-5.6c.9-1 2.4-1.2 3.5-.3 1 .8 1.1 2.4.2 3.5 0-.1 0 0 0 0zM39.7 31c-.7 1.2-4.9 3.2-4.9 3.2s0-4.6.7-5.8c.7-1.2 2.2-1.5 3.4-.8 1.1.7 1.5 2.2.8 3.4z"/></g><ellipse class="st0" cx="78.8" cy="104.7" rx="41.3" ry="2.1"/><path class="st2" d="M32.8 100.7s-5.2-.3-4.6 3.3c0 0-.1.6.5.9 0 0 0-.3.5-.2h.6c.3 0 .5-.1.7-.3 0 0 1.5-.6 2-3 0 0 .4-.5.4-.7l-.9.4s.3.6.1 1.2c0 0 0-1.1-.2-1.1l-.5.2s.5 1.1.1 1.9c0 0 .1-1.4-.3-1.8l-.6.4s.6 1.1.2 2.1c0 0 .1-1.4-.3-2l-.6.4s.6 1.1.2 1.9c0 0 0-1.7-.3-1.8 0 0-.5.4-.6.6 0 0 .4.8.1 1.2 0 0-.1-1.1-.3-1.1 0 0-.5.7-.5 1.2 0 0 0-.7.4-1.3-.3.1-.5.2-.7.4 0 0 .1-.5.9-.6 0 0 .4-.6.5-.6 0 0-.8-.1-1.3.1 0 0 .4-.5 1.4-.3l.6-.5s-1-.1-1.5 0c0 0 .5-.4 1.6-.1l.6-.4s-.9-.2-1.4-.1c0 0 .6-.3 1.6 0l.4-.2s-.6-.1-.8-.1c-.2 0-.2-.1-.2-.1.4-.1.8 0 1.2.1.1.4 1 .1 1 0z"/><ellipse class="st0" cx="29.2" cy="105.3" rx="3.7" ry=".6"/><path class="st2" d="M23.7 100.9s-2.9-.2-2.6 1.9c0 .2.1.4.3.5 0 0 0-.2.3-.1h.3c.1 0 .3-.1.4-.2 0 0 .8-.3 1.1-1.7 0 0 .2-.3.2-.4l-.5.2s.2.4 0 .7c0 0 0-.6-.1-.6l-.3.1s.3.6.1 1.1c0 0 .1-.8-.2-1l-.4.2s.3.6.1 1.2c0 0 .1-.8-.2-1.1l-.3.2s.3.6.1 1.1c0 0 0-.9-.2-1l-.3.3s.2.5.1.7c0 0-.1-.6-.2-.6 0 0-.3.4-.3.7 0-.3.1-.5.2-.7-.2 0-.3.1-.4.2 0 0 0-.3.5-.3 0 0 .2-.3.3-.3 0 0-.4 0-.7.1 0 0 .2-.3.8-.2l.3-.3s-.6-.1-.8 0c0 0 .3-.2.9-.1l.3-.2c-.3-.1-.5-.1-.8-.1 0 0 .3-.2.9 0l.2-.1s-.4-.1-.5-.1h-.1c.2 0 .5 0 .7.1.3 0 .8-.2.8-.2z"/><ellipse class="st0" cx="21.6" cy="103.5" rx="2.1" ry=".4"/><path class="st2" d="M29.3 96.5s-3.5-.2-3.1 2.3c0 .3.1.5.3.6 0 0 0-.2.4-.1h.4c.2 0 .3-.1.5-.2 0 0 1-.4 1.4-2l.3-.4-.6.3s.2.4 0 .8c0 0 0-.8-.1-.8l-.3.2s.4.8.1 1.3c0 0 .1-.9-.2-1.2l-.4.2s.4.8.1 1.4c0 0 .1-1-.2-1.4l-.4.3s.4.8.2 1.3c0 0 0-1.1-.2-1.2l-.4.4s.3.6.1.8c0 0-.1-.8-.2-.8 0 0-.3.5-.4.8 0-.3.1-.6.3-.9-.2 0-.4.1-.5.3 0 0 .1-.4.6-.4l.3-.4s-.5 0-.9.1c0 0 .3-.3 1-.2l.4-.3s-.7-.1-1 0c0 0 .3-.3 1.1-.1l.4-.2s-.6-.1-1-.1c0 0 .4-.2 1.1 0l.3-.1s-.4-.1-.6-.1c-.1 0-.1-.1-.1-.1.3 0 .6 0 .8.1-.2.1.5-.1.5-.2z"/><ellipse class="st0" cx="26.8" cy="99.7" rx="2.5" ry=".4"/><path class="st4" d="M83.4 101.9v1H54.9v-.9c4.8-1.8 7.3-7.2 5.5-12-.9-2.3-2.6-4.2-4.9-5.3h27.7c-2.6 1.2-4.5 3.5-5.2 6.2-.9 3.7.5 7.7 3.6 9.9.6.5 1.2.8 1.8 1.1z"/><path class="st5" d="M83.2 84.7c-2.6 1.2-4.5 3.5-5.2 6.2H60.7c-.7-2.7-2.6-5-5.2-6.2h27.7z"/><path class="st4" d="M22.3 79.8v5.4c0 3 2.2 5.4 4.9 5.4H111c2.7 0 4.9-2.4 4.9-5.4v-5.4H22.3z"/><path class="st5" d="M83.4 101.9v1H54.9v-.9c.8-.3 1.5-.7 2.2-1.2h24.5c.6.5 1.2.8 1.8 1.1z"/><path class="st4" d="M46.7 101.2h45c.6 0 1.2.5 1.2 1.2v.5c0 .6-.5 1.2-1.2 1.2h-45c-.6 0-1.2-.5-1.2-1.2v-.5c0-.7.5-1.2 1.2-1.2z"/><path d="M115.9 20.6c0-2.7-2.2-4.9-4.9-4.9H27.2c-2.7 0-4.9 2.2-4.9 4.9v60.3h93.6V20.6z" fill="#474157"/><path d="M113.3 22.8v51.8c0 1.3-1.1 2.4-2.4 2.4H27.2c-1.3 0-2.4-1.1-2.4-2.4V22.8c0-1.3 1.1-2.4 2.4-2.4h83.7c1.3 0 2.4 1 2.4 2.4z" fill="#f4f4f7"/><circle class="st8" cx="69.1" cy="18" r="1.1"/><circle class="st8" cx="69.1" cy="85.5" r="2.8"/><path class="st8" d="M113.3 22.8H24.8c0-1.3 1.1-2.4 2.4-2.4h83.7c1.3 0 2.4 1 2.4 2.4z"/><circle class="st9" cx="27.2" cy="21.6" r=".6"/><circle class="st9" cx="29" cy="21.6" r=".6"/><circle class="st9" cx="30.9" cy="21.6" r=".6"/><path class="st8" d="M33.2 29.4h71.4v41.7H33.2z"/><path class="st10" d="M45.4 64.7H48v.5h-2.6v-.5zm1.3-1.3c.2 0 .3-.1.3-.3 0-.2-.1-.3-.3-.3h-.1l-.7-.5.5.7v.1c0 .1.1.3.3.3z"/><path class="st10" d="M46.7 60.9c-1.2 0-2.1 1-2.1 2.1 0 .5.2.9.5 1.3h.6l.2-.2-.2-.2-.2.2c-.2-.2-.3-.6-.4-.9h.3v-.3H45c0-.3.2-.6.4-.9l.2.2.2-.2-.2-.2c.2-.2.6-.3.9-.4v.3h.3v-.3c.3 0 .6.2.9.4l-.2.2.2.2.3-.2c.2.2.3.6.4.9H48v.3h.3c0 .3-.2.6-.4.9l-.2-.2-.2.2.2.2h.6c.7-.9.6-2.3-.4-3-.3-.3-.7-.4-1.2-.4zm0-9c-.2 0-.3 0-.4-.1h-.1v.5l.1-.1h.1l.2.3h.1l.2-.3h.1l.1.1h.1v-.5s0-.1-.1-.1c-.1.2-.3.2-.4.2z"/><path class="st10" d="M48.1 50.6l-.5-.5c0-1.6-1-2.3-1-2.3s-1 .7-1 2.3l-.5.5v.1l.2 1.1s0 .1.1.1l.7-.5c.1.1.3.2.5.2s.3-.1.5-.2l.7.5h.1l.2-1.3c.1 0 .1 0 0 0zm-1.4-1c-.2 0-.3-.1-.3-.3s.1-.3.3-.3c.2 0 .3.1.3.3 0 .1-.1.3-.3.3zm1.6-10.3c-.1 0-.2 0-.2-.1-.2-1.4-1-1.4-1-1.8 0-.3.9-.4 1-1.8 0-.1.1-.1.1-.1h.1c.1 0 .1-.1.1-.1 0-.1-.1-.1-.1-.2H45c-.1 0-.1.1-.1.1 0 .1.1.1.1.2h.1c.1 0 .1 0 .1.1.2 1.4 1 1.4 1 1.8 0 .3-.9.4-1 1.8 0 .1-.1.1-.1.1H45c-.1 0-.1.1-.1.1 0 .1.1.1.1.2h3.3c.1 0 .1-.1.1-.1.1-.1 0-.2-.1-.2zm-2.6-.3c.3-.8.8-.7.8-1v-.6c0-.2-.4-.3-.6-.7v-.1h1.4s.1 0 .1.1c-.2.3-.6.5-.6.7v.6c0 .3.5.2.8 1 0 .1 0 .2-.1.2h-1.8V39z"/><path d="M93.2 37.5c0 .8-.6 1.4-1.4 1.4H56.6c-.8 0-1.4-.6-1.4-1.3 0-.8.6-1.4 1.3-1.4h35.3c.8-.1 1.4.5 1.4 1.3zm0 12.7c0 .8-.6 1.4-1.4 1.4H56.6c-.8 0-1.4-.7-1.3-1.4 0-.7.6-1.3 1.3-1.3h35.2c.8-.1 1.4.6 1.4 1.3zm0 12.8c0 .8-.6 1.4-1.4 1.4H56.6c-.8 0-1.4-.6-1.4-1.3 0-.8.6-1.4 1.3-1.4h35.3c.8 0 1.4.6 1.4 1.3z" opacity=".2" fill="#5a5773"/><path class="st2" d="M86.1 36.1v2.7H56.6c-.8 0-1.4-.6-1.4-1.3 0-.8.6-1.4 1.3-1.4h29.6zm5.3 12.7v2.7H56.6c-.8 0-1.4-.7-1.3-1.4 0-.7.6-1.3 1.3-1.3h34.8zM78.5 61.7v2.7H56.6c-.8 0-1.4-.6-1.4-1.3 0-.8.6-1.4 1.3-1.4h22z"/><linearGradient id="SVGID_1_" gradientUnits="userSpaceOnUse" x1="-494.674" y1="-773.234" x2="-494.674" y2="-703.641" gradientTransform="matrix(1 0 0 -1 605.84 -667.728)"><stop offset="0" stop-color="gray" stop-opacity=".25"/><stop offset=".54" stop-color="gray" stop-opacity=".12"/><stop offset="1" stop-color="gray" stop-opacity=".1"/></linearGradient><path d="M127.9 57.8c.1-.2-.4-1.2-.4-1.3s-.5-.6-.5-.9c0-.3-.7-1-.7-1s-.9-.4-1-1.2-1.1-.9-1.1-.9v-.2c0-.3 0-.7-.1-1-.1-.2-.3-.4-.6-.5 0 0-.1-.7-.3-.9-.2-.2-.3-.6-.2-.9.1-.3-.1-1.1-.6-1.2-.5-.1-1-.3-1-.3h-.6c-.1 0-.2 0-.3-.1-.2-.2-1.5-.5-1.8-.5s-1-.3-1-.3l-.7-.6c-.2-.2-.6-.8-.6-.9-.1-.1-.1-.3-.2-.4.2-.3.5-.5.6-.9v-.1h.1c.2-.1.3-.2.4-.4v-.4c0-.1 0-.2.1-.4.1-.5.4-.8.6-1.3 0-.1.1-.1.1-.2s0-.1.1-.2v-.6c0-.4 0-.8-.2-1.2-.1-.3-.3-.6-.4-.9-.2-.5-.2-1-.5-1.5-.4-.8-1.3-1.1-2.1-.9-.4.1-.7.4-1.1.5-.5.2-1 0-1.5 0-.5-.1-1.1-.1-1.5.3-.5.4-.6 1.1-1.1 1.5-.2.2-.4.3-.6.5-.1.1-.2.3-.3.4v.5c.1.1.1.3.2.4v.3c0 .1-.1.2-.2.2-.3.3-.6.8-.8 1.2 0 .1 0 .1-.1.2h.6c.1 0 .2-.1.3-.1v.2c0 1.5.9 2.9 2.2 3.6v.2s-.3-.2-.6.3c-.2.3-.5.5-.8.6 0 0-3.1.5-3.2.9l-1.4.1s-.5.1-.6 1.1-.3 1.2-.3 1.2-.6 1-.5 1.6c.1.5-.5.8-.5.8l-.1 1s-.6-.1-.7.6c-.2.7-.4 1-.4 1s-.9.8-1 1.4l-.6.4s-1.3-.3-1.6-.8l-.1-.1c-.2-.2-.6-.6-.6-.5v.3l-.1-.1V55s-2-2.3-3.2-2.4c-.3.1-.5.3-.6.5-.2.5-.3 1.4.1 1.9l2 2.1h.1l.4.6c-.1.2-.1.3-.2.5v.3c0 .2-.1.3-.1.4h-.1.2c.6.3 3.5 1.6 3.7 1.7.2.2 1.3.9 2.3.3 1-.5 1.2-1.4 1.2-1.4s1-1.4 1-1.6c0-.2.8-.4.8-.4s.1 2.2-.3 3.1c-.4.8-1.1 4.5-1.1 4.5h.1v.2h.2c-.1.4-.4 2.3-.4 2.3s-.1.9-.3 1.2-.2 1.9-.2 1.9l-.3 1.1s0 .1.1.2c0 0 .3.6.8 1 0 .2-.1.4-.1.5-.1.3-.2.5-.1.8 0 0-.3 1.3-.3 1.7 0 .4-.2 1.3-.2 1.3l-.3 2.9s-.2 2.5-.1 3.2c.1.7-.1 1.6-.1 1.6s.2 2 .2 2.2c-.1.2-.3 1.2-.2 1.7.2.5.1 1.9.1 1.9s.1 1.9.2 2.5c.1.6 0 1.4 0 1.4s-.1 1.3-.2 1.3c0 0-.5.9.4 1.8s.3.7.3.7-.7-.4-.6.4c.1.7.2.5.2.5l-.2.6h.1l-.1.1c-.1.1-.2.2-.3.4-.2.2-.2.5-.2.5s-1.2 1.4-2.4 2c-.6.4-1.1.7-1.4.9-.2.2-.2.4.3.6.9.3 2.5.5 3.7.1.7-.2 1.3-.6 1.8-1.2 0 0 .7-.4 1.4-.2.7.1 2.1-.8 2.1-.8v-.2l-.1-.7c-.1-.1-.1-.3-.1-.4 0-.2 0-.4-.1-.6v-.2h.1s-.2-.9.1-1c.3-.2.2-2.4.2-2.4s-.4-.5-.6-.6 0-1.1 0-1.3c0-.1.3-2.7.3-2.7s-.1-.8 0-1.2c.1-.4-.2-1.7-.2-1.7s-.1-.2.1-.4.1-2 .1-2v-1.1c0-.2.2-1.1.4-1.4.2-.3.1-1.2.1-1.2V83l.3-1.5c.2-.7.5-1.9.5-1.9l1.6-4.1s.7 1.3.7 2.6c0 0 .2 1.5.1 1.9-.1.4.2 2.3.2 2.3s.2 2.7.2 2.8c0 .1.3 2.2.4 2.5.2.3-.2 1.3-.3 1.4-.1.1 0 2.6 0 2.6s-.3 1.9-.3 2.3c-.1.4-.3 1.9-.1 2.5.2.6.1.7.1.7s.6.6.2.7c-.5.1-.8.6-.7 1.1v.1c.2.6.5 1.2.7 1.8l.3-.1v1.2s.1 1 .1 1.2c-.1.4-.1.9-.1 1.3v.2s0 .9 1.9.6c1.9-.3 2.2-1 2.2-1v-.1c0-.2.1-.5.1-.7.1-.3-.5-1.5-.5-1.5s-.1-.8-.3-1c-.1-.1-.1-.2-.1-.4v-.2h.1c.1 0-.1-.6.3-.8.4-.2.3-.6.2-.7-.1-.2.2-1.1.2-1.1-.1-.2 0-.4.1-.5.2-.2.4-1.9.4-1.9V89s.1-1.1 0-1.6-.3-1.3-.1-1.6c.2-.2 0-1.3 0-1.3s0-2.3.3-2.9c.3-.6.2-4.2.2-4.2l.1-2.4s.6-.5.4-3.2c.6 0 1.3-.1 1.4 0 .2.2 1.4.9 2.1.4.2-.1.8-.7.8-.7l-.3-5c.2.3.3.5.3.5 0-.7 2-3 2-3s1.9-2.4 2.3-2.7c.4-.3 1.2-1.8 1.2-1.8.1-.3.3-.6.4-.8.3.1-.3-.7-.2-.9zm-4.4 1.8c-.5.1-1.6 1.2-1.6 1.5 0 .2-.1.3-.2.4v-.3c-.1-1.5-.2-3.3-.2-3.5.1-.3.1-1.7.1-1.7.3 1.1 1.4 2.3 1.4 2.3s.2.5.4.6c.2 0 .1.7.1.7z" fill="url(#SVGID_1_)"/><path class="st10" d="M96.5 59.2s.6-3.2 2.6-3.2l1.4 3-1 .7c.1-.1-2 0-3-.5z"/><path class="st5" d="M100.5 59l-1 .7s-1.5 0-2.5-.2c-.2 0-.4-.1-.5-.2v-.1c.1-.4.2-.8.4-1.2.1-.1.1-.3.2-.4.3-.6.7-1.1 1.3-1.4.2-.1.4-.2.7-.2h.1v.1l.5 1 .8 1.9z"/><path class="st10" d="M117 72.4s2.1-.2 2.3-.1 1.4.9 2.1.4c.7-.5.2-2.2.2-2.2 0-.1-.1-2.4-.1-2.4l-1.2-1.7-1.6-2.9-3.2-.3.1 4.7v2.4l1.4 2.1z"/><path class="st5" d="M117 72.4s2.1-.2 2.3-.1 1.4.9 2.1.4c.7-.5.2-2.2.2-2.2 0-.1-.1-2.4-.1-2.4l-1.2-1.7-1.6-2.9-3.2-.3.1 4.7v2.4l1.4 2.1z"/><path class="st13" d="M98.7 55.9s-.2 2-1.4 2.1c0 0-.4-.2-.8-.6-1.1-.8-2.9-2.4-2.4-3.9.7-2.1 4.1 1.8 4.1 1.8l.3.3.2.3z"/><path class="st5" d="M98.7 55.9s-.2 2-1.4 2.1c0 0-.4-.2-.8-.6l-.1-.1c.2.1.5.2.7.2.4 0 .8-.2.9-.6.1-.3.3-.5.4-.8.1-.2.1-.3.1-.5l.2.3z"/><path class="st14" d="M98.1 59.6l-.3-.4-1-1.2-.5-.6c.2.1.5.2.7.2.4 0 .8-.2.9-.6.1-.3.3-.5.3-.8.2-.4.2-.7.1-.8-.1-.1.4.3.5.5l.1.1v.1l.5 1c.2.3.4 2.2-1.3 2.5z"/><path class="st10" d="M108.1 102.3s-1.4.9-2.1.8c-.7-.1-1.4.2-1.4.2-.5.5-1.1.9-1.8 1.1-1.1.4-2.7.2-3.6-.1-.4-.1-.5-.3-.3-.5s.7-.6 1.4-.9c1.1-.7 2.4-2 2.4-2s0-.3.2-.5l.3-.3c.2-.2.3-.4.3-.4l4.1.1s.1.3.1.6c0 .2.1.4.1.6 0 .1 0 .3.1.4l.1.7.1.2zm8.6 1.2c0 .2-.1.6-.1.7v.1s-.3.7-2.2 1-1.8-.6-1.8-.6v-.2c0-.4.1-.9.1-1.3.1-.2-.1-1.2-.1-1.2v-1.7l3.1-.3c0 .2.1.5.1.7 0 .1.1.2.1.3.2.2.3 1 .3 1s.5 1.2.5 1.5z"/><path class="st5" d="M107.7 99.8s.1.3.1.6c-.4.1-2.4.4-2.9.2-.5-.3-1.7-.4-1.7-.4v-.1c.2-.2.3-.4.3-.4l4.2.1zm8 .9c-.8-.1-2.5.2-3.1.3v-.7l3.1-.3v.7z"/><path class="st15" d="M117.5 75.5l-.1 2.3s.1 3.6-.2 4.1c-.2.6-.2 2.8-.2 2.8s.2 1.1 0 1.3c-.2.2-.1 1.1.1 1.5.1.4 0 1.6 0 1.6v6.3s-.2 1.6-.4 1.9c-.1.1-.2.3-.1.5 0 0-.2.9-.2 1.1 0 .2.2.5-.2.7-.4.2-.3.8-.3.8-.9-.2-3.5.4-3.5.4-.3-.6-.5-1.2-.7-1.8-.2-.5.1-1 .6-1.2h.1c.3 0-.2-.7-.2-.7s.1-.1-.1-.7 0-2.1.1-2.5c0-.4.3-2.3.3-2.3s-.1-2.4 0-2.5.4-1.1.3-1.4c-.2-.3-.4-2.4-.4-2.5 0-.1-.2-2.8-.2-2.8s-.2-1.9-.2-2.3c0-.4-.1-1.9-.1-1.9 0-1.2-.7-2.6-.7-2.6l-1.5 4.1s-.2 1.2-.5 1.9c-.1.5-.2 1-.3 1.4v.3s.1.9-.1 1.2c-.2.3-.4 1.1-.4 1.4V87s.1 1.8-.1 2c-.1.1-.1.2-.1.4 0 0 .3 1.3.2 1.7-.1.3 0 1.2 0 1.2s-.3 2.6-.3 2.7c0 .1-.2 1.2 0 1.2.2.1.6.6.6.6s.1 2.2-.2 2.3c-.3.2-.1 1-.1 1s-2.4.5-3 .2c-.5-.3-1.7-.4-1.7-.4l.2-.5s-.1.2-.2-.5.6-.4.6-.4.5.1-.3-.7c-.9-.9-.4-1.7-.4-1.7l.2-1.3s.2-.8 0-1.4c-.1-.6-.2-2.5-.2-2.5s.1-1.4-.1-1.9c-.1-.5.1-1.4.1-1.7 0-.2-.1-2.2-.1-2.2s.2-.9.1-1.6c-.1-.7.1-3.2.1-3.2l.3-2.9s.2-.9.2-1.3.2-1.6.2-1.6c0-.3 0-.5.1-.8.2-.3.2-1.4.2-1.4l1.6-3.7.8-3.2 10.6-.1s0 .3.1.8.2 1.3.3 2.2c.1.8.2 1.8.3 2.9-.3 3.7-.9 4.3-.9 4.3z"/><path class="st13" d="M116.5 46.4L114 49s-3.2-1.3-2.8-1.7c.1-.2.1-.7 0-1.3-.1-.9-.4-2-.4-2s5.5-.9 5.1 0c-.2.3-.1.7 0 1.1.1.5.3.9.6 1.3z"/><path class="st5" d="M115.9 44.1c-.2.3-.2.4-.1.7-.7.8-1.6 1.6-2.8 1.6-.6 0-1.2-.1-1.8-.4-.1-.9-.4-2-.4-2s5.6-.8 5.1.1z"/><path class="st13" d="M117 42.4c0 2.2-1.8 4-4 4s-3.9-1.8-4-4v-.1c.1-2.2 1.9-3.9 4-3.9 2.2.1 3.9 1.9 4 4z"/><path class="st5" d="M117.5 68.5h-4.8c-2.3 0-4.6-.4-5.5-.3-1.9.2.7-1.8.7-1.8 1.5.4 2.9.5 4.4.4h.6c1.8-.1 3.5-.3 4.5-.5-.1.5 0 1.3.1 2.2z"/><path d="M117.5 68.4h-4.8c-2.3 0-4.6-.4-5.5-.3-1.9.2.7-1.8.7-1.8 1.5.4 2.9.5 4.4.4h.6c1.8-.1 3.5-.3 4.5-.5-.1.5 0 1.3.1 2.2z" fill="#e3a79f"/><path class="st5" d="M111.9 47.5l-3.1 1.4-2.4 18.2s1.4-.6 2.2-.2c.8.4 3.3 0 3.3 0s1.8-.1 2.1.1 3.4-.8 3.4-.8.6-1.3.1-1.5c-.4-.2.1-2.2.1-2.2l-.3-13.2-.5-1.7-1.4-.9-1.5 1.2-.7.1-1.3-.5z"/><path class="st14" d="M111.9 47.3l-3.1 1.4-2.3 18.3s1.4-.6 2.2-.2 3.3 0 3.3 0 1.8-.1 2.1.1c.3.2 3.4-.8 3.4-.8s.6-1.3.1-1.5c-.4-.2.1-2.2.1-2.2l-.3-13.2-.5-1.7-1.4-.9-1.5 1.2-.7.1-1.4-.6z"/><path class="st5" d="M111.9 48.1s.9 1 .9 1.3c0 .2-.1.7-.1.7l-.7 1.3s-.4 1.7-.4 2-.6 3.4-.6 3.4l-.7 4.7-.9 6.1.9 1.5 1.1-.9 1.4-10.9.3-2.1s.3-3.9.3-4.3-.2-1.4-.2-1.4.2-1 1.1-1.2c.9-.2-.1 0-.1 0l-.5-.4-.4.2c.1 0-1.2-.4-1.4 0z"/><path class="st15" d="M111.8 48s.9 1 .9 1.3c0 .2-.1.7-.1.7l-.7 1.3s-.4 1.7-.4 2-.6 3.4-.6 3.4l-.7 4.7-.9 6.1.9 1.5 1.1-.9 1.4-10.9.3-2.1s.3-3.9.3-4.3-.2-1.4-.2-1.4.2-1 1.1-1.2c.9-.2-.1-.1-.1-.1l-.5-.4-.4.2c.1.1-1.2-.3-1.4.1z"/><path class="st5" d="M111.2 46.3s-.1.1-.2.8c0 .7-.5 2.2-.5 2.2s1.7-1.2 2.6-1.1l-1.9-1.9z"/><path class="st14" d="M111.2 46.1s-.1.1-.2.8c0 .7-.5 2.2-.5 2.2s1.7-1.2 2.6-1.1l-1.9-1.9z"/><path class="st5" d="M115.9 45.8l-2.7 2.4s2.3 1.4 2.6 1.7c.3.3.6-3.3.6-3.3l-.5-.8z"/><path class="st14" d="M116 45.6l-2.7 2.4s2.3 1.4 2.6 1.7c.3.3.6-3.3.6-3.3l-.5-.8z"/><path class="st5" d="M111.3 46.3s-.3-.1-.6.3c-.2.3-.5.5-.8.6 0 0-3 .5-3.1.9l-1.4.1s-.5.1-.5 1.1-.3 1.1-.3 1.1-.6 1-.5 1.6c0 .5-.4.8-.4.8l2.1 5.4s.1 2.2-.3 3c-.4.8-1.1 4.4-1.1 4.4s.3-.1.3.1-.4 2.4-.4 2.4-.1.9-.3 1.2c-.2.3-.2 1.9-.2 1.9l-.3 1.1s.6 1.4 1.6 1.2c1-.2 2.7-4 2.7-4l1.1-4.1.9-4 .2-2.7.4-6 .6-4c-.1 0 .5-2.1.3-2.4z"/><path class="st10" d="M111.2 46.1s-.3-.1-.6.3c-.2.3-.5.5-.8.6 0 0-3 .5-3.1.9l-1.4.1s-.5.1-.5 1.1c-.1 1-.3 1.1-.3 1.1s-.6 1-.5 1.6c0 .5-.4.8-.4.8l2.1 5.4s.1 2.2-.3 3c-.4.8-1.1 4.4-1.1 4.4s.3-.1.3.1-.4 2.4-.4 2.4-.1.9-.3 1.2-.2 1.9-.2 1.9l-.3 1.1s.6 1.4 1.6 1.2 2.7-4 2.7-4l1.1-4.1.9-4 .2-2.7.4-6 .6-4c-.1 0 .5-2.1.3-2.4z"/><path class="st5" d="M100.5 59l-1 .7s-1.5 0-2.5-.2l-.5-.2h-.1.1c.6.2 1 .2 1.3 0 1.4-.5 1.2-2.7 1.2-3.2V56s0 .1.1.1l.1.1.5 1 .8 1.8z"/><path class="st10" d="M103.9 52.5l-.5.1-.1.9s-.5-.1-.7.6c-.2.6-.4.9-.4.9s-.9.8-1 1.4l-.6.3s-1.3-.3-1.6-.8c0 0 .6 4.3-2.6 3.2 0 0 3.6 1.6 3.7 1.8s1.3.8 2.3.3c1-.5 1.2-1.3 1.2-1.3s1-1.3 1-1.5c0-.2.8-.4.8-.4l1.4-3.5-2.9-2z"/><path class="st5" d="M115.5 47.8l.5-2.2s.2.7.4.9l.7.5s.7.3 1 .3 1.6.3 1.8.5c.2.2.8.1.8.1s.5.2 1 .3.7.9.6 1.2c-.1.3 0 .7.2.9.2.2.3.8.3.8.2.1.4.3.6.5.2.4.1 1.2.1 1.2l-2.5 3.5s0 1.3-.1 1.6c-.1.3.3 5.4.3 5.4l.5 8.7s-.7.6-.8.6c-.1.1-.3-3.1-.3-3.2s-3.8-5.8-3.8-5.8-.5-.8-.5-1-.5-1.9-.5-1.9l-.7-3.2.4-9.7z"/><path class="st10" d="M123.8 52.6v.2l-2.5 3.5s0 1.3-.1 1.6c-.1.2.1 2 .2 3.4.1 1.1.2 2 .2 2l.2 3.7.3 5s-.7.6-.8.6c-.1.1-.3-3.1-.3-3.2s-3.8-5.7-3.8-5.7-.5-.8-.5-1c0-.2-.5-1.9-.5-1.9l-.7-3.2.3-9.9.3-2.2s.4.7.6.9.7.5.7.5.7.3 1 .3c.2 0 1.6.3 1.8.5s.8.1.8.1.5.2 1 .3.7.9.6 1.2c-.1.3 0 .7.2.9.2.2.3.8.3.8.2.1.4.3.6.5.1.4.1.9.1 1.1z"/><path class="st5" d="M103.5 96.9c.1 0 3.6.1 3.5.7-.1.6-3.5-.7-3.5-.7zm.8 1s2.3.4 1.7.7c-.6.3-1.7-.7-1.7-.7zm8.7-1.3s3.9.3 3.3.8c-.6.4-2 .5-2 .5-.1 0-1.3-1.3-1.3-1.3zm-.5 1.7s2.2.4 2.2.8-2.2-.8-2.2-.8zm1.2-10s2 .5 2.1.8l-2.1-.8zm-7.6 1.4s-1 .3 0 .9c.9.6 0-.9 0-.9zm4.5-16c.1 0 1.9-.6 2.6-.3.5.2.9.3 1.4.3h-4zm.3 1.9v.2l-1.5 4.1s-.2 1.2-.5 1.9c-.1.5-.2 1-.3 1.4l1.4-8.5.9.9z"/><path class="st15" d="M113.3 68.5h-.6l-.4-1.7h.6l.4 1.7z"/><path class="st13" d="M121.1 66.4l-.4.3-1.4 1.1s-3.7 2-4.8.1c-.9-1.7 3.3-2.9 4.4-3.1l.2-.1 2 1.7z"/><path class="st5" d="M105.2 50.1s.7.3.9.8c.1.4-.9-.8-.9-.8zm-2.3 5s-1.1 1.3-.6 1.8.6-1.8.6-1.8zm19-4.3s-1 .1-1 1l1-1zm-9.2 13.6c.1-.1 2.4-3.5 2.9-3.2l-2.9 3.2zm4.3-22c0 .7-.2 1.3-.5 1.9-.2-.1-.4-.3-.6-.5-.2-.2-.6-.3-.9-.1-.3.2-.5.5-.4.9-.1-.5-.1-1.1-.2-1.6s-.5-1.1-1-1.1c-.2 0-.5.1-.6-.1-.1-.1-.1-.3-.2-.4-.4-.6-1.5-.3-1.9 0-.5.3-1 .8-1.5 1 .1-2.2 1.9-3.9 4-3.9 2 0 3.7 1.8 3.8 3.9z"/><path class="st15" d="M112.5 41.2c.1.1.1.3.2.4.2.2.4.1.6.1.5 0 .9.5 1 1.1.1.5.1 1.1.2 1.6 0-.3.1-.7.4-.9.3-.2.7-.1.9.1.2.2.3.5.6.5.3.1.5-.2.6-.5.1-.3.1-.6.1-.8.1-.5.5-.9.6-1.4.2-.6.2-1.3 0-1.9-.1-.3-.3-.6-.4-.9-.2-.5-.2-1-.5-1.5-.4-.8-1.3-1.1-2.1-.8-.4.1-.7.4-1 .5-.5.2-1 0-1.5 0-.5-.1-1.1-.1-1.5.3-.5.4-.6 1.1-1 1.5-.2.2-.4.3-.6.5-.2.2-.4.4-.3.7 0 .3.4.7.2 1 0 .1-.1.2-.2.2-.4.4-.6.9-.8 1.4.9.3 1.8-.7 2.5-1.2.5-.3 1.6-.6 2 0z"/><path class="st5" d="M121.1 66.4l-.4.3c-.4-.6-1.9-1.8-1.9-1.8l.1-.1.2-.1 2 1.7z"/><path class="st14" d="M121.5 65.8s-.1.4-.3.7c-.2.3-.3.6-.3.4 0-.5-1.9-2-1.9-2l.3-.3.3-.3 1.9 1.5z"/><path class="st5" d="M121.6 63.3l.2 3.7c-.5-.8-1.9-2.9-2.8-2.8l2.2-2.5.3-.3c0 1.1.1 1.9.1 1.9z"/><path class="st5" d="M121.5 65.8s-.1.4-.3.7c-.6-.8-1.4-1.7-2-1.9l.3-.3 2 1.5z"/><path class="st10" d="M123.2 52.4l.6.5s1 0 1.1.8c.1.8 1 1.2 1 1.2s.7.7.7 1c0 .3.5.9.5.9s.5 1.1.4 1.2c-.1.2.5 1 .3 1.3-.2.3-.3.5-.4.8 0 0-.8 1.5-1.2 1.8s-2.2 2.7-2.2 2.7-2 2.3-2 3c0 0-1.9-3.2-3-3.1l2.2-2.5s.4-.4.4-.7c0-.2 1.1-1.4 1.6-1.4 0 0 .1-.7-.1-.7s-.4-.5-.4-.5-1.5-1.7-1.5-2.8c0-1.3 2-3.5 2-3.5z"/><path class="st5" d="M124.1 53.9s-1.4 1-1.1 1.4c.3.3 1.1-1.4 1.1-1.4zm0 4.3s2.6-.8 2.9 0h-2.9zm-16 44.1s-1.4.9-2.1.8c-.7-.1-1.4.2-1.4.2-.5.5-1.1.9-1.8 1.1-1.1.4-2.7.2-3.6-.1-.4-.1-.5-.3-.3-.5 1 .2 3.2.6 3.7.3.8-.4 1.9-1.2 1.9-1.2s1.4-.2 1.6-.2c.1 0 1.2-.5 1.9-.7l.1.3zm8.4 1.9c0 .1 0 .1 0 0 0 .1-.3.8-2.2 1.1s-1.8-.6-1.8-.6v-.2c.6.2 1.9.4 4-.3zm-10.7-50.5s0 3.8-.3 4.2c-.3.4.3-4.2.3-4.2zm15 1.3l.5 1.4c0-.1.2-1.4-.5-1.4z"/><g opacity=".1"><path d="M109.1 40.4c.1-.3-.2-.6-.2-1 0 .1-.1.2-.1.3 0 .3.2.6.3.7 0 .1 0 .1 0 0zm5.5 3.6c-.1-.5-.1-1.1-.2-1.6s-.5-1.1-1-1.1c-.2 0-.5.1-.6-.1-.1-.1-.1-.3-.2-.4-.4-.6-1.5-.3-1.9 0-.7.5-1.6 1.4-2.5 1.2 0 .1-.1.2-.1.3.9.3 1.8-.7 2.5-1.2.5-.3 1.6-.6 1.9 0 .1.1.1.3.2.4.2.2.4.1.6.1.5 0 .9.5 1 1.1.1.5.1 1.1.2 1.6 0 0 .1-.2.1-.3z"/><path d="M117.1 43.4c-.1.3-.3.5-.6.5-.3-.1-.4-.3-.6-.5-.2-.2-.6-.3-.9-.1-.3.2-.5.5-.4.8.1-.2.2-.4.4-.5.3-.2.7-.1.9.1.2.2.3.5.6.5.3.1.5-.2.6-.5 0-.2.1-.3.1-.5-.1.1-.1.1-.1.2zm.8-2.3c-.2.5-.5.9-.6 1.4v.3c.1-.5.4-.9.6-1.4.1-.2.1-.5.2-.7-.2.2-.2.3-.2.4z"/></g><circle cx="64.7" cy="50.2" r="2.3" fill="#6c63ff"/><path class="st19" d="M69.2 32.2l-20 36.1h39.9z"/><path class="st8" d="M69.2 35L51.6 67h35.1z"/><linearGradient id="SVGID_2_" gradientUnits="userSpaceOnUse" x1="69.156" y1="1375.448" x2="69.156" y2="1371.153" gradientTransform="translate(0 -1309.658)"><stop offset="0" stop-color="gray" stop-opacity=".25"/><stop offset=".54" stop-color="gray" stop-opacity=".12"/><stop offset="1" stop-color="gray" stop-opacity=".1"/></linearGradient><circle cx="69.2" cy="63.7" r="2.2" fill="url(#SVGID_2_)"/><circle class="st19" cx="69.2" cy="63.7" r="1.8"/><linearGradient id="SVGID_3_" gradientUnits="userSpaceOnUse" x1="69.182" y1="1369.83" x2="69.182" y2="1357.083" gradientTransform="translate(0 -1309.658)"><stop offset="0" stop-color="gray" stop-opacity=".25"/><stop offset=".54" stop-color="gray" stop-opacity=".12"/><stop offset="1" stop-color="gray" stop-opacity=".1"/></linearGradient><path fill="url(#SVGID_3_)" d="M68.6 47.4h1.2v12.7h-1.2z"/><path class="st19" d="M68.8 47.5h.7v12.4h-.7z"/></svg>