<?xml version="1.0" encoding="utf-8"?>
<!-- Generator: Adobe Illustrator 23.0.2, SVG Export Plug-In . SVG Version: 6.00 Build 0)  -->
<svg version="1.1" id="cb7db7bb-371f-430c-ab8e-9f8547f8cfe6"
	 xmlns="http://www.w3.org/2000/svg" xmlns:xlink="http://www.w3.org/1999/xlink" x="0px" y="0px" viewBox="0 0 283.5 188.5"
	 style="enable-background:new 0 0 283.5 188.5;" xml:space="preserve">
<style type="text/css">
	.st0{fill:#F3FBFE;}
	.st1{fill:#E0E0E0;}
	.st2{fill:url(#SVGID_1_);}
	.st3{fill:#F5F5F5;}
	.st4{fill:url(#SVGID_2_);}
	.st5{fill:#FFFFFF;}
	.st6{fill:#3C6FE9;}
	.st7{fill:#FF5252;}
	.st8{fill:#FFFF00;}
	.st9{fill:#69F0AE;}
	.st10{fill:url(#SVGID_3_);}
	.st11{fill:url(#SVGID_4_);}
	.st12{fill:url(#SVGID_5_);}
	.st13{fill:url(#SVGID_6_);}
	.st14{fill:#DBDBDB;}
	.st15{fill:url(#SVGID_7_);}
	.st16{fill:url(#SVGID_8_);}
	.st17{fill:url(#SVGID_9_);}
</style>
<title>dashboard</title>
<path class="st0" d="M278,49.6c-2.9-5.6-6.7-10.7-11.2-15.2l-156-1.3l128.4-15.3c-8.4-2.8-17.2-4.3-26.1-4.4
	C200.8,5.1,184.9,0,167.5,0c-15.6,0-29.9,4.1-41.7,11c-10-4.3-21.3-6.8-33.4-6.8c-34.7,0-63.5,20.3-70,47.2L278,49.6z"/>
<path class="st0" d="M283.5,72.1c0-7.4-1.7-14.6-4.9-21.3L8.3,74.9C5.5,79,3.4,83.6,1.9,88.4l83.7,10.6L0,106.6
	c2.6,30.5,33.5,54.5,71.2,54.5c19,0,36.2-6.1,49-16c12.8,10.1,30.3,16.4,49.5,16.4c28.5,0,53.1-13.7,64.5-33.5
	c23-6.2,40.8-21.6,46.9-41L175.3,73h108.2C283.5,72.7,283.5,72.4,283.5,72.1z"/>
<path class="st1" d="M148.3,143.2c0,0,3.9,26.6,27.2,35.5H81.2c23.3-8.9,27.2-35.5,27.2-35.5L148.3,143.2L148.3,143.2z"/>
<linearGradient id="SVGID_1_" gradientUnits="userSpaceOnUse" x1="128.3242" y1="311.2726" x2="128.3242" y2="305.6456" gradientTransform="matrix(1 0 0 1 0 -126.9606)">
	<stop  offset="0" style="stop-color:#808080;stop-opacity:0.25"/>
	<stop  offset="0.54" style="stop-color:#808080;stop-opacity:0.12"/>
	<stop  offset="1" style="stop-color:#808080;stop-opacity:0.1"/>
</linearGradient>
<rect x="80.7" y="178.7" class="st2" width="95.2" height="5.6"/>
<rect x="81.2" y="178.7" class="st3" width="94.3" height="4.3"/>
<linearGradient id="SVGID_2_" gradientUnits="userSpaceOnUse" x1="236.7272" y1="356.454" x2="236.7272" y2="251.7478" gradientTransform="matrix(1 0 0 1 -108.19 -204.1107)">
	<stop  offset="0" style="stop-color:#808080;stop-opacity:0.25"/>
	<stop  offset="0.54" style="stop-color:#808080;stop-opacity:0.12"/>
	<stop  offset="1" style="stop-color:#808080;stop-opacity:0.1"/>
</linearGradient>
<path class="st4" d="M206.2,47.6H50.9c-1.2,0-2.1,1-2.1,2.1v98.6c0,2.2,1.7,3.9,3.9,4l0,0h151.7c2.2,0,3.9-1.8,3.9-3.9l0,0V49.8
	C208.3,48.6,207.4,47.7,206.2,47.6z"/>
<path class="st3" d="M206.2,136.1H50.5V52c0-1.1,0.9-2,2-2l0,0h151.6c1.1,0,2,0.9,2,2L206.2,136.1L206.2,136.1z"/>
<path class="st5" d="M202.4,150.3H54.3c-2.1,0-3.8-1.7-3.8-3.8V136h155.7v10.4C206.2,148.6,204.5,150.3,202.4,150.3L202.4,150.3z"/>
<rect x="58.4" y="60.6" class="st6" width="140.9" height="65.8"/>
<rect x="58.2" y="56.9" class="st1" width="141.1" height="5.8"/>
<circle class="st7" cx="61.3" cy="59.9" r="1.7"/>
<circle class="st8" cx="65.2" cy="59.9" r="1.7"/>
<circle class="st9" cx="69.2" cy="59.9" r="1.7"/>
<linearGradient id="SVGID_3_" gradientUnits="userSpaceOnUse" x1="127.0323" y1="241.1241" x2="127.0323" y2="194.9921" gradientTransform="matrix(1 0 0 1 0 -126.9606)">
	<stop  offset="0" style="stop-color:#000000;stop-opacity:0.12"/>
	<stop  offset="0.55" style="stop-color:#000000;stop-opacity:9.000000e-02"/>
	<stop  offset="1" style="stop-color:#000000;stop-opacity:2.000000e-02"/>
</linearGradient>
<polygon class="st10" points="127,68 101.5,114.2 152.5,114.2 "/>
<polygon class="st5" points="127,71.6 104.6,112.4 149.5,112.4 "/>
<linearGradient id="SVGID_4_" gradientUnits="userSpaceOnUse" x1="127.0323" y1="237.8379" x2="127.0323" y2="232.3583" gradientTransform="matrix(1 0 0 1 0 -126.9606)">
	<stop  offset="0" style="stop-color:#808080;stop-opacity:0.25"/>
	<stop  offset="0.54" style="stop-color:#808080;stop-opacity:0.12"/>
	<stop  offset="1" style="stop-color:#808080;stop-opacity:0.1"/>
</linearGradient>
<circle class="st11" cx="127" cy="108.1" r="2.7"/>
<circle class="st6" cx="127" cy="108.1" r="2.3"/>
<linearGradient id="SVGID_5_" gradientUnits="userSpaceOnUse" x1="127.0323" y1="230.6635" x2="127.0323" y2="214.4082" gradientTransform="matrix(1 0 0 1 0 -126.9606)">
	<stop  offset="0" style="stop-color:#808080;stop-opacity:0.25"/>
	<stop  offset="0.54" style="stop-color:#808080;stop-opacity:0.12"/>
	<stop  offset="1" style="stop-color:#808080;stop-opacity:0.1"/>
</linearGradient>
<rect x="126.3" y="87.4" class="st12" width="1.5" height="16.3"/>
<rect x="126.6" y="87.5" class="st6" width="1" height="15.9"/>
<linearGradient id="SVGID_6_" gradientUnits="userSpaceOnUse" x1="318.9814" y1="389.0208" x2="318.9814" y2="306.3619" gradientTransform="matrix(1 -1.396263e-03 1.438151e-03 1.03 -108.513 -211.1533)">
	<stop  offset="1.000000e-02" style="stop-color:#808080;stop-opacity:0.25"/>
	<stop  offset="0.54" style="stop-color:#808080;stop-opacity:0.12"/>
	<stop  offset="1" style="stop-color:#808080;stop-opacity:0.1"/>
</linearGradient>
<path class="st13" d="M189.2,103.7l43.5-0.1c1.1,0,1.9,0.9,1.9,1.9l0.1,81.1c0,1.1-0.9,1.9-1.9,1.9l-43.5,0.1
	c-1.1,0-1.9-0.9-1.9-1.9l-0.1-81C187.3,104.6,188.1,103.7,189.2,103.7z"/>
<path class="st5" d="M190.3,104.6l41.3-0.1c1.1,0,1.9,0.9,1.9,1.9l0.1,76.9c0,1.1-0.9,1.9-1.9,1.9l-41.3,0.1c-1.1,0-1.9-0.9-1.9-1.9
	l-0.1-76.9C188.4,105.4,189.2,104.6,190.3,104.6z"/>
<rect x="193.5" y="110.3" transform="matrix(1 -1.396261e-03 1.396261e-03 1 -0.1996 0.2947)" class="st6" width="34.9" height="65.7"/>
<circle class="st14" cx="211" cy="180.7" r="2.8"/>
<circle class="st14" cx="205.5" cy="107.5" r="0.6"/>
<path class="st14" d="M208.4,106.8h8.1c0.2,0,0.3,0.1,0.3,0.3v0.3c0,0.2-0.1,0.3-0.3,0.3h-8.1c-0.2,0-0.3-0.1-0.3-0.3v-0.3
	C208.1,106.9,208.3,106.8,208.4,106.8z"/>
<linearGradient id="SVGID_7_" gradientUnits="userSpaceOnUse" x1="210.9679" y1="272.7317" x2="210.9679" y2="250.3555" gradientTransform="matrix(1 0 0 1 0 -126.9606)">
	<stop  offset="0" style="stop-color:#000000;stop-opacity:0.12"/>
	<stop  offset="0.55" style="stop-color:#000000;stop-opacity:9.000000e-02"/>
	<stop  offset="1" style="stop-color:#000000;stop-opacity:2.000000e-02"/>
</linearGradient>
<polygon class="st15" points="211,123.4 198.6,145.8 223.3,145.8 "/>
<polygon class="st5" points="211,125.1 200.1,144.9 221.9,144.9 "/>
<linearGradient id="SVGID_8_" gradientUnits="userSpaceOnUse" x1="210.9679" y1="271.1354" x2="210.9679" y2="268.4763" gradientTransform="matrix(1 0 0 1 0 -126.9606)">
	<stop  offset="0" style="stop-color:#808080;stop-opacity:0.25"/>
	<stop  offset="0.54" style="stop-color:#808080;stop-opacity:0.12"/>
	<stop  offset="1" style="stop-color:#808080;stop-opacity:0.1"/>
</linearGradient>
<circle class="st16" cx="211" cy="142.8" r="1.3"/>
<circle class="st6" cx="211" cy="142.8" r="1.1"/>
<linearGradient id="SVGID_9_" gradientUnits="userSpaceOnUse" x1="210.9804" y1="267.653" x2="210.9804" y2="259.7762" gradientTransform="matrix(1 0 0 1 0 -126.9606)">
	<stop  offset="0" style="stop-color:#808080;stop-opacity:0.25"/>
	<stop  offset="0.54" style="stop-color:#808080;stop-opacity:0.12"/>
	<stop  offset="1" style="stop-color:#808080;stop-opacity:0.1"/>
</linearGradient>
<rect x="210.6" y="132.8" class="st17" width="0.7" height="7.9"/>
<rect x="210.7" y="132.9" class="st6" width="0.5" height="7.7"/>
</svg>
