<?xml version="1.0" encoding="utf-8"?>
<!-- Generator: Adobe Illustrator 23.0.2, SVG Export Plug-In . SVG Version: 6.00 Build 0)  -->
<svg version="1.1" id="ebf8a77a-edff-4dc3-b5b4-de0e5991af45"
	 xmlns="http://www.w3.org/2000/svg" xmlns:xlink="http://www.w3.org/1999/xlink" x="0px" y="0px" viewBox="0 0 283.5 215"
	 style="enable-background:new 0 0 283.5 215;" xml:space="preserve">
<style type="text/css">
	.st0{fill:#3C6FE9;}
	.st1{fill:#444053;}
	.st2{fill:none;stroke:#444053;stroke-miterlimit:10;}
	.st3{fill:none;stroke:#444053;stroke-width:0.75;stroke-miterlimit:10;}
	.st4{opacity:0.1;fill:#3C6FE9;enable-background:new    ;}
	.st5{fill:url(#SVGID_1_);}
	.st6{fill:#FFFFFF;}
	.st7{opacity:4.000000e-02;fill:#5A5773;enable-background:new    ;}
	.st8{fill:#5A5773;}
	.st9{opacity:0.2;fill:none;stroke:#5A5773;stroke-miterlimit:10;enable-background:new    ;}
	.st10{opacity:0.2;fill:none;stroke:#5A5773;stroke-miterlimit:10;stroke-dasharray:12;enable-background:new    ;}
	.st11{opacity:0.2;fill:#3C6FE9;enable-background:new    ;}
	.st12{opacity:0.5;fill:#3C6FE9;enable-background:new    ;}
	.st13{opacity:0.2;fill:#5A5773;enable-background:new    ;}
	.st14{fill:url(#SVGID_2_);}
	.st15{fill:#2D293D;}
	.st16{opacity:0.1;enable-background:new    ;}
	.st17{fill:#575988;}
	.st18{opacity:5.000000e-02;enable-background:new    ;}
	.st19{opacity:5.000000e-02;}
	.st20{fill:#FFCDD3;}
	.st21{fill:#DCE6F2;}
	.st22{fill:#656691;}
	.st23{opacity:0.1;}
	.st24{fill:#FFD037;}
	.st25{fill:#65617D;}
	.st26{fill:#9D9CB5;}
</style>
<title>setup analytics</title>
<path class="st0" d="M55.9,2.2c0,0-1,3.8,5.9,14.7s6.4,12.4,6,15.5c-0.4,3.1-0.4,4.8-4.4,8.6c0,0-12,3.9-13.6,6.4
	c-1.6,2.5,2.6,11.4,2.6,11.4s4.1,10.8-10.6,15c0,0-11.5,0-14.6,2.5c0,0,1.2-4.4-2.6-10.9s1.4-12.8,1.4-12.8s4.2-2.3,6.9-2.5
	c2.7-0.2,3.5-1.4,1.8-4.5c0,0-2.5-1.3-6,1.5s-6.1,4.8-9.1,4.6c-3-0.2-7.3-1.5-10.2-7.1S5.4,31.1,3.3,27.5S0,23.1,0,23.1
	s2.7,2,11.9-4.9S26,14.3,26,14.3s7.4,2,8.6,15.1c0,0,2.2,12.5,6.6,4.9c0,0-1.5-4.3-4.5-10.5c-3-6.3,5-12.2,10.8-14.1
	C53.3,7.6,55.9,2.2,55.9,2.2z"/>
<path class="st1" d="M8.1,25.9L8.1,25.9c1.8-0.8,10.2,3.7,17,7.7l0,0.1C15.5,28,9.5,25.3,8.1,25.9z"/>
<path class="st1" d="M24.9,33.5L24.9,33.5c5.5,3.1,11.9,7.2,16.8,10.4c0.5,0.3,0.9,0.6,1.4,0.9L43,45c-0.5-0.3-1-0.6-1.4-0.9
	C36.8,40.8,30.3,36.7,24.9,33.5z"/>
<path class="st1" d="M42.9,44.9l0.1-0.1c9.7,5.8,23.4,4.4,23.5,4.4L65,51C64.9,51,52.7,50.8,42.9,44.9z"/>
<path class="st2" d="M52.3,11c0,0-3.2,8.9-0.8,15.1c2.4,6.2-2.6,21.7-2.6,21.7s-1.7,6.5-4.4,8.1c0,0-3.9,4.8-6.2,5.4
	c-2.3,0.6-7.5,5.5-7.4,8.2"/>
<path class="st2" d="M56.6,11.6c0,0-2.2,4.5-5.6,4.5"/>
<path class="st2" d="M61.1,17.5c0,0-1.4,6.3-9.8,8"/>
<path class="st2" d="M64.6,26.8c0,0-4,6.3-12.5,5.6"/>
<path class="st2" d="M63.9,38.7c0,0-7.4,4.9-13.1,2.2"/>
<path class="st2" d="M47,11.6c0,0,1.9,4.1,4.1,2.9"/>
<path class="st2" d="M39.9,17.8c0,0,2.6,5.5,10.8,4.5"/>
<path class="st2" d="M39.1,26.1c0,0,7.2,4.4,13,3.2"/>
<path class="st2" d="M42.9,35c0,0,5.7,4.5,8.4,3.5"/>
<path class="st2" d="M41.6,38.4c0,0,1.5,4.8,0,5.7"/>
<path class="st2" d="M36.6,45.5c0,0,2.9-2.9,2.1-3.4"/>
<path class="st2" d="M31.2,21.3c0,0,2.6,12.2-0.8,15.5"/>
<path class="st2" d="M20.4,50.3c0,0,11.6-7.5,12.6-11.9"/>
<path class="st2" d="M13.7,45.1c0,0,10.9-5.1,13.9-10"/>
<path class="st3" d="M21,17.4c0,0,5.3,8.8,2,15"/>
<path class="st3" d="M10.1,37.1c0,0,8.1-3.3,9.7-6.4"/>
<path class="st3" d="M11.8,20.1c0,0,2.7,5,1.4,7.2"/>
<path class="st2" d="M39.9,49.7c0,0,7.3-1,8.1,0.9"/>
<path class="st2" d="M51.6,64.6c0,0-0.4-8-5-11.1"/>
<path class="st2" d="M31.5,52.9c0,0,7.7,0.9,10.4,5.9"/>
<path class="st2" d="M44.4,70.4c0,0,1.2-5.9-4.4-10"/>
<path class="st2" d="M26,60c0,0,6.4-0.3,9.8,2.7"/>
<path class="st2" d="M34.8,71.5c0,0-0.6-4.7-2.3-5.5"/>
<path class="st4" d="M133.6,51.6c-14.3,7.2-30,10.4-45.3,12.8c-15.3,2.4-30.7,4.3-45.8,9.4c-9.7,3.3-19.9,8.5-24.7,16.7
	c-4.6,7.9-2.9,16.3-0.5,23.6c1.8,5.5,4.2,11.1,9.2,14.4c3.5,2.3,8,3.4,11.8,5.4c13.2,6.9,15.3,23.1,13.2,38c-1,7-2.7,14.1-2.7,20.9
	c0,6.9,2,13.6,7.4,17.7c5.4,4,13.5,4.8,21.4,4.2c16.1-1.3,32.3-8,47.8-15.2c34.2-15.9,66.9-34.9,99.6-53.8c12.1-7,24.2-14,35.4-22.3
	c6.2-4.6,12.3-9.9,15.1-16.2c3.6-8,0.9-16.8-6.5-20.4c-12.3-6.1-32.8,1.9-43.4-6c-5.8-4.4-6.6-12.3-5.7-19.8
	c2-16.1,10.5-33.8,4-47.4C219.7,4.3,208-1.1,195.3,0.2c-13.3,1.4-28.1,10.2-32.1,22C159.1,34.3,146.2,45.2,133.6,51.6z"/>
<ellipse class="st4" cx="167.9" cy="198.9" rx="26.2" ry="6.5"/>
<linearGradient id="SVGID_1_" gradientUnits="userSpaceOnUse" x1="159.3229" y1="39.0575" x2="159.3229" y2="179.7016" gradientTransform="matrix(1 0 0 -1 0 215.1565)">
	<stop  offset="0" style="stop-color:#808080;stop-opacity:0.25"/>
	<stop  offset="0.54" style="stop-color:#808080;stop-opacity:0.12"/>
	<stop  offset="1" style="stop-color:#808080;stop-opacity:0.1"/>
</linearGradient>
<path class="st5" d="M38.4,35.5h241.8c1.8,0,3.3,1.5,3.3,3.3v134.1c0,1.8-1.5,3.3-3.3,3.3H38.4c-1.8,0-3.3-1.5-3.3-3.3V38.7
	C35.2,36.9,36.6,35.5,38.4,35.5z"/>
<path class="st6" d="M38.8,37.4h241c1.8,0,3.3,1.5,3.3,3.3v131.7c0,1.8-1.5,3.3-3.3,3.3h-241c-1.8,0-3.3-1.5-3.3-3.3V40.7
	C35.6,38.9,37,37.4,38.8,37.4z"/>
<path class="st6" d="M38.8,37.4h241c1.8,0,3.3,1.5,3.3,3.3v131.7c0,1.8-1.5,3.3-3.3,3.3h-241c-1.8,0-3.3-1.5-3.3-3.3V40.7
	C35.6,38.9,37,37.4,38.8,37.4z"/>
<path class="st7" d="M38.8,37.4h241c1.8,0,3.3,1.5,3.3,3.3v131.7c0,1.8-1.5,3.3-3.3,3.3h-241c-1.8,0-3.3-1.5-3.3-3.3V40.7
	C35.6,38.9,37,37.4,38.8,37.4z"/>
<path class="st8" d="M281.8,35.8h-245c-0.7,0-1.3,0.6-1.3,1.3v5.3h247.5v-5.3C283.1,36.4,282.5,35.8,281.8,35.8z"/>
<g>
	<circle class="st6" cx="40.5" cy="39.1" r="1.7"/>
	<circle class="st6" cx="45.1" cy="39.1" r="1.7"/>
	<circle class="st6" cx="49.7" cy="39.1" r="1.7"/>
</g>
<path class="st4" d="M54.8,73h201.1c1.5,0,2.7,1.2,2.7,2.7v74.1c0,1.5-1.2,2.7-2.7,2.7H54.8c-1.5,0-2.7-1.2-2.7-2.7V75.7
	C52.1,74.2,53.3,73,54.8,73z"/>
<path class="st6" d="M59.8,65.3l201,5.1c1.5,0,2.6,1.3,2.6,2.7l-1.9,74.1c0,1.5-1.3,2.6-2.7,2.6l-201-5.1c-1.5,0-2.6-1.3-2.6-2.7
	l1.9-74.1C57.1,66.4,58.4,65.3,59.8,65.3z"/>
<line class="st9" x1="88" y1="82.1" x2="231.8" y2="85.8"/>
<line class="st9" x1="87.8" y1="93.3" x2="231.5" y2="97"/>
<line class="st9" x1="87.5" y1="104.6" x2="231.3" y2="108.2"/>
<line class="st9" x1="87.2" y1="115.8" x2="231" y2="119.4"/>
<line class="st10" x1="100.3" y1="113.1" x2="99.9" y2="127.4"/>
<line class="st9" x1="86.9" y1="127" x2="230.7" y2="130.7"/>
<line class="st10" x1="116.2" y1="127.8" x2="116.7" y2="106.5"/>
<path class="st11" d="M211.3,104.8c-2.6,0.2-5.1-1.2-6.6-2.7c-1.6-1.6-2.7-3.5-3.9-5.4c-0.4-0.6-0.7-1.2-1.1-1.8
	c-1.9-3.1-3.9-5.1-6.1-6.5c-0.8-0.5-1.7-0.9-2.6-1.2c-0.1,0.2-0.2,0.4-0.4,0.6c-0.3,0.3-0.8,0.6-1.3,0.6h-0.1
	c-0.9,0-1.6-0.7-1.8-1.6c-0.8,0-1.6,0.2-2.4,0.5c-2.3,0.9-4,2.7-5.6,4.5c-1.9,2.2-3.7,4.5-5.5,6.9c-0.3,0.5-0.7,1-1,1.4
	c-1.9,2.6-3.8,5.3-6.3,7.4c-3.3,2.8-7.4,4.1-10.7,3.3c-4.1-0.9-7-4.5-9.1-7.6c-0.3-0.4-0.5-0.8-0.8-1.2c-1.9-2.9-3.9-5.8-6.9-7.6
	c-3.9-2.3-9.3-1.9-12.8,0.9c-1.7,1.4-3,3.2-4.3,5.1c-0.4,0.6-0.9,1.3-1.3,1.9c-2.4,3.2-4.7,4.9-7.3,5.2c-1,0.1-2,0.1-3,0
	c-0.7,0-1.4-0.1-2.1-0.1c-3.5,0.1-6.6,2.1-8.2,5.1l-0.4,15l112.9,2.9l0.6-24.9c-0.8,0.4-1.7,0.1-2.1-0.6
	C211.3,104.9,211.3,104.9,211.3,104.8L211.3,104.8z"/>
<line class="st10" x1="133.8" y1="92.9" x2="132.9" y2="128.2"/>
<line class="st10" x1="149.5" y1="106.4" x2="148.9" y2="128.6"/>
<line class="st10" x1="165.2" y1="109" x2="164.7" y2="129"/>
<line class="st10" x1="180.4" y1="91.1" x2="179.4" y2="129.4"/>
<line class="st10" x1="195.8" y1="89.8" x2="194.8" y2="129.8"/>
<line class="st10" x1="213" y1="104.8" x2="212.3" y2="130.2"/>
<path class="st0" d="M190.9,85.4c-0.4-0.3-0.8-0.5-1.3-0.5c-0.9,0-1.6,0.7-1.8,1.5c0,0.1,0,0.2,0,0.3c0,0.1,0,0.1,0,0.2
	c0.1,0.4,0.2,0.8,0.5,1.1c0.3,0.3,0.8,0.5,1.2,0.5h0.1c0.5,0,0.9-0.2,1.3-0.6c0.2-0.2,0.3-0.4,0.4-0.6c0.1-0.2,0.1-0.3,0.1-0.5
	c0-0.1,0-0.2,0-0.2C191.4,86.3,191.2,85.8,190.9,85.4z M190.8,87.3c-0.1,0.1-0.1,0.2-0.2,0.3c-0.5,0.5-1.3,0.5-1.8,0
	c-0.2-0.2-0.3-0.4-0.4-0.7c0-0.1,0-0.1,0-0.2c0-0.1,0-0.2,0-0.3c0.1-0.6,0.6-1,1.2-1h0.1c0.7,0,1.3,0.6,1.3,1.3c0,0,0,0.1,0,0.1
	C190.9,87,190.9,87.2,190.8,87.3z"/>
<circle class="st0" cx="213" cy="104.5" r="1.6"/>
<path class="st0" d="M188.3,86.8c0,0.1,0,0.1,0,0.2c-0.2,0-0.4,0-0.5,0c-0.8,0-1.6,0.2-2.4,0.5c-2.3,0.9-4,2.7-5.6,4.5
	c-1.9,2.2-3.7,4.5-5.5,6.9c-0.3,0.5-0.7,1-1,1.4c-1.9,2.6-3.8,5.3-6.3,7.4c-3.3,2.8-7.4,4-10.8,3.3c-4.1-0.9-7-4.5-9.1-7.6
	c-0.3-0.4-0.5-0.8-0.8-1.2c-1.9-2.9-3.9-5.8-6.9-7.6c-3.9-2.3-9.3-1.9-12.8,0.9c-1.7,1.4-3,3.2-4.3,5.1c-0.4,0.6-0.9,1.3-1.3,1.9
	c-2.4,3.2-4.7,4.9-7.3,5.2c-1,0.1-2,0.1-3,0c-0.7-0.1-1.4-0.1-2.1-0.1c-3.7,0.2-7,2.4-8.6,5.8l-0.5-0.2c1.6-3.6,5.1-5.9,9-6.1
	c0.7,0,1.4,0,2.1,0.1c1,0.1,2,0.1,2.9,0c2.4-0.3,4.7-2,6.9-5c0.5-0.6,0.9-1.2,1.3-1.9c1.3-1.8,2.6-3.7,4.4-5.2c3.9-3,9.1-3.4,13.4-1
	c3.1,1.8,5.1,4.8,7.1,7.7c0.3,0.4,0.5,0.8,0.8,1.2c2,2.9,4.8,6.4,8.7,7.3c3.2,0.7,7.1-0.4,10.3-3.2c2.4-2.1,4.3-4.7,6.2-7.3
	c0.3-0.5,0.7-1,1-1.4c1.7-2.4,3.6-4.7,5.5-6.9c1.6-1.9,3.4-3.8,5.8-4.7c0.8-0.3,1.7-0.5,2.6-0.5c0.2,0,0.4,0,0.5,0
	C188.3,86.6,188.3,86.7,188.3,86.8z"/>
<path class="st0" d="M213.1,104.7c-3.1,1.1-6.3-0.6-8.1-2.4c-1.6-1.6-2.7-3.5-3.9-5.4c-0.4-0.6-0.7-1.2-1.1-1.8
	c-1.9-3.1-3.9-5.1-6.1-6.5c-0.8-0.5-1.7-0.9-2.6-1.2c-0.2-0.1-0.3-0.1-0.5-0.1c0.1-0.2,0.1-0.3,0.1-0.5c0.2,0,0.3,0.1,0.5,0.1
	c1,0.3,1.9,0.7,2.7,1.2c2.3,1.4,4.3,3.5,6.3,6.7c0.4,0.6,0.7,1.2,1.1,1.8c1.1,1.8,2.2,3.8,3.8,5.3c1.7,1.7,4.8,3.3,7.6,2.3
	L213.1,104.7z"/>
<path class="st12" d="M88.3,79.8l4.9,0.1c0.1,0,0.2,0.1,0.2,0.2l0,1.9c0,0.1-0.1,0.2-0.2,0.2l-4.9-0.1c-0.1,0-0.2-0.1-0.2-0.2l0-1.9
	C88.1,79.9,88.2,79.8,88.3,79.8z"/>
<path class="st0" d="M88.1,91l4.9,0.1c0.1,0,0.2,0.1,0.2,0.2l0,1.9c0,0.1-0.1,0.2-0.2,0.2L88,93.3c-0.1,0-0.2-0.1-0.2-0.2l0-1.9
	C87.8,91.1,87.9,91,88.1,91z"/>
<path class="st12" d="M87.8,102.2l4.9,0.1c0.1,0,0.2,0.1,0.2,0.2l0,1.9c0,0.1-0.1,0.2-0.2,0.2l-4.9-0.1c-0.1,0-0.2-0.1-0.2-0.2
	l0-1.9C87.5,102.3,87.6,102.2,87.8,102.2z"/>
<path class="st12" d="M87.5,113.5l4.9,0.1c0.1,0,0.2,0.1,0.2,0.2l0,1.9c0,0.1-0.1,0.2-0.2,0.2l-4.9-0.1c-0.1,0-0.2-0.1-0.2-0.2
	l0-1.9C87.2,113.6,87.4,113.5,87.5,113.5z"/>
<path class="st12" d="M87.2,124.7l4.9,0.1c0.1,0,0.2,0.1,0.2,0.2l0,1.9c0,0.1-0.1,0.2-0.2,0.2l-4.9-0.1c-0.1,0-0.2-0.1-0.2-0.2
	l0-1.9C87,124.8,87.1,124.7,87.2,124.7z"/>
<path class="st12" d="M97.1,129.6l4.9,0.1c0.1,0,0.2,0.1,0.2,0.2l0,1.9c0,0.1-0.1,0.2-0.2,0.2L97,132c-0.1,0-0.2-0.1-0.2-0.2l0-1.9
	C96.8,129.7,96.9,129.6,97.1,129.6z"/>
<path class="st12" d="M113.7,130.1l4.9,0.1c0.1,0,0.2,0.1,0.2,0.2l0,1.9c0,0.1-0.1,0.2-0.2,0.2l-4.9-0.1c-0.1,0-0.2-0.1-0.2-0.2
	l0-1.9C113.4,130.2,113.5,130.1,113.7,130.1z"/>
<path class="st0" d="M129.8,131.2l4.9,0.1c0.1,0,0.2,0.1,0.2,0.2l-0.1,1.9c0,0.1-0.1,0.2-0.2,0.2l-4.9-0.1c-0.1,0-0.2-0.1-0.2-0.2
	l0.1-1.9C129.5,131.3,129.6,131.2,129.8,131.2z"/>
<path class="st12" d="M146.4,130.9l4.9,0.1c0.1,0,0.2,0.1,0.2,0.2l0,1.9c0,0.1-0.1,0.2-0.2,0.2l-4.9-0.1c-0.1,0-0.2-0.1-0.2-0.2
	l0-1.9C146.2,131,146.3,130.9,146.4,130.9z"/>
<path class="st12" d="M162.2,131.3l4.9,0.1c0.1,0,0.2,0.1,0.2,0.2l0,1.9c0,0.1-0.1,0.2-0.2,0.2l-4.9-0.1c-0.1,0-0.2-0.1-0.2-0.2
	l0-1.9C161.9,131.4,162,131.3,162.2,131.3z"/>
<path class="st0" d="M176.9,131.7l4.9,0.1c0.1,0,0.2,0.1,0.2,0.2l0,1.9c0,0.1-0.1,0.2-0.2,0.2l-4.9-0.1c-0.1,0-0.2-0.1-0.2-0.2
	l0-1.9C176.7,131.8,176.8,131.7,176.9,131.7z"/>
<path class="st0" d="M192.4,132.1l4.9,0.1c0.1,0,0.2,0.1,0.2,0.2l0,1.9c0,0.1-0.1,0.2-0.2,0.2l-4.9-0.1c-0.1,0-0.2-0.1-0.2-0.2
	l0-1.9C192.2,132.2,192.3,132.1,192.4,132.1z"/>
<path class="st0" d="M209.4,133.6l4.6,0.1c0.2,0,0.4,0.2,0.4,0.4l0,1.6c0,0.2-0.2,0.4-0.4,0.4l-4.6-0.1c-0.2,0-0.4-0.2-0.4-0.4
	l0-1.6C209,133.7,209.2,133.6,209.4,133.6z"/>
<path class="st0" d="M256.3,158.2c1.4,0,2.6,1.2,2.6,2.6c0,1.4-1.2,2.6-2.6,2.6c-1.4,0-2.6-1.2-2.6-2.6c0-0.7,0.3-1.3,0.8-1.8
	C254.9,158.5,255.6,158.2,256.3,158.2 M256.3,157.8c-1.7,0-3,1.3-3,3c0,1.7,1.3,3,3,3c1.7,0,3-1.3,3-3c0,0,0,0,0,0
	C259.3,159.1,257.9,157.8,256.3,157.8z"/>
<path class="st0" d="M255.5,161.7l0.2-0.2c0.2,0.2,0.4,0.2,0.6,0.2c0.3,0,0.5-0.1,0.5-0.3c0-0.2-0.2-0.4-0.7-0.4v-0.2
	c0.5,0,0.6-0.2,0.6-0.4c0-0.2-0.2-0.3-0.4-0.3c-0.2,0-0.4,0.1-0.5,0.2l-0.2-0.2c0.2-0.2,0.4-0.3,0.7-0.3c0.4,0,0.7,0.2,0.7,0.5
	c0,0.2-0.2,0.4-0.4,0.5v0c0.3,0,0.5,0.2,0.5,0.5c0,0.4-0.4,0.6-0.8,0.6C255.9,162,255.7,161.9,255.5,161.7z"/>
<path class="st8" d="M268.6,158.4c1.4,0,2.6,1.2,2.6,2.6c0,1.4-1.2,2.6-2.6,2.6c-1.4,0-2.6-1.2-2.6-2.6c0-0.7,0.3-1.3,0.8-1.8
	C267.3,158.6,267.9,158.4,268.6,158.4 M268.6,158c-1.7,0-3,1.3-3,3c0,1.7,1.3,3,3,3c1.7,0,3-1.3,3-3c0,0,0,0,0,0
	C271.6,159.3,270.3,158,268.6,158C268.6,158,268.6,158,268.6,158L268.6,158z"/>
<path class="st8" d="M268.7,160.6c0-0.1,0-0.3,0-0.4h0c-0.1,0.1-0.2,0.2-0.2,0.3l-0.5,0.7h1.4v0.3h-1.8v-0.2l1.1-1.4h0.4v2.2h-0.3
	L268.7,160.6z"/>
<path class="st8" d="M261.8,159.2c0.1-0.1,0.3-0.1,0.4,0l1.3,1.4c0.1,0.1,0.1,0.3,0,0.4c0,0,0,0,0,0l-1.3,1.3
	c-0.1,0.1-0.3,0.1-0.4,0c0,0,0,0,0,0c-0.1-0.1-0.1-0.3,0-0.4c0,0,0,0,0,0l1.1-1.1l-1.2-1.1C261.7,159.5,261.7,159.4,261.8,159.2
	C261.8,159.3,261.8,159.2,261.8,159.2L261.8,159.2z"/>
<path class="st8" d="M259.5,160.8c0,1.6,1.3,2.9,2.9,2.9c1.6,0,2.9-1.3,2.9-2.9c0-1.6-1.3-2.9-2.9-2.9c0,0,0,0,0,0
	C260.8,157.8,259.5,159.2,259.5,160.8z M260,160.8c0-1.4,1.1-2.5,2.5-2.5c1.4,0,2.5,1.1,2.5,2.5c0,1.4-1.1,2.5-2.5,2.5
	c-0.7,0-1.3-0.3-1.8-0.7C260.2,162.1,260,161.4,260,160.8z"/>
<path class="st13" d="M44.4,49.4h57.4c0.6,0,1,0.5,1,1v4.2c0,0.6-0.5,1-1,1H44.4c-0.6,0-1-0.5-1-1v-4.2
	C43.4,49.8,43.8,49.4,44.4,49.4z"/>
<linearGradient id="SVGID_2_" gradientUnits="userSpaceOnUse" x1="205.8741" y1="-68.7932" x2="205.8741" y2="70.2969" gradientTransform="matrix(0.9993 -3.838781e-02 -3.838781e-02 -0.9993 -56.2133 141.1222)">
	<stop  offset="0" style="stop-color:#808080;stop-opacity:0.25"/>
	<stop  offset="0.54" style="stop-color:#808080;stop-opacity:0.12"/>
	<stop  offset="1" style="stop-color:#808080;stop-opacity:0.1"/>
</linearGradient>
<path class="st14" d="M184.8,197.8c-0.4-1.6-0.7-3-0.7-3s0-1.7-0.8-3l0-0.4l0,0l-0.1-3.2c0.2-0.6,0.4-1.2,0.7-1.7
	c0.5-1-0.2-4.7-0.2-4.7s-2.3-5.1-1.9-8.4c0.4-3.3-4.9-14.4-4.9-14.4c0-1.1,0.1-2.2,0.3-3.2c0-0.2,0.1-0.5,0-0.7c0,0,0-0.1,0-0.1
	c0,0,0,0,0,0c-0.2-2.2-2-6.2-2-6.2l-0.1-7.7c0,0,0.9-4.6-1.1-10.7c-0.7-2.1-1.2-3.8-1.5-5.1c0-0.1-0.1-0.3-0.1-0.4
	c3.7-0.7,6.4-1.3,6.4-1.3s-2.5-8.8-4-10.3c-1.5-1.5-2.8-6.4-2.8-6.4s-1-6.3,0.1-8.1c1.1-1.9,1.2-5.1,1.2-5.1s2.7-2.1,3-3
	c0.3-0.9,0.8-2.9,0.8-4c0-1.1-0.4-2-0.3-2.5c0.1-0.6-0.9-2.6-0.5-3.7c0.1-0.3,0.2-0.6,0.1-1c0,0,0,0,0,0s0,0,0,0
	c0-0.9-0.1-1.7-0.3-2.6c-0.8-0.6-1.8-1.1-2.8-1.4l-0.1-0.2l-0.2-0.6c-0.1-0.1-0.2-0.1-0.3-0.2l0-0.2l-0.1-0.9l0.4-2
	c0.7-3.6-4-3.9-4-3.9c-0.3-0.5-0.8-0.9-1.4-1.1c-1-0.3,0,5.3,0.5,5.7c0.3,0.3,1.4,2,2,2.8l0,0l0.1,0.1c-0.1,0.1-0.1,0.2-0.2,0.2
	l0.2,1.2l0,0.2c-0.3,0.4-0.5,0.8-0.7,1.3c0,0,0.9,0.9,0.8,2s0.4,2.4,0.4,2.4c-0.1-0.1-0.7-0.7-1.3-0.5s-2.3,0.8-2.3,0.8
	s-1.3,0.3-1.1,0.5c0.1,0.3-0.8,1.5-0.8,1.5l-3.5-3.1c0-0.1-0.1-0.2-0.1-0.3c-0.2-0.5-0.3-0.9-0.4-1.4c0.4-0.1,0.7-0.2,1.1-0.4
	c0.4-0.1,0.7-0.4,0.9-0.6c0.3-0.4,0.4-1,0.5-1.5c0.2-1,0.8-1.9,1.2-2.9c0.6-1.6,0.8-3.4,0.5-5.1c-0.1-0.5-0.3-1-0.6-1.5
	c-0.6-0.7-1.6-1-2.4-1.6c-0.7-0.6-1.3-1.5-2.1-1.9c-0.8-0.4-1.7-0.3-2.6-0.1c-1.7,0.3-3.3,1-4.8,1.9c-0.5,0.3-1,0.7-1.6,0.6
	c-0.5-0.1-0.9-0.4-1.2-0.8c0,0,0,0,0,0l0,0c-0.3,0.8-0.5,1.7-0.4,2.6c0,0.1,0,0.3,0,0.4c0,0,0,0.1,0,0.1c0,0,0,0.1,0,0.1l0,0
	c0,0.1,0,0.1,0,0.2c-0.1,0.2-0.2,0.3-0.3,0.5c-0.1,0.1-0.2,0.3-0.3,0.4c0,0,0-0.1,0-0.1c-0.2,0.3-0.3,0.7-0.3,1.1
	c0,0.3,0.1,0.6,0.3,0.8c0.2,0.2,0.4,0.3,0.6,0.4c-0.1,0.4-0.1,0.8-0.1,1.1c0.1,2.3,1.4,4.4,3.4,5.5l0.1,0.3c0.5,1.1,0.9,2.4,0.8,3.7
	c0,0.1,0,0.2,0,0.3c0,0-0.1,0.1-0.1,0.1l0,0c0,0-5.6,0.3-7-0.9c-1.4-1.1-3.2,3-3.2,3s-2,0.5-2.4,0.1c-0.4-0.4-2.8,0-2.8,0
	c-1-0.8-2.3-1.2-3.6-1.1c-0.8-0.6-1.7-1-2.6-1.3l0,0l-0.1,0l0,0c-0.4-0.1-0.8-0.2-1.3-0.1c0,0-2.8-2.2-3.7-3.4
	c-0.9-1.2-4.9-5.6-4.9-5.6l0-0.2l-0.1-0.7c-0.1,0-0.2,0-0.3,0c0-0.1-0.1-0.1-0.1-0.2c-0.2-0.6-0.5-1.2-0.9-1.8c0,0,0-0.8,0.2-1
	c0.2-0.2-0.2-3.3-0.2-3.3s-2.7-5.7-4.8-1.3c0,0-4.1,3-0.4,6.1c0,0,1.4,0.6,1.7,1.2c0.1,0.3,0.7,1.3,1,1.9l0.2,0.3l0,0l0.1,0.5l0,0.2
	c-0.7,0.4-1.1,0.8-1,1.1c0.2,0.5,0.4,1,0.5,1.5c0,0,5.1,5.9,5.9,8.5c0,0,13.4,7.3,17.7,7.7l-0.6,3.9c0,0-0.1,2.4-0.1,3.2
	s-0.3,4.6-0.3,4.6s-0.5,5.6-1.1,6.4c-0.6,0.8-0.4,4.1-0.4,4.1c-0.1,1.6-0.3,3.2-0.7,4.8c-0.6,2.1,0,4.7,0,4.7s-2,5.1,3.1,1.5
	c0,0,2.6-0.3,5.5-0.5c0,0.1,0,0.2,0,0.3c0,0.4,0,0.8,0,1.2c0.1,2.9,0.2,6.8,0.4,9.8c0.4,5.3,2.4,15.7,2.4,15.7l0.2,5.3
	c-0.1,0.5-0.1,1-0.1,1.5c0,1.9,0.6,3.7,1.6,5.2l0.5,3.5c0,0,1,2.3,1.1,3.7c0,0.1,0,0.2,0,0.3c0,0.2,0,0.4,0,0.5
	c0,1.6,1.1,5.4,1.1,5.4s0.2,3.8,0.8,4c0.5,0.2-0.6,2.2-0.9,2.8c0,0,0-0.1,0-0.1l-0.1,0.1c-0.1,0.3-0.2,0.6-0.1,1
	c0,0.5,0.2,1.1,0.7,1.3c1.1,0.6,1.7,1.2,0.8,1.4c-0.3,0.1-0.7,0.2-1,0.3l-0.1-0.1c-0.2,0.1-0.4,0.4-0.3,0.7c0,0.3,0.1,0.7,0.4,1.3
	c1,2,1.7,2.8,1.7,2.8l0.4-0.1c-0.1,0.2-0.1,0.3-0.2,0.5c-0.2,0.2-0.4,0.5-0.6,0.6c-0.2,0.2-0.5,0.3-0.8,0.3c-0.6,0-1.2,0.4-1.6,0.9
	c-0.5,0.8-0.9,1.8,0.3,2.6l4.2,1.3c0,0,7.1,0.6,6.7-0.9c-0.4-1.6-0.7-3-0.7-3c0-1-0.2-1.9-0.7-2.8c-0.1-0.1-0.2-0.3-0.3-0.4l0.2,0
	c0,0,0.4-3.5,1-4.2c0.2-0.2,0.2-0.3,0.1-0.4c0.1-0.2-0.1-0.3-0.4-0.4c0,0,0,0.1,0,0.1c-0.2,0-0.4-0.1-0.7,0c0,0-0.3-1.8,0.4-2.5
	c0.1-0.2,0.2-0.4,0.1-0.6c0-0.3,0-0.5-0.1-0.7c0,0,0,0,0,0c-0.4-1.7-1.8-4.3-1.8-4.3s-0.1-1.7,0.3-2.4c0.4-0.7-0.4-9.1-0.4-9.1
	s0-4.1-0.6-5.9c-0.6-1.9,0.5-4.1,0.5-4.1s0,0,0-0.1c0,0,0,0,0,0c0,0,0-0.3-0.1-0.6c0,0,0,0,0,0c-0.2-1.1-0.5-3-0.6-3.9
	c-0.3-1.3-0.2-7.4-0.2-7.4l0.9-2.7l2,4.4l2.2,5.9c0,0,1,1.2,1.1,2.5c0,0.1,0,0.1,0,0.2c0,0.1,0,0.3,0,0.4c0,0.8,0.2,1.5,0.7,2.1
	c0,0,0.6,2.8,1.5,3.5c0.8,0.7,0.9,2.1,0.9,2.1s1.1,4.1,1.6,4.8c0.4,0.6,0.5,2.3,0.5,2.8l0,0c0,0.1,0,0.1,0,0.1s0.2,1.5,0.2,2.7
	c0,0.2,0,0.3,0,0.4c0,0,0,0,0,0c0,0.3,0,0.7-0.1,1c0,0,0,0,0,0.1c0-0.1,0-0.1,0-0.2c-0.2,0.8-0.2,1.7-0.2,2.6c0,1.5,0.3,3.2,1.3,4.2
	c1.6,1.7,2.6,1.5,2.6,1.5s-0.7,2.3-1.6,2.7c0,0-0.1,0-0.1,0.1c0,0,0-0.1,0-0.1c-0.2,0.2-0.3,0.5-0.2,0.8c0,1,0.7,2.5,1.3,3.3
	c0.2,0.2,0.5,0.3,0.8,0.4c0,0-0.1,0.1-0.1,0.1c-0.1,0.1-0.2,0.1-0.3,0.2c-0.1,0.1-0.3,0.1-0.5,0.1c-0.6,0-1.2,0.4-1.6,0.9
	c-0.5,0.8-0.9,1.8,0.3,2.6l4.2,1.3C178.1,198.7,185.2,199.4,184.8,197.8z"/>
<path class="st15" d="M157.9,201.5l-4-1.3c-1.1-0.8-0.8-1.9-0.3-2.6c0.4-0.5,0.9-0.8,1.5-0.9c0.3,0,0.5-0.1,0.7-0.3
	c0.2-0.1,0.5-0.4,0.6-0.6c0.3-0.5,0.4-1,0.4-1.6c0,0,4.3-1.4,5.6-0.2c0.2,0.2,0.4,0.5,0.6,0.8c0.4,0.9,0.7,1.8,0.7,2.8
	c0,0,0.3,1.4,0.7,3C164.7,202.1,157.9,201.5,157.9,201.5z"/>
<path class="st15" d="M177.3,198.8l-4-1.3c-1.1-0.8-0.8-1.9-0.3-2.6c0.4-0.5,0.9-0.8,1.5-0.9c0.2,0,0.3-0.1,0.4-0.1
	c0.1,0,0.2-0.1,0.3-0.2c1.1-0.7,1-2.2,1-2.2s4.3-1.4,5.6-0.2c0.2,0.2,0.3,0.4,0.4,0.6c0.8,1.3,0.8,3,0.8,3s0.3,1.4,0.7,3
	C184.1,199.4,177.3,198.8,177.3,198.8z"/>
<path class="st16" d="M162.4,194.1c0.2,0.2,0.4,0.5,0.6,0.8l0,0l-6.5,1c0.3-0.5,0.4-1,0.4-1.6C156.8,194.3,161.2,192.8,162.4,194.1z
	"/>
<path class="st16" d="M182.2,191.9l0,1.2c-1,1.7-5.9,1.5-7.4,0.8c0.1,0,0.2-0.1,0.3-0.2c1.1-0.7,1-2.2,1-2.2s4.3-1.4,5.6-0.2
	C182,191.5,182.1,191.7,182.2,191.9z"/>
<path class="st17" d="M182.8,186.6c-0.3,0.5-0.5,1.1-0.7,1.7l0.2,4.4c-1,1.9-6.9,1.5-7.7,0.5c-0.8-1-1.8-3.6-0.9-4
	c0.9-0.5,1.5-2.7,1.5-2.7s-0.9,0.3-2.5-1.5c-1.6-1.7-1.3-5.7-1-6.6s-0.2-4.1-0.2-4.1s0-2.2-0.5-2.9c-0.5-0.7-1.6-4.8-1.6-4.8
	s-0.1-1.4-0.9-2.1c-0.8-0.7-1.4-3.5-1.4-3.5c-0.5-0.7-0.7-1.5-0.6-2.4c0.1-1.4-1.1-2.9-1.1-2.9l-2.1-5.9l-2-4.4l-0.9,2.7
	c0,0,0,6.1,0.2,7.4c0.3,1.3,0.7,4.7,0.7,4.7s-1,2.3-0.5,4.1c0.6,1.9,0.6,5.9,0.6,5.9s0.8,8.4,0.4,9.1s-0.3,2.4-0.3,2.4
	s2.5,4.8,1.8,5.5c-0.7,0.7-0.4,2.5-0.4,2.5s1.6-0.1,0.9,0.6s-1,4.2-1,4.2l-6.7,1c0,0-0.6-0.8-1.6-2.8c-1-2,0.1-1.8,1-2.1
	s0.3-0.8-0.8-1.4c-1.1-0.6-0.5-2.2-0.5-2.2s1.5-2.8,0.9-3s-0.8-4-0.8-4s-1.3-4.5-1-5.7s-1-4.1-1-4.1l-0.5-3.5
	c-2.2-3.4-1.5-6.6-1.5-6.6l-0.2-5.4c0,0-2-10.4-2.4-15.7c-0.3-3.4-0.4-8-0.5-10.9c0-1.6,0-2.7,0-2.7l23.9-3.4c0,0,0,1.1,0.6,3.6
	c0.3,1.3,0.7,3,1.4,5.1c2,6.1,1.1,10.7,1.1,10.7l0.1,7.7c0,0,2.3,5.1,1.9,6.9c-0.2,1.1-0.3,2.2-0.3,3.2c0,0,5.2,11.1,4.8,14.4
	c-0.4,3.3,1.9,8.4,1.9,8.4S183.3,185.6,182.8,186.6z"/>
<path class="st18" d="M167.9,158.1l7.3-1.3C175.2,156.9,171.3,161.3,167.9,158.1z"/>
<path class="st16" d="M173.9,149.8c0,0,0.4,2.6-1.2,3.6C172.7,153.4,175.5,152.8,173.9,149.8z"/>
<path class="st16" d="M173.1,141.6c0,0-5.9,5.3-8.2,4.9C162.7,146.2,173.1,141.6,173.1,141.6z"/>
<path class="st16" d="M159,160.8c0,0-4.6,1.2-4.7,3.1C154.2,165.8,159,160.8,159,160.8z"/>
<path class="st18" d="M160.9,184c0,0-6.5,1.5-4.6,2.2s5,1.3,5,1.3S163.4,187.6,160.9,184z"/>
<g class="st19">
	<path d="M155,187.6c-0.3-0.2-0.6-0.5-0.6-0.9l-0.1,0.1c0,0-0.6,1.5,0.5,2.2c0.1,0.1,0.2,0.1,0.4,0.2c0.2,0,0.4-0.1,0.6-0.1
		C156.7,188.8,156.1,188.2,155,187.6z"/>
	<path d="M163.4,186.9c0.2-0.2,0.2-0.6,0-1.1c-0.3,0.4-0.3,1.1-0.3,1.6C163.2,187.2,163.3,187,163.4,186.9z"/>
	<path d="M161.4,159.2c-0.2,0.7-0.3,1.4-0.4,2.1c0.1-0.5,0.3-1,0.5-1.4C161.4,159.8,161.4,159.6,161.4,159.2z"/>
	<path d="M176.3,155.7c0-0.2,0.1-0.4,0-0.6c-0.1,0.4-0.1,0.8-0.1,1.1C176.2,156.1,176.2,155.9,176.3,155.7z"/>
	<path d="M162,179c0.1-0.1,0.1-0.6,0.1-1.2c-0.2,0.5-0.3,1-0.3,1.6C161.8,179.2,161.9,179.1,162,179z"/>
	<path d="M163.7,189.4c-0.4,1.3-0.6,3.4-0.6,3.4l-6.7,1c0,0-0.6-0.8-1.6-2.8c-0.1-0.2-0.2-0.3-0.2-0.5c-0.4,0.2-0.5,0.6,0,1.8
		c1,2,1.6,2.8,1.6,2.8l6.7-1c0,0,0.4-3.5,1-4.2C164.3,189.7,164,189.5,163.7,189.4z"/>
	<path d="M154.5,179.8c0,0,0.2,3.8,0.8,4l0,0c0.3-0.6,0.4-1.3,0.2-1.3c-0.6-0.2-0.8-4-0.8-4s-1.3-4.5-1-5.7c0.2-1.2-1-4.1-1-4.1
		l-0.5-3.5c-2.1-3.4-1.5-6.6-1.5-6.6l-0.2-5.4c0,0-2-10.4-2.4-15.7c-0.3-3.4-0.4-8-0.5-10.9c0-0.5,0-1,0-1.4l-0.2,0c0,0,0,1.1,0,2.7
		c0.1,2.9,0.2,7.5,0.5,10.9c0.4,5.3,2.4,15.7,2.4,15.7l0.2,5.4c0,0-0.7,3.2,1.5,6.6l0.5,3.5c0,0,1.3,2.9,1,4.1
		C153.2,175.3,154.5,179.8,154.5,179.8z"/>
	<path d="M174.8,191.7c-0.6-0.8-1-1.7-1.2-2.6c-0.7,0.6,0.2,3,1,3.9c0.8,1,6.6,1.4,7.7-0.5l0-1.1C180.8,193,175.5,192.6,174.8,191.7
		z"/>
	<path d="M183,185.1c-0.3,0.5-0.5,1.1-0.7,1.7l0,0.8c0.1-0.3,0.3-0.7,0.5-1.1C183,186,183,185.5,183,185.1
		C183,185.1,183,185.1,183,185.1z"/>
	<path d="M174.9,186.3c0.2-0.4,0.4-0.9,0.5-1.3c0,0-0.9,0.3-2.5-1.5c-1.1-1.3-1.3-3.7-1.2-5.3c-0.2,1-0.5,4.9,1,6.6
		C173.7,185.9,174.5,186.2,174.9,186.3z"/>
	<path d="M171.5,174.1c0.1,1.1,0.2,2.2,0.2,3.3c0-0.2,0.1-0.4,0.1-0.5c0.2-1-0.2-4.1-0.2-4.1s0-2.2-0.5-2.9
		c-0.5-0.7-1.6-4.8-1.6-4.8s-0.1-1.4-0.9-2.1c-0.8-0.7-1.4-3.5-1.4-3.5c-0.5-0.7-0.7-1.5-0.6-2.4c0.1-1.4-1-2.9-1-2.9l-2.1-5.9
		l-2-4.4l-0.9,2.7c0,0,0,0.3,0,0.8l0.7-2.2l2,4.4l2.1,5.9c0,0,1.2,1.5,1,2.9c-0.1,0.8,0.2,1.7,0.6,2.4c0,0,0.6,2.8,1.4,3.5
		c0.8,0.7,0.9,2.1,0.9,2.1s1.1,4.1,1.6,4.8C171.5,171.8,171.5,174.1,171.5,174.1z"/>
</g>
<path class="st20" d="M172.2,71.5l-0.3,2l0.1,0.9l0,0.7l-2.3,0.3l-0.3-0.5l0,0c-0.5-0.9-1.6-2.6-1.9-2.8c-0.4-0.3-1.4-6-0.5-5.7
	c0.6,0.2,1,0.6,1.3,1.1C168.4,67.6,172.9,68,172.2,71.5z"/>
<path class="st16" d="M172,75.2l-2.3,0.3l-0.3-0.5l0,0c0.6-0.8,1.7-1,2.5-0.5L172,75.2z"/>
<path class="st21" d="M172.6,76.2l-3,0.8l-0.1-0.5l-0.2-1.2c0,0,1.1-1.7,2.9-0.5l0.2,0.6L172.6,76.2z"/>
<path class="st20" d="M122.9,73.7l-3.2,1.9c0,0-0.1-0.3-0.3-0.6c-0.3-0.6-0.8-1.6-1-1.9c-0.2-0.5-1.6-1.2-1.6-1.2
	c-3.5-3.1,0.4-6.1,0.4-6.1c2-4.4,4.6,1.3,4.6,1.3s0.4,3,0.2,3.3s-0.2,1-0.2,1c0.3,0.6,0.6,1.2,0.9,1.8
	C122.8,73.5,122.9,73.7,122.9,73.7z"/>
<path class="st16" d="M122.9,73.7l-3.2,1.9c0,0-0.1-0.3-0.3-0.6c0.4-0.4,2-1.8,2.6-1.8c0.3,0,0.5,0,0.8,0
	C122.8,73.5,122.9,73.7,122.9,73.7z"/>
<path class="st21" d="M123.3,74.6l-3.6,1.9l-0.1-0.8l-0.1-0.5c0,0,2.1-1.9,2.7-1.9c0.3,0,0.6,0,1,0l0.1,0.7L123.3,74.6z"/>
<path class="st20" d="M163.9,85.4c0,0-15.9,2.4-13,1.3c2.1-0.8,2.8-2.1,2.9-3.6c0.1-1.2-0.3-2.6-0.7-3.7c-0.4-1-0.9-1.9-1.5-2.8
	c0,0,12-7.2,9.8-1c-0.3,0.9-0.5,1.9-0.6,2.9c0,1,0.1,2,0.4,2.9C161.7,83,162.6,84.3,163.9,85.4z"/>
<path class="st16" d="M161.3,75.6c-0.3,0.9-0.5,1.9-0.6,2.9c-1.1,1-2.4,1-4,1.1c-1.2,0-2.6,0.4-3.6-0.2c-0.4-1-0.9-1.9-1.5-2.8
	C151.6,76.6,163.5,69.4,161.3,75.6z"/>
<circle class="st20" cx="156.3" cy="73.4" r="6.6"/>
<path class="st16" d="M163.9,85.4c0,0-15.9,2.4-13,1.3c2.1-0.8,2.8-2.1,2.9-3.6c0.8-0.9,2.4-1.6,3.4-1.9c0.9-0.4,1.9-0.4,2.9-0.2
	c0.4,0.1,0.7,0.2,1.1,0.4C161.7,83,162.6,84.3,163.9,85.4z"/>
<path class="st16" d="M172.6,76.2l-3,0.8l-0.1-0.5c0.6-0.9,1.8-1.4,2.9-1.1L172.6,76.2z"/>
<path class="st16" d="M123.3,74.6l-3.6,1.9l-0.1-0.8c1.3-0.8,3.5-1.7,3.6-1.8L123.3,74.6z"/>
<path class="st16" d="M171.8,125.5c-6.2,1.2-14.9,2.8-16.4,2.5c-1.2-0.3-4.9-0.1-8.1,0.1c0-1.6,0-2.7,0-2.7l23.9-3.4
	C171.2,121.9,171.2,123,171.8,125.5z"/>
<path class="st22" d="M177.9,123.8c0,0-20.3,4.3-22.5,3.7c-2.2-0.6-13.4,0.6-13.4,0.6c-4.9,3.6-3-1.5-3-1.5s-0.5-2.6,0-4.7
	c0.3-1.6,0.6-3.2,0.7-4.8c0,0-0.2-3.3,0.3-4.1c0.6-0.8,1.1-6.4,1.1-6.4s0.4-3.8,0.3-4.6c-0.1-0.8,0-3.2,0-3.2l0.6-3.9
	c-4.2-0.4-17.2-7.7-17.2-7.7c-0.7-2.6-5.7-8.5-5.7-8.5c-0.1-0.5-0.2-1-0.4-1.5c-0.4-0.9,4.6-2.9,4.6-2.9s3.9,4.4,4.7,5.6
	s3.6,3.4,3.6,3.4c0.4-0.1,0.8,0,1.2,0.1c0,0,0,0,0.1,0l0,0c0.9,0.3,1.8,0.8,2.5,1.3c2-0.2,3.4,1.1,3.4,1.1s2.3-0.4,2.7,0
	c0.4,0.4,2.3-0.1,2.3-0.1s1.8-4.2,3.1-3s6.8,0.9,6.8,0.9c0.7-1,2.4-1.7,3.5-2.1c0.9-0.4,1.9-0.4,2.9-0.2c0.4,0.1,0.8,0.3,1.2,0.5
	l3.4,3.1c0,0,0.9-1.3,0.8-1.5c-0.1-0.3,1.1-0.5,1.1-0.5s1.6-0.6,2.2-0.8c0.6-0.2,1.2,0.4,1.2,0.5c0-0.1-0.5-1.4-0.4-2.4
	c0.1-1-0.7-2-0.7-2c1.8-4.9,6.3-1,6.3-1s0.6,2.6,0.2,3.6c-0.4,1,0.6,3.1,0.5,3.7c-0.1,0.6,0.3,1.5,0.3,2.5c0,1.1-0.4,3.1-0.8,4
	s-2.9,3-2.9,3s0,3.2-1.1,5.1c-1.1,1.9-0.1,8.1-0.1,8.1s1.3,4.9,2.8,6.4S177.9,123.8,177.9,123.8z"/>
<path class="st16" d="M146.7,88.3c0,0-0.7-1.8-1.2-2c-0.6-0.2-1.1-0.4-1.6-0.7l0.3-0.7c0,0,2.1,0.5,2.5,1.1
	C147,86.7,146.7,88.3,146.7,88.3z"/>
<path class="st16" d="M135.4,84.7c-0.1,0.6-5,1.3-5,1.3l2.4-2.6l0,0l0.1,0l0,0C133.7,83.7,134.6,84.1,135.4,84.7z"/>
<circle class="st17" cx="120.8" cy="77.6" r="0.4"/>
<circle class="st17" cx="121.4" cy="78.5" r="0.4"/>
<circle class="st17" cx="121.9" cy="79.3" r="0.4"/>
<circle class="st17" cx="122.6" cy="80.1" r="0.4"/>
<circle class="st17" cx="175" cy="78.1" r="0.4"/>
<circle class="st17" cx="175.1" cy="78.9" r="0.4"/>
<circle class="st17" cx="175.2" cy="79.7" r="0.4"/>
<path class="st16" d="M147.3,103.4c-0.1-0.1,13.1,15.3,22.5,5.8C169.8,109.2,154.5,111.8,147.3,103.4z"/>
<path class="st16" d="M140.4,111.9c0,0,7.5-0.1,8.4,2l0.1,2.2c-0.4,0.3-1,0.3-1.4,0.1c-0.8-0.4-5.4-2.5-7-1.3L140.4,111.9z"/>
<path class="st22" d="M140.6,111.9c0,0,7.2-0.1,8,1.9l0.1,2.1c-0.4,0.2-0.9,0.3-1.3,0.1c-0.7-0.4-5.2-2.4-6.7-1.3L140.6,111.9z"/>
<path class="st16" d="M143.9,95.5c0.8,1.7,1.9,3.4,3.1,4.9c1.3,1.7,2.9,3.1,4.7,4.2C151.7,104.6,144.1,96.5,143.9,95.5z"/>
<path class="st16" d="M141.1,86.8c0,0,1.5,5.4,4.8,7.1L141.1,86.8z"/>
<path class="st16" d="M139.2,87.4c0-0.1-0.9,4.3,4.4,6.5C143.6,94,141.4,93.3,139.2,87.4z"/>
<path class="st16" d="M171.8,82.6c-0.1,0,2.7,1.6,3.4,2.4C175.3,84.9,173.4,82.4,171.8,82.6z"/>
<path class="st15" d="M154.7,79.5c0.1,0.3,0.2,0.7,0.6,0.9c0.2,0.1,0.4,0.1,0.6,0.1c2,0,4.1,0.1,6-0.8c0.3-0.1,0.6-0.4,0.9-0.6
	c0.3-0.4,0.4-1,0.5-1.5c0.2-1,0.7-1.9,1.1-2.9c0.6-1.6,0.8-3.4,0.5-5.1c-0.1-0.5-0.3-1-0.6-1.5c-0.6-0.7-1.6-1-2.3-1.6
	c-0.7-0.6-1.2-1.5-2.1-1.9c-0.8-0.4-1.7-0.3-2.5-0.1c-1.6,0.3-3.2,1-4.6,1.9c-0.5,0.3-1,0.7-1.5,0.6c-0.5-0.1-0.9-0.5-1.2-0.8
	c-0.4,0.9-0.5,1.9-0.4,2.9c0,0.1,0,0.3,0,0.4c-0.1,0.2-0.2,0.3-0.3,0.5c-0.5,0.6-0.8,1.5-0.2,2.1c0.2,0.2,0.6,0.4,0.8,0.6
	c0.4,0.5,0.3,1.1,0.3,1.7c0,0.2,0,0.4,0.2,0.6c0.2,0.2,0.5,0.3,0.8,0.2c0.3-0.1,0.6-0.1,0.9-0.1c0.3,0.1,0.6,0.3,0.8,0.6
	C153.9,76.8,154.3,78.1,154.7,79.5z"/>
<g class="st23">
	<path d="M163,78.5c-0.2,0.3-0.5,0.5-0.9,0.6c-1.8,0.8-3.9,0.8-6,0.8c-0.2,0-0.4,0-0.6-0.1c-0.3-0.2-0.4-0.5-0.6-0.9
		c-0.4-1.4-0.9-2.7-1.8-3.9c-0.2-0.3-0.5-0.5-0.8-0.6c-0.3,0-0.6,0-0.9,0.1c-0.3,0.1-0.6,0-0.8-0.2c-0.1-0.2-0.2-0.4-0.2-0.6
		c0-0.6,0.1-1.3-0.3-1.7c-0.2-0.3-0.6-0.4-0.8-0.6c-0.3-0.4-0.4-0.9-0.2-1.3c-0.3,0.6-0.5,1.3,0,1.8c0.2,0.2,0.6,0.4,0.8,0.6
		c0.4,0.4,0.3,1.1,0.3,1.7c0,0.2,0,0.4,0.2,0.6c0.2,0.2,0.5,0.3,0.8,0.2c0.3-0.1,0.6-0.1,0.9-0.1c0.3,0.1,0.6,0.3,0.8,0.6
		c1,1.1,1.4,2.4,1.8,3.9c0.1,0.3,0.2,0.7,0.6,0.9c0.2,0.1,0.4,0.1,0.6,0.1c2,0,4.1,0.1,6-0.8c0.3-0.1,0.6-0.4,0.9-0.6
		C162.9,78.8,163,78.6,163,78.5C163,78.5,163,78.5,163,78.5z"/>
	<path d="M149.7,69.4c0.1-0.1,0.2-0.2,0.2-0.3c0-0.1,0-0.3,0-0.4c-0.1-0.8,0-1.6,0.2-2.4l0,0c-0.4,0.9-0.5,1.9-0.4,2.9
		C149.7,69.1,149.7,69.3,149.7,69.4z"/>
</g>
<path class="st16" d="M153.7,83.5c0,0,8.3,0.8,9-0.5"/>
<path class="st16" d="M169.6,79.5c0,0,4.6-0.2,5.7,1.5"/>
<path class="st0" d="M270.1,166.8c0,0,1.5,2-0.7,5.1s-4.1,5.6-3.4,7.5c0,0,3.4-5.7,6.2-5.8C275,173.6,273.2,170.2,270.1,166.8z"/>
<path class="st16" d="M270.1,166.8c0.1,0.2,0.2,0.4,0.3,0.6c2.7,3.2,4.2,6.2,1.6,6.2c-2.4,0.1-5.3,4.4-6,5.5c0,0.1,0.1,0.2,0.1,0.3
	c0,0,3.4-5.7,6.2-5.8S273.2,170.2,270.1,166.8z"/>
<path class="st24" d="M273,169.4c0,0.7-0.1,1.3-0.2,1.3s-0.2-0.6-0.2-1.3s0.1-0.4,0.2-0.4C272.9,169,273,168.6,273,169.4z"/>
<path class="st24" d="M274,170.2c-0.6,0.3-1.2,0.5-1.2,0.5c0-0.1,0.4-0.4,1-0.8s0.4-0.1,0.4,0C274.3,170,274.6,169.9,274,170.2z"/>
<path class="st0" d="M261.9,166.8c0,0-1.5,2,0.7,5.1s4.1,5.6,3.4,7.5c0,0-3.4-5.7-6.2-5.8C257.1,173.6,258.9,170.2,261.9,166.8z"/>
<path class="st16" d="M261.9,166.8c-0.1,0.2-0.2,0.4-0.3,0.6c-2.7,3.2-4.2,6.2-1.6,6.2c2.4,0.1,5.3,4.4,6,5.5c0,0.1-0.1,0.2-0.1,0.3
	c0,0-3.4-5.7-6.2-5.8S258.9,170.2,261.9,166.8z"/>
<path class="st24" d="M259.1,169.4c0,0.7,0.1,1.3,0.2,1.3c0.1,0,0.2-0.6,0.2-1.3s-0.1-0.4-0.2-0.4S259.1,168.6,259.1,169.4z"/>
<path class="st24" d="M258.1,170.2c0.6,0.3,1.2,0.5,1.2,0.5c0-0.1-0.4-0.4-1-0.8c-0.6-0.4-0.4-0.1-0.4,0
	C257.8,170,257.4,169.9,258.1,170.2z"/>
<ellipse class="st4" cx="266" cy="192.4" rx="16.2" ry="2.5"/>
<path class="st25" d="M274.4,176.7l-0.1,0.6l-0.1,0.9l0,0.4l-0.1,0.9l0,0.4l-0.1,0.9l-1.2,10.2c-0.1,0.9-1.6,1.6-3.4,1.6h-6.4
	c-1.8,0-3.3-0.7-3.4-1.6l-1.2-10.2l-0.1-0.9l0-0.4l-0.1-0.9l0-0.4l-0.1-0.9l-0.1-0.6c-0.1-0.5,0.7-0.9,1.8-0.9h13.2
	C273.6,175.7,274.4,176.2,274.4,176.7z"/>
<polygon class="st26" points="274.3,177.3 274.2,178.2 257.9,178.2 257.8,177.3 "/>
<polygon class="st26" points="274.1,178.6 274,179.5 258,179.5 257.9,178.6 "/>
<polygon class="st26" points="274,179.8 273.9,180.7 258.2,180.7 258.1,179.8 "/>
</svg>
