<?xml version="1.0" encoding="utf-8"?>
<!-- Generator: Adobe Illustrator 23.0.2, SVG Export Plug-In . SVG Version: 6.00 Build 0)  -->
<svg version="1.1" id="b43bf247-fd00-4c66-86de-2f4e4870ba29"
	 xmlns="http://www.w3.org/2000/svg" xmlns:xlink="http://www.w3.org/1999/xlink" x="0px" y="0px" viewBox="0 0 284.4 199.6"
	 style="enable-background:new 0 0 284.4 199.6;" xml:space="preserve">
<style type="text/css">
	.st0{opacity:0.1;fill:#31B096;enable-background:new    ;}
	.st1{opacity:0.1;}
	.st2{fill:#3F3D56;}
	.st3{fill:#31B096;}
	.st4{opacity:0.1;enable-background:new    ;}
	.st5{fill:none;stroke:#3F3D56;stroke-width:7;stroke-linecap:round;stroke-miterlimit:10;}
	.st6{fill:#A8A8A8;}
	.st7{opacity:0.2;enable-background:new    ;}
	.st8{fill:url(#SVGID_1_);}
	.st9{fill:#696791;}
	.st10{fill:#A0616A;}
	.st11{fill:#F86D70;}
	.st12{fill:#2D293D;}
</style>
<title>visual data</title>
<ellipse class="st0" cx="245.6" cy="195.3" rx="16.3" ry="4.3"/>
<path class="st0" d="M272.5,176.8c-6.2,5.1-15,7.3-23.5,8.6l-1.4,0.2c-8.9,1.3-17.9,2-27,2.5c-4.8,0.2-9.7,0.4-14.5,0.5l-3.8,0.1
	c-4.9,0.1-9.9,0.3-14.8,0.4c-4.8,0.1-9.7,0.3-14.5,0.4c-6.2,0.2-12.4,0.3-18.6,0.4c-4.8,0.1-9.7,0.1-14.5,0.2c-6.2,0-12.4,0-18.6,0
	c-4.8,0-9.7-0.1-14.5-0.3c-6.2-0.2-12.4-0.4-18.6-0.7c-4.2-0.2-8.4-0.5-12.6-0.7l-1.9-0.1c-18-1.3-36.4-3.6-52.1-11l-0.4-0.2
	c-0.2-0.1-0.4-0.2-0.6-0.3c-2.9-1.4-5.7-3-8.3-4.9c-4.7-3.3-8.5-7.4-10.5-12.2c-3.2-7.5-1.5-16,2.1-23.4s9.1-14,13.8-21
	c1.4-2,2.7-4.1,3.9-6.3C29.2,95.4,33,79.7,25,66.6c-1.1-1.7-2.2-3.3-3.4-4.8c-2-2.5-3.9-5.1-5.3-7.9c-3.1-6.6-2.5-13.9-1.3-20.9
	c1.5-9.3,4.3-19.3,13.1-25.2c9.1-6,22-5.7,33.2-3.6c17.5,3.4,33.7,10.4,50,16.7s33.4,12.1,51.4,12.8c3.9,0.1,7.7,0,11.6-0.4l0,0
	c5.1-0.5,10.2-1.6,15-3.2c7.1-2.3,13.5-5.8,18.3-10.7C217.8,9,237,8.2,250.8,14.5c13.2,6,21.8,18.7,21.1,31.3
	c-0.7,14.1-11.3,25.7-21,37.6c-1.2,1.4-2.3,2.9-3.5,4.3c-0.6,0.8-1.2,1.6-1.9,2.4l0,0c-1.1,1.4-2.1,2.9-3.1,4.4
	c-4.9,7.5-8.4,16.5-5,24.7c1.9,4.5,5.6,8,9.9,11c9.8,6.8,23.4,11.3,29.5,20.8C282.3,159.2,280.4,170.3,272.5,176.8z"/>
<g class="st1">
	<path class="st2" d="M141.4,139.8c0,0.2,0,0.5,0.1,0.7c2-0.8,3.9-1.6,5.8-2.5c1-0.1,2-0.6,2.7-1.3c0.6-0.3,1.1-0.6,1.7-0.9
		c-0.1-0.3-0.3-0.5-0.4-0.8c-1.1-1.7-2.7-2.8-4.5-2.7c-1.8,0.1-3.3,1.2-4.3,3C141.7,136.6,141.3,138.2,141.4,139.8z"/>
	<path class="st2" d="M141.1,130.8c0,1.6,0.5,3.1,1.3,4.4c1.1,1.7,2.7,2.7,4.5,2.7c0.1,0,0.3,0,0.4,0c1-0.1,2-0.6,2.7-1.3
		c0.5-0.5,0.9-1,1.2-1.6c1.5-2.8,1.4-6.2-0.3-8.9c-1.1-1.7-2.7-2.8-4.5-2.7c-1.8,0.1-3.3,1.2-4.3,3
		C141.4,127.7,141,129.3,141.1,130.8z"/>
	
		<ellipse transform="matrix(0.9995 -3.280630e-02 3.280630e-02 0.9995 -3.9157 4.8678)" class="st2" cx="146.4" cy="121.8" rx="5.6" ry="7.3"/>
	
		<ellipse transform="matrix(0.9995 -3.280630e-02 3.280630e-02 0.9995 -3.6239 4.8535)" class="st2" cx="146.1" cy="112.9" rx="5.6" ry="7.3"/>
	
		<ellipse transform="matrix(0.9995 -3.280630e-02 3.280630e-02 0.9995 -3.332 4.8391)" class="st2" cx="145.8" cy="104" rx="5.6" ry="7.3"/>
	<path class="st3" d="M164.6,42.4c0.7-1,1.4-2,2-3.1l-14.7-1.9l15.8-0.4c2.8-6.8,2.8-14.4-0.2-21.1l-20.8,11.7l19.1-15
		C157.9,0,141.5-3.7,129,4.1c-12.5,7.8-16.2,24.3-8.4,36.8c0.6,1,1.3,2,2.1,2.9c-1.1,1.5-2.1,3.2-2.9,5l19.3,9.2l-20.5-6.1
		c-2.6,8.6-0.7,18,5.1,24.9c-8.7,11.9-6.2,28.6,5.7,37.3c11.9,8.7,28.6,6.2,37.3-5.7c7.3-9.9,6.8-23.5-1.1-32.9
		C173,65.4,172.6,51.8,164.6,42.4z"/>
	<path class="st4" d="M117.6,60.4c0.2,6,2.4,11.7,6.2,16.3c-8.7,11.9-6.2,28.6,5.7,37.3s28.6,6.2,37.3-5.7
		c7.3-9.9,6.8-23.5-1.1-32.9C169.1,70.7,117.5,57.4,117.6,60.4z"/>
</g>
<g class="st1">
	<path class="st2" d="M83,186.6c0,0.2,0,0.3,0,0.5c-1.4-0.6-2.8-1.2-4.2-1.8c-0.7-0.1-1.4-0.4-1.9-0.9c-0.4-0.2-0.8-0.4-1.2-0.6
		c0.1-0.2,0.2-0.4,0.3-0.5c0.8-1.2,1.9-2,3.2-1.9c1.3,0,2.4,0.9,3.1,2.1C82.8,184.4,83.1,185.5,83,186.6z"/>
	<path class="st2" d="M83.2,180.3c0,1.1-0.3,2.2-0.9,3.1c-0.8,1.2-1.9,2-3.2,1.9l-0.3,0c-0.7-0.1-1.4-0.4-1.9-0.9
		c-0.4-0.3-0.7-0.7-0.9-1.2c-1-2-1-4.4,0.2-6.3c0.8-1.2,1.9-2,3.2-1.9c1.3,0,2.4,0.9,3.1,2.1C83,178.1,83.3,179.2,83.2,180.3z"/>
	
		<ellipse transform="matrix(3.158516e-02 -0.9995 0.9995 3.158516e-02 -96.8066 247.7974)" class="st2" cx="79.5" cy="173.9" rx="5.2" ry="4"/>
	
		<ellipse transform="matrix(3.158516e-02 -0.9995 0.9995 3.158516e-02 -90.2836 241.8606)" class="st2" cx="79.7" cy="167.5" rx="5.2" ry="4"/>
	
		<ellipse transform="matrix(3.158516e-02 -0.9995 0.9995 3.158516e-02 -83.7556 235.9239)" class="st2" cx="79.9" cy="161.2" rx="5.2" ry="4"/>
	<path class="st3" d="M66.4,117.4c-0.5-0.7-1-1.4-1.4-2.2l10.5-1.4l-11.3-0.3c-2-4.8-2-10.3,0.1-15l14.8,8.3L65.6,96.1
		c5.5-8.9,17.2-11.6,26.1-6.1s11.6,17.2,6.1,26.1c-0.5,0.8-1,1.5-1.6,2.2c0.8,1.1,1.5,2.3,2.1,3.5l-13.7,6.6l14.6-4.4
		c1.9,6.1,0.5,12.8-3.6,17.7c6.2,8.4,4.4,20.3-4,26.5s-20.3,4.4-26.5-4c-5.2-7.1-4.9-16.7,0.7-23.4
		C60.5,133.8,60.8,124.1,66.4,117.4L66.4,117.4z"/>
	<path class="st4" d="M99.9,130.2c-0.1,4.3-1.7,8.3-4.4,11.6c6.2,8.4,4.4,20.3-4,26.5s-20.3,4.4-26.5-4c-5.2-7.1-4.9-16.7,0.7-23.4
		C63.2,137.5,100,128,99.9,130.2z"/>
</g>
<g class="st1">
	<path class="st2" d="M215.6,153.5c0,0.2,0,0.3,0,0.5c-1.4-0.6-2.8-1.2-4.2-1.8c-0.7-0.1-1.4-0.4-1.9-0.9c-0.4-0.2-0.8-0.4-1.2-0.6
		c0.1-0.2,0.2-0.4,0.3-0.5c0.8-1.2,1.9-2,3.2-1.9c1.3,0,2.4,0.9,3.1,2.1C215.4,151.3,215.6,152.4,215.6,153.5z"/>
	<path class="st2" d="M215.8,147.2c0,1.1-0.3,2.2-0.9,3.1c-0.8,1.2-1.9,2-3.2,1.9l-0.3,0c-0.7-0.1-1.4-0.4-1.9-0.9
		c-0.4-0.3-0.7-0.7-0.9-1.2c-1-2-1-4.4,0.2-6.3c0.8-1.2,1.9-2,3.2-1.9c1.3,0,2.4,0.9,3.1,2.1C215.6,145,215.8,146.1,215.8,147.2z"/>
	
		<ellipse transform="matrix(3.158516e-02 -0.9995 0.9995 3.158516e-02 64.6639 348.2397)" class="st2" cx="212" cy="140.8" rx="5.2" ry="4"/>
	
		<ellipse transform="matrix(3.158516e-02 -0.9995 0.9995 3.158516e-02 71.1894 342.3055)" class="st2" cx="212.2" cy="134.4" rx="5.2" ry="4"/>
	
		<ellipse transform="matrix(3.158516e-02 -0.9995 0.9995 3.158516e-02 77.7148 336.3713)" class="st2" cx="212.4" cy="128.1" rx="5.2" ry="4"/>
	<path class="st3" d="M199,84.3c-0.5-0.7-1-1.4-1.4-2.2l10.5-1.4l-11.3-0.3c-2-4.8-2-10.3,0.1-15l14.8,8.3L198.1,63
		c5.5-8.9,17.2-11.7,26.1-6.1c8.9,5.5,11.7,17.2,6.1,26.1c-0.5,0.8-1,1.5-1.6,2.2c0.8,1.1,1.5,2.3,2.1,3.5l-13.7,6.6l14.6-4.4
		c1.9,6.1,0.5,12.8-3.6,17.7c6.2,8.4,4.4,20.3-4,26.5c-8.4,6.2-20.3,4.4-26.5-4c-5.2-7.1-4.9-16.7,0.7-23.4
		C193,100.7,193.3,91,199,84.3L199,84.3z"/>
	<path class="st4" d="M232.5,97c-0.1,4.3-1.7,8.3-4.4,11.6c6.2,8.4,4.4,20.3-4,26.5c-8.4,6.2-20.3,4.4-26.5-4
		c-5.2-7-4.9-16.7,0.7-23.4C195.8,104.4,232.5,94.9,232.5,97z"/>
</g>
<ellipse class="st3" cx="49.3" cy="191.1" rx="14.5" ry="2.8"/>
<ellipse class="st2" cx="49" cy="189.9" rx="1.7" ry="2.2"/>
<ellipse class="st2" cx="49" cy="187.2" rx="1.7" ry="2.2"/>
<ellipse class="st2" cx="49" cy="184.5" rx="1.7" ry="2.2"/>
<ellipse class="st2" cx="49" cy="181.8" rx="1.7" ry="2.2"/>
<ellipse class="st2" cx="49" cy="179.1" rx="1.7" ry="2.2"/>
<ellipse class="st2" cx="49" cy="176.3" rx="1.7" ry="2.2"/>
<ellipse class="st2" cx="49" cy="173.6" rx="1.7" ry="2.2"/>
<path class="st3" d="M55.3,155.1c0.2-0.3,0.4-0.6,0.6-0.9l-4.4-0.7l4.8,0c0.9-2,1-4.3,0.2-6.4l-6.4,3.3l5.9-4.4
	c-2.2-3.9-7.2-5.2-11.1-2.9s-5.2,7.2-2.9,11.1c0.2,0.3,0.4,0.6,0.6,0.9c-0.4,0.5-0.7,1-0.9,1.5l5.8,3l-6.1-2.1
	c-0.9,2.6-0.4,5.4,1.3,7.6c-2.8,3.5-2.2,8.6,1.4,11.4c3.5,2.8,8.6,2.2,11.4-1.4c2.3-2.9,2.3-7.1,0-10
	C57.6,162.2,57.6,158.1,55.3,155.1L55.3,155.1z"/>
<path class="st4" d="M40.9,160.1c0,1.8,0.6,3.6,1.7,5c-2.8,3.5-2.2,8.6,1.4,11.4c3.5,2.8,8.6,2.2,11.4-1.4c2.3-2.9,2.3-7.1,0-10
	C56.4,163.8,40.9,159.2,40.9,160.1z"/>
<path class="st2" d="M88.2,131.6v57.5c-4.2-0.2-8.4-0.5-12.6-0.7l-1.9-0.1v-56.7c0-1.2,1-2.2,2.2-2.2l0,0h10
	C87.2,129.3,88.2,130.3,88.2,131.6z"/>
<path class="st2" d="M106.8,189.8V93.1c0-1.2,1-2.2,2.2-2.2l0,0h10c1.2,0,2.2,1,2.2,2.2l0,0v96.9L106.8,189.8z"/>
<path class="st2" d="M139.9,190.1v-76.9c0-1.2,1-2.2,2.2-2.2l0,0h10c1.2,0,2.2,1,2.2,2.2l0,0v76.7L139.9,190.1z"/>
<path class="st2" d="M187.5,56.2v133c-4.8,0.1-9.7,0.3-14.5,0.4V56.2c0-1.2,1-2.2,2.2-2.2l0,0h10C186.5,54,187.5,55,187.5,56.2
	L187.5,56.2z"/>
<path class="st2" d="M220.6,83v105.1c-4.8,0.2-9.7,0.4-14.5,0.5V83c0-1.2,1-2.2,2.2-2.2l0,0h10C219.6,80.7,220.6,81.7,220.6,83
	L220.6,83z"/>
<polyline class="st5" points="81.1,98 114.2,61.1 147.3,79.7 180.3,22.7 213.4,49.9 "/>
<circle class="st3" cx="80.9" cy="98" r="7.1"/>
<circle class="st3" cx="114" cy="61.1" r="7.1"/>
<circle class="st3" cx="147.1" cy="79.7" r="7.1"/>
<circle class="st3" cx="180.2" cy="22.7" r="7.1"/>
<circle class="st3" cx="243.9" cy="83.3" r="7.1"/>
<ellipse class="st0" cx="59.5" cy="183.9" rx="4.8" ry="0.8"/>
<path class="st6" d="M56.3,180.1c0,0,2.7-0.1,3.5-0.7c0.8-0.6,4.2-1.3,4.4-0.3c0.2,0.9,4.1,4.6,1,4.7c-3.1,0-7.1-0.5-7.9-1
	C56.5,182.3,56.3,180.1,56.3,180.1z"/>
<path class="st7" d="M65.3,183.5c-3.1,0-7.1-0.5-7.9-1c-0.6-0.4-0.9-1.7-1-2.4h-0.1c0,0,0.2,2.2,1,2.7c0.8,0.5,4.9,1,7.9,1
	c0.9,0,1.2-0.3,1.2-0.8C66.3,183.3,65.9,183.4,65.3,183.5z"/>
<ellipse class="st0" cx="270.8" cy="190.7" rx="8.7" ry="1.5"/>
<path class="st6" d="M264.9,183.8c0,0,5-0.2,6.5-1.2c1.5-1.1,7.7-2.3,8-0.6c0.4,1.7,7.5,8.5,1.9,8.6c-5.6,0-13.1-0.9-14.6-1.8
	C265.2,187.8,264.9,183.8,264.9,183.8z"/>
<path class="st7" d="M281.4,189.9c-5.6,0-13.1-0.9-14.6-1.8c-1.1-0.7-1.6-3.2-1.7-4.3h-0.2c0,0,0.3,4,1.8,4.9
	c1.5,0.9,8.9,1.8,14.6,1.8c1.6,0,2.2-0.6,2.2-1.4C283.2,189.6,282.6,189.9,281.4,189.9z"/>
<linearGradient id="SVGID_1_" gradientUnits="userSpaceOnUse" x1="-1215.7499" y1="586.8067" x2="-1175.8864" y2="586.8067" gradientTransform="matrix(-1 0 0 -1 -959.6653 727.1707)">
	<stop  offset="0" style="stop-color:#808080;stop-opacity:0.25"/>
	<stop  offset="0.54" style="stop-color:#808080;stop-opacity:0.12"/>
	<stop  offset="1" style="stop-color:#808080;stop-opacity:0.1"/>
</linearGradient>
<path class="st8" d="M216.3,87.6c0,0.4,0.2,0.9,0.5,1.2c0.4,0.4,0.9,0.6,1.4,0.9c1.3,0.7,2.3,1.8,2.7,3.1c0.8,2.5,1,5.1,2,7.5
	c1.1,2.4,2.3,4.7,3.3,7.1c0.5,1.4,1,2.8,1.7,4.1c0.4,0.6,0.9,1.2,1.4,1.6c-0.1,0.9-0.1,1.8-0.1,2.7c0.3,0,0.7,0.2,0.9,0.5
	c0.2,0.3,0.3,0.6,0.4,1c0.3,1.4-0.1,3,0.2,4.4c0.9,4,0.6,8.2-0.8,12.1c-0.3,1-0.8,4.3-0.4,5.2c1.4-0.1,2.6,0.7,3.9,1.3
	c0.1,0.8,0,1.5-0.2,2.3c-0.5,1.3-0.5,2.8-0.5,4.2l0.1,10.5c0,1.3,0,2.7,0.4,4c0.4,1.5,1.2,2.9,1.2,4.4c-0.1,3.2,1.5,6.3,1.3,9.5
	c0,0.6-0.1,1.2-0.2,1.8c-0.2,1.6-0.1,3.3,0.1,4.9c0.5,3.2,1.7,6.4,1.4,9.6c0,0.2-0.1,0.5-0.3,0.6c0.3,0.3,0.5,0.6,0.8,0.8
	c-0.1,0.1-0.1,0.2-0.2,0.2c-0.3,0.2-0.6,0.2-1,0.3c-0.4,0-0.8,0.1-1.1,0.4c-0.2,0.2-0.4,0.5-0.5,0.9c-0.2,0.6-0.1,1.3,0.3,1.9
	c0.2,0.3,0.5,0.5,0.9,0.6c1.2,0.5,2.5,0.1,3.8-0.2l4.8-1.5c0.3-0.1,0.6-0.2,0.8-0.4c0.1-0.1,0.2-0.3,0.2-0.4
	c1.1,0.3,2.2-0.1,3.3-0.4l4.8-1.5c0.3-0.1,0.6-0.2,0.8-0.4c0.2-0.2,0.2-0.5,0.2-0.8c0,0,0.1,0,0.1,0c0.4-0.2,0.8-0.5,0.7-0.9
	c-0.1-0.3-0.3-0.4-0.4-0.6c-0.1-0.3,0-0.7,0.2-0.9c0.2-0.3,0.4-0.5,0.6-0.7c0.6-0.9,0.2-2,0-3c-0.5-2.1,0-4.3-0.3-6.5
	c-0.1-0.7-0.3-1.4-0.4-2.2c-0.3-1.7-0.5-3.4-0.6-5.1c-0.2-2.5-0.9-4.9-0.5-7.3c0.2-1.4,0.3-2.9,0.2-4.3c0-0.9,0-1.8-0.1-2.8
	c-0.1-0.7-0.3-1.4-0.4-2c-0.1-0.8-0.1-1.5,0-2.3c0-1.7-0.1-3.4-0.5-5.1c-0.5-2.3-1.5-4.5-1.9-6.8c0.1,0,0.3,0.1,0.4,0.1
	c0-1.8-1.5-5.7-2.1-7.3c-0.1-0.2-0.1-0.4-0.2-0.6c0-0.3,0.1-0.6,0.2-0.9c0.1-0.6-0.3-1.2-0.3-1.8c0-0.4,0-0.9,0.1-1.3
	c0.4-2.3,0.9-4.5,1.4-6.8c0.2-0.8,0.3-1.7,0.2-2.5c-0.1-0.9,0.2-1.8,0.8-2.5c0.2-0.2,0.4-0.4,0.6-0.7c0.1-0.2,0.1-0.5,0.1-0.7
	c0-1-0.2-2.1-0.5-3.1c0.4-0.8,0.6-1.8,0.7-2.8c0.3-2.1,0.6-4.2,0.6-6.3c0-1.1-0.1-2.2-0.5-3.3c-0.2-0.7-0.5-1.3-0.9-1.9
	c-1.3-2.6-2.6-5.3-4.3-7.7c-0.5-0.7-0.2-1.7-0.2-2.6c0-1.1-0.4-2.1-0.8-3.1c-0.2-0.6-0.5-1.2-1-1.6c-0.3-0.3-0.7-0.5-1.1-0.5
	c-0.5,0.1-0.9,0.3-1.2,0.7c-0.6,0.8-0.9,1.9-0.7,2.9c0.2,1,0.6,2,1.3,2.8c0.3,0.4,0.7,0.8,1.1,1.1c0.4,1.3,0.8,2.7,1.3,4
	c0.7,2.1,1.3,4.3,2.3,6.3c0.3,0.6,0.6,1.2,0.6,1.8c0,0.7-0.3,1.4-0.5,2c-0.5,1.4-0.8,2.8-0.8,4.2c-0.1,0-0.1,0.1-0.2,0.1
	c-0.8,0.5-1.1,1.7-1.9,2.1c-0.5,0.3-1.1,0.3-1.6,0.4c0,0-0.1,0-0.1,0c0-0.1,0-0.2-0.1-0.3c0-0.1,0-0.1,0-0.2c1.3-0.7,2.4-1.8,3.2-3
	c0.2-0.2,0.3-0.5,0.4-0.8c0.1-0.3,0.1-0.7,0-1c0-1.1-0.2-2.2-0.5-3.3c-0.3-1.1-0.9-2-1.7-2.8c-0.4-0.3-0.9-0.6-1.3-0.9
	c-0.8-0.7-1.4-1.6-2.3-2.1c-1.2-0.6-2.7-0.2-3.5,0.9c-0.1,0.2-0.3,0.5-0.5,0.6c-0.2,0.1-0.3,0.2-0.5,0.3c-0.3,0.2-0.3,0.7-0.2,1
	c0.2,0.7,0.3,1.4,0.3,2.2c-1.7,2-1.7,4.9,0,6.9c0,0.5,0,0.9,0,1.4c0,0.1,0,0.2,0,0.3c-0.3-0.1-0.6-0.3-0.8-0.5
	c-0.3-0.4-0.3-0.9-0.7-1.2c-0.3-0.2-0.5-0.3-0.8-0.3c-0.7-0.2-1.4-0.5-2-1c-0.5-0.4-1-0.8-1.5-0.9c-0.9-1.8-2.1-3.5-3.3-5.1
	c-0.3-0.4-0.6-0.8-0.9-1.2c-0.5-1-0.7-2.1-1.1-3.1c-1-2.9-3.4-5.3-4-8.3c-0.2-1.1-0.9-2.1-1.4-3.1c-0.3-0.7-0.7-1.4-1.3-1.8
	c-0.8-0.5-2-0.3-2.7,0.4C216.4,85.6,216.1,86.6,216.3,87.6z M246.5,190.6c-0.3,0.2-0.6,0.2-1,0.3c-0.2,0-0.3,0-0.5,0.1
	c-0.1-0.5-0.1-1.1-0.1-1.6c-0.1-1.7-0.4-3.4-0.7-5.2c-0.3-1.8-0.4-3.7-1-5.4c-1-2.8-2-5.7-1.8-8.6c0-0.7,0.1-1.3,0.1-2
	c0.1-1.7-0.2-3.3,0.3-4.9c0.2-0.7,0.5-1.4,0.6-2.2c0.1-0.7,0.1-1.3,0-2c-0.1-2.3,0.1-4.7,0.6-7c0.5,0.6,0.6,1.4,0.8,2.2l1,5.2
	c0.6,3.1,1.1,6.3,2.6,9.1c-0.2,1-0.4,2-0.1,3c0.2,0.4,0.4,0.8,0.5,1.2c0.3,0.7,0.2,1.4,0.3,2.2c0.2,1.5,0.8,3,0.3,4.5
	c-0.5,1.5-0.8,3.1-0.9,4.7c0,0.4-0.1,0.9-0.2,1.3c-0.1,0.4-0.2,0.8-0.3,1.2c-0.1,0.6-0.1,1.1,0.1,1.7c0.1,0.3,0.2,0.6,0.2,1
	c0,0.3-0.4,0.6-0.7,0.6c0.1,0.1,0.2,0.2,0.3,0.4C246.8,190.3,246.7,190.5,246.5,190.6z"/>
<path class="st2" d="M236.4,193.6c-0.4,0-0.8,0.1-1.1,0.4c-0.2,0.2-0.4,0.5-0.5,0.8c-0.2,0.6-0.1,1.3,0.3,1.9
	c0.2,0.3,0.5,0.5,0.9,0.6c1.2,0.5,2.5,0.1,3.8-0.2l4.8-1.4c0.3-0.1,0.6-0.2,0.8-0.4c0.3-0.4,0.3-0.9,0-1.2c-0.3-0.4-0.6-0.6-1-0.8
	c-1.5-0.7-3.2-0.9-4.8-0.9c-0.6,0-1.2-0.1-1.6,0.3c-0.2,0.3-0.2,0.5-0.5,0.7C237.1,193.5,236.8,193.6,236.4,193.6z"/>
<path class="st2" d="M245.5,190.9c-0.4,0-0.8,0.1-1.1,0.4c-0.2,0.2-0.4,0.5-0.5,0.8c-0.2,0.6-0.1,1.3,0.3,1.9
	c0.2,0.3,0.5,0.5,0.9,0.6c1.2,0.5,2.5,0.1,3.8-0.2l4.8-1.4c0.3-0.1,0.6-0.2,0.8-0.4c0.3-0.4,0.3-0.9,0-1.2c-0.3-0.4-0.6-0.6-1-0.8
	c-1.5-0.7-3.2-0.9-4.8-0.9c-0.6,0-1.2-0.1-1.6,0.3c-0.2,0.3-0.2,0.5-0.5,0.7C246.2,190.8,245.9,190.9,245.5,190.9z"/>
<path class="st9" d="M241.3,138.8c2.8-0.3,5.7-0.4,8.5-0.2c0.2,0,0.4,0,0.6,0.1c0.6,0.3,0.7,1.1,0.8,1.7c0.3,2.7,1.4,5.3,2,7.9
	c0.3,1.7,0.5,3.4,0.5,5.1c0,0.8,0,1.5,0,2.3c0.1,0.7,0.3,1.3,0.4,2c0.1,0.9,0.1,1.8,0.1,2.7c0,1.4-0.1,2.9-0.2,4.3
	c-0.4,2.4,0.3,4.8,0.5,7.3c0.1,1.7,0.3,3.4,0.6,5.1c0.1,0.7,0.3,1.4,0.4,2.1c0.3,2.1-0.1,4.3,0.3,6.5c0.2,1,0.6,2.1,0,2.9
	c-0.2,0.3-0.4,0.5-0.6,0.7c-0.2,0.2-0.3,0.6-0.2,0.9c0.1,0.2,0.4,0.4,0.4,0.6c0.1,0.4-0.3,0.7-0.7,0.9c-2.8,1.2-6.3,0.4-8.2-2
	c0.3-0.1,0.7-0.3,0.7-0.6c0-0.3-0.1-0.6-0.2-0.9c-0.1-0.5-0.2-1.1-0.1-1.7c0.1-0.4,0.2-0.8,0.3-1.2c0.1-0.4,0.1-0.9,0.2-1.3
	c0.1-1.6,0.4-3.1,0.9-4.6c0.5-1.5-0.2-2.9-0.3-4.5c-0.1-0.7,0-1.5-0.3-2.2c-0.2-0.4-0.4-0.8-0.5-1.2c-0.3-0.9-0.1-2,0.1-3
	c-1.5-2.7-2-6-2.6-9l-1-5.1c-0.1-0.8-0.3-1.6-0.8-2.2c-0.5,2.3-0.7,4.6-0.6,6.9c0.1,0.7,0,1.3,0,2c-0.1,0.7-0.4,1.4-0.6,2.2
	c-0.4,1.6-0.2,3.3-0.3,4.9c0,0.7-0.1,1.3-0.1,2c-0.1,2.9,0.9,5.8,1.8,8.6c0.6,1.7,0.7,3.6,1,5.4c0.3,1.7,0.5,3.4,0.7,5.1
	c0.1,1.6,0.2,3.3,1.2,4.5c-0.9,0.6-1.8,1.2-2.9,1.4c-1.2,0.2-2.5-0.1-3.5-0.7c-1.1-0.6-2-1.4-2.8-2.4c0.2-0.1,0.3-0.4,0.3-0.6
	c0.3-3.2-0.9-6.4-1.4-9.6c-0.2-1.6-0.3-3.2-0.1-4.9c0.1-0.6,0.1-1.2,0.2-1.8c0.1-3.2-1.4-6.3-1.4-9.4c0-1.5-0.8-3-1.2-4.4
	c-0.3-1.3-0.3-2.6-0.4-3.9l-0.1-10.4c0-1.4,0-2.9,0.5-4.2c0.6-1.6-0.1-3.4-0.2-5.1C235.8,138.7,238.6,139,241.3,138.8z"/>
<path class="st10" d="M232.3,108.8c-1.1-2.2-2.4-4.3-3.9-6.2c-0.3-0.4-0.6-0.8-0.9-1.2c-0.5-0.9-0.7-2.1-1.1-3.1
	c-1-2.9-3.4-5.3-4-8.3c-0.2-1.1-0.9-2-1.4-3.1c-0.3-0.7-0.7-1.4-1.3-1.8c-0.8-0.5-2-0.3-2.7,0.4c-0.7,0.7-1,1.7-0.8,2.7
	c0,0.4,0.2,0.9,0.5,1.2c0.4,0.4,0.9,0.6,1.4,0.9c1.3,0.7,2.3,1.8,2.7,3.1c0.8,2.5,1,5.1,2,7.4c1.1,2.4,2.3,4.6,3.3,7.1
	c0.5,1.4,1,2.8,1.7,4.1c0.8,1.3,2,2.3,3.5,2.5c0-0.9,0.1-1.8,0.4-2.7C232.2,110.9,232.7,109.7,232.3,108.8z"/>
<path class="st10" d="M248,110.7c-0.1-1.8,0.2-3.6,0.8-5.3c0.2-0.6,0.5-1.3,0.5-2c0-0.6-0.3-1.2-0.6-1.8c-1-2-1.6-4.1-2.3-6.2
	l-1.3-4c-0.4-0.3-0.8-0.7-1.1-1.1c-0.7-0.8-1.1-1.7-1.3-2.8c-0.2-1,0.1-2.1,0.7-2.9c0.3-0.4,0.7-0.7,1.2-0.7c0.4,0,0.8,0.2,1.1,0.5
	c0.4,0.5,0.7,1,1,1.6c0.4,1,0.8,2,0.8,3.1c0,0.9-0.4,1.9,0.2,2.6c1.7,2.3,3,5,4.3,7.6c0.3,0.6,0.6,1.2,0.9,1.9
	c0.3,1.1,0.5,2.2,0.5,3.3c0,2.1-0.3,4.2-0.6,6.2c-0.2,1.3-0.4,2.7-1.4,3.6C250.3,113,249.3,111.7,248,110.7z"/>
<circle class="st10" cx="241.5" cy="106.4" r="5.3"/>
<path class="st10" d="M244.1,112c0.1,1,0.6,1.8,1.1,2.6c0.3,0.5,0.7,1.1,1.3,1.1c-1.5,0.8-3.1,1.4-4.8,1.9c-0.6,0.2-1.2,0.3-1.8,0.3
	c-0.5,0-1-0.2-1.5-0.4c-2-0.9-3.6-2.7-4.1-4.8c0.7,0,1.3,0,2-0.2c0.4,0,0.7-0.2,1-0.5c0.1-0.3,0.2-0.6,0.2-0.9c0-0.9,0-1.8,0-2.6
	c1.3-0.1,2.6,0.1,3.8,0.5c0.5,0.2,1,0.4,1.5,0.5c0.3,0.1,1.2,0,1.4,0.2C244.7,110,244,111.3,244.1,112z"/>
<path class="st11" d="M241.8,115.2c0.1-1.4,1.1-2.6,2.5-3c0.5-0.1,1.1-0.1,1.6-0.4c0.8-0.5,1.1-1.6,1.9-2.1c0.8-0.5,1.9-0.2,2.6,0.4
	c0.7,0.7,1.1,1.6,1.3,2.5c0.4,1.2,0.7,2.5,0.7,3.9c0,0.2,0,0.5-0.1,0.7c-0.2,0.3-0.3,0.5-0.6,0.7c-0.6,0.7-0.9,1.6-0.8,2.5
	c0.1,0.8,0,1.7-0.2,2.5c-0.5,2.2-1,4.5-1.4,6.8c-0.1,0.4-0.1,0.8-0.1,1.3c0.1,0.6,0.4,1.2,0.3,1.8c-0.1,0.3-0.1,0.6-0.2,0.9
	c0,0.2,0.1,0.4,0.2,0.6c0.6,1.7,2.1,5.5,2.1,7.3c-2.7-0.7-6.7-0.9-9.5-0.9c-0.8,0-1.5,0-2.3,0.1c-1.8,0.2-3.7,0.7-5.5,0.2
	c-1.7-0.5-3.1-1.8-4.8-1.6c-0.4-1,0.1-4.2,0.4-5.2c1.4-3.9,1.6-8,0.8-12c-0.3-1.4,0.1-3-0.2-4.4c-0.1-0.3-0.2-0.7-0.4-0.9
	c-0.2-0.3-0.5-0.5-0.9-0.5c0-2.3,0.2-4.6,0.6-6.9c0.2-0.8,0.5-1.7,1.3-1.9c0.7-0.1,1.3,0.5,1.9,0.9c0.6,0.5,1.3,0.8,2,1
	c0.3,0,0.6,0.1,0.8,0.3c0.3,0.3,0.4,0.8,0.7,1.2c0.5,0.6,1.6,0.6,2,1.3c0.1,0.2,0.1,0.4,0.2,0.7c0.2,0.4,0.5,0.8,0.8,1.1
	C240.3,114.6,241,115,241.8,115.2z"/>
<path class="st12" d="M237.3,100.8c-0.1-0.3-0.1-0.8,0.2-1c0.1-0.1,0.3-0.2,0.5-0.3c0.2-0.2,0.4-0.4,0.5-0.6
	c0.8-1.1,2.2-1.5,3.5-0.9c0.9,0.5,1.5,1.4,2.3,2.1c0.4,0.3,0.9,0.6,1.3,0.9c0.8,0.7,1.4,1.7,1.7,2.8c0.3,1.1,0.4,2.2,0.5,3.2
	c0,0.3,0,0.7,0,1c-0.1,0.3-0.2,0.5-0.4,0.8c-0.8,1.3-1.9,2.4-3.3,3.1c-1.4,0.7-3.1,0.8-4.4,0.1c-0.1-0.1-0.3-0.2-0.3-0.3
	c-0.1-0.2-0.1-0.4-0.1-0.6c0.1-0.8-0.1-1.6-0.4-2.3c-0.3-0.5-0.6-0.9-0.8-1.5c-0.2-0.6-0.3-1.2-0.2-1.8
	C237.5,103.9,237.7,102.3,237.3,100.8z"/>
</svg>
