<svg version="1.1" id="b43bf247-fd00-4c66-86de-2f4e4870ba29" xmlns="http://www.w3.org/2000/svg" x="0" y="0" viewBox="0 0 284.4 199.6" xml:space="preserve"><style>.st0{fill:#31b096;enable-background:new}.st0,.st1{opacity:.1}.st2{fill:#3f3d56}.st3{fill:#31b096}.st4{opacity:.1;enable-background:new}.st6{fill:#a8a8a8}.st7{opacity:.2;enable-background:new}.st10{fill:#a0616a}</style><ellipse class="st0" cx="245.6" cy="195.3" rx="16.3" ry="4.3"/><path class="st0" d="M272.5 176.8c-6.2 5.1-15 7.3-23.5 8.6l-1.4.2c-8.9 1.3-17.9 2-27 2.5-4.8.2-9.7.4-14.5.5l-3.8.1c-4.9.1-9.9.3-14.8.4-4.8.1-9.7.3-14.5.4-6.2.2-12.4.3-18.6.4-4.8.1-9.7.1-14.5.2h-18.6c-4.8 0-9.7-.1-14.5-.3-6.2-.2-12.4-.4-18.6-.7-4.2-.2-8.4-.5-12.6-.7l-1.9-.1c-18-1.3-36.4-3.6-52.1-11l-.4-.2-.6-.3c-2.9-1.4-5.7-3-8.3-4.9-4.7-3.3-8.5-7.4-10.5-12.2-3.2-7.5-1.5-16 2.1-23.4s9.1-14 13.8-21c1.4-2 2.7-4.1 3.9-6.3C29.2 95.4 33 79.7 25 66.6c-1.1-1.7-2.2-3.3-3.4-4.8-2-2.5-3.9-5.1-5.3-7.9C13.2 47.3 13.8 40 15 33c1.5-9.3 4.3-19.3 13.1-25.2 9.1-6 22-5.7 33.2-3.6 17.5 3.4 33.7 10.4 50 16.7s33.4 12.1 51.4 12.8c3.9.1 7.7 0 11.6-.4 5.1-.5 10.2-1.6 15-3.2 7.1-2.3 13.5-5.8 18.3-10.7C217.8 9 237 8.2 250.8 14.5c13.2 6 21.8 18.7 21.1 31.3-.7 14.1-11.3 25.7-21 37.6-1.2 1.4-2.3 2.9-3.5 4.3-.6.8-1.2 1.6-1.9 2.4-1.1 1.4-2.1 2.9-3.1 4.4-4.9 7.5-8.4 16.5-5 24.7 1.9 4.5 5.6 8 9.9 11 9.8 6.8 23.4 11.3 29.5 20.8 5.5 8.2 3.6 19.3-4.3 25.8z"/><g class="st1"><path class="st2" d="M141.4 139.8c0 .2 0 .5.1.7 2-.8 3.9-1.6 5.8-2.5 1-.1 2-.6 2.7-1.3.6-.3 1.1-.6 1.7-.9-.1-.3-.3-.5-.4-.8-1.1-1.7-2.7-2.8-4.5-2.7-1.8.1-3.3 1.2-4.3 3-.8 1.3-1.2 2.9-1.1 4.5z"/><path class="st2" d="M141.1 130.8c0 1.6.5 3.1 1.3 4.4 1.1 1.7 2.7 2.7 4.5 2.7h.4c1-.1 2-.6 2.7-1.3.5-.5.9-1 1.2-1.6 1.5-2.8 1.4-6.2-.3-8.9-1.1-1.7-2.7-2.8-4.5-2.7-1.8.1-3.3 1.2-4.3 3-.7 1.3-1.1 2.9-1 4.4z"/><ellipse transform="rotate(-1.883 146.382 121.772) scale(1.00004)" class="st2" cx="146.4" cy="121.8" rx="5.6" ry="7.3"/><ellipse transform="rotate(-1.883 146.092 112.873) scale(1.00004)" class="st2" cx="146.1" cy="112.9" rx="5.6" ry="7.3"/><ellipse transform="rotate(-1.883 145.8 103.97) scale(1.00004)" class="st2" cx="145.8" cy="104" rx="5.6" ry="7.3"/><path class="st3" d="M164.6 42.4c.7-1 1.4-2 2-3.1l-14.7-1.9 15.8-.4c2.8-6.8 2.8-14.4-.2-21.1l-20.8 11.7 19.1-15C157.9 0 141.5-3.7 129 4.1c-12.5 7.8-16.2 24.3-8.4 36.8.6 1 1.3 2 2.1 2.9-1.1 1.5-2.1 3.2-2.9 5l19.3 9.2-20.5-6.1c-2.6 8.6-.7 18 5.1 24.9-8.7 11.9-6.2 28.6 5.7 37.3 11.9 8.7 28.6 6.2 37.3-5.7 7.3-9.9 6.8-23.5-1.1-32.9 7.4-10.1 7-23.7-1-33.1z"/><path class="st4" d="M117.6 60.4c.2 6 2.4 11.7 6.2 16.3-8.7 11.9-6.2 28.6 5.7 37.3s28.6 6.2 37.3-5.7c7.3-9.9 6.8-23.5-1.1-32.9 3.4-4.7-48.2-18-48.1-15z"/></g><g class="st1"><path class="st2" d="M83 186.6v.5l-4.2-1.8c-.7-.1-1.4-.4-1.9-.9l-1.2-.6c.1-.2.2-.4.3-.5.8-1.2 1.9-2 3.2-1.9 1.3 0 2.4.9 3.1 2.1.5.9.8 2 .7 3.1z"/><path class="st2" d="M83.2 180.3c0 1.1-.3 2.2-.9 3.1-.8 1.2-1.9 2-3.2 1.9h-.3c-.7-.1-1.4-.4-1.9-.9-.4-.3-.7-.7-.9-1.2-1-2-1-4.4.2-6.3.8-1.2 1.9-2 3.2-1.9 1.3 0 2.4.9 3.1 2.1.5 1 .8 2.1.7 3.2z"/><ellipse transform="rotate(-88.19 79.473 173.856)" class="st2" cx="79.5" cy="173.9" rx="5.2" ry="4"/><ellipse transform="rotate(-88.19 79.67 167.521)" class="st2" cx="79.7" cy="167.5" rx="5.2" ry="4"/><ellipse transform="rotate(-88.19 79.87 161.184)" class="st2" cx="79.9" cy="161.2" rx="5.2" ry="4"/><path class="st3" d="M66.4 117.4c-.5-.7-1-1.4-1.4-2.2l10.5-1.4-11.3-.3c-2-4.8-2-10.3.1-15l14.8 8.3-13.5-10.7c5.5-8.9 17.2-11.6 26.1-6.1s11.6 17.2 6.1 26.1c-.5.8-1 1.5-1.6 2.2.8 1.1 1.5 2.3 2.1 3.5l-13.7 6.6 14.6-4.4c1.9 6.1.5 12.8-3.6 17.7 6.2 8.4 4.4 20.3-4 26.5s-20.3 4.4-26.5-4c-5.2-7.1-4.9-16.7.7-23.4-5.3-7-5-16.7.6-23.4z"/><path class="st4" d="M99.9 130.2c-.1 4.3-1.7 8.3-4.4 11.6 6.2 8.4 4.4 20.3-4 26.5s-20.3 4.4-26.5-4c-5.2-7.1-4.9-16.7.7-23.4-2.5-3.4 34.3-12.9 34.2-10.7z"/></g><g class="st1"><path class="st2" d="M215.6 153.5v.5l-4.2-1.8c-.7-.1-1.4-.4-1.9-.9l-1.2-.6c.1-.2.2-.4.3-.5.8-1.2 1.9-2 3.2-1.9 1.3 0 2.4.9 3.1 2.1.5.9.7 2 .7 3.1z"/><path class="st2" d="M215.8 147.2c0 1.1-.3 2.2-.9 3.1-.8 1.2-1.9 2-3.2 1.9h-.3c-.7-.1-1.4-.4-1.9-.9-.4-.3-.7-.7-.9-1.2-1-2-1-4.4.2-6.3.8-1.2 1.9-2 3.2-1.9 1.3 0 2.4.9 3.1 2.1.5 1 .7 2.1.7 3.2z"/><ellipse transform="rotate(-88.19 212.041 140.75)" class="st2" cx="212" cy="140.8" rx="5.2" ry="4"/><ellipse transform="rotate(-88.19 212.242 134.416)" class="st2" cx="212.2" cy="134.4" rx="5.2" ry="4"/><ellipse transform="rotate(-88.19 212.442 128.081)" class="st2" cx="212.4" cy="128.1" rx="5.2" ry="4"/><path class="st3" d="M199 84.3c-.5-.7-1-1.4-1.4-2.2l10.5-1.4-11.3-.3c-2-4.8-2-10.3.1-15l14.8 8.3L198.1 63c5.5-8.9 17.2-11.7 26.1-6.1 8.9 5.5 11.7 17.2 6.1 26.1-.5.8-1 1.5-1.6 2.2.8 1.1 1.5 2.3 2.1 3.5l-13.7 6.6 14.6-4.4c1.9 6.1.5 12.8-3.6 17.7 6.2 8.4 4.4 20.3-4 26.5-8.4 6.2-20.3 4.4-26.5-4-5.2-7.1-4.9-16.7.7-23.4-5.3-7-5-16.7.7-23.4z"/><path class="st4" d="M232.5 97c-.1 4.3-1.7 8.3-4.4 11.6 6.2 8.4 4.4 20.3-4 26.5-8.4 6.2-20.3 4.4-26.5-4-5.2-7-4.9-16.7.7-23.4-2.5-3.3 34.2-12.8 34.2-10.7z"/></g><ellipse class="st3" cx="49.3" cy="191.1" rx="14.5" ry="2.8"/><ellipse class="st2" cx="49" cy="189.9" rx="1.7" ry="2.2"/><ellipse class="st2" cx="49" cy="187.2" rx="1.7" ry="2.2"/><ellipse class="st2" cx="49" cy="184.5" rx="1.7" ry="2.2"/><ellipse class="st2" cx="49" cy="181.8" rx="1.7" ry="2.2"/><ellipse class="st2" cx="49" cy="179.1" rx="1.7" ry="2.2"/><ellipse class="st2" cx="49" cy="176.3" rx="1.7" ry="2.2"/><ellipse class="st2" cx="49" cy="173.6" rx="1.7" ry="2.2"/><path class="st3" d="M55.3 155.1l.6-.9-4.4-.7h4.8c.9-2 1-4.3.2-6.4l-6.4 3.3L56 146c-2.2-3.9-7.2-5.2-11.1-2.9s-5.2 7.2-2.9 11.1l.6.9c-.4.5-.7 1-.9 1.5l5.8 3-6.1-2.1c-.9 2.6-.4 5.4 1.3 7.6-2.8 3.5-2.2 8.6 1.4 11.4 3.5 2.8 8.6 2.2 11.4-1.4 2.3-2.9 2.3-7.1 0-10 2.1-2.9 2.1-7-.2-10z"/><path class="st4" d="M40.9 160.1c0 1.8.6 3.6 1.7 5-2.8 3.5-2.2 8.6 1.4 11.4 3.5 2.8 8.6 2.2 11.4-1.4 2.3-2.9 2.3-7.1 0-10 1-1.3-14.5-5.9-14.5-5z"/><path class="st2" d="M88.2 131.6v57.5c-4.2-.2-8.4-.5-12.6-.7l-1.9-.1v-56.7c0-1.2 1-2.2 2.2-2.2h10c1.3-.1 2.3.9 2.3 2.2zm18.6 58.2V93.1c0-1.2 1-2.2 2.2-2.2h10c1.2 0 2.2 1 2.2 2.2V190l-14.4-.2zm33.1.3v-76.9c0-1.2 1-2.2 2.2-2.2h10c1.2 0 2.2 1 2.2 2.2v76.7l-14.4.2zm47.6-133.9v133c-4.8.1-9.7.3-14.5.4V56.2c0-1.2 1-2.2 2.2-2.2h10c1.3 0 2.3 1 2.3 2.2zM220.6 83v105.1c-4.8.2-9.7.4-14.5.5V83c0-1.2 1-2.2 2.2-2.2h10c1.3-.1 2.3.9 2.3 2.2z"/><path fill="none" stroke="#3f3d56" stroke-width="7" stroke-linecap="round" stroke-miterlimit="10" d="M81.1 98l33.1-36.9 33.1 18.6 33-57 33.1 27.2"/><circle class="st3" cx="80.9" cy="98" r="7.1"/><circle class="st3" cx="114" cy="61.1" r="7.1"/><circle class="st3" cx="147.1" cy="79.7" r="7.1"/><circle class="st3" cx="180.2" cy="22.7" r="7.1"/><circle class="st3" cx="243.9" cy="83.3" r="7.1"/><ellipse class="st0" cx="59.5" cy="183.9" rx="4.8" ry=".8"/><path class="st6" d="M56.3 180.1s2.7-.1 3.5-.7c.8-.6 4.2-1.3 4.4-.3.2.9 4.1 4.6 1 4.7-3.1 0-7.1-.5-7.9-1-.8-.5-1-2.7-1-2.7z"/><path class="st7" d="M65.3 183.5c-3.1 0-7.1-.5-7.9-1-.6-.4-.9-1.7-1-2.4h-.1s.2 2.2 1 2.7 4.9 1 7.9 1c.9 0 1.2-.3 1.2-.8-.1.3-.5.4-1.1.5z"/><ellipse class="st0" cx="270.8" cy="190.7" rx="8.7" ry="1.5"/><path class="st6" d="M264.9 183.8s5-.2 6.5-1.2c1.5-1.1 7.7-2.3 8-.6.4 1.7 7.5 8.5 1.9 8.6-5.6 0-13.1-.9-14.6-1.8-1.5-1-1.8-5-1.8-5z"/><path class="st7" d="M281.4 189.9c-5.6 0-13.1-.9-14.6-1.8-1.1-.7-1.6-3.2-1.7-4.3h-.2s.3 4 1.8 4.9c1.5.9 8.9 1.8 14.6 1.8 1.6 0 2.2-.6 2.2-1.4-.3.5-.9.8-2.1.8z"/><linearGradient id="SVGID_1_" gradientUnits="userSpaceOnUse" x1="-1215.75" y1="586.807" x2="-1175.886" y2="586.807" gradientTransform="rotate(180 -479.833 363.585)"><stop offset="0" stop-color="gray" stop-opacity=".25"/><stop offset=".54" stop-color="gray" stop-opacity=".12"/><stop offset="1" stop-color="gray" stop-opacity=".1"/></linearGradient><path d="M216.3 87.6c0 .4.2.9.5 1.2.4.4.9.6 1.4.9 1.3.7 2.3 1.8 2.7 3.1.8 2.5 1 5.1 2 7.5 1.1 2.4 2.3 4.7 3.3 7.1.5 1.4 1 2.8 1.7 4.1.4.6.9 1.2 1.4 1.6-.1.9-.1 1.8-.1 2.7.3 0 .7.2.9.5.2.3.3.6.4 1 .3 1.4-.1 3 .2 4.4.9 4 .6 8.2-.8 12.1-.3 1-.8 4.3-.4 5.2 1.4-.1 2.6.7 3.9 1.3.1.8 0 1.5-.2 2.3-.5 1.3-.5 2.8-.5 4.2l.1 10.5c0 1.3 0 2.7.4 4 .4 1.5 1.2 2.9 1.2 4.4-.1 3.2 1.5 6.3 1.3 9.5 0 .6-.1 1.2-.2 1.8-.2 1.6-.1 3.3.1 4.9.5 3.2 1.7 6.4 1.4 9.6 0 .2-.1.5-.3.6.3.3.5.6.8.8-.1.1-.1.2-.2.2-.3.2-.6.2-1 .3-.4 0-.8.1-1.1.4-.2.2-.4.5-.5.9-.2.6-.1 1.3.3 1.9.2.3.5.5.9.6 1.2.5 2.5.1 3.8-.2l4.8-1.5c.3-.1.6-.2.8-.4.1-.1.2-.3.2-.4 1.1.3 2.2-.1 3.3-.4l4.8-1.5c.3-.1.6-.2.8-.4.2-.2.2-.5.2-.8h.1c.4-.2.8-.5.7-.9-.1-.3-.3-.4-.4-.6-.1-.3 0-.7.2-.9.2-.3.4-.5.6-.7.6-.9.2-2 0-3-.5-2.1 0-4.3-.3-6.5-.1-.7-.3-1.4-.4-2.2-.3-1.7-.5-3.4-.6-5.1-.2-2.5-.9-4.9-.5-7.3.2-1.4.3-2.9.2-4.3 0-.9 0-1.8-.1-2.8-.1-.7-.3-1.4-.4-2-.1-.8-.1-1.5 0-2.3 0-1.7-.1-3.4-.5-5.1-.5-2.3-1.5-4.5-1.9-6.8.1 0 .3.1.4.1 0-1.8-1.5-5.7-2.1-7.3-.1-.2-.1-.4-.2-.6 0-.3.1-.6.2-.9.1-.6-.3-1.2-.3-1.8 0-.4 0-.9.1-1.3.4-2.3.9-4.5 1.4-6.8.2-.8.3-1.7.2-2.5-.1-.9.2-1.8.8-2.5.2-.2.4-.4.6-.7.1-.2.1-.5.1-.7 0-1-.2-2.1-.5-3.1.4-.8.6-1.8.7-2.8.3-2.1.6-4.2.6-6.3 0-1.1-.1-2.2-.5-3.3-.2-.7-.5-1.3-.9-1.9-1.3-2.6-2.6-5.3-4.3-7.7-.5-.7-.2-1.7-.2-2.6 0-1.1-.4-2.1-.8-3.1-.2-.6-.5-1.2-1-1.6-.3-.3-.7-.5-1.1-.5-.5.1-.9.3-1.2.7-.6.8-.9 1.9-.7 2.9.2 1 .6 2 1.3 2.8.3.4.7.8 1.1 1.1.4 1.3.8 2.7 1.3 4 .7 2.1 1.3 4.3 2.3 6.3.3.6.6 1.2.6 1.8 0 .7-.3 1.4-.5 2-.5 1.4-.8 2.8-.8 4.2-.1 0-.1.1-.2.1-.8.5-1.1 1.7-1.9 2.1-.5.3-1.1.3-1.6.4h-.1c0-.1 0-.2-.1-.3v-.2c1.3-.7 2.4-1.8 3.2-3 .2-.2.3-.5.4-.8.1-.3.1-.7 0-1 0-1.1-.2-2.2-.5-3.3-.3-1.1-.9-2-1.7-2.8-.4-.3-.9-.6-1.3-.9-.8-.7-1.4-1.6-2.3-2.1-1.2-.6-2.7-.2-3.5.9-.1.2-.3.5-.5.6-.2.1-.3.2-.5.3-.3.2-.3.7-.2 1 .2.7.3 1.4.3 2.2-1.7 2-1.7 4.9 0 6.9v1.7c-.3-.1-.6-.3-.8-.5-.3-.4-.3-.9-.7-1.2-.3-.2-.5-.3-.8-.3-.7-.2-1.4-.5-2-1-.5-.4-1-.8-1.5-.9-.9-1.8-2.1-3.5-3.3-5.1l-.9-1.2c-.5-1-.7-2.1-1.1-3.1-1-2.9-3.4-5.3-4-8.3-.2-1.1-.9-2.1-1.4-3.1-.3-.7-.7-1.4-1.3-1.8-.8-.5-2-.3-2.7.4-.5.9-.8 1.9-.6 2.9zm30.2 103c-.3.2-.6.2-1 .3-.2 0-.3 0-.5.1-.1-.5-.1-1.1-.1-1.6-.1-1.7-.4-3.4-.7-5.2-.3-1.8-.4-3.7-1-5.4-1-2.8-2-5.7-1.8-8.6 0-.7.1-1.3.1-2 .1-1.7-.2-3.3.3-4.9.2-.7.5-1.4.6-2.2.1-.7.1-1.3 0-2-.1-2.3.1-4.7.6-7 .5.6.6 1.4.8 2.2l1 5.2c.6 3.1 1.1 6.3 2.6 9.1-.2 1-.4 2-.1 3 .2.4.4.8.5 1.2.3.7.2 1.4.3 2.2.2 1.5.8 3 .3 4.5s-.8 3.1-.9 4.7c0 .4-.1.9-.2 1.3l-.3 1.2c-.1.6-.1 1.1.1 1.7.1.3.2.6.2 1 0 .3-.4.6-.7.6.1.1.2.2.3.4-.1-.1-.2.1-.4.2z" fill="url(#SVGID_1_)"/><path class="st2" d="M236.4 193.6c-.4 0-.8.1-1.1.4-.2.2-.4.5-.5.8-.2.6-.1 1.3.3 1.9.2.3.5.5.9.6 1.2.5 2.5.1 3.8-.2l4.8-1.4c.3-.1.6-.2.8-.4.3-.4.3-.9 0-1.2-.3-.4-.6-.6-1-.8-1.5-.7-3.2-.9-4.8-.9-.6 0-1.2-.1-1.6.3-.2.3-.2.5-.5.7-.4.1-.7.2-1.1.2z"/><path class="st2" d="M245.5 190.9c-.4 0-.8.1-1.1.4-.2.2-.4.5-.5.8-.2.6-.1 1.3.3 1.9.2.3.5.5.9.6 1.2.5 2.5.1 3.8-.2l4.8-1.4c.3-.1.6-.2.8-.4.3-.4.3-.9 0-1.2-.3-.4-.6-.6-1-.8-1.5-.7-3.2-.9-4.8-.9-.6 0-1.2-.1-1.6.3-.2.3-.2.5-.5.7-.4.1-.7.2-1.1.2z"/><path d="M241.3 138.8c2.8-.3 5.7-.4 8.5-.2.2 0 .4 0 .6.1.6.3.7 1.1.8 1.7.3 2.7 1.4 5.3 2 7.9.3 1.7.5 3.4.5 5.1v2.3c.1.7.3 1.3.4 2 .1.9.1 1.8.1 2.7 0 1.4-.1 2.9-.2 4.3-.4 2.4.3 4.8.5 7.3.1 1.7.3 3.4.6 5.1.1.7.3 1.4.4 2.1.3 2.1-.1 4.3.3 6.5.2 1 .6 2.1 0 2.9-.2.3-.4.5-.6.7-.2.2-.3.6-.2.9.1.2.4.4.4.6.1.4-.3.7-.7.9-2.8 1.2-6.3.4-8.2-2 .3-.1.7-.3.7-.6s-.1-.6-.2-.9c-.1-.5-.2-1.1-.1-1.7l.3-1.2c.1-.4.1-.9.2-1.3.1-1.6.4-3.1.9-4.6.5-1.5-.2-2.9-.3-4.5-.1-.7 0-1.5-.3-2.2-.2-.4-.4-.8-.5-1.2-.3-.9-.1-2 .1-3-1.5-2.7-2-6-2.6-9l-1-5.1c-.1-.8-.3-1.6-.8-2.2-.5 2.3-.7 4.6-.6 6.9.1.7 0 1.3 0 2-.1.7-.4 1.4-.6 2.2-.4 1.6-.2 3.3-.3 4.9 0 .7-.1 1.3-.1 2-.1 2.9.9 5.8 1.8 8.6.6 1.7.7 3.6 1 5.4.3 1.7.5 3.4.7 5.1.1 1.6.2 3.3 1.2 4.5-.9.6-1.8 1.2-2.9 1.4-1.2.2-2.5-.1-3.5-.7-1.1-.6-2-1.4-2.8-2.4.2-.1.3-.4.3-.6.3-3.2-.9-6.4-1.4-9.6-.2-1.6-.3-3.2-.1-4.9.1-.6.1-1.2.2-1.8.1-3.2-1.4-6.3-1.4-9.4 0-1.5-.8-3-1.2-4.4-.3-1.3-.3-2.6-.4-3.9l-.1-10.4c0-1.4 0-2.9.5-4.2.6-1.6-.1-3.4-.2-5.1 2.8.9 5.6 1.2 8.3 1z" fill="#696791"/><path class="st10" d="M232.3 108.8c-1.1-2.2-2.4-4.3-3.9-6.2l-.9-1.2c-.5-.9-.7-2.1-1.1-3.1-1-2.9-3.4-5.3-4-8.3-.2-1.1-.9-2-1.4-3.1-.3-.7-.7-1.4-1.3-1.8-.8-.5-2-.3-2.7.4-.7.7-1 1.7-.8 2.7 0 .4.2.9.5 1.2.4.4.9.6 1.4.9 1.3.7 2.3 1.8 2.7 3.1.8 2.5 1 5.1 2 7.4 1.1 2.4 2.3 4.6 3.3 7.1.5 1.4 1 2.8 1.7 4.1.8 1.3 2 2.3 3.5 2.5 0-.9.1-1.8.4-2.7.5-.9 1-2.1.6-3zm15.7 1.9c-.1-1.8.2-3.6.8-5.3.2-.6.5-1.3.5-2 0-.6-.3-1.2-.6-1.8-1-2-1.6-4.1-2.3-6.2l-1.3-4c-.4-.3-.8-.7-1.1-1.1-.7-.8-1.1-1.7-1.3-2.8-.2-1 .1-2.1.7-2.9.3-.4.7-.7 1.2-.7.4 0 .8.2 1.1.5.4.5.7 1 1 1.6.4 1 .8 2 .8 3.1 0 .9-.4 1.9.2 2.6 1.7 2.3 3 5 4.3 7.6.3.6.6 1.2.9 1.9.3 1.1.5 2.2.5 3.3 0 2.1-.3 4.2-.6 6.2-.2 1.3-.4 2.7-1.4 3.6-1.1-1.3-2.1-2.6-3.4-3.6z"/><circle class="st10" cx="241.5" cy="106.4" r="5.3"/><path class="st10" d="M244.1 112c.1 1 .6 1.8 1.1 2.6.3.5.7 1.1 1.3 1.1-1.5.8-3.1 1.4-4.8 1.9-.6.2-1.2.3-1.8.3-.5 0-1-.2-1.5-.4-2-.9-3.6-2.7-4.1-4.8.7 0 1.3 0 2-.2.4 0 .7-.2 1-.5.1-.3.2-.6.2-.9v-2.6c1.3-.1 2.6.1 3.8.5.5.2 1 .4 1.5.5.3.1 1.2 0 1.4.2.5.3-.2 1.6-.1 2.3z"/><path d="M241.8 115.2c.1-1.4 1.1-2.6 2.5-3 .5-.1 1.1-.1 1.6-.4.8-.5 1.1-1.6 1.9-2.1.8-.5 1.9-.2 2.6.4.7.7 1.1 1.6 1.3 2.5.4 1.2.7 2.5.7 3.9 0 .2 0 .5-.1.7-.2.3-.3.5-.6.7-.6.7-.9 1.6-.8 2.5.1.8 0 1.7-.2 2.5-.5 2.2-1 4.5-1.4 6.8-.1.4-.1.8-.1 1.3.1.6.4 1.2.3 1.8-.1.3-.1.6-.2.9 0 .2.1.4.2.6.6 1.7 2.1 5.5 2.1 7.3-2.7-.7-6.7-.9-9.5-.9-.8 0-1.5 0-2.3.1-1.8.2-3.7.7-5.5.2-1.7-.5-3.1-1.8-4.8-1.6-.4-1 .1-4.2.4-5.2 1.4-3.9 1.6-8 .8-12-.3-1.4.1-3-.2-4.4-.1-.3-.2-.7-.4-.9-.2-.3-.5-.5-.9-.5 0-2.3.2-4.6.6-6.9.2-.8.5-1.7 1.3-1.9.7-.1 1.3.5 1.9.9.6.5 1.3.8 2 1 .3 0 .6.1.8.3.3.3.4.8.7 1.2.5.6 1.6.6 2 1.3.1.2.1.4.2.7.2.4.5.8.8 1.1.8.5 1.5.9 2.3 1.1z" fill="#f86d70"/><path d="M237.3 100.8c-.1-.3-.1-.8.2-1 .1-.1.3-.2.5-.3.2-.2.4-.4.5-.6.8-1.1 2.2-1.5 3.5-.9.9.5 1.5 1.4 2.3 2.1.4.3.9.6 1.3.9.8.7 1.4 1.7 1.7 2.8.3 1.1.4 2.2.5 3.2v1c-.1.3-.2.5-.4.8-.8 1.3-1.9 2.4-3.3 3.1-1.4.7-3.1.8-4.4.1-.1-.1-.3-.2-.3-.3-.1-.2-.1-.4-.1-.6.1-.8-.1-1.6-.4-2.3-.3-.5-.6-.9-.8-1.5-.2-.6-.3-1.2-.2-1.8-.4-1.6-.2-3.2-.6-4.7z" fill="#2d293d"/></svg>