<svg version="1.1" id="b847c0d8-de26-4ae3-b269-ef35a8ef771f" xmlns="http://www.w3.org/2000/svg" x="0" y="0" viewBox="0 0 290 208.6" xml:space="preserve"><style>.st0{opacity:.1;fill:#31b096;enable-background:new}.st1{fill:#d0d2d5}.st2{opacity:.1;enable-background:new}.st3{fill:#444053}.st4{fill:#31b096}.st5{fill:#fff}.st8{fill:#ee8e9e}.st9{fill:#454b69}.st12{fill:#3f3d56}.st14{fill:#a26565}.st15{fill:#efb7b9}</style><path class="st0" d="M167.2 31.3c-18.2-.6-35.5-6.5-52-12.9S82.3 4.8 64.6 1.4C53.2-.8 40.1-1.1 30.9 5.1 22.1 11 19.2 21.2 17.7 30.6c-1.2 7.1-1.8 14.5 1.3 21.2 2.2 4.6 6.1 8.5 8.8 12.9 9.4 15.4 2.8 34.3-7.4 49.3-4.8 7-10.3 13.8-14 21.2-3.7 7.5-5.4 16.1-2.2 23.7 3.2 7.6 10.8 13.3 19.1 17.3 16.8 8.1 36.5 10.5 55.8 11.8 42.6 2.9 85.5 1.7 128.2.4 15.8-.5 31.7-.9 47.3-3.4 8.6-1.4 17.6-3.5 23.8-8.7 8-6.6 9.9-17.8 4.6-26.1-9-13.9-33.7-17.3-40-32.3-3.4-8.2.1-17.4 5.1-25 10.7-16.3 28.7-30.7 29.7-49.3.7-12.8-8-25.7-21.4-31.7-14-6.4-33.5-5.6-43.8 5-10.6 10.8-29.3 14.9-45.4 14.4z"/><path class="st1" d="M169.1 189.6l-48.9-.6.2-1.3 2.3-20.7h43l3.1 20.7.3 1.6z"/><path class="st2" d="M169.1 189.3h-24.4l-24.5-.3.2-1.3h48.4z"/><path class="st1" d="M112.1 188.1H177v1.6h-64.9z"/><path class="st3" d="M238.9 42.7c0-2.3-1.8-4.1-4.1-4.1H53.6c-2.3 0-4.1 1.8-4.1 4.1v109.9h189.4V42.7z"/><path class="st1" d="M49.5 151.5v12.9c0 2.2 1.8 4.1 4.1 4.1h181.3c2.2 0 4.1-1.8 4.1-4.1v-12.9H49.5z"/><path class="st0" d="M57.3 45.5H232v98.8H57.3z"/><path class="st4" d="M145.1 163.6c1.3 0 2.5-.6 3.3-1.6.1-.2.2-.3.3-.5l-2.3-.4h2.5c.5-1.1.5-2.3.1-3.4l-3.4 1.8 3.1-2.3c-1.2-2-3.8-2.7-5.8-1.5-2 1.2-2.7 3.8-1.5 5.8.1.2.2.3.3.5.9 1 2.1 1.6 3.4 1.6z"/><path class="st2" d="M149.4 168.5l19.5 19.6-3-19.6z"/><path class="st5" d="M63.1 63.4h113.3c.4 0 .7.3.7.7v67.4c0 .4-.3.7-.7.7H63.1c-.4 0-.7-.3-.7-.7V64c.1-.4.4-.6.7-.6zm-5.6-17.9h174.6v5.8H57.5z"/><path class="st4" d="M58.4 46.5H63c.1 0 .2.1.2.2v3.1c0 .1-.1.2-.2.2h-4.6c-.1 0-.2-.1-.2-.2v-3.1c0-.1.1-.2.2-.2z"/><path d="M118.1 46.5h52.4c.1 0 .1.1.1.1v3.2c0 .1-.1.1-.1.1h-52.4c-.1 0-.1-.1-.1-.1v-3.2c-.1 0 0-.1.1-.1z" opacity=".3" fill="#31b096"/><path class="st3" d="M169 48.7h-.1c.2-.2.2-.4.3-.7 0-.6-.5-1-1-1s-1 .5-1 1c0 .6.5 1 1 1 .2 0 .5-.1.7-.3v.1l.8.8.3-.3-1-.6zm-.9 0c-.4 0-.7-.3-.7-.7 0-.4.3-.7.7-.7.4 0 .7.3.7.7 0 .3-.3.7-.7.7z"/><circle class="st4" cx="229.5" cy="48.3" r="1.8"/><path class="st5" d="M186 57.6h15.1c.3 0 .6.3.6.6V68c0 .3-.3.6-.6.6H186c-.3 0-.6-.3-.6-.6v-9.8c0-.3.3-.6.6-.6zm20.1 0h20.8c.1 0 .2.1.2.2v1.4c0 .1-.1.2-.2.2h-20.8c-.1 0-.2-.1-.2-.2v-1.4c.1-.1.1-.2.2-.2zm0 3.7h20.8c.1 0 .2.1.2.2V63c0 .1-.1.2-.2.2h-20.8c-.1 0-.2-.1-.2-.2v-1.4c.1-.2.1-.3.2-.3zm0 3.8h20.8c.1 0 .2.1.2.2v1.4c0 .1-.1.2-.2.2h-20.8c-.1 0-.2-.1-.2-.2v-1.4c.1-.1.1-.2.2-.2zM186 74.9h15.1c.3 0 .6.3.6.6v9.8c0 .3-.3.6-.6.6H186c-.3 0-.6-.3-.6-.6v-9.8c0-.3.3-.6.6-.6zm20.1 0h20.8c.1 0 .2.1.2.2v1.4c0 .1-.1.2-.2.2h-20.8c-.1 0-.2-.1-.2-.2V75c.1 0 .1-.1.2-.1zm0 3.8h20.8c.1 0 .2.1.2.2v1.4c0 .1-.1.2-.2.2h-20.8c-.1 0-.2-.1-.2-.2v-1.4c.1-.2.1-.2.2-.2zm0 3.7h20.7c.1 0 .2.1.2.2V84c0 .1-.1.2-.2.2h-20.7c-.1 0-.2-.1-.2-.2v-1.4c.1-.1.1-.2.2-.2zM186 92.2h15.1c.3 0 .6.3.6.6v9.8c0 .3-.3.6-.6.6H186c-.3 0-.6-.3-.6-.6v-9.8c0-.3.3-.6.6-.6zm20.1 0h20.7c.1 0 .2.1.2.2v1.4c0 .1-.1.2-.2.2h-20.7c-.1 0-.2-.1-.2-.2v-1.4c.1-.1.1-.2.2-.2zm0 3.8h20.7c.1 0 .2.1.2.2v1.4c0 .1-.1.2-.2.2h-20.7c-.1 0-.2-.1-.2-.2v-1.4c.1-.2.1-.2.2-.2zm0 3.7h20.7c.1 0 .2.1.2.2v1.4c0 .1-.1.2-.2.2h-20.7c-.1 0-.2-.1-.2-.2v-1.4c.1-.1.1-.2.2-.2zm-20.1 9.8h15.1c.3 0 .6.3.6.6v9.8c0 .3-.3.6-.6.6H186c-.3 0-.6-.3-.6-.6v-9.8c0-.3.3-.6.6-.6zm20.1 0h20.7c.1 0 .2.1.2.2v1.4c0 .1-.1.2-.2.2h-20.7c-.1 0-.2-.1-.2-.2v-1.4c.1-.1.1-.2.2-.2zm0 3.8h20.7c.1 0 .2.1.2.2v1.4c0 .1-.1.2-.2.2h-20.7c-.1 0-.2-.1-.2-.2v-1.4c.1-.1.1-.2.2-.2zm0 3.7h20.7c.1 0 .2.1.2.2v1.4c0 .1-.1.2-.2.2h-20.7c-.1 0-.2-.1-.2-.2v-1.4c.1-.1.1-.2.2-.2zm-20.1 9.8h15.1c.3 0 .6.3.6.6v9.8c0 .3-.3.6-.6.6H186c-.3 0-.6-.3-.6-.6v-9.8c0-.3.3-.6.6-.6zm20.1 0h20.7c.1 0 .2.1.2.2v1.4c0 .1-.1.2-.2.2h-20.7c-.1 0-.2-.1-.2-.2V127c.1-.1.1-.2.2-.2zm0 3.8h20.7c.1 0 .2.1.2.2v1.4c0 .1-.1.2-.2.2h-20.7c-.1 0-.2-.1-.2-.2v-1.4c.1-.1.1-.2.2-.2zm0 3.7h20.7c.1 0 .2.1.2.2v1.4c0 .1-.1.2-.2.2h-20.7c-.1 0-.2-.1-.2-.2v-1.4c.1-.1.1-.2.2-.2z"/><path class="st0" d="M79 81.6h25.8v1.3H79zm2.3-7.1h2.5v7.1h-2.5zm3.6 0h2.5v7.1h-2.5zm3.7 0h2.5v7.1h-2.5zm3.6 0h2.5v7.1h-2.5zm3.6 0h2.5v7.1h-2.5zm3.7 0h2.5v7.1h-2.5z"/><path class="st0" d="M81.3 75.8h2.5v.8h-2.5zm3.6 0h2.5v.8h-2.5zm3.7 0h2.5v.8h-2.5zm3.6 0h2.5v.8h-2.5zm3.6 0h2.5v.8h-2.5zm3.7 0h2.5v.8h-2.5zm-18.2 3.5h2.5v.8h-2.5zm3.6 0h2.5v.8h-2.5zm3.7 0h2.5v.8h-2.5zm3.6 0h2.5v.8h-2.5zm3.6 0h2.5v.8h-2.5zm3.7 0h2.5v.8h-2.5zm36.1 5.7h25.8v1.3h-25.8zm2.3-7.1h2.5V85h-2.5zm3.6 0h2.5V85h-2.5zm3.6 0h2.5V85h-2.5zm3.6 0h2.5V85h-2.5zm3.7 0h2.5V85h-2.5zm3.6 0h2.5V85H156z"/><path class="st0" d="M137.9 79.3h2.5v.8h-2.5zm3.6 0h2.5v.8h-2.5zm3.6 0h2.5v.8h-2.5zm3.6 0h2.5v.8h-2.5zm3.7 0h2.5v.8h-2.5zm3.6 0h2.5v.8H156zm-18.1 3.4h2.5v.8h-2.5zm3.6 0h2.5v.8h-2.5zm3.6 0h2.5v.8h-2.5zm3.6 0h2.5v.8h-2.5zm3.7 0h2.5v.8h-2.5zm3.6 0h2.5v.8H156zm-20.4 12.1h25.8v1.3h-25.8zm2.3-7.1h2.5v7.1h-2.5zm3.6 0h2.5v7.1h-2.5zm3.6 0h2.5v7.1h-2.5zm3.6 0h2.5v7.1h-2.5zm3.7 0h2.5v7.1h-2.5zm3.6 0h2.5v7.1H156z"/><path class="st0" d="M137.9 89h2.5v.8h-2.5zm3.6 0h2.5v.8h-2.5zm3.6 0h2.5v.8h-2.5zm3.6 0h2.5v.8h-2.5zm3.7 0h2.5v.8h-2.5zm3.6 0h2.5v.8H156zm-18.1 3.5h2.5v.8h-2.5zm3.6 0h2.5v.8h-2.5zm3.6 0h2.5v.8h-2.5zm3.6 0h2.5v.8h-2.5zm3.7 0h2.5v.8h-2.5zm3.6 0h2.5v.8H156zm-61.2 4.2c-.2-.2-.4-.5-.5-.8l3.7-.6h-4c-.8-1.7-.8-3.6-.1-5.4l5.4 2.8-5-3.7c1.9-3.2 6-4.4 9.2-2.5 3.2 1.9 4.4 6 2.5 9.2l-.6.9c.3.4.6.8.8 1.2l-4.8 2.5 5.1-1.7c.7 2.2.3 4.6-1.1 6.3 2.3 2.9 1.8 7.2-1.1 9.5-2.9 2.3-7.2 1.8-9.5-1.1-1.9-2.5-1.9-5.9 0-8.4-1.9-2.3-1.9-5.8 0-8.2z"/><path class="st0" d="M106.9 100.9c0 1.5-.5 3-1.4 4.2 2.3 2.9 1.8 7.2-1.1 9.5-2.9 2.3-7.2 1.8-9.5-1.1-1.9-2.5-1.9-5.9 0-8.4-1-1.2 12-5 12-4.2z"/><path d="M101.2 117.8s.1.1 0 0l-2.3.1v-.1c-.2-.3-.3-.7-.3-1.1 0-.3 0-.5.1-.8.1 0 .3 0 .5.1.5.1 1.1.1 1.6 0 .2 0 .3 0 .5-.1.1.3.1.5.1.8.1.4 0 .8-.2 1.1z" opacity=".2" fill="#3f3d56"/><path class="st0" d="M93 117.9H80.2c0-.1-.1-.2-.1-.2-.5-1.4-.4-3 .1-4.4a6.79 6.79 0 0 1-2.5-8c-.3-.2-.5-.4-.7-.6l3.4-1.7-3.8 1.2c-1.2-1.4-1.9-3.2-1.7-5.1l6 1.1-5.8-2c.8-3.7 4.4-6 8.1-5.2 3.7.8 6 4.4 5.2 8.1-.1.3-.2.7-.3 1 .4.3.8.6 1.1 1l-3.9 3.8 4.4-3.2c1.3 1.9 1.7 4.3.8 6.4 2.4 1.7 3.5 4.9 2.5 7.8z"/><path class="st0" d="M93 117.9H80.2c0-.1-.1-.2-.1-.2-.5-1.4-.4-3 .1-4.4-1.2-.8 10.1-8.3 10.3-7.6.5 1.5.4 3-.1 4.4 2.5 1.7 3.6 4.9 2.6 7.8zm57.9-9.2c-.8 1.3-2 2.3-3.4 2.8.1.5.1 1 0 1.5l-5.4-.3 5.3 1.1c-.2.7-.4 1.4-.8 2-.5.8-1.1 1.5-1.8 2h-7.4v.2h-7.5v-.2c.6-2.1 2.1-3.8 4.1-4.6-.4-3.1 1.4-6.1 4.3-7.2 0-.3-.1-.6-.1-.9l3.5 1.4-3.5-2c.2-1.9 1.2-3.5 2.7-4.7l3.2 5.2-2.4-5.7c3.3-1.8 7.4-.6 9.2 2.6 1.2 2.2 1.2 4.7 0 6.8z"/><path class="st0" d="M146.6 115.9c-.5.8-1.1 1.5-1.8 2h-7.4v.2h-7.5v-.2c.6-2.1 2.1-3.8 4.1-4.6-.1-.5 1.4-.4 3.3-.1 3.9.6 9.5 2.3 9.3 2.7z"/><path class="st8" d="M114.6 97.8s.9 5-1.1 6.7c-2.1 1.6 1.8 11.5 8.1 10.3 6.3-1.1 8.9-9.4 8.9-9.4s-6.3-1.3-4-8l-11.9.4z"/><path class="st2" d="M114.6 97.8s.9 5-1.1 6.7c-2.1 1.6 1.8 11.5 8.1 10.3 6.3-1.1 8.9-9.4 8.9-9.4s-6.3-1.3-4-8l-11.9.4z"/><circle class="st8" cx="120.2" cy="91" r="10.5"/><path class="st4" d="M137.4 110.9v7.1h-34.6v-6.8c0-1.8 1.1-3.4 2.7-4l1-.4c2.5-1.1 5.6-2.4 6.6-2.9.1-.1.2-.1.3-.2.5-.5.4.2.4.2v.4c-.1 1.6.2 7.9 7.6 7.4 7.2-.5 7.5-5.4 7.5-6.8v-.4c.5.1 1 .3 1.5.5 1.5.6 3.7 1.4 4.3 1.9.2.1.4.3.7.4.3.2.5.3.8.6.7.6 1.2 1.8 1.2 3z"/><path class="st2" d="M130.2 104.8c-.6 2.8-2.5 8.1-9.4 8.3-7.4.1-7.8-7.2-7.7-9.2.1-.1.2-.1.3-.2.5-.5.4.2.4.2s-.9 8.3 7.5 7.7c8.5-.6 7.4-7.2 7.4-7.2 0-.1.6.2 1.5.4z"/><path class="st9" d="M107.8 91.6c.7-.2 1.5.1 1.9.7.4.5.4 1.2.5 1.8.5.1.7-.4.8-.8.2-1.6.2-3.2.7-4.7.5-1.5 1.7-3 3.5-3.6.6-.2 1.3-.3 1.9-.2.4.1.7.2 1.1.3 1.3.2 2.7-.4 3.9 0 .8.3 1.3.9 1.6 1.5l.6.9c.5.5 1.3.6 2.1.7.7.1 1.6.4 1.9 1 .3.5.1 1.1 0 1.7-.1.9 0 1.8.4 2.6.1.3.4.6.8.5.1-.1.3-.2.4-.3.9-1.2.8-2.8 1.9-3.8.4-.4.8-.6 1.2-1 .5-.5.8-1.3.6-2.1-.2-.8-.9-1.5-1.4-2.2-.7-.9-1.2-2-1.5-3.1-.1-.1-.1-.3 0-.4.1-.1.2-.2.4-.3.6-.4.8-1.2.5-1.8-.3-.6-1-1.1-1.7-1.4-.8-.3-1.6-.4-2.4-.5-.5.1-1.1-.2-1.3-.6-.1-.2-.1-.4-.1-.6-.2-.4-.6-.6-1-.7-.4-.1-.9 0-1.3.1-.5.1-1.1.4-1.5.1-.2-.1-.4-.4-.6-.5-.5-.2-1 .2-1.4.6-.3.4-.8.7-1.2.8-.5.2-1.1.2-1.5-.1-.3-.2-.5-.6-.8-.8-.5-.5-1.2-.7-1.9-.8-.7 0-1.4 0-2.1.2-1.3.3-2.6.8-3.7 1.6-.6.3-1.1.8-1.4 1.3-.2.4-.3.9-.3 1.4-.1 1.5.4 3 1.7 4.1-.8.3-1 1.1-1.2 1.8-.3 1.1-.6 2.3-.5 3.4.1.6.2 1.2.1 1.8-.1.3-.1.6-.1.9-.2.2 0 .4.4.5z"/><path d="M133.3 86.2c-.1.2-.3.5-.5.7-.3.4-.8.6-1.2 1-1.1 1.1-1.1 2.6-1.9 3.8-.1.1-.2.2-.4.3-.3.1-.6-.2-.8-.5-.2-.3-.3-.7-.4-1 0 .1 0 .2-.1.3-.1.9 0 1.8.4 2.6.1.3.4.6.8.5.1-.1.3-.2.4-.3.9-1.2.8-2.8 1.9-3.8.4-.4.8-.6 1.2-1 .5-.5.8-1.3.6-2.1.1-.2 0-.3 0-.5zm-2.4-7.4c-.1.1-.3.2-.4.3-.1.1-.1.3 0 .4.1.4.2.8.4 1.1.6-.4.8-1.2.5-1.8 0-.1-.1-.2-.2-.3 0 .1-.2.2-.3.3zm-22.1 2.3c-.9-.7-1.5-1.8-1.6-2.9 0 .2-.1.5-.1.7-.1 1.1.2 2.2.8 3.1.2-.4.5-.7.9-.9zm19.4 7.9c.1-.6.3-1.2 0-1.7-.3-.6-1.1-.8-1.9-1s-1.6-.3-2.1-.7c-.3-.3-.5-.6-.6-.9-.4-.6-.8-1.3-1.6-1.5-1.2-.4-2.6.2-3.9 0-.4-.1-.7-.2-1.1-.3-.6-.1-1.3 0-1.9.2-1.8.6-2.9 2.1-3.5 3.6-.5 1.5-.5 3.1-.7 4.7 0 .4-.3.9-.8.8 0-.6-.1-1.3-.5-1.8-.4-.6-1.2-.9-1.9-.7-.2 0-.4-.2-.5-.3v.7c-.1.3-.1.6-.1.9.1.3.3.6.7.6.7-.2 1.5.1 1.9.7.4.5.4 1.2.5 1.8.5.1.7-.4.8-.8.2-1.6.2-3.2.7-4.7.5-1.5 1.7-3 3.5-3.6.6-.2 1.3-.3 1.9-.2.4.1.7.2 1.1.3 1.3.2 2.7-.4 3.9 0 .8.3 1.3.9 1.6 1.5l.6.9c.5.5 1.3.6 2.1.7s1.5.4 1.8.9V89zm-21-.8c0-.5 0-.9-.1-1.4-.1.5-.1 1 0 1.5v.4c.1-.2.1-.3.1-.5z"/><path class="st3" d="M95 128.2v-4.5c0-.1.1-.1.1-.1h.5c.1 0 .1.1.1.1v1.9l2.1-1.9c.1-.1.4-.1.5 0 0 .1.1.1.1.2v4.1c0 .2-.2.3-.4.3-.1 0-.1 0-.2-.1l-2.1-1.9v1.9c0 .1-.1.1-.1.1h-.5c-.1 0-.1-.1-.1-.1zm50.4-4.5v4.5c0 .1-.1.1-.1.1h-.5c-.1 0-.1-.1-.1-.1v-1.9l-2.1 1.9c-.1.1-.4.1-.5 0 0-.1-.1-.1-.1-.2v-4.1c0-.2.2-.3.4-.3.1 0 .1 0 .2.1l2.1 1.9v-1.9c0-.1.1-.1.1-.1h.5c0-.1.1 0 .1.1zm-26.1 4.7h-1c-.3 0-.5-.2-.5-.5v-3.7c0-.3.2-.5.5-.5h1c.3 0 .5.2.5.5v3.7c0 .3-.2.5-.5.5zm3.3-.5v-3.7c0-.3-.2-.5-.5-.5h-1c-.3 0-.5.2-.5.5v3.7c0 .3.2.5.5.5h1c.2 0 .4-.2.5-.5z"/><path opacity=".6" fill="#444053" d="M90.1 117.6h60.2v.7H90.1z"/><circle class="st3" cx="108.7" cy="117.9" r="1.6"/><path class="st3" d="M90.1 117.6h18.6v.7H90.1z"/><ellipse class="st4" cx="242.6" cy="190.3" rx="14.9" ry="2.9"/><ellipse class="st12" cx="242.4" cy="189.1" rx="1.7" ry="2.3"/><ellipse class="st12" cx="242.4" cy="186.3" rx="1.7" ry="2.3"/><ellipse class="st12" cx="242.4" cy="183.5" rx="1.7" ry="2.3"/><ellipse class="st12" cx="242.4" cy="180.7" rx="1.7" ry="2.3"/><ellipse class="st12" cx="242.4" cy="177.9" rx="1.7" ry="2.3"/><ellipse class="st12" cx="242.4" cy="175.2" rx="1.7" ry="2.3"/><ellipse class="st12" cx="242.4" cy="172.4" rx="1.7" ry="2.3"/><path class="st4" d="M248.9 153.4c.2-.3.5-.6.6-1l-4.6-.8h4.9c1-2.1 1-4.5.2-6.6l-6.6 3.4 6.1-4.5c-2.3-4-7.4-5.3-11.4-3s-5.3 7.4-3 11.4c.2.3.4.7.7 1-.4.5-.7 1-.9 1.5l5.9 3.1-6.3-2.1c-.9 2.7-.4 5.6 1.3 7.8-2.8 3.6-2.2 8.8 1.4 11.7 3.6 2.8 8.8 2.2 11.7-1.4 2.4-3 2.4-7.3 0-10.3 2.3-3 2.3-7.2 0-10.2z"/><path class="st2" d="M234 158.5c0 1.9.6 3.7 1.8 5.1-2.8 3.6-2.2 8.8 1.4 11.7 3.6 2.8 8.8 2.2 11.7-1.4 2.4-3 2.4-7.3 0-10.3 1.1-1.4-14.9-6-14.9-5.1z"/><ellipse class="st0" cx="75.3" cy="203.3" rx="24.8" ry="5.3"/><linearGradient id="SVGID_1_" gradientUnits="userSpaceOnUse" x1="109.424" y1="592.304" x2="109.424" y2="695.148" gradientTransform="matrix(1 0 0 -1 -35 798.74)"><stop offset="0" stop-color="gray" stop-opacity=".25"/><stop offset=".54" stop-color="gray" stop-opacity=".12"/><stop offset="1" stop-color="gray" stop-opacity=".1"/></linearGradient><path d="M83.6 202.7c-.5-.2-1-.2-1.6-.2-1.1-.1-2.1-.6-2.9-1.4-.5-.5-.9-1.1-1.1-1.8.2.1.3.1.5.2-.5-1.2 0-2.5.5-3.7.8-2 1.5-4 2.2-6.1 1.8-5.1 3.3-10.5 3.2-16 0-2-.4-3.8-.4-5.8-.1-1.5.2-2.9.2-4.4v-.6c.9-.8 1.4-2 1.3-3.2 0-.3-.1-.6-.1-.9-.1-.5-.2-1.1-.4-1.6s-.4-1.1-.6-1.6c-.4-1-.6-2.1-.9-3.2.1 0 .2 0 .3.1-.1-.1-.1-.2-.2-.3-.2-.7-.3-1.4-.3-2l.2-.1c.1-.7.1-1.4-.1-2 .1-1.1.3-2.2.4-3.2 0-.4 0-.9-.3-1-.1-.6-.1-1.2-.1-1.7-.1-2-.2-4-.3-6.1-.1-2-.2-4.1-.3-6.1 0-1.3 0-2.6-.3-3.9.1-.6 0-1.2-.2-1.8-.5-1.5-1.9-2.6-3.4-2.6-.4-.6-1-1.2-1.6-1.6.3-.7.6-1.3.9-1.9 2.4-.8 4.1-3.1 4.1-5.8 0-1-.2-2-.7-2.9 0-.1.1-.2.1-.3.1-.5.1-1.1-.1-1.6l-.3-.6c-.1-.1-.1-.3-.2-.4l-.1-.2-.3-.3c-.2-.2-.4-.5-.6-.7-.2-.3-.5-.5-.8-.7-.4-.3-.9-.5-1.4-.6-.3-.1-.6-.1-.9-.1h-1.8c-.6-.1-1.2-.2-1.8-.4l-.3-.1c-.1 0-.2 0-.3-.1-.3 0-.6-.1-.8-.1h-.3c-.3 0-.6 0-.8.1h-.3c-.7.1-1.4.3-2 .6-.1 0-.2.1-.3.1h-.1c-.1 0-.1.1-.2.1l-.2.1c-2 1.3-3.2 3.9-3.5 6.4-.3 2.8.3 5.7.8 8.5l.5 2.5c0 .1 0 .2.1.3-.7.6-1.3 1.4-1.7 2.3-.5 1.3-.5 2.6-.5 4v.8c-.1.5-.1 1-.2 1.6-.2 2.4.1 4.9.1 7.3-.1 1.9-.3 3.8-.2 5.6.1 1.7.6 3.3 1 4.9l.6 2.3c0 .1.1.2.2.3.1.1.2.1.4.1-.4.9-.8 1.9-1 2.9-.2.6-.3 1.2-.4 1.9-.1 1.1.2 2.3.4 3.4.4 1.7.8 3.4 1.2 5 .3 1.2.6 2.4.8 3.5.6 2.3 1.1 4.7 1.2 7.1.1 1.2 0 2.4-.3 3.6-.7 3.5-.8 7.2-.3 10.7.4 3 1.1 6 2 8.9l.6-.3-.1.2c-.3.5-.6 1-.8 1.5-.2.3-.3.7-.4 1.1-.3 1-.4 2.1-.4 3.1 0 .2 0 .4.1.6.1.4.5.6.9.7 1.1.3 2.2.2 3.3.1v.1c.1.4.5.6.9.7 1.6.4 3.2 0 4.8-.1 1.6-.2 3.2 0 4.7-.4.2 0 .4-.1.7-.3.4-.3.7-.7.8-1.1 0-.1.1-.2.1-.4.3-.3-.1-.8-.6-1zm-5.3-23.2c-.1.6-.3 1.2-.5 1.7-1.2 2.6-2.1 5.3-2.6 8.1-.3 1.8-.5 3.7-.6 5.6 0 1.4 0 2.8-.5 4.1h.2c-.1.1-.1.3-.2.3v.1c-.3-.6-.6-1.2-.7-1.9 0 0-.1 0-.3-.1-.7-4-1-8-.7-12 0-.5.1-1 .2-1.4.1-.4.3-.8.5-1.2.3-.7.4-1.3.5-2 .3-1.8.4-3.6.3-5.4-.1-1.7.3-3.4.7-5.1.2-.8.3-1.6.4-2.4v-.2c1.5 2.5 2.5 5.2 3.1 8 .2 1.1.3 2.5.2 3.8zm-10.8-36.3c.3.3.5.5.7.8.1.1.2.2.2.4.1.4-.2.7-.5.9-.1.1-.2.2-.3.4.1-.8 0-1.6-.1-2.5z" fill="url(#SVGID_1_)"/><path class="st4" d="M64.1 127.5l-.3 2.1c-.1.7-.2 1.4-.2 2.2-.2 2.4.1 4.8.1 7.3-.1 1.9-.4 3.7-.2 5.6.1 1.6.6 3.2 1.1 4.8l.7 2.3c0 .1.1.2.2.3.1.1.3.1.4.1l2.9-.3c-.2-.9-.4-1.8-.5-2.6-.1-.7-.1-1.4-.2-2.1-.2-2.2-.3-4.3-.5-6.5l-.3-3.8c-.1-1.7-.3-3.3-.7-4.9-.5-1.8-1.4-3.3-2.5-4.5z"/><path class="st2" d="M64.1 127.5l-.3 2.1c-.1.7-.2 1.4-.2 2.2-.2 2.4.1 4.8.1 7.3-.1 1.9-.4 3.7-.2 5.6.1 1.6.6 3.2 1.1 4.8l.7 2.3c0 .1.1.2.2.3.1.1.3.1.4.1l2.9-.3c-.2-.9-.4-1.8-.5-2.6-.1-.7-.1-1.4-.2-2.1-.2-2.2-.3-4.3-.5-6.5l-.3-3.8c-.1-1.7-.3-3.3-.7-4.9-.5-1.8-1.4-3.3-2.5-4.5z"/><path class="st14" d="M69.3 200c-.2.3-.3.7-.5 1-.3 1-.4 2.1-.4 3.1 0 .2 0 .4.1.6.1.4.6.6 1 .7 1.6.4 3.3 0 5-.1 1.7-.2 3.3 0 4.9-.4.2 0 .5-.1.7-.2.4-.3.7-.7.9-1.1 0-.1.1-.2.1-.4.1-.6-.4-1-.9-1.2-.5-.2-1.1-.2-1.6-.2-2.3-.2-4.2-2-4.6-4.3 0-.1-2.7 0-3 .1-.3.2-.5.6-.7.9-.5.5-.7 1-1 1.5z"/><path class="st2" d="M69.3 200c-.2.3-.3.7-.5 1-.3 1-.4 2.1-.4 3.1 0 .2 0 .4.1.6.1.4.6.6 1 .7 1.6.4 3.3 0 5-.1 1.7-.2 3.3 0 4.9-.4.2 0 .5-.1.7-.2.4-.3.7-.7.9-1.1 0-.1.1-.2.1-.4.1-.6-.4-1-.9-1.2-.5-.2-1.1-.2-1.6-.2-2.3-.2-4.2-2-4.6-4.3 0-.1-2.7 0-3 .1-.3.2-.5.6-.7.9-.5.5-.7 1-1 1.5z"/><path class="st14" d="M73.8 200.8c-.2.3-.3.7-.5 1-.3 1-.4 2.1-.4 3.1 0 .2 0 .4.1.6.1.4.6.6.9.7 1.6.4 3.3 0 5-.1s3.3 0 4.9-.4c.2 0 .5-.1.7-.3.4-.3.7-.7.9-1.1 0-.1.1-.2.1-.4.1-.5-.4-1-.9-1.2-.5-.2-1.1-.2-1.6-.2-2.3-.2-4.2-2-4.6-4.3 0-.1-2.7-.1-3 .1-.3.2-.5.6-.7.9-.4.6-.7 1.1-.9 1.6z"/><path class="st9" d="M85.5 174.2c0 5.4-1.5 10.7-3.4 15.8-.7 2-1.5 4-2.3 6-.5 1.2-1 2.5-.5 3.6-1.5-.6-3-.9-4.6-.6.6-1.2.5-2.7.6-4 .1-1.9.2-3.7.6-5.5.5-2.8 1.4-5.5 2.7-8 .3-.5.4-1.1.5-1.7.2-1.3 0-2.6-.2-3.9-.6-2.8-1.7-5.5-3.2-7.9v.2c-.1.8-.2 1.6-.4 2.4-.4 1.7-.8 3.4-.7 5 .1 1.8 0 3.6-.3 5.4-.1.7-.3 1.4-.5 2-.2.4-.4.8-.5 1.2-.1.5-.2.9-.2 1.4-.2 4.1 0 8.2.8 12.2-1.4-.1-2.8.3-4 .9-1-2.9-1.7-5.8-2.1-8.8-.5-3.5-.4-7.2.3-10.7.2-1.2.3-2.4.3-3.5-.1-2.4-.7-4.7-1.3-7l-.9-3.5c-.4-1.7-.8-3.3-1.3-5-.3-1.1-.6-2.2-.5-3.4.1-.6.2-1.2.4-1.8.6-2 1.6-3.9 2.8-5.7 4.8.3 9.7-.2 14.5-.6.2 0 .5 0 .7.1.2.2.3.4.3.6l1.8 10.3c.3 1.4.5 2.9.5 4.3 0 1.5-.2 2.9-.2 4.4-.1 2 .2 3.8.3 5.8z"/><path class="st2" d="M75.5 168.1c-.1.8-.2 1.6-.4 2.4-1.1-1.8-2.2-3.6-3.2-5.5-.3-.5-.5-1-.7-1.5l-.7-1.5c-.1-.3-.3-.5-.4-.8-.2-.4-.3-.8-.4-1.3.4-.1 1.2.9 1.5 1.1.5.5 1 1.1 1.5 1.7.6.6 1.1 1.3 1.6 2.1.6 1.1 1 2.1 1.2 3.3z"/><path class="st15" d="M79.6 118.2s-2.7 4.3-2.2 5.2c.5.9-8.5-.8-8.5-.8s4.9-4.3 4.4-6.1 6.3 1.7 6.3 1.7z"/><circle class="st15" cx="77.2" cy="113.4" r="6.1"/><path class="st4" d="M79.6 122.7c-.6-.9-1.5-1.6-2.6-2.1-.6-.2-1.2-.4-1.8-.4l-2.4-.4c-.6-.1-1.2-.2-1.8 0-.3.1-.5.3-.8.6-.8.8-1.7 1.6-2.7 2.1l-.9.3c-1.2.5-2.1 1.6-2.6 2.8-.5 1.2-.5 2.6-.5 3.9 0 .5 0 .9.1 1.4.1.4.3.9.5 1.3.3.9.6 1.8.8 2.7.6 2.4 1.1 4.8 1.6 7.3 0 .4.1.7.3 1 .2.3.5.6.8.8.3.2.5.4.7.7.1.1.2.2.2.4.1.4-.3.7-.5.9-.5.6-.9 1.2-1.1 2-.1.2-.2.3-.2.5.1.1.1.3.1.4 0 .1-.1.3-.2.4-.2.3-.3.7-.3 1.1 1.9.8 3.9 1.3 5.9 1.4.5 0 1 0 1.5.1.4 0 .7.1 1.1.2.5 0 1 .1 1.6 0 2.7-.1 5.5-.1 8-1.2.2-1.3-.3-2.6-.6-3.8-.5-2-.6-4.1-1-6.1-.3-1.4-.6-2.7-.8-4.1s-.3-2.8.1-4.2c.3-1.2.4-2.4.8-3.6.4-1.2.6-2.5.2-3.7-.4-1.7-1.9-2.8-3.5-2.7z"/><path class="st14" d="M82.6 110.2c.3-1.1-.3-2.2-1-3.1-.8-.9-1.7-1.8-2.9-2-1-.2-1.9 0-2.9 0-.9-.1-1.7-.4-2.5-.5-.8-.1-1.6-.1-2.3.1-.7.1-1.4.3-2.1.6-2.6 1.1-4.1 4-4.4 6.8-.4 2.8.3 5.6.9 8.4l.6 2.5c.6 2.6 1.2 5.2 1.3 7.9.2 2.7-.1 5.4-1.2 7.8 3.5-1.9 6.3-5 7.7-8.7.4-1 .7-2.1 1.1-3.1.4-.9.9-1.7 1.2-2.6.4-1 .6-2.1.5-3.1 0-.8-.2-1.6-.1-2.4s.2-1.6.8-2.2c.5-.5 1.2-.8 1.8-1.1 1-.5 1.9-1.2 2.6-2.1.4-.5.4-.8.5-1.3-.1-.9.3-1.3.4-1.9z"/><path class="st15" d="M82.6 155.8c.1.6-.1 1.3.1 1.9.1.5.3.9.5 1.3.1.5.2 1.1.2 1.6s0 1-.4 1.2c-.2.1-.4.1-.6.2s-.3.3-.2.5c.1.2.3.1.5.2.2 0 .3.2.3.3l-.1.1c-.2.1-.3.1-.5.2-.1.1-.2.3-.2.5s.2.2.3.2h.1c-.1.2-.1.3-.1.5.6.3 1.4-.1 2-.4.3-.1.5-.3.8-.5 1-.8 1.5-2 1.5-3.2 0-.3-.1-.6-.1-.9-.1-.5-.2-1-.4-1.6-.2-.5-.4-1.1-.6-1.6-.4-1.1-.7-2.3-1.1-3.4 0-.1-.1-.2-.2-.3-.1 0-.2-.1-.3-.1-.4 0-.9 0-1.3.1-.3.1-.7.3-.8.5s.1.5.2.7c.1.6.3 1.2.4 2z"/><path class="st2" d="M82.2 125.3c.1.1.2.3.3.4.9 1.6.9 3.4.9 5.2 0 2 .2 4 .3 6l.3 6c0 .6.1 1.1.1 1.7.4.1.4.6.4 1-.3 2.5-1 5-.3 7.3 0 .1.1.2.2.3-.4-.1-.8-.1-1.1 0-.4.1-.7.2-1.1.3-.5.1-1 .1-1.3.5-.4-1.1-.6-2.1-.8-3.2-.2-1-.2-2-.6-3-.2-.4-.4-.7-.6-1.1-1.1-1.9-1.6-4-2.1-6.1-.2-1-.3-2-.2-3 .1-.5.1-.9.1-1.4 0-.5-.1-1-.2-1.5-.2-1.4-.1-2.9.3-4.2.4-1.3.7-2.6 1.5-3.7.9-.9 2.6-1.5 3.9-1.5z"/><path class="st4" d="M82.5 125.1c.1.1.2.3.3.4.9 1.6.9 3.4.9 5.2 0 2 .2 4 .3 6l.3 6c0 .6.1 1.1.1 1.7.4.1.4.6.4 1-.3 2.5-1 5-.3 7.3 0 .1.1.2.2.3-.4-.1-.8-.1-1.1 0-.4.1-.7.2-1.1.3-.5.1-1 .1-1.3.5-.4-1.1-.6-2.2-.8-3.3-.2-1-.2-2-.6-3-.2-.4-.4-.7-.6-1.1-1.1-1.9-1.6-4-2.1-6.1-.2-1-.3-2-.2-3 .2-.9.2-1.9-.1-2.9-.2-1.4-.1-2.9.3-4.2.4-1.3.7-2.6 1.5-3.7 1-.8 2.6-1.4 3.9-1.4z"/><path d="M81.6 107.1c-.8-.9-1.7-1.8-2.9-2-1-.2-1.9 0-2.9 0-.9-.1-1.7-.4-2.5-.5-.8-.1-1.6-.1-2.3.1-.7.1-1.4.3-2.1.6-.4.2-.7.4-1 .6.6-.2 1.2-.4 1.9-.5.8-.1 1.6-.2 2.3-.1.9.1 1.7.4 2.5.5 1 .1 2-.2 2.9 0 1.2.2 2.1 1.1 2.9 2 .7.9 1.3 2 1 3.1-.2.6-.5 1.1-.6 1.6s-.1.8-.5 1.3c-.5.7-1.1 1.2-1.8 1.7l.6-.3c1-.5 1.9-1.2 2.6-2.1.4-.5.4-.8.5-1.3.1-.6.5-1.1.6-1.6.1-1.1-.5-2.2-1.2-3.1zm-4.5 9.3l.3-.3c-.6.3-1.2.5-1.6 1-.6.6-.8 1.4-.8 2.2 0 .8.1 1.6.1 2.4 0 1.1-.2 2.1-.5 3.1-.3.9-.8 1.7-1.2 2.6-.4 1-.7 2.1-1.1 3.1-1.3 3.2-3.5 6-6.4 7.9v.1c3.5-1.9 6.3-5 7.7-8.7.4-1 .7-2.1 1.1-3.1.4-.9.9-1.7 1.2-2.6.4-1 .6-2.1.5-3.1 0-.8-.2-1.6-.1-2.4s.3-1.6.8-2.2z"/></svg>