<svg version="1.1" id="Layer_1" xmlns="http://www.w3.org/2000/svg" x="0" y="0" viewBox="0 0 284.4 218.2" xml:space="preserve"><style>.st1{opacity:.1;fill:#3c6fe9;enable-background:new}.st2{fill:#d6d6e3}.st3{fill:#aebee1}.st4{fill:#535461}.st5{opacity:.1;enable-background:new}.st6{fill:#e3edf9}.st8{fill:#f8b9bf}.st9{fill:#d9dfe8}.st10{fill:#3c6fe9}.st11{opacity:.1}.st12{fill:#68739d}.st13{fill:#6394e2}.st17{fill:#fa595f}.st18{fill:#f37291}.st19{fill:#96a2d0}</style><path d="M265.6 123.5c-10.4 15.7-7.8 37.5-2.6 54.8 1.8 5.8 3.8 11.9 2.6 18.3-1.5 7.8-7.4 13.9-13.5 17.2-11.1 6.1-23.9 5.6-33.5-1.3-8.2-6-13.8-16.3-22.3-22-14.1-9.5-32.8-4.4-49 3.8-11.5 5.8-24.1 13.2-34.9 8.6-7.6-3.3-12.6-12-15.1-21.6-1.2-4.6-2-9.6-4.5-13.1-1.5-2.1-3.5-3.5-5.6-4.7-19.1-10.8-44.4-2.8-63-15-12.5-8.2-19.9-24.7-22.7-42.2S.2 70.3 2 52c1.3-13 3.2-26.9 10.5-37.4C20.2 3.6 32.6-1.1 43.6.2s20.6 7.9 29 15.8c10.5 9.9 20.1 22.4 33.4 25.8 9.1 2.3 18.9.2 28.4-1 16-1.9 31.8-.9 47.5.4 15.1 1.2 30.2 2.6 44.3 7.8 10 3.6 17.8 10.9 27.2 15.7 6.1 3.2 12.9 3.7 18.6 7.8 7.1 5.1 13.3 14.3 10.8 25.8-2.2 10.9-11.6 16.9-17.2 25.2z" opacity=".1" fill="#89daf8"/><path class="st1" d="M222.8 64.9h10.3v15.7h-10.3z"/><path class="st1" d="M223.8 66.4h8.3V79h-8.3zm-22-12.4h15.9v15.7h-15.9z"/><path class="st1" d="M203.4 55.5h12.8v12.6h-12.8zM16.3 30.7h48.6V32H16.3zm0 6.3h48.6v1.3H16.3z"/><path class="st2" d="M98.3 114.5h5v55.4h-5z"/><path class="st3" d="M248.1 120.3V69.2c0-3 2.4-5.4 5.4-5.4 3 0 5.4 2.4 5.4 5.4v61.9c0 3-2.4 5.4-5.4 5.4h-33.3c-3 0-5.4-2.4-5.4-5.4 0-3 2.4-5.4 5.4-5.4h22.6c2.9 0 5.3-2.4 5.3-5.4z"/><path class="st4" d="M248.1 120.3V69.2c0-3 2.4-5.4 5.4-5.4 3 0 5.4 2.4 5.4 5.4v61.9c0 3-2.4 5.4-5.4 5.4h-33.3c-3 0-5.4-2.4-5.4-5.4 0-3 2.4-5.4 5.4-5.4h22.6c2.9 0 5.3-2.4 5.3-5.4z"/><path class="st2" d="M214.8 130.8c.2-2.9 2.5-5.1 5.4-5.1h22.6c3 0 5.4-2.4 5.4-5.4V69.2c0-2.9 2.3-5.2 5.1-5.4v67h-38.5z"/><path class="st3" d="M48.7 122.1V70.9c0-3-2.4-5.4-5.4-5.4-3 0-5.4 2.4-5.4 5.4v61.9c0 3 2.4 5.4 5.4 5.4h33.3c3 0 5.4-2.4 5.4-5.4 0-3-2.4-5.4-5.4-5.4H54.1c-3 .1-5.4-2.3-5.4-5.3z"/><path class="st4" d="M48.7 122.1V70.9c0-3-2.4-5.4-5.4-5.4-3 0-5.4 2.4-5.4 5.4v61.9c0 3 2.4 5.4 5.4 5.4h33.3c3 0 5.4-2.4 5.4-5.4 0-3-2.4-5.4-5.4-5.4H54.1c-3 .1-5.4-2.3-5.4-5.3z"/><path class="st2" d="M82 132.5c-.2-2.9-2.5-5.1-5.4-5.1H54.1c-3 0-5.4-2.4-5.4-5.4V70.9c0-2.9-2.3-5.2-5.1-5.4v67H82zm114.4-18h5v56.7h-5z"/><path class="st5" d="M98.3 114.5h5v4.1h-5zm98.1 0h5v4.1h-5zM116 80.8l-.3 2.7h-.7v-2.7h1z"/><path class="st4" d="M136.3 108.4c0 .9-.6 1.6-1.4 1.6h-15.2v-1.6h12.6c.6 0 .9-.7.6-1.2L121.5 84c-.2-.3-.5-.6-.9-.6H115v-2.7h7.1c.3 0 .5.2.6.4l13.1 25.3c.3.6.5 1.3.5 2z"/><path class="st4" d="M108.5 104.1l-.2.4-1.9-1.3 6-46.2h1.5s.1.2.2.6c1 4 6.1 26.6-5.6 46.5z"/><path class="st5" d="M114.1 57.6l-5.6 46.5-.2.4-1.9-1.3 6-46.2h1.5l.2.6z"/><path transform="rotate(-83.171 109.269 80.535)" class="st2" d="M85.3 78.7h47.9v3.7H85.3z"/><path class="st6" d="M92.1 108.4c0 .2-.2.4-.4.4H91c-.2 0-.4-.2-.4-.4v-.1c0-.2.2-.4.4-.4h.7c.2 0 .4.1.4.3v.2zm2 0c0 .2-.2.4-.4.4H93c-.2 0-.4-.2-.4-.4v-.1c0-.1.1-.1.1-.2.1-.1.2-.1.3-.1h.7c.2 0 .3.1.4.3v.1zm1.7 0c0 .2-.2.4-.4.4h-.7c-.2 0-.4-.2-.4-.4v-.2c.1-.2.2-.3.4-.3h.7c.2 0 .4.2.4.5zm1.9 0c0 .2-.2.4-.4.4h-.7c-.2 0-.4-.2-.4-.4 0-.1 0-.2.1-.3l.1-.1c.1-.1.2-.1.3-.1h.7c.1 0 .2.1.3.1v.4z"/><path class="st5" d="M92.1 108.3v.1c0 .2-.2.4-.4.4H91c-.2 0-.4-.2-.4-.4v-.1h1.5zm1.9-.1v.2c0 .2-.2.4-.4.4H93c-.2 0-.4-.2-.4-.4v-.1l1.4-.1zm1.7-.1c.1.1.1.2.1.2 0 .2-.2.4-.4.4h-.7c-.2 0-.4-.2-.4-.4v-.2h1.4zm2 .3c0 .2-.2.4-.4.4h-.7c-.2 0-.4-.2-.4-.4 0-.1 0-.2.1-.3l1.3-.1c.1.2.1.3.1.4z"/><path class="st2" d="M101.6 110.1H89.1v-.6c0-.5.4-1 .9-1l10-.4c.8 0 1.5.6 1.5 1.4v.1l.1.5z"/><path class="st4" d="M163.3 108.4c0 .9.6 1.6 1.4 1.6h15.2v-1.6h-12.6c-.6 0-.9-.7-.6-1.2L178.1 84c.2-.3.5-.6.9-.6h5.6v-2.7h-7.1c-.3 0-.5.2-.6.4l-13.1 25.3c-.3.6-.5 1.3-.5 2z"/><path class="st4" d="M191.1 104.1l.2.4 1.9-1.3-6-46.2h-1.5s-.1.2-.2.6c-1 4-6.1 26.6 5.6 46.5z"/><path class="st5" d="M185.6 57.6l5.6 46.5.2.4 1.9-1.3-6-46.2h-1.5c-.1 0-.1.3-.2.6z"/><path transform="rotate(-6.832 190.368 80.558)" class="st2" d="M188.5 56.6h3.7v47.9h-3.7z"/><path class="st6" d="M207.5 108.4c0 .2.2.4.4.4h.7c.2 0 .4-.2.4-.4v-.1c0-.2-.2-.4-.4-.4h-.7c-.2 0-.4.1-.4.3v.2zm-1.9 0c0 .2.2.4.4.4h.7c.2 0 .4-.2.4-.4v-.1c0-.1-.1-.1-.1-.2-.1-.1-.2-.1-.3-.1h-.7c-.2 0-.3.1-.4.3v.1zm-1.8 0c0 .2.2.4.4.4h.7c.2 0 .4-.2.4-.4 0-.1 0-.1-.1-.2-.1-.2-.2-.3-.4-.3h-.7c-.1 0-.3.2-.3.5zm-1.9 0c0 .2.2.4.4.4h.7c.2 0 .4-.2.4-.4 0-.1 0-.2-.1-.3l-.1-.1c-.1-.1-.2-.1-.3-.1h-.7c-.1 0-.2.1-.3.1v.4z"/><path class="st5" d="M207.5 108.3v.1c0 .2.2.4.4.4h.7c.2 0 .4-.2.4-.4v-.1h-1.5zm-1.9-.1v.2c0 .2.2.4.4.4h.7c.2 0 .4-.2.4-.4v-.1l-1.5-.1zm-1.7-.1c-.1.1-.1.2-.1.2 0 .2.2.4.4.4h.7c.2 0 .4-.2.4-.4 0-.1 0-.1-.1-.2h-1.3zm-2 .3c0 .2.2.4.4.4h.7c.2 0 .4-.2.4-.4 0-.1 0-.2-.1-.3l-1.3-.1c-.1.2-.1.3-.1.4z"/><path class="st2" d="M198 110.1h12.5v-.6c0-.5-.4-1-.9-1l-10-.4c-.8 0-1.5.6-1.5 1.4v.6z"/><linearGradient id="SVGID_1_" gradientUnits="userSpaceOnUse" x1="299.798" y1="288.745" x2="299.798" y2="158.517" gradientTransform="matrix(1 .09 -.09 1 -56.43 -140.27)"><stop offset="0" stop-color="gray" stop-opacity=".25"/><stop offset=".54" stop-color="gray" stop-opacity=".12"/><stop offset="1" stop-color="gray" stop-opacity=".1"/></linearGradient><path d="M250.4 117c5.8-9.9 3.7-29.9 3.9-30.3.2-.3-.6-9.7-5.9-12-1-1.9-1.9-4.1-1.9-4.1-.1.1-.2.2-.3.2-.1-.1-.1-.2-.1-.4-.1-.2-.1-.4-.2-.6.2.1.3.1.5.1.4.1.8.1 1.2-.1.1-.1.3-.2.4-.3.4-.3.7-.8.9-1.3l1.6-3.7c.7-1.7 1.4-3.4 1.8-5.2.6-2.7.3-5.5-.6-8.1-.4-1-.9-2-1.7-2.6-1.7-1.2-4.1-.4-6.1-1.1-.7-.2-1.2-.6-1.9-.8-1.4-.5-3-.2-4.4.4-1.3.6-2.5 1.6-3.6 2.5-.6.5-1.5.9-2.2 1.5-.7.5-1.2 1.2-1.1 2 .1 1 1.1 1.5 2 1.7.2 0 .3.1.5.1-3.5 3.6-3.5 9.3.1 12.9 1.1 1.1 2.4 1.8 3.8 2.3.5.9.9 1.8 1.2 2.8.1.1.1.3.1.4-1.5.4-2.7.8-3 1-.7.6.8 5.9.8 5.9-.4.5-.8 1-1.2 1.6-3 4.6-5 9.8-5.6 15.3-.3 2-.6 4-1 6L210 99.6l-.1.5-.4-.1-1.4-.3-.1.3-.2-.1c-3.4-1.6-9.1-3.6-12.9-1.5-4 2.2 4.7 5.1 10.3 6.6-1.9.1-3.6.5-5.1 1.6-4.1 3.1 7.5 4.7 12.9 5.2h.2v.1l1.9.2.5.1.1.7s2.7.5 6.3 1c-4.1 1-9.2 1.7-12.7 2.2-3.7.4-6.9 3.1-7.9 6.7-.3 1-.4 2.2-.1 3.2 1.1 3.7-.2 30.7-.5 36.5l-6.6 3.8s-10.4 1.3-3.5 3.7c.6.2 1.3.4 1.9.5-.9.6-.8 1.3 1.8 2.3 6.9 2.4 23-.1 23-.1s-.4-2.9-.9-5.2h.2s-1.7-6.2.9-9.3c2.5-3.1-.4-26.8-.4-26.8s4.4-1.8 17.6-1.9c10.6 2.7 15.8-7 15.7-12.1-.1-.2-.1-.3-.1-.4z" fill="url(#SVGID_1_)"/><path class="st8" d="M211.1 101.6l-1.1 4.6s-1-.2-2.5-.6c-5.1-1.3-16-4.5-11.6-6.9 3.7-2 9.3-.1 12.5 1.5 1.2.6 2.1 1.1 2.5 1.3.1.1.2.1.2.1z"/><path class="st5" d="M210.8 102.9l-.8 3.3s-1-.2-2.5-.6l.9-5.4c1.2.6 2.1 1.1 2.5 1.3l-.1 1.4z"/><path class="st9" d="M210.8 106.5l-3.1-.8.9-5.7 2.6.6z"/><path class="st5" d="M210.8 106.5l-1.3-.3.5-5.9 1.2.3z"/><path class="st10" d="M241.1 82.7s-6-3.5-8.7 6.5-2.9 14.6-2.9 14.6l-19-3.8-.6 7s20.4 6.6 22.9 6.1c2.6-.5 10.9-14.4 10.9-14.4s7.5-10.9-2.6-16z"/><g class="st11"><path d="M211.1 101.6l-1.1 4.6s-1-.2-2.5-.6c-5.1-1.3-16-4.5-11.6-6.9 3.7-2 9.3-.1 12.5 1.5 1.2.6 2.1 1.1 2.5 1.3.1.1.2.1.2.1z"/><path class="st5" d="M210.8 102.9l-.8 3.3s-1-.2-2.5-.6l.9-5.4c1.2.6 2.1 1.1 2.5 1.3l-.1 1.4z"/><path d="M210.8 106.5l-3.1-.8.9-5.7 2.6.6z"/><path class="st5" d="M210.8 106.5l-1.3-.3.5-5.9 1.2.3z"/><path d="M241.1 82.9s-6-3.5-8.7 6.5-2.9 14.6-2.9 14.6l-19-3.8-.6 7s20.4 6.6 22.9 6.1c2.6-.5 10.9-14.4 10.9-14.4s7.5-10.9-2.6-16z"/></g><path class="st12" d="M202.8 160.1l-7.8 4.5s-10.1 1.2-3.4 3.6 22.3-.1 22.3-.1-.9-7-2.1-8c-1.2-1-9 0-9 0z"/><path class="st13" d="M233.1 109.9s-3.9 2-10.8 3.8c-4 1-9.1 1.7-12.6 2.2-3.6.4-6.7 3-7.7 6.5-.3 1-.4 2.1-.1 3.1 1.1 4-.6 36.6-.6 36.6l11.8 1.1s-1.6-6 .8-9c2.5-3-.4-26-.4-26s4.3-1.8 17.1-1.9c11.8 3 16.7-9.9 14.9-13.6-1.7-3.8-12.4-2.8-12.4-2.8z"/><g class="st11"><path d="M202.8 160.1l-7.8 4.5s-10.1 1.2-3.4 3.6 22.3-.1 22.3-.1-.9-7-2.1-8c-1.2-1-9 0-9 0z"/><path d="M233.1 109.9s-3.9 2-10.8 3.8c-4 1-9.1 1.7-12.6 2.2-3.6.4-6.7 3-7.7 6.5-.3 1-.4 2.1-.1 3.1 1.1 4-.6 36.6-.6 36.6l11.8 1.1s-1.6-6 .8-9c2.5-3-.4-26-.4-26s4.3-1.8 17.1-1.9c11.8 3 16.7-9.9 14.9-13.6-1.7-3.8-12.4-2.8-12.4-2.8z"/></g><path class="st12" d="M206.4 162.8l-7.8 4.5s-10.1 1.2-3.4 3.6c6.7 2.4 22.3-.1 22.3-.1s-.9-7-2.1-8c-1.1-1-9 0-9 0z"/><path class="st13" d="M234.3 128.8c-12.8.1-17.1 1.9-17.1 1.9s2.9 23 .4 26-.8 9-.8 9l-11.8-1.1s0-.4.1-1.1c.3-5.7 1.5-31.9.5-35.5-.3-1-.2-2.1.1-3.1 1-3.5 4.1-6.1 7.7-6.5 3.5-.4 8.5-1.1 12.5-2.2l.2-.1c6.8-1.7 10.5-3.7 10.5-3.7s10.7-1 12.5 2.7c.3.6.4 1.2.4 1.8.2 5.1-4.9 14.6-15.2 11.9z"/><path class="st8" d="M216.5 107.3l-.4 4.7s-1-.1-2.6-.2c-5.3-.6-16.5-2.1-12.5-5.1 3.4-2.6 9.2-1.4 12.6-.4 1.3.4 2.2.8 2.7.9.1 0 .2.1.2.1zm31.4-30.6s-1.6 1.2-3.5 2.6c-2.1.5-4.6.9-6.4 1.1.6-2 .3-4.3-.5-6.3-.8-2.1-1.8-4-3.2-5.8L245 65c-.8 2.1-.5 4.6.3 6.7.7 1.7 1.6 3.4 2.6 5z"/><path class="st5" d="M216.4 108.6l-.3 3.4s-1-.1-2.6-.2l.1-5.5c1.3.4 2.2.8 2.7.9l.1 1.4z"/><path class="st9" d="M216.9 112.2l-3.2-.3.1-5.9 2.6.3z"/><path class="st5" d="M247.9 76.7s-1.6 1.2-3.5 2.6c-2.1.5-4.6.9-6.4 1.1.6-2 .3-4.3-.5-6.3 2.6-.8 6.3-1.7 7.8-2.5.7 1.8 1.6 3.5 2.6 5.1z"/><path class="st9" d="M245.8 71.7s1.8 4.1 2.9 5.9c1.1 1.8-13.1 3.5-13.1 3.5s-1.5-5.1-.8-5.7c.7-.5 9.8-2.5 11-3.7z"/><path class="st5" d="M249.6 117.1c-.6 1.1-1.3 2-2.2 2.9-6.3 6-16.6-.3-21.2-3.7 6.8-1.7 10.5-3.7 10.5-3.7s10.7-1 12.5 2.7c.3.5.4 1.2.4 1.8z"/><path class="st10" d="M247.4 119.5c-7.2 6.8-19.5-2.2-22.8-4.9-.5-.4-.8-.7-.8-.7 1.3-1.2 2.5-3.8 3.4-7 .9-3.1 1.5-6.2 1.8-9.3.6-5.3 2.5-10.4 5.4-14.9.4-.6.8-1.1 1.1-1.6 2.7-3.4 7.2-5.6 7.2-5.6 9.6-2.8 10.9 11.4 10.6 11.8-.1.5 2.5 24.3-5.9 32.2z"/><path class="st5" d="M248.4 100.1s-6.1 15-8.6 15.9c-1.4.5-8.9-.4-15.1-1.3-.5-.4-.8-.7-.8-.7 1.3-1.2 2.5-3.8 3.4-7l8 .4s-.5-4.6.7-14.9 7.6-7.7 7.6-7.7c10.6 3.5 4.8 15.3 4.8 15.3zm-31.5 12.1l-1.4-.2-.3-5.8 1.2.1z"/><path class="st10" d="M243.4 84.1s-6.5-2.6-7.6 7.7c-1.2 10.3-.7 14.9-.7 14.9l-19.4-.9.4 7s21.1 3.5 23.6 2.6c2.5-.9 8.6-15.9 8.6-15.9s5.8-11.9-4.9-15.4z"/><path class="st5" d="M243.8 68.8c-.3-1.5 1.3-1.5 1.9-3L235 69.2c.7 1 1.4 2 2 3.2.6.2 1.1.3 1.7.3 2.5.2 3.3-2.3 5.1-3.9z"/><ellipse class="st8" cx="238.9" cy="62.9" rx="8.9" ry="8.9"/><path class="st5" d="M230.2 55c.1.9 1.1 1.5 2 1.7.9.2 1.9.2 2.7.7 1.3.8 1.6 2.5 1.4 4-.1.8-.2 1.9.5 2.4.2.1.5.2.7.3.7.2 1.4.2 2.2.1.4-.1.9-.2 1.3 0 .7.2 1.1.9 1.2 1.6.1.7.1 1.4.2 2 .3 1.7 1.6 3.1 3.4 3.5.4.1.8.1 1.2-.1.5-.3.7-.8.9-1.3l1.5-3.6c.7-1.6 1.4-3.3 1.7-5 .5-2.6.3-5.3-.6-7.8-.4-1-.9-1.9-1.7-2.5-1.7-1.1-4-.4-6-1-.6-.2-1.2-.6-1.8-.8-1.4-.5-2.9-.2-4.2.4-1.3.6-2.4 1.6-3.5 2.5-1.2.5-3.3 1.3-3.1 2.9z"/><path d="M230.4 54.8c.1.9 1.1 1.5 2 1.7.9.2 1.9.2 2.7.7 1.3.8 1.6 2.5 1.4 4-.1.8-.2 1.9.5 2.4.2.1.5.2.7.3.7.2 1.4.2 2.2.1.4-.1.9-.2 1.3 0 .7.2 1.1.9 1.2 1.6.1.7.1 1.4.2 2 .3 1.7 1.6 3.1 3.4 3.5.4.1.8.1 1.2-.1.5-.3.7-.8.9-1.3l1.5-3.6c.7-1.6 1.4-3.3 1.7-5 .5-2.6.3-5.3-.6-7.8-.4-1-.9-1.9-1.7-2.5-1.7-1.1-4-.4-6-1-.6-.2-1.2-.6-1.8-.8-1.4-.5-2.9-.2-4.2.4-1.3.6-2.4 1.6-3.5 2.5-1.1.5-3.3 1.3-3.1 2.9z" fill="#b96b6b"/><path class="st5" d="M237.7 89.7s-3.4 13.1-6.7 14.3c-3.4 1.2-1.9 1.6-1.9 1.6"/><path class="st2" d="M234.2 137.8h3.7v24.1h-3.7z"/><path class="st5" d="M234.2 137.8h3.7v1.8h-3.7z"/><path class="st2" d="M226.9 137.6v.5c0 .7.5 1.2 1.2 1.2h16c.7 0 1.2-.5 1.2-1.2v-.5c0-.7-.5-1.2-1.2-1.2h-16c-.7.1-1.2.6-1.2 1.2z"/><path class="st5" d="M227.2 136.9H245c-.2-.3-.6-.4-.9-.4h-16c-.4 0-.7.1-.9.4z"/><path class="st2" d="M222.4 160.6h27.4c.8 0 1.4.6 1.4 1.4v.1c0 .8-.6 1.4-1.4 1.4h-27.4c-.8 0-1.4-.6-1.4-1.4v-.1c0-.8.6-1.4 1.4-1.4z"/><circle class="st4" cx="249.4" cy="165.3" r="1.8"/><circle class="st4" cx="222.7" cy="165.3" r="1.8"/><circle class="st4" cx="236.1" cy="165.3" r="1.8"/><path class="st2" d="M234.3 108.1h24.5c1.2 0 2.2 1 2.2 2.2v.2c0 1.2-1 2.2-2.2 2.2h-24.5c-1.2 0-2.2-1-2.2-2.2v-.2c0-1.2 1-2.2 2.2-2.2z"/><path class="st5" d="M237.9 160.6s-1.4 1.4-3.7 0m26.8-50.2v.4c0 1-.8 1.8-1.8 1.8H234c-1 0-1.8-.8-1.8-1.8v-.4H261z"/><path class="st2" d="M208 114.5h5v63.2h-5z"/><path class="st5" d="M208 114.5h5v4.1h-5z"/><path class="st2" d="M58.9 139.5h3.7v24.1h-3.7z"/><path class="st5" d="M58.9 139.5h3.7v1.8h-3.7z"/><path class="st2" d="M69.9 139.4v.5c0 .7-.5 1.2-1.2 1.2h-16c-.7 0-1.2-.5-1.2-1.2v-.5c0-.7.5-1.2 1.2-1.2h16c.7 0 1.2.5 1.2 1.2z"/><path class="st5" d="M69.7 138.6H51.9c.2-.3.6-.4.9-.4h16c.3 0 .6.2.9.4z"/><path class="st2" d="M47.1 162.3h27.4c.8 0 1.4.6 1.4 1.4v.1c0 .8-.6 1.4-1.4 1.4H47.1c-.8 0-1.4-.6-1.4-1.4v-.1c0-.8.6-1.4 1.4-1.4z"/><circle class="st4" cx="47.4" cy="167" r="1.8"/><circle class="st4" cx="74.1" cy="167" r="1.8"/><circle class="st4" cx="60.8" cy="167" r="1.8"/><path class="st5" d="M58.9 162.3s1.4 1.4 3.7 0"/><path d="M152.6 89.7s-4.1-7.5-2.6-14c.7-2.7.4-5.6-.7-8.1-.5-1.2-1.2-2.4-1.9-3.5" fill="none" stroke="#535461" stroke-width="2" stroke-miterlimit="10"/><path class="st10" d="M148.2 60c.2 1-.9 4.2-.9 4.2s-2.4-2.5-2.6-3.4c-.3-1 .3-2 1.2-2.3s2 .3 2.3 1.2v.3zm4.1 4.7c-.4.9-3.1 3-3.1 3s-.7-3.4-.3-4.3c.3-1 1.3-1.5 2.3-1.2 1 .3 1.5 1.3 1.2 2.3 0 .1 0 .2-.1.2zm2 9.4c-.8.6-4.2 1.1-4.2 1.1s1.1-3.2 1.9-3.9c.8-.6 1.9-.5 2.6.2.6.8.5 1.9-.3 2.6 0-.1 0 0 0 0zm-.2 7.3c-.7.8-3.9 1.7-3.9 1.7s.6-3.4 1.2-4.1c.6-.8 1.8-.9 2.6-.3s.9 1.8.3 2.6c-.1.1-.2.1-.2.1zm-8.5-12.6c.9.5 4.3.5 4.3.5s-1.5-3.1-2.4-3.6c-.8-.6-2-.3-2.5.5-.6.8-.4 2 .6 2.6-.1-.1 0-.1 0 0zm-.1 8.6c1 .3 4.2-.8 4.2-.8s-2.4-2.5-3.3-2.7c-1-.2-1.9.4-2.2 1.4-.1.9.4 1.8 1.3 2.1zm1.1 8.4c.9.4 4.3-.1 4.3-.1s-1.9-2.9-2.8-3.3c-.9-.4-2 0-2.4.9-.4 1 0 2.1.9 2.5z"/><path class="st10" d="M148.2 60c.2 1-.9 4.2-.9 4.2s-2.4-2.5-2.6-3.4c-.3-1 .3-2 1.2-2.3s2 .3 2.3 1.2v.3zm4.1 4.7c-.4.9-3.1 3-3.1 3s-.7-3.4-.3-4.3c.3-1 1.3-1.5 2.3-1.2 1 .3 1.5 1.3 1.2 2.3 0 .1 0 .2-.1.2zm2 9.4c-.8.6-4.2 1.1-4.2 1.1s1.1-3.2 1.9-3.9c.8-.6 1.9-.5 2.6.2.6.8.5 1.9-.3 2.6 0-.1 0 0 0 0zm-.2 7.3c-.7.8-3.9 1.7-3.9 1.7s.6-3.4 1.2-4.1c.6-.8 1.8-.9 2.6-.3s.9 1.8.3 2.6c-.1.1-.2.1-.2.1zm-8.5-12.6c.9.5 4.3.5 4.3.5s-1.5-3.1-2.4-3.6c-.8-.6-2-.3-2.5.5-.6.8-.4 2 .6 2.6-.1-.1 0-.1 0 0zm-.1 8.6c1 .3 4.2-.8 4.2-.8s-2.4-2.5-3.3-2.7c-1-.2-1.9.4-2.2 1.4-.1.9.4 1.8 1.3 2.1zm1.1 8.4c.9.4 4.3-.1 4.3-.1s-1.9-2.9-2.8-3.3c-.9-.4-2 0-2.4.9-.4 1 0 2.1.9 2.5zm4.3 24.7c-2.4 0-4.3-1.9-4.3-4.3v-.3l1.2-19.2h6.2l1.2 19.2c.2 2.4-1.7 4.5-4 4.6-.1-.1-.2 0-.3 0z"/><path class="st1" d="M21.2 16.1h3.5v14.7h-3.5zm4.5 0h3.5v14.7h-3.5zm4.6 0h3.5v14.7h-3.5zm4.5 0h3.5v14.7h-3.5zm9.1 0h3.5v14.7h-3.5zm4.6 0H52v14.7h-3.5z"/><path class="st1" d="M21.2 18.8h3.5v.8h-3.5zm0 9.1h3.5v.8h-3.5zm4.5-9.1h3.5v.8h-3.5zm0 9.1h3.5v.8h-3.5zm4.6-9.1h3.5v.8h-3.5zm0 9.1h3.5v.8h-3.5zm4.5-9.1h3.5v.8h-3.5zm0 9.1h3.5v.8h-3.5zm4.6-9.1h3.5v.8h-3.5zm0 9.1h3.5v.8h-3.5zm4.5-9.1h3.5v.8h-3.5zm0 9.1h3.5v.8h-3.5zm4.6-9.1H52v.8h-3.5zm0 9.1H52v.8h-3.5z"/><path class="st1" d="M39.4 16.1h3.5v14.7h-3.5z"/><path transform="rotate(-24.838 56.822 23.384)" class="st1" d="M55.1 16.1h3.5v14.7h-3.5z"/><path transform="rotate(-24.838 55.072 19.587)" class="st1" d="M53.3 19.2h3.5v.8h-3.5z"/><path transform="rotate(-24.838 58.896 27.86)" class="st1" d="M57.1 27.5h3.5v.8h-3.5z"/><linearGradient id="SVGID_2_" gradientUnits="userSpaceOnUse" x1="112.995" y1="324.16" x2="112.995" y2="194.804" gradientTransform="translate(-39.7 -149.7)"><stop offset="0" stop-color="gray" stop-opacity=".25"/><stop offset=".54" stop-color="gray" stop-opacity=".12"/><stop offset="1" stop-color="gray" stop-opacity=".1"/></linearGradient><path d="M98.4 167.3l-6.4-4.1c0-5.8-.1-32.6 1.1-36.2.3-1 .3-2.2.1-3.2-.8-3.6-3.9-6.4-7.6-7-3.5-.6-8.5-1.5-12.5-2.7l6.3-.7.1-.7 2.3-.1v-.1h.2c5.4-.3 16.9-1.4 13-4.6-1.3-1.1-3.1-1.6-4.9-1.8 5.6-1.3 14.4-3.8 10.5-6.1-3.7-2.2-9.4-.5-12.9.9l-.2.1v-.3l-1.4.3-.4.1v-.5l-19.1 2.9c-.2-2.2-.4-4.4-.8-6.5.4-2.9 2.4-7 1.7-9.2-.8-2.6-4.1-3.4-5.6-5.8-.4-.6-.7-1.2-1.1-1.7-.8-1.1-1.7-2-2.7-2.9.1-1.5.4-3 1-4.4.4-.9.8-1.8 1.3-2.7 4.6-1.1 7.5-5.7 6.7-10.4 1.2.5 2.7.6 3.4-.4l-.4-.2.1-.1c-.7-.3-1.5-.6-2.1-1.1-.2-.2-.3-.4-.4-.5-.4-.7-.3-1.6-.6-2.3-.2-.3-.4-.6-.7-.9-.6-.6-1.3-1-2.2-1.2-.9-.3-1.9-.4-2.8-.8-2.4-2.8-6.3-3.9-9.9-2.8l-.3.1c.5-2.2-1-4.4-3.2-4.9s-4.3.9-4.9 3.1c.1-.9.5-1.8 1.1-2.5l-.2.2a4.11 4.11 0 0 0-.2 5.8l.1.1c.3.4.6.7 1 .9-1.5-.5-2.5-1.8-2.7-3.4v.3c.1 2.3 2.1 4 4.4 3.9h.1l-.1.1c-2.4 3.6-2.1 8.3.8 11.5.2.4.4.7.7 1.1l.3.3c.7.7 1.6 1.2 2.7 1.2.2.2.4.4.5.6-.2.7-.4 1.4-.7 2.1-.5 1.3-1.2 2.7-2 3.9-5.5 1.5-5.9 10.8-5.7 11.2.2.4-.8 15 3.2 32.6-.2 5 2.8 13.4 13.2 11.2 13 .7 17.3 2.7 17.3 2.7s-1.2 22.7.5 26c1.1 2.1.3 5.1-.5 7.2-.3.5-.6 1.1-.7 1.7-.3.5-.4.9-.4.9h.2c-.7 2.3-1.1 5.1-1.1 5.1s15.8 3.2 22.7 1.1c2.7-.8 2.8-1.6 1.9-2.2.6-.1 1.3-.2 1.9-.4 7.3-2-3-3.8-3-3.8z" fill="url(#SVGID_2_)"/><path class="st17" d="M64.1 59.8c0 5-4.1 9.1-9.1 9.1s-9.1-4.1-9.1-9.1 4.1-9.1 9.1-9.1 9.1 4.1 9.1 9.1z"/><path class="st8" d="M84.6 102.6l.9 4.6s1-.2 2.6-.5c5.2-1.1 16.2-3.8 11.9-6.3-3.7-2.2-9.3-.5-12.6.9-1.2.5-2.2 1-2.6 1.2-.1 0-.2.1-.2.1z"/><path class="st5" d="M84.8 103.9l.7 3.3s1-.2 2.6-.5l-.7-5.4c-1.2.5-2.2 1-2.6 1.2v1.4z"/><path class="st9" d="M84.7 107.4l3.2-.6-.7-5.8-2.6.5z"/><path class="st5" d="M84.7 107.4l1.4-.2-.3-5.9-1.2.2z"/><path class="st10" d="M55.5 82.3s6.2-3.2 8.4 6.9c2.3 10.1 2.3 14.7 2.3 14.7l19.2-3 .3 7s-20.6 5.7-23.2 5.1-10.3-14.9-10.3-14.9-7-11.1 3.3-15.8z"/><g class="st11"><path d="M84.6 102.6l.9 4.6s1-.2 2.6-.5c5.2-1.1 16.2-3.8 11.9-6.3-3.7-2.2-9.3-.5-12.6.9-1.2.5-2.2 1-2.6 1.2-.1 0-.2.1-.2.1z"/><path class="st5" d="M84.8 103.9l.7 3.3s1-.2 2.6-.5l-.7-5.4c-1.2.5-2.2 1-2.6 1.2v1.4z"/><path d="M84.7 107.4l3.2-.6-.7-5.8-2.6.5z"/><path class="st5" d="M84.7 107.4l1.4-.2-.3-5.9-1.2.2z"/><path d="M56 82.8s6.2-3.2 8.4 6.9c2.3 10.1 2.3 14.7 2.3 14.7l19.2-3 .3 7s-20.6 5.7-23.2 5.1c-2.5-.6-10.2-14.9-10.2-14.9S45.7 87.5 56 82.8z"/></g><path class="st18" d="M90.4 161.4l7.6 4.8s10 1.7 3.2 3.7c-6.8 2.1-22.3-1.1-22.3-1.1s1.2-7 2.4-7.9c1.3-.9 9.1.5 9.1.5z"/><path class="st19" d="M62.3 109.8s3.8 2.2 10.6 4.2c4 1.2 9 2.1 12.4 2.7 3.6.6 6.6 3.3 7.4 6.8.3 1 .3 2.1-.1 3.1-1.3 3.9-1.1 36.6-1.1 36.6l-11.8.6s1.9-5.9-.4-9.1 1.6-26 1.6-26-4.2-1.9-17-2.6c-12 2.5-16.3-10.6-14.3-14.2 2.1-3.5 12.7-2.1 12.7-2.1z"/><g class="st11"><path d="M90.4 161.4l7.6 4.8s10 1.7 3.2 3.7c-6.8 2.1-22.3-1.1-22.3-1.1s1.2-7 2.4-7.9c1.3-.9 9.1.5 9.1.5z"/><path d="M62.3 109.8s3.8 2.2 10.6 4.2c4 1.2 9 2.1 12.4 2.7 3.6.6 6.6 3.3 7.4 6.8.3 1 .3 2.1-.1 3.1-1.3 3.9-1.1 36.6-1.1 36.6l-11.8.6s1.9-5.9-.4-9.1 1.6-26 1.6-26-4.2-1.9-17-2.6c-12 2.5-16.3-10.6-14.3-14.2 2.1-3.5 12.7-2.1 12.7-2.1z"/></g><path class="st18" d="M86.6 164l7.6 4.8s10 1.7 3.2 3.7c-6.8 2.1-22.3-1.1-22.3-1.1s1.2-7 2.4-7.9c1.3-.9 9.1.5 9.1.5z"/><path class="st19" d="M60.2 128.7c12.8.7 17 2.6 17 2.6s-1.2 22.2.5 25.4c1.8 3.4-1.6 9.6-1.6 9.6l11.8-.6v-1.1c0-5.7-.1-31.9 1.1-35.5.3-1 .3-2.1.1-3.1-.9-3.6-3.8-6.3-7.4-6.8-3.5-.6-8.5-1.5-12.4-2.7l-.2-.1c-6.7-2-10.4-4.2-10.4-4.2s-7.9-.6-9.9 3c-.3.5-1.3 1.4-1.4 2.1-.4 5.1 2.4 13.6 12.8 11.4z"/><path class="st8" d="M79 108l.2 4.7s1 0 2.6-.1c5.3-.3 16.6-1.4 12.7-4.5-3.3-2.7-9.1-1.8-12.6-1-1.3.3-2.3.7-2.7.8-.1.1-.2.1-.2.1zM48.9 76.1s1.5 1.3 3.4 2.8c2.1.6 4.6 1.1 6.3 1.4-.5-2-.1-4.3.7-6.3.9-2 2-4 3.4-5.7l-10.5-3.8c.7 2.2.3 4.6-.6 6.7-.6 1.6-1.6 3.3-2.7 4.9z"/><path class="st5" d="M79 109.3l.2 3.4s1 0 2.6-.1l.2-5.5c-1.3.3-2.3.7-2.7.8l-.3 1.4z"/><path class="st9" d="M78.3 112.9l3.3-.2.1-5.8-2.6.1z"/><path class="st10" d="M47.5 118.9c6.8 7.1 19.6-1.3 23-3.8.6-.4.9-.7.9-.7-1.3-1.3-3.3-2.5-4.1-5.7-.7-3.3-1.2-6.6-1.5-10-.2-2.7 2.6-7.7 1.7-10.3-.8-2.6-4.1-3.4-5.4-5.6-.4-.6-.7-1.2-1.1-1.6-2.6-3.5-7-5.9-7-5.9-9.4-3.2-10.2 10.3-9.9 10.7.3.2-.8 15.1 3.4 32.9z"/><path class="st5" d="M47.5 99.4s5.5 15.3 7.9 16.2c1.4.6 9-.1 15.2-.7.6-.4.9-.7.9-.7-1.3-1.3-2.3-3.9-3.1-7.2h-8s.6-4.6-.1-14.9-7.3-7.9-7.3-7.9c-10.9 3.2-5.5 15.2-5.5 15.2zm30.8 13.5l1.4-.1.6-5.9-1.2.1z"/><path class="st10" d="M53.2 83.6s6.6-2.3 7.3 8.1c.7 10.3.1 14.9.1 14.9l19.4-.1-.8 7S58 116 55.5 115.1c-2.4-1-7.9-16.2-7.9-16.2s-5.3-12.2 5.6-15.3z"/><path class="st5" d="M53.4 68.4c.4-1.5-1.3-1.6-1.8-3l10.5 3.8c-.8 1-1.5 2-2.1 3.1-.6.2-1.1.2-1.7.3-2.5 0-3.2-2.6-4.9-4.2z"/><circle class="st8" cx="58.5" cy="62.7" r="8.9"/><path class="st5" d="M54 90.2s2.8 13.3 6.1 14.6c3.3 1.3 1.8 1.6 1.8 1.6m3.6-8.7s-2.3.7-5.1-2.8"/><circle class="st17" cx="47.9" cy="50.4" r="4"/><path class="st17" d="M45.1 52.6c-1.5-1.6-1.5-4 0-5.5l-.2.2c-1.6 1.5-1.7 4.1-.2 5.7 1.5 1.6 4.1 1.7 5.7.2l.2-.2c-1.7 1.3-4.1 1.1-5.5-.4z"/><path class="st17" d="M47.4 54.1c-2.1.1-4-1.4-4.2-3.5v.3c.2 2.2 2.1 3.9 4.3 3.8 2.2-.1 3.9-2.1 3.8-4.3v-.3c-.1 2.1-1.8 3.8-3.9 4z"/><path class="st5" d="M61.8 53.9c.9.5 2 .6 3 .9 1 .3 2 .8 2.5 1.8.3.7.3 1.5.6 2.2.5 1 1.6 1.5 2.7 1.9-.9 1.2-2.8.9-4.1.1-1.3-.8-2.3-2-3.8-2.3s-3 .4-3.7 1.7c-.4.7-.5 1.5-.7 2.3-.5 2-1.5 4.1-3.3 5.3-1.8 1.2-4.4 1.2-5.8-.4-.8-.9-1.1-2.2-1.3-3.4-.1-.6-.2-1.1-.2-1.7.1-1.4 1-2.7 2-3.8 1.2-1.3 2.4-2.5 3.6-3.7 1.1-1 2.3-2.8 3.9-2.9 1.8-.3 3.1 1.3 4.6 2z"/><path class="st17" d="M61.6 53.7c.9.5 2 .6 3 .9 1 .3 2 .8 2.5 1.8.3.7.3 1.5.6 2.2.5 1 1.6 1.5 2.7 1.9-.9 1.2-2.8.9-4.1.1s-2.3-2-3.8-2.3-3 .4-3.7 1.7c-.4.7-.5 1.5-.7 2.3-.5 2-1.5 4.1-3.3 5.3-1.8 1.2-4.4 1.2-5.8-.4-.8-.9-1.1-2.2-1.3-3.4-.1-.6-.2-1.1-.2-1.7.1-1.4 1-2.7 2-3.8 1.2-1.3 2.4-2.5 3.6-3.7 1.1-1 2.3-2.8 3.9-2.9 1.7-.4 3 1.3 4.6 2z"/><path class="st2" d="M38 109.9h24.5c1.2 0 2.2 1 2.2 2.2v.2c0 1.2-1 2.2-2.2 2.2H38c-1.2 0-2.2-1-2.2-2.2v-.3c0-1.2 1-2.1 2.2-2.1z"/><path class="st5" d="M35.8 112.2v.4c0 1 .8 1.8 1.8 1.8h25.2c1 0 1.8-.8 1.8-1.8v-.4H35.8z"/><path class="st2" d="M86.6 114.5h5v63.2h-5z"/><path class="st5" d="M86.6 114.5h5v4.1h-5z"/><path class="st2" d="M84.2 110h131.1v8.2H84.2z"/></svg>