<?xml version="1.0" encoding="utf-8"?>
<!-- Generator: Adobe Illustrator 23.0.2, SVG Export Plug-In . SVG Version: 6.00 Build 0)  -->
<svg version="1.1" id="Layer_1" xmlns="http://www.w3.org/2000/svg" xmlns:xlink="http://www.w3.org/1999/xlink" x="0px" y="0px"
	 viewBox="0 0 253.4 113.4" style="enable-background:new 0 0 253.4 113.4;" xml:space="preserve">
<style type="text/css">
	.st0{fill:#18243F;}
	.st1{fill:#3C6FE9;}
</style>
<path class="st0" d="M85,89.6c1.5,0,2.7,0.4,3.8,1.3c0.9,0.9,1.6,2,1.9,3.5H79.5c0.3-1.3,0.8-2.7,1.9-3.5C82.2,90,83.6,89.6,85,89.6
	 M95,96.1c0-2-0.4-3.8-1.2-5.3c-0.8-1.6-2-2.7-3.5-3.5s-3.2-1.2-5.1-1.2s-3.6,0.4-5.3,1.3c-1.6,0.8-2.7,2-3.6,3.5
	c-0.9,1.6-1.3,3.2-1.3,5.3c0,1.9,0.4,3.6,1.3,5.3c0.9,1.6,2.2,2.7,3.8,3.5c1.6,0.8,3.5,1.3,5.7,1.3c1.6,0,3.2-0.3,4.6-0.8
	c1.3-0.5,2.4-1.3,3.4-2.4l-2.4-2.8c-1.3,1.3-3.1,2.2-5.4,2.2c-1.6,0-3.1-0.4-4.2-1.2c-1.2-0.8-1.9-2-2.2-3.5h15.7
	C95,96.8,95,96.4,95,96.1 M73.4,101.5c-0.7,0.5-1.6,0.8-2.6,0.8c-0.9,0-1.6-0.3-2-0.8c-0.5-0.5-0.7-1.2-0.7-2.2V90h5.3v-3.8h-5.3
	v-4.5h-4.6v4.5h-3.2v3.6h3.2v9.4c0,2.2,0.5,3.8,1.8,5c1.2,1.2,2.8,1.6,5.1,1.6c0.8,0,1.6-0.1,2.4-0.3c0.8-0.3,1.3-0.5,2-0.9
	L73.4,101.5z M52.9,105.8h4.6V86.1h-4.6V105.8L52.9,105.8z M41.7,85.8c-1.5,0-2.7,0.3-3.9,0.7c-1.2,0.5-2.2,1.2-3,2V86h-4.5v19.7H35
	v-10c0-1.9,0.5-3.4,1.5-4.5c0.9-0.9,2.3-1.5,4-1.5c1.5,0,2.7,0.4,3.5,1.3s1.2,2.2,1.2,3.9v10.7h4.6V94.4c0-2.8-0.8-5-2.3-6.5
	C46.2,86.7,44.1,85.8,41.7,85.8 M17.1,101.1c-1.8,0-3.2-0.5-4.3-1.6s-1.6-2.4-1.6-4s0.5-3,1.6-4c1.1-0.9,2.6-1.6,4.3-1.6
	s3.1,0.5,4.3,1.6c1.1,0.9,1.6,2.4,1.6,4s-0.5,3.1-1.6,4C20.4,100.4,18.9,101.1,17.1,101.1 M23.4,86.1v2.7c-0.8-0.9-1.8-1.6-3-2.2
	C19.2,86.1,18,86,16.5,86c-1.9,0-3.5,0.4-5.1,1.2c-1.5,0.8-2.7,1.9-3.5,3.4c-0.9,1.3-1.3,3.1-1.3,5s0.4,3.5,1.3,5s2,2.6,3.5,3.4
	s3.2,1.2,5.1,1.2c1.3,0,2.6-0.3,3.8-0.7c1.2-0.4,2-1.1,3-2v0.9c0,2-0.5,3.5-1.5,4.5c-0.9,0.9-2.6,1.5-4.7,1.5c-1.3,0-2.7-0.3-4-0.7
	s-2.4-0.9-3.2-1.8l-2,3.5c1.1,0.9,2.4,1.6,4.2,2c1.6,0.5,3.5,0.8,5.4,0.8c7,0,10.7-3.5,10.7-10.4V86.1H23.4L23.4,86.1z M0,105.8h4.9
	V80.2H0V105.8z"/>
<path class="st1" d="M245.3,106.1c2.4,0,4.5-0.5,5.9-1.5c1.3-0.9,2.2-2.3,2.2-4c0-1.2-0.3-2.3-0.9-3c-0.7-0.8-1.5-1.2-2.4-1.5
	s-2.2-0.5-3.8-0.9c-1.2-0.3-2.3-0.4-3-0.7c-0.8-0.3-1.3-0.5-1.9-0.9c-0.5-0.4-0.8-0.9-0.8-1.8s0.4-1.8,1.2-2.3s2-0.9,3.8-0.9
	c2.3,0,4.2,0.5,5.7,1.6l1.2-2c-0.8-0.5-1.9-0.9-3.1-1.3c-1.2-0.3-2.4-0.5-3.8-0.5c-2.4,0-4.3,0.5-5.7,1.6c-1.3,0.9-2,2.3-2,4
	c0,1.3,0.3,2.3,0.9,3.1c0.7,0.8,1.5,1.2,2.4,1.6s2.3,0.5,3.8,0.9c1.2,0.1,2.2,0.4,2.8,0.5c0.8,0.3,1.3,0.5,1.8,0.9s0.7,0.9,0.7,1.6
	c0,0.9-0.4,1.9-1.2,2.3c-0.8,0.5-2.2,0.8-3.9,0.8c-1.3,0-2.6-0.1-3.8-0.5s-2.3-0.9-3.1-1.6l-1.2,2c0.8,0.7,1.9,1.2,3.4,1.8
	C242.2,105.8,243.6,106.1,245.3,106.1 M228.1,106.1c1.6,0,3.1-0.3,4.5-0.9c1.3-0.7,2.4-1.6,3.1-2.8l-2-1.3c-0.7,0.9-1.5,1.6-2.4,2.2
	c-0.9,0.5-2,0.7-3.2,0.7c-1.3,0-2.7-0.3-3.8-0.9c-1.1-0.7-2-1.5-2.7-2.7s-0.9-2.4-0.9-4s0.3-2.8,0.9-4c0.7-1.2,1.5-2,2.7-2.7
	c1.1-0.7,2.4-0.9,3.8-0.9c1.2,0,2.3,0.3,3.2,0.8s1.9,1.2,2.4,2.2l2-1.3c-0.8-1.2-1.9-2.3-3.1-2.8c-1.3-0.7-2.8-0.9-4.5-0.9
	c-1.9,0-3.6,0.4-5.1,1.2c-1.5,0.8-2.7,2-3.5,3.5s-1.3,3.2-1.3,5.1s0.4,3.5,1.3,5.1c0.8,1.5,2,2.7,3.5,3.5
	C224.5,105.7,226.2,106.1,228.1,106.1 M211.9,105.8h2.7V86.4h-2.7V105.8z M208.3,102.9c-0.3,0.3-0.8,0.5-1.3,0.8
	c-0.5,0.1-0.9,0.3-1.6,0.3c-1.1,0-1.9-0.3-2.4-0.9c-0.5-0.5-0.8-1.5-0.8-2.7V88.7h5.9v-2.3h-5.9v-4.2h-2.7v4.2H196v2.3h3.5v11.7
	c0,1.9,0.5,3.1,1.5,4.2c0.9,0.9,2.4,1.5,4.2,1.5c0.8,0,1.6-0.1,2.3-0.3c0.8-0.3,1.3-0.5,1.9-0.9L208.3,102.9z M192.5,86.5l-7.3,16.5
	l-7.3-16.5h-2.7L184,106l-0.8,1.9c-0.5,1.2-1.2,2-1.8,2.4c-0.7,0.5-1.3,0.8-2.3,0.8c-1.3,0-2.6-0.5-3.5-1.5l-1.2,2
	c0.5,0.5,1.3,0.9,2,1.3c0.8,0.3,1.6,0.4,2.7,0.4c1.3,0,2.7-0.4,3.8-1.2c0.9-0.8,1.9-2,2.7-3.9l9.7-21.7
	C195.3,86.5,192.5,86.5,192.5,86.5z M170.1,105.8h2.7V78.6h-2.7V105.8z M156.2,103.9c-1.6,0-2.7-0.3-3.6-0.9
	c-0.8-0.7-1.3-1.6-1.3-2.7c0-2.3,1.6-3.5,5-3.5h6.1v3.1c-0.5,1.2-1.3,2.3-2.3,3C158.9,103.7,157.7,103.9,156.2,103.9 M157.1,86.3
	c-1.5,0-3,0.3-4.3,0.7c-1.3,0.4-2.6,1.1-3.5,1.9l1.2,2c0.8-0.8,1.8-1.2,3-1.6s2.3-0.5,3.5-0.5c1.9,0,3.1,0.4,4,1.3s1.3,2.2,1.3,3.8
	V95h-6.2c-2.6,0-4.5,0.5-5.7,1.5s-1.9,2.3-1.9,4c0,1.6,0.7,3.1,1.9,4s3,1.6,5.1,1.6c1.6,0,3-0.3,4-0.8c1.2-0.5,2-1.3,2.6-2.3v3h2.4
	V94c0-2.4-0.7-4.5-2-5.7C161.6,86.9,159.7,86.3,157.1,86.3 M137.3,86.3c-1.6,0-3.1,0.3-4.5,0.9c-1.2,0.7-2.3,1.6-3,2.7v-3.5h-2.4
	v19.4h2.7V95.6c0-2.2,0.5-3.9,1.9-5.1c1.2-1.2,3-1.9,5-1.9c1.9,0,3.4,0.5,4.3,1.6c0.9,1.1,1.5,2.6,1.5,4.6v11.1h2.7V94.5
	c0-2.7-0.8-4.7-2.2-6.2C141.6,86.9,139.7,86.3,137.3,86.3 M105.6,96.8l6.2-13.9l6.2,13.9H105.6z M122,105.8h3L113.3,80h-2.7
	l-11.7,25.8h2.8l3.1-6.9h14.3L122,105.8z"/>
<circle class="st0" cx="126.6" cy="52.4" r="3.9"/>
<circle class="st0" cx="55.2" cy="80.2" r="3.9"/>
<circle class="st1" cx="152.3" cy="40.3" r="3.9"/>
<circle class="st0" cx="152.3" cy="16.2" r="3.9"/>
<circle class="st0" cx="101.2" cy="16.2" r="3.9"/>
<circle class="st1" cx="101.2" cy="40.3" r="3.9"/>
<circle class="st1" cx="126.6" cy="28.3" r="3.9"/>
<circle class="st1" cx="126.6" cy="3.9" r="3.9"/>
<circle class="st0" cx="101.1" cy="28.3" r="2.5"/>
<circle class="st0" cx="152.3" cy="28.3" r="2.5"/>
<circle class="st0" cx="139.6" cy="10.2" r="2.5"/>
<circle class="st0" cx="113.7" cy="10.2" r="2.5"/>
<circle class="st0" cx="113.7" cy="46.4" r="2.5"/>
<circle class="st0" cx="139.6" cy="46.4" r="2.5"/>
<circle class="st1" cx="213.2" cy="80.5" r="2.5"/>
<circle class="st0" cx="113.7" cy="22.3" r="2"/>
<circle class="st0" cx="113.7" cy="34.3" r="2"/>
<circle class="st0" cx="139.6" cy="34.3" r="2"/>
<circle class="st0" cx="126.6" cy="40.3" r="2"/>
<circle class="st0" cx="126.6" cy="16.2" r="2"/>
<circle class="st0" cx="139.6" cy="22.3" r="2"/>
</svg>
