<?xml version="1.0" encoding="utf-8"?>
<!-- Generator: Adobe Illustrator 23.0.3, SVG Export Plug-In . SVG Version: 6.00 Build 0)  -->
<svg version="1.1" xmlns="http://www.w3.org/2000/svg" xmlns:xlink="http://www.w3.org/1999/xlink" x="0px" y="0px"
	 viewBox="0 0 1920 919" style="enable-background:new 0 0 1920 919;" xml:space="preserve">
<style type="text/css">
	.st0{fill:url(#SVGID_1_);}
	.st1{opacity:0.2;}
	.st2{fill:#18243F;}
</style>
<g id="Layer_2">
	<linearGradient id="SVGID_1_" gradientUnits="userSpaceOnUse" x1="-4" y1="459.5" x2="1920" y2="459.5">
		<stop  offset="0" style="stop-color:#18243F"/>
		<stop  offset="0.4723" style="stop-color:#153559"/>
		<stop  offset="1" style="stop-color:#3C6FE9"/>
	</linearGradient>
	<rect x="-4" class="st0" width="1924" height="919"/>
</g>
<g id="Layer_1">
	<g class="st1">
		<path class="st2" d="M112.7,67.2c7.9,0,14.3-6.4,14.3-14.3c0-7.9-6.4-14.3-14.3-14.3S98.4,45,98.4,52.9
			C98.4,60.8,104.8,67.2,112.7,67.2"/>
		<path class="st2" d="M112.7,220.9c7.9,0,14.3-6.4,14.3-14.3c0-7.9-6.4-14.3-14.3-14.3s-14.3,6.4-14.3,14.3
			C98.4,214.5,104.8,220.9,112.7,220.9"/>
		<path class="st2" d="M61.5,323.4c7.9,0,14.3-6.4,14.3-14.3c0-7.9-6.4-14.3-14.3-14.3s-14.3,6.4-14.3,14.3
			C47.1,317,53.6,323.4,61.5,323.4"/>
		<path class="st2" d="M215.2,118.5c7.9,0,14.3-6.4,14.3-14.3c0-7.9-6.4-14.3-14.3-14.3c-7.9,0-14.3,6.4-14.3,14.3
			C200.8,112.1,207.2,118.5,215.2,118.5"/>
		<path class="st2" d="M368.8,169.7c7.9,0,14.3-6.4,14.3-14.3c0-7.9-6.4-14.3-14.3-14.3c-7.9,0-14.3,6.4-14.3,14.3
			C354.5,163.3,360.9,169.7,368.8,169.7"/>
		<path class="st2" d="M727.4,169.7c7.9,0,14.3-6.4,14.3-14.3c0-7.9-6.4-14.3-14.3-14.3c-7.9,0-14.3,6.4-14.3,14.3
			C713.1,163.3,719.5,169.7,727.4,169.7"/>
		<path class="st2" d="M778.7,220.9c7.9,0,14.3-6.4,14.3-14.3c0-7.9-6.4-14.3-14.3-14.3c-7.9,0-14.3,6.4-14.3,14.3
			C764.3,214.5,770.7,220.9,778.7,220.9"/>
		<path class="st2" d="M983.6,169.7c7.9,0,14.3-6.4,14.3-14.3c0-7.9-6.4-14.3-14.3-14.3c-7.9,0-14.3,6.4-14.3,14.3
			C969.2,163.3,975.6,169.7,983.6,169.7"/>
		<path class="st2" d="M1086,169.7c7.9,0,14.3-6.4,14.3-14.3c0-7.9-6.4-14.3-14.3-14.3c-7.9,0-14.3,6.4-14.3,14.3
			C1071.7,163.3,1078.1,169.7,1086,169.7"/>
		<path class="st2" d="M1138,220.9c7.9,0,14.3-6.4,14.3-14.3c0-7.9-6.4-14.3-14.3-14.3s-14.3,6.4-14.3,14.3
			C1123.7,214.5,1130.1,220.9,1138,220.9"/>
		<path class="st2" d="M1547.1,220.9c7.9,0,14.3-6.4,14.3-14.3c0-7.9-6.4-14.3-14.3-14.3c-7.9,0-14.3,6.4-14.3,14.3
			C1532.7,214.5,1539.1,220.9,1547.1,220.9"/>
		<path class="st2" d="M1547.1,272.2c7.9,0,14.3-6.4,14.3-14.3c0-7.9-6.4-14.3-14.3-14.3c-7.9,0-14.3,6.4-14.3,14.3
			C1532.7,265.7,1539.1,272.2,1547.1,272.2"/>
		<path class="st2" d="M1598.3,323.4c7.9,0,14.3-6.4,14.3-14.3c0-7.9-6.4-14.3-14.3-14.3c-7.9,0-14.3,6.4-14.3,14.3
			C1583.9,317,1590.4,323.4,1598.3,323.4"/>
		<path class="st2" d="M1803.2,272.2c7.9,0,14.3-6.4,14.3-14.3c0-7.9-6.4-14.3-14.3-14.3c-7.9,0-14.3,6.4-14.3,14.3
			C1788.9,265.7,1795.3,272.2,1803.2,272.2"/>
		<path class="st2" d="M1905.7,272.2c7.9,0,14.3-6.4,14.3-14.3c0-7.9-6.4-14.3-14.3-14.3c-7.9,0-14.3,6.4-14.3,14.3
			C1891.3,265.7,1897.7,272.2,1905.7,272.2"/>
		<path class="st2" d="M1598.3,220.9c7.9,0,14.3-6.4,14.3-14.3c0-7.9-6.4-14.3-14.3-14.3c-7.9,0-14.3,6.4-14.3,14.3
			C1583.9,214.5,1590.4,220.9,1598.3,220.9"/>
		<path class="st2" d="M1342.2,169.7c7.9,0,14.3-6.4,14.3-14.3c0-7.9-6.4-14.3-14.3-14.3c-7.9,0-14.3,6.4-14.3,14.3
			C1327.8,163.3,1334.2,169.7,1342.2,169.7"/>
		<path class="st2" d="M1290.9,272.2c7.9,0,14.3-6.4,14.3-14.3c0-7.9-6.4-14.3-14.3-14.3c-7.9,0-14.3,6.4-14.3,14.3
			C1276.6,265.7,1283,272.2,1290.9,272.2"/>
		<path class="st2" d="M1342.2,323.4c7.9,0,14.3-6.4,14.3-14.3c0-7.9-6.4-14.3-14.3-14.3c-7.9,0-14.3,6.4-14.3,14.3
			C1327.8,317,1334.2,323.4,1342.2,323.4"/>
		<path class="st2" d="M1393.4,323.4c7.9,0,14.3-6.4,14.3-14.3c0-7.9-6.4-14.3-14.3-14.3c-7.9,0-14.3,6.4-14.3,14.3
			C1379,317,1385.5,323.4,1393.4,323.4"/>
		<path class="st2" d="M1188.5,323.4c7.9,0,14.3-6.4,14.3-14.3c0-7.9-6.4-14.3-14.3-14.3c-7.9,0-14.3,6.4-14.3,14.3
			C1174.1,317,1180.6,323.4,1188.5,323.4"/>
		<path class="st2" d="M1495.8,272.2c7.9,0,14.3-6.4,14.3-14.3c0-7.9-6.4-14.3-14.3-14.3c-7.9,0-14.3,6.4-14.3,14.3
			C1481.5,265.7,1487.9,272.2,1495.8,272.2"/>
		<path class="st2" d="M1393.4,169.7c7.9,0,14.3-6.4,14.3-14.3c0-7.9-6.4-14.3-14.3-14.3c-7.9,0-14.3,6.4-14.3,14.3
			C1379,163.3,1385.5,169.7,1393.4,169.7"/>
		<path class="st2" d="M1495.8,169.7c7.9,0,14.3-6.4,14.3-14.3c0-7.9-6.4-14.3-14.3-14.3c-7.9,0-14.3,6.4-14.3,14.3
			C1481.5,163.3,1487.9,169.7,1495.8,169.7"/>
		<path class="st2" d="M1803.2,169.7c7.9,0,14.3-6.4,14.3-14.3c0-7.9-6.4-14.3-14.3-14.3c-7.9,0-14.3,6.4-14.3,14.3
			C1788.9,163.3,1795.3,169.7,1803.2,169.7"/>
		<path class="st2" d="M420.1,118.5c7.9,0,14.3-6.4,14.3-14.3c0-7.9-6.4-14.3-14.3-14.3c-7.9,0-14.3,6.4-14.3,14.3
			C405.7,112.1,412.1,118.5,420.1,118.5"/>
		<path class="st2" d="M420.1,220.9c7.9,0,14.3-6.4,14.3-14.3c0-7.9-6.4-14.3-14.3-14.3c-7.9,0-14.3,6.4-14.3,14.3
			C405.7,214.5,412.1,220.9,420.1,220.9"/>
		<path class="st2" d="M829.9,118.5c7.9,0,14.3-6.4,14.3-14.3c0-7.9-6.4-14.3-14.3-14.3c-7.9,0-14.3,6.4-14.3,14.3
			C815.5,112.1,822,118.5,829.9,118.5"/>
		<path class="st2" d="M1188.5,118.5c7.9,0,14.3-6.4,14.3-14.3c0-7.9-6.4-14.3-14.3-14.3c-7.9,0-14.3,6.4-14.3,14.3
			C1174.1,112.1,1180.6,118.5,1188.5,118.5"/>
		<path class="st2" d="M1342.2,118.5c7.9,0,14.3-6.4,14.3-14.3c0-7.9-6.4-14.3-14.3-14.3c-7.9,0-14.3,6.4-14.3,14.3
			C1327.8,112.1,1334.2,118.5,1342.2,118.5"/>
		<path class="st2" d="M1495.8,118.5c7.9,0,14.3-6.4,14.3-14.3c0-7.9-6.4-14.3-14.3-14.3c-7.9,0-14.3,6.4-14.3,14.3
			C1481.5,112.1,1487.9,118.5,1495.8,118.5"/>
		<path class="st2" d="M522.5,67.2c7.9,0,14.3-6.4,14.3-14.3c0-7.9-6.4-14.3-14.3-14.3c-7.9,0-14.3,6.4-14.3,14.3
			C508.2,60.8,514.6,67.2,522.5,67.2"/>
		<path class="st2" d="M573.7,67.2c7.9,0,14.3-6.4,14.3-14.3c0-7.9-6.4-14.3-14.3-14.3c-7.9,0-14.3,6.4-14.3,14.3
			C559.4,60.8,565.8,67.2,573.7,67.2"/>
		<path class="st2" d="M1034.8,38.6c-7.9,0-14.3,6.4-14.3,14.3c0,7.9,6.4,14.3,14.3,14.3c7.9,0,14.3-6.4,14.3-14.3
			C1049.1,45,1042.7,38.6,1034.8,38.6"/>
		<path class="st2" d="M1393.4,38.6c-7.9,0-14.3,6.4-14.3,14.3c0,7.9,6.4,14.3,14.3,14.3s14.3-6.4,14.3-14.3
			C1407.7,45,1401.3,38.6,1393.4,38.6"/>
		<path class="st2" d="M1547.1,38.6c-7.9,0-14.3,6.4-14.3,14.3c0,7.9,6.4,14.3,14.3,14.3c7.9,0,14.3-6.4,14.3-14.3
			C1561.4,45,1555,38.6,1547.1,38.6"/>
		<path class="st2" d="M1752,38.6c-7.9,0-14.3,6.4-14.3,14.3c0,7.9,6.4,14.3,14.3,14.3c7.9,0,14.3-6.4,14.3-14.3
			C1766.3,45,1759.9,38.6,1752,38.6"/>
		<path class="st2" d="M1803.2,38.6c-7.9,0-14.3,6.4-14.3,14.3c0,7.9,6.4,14.3,14.3,14.3c7.9,0,14.3-6.4,14.3-14.3
			C1817.5,45,1811.1,38.6,1803.2,38.6"/>
		<path class="st2" d="M625,192.2c-7.9,0-14.3,6.4-14.3,14.3c0,7.9,6.4,14.3,14.3,14.3c7.9,0,14.3-6.4,14.3-14.3
			C639.3,198.7,632.9,192.2,625,192.2"/>
		<path class="st2" d="M983.6,192.2c-7.9,0-14.3,6.4-14.3,14.3c0,7.9,6.4,14.3,14.3,14.3c7.9,0,14.3-6.4,14.3-14.3
			C997.9,198.7,991.5,192.2,983.6,192.2"/>
		<path class="st2" d="M932.3,243.5c-7.9,0-14.3,6.4-14.3,14.3c0,7.9,6.4,14.3,14.3,14.3c7.9,0,14.3-6.4,14.3-14.3
			C946.7,249.9,940.3,243.5,932.3,243.5"/>
		<path class="st2" d="M1086,243.5c-7.9,0-14.3,6.4-14.3,14.3c0,7.9,6.4,14.3,14.3,14.3c7.9,0,14.3-6.4,14.3-14.3
			C1100.4,249.9,1093.9,243.5,1086,243.5"/>
		<path class="st2" d="M317.6,272.2c7.9,0,14.3-6.4,14.3-14.3c0-7.9-6.4-14.3-14.3-14.3s-14.3,6.4-14.3,14.3
			C303.3,265.7,309.7,272.2,317.6,272.2"/>
		<path class="st2" d="M522.5,272.2c7.9,0,14.3-6.4,14.3-14.3c0-7.9-6.4-14.3-14.3-14.3c-7.9,0-14.3,6.4-14.3,14.3
			C508.2,265.7,514.6,272.2,522.5,272.2"/>
		<path class="st2" d="M573.7,272.2c7.9,0,14.3-6.4,14.3-14.3c0-7.9-6.4-14.3-14.3-14.3c-7.9,0-14.3,6.4-14.3,14.3
			C559.4,265.7,565.8,272.2,573.7,272.2"/>
		<path class="st2" d="M573.7,323.4c7.9,0,14.3-6.4,14.3-14.3c0-7.9-6.4-14.3-14.3-14.3c-7.9,0-14.3,6.4-14.3,14.3
			C559.4,317,565.8,323.4,573.7,323.4"/>
		<path class="st2" d="M676.2,323.4c7.9,0,14.3-6.4,14.3-14.3c0-7.9-6.4-14.3-14.3-14.3s-14.3,6.4-14.3,14.3
			C661.9,317,668.3,323.4,676.2,323.4"/>
		<path class="st2" d="M727.4,272.2c7.9,0,14.3-6.4,14.3-14.3c0-7.9-6.4-14.3-14.3-14.3c-7.9,0-14.3,6.4-14.3,14.3
			C713.1,265.7,719.5,272.2,727.4,272.2"/>
		<path class="st2" d="M10.2,114.4c5.7,0,10.2-4.6,10.2-10.2c0-5.7-4.6-10.2-10.2-10.2S0,98.5,0,104.1C0,109.8,4.6,114.4,10.2,114.4
			"/>
		<path class="st2" d="M112.7,114.4c5.7,0,10.2-4.6,10.2-10.2c0-5.7-4.6-10.2-10.2-10.2c-5.7,0-10.2,4.6-10.2,10.2
			C102.5,109.8,107,114.4,112.7,114.4"/>
		<path class="st2" d="M112.7,165.6c5.7,0,10.2-4.6,10.2-10.2c0-5.7-4.6-10.2-10.2-10.2c-5.7,0-10.2,4.6-10.2,10.2
			C102.5,161,107,165.6,112.7,165.6"/>
		<path class="st2" d="M727.4,114.4c5.7,0,10.2-4.6,10.2-10.2c0-5.7-4.6-10.2-10.2-10.2c-5.7,0-10.2,4.6-10.2,10.2
			C717.2,109.8,721.8,114.4,727.4,114.4"/>
		<path class="st2" d="M1086,114.4c5.7,0,10.2-4.6,10.2-10.2c0-5.7-4.6-10.2-10.2-10.2c-5.7,0-10.2,4.6-10.2,10.2
			C1075.8,109.8,1080.4,114.4,1086,114.4"/>
		<path class="st2" d="M1137.2,114.4c5.7,0,10.2-4.6,10.2-10.2c0-5.7-4.6-10.2-10.2-10.2c-5.7,0-10.2,4.6-10.2,10.2
			C1127,109.8,1131.6,114.4,1137.2,114.4"/>
		<path class="st2" d="M1290.9,114.4c5.7,0,10.2-4.6,10.2-10.2c0-5.7-4.6-10.2-10.2-10.2c-5.7,0-10.2,4.6-10.2,10.2
			C1280.7,109.8,1285.3,114.4,1290.9,114.4"/>
		<path class="st2" d="M1342.2,216.8c5.7,0,10.2-4.6,10.2-10.2c0-5.7-4.6-10.2-10.2-10.2c-5.7,0-10.2,4.6-10.2,10.2
			C1331.9,212.2,1336.5,216.8,1342.2,216.8"/>
		<path class="st2" d="M1342.2,268.1c5.7,0,10.2-4.6,10.2-10.2c0-5.7-4.6-10.2-10.2-10.2c-5.7,0-10.2,4.6-10.2,10.2
			C1331.9,263.5,1336.5,268.1,1342.2,268.1"/>
		<path class="st2" d="M1444.6,319.3c5.7,0,10.2-4.6,10.2-10.2c0-5.7-4.6-10.2-10.2-10.2s-10.2,4.6-10.2,10.2
			C1434.4,314.7,1439,319.3,1444.6,319.3"/>
		<path class="st2" d="M1803.2,216.8c5.7,0,10.2-4.6,10.2-10.2c0-5.7-4.6-10.2-10.2-10.2c-5.7,0-10.2,4.6-10.2,10.2
			C1793,212.2,1797.5,216.8,1803.2,216.8"/>
		<path class="st2" d="M1700.7,268.1c5.7,0,10.2-4.6,10.2-10.2c0-5.7-4.6-10.2-10.2-10.2c-5.7,0-10.2,4.6-10.2,10.2
			C1690.5,263.5,1695.1,268.1,1700.7,268.1"/>
		<path class="st2" d="M1854.4,268.1c5.7,0,10.2-4.6,10.2-10.2c0-5.7-4.6-10.2-10.2-10.2c-5.7,0-10.2,4.6-10.2,10.2
			C1844.2,263.5,1848.8,268.1,1854.4,268.1"/>
		<path class="st2" d="M1803.2,319.3c5.7,0,10.2-4.6,10.2-10.2c0-5.7-4.6-10.2-10.2-10.2c-5.7,0-10.2,4.6-10.2,10.2
			C1793,314.7,1797.5,319.3,1803.2,319.3"/>
		<path class="st2" d="M420.1,63.1c5.7,0,10.2-4.6,10.2-10.2c0-5.7-4.6-10.2-10.2-10.2c-5.7,0-10.2,4.6-10.2,10.2
			C409.8,58.6,414.4,63.1,420.1,63.1"/>
		<path class="st2" d="M829.9,63.1c5.7,0,10.2-4.6,10.2-10.2c0-5.7-4.6-10.2-10.2-10.2c-5.7,0-10.2,4.6-10.2,10.2
			C819.6,58.6,824.2,63.1,829.9,63.1"/>
		<path class="st2" d="M983.6,63.1c5.7,0,10.2-4.6,10.2-10.2c0-5.7-4.6-10.2-10.2-10.2s-10.2,4.6-10.2,10.2
			C973.3,58.6,977.9,63.1,983.6,63.1"/>
		<path class="st2" d="M1598.3,63.1c5.7,0,10.2-4.6,10.2-10.2c0-5.7-4.6-10.2-10.2-10.2c-5.7,0-10.2,4.6-10.2,10.2
			C1588,58.6,1592.6,63.1,1598.3,63.1"/>
		<path class="st2" d="M1803.2,114.5c5.7,0,10.2-4.6,10.2-10.2c0-5.7-4.6-10.2-10.2-10.2c-5.7,0-10.2,4.6-10.2,10.2
			C1793,109.9,1797.5,114.5,1803.2,114.5"/>
		<path class="st2" d="M1854.4,114.5c5.7,0,10.2-4.6,10.2-10.2c0-5.7-4.6-10.2-10.2-10.2c-5.7,0-10.2,4.6-10.2,10.2
			C1844.2,109.9,1848.8,114.5,1854.4,114.5"/>
		<path class="st2" d="M471.3,63.1c5.7,0,10.2-4.6,10.2-10.2c0-5.7-4.6-10.2-10.2-10.2c-5.7,0-10.2,4.6-10.2,10.2
			C461,58.6,465.6,63.1,471.3,63.1"/>
		<path class="st2" d="M573.7,165.6c5.7,0,10.2-4.6,10.2-10.2c0-5.7-4.6-10.2-10.2-10.2s-10.2,4.6-10.2,10.2
			C563.5,161,568.1,165.6,573.7,165.6"/>
		<path class="st2" d="M573.7,216.8c5.7,0,10.2-4.6,10.2-10.2c0-5.7-4.6-10.2-10.2-10.2s-10.2,4.6-10.2,10.2
			C563.5,212.2,568.1,216.8,573.7,216.8"/>
		<path class="st2" d="M625,268.1c5.7,0,10.2-4.6,10.2-10.2c0-5.7-4.6-10.2-10.2-10.2c-5.7,0-10.2,4.6-10.2,10.2
			C614.7,263.5,619.3,268.1,625,268.1"/>
		<path class="st2" d="M625,319.3c5.7,0,10.2-4.6,10.2-10.2c0-5.7-4.6-10.2-10.2-10.2c-5.7,0-10.2,4.6-10.2,10.2
			C614.7,314.7,619.3,319.3,625,319.3"/>
		<path class="st2" d="M932.3,216.8c5.7,0,10.2-4.6,10.2-10.2c0-5.7-4.6-10.2-10.2-10.2c-5.7,0-10.2,4.6-10.2,10.2
			C922.1,212.2,926.7,216.8,932.3,216.8"/>
		<path class="st2" d="M881.1,268.1c5.7,0,10.2-4.6,10.2-10.2c0-5.7-4.6-10.2-10.2-10.2c-5.7,0-10.2,4.6-10.2,10.2
			C870.9,263.5,875.5,268.1,881.1,268.1"/>
		<path class="st2" d="M829.9,165.6c5.7,0,10.2-4.6,10.2-10.2c0-5.7-4.6-10.2-10.2-10.2c-5.7,0-10.2,4.6-10.2,10.2
			C819.6,161,824.2,165.6,829.9,165.6"/>
		<path class="st2" d="M1034.8,165.6c5.7,0,10.2-4.6,10.2-10.2c0-5.7-4.6-10.2-10.2-10.2c-5.7,0-10.2,4.6-10.2,10.2
			C1024.5,161,1029.1,165.6,1034.8,165.6"/>
		<path class="st2" d="M983.6,319.3c5.7,0,10.2-4.6,10.2-10.2c0-5.7-4.6-10.2-10.2-10.2s-10.2,4.6-10.2,10.2
			C973.3,314.7,977.9,319.3,983.6,319.3"/>
		<path class="st2" d="M1239.7,165.6c5.7,0,10.2-4.6,10.2-10.2c0-5.7-4.6-10.2-10.2-10.2c-5.7,0-10.2,4.6-10.2,10.2
			C1229.5,161,1234,165.6,1239.7,165.6"/>
		<path class="st2" d="M1598.3,165.6c5.7,0,10.2-4.6,10.2-10.2c0-5.7-4.6-10.2-10.2-10.2c-5.7,0-10.2,4.6-10.2,10.2
			C1588,161,1592.6,165.6,1598.3,165.6"/>
		<path class="st2" d="M1649.5,165.6c5.7,0,10.2-4.6,10.2-10.2c0-5.7-4.6-10.2-10.2-10.2c-5.7,0-10.2,4.6-10.2,10.2
			C1639.3,161,1643.9,165.6,1649.5,165.6"/>
		<path class="st2" d="M1854.4,165.6c5.7,0,10.2-4.6,10.2-10.2c0-5.7-4.6-10.2-10.2-10.2c-5.7,0-10.2,4.6-10.2,10.2
			C1844.2,161,1848.8,165.6,1854.4,165.6"/>
		<path class="st2" d="M215.2,216.8c5.7,0,10.2-4.6,10.2-10.2c0-5.7-4.6-10.2-10.2-10.2c-5.7,0-10.2,4.6-10.2,10.2
			C204.9,212.2,209.5,216.8,215.2,216.8"/>
		<path class="st2" d="M163.9,319.3c5.7,0,10.2-4.6,10.2-10.2c0-5.7-4.6-10.2-10.2-10.2c-5.7,0-10.2,4.6-10.2,10.2
			C153.7,314.7,158.3,319.3,163.9,319.3"/>
		<path class="st2" d="M1086,196.3c-5.7,0-10.2,4.6-10.2,10.2c0,5.7,4.6,10.2,10.2,10.2c5.7,0,10.2-4.6,10.2-10.2
			C1096.3,200.9,1091.7,196.3,1086,196.3"/>
		<path class="st2" d="M1137.2,247.6c-5.7,0-10.2,4.6-10.2,10.2c0,5.7,4.6,10.2,10.2,10.2c5.7,0,10.2-4.6,10.2-10.2
			C1147.5,252.2,1142.9,247.6,1137.2,247.6"/>
		<path class="st2" d="M368.8,216.8c5.7,0,10.2-4.6,10.2-10.2c0-5.7-4.6-10.2-10.2-10.2c-5.7,0-10.2,4.6-10.2,10.2
			C358.6,212.2,363.2,216.8,368.8,216.8"/>
		<path class="st2" d="M420.1,268.1c5.7,0,10.2-4.6,10.2-10.2c0-5.7-4.6-10.2-10.2-10.2c-5.7,0-10.2,4.6-10.2,10.2
			C409.8,263.5,414.4,268.1,420.1,268.1"/>
		<path class="st2" d="M420.1,319.3c5.7,0,10.2-4.6,10.2-10.2c0-5.7-4.6-10.2-10.2-10.2c-5.7,0-10.2,4.6-10.2,10.2
			C409.8,314.7,414.4,319.3,420.1,319.3"/>
		<path class="st2" d="M10.2,59.1c3.4,0,6.1-2.8,6.1-6.1c0-3.4-2.8-6.1-6.1-6.1s-6.1,2.8-6.1,6.1C4.1,56.3,6.9,59.1,10.2,59.1"/>
		<path class="st2" d="M10.2,212.7c3.4,0,6.1-2.8,6.1-6.1c0-3.4-2.8-6.1-6.1-6.1s-6.1,2.8-6.1,6.1C4.1,210,6.9,212.7,10.2,212.7"/>
		<path class="st2" d="M10.2,264c3.4,0,6.1-2.8,6.1-6.1c0-3.4-2.8-6.1-6.1-6.1s-6.1,2.8-6.1,6.1C4.1,261.2,6.9,264,10.2,264"/>
		<path class="st2" d="M61.5,264c3.4,0,6.1-2.8,6.1-6.1c0-3.4-2.8-6.1-6.1-6.1c-3.4,0-6.1,2.8-6.1,6.1C55.3,261.2,58.1,264,61.5,264
			"/>
		<path class="st2" d="M61.5,110.3c3.4,0,6.1-2.8,6.1-6.1c0-3.4-2.8-6.1-6.1-6.1c-3.4,0-6.1,2.8-6.1,6.1
			C55.3,107.5,58.1,110.3,61.5,110.3"/>
		<path class="st2" d="M471.3,110.3c3.4,0,6.1-2.8,6.1-6.1c0-3.4-2.8-6.1-6.1-6.1c-3.4,0-6.1,2.8-6.1,6.1
			C465.1,107.5,467.9,110.3,471.3,110.3"/>
		<path class="st2" d="M522.5,212.7c3.4,0,6.1-2.8,6.1-6.1c0-3.4-2.8-6.1-6.1-6.1c-3.4,0-6.1,2.8-6.1,6.1
			C516.4,210,519.1,212.7,522.5,212.7"/>
		<path class="st2" d="M420.1,161.5c3.4,0,6.1-2.8,6.1-6.1c0-3.4-2.8-6.1-6.1-6.1c-3.4,0-6.1,2.8-6.1,6.1
			C413.9,158.8,416.7,161.5,420.1,161.5"/>
		<path class="st2" d="M317.6,315.2c3.4,0,6.1-2.8,6.1-6.1c0-3.4-2.8-6.1-6.1-6.1s-6.1,2.8-6.1,6.1
			C311.5,312.4,314.2,315.2,317.6,315.2"/>
		<path class="st2" d="M522.5,315.2c3.4,0,6.1-2.8,6.1-6.1c0-3.4-2.8-6.1-6.1-6.1c-3.4,0-6.1,2.8-6.1,6.1
			C516.4,312.4,519.1,315.2,522.5,315.2"/>
		<path class="st2" d="M625,161.5c3.4,0,6.1-2.8,6.1-6.1c0-3.4-2.8-6.1-6.1-6.1c-3.4,0-6.1,2.8-6.1,6.1
			C618.8,158.8,621.6,161.5,625,161.5"/>
		<path class="st2" d="M881.1,110.3c3.4,0,6.1-2.8,6.1-6.1c0-3.4-2.8-6.1-6.1-6.1c-3.4,0-6.1,2.8-6.1,6.1
			C875,107.5,877.7,110.3,881.1,110.3"/>
		<path class="st2" d="M881.1,212.7c3.4,0,6.1-2.8,6.1-6.1c0-3.4-2.8-6.1-6.1-6.1c-3.4,0-6.1,2.8-6.1,6.1
			C875,210,877.7,212.7,881.1,212.7"/>
		<path class="st2" d="M881.1,315.2c3.4,0,6.1-2.8,6.1-6.1c0-3.4-2.8-6.1-6.1-6.1c-3.4,0-6.1,2.8-6.1,6.1
			C875,312.4,877.7,315.2,881.1,315.2"/>
		<path class="st2" d="M1034.8,264c3.4,0,6.1-2.8,6.1-6.1c0-3.4-2.8-6.1-6.1-6.1s-6.1,2.8-6.1,6.1
			C1028.6,261.2,1031.4,264,1034.8,264"/>
		<path class="st2" d="M522.5,110.3c3.4,0,6.1-2.8,6.1-6.1c0-3.4-2.8-6.1-6.1-6.1c-3.4,0-6.1,2.8-6.1,6.1
			C516.4,107.5,519.1,110.3,522.5,110.3"/>
		<path class="st2" d="M932.3,110.3c3.4,0,6.1-2.8,6.1-6.1c0-3.4-2.8-6.1-6.1-6.1c-3.4,0-6.1,2.8-6.1,6.1
			C926.2,107.5,928.9,110.3,932.3,110.3"/>
		<path class="st2" d="M1393.4,110.3c3.4,0,6.1-2.8,6.1-6.1c0-3.4-2.8-6.1-6.1-6.1c-3.4,0-6.1,2.8-6.1,6.1
			C1387.2,107.5,1390,110.3,1393.4,110.3"/>
		<path class="st2" d="M676.2,110.3c3.4,0,6.1-2.8,6.1-6.1c0-3.4-2.8-6.1-6.1-6.1c-3.4,0-6.1,2.8-6.1,6.1
			C670.1,107.5,672.8,110.3,676.2,110.3"/>
		<path class="st2" d="M266.4,59.1c3.4,0,6.1-2.8,6.1-6.1c0-3.4-2.8-6.1-6.1-6.1c-3.4,0-6.1,2.8-6.1,6.1
			C260.2,56.3,263,59.1,266.4,59.1"/>
		<path class="st2" d="M881.1,59.1c3.4,0,6.1-2.8,6.1-6.1c0-3.4-2.8-6.1-6.1-6.1c-3.4,0-6.1,2.8-6.1,6.1
			C875,56.3,877.7,59.1,881.1,59.1"/>
		<path class="st2" d="M1086,59.1c3.4,0,6.1-2.8,6.1-6.1c0-3.4-2.8-6.1-6.1-6.1c-3.4,0-6.1,2.8-6.1,6.1
			C1079.9,56.3,1082.6,59.1,1086,59.1"/>
		<path class="st2" d="M1700.7,59.1c3.4,0,6.1-2.8,6.1-6.1c0-3.4-2.8-6.1-6.1-6.1c-3.4,0-6.1,2.8-6.1,6.1
			C1694.6,56.3,1697.4,59.1,1700.7,59.1"/>
		<path class="st2" d="M1649.5,59.1c3.4,0,6.1-2.8,6.1-6.1c0-3.4-2.8-6.1-6.1-6.1c-3.4,0-6.1,2.8-6.1,6.1
			C1643.4,56.3,1646.1,59.1,1649.5,59.1"/>
		<path class="st2" d="M1752,110.4c3.4,0,6.1-2.8,6.1-6.1c0-3.4-2.8-6.1-6.1-6.1c-3.4,0-6.1,2.8-6.1,6.1
			C1745.8,107.6,1748.6,110.4,1752,110.4"/>
		<path class="st2" d="M1905.7,110.4c3.4,0,6.1-2.8,6.1-6.1c0-3.4-2.8-6.1-6.1-6.1c-3.4,0-6.1,2.8-6.1,6.1
			C1899.5,107.6,1902.3,110.4,1905.7,110.4"/>
		<path class="st2" d="M1854.4,59.1c3.4,0,6.1-2.8,6.1-6.1c0-3.4-2.8-6.1-6.1-6.1c-3.4,0-6.1,2.8-6.1,6.1
			C1848.3,56.3,1851,59.1,1854.4,59.1"/>
		<path class="st2" d="M1137.2,59.1c3.4,0,6.1-2.8,6.1-6.1c0-3.4-2.8-6.1-6.1-6.1c-3.4,0-6.1,2.8-6.1,6.1
			C1131.1,56.3,1133.9,59.1,1137.2,59.1"/>
		<path class="st2" d="M1188.5,161.5c3.4,0,6.1-2.8,6.1-6.1c0-3.4-2.8-6.1-6.1-6.1c-3.4,0-6.1,2.8-6.1,6.1
			C1182.3,158.8,1185.1,161.5,1188.5,161.5"/>
		<path class="st2" d="M1290.9,161.5c3.4,0,6.1-2.8,6.1-6.1c0-3.4-2.8-6.1-6.1-6.1c-3.4,0-6.1,2.8-6.1,6.1
			C1284.8,158.8,1287.5,161.5,1290.9,161.5"/>
		<path class="st2" d="M1290.9,200.4c-3.4,0-6.1,2.8-6.1,6.1c0,3.4,2.8,6.1,6.1,6.1c3.4,0,6.1-2.8,6.1-6.1
			C1297.1,203.2,1294.3,200.4,1290.9,200.4"/>
		<path class="st2" d="M1649.5,302.9c-3.4,0-6.1,2.8-6.1,6.1c0,3.4,2.8,6.1,6.1,6.1c3.4,0,6.1-2.8,6.1-6.1
			C1655.7,305.6,1652.9,302.9,1649.5,302.9"/>
		<path class="st2" d="M1854.4,302.9c-3.4,0-6.1,2.8-6.1,6.1c0,3.4,2.8,6.1,6.1,6.1c3.4,0,6.1-2.8,6.1-6.1
			C1860.6,305.6,1857.8,302.9,1854.4,302.9"/>
		<path class="st2" d="M1495.8,200.4c-3.4,0-6.1,2.8-6.1,6.1c0,3.4,2.8,6.1,6.1,6.1c3.4,0,6.1-2.8,6.1-6.1
			C1502,203.2,1499.2,200.4,1495.8,200.4"/>
		<path class="st2" d="M1752,200.4c-3.4,0-6.1,2.8-6.1,6.1c0,3.4,2.8,6.1,6.1,6.1c3.4,0,6.1-2.8,6.1-6.1
			C1758.1,203.2,1755.4,200.4,1752,200.4"/>
		<path class="st2" d="M1444.6,251.7c-3.4,0-6.1,2.8-6.1,6.1c0,3.4,2.8,6.1,6.1,6.1c3.4,0,6.1-2.8,6.1-6.1
			C1450.8,254.4,1448,251.7,1444.6,251.7"/>
		<path class="st2" d="M1649.5,251.7c-3.4,0-6.1,2.8-6.1,6.1c0,3.4,2.8,6.1,6.1,6.1c3.4,0,6.1-2.8,6.1-6.1
			C1655.7,254.4,1652.9,251.7,1649.5,251.7"/>
	</g>
	<g class="st1">
		<path class="st2" d="M112.7,367.2c7.9,0,14.3-6.4,14.3-14.3c0-7.9-6.4-14.3-14.3-14.3s-14.3,6.4-14.3,14.3
			C98.4,360.8,104.8,367.2,112.7,367.2"/>
		<path class="st2" d="M112.7,520.9c7.9,0,14.3-6.4,14.3-14.3c0-7.9-6.4-14.3-14.3-14.3s-14.3,6.4-14.3,14.3
			C98.4,514.5,104.8,520.9,112.7,520.9"/>
		<path class="st2" d="M61.5,623.4c7.9,0,14.3-6.4,14.3-14.3c0-7.9-6.4-14.3-14.3-14.3s-14.3,6.4-14.3,14.3
			C47.1,617,53.6,623.4,61.5,623.4"/>
		<path class="st2" d="M215.2,418.5c7.9,0,14.3-6.4,14.3-14.3c0-7.9-6.4-14.3-14.3-14.3c-7.9,0-14.3,6.4-14.3,14.3
			C200.8,412.1,207.2,418.5,215.2,418.5"/>
		<path class="st2" d="M368.8,469.7c7.9,0,14.3-6.4,14.3-14.3c0-7.9-6.4-14.3-14.3-14.3c-7.9,0-14.3,6.4-14.3,14.3
			C354.5,463.3,360.9,469.7,368.8,469.7"/>
		<path class="st2" d="M727.4,469.7c7.9,0,14.3-6.4,14.3-14.3c0-7.9-6.4-14.3-14.3-14.3c-7.9,0-14.3,6.4-14.3,14.3
			C713.1,463.3,719.5,469.7,727.4,469.7"/>
		<path class="st2" d="M778.7,520.9c7.9,0,14.3-6.4,14.3-14.3c0-7.9-6.4-14.3-14.3-14.3c-7.9,0-14.3,6.4-14.3,14.3
			C764.3,514.5,770.7,520.9,778.7,520.9"/>
		<path class="st2" d="M983.6,469.7c7.9,0,14.3-6.4,14.3-14.3c0-7.9-6.4-14.3-14.3-14.3c-7.9,0-14.3,6.4-14.3,14.3
			C969.2,463.3,975.6,469.7,983.6,469.7"/>
		<path class="st2" d="M1086,469.7c7.9,0,14.3-6.4,14.3-14.3c0-7.9-6.4-14.3-14.3-14.3c-7.9,0-14.3,6.4-14.3,14.3
			C1071.7,463.3,1078.1,469.7,1086,469.7"/>
		<path class="st2" d="M1138,520.9c7.9,0,14.3-6.4,14.3-14.3c0-7.9-6.4-14.3-14.3-14.3s-14.3,6.4-14.3,14.3
			C1123.7,514.5,1130.1,520.9,1138,520.9"/>
		<path class="st2" d="M1547.1,520.9c7.9,0,14.3-6.4,14.3-14.3c0-7.9-6.4-14.3-14.3-14.3c-7.9,0-14.3,6.4-14.3,14.3
			C1532.7,514.5,1539.1,520.9,1547.1,520.9"/>
		<path class="st2" d="M1547.1,572.2c7.9,0,14.3-6.4,14.3-14.3c0-7.9-6.4-14.3-14.3-14.3c-7.9,0-14.3,6.4-14.3,14.3
			C1532.7,565.7,1539.1,572.2,1547.1,572.2"/>
		<path class="st2" d="M1598.3,623.4c7.9,0,14.3-6.4,14.3-14.3c0-7.9-6.4-14.3-14.3-14.3c-7.9,0-14.3,6.4-14.3,14.3
			C1583.9,617,1590.4,623.4,1598.3,623.4"/>
		<path class="st2" d="M1803.2,572.2c7.9,0,14.3-6.4,14.3-14.3c0-7.9-6.4-14.3-14.3-14.3c-7.9,0-14.3,6.4-14.3,14.3
			C1788.9,565.7,1795.3,572.2,1803.2,572.2"/>
		<path class="st2" d="M1905.7,572.2c7.9,0,14.3-6.4,14.3-14.3c0-7.9-6.4-14.3-14.3-14.3c-7.9,0-14.3,6.4-14.3,14.3
			C1891.3,565.7,1897.7,572.2,1905.7,572.2"/>
		<path class="st2" d="M1598.3,520.9c7.9,0,14.3-6.4,14.3-14.3c0-7.9-6.4-14.3-14.3-14.3c-7.9,0-14.3,6.4-14.3,14.3
			C1583.9,514.5,1590.4,520.9,1598.3,520.9"/>
		<path class="st2" d="M1342.2,469.7c7.9,0,14.3-6.4,14.3-14.3c0-7.9-6.4-14.3-14.3-14.3c-7.9,0-14.3,6.4-14.3,14.3
			C1327.8,463.3,1334.2,469.7,1342.2,469.7"/>
		<path class="st2" d="M1290.9,572.2c7.9,0,14.3-6.4,14.3-14.3c0-7.9-6.4-14.3-14.3-14.3c-7.9,0-14.3,6.4-14.3,14.3
			C1276.6,565.7,1283,572.2,1290.9,572.2"/>
		<path class="st2" d="M1342.2,623.4c7.9,0,14.3-6.4,14.3-14.3c0-7.9-6.4-14.3-14.3-14.3c-7.9,0-14.3,6.4-14.3,14.3
			C1327.8,617,1334.2,623.4,1342.2,623.4"/>
		<path class="st2" d="M1393.4,623.4c7.9,0,14.3-6.4,14.3-14.3c0-7.9-6.4-14.3-14.3-14.3c-7.9,0-14.3,6.4-14.3,14.3
			C1379,617,1385.5,623.4,1393.4,623.4"/>
		<path class="st2" d="M1188.5,623.4c7.9,0,14.3-6.4,14.3-14.3c0-7.9-6.4-14.3-14.3-14.3c-7.9,0-14.3,6.4-14.3,14.3
			C1174.1,617,1180.6,623.4,1188.5,623.4"/>
		<path class="st2" d="M1495.8,572.2c7.9,0,14.3-6.4,14.3-14.3c0-7.9-6.4-14.3-14.3-14.3c-7.9,0-14.3,6.4-14.3,14.3
			C1481.5,565.7,1487.9,572.2,1495.8,572.2"/>
		<path class="st2" d="M1393.4,469.7c7.9,0,14.3-6.4,14.3-14.3c0-7.9-6.4-14.3-14.3-14.3c-7.9,0-14.3,6.4-14.3,14.3
			C1379,463.3,1385.5,469.7,1393.4,469.7"/>
		<path class="st2" d="M1495.8,469.7c7.9,0,14.3-6.4,14.3-14.3c0-7.9-6.4-14.3-14.3-14.3c-7.9,0-14.3,6.4-14.3,14.3
			C1481.5,463.3,1487.9,469.7,1495.8,469.7"/>
		<path class="st2" d="M1803.2,469.7c7.9,0,14.3-6.4,14.3-14.3c0-7.9-6.4-14.3-14.3-14.3c-7.9,0-14.3,6.4-14.3,14.3
			C1788.9,463.3,1795.3,469.7,1803.2,469.7"/>
		<path class="st2" d="M420.1,418.5c7.9,0,14.3-6.4,14.3-14.3c0-7.9-6.4-14.3-14.3-14.3c-7.9,0-14.3,6.4-14.3,14.3
			C405.7,412.1,412.1,418.5,420.1,418.5"/>
		<path class="st2" d="M420.1,520.9c7.9,0,14.3-6.4,14.3-14.3c0-7.9-6.4-14.3-14.3-14.3c-7.9,0-14.3,6.4-14.3,14.3
			C405.7,514.5,412.1,520.9,420.1,520.9"/>
		<path class="st2" d="M829.9,418.5c7.9,0,14.3-6.4,14.3-14.3c0-7.9-6.4-14.3-14.3-14.3c-7.9,0-14.3,6.4-14.3,14.3
			C815.5,412.1,822,418.5,829.9,418.5"/>
		<path class="st2" d="M1188.5,418.5c7.9,0,14.3-6.4,14.3-14.3c0-7.9-6.4-14.3-14.3-14.3c-7.9,0-14.3,6.4-14.3,14.3
			C1174.1,412.1,1180.6,418.5,1188.5,418.5"/>
		<path class="st2" d="M1342.2,418.5c7.9,0,14.3-6.4,14.3-14.3c0-7.9-6.4-14.3-14.3-14.3c-7.9,0-14.3,6.4-14.3,14.3
			C1327.8,412.1,1334.2,418.5,1342.2,418.5"/>
		<path class="st2" d="M1495.8,418.5c7.9,0,14.3-6.4,14.3-14.3c0-7.9-6.4-14.3-14.3-14.3c-7.9,0-14.3,6.4-14.3,14.3
			C1481.5,412.1,1487.9,418.5,1495.8,418.5"/>
		<path class="st2" d="M522.5,367.2c7.9,0,14.3-6.4,14.3-14.3c0-7.9-6.4-14.3-14.3-14.3c-7.9,0-14.3,6.4-14.3,14.3
			C508.2,360.8,514.6,367.2,522.5,367.2"/>
		<path class="st2" d="M573.7,367.2c7.9,0,14.3-6.4,14.3-14.3c0-7.9-6.4-14.3-14.3-14.3c-7.9,0-14.3,6.4-14.3,14.3
			C559.4,360.8,565.8,367.2,573.7,367.2"/>
		<path class="st2" d="M1034.8,338.6c-7.9,0-14.3,6.4-14.3,14.3c0,7.9,6.4,14.3,14.3,14.3c7.9,0,14.3-6.4,14.3-14.3
			C1049.1,345,1042.7,338.6,1034.8,338.6"/>
		<path class="st2" d="M1393.4,338.6c-7.9,0-14.3,6.4-14.3,14.3c0,7.9,6.4,14.3,14.3,14.3s14.3-6.4,14.3-14.3
			C1407.7,345,1401.3,338.6,1393.4,338.6"/>
		<path class="st2" d="M1547.1,338.6c-7.9,0-14.3,6.4-14.3,14.3c0,7.9,6.4,14.3,14.3,14.3c7.9,0,14.3-6.4,14.3-14.3
			C1561.4,345,1555,338.6,1547.1,338.6"/>
		<path class="st2" d="M1752,338.6c-7.9,0-14.3,6.4-14.3,14.3c0,7.9,6.4,14.3,14.3,14.3c7.9,0,14.3-6.4,14.3-14.3
			C1766.3,345,1759.9,338.6,1752,338.6"/>
		<path class="st2" d="M1803.2,338.6c-7.9,0-14.3,6.4-14.3,14.3c0,7.9,6.4,14.3,14.3,14.3c7.9,0,14.3-6.4,14.3-14.3
			C1817.5,345,1811.1,338.6,1803.2,338.6"/>
		<path class="st2" d="M625,492.2c-7.9,0-14.3,6.4-14.3,14.3c0,7.9,6.4,14.3,14.3,14.3c7.9,0,14.3-6.4,14.3-14.3
			C639.3,498.7,632.9,492.2,625,492.2"/>
		<path class="st2" d="M983.6,492.2c-7.9,0-14.3,6.4-14.3,14.3c0,7.9,6.4,14.3,14.3,14.3c7.9,0,14.3-6.4,14.3-14.3
			C997.9,498.7,991.5,492.2,983.6,492.2"/>
		<path class="st2" d="M932.3,543.5c-7.9,0-14.3,6.4-14.3,14.3c0,7.9,6.4,14.3,14.3,14.3c7.9,0,14.3-6.4,14.3-14.3
			C946.7,549.9,940.3,543.5,932.3,543.5"/>
		<path class="st2" d="M1086,543.5c-7.9,0-14.3,6.4-14.3,14.3c0,7.9,6.4,14.3,14.3,14.3c7.9,0,14.3-6.4,14.3-14.3
			C1100.4,549.9,1093.9,543.5,1086,543.5"/>
		<path class="st2" d="M317.6,572.2c7.9,0,14.3-6.4,14.3-14.3c0-7.9-6.4-14.3-14.3-14.3s-14.3,6.4-14.3,14.3
			C303.3,565.7,309.7,572.2,317.6,572.2"/>
		<path class="st2" d="M522.5,572.2c7.9,0,14.3-6.4,14.3-14.3c0-7.9-6.4-14.3-14.3-14.3c-7.9,0-14.3,6.4-14.3,14.3
			C508.2,565.7,514.6,572.2,522.5,572.2"/>
		<path class="st2" d="M573.7,572.2c7.9,0,14.3-6.4,14.3-14.3c0-7.9-6.4-14.3-14.3-14.3c-7.9,0-14.3,6.4-14.3,14.3
			C559.4,565.7,565.8,572.2,573.7,572.2"/>
		<path class="st2" d="M573.7,623.4c7.9,0,14.3-6.4,14.3-14.3c0-7.9-6.4-14.3-14.3-14.3c-7.9,0-14.3,6.4-14.3,14.3
			C559.4,617,565.8,623.4,573.7,623.4"/>
		<path class="st2" d="M676.2,623.4c7.9,0,14.3-6.4,14.3-14.3c0-7.9-6.4-14.3-14.3-14.3s-14.3,6.4-14.3,14.3
			C661.9,617,668.3,623.4,676.2,623.4"/>
		<path class="st2" d="M727.4,572.2c7.9,0,14.3-6.4,14.3-14.3c0-7.9-6.4-14.3-14.3-14.3c-7.9,0-14.3,6.4-14.3,14.3
			C713.1,565.7,719.5,572.2,727.4,572.2"/>
		<path class="st2" d="M10.2,414.4c5.7,0,10.2-4.6,10.2-10.2c0-5.7-4.6-10.2-10.2-10.2S0,398.5,0,404.1
			C0,409.8,4.6,414.4,10.2,414.4"/>
		<path class="st2" d="M112.7,414.4c5.7,0,10.2-4.6,10.2-10.2c0-5.7-4.6-10.2-10.2-10.2c-5.7,0-10.2,4.6-10.2,10.2
			C102.5,409.8,107,414.4,112.7,414.4"/>
		<path class="st2" d="M112.7,465.6c5.7,0,10.2-4.6,10.2-10.2c0-5.7-4.6-10.2-10.2-10.2c-5.7,0-10.2,4.6-10.2,10.2
			C102.5,461,107,465.6,112.7,465.6"/>
		<path class="st2" d="M727.4,414.4c5.7,0,10.2-4.6,10.2-10.2c0-5.7-4.6-10.2-10.2-10.2c-5.7,0-10.2,4.6-10.2,10.2
			C717.2,409.8,721.8,414.4,727.4,414.4"/>
		<path class="st2" d="M1086,414.4c5.7,0,10.2-4.6,10.2-10.2c0-5.7-4.6-10.2-10.2-10.2c-5.7,0-10.2,4.6-10.2,10.2
			C1075.8,409.8,1080.4,414.4,1086,414.4"/>
		<path class="st2" d="M1137.2,414.4c5.7,0,10.2-4.6,10.2-10.2c0-5.7-4.6-10.2-10.2-10.2c-5.7,0-10.2,4.6-10.2,10.2
			C1127,409.8,1131.6,414.4,1137.2,414.4"/>
		<path class="st2" d="M1290.9,414.4c5.7,0,10.2-4.6,10.2-10.2c0-5.7-4.6-10.2-10.2-10.2c-5.7,0-10.2,4.6-10.2,10.2
			C1280.7,409.8,1285.3,414.4,1290.9,414.4"/>
		<path class="st2" d="M1342.2,516.8c5.7,0,10.2-4.6,10.2-10.2c0-5.7-4.6-10.2-10.2-10.2c-5.7,0-10.2,4.6-10.2,10.2
			C1331.9,512.2,1336.5,516.8,1342.2,516.8"/>
		<path class="st2" d="M1342.2,568.1c5.7,0,10.2-4.6,10.2-10.2c0-5.7-4.6-10.2-10.2-10.2c-5.7,0-10.2,4.6-10.2,10.2
			C1331.9,563.5,1336.5,568.1,1342.2,568.1"/>
		<path class="st2" d="M1444.6,619.3c5.7,0,10.2-4.6,10.2-10.2c0-5.7-4.6-10.2-10.2-10.2s-10.2,4.6-10.2,10.2
			C1434.4,614.7,1439,619.3,1444.6,619.3"/>
		<path class="st2" d="M1803.2,516.8c5.7,0,10.2-4.6,10.2-10.2c0-5.7-4.6-10.2-10.2-10.2c-5.7,0-10.2,4.6-10.2,10.2
			C1793,512.2,1797.5,516.8,1803.2,516.8"/>
		<path class="st2" d="M1700.7,568.1c5.7,0,10.2-4.6,10.2-10.2c0-5.7-4.6-10.2-10.2-10.2c-5.7,0-10.2,4.6-10.2,10.2
			C1690.5,563.5,1695.1,568.1,1700.7,568.1"/>
		<path class="st2" d="M1854.4,568.1c5.7,0,10.2-4.6,10.2-10.2c0-5.7-4.6-10.2-10.2-10.2c-5.7,0-10.2,4.6-10.2,10.2
			C1844.2,563.5,1848.8,568.1,1854.4,568.1"/>
		<path class="st2" d="M1803.2,619.3c5.7,0,10.2-4.6,10.2-10.2c0-5.7-4.6-10.2-10.2-10.2c-5.7,0-10.2,4.6-10.2,10.2
			C1793,614.7,1797.5,619.3,1803.2,619.3"/>
		<path class="st2" d="M420.1,363.1c5.7,0,10.2-4.6,10.2-10.2c0-5.7-4.6-10.2-10.2-10.2c-5.7,0-10.2,4.6-10.2,10.2
			C409.8,358.6,414.4,363.1,420.1,363.1"/>
		<path class="st2" d="M829.9,363.1c5.7,0,10.2-4.6,10.2-10.2c0-5.7-4.6-10.2-10.2-10.2c-5.7,0-10.2,4.6-10.2,10.2
			C819.6,358.6,824.2,363.1,829.9,363.1"/>
		<path class="st2" d="M983.6,363.1c5.7,0,10.2-4.6,10.2-10.2c0-5.7-4.6-10.2-10.2-10.2s-10.2,4.6-10.2,10.2
			C973.3,358.6,977.9,363.1,983.6,363.1"/>
		<path class="st2" d="M1598.3,363.1c5.7,0,10.2-4.6,10.2-10.2c0-5.7-4.6-10.2-10.2-10.2c-5.7,0-10.2,4.6-10.2,10.2
			C1588,358.6,1592.6,363.1,1598.3,363.1"/>
		<path class="st2" d="M1803.2,414.5c5.7,0,10.2-4.6,10.2-10.2c0-5.7-4.6-10.2-10.2-10.2c-5.7,0-10.2,4.6-10.2,10.2
			C1793,409.9,1797.5,414.5,1803.2,414.5"/>
		<path class="st2" d="M1854.4,414.5c5.7,0,10.2-4.6,10.2-10.2c0-5.7-4.6-10.2-10.2-10.2c-5.7,0-10.2,4.6-10.2,10.2
			C1844.2,409.9,1848.8,414.5,1854.4,414.5"/>
		<path class="st2" d="M471.3,363.1c5.7,0,10.2-4.6,10.2-10.2c0-5.7-4.6-10.2-10.2-10.2c-5.7,0-10.2,4.6-10.2,10.2
			C461,358.6,465.6,363.1,471.3,363.1"/>
		<path class="st2" d="M573.7,465.6c5.7,0,10.2-4.6,10.2-10.2c0-5.7-4.6-10.2-10.2-10.2s-10.2,4.6-10.2,10.2
			C563.5,461,568.1,465.6,573.7,465.6"/>
		<path class="st2" d="M573.7,516.8c5.7,0,10.2-4.6,10.2-10.2c0-5.7-4.6-10.2-10.2-10.2s-10.2,4.6-10.2,10.2
			C563.5,512.2,568.1,516.8,573.7,516.8"/>
		<path class="st2" d="M625,568.1c5.7,0,10.2-4.6,10.2-10.2c0-5.7-4.6-10.2-10.2-10.2c-5.7,0-10.2,4.6-10.2,10.2
			C614.7,563.5,619.3,568.1,625,568.1"/>
		<path class="st2" d="M625,619.3c5.7,0,10.2-4.6,10.2-10.2c0-5.7-4.6-10.2-10.2-10.2c-5.7,0-10.2,4.6-10.2,10.2
			C614.7,614.7,619.3,619.3,625,619.3"/>
		<path class="st2" d="M932.3,516.8c5.7,0,10.2-4.6,10.2-10.2c0-5.7-4.6-10.2-10.2-10.2c-5.7,0-10.2,4.6-10.2,10.2
			C922.1,512.2,926.7,516.8,932.3,516.8"/>
		<path class="st2" d="M881.1,568.1c5.7,0,10.2-4.6,10.2-10.2c0-5.7-4.6-10.2-10.2-10.2c-5.7,0-10.2,4.6-10.2,10.2
			C870.9,563.5,875.5,568.1,881.1,568.1"/>
		<path class="st2" d="M829.9,465.6c5.7,0,10.2-4.6,10.2-10.2c0-5.7-4.6-10.2-10.2-10.2c-5.7,0-10.2,4.6-10.2,10.2
			C819.6,461,824.2,465.6,829.9,465.6"/>
		<path class="st2" d="M1034.8,465.6c5.7,0,10.2-4.6,10.2-10.2c0-5.7-4.6-10.2-10.2-10.2c-5.7,0-10.2,4.6-10.2,10.2
			C1024.5,461,1029.1,465.6,1034.8,465.6"/>
		<path class="st2" d="M983.6,619.3c5.7,0,10.2-4.6,10.2-10.2c0-5.7-4.6-10.2-10.2-10.2s-10.2,4.6-10.2,10.2
			C973.3,614.7,977.9,619.3,983.6,619.3"/>
		<path class="st2" d="M1239.7,465.6c5.7,0,10.2-4.6,10.2-10.2c0-5.7-4.6-10.2-10.2-10.2c-5.7,0-10.2,4.6-10.2,10.2
			C1229.5,461,1234,465.6,1239.7,465.6"/>
		<path class="st2" d="M1598.3,465.6c5.7,0,10.2-4.6,10.2-10.2c0-5.7-4.6-10.2-10.2-10.2c-5.7,0-10.2,4.6-10.2,10.2
			C1588,461,1592.6,465.6,1598.3,465.6"/>
		<path class="st2" d="M1649.5,465.6c5.7,0,10.2-4.6,10.2-10.2c0-5.7-4.6-10.2-10.2-10.2c-5.7,0-10.2,4.6-10.2,10.2
			C1639.3,461,1643.9,465.6,1649.5,465.6"/>
		<path class="st2" d="M1854.4,465.6c5.7,0,10.2-4.6,10.2-10.2c0-5.7-4.6-10.2-10.2-10.2c-5.7,0-10.2,4.6-10.2,10.2
			C1844.2,461,1848.8,465.6,1854.4,465.6"/>
		<path class="st2" d="M215.2,516.8c5.7,0,10.2-4.6,10.2-10.2c0-5.7-4.6-10.2-10.2-10.2c-5.7,0-10.2,4.6-10.2,10.2
			C204.9,512.2,209.5,516.8,215.2,516.8"/>
		<path class="st2" d="M163.9,619.3c5.7,0,10.2-4.6,10.2-10.2c0-5.7-4.6-10.2-10.2-10.2c-5.7,0-10.2,4.6-10.2,10.2
			C153.7,614.7,158.3,619.3,163.9,619.3"/>
		<path class="st2" d="M1086,496.3c-5.7,0-10.2,4.6-10.2,10.2c0,5.7,4.6,10.2,10.2,10.2c5.7,0,10.2-4.6,10.2-10.2
			C1096.3,500.9,1091.7,496.3,1086,496.3"/>
		<path class="st2" d="M1137.2,547.6c-5.7,0-10.2,4.6-10.2,10.2c0,5.7,4.6,10.2,10.2,10.2c5.7,0,10.2-4.6,10.2-10.2
			C1147.5,552.2,1142.9,547.6,1137.2,547.6"/>
		<path class="st2" d="M368.8,516.8c5.7,0,10.2-4.6,10.2-10.2c0-5.7-4.6-10.2-10.2-10.2c-5.7,0-10.2,4.6-10.2,10.2
			C358.6,512.2,363.2,516.8,368.8,516.8"/>
		<path class="st2" d="M420.1,568.1c5.7,0,10.2-4.6,10.2-10.2c0-5.7-4.6-10.2-10.2-10.2c-5.7,0-10.2,4.6-10.2,10.2
			C409.8,563.5,414.4,568.1,420.1,568.1"/>
		<path class="st2" d="M420.1,619.3c5.7,0,10.2-4.6,10.2-10.2c0-5.7-4.6-10.2-10.2-10.2c-5.7,0-10.2,4.6-10.2,10.2
			C409.8,614.7,414.4,619.3,420.1,619.3"/>
		<path class="st2" d="M10.2,359.1c3.4,0,6.1-2.8,6.1-6.1c0-3.4-2.8-6.1-6.1-6.1s-6.1,2.8-6.1,6.1C4.1,356.3,6.9,359.1,10.2,359.1"
			/>
		<path class="st2" d="M10.2,512.7c3.4,0,6.1-2.8,6.1-6.1c0-3.4-2.8-6.1-6.1-6.1s-6.1,2.8-6.1,6.1C4.1,510,6.9,512.7,10.2,512.7"/>
		<path class="st2" d="M10.2,564c3.4,0,6.1-2.8,6.1-6.1c0-3.4-2.8-6.1-6.1-6.1s-6.1,2.8-6.1,6.1C4.1,561.2,6.9,564,10.2,564"/>
		<path class="st2" d="M61.5,564c3.4,0,6.1-2.8,6.1-6.1c0-3.4-2.8-6.1-6.1-6.1c-3.4,0-6.1,2.8-6.1,6.1C55.3,561.2,58.1,564,61.5,564
			"/>
		<path class="st2" d="M61.5,410.3c3.4,0,6.1-2.8,6.1-6.1c0-3.4-2.8-6.1-6.1-6.1c-3.4,0-6.1,2.8-6.1,6.1
			C55.3,407.5,58.1,410.3,61.5,410.3"/>
		<path class="st2" d="M471.3,410.3c3.4,0,6.1-2.8,6.1-6.1c0-3.4-2.8-6.1-6.1-6.1c-3.4,0-6.1,2.8-6.1,6.1
			C465.1,407.5,467.9,410.3,471.3,410.3"/>
		<path class="st2" d="M522.5,512.7c3.4,0,6.1-2.8,6.1-6.1c0-3.4-2.8-6.1-6.1-6.1c-3.4,0-6.1,2.8-6.1,6.1
			C516.4,510,519.1,512.7,522.5,512.7"/>
		<path class="st2" d="M420.1,461.5c3.4,0,6.1-2.8,6.1-6.1c0-3.4-2.8-6.1-6.1-6.1c-3.4,0-6.1,2.8-6.1,6.1
			C413.9,458.8,416.7,461.5,420.1,461.5"/>
		<path class="st2" d="M317.6,615.2c3.4,0,6.1-2.8,6.1-6.1c0-3.4-2.8-6.1-6.1-6.1s-6.1,2.8-6.1,6.1
			C311.5,612.4,314.2,615.2,317.6,615.2"/>
		<path class="st2" d="M522.5,615.2c3.4,0,6.1-2.8,6.1-6.1c0-3.4-2.8-6.1-6.1-6.1c-3.4,0-6.1,2.8-6.1,6.1
			C516.4,612.4,519.1,615.2,522.5,615.2"/>
		<path class="st2" d="M625,461.5c3.4,0,6.1-2.8,6.1-6.1c0-3.4-2.8-6.1-6.1-6.1c-3.4,0-6.1,2.8-6.1,6.1
			C618.8,458.8,621.6,461.5,625,461.5"/>
		<path class="st2" d="M881.1,410.3c3.4,0,6.1-2.8,6.1-6.1c0-3.4-2.8-6.1-6.1-6.1c-3.4,0-6.1,2.8-6.1,6.1
			C875,407.5,877.7,410.3,881.1,410.3"/>
		<path class="st2" d="M881.1,512.7c3.4,0,6.1-2.8,6.1-6.1c0-3.4-2.8-6.1-6.1-6.1c-3.4,0-6.1,2.8-6.1,6.1
			C875,510,877.7,512.7,881.1,512.7"/>
		<path class="st2" d="M881.1,615.2c3.4,0,6.1-2.8,6.1-6.1c0-3.4-2.8-6.1-6.1-6.1c-3.4,0-6.1,2.8-6.1,6.1
			C875,612.4,877.7,615.2,881.1,615.2"/>
		<path class="st2" d="M1034.8,564c3.4,0,6.1-2.8,6.1-6.1c0-3.4-2.8-6.1-6.1-6.1s-6.1,2.8-6.1,6.1
			C1028.6,561.2,1031.4,564,1034.8,564"/>
		<path class="st2" d="M522.5,410.3c3.4,0,6.1-2.8,6.1-6.1c0-3.4-2.8-6.1-6.1-6.1c-3.4,0-6.1,2.8-6.1,6.1
			C516.4,407.5,519.1,410.3,522.5,410.3"/>
		<path class="st2" d="M932.3,410.3c3.4,0,6.1-2.8,6.1-6.1c0-3.4-2.8-6.1-6.1-6.1c-3.4,0-6.1,2.8-6.1,6.1
			C926.2,407.5,928.9,410.3,932.3,410.3"/>
		<path class="st2" d="M1393.4,410.3c3.4,0,6.1-2.8,6.1-6.1c0-3.4-2.8-6.1-6.1-6.1c-3.4,0-6.1,2.8-6.1,6.1
			C1387.2,407.5,1390,410.3,1393.4,410.3"/>
		<path class="st2" d="M676.2,410.3c3.4,0,6.1-2.8,6.1-6.1c0-3.4-2.8-6.1-6.1-6.1c-3.4,0-6.1,2.8-6.1,6.1
			C670.1,407.5,672.8,410.3,676.2,410.3"/>
		<path class="st2" d="M266.4,359.1c3.4,0,6.1-2.8,6.1-6.1c0-3.4-2.8-6.1-6.1-6.1c-3.4,0-6.1,2.8-6.1,6.1
			C260.2,356.3,263,359.1,266.4,359.1"/>
		<path class="st2" d="M881.1,359.1c3.4,0,6.1-2.8,6.1-6.1c0-3.4-2.8-6.1-6.1-6.1c-3.4,0-6.1,2.8-6.1,6.1
			C875,356.3,877.7,359.1,881.1,359.1"/>
		<path class="st2" d="M1086,359.1c3.4,0,6.1-2.8,6.1-6.1c0-3.4-2.8-6.1-6.1-6.1c-3.4,0-6.1,2.8-6.1,6.1
			C1079.9,356.3,1082.6,359.1,1086,359.1"/>
		<path class="st2" d="M1700.7,359.1c3.4,0,6.1-2.8,6.1-6.1c0-3.4-2.8-6.1-6.1-6.1c-3.4,0-6.1,2.8-6.1,6.1
			C1694.6,356.3,1697.4,359.1,1700.7,359.1"/>
		<path class="st2" d="M1649.5,359.1c3.4,0,6.1-2.8,6.1-6.1c0-3.4-2.8-6.1-6.1-6.1c-3.4,0-6.1,2.8-6.1,6.1
			C1643.4,356.3,1646.1,359.1,1649.5,359.1"/>
		<path class="st2" d="M1752,410.4c3.4,0,6.1-2.8,6.1-6.1c0-3.4-2.8-6.1-6.1-6.1c-3.4,0-6.1,2.8-6.1,6.1
			C1745.8,407.6,1748.6,410.4,1752,410.4"/>
		<path class="st2" d="M1905.7,410.4c3.4,0,6.1-2.8,6.1-6.1c0-3.4-2.8-6.1-6.1-6.1c-3.4,0-6.1,2.8-6.1,6.1
			C1899.5,407.6,1902.3,410.4,1905.7,410.4"/>
		<path class="st2" d="M1854.4,359.1c3.4,0,6.1-2.8,6.1-6.1c0-3.4-2.8-6.1-6.1-6.1c-3.4,0-6.1,2.8-6.1,6.1
			C1848.3,356.3,1851,359.1,1854.4,359.1"/>
		<path class="st2" d="M1137.2,359.1c3.4,0,6.1-2.8,6.1-6.1c0-3.4-2.8-6.1-6.1-6.1c-3.4,0-6.1,2.8-6.1,6.1
			C1131.1,356.3,1133.9,359.1,1137.2,359.1"/>
		<path class="st2" d="M1188.5,461.5c3.4,0,6.1-2.8,6.1-6.1c0-3.4-2.8-6.1-6.1-6.1c-3.4,0-6.1,2.8-6.1,6.1
			C1182.3,458.8,1185.1,461.5,1188.5,461.5"/>
		<path class="st2" d="M1290.9,461.5c3.4,0,6.1-2.8,6.1-6.1c0-3.4-2.8-6.1-6.1-6.1c-3.4,0-6.1,2.8-6.1,6.1
			C1284.8,458.8,1287.5,461.5,1290.9,461.5"/>
		<path class="st2" d="M1290.9,500.4c-3.4,0-6.1,2.8-6.1,6.1c0,3.4,2.8,6.1,6.1,6.1c3.4,0,6.1-2.8,6.1-6.1
			C1297.1,503.2,1294.3,500.4,1290.9,500.4"/>
		<path class="st2" d="M1649.5,602.9c-3.4,0-6.1,2.8-6.1,6.1c0,3.4,2.8,6.1,6.1,6.1c3.4,0,6.1-2.8,6.1-6.1
			C1655.7,605.6,1652.9,602.9,1649.5,602.9"/>
		<path class="st2" d="M1854.4,602.9c-3.4,0-6.1,2.8-6.1,6.1c0,3.4,2.8,6.1,6.1,6.1c3.4,0,6.1-2.8,6.1-6.1
			C1860.6,605.6,1857.8,602.9,1854.4,602.9"/>
		<path class="st2" d="M1495.8,500.4c-3.4,0-6.1,2.8-6.1,6.1c0,3.4,2.8,6.1,6.1,6.1c3.4,0,6.1-2.8,6.1-6.1
			C1502,503.2,1499.2,500.4,1495.8,500.4"/>
		<path class="st2" d="M1752,500.4c-3.4,0-6.1,2.8-6.1,6.1c0,3.4,2.8,6.1,6.1,6.1c3.4,0,6.1-2.8,6.1-6.1
			C1758.1,503.2,1755.4,500.4,1752,500.4"/>
		<path class="st2" d="M1444.6,551.7c-3.4,0-6.1,2.8-6.1,6.1c0,3.4,2.8,6.1,6.1,6.1c3.4,0,6.1-2.8,6.1-6.1
			C1450.8,554.4,1448,551.7,1444.6,551.7"/>
		<path class="st2" d="M1649.5,551.7c-3.4,0-6.1,2.8-6.1,6.1c0,3.4,2.8,6.1,6.1,6.1c3.4,0,6.1-2.8,6.1-6.1
			C1655.7,554.4,1652.9,551.7,1649.5,551.7"/>
	</g>
	<g class="st1">
		<path class="st2" d="M112.7,667.2c7.9,0,14.3-6.4,14.3-14.3c0-7.9-6.4-14.3-14.3-14.3s-14.3,6.4-14.3,14.3
			C98.4,660.8,104.8,667.2,112.7,667.2"/>
		<path class="st2" d="M112.7,820.9c7.9,0,14.3-6.4,14.3-14.3c0-7.9-6.4-14.3-14.3-14.3s-14.3,6.4-14.3,14.3
			C98.4,814.5,104.8,820.9,112.7,820.9"/>
		<path class="st2" d="M61.5,923.4c7.9,0,14.3-6.4,14.3-14.3c0-7.9-6.4-14.3-14.3-14.3s-14.3,6.4-14.3,14.3
			C47.1,917,53.6,923.4,61.5,923.4"/>
		<path class="st2" d="M215.2,718.5c7.9,0,14.3-6.4,14.3-14.3c0-7.9-6.4-14.3-14.3-14.3c-7.9,0-14.3,6.4-14.3,14.3
			C200.8,712.1,207.2,718.5,215.2,718.5"/>
		<path class="st2" d="M368.8,769.7c7.9,0,14.3-6.4,14.3-14.3c0-7.9-6.4-14.3-14.3-14.3c-7.9,0-14.3,6.4-14.3,14.3
			C354.5,763.3,360.9,769.7,368.8,769.7"/>
		<path class="st2" d="M727.4,769.7c7.9,0,14.3-6.4,14.3-14.3c0-7.9-6.4-14.3-14.3-14.3c-7.9,0-14.3,6.4-14.3,14.3
			C713.1,763.3,719.5,769.7,727.4,769.7"/>
		<path class="st2" d="M778.7,820.9c7.9,0,14.3-6.4,14.3-14.3c0-7.9-6.4-14.3-14.3-14.3c-7.9,0-14.3,6.4-14.3,14.3
			C764.3,814.5,770.7,820.9,778.7,820.9"/>
		<path class="st2" d="M983.6,769.7c7.9,0,14.3-6.4,14.3-14.3c0-7.9-6.4-14.3-14.3-14.3c-7.9,0-14.3,6.4-14.3,14.3
			C969.2,763.3,975.6,769.7,983.6,769.7"/>
		<path class="st2" d="M1086,769.7c7.9,0,14.3-6.4,14.3-14.3c0-7.9-6.4-14.3-14.3-14.3c-7.9,0-14.3,6.4-14.3,14.3
			C1071.7,763.3,1078.1,769.7,1086,769.7"/>
		<path class="st2" d="M1138,820.9c7.9,0,14.3-6.4,14.3-14.3c0-7.9-6.4-14.3-14.3-14.3s-14.3,6.4-14.3,14.3
			C1123.7,814.5,1130.1,820.9,1138,820.9"/>
		<path class="st2" d="M1547.1,820.9c7.9,0,14.3-6.4,14.3-14.3c0-7.9-6.4-14.3-14.3-14.3c-7.9,0-14.3,6.4-14.3,14.3
			C1532.7,814.5,1539.1,820.9,1547.1,820.9"/>
		<path class="st2" d="M1547.1,872.2c7.9,0,14.3-6.4,14.3-14.3c0-7.9-6.4-14.3-14.3-14.3c-7.9,0-14.3,6.4-14.3,14.3
			C1532.7,865.7,1539.1,872.2,1547.1,872.2"/>
		<path class="st2" d="M1598.3,923.4c7.9,0,14.3-6.4,14.3-14.3c0-7.9-6.4-14.3-14.3-14.3c-7.9,0-14.3,6.4-14.3,14.3
			C1583.9,917,1590.4,923.4,1598.3,923.4"/>
		<path class="st2" d="M1803.2,872.2c7.9,0,14.3-6.4,14.3-14.3c0-7.9-6.4-14.3-14.3-14.3c-7.9,0-14.3,6.4-14.3,14.3
			C1788.9,865.7,1795.3,872.2,1803.2,872.2"/>
		<path class="st2" d="M1905.7,872.2c7.9,0,14.3-6.4,14.3-14.3c0-7.9-6.4-14.3-14.3-14.3c-7.9,0-14.3,6.4-14.3,14.3
			C1891.3,865.7,1897.7,872.2,1905.7,872.2"/>
		<path class="st2" d="M1598.3,820.9c7.9,0,14.3-6.4,14.3-14.3c0-7.9-6.4-14.3-14.3-14.3c-7.9,0-14.3,6.4-14.3,14.3
			C1583.9,814.5,1590.4,820.9,1598.3,820.9"/>
		<path class="st2" d="M1342.2,769.7c7.9,0,14.3-6.4,14.3-14.3c0-7.9-6.4-14.3-14.3-14.3c-7.9,0-14.3,6.4-14.3,14.3
			C1327.8,763.3,1334.2,769.7,1342.2,769.7"/>
		<path class="st2" d="M1290.9,872.2c7.9,0,14.3-6.4,14.3-14.3c0-7.9-6.4-14.3-14.3-14.3c-7.9,0-14.3,6.4-14.3,14.3
			C1276.6,865.7,1283,872.2,1290.9,872.2"/>
		<path class="st2" d="M1342.2,923.4c7.9,0,14.3-6.4,14.3-14.3c0-7.9-6.4-14.3-14.3-14.3c-7.9,0-14.3,6.4-14.3,14.3
			C1327.8,917,1334.2,923.4,1342.2,923.4"/>
		<path class="st2" d="M1393.4,923.4c7.9,0,14.3-6.4,14.3-14.3c0-7.9-6.4-14.3-14.3-14.3c-7.9,0-14.3,6.4-14.3,14.3
			C1379,917,1385.5,923.4,1393.4,923.4"/>
		<path class="st2" d="M1188.5,923.4c7.9,0,14.3-6.4,14.3-14.3c0-7.9-6.4-14.3-14.3-14.3c-7.9,0-14.3,6.4-14.3,14.3
			C1174.1,917,1180.6,923.4,1188.5,923.4"/>
		<path class="st2" d="M1495.8,872.2c7.9,0,14.3-6.4,14.3-14.3c0-7.9-6.4-14.3-14.3-14.3c-7.9,0-14.3,6.4-14.3,14.3
			C1481.5,865.7,1487.9,872.2,1495.8,872.2"/>
		<path class="st2" d="M1393.4,769.7c7.9,0,14.3-6.4,14.3-14.3c0-7.9-6.4-14.3-14.3-14.3c-7.9,0-14.3,6.4-14.3,14.3
			C1379,763.3,1385.5,769.7,1393.4,769.7"/>
		<path class="st2" d="M1495.8,769.7c7.9,0,14.3-6.4,14.3-14.3c0-7.9-6.4-14.3-14.3-14.3c-7.9,0-14.3,6.4-14.3,14.3
			C1481.5,763.3,1487.9,769.7,1495.8,769.7"/>
		<path class="st2" d="M1803.2,769.7c7.9,0,14.3-6.4,14.3-14.3c0-7.9-6.4-14.3-14.3-14.3c-7.9,0-14.3,6.4-14.3,14.3
			C1788.9,763.3,1795.3,769.7,1803.2,769.7"/>
		<path class="st2" d="M420.1,718.5c7.9,0,14.3-6.4,14.3-14.3c0-7.9-6.4-14.3-14.3-14.3c-7.9,0-14.3,6.4-14.3,14.3
			C405.7,712.1,412.1,718.5,420.1,718.5"/>
		<path class="st2" d="M420.1,820.9c7.9,0,14.3-6.4,14.3-14.3c0-7.9-6.4-14.3-14.3-14.3c-7.9,0-14.3,6.4-14.3,14.3
			C405.7,814.5,412.1,820.9,420.1,820.9"/>
		<path class="st2" d="M829.9,718.5c7.9,0,14.3-6.4,14.3-14.3c0-7.9-6.4-14.3-14.3-14.3c-7.9,0-14.3,6.4-14.3,14.3
			C815.5,712.1,822,718.5,829.9,718.5"/>
		<path class="st2" d="M1188.5,718.5c7.9,0,14.3-6.4,14.3-14.3c0-7.9-6.4-14.3-14.3-14.3c-7.9,0-14.3,6.4-14.3,14.3
			C1174.1,712.1,1180.6,718.5,1188.5,718.5"/>
		<path class="st2" d="M1342.2,718.5c7.9,0,14.3-6.4,14.3-14.3c0-7.9-6.4-14.3-14.3-14.3c-7.9,0-14.3,6.4-14.3,14.3
			C1327.8,712.1,1334.2,718.5,1342.2,718.5"/>
		<path class="st2" d="M1495.8,718.5c7.9,0,14.3-6.4,14.3-14.3c0-7.9-6.4-14.3-14.3-14.3c-7.9,0-14.3,6.4-14.3,14.3
			C1481.5,712.1,1487.9,718.5,1495.8,718.5"/>
		<path class="st2" d="M522.5,667.2c7.9,0,14.3-6.4,14.3-14.3c0-7.9-6.4-14.3-14.3-14.3c-7.9,0-14.3,6.4-14.3,14.3
			C508.2,660.8,514.6,667.2,522.5,667.2"/>
		<path class="st2" d="M573.7,667.2c7.9,0,14.3-6.4,14.3-14.3c0-7.9-6.4-14.3-14.3-14.3c-7.9,0-14.3,6.4-14.3,14.3
			C559.4,660.8,565.8,667.2,573.7,667.2"/>
		<path class="st2" d="M1034.8,638.6c-7.9,0-14.3,6.4-14.3,14.3c0,7.9,6.4,14.3,14.3,14.3c7.9,0,14.3-6.4,14.3-14.3
			C1049.1,645,1042.7,638.6,1034.8,638.6"/>
		<path class="st2" d="M1393.4,638.6c-7.9,0-14.3,6.4-14.3,14.3c0,7.9,6.4,14.3,14.3,14.3s14.3-6.4,14.3-14.3
			C1407.7,645,1401.3,638.6,1393.4,638.6"/>
		<path class="st2" d="M1547.1,638.6c-7.9,0-14.3,6.4-14.3,14.3c0,7.9,6.4,14.3,14.3,14.3c7.9,0,14.3-6.4,14.3-14.3
			C1561.4,645,1555,638.6,1547.1,638.6"/>
		<path class="st2" d="M1752,638.6c-7.9,0-14.3,6.4-14.3,14.3c0,7.9,6.4,14.3,14.3,14.3c7.9,0,14.3-6.4,14.3-14.3
			C1766.3,645,1759.9,638.6,1752,638.6"/>
		<path class="st2" d="M1803.2,638.6c-7.9,0-14.3,6.4-14.3,14.3c0,7.9,6.4,14.3,14.3,14.3c7.9,0,14.3-6.4,14.3-14.3
			C1817.5,645,1811.1,638.6,1803.2,638.6"/>
		<path class="st2" d="M625,792.2c-7.9,0-14.3,6.4-14.3,14.3c0,7.9,6.4,14.3,14.3,14.3c7.9,0,14.3-6.4,14.3-14.3
			C639.3,798.7,632.9,792.2,625,792.2"/>
		<path class="st2" d="M983.6,792.2c-7.9,0-14.3,6.4-14.3,14.3c0,7.9,6.4,14.3,14.3,14.3c7.9,0,14.3-6.4,14.3-14.3
			C997.9,798.7,991.5,792.2,983.6,792.2"/>
		<path class="st2" d="M932.3,843.5c-7.9,0-14.3,6.4-14.3,14.3c0,7.9,6.4,14.3,14.3,14.3c7.9,0,14.3-6.4,14.3-14.3
			C946.7,849.9,940.3,843.5,932.3,843.5"/>
		<path class="st2" d="M1086,843.5c-7.9,0-14.3,6.4-14.3,14.3c0,7.9,6.4,14.3,14.3,14.3c7.9,0,14.3-6.4,14.3-14.3
			C1100.4,849.9,1093.9,843.5,1086,843.5"/>
		<path class="st2" d="M317.6,872.2c7.9,0,14.3-6.4,14.3-14.3c0-7.9-6.4-14.3-14.3-14.3s-14.3,6.4-14.3,14.3
			C303.3,865.7,309.7,872.2,317.6,872.2"/>
		<path class="st2" d="M522.5,872.2c7.9,0,14.3-6.4,14.3-14.3c0-7.9-6.4-14.3-14.3-14.3c-7.9,0-14.3,6.4-14.3,14.3
			C508.2,865.7,514.6,872.2,522.5,872.2"/>
		<path class="st2" d="M573.7,872.2c7.9,0,14.3-6.4,14.3-14.3c0-7.9-6.4-14.3-14.3-14.3c-7.9,0-14.3,6.4-14.3,14.3
			C559.4,865.7,565.8,872.2,573.7,872.2"/>
		<path class="st2" d="M573.7,923.4c7.9,0,14.3-6.4,14.3-14.3c0-7.9-6.4-14.3-14.3-14.3c-7.9,0-14.3,6.4-14.3,14.3
			C559.4,917,565.8,923.4,573.7,923.4"/>
		<path class="st2" d="M676.2,923.4c7.9,0,14.3-6.4,14.3-14.3c0-7.9-6.4-14.3-14.3-14.3s-14.3,6.4-14.3,14.3
			C661.9,917,668.3,923.4,676.2,923.4"/>
		<path class="st2" d="M727.4,872.2c7.9,0,14.3-6.4,14.3-14.3c0-7.9-6.4-14.3-14.3-14.3c-7.9,0-14.3,6.4-14.3,14.3
			C713.1,865.7,719.5,872.2,727.4,872.2"/>
		<path class="st2" d="M10.2,714.4c5.7,0,10.2-4.6,10.2-10.2c0-5.7-4.6-10.2-10.2-10.2S0,698.5,0,704.1
			C0,709.8,4.6,714.4,10.2,714.4"/>
		<path class="st2" d="M112.7,714.4c5.7,0,10.2-4.6,10.2-10.2c0-5.7-4.6-10.2-10.2-10.2c-5.7,0-10.2,4.6-10.2,10.2
			C102.5,709.8,107,714.4,112.7,714.4"/>
		<path class="st2" d="M112.7,765.6c5.7,0,10.2-4.6,10.2-10.2c0-5.7-4.6-10.2-10.2-10.2c-5.7,0-10.2,4.6-10.2,10.2
			C102.5,761,107,765.6,112.7,765.6"/>
		<path class="st2" d="M727.4,714.4c5.7,0,10.2-4.6,10.2-10.2c0-5.7-4.6-10.2-10.2-10.2c-5.7,0-10.2,4.6-10.2,10.2
			C717.2,709.8,721.8,714.4,727.4,714.4"/>
		<path class="st2" d="M1086,714.4c5.7,0,10.2-4.6,10.2-10.2c0-5.7-4.6-10.2-10.2-10.2c-5.7,0-10.2,4.6-10.2,10.2
			C1075.8,709.8,1080.4,714.4,1086,714.4"/>
		<path class="st2" d="M1137.2,714.4c5.7,0,10.2-4.6,10.2-10.2c0-5.7-4.6-10.2-10.2-10.2c-5.7,0-10.2,4.6-10.2,10.2
			C1127,709.8,1131.6,714.4,1137.2,714.4"/>
		<path class="st2" d="M1290.9,714.4c5.7,0,10.2-4.6,10.2-10.2c0-5.7-4.6-10.2-10.2-10.2c-5.7,0-10.2,4.6-10.2,10.2
			C1280.7,709.8,1285.3,714.4,1290.9,714.4"/>
		<path class="st2" d="M1342.2,816.8c5.7,0,10.2-4.6,10.2-10.2c0-5.7-4.6-10.2-10.2-10.2c-5.7,0-10.2,4.6-10.2,10.2
			C1331.9,812.2,1336.5,816.8,1342.2,816.8"/>
		<path class="st2" d="M1342.2,868.1c5.7,0,10.2-4.6,10.2-10.2c0-5.7-4.6-10.2-10.2-10.2c-5.7,0-10.2,4.6-10.2,10.2
			C1331.9,863.5,1336.5,868.1,1342.2,868.1"/>
		<path class="st2" d="M1444.6,919.3c5.7,0,10.2-4.6,10.2-10.2c0-5.7-4.6-10.2-10.2-10.2s-10.2,4.6-10.2,10.2
			C1434.4,914.7,1439,919.3,1444.6,919.3"/>
		<path class="st2" d="M1803.2,816.8c5.7,0,10.2-4.6,10.2-10.2c0-5.7-4.6-10.2-10.2-10.2c-5.7,0-10.2,4.6-10.2,10.2
			C1793,812.2,1797.5,816.8,1803.2,816.8"/>
		<path class="st2" d="M1700.7,868.1c5.7,0,10.2-4.6,10.2-10.2c0-5.7-4.6-10.2-10.2-10.2c-5.7,0-10.2,4.6-10.2,10.2
			C1690.5,863.5,1695.1,868.1,1700.7,868.1"/>
		<path class="st2" d="M1854.4,868.1c5.7,0,10.2-4.6,10.2-10.2c0-5.7-4.6-10.2-10.2-10.2c-5.7,0-10.2,4.6-10.2,10.2
			C1844.2,863.5,1848.8,868.1,1854.4,868.1"/>
		<path class="st2" d="M1803.2,919.3c5.7,0,10.2-4.6,10.2-10.2c0-5.7-4.6-10.2-10.2-10.2c-5.7,0-10.2,4.6-10.2,10.2
			C1793,914.7,1797.5,919.3,1803.2,919.3"/>
		<path class="st2" d="M420.1,663.1c5.7,0,10.2-4.6,10.2-10.2c0-5.7-4.6-10.2-10.2-10.2c-5.7,0-10.2,4.6-10.2,10.2
			C409.8,658.6,414.4,663.1,420.1,663.1"/>
		<path class="st2" d="M829.9,663.1c5.7,0,10.2-4.6,10.2-10.2c0-5.7-4.6-10.2-10.2-10.2c-5.7,0-10.2,4.6-10.2,10.2
			C819.6,658.6,824.2,663.1,829.9,663.1"/>
		<path class="st2" d="M983.6,663.1c5.7,0,10.2-4.6,10.2-10.2c0-5.7-4.6-10.2-10.2-10.2s-10.2,4.6-10.2,10.2
			C973.3,658.6,977.9,663.1,983.6,663.1"/>
		<path class="st2" d="M1598.3,663.1c5.7,0,10.2-4.6,10.2-10.2c0-5.7-4.6-10.2-10.2-10.2c-5.7,0-10.2,4.6-10.2,10.2
			C1588,658.6,1592.6,663.1,1598.3,663.1"/>
		<path class="st2" d="M1803.2,714.5c5.7,0,10.2-4.6,10.2-10.2c0-5.7-4.6-10.2-10.2-10.2c-5.7,0-10.2,4.6-10.2,10.2
			C1793,709.9,1797.5,714.5,1803.2,714.5"/>
		<path class="st2" d="M1854.4,714.5c5.7,0,10.2-4.6,10.2-10.2c0-5.7-4.6-10.2-10.2-10.2c-5.7,0-10.2,4.6-10.2,10.2
			C1844.2,709.9,1848.8,714.5,1854.4,714.5"/>
		<path class="st2" d="M471.3,663.1c5.7,0,10.2-4.6,10.2-10.2c0-5.7-4.6-10.2-10.2-10.2c-5.7,0-10.2,4.6-10.2,10.2
			C461,658.6,465.6,663.1,471.3,663.1"/>
		<path class="st2" d="M573.7,765.6c5.7,0,10.2-4.6,10.2-10.2c0-5.7-4.6-10.2-10.2-10.2s-10.2,4.6-10.2,10.2
			C563.5,761,568.1,765.6,573.7,765.6"/>
		<path class="st2" d="M573.7,816.8c5.7,0,10.2-4.6,10.2-10.2c0-5.7-4.6-10.2-10.2-10.2s-10.2,4.6-10.2,10.2
			C563.5,812.2,568.1,816.8,573.7,816.8"/>
		<path class="st2" d="M625,868.1c5.7,0,10.2-4.6,10.2-10.2c0-5.7-4.6-10.2-10.2-10.2c-5.7,0-10.2,4.6-10.2,10.2
			C614.7,863.5,619.3,868.1,625,868.1"/>
		<path class="st2" d="M625,919.3c5.7,0,10.2-4.6,10.2-10.2c0-5.7-4.6-10.2-10.2-10.2c-5.7,0-10.2,4.6-10.2,10.2
			C614.7,914.7,619.3,919.3,625,919.3"/>
		<path class="st2" d="M932.3,816.8c5.7,0,10.2-4.6,10.2-10.2c0-5.7-4.6-10.2-10.2-10.2c-5.7,0-10.2,4.6-10.2,10.2
			C922.1,812.2,926.7,816.8,932.3,816.8"/>
		<path class="st2" d="M881.1,868.1c5.7,0,10.2-4.6,10.2-10.2c0-5.7-4.6-10.2-10.2-10.2c-5.7,0-10.2,4.6-10.2,10.2
			C870.9,863.5,875.5,868.1,881.1,868.1"/>
		<path class="st2" d="M829.9,765.6c5.7,0,10.2-4.6,10.2-10.2c0-5.7-4.6-10.2-10.2-10.2c-5.7,0-10.2,4.6-10.2,10.2
			C819.6,761,824.2,765.6,829.9,765.6"/>
		<path class="st2" d="M1034.8,765.6c5.7,0,10.2-4.6,10.2-10.2c0-5.7-4.6-10.2-10.2-10.2c-5.7,0-10.2,4.6-10.2,10.2
			C1024.5,761,1029.1,765.6,1034.8,765.6"/>
		<path class="st2" d="M983.6,919.3c5.7,0,10.2-4.6,10.2-10.2c0-5.7-4.6-10.2-10.2-10.2s-10.2,4.6-10.2,10.2
			C973.3,914.7,977.9,919.3,983.6,919.3"/>
		<path class="st2" d="M1239.7,765.6c5.7,0,10.2-4.6,10.2-10.2c0-5.7-4.6-10.2-10.2-10.2c-5.7,0-10.2,4.6-10.2,10.2
			C1229.5,761,1234,765.6,1239.7,765.6"/>
		<path class="st2" d="M1598.3,765.6c5.7,0,10.2-4.6,10.2-10.2c0-5.7-4.6-10.2-10.2-10.2c-5.7,0-10.2,4.6-10.2,10.2
			C1588,761,1592.6,765.6,1598.3,765.6"/>
		<path class="st2" d="M1649.5,765.6c5.7,0,10.2-4.6,10.2-10.2c0-5.7-4.6-10.2-10.2-10.2c-5.7,0-10.2,4.6-10.2,10.2
			C1639.3,761,1643.9,765.6,1649.5,765.6"/>
		<path class="st2" d="M1854.4,765.6c5.7,0,10.2-4.6,10.2-10.2c0-5.7-4.6-10.2-10.2-10.2c-5.7,0-10.2,4.6-10.2,10.2
			C1844.2,761,1848.8,765.6,1854.4,765.6"/>
		<path class="st2" d="M215.2,816.8c5.7,0,10.2-4.6,10.2-10.2c0-5.7-4.6-10.2-10.2-10.2c-5.7,0-10.2,4.6-10.2,10.2
			C204.9,812.2,209.5,816.8,215.2,816.8"/>
		<path class="st2" d="M163.9,919.3c5.7,0,10.2-4.6,10.2-10.2c0-5.7-4.6-10.2-10.2-10.2c-5.7,0-10.2,4.6-10.2,10.2
			C153.7,914.7,158.3,919.3,163.9,919.3"/>
		<path class="st2" d="M1086,796.3c-5.7,0-10.2,4.6-10.2,10.2c0,5.7,4.6,10.2,10.2,10.2c5.7,0,10.2-4.6,10.2-10.2
			C1096.3,800.9,1091.7,796.3,1086,796.3"/>
		<path class="st2" d="M1137.2,847.6c-5.7,0-10.2,4.6-10.2,10.2c0,5.7,4.6,10.2,10.2,10.2c5.7,0,10.2-4.6,10.2-10.2
			C1147.5,852.2,1142.9,847.6,1137.2,847.6"/>
		<path class="st2" d="M368.8,816.8c5.7,0,10.2-4.6,10.2-10.2c0-5.7-4.6-10.2-10.2-10.2c-5.7,0-10.2,4.6-10.2,10.2
			C358.6,812.2,363.2,816.8,368.8,816.8"/>
		<path class="st2" d="M420.1,868.1c5.7,0,10.2-4.6,10.2-10.2c0-5.7-4.6-10.2-10.2-10.2c-5.7,0-10.2,4.6-10.2,10.2
			C409.8,863.5,414.4,868.1,420.1,868.1"/>
		<path class="st2" d="M420.1,919.3c5.7,0,10.2-4.6,10.2-10.2c0-5.7-4.6-10.2-10.2-10.2c-5.7,0-10.2,4.6-10.2,10.2
			C409.8,914.7,414.4,919.3,420.1,919.3"/>
		<path class="st2" d="M10.2,659.1c3.4,0,6.1-2.8,6.1-6.1c0-3.4-2.8-6.1-6.1-6.1s-6.1,2.8-6.1,6.1C4.1,656.3,6.9,659.1,10.2,659.1"
			/>
		<path class="st2" d="M10.2,812.7c3.4,0,6.1-2.8,6.1-6.1c0-3.4-2.8-6.1-6.1-6.1s-6.1,2.8-6.1,6.1C4.1,810,6.9,812.7,10.2,812.7"/>
		<path class="st2" d="M10.2,864c3.4,0,6.1-2.8,6.1-6.1c0-3.4-2.8-6.1-6.1-6.1s-6.1,2.8-6.1,6.1C4.1,861.2,6.9,864,10.2,864"/>
		<path class="st2" d="M61.5,864c3.4,0,6.1-2.8,6.1-6.1c0-3.4-2.8-6.1-6.1-6.1c-3.4,0-6.1,2.8-6.1,6.1C55.3,861.2,58.1,864,61.5,864
			"/>
		<path class="st2" d="M61.5,710.3c3.4,0,6.1-2.8,6.1-6.1c0-3.4-2.8-6.1-6.1-6.1c-3.4,0-6.1,2.8-6.1,6.1
			C55.3,707.5,58.1,710.3,61.5,710.3"/>
		<path class="st2" d="M471.3,710.3c3.4,0,6.1-2.8,6.1-6.1c0-3.4-2.8-6.1-6.1-6.1c-3.4,0-6.1,2.8-6.1,6.1
			C465.1,707.5,467.9,710.3,471.3,710.3"/>
		<path class="st2" d="M522.5,812.7c3.4,0,6.1-2.8,6.1-6.1c0-3.4-2.8-6.1-6.1-6.1c-3.4,0-6.1,2.8-6.1,6.1
			C516.4,810,519.1,812.7,522.5,812.7"/>
		<path class="st2" d="M420.1,761.5c3.4,0,6.1-2.8,6.1-6.1c0-3.4-2.8-6.1-6.1-6.1c-3.4,0-6.1,2.8-6.1,6.1
			C413.9,758.8,416.7,761.5,420.1,761.5"/>
		<path class="st2" d="M317.6,915.2c3.4,0,6.1-2.8,6.1-6.1c0-3.4-2.8-6.1-6.1-6.1s-6.1,2.8-6.1,6.1
			C311.5,912.4,314.2,915.2,317.6,915.2"/>
		<path class="st2" d="M522.5,915.2c3.4,0,6.1-2.8,6.1-6.1c0-3.4-2.8-6.1-6.1-6.1c-3.4,0-6.1,2.8-6.1,6.1
			C516.4,912.4,519.1,915.2,522.5,915.2"/>
		<path class="st2" d="M625,761.5c3.4,0,6.1-2.8,6.1-6.1c0-3.4-2.8-6.1-6.1-6.1c-3.4,0-6.1,2.8-6.1,6.1
			C618.8,758.8,621.6,761.5,625,761.5"/>
		<path class="st2" d="M881.1,710.3c3.4,0,6.1-2.8,6.1-6.1c0-3.4-2.8-6.1-6.1-6.1c-3.4,0-6.1,2.8-6.1,6.1
			C875,707.5,877.7,710.3,881.1,710.3"/>
		<path class="st2" d="M881.1,812.7c3.4,0,6.1-2.8,6.1-6.1c0-3.4-2.8-6.1-6.1-6.1c-3.4,0-6.1,2.8-6.1,6.1
			C875,810,877.7,812.7,881.1,812.7"/>
		<path class="st2" d="M881.1,915.2c3.4,0,6.1-2.8,6.1-6.1c0-3.4-2.8-6.1-6.1-6.1c-3.4,0-6.1,2.8-6.1,6.1
			C875,912.4,877.7,915.2,881.1,915.2"/>
		<path class="st2" d="M1034.8,864c3.4,0,6.1-2.8,6.1-6.1c0-3.4-2.8-6.1-6.1-6.1s-6.1,2.8-6.1,6.1
			C1028.6,861.2,1031.4,864,1034.8,864"/>
		<path class="st2" d="M522.5,710.3c3.4,0,6.1-2.8,6.1-6.1c0-3.4-2.8-6.1-6.1-6.1c-3.4,0-6.1,2.8-6.1,6.1
			C516.4,707.5,519.1,710.3,522.5,710.3"/>
		<path class="st2" d="M932.3,710.3c3.4,0,6.1-2.8,6.1-6.1c0-3.4-2.8-6.1-6.1-6.1c-3.4,0-6.1,2.8-6.1,6.1
			C926.2,707.5,928.9,710.3,932.3,710.3"/>
		<path class="st2" d="M1393.4,710.3c3.4,0,6.1-2.8,6.1-6.1c0-3.4-2.8-6.1-6.1-6.1c-3.4,0-6.1,2.8-6.1,6.1
			C1387.2,707.5,1390,710.3,1393.4,710.3"/>
		<path class="st2" d="M676.2,710.3c3.4,0,6.1-2.8,6.1-6.1c0-3.4-2.8-6.1-6.1-6.1c-3.4,0-6.1,2.8-6.1,6.1
			C670.1,707.5,672.8,710.3,676.2,710.3"/>
		<path class="st2" d="M266.4,659.1c3.4,0,6.1-2.8,6.1-6.1c0-3.4-2.8-6.1-6.1-6.1c-3.4,0-6.1,2.8-6.1,6.1
			C260.2,656.3,263,659.1,266.4,659.1"/>
		<path class="st2" d="M881.1,659.1c3.4,0,6.1-2.8,6.1-6.1c0-3.4-2.8-6.1-6.1-6.1c-3.4,0-6.1,2.8-6.1,6.1
			C875,656.3,877.7,659.1,881.1,659.1"/>
		<path class="st2" d="M1086,659.1c3.4,0,6.1-2.8,6.1-6.1c0-3.4-2.8-6.1-6.1-6.1c-3.4,0-6.1,2.8-6.1,6.1
			C1079.9,656.3,1082.6,659.1,1086,659.1"/>
		<path class="st2" d="M1700.7,659.1c3.4,0,6.1-2.8,6.1-6.1c0-3.4-2.8-6.1-6.1-6.1c-3.4,0-6.1,2.8-6.1,6.1
			C1694.6,656.3,1697.4,659.1,1700.7,659.1"/>
		<path class="st2" d="M1649.5,659.1c3.4,0,6.1-2.8,6.1-6.1c0-3.4-2.8-6.1-6.1-6.1c-3.4,0-6.1,2.8-6.1,6.1
			C1643.4,656.3,1646.1,659.1,1649.5,659.1"/>
		<path class="st2" d="M1752,710.4c3.4,0,6.1-2.8,6.1-6.1c0-3.4-2.8-6.1-6.1-6.1c-3.4,0-6.1,2.8-6.1,6.1
			C1745.8,707.6,1748.6,710.4,1752,710.4"/>
		<path class="st2" d="M1905.7,710.4c3.4,0,6.1-2.8,6.1-6.1c0-3.4-2.8-6.1-6.1-6.1c-3.4,0-6.1,2.8-6.1,6.1
			C1899.5,707.6,1902.3,710.4,1905.7,710.4"/>
		<path class="st2" d="M1854.4,659.1c3.4,0,6.1-2.8,6.1-6.1c0-3.4-2.8-6.1-6.1-6.1c-3.4,0-6.1,2.8-6.1,6.1
			C1848.3,656.3,1851,659.1,1854.4,659.1"/>
		<path class="st2" d="M1137.2,659.1c3.4,0,6.1-2.8,6.1-6.1c0-3.4-2.8-6.1-6.1-6.1c-3.4,0-6.1,2.8-6.1,6.1
			C1131.1,656.3,1133.9,659.1,1137.2,659.1"/>
		<path class="st2" d="M1188.5,761.5c3.4,0,6.1-2.8,6.1-6.1c0-3.4-2.8-6.1-6.1-6.1c-3.4,0-6.1,2.8-6.1,6.1
			C1182.3,758.8,1185.1,761.5,1188.5,761.5"/>
		<path class="st2" d="M1290.9,761.5c3.4,0,6.1-2.8,6.1-6.1c0-3.4-2.8-6.1-6.1-6.1c-3.4,0-6.1,2.8-6.1,6.1
			C1284.8,758.8,1287.5,761.5,1290.9,761.5"/>
		<path class="st2" d="M1290.9,800.4c-3.4,0-6.1,2.8-6.1,6.1c0,3.4,2.8,6.1,6.1,6.1c3.4,0,6.1-2.8,6.1-6.1
			C1297.1,803.2,1294.3,800.4,1290.9,800.4"/>
		<path class="st2" d="M1649.5,902.9c-3.4,0-6.1,2.8-6.1,6.1c0,3.4,2.8,6.1,6.1,6.1c3.4,0,6.1-2.8,6.1-6.1
			C1655.7,905.6,1652.9,902.9,1649.5,902.9"/>
		<path class="st2" d="M1854.4,902.9c-3.4,0-6.1,2.8-6.1,6.1c0,3.4,2.8,6.1,6.1,6.1c3.4,0,6.1-2.8,6.1-6.1
			C1860.6,905.6,1857.8,902.9,1854.4,902.9"/>
		<path class="st2" d="M1495.8,800.4c-3.4,0-6.1,2.8-6.1,6.1c0,3.4,2.8,6.1,6.1,6.1c3.4,0,6.1-2.8,6.1-6.1
			C1502,803.2,1499.2,800.4,1495.8,800.4"/>
		<path class="st2" d="M1752,800.4c-3.4,0-6.1,2.8-6.1,6.1c0,3.4,2.8,6.1,6.1,6.1c3.4,0,6.1-2.8,6.1-6.1
			C1758.1,803.2,1755.4,800.4,1752,800.4"/>
		<path class="st2" d="M1444.6,851.7c-3.4,0-6.1,2.8-6.1,6.1c0,3.4,2.8,6.1,6.1,6.1c3.4,0,6.1-2.8,6.1-6.1
			C1450.8,854.4,1448,851.7,1444.6,851.7"/>
		<path class="st2" d="M1649.5,851.7c-3.4,0-6.1,2.8-6.1,6.1c0,3.4,2.8,6.1,6.1,6.1c3.4,0,6.1-2.8,6.1-6.1
			C1655.7,854.4,1652.9,851.7,1649.5,851.7"/>
	</g>
</g>
</svg>
