<svg xmlns="http://www.w3.org/2000/svg" xmlns:xlink="http://www.w3.org/1999/xlink" viewBox="0 0 141.2 19.1"><defs><path id="a" d="M0 0h141.7v19.1H0z"/></defs><clipPath id="b"><use xlink:href="#a" overflow="visible"/></clipPath><path d="M14.5 4.2c.5 0 .9-.4.9-.8s-.4-.8-.9-.8-.9.4-.9.8.4.8.9.8" clip-path="url(#b)" fill="#fff"/><defs><path id="c" d="M0 0h141.7v19.1H0z"/></defs><clipPath id="d"><use xlink:href="#c" overflow="visible"/></clipPath><path d="M5.7 4.2c.5 0 .9-.4.9-.8s-.4-.8-.9-.8-.9.3-.9.8c0 .4.4.8.9.8" clip-path="url(#d)" fill="#fff"/><defs><path id="e" d="M0 0h141.7v19.1H0z"/></defs><clipPath id="f"><use xlink:href="#e" overflow="visible"/></clipPath><path d="M1.3 10.4c.5 0 .9-.4.9-.8s-.4-.8-.9-.8-.9.3-.9.8.5.8.9.8" clip-path="url(#f)" fill="#fff"/><defs><path id="g" d="M0 0h141.7v19.1H0z"/></defs><clipPath id="h"><use xlink:href="#g" overflow="visible"/></clipPath><path d="M10.1 19.1c.7 0 1.3-.6 1.3-1.3 0-.7-.6-1.3-1.3-1.3-.7 0-1.3.6-1.3 1.3 0 .7.6 1.3 1.3 1.3" clip-path="url(#h)" fill="#fff"/><defs><path id="i" d="M0 0h141.7v19.1H0z"/></defs><clipPath id="j"><use xlink:href="#i" overflow="visible"/></clipPath><path d="M10.1 10.8c.7 0 1.3-.6 1.3-1.3 0-.7-.6-1.3-1.3-1.3-.7 0-1.3.6-1.3 1.3 0 .8.6 1.3 1.3 1.3" clip-path="url(#j)" fill="#fff"/><defs><path id="k" d="M0 0h141.7v19.1H0z"/></defs><clipPath id="l"><use xlink:href="#k" overflow="visible"/></clipPath><path d="M1.3 6.6c.7 0 1.3-.6 1.3-1.3C2.6 4.6 2 4 1.3 4 .6 4.1 0 4.7 0 5.4s.6 1.2 1.3 1.2" clip-path="url(#l)" fill="#fff"/><defs><path id="m" d="M0 0h141.7v19.1H0z"/></defs><clipPath id="n"><use xlink:href="#m" overflow="visible"/></clipPath><path d="M1.3 15c.7 0 1.3-.6 1.3-1.3 0-.7-.6-1.3-1.3-1.3-.7 0-1.3.6-1.3 1.3 0 .7.6 1.3 1.3 1.3" clip-path="url(#n)" fill="#fff"/><defs><path id="o" d="M0 0h141.7v19.1H0z"/></defs><clipPath id="p"><use xlink:href="#o" overflow="visible"/></clipPath><path d="M18.9 6.6c.7 0 1.3-.6 1.3-1.3 0-.7-.6-1.3-1.3-1.3-.7 0-1.3.6-1.3 1.3 0 .8.6 1.3 1.3 1.3" clip-path="url(#p)" fill="#e9435e"/><defs><path id="q" d="M0 0h141.7v19.1H0z"/></defs><clipPath id="r"><use xlink:href="#q" overflow="visible"/></clipPath><path d="M18.9 15c.7 0 1.3-.6 1.3-1.3 0-.7-.6-1.3-1.3-1.3-.7 0-1.3.6-1.3 1.3 0 .7.6 1.3 1.3 1.3" clip-path="url(#r)" fill="#fff"/><defs><path id="s" d="M0 0h141.7v19.1H0z"/></defs><clipPath id="t"><use xlink:href="#s" overflow="visible"/></clipPath><path d="M10.1 2.5c.7 0 1.3-.6 1.3-1.3S10.8 0 10.1 0c-.7 0-1.3.6-1.3 1.3s.6 1.2 1.3 1.2" clip-path="url(#t)" fill="#fff"/><defs><path id="u" d="M0 0h141.7v19.1H0z"/></defs><clipPath id="v"><use xlink:href="#u" overflow="visible"/></clipPath><path d="M5.7 12.3c.4 0 .7-.3.7-.6 0-.4-.3-.6-.7-.6-.4-.1-.7.2-.7.5 0 .4.3.7.7.7" clip-path="url(#v)" fill="#fff"/><defs><path id="w" d="M0 0h141.7v19.1H0z"/></defs><clipPath id="x"><use xlink:href="#w" overflow="visible"/></clipPath><path d="M10.1 6.1c.4 0 .7-.3.7-.6 0-.4-.3-.6-.7-.6-.4 0-.7.3-.7.6s.3.6.7.6" clip-path="url(#x)" fill="#fff"/><defs><path id="y" d="M0 0h141.7v19.1H0z"/></defs><clipPath id="z"><use xlink:href="#y" overflow="visible"/></clipPath><path d="M14.5 8.1c.4 0 .7-.3.7-.6 0-.4-.3-.6-.7-.6s-.7.3-.7.6c0 .4.3.6.7.6" clip-path="url(#z)" fill="#fff"/><defs><path id="A" d="M0 0h141.7v19.1H0z"/></defs><clipPath id="B"><use xlink:href="#A" overflow="visible"/></clipPath><path d="M5.7 8.1c.4 0 .7-.3.7-.6 0-.4-.3-.6-.7-.6-.4 0-.7.2-.7.6s.3.6.7.6" clip-path="url(#B)" fill="#fff"/><defs><path id="C" d="M0 0h141.7v19.1H0z"/></defs><clipPath id="D"><use xlink:href="#C" overflow="visible"/></clipPath><path d="M18.9 10.4c.5 0 .9-.4.9-.8s-.4-.8-.9-.8-.9.3-.9.8.4.8.9.8" clip-path="url(#D)" fill="#fff"/><defs><path id="E" d="M0 0h141.7v19.1H0z"/></defs><clipPath id="F"><use xlink:href="#E" overflow="visible"/></clipPath><path d="M14.5 16.6c.5 0 .9-.4.9-.8s-.4-.8-.9-.8-.9.4-.9.8.4.8.9.8" clip-path="url(#F)" fill="#fff"/><defs><path id="G" d="M0 0h141.7v19.1H0z"/></defs><clipPath id="H"><use xlink:href="#G" overflow="visible"/></clipPath><path d="M5.7 16.6c.5 0 .9-.4.9-.8s-.4-.8-.9-.8-.9.4-.9.8.4.8.9.8" clip-path="url(#H)" fill="#fff"/><defs><path id="I" d="M0 0h141.7v19.1H0z"/></defs><clipPath id="J"><use xlink:href="#I" overflow="visible"/></clipPath><path d="M14.5 12.3c.4 0 .7-.3.7-.6 0-.4-.3-.6-.7-.6s-.7.3-.7.6.3.6.7.6" clip-path="url(#J)" fill="#fff"/><defs><path id="K" d="M0 0h141.7v19.1H0z"/></defs><clipPath id="L"><use xlink:href="#K" overflow="visible"/></clipPath><path d="M10.1 14.4c.4 0 .7-.3.7-.6 0-.4-.3-.6-.7-.6-.4 0-.7.3-.7.6s.3.6.7.6" clip-path="url(#L)" fill="#fff"/><defs><path id="M" d="M0 0h141.7v19.1H0z"/></defs><clipPath id="N"><use xlink:href="#M" overflow="visible"/></clipPath><path d="M57 8.4c.5 0 .9.2 1.3.4.3.3.5.7.6 1.2h-3.8c.1-.5.3-.9.6-1.2.4-.2.8-.4 1.3-.4m3.4 2.2c0-.7-.2-1.3-.4-1.8-.3-.5-.7-.9-1.2-1.2s-1.2-.4-1.8-.4-1.3.2-1.8.4c-.5.3-.9.7-1.2 1.2-.3.5-.4 1.1-.4 1.7s.2 1.3.4 1.7c.3.5.7.9 1.3 1.2.6.3 1.2.4 1.9.4.6 0 1.1-.1 1.5-.3.4-.2.9-.4 1.1-.8l-.9-1c-.5.5-1.1.7-1.8.7-.6 0-1.1-.2-1.4-.4-.4-.3-.6-.7-.7-1.2h5.2c.2.1.2-.1.2-.2m-7.3 1.8c-.2.2-.5.3-.9.3-.3 0-.5-.1-.7-.2-.2-.2-.2-.4-.2-.7V8.6h1.8V7.3h-1.7V5.8h-1.5v1.5h-1.1v1.3h1.1v3.2c0 .7.2 1.3.6 1.7.4.4 1 .6 1.7.6.3 0 .6 0 .8-.1.2-.1.5-.2.6-.3l-.5-1.3zM47 6.2c.3 0 .5-.1.7-.3.2-.2.3-.4.3-.7 0-.2-.1-.5-.3-.6-.2-.2-.4-.2-.7-.2s-.5.1-.7.3c-.2 0-.3.3-.3.5 0 .3.1.5.3.6.2.2.4.4.7.4m-.8 7.7h1.5V7.3h-1.5v6.6zm-3.8-6.7c-.5 0-.9.1-1.3.2-.4.2-.7.4-1 .7v-.8h-1.5v6.6h1.5v-3.4c0-.6.2-1.1.5-1.5.3-.4.8-.5 1.4-.5.5 0 .9.2 1.2.4.3.3.4.7.4 1.3v3.6h1.5V10c0-1-.2-1.7-.8-2.2-.4-.4-1-.6-1.9-.6m-8.3 5.1c-.6 0-1.1-.2-1.5-.5-.4-.4-.6-.8-.6-1.4s.2-1 .6-1.3c.4-.4.9-.5 1.5-.5s1.1.2 1.5.5c.4.4.6.8.6 1.3 0 .6-.2 1-.6 1.4s-.9.5-1.5.5m2.1-5v.9c-.3-.3-.6-.6-1-.7-.4-.2-.9-.2-1.3-.2-.6 0-1.2.1-1.7.4-.5.3-.9.6-1.2 1.1-.3.5-.4 1.1-.4 1.7 0 .6.2 1.2.4 1.7.3.5.7.9 1.2 1.1.5.3 1.1.4 1.7.4.4 0 .9-.1 1.3-.2.4-.2.7-.4 1-.6v.4c0 .7-.2 1.2-.5 1.5-.3.3-.9.5-1.6.5-.4 0-.9-.1-1.3-.2-.4-.2-.8-.3-1.1-.6l-.7 1.2c.4.3.9.5 1.4.7.6.2 1.2.2 1.8.2 2.4 0 3.6-1.2 3.6-3.5V7.3h-1.6zm-7.9 6.6h1.6V5.2h-1.6v8.7z" clip-path="url(#N)" fill="#fff"/><defs><path id="O" d="M0 0h141.7v19.1H0z"/></defs><clipPath id="P"><use xlink:href="#O" overflow="visible"/></clipPath><path d="M141.3 12.4c-.2.2-.5.3-.9.3-.3 0-.5-.1-.7-.2-.2-.2-.2-.4-.2-.7V8.6h1.8V7.3h-1.8V5.8H138v1.5h-1.1v1.3h1.1v3.2c0 .7.2 1.3.6 1.7.4.4 1 .6 1.7.6.3 0 .6 0 .8-.1.2-.1.5-.2.6-.3l-.4-1.3zm-7.6-5.2c-.5 0-.9.1-1.3.2-.4.2-.7.4-1 .7v-.8h-1.5v6.6h1.5v-3.4c0-.6.2-1.1.5-1.5.3-.4.8-.5 1.3-.5s.9.2 1.2.4c.3.3.4.7.4 1.3v3.6h1.5V10c0-1-.2-1.7-.8-2.2-.3-.4-.9-.6-1.8-.6m-8.1 1.2c.5 0 .9.2 1.3.4.3.3.5.7.6 1.2h-3.8c.1-.5.3-.9.6-1.2.4-.2.7-.4 1.3-.4m3.3 2.2c0-.7-.2-1.3-.4-1.8-.3-.5-.7-.9-1.2-1.2-.5-.3-1.1-.4-1.7-.4-.6 0-1.3.2-1.8.4-.5.3-.9.7-1.2 1.2-.3.5-.4 1.1-.4 1.7s.2 1.3.4 1.7c.3.5.7.9 1.3 1.2.6.3 1.2.4 1.9.4.6 0 1.1-.1 1.5-.3.4-.2.9-.4 1.1-.8l-.9-1c-.5.5-1.1.7-1.8.7-.6 0-1.1-.2-1.4-.4-.4-.3-.6-.7-.7-1.2h5.2c.1.1.1-.1.1-.2m-10.5-3.4c-.5 0-1 .1-1.4.3-.4.2-.8.5-1.1.8-.2-.4-.5-.6-.9-.8-.4-.2-.8-.3-1.3-.3-.4 0-.9.1-1.3.2-.4.2-.7.4-.9.7v-.8H110v6.6h1.5v-3.4c0-.6.2-1.1.5-1.5.3-.3.7-.5 1.3-.5.5 0 .9.2 1.1.4.2.3.4.7.4 1.3v3.6h1.5v-3.4c0-.6.2-1.1.5-1.5.3-.4.7-.5 1.3-.5.5 0 .9.2 1.1.4.2.3.4.7.4 1.3v3.6h1.5V9.9c0-1-.2-1.7-.7-2.2-.5-.3-1.1-.5-2-.5m-12.7 1.2c.5 0 .9.2 1.3.4.3.3.5.7.6 1.2h-3.8c.1-.5.3-.9.6-1.2.4-.2.7-.4 1.3-.4m3.3 2.2c0-.7-.2-1.3-.4-1.8-.3-.5-.7-.9-1.2-1.2-.5-.3-1.1-.4-1.7-.4-.6 0-1.3.2-1.8.4-.5.3-.9.7-1.2 1.2-.3.5-.4 1.1-.4 1.7s.2 1.3.4 1.7c.3.5.7.9 1.3 1.2.6.3 1.2.4 1.9.4.6 0 1.1-.1 1.5-.3.4-.2.9-.4 1.1-.8l-.9-1c-.5.5-1.1.7-1.8.7-.6 0-1.1-.2-1.4-.4-.4-.3-.6-.7-.7-1.2h5.2c.1.1.1-.1.1-.2m-9.7-2.4v-1h-1.5v6.6h1.5v-3.2c0-.6.2-1.2.5-1.5.3-.4.8-.5 1.4-.5h.4V7.1c-1.1.1-1.8.4-2.3 1.1m-4-.9v3.4c0 .6-.2 1.1-.5 1.5-.3.4-.8.5-1.3.5s-.9-.2-1.1-.4c-.3-.3-.4-.7-.4-1.3V7.3h-1.5v3.8c0 1 .2 1.7.8 2.2.5.5 1.2.7 2.1.7.4 0 .9-.1 1.2-.2.4-.2.7-.4.9-.7v.9H97V7.3h-1.7zM86.5 14c.6 0 1.2-.1 1.7-.4.5-.3.9-.6 1.1-1.1l-1.2-.7c-.2.3-.4.5-.7.7-.3.2-.6.2-.9.2-.6 0-1.1-.2-1.5-.6-.4-.4-.6-.9-.6-1.5s.2-1.1.6-1.5.9-.6 1.5-.6c.3 0 .6.1.9.2.3.3.6.5.8.8l1.2-.7c-.2-.5-.6-.9-1.1-1.1-.5-.3-1.1-.4-1.7-.4-.7 0-1.3.2-1.9.4-.5.3-1 .7-1.3 1.2-.3.5-.4 1.1-.4 1.7s.2 1.3.4 1.7c.3.5.7.9 1.3 1.2.5.4 1.1.5 1.8.5m-7.6-1.3c-.6 0-1.1-.2-1.4-.6s-.6-.9-.6-1.5.2-1.1.6-1.5.9-.6 1.4-.6c.6 0 1.1.2 1.4.6.4.4.6.9.6 1.5s-.2 1.1-.6 1.5c-.3.4-.8.6-1.4.6m0 1.3c.7 0 1.3-.2 1.8-.4.5-.3 1-.7 1.3-1.2.3-.5.4-1.1.4-1.7s-.1-1.4-.4-1.9c-.3-.5-.7-.9-1.3-1.2s-1.1-.4-1.8-.4-1.3.2-1.8.4c-.5.3-1 .7-1.3 1.2-.3.5-.4 1.1-.4 1.7s.2 1.3.4 1.7c.3.5.7.9 1.3 1.2.5.5 1.1.6 1.8.6m-6.4-5.8v-1H71v6.6h1.5v-3.2c0-.6.2-1.2.5-1.5.3-.4.8-.5 1.4-.5h.4V7.1c-1.1.1-1.8.4-2.3 1.1M66.3 10h-1.9V6.6h1.9c.7 0 1.3.2 1.6.4.4.3.6.7.6 1.3s-.2 1-.6 1.3c-.4.3-.9.4-1.6.4m.1-4.8h-3.6v8.7h1.6v-2.5h2c.8 0 1.4-.1 2-.4.6-.2 1-.6 1.3-1.1.3-.5.4-1 .4-1.7s-.1-1.1-.4-1.6c-.3-.4-.7-.8-1.3-1.1-.6-.2-1.3-.3-2-.3" clip-path="url(#P)" fill="#fff"/><defs><path id="Q" d="M0 0h141.7v19.1H0z"/></defs><clipPath id="R"><use xlink:href="#Q" overflow="visible"/></clipPath><path d="M47 6.6c.7 0 1.3-.6 1.3-1.3 0-.7-.6-1.3-1.3-1.3-.7 0-1.3.6-1.3 1.3 0 .8.6 1.3 1.3 1.3" clip-path="url(#R)" fill="#e9435e"/></svg>