<?xml version="1.0" encoding="utf-8"?>
<!-- Generator: Adobe Illustrator 23.0.2, SVG Export Plug-In . SVG Version: 6.00 Build 0)  -->
<svg version="1.1" id="Layer_1" xmlns="http://www.w3.org/2000/svg" xmlns:xlink="http://www.w3.org/1999/xlink" x="0px" y="0px"
	 viewBox="0 0 141.2 48.2" style="enable-background:new 0 0 141.2 48.2;" xml:space="preserve">
<style type="text/css">
	.st0{clip-path:url(#SVGID_2_);fill:#18243F;}
	.st1{clip-path:url(#SVGID_4_);fill:#18243F;}
	.st2{clip-path:url(#SVGID_6_);fill:#18243F;}
	.st3{clip-path:url(#SVGID_8_);fill:#18243F;}
	.st4{clip-path:url(#SVGID_10_);fill:#18243F;}
	.st5{clip-path:url(#SVGID_12_);fill:#18243F;}
	.st6{clip-path:url(#SVGID_14_);fill:#18243F;}
	.st7{clip-path:url(#SVGID_16_);fill:#E9435E;}
	.st8{clip-path:url(#SVGID_18_);fill:#18243F;}
	.st9{clip-path:url(#SVGID_20_);fill:#18243F;}
	.st10{clip-path:url(#SVGID_22_);fill:#18243F;}
	.st11{clip-path:url(#SVGID_24_);fill:#18243F;}
	.st12{clip-path:url(#SVGID_26_);fill:#18243F;}
	.st13{clip-path:url(#SVGID_28_);fill:#18243F;}
	.st14{clip-path:url(#SVGID_30_);fill:#18243F;}
	.st15{clip-path:url(#SVGID_32_);fill:#18243F;}
	.st16{clip-path:url(#SVGID_34_);fill:#18243F;}
	.st17{clip-path:url(#SVGID_36_);fill:#18243F;}
	.st18{clip-path:url(#SVGID_38_);fill:#18243F;}
	.st19{clip-path:url(#SVGID_40_);fill:#18243F;}
	.st20{clip-path:url(#SVGID_42_);fill:#18243F;}
	.st21{clip-path:url(#SVGID_44_);fill:#E9435E;}
</style>
<g>
	<g>
		<defs>
			<rect id="SVGID_1_" width="141.7" height="48.2"/>
		</defs>
		<clipPath id="SVGID_2_">
			<use xlink:href="#SVGID_1_"  style="overflow:visible;"/>
		</clipPath>
		<path class="st0" d="M76.4,5.2c0.6,0,1.1-0.5,1.1-1c0-0.6-0.5-1-1.1-1s-1.1,0.5-1.1,1S75.8,5.2,76.4,5.2"/>
	</g>
	<g>
		<defs>
			<rect id="SVGID_3_" width="141.7" height="48.2"/>
		</defs>
		<clipPath id="SVGID_4_">
			<use xlink:href="#SVGID_3_"  style="overflow:visible;"/>
		</clipPath>
		<path class="st1" d="M65.4,5.2c0.6,0,1.1-0.5,1.1-1c0-0.6-0.5-1-1.1-1s-1.1,0.5-1.1,1S64.8,5.2,65.4,5.2"/>
	</g>
	<g>
		<defs>
			<rect id="SVGID_5_" width="141.7" height="48.2"/>
		</defs>
		<clipPath id="SVGID_6_">
			<use xlink:href="#SVGID_5_"  style="overflow:visible;"/>
		</clipPath>
		<path class="st2" d="M59.9,12.9c0.6,0,1.1-0.5,1.1-1c0-0.6-0.5-1-1.1-1s-1.1,0.5-1.1,1C58.8,12.5,59.3,12.9,59.9,12.9"/>
	</g>
	<g>
		<defs>
			<rect id="SVGID_7_" width="141.7" height="48.2"/>
		</defs>
		<clipPath id="SVGID_8_">
			<use xlink:href="#SVGID_7_"  style="overflow:visible;"/>
		</clipPath>
		<path class="st3" d="M70.9,23.8c0.9,0,1.6-0.7,1.6-1.6c0-0.9-0.7-1.6-1.6-1.6c-0.9,0-1.6,0.7-1.6,1.6
			C69.2,23.1,69.9,23.8,70.9,23.8"/>
	</g>
	<g>
		<defs>
			<rect id="SVGID_9_" width="141.7" height="48.2"/>
		</defs>
		<clipPath id="SVGID_10_">
			<use xlink:href="#SVGID_9_"  style="overflow:visible;"/>
		</clipPath>
		<path class="st4" d="M70.9,13.5c0.9,0,1.6-0.7,1.6-1.6s-0.7-1.6-1.6-1.6c-0.9,0-1.6,0.7-1.6,1.6S69.9,13.5,70.9,13.5"/>
	</g>
	<g>
		<defs>
			<rect id="SVGID_11_" width="141.7" height="48.2"/>
		</defs>
		<clipPath id="SVGID_12_">
			<use xlink:href="#SVGID_11_"  style="overflow:visible;"/>
		</clipPath>
		<path class="st5" d="M59.9,8.3c0.9,0,1.6-0.7,1.6-1.6s-0.7-1.6-1.6-1.6s-1.6,0.7-1.6,1.6S59,8.3,59.9,8.3"/>
	</g>
	<g>
		<defs>
			<rect id="SVGID_13_" width="141.7" height="48.2"/>
		</defs>
		<clipPath id="SVGID_14_">
			<use xlink:href="#SVGID_13_"  style="overflow:visible;"/>
		</clipPath>
		<path class="st6" d="M59.9,18.6c0.9,0,1.6-0.7,1.6-1.6c0-0.9-0.7-1.6-1.6-1.6s-1.6,0.7-1.6,1.6C58.3,17.9,59,18.6,59.9,18.6"/>
	</g>
	<g>
		<defs>
			<rect id="SVGID_15_" width="141.7" height="48.2"/>
		</defs>
		<clipPath id="SVGID_16_">
			<use xlink:href="#SVGID_15_"  style="overflow:visible;"/>
		</clipPath>
		<path class="st7" d="M81.9,8.3c0.9,0,1.6-0.7,1.6-1.6s-0.7-1.6-1.6-1.6c-0.9,0-1.6,0.7-1.6,1.6S80.9,8.3,81.9,8.3"/>
	</g>
	<g>
		<defs>
			<rect id="SVGID_17_" width="141.7" height="48.2"/>
		</defs>
		<clipPath id="SVGID_18_">
			<use xlink:href="#SVGID_17_"  style="overflow:visible;"/>
		</clipPath>
		<path class="st8" d="M81.9,18.6c0.9,0,1.6-0.7,1.6-1.6c0-0.9-0.7-1.6-1.6-1.6c-0.9,0-1.6,0.7-1.6,1.6
			C80.2,17.9,80.9,18.6,81.9,18.6"/>
	</g>
	<g>
		<defs>
			<rect id="SVGID_19_" width="141.7" height="48.2"/>
		</defs>
		<clipPath id="SVGID_20_">
			<use xlink:href="#SVGID_19_"  style="overflow:visible;"/>
		</clipPath>
		<path class="st9" d="M70.9,3.1c0.9,0,1.6-0.7,1.6-1.6S71.8,0,70.9,0c-0.9,0-1.6,0.7-1.6,1.6S69.9,3.1,70.9,3.1"/>
	</g>
	<g>
		<defs>
			<rect id="SVGID_21_" width="141.7" height="48.2"/>
		</defs>
		<clipPath id="SVGID_22_">
			<use xlink:href="#SVGID_21_"  style="overflow:visible;"/>
		</clipPath>
		<path class="st10" d="M65.4,15.3c0.5,0,0.9-0.4,0.9-0.8c0-0.5-0.4-0.8-0.9-0.8s-0.9,0.4-0.9,0.8C64.5,15,64.9,15.3,65.4,15.3"/>
	</g>
	<g>
		<defs>
			<rect id="SVGID_23_" width="141.7" height="48.2"/>
		</defs>
		<clipPath id="SVGID_24_">
			<use xlink:href="#SVGID_23_"  style="overflow:visible;"/>
		</clipPath>
		<path class="st11" d="M70.9,7.5c0.5,0,0.9-0.4,0.9-0.8c0-0.5-0.4-0.8-0.9-0.8S70,6.3,70,6.7C70,7.2,70.4,7.5,70.9,7.5"/>
	</g>
	<g>
		<defs>
			<rect id="SVGID_25_" width="141.7" height="48.2"/>
		</defs>
		<clipPath id="SVGID_26_">
			<use xlink:href="#SVGID_25_"  style="overflow:visible;"/>
		</clipPath>
		<path class="st12" d="M76.4,10.1c0.5,0,0.9-0.4,0.9-0.8s-0.4-0.8-0.9-0.8s-0.9,0.4-0.9,0.8S75.9,10.1,76.4,10.1"/>
	</g>
	<g>
		<defs>
			<rect id="SVGID_27_" width="141.7" height="48.2"/>
		</defs>
		<clipPath id="SVGID_28_">
			<use xlink:href="#SVGID_27_"  style="overflow:visible;"/>
		</clipPath>
		<path class="st13" d="M65.4,10.1c0.5,0,0.9-0.4,0.9-0.8s-0.4-0.8-0.9-0.8s-0.9,0.4-0.9,0.8C64.5,9.8,64.9,10.1,65.4,10.1"/>
	</g>
	<g>
		<defs>
			<rect id="SVGID_29_" width="141.7" height="48.2"/>
		</defs>
		<clipPath id="SVGID_30_">
			<use xlink:href="#SVGID_29_"  style="overflow:visible;"/>
		</clipPath>
		<path class="st14" d="M81.9,12.9c0.6,0,1.1-0.5,1.1-1c0-0.6-0.5-1-1.1-1s-1.1,0.5-1.1,1C80.8,12.5,81.2,12.9,81.9,12.9"/>
	</g>
	<g>
		<defs>
			<rect id="SVGID_31_" width="141.7" height="48.2"/>
		</defs>
		<clipPath id="SVGID_32_">
			<use xlink:href="#SVGID_31_"  style="overflow:visible;"/>
		</clipPath>
		<path class="st15" d="M76.4,20.7c0.6,0,1.1-0.5,1.1-1s-0.5-1-1.1-1s-1.1,0.5-1.1,1S75.8,20.7,76.4,20.7"/>
	</g>
	<g>
		<defs>
			<rect id="SVGID_33_" width="141.7" height="48.2"/>
		</defs>
		<clipPath id="SVGID_34_">
			<use xlink:href="#SVGID_33_"  style="overflow:visible;"/>
		</clipPath>
		<path class="st16" d="M65.4,20.7c0.6,0,1.1-0.5,1.1-1s-0.5-1-1.1-1s-1.1,0.5-1.1,1S64.8,20.7,65.4,20.7"/>
	</g>
	<g>
		<defs>
			<rect id="SVGID_35_" width="141.7" height="48.2"/>
		</defs>
		<clipPath id="SVGID_36_">
			<use xlink:href="#SVGID_35_"  style="overflow:visible;"/>
		</clipPath>
		<path class="st17" d="M76.4,15.3c0.5,0,0.9-0.4,0.9-0.8c0-0.5-0.4-0.8-0.9-0.8s-0.9,0.4-0.9,0.8C75.5,15,75.9,15.3,76.4,15.3"/>
	</g>
	<g>
		<defs>
			<rect id="SVGID_37_" width="141.7" height="48.2"/>
		</defs>
		<clipPath id="SVGID_38_">
			<use xlink:href="#SVGID_37_"  style="overflow:visible;"/>
		</clipPath>
		<path class="st18" d="M70.9,17.9c0.5,0,0.9-0.4,0.9-0.8s-0.4-0.8-0.9-0.8S70,16.6,70,17.1S70.4,17.9,70.9,17.9"/>
	</g>
	<g>
		<defs>
			<rect id="SVGID_39_" width="141.7" height="48.2"/>
		</defs>
		<clipPath id="SVGID_40_">
			<use xlink:href="#SVGID_39_"  style="overflow:visible;"/>
		</clipPath>
		<path class="st19" d="M35.9,38.2c0.6,0,1.2,0.2,1.6,0.6c0.4,0.4,0.7,0.9,0.8,1.5h-4.7c0.1-0.6,0.4-1.1,0.8-1.5
			C34.8,38.3,35.3,38.2,35.9,38.2 M40.1,40.9c0-0.9-0.2-1.6-0.5-2.3c-0.4-0.6-0.9-1.2-1.5-1.5c-0.6-0.4-1.3-0.5-2.2-0.5
			s-1.6,0.2-2.2,0.5c-0.6,0.4-1.2,0.9-1.5,1.5c-0.4,0.6-0.6,1.4-0.6,2.2s0.2,1.6,0.6,2.2c0.4,0.6,0.9,1.2,1.6,1.5
			c0.7,0.4,1.5,0.5,2.4,0.5c0.7,0,1.3-0.1,1.9-0.4c0.6-0.2,1-0.6,1.4-1l-1-1.2c-0.6,0.6-1.3,0.9-2.3,0.9c-0.7,0-1.3-0.2-1.8-0.5
			c-0.5-0.4-0.8-0.9-0.9-1.5h6.5C40.1,41.2,40.1,41,40.1,40.9 M31,43.2c-0.3,0.2-0.6,0.4-1.1,0.4c-0.4,0-0.7-0.1-0.9-0.3
			c-0.2-0.2-0.3-0.5-0.3-0.9v-4H31v-1.6h-2.2v-1.9h-1.9v1.9h-1.4v1.6h1.4v4c0,0.9,0.2,1.6,0.7,2.1c0.5,0.5,1.2,0.7,2.1,0.7
			c0.4,0,0.7,0,1-0.1c0.3-0.1,0.6-0.2,0.9-0.4L31,43.2z M23.4,35.3c0.4,0,0.7-0.1,0.9-0.4c0.2-0.2,0.4-0.5,0.4-0.9
			c0-0.3-0.1-0.6-0.4-0.8C24,33.1,23.7,33,23.4,33c-0.4,0-0.6,0.1-0.9,0.3s-0.4,0.5-0.4,0.9s0.1,0.6,0.4,0.8
			C22.7,35.2,23,35.3,23.4,35.3 M22.4,45h1.9v-8.3h-1.9V45z M17.6,36.6c-0.6,0-1.2,0.1-1.7,0.3c-0.5,0.2-0.9,0.5-1.2,0.9v-1.1h-1.8
			V45h1.9v-4.2c0-0.8,0.2-1.4,0.6-1.9c0.4-0.4,1-0.6,1.7-0.6c0.6,0,1.1,0.2,1.5,0.6c0.4,0.4,0.5,0.9,0.5,1.6V45h1.9v-4.7
			c0-1.2-0.3-2.1-1-2.7C19.5,36.9,18.7,36.6,17.6,36.6 M7.3,43c-0.7,0-1.3-0.2-1.8-0.7c-0.5-0.4-0.7-1-0.7-1.7
			c0-0.7,0.2-1.3,0.7-1.7c0.5-0.4,1.1-0.6,1.8-0.6c0.7,0,1.3,0.2,1.8,0.6c0.5,0.4,0.7,1,0.7,1.7c0,0.7-0.2,1.3-0.7,1.7
			C8.6,42.8,8,43,7.3,43 M9.9,36.7v1.1c-0.3-0.4-0.7-0.7-1.2-0.9c-0.5-0.2-1-0.3-1.6-0.3c-0.8,0-1.5,0.2-2.1,0.5
			c-0.6,0.3-1.1,0.8-1.5,1.4c-0.4,0.6-0.6,1.3-0.6,2.1s0.2,1.5,0.6,2.1c0.4,0.6,0.9,1.1,1.5,1.4c0.6,0.4,1.3,0.5,2.1,0.5
			c0.6,0,1.1-0.1,1.6-0.3s0.9-0.5,1.2-0.8V44c0,0.9-0.2,1.5-0.6,1.9c-0.4,0.4-1.1,0.6-2,0.6c-0.6,0-1.1-0.1-1.7-0.3s-1-0.4-1.4-0.7
			L3.1,47c0.5,0.4,1.1,0.7,1.8,0.9s1.5,0.3,2.3,0.3c3,0,4.5-1.5,4.5-4.4v-7.1L9.9,36.7L9.9,36.7z M0,45h2V34.1H0V45z"/>
	</g>
	<g>
		<defs>
			<rect id="SVGID_41_" width="141.7" height="48.2"/>
		</defs>
		<clipPath id="SVGID_42_">
			<use xlink:href="#SVGID_41_"  style="overflow:visible;"/>
		</clipPath>
		<path class="st20" d="M141.2,43.2c-0.3,0.2-0.6,0.4-1.1,0.4c-0.4,0-0.7-0.1-0.9-0.3c-0.2-0.2-0.3-0.5-0.3-0.9v-4h2.2v-1.6H139
			v-1.9H137v1.9h-1.4v1.6h1.4v4c0,0.9,0.2,1.6,0.7,2.1c0.5,0.5,1.2,0.7,2.1,0.7c0.4,0,0.7,0,1-0.1c0.3-0.1,0.6-0.2,0.9-0.4
			L141.2,43.2z M131.7,36.6c-0.6,0-1.2,0.1-1.7,0.3c-0.5,0.2-0.9,0.5-1.2,0.9v-1.1H127V45h1.9v-4.2c0-0.8,0.2-1.4,0.6-1.9
			c0.4-0.4,1-0.6,1.7-0.6c0.6,0,1.1,0.2,1.5,0.6c0.4,0.4,0.5,0.9,0.5,1.6V45h1.9v-4.7c0-1.2-0.3-2.1-1-2.7
			C133.6,36.9,132.7,36.6,131.7,36.6 M121.5,38.2c0.6,0,1.2,0.2,1.6,0.6c0.4,0.4,0.7,0.9,0.8,1.5h-4.7c0.1-0.6,0.4-1.1,0.8-1.5
			C120.4,38.3,120.9,38.2,121.5,38.2 M125.7,40.9c0-0.9-0.2-1.6-0.5-2.3c-0.4-0.6-0.9-1.2-1.5-1.5c-0.6-0.4-1.3-0.5-2.2-0.5
			c-0.8,0-1.6,0.2-2.2,0.5c-0.6,0.4-1.2,0.9-1.5,1.5c-0.4,0.6-0.6,1.4-0.6,2.2s0.2,1.6,0.6,2.2c0.4,0.6,0.9,1.2,1.6,1.5
			c0.7,0.4,1.5,0.5,2.4,0.5c0.7,0,1.3-0.1,1.9-0.4c0.6-0.2,1-0.6,1.4-1l-1-1.2c-0.6,0.6-1.3,0.9-2.3,0.9c-0.7,0-1.3-0.2-1.8-0.5
			c-0.5-0.4-0.8-0.9-0.9-1.5h6.5C125.7,41.2,125.7,41,125.7,40.9 M112.6,36.6c-0.6,0-1.2,0.1-1.8,0.4c-0.5,0.2-1,0.6-1.3,1
			c-0.3-0.5-0.7-0.8-1.1-1c-0.5-0.2-1-0.4-1.7-0.4c-0.6,0-1.1,0.1-1.6,0.3c-0.5,0.2-0.9,0.5-1.2,0.9v-1.1h-1.8V45h1.9v-4.2
			c0-0.8,0.2-1.4,0.6-1.8c0.4-0.4,0.9-0.6,1.6-0.6c0.6,0,1.1,0.2,1.4,0.6c0.3,0.4,0.5,0.9,0.5,1.6V45h1.9v-4.2
			c0-0.8,0.2-1.4,0.6-1.8c0.4-0.4,0.9-0.6,1.6-0.6c0.6,0,1.1,0.2,1.4,0.6c0.3,0.4,0.5,0.9,0.5,1.6V45h1.9v-4.7
			c0-1.2-0.3-2.1-0.9-2.7C114.5,36.9,113.6,36.6,112.6,36.6 M96.6,38.2c0.6,0,1.2,0.2,1.6,0.6s0.7,0.9,0.8,1.5h-4.7
			c0.1-0.6,0.4-1.1,0.8-1.5C95.5,38.3,96,38.2,96.6,38.2 M100.8,40.9c0-0.9-0.2-1.6-0.5-2.3c-0.4-0.6-0.9-1.2-1.5-1.5
			c-0.6-0.4-1.3-0.5-2.2-0.5c-0.8,0-1.6,0.2-2.2,0.5c-0.6,0.4-1.2,0.9-1.5,1.5c-0.4,0.6-0.6,1.4-0.6,2.2s0.2,1.6,0.6,2.2
			c0.4,0.6,0.9,1.2,1.6,1.5c0.7,0.4,1.5,0.5,2.4,0.5c0.7,0,1.3-0.1,1.9-0.4c0.6-0.2,1-0.6,1.4-1l-1-1.2c-0.6,0.6-1.3,0.9-2.3,0.9
			c-0.7,0-1.3-0.2-1.8-0.5c-0.5-0.4-0.8-0.9-0.9-1.5h6.5C100.8,41.2,100.8,41,100.8,40.9 M88.7,37.9v-1.2h-1.8V45h1.9v-4
			c0-0.8,0.2-1.5,0.6-1.9c0.4-0.4,1-0.7,1.8-0.7c0.1,0,0.3,0,0.5,0v-1.8C90.3,36.6,89.3,37.1,88.7,37.9 M83.7,36.7v4.2
			c0,0.8-0.2,1.4-0.6,1.9c-0.4,0.5-1,0.6-1.7,0.6c-0.6,0-1.1-0.2-1.5-0.6c-0.4-0.4-0.5-0.9-0.5-1.7v-4.5h-1.9v4.7
			c0,1.2,0.3,2.1,1,2.8c0.6,0.6,1.5,0.9,2.6,0.9c0.5,0,1-0.1,1.5-0.3c0.5-0.2,0.9-0.5,1.2-0.9V45h1.8v-8.3L83.7,36.7L83.7,36.7z
			 M72.7,45.1c0.8,0,1.5-0.2,2.1-0.5c0.6-0.4,1.1-0.8,1.4-1.5l-1.5-0.9c-0.2,0.4-0.5,0.7-0.9,0.9c-0.4,0.2-0.7,0.3-1.2,0.3
			c-0.7,0-1.3-0.2-1.8-0.7c-0.5-0.5-0.7-1.1-0.7-1.9c0-0.8,0.2-1.4,0.7-1.9c0.5-0.5,1.1-0.7,1.8-0.7c0.4,0,0.8,0.1,1.2,0.3
			c0.4,0.2,0.7,0.5,0.9,0.9l1.5-0.9c-0.3-0.6-0.8-1.1-1.4-1.4c-0.6-0.3-1.3-0.5-2.2-0.5c-0.9,0-1.7,0.2-2.3,0.5
			c-0.7,0.4-1.2,0.9-1.6,1.5c-0.4,0.6-0.6,1.4-0.6,2.2c0,0.8,0.2,1.6,0.6,2.2c0.4,0.6,0.9,1.2,1.6,1.5C71.1,45,71.9,45.1,72.7,45.1
			 M63.3,43.5c-0.7,0-1.3-0.2-1.8-0.7c-0.5-0.5-0.7-1.1-0.7-1.9c0-0.8,0.2-1.4,0.7-1.9c0.5-0.5,1.1-0.7,1.8-0.7s1.3,0.2,1.8,0.7
			c0.5,0.5,0.7,1.1,0.7,1.9c0,0.8-0.2,1.4-0.7,1.9S64,43.5,63.3,43.5 M63.3,45.1c0.9,0,1.6-0.2,2.3-0.5c0.7-0.4,1.2-0.9,1.6-1.5
			c0.4-0.6,0.6-1.4,0.6-2.2c0-0.8-0.2-1.6-0.6-2.2c-0.4-0.6-0.9-1.1-1.6-1.5c-0.7-0.4-1.5-0.5-2.3-0.5s-1.6,0.2-2.3,0.5
			c-0.7,0.4-1.2,0.9-1.6,1.5c-0.4,0.6-0.6,1.4-0.6,2.2c0,0.8,0.2,1.6,0.6,2.2c0.4,0.6,0.9,1.2,1.6,1.5C61.7,45,62.4,45.1,63.3,45.1
			 M55.2,37.9v-1.2h-1.8V45h1.9v-4c0-0.8,0.2-1.5,0.6-1.9c0.4-0.4,1-0.7,1.8-0.7c0.1,0,0.3,0,0.5,0v-1.8
			C56.8,36.6,55.8,37.1,55.2,37.9 M47.5,40.1h-2.4v-4.3h2.4c0.9,0,1.6,0.2,2,0.6s0.7,0.9,0.7,1.6c0,0.7-0.2,1.2-0.7,1.6
			C49.1,40,48.4,40.1,47.5,40.1 M47.6,34.1h-4.5V45h2v-3.2h2.4c1,0,1.8-0.1,2.5-0.5c0.7-0.3,1.2-0.7,1.6-1.3
			c0.4-0.6,0.6-1.3,0.6-2.1c0-0.8-0.2-1.5-0.6-2.1c-0.4-0.6-0.9-1-1.6-1.3C49.4,34.3,48.5,34.1,47.6,34.1"/>
	</g>
	<g>
		<defs>
			<rect id="SVGID_43_" width="141.7" height="48.2"/>
		</defs>
		<clipPath id="SVGID_44_">
			<use xlink:href="#SVGID_43_"  style="overflow:visible;"/>
		</clipPath>
		<path class="st21" d="M23.4,36c0.9,0,1.6-0.7,1.6-1.6c0-0.9-0.7-1.6-1.6-1.6c-0.9,0-1.6,0.7-1.6,1.6C21.7,35.3,22.5,36,23.4,36"/>
	</g>
</g>
</svg>
