<?xml version="1.0" encoding="utf-8"?>
<!-- Generator: Adobe Illustrator 23.0.2, SVG Export Plug-In . SVG Version: 6.00 Build 0)  -->
<svg version="1.1" id="Layer_1" xmlns="http://www.w3.org/2000/svg" xmlns:xlink="http://www.w3.org/1999/xlink" x="0px" y="0px"
	 viewBox="0 0 141.7 19.1" style="enable-background:new 0 0 141.7 19.1;" xml:space="preserve">
<style type="text/css">
	.st0{clip-path:url(#SVGID_2_);fill:#FFFFFF;}
	.st1{clip-path:url(#SVGID_4_);fill:#FFFFFF;}
	.st2{clip-path:url(#SVGID_6_);fill:#FFFFFF;}
	.st3{clip-path:url(#SVGID_8_);fill:#FFFFFF;}
	.st4{clip-path:url(#SVGID_10_);fill:#FFFFFF;}
	.st5{clip-path:url(#SVGID_12_);fill:#FFFFFF;}
	.st6{clip-path:url(#SVGID_14_);fill:#FFFFFF;}
	.st7{clip-path:url(#SVGID_16_);fill:#E9435E;}
	.st8{clip-path:url(#SVGID_18_);fill:#FFFFFF;}
	.st9{clip-path:url(#SVGID_20_);fill:#FFFFFF;}
	.st10{clip-path:url(#SVGID_22_);fill:#FFFFFF;}
	.st11{clip-path:url(#SVGID_24_);fill:#FFFFFF;}
	.st12{clip-path:url(#SVGID_26_);fill:#FFFFFF;}
	.st13{clip-path:url(#SVGID_28_);fill:#FFFFFF;}
	.st14{clip-path:url(#SVGID_30_);fill:#FFFFFF;}
	.st15{clip-path:url(#SVGID_32_);fill:#FFFFFF;}
	.st16{clip-path:url(#SVGID_34_);fill:#FFFFFF;}
	.st17{clip-path:url(#SVGID_36_);fill:#FFFFFF;}
	.st18{clip-path:url(#SVGID_38_);fill:#FFFFFF;}
	.st19{clip-path:url(#SVGID_40_);fill:#FFFFFF;}
	.st20{clip-path:url(#SVGID_42_);fill:#FFFFFF;}
	.st21{clip-path:url(#SVGID_44_);fill:#E9435E;}
</style>
<g>
	<g>
		<g>
			<defs>
				<rect id="SVGID_1_" width="141.7" height="19.1"/>
			</defs>
			<clipPath id="SVGID_2_">
				<use xlink:href="#SVGID_1_"  style="overflow:visible;"/>
			</clipPath>
			<path class="st0" d="M14.5,4.2c0.5,0,0.9-0.4,0.9-0.8S15,2.6,14.5,2.6s-0.9,0.4-0.9,0.8C13.6,3.8,14,4.2,14.5,4.2"/>
		</g>
		<g>
			<defs>
				<rect id="SVGID_3_" width="141.7" height="19.1"/>
			</defs>
			<clipPath id="SVGID_4_">
				<use xlink:href="#SVGID_3_"  style="overflow:visible;"/>
			</clipPath>
			<path class="st1" d="M5.7,4.2c0.5,0,0.9-0.4,0.9-0.8S6.2,2.6,5.7,2.6S4.8,2.9,4.8,3.4C4.8,3.8,5.2,4.2,5.7,4.2"/>
		</g>
		<g>
			<defs>
				<rect id="SVGID_5_" width="141.7" height="19.1"/>
			</defs>
			<clipPath id="SVGID_6_">
				<use xlink:href="#SVGID_5_"  style="overflow:visible;"/>
			</clipPath>
			<path class="st2" d="M1.3,10.4c0.5,0,0.9-0.4,0.9-0.8S1.8,8.8,1.3,8.8S0.4,9.1,0.4,9.6S0.9,10.4,1.3,10.4"/>
		</g>
		<g>
			<defs>
				<rect id="SVGID_7_" width="141.7" height="19.1"/>
			</defs>
			<clipPath id="SVGID_8_">
				<use xlink:href="#SVGID_7_"  style="overflow:visible;"/>
			</clipPath>
			<path class="st3" d="M10.1,19.1c0.7,0,1.3-0.6,1.3-1.3c0-0.7-0.6-1.3-1.3-1.3c-0.7,0-1.3,0.6-1.3,1.3
				C8.8,18.5,9.4,19.1,10.1,19.1"/>
		</g>
		<g>
			<defs>
				<rect id="SVGID_9_" width="141.7" height="19.1"/>
			</defs>
			<clipPath id="SVGID_10_">
				<use xlink:href="#SVGID_9_"  style="overflow:visible;"/>
			</clipPath>
			<path class="st4" d="M10.1,10.8c0.7,0,1.3-0.6,1.3-1.3c0-0.7-0.6-1.3-1.3-1.3c-0.7,0-1.3,0.6-1.3,1.3
				C8.8,10.3,9.4,10.8,10.1,10.8"/>
		</g>
		<g>
			<defs>
				<rect id="SVGID_11_" width="141.7" height="19.1"/>
			</defs>
			<clipPath id="SVGID_12_">
				<use xlink:href="#SVGID_11_"  style="overflow:visible;"/>
			</clipPath>
			<path class="st5" d="M1.3,6.6c0.7,0,1.3-0.6,1.3-1.3c0-0.7-0.6-1.3-1.3-1.3C0.6,4.1,0,4.7,0,5.4C0,6.1,0.6,6.6,1.3,6.6"/>
		</g>
		<g>
			<defs>
				<rect id="SVGID_13_" width="141.7" height="19.1"/>
			</defs>
			<clipPath id="SVGID_14_">
				<use xlink:href="#SVGID_13_"  style="overflow:visible;"/>
			</clipPath>
			<path class="st6" d="M1.3,15c0.7,0,1.3-0.6,1.3-1.3c0-0.7-0.6-1.3-1.3-1.3C0.6,12.4,0,13,0,13.7C0,14.4,0.6,15,1.3,15"/>
		</g>
		<g>
			<defs>
				<rect id="SVGID_15_" width="141.7" height="19.1"/>
			</defs>
			<clipPath id="SVGID_16_">
				<use xlink:href="#SVGID_15_"  style="overflow:visible;"/>
			</clipPath>
			<path class="st7" d="M18.9,6.6c0.7,0,1.3-0.6,1.3-1.3c0-0.7-0.6-1.3-1.3-1.3c-0.7,0-1.3,0.6-1.3,1.3C17.6,6.1,18.2,6.6,18.9,6.6"
				/>
		</g>
		<g>
			<defs>
				<rect id="SVGID_17_" width="141.7" height="19.1"/>
			</defs>
			<clipPath id="SVGID_18_">
				<use xlink:href="#SVGID_17_"  style="overflow:visible;"/>
			</clipPath>
			<path class="st8" d="M18.9,15c0.7,0,1.3-0.6,1.3-1.3c0-0.7-0.6-1.3-1.3-1.3c-0.7,0-1.3,0.6-1.3,1.3C17.6,14.4,18.2,15,18.9,15"/>
		</g>
		<g>
			<defs>
				<rect id="SVGID_19_" width="141.7" height="19.1"/>
			</defs>
			<clipPath id="SVGID_20_">
				<use xlink:href="#SVGID_19_"  style="overflow:visible;"/>
			</clipPath>
			<path class="st9" d="M10.1,2.5c0.7,0,1.3-0.6,1.3-1.3S10.8,0,10.1,0C9.4,0,8.8,0.6,8.8,1.3S9.4,2.5,10.1,2.5"/>
		</g>
		<g>
			<defs>
				<rect id="SVGID_21_" width="141.7" height="19.1"/>
			</defs>
			<clipPath id="SVGID_22_">
				<use xlink:href="#SVGID_21_"  style="overflow:visible;"/>
			</clipPath>
			<path class="st10" d="M5.7,12.3c0.4,0,0.7-0.3,0.7-0.6c0-0.4-0.3-0.6-0.7-0.6C5.3,11,5,11.3,5,11.6C5,12,5.3,12.3,5.7,12.3"/>
		</g>
		<g>
			<defs>
				<rect id="SVGID_23_" width="141.7" height="19.1"/>
			</defs>
			<clipPath id="SVGID_24_">
				<use xlink:href="#SVGID_23_"  style="overflow:visible;"/>
			</clipPath>
			<path class="st11" d="M10.1,6.1c0.4,0,0.7-0.3,0.7-0.6c0-0.4-0.3-0.6-0.7-0.6c-0.4,0-0.7,0.3-0.7,0.6C9.4,5.8,9.7,6.1,10.1,6.1"
				/>
		</g>
		<g>
			<defs>
				<rect id="SVGID_25_" width="141.7" height="19.1"/>
			</defs>
			<clipPath id="SVGID_26_">
				<use xlink:href="#SVGID_25_"  style="overflow:visible;"/>
			</clipPath>
			<path class="st12" d="M14.5,8.1c0.4,0,0.7-0.3,0.7-0.6c0-0.4-0.3-0.6-0.7-0.6s-0.7,0.3-0.7,0.6C13.8,7.9,14.1,8.1,14.5,8.1"/>
		</g>
		<g>
			<defs>
				<rect id="SVGID_27_" width="141.7" height="19.1"/>
			</defs>
			<clipPath id="SVGID_28_">
				<use xlink:href="#SVGID_27_"  style="overflow:visible;"/>
			</clipPath>
			<path class="st13" d="M5.7,8.1c0.4,0,0.7-0.3,0.7-0.6c0-0.4-0.3-0.6-0.7-0.6C5.3,6.9,5,7.1,5,7.5S5.3,8.1,5.7,8.1"/>
		</g>
		<g>
			<defs>
				<rect id="SVGID_29_" width="141.7" height="19.1"/>
			</defs>
			<clipPath id="SVGID_30_">
				<use xlink:href="#SVGID_29_"  style="overflow:visible;"/>
			</clipPath>
			<path class="st14" d="M18.9,10.4c0.5,0,0.9-0.4,0.9-0.8s-0.4-0.8-0.9-0.8S18,9.1,18,9.6S18.4,10.4,18.9,10.4"/>
		</g>
		<g>
			<defs>
				<rect id="SVGID_31_" width="141.7" height="19.1"/>
			</defs>
			<clipPath id="SVGID_32_">
				<use xlink:href="#SVGID_31_"  style="overflow:visible;"/>
			</clipPath>
			<path class="st15" d="M14.5,16.6c0.5,0,0.9-0.4,0.9-0.8S15,15,14.5,15s-0.9,0.4-0.9,0.8S14,16.6,14.5,16.6"/>
		</g>
		<g>
			<defs>
				<rect id="SVGID_33_" width="141.7" height="19.1"/>
			</defs>
			<clipPath id="SVGID_34_">
				<use xlink:href="#SVGID_33_"  style="overflow:visible;"/>
			</clipPath>
			<path class="st16" d="M5.7,16.6c0.5,0,0.9-0.4,0.9-0.8S6.2,15,5.7,15s-0.9,0.4-0.9,0.8S5.2,16.6,5.7,16.6"/>
		</g>
		<g>
			<defs>
				<rect id="SVGID_35_" width="141.7" height="19.1"/>
			</defs>
			<clipPath id="SVGID_36_">
				<use xlink:href="#SVGID_35_"  style="overflow:visible;"/>
			</clipPath>
			<path class="st17" d="M14.5,12.3c0.4,0,0.7-0.3,0.7-0.6c0-0.4-0.3-0.6-0.7-0.6s-0.7,0.3-0.7,0.6C13.8,12,14.1,12.3,14.5,12.3"/>
		</g>
		<g>
			<defs>
				<rect id="SVGID_37_" width="141.7" height="19.1"/>
			</defs>
			<clipPath id="SVGID_38_">
				<use xlink:href="#SVGID_37_"  style="overflow:visible;"/>
			</clipPath>
			<path class="st18" d="M10.1,14.4c0.4,0,0.7-0.3,0.7-0.6c0-0.4-0.3-0.6-0.7-0.6c-0.4,0-0.7,0.3-0.7,0.6
				C9.4,14.1,9.7,14.4,10.1,14.4"/>
		</g>
		<g>
			<defs>
				<rect id="SVGID_39_" width="141.7" height="19.1"/>
			</defs>
			<clipPath id="SVGID_40_">
				<use xlink:href="#SVGID_39_"  style="overflow:visible;"/>
			</clipPath>
			<path class="st19" d="M57,8.4c0.5,0,0.9,0.2,1.3,0.4c0.3,0.3,0.5,0.7,0.6,1.2h-3.8c0.1-0.5,0.3-0.9,0.6-1.2
				C56.1,8.6,56.5,8.4,57,8.4 M60.4,10.6c0-0.7-0.2-1.3-0.4-1.8c-0.3-0.5-0.7-0.9-1.2-1.2S57.6,7.2,57,7.2s-1.3,0.2-1.8,0.4
				c-0.5,0.3-0.9,0.7-1.2,1.2c-0.3,0.5-0.4,1.1-0.4,1.7s0.2,1.3,0.4,1.7c0.3,0.5,0.7,0.9,1.3,1.2c0.6,0.3,1.2,0.4,1.9,0.4
				c0.6,0,1.1-0.1,1.5-0.3c0.4-0.2,0.9-0.4,1.1-0.8l-0.9-1c-0.5,0.5-1.1,0.7-1.8,0.7c-0.6,0-1.1-0.2-1.4-0.4
				c-0.4-0.3-0.6-0.7-0.7-1.2h5.2C60.4,10.9,60.4,10.7,60.4,10.6 M53.1,12.4c-0.2,0.2-0.5,0.3-0.9,0.3c-0.3,0-0.5-0.1-0.7-0.2
				c-0.2-0.2-0.2-0.4-0.2-0.7V8.6h1.8V7.3h-1.7V5.8h-1.5v1.5h-1.1v1.3h1.1v3.2c0,0.7,0.2,1.3,0.6,1.7c0.4,0.4,1,0.6,1.7,0.6
				c0.3,0,0.6,0,0.8-0.1c0.2-0.1,0.5-0.2,0.6-0.3L53.1,12.4z M47,6.2c0.3,0,0.5-0.1,0.7-0.3C47.9,5.7,48,5.5,48,5.2
				c0-0.2-0.1-0.5-0.3-0.6c-0.2-0.2-0.4-0.2-0.7-0.2s-0.5,0.1-0.7,0.3C46.1,4.7,46,5,46,5.2c0,0.3,0.1,0.5,0.3,0.6
				C46.5,6,46.7,6.2,47,6.2 M46.2,13.9h1.5V7.3h-1.5V13.9z M42.4,7.2c-0.5,0-0.9,0.1-1.3,0.2c-0.4,0.2-0.7,0.4-1,0.7V7.3h-1.5v6.6
				h1.5v-3.4c0-0.6,0.2-1.1,0.5-1.5c0.3-0.4,0.8-0.5,1.4-0.5c0.5,0,0.9,0.2,1.2,0.4c0.3,0.3,0.4,0.7,0.4,1.3v3.6h1.5v-3.8
				c0-1-0.2-1.7-0.8-2.2C43.9,7.4,43.3,7.2,42.4,7.2 M34.1,12.3c-0.6,0-1.1-0.2-1.5-0.5c-0.4-0.4-0.6-0.8-0.6-1.4s0.2-1,0.6-1.3
				c0.4-0.4,0.9-0.5,1.5-0.5c0.6,0,1.1,0.2,1.5,0.5c0.4,0.4,0.6,0.8,0.6,1.3c0,0.6-0.2,1-0.6,1.4S34.7,12.3,34.1,12.3 M36.2,7.3v0.9
				c-0.3-0.3-0.6-0.6-1-0.7c-0.4-0.2-0.9-0.2-1.3-0.2c-0.6,0-1.2,0.1-1.7,0.4c-0.5,0.3-0.9,0.6-1.2,1.1c-0.3,0.5-0.4,1.1-0.4,1.7
				c0,0.6,0.2,1.2,0.4,1.7c0.3,0.5,0.7,0.9,1.2,1.1c0.5,0.3,1.1,0.4,1.7,0.4c0.4,0,0.9-0.1,1.3-0.2c0.4-0.2,0.7-0.4,1-0.6v0.4
				c0,0.7-0.2,1.2-0.5,1.5c-0.3,0.3-0.9,0.5-1.6,0.5c-0.4,0-0.9-0.1-1.3-0.2c-0.4-0.2-0.8-0.3-1.1-0.6l-0.7,1.2
				c0.4,0.3,0.9,0.5,1.4,0.7c0.6,0.2,1.2,0.2,1.8,0.2c2.4,0,3.6-1.2,3.6-3.5V7.3H36.2z M28.3,13.9h1.6V5.2h-1.6V13.9z"/>
		</g>
		<g>
			<defs>
				<rect id="SVGID_41_" width="141.7" height="19.1"/>
			</defs>
			<clipPath id="SVGID_42_">
				<use xlink:href="#SVGID_41_"  style="overflow:visible;"/>
			</clipPath>
			<path class="st20" d="M141.3,12.4c-0.2,0.2-0.5,0.3-0.9,0.3c-0.3,0-0.5-0.1-0.7-0.2c-0.2-0.2-0.2-0.4-0.2-0.7V8.6h1.8V7.3h-1.8
				V5.8h-1.5v1.5h-1.1v1.3h1.1v3.2c0,0.7,0.2,1.3,0.6,1.7c0.4,0.4,1,0.6,1.7,0.6c0.3,0,0.6,0,0.8-0.1c0.2-0.1,0.5-0.2,0.6-0.3
				L141.3,12.4z M133.7,7.2c-0.5,0-0.9,0.1-1.3,0.2c-0.4,0.2-0.7,0.4-1,0.7V7.3h-1.5v6.6h1.5v-3.4c0-0.6,0.2-1.1,0.5-1.5
				c0.3-0.4,0.8-0.5,1.3-0.5c0.5,0,0.9,0.2,1.2,0.4c0.3,0.3,0.4,0.7,0.4,1.3v3.6h1.5v-3.8c0-1-0.2-1.7-0.8-2.2
				C135.2,7.4,134.6,7.2,133.7,7.2 M125.6,8.4c0.5,0,0.9,0.2,1.3,0.4c0.3,0.3,0.5,0.7,0.6,1.2h-3.8c0.1-0.5,0.3-0.9,0.6-1.2
				C124.7,8.6,125,8.4,125.6,8.4 M128.9,10.6c0-0.7-0.2-1.3-0.4-1.8c-0.3-0.5-0.7-0.9-1.2-1.2c-0.5-0.3-1.1-0.4-1.7-0.4
				c-0.6,0-1.3,0.2-1.8,0.4c-0.5,0.3-0.9,0.7-1.2,1.2c-0.3,0.5-0.4,1.1-0.4,1.7s0.2,1.3,0.4,1.7c0.3,0.5,0.7,0.9,1.3,1.2
				c0.6,0.3,1.2,0.4,1.9,0.4c0.6,0,1.1-0.1,1.5-0.3c0.4-0.2,0.9-0.4,1.1-0.8l-0.9-1c-0.5,0.5-1.1,0.7-1.8,0.7
				c-0.6,0-1.1-0.2-1.4-0.4c-0.4-0.3-0.6-0.7-0.7-1.2h5.2C128.9,10.9,128.9,10.7,128.9,10.6 M118.4,7.2c-0.5,0-1,0.1-1.4,0.3
				c-0.4,0.2-0.8,0.5-1.1,0.8c-0.2-0.4-0.5-0.6-0.9-0.8c-0.4-0.2-0.8-0.3-1.3-0.3c-0.4,0-0.9,0.1-1.3,0.2c-0.4,0.2-0.7,0.4-0.9,0.7
				V7.3H110v6.6h1.5v-3.4c0-0.6,0.2-1.1,0.5-1.5c0.3-0.3,0.7-0.5,1.3-0.5c0.5,0,0.9,0.2,1.1,0.4c0.2,0.3,0.4,0.7,0.4,1.3v3.6h1.5
				v-3.4c0-0.6,0.2-1.1,0.5-1.5c0.3-0.4,0.7-0.5,1.3-0.5c0.5,0,0.9,0.2,1.1,0.4c0.2,0.3,0.4,0.7,0.4,1.3v3.6h1.5v-3.8
				c0-1-0.2-1.7-0.7-2.2C119.9,7.4,119.3,7.2,118.4,7.2 M105.7,8.4c0.5,0,0.9,0.2,1.3,0.4c0.3,0.3,0.5,0.7,0.6,1.2h-3.8
				c0.1-0.5,0.3-0.9,0.6-1.2C104.8,8.6,105.1,8.4,105.7,8.4 M109,10.6c0-0.7-0.2-1.3-0.4-1.8c-0.3-0.5-0.7-0.9-1.2-1.2
				c-0.5-0.3-1.1-0.4-1.7-0.4c-0.6,0-1.3,0.2-1.8,0.4c-0.5,0.3-0.9,0.7-1.2,1.2c-0.3,0.5-0.4,1.1-0.4,1.7s0.2,1.3,0.4,1.7
				c0.3,0.5,0.7,0.9,1.3,1.2c0.6,0.3,1.2,0.4,1.9,0.4c0.6,0,1.1-0.1,1.5-0.3c0.4-0.2,0.9-0.4,1.1-0.8l-0.9-1
				c-0.5,0.5-1.1,0.7-1.8,0.7c-0.6,0-1.1-0.2-1.4-0.4c-0.4-0.3-0.6-0.7-0.7-1.2h5.2C109,10.9,109,10.7,109,10.6 M99.3,8.2v-1h-1.5
				v6.6h1.5v-3.2c0-0.6,0.2-1.2,0.5-1.5c0.3-0.4,0.8-0.5,1.4-0.5c0.1,0,0.2,0,0.4,0V7.1C100.5,7.2,99.8,7.5,99.3,8.2 M95.3,7.3v3.4
				c0,0.6-0.2,1.1-0.5,1.5c-0.3,0.4-0.8,0.5-1.3,0.5c-0.5,0-0.9-0.2-1.1-0.4c-0.3-0.3-0.4-0.7-0.4-1.3V7.3h-1.5v3.8
				c0,1,0.2,1.7,0.8,2.2c0.5,0.5,1.2,0.7,2.1,0.7c0.4,0,0.9-0.1,1.2-0.2c0.4-0.2,0.7-0.4,0.9-0.7v0.9h1.5V7.3H95.3z M86.5,14
				c0.6,0,1.2-0.1,1.7-0.4c0.5-0.3,0.9-0.6,1.1-1.1l-1.2-0.7c-0.2,0.3-0.4,0.5-0.7,0.7c-0.3,0.2-0.6,0.2-0.9,0.2
				c-0.6,0-1.1-0.2-1.5-0.6c-0.4-0.4-0.6-0.9-0.6-1.5s0.2-1.1,0.6-1.5s0.9-0.6,1.5-0.6c0.3,0,0.6,0.1,0.9,0.2
				C87.7,9,88,9.2,88.2,9.5l1.2-0.7c-0.2-0.5-0.6-0.9-1.1-1.1c-0.5-0.3-1.1-0.4-1.7-0.4c-0.7,0-1.3,0.2-1.9,0.4
				c-0.5,0.3-1,0.7-1.3,1.2c-0.3,0.5-0.4,1.1-0.4,1.7s0.2,1.3,0.4,1.7c0.3,0.5,0.7,0.9,1.3,1.2C85.2,13.9,85.8,14,86.5,14
				 M78.9,12.7c-0.6,0-1.1-0.2-1.4-0.6s-0.6-0.9-0.6-1.5s0.2-1.1,0.6-1.5s0.9-0.6,1.4-0.6c0.6,0,1.1,0.2,1.4,0.6
				c0.4,0.4,0.6,0.9,0.6,1.5s-0.2,1.1-0.6,1.5C80,12.5,79.5,12.7,78.9,12.7 M78.9,14c0.7,0,1.3-0.2,1.8-0.4c0.5-0.3,1-0.7,1.3-1.2
				c0.3-0.5,0.4-1.1,0.4-1.7S82.3,9.3,82,8.8c-0.3-0.5-0.7-0.9-1.3-1.2s-1.1-0.4-1.8-0.4c-0.7,0-1.3,0.2-1.8,0.4
				c-0.5,0.3-1,0.7-1.3,1.2c-0.3,0.5-0.4,1.1-0.4,1.7s0.2,1.3,0.4,1.7c0.3,0.5,0.7,0.9,1.3,1.2C77.6,13.9,78.2,14,78.9,14 M72.5,8.2
				v-1H71v6.6h1.5v-3.2c0-0.6,0.2-1.2,0.5-1.5c0.3-0.4,0.8-0.5,1.4-0.5c0.1,0,0.2,0,0.4,0V7.1C73.7,7.2,73,7.5,72.5,8.2 M66.3,10
				h-1.9V6.6h1.9c0.7,0,1.3,0.2,1.6,0.4c0.4,0.3,0.6,0.7,0.6,1.3s-0.2,1-0.6,1.3C67.5,9.9,67,10,66.3,10 M66.4,5.2h-3.6v8.7h1.6
				v-2.5h2c0.8,0,1.4-0.1,2-0.4c0.6-0.2,1-0.6,1.3-1.1c0.3-0.5,0.4-1,0.4-1.7S70,7.1,69.7,6.6c-0.3-0.4-0.7-0.8-1.3-1.1
				C67.8,5.3,67.1,5.2,66.4,5.2"/>
		</g>
		<g>
			<defs>
				<rect id="SVGID_43_" width="141.7" height="19.1"/>
			</defs>
			<clipPath id="SVGID_44_">
				<use xlink:href="#SVGID_43_"  style="overflow:visible;"/>
			</clipPath>
			<path class="st21" d="M47,6.6c0.7,0,1.3-0.6,1.3-1.3c0-0.7-0.6-1.3-1.3-1.3c-0.7,0-1.3,0.6-1.3,1.3C45.7,6.1,46.3,6.6,47,6.6"/>
		</g>
	</g>
</g>
</svg>
