<?xml version="1.0" encoding="utf-8"?>
<!-- Generator: Adobe Illustrator 23.0.2, SVG Export Plug-In . SVG Version: 6.00 Build 0)  -->
<svg version="1.1" id="Layer_1" xmlns="http://www.w3.org/2000/svg" xmlns:xlink="http://www.w3.org/1999/xlink" x="0px" y="0px"
	 viewBox="0 0 238.8 113.4" style="enable-background:new 0 0 238.8 113.4;" xml:space="preserve">
<style type="text/css">
	.st0{fill:#18243F;}
	.st1{fill:#EBAF41;}
</style>
<path class="st0" d="M85,89.3c1.6,0,2.8,0.4,3.9,1.3c1.1,0.9,1.7,2,1.7,3.5H79.3c0.3-1.6,0.8-2.7,1.9-3.5
	C82.2,89.7,83.4,89.3,85,89.3 M94.9,95.7c0-2-0.4-3.9-1.3-5.2c-0.8-1.6-2-2.7-3.6-3.6c-1.6-0.8-3.2-1.3-5.1-1.3s-3.8,0.4-5.1,1.3
	c-1.6,0.8-2.8,2-3.6,3.6c-0.9,1.6-1.3,3.4-1.3,5.1c0,1.9,0.4,3.8,1.3,5.1c0.9,1.6,2.1,2.7,3.9,3.6c1.7,0.8,3.6,1.3,5.6,1.3
	c1.7,0,3.2-0.3,4.7-0.8c1.3-0.7,2.4-1.3,3.4-2.4l-2.4-2.9c-1.5,1.5-3.2,2.1-5.2,2.1c-1.7,0-3.2-0.4-4.4-1.3
	c-1.2-0.8-1.9-1.9-2.1-3.5h15.3C94.9,96.6,94.9,96.1,94.9,95.7 M73.3,101.2c-0.7,0.7-1.6,0.8-2.5,0.8c-0.9,0-1.6-0.3-2-0.8
	c-0.5-0.5-0.8-1.3-0.8-2.1v-9.2H73v-3.6h-5.1v-4.7h-4.7v4.7h-3.4v3.8h3.4v9.4c0,2.1,0.7,3.9,1.7,5c1.2,1.2,2.9,1.7,5,1.7
	c0.8,0,1.7-0.1,2.4-0.4c0.8-0.3,1.5-0.7,1.9-1.1L73.3,101.2z M55.2,82.6c0.8,0,1.6-0.3,2.1-0.8c0.7-0.7,0.8-1.3,0.8-2
	c0-0.8-0.3-1.5-0.8-1.9c-0.7-0.5-1.3-0.8-2.1-0.8c-0.8,0-1.6,0.3-2.1,0.8c-0.7,0.5-0.8,1.2-0.8,1.9c0,0.8,0.3,1.6,0.8,1.9
	C53.7,82.2,54.4,82.6,55.2,82.6 M52.9,105.5h4.7V85.8h-4.7V105.5z M41.5,85.5c-1.6,0-2.8,0.3-4,0.8s-2.1,1.2-2.9,2v-2.5h-4.4v19.7
	h4.7v-9.9c0-1.9,0.5-3.4,1.6-4.6c1.1-1.1,2.3-1.6,4.2-1.6c1.6,0,2.7,0.4,3.5,1.3c0.8,0.9,1.3,2.1,1.3,3.9v10.7h4.7V94.1
	c0-2.9-0.8-5-2.1-6.4C46.1,86.3,44.2,85.5,41.5,85.5 M17,100.7c-1.7,0-3.2-0.5-4.4-1.6c-1.2-1.1-1.7-2.4-1.7-4.2s0.7-2.9,1.7-4.2
	c1.2-1.1,2.5-1.6,4.4-1.6s3.2,0.5,4.4,1.6c1.2,1.1,1.7,2.4,1.7,4.2S22.5,98,21.4,99C20.4,100.1,18.8,100.7,17,100.7 M23.2,85.8v2.7
	c-0.8-1.1-1.7-1.7-2.9-2.1c-1.2-0.5-2.4-0.8-3.9-0.8c-1.9,0-3.6,0.4-5,1.2c-1.6,0.8-2.7,1.9-3.6,3.4c-0.9,1.6-1.3,3.2-1.3,5
	c0,1.9,0.4,3.6,1.3,5c0.9,1.5,2,2.5,3.6,3.4s3.2,1.3,5,1.3c1.3,0,2.7-0.3,3.8-0.7c1.2-0.4,2-1.1,2.9-1.9v1.1c0,2-0.5,3.6-1.6,4.7
	c-1.1,1.1-2.7,1.6-4.7,1.6c-1.3,0-2.7-0.3-4.2-0.7s-2.4-1.1-3.4-1.7l-2,3.5c1.1,0.9,2.5,1.7,4.3,2c1.7,0.5,3.5,0.8,5.4,0.8
	c7.1,0,10.6-3.5,10.6-10.5V86.2L23.2,85.8L23.2,85.8z M0,105.5h4.7V79.7H0V105.5z"/>
<path class="st1" d="M230.9,105.7c2.5,0,4.6-0.5,5.8-1.6c1.2-1.1,2.1-2.4,2.1-4.2c0-1.3-0.4-2.1-1.1-2.9c-0.7-0.8-1.6-1.3-2.4-1.6
	c-0.9-0.4-2.1-0.7-3.8-0.9c-1.3-0.3-2.1-0.4-2.9-0.7c-0.8-0.3-1.3-0.7-1.7-1.1c-0.5-0.4-0.8-1.1-0.8-1.7c0-1.1,0.4-1.7,1.3-2.3
	c0.8-0.7,2.1-0.9,3.9-0.9c2.1,0,4.2,0.7,5.6,1.7l1.2-2.1c-0.8-0.7-1.7-1.1-3.2-1.3c-1.3-0.4-2.5-0.5-3.9-0.5c-2.4,0-4.4,0.5-5.6,1.6
	c-1.5,1.1-2,2.4-2,4c0,1.3,0.4,2.3,1.1,3.1c0.7,0.8,1.6,1.3,2.4,1.6c1.1,0.4,2.1,0.7,3.9,0.9c1.2,0.1,2.1,0.4,2.9,0.7
	c0.8,0.3,1.3,0.5,1.7,0.9s0.8,1.1,0.8,1.7c0,1.1-0.4,1.7-1.3,2.4c-0.9,0.7-2.1,0.8-4,0.8c-1.3,0-2.7-0.1-3.9-0.7
	c-1.3-0.4-2.1-0.9-3.1-1.6l-1.2,2c0.8,0.7,1.9,1.3,3.4,1.7C227.7,105.5,229.4,105.7,230.9,105.7 M212.3,88.3c1.9,0,3.5,0.7,4.7,1.7
	c1.3,1.3,1.9,2.7,2.1,4.7h-13.8c0.1-1.9,0.9-3.5,2.1-4.7S210.4,88.3,212.3,88.3 M221.5,95.8c0-1.9-0.4-3.6-1.3-5
	c-0.9-1.6-1.9-2.7-3.4-3.5c-1.5-0.8-3.1-1.3-4.8-1.3c-1.7,0-3.5,0.4-4.8,1.3c-1.6,0.8-2.5,1.9-3.4,3.6c-0.8,1.6-1.3,3.2-1.3,5
	c0,1.9,0.4,3.6,1.3,5c0.8,1.6,2,2.7,3.6,3.6c1.6,0.9,3.4,1.3,5.1,1.3c1.6,0,2.9-0.3,4.4-0.8s2.4-1.3,3.2-2.4l-1.6-1.7
	c-0.8,0.8-1.7,1.6-2.7,1.9c-1.1,0.4-2.1,0.7-3.4,0.7c-2.1,0-4-0.7-5.2-1.9c-1.5-1.3-2.1-2.9-2.3-4.8h16.2L221.5,95.8L221.5,95.8z
	 M193.7,105.7c1.7,0,3.2-0.4,4.6-1.1s2.4-1.7,3.2-2.9l-1.9-1.3c-0.7,1.1-1.6,1.7-2.4,2.1c-1.1,0.5-2,0.8-3.2,0.8
	c-1.5,0-2.7-0.4-3.9-0.9c-1.2-0.7-1.9-1.6-2.7-2.7c-0.7-1.2-0.9-2.4-0.9-4c0-1.6,0.4-2.8,0.9-4c0.7-1.2,1.6-2,2.7-2.7
	c1.2-0.7,2.4-0.9,3.9-0.9c1.2,0,2.1,0.3,3.2,0.8c1.1,0.5,1.7,1.3,2.4,2.1l1.9-1.3c-0.8-1.3-1.7-2.1-3.2-2.9
	c-1.3-0.7-2.8-1.1-4.7-1.1c-1.9,0-3.6,0.4-5.1,1.3c-1.6,0.8-2.7,1.9-3.6,3.6c-0.8,1.6-1.3,3.2-1.3,5c0,1.9,0.4,3.6,1.3,5
	c0.8,1.6,2,2.7,3.6,3.6C190,105.3,191.8,105.7,193.7,105.7 M178.9,81.8c0.7,0,1.1-0.1,1.5-0.7c0.4-0.4,0.7-0.8,0.7-1.5
	c0-0.5-0.1-0.9-0.7-1.3c-0.4-0.4-0.8-0.7-1.5-0.7c-0.7,0-1.1,0.1-1.5,0.7c-0.4,0.4-0.7,0.8-0.7,1.3s0.1,1.1,0.7,1.3
	C177.8,81.6,178.2,81.8,178.9,81.8 M177.4,105.5h2.7V86.2h-2.7V105.5z M172.6,86.2l-7.2,16.5l-7.2-16.5h-2.7l8.6,19.3h2.7l8.6-19.3
	H172.6z M146.6,89.9v-3.8h-2.5v19.3h2.7v-9.8c0-2.3,0.7-4.2,1.7-5.1c1.2-1.2,2.8-1.9,4.7-1.9h0.7v-2.5c-1.7,0-3.4,0.4-4.7,1.1
	C148.4,87.7,147.3,88.6,146.6,89.9 M131.2,88.3c1.9,0,3.5,0.7,4.7,1.7c1.3,1.3,1.9,2.7,2.1,4.7h-13.7c0.1-1.9,0.9-3.5,2.1-4.7
	C127.9,88.7,129.3,88.3,131.2,88.3 M140.6,95.8c0-1.9-0.4-3.6-1.3-5c-0.9-1.6-1.9-2.7-3.4-3.5c-1.5-0.8-3.1-1.3-4.8-1.3
	c-1.9,0-3.5,0.4-4.8,1.3c-1.6,0.8-2.5,1.9-3.4,3.6c-0.8,1.6-1.3,3.2-1.3,5c0,1.9,0.4,3.6,1.3,5c0.8,1.6,2,2.7,3.6,3.6
	c1.6,0.9,3.4,1.3,5.1,1.3c1.6,0,2.9-0.3,4.4-0.8c1.5-0.5,2.4-1.3,3.2-2.4l-1.6-1.7c-0.8,0.8-1.7,1.6-2.7,1.9
	c-1.1,0.4-2.1,0.7-3.4,0.7c-2.1,0-4-0.7-5.2-1.9c-1.5-1.3-2.1-2.9-2.3-4.8h16.2L140.6,95.8L140.6,95.8z M109.8,105.7
	c2.1,0,3.9-0.4,5.2-0.9c1.6-0.7,2.5-1.6,3.2-2.5c0.8-1.1,1.1-2.1,1.1-3.6c0-1.6-0.4-2.8-1.3-3.9c-0.8-0.9-1.7-1.7-2.9-2
	c-1.2-0.5-2.7-0.9-4.7-1.5c-1.6-0.4-2.9-0.8-3.9-1.1c-1.1-0.4-1.7-0.8-2.4-1.6c-0.7-0.7-0.9-1.6-0.9-2.4c0-1.5,0.7-2.4,1.7-3.4
	s2.9-1.3,5-1.3c1.2,0,2.4,0.1,3.6,0.7c1.3,0.4,2.4,0.9,3.5,1.7l0.9-2.1c-1.1-0.8-2.1-1.3-3.8-1.7c-1.5-0.4-2.9-0.7-4.4-0.7
	c-2.1,0-3.9,0.4-5.2,1.1c-1.5,0.7-2.4,1.6-3.2,2.5c-0.7,1.1-1.1,2.1-1.1,3.6c0,1.6,0.4,2.9,1.3,3.9c0.8,0.9,1.7,1.7,2.9,2
	c1.2,0.5,2.7,0.9,4.7,1.5c1.7,0.4,2.9,0.8,3.9,1.1c0.9,0.4,1.7,0.8,2.3,1.5c0.7,0.7,0.9,1.6,0.9,2.4c0,1.3-0.7,2.4-1.7,3.4
	c-1.2,0.8-2.9,1.3-5.1,1.3c-1.7,0-3.4-0.4-4.7-0.9c-1.6-0.7-2.8-1.3-3.8-2.3l-1.1,2.1c1.1,1.1,2.3,1.7,4.2,2.4
	C106,105.5,107.9,105.7,109.8,105.7"/>
<circle class="st1" cx="119.5" cy="52.4" r="3.9"/>
<circle class="st0" cx="145.3" cy="40.3" r="3.9"/>
<circle class="st0" cx="145.3" cy="16.2" r="3.9"/>
<circle class="st0" cx="94.1" cy="16.2" r="3.9"/>
<circle class="st0" cx="94.1" cy="40.3" r="3.9"/>
<circle class="st0" cx="55.3" cy="79.7" r="3.9"/>
<circle class="st1" cx="119.5" cy="28.3" r="3.9"/>
<circle class="st1" cx="119.5" cy="3.9" r="3.9"/>
<circle class="st0" cx="94.1" cy="28.3" r="2.5"/>
<circle class="st0" cx="145.3" cy="28.3" r="2.5"/>
<circle class="st1" cx="132.5" cy="10.2" r="2.5"/>
<circle class="st1" cx="106.7" cy="10.2" r="2.5"/>
<circle class="st1" cx="106.7" cy="46.4" r="2.5"/>
<circle class="st1" cx="132.5" cy="46.4" r="2.5"/>
<circle class="st1" cx="178.8" cy="79.7" r="2.5"/>
<circle class="st1" cx="106.7" cy="22.3" r="2"/>
<circle class="st0" cx="106.7" cy="34.3" r="2"/>
<circle class="st1" cx="132.5" cy="34.3" r="2"/>
<circle class="st0" cx="119.5" cy="40.3" r="2"/>
<circle class="st0" cx="119.5" cy="16.2" r="2"/>
<circle class="st0" cx="132.5" cy="22.3" r="2"/>
</svg>
