<?xml version="1.0" encoding="utf-8"?>
<!-- Generator: Adobe Illustrator 23.0.2, SVG Export Plug-In . SVG Version: 6.00 Build 0)  -->
<svg version="1.1" id="Layer_1" xmlns="http://www.w3.org/2000/svg" xmlns:xlink="http://www.w3.org/1999/xlink" x="0px" y="0px"
	 viewBox="0 0 313.7 110.3" style="enable-background:new 0 0 313.7 110.3;" xml:space="preserve">
<style type="text/css">
	.st0{fill:#004B93;}
	.st1{fill:#00AACD;}
	.st2{fill:#F08100;}
</style>
<path class="st0" d="M253.5,67.7l0.2-3.3l0,0c-0.8,2.1-2.9,3.5-5.8,3.5s-4.9-1.7-4.9-4.5c0-4.9,4.1-7.2,10.3-7.2v-0.2
	c0-2.1-1-3.3-3.7-3.3c-1.6,0-3.7,0.6-5.2,1.4l-0.4-3.1c1.7-0.6,3.9-1.2,6-1.2c5.2,0,6.8,2.3,6.8,5.8v9.5c0.8,0.2,2.1,0.6,2.1,0.6
	v1.6L253.5,67.7z M253.3,59.2c-5.4,0-6.8,1.6-6.8,3.9c0,1.4,1,2.1,2.5,2.1c2.5,0,4.3-2.5,4.3-4.9V59.2z"/>
<path class="st0" d="M249.8,47.5c-1.9,0-3.1-1.2-3.1-3.3c0-2.3,1.6-3.7,3.3-3.7c1.7,0,3.3,1.2,3.3,3.5S251.7,47.5,249.8,47.5z
	 M250,42.1c-0.8,0-1.4,0.8-1.4,1.9c0,1.4,0.4,1.9,1.4,1.9c0.8,0,1.6-0.4,1.6-1.7C251.5,42.9,250.9,42.1,250,42.1z"/>
<path class="st0" d="M75.1,45.6v7h9.1v3.5h-9.1v11.9h-3.9V42.3h14.2v3.3H75.1z"/>
<path class="st0" d="M94.3,68.1c-4.9,0-8-2.7-8-8.7c0-5.2,3.3-9.3,8.5-9.3c4.7,0,8,2.5,8,8.7C102.9,64,99.4,68.1,94.3,68.1z
	 M94.7,53.2c-2.3,0-4.5,1.7-4.5,5.8c0,3.9,1.6,6,4.5,6c2.3,0,4.5-1.9,4.5-6C99.2,55.3,97.6,53.2,94.7,53.2z"/>
<path class="st0" d="M122.7,68.1c-1.4,0-2.5-0.2-3.7-0.4l0.2-3.1c1.2,0.4,2.5,0.6,3.7,0.6c1.9,0,3.5-0.8,3.5-2.3
	c0-3.5-7.6-1.4-7.6-7.4c0-2.9,2.5-5.4,7.2-5.4c1,0,2.1,0.2,3.3,0.4l-0.2,3.1c-1.2-0.4-2.3-0.6-3.5-0.6c-2.1,0-3.1,0.8-3.1,2.1
	c0,3.3,7.6,1.6,7.6,7.4C130.3,65.8,127.4,68.1,122.7,68.1z"/>
<path class="st0" d="M143.7,67.7l-5.6-8.7h-0.2v8.7h-3.7V42.5c-0.8-0.2-2.1-0.6-2.1-0.6v-1.7c0,0,3.7-0.2,5.8,0v17.7h0.2l5.1-7.4
	h4.5l-6,8l7,9.3C148.5,67.7,143.7,67.7,143.7,67.7z"/>
<path class="st0" d="M154.6,53.7L154.6,53.7c1.2-2.1,3.1-3.7,6-3.7c3.9,0,5.2,2.5,5.2,5.6v12h-3.7V56.7c0-2.1-0.6-3.5-2.5-3.5
	c-2.5,0-4.5,2.7-4.5,6.2v8.4h-3.7v-15c-0.8-0.2-2.1-0.4-2.1-0.4v-1.7c0,0,3.7-0.2,5.8-0.2C155,51.4,154.8,52.8,154.6,53.7z"/>
<path class="st0" d="M175,67.7h-3.7v-15c-0.8-0.2-2.1-0.4-2.1-0.4v-1.7c0,0,3.5-0.2,5.8-0.2V67.7z"/>
<path class="st0" d="M173,46.7c-1.4,0-2.3-1-2.3-2.3c0-1.4,1.2-2.3,2.3-2.3c1.4,0,2.3,1,2.3,2.3C175.4,45.6,174.4,46.7,173,46.7z"/>
<path class="st0" d="M183.7,53.7L183.7,53.7c1.2-2.1,3.1-3.7,6-3.7c3.9,0,5.2,2.5,5.2,5.6v12h-3.7V56.7c0-2.1-0.6-3.5-2.5-3.5
	c-2.5,0-4.5,2.7-4.5,6.2v8.4h-3.7v-15c-0.8-0.2-2.1-0.4-2.1-0.4v-1.7c0,0,3.5-0.2,5.6-0.2C183.9,51.4,183.9,52.8,183.7,53.7z"/>
<path class="st0" d="M220.8,68.1c-1.4,0-2.5-0.2-3.7-0.4l0.2-3.1c1.2,0.4,2.5,0.6,3.7,0.6c1.9,0,3.5-0.8,3.5-2.3
	c0-3.5-7.6-1.4-7.6-7.4c0-2.9,2.5-5.4,7.2-5.4c1,0,2.1,0.2,3.3,0.4l-0.2,3.1c-1-0.4-2.3-0.6-3.3-0.6c-2.1,0-3.1,0.8-3.1,2.1
	c0,3.3,7.6,1.6,7.6,7.4C228.4,65.8,225.5,68.1,220.8,68.1z"/>
<path class="st0" d="M235.8,54.3L235.8,54.3c1-2.3,2.9-4.5,6.2-4.3v3.7c-3.5-0.6-5.6,1.7-5.6,7v7h-3.7v-15c-0.8-0.2-2.3-0.4-2.3-0.4
	v-1.7c0,0,3.9-0.2,5.8-0.2C236.2,51.4,236,53,235.8,54.3z"/>
<path class="st0" d="M273.3,67.7l0.2-3.3l0,0c-1,2.1-2.9,3.5-5.6,3.5c-4.3,0-6.4-3.3-6.4-8.4c0-6,3.5-9.7,9.1-9.7
	c0.8,0,1.7,0,2.5,0.2v-7.8c-0.8-0.2-2.3-0.6-2.3-0.6v-1.6c0,0,3.9-0.2,6,0v25.4c0.8,0.2,2.3,0.6,2.3,0.6v1.6L273.3,67.7z
	 M273.3,53.4c-1-0.2-1.9-0.4-2.7-0.4c-2.9,0-5.1,1.7-5.1,6.4c0,3.5,1.2,5.6,3.5,5.6c2.7,0,4.3-3.3,4.3-6.2V53.4z"/>
<path class="st0" d="M296.2,59.8h-11.1c-0.2,4.1,1.7,5.2,5.1,5.2c1.7,0,3.7-0.4,5.1-1.2l0.4,2.9c-1.7,0.8-3.9,1.2-6,1.2
	c-5.4,0-8.4-2.7-8.4-8.9c0-5.2,2.9-9.1,8-9.1c4.9,0,7,3.9,7,8C296.4,58.6,296.4,59.2,296.2,59.8z M289.2,52.8
	c-2.5,0-3.5,1.6-3.9,4.3h7.8C293.1,53.9,291.3,52.8,289.2,52.8z"/>
<path class="st0" d="M305.7,68.1c-3.7,0-4.9-1.4-4.9-5.2v-9.5h-3.1v-2.9h3.3v-6.2l3.7-1v7.2h4.5v2.9h-4.5v8.4c0,2.5,0.6,3.3,2.3,3.3
	c0.8,0,1.6-0.2,2.3-0.2v3.1C308.2,67.9,306.9,68.1,305.7,68.1z"/>
<path class="st0" d="M215.8,72.2c0,4.9-4.5,6.4-8.5,6.4c-5.6,0-8.5-2.3-8.5-6.6c0-0.6,0-1.2,0.2-1.7v-0.2h3.7l-0.2,0.4v0.2
	c-0.2,0.4-0.4,1-0.4,1.6c0,2.9,2.7,3.5,5.2,3.5c2.5,0,5.2-1,5.2-3.5c0-2.9-2.7-3.5-5.2-3.5c-2.5,0-6.2-1-6.2-3.3
	c0-1.2,1.2-2.5,2.3-3.1c-2.5-0.8-3.9-2.9-3.9-6.2c0-4.7,3.7-6.4,7-6.4c1,0,1.9,0.2,2.7,0.4l5.6-0.4h0.2v0.2v1.7v0.2h-0.2
	c0,0-2.1,0.6-2.9,0.8c0.6,1,1.4,2.1,1.4,3.5c0,4.5-2.7,6-6.8,6.8c-1,0.2-1.6,0.8-1.7,1.4c-0.2,0.4-0.2,0.6,0,0.8
	c0.4,0.6,2.1,0.6,2.9,0.6C214.2,65.8,215.8,69.3,215.8,72.2z M206,60c1.7,0,3.7-1,3.7-3.5c0-2.3-1.2-3.5-3.7-3.5
	c-1.7,0-3.9,1-3.9,3.5C202.2,58.8,203.5,60,206,60z"/>
<path class="st0" d="M110.7,54.3L110.7,54.3c1-2.3,2.9-4.5,6.2-4.3v3.7c-3.5-0.6-5.6,1.7-5.6,7v7h-3.7v-15c-0.8-0.2-2.3-0.4-2.3-0.4
	v-1.7c0,0,3.9-0.2,5.8-0.2C111.1,51.4,110.9,53,110.7,54.3z"/>
<path class="st0" d="M44.4,77.4L31.8,55.7c-0.2-0.2-0.2-0.2-0.6-0.2c-0.2,0-0.4,0.2-0.4,0.2l-12.4,22c0,0-0.2,0.2-0.2,0.4
	c0,0.4,0.2,0.6,0.6,0.6H44c0.2,0,0.6-0.2,0.6-0.6C44.6,77.8,44.6,77.6,44.4,77.4z"/>
<path class="st1" d="M44,31.6H18.8c-0.4,0-0.6,0.2-0.6,0.6c0,0.2,0,0.2,0.2,0.4L31,54.3c0,0.2,0.2,0.4,0.6,0.4
	c0.2,0,0.4-0.2,0.6-0.2l0,0l12.6-21.8c0-0.2,0.2-0.2,0.2-0.4C44.6,31.8,44.4,31.6,44,31.6z"/>
<path class="st2" d="M42.1,39.6C42.1,39.6,41.9,39.6,42.1,39.6c-0.4,0-0.4,0.2-0.4,0.4s0.2,0.4,0.2,0.4c5.6,1.9,9.5,5.4,9.5,9.3
	c0,4.9-5.8,8.9-14,10.5c-0.2,0-0.4,0.2-0.4,0.4v0.2c0.6,1.4,1.6,2.9,2.3,4.3c1,1.7,2.1,3.5,3.1,5.1c0.2,0.2,0.2,0.2,0.6,0.2h0.2
	c8.9-2.7,15.2-8.5,15.2-15.2C58.2,48.1,51.6,42.3,42.1,39.6z"/>
<path class="st2" d="M20.5,70.4C20.7,70.4,20.7,70.4,20.5,70.4c0.4,0,0.4-0.2,0.4-0.4s-0.2-0.4-0.2-0.4c-5.6-1.9-9.5-5.4-9.5-9.3
	c0-4.9,5.8-8.9,14-10.5c0.2,0,0.4-0.2,0.4-0.4v-0.2C25,47.9,24,46.4,23.2,45c-1-1.7-1.9-3.5-2.9-5.1c-0.2-0.2-0.4-0.2-0.6-0.2h-0.2
	c-8.9,2.7-15.2,8.5-15.2,15.2C4.4,61.9,11,67.7,20.5,70.4z"/>
</svg>
