<?xml version="1.0" encoding="utf-8"?>
<!-- Generator: Adobe Illustrator 23.0.2, SVG Export Plug-In . SVG Version: 6.00 Build 0)  -->
<svg version="1.1" id="Layer_1" xmlns="http://www.w3.org/2000/svg" xmlns:xlink="http://www.w3.org/1999/xlink" x="0px" y="0px"
	 viewBox="0 0 920.7 141.7" style="enable-background:new 0 0 920.7 141.7;" xml:space="preserve">
<style type="text/css">
	.st0{fill:#004B93;}
	.st1{fill:#00AACD;}
	.st2{fill:#F08100;}
</style>
<path class="st0" d="M748.3,108.6l0.6-9.9l0,0c-2.4,6.3-8.7,10.5-17.5,10.5c-8.7,0-14.7-5.1-14.7-13.5c0-14.7,12.3-21.7,31-21.7
	v-0.6c0-6.3-3-9.9-11.1-9.9c-4.8,0-11.1,1.8-15.6,4.2l-1.2-9.3c5.1-1.8,11.7-3.6,18.1-3.6c15.6,0,20.5,6.9,20.5,17.5v28.6
	c2.4,0.6,6.3,1.8,6.3,1.8v4.8L748.3,108.6z M747.7,83.1c-16.2,0-20.5,4.8-20.5,11.7c0,4.2,3,6.3,7.5,6.3c7.5,0,12.9-7.5,12.9-14.7
	V83.1z"/>
<path class="st0" d="M737.2,47.8c-5.7,0-9.3-3.6-9.3-9.9c0-6.9,4.8-11.1,9.9-11.1s9.9,3.6,9.9,10.5S742.9,47.8,737.2,47.8z
	 M737.8,31.6c-2.4,0-4.2,2.4-4.2,5.7c0,4.2,1.2,5.7,4.2,5.7c2.4,0,4.8-1.2,4.8-5.1C742.3,34,740.5,31.6,737.8,31.6z"/>
<path class="st0" d="M211.5,42.1v21.1h27.4v10.5h-27.4v35.8h-11.7V32.2h42.7v9.9H211.5z"/>
<path class="st0" d="M269.3,109.8c-14.7,0-24.1-8.1-24.1-26.2c0-15.6,9.9-28,25.6-28c14.1,0,24.1,7.5,24.1,26.2
	C295.2,97.5,284.6,109.8,269.3,109.8z M270.5,65c-6.9,0-13.5,5.1-13.5,17.5c0,11.7,4.8,18.1,13.5,18.1c6.9,0,13.5-5.7,13.5-18.1
	C284,71.3,279.2,65,270.5,65z"/>
<path class="st0" d="M354.7,109.8c-4.2,0-7.5-0.6-11.1-1.2l0.6-9.3c3.6,1.2,7.5,1.8,11.1,1.8c5.7,0,10.5-2.4,10.5-6.9
	c0-10.5-22.9-4.2-22.9-22.3c0-8.7,7.5-16.2,21.7-16.2c3,0,6.3,0.6,9.9,1.2l-0.6,9.3c-3.6-1.2-6.9-1.8-10.5-1.8
	c-6.3,0-9.3,2.4-9.3,6.3c0,9.9,22.9,4.8,22.9,22.3C377.6,102.9,368.9,109.8,354.7,109.8z"/>
<path class="st0" d="M417.9,108.6l-16.9-26.2h-0.6v26.2h-11.1V32.8c-2.4-0.6-6.3-1.8-6.3-1.8v-5.1c0,0,11.1-0.6,17.5,0v53.3h0.6
	l15.3-22.3H430l-18.1,24.1l21.1,28C432.4,108.6,417.9,108.6,417.9,108.6z"/>
<path class="st0" d="M450.7,66.5L450.7,66.5c3.6-6.3,9.3-11.1,18.1-11.1c11.7,0,15.6,7.5,15.6,16.9v36.1h-11.1V75.5
	c0-6.3-1.8-10.5-7.5-10.5c-7.5,0-13.5,8.1-13.5,18.7v25.3h-11.1V63.8c-2.4-0.6-6.3-1.2-6.3-1.2v-5.1c0,0,11.1-0.6,17.5-0.6
	C451.9,59.6,451.3,63.8,450.7,66.5z"/>
<path class="st0" d="M512.1,108.6H501V63.5c-2.4-0.6-6.3-1.2-6.3-1.2v-5.1c0,0,10.5-0.6,17.5-0.6V108.6z"/>
<path class="st0" d="M506.1,45.4c-4.2,0-6.9-3-6.9-6.9c0-4.2,3.6-6.9,6.9-6.9c4.2,0,6.9,3,6.9,6.9C513.3,42.1,510.3,45.4,506.1,45.4
	z"/>
<path class="st0" d="M538.3,66.5L538.3,66.5c3.6-6.3,9.3-11.1,18.1-11.1c11.7,0,15.6,7.5,15.6,16.9v36.1h-11.1V75.5
	c0-6.3-1.8-10.5-7.5-10.5c-7.5,0-13.5,8.1-13.5,18.7v25.3h-11.1V63.8c-2.4-0.6-6.3-1.2-6.3-1.2v-5.1c0,0,10.5-0.6,16.9-0.6
	C538.9,59.6,538.9,63.8,538.3,66.5z"/>
<path class="st0" d="M649.9,109.8c-4.2,0-7.5-0.6-11.1-1.2l0.6-9.3c3.6,1.2,7.5,1.8,11.1,1.8c5.7,0,10.5-2.4,10.5-6.9
	c0-10.5-22.9-4.2-22.9-22.3c0-8.7,7.5-16.2,21.7-16.2c3,0,6.3,0.6,9.9,1.2l-0.6,9.3c-3-1.2-6.9-1.8-9.9-1.8c-6.3,0-9.3,2.4-9.3,6.3
	c0,9.9,22.9,4.8,22.9,22.3C672.8,102.9,664.1,109.8,649.9,109.8z"/>
<path class="st0" d="M695.1,68.3L695.1,68.3c3-6.9,8.7-13.5,18.7-12.9v11.1c-10.5-1.8-16.9,5.1-16.9,21.1v21.1h-11.1V63.5
	c-2.4-0.6-6.9-1.2-6.9-1.2v-5.1c0,0,11.7-0.6,17.5-0.6C696.3,59.6,695.7,64.4,695.1,68.3z"/>
<path class="st0" d="M807.9,108.6l0.6-9.9l0,0c-3,6.3-8.7,10.5-16.9,10.5c-12.9,0-19.3-9.9-19.3-25.3c0-18.1,10.5-29.2,27.4-29.2
	c2.4,0,5.1,0,7.5,0.6V31.9c-2.4-0.6-6.9-1.8-6.9-1.8v-4.8c0,0,11.7-0.6,18.1,0v76.4c2.4,0.6,6.9,1.8,6.9,1.8v4.8L807.9,108.6z
	 M807.9,65.6c-3-0.6-5.7-1.2-8.1-1.2c-8.7,0-15.3,5.1-15.3,19.3c0,10.5,3.6,16.9,10.5,16.9c8.1,0,12.9-9.9,12.9-18.7L807.9,65.6
	L807.9,65.6z"/>
<path class="st0" d="M876.8,84.9h-33.4c-0.6,12.3,5.1,15.6,15.3,15.6c5.1,0,11.1-1.2,15.3-3.6l1.2,8.7c-5.1,2.4-11.7,3.6-18.1,3.6
	c-16.2,0-25.3-8.1-25.3-26.8c0-15.6,8.7-27.4,24.1-27.4c14.7,0,21.1,11.7,21.1,24.1C877.4,81.2,877.4,83.1,876.8,84.9z M855.8,63.8
	c-7.5,0-10.5,4.8-11.7,12.9h23.5C867.5,67.1,862.1,63.8,855.8,63.8z"/>
<path class="st0" d="M905.4,109.8c-11.1,0-14.7-4.2-14.7-15.6V65.6h-9.3v-8.7h9.9V38.2l11.1-3v21.7H916v8.7h-13.5v25.3
	c0,7.5,1.8,9.9,6.9,9.9c2.4,0,4.8-0.6,6.9-0.6v9.3C912.9,109.2,909,109.8,905.4,109.8z"/>
<path class="st0" d="M634.9,122.2c0,14.7-13.5,19.3-25.6,19.3c-16.9,0-25.6-6.9-25.6-19.9c0-1.8,0-3.6,0.6-5.1v-0.6h11.1l-0.6,1.2
	v0.6c-0.6,1.2-1.2,3-1.2,4.8c0,8.7,8.1,10.5,15.6,10.5s15.6-3,15.6-10.5c0-8.7-8.1-10.5-15.6-10.5s-18.7-3-18.7-9.9
	c0-3.6,3.6-7.5,6.9-9.3c-7.5-2.4-11.7-8.7-11.7-18.7c0-14.1,11.1-19.3,21.1-19.3c3,0,5.7,0.6,8.1,1.2l16.9-1.2h0.6v0.6v5.1v0.6h-0.6
	c0,0-6.3,1.8-8.7,2.4c1.8,3,4.2,6.3,4.2,10.5c0,13.5-8.1,18.1-20.5,20.5c-3,0.6-4.8,2.4-5.1,4.2c-0.6,1.2-0.6,1.8,0,2.4
	c1.2,1.8,6.3,1.8,8.7,1.8C630.1,102.9,634.9,113.4,634.9,122.2z M605.4,85.5c5.1,0,11.1-3,11.1-10.5c0-6.9-3.6-10.5-11.1-10.5
	c-5.1,0-11.7,3-11.7,10.5C594,81.8,597.9,85.5,605.4,85.5z"/>
<path class="st0" d="M318.6,68.3L318.6,68.3c3-6.9,8.7-13.5,18.7-12.9v11.1c-10.5-1.8-16.9,5.1-16.9,21.1v21.1h-11.1V63.5
	c-2.4-0.6-6.9-1.2-6.9-1.2v-5.1c0,0,11.7-0.6,17.5-0.6C319.8,59.6,319.2,64.4,318.6,68.3z"/>
<path class="st0" d="M119.1,137.8L81.2,72.5c-0.6-0.6-0.6-0.6-1.8-0.6c-0.6,0-1.2,0.6-1.2,0.6l-37.3,66.2c0,0-0.6,0.6-0.6,1.2
	c0,1.2,0.6,1.8,1.8,1.8h75.8c0.6,0,1.8-0.6,1.8-1.8C119.7,139,119.7,138.4,119.1,137.8z"/>
<path class="st1" d="M117.9,0H42.1c-1.2,0-1.8,0.6-1.8,1.8c0,0.6,0,0.6,0.6,1.2l37.9,65.3c0,0.6,0.6,1.2,1.8,1.2
	c0.6,0,1.2-0.6,1.8-0.6l0,0l37.9-65.6c0-0.6,0.6-0.6,0.6-1.2C119.7,0.6,119.1,0,117.9,0z"/>
<path class="st2" d="M112.2,24.1C112.2,24.1,111.6,24.1,112.2,24.1c-1.2,0-1.2,0.6-1.2,1.2s0.6,1.2,0.6,1.2
	c16.9,5.7,28.6,16.2,28.6,28c0,14.7-17.5,26.8-42.1,31.6c-0.6,0-1.2,0.6-1.2,1.2v0.6c1.8,4.2,4.8,8.7,6.9,12.9
	c3,5.1,6.3,10.5,9.3,15.3c0.6,0.6,0.6,0.6,1.8,0.6h0.6c26.8-8.1,45.7-25.6,45.7-45.7C160.6,49.7,140.8,32.2,112.2,24.1z"/>
<path class="st2" d="M47.2,116.8C47.8,116.8,47.8,116.8,47.2,116.8c1.2,0,1.2-0.6,1.2-1.2c0-0.6-0.6-1.2-0.6-1.2
	c-16.9-5.7-28.6-16.2-28.6-28c0-14.7,17.5-26.8,42.1-31.6c0.6,0,1.2-0.6,1.2-1.2V53c-1.8-3.9-4.8-8.4-7.2-12.6
	c-3-5.1-5.7-10.5-8.7-15.3c-0.6-0.6-1.2-0.6-1.8-0.6h-0.6C17.4,32.5-1.5,50-1.5,70.1C-1.2,91.2,18.6,108.6,47.2,116.8z"/>
</svg>
