<?xml version="1.0" encoding="utf-8"?>
<!-- Generator: Adobe Illustrator 23.0.2, SVG Export Plug-In . SVG Version: 6.00 Build 0)  -->
<svg version="1.1" id="Layer_1" xmlns="http://www.w3.org/2000/svg" xmlns:xlink="http://www.w3.org/1999/xlink" x="0px" y="0px"
	 viewBox="0 0 353.9 142.1" style="enable-background:new 0 0 353.9 142.1;" xml:space="preserve">
<style type="text/css">
	.st0{fill:#FF5C57;}
</style>
<g>
	<g>
		<path class="st0" d="M331.7,0.6h-3.3V10h2.6c7.8,0,12.4,4.1,12.4,11.6l0,0c0,7-4.6,11.6-12.4,11.6h-2.6v9.4h2.6
			c12.9-0.2,22.9-7.4,22.9-21.1l0,0C354,8.5,345.2,0.6,331.7,0.6z"/>
		<rect x="311.6" y="0.6" class="st0" width="10.3" height="62.1"/>
	</g>
	<g>
		<path class="st0" d="M271.5,53.8c-6.1-1.3-9.5-6.3-9.5-14.8V0.6h-10.3V39c0,15.1,7.8,23.3,19.8,24.6V53.8z"/>
		<path class="st0" d="M287.7,0.6v38.6c0,8.5-3.7,13.3-9.5,14.6v9.5c12.2-1.3,19.8-9.5,19.8-24.9V0.6H287.7z"/>
	</g>
	<polygon class="st0" points="41.2,132.1 14.8,132.1 14.8,79.6 4.3,79.6 4.3,141.6 37.9,141.6 	"/>
	<g>
		<path class="st0" d="M0,54.5c5.9,5.2,12.2,8.1,19.2,8.7v-9.5c-5-0.8-9.2-3.7-12.9-7L0,54.5z"/>
		<path class="st0" d="M41.7,7.2C36.8,3,31.4,0.6,25.2,0v9.5c3.7,0.8,7.2,2.8,10.5,5.4L41.7,7.2z"/>
		<path class="st0" d="M25.7,27.3c-10.5-4.1-12.9-6.5-12.9-10.9l0,0c0-3.3,2.4-6.1,6.3-7V0C9.2,1.3,2.4,7.8,2.4,17.3v0.2
			c0,10,6.1,14.4,17.9,18.7c9.8,3.7,12,6.1,12,10l0,0c0,3.7-2.6,6.8-6.8,7.6v9.4c10-1.1,17.3-7.8,17.3-17.6v-0.2
			C42.5,36.4,37.3,31.6,25.7,27.3z"/>
	</g>
	<g>
		<rect x="63.4" y="16.5" class="st0" width="10.3" height="46.2"/>
		<rect x="47.1" y="0.6" class="st0" width="43" height="9.5"/>
	</g>
	<g>
		<rect x="216.5" y="16.5" class="st0" width="10.3" height="46.2"/>
		<rect x="200.1" y="0.6" class="st0" width="43" height="9.5"/>
	</g>
	<g>
		<path class="st0" d="M172.9,10c7.6,0,12.2,3.7,12.2,10.6v0.2c0,6.5-4.3,10.6-12.4,10.6h-3.5v9.2h2.4c14.4,0,24-7.6,24-20.3v-0.5
			c0-5.7-1.9-10.5-5.2-13.8c-3.7-3.7-9.5-5.9-16.5-5.9h-22.5v9.4L172.9,10z"/>
		<polygon class="st0" points="186.2,44.7 175.7,46.6 185.2,62.8 197.3,62.8 		"/>
		<polygon class="st0" points="161.5,52.8 161.5,24 161.5,24 161.5,16.3 151.3,16.3 151.3,62.8 161.5,62.8 		"/>
	</g>
	<path class="st0" d="M125.3,88.7h5c6.8,0,10.5,3,10.5,8.3v0.2c0,5.7-4.3,8.7-11.1,8.7h-4.3v8.7c0,0,0.8,0,3.5,0
		c13,0,22.2-5,22.2-19.2v-0.2c0-4.3-1.6-7.6-4.1-10.5c-3.5-3.5-9.2-5.2-15.9-5.2h-5.7C125.3,79.6,125.3,88.7,125.3,88.7z"/>
	<rect x="108.8" y="79.6" class="st0" width="10.3" height="62.1"/>
	<g>
		<polygon class="st0" points="116.9,39 106.4,39 111.6,24.2 106.8,10.5 87.7,62.8 98,62.8 103.3,48.2 120.1,48.2 		"/>
		<polygon class="st0" points="120.5,0.2 110.5,0.2 110.5,0.2 132.6,62.8 143.2,62.8 		"/>
	</g>
	<g>
		<polygon class="st0" points="73.7,118 63.4,118 68.7,103.1 63.6,89.4 44.7,141.6 54.9,141.6 60.1,127 76.9,127 		"/>
		<polygon class="st0" points="77.4,79.1 67.4,79.1 67.4,79.1 89.3,141.6 100.2,141.6 		"/>
	</g>
	<path class="st0" d="M150.2,114.7l-8.7,3.5c1.3,1.6,1.9,3.3,1.9,5.4v0.2c0,5.7-4.3,8.7-11.6,8.7h-6.5v9.2h6.3c13.3,0,22-6.1,22-17
		v-0.5C153.7,120.1,152.4,117,150.2,114.7z"/>
</g>
</svg>
