<?xml version="1.0" encoding="utf-8"?>
<!-- Generator: Adobe Illustrator 23.0.2, SVG Export Plug-In . SVG Version: 6.00 Build 0)  -->
<svg version="1.1" id="Layer_1" xmlns="http://www.w3.org/2000/svg" xmlns:xlink="http://www.w3.org/1999/xlink" x="0px" y="0px"
	 viewBox="0 0 395.6 158.3" style="enable-background:new 0 0 395.6 158.3;" xml:space="preserve">
<style type="text/css">
	.st0{fill:#FF5C57;}
</style>
<g>
	<g>
		<path class="st0" d="M366.4,2.7h-3.6v10.2h2.8c8.5,0,13.5,4.5,13.5,12.6l0,0c0,7.6-5,12.6-13.5,12.6h-2.8v10.2h2.8
			c14-0.2,24.9-8.1,24.9-23l0,0C390.6,11.3,381.1,2.7,366.4,2.7z"/>
		<rect x="344.5" y="2.7" class="st0" width="11.2" height="67.7"/>
	</g>
	<g>
		<path class="st0" d="M300.8,60.6c-6.6-1.4-10.4-6.9-10.4-16.1V2.7h-11.2v41.8c0,16.4,8.5,25.4,21.6,26.8V60.6z"/>
		<path class="st0" d="M318.4,2.7v42c0,9.3-4,14.5-10.4,15.9v10.4c13.3-1.4,21.6-10.4,21.6-27.1V2.7H318.4z"/>
	</g>
	<polygon class="st0" points="49.9,145.9 21.1,145.9 21.1,88.7 9.7,88.7 9.7,156.3 46.3,156.3 	"/>
	<g>
		<path class="st0" d="M5,61.4c6.4,5.7,13.3,8.8,20.9,9.5V60.6c-5.5-0.9-10-4-14-7.6L5,61.4z"/>
		<path class="st0" d="M50.4,9.8C45.1,5.3,39.2,2.7,32.5,2v10.4c4,0.9,7.8,3.1,11.4,5.9L50.4,9.8z"/>
		<path class="st0" d="M33,31.7c-11.4-4.5-14-7.1-14-11.9l0,0c0-3.6,2.6-6.6,6.9-7.6V2C15,3.4,7.6,10.5,7.6,20.8V21
			c0,10.9,6.6,15.7,19.5,20.4c10.7,4,13.1,6.6,13.1,10.9l0,0c0,4-2.8,7.4-7.4,8.3v10.2c10.9-1.2,18.8-8.5,18.8-19.2v-0.2
			C51.3,41.7,45.6,36.4,33,31.7z"/>
	</g>
	<g>
		<rect x="74.1" y="20" class="st0" width="11.2" height="50.3"/>
		<rect x="56.3" y="2.7" class="st0" width="46.8" height="10.4"/>
	</g>
	<g>
		<rect x="240.8" y="20" class="st0" width="11.2" height="50.3"/>
		<rect x="223" y="2.7" class="st0" width="46.8" height="10.4"/>
	</g>
	<g>
		<path class="st0" d="M193.3,12.9c8.3,0,13.3,4,13.3,11.6v0.2c0,7.1-4.7,11.6-13.5,11.6h-3.8v10h2.6c15.7,0,26.1-8.3,26.1-22.1
			v-0.5c0-6.2-2.1-11.4-5.7-15c-4-4-10.4-6.4-18-6.4h-24.5v10.2L193.3,12.9z"/>
		<polygon class="st0" points="207.8,50.7 196.4,52.8 206.8,70.4 219.9,70.4 		"/>
		<polygon class="st0" points="180.9,59.5 180.9,28.1 180.9,28.1 180.9,19.8 169.8,19.8 169.8,70.4 180.9,70.4 		"/>
	</g>
	<path class="st0" d="M141.5,98.6h5.5c7.4,0,11.4,3.3,11.4,9v0.2c0,6.2-4.7,9.5-12.1,9.5h-4.7v9.5c0,0,0.9,0,3.8,0
		c14.2,0,24.2-5.5,24.2-20.9v-0.2c0-4.7-1.7-8.3-4.5-11.4c-3.8-3.8-10-5.7-17.3-5.7h-6.2C141.5,88.7,141.5,98.6,141.5,98.6z"/>
	<rect x="123.5" y="88.7" class="st0" width="11.2" height="67.7"/>
	<g>
		<polygon class="st0" points="132.3,44.5 120.9,44.5 126.6,28.4 121.3,13.4 100.5,70.4 111.8,70.4 117.5,54.5 135.8,54.5 		"/>
		<polygon class="st0" points="136.3,2.2 125.4,2.2 125.4,2.2 149.4,70.4 161,70.4 		"/>
	</g>
	<g>
		<polygon class="st0" points="85.3,130.5 74.1,130.5 79.8,114.3 74.3,99.4 53.7,156.3 64.8,156.3 70.5,140.4 88.8,140.4 		"/>
		<polygon class="st0" points="89.3,88.2 78.4,88.2 78.4,88.2 102.3,156.3 114.2,156.3 		"/>
	</g>
	<path class="st0" d="M168.6,126.9l-9.5,3.8c1.4,1.7,2.1,3.6,2.1,5.9v0.2c0,6.2-4.7,9.5-12.6,9.5h-7.1v10h6.9c14.5,0,24-6.6,24-18.5
		v-0.5C172.4,132.8,171,129.5,168.6,126.9z"/>
</g>
</svg>
