<?xml version="1.0" encoding="utf-8"?>
<!-- Generator: Adobe Illustrator 23.0.1, SVG Export Plug-In . SVG Version: 6.00 Build 0)  -->
<svg version="1.1" id="Layer_1" xmlns="http://www.w3.org/2000/svg" xmlns:xlink="http://www.w3.org/1999/xlink" x="0px" y="0px"
	 viewBox="0 0 42.5 42.5" style="enable-background:new 0 0 42.5 42.5;" xml:space="preserve">
<style type="text/css">
	.st0{fill:#4367AF;}
	.st1{fill:#153559;}
	.st2{fill:#FFFFFF;}
</style>
<circle class="st0" cx="88.7" cy="21.3" r="21.3"/>
<circle class="st1" cx="21.3" cy="21.3" r="21.3"/>
<path class="st2" d="M82.7,34.3h-5.4V16.9h5.4V34.3z M80,14.5c-1.7,0-3.1-1.4-3.1-3.1s1.4-3.1,3.1-3.1s3.1,1.4,3.1,3.1
	S81.7,14.5,80,14.5z M102.9,34.3h-5.4v-8.4c0-2,0-4.6-2.8-4.6s-3.2,2.2-3.2,4.4v8.6h-5.4V16.9h5.2v2.4h0.1c0.7-1.4,2.5-2.8,5.1-2.8
	c5.5,0,6.5,3.6,6.5,8.3L102.9,34.3L102.9,34.3z"/>
<path class="st2" d="M18.2,34.3V22.6h-3.9V18h3.9v-3.6c0-4,2.4-6.1,5.9-6.1c1.7,0,3.1,0.1,3.6,0.2v4.1h-2.4c-1.9,0-2.3,0.9-2.3,2.2
	V18h4.3l-0.6,4.6H23v11.6"/>
</svg>
