<?xml version="1.0" encoding="utf-8"?>
<!-- Generator: Adobe Illustrator 23.0.2, SVG Export Plug-In . SVG Version: 6.00 Build 0)  -->
<svg version="1.1" id="Layer_1" xmlns="http://www.w3.org/2000/svg" xmlns:xlink="http://www.w3.org/1999/xlink" x="0px" y="0px"
	 viewBox="0 0 264.8 113.4" style="enable-background:new 0 0 264.8 113.4;" xml:space="preserve">
<style type="text/css">
	.st0{fill:#18243F;}
	.st1{fill:#31B096;}
</style>
<path class="st0" d="M85.4,89.7c1.5,0,2.8,0.4,3.8,1.3c1,0.9,1.6,2.1,1.8,3.5H79.8c0.3-1.4,0.8-2.6,1.8-3.5
	C82.7,90.1,84,89.7,85.4,89.7 M95.4,96.2c0-2-0.4-3.8-1.3-5.3c-0.8-1.5-2-2.8-3.6-3.6c-1.5-0.8-3.3-1.3-5.2-1.3s-3.7,0.4-5.3,1.3
	c-1.6,0.8-2.8,2.1-3.7,3.6c-0.8,1.5-1.3,3.3-1.3,5.2c0,1.9,0.4,3.7,1.3,5.3c0.9,1.5,2.2,2.8,3.8,3.6c1.7,0.8,3.6,1.3,5.8,1.3
	c1.7,0,3.3-0.3,4.6-0.8c1.3-0.5,2.5-1.3,3.3-2.4l-2.5-2.8c-1.4,1.4-3.2,2.2-5.3,2.2c-1.7,0-3.1-0.4-4.3-1.3c-1.2-0.8-1.8-2-2.1-3.4
	h15.5C95.4,97,95.4,96.6,95.4,96.2 M73.8,101.7c-0.7,0.6-1.6,0.8-2.6,0.8c-0.9,0-1.6-0.3-2-0.8c-0.5-0.5-0.7-1.3-0.7-2.2V90h5.3
	v-3.7h-5.3v-4.5h-4.6v4.5h-3.3V90h3.3v9.5c0,2.2,0.6,3.8,1.8,4.9c1.2,1.2,2.8,1.7,5,1.7c0.8,0,1.7-0.1,2.4-0.3c0.8-0.3,1.4-0.6,2-1
	L73.8,101.7z M55.6,82.9c0.8,0,1.6-0.3,2.1-0.8c0.6-0.6,0.8-1.3,0.8-2.1c0-0.8-0.3-1.4-0.8-1.9c-0.6-0.5-1.3-0.8-2.1-0.8
	c-0.8,0-1.5,0.3-2.1,0.8c-0.6,0.5-0.8,1.2-0.8,2c0,0.8,0.3,1.4,0.8,2C54.1,82.7,54.7,82.9,55.6,82.9 M53.3,106h4.6V86.2h-4.6V106z
	 M42,85.9c-1.4,0-2.8,0.3-3.9,0.7c-1.2,0.5-2.1,1.2-2.9,2.1v-2.6h-4.4v19.8h4.6v-10c0-1.9,0.5-3.4,1.5-4.4c1-1,2.3-1.5,4-1.5
	c1.5,0,2.7,0.4,3.5,1.3c0.8,0.9,1.3,2.2,1.3,3.9V106h4.6V94.6c0-2.8-0.8-5-2.3-6.5C46.4,86.6,44.5,85.9,42,85.9 M17.2,101.1
	c-1.8,0-3.3-0.5-4.3-1.6c-1.1-1.1-1.7-2.4-1.7-4.1c0-1.7,0.6-3,1.7-4c1.1-1,2.6-1.6,4.3-1.6c1.8,0,3.2,0.5,4.3,1.6
	c1.1,1,1.7,2.4,1.7,4c0,1.7-0.6,3-1.7,4.1S19,101.1,17.2,101.1 M23.4,86.2v2.6c-0.8-1-1.8-1.7-2.9-2.2c-1.2-0.5-2.5-0.7-3.9-0.7
	c-1.8,0-3.6,0.4-5.1,1.2c-1.5,0.8-2.8,1.9-3.6,3.3s-1.3,3.1-1.3,5c0,1.8,0.4,3.5,1.3,5c0.8,1.4,2.1,2.6,3.6,3.4s3.3,1.2,5.1,1.2
	c1.3,0,2.6-0.3,3.8-0.7c1.2-0.4,2.1-1.1,2.9-1.9v1c0,2-0.5,3.5-1.5,4.5c-1,1-2.6,1.5-4.8,1.5c-1.3,0-2.7-0.3-4-0.7s-2.4-1-3.3-1.8
	l-2.1,3.5c1.1,0.9,2.5,1.6,4.3,2.1c1.7,0.5,3.5,0.8,5.4,0.8c7.1,0,10.7-3.5,10.7-10.4V86.2L23.4,86.2L23.4,86.2z M0,106h4.8V80.1H0
	V106z"/>
<path class="st1" d="M262.3,86.5l-7.4,16.5l-7.4-16.5h-2.8l8.7,19.5l-0.8,1.9c-0.6,1.2-1.2,2-1.8,2.5c-0.7,0.5-1.4,0.8-2.3,0.8
	c-1.4,0-2.6-0.5-3.6-1.5l-1.3,1.9c0.6,0.6,1.3,1,2.1,1.3c0.8,0.3,1.7,0.4,2.6,0.4c1.4,0,2.7-0.4,3.8-1.2c1-0.8,1.9-2.1,2.8-3.9
	l9.8-21.8L262.3,86.5L262.3,86.5z M235.9,86.4c-1.8,0-3.3,0.3-4.6,1.1c-1.3,0.8-2.3,1.8-3.1,3c-0.6-1.3-1.5-2.4-2.7-3.1
	c-1.2-0.7-2.6-1-4.3-1c-1.6,0-3,0.3-4.3,1s-2.2,1.6-2.9,2.8v-3.6h-2.5V106h2.6V95.8c0-2.2,0.6-3.9,1.8-5.2c1.2-1.3,2.8-1.8,4.8-1.8
	c1.8,0,3.2,0.5,4.2,1.6s1.5,2.6,1.5,4.6v11h2.6V95.8c0-2.2,0.6-3.9,1.8-5.2c1.2-1.3,2.8-1.8,4.8-1.8c1.8,0,3.2,0.5,4.1,1.6
	c1,1.1,1.5,2.6,1.5,4.6v11h2.6V94.7c0-2.8-0.7-4.8-2.1-6.2C240.2,87,238.3,86.4,235.9,86.4 M198.5,88.6c1.9,0,3.5,0.6,4.8,1.8
	c1.3,1.2,2,2.8,2.2,4.7h-13.8c0.2-1.9,0.9-3.5,2.2-4.7C195,89.2,196.6,88.6,198.5,88.6 M207.9,96.2c0-1.9-0.4-3.7-1.3-5.1
	c-0.8-1.5-1.9-2.7-3.3-3.5c-1.4-0.8-3-1.3-4.8-1.3c-1.8,0-3.4,0.4-4.8,1.3c-1.4,0.8-2.6,2-3.4,3.5c-0.8,1.5-1.3,3.2-1.3,5.1
	s0.4,3.6,1.3,5.1c0.8,1.5,2.1,2.7,3.6,3.5c1.5,0.8,3.3,1.3,5.3,1.3c1.6,0,3-0.3,4.3-0.8c1.3-0.6,2.3-1.3,3.3-2.3l-1.5-1.7
	c-0.8,0.8-1.6,1.5-2.6,1.9c-1,0.4-2.1,0.7-3.3,0.7c-2.2,0-3.9-0.6-5.3-1.8c-1.4-1.3-2.2-2.9-2.3-4.9h16.3V96.2z M175.3,103.8
	c-1.4,0-2.6-0.3-3.8-0.9c-1.1-0.7-1.9-1.5-2.6-2.7c-0.7-1.2-0.9-2.5-0.9-3.9c0-1.5,0.3-2.8,0.9-3.9c0.7-1.2,1.5-2.1,2.6-2.7
	c1.1-0.7,2.3-0.9,3.8-0.9c1.3,0,2.6,0.3,3.7,0.9c1.1,0.7,1.9,1.5,2.6,2.7c0.7,1.2,0.9,2.5,0.9,3.9c0,1.5-0.3,2.8-0.9,3.9
	c-0.7,1.2-1.5,2.1-2.6,2.7C177.9,103.5,176.6,103.8,175.3,103.8 M182.5,78.5v11.7c-0.8-1.3-1.8-2.3-3.1-2.8c-1.3-0.7-2.7-1-4.3-1
	c-1.8,0-3.5,0.4-4.9,1.3c-1.5,0.8-2.7,2-3.5,3.5c-0.8,1.5-1.3,3.3-1.3,5.2c0,1.9,0.4,3.7,1.3,5.2c0.8,1.5,2,2.7,3.5,3.5
	s3.2,1.3,4.9,1.3c1.7,0,3.1-0.3,4.4-1c1.3-0.7,2.3-1.7,3.1-3v3.8h2.5V78.6L182.5,78.5L182.5,78.5z M153,104.1c-1.6,0-2.8-0.3-3.6-1
	c-0.8-0.7-1.3-1.6-1.3-2.7c0-2.3,1.7-3.5,5-3.5h6.1v3.2c-0.5,1.3-1.3,2.3-2.3,2.9C155.8,103.7,154.5,104.1,153,104.1 M153.9,86.4
	c-1.5,0-3,0.3-4.3,0.7c-1.4,0.4-2.6,1.1-3.6,1.9l1.2,1.9c0.8-0.8,1.8-1.3,2.9-1.7c1.2-0.4,2.3-0.6,3.6-0.6c1.8,0,3.2,0.4,4.1,1.3
	c0.9,0.8,1.4,2.2,1.4,3.8V95H153c-2.6,0-4.5,0.5-5.8,1.5c-1.2,1-1.8,2.3-1.8,4s0.7,3.1,1.9,4.1s3,1.6,5.2,1.6c1.6,0,2.9-0.3,4.1-0.8
	s2-1.3,2.6-2.3v3h2.5V93.9c0-2.5-0.7-4.3-2-5.7C158.4,87,156.5,86.4,153.9,86.4 M135.6,106.2c1.7,0,3.2-0.3,4.5-1s2.4-1.6,3.2-2.8
	l-1.9-1.3c-0.7,1-1.4,1.7-2.4,2.2c-1,0.5-2.1,0.7-3.3,0.7c-1.4,0-2.7-0.3-3.8-0.9c-1.1-0.7-2-1.5-2.6-2.7c-0.7-1.2-0.9-2.5-0.9-4
	c0-1.5,0.3-2.8,0.9-3.9c0.7-1.2,1.5-2.1,2.6-2.7c1.1-0.7,2.4-0.9,3.8-0.9c1.2,0,2.3,0.3,3.3,0.8c1,0.5,1.8,1.2,2.4,2.2l1.9-1.3
	c-0.8-1.3-1.8-2.3-3.1-2.8c-1.3-0.7-2.8-1-4.5-1c-1.9,0-3.7,0.4-5.2,1.3s-2.7,2-3.6,3.5c-0.8,1.5-1.3,3.2-1.3,5.1
	c0,1.9,0.4,3.6,1.3,5.1c0.8,1.5,2.1,2.7,3.6,3.5C132,105.7,133.7,106.2,135.6,106.2 M106.1,96.8l6.2-14l6.2,14H106.1z M122.7,106
	h2.9l-11.9-25.9h-2.7L99.3,106h2.8l3.1-6.9h14.5L122.7,106z"/>
<circle class="st0" cx="132.3" cy="52.4" r="3.9"/>
<circle class="st1" cx="158" cy="40.3" r="3.9"/>
<circle class="st0" cx="158" cy="16.2" r="3.9"/>
<circle class="st0" cx="106.8" cy="16.2" r="3.9"/>
<circle class="st1" cx="106.8" cy="40.3" r="3.9"/>
<circle class="st0" cx="132.3" cy="28.3" r="3.9"/>
<circle class="st1" cx="132.3" cy="3.9" r="3.9"/>
<circle class="st0" cx="106.8" cy="28.3" r="2.5"/>
<circle class="st0" cx="158" cy="28.3" r="2.5"/>
<circle class="st0" cx="145.3" cy="10.2" r="2.5"/>
<circle class="st0" cx="119.4" cy="10.2" r="2.5"/>
<circle class="st0" cx="119.4" cy="46.4" r="2.5"/>
<circle class="st0" cx="145.3" cy="46.4" r="2.5"/>
<circle class="st0" cx="119.4" cy="22.3" r="2"/>
<circle class="st0" cx="119.4" cy="34.3" r="2"/>
<circle class="st0" cx="145.3" cy="34.3" r="2"/>
<circle class="st0" cx="132.3" cy="40.3" r="2"/>
<circle class="st0" cx="132.3" cy="16.2" r="2"/>
<circle class="st0" cx="145.3" cy="22.3" r="2"/>
</svg>
