<svg xmlns="http://www.w3.org/2000/svg" viewBox="0 0 1920 919"><style>.st1{opacity:.2}.st2{fill:#18243f}</style><g id="Layer_2"><linearGradient id="SVGID_1_" gradientUnits="userSpaceOnUse" x1="-4" y1="459.5" x2="1920" y2="459.5"><stop offset="0" stop-color="#18243f"/><stop offset=".472" stop-color="#153559"/><stop offset="1" stop-color="#3c6fe9"/></linearGradient><path fill="url(#SVGID_1_)" d="M-4 0h1924v919H-4z"/></g><g id="Layer_1"><g class="st1"><path class="st2" d="M112.7 67.2c7.9 0 14.3-6.4 14.3-14.3s-6.4-14.3-14.3-14.3S98.4 45 98.4 52.9s6.4 14.3 14.3 14.3m0 153.7c7.9 0 14.3-6.4 14.3-14.3s-6.4-14.3-14.3-14.3-14.3 6.4-14.3 14.3 6.4 14.3 14.3 14.3M61.5 323.4c7.9 0 14.3-6.4 14.3-14.3s-6.4-14.3-14.3-14.3-14.3 6.4-14.3 14.3c-.1 7.9 6.4 14.3 14.3 14.3m153.7-204.9c7.9 0 14.3-6.4 14.3-14.3s-6.4-14.3-14.3-14.3-14.3 6.4-14.3 14.3c-.1 7.9 6.3 14.3 14.3 14.3m153.6 51.2c7.9 0 14.3-6.4 14.3-14.3s-6.4-14.3-14.3-14.3-14.3 6.4-14.3 14.3 6.4 14.3 14.3 14.3m358.6 0c7.9 0 14.3-6.4 14.3-14.3s-6.4-14.3-14.3-14.3-14.3 6.4-14.3 14.3 6.4 14.3 14.3 14.3m51.3 51.2c7.9 0 14.3-6.4 14.3-14.3s-6.4-14.3-14.3-14.3-14.3 6.4-14.3 14.3c-.1 7.9 6.3 14.3 14.3 14.3m204.9-51.2c7.9 0 14.3-6.4 14.3-14.3s-6.4-14.3-14.3-14.3-14.3 6.4-14.3 14.3c-.1 7.9 6.3 14.3 14.3 14.3m102.4 0c7.9 0 14.3-6.4 14.3-14.3s-6.4-14.3-14.3-14.3-14.3 6.4-14.3 14.3 6.4 14.3 14.3 14.3m52 51.2c7.9 0 14.3-6.4 14.3-14.3s-6.4-14.3-14.3-14.3-14.3 6.4-14.3 14.3 6.4 14.3 14.3 14.3m409.1 0c7.9 0 14.3-6.4 14.3-14.3s-6.4-14.3-14.3-14.3-14.3 6.4-14.3 14.3c-.1 7.9 6.3 14.3 14.3 14.3m0 51.3c7.9 0 14.3-6.4 14.3-14.3s-6.4-14.3-14.3-14.3-14.3 6.4-14.3 14.3c-.1 7.8 6.3 14.3 14.3 14.3m51.2 51.2c7.9 0 14.3-6.4 14.3-14.3s-6.4-14.3-14.3-14.3-14.3 6.4-14.3 14.3c-.1 7.9 6.4 14.3 14.3 14.3m204.9-51.2c7.9 0 14.3-6.4 14.3-14.3s-6.4-14.3-14.3-14.3-14.3 6.4-14.3 14.3c0 7.8 6.4 14.3 14.3 14.3m102.5 0c7.9 0 14.3-6.4 14.3-14.3s-6.4-14.3-14.3-14.3-14.3 6.4-14.3 14.3c-.1 7.8 6.3 14.3 14.3 14.3m-307.4-51.3c7.9 0 14.3-6.4 14.3-14.3s-6.4-14.3-14.3-14.3-14.3 6.4-14.3 14.3c-.1 7.9 6.4 14.3 14.3 14.3m-256.1-51.2c7.9 0 14.3-6.4 14.3-14.3s-6.4-14.3-14.3-14.3-14.3 6.4-14.3 14.3c-.1 7.9 6.3 14.3 14.3 14.3m-51.3 102.5c7.9 0 14.3-6.4 14.3-14.3s-6.4-14.3-14.3-14.3-14.3 6.4-14.3 14.3c0 7.8 6.4 14.3 14.3 14.3m51.3 51.2c7.9 0 14.3-6.4 14.3-14.3s-6.4-14.3-14.3-14.3-14.3 6.4-14.3 14.3c-.1 7.9 6.3 14.3 14.3 14.3m51.2 0c7.9 0 14.3-6.4 14.3-14.3s-6.4-14.3-14.3-14.3-14.3 6.4-14.3 14.3c-.1 7.9 6.4 14.3 14.3 14.3m-204.9 0c7.9 0 14.3-6.4 14.3-14.3s-6.4-14.3-14.3-14.3-14.3 6.4-14.3 14.3c-.1 7.9 6.4 14.3 14.3 14.3m307.3-51.2c7.9 0 14.3-6.4 14.3-14.3s-6.4-14.3-14.3-14.3-14.3 6.4-14.3 14.3c0 7.8 6.4 14.3 14.3 14.3m-102.4-102.5c7.9 0 14.3-6.4 14.3-14.3s-6.4-14.3-14.3-14.3-14.3 6.4-14.3 14.3c-.1 7.9 6.4 14.3 14.3 14.3m102.4 0c7.9 0 14.3-6.4 14.3-14.3s-6.4-14.3-14.3-14.3-14.3 6.4-14.3 14.3 6.4 14.3 14.3 14.3m307.4 0c7.9 0 14.3-6.4 14.3-14.3s-6.4-14.3-14.3-14.3-14.3 6.4-14.3 14.3 6.4 14.3 14.3 14.3M420.1 118.5c7.9 0 14.3-6.4 14.3-14.3s-6.4-14.3-14.3-14.3-14.3 6.4-14.3 14.3c-.1 7.9 6.3 14.3 14.3 14.3m0 102.4c7.9 0 14.3-6.4 14.3-14.3s-6.4-14.3-14.3-14.3-14.3 6.4-14.3 14.3c-.1 7.9 6.3 14.3 14.3 14.3m409.8-102.4c7.9 0 14.3-6.4 14.3-14.3s-6.4-14.3-14.3-14.3-14.3 6.4-14.3 14.3c-.1 7.9 6.4 14.3 14.3 14.3m358.6 0c7.9 0 14.3-6.4 14.3-14.3s-6.4-14.3-14.3-14.3-14.3 6.4-14.3 14.3c-.1 7.9 6.4 14.3 14.3 14.3m153.7 0c7.9 0 14.3-6.4 14.3-14.3s-6.4-14.3-14.3-14.3-14.3 6.4-14.3 14.3c-.1 7.9 6.3 14.3 14.3 14.3m153.6 0c7.9 0 14.3-6.4 14.3-14.3s-6.4-14.3-14.3-14.3-14.3 6.4-14.3 14.3 6.4 14.3 14.3 14.3M522.5 67.2c7.9 0 14.3-6.4 14.3-14.3s-6.4-14.3-14.3-14.3-14.3 6.4-14.3 14.3 6.4 14.3 14.3 14.3m51.2 0c7.9 0 14.3-6.4 14.3-14.3s-6.4-14.3-14.3-14.3-14.3 6.4-14.3 14.3 6.4 14.3 14.3 14.3m461.1-28.6c-7.9 0-14.3 6.4-14.3 14.3s6.4 14.3 14.3 14.3 14.3-6.4 14.3-14.3-6.4-14.3-14.3-14.3m358.6 0c-7.9 0-14.3 6.4-14.3 14.3s6.4 14.3 14.3 14.3 14.3-6.4 14.3-14.3-6.4-14.3-14.3-14.3m153.7 0c-7.9 0-14.3 6.4-14.3 14.3s6.4 14.3 14.3 14.3 14.3-6.4 14.3-14.3-6.4-14.3-14.3-14.3m204.9 0c-7.9 0-14.3 6.4-14.3 14.3s6.4 14.3 14.3 14.3 14.3-6.4 14.3-14.3-6.4-14.3-14.3-14.3m51.2 0c-7.9 0-14.3 6.4-14.3 14.3s6.4 14.3 14.3 14.3 14.3-6.4 14.3-14.3-6.4-14.3-14.3-14.3M625 192.2c-7.9 0-14.3 6.4-14.3 14.3s6.4 14.3 14.3 14.3 14.3-6.4 14.3-14.3c0-7.8-6.4-14.3-14.3-14.3m358.6 0c-7.9 0-14.3 6.4-14.3 14.3s6.4 14.3 14.3 14.3 14.3-6.4 14.3-14.3c0-7.8-6.4-14.3-14.3-14.3m-51.3 51.3c-7.9 0-14.3 6.4-14.3 14.3s6.4 14.3 14.3 14.3 14.3-6.4 14.3-14.3c.1-7.9-6.3-14.3-14.3-14.3m153.7 0c-7.9 0-14.3 6.4-14.3 14.3s6.4 14.3 14.3 14.3 14.3-6.4 14.3-14.3c.1-7.9-6.4-14.3-14.3-14.3m-768.4 28.7c7.9 0 14.3-6.4 14.3-14.3s-6.4-14.3-14.3-14.3-14.3 6.4-14.3 14.3c0 7.8 6.4 14.3 14.3 14.3m204.9 0c7.9 0 14.3-6.4 14.3-14.3s-6.4-14.3-14.3-14.3-14.3 6.4-14.3 14.3c0 7.8 6.4 14.3 14.3 14.3m51.2 0c7.9 0 14.3-6.4 14.3-14.3s-6.4-14.3-14.3-14.3-14.3 6.4-14.3 14.3c0 7.8 6.4 14.3 14.3 14.3m0 51.2c7.9 0 14.3-6.4 14.3-14.3s-6.4-14.3-14.3-14.3-14.3 6.4-14.3 14.3 6.4 14.3 14.3 14.3m102.5 0c7.9 0 14.3-6.4 14.3-14.3s-6.4-14.3-14.3-14.3-14.3 6.4-14.3 14.3 6.4 14.3 14.3 14.3m51.2-51.2c7.9 0 14.3-6.4 14.3-14.3s-6.4-14.3-14.3-14.3-14.3 6.4-14.3 14.3c0 7.8 6.4 14.3 14.3 14.3M10.2 114.4c5.7 0 10.2-4.6 10.2-10.2 0-5.7-4.6-10.2-10.2-10.2S0 98.5 0 104.1c0 5.7 4.6 10.3 10.2 10.3m102.5 0c5.7 0 10.2-4.6 10.2-10.2 0-5.7-4.6-10.2-10.2-10.2-5.7 0-10.2 4.6-10.2 10.2s4.5 10.2 10.2 10.2m0 51.2c5.7 0 10.2-4.6 10.2-10.2 0-5.7-4.6-10.2-10.2-10.2-5.7 0-10.2 4.6-10.2 10.2s4.5 10.2 10.2 10.2m614.7-51.2c5.7 0 10.2-4.6 10.2-10.2 0-5.7-4.6-10.2-10.2-10.2-5.7 0-10.2 4.6-10.2 10.2s4.6 10.2 10.2 10.2m358.6 0c5.7 0 10.2-4.6 10.2-10.2 0-5.7-4.6-10.2-10.2-10.2-5.7 0-10.2 4.6-10.2 10.2s4.6 10.2 10.2 10.2m51.2 0c5.7 0 10.2-4.6 10.2-10.2 0-5.7-4.6-10.2-10.2-10.2-5.7 0-10.2 4.6-10.2 10.2s4.6 10.2 10.2 10.2m153.7 0c5.7 0 10.2-4.6 10.2-10.2 0-5.7-4.6-10.2-10.2-10.2-5.7 0-10.2 4.6-10.2 10.2s4.6 10.2 10.2 10.2m51.3 102.4c5.7 0 10.2-4.6 10.2-10.2 0-5.7-4.6-10.2-10.2-10.2-5.7 0-10.2 4.6-10.2 10.2-.1 5.6 4.5 10.2 10.2 10.2m0 51.3c5.7 0 10.2-4.6 10.2-10.2 0-5.7-4.6-10.2-10.2-10.2-5.7 0-10.2 4.6-10.2 10.2-.1 5.6 4.5 10.2 10.2 10.2m102.4 51.2c5.7 0 10.2-4.6 10.2-10.2 0-5.7-4.6-10.2-10.2-10.2s-10.2 4.6-10.2 10.2 4.6 10.2 10.2 10.2m358.6-102.5c5.7 0 10.2-4.6 10.2-10.2 0-5.7-4.6-10.2-10.2-10.2-5.7 0-10.2 4.6-10.2 10.2s4.5 10.2 10.2 10.2m-102.5 51.3c5.7 0 10.2-4.6 10.2-10.2 0-5.7-4.6-10.2-10.2-10.2-5.7 0-10.2 4.6-10.2 10.2s4.6 10.2 10.2 10.2m153.7 0c5.7 0 10.2-4.6 10.2-10.2 0-5.7-4.6-10.2-10.2-10.2-5.7 0-10.2 4.6-10.2 10.2s4.6 10.2 10.2 10.2m-51.2 51.2c5.7 0 10.2-4.6 10.2-10.2 0-5.7-4.6-10.2-10.2-10.2-5.7 0-10.2 4.6-10.2 10.2s4.5 10.2 10.2 10.2M420.1 63.1c5.7 0 10.2-4.6 10.2-10.2 0-5.7-4.6-10.2-10.2-10.2-5.7 0-10.2 4.6-10.2 10.2-.1 5.7 4.5 10.2 10.2 10.2m409.8 0c5.7 0 10.2-4.6 10.2-10.2 0-5.7-4.6-10.2-10.2-10.2-5.7 0-10.2 4.6-10.2 10.2-.1 5.7 4.5 10.2 10.2 10.2m153.7 0c5.7 0 10.2-4.6 10.2-10.2 0-5.7-4.6-10.2-10.2-10.2s-10.2 4.6-10.2 10.2c-.1 5.7 4.5 10.2 10.2 10.2m614.7 0c5.7 0 10.2-4.6 10.2-10.2 0-5.7-4.6-10.2-10.2-10.2-5.7 0-10.2 4.6-10.2 10.2-.1 5.7 4.5 10.2 10.2 10.2m204.9 51.4c5.7 0 10.2-4.6 10.2-10.2 0-5.7-4.6-10.2-10.2-10.2-5.7 0-10.2 4.6-10.2 10.2s4.5 10.2 10.2 10.2m51.2 0c5.7 0 10.2-4.6 10.2-10.2 0-5.7-4.6-10.2-10.2-10.2-5.7 0-10.2 4.6-10.2 10.2s4.6 10.2 10.2 10.2M471.3 63.1c5.7 0 10.2-4.6 10.2-10.2 0-5.7-4.6-10.2-10.2-10.2-5.7 0-10.2 4.6-10.2 10.2-.1 5.7 4.5 10.2 10.2 10.2m102.4 102.5c5.7 0 10.2-4.6 10.2-10.2 0-5.7-4.6-10.2-10.2-10.2s-10.2 4.6-10.2 10.2 4.6 10.2 10.2 10.2m0 51.2c5.7 0 10.2-4.6 10.2-10.2 0-5.7-4.6-10.2-10.2-10.2s-10.2 4.6-10.2 10.2 4.6 10.2 10.2 10.2m51.3 51.3c5.7 0 10.2-4.6 10.2-10.2 0-5.7-4.6-10.2-10.2-10.2-5.7 0-10.2 4.6-10.2 10.2-.1 5.6 4.5 10.2 10.2 10.2m0 51.2c5.7 0 10.2-4.6 10.2-10.2 0-5.7-4.6-10.2-10.2-10.2-5.7 0-10.2 4.6-10.2 10.2-.1 5.6 4.5 10.2 10.2 10.2m307.3-102.5c5.7 0 10.2-4.6 10.2-10.2 0-5.7-4.6-10.2-10.2-10.2-5.7 0-10.2 4.6-10.2 10.2s4.6 10.2 10.2 10.2m-51.2 51.3c5.7 0 10.2-4.6 10.2-10.2 0-5.7-4.6-10.2-10.2-10.2-5.7 0-10.2 4.6-10.2 10.2s4.6 10.2 10.2 10.2m-51.2-102.5c5.7 0 10.2-4.6 10.2-10.2 0-5.7-4.6-10.2-10.2-10.2-5.7 0-10.2 4.6-10.2 10.2-.1 5.6 4.5 10.2 10.2 10.2m204.9 0c5.7 0 10.2-4.6 10.2-10.2 0-5.7-4.6-10.2-10.2-10.2-5.7 0-10.2 4.6-10.2 10.2-.1 5.6 4.5 10.2 10.2 10.2m-51.2 153.7c5.7 0 10.2-4.6 10.2-10.2 0-5.7-4.6-10.2-10.2-10.2s-10.2 4.6-10.2 10.2c-.1 5.6 4.5 10.2 10.2 10.2m256.1-153.7c5.7 0 10.2-4.6 10.2-10.2 0-5.7-4.6-10.2-10.2-10.2-5.7 0-10.2 4.6-10.2 10.2s4.5 10.2 10.2 10.2m358.6 0c5.7 0 10.2-4.6 10.2-10.2 0-5.7-4.6-10.2-10.2-10.2-5.7 0-10.2 4.6-10.2 10.2-.1 5.6 4.5 10.2 10.2 10.2m51.2 0c5.7 0 10.2-4.6 10.2-10.2 0-5.7-4.6-10.2-10.2-10.2-5.7 0-10.2 4.6-10.2 10.2s4.6 10.2 10.2 10.2m204.9 0c5.7 0 10.2-4.6 10.2-10.2 0-5.7-4.6-10.2-10.2-10.2-5.7 0-10.2 4.6-10.2 10.2s4.6 10.2 10.2 10.2M215.2 216.8c5.7 0 10.2-4.6 10.2-10.2 0-5.7-4.6-10.2-10.2-10.2-5.7 0-10.2 4.6-10.2 10.2-.1 5.6 4.5 10.2 10.2 10.2m-51.3 102.5c5.7 0 10.2-4.6 10.2-10.2 0-5.7-4.6-10.2-10.2-10.2-5.7 0-10.2 4.6-10.2 10.2s4.6 10.2 10.2 10.2m922.1-123c-5.7 0-10.2 4.6-10.2 10.2 0 5.7 4.6 10.2 10.2 10.2 5.7 0 10.2-4.6 10.2-10.2.1-5.6-4.5-10.2-10.2-10.2m51.2 51.3c-5.7 0-10.2 4.6-10.2 10.2 0 5.7 4.6 10.2 10.2 10.2 5.7 0 10.2-4.6 10.2-10.2.1-5.6-4.5-10.2-10.2-10.2m-768.4-30.8c5.7 0 10.2-4.6 10.2-10.2 0-5.7-4.6-10.2-10.2-10.2-5.7 0-10.2 4.6-10.2 10.2s4.6 10.2 10.2 10.2m51.3 51.3c5.7 0 10.2-4.6 10.2-10.2 0-5.7-4.6-10.2-10.2-10.2-5.7 0-10.2 4.6-10.2 10.2-.1 5.6 4.5 10.2 10.2 10.2m0 51.2c5.7 0 10.2-4.6 10.2-10.2 0-5.7-4.6-10.2-10.2-10.2-5.7 0-10.2 4.6-10.2 10.2-.1 5.6 4.5 10.2 10.2 10.2M10.2 59.1c3.4 0 6.1-2.8 6.1-6.1 0-3.4-2.8-6.1-6.1-6.1S4.1 49.7 4.1 53s2.8 6.1 6.1 6.1m0 153.6c3.4 0 6.1-2.8 6.1-6.1 0-3.4-2.8-6.1-6.1-6.1s-6.1 2.8-6.1 6.1c0 3.4 2.8 6.1 6.1 6.1m0 51.3c3.4 0 6.1-2.8 6.1-6.1 0-3.4-2.8-6.1-6.1-6.1s-6.1 2.8-6.1 6.1 2.8 6.1 6.1 6.1m51.3 0c3.4 0 6.1-2.8 6.1-6.1 0-3.4-2.8-6.1-6.1-6.1-3.4 0-6.1 2.8-6.1 6.1-.1 3.3 2.7 6.1 6.1 6.1m0-153.7c3.4 0 6.1-2.8 6.1-6.1 0-3.4-2.8-6.1-6.1-6.1-3.4 0-6.1 2.8-6.1 6.1-.1 3.3 2.7 6.1 6.1 6.1m409.8 0c3.4 0 6.1-2.8 6.1-6.1 0-3.4-2.8-6.1-6.1-6.1-3.4 0-6.1 2.8-6.1 6.1-.1 3.3 2.7 6.1 6.1 6.1m51.2 102.4c3.4 0 6.1-2.8 6.1-6.1 0-3.4-2.8-6.1-6.1-6.1-3.4 0-6.1 2.8-6.1 6.1 0 3.4 2.7 6.1 6.1 6.1m-102.4-51.2c3.4 0 6.1-2.8 6.1-6.1 0-3.4-2.8-6.1-6.1-6.1-3.4 0-6.1 2.8-6.1 6.1-.1 3.4 2.7 6.1 6.1 6.1M317.6 315.2c3.4 0 6.1-2.8 6.1-6.1 0-3.4-2.8-6.1-6.1-6.1s-6.1 2.8-6.1 6.1 2.7 6.1 6.1 6.1m204.9 0c3.4 0 6.1-2.8 6.1-6.1 0-3.4-2.8-6.1-6.1-6.1-3.4 0-6.1 2.8-6.1 6.1s2.7 6.1 6.1 6.1M625 161.5c3.4 0 6.1-2.8 6.1-6.1 0-3.4-2.8-6.1-6.1-6.1-3.4 0-6.1 2.8-6.1 6.1-.1 3.4 2.7 6.1 6.1 6.1m256.1-51.2c3.4 0 6.1-2.8 6.1-6.1 0-3.4-2.8-6.1-6.1-6.1-3.4 0-6.1 2.8-6.1 6.1s2.7 6.1 6.1 6.1m0 102.4c3.4 0 6.1-2.8 6.1-6.1 0-3.4-2.8-6.1-6.1-6.1-3.4 0-6.1 2.8-6.1 6.1 0 3.4 2.7 6.1 6.1 6.1m0 102.5c3.4 0 6.1-2.8 6.1-6.1 0-3.4-2.8-6.1-6.1-6.1-3.4 0-6.1 2.8-6.1 6.1s2.7 6.1 6.1 6.1m153.7-51.2c3.4 0 6.1-2.8 6.1-6.1 0-3.4-2.8-6.1-6.1-6.1s-6.1 2.8-6.1 6.1c-.1 3.3 2.7 6.1 6.1 6.1M522.5 110.3c3.4 0 6.1-2.8 6.1-6.1 0-3.4-2.8-6.1-6.1-6.1-3.4 0-6.1 2.8-6.1 6.1s2.7 6.1 6.1 6.1m409.8 0c3.4 0 6.1-2.8 6.1-6.1 0-3.4-2.8-6.1-6.1-6.1-3.4 0-6.1 2.8-6.1 6.1s2.7 6.1 6.1 6.1m461.1 0c3.4 0 6.1-2.8 6.1-6.1 0-3.4-2.8-6.1-6.1-6.1-3.4 0-6.1 2.8-6.1 6.1-.1 3.3 2.7 6.1 6.1 6.1m-717.2 0c3.4 0 6.1-2.8 6.1-6.1 0-3.4-2.8-6.1-6.1-6.1-3.4 0-6.1 2.8-6.1 6.1s2.7 6.1 6.1 6.1M266.4 59.1c3.4 0 6.1-2.8 6.1-6.1 0-3.4-2.8-6.1-6.1-6.1-3.4 0-6.1 2.8-6.1 6.1-.1 3.3 2.7 6.1 6.1 6.1m614.7 0c3.4 0 6.1-2.8 6.1-6.1 0-3.4-2.8-6.1-6.1-6.1-3.4 0-6.1 2.8-6.1 6.1s2.7 6.1 6.1 6.1m204.9 0c3.4 0 6.1-2.8 6.1-6.1 0-3.4-2.8-6.1-6.1-6.1-3.4 0-6.1 2.8-6.1 6.1s2.7 6.1 6.1 6.1m614.7 0c3.4 0 6.1-2.8 6.1-6.1 0-3.4-2.8-6.1-6.1-6.1-3.4 0-6.1 2.8-6.1 6.1s2.8 6.1 6.1 6.1m-51.2 0c3.4 0 6.1-2.8 6.1-6.1 0-3.4-2.8-6.1-6.1-6.1-3.4 0-6.1 2.8-6.1 6.1s2.7 6.1 6.1 6.1m102.5 51.3c3.4 0 6.1-2.8 6.1-6.1 0-3.4-2.8-6.1-6.1-6.1-3.4 0-6.1 2.8-6.1 6.1-.1 3.3 2.7 6.1 6.1 6.1m153.7 0c3.4 0 6.1-2.8 6.1-6.1 0-3.4-2.8-6.1-6.1-6.1-3.4 0-6.1 2.8-6.1 6.1-.1 3.3 2.7 6.1 6.1 6.1m-51.3-51.3c3.4 0 6.1-2.8 6.1-6.1 0-3.4-2.8-6.1-6.1-6.1-3.4 0-6.1 2.8-6.1 6.1s2.7 6.1 6.1 6.1m-717.2 0c3.4 0 6.1-2.8 6.1-6.1 0-3.4-2.8-6.1-6.1-6.1-3.4 0-6.1 2.8-6.1 6.1s2.8 6.1 6.1 6.1m51.3 102.4c3.4 0 6.1-2.8 6.1-6.1 0-3.4-2.8-6.1-6.1-6.1-3.4 0-6.1 2.8-6.1 6.1-.1 3.4 2.7 6.1 6.1 6.1m102.4 0c3.4 0 6.1-2.8 6.1-6.1 0-3.4-2.8-6.1-6.1-6.1-3.4 0-6.1 2.8-6.1 6.1 0 3.4 2.7 6.1 6.1 6.1m0 38.9c-3.4 0-6.1 2.8-6.1 6.1 0 3.4 2.8 6.1 6.1 6.1 3.4 0 6.1-2.8 6.1-6.1.1-3.3-2.7-6.1-6.1-6.1m358.6 102.5c-3.4 0-6.1 2.8-6.1 6.1 0 3.4 2.8 6.1 6.1 6.1 3.4 0 6.1-2.8 6.1-6.1.1-3.4-2.7-6.1-6.1-6.1m204.9 0c-3.4 0-6.1 2.8-6.1 6.1 0 3.4 2.8 6.1 6.1 6.1 3.4 0 6.1-2.8 6.1-6.1.1-3.4-2.7-6.1-6.1-6.1m-358.6-102.5c-3.4 0-6.1 2.8-6.1 6.1 0 3.4 2.8 6.1 6.1 6.1 3.4 0 6.1-2.8 6.1-6.1.1-3.3-2.7-6.1-6.1-6.1m256.2 0c-3.4 0-6.1 2.8-6.1 6.1 0 3.4 2.8 6.1 6.1 6.1 3.4 0 6.1-2.8 6.1-6.1s-2.7-6.1-6.1-6.1m-307.4 51.3c-3.4 0-6.1 2.8-6.1 6.1 0 3.4 2.8 6.1 6.1 6.1 3.4 0 6.1-2.8 6.1-6.1.1-3.4-2.7-6.1-6.1-6.1m204.9 0c-3.4 0-6.1 2.8-6.1 6.1 0 3.4 2.8 6.1 6.1 6.1 3.4 0 6.1-2.8 6.1-6.1.1-3.4-2.7-6.1-6.1-6.1"/></g><g class="st1"><path class="st2" d="M112.7 367.2c7.9 0 14.3-6.4 14.3-14.3s-6.4-14.3-14.3-14.3-14.3 6.4-14.3 14.3 6.4 14.3 14.3 14.3m0 153.7c7.9 0 14.3-6.4 14.3-14.3s-6.4-14.3-14.3-14.3-14.3 6.4-14.3 14.3 6.4 14.3 14.3 14.3M61.5 623.4c7.9 0 14.3-6.4 14.3-14.3s-6.4-14.3-14.3-14.3-14.3 6.4-14.3 14.3c-.1 7.9 6.4 14.3 14.3 14.3m153.7-204.9c7.9 0 14.3-6.4 14.3-14.3s-6.4-14.3-14.3-14.3-14.3 6.4-14.3 14.3c-.1 7.9 6.3 14.3 14.3 14.3m153.6 51.2c7.9 0 14.3-6.4 14.3-14.3s-6.4-14.3-14.3-14.3-14.3 6.4-14.3 14.3 6.4 14.3 14.3 14.3m358.6 0c7.9 0 14.3-6.4 14.3-14.3s-6.4-14.3-14.3-14.3-14.3 6.4-14.3 14.3 6.4 14.3 14.3 14.3m51.3 51.2c7.9 0 14.3-6.4 14.3-14.3s-6.4-14.3-14.3-14.3-14.3 6.4-14.3 14.3c-.1 7.9 6.3 14.3 14.3 14.3m204.9-51.2c7.9 0 14.3-6.4 14.3-14.3s-6.4-14.3-14.3-14.3-14.3 6.4-14.3 14.3c-.1 7.9 6.3 14.3 14.3 14.3m102.4 0c7.9 0 14.3-6.4 14.3-14.3s-6.4-14.3-14.3-14.3-14.3 6.4-14.3 14.3 6.4 14.3 14.3 14.3m52 51.2c7.9 0 14.3-6.4 14.3-14.3s-6.4-14.3-14.3-14.3-14.3 6.4-14.3 14.3 6.4 14.3 14.3 14.3m409.1 0c7.9 0 14.3-6.4 14.3-14.3s-6.4-14.3-14.3-14.3-14.3 6.4-14.3 14.3c-.1 7.9 6.3 14.3 14.3 14.3m0 51.3c7.9 0 14.3-6.4 14.3-14.3s-6.4-14.3-14.3-14.3-14.3 6.4-14.3 14.3c-.1 7.8 6.3 14.3 14.3 14.3m51.2 51.2c7.9 0 14.3-6.4 14.3-14.3s-6.4-14.3-14.3-14.3-14.3 6.4-14.3 14.3c-.1 7.9 6.4 14.3 14.3 14.3m204.9-51.2c7.9 0 14.3-6.4 14.3-14.3s-6.4-14.3-14.3-14.3-14.3 6.4-14.3 14.3c0 7.8 6.4 14.3 14.3 14.3m102.5 0c7.9 0 14.3-6.4 14.3-14.3s-6.4-14.3-14.3-14.3-14.3 6.4-14.3 14.3c-.1 7.8 6.3 14.3 14.3 14.3m-307.4-51.3c7.9 0 14.3-6.4 14.3-14.3s-6.4-14.3-14.3-14.3-14.3 6.4-14.3 14.3c-.1 7.9 6.4 14.3 14.3 14.3m-256.1-51.2c7.9 0 14.3-6.4 14.3-14.3s-6.4-14.3-14.3-14.3-14.3 6.4-14.3 14.3c-.1 7.9 6.3 14.3 14.3 14.3m-51.3 102.5c7.9 0 14.3-6.4 14.3-14.3s-6.4-14.3-14.3-14.3-14.3 6.4-14.3 14.3c0 7.8 6.4 14.3 14.3 14.3m51.3 51.2c7.9 0 14.3-6.4 14.3-14.3s-6.4-14.3-14.3-14.3-14.3 6.4-14.3 14.3c-.1 7.9 6.3 14.3 14.3 14.3m51.2 0c7.9 0 14.3-6.4 14.3-14.3s-6.4-14.3-14.3-14.3-14.3 6.4-14.3 14.3c-.1 7.9 6.4 14.3 14.3 14.3m-204.9 0c7.9 0 14.3-6.4 14.3-14.3s-6.4-14.3-14.3-14.3-14.3 6.4-14.3 14.3c-.1 7.9 6.4 14.3 14.3 14.3m307.3-51.2c7.9 0 14.3-6.4 14.3-14.3s-6.4-14.3-14.3-14.3-14.3 6.4-14.3 14.3c0 7.8 6.4 14.3 14.3 14.3m-102.4-102.5c7.9 0 14.3-6.4 14.3-14.3s-6.4-14.3-14.3-14.3-14.3 6.4-14.3 14.3c-.1 7.9 6.4 14.3 14.3 14.3m102.4 0c7.9 0 14.3-6.4 14.3-14.3s-6.4-14.3-14.3-14.3-14.3 6.4-14.3 14.3 6.4 14.3 14.3 14.3m307.4 0c7.9 0 14.3-6.4 14.3-14.3s-6.4-14.3-14.3-14.3-14.3 6.4-14.3 14.3 6.4 14.3 14.3 14.3M420.1 418.5c7.9 0 14.3-6.4 14.3-14.3s-6.4-14.3-14.3-14.3-14.3 6.4-14.3 14.3c-.1 7.9 6.3 14.3 14.3 14.3m0 102.4c7.9 0 14.3-6.4 14.3-14.3s-6.4-14.3-14.3-14.3-14.3 6.4-14.3 14.3c-.1 7.9 6.3 14.3 14.3 14.3m409.8-102.4c7.9 0 14.3-6.4 14.3-14.3s-6.4-14.3-14.3-14.3-14.3 6.4-14.3 14.3c-.1 7.9 6.4 14.3 14.3 14.3m358.6 0c7.9 0 14.3-6.4 14.3-14.3s-6.4-14.3-14.3-14.3-14.3 6.4-14.3 14.3c-.1 7.9 6.4 14.3 14.3 14.3m153.7 0c7.9 0 14.3-6.4 14.3-14.3s-6.4-14.3-14.3-14.3-14.3 6.4-14.3 14.3c-.1 7.9 6.3 14.3 14.3 14.3m153.6 0c7.9 0 14.3-6.4 14.3-14.3s-6.4-14.3-14.3-14.3-14.3 6.4-14.3 14.3 6.4 14.3 14.3 14.3m-973.3-51.3c7.9 0 14.3-6.4 14.3-14.3s-6.4-14.3-14.3-14.3-14.3 6.4-14.3 14.3 6.4 14.3 14.3 14.3m51.2 0c7.9 0 14.3-6.4 14.3-14.3s-6.4-14.3-14.3-14.3-14.3 6.4-14.3 14.3 6.4 14.3 14.3 14.3m461.1-28.6c-7.9 0-14.3 6.4-14.3 14.3s6.4 14.3 14.3 14.3 14.3-6.4 14.3-14.3-6.4-14.3-14.3-14.3m358.6 0c-7.9 0-14.3 6.4-14.3 14.3s6.4 14.3 14.3 14.3 14.3-6.4 14.3-14.3-6.4-14.3-14.3-14.3m153.7 0c-7.9 0-14.3 6.4-14.3 14.3s6.4 14.3 14.3 14.3 14.3-6.4 14.3-14.3-6.4-14.3-14.3-14.3m204.9 0c-7.9 0-14.3 6.4-14.3 14.3s6.4 14.3 14.3 14.3 14.3-6.4 14.3-14.3-6.4-14.3-14.3-14.3m51.2 0c-7.9 0-14.3 6.4-14.3 14.3s6.4 14.3 14.3 14.3 14.3-6.4 14.3-14.3-6.4-14.3-14.3-14.3M625 492.2c-7.9 0-14.3 6.4-14.3 14.3s6.4 14.3 14.3 14.3 14.3-6.4 14.3-14.3c0-7.8-6.4-14.3-14.3-14.3m358.6 0c-7.9 0-14.3 6.4-14.3 14.3s6.4 14.3 14.3 14.3 14.3-6.4 14.3-14.3c0-7.8-6.4-14.3-14.3-14.3m-51.3 51.3c-7.9 0-14.3 6.4-14.3 14.3s6.4 14.3 14.3 14.3 14.3-6.4 14.3-14.3c.1-7.9-6.3-14.3-14.3-14.3m153.7 0c-7.9 0-14.3 6.4-14.3 14.3s6.4 14.3 14.3 14.3 14.3-6.4 14.3-14.3c.1-7.9-6.4-14.3-14.3-14.3m-768.4 28.7c7.9 0 14.3-6.4 14.3-14.3s-6.4-14.3-14.3-14.3-14.3 6.4-14.3 14.3c0 7.8 6.4 14.3 14.3 14.3m204.9 0c7.9 0 14.3-6.4 14.3-14.3s-6.4-14.3-14.3-14.3-14.3 6.4-14.3 14.3c0 7.8 6.4 14.3 14.3 14.3m51.2 0c7.9 0 14.3-6.4 14.3-14.3s-6.4-14.3-14.3-14.3-14.3 6.4-14.3 14.3c0 7.8 6.4 14.3 14.3 14.3m0 51.2c7.9 0 14.3-6.4 14.3-14.3s-6.4-14.3-14.3-14.3-14.3 6.4-14.3 14.3 6.4 14.3 14.3 14.3m102.5 0c7.9 0 14.3-6.4 14.3-14.3s-6.4-14.3-14.3-14.3-14.3 6.4-14.3 14.3 6.4 14.3 14.3 14.3m51.2-51.2c7.9 0 14.3-6.4 14.3-14.3s-6.4-14.3-14.3-14.3-14.3 6.4-14.3 14.3c0 7.8 6.4 14.3 14.3 14.3M10.2 414.4c5.7 0 10.2-4.6 10.2-10.2 0-5.7-4.6-10.2-10.2-10.2S0 398.5 0 404.1c0 5.7 4.6 10.3 10.2 10.3m102.5 0c5.7 0 10.2-4.6 10.2-10.2 0-5.7-4.6-10.2-10.2-10.2-5.7 0-10.2 4.6-10.2 10.2s4.5 10.2 10.2 10.2m0 51.2c5.7 0 10.2-4.6 10.2-10.2 0-5.7-4.6-10.2-10.2-10.2-5.7 0-10.2 4.6-10.2 10.2s4.5 10.2 10.2 10.2m614.7-51.2c5.7 0 10.2-4.6 10.2-10.2 0-5.7-4.6-10.2-10.2-10.2-5.7 0-10.2 4.6-10.2 10.2s4.6 10.2 10.2 10.2m358.6 0c5.7 0 10.2-4.6 10.2-10.2 0-5.7-4.6-10.2-10.2-10.2-5.7 0-10.2 4.6-10.2 10.2s4.6 10.2 10.2 10.2m51.2 0c5.7 0 10.2-4.6 10.2-10.2 0-5.7-4.6-10.2-10.2-10.2-5.7 0-10.2 4.6-10.2 10.2s4.6 10.2 10.2 10.2m153.7 0c5.7 0 10.2-4.6 10.2-10.2 0-5.7-4.6-10.2-10.2-10.2-5.7 0-10.2 4.6-10.2 10.2s4.6 10.2 10.2 10.2m51.3 102.4c5.7 0 10.2-4.6 10.2-10.2 0-5.7-4.6-10.2-10.2-10.2-5.7 0-10.2 4.6-10.2 10.2-.1 5.6 4.5 10.2 10.2 10.2m0 51.3c5.7 0 10.2-4.6 10.2-10.2 0-5.7-4.6-10.2-10.2-10.2-5.7 0-10.2 4.6-10.2 10.2-.1 5.6 4.5 10.2 10.2 10.2m102.4 51.2c5.7 0 10.2-4.6 10.2-10.2 0-5.7-4.6-10.2-10.2-10.2s-10.2 4.6-10.2 10.2 4.6 10.2 10.2 10.2m358.6-102.5c5.7 0 10.2-4.6 10.2-10.2 0-5.7-4.6-10.2-10.2-10.2-5.7 0-10.2 4.6-10.2 10.2s4.5 10.2 10.2 10.2m-102.5 51.3c5.7 0 10.2-4.6 10.2-10.2 0-5.7-4.6-10.2-10.2-10.2-5.7 0-10.2 4.6-10.2 10.2s4.6 10.2 10.2 10.2m153.7 0c5.7 0 10.2-4.6 10.2-10.2 0-5.7-4.6-10.2-10.2-10.2-5.7 0-10.2 4.6-10.2 10.2s4.6 10.2 10.2 10.2m-51.2 51.2c5.7 0 10.2-4.6 10.2-10.2 0-5.7-4.6-10.2-10.2-10.2-5.7 0-10.2 4.6-10.2 10.2s4.5 10.2 10.2 10.2M420.1 363.1c5.7 0 10.2-4.6 10.2-10.2 0-5.7-4.6-10.2-10.2-10.2-5.7 0-10.2 4.6-10.2 10.2-.1 5.7 4.5 10.2 10.2 10.2m409.8 0c5.7 0 10.2-4.6 10.2-10.2 0-5.7-4.6-10.2-10.2-10.2-5.7 0-10.2 4.6-10.2 10.2-.1 5.7 4.5 10.2 10.2 10.2m153.7 0c5.7 0 10.2-4.6 10.2-10.2 0-5.7-4.6-10.2-10.2-10.2s-10.2 4.6-10.2 10.2c-.1 5.7 4.5 10.2 10.2 10.2m614.7 0c5.7 0 10.2-4.6 10.2-10.2 0-5.7-4.6-10.2-10.2-10.2-5.7 0-10.2 4.6-10.2 10.2-.1 5.7 4.5 10.2 10.2 10.2m204.9 51.4c5.7 0 10.2-4.6 10.2-10.2 0-5.7-4.6-10.2-10.2-10.2-5.7 0-10.2 4.6-10.2 10.2s4.5 10.2 10.2 10.2m51.2 0c5.7 0 10.2-4.6 10.2-10.2 0-5.7-4.6-10.2-10.2-10.2-5.7 0-10.2 4.6-10.2 10.2s4.6 10.2 10.2 10.2M471.3 363.1c5.7 0 10.2-4.6 10.2-10.2 0-5.7-4.6-10.2-10.2-10.2-5.7 0-10.2 4.6-10.2 10.2-.1 5.7 4.5 10.2 10.2 10.2m102.4 102.5c5.7 0 10.2-4.6 10.2-10.2 0-5.7-4.6-10.2-10.2-10.2s-10.2 4.6-10.2 10.2 4.6 10.2 10.2 10.2m0 51.2c5.7 0 10.2-4.6 10.2-10.2 0-5.7-4.6-10.2-10.2-10.2s-10.2 4.6-10.2 10.2 4.6 10.2 10.2 10.2m51.3 51.3c5.7 0 10.2-4.6 10.2-10.2 0-5.7-4.6-10.2-10.2-10.2-5.7 0-10.2 4.6-10.2 10.2-.1 5.6 4.5 10.2 10.2 10.2m0 51.2c5.7 0 10.2-4.6 10.2-10.2 0-5.7-4.6-10.2-10.2-10.2-5.7 0-10.2 4.6-10.2 10.2-.1 5.6 4.5 10.2 10.2 10.2m307.3-102.5c5.7 0 10.2-4.6 10.2-10.2 0-5.7-4.6-10.2-10.2-10.2-5.7 0-10.2 4.6-10.2 10.2s4.6 10.2 10.2 10.2m-51.2 51.3c5.7 0 10.2-4.6 10.2-10.2 0-5.7-4.6-10.2-10.2-10.2-5.7 0-10.2 4.6-10.2 10.2s4.6 10.2 10.2 10.2m-51.2-102.5c5.7 0 10.2-4.6 10.2-10.2 0-5.7-4.6-10.2-10.2-10.2-5.7 0-10.2 4.6-10.2 10.2-.1 5.6 4.5 10.2 10.2 10.2m204.9 0c5.7 0 10.2-4.6 10.2-10.2 0-5.7-4.6-10.2-10.2-10.2-5.7 0-10.2 4.6-10.2 10.2-.1 5.6 4.5 10.2 10.2 10.2m-51.2 153.7c5.7 0 10.2-4.6 10.2-10.2 0-5.7-4.6-10.2-10.2-10.2s-10.2 4.6-10.2 10.2c-.1 5.6 4.5 10.2 10.2 10.2m256.1-153.7c5.7 0 10.2-4.6 10.2-10.2 0-5.7-4.6-10.2-10.2-10.2-5.7 0-10.2 4.6-10.2 10.2s4.5 10.2 10.2 10.2m358.6 0c5.7 0 10.2-4.6 10.2-10.2 0-5.7-4.6-10.2-10.2-10.2-5.7 0-10.2 4.6-10.2 10.2-.1 5.6 4.5 10.2 10.2 10.2m51.2 0c5.7 0 10.2-4.6 10.2-10.2 0-5.7-4.6-10.2-10.2-10.2-5.7 0-10.2 4.6-10.2 10.2s4.6 10.2 10.2 10.2m204.9 0c5.7 0 10.2-4.6 10.2-10.2 0-5.7-4.6-10.2-10.2-10.2-5.7 0-10.2 4.6-10.2 10.2s4.6 10.2 10.2 10.2M215.2 516.8c5.7 0 10.2-4.6 10.2-10.2 0-5.7-4.6-10.2-10.2-10.2-5.7 0-10.2 4.6-10.2 10.2-.1 5.6 4.5 10.2 10.2 10.2m-51.3 102.5c5.7 0 10.2-4.6 10.2-10.2 0-5.7-4.6-10.2-10.2-10.2-5.7 0-10.2 4.6-10.2 10.2s4.6 10.2 10.2 10.2m922.1-123c-5.7 0-10.2 4.6-10.2 10.2 0 5.7 4.6 10.2 10.2 10.2 5.7 0 10.2-4.6 10.2-10.2.1-5.6-4.5-10.2-10.2-10.2m51.2 51.3c-5.7 0-10.2 4.6-10.2 10.2 0 5.7 4.6 10.2 10.2 10.2 5.7 0 10.2-4.6 10.2-10.2.1-5.6-4.5-10.2-10.2-10.2m-768.4-30.8c5.7 0 10.2-4.6 10.2-10.2 0-5.7-4.6-10.2-10.2-10.2-5.7 0-10.2 4.6-10.2 10.2s4.6 10.2 10.2 10.2m51.3 51.3c5.7 0 10.2-4.6 10.2-10.2 0-5.7-4.6-10.2-10.2-10.2-5.7 0-10.2 4.6-10.2 10.2-.1 5.6 4.5 10.2 10.2 10.2m0 51.2c5.7 0 10.2-4.6 10.2-10.2 0-5.7-4.6-10.2-10.2-10.2-5.7 0-10.2 4.6-10.2 10.2-.1 5.6 4.5 10.2 10.2 10.2M10.2 359.1c3.4 0 6.1-2.8 6.1-6.1 0-3.4-2.8-6.1-6.1-6.1s-6.1 2.8-6.1 6.1 2.8 6.1 6.1 6.1m0 153.6c3.4 0 6.1-2.8 6.1-6.1 0-3.4-2.8-6.1-6.1-6.1s-6.1 2.8-6.1 6.1c0 3.4 2.8 6.1 6.1 6.1m0 51.3c3.4 0 6.1-2.8 6.1-6.1 0-3.4-2.8-6.1-6.1-6.1s-6.1 2.8-6.1 6.1 2.8 6.1 6.1 6.1m51.3 0c3.4 0 6.1-2.8 6.1-6.1 0-3.4-2.8-6.1-6.1-6.1-3.4 0-6.1 2.8-6.1 6.1-.1 3.3 2.7 6.1 6.1 6.1m0-153.7c3.4 0 6.1-2.8 6.1-6.1 0-3.4-2.8-6.1-6.1-6.1-3.4 0-6.1 2.8-6.1 6.1-.1 3.3 2.7 6.1 6.1 6.1m409.8 0c3.4 0 6.1-2.8 6.1-6.1 0-3.4-2.8-6.1-6.1-6.1-3.4 0-6.1 2.8-6.1 6.1-.1 3.3 2.7 6.1 6.1 6.1m51.2 102.4c3.4 0 6.1-2.8 6.1-6.1 0-3.4-2.8-6.1-6.1-6.1-3.4 0-6.1 2.8-6.1 6.1 0 3.4 2.7 6.1 6.1 6.1m-102.4-51.2c3.4 0 6.1-2.8 6.1-6.1 0-3.4-2.8-6.1-6.1-6.1-3.4 0-6.1 2.8-6.1 6.1-.1 3.4 2.7 6.1 6.1 6.1M317.6 615.2c3.4 0 6.1-2.8 6.1-6.1 0-3.4-2.8-6.1-6.1-6.1s-6.1 2.8-6.1 6.1 2.7 6.1 6.1 6.1m204.9 0c3.4 0 6.1-2.8 6.1-6.1 0-3.4-2.8-6.1-6.1-6.1-3.4 0-6.1 2.8-6.1 6.1s2.7 6.1 6.1 6.1M625 461.5c3.4 0 6.1-2.8 6.1-6.1 0-3.4-2.8-6.1-6.1-6.1-3.4 0-6.1 2.8-6.1 6.1-.1 3.4 2.7 6.1 6.1 6.1m256.1-51.2c3.4 0 6.1-2.8 6.1-6.1 0-3.4-2.8-6.1-6.1-6.1-3.4 0-6.1 2.8-6.1 6.1s2.7 6.1 6.1 6.1m0 102.4c3.4 0 6.1-2.8 6.1-6.1 0-3.4-2.8-6.1-6.1-6.1-3.4 0-6.1 2.8-6.1 6.1 0 3.4 2.7 6.1 6.1 6.1m0 102.5c3.4 0 6.1-2.8 6.1-6.1 0-3.4-2.8-6.1-6.1-6.1-3.4 0-6.1 2.8-6.1 6.1s2.7 6.1 6.1 6.1m153.7-51.2c3.4 0 6.1-2.8 6.1-6.1 0-3.4-2.8-6.1-6.1-6.1s-6.1 2.8-6.1 6.1c-.1 3.3 2.7 6.1 6.1 6.1M522.5 410.3c3.4 0 6.1-2.8 6.1-6.1 0-3.4-2.8-6.1-6.1-6.1-3.4 0-6.1 2.8-6.1 6.1s2.7 6.1 6.1 6.1m409.8 0c3.4 0 6.1-2.8 6.1-6.1 0-3.4-2.8-6.1-6.1-6.1-3.4 0-6.1 2.8-6.1 6.1s2.7 6.1 6.1 6.1m461.1 0c3.4 0 6.1-2.8 6.1-6.1 0-3.4-2.8-6.1-6.1-6.1-3.4 0-6.1 2.8-6.1 6.1-.1 3.3 2.7 6.1 6.1 6.1m-717.2 0c3.4 0 6.1-2.8 6.1-6.1 0-3.4-2.8-6.1-6.1-6.1-3.4 0-6.1 2.8-6.1 6.1s2.7 6.1 6.1 6.1m-409.8-51.2c3.4 0 6.1-2.8 6.1-6.1 0-3.4-2.8-6.1-6.1-6.1-3.4 0-6.1 2.8-6.1 6.1-.1 3.3 2.7 6.1 6.1 6.1m614.7 0c3.4 0 6.1-2.8 6.1-6.1 0-3.4-2.8-6.1-6.1-6.1-3.4 0-6.1 2.8-6.1 6.1s2.7 6.1 6.1 6.1m204.9 0c3.4 0 6.1-2.8 6.1-6.1 0-3.4-2.8-6.1-6.1-6.1-3.4 0-6.1 2.8-6.1 6.1s2.7 6.1 6.1 6.1m614.7 0c3.4 0 6.1-2.8 6.1-6.1 0-3.4-2.8-6.1-6.1-6.1-3.4 0-6.1 2.8-6.1 6.1s2.8 6.1 6.1 6.1m-51.2 0c3.4 0 6.1-2.8 6.1-6.1 0-3.4-2.8-6.1-6.1-6.1-3.4 0-6.1 2.8-6.1 6.1s2.7 6.1 6.1 6.1m102.5 51.3c3.4 0 6.1-2.8 6.1-6.1 0-3.4-2.8-6.1-6.1-6.1-3.4 0-6.1 2.8-6.1 6.1-.1 3.3 2.7 6.1 6.1 6.1m153.7 0c3.4 0 6.1-2.8 6.1-6.1 0-3.4-2.8-6.1-6.1-6.1-3.4 0-6.1 2.8-6.1 6.1-.1 3.3 2.7 6.1 6.1 6.1m-51.3-51.3c3.4 0 6.1-2.8 6.1-6.1 0-3.4-2.8-6.1-6.1-6.1-3.4 0-6.1 2.8-6.1 6.1s2.7 6.1 6.1 6.1m-717.2 0c3.4 0 6.1-2.8 6.1-6.1 0-3.4-2.8-6.1-6.1-6.1-3.4 0-6.1 2.8-6.1 6.1s2.8 6.1 6.1 6.1m51.3 102.4c3.4 0 6.1-2.8 6.1-6.1 0-3.4-2.8-6.1-6.1-6.1-3.4 0-6.1 2.8-6.1 6.1-.1 3.4 2.7 6.1 6.1 6.1m102.4 0c3.4 0 6.1-2.8 6.1-6.1 0-3.4-2.8-6.1-6.1-6.1-3.4 0-6.1 2.8-6.1 6.1 0 3.4 2.7 6.1 6.1 6.1m0 38.9c-3.4 0-6.1 2.8-6.1 6.1 0 3.4 2.8 6.1 6.1 6.1 3.4 0 6.1-2.8 6.1-6.1.1-3.3-2.7-6.1-6.1-6.1m358.6 102.5c-3.4 0-6.1 2.8-6.1 6.1 0 3.4 2.8 6.1 6.1 6.1 3.4 0 6.1-2.8 6.1-6.1.1-3.4-2.7-6.1-6.1-6.1m204.9 0c-3.4 0-6.1 2.8-6.1 6.1 0 3.4 2.8 6.1 6.1 6.1 3.4 0 6.1-2.8 6.1-6.1.1-3.4-2.7-6.1-6.1-6.1m-358.6-102.5c-3.4 0-6.1 2.8-6.1 6.1 0 3.4 2.8 6.1 6.1 6.1 3.4 0 6.1-2.8 6.1-6.1.1-3.3-2.7-6.1-6.1-6.1m256.2 0c-3.4 0-6.1 2.8-6.1 6.1 0 3.4 2.8 6.1 6.1 6.1 3.4 0 6.1-2.8 6.1-6.1s-2.7-6.1-6.1-6.1m-307.4 51.3c-3.4 0-6.1 2.8-6.1 6.1 0 3.4 2.8 6.1 6.1 6.1 3.4 0 6.1-2.8 6.1-6.1.1-3.4-2.7-6.1-6.1-6.1m204.9 0c-3.4 0-6.1 2.8-6.1 6.1 0 3.4 2.8 6.1 6.1 6.1 3.4 0 6.1-2.8 6.1-6.1.1-3.4-2.7-6.1-6.1-6.1"/></g><g class="st1"><path class="st2" d="M112.7 667.2c7.9 0 14.3-6.4 14.3-14.3s-6.4-14.3-14.3-14.3-14.3 6.4-14.3 14.3 6.4 14.3 14.3 14.3m0 153.7c7.9 0 14.3-6.4 14.3-14.3s-6.4-14.3-14.3-14.3-14.3 6.4-14.3 14.3 6.4 14.3 14.3 14.3M61.5 923.4c7.9 0 14.3-6.4 14.3-14.3s-6.4-14.3-14.3-14.3-14.3 6.4-14.3 14.3c-.1 7.9 6.4 14.3 14.3 14.3m153.7-204.9c7.9 0 14.3-6.4 14.3-14.3s-6.4-14.3-14.3-14.3-14.3 6.4-14.3 14.3c-.1 7.9 6.3 14.3 14.3 14.3m153.6 51.2c7.9 0 14.3-6.4 14.3-14.3s-6.4-14.3-14.3-14.3-14.3 6.4-14.3 14.3 6.4 14.3 14.3 14.3m358.6 0c7.9 0 14.3-6.4 14.3-14.3s-6.4-14.3-14.3-14.3-14.3 6.4-14.3 14.3 6.4 14.3 14.3 14.3m51.3 51.2c7.9 0 14.3-6.4 14.3-14.3s-6.4-14.3-14.3-14.3-14.3 6.4-14.3 14.3c-.1 7.9 6.3 14.3 14.3 14.3m204.9-51.2c7.9 0 14.3-6.4 14.3-14.3s-6.4-14.3-14.3-14.3-14.3 6.4-14.3 14.3c-.1 7.9 6.3 14.3 14.3 14.3m102.4 0c7.9 0 14.3-6.4 14.3-14.3s-6.4-14.3-14.3-14.3-14.3 6.4-14.3 14.3 6.4 14.3 14.3 14.3m52 51.2c7.9 0 14.3-6.4 14.3-14.3s-6.4-14.3-14.3-14.3-14.3 6.4-14.3 14.3 6.4 14.3 14.3 14.3m409.1 0c7.9 0 14.3-6.4 14.3-14.3s-6.4-14.3-14.3-14.3-14.3 6.4-14.3 14.3c-.1 7.9 6.3 14.3 14.3 14.3m0 51.3c7.9 0 14.3-6.4 14.3-14.3s-6.4-14.3-14.3-14.3-14.3 6.4-14.3 14.3c-.1 7.8 6.3 14.3 14.3 14.3m51.2 51.2c7.9 0 14.3-6.4 14.3-14.3s-6.4-14.3-14.3-14.3-14.3 6.4-14.3 14.3c-.1 7.9 6.4 14.3 14.3 14.3m204.9-51.2c7.9 0 14.3-6.4 14.3-14.3s-6.4-14.3-14.3-14.3-14.3 6.4-14.3 14.3c0 7.8 6.4 14.3 14.3 14.3m102.5 0c7.9 0 14.3-6.4 14.3-14.3s-6.4-14.3-14.3-14.3-14.3 6.4-14.3 14.3c-.1 7.8 6.3 14.3 14.3 14.3m-307.4-51.3c7.9 0 14.3-6.4 14.3-14.3s-6.4-14.3-14.3-14.3-14.3 6.4-14.3 14.3c-.1 7.9 6.4 14.3 14.3 14.3m-256.1-51.2c7.9 0 14.3-6.4 14.3-14.3s-6.4-14.3-14.3-14.3-14.3 6.4-14.3 14.3c-.1 7.9 6.3 14.3 14.3 14.3m-51.3 102.5c7.9 0 14.3-6.4 14.3-14.3s-6.4-14.3-14.3-14.3-14.3 6.4-14.3 14.3c0 7.8 6.4 14.3 14.3 14.3m51.3 51.2c7.9 0 14.3-6.4 14.3-14.3s-6.4-14.3-14.3-14.3-14.3 6.4-14.3 14.3c-.1 7.9 6.3 14.3 14.3 14.3m51.2 0c7.9 0 14.3-6.4 14.3-14.3s-6.4-14.3-14.3-14.3-14.3 6.4-14.3 14.3c-.1 7.9 6.4 14.3 14.3 14.3m-204.9 0c7.9 0 14.3-6.4 14.3-14.3s-6.4-14.3-14.3-14.3-14.3 6.4-14.3 14.3c-.1 7.9 6.4 14.3 14.3 14.3m307.3-51.2c7.9 0 14.3-6.4 14.3-14.3s-6.4-14.3-14.3-14.3-14.3 6.4-14.3 14.3c0 7.8 6.4 14.3 14.3 14.3m-102.4-102.5c7.9 0 14.3-6.4 14.3-14.3s-6.4-14.3-14.3-14.3-14.3 6.4-14.3 14.3c-.1 7.9 6.4 14.3 14.3 14.3m102.4 0c7.9 0 14.3-6.4 14.3-14.3s-6.4-14.3-14.3-14.3-14.3 6.4-14.3 14.3 6.4 14.3 14.3 14.3m307.4 0c7.9 0 14.3-6.4 14.3-14.3s-6.4-14.3-14.3-14.3-14.3 6.4-14.3 14.3 6.4 14.3 14.3 14.3M420.1 718.5c7.9 0 14.3-6.4 14.3-14.3s-6.4-14.3-14.3-14.3-14.3 6.4-14.3 14.3c-.1 7.9 6.3 14.3 14.3 14.3m0 102.4c7.9 0 14.3-6.4 14.3-14.3s-6.4-14.3-14.3-14.3-14.3 6.4-14.3 14.3c-.1 7.9 6.3 14.3 14.3 14.3m409.8-102.4c7.9 0 14.3-6.4 14.3-14.3s-6.4-14.3-14.3-14.3-14.3 6.4-14.3 14.3c-.1 7.9 6.4 14.3 14.3 14.3m358.6 0c7.9 0 14.3-6.4 14.3-14.3s-6.4-14.3-14.3-14.3-14.3 6.4-14.3 14.3c-.1 7.9 6.4 14.3 14.3 14.3m153.7 0c7.9 0 14.3-6.4 14.3-14.3s-6.4-14.3-14.3-14.3-14.3 6.4-14.3 14.3c-.1 7.9 6.3 14.3 14.3 14.3m153.6 0c7.9 0 14.3-6.4 14.3-14.3s-6.4-14.3-14.3-14.3-14.3 6.4-14.3 14.3 6.4 14.3 14.3 14.3m-973.3-51.3c7.9 0 14.3-6.4 14.3-14.3s-6.4-14.3-14.3-14.3-14.3 6.4-14.3 14.3 6.4 14.3 14.3 14.3m51.2 0c7.9 0 14.3-6.4 14.3-14.3s-6.4-14.3-14.3-14.3-14.3 6.4-14.3 14.3 6.4 14.3 14.3 14.3m461.1-28.6c-7.9 0-14.3 6.4-14.3 14.3s6.4 14.3 14.3 14.3 14.3-6.4 14.3-14.3-6.4-14.3-14.3-14.3m358.6 0c-7.9 0-14.3 6.4-14.3 14.3s6.4 14.3 14.3 14.3 14.3-6.4 14.3-14.3-6.4-14.3-14.3-14.3m153.7 0c-7.9 0-14.3 6.4-14.3 14.3s6.4 14.3 14.3 14.3 14.3-6.4 14.3-14.3-6.4-14.3-14.3-14.3m204.9 0c-7.9 0-14.3 6.4-14.3 14.3s6.4 14.3 14.3 14.3 14.3-6.4 14.3-14.3-6.4-14.3-14.3-14.3m51.2 0c-7.9 0-14.3 6.4-14.3 14.3s6.4 14.3 14.3 14.3 14.3-6.4 14.3-14.3-6.4-14.3-14.3-14.3M625 792.2c-7.9 0-14.3 6.4-14.3 14.3s6.4 14.3 14.3 14.3 14.3-6.4 14.3-14.3c0-7.8-6.4-14.3-14.3-14.3m358.6 0c-7.9 0-14.3 6.4-14.3 14.3s6.4 14.3 14.3 14.3 14.3-6.4 14.3-14.3c0-7.8-6.4-14.3-14.3-14.3m-51.3 51.3c-7.9 0-14.3 6.4-14.3 14.3s6.4 14.3 14.3 14.3 14.3-6.4 14.3-14.3c.1-7.9-6.3-14.3-14.3-14.3m153.7 0c-7.9 0-14.3 6.4-14.3 14.3s6.4 14.3 14.3 14.3 14.3-6.4 14.3-14.3c.1-7.9-6.4-14.3-14.3-14.3m-768.4 28.7c7.9 0 14.3-6.4 14.3-14.3s-6.4-14.3-14.3-14.3-14.3 6.4-14.3 14.3c0 7.8 6.4 14.3 14.3 14.3m204.9 0c7.9 0 14.3-6.4 14.3-14.3s-6.4-14.3-14.3-14.3-14.3 6.4-14.3 14.3c0 7.8 6.4 14.3 14.3 14.3m51.2 0c7.9 0 14.3-6.4 14.3-14.3s-6.4-14.3-14.3-14.3-14.3 6.4-14.3 14.3c0 7.8 6.4 14.3 14.3 14.3m0 51.2c7.9 0 14.3-6.4 14.3-14.3s-6.4-14.3-14.3-14.3-14.3 6.4-14.3 14.3 6.4 14.3 14.3 14.3m102.5 0c7.9 0 14.3-6.4 14.3-14.3s-6.4-14.3-14.3-14.3-14.3 6.4-14.3 14.3 6.4 14.3 14.3 14.3m51.2-51.2c7.9 0 14.3-6.4 14.3-14.3s-6.4-14.3-14.3-14.3-14.3 6.4-14.3 14.3c0 7.8 6.4 14.3 14.3 14.3M10.2 714.4c5.7 0 10.2-4.6 10.2-10.2 0-5.7-4.6-10.2-10.2-10.2S0 698.5 0 704.1c0 5.7 4.6 10.3 10.2 10.3m102.5 0c5.7 0 10.2-4.6 10.2-10.2 0-5.7-4.6-10.2-10.2-10.2-5.7 0-10.2 4.6-10.2 10.2s4.5 10.2 10.2 10.2m0 51.2c5.7 0 10.2-4.6 10.2-10.2 0-5.7-4.6-10.2-10.2-10.2-5.7 0-10.2 4.6-10.2 10.2s4.5 10.2 10.2 10.2m614.7-51.2c5.7 0 10.2-4.6 10.2-10.2 0-5.7-4.6-10.2-10.2-10.2-5.7 0-10.2 4.6-10.2 10.2s4.6 10.2 10.2 10.2m358.6 0c5.7 0 10.2-4.6 10.2-10.2 0-5.7-4.6-10.2-10.2-10.2-5.7 0-10.2 4.6-10.2 10.2s4.6 10.2 10.2 10.2m51.2 0c5.7 0 10.2-4.6 10.2-10.2 0-5.7-4.6-10.2-10.2-10.2-5.7 0-10.2 4.6-10.2 10.2s4.6 10.2 10.2 10.2m153.7 0c5.7 0 10.2-4.6 10.2-10.2 0-5.7-4.6-10.2-10.2-10.2-5.7 0-10.2 4.6-10.2 10.2s4.6 10.2 10.2 10.2m51.3 102.4c5.7 0 10.2-4.6 10.2-10.2 0-5.7-4.6-10.2-10.2-10.2-5.7 0-10.2 4.6-10.2 10.2-.1 5.6 4.5 10.2 10.2 10.2m0 51.3c5.7 0 10.2-4.6 10.2-10.2 0-5.7-4.6-10.2-10.2-10.2-5.7 0-10.2 4.6-10.2 10.2-.1 5.6 4.5 10.2 10.2 10.2m102.4 51.2c5.7 0 10.2-4.6 10.2-10.2 0-5.7-4.6-10.2-10.2-10.2s-10.2 4.6-10.2 10.2 4.6 10.2 10.2 10.2m358.6-102.5c5.7 0 10.2-4.6 10.2-10.2 0-5.7-4.6-10.2-10.2-10.2-5.7 0-10.2 4.6-10.2 10.2s4.5 10.2 10.2 10.2m-102.5 51.3c5.7 0 10.2-4.6 10.2-10.2 0-5.7-4.6-10.2-10.2-10.2-5.7 0-10.2 4.6-10.2 10.2s4.6 10.2 10.2 10.2m153.7 0c5.7 0 10.2-4.6 10.2-10.2 0-5.7-4.6-10.2-10.2-10.2-5.7 0-10.2 4.6-10.2 10.2s4.6 10.2 10.2 10.2m-51.2 51.2c5.7 0 10.2-4.6 10.2-10.2 0-5.7-4.6-10.2-10.2-10.2-5.7 0-10.2 4.6-10.2 10.2s4.5 10.2 10.2 10.2M420.1 663.1c5.7 0 10.2-4.6 10.2-10.2 0-5.7-4.6-10.2-10.2-10.2-5.7 0-10.2 4.6-10.2 10.2-.1 5.7 4.5 10.2 10.2 10.2m409.8 0c5.7 0 10.2-4.6 10.2-10.2 0-5.7-4.6-10.2-10.2-10.2-5.7 0-10.2 4.6-10.2 10.2-.1 5.7 4.5 10.2 10.2 10.2m153.7 0c5.7 0 10.2-4.6 10.2-10.2 0-5.7-4.6-10.2-10.2-10.2s-10.2 4.6-10.2 10.2c-.1 5.7 4.5 10.2 10.2 10.2m614.7 0c5.7 0 10.2-4.6 10.2-10.2 0-5.7-4.6-10.2-10.2-10.2-5.7 0-10.2 4.6-10.2 10.2-.1 5.7 4.5 10.2 10.2 10.2m204.9 51.4c5.7 0 10.2-4.6 10.2-10.2 0-5.7-4.6-10.2-10.2-10.2-5.7 0-10.2 4.6-10.2 10.2s4.5 10.2 10.2 10.2m51.2 0c5.7 0 10.2-4.6 10.2-10.2 0-5.7-4.6-10.2-10.2-10.2-5.7 0-10.2 4.6-10.2 10.2s4.6 10.2 10.2 10.2M471.3 663.1c5.7 0 10.2-4.6 10.2-10.2 0-5.7-4.6-10.2-10.2-10.2-5.7 0-10.2 4.6-10.2 10.2-.1 5.7 4.5 10.2 10.2 10.2m102.4 102.5c5.7 0 10.2-4.6 10.2-10.2 0-5.7-4.6-10.2-10.2-10.2s-10.2 4.6-10.2 10.2 4.6 10.2 10.2 10.2m0 51.2c5.7 0 10.2-4.6 10.2-10.2 0-5.7-4.6-10.2-10.2-10.2s-10.2 4.6-10.2 10.2 4.6 10.2 10.2 10.2m51.3 51.3c5.7 0 10.2-4.6 10.2-10.2 0-5.7-4.6-10.2-10.2-10.2-5.7 0-10.2 4.6-10.2 10.2-.1 5.6 4.5 10.2 10.2 10.2m0 51.2c5.7 0 10.2-4.6 10.2-10.2 0-5.7-4.6-10.2-10.2-10.2-5.7 0-10.2 4.6-10.2 10.2-.1 5.6 4.5 10.2 10.2 10.2m307.3-102.5c5.7 0 10.2-4.6 10.2-10.2 0-5.7-4.6-10.2-10.2-10.2-5.7 0-10.2 4.6-10.2 10.2s4.6 10.2 10.2 10.2m-51.2 51.3c5.7 0 10.2-4.6 10.2-10.2 0-5.7-4.6-10.2-10.2-10.2-5.7 0-10.2 4.6-10.2 10.2s4.6 10.2 10.2 10.2m-51.2-102.5c5.7 0 10.2-4.6 10.2-10.2 0-5.7-4.6-10.2-10.2-10.2-5.7 0-10.2 4.6-10.2 10.2-.1 5.6 4.5 10.2 10.2 10.2m204.9 0c5.7 0 10.2-4.6 10.2-10.2 0-5.7-4.6-10.2-10.2-10.2-5.7 0-10.2 4.6-10.2 10.2-.1 5.6 4.5 10.2 10.2 10.2m-51.2 153.7c5.7 0 10.2-4.6 10.2-10.2 0-5.7-4.6-10.2-10.2-10.2s-10.2 4.6-10.2 10.2c-.1 5.6 4.5 10.2 10.2 10.2m256.1-153.7c5.7 0 10.2-4.6 10.2-10.2 0-5.7-4.6-10.2-10.2-10.2-5.7 0-10.2 4.6-10.2 10.2s4.5 10.2 10.2 10.2m358.6 0c5.7 0 10.2-4.6 10.2-10.2 0-5.7-4.6-10.2-10.2-10.2-5.7 0-10.2 4.6-10.2 10.2-.1 5.6 4.5 10.2 10.2 10.2m51.2 0c5.7 0 10.2-4.6 10.2-10.2 0-5.7-4.6-10.2-10.2-10.2-5.7 0-10.2 4.6-10.2 10.2s4.6 10.2 10.2 10.2m204.9 0c5.7 0 10.2-4.6 10.2-10.2 0-5.7-4.6-10.2-10.2-10.2-5.7 0-10.2 4.6-10.2 10.2s4.6 10.2 10.2 10.2M215.2 816.8c5.7 0 10.2-4.6 10.2-10.2 0-5.7-4.6-10.2-10.2-10.2-5.7 0-10.2 4.6-10.2 10.2-.1 5.6 4.5 10.2 10.2 10.2m-51.3 102.5c5.7 0 10.2-4.6 10.2-10.2 0-5.7-4.6-10.2-10.2-10.2-5.7 0-10.2 4.6-10.2 10.2s4.6 10.2 10.2 10.2m922.1-123c-5.7 0-10.2 4.6-10.2 10.2 0 5.7 4.6 10.2 10.2 10.2 5.7 0 10.2-4.6 10.2-10.2.1-5.6-4.5-10.2-10.2-10.2m51.2 51.3c-5.7 0-10.2 4.6-10.2 10.2 0 5.7 4.6 10.2 10.2 10.2 5.7 0 10.2-4.6 10.2-10.2.1-5.6-4.5-10.2-10.2-10.2m-768.4-30.8c5.7 0 10.2-4.6 10.2-10.2 0-5.7-4.6-10.2-10.2-10.2-5.7 0-10.2 4.6-10.2 10.2s4.6 10.2 10.2 10.2m51.3 51.3c5.7 0 10.2-4.6 10.2-10.2 0-5.7-4.6-10.2-10.2-10.2-5.7 0-10.2 4.6-10.2 10.2-.1 5.6 4.5 10.2 10.2 10.2m0 51.2c5.7 0 10.2-4.6 10.2-10.2 0-5.7-4.6-10.2-10.2-10.2-5.7 0-10.2 4.6-10.2 10.2-.1 5.6 4.5 10.2 10.2 10.2M10.2 659.1c3.4 0 6.1-2.8 6.1-6.1 0-3.4-2.8-6.1-6.1-6.1s-6.1 2.8-6.1 6.1 2.8 6.1 6.1 6.1m0 153.6c3.4 0 6.1-2.8 6.1-6.1 0-3.4-2.8-6.1-6.1-6.1s-6.1 2.8-6.1 6.1c0 3.4 2.8 6.1 6.1 6.1m0 51.3c3.4 0 6.1-2.8 6.1-6.1 0-3.4-2.8-6.1-6.1-6.1s-6.1 2.8-6.1 6.1 2.8 6.1 6.1 6.1m51.3 0c3.4 0 6.1-2.8 6.1-6.1 0-3.4-2.8-6.1-6.1-6.1-3.4 0-6.1 2.8-6.1 6.1-.1 3.3 2.7 6.1 6.1 6.1m0-153.7c3.4 0 6.1-2.8 6.1-6.1 0-3.4-2.8-6.1-6.1-6.1-3.4 0-6.1 2.8-6.1 6.1-.1 3.3 2.7 6.1 6.1 6.1m409.8 0c3.4 0 6.1-2.8 6.1-6.1 0-3.4-2.8-6.1-6.1-6.1-3.4 0-6.1 2.8-6.1 6.1-.1 3.3 2.7 6.1 6.1 6.1m51.2 102.4c3.4 0 6.1-2.8 6.1-6.1 0-3.4-2.8-6.1-6.1-6.1-3.4 0-6.1 2.8-6.1 6.1 0 3.4 2.7 6.1 6.1 6.1m-102.4-51.2c3.4 0 6.1-2.8 6.1-6.1 0-3.4-2.8-6.1-6.1-6.1-3.4 0-6.1 2.8-6.1 6.1-.1 3.4 2.7 6.1 6.1 6.1M317.6 915.2c3.4 0 6.1-2.8 6.1-6.1 0-3.4-2.8-6.1-6.1-6.1s-6.1 2.8-6.1 6.1 2.7 6.1 6.1 6.1m204.9 0c3.4 0 6.1-2.8 6.1-6.1 0-3.4-2.8-6.1-6.1-6.1-3.4 0-6.1 2.8-6.1 6.1s2.7 6.1 6.1 6.1M625 761.5c3.4 0 6.1-2.8 6.1-6.1 0-3.4-2.8-6.1-6.1-6.1-3.4 0-6.1 2.8-6.1 6.1-.1 3.4 2.7 6.1 6.1 6.1m256.1-51.2c3.4 0 6.1-2.8 6.1-6.1 0-3.4-2.8-6.1-6.1-6.1-3.4 0-6.1 2.8-6.1 6.1s2.7 6.1 6.1 6.1m0 102.4c3.4 0 6.1-2.8 6.1-6.1 0-3.4-2.8-6.1-6.1-6.1-3.4 0-6.1 2.8-6.1 6.1 0 3.4 2.7 6.1 6.1 6.1m0 102.5c3.4 0 6.1-2.8 6.1-6.1 0-3.4-2.8-6.1-6.1-6.1-3.4 0-6.1 2.8-6.1 6.1s2.7 6.1 6.1 6.1m153.7-51.2c3.4 0 6.1-2.8 6.1-6.1 0-3.4-2.8-6.1-6.1-6.1s-6.1 2.8-6.1 6.1c-.1 3.3 2.7 6.1 6.1 6.1M522.5 710.3c3.4 0 6.1-2.8 6.1-6.1 0-3.4-2.8-6.1-6.1-6.1-3.4 0-6.1 2.8-6.1 6.1s2.7 6.1 6.1 6.1m409.8 0c3.4 0 6.1-2.8 6.1-6.1 0-3.4-2.8-6.1-6.1-6.1-3.4 0-6.1 2.8-6.1 6.1s2.7 6.1 6.1 6.1m461.1 0c3.4 0 6.1-2.8 6.1-6.1 0-3.4-2.8-6.1-6.1-6.1-3.4 0-6.1 2.8-6.1 6.1-.1 3.3 2.7 6.1 6.1 6.1m-717.2 0c3.4 0 6.1-2.8 6.1-6.1 0-3.4-2.8-6.1-6.1-6.1-3.4 0-6.1 2.8-6.1 6.1s2.7 6.1 6.1 6.1m-409.8-51.2c3.4 0 6.1-2.8 6.1-6.1 0-3.4-2.8-6.1-6.1-6.1-3.4 0-6.1 2.8-6.1 6.1-.1 3.3 2.7 6.1 6.1 6.1m614.7 0c3.4 0 6.1-2.8 6.1-6.1 0-3.4-2.8-6.1-6.1-6.1-3.4 0-6.1 2.8-6.1 6.1s2.7 6.1 6.1 6.1m204.9 0c3.4 0 6.1-2.8 6.1-6.1 0-3.4-2.8-6.1-6.1-6.1-3.4 0-6.1 2.8-6.1 6.1s2.7 6.1 6.1 6.1m614.7 0c3.4 0 6.1-2.8 6.1-6.1 0-3.4-2.8-6.1-6.1-6.1-3.4 0-6.1 2.8-6.1 6.1s2.8 6.1 6.1 6.1m-51.2 0c3.4 0 6.1-2.8 6.1-6.1 0-3.4-2.8-6.1-6.1-6.1-3.4 0-6.1 2.8-6.1 6.1s2.7 6.1 6.1 6.1m102.5 51.3c3.4 0 6.1-2.8 6.1-6.1 0-3.4-2.8-6.1-6.1-6.1-3.4 0-6.1 2.8-6.1 6.1-.1 3.3 2.7 6.1 6.1 6.1m153.7 0c3.4 0 6.1-2.8 6.1-6.1 0-3.4-2.8-6.1-6.1-6.1-3.4 0-6.1 2.8-6.1 6.1-.1 3.3 2.7 6.1 6.1 6.1m-51.3-51.3c3.4 0 6.1-2.8 6.1-6.1 0-3.4-2.8-6.1-6.1-6.1-3.4 0-6.1 2.8-6.1 6.1s2.7 6.1 6.1 6.1m-717.2 0c3.4 0 6.1-2.8 6.1-6.1 0-3.4-2.8-6.1-6.1-6.1-3.4 0-6.1 2.8-6.1 6.1s2.8 6.1 6.1 6.1m51.3 102.4c3.4 0 6.1-2.8 6.1-6.1 0-3.4-2.8-6.1-6.1-6.1-3.4 0-6.1 2.8-6.1 6.1-.1 3.4 2.7 6.1 6.1 6.1m102.4 0c3.4 0 6.1-2.8 6.1-6.1 0-3.4-2.8-6.1-6.1-6.1-3.4 0-6.1 2.8-6.1 6.1 0 3.4 2.7 6.1 6.1 6.1m0 38.9c-3.4 0-6.1 2.8-6.1 6.1 0 3.4 2.8 6.1 6.1 6.1 3.4 0 6.1-2.8 6.1-6.1.1-3.3-2.7-6.1-6.1-6.1m358.6 102.5c-3.4 0-6.1 2.8-6.1 6.1 0 3.4 2.8 6.1 6.1 6.1 3.4 0 6.1-2.8 6.1-6.1.1-3.4-2.7-6.1-6.1-6.1m204.9 0c-3.4 0-6.1 2.8-6.1 6.1 0 3.4 2.8 6.1 6.1 6.1 3.4 0 6.1-2.8 6.1-6.1.1-3.4-2.7-6.1-6.1-6.1m-358.6-102.5c-3.4 0-6.1 2.8-6.1 6.1 0 3.4 2.8 6.1 6.1 6.1 3.4 0 6.1-2.8 6.1-6.1.1-3.3-2.7-6.1-6.1-6.1m256.2 0c-3.4 0-6.1 2.8-6.1 6.1 0 3.4 2.8 6.1 6.1 6.1 3.4 0 6.1-2.8 6.1-6.1s-2.7-6.1-6.1-6.1m-307.4 51.3c-3.4 0-6.1 2.8-6.1 6.1 0 3.4 2.8 6.1 6.1 6.1 3.4 0 6.1-2.8 6.1-6.1.1-3.4-2.7-6.1-6.1-6.1m204.9 0c-3.4 0-6.1 2.8-6.1 6.1 0 3.4 2.8 6.1 6.1 6.1 3.4 0 6.1-2.8 6.1-6.1.1-3.4-2.7-6.1-6.1-6.1"/></g></g></svg>