<?xml version="1.0" encoding="utf-8"?>
<!-- Generator: Adobe Illustrator 23.0.1, SVG Export Plug-In . SVG Version: 6.00 Build 0)  -->
<svg version="1.1" id="Layer_1" xmlns="http://www.w3.org/2000/svg" xmlns:xlink="http://www.w3.org/1999/xlink" x="0px" y="0px"
	 viewBox="0 0 250 150" style="enable-background:new 0 0 250 150;" xml:space="preserve">
<style type="text/css">
	.st0{clip-path:url(#SVGID_2_);fill:#18243F;}
	.st1{clip-path:url(#SVGID_4_);fill:#18243F;}
	.st2{clip-path:url(#SVGID_6_);fill:#18243F;}
	.st3{clip-path:url(#SVGID_8_);fill:#18243F;}
	.st4{clip-path:url(#SVGID_10_);fill:#18243F;}
	.st5{clip-path:url(#SVGID_12_);fill:#18243F;}
	.st6{clip-path:url(#SVGID_14_);fill:#31B096;}
	.st7{clip-path:url(#SVGID_16_);fill:#18243F;}
	.st8{clip-path:url(#SVGID_18_);fill:#31B096;}
	.st9{clip-path:url(#SVGID_20_);fill:#31B096;}
	.st10{clip-path:url(#SVGID_22_);fill:#18243F;}
	.st11{clip-path:url(#SVGID_24_);fill:#18243F;}
	.st12{clip-path:url(#SVGID_26_);fill:#18243F;}
	.st13{clip-path:url(#SVGID_28_);fill:#18243F;}
	.st14{clip-path:url(#SVGID_30_);fill:#18243F;}
	.st15{clip-path:url(#SVGID_32_);fill:#18243F;}
	.st16{clip-path:url(#SVGID_34_);fill:#18243F;}
	.st17{clip-path:url(#SVGID_36_);fill:#18243F;}
	.st18{clip-path:url(#SVGID_38_);fill:#18243F;}
	.st19{clip-path:url(#SVGID_40_);fill:#18243F;}
	.st20{clip-path:url(#SVGID_42_);fill:#31B096;}
</style>
<g>
	<g>
		<g>
			<g>
				<defs>
					<rect id="SVGID_1_" x="27.2" y="36.2" width="196.2" height="84"/>
				</defs>
				<clipPath id="SVGID_2_">
					<use xlink:href="#SVGID_1_"  style="overflow:visible;"/>
				</clipPath>
				<path class="st0" d="M134.9,45.2c1.1,0,1.9-0.8,1.9-1.8c0-1-0.9-1.8-1.9-1.8s-1.9,0.8-1.9,1.8C132.9,44.4,133.8,45.2,134.9,45.2
					"/>
			</g>
		</g>
		<g>
			<g>
				<defs>
					<rect id="SVGID_3_" x="27.2" y="36.2" width="196.2" height="84"/>
				</defs>
				<clipPath id="SVGID_4_">
					<use xlink:href="#SVGID_3_"  style="overflow:visible;"/>
				</clipPath>
				<path class="st1" d="M115.6,45.2c1.1,0,1.9-0.8,1.9-1.8c0-1-0.9-1.8-1.9-1.8c-1.1,0-1.9,0.8-1.9,1.8
					C113.7,44.4,114.6,45.2,115.6,45.2"/>
			</g>
		</g>
		<g>
			<g>
				<defs>
					<rect id="SVGID_5_" x="27.2" y="36.2" width="196.2" height="84"/>
				</defs>
				<clipPath id="SVGID_6_">
					<use xlink:href="#SVGID_5_"  style="overflow:visible;"/>
				</clipPath>
				<path class="st2" d="M106.1,58.8c1.1,0,1.9-0.8,1.9-1.8s-0.9-1.8-1.9-1.8s-1.9,0.8-1.9,1.8S105,58.8,106.1,58.8"/>
			</g>
		</g>
		<g>
			<g>
				<defs>
					<rect id="SVGID_7_" x="27.2" y="36.2" width="196.2" height="84"/>
				</defs>
				<clipPath id="SVGID_8_">
					<use xlink:href="#SVGID_7_"  style="overflow:visible;"/>
				</clipPath>
				<path class="st3" d="M125.2,77.8c1.6,0,2.9-1.3,2.9-2.8c0-1.5-1.3-2.8-2.9-2.8s-2.9,1.3-2.9,2.8
					C122.4,76.5,123.6,77.8,125.2,77.8"/>
			</g>
		</g>
		<g>
			<g>
				<defs>
					<rect id="SVGID_9_" x="27.2" y="36.2" width="196.2" height="84"/>
				</defs>
				<clipPath id="SVGID_10_">
					<use xlink:href="#SVGID_9_"  style="overflow:visible;"/>
				</clipPath>
				<path class="st4" d="M125.2,59.7c1.6,0,2.9-1.3,2.9-2.8s-1.3-2.8-2.9-2.8s-2.9,1.3-2.9,2.8C122.4,58.5,123.6,59.7,125.2,59.7"/>
			</g>
		</g>
		<g>
			<g>
				<defs>
					<rect id="SVGID_11_" x="27.2" y="36.2" width="196.2" height="84"/>
				</defs>
				<clipPath id="SVGID_12_">
					<use xlink:href="#SVGID_11_"  style="overflow:visible;"/>
				</clipPath>
				<path class="st5" d="M106.1,50.7c1.6,0,2.9-1.3,2.9-2.8s-1.3-2.8-2.9-2.8s-2.9,1.3-2.9,2.8C103.3,49.4,104.5,50.7,106.1,50.7"/>
			</g>
		</g>
		<g>
			<g>
				<defs>
					<rect id="SVGID_13_" x="27.2" y="36.2" width="196.2" height="84"/>
				</defs>
				<clipPath id="SVGID_14_">
					<use xlink:href="#SVGID_13_"  style="overflow:visible;"/>
				</clipPath>
				<path class="st6" d="M106.1,68.7c1.6,0,2.9-1.3,2.9-2.8s-1.3-2.8-2.9-2.8s-2.9,1.3-2.9,2.8C103.3,67.5,104.5,68.7,106.1,68.7"/>
			</g>
		</g>
		<g>
			<g>
				<defs>
					<rect id="SVGID_15_" x="27.2" y="36.2" width="196.2" height="84"/>
				</defs>
				<clipPath id="SVGID_16_">
					<use xlink:href="#SVGID_15_"  style="overflow:visible;"/>
				</clipPath>
				<path class="st7" d="M144.4,50.7c1.6,0,2.9-1.3,2.9-2.8s-1.3-2.8-2.9-2.8c-1.6,0-2.9,1.3-2.9,2.8
					C141.5,49.4,142.8,50.7,144.4,50.7"/>
			</g>
		</g>
		<g>
			<g>
				<defs>
					<rect id="SVGID_17_" x="27.2" y="36.2" width="196.2" height="84"/>
				</defs>
				<clipPath id="SVGID_18_">
					<use xlink:href="#SVGID_17_"  style="overflow:visible;"/>
				</clipPath>
				<path class="st8" d="M144.4,68.7c1.6,0,2.9-1.3,2.9-2.8s-1.3-2.8-2.9-2.8c-1.6,0-2.9,1.3-2.9,2.8
					C141.5,67.5,142.8,68.7,144.4,68.7"/>
			</g>
		</g>
		<g>
			<g>
				<defs>
					<rect id="SVGID_19_" x="27.2" y="36.2" width="196.2" height="84"/>
				</defs>
				<clipPath id="SVGID_20_">
					<use xlink:href="#SVGID_19_"  style="overflow:visible;"/>
				</clipPath>
				<path class="st9" d="M125.2,41.6c1.6,0,2.9-1.3,2.9-2.8s-1.3-2.8-2.9-2.8s-2.9,1.3-2.9,2.8C122.4,40.4,123.6,41.6,125.2,41.6"/>
			</g>
		</g>
		<g>
			<g>
				<defs>
					<rect id="SVGID_21_" x="27.2" y="36.2" width="196.2" height="84"/>
				</defs>
				<clipPath id="SVGID_22_">
					<use xlink:href="#SVGID_21_"  style="overflow:visible;"/>
				</clipPath>
				<path class="st10" d="M115.6,63c0.9,0,1.6-0.6,1.6-1.4s-0.7-1.4-1.6-1.4s-1.6,0.6-1.6,1.4C114.1,62.3,114.8,63,115.6,63"/>
			</g>
		</g>
		<g>
			<g>
				<defs>
					<rect id="SVGID_23_" x="27.2" y="36.2" width="196.2" height="84"/>
				</defs>
				<clipPath id="SVGID_24_">
					<use xlink:href="#SVGID_23_"  style="overflow:visible;"/>
				</clipPath>
				<path class="st11" d="M125.2,49.3c0.9,0,1.6-0.6,1.6-1.4s-0.7-1.4-1.6-1.4s-1.6,0.6-1.6,1.4C123.7,48.8,124.4,49.3,125.2,49.3"
					/>
			</g>
		</g>
		<g>
			<g>
				<defs>
					<rect id="SVGID_25_" x="27.2" y="36.2" width="196.2" height="84"/>
				</defs>
				<clipPath id="SVGID_26_">
					<use xlink:href="#SVGID_25_"  style="overflow:visible;"/>
				</clipPath>
				<path class="st12" d="M134.9,53.9c0.9,0,1.6-0.6,1.6-1.4s-0.7-1.4-1.6-1.4s-1.6,0.6-1.6,1.4S134,53.9,134.9,53.9"/>
			</g>
		</g>
		<g>
			<g>
				<defs>
					<rect id="SVGID_27_" x="27.2" y="36.2" width="196.2" height="84"/>
				</defs>
				<clipPath id="SVGID_28_">
					<use xlink:href="#SVGID_27_"  style="overflow:visible;"/>
				</clipPath>
				<path class="st13" d="M115.6,53.9c0.9,0,1.6-0.6,1.6-1.4s-0.7-1.4-1.6-1.4s-1.6,0.6-1.6,1.4C114.1,53.3,114.8,53.9,115.6,53.9"
					/>
			</g>
		</g>
		<g>
			<g>
				<defs>
					<rect id="SVGID_29_" x="27.2" y="36.2" width="196.2" height="84"/>
				</defs>
				<clipPath id="SVGID_30_">
					<use xlink:href="#SVGID_29_"  style="overflow:visible;"/>
				</clipPath>
				<path class="st14" d="M144.4,58.8c1.1,0,1.9-0.8,1.9-1.8s-0.9-1.8-1.9-1.8c-1.1,0-1.9,0.8-1.9,1.8
					C142.5,58,143.3,58.8,144.4,58.8"/>
			</g>
		</g>
		<g>
			<g>
				<defs>
					<rect id="SVGID_31_" x="27.2" y="36.2" width="196.2" height="84"/>
				</defs>
				<clipPath id="SVGID_32_">
					<use xlink:href="#SVGID_31_"  style="overflow:visible;"/>
				</clipPath>
				<path class="st15" d="M134.9,72.4c1.1,0,1.9-0.8,1.9-1.8s-0.9-1.8-1.9-1.8s-1.9,0.8-1.9,1.8C132.9,71.6,133.8,72.4,134.9,72.4"
					/>
			</g>
		</g>
		<g>
			<g>
				<defs>
					<rect id="SVGID_33_" x="27.2" y="36.2" width="196.2" height="84"/>
				</defs>
				<clipPath id="SVGID_34_">
					<use xlink:href="#SVGID_33_"  style="overflow:visible;"/>
				</clipPath>
				<path class="st16" d="M115.6,72.4c1.1,0,1.9-0.8,1.9-1.8s-0.9-1.8-1.9-1.8c-1.1,0-1.9,0.8-1.9,1.8
					C113.7,71.6,114.6,72.4,115.6,72.4"/>
			</g>
		</g>
		<g>
			<g>
				<defs>
					<rect id="SVGID_35_" x="27.2" y="36.2" width="196.2" height="84"/>
				</defs>
				<clipPath id="SVGID_36_">
					<use xlink:href="#SVGID_35_"  style="overflow:visible;"/>
				</clipPath>
				<path class="st17" d="M134.9,63c0.9,0,1.6-0.6,1.6-1.4s-0.7-1.4-1.6-1.4s-1.6,0.6-1.6,1.4S134,63,134.9,63"/>
			</g>
		</g>
		<g>
			<g>
				<defs>
					<rect id="SVGID_37_" x="27.2" y="36.2" width="196.2" height="84"/>
				</defs>
				<clipPath id="SVGID_38_">
					<use xlink:href="#SVGID_37_"  style="overflow:visible;"/>
				</clipPath>
				<path class="st18" d="M125.2,67.4c0.9,0,1.6-0.6,1.6-1.4s-0.7-1.4-1.6-1.4s-1.6,0.6-1.6,1.4S124.4,67.4,125.2,67.4"/>
			</g>
		</g>
		<g>
			<g>
				<defs>
					<rect id="SVGID_39_" x="27.2" y="36.2" width="196.2" height="84"/>
				</defs>
				<clipPath id="SVGID_40_">
					<use xlink:href="#SVGID_39_"  style="overflow:visible;"/>
				</clipPath>
				<path class="st19" d="M90.4,102.6c1.1,0,2.1,0.3,2.8,1c0.8,0.7,1.2,1.6,1.4,2.6h-8.3c0.2-1.1,0.6-1.9,1.4-2.6
					C88.4,102.9,89.3,102.6,90.4,102.6 M97.8,107.5c0-1.5-0.3-2.9-0.9-4s-1.5-2.1-2.7-2.7c-1.1-0.6-2.4-0.9-3.9-0.9s-2.8,0.3-3.9,1
					c-1.2,0.6-2.1,1.6-2.8,2.7c-0.6,1.1-1,2.4-1,3.9c0,1.4,0.3,2.8,1,3.9c0.7,1.1,1.6,2.1,2.9,2.7c1.3,0.6,2.7,1,4.2,1
					c1.3,0,2.4-0.2,3.4-0.6c1-0.4,1.9-1,2.5-1.8l-1.9-2.1c-1.1,1.1-2.4,1.6-4,1.6c-1.3,0-2.3-0.3-3.2-0.9c-0.9-0.6-1.4-1.5-1.6-2.6
					h11.5C97.8,108,97.8,107.6,97.8,107.5 M81.8,111.5c-0.5,0.4-1.2,0.6-1.9,0.6s-1.2-0.2-1.5-0.6c-0.4-0.4-0.5-0.9-0.5-1.6v-7h3.9
					v-2.8H78v-3.4h-3.4v3.4h-2.4v2.8h2.4v7c0,1.6,0.4,2.9,1.3,3.7c0.9,0.9,2.1,1.3,3.8,1.3c0.6,0,1.3-0.1,1.8-0.3
					c0.5-0.2,1.1-0.4,1.5-0.8L81.8,111.5z M68.3,97.6c0.6,0,1.2-0.2,1.6-0.6c0.4-0.4,0.6-0.9,0.6-1.6c0-0.6-0.2-1.1-0.6-1.4
					c-0.4-0.4-0.9-0.6-1.6-0.6c-0.6,0-1.1,0.2-1.6,0.6c-0.4,0.4-0.6,0.9-0.6,1.5c0,0.6,0.2,1.1,0.6,1.5
					C67.2,97.4,67.7,97.6,68.3,97.6 M66.6,114.7H70V100h-3.4V114.7z M58.2,99.8c-1.1,0-2.1,0.2-2.9,0.5c-0.9,0.4-1.6,0.9-2.2,1.6v-2
					h-3.3v14.6h3.4v-7.4c0-1.4,0.4-2.6,1.1-3.3c0.8-0.8,1.8-1.1,3-1.1c1.1,0,2,0.3,2.6,1c0.6,0.7,0.9,1.6,0.9,2.9v8h3.4v-8.4
					c0-2.1-0.6-3.8-1.7-4.8C61.4,100.3,60.1,99.8,58.2,99.8 M39.9,111.1c-1.3,0-2.4-0.4-3.3-1.2c-0.8-0.8-1.3-1.8-1.3-3.1
					c0-1.3,0.4-2.3,1.3-3c0.9-0.7,1.9-1.2,3.3-1.2c1.4,0,2.4,0.4,3.3,1.2c0.8,0.8,1.3,1.8,1.3,3c0,1.3-0.4,2.3-1.3,3.1
					S41.2,111.1,39.9,111.1 M44.5,100v1.9c-0.6-0.8-1.3-1.3-2.2-1.6c-0.9-0.4-1.9-0.5-2.9-0.5c-1.4,0-2.7,0.3-3.8,0.9
					c-1.1,0.6-2.1,1.4-2.7,2.5s-1,2.3-1,3.8c0,1.4,0.3,2.6,1,3.8c0.6,1.1,1.6,1.9,2.7,2.6c1.1,0.6,2.4,0.9,3.8,0.9
					c1,0,1.9-0.2,2.8-0.5c0.9-0.3,1.6-0.8,2.2-1.4v0.8c0,1.5-0.4,2.6-1.1,3.4c-0.7,0.8-1.9,1.1-3.6,1.1c-1,0-2-0.2-3-0.5
					c-1-0.3-1.8-0.8-2.4-1.3l-1.6,2.6c0.8,0.7,1.9,1.2,3.2,1.6c1.3,0.4,2.6,0.6,4.1,0.6c5.2,0,7.9-2.6,7.9-7.7v-12.5L44.5,100
					L44.5,100z M27.2,114.7h3.6V95.5h-3.6V114.7z"/>
			</g>
		</g>
		<g>
			<g>
				<defs>
					<rect id="SVGID_41_" x="27.2" y="36.2" width="196.2" height="84"/>
				</defs>
				<clipPath id="SVGID_42_">
					<use xlink:href="#SVGID_41_"  style="overflow:visible;"/>
				</clipPath>
				<path class="st20" d="M221.5,100.2l-5.4,12.3l-5.4-12.3h-2.1l6.4,14.4l-0.6,1.4c-0.4,0.9-0.9,1.5-1.3,1.9
					c-0.5,0.4-1.1,0.6-1.7,0.6c-1.1,0-1.9-0.4-2.7-1.1l-0.9,1.4c0.4,0.4,1,0.8,1.6,1c0.6,0.3,1.3,0.3,1.9,0.3c1.1,0,2-0.3,2.8-0.9
					c0.8-0.6,1.4-1.6,2.1-2.9l7.2-16.1H221.5L221.5,100.2z M201.9,100.1c-1.3,0-2.4,0.3-3.4,0.8s-1.8,1.3-2.3,2.3
					c-0.4-1-1.1-1.8-2-2.3s-1.9-0.8-3.2-0.8c-1.2,0-2.3,0.3-3.2,0.8s-1.6,1.2-2.2,2.1v-2.7h-1.9v14.4h1.9v-7.5
					c0-1.6,0.4-2.9,1.3-3.9c0.9-0.9,2.1-1.4,3.6-1.4c1.4,0,2.4,0.4,3.1,1.2c0.8,0.8,1.1,1.9,1.1,3.4v8.2h1.9v-7.5
					c0-1.6,0.4-2.9,1.3-3.9c0.9-0.9,2.1-1.4,3.6-1.4c1.3,0,2.4,0.4,3.1,1.2c0.8,0.8,1.1,1.9,1.1,3.4v8.2h1.9v-8.4
					c0-2.1-0.5-3.6-1.6-4.5C205.1,100.6,203.7,100.1,201.9,100.1 M174.1,101.8c1.4,0,2.6,0.4,3.6,1.4c0.9,0.9,1.5,2.1,1.6,3.5h-10.2
					c0.1-1.4,0.7-2.6,1.6-3.5C171.6,102.2,172.8,101.8,174.1,101.8 M181.1,107.5c0-1.4-0.3-2.8-0.9-3.8c-0.6-1.1-1.4-2-2.5-2.6
					s-2.3-0.9-3.6-0.9c-1.4,0-2.6,0.3-3.6,0.9c-1.1,0.6-1.9,1.5-2.6,2.6c-0.6,1.1-0.9,2.4-0.9,3.8c0,1.4,0.3,2.7,1,3.8
					c0.6,1.1,1.6,2,2.7,2.6s2.5,0.9,4,0.9c1.2,0,2.3-0.2,3.2-0.6c1-0.4,1.8-1,2.4-1.8l-1.1-1.3c-0.6,0.6-1.2,1.1-1.9,1.4
					s-1.6,0.5-2.5,0.5c-1.6,0-2.9-0.4-4-1.4c-1.1-0.9-1.6-2.2-1.8-3.7h12.1L181.1,107.5L181.1,107.5z M157,113.1
					c-1.1,0-1.9-0.3-2.8-0.7c-0.8-0.5-1.4-1.1-1.9-2c-0.5-0.9-0.7-1.9-0.7-2.9c0-1.1,0.3-2.1,0.7-2.9c0.5-0.9,1.1-1.6,1.9-2
					c0.8-0.5,1.8-0.7,2.8-0.7s1.9,0.3,2.8,0.7c0.8,0.5,1.4,1.1,1.9,2c0.5,0.9,0.7,1.9,0.7,2.9c0,1.1-0.3,2.1-0.7,2.9
					c-0.5,0.9-1.1,1.6-1.9,2C158.9,112.8,158,113.1,157,113.1 M162.4,94.3v8.7c-0.6-0.9-1.4-1.7-2.3-2.1c-0.9-0.5-2-0.8-3.2-0.8
					c-1.4,0-2.6,0.3-3.7,0.9c-1.1,0.6-2,1.5-2.6,2.6c-0.6,1.1-0.9,2.4-0.9,3.9c0,1.4,0.3,2.8,0.9,3.9c0.6,1.1,1.5,2,2.6,2.6
					s2.4,0.9,3.7,0.9s2.3-0.3,3.3-0.8s1.8-1.3,2.3-2.3v2.9h1.9V94.2L162.4,94.3L162.4,94.3z M140.5,113.3c-1.2,0-2.1-0.3-2.7-0.8
					c-0.6-0.5-1-1.2-1-2c0-1.8,1.3-2.6,3.8-2.6h4.5v2.4c-0.4,0.9-1,1.7-1.8,2.2C142.5,113,141.6,113.3,140.5,113.3 M141.1,100.1
					c-1.1,0-2.3,0.2-3.3,0.5c-1.1,0.3-1.9,0.8-2.7,1.4l0.9,1.4c0.6-0.6,1.3-0.9,2.2-1.3c0.9-0.3,1.8-0.4,2.7-0.4
					c1.4,0,2.4,0.3,3.1,1c0.7,0.6,1.1,1.6,1.1,2.9v0.9h-4.5c-1.9,0-3.4,0.4-4.2,1.1c-0.9,0.8-1.4,1.8-1.4,3c0,1.2,0.5,2.3,1.4,3.1
					c0.9,0.8,2.3,1.2,3.9,1.2c1.2,0,2.2-0.2,3.1-0.6c0.9-0.4,1.5-1,1.9-1.8v2.3h1.9v-9c0-1.9-0.5-3.3-1.5-4.2
					C144.5,100.6,143.1,100.1,141.1,100.1 M127.6,114.8c1.3,0,2.4-0.3,3.4-0.8s1.8-1.2,2.4-2.1l-1.4-1c-0.5,0.8-1.1,1.3-1.8,1.6
					c-0.8,0.4-1.6,0.5-2.4,0.5c-1.1,0-2-0.3-2.8-0.7c-0.8-0.5-1.5-1.1-1.9-2c-0.5-0.9-0.7-1.9-0.7-3c0-1.1,0.3-2.1,0.7-2.9
					c0.5-0.9,1.1-1.6,1.9-2c0.8-0.5,1.8-0.7,2.8-0.7c0.9,0,1.7,0.2,2.4,0.6c0.8,0.4,1.4,0.9,1.8,1.6l1.4-1c-0.6-0.9-1.4-1.7-2.3-2.1
					c-1-0.5-2.1-0.8-3.4-0.8c-1.4,0-2.8,0.3-3.9,0.9c-1.1,0.6-2,1.5-2.7,2.6c-0.6,1.1-1,2.4-1,3.8c0,1.4,0.3,2.7,1,3.8
					c0.6,1.1,1.6,2,2.7,2.6C124.9,114.5,126.2,114.8,127.6,114.8 M105.7,107.8l4.5-10.4l4.5,10.4H105.7z M118.1,114.7h2.2l-8.8-19.2
					h-2l-8.8,19.2h2.1l2.3-5.1h10.7L118.1,114.7z"/>
			</g>
		</g>
	</g>
</g>
</svg>
