<?xml version="1.0" encoding="utf-8"?>
<!-- Generator: Adobe Illustrator 23.0.1, SVG Export Plug-In . SVG Version: 6.00 Build 0)  -->
<svg version="1.1" xmlns="http://www.w3.org/2000/svg" xmlns:xlink="http://www.w3.org/1999/xlink" x="0px" y="0px"
	 viewBox="0 0 341 185" style="enable-background:new 0 0 341 185;" xml:space="preserve">
<style type="text/css">
	.st0{fill:#18243F;}
	.st1{clip-path:url(#SVGID_2_);fill:#FFFFFF;}
	.st2{clip-path:url(#SVGID_2_);fill:#31B096;}
	.st3{clip-path:url(#SVGID_4_);fill:#FFFFFF;}
	.st4{clip-path:url(#SVGID_4_);fill:#18243F;}
	.st5{clip-path:url(#SVGID_6_);fill:#EBAF41;}
	.st6{clip-path:url(#SVGID_6_);fill:#18243F;}
</style>
<g id="Layer_2">
</g>
<g id="Layer_1">
	<path class="st0" d="M537.6,40.9c2.4,0,4.6-0.5,6.5-1.5c1.9-1,3.4-2.5,4.5-4.3c1.1-1.8,1.6-3.9,1.6-6.2s-0.5-4.4-1.6-6.2
		c-1.1-1.8-2.6-3.2-4.5-4.3c-1.9-1-4.1-1.5-6.5-1.5c-2.4,0-4.5,0.5-6.4,1.5c-1.9,1-3.4,2.4-4.5,4.3c-1.1,1.8-1.6,3.9-1.6,6.2
		s0.5,4.4,1.6,6.2c1.1,1.8,2.6,3.3,4.5,4.3C533.1,40.4,535.2,40.9,537.6,40.9"/>
	<g>
		<defs>
			<rect id="SVGID_1_" x="460" y="28.6" width="317" height="132.4"/>
		</defs>
		<clipPath id="SVGID_2_">
			<use xlink:href="#SVGID_1_"  style="overflow:visible;"/>
		</clipPath>
		<path class="st1" d="M634,42.8c1.7,0,3.1-1.3,3.1-2.9c0-1.6-1.4-2.8-3.1-2.8c-1.7,0-3.1,1.3-3.1,2.8
			C630.9,41.6,632.3,42.8,634,42.8"/>
		<path class="st1" d="M603,42.8c1.7,0,3.1-1.3,3.1-2.9c0-1.6-1.4-2.8-3.1-2.8c-1.7,0-3.1,1.3-3.1,2.8
			C599.9,41.6,601.3,42.8,603,42.8"/>
		<path class="st1" d="M587.6,64.2c1.7,0,3.1-1.3,3.1-2.9c0-1.6-1.4-2.8-3.1-2.8c-1.7,0-3.1,1.3-3.1,2.8
			C584.5,63,585.9,64.2,587.6,64.2"/>
		<path class="st1" d="M618.5,94.2c2.6,0,4.6-1.9,4.6-4.3c0-2.4-2.1-4.3-4.6-4.3s-4.6,1.9-4.6,4.3C613.9,92.3,615.9,94.2,618.5,94.2
			"/>
		<path class="st1" d="M618.5,65.7c2.6,0,4.6-1.9,4.6-4.3c0-2.4-2.1-4.3-4.6-4.3s-4.6,1.9-4.6,4.3C613.9,63.7,615.9,65.7,618.5,65.7
			"/>
		<path class="st1" d="M587.6,51.4c2.6,0,4.6-1.9,4.6-4.3s-2.1-4.3-4.6-4.3s-4.6,1.9-4.6,4.3S585,51.4,587.6,51.4"/>
		<path class="st2" d="M587.6,79.9c2.6,0,4.6-1.9,4.6-4.3s-2.1-4.3-4.6-4.3s-4.6,1.9-4.6,4.3S585,79.9,587.6,79.9"/>
		<path class="st1" d="M649.4,51.4c2.6,0,4.6-1.9,4.6-4.3s-2.1-4.3-4.6-4.3s-4.6,1.9-4.6,4.3S646.9,51.4,649.4,51.4"/>
		<path class="st2" d="M649.4,79.9c2.6,0,4.6-1.9,4.6-4.3s-2.1-4.3-4.6-4.3s-4.6,1.9-4.6,4.3S646.9,79.9,649.4,79.9"/>
		<path class="st2" d="M618.5,37.1c2.6,0,4.6-1.9,4.6-4.3s-2.1-4.3-4.6-4.3s-4.6,1.9-4.6,4.3S615.9,37.1,618.5,37.1"/>
		<path class="st1" d="M603,70.8c1.4,0,2.5-1,2.5-2.3c0-1.3-1.1-2.3-2.5-2.3c-1.4,0-2.5,1-2.5,2.3C600.6,69.8,601.7,70.8,603,70.8"
			/>
		<path class="st1" d="M618.5,49.4c1.4,0,2.5-1,2.5-2.3c0-1.3-1.1-2.3-2.5-2.3s-2.5,1-2.5,2.3C616,48.4,617.1,49.4,618.5,49.4"/>
		<path class="st1" d="M634,56.5c1.4,0,2.5-1,2.5-2.3c0-1.3-1.1-2.3-2.5-2.3c-1.4,0-2.5,1-2.5,2.3C631.5,55.5,632.6,56.5,634,56.5"
			/>
		<path class="st1" d="M603,56.5c1.4,0,2.5-1,2.5-2.3c0-1.3-1.1-2.3-2.5-2.3c-1.4,0-2.5,1-2.5,2.3C600.6,55.5,601.7,56.5,603,56.5"
			/>
		<path class="st1" d="M649.4,64.2c1.7,0,3.1-1.3,3.1-2.9c0-1.6-1.4-2.8-3.1-2.8s-3.1,1.3-3.1,2.8C646.3,63,647.7,64.2,649.4,64.2"
			/>
		<path class="st1" d="M634,85.6c1.7,0,3.1-1.3,3.1-2.9c0-1.6-1.4-2.8-3.1-2.8c-1.7,0-3.1,1.3-3.1,2.8
			C630.9,84.3,632.3,85.6,634,85.6"/>
		<path class="st1" d="M603,85.6c1.7,0,3.1-1.3,3.1-2.9c0-1.6-1.4-2.8-3.1-2.8c-1.7,0-3.1,1.3-3.1,2.8
			C599.9,84.3,601.3,85.6,603,85.6"/>
		<path class="st1" d="M634,70.8c1.4,0,2.5-1,2.5-2.3c0-1.3-1.1-2.3-2.5-2.3c-1.4,0-2.5,1-2.5,2.3C631.5,69.8,632.6,70.8,634,70.8"
			/>
		<path class="st1" d="M618.5,77.9c1.4,0,2.5-1,2.5-2.3c0-1.3-1.1-2.3-2.5-2.3s-2.5,1-2.5,2.3C616,76.9,617.1,77.9,618.5,77.9"/>
		<path class="st1" d="M562.2,133.3c1.8,0,3.3,0.5,4.5,1.6c1.2,1,1.9,2.4,2.2,4.1h-13.4c0.3-1.7,1-3.1,2.2-4.1
			C558.9,133.8,560.5,133.3,562.2,133.3 M574.2,140.9c0-2.4-0.5-4.4-1.5-6.2c-1-1.8-2.4-3.2-4.3-4.2c-1.8-1-3.9-1.5-6.2-1.5
			c-2.3,0-4.4,0.5-6.3,1.5c-1.9,1-3.3,2.4-4.4,4.2c-1,1.8-1.6,3.8-1.6,6.1c0,2.3,0.5,4.3,1.6,6.1c1.1,1.8,2.6,3.2,4.6,4.2
			c2,1,4.3,1.5,6.9,1.5c2,0,3.9-0.3,5.5-1c1.6-0.6,3-1.6,4-2.8l-3-3.3c-1.7,1.7-3.8,2.5-6.4,2.5c-2,0-3.7-0.5-5.1-1.5
			c-1.4-1-2.2-2.3-2.6-4h18.6C574.2,141.8,574.2,141.3,574.2,140.9 M548.3,147.2c-0.8,0.6-1.9,1-3.1,1c-1.1,0-1.9-0.3-2.4-0.9
			c-0.6-0.6-0.8-1.5-0.8-2.6v-11h6.3v-4.3H542v-5.3h-5.5v5.3h-3.9v4.3h3.9v11.1c0,2.5,0.7,4.5,2.1,5.8c1.4,1.3,3.4,2,6,2
			c1,0,2-0.1,2.9-0.4c0.9-0.3,1.7-0.7,2.4-1.2L548.3,147.2z M526.5,125.4c1,0,1.9-0.3,2.5-1c0.7-0.6,1-1.4,1-2.4
			c0-0.9-0.3-1.6-1-2.2c-0.7-0.6-1.5-0.9-2.5-0.9c-1,0-1.8,0.3-2.5,0.9c-0.7,0.6-1,1.4-1,2.3c0,0.9,0.3,1.7,1,2.3
			C524.7,125.1,525.5,125.4,526.5,125.4 M523.8,152.3h5.5v-23.1h-5.5V152.3z M510.2,128.9c-1.7,0-3.3,0.3-4.7,0.8
			c-1.4,0.5-2.5,1.4-3.5,2.4v-3h-5.3v23.1h5.5v-11.7c0-2.2,0.6-4,1.8-5.2s2.8-1.8,4.8-1.8c1.8,0,3.2,0.5,4.2,1.5
			c1,1,1.5,2.5,1.5,4.6v12.5h5.5v-13.2c0-3.3-0.9-5.9-2.7-7.6C515.6,129.8,513.2,128.9,510.2,128.9 M480.6,146.7
			c-2.1,0-3.9-0.6-5.2-1.8c-1.3-1.2-2-2.8-2-4.8c0-1.9,0.7-3.5,2-4.7c1.3-1.2,3.1-1.8,5.2-1.8c2.1,0,3.8,0.6,5.2,1.8
			c1.3,1.2,2,2.8,2,4.7c0,2-0.7,3.6-2,4.8C484.5,146.1,482.7,146.7,480.6,146.7 M488,129.2v3.1c-0.9-1.1-2.1-2-3.5-2.5
			c-1.4-0.5-3-0.8-4.7-0.8c-2.2,0-4.3,0.5-6.1,1.4c-1.8,0.9-3.3,2.2-4.3,3.9c-1,1.7-1.6,3.6-1.6,5.8c0,2.2,0.5,4.1,1.6,5.8
			c1,1.7,2.5,3,4.3,4c1.8,0.9,3.9,1.4,6.1,1.4c1.6,0,3.1-0.3,4.5-0.8c1.4-0.5,2.5-1.3,3.5-2.3v1.2c0,2.4-0.6,4.1-1.8,5.3
			c-1.2,1.2-3.1,1.7-5.7,1.7c-1.6,0-3.2-0.3-4.8-0.8c-1.6-0.5-2.9-1.2-3.9-2l-2.5,4.1c1.3,1.1,3,1.9,5.1,2.4c2,0.6,4.2,0.8,6.5,0.8
			c8.5,0,12.8-4.1,12.8-12.2v-19.6H488z M460,152.3h5.8V122H460V152.3z"/>
		<path class="st2" d="M773.9,129.6l-8.8,19.3l-8.8-19.3h-3.3l10.4,22.7l-1,2.2c-0.7,1.4-1.4,2.4-2.1,2.9c-0.8,0.6-1.7,0.9-2.7,0.9
			c-1.7,0-3.1-0.6-4.3-1.7l-1.5,2.3c0.7,0.7,1.6,1.2,2.5,1.6c1,0.3,2,0.5,3.1,0.5c1.7,0,3.2-0.4,4.5-1.3c1.2-0.9,2.3-2.4,3.3-4.5
			l11.7-25.5H773.9z M742.3,129.4c-2.1,0-3.9,0.4-5.5,1.3c-1.6,0.9-2.8,2-3.7,3.5c-0.7-1.6-1.8-2.8-3.2-3.6
			c-1.4-0.8-3.1-1.2-5.1-1.2c-1.9,0-3.6,0.4-5.1,1.1c-1.5,0.8-2.6,1.8-3.5,3.2v-4.2h-3v22.8h3.1v-11.9c0-2.6,0.7-4.6,2.1-6
			c1.4-1.5,3.3-2.2,5.7-2.2c2.2,0,3.8,0.6,5,1.9s1.8,3,1.8,5.4v12.9h3.1v-11.9c0-2.6,0.7-4.6,2.1-6c1.4-1.5,3.3-2.2,5.7-2.2
			c2.1,0,3.8,0.6,4.9,1.9c1.2,1.2,1.8,3,1.8,5.4v12.9h3.1v-13.2c0-3.2-0.8-5.6-2.5-7.3C747.5,130.2,745.2,129.4,742.3,129.4
			 M697.5,132c2.3,0,4.2,0.7,5.7,2.1c1.5,1.4,2.4,3.2,2.6,5.5h-16.5c0.2-2.2,1.1-4.1,2.6-5.5C693.4,132.7,695.3,132,697.5,132
			 M708.8,140.9c0-2.2-0.5-4.2-1.5-6c-1-1.7-2.3-3.1-4-4.1c-1.7-1-3.7-1.5-5.8-1.5s-4.1,0.5-5.8,1.5c-1.7,1-3.1,2.4-4.1,4.1
			s-1.5,3.7-1.5,6c0,2.2,0.5,4.2,1.6,6c1,1.8,2.5,3.1,4.3,4.1c1.8,1,4,1.5,6.4,1.5c1.9,0,3.6-0.3,5.1-0.9c1.6-0.6,2.8-1.6,3.9-2.8
			l-1.8-2c-0.9,1-1.9,1.7-3.1,2.2c-1.2,0.5-2.5,0.8-4,0.8c-2.6,0-4.7-0.7-6.4-2.2c-1.7-1.5-2.6-3.4-2.8-5.7h19.5L708.8,140.9z
			 M669.8,149.8c-1.7,0-3.1-0.4-4.5-1.1c-1.3-0.7-2.3-1.8-3.1-3.1c-0.8-1.4-1.1-2.9-1.1-4.6c0-1.7,0.4-3.3,1.1-4.6
			c0.8-1.4,1.8-2.4,3.1-3.1c1.3-0.7,2.8-1.1,4.5-1.1c1.6,0,3.1,0.4,4.4,1.1c1.3,0.7,2.3,1.8,3.1,3.1c0.8,1.4,1.1,2.9,1.1,4.6
			c0,1.7-0.4,3.3-1.1,4.6c-0.8,1.4-1.8,2.4-3.1,3.1C672.9,149.4,671.4,149.8,669.8,149.8 M678.4,120.2v13.7c-1-1.5-2.2-2.6-3.7-3.4
			c-1.5-0.8-3.2-1.1-5.1-1.1c-2.2,0-4.2,0.5-5.9,1.5c-1.8,1-3.2,2.3-4.2,4.1c-1,1.8-1.5,3.8-1.5,6c0,2.3,0.5,4.3,1.5,6
			c1,1.8,2.4,3.1,4.2,4.1c1.8,1,3.8,1.5,5.9,1.5c2,0,3.7-0.4,5.3-1.2c1.6-0.8,2.8-2,3.7-3.5v4.5h3v-32.1H678.4z M643.1,150.1
			c-1.9,0-3.3-0.4-4.3-1.1s-1.6-1.8-1.6-3.1c0-2.7,2-4.1,6-4.1h7.3v3.7c-0.6,1.5-1.6,2.6-2.8,3.4
			C646.4,149.7,644.9,150.1,643.1,150.1 M644.2,129.4c-1.8,0-3.6,0.3-5.2,0.8c-1.7,0.5-3.1,1.3-4.3,2.3l1.4,2.3c1-0.8,2.1-1.5,3.5-2
			c1.4-0.5,2.8-0.7,4.3-0.7c2.2,0,3.8,0.5,4.9,1.5c1.1,1,1.7,2.5,1.7,4.5v1.4h-7.4c-3.1,0-5.4,0.6-6.8,1.8c-1.4,1.2-2.2,2.7-2.2,4.7
			c0,2,0.8,3.6,2.3,4.8c1.5,1.2,3.6,1.8,6.2,1.8c1.9,0,3.5-0.3,4.9-1c1.4-0.7,2.4-1.6,3.1-2.8v3.5h3v-14.1c0-2.9-0.8-5.1-2.4-6.6
			C649.6,130.1,647.3,129.4,644.2,129.4 M622.3,152.5c2,0,3.8-0.4,5.4-1.1c1.6-0.8,2.9-1.9,3.8-3.4l-2.3-1.6c-0.8,1.1-1.7,2-2.9,2.5
			c-1.2,0.5-2.5,0.8-3.9,0.8c-1.7,0-3.2-0.4-4.5-1.1c-1.3-0.7-2.4-1.8-3.1-3.1s-1.1-2.9-1.1-4.7c0-1.7,0.4-3.3,1.1-4.6
			c0.8-1.4,1.8-2.4,3.1-3.1c1.3-0.7,2.9-1.1,4.5-1.1c1.4,0,2.7,0.3,3.9,0.8c1.2,0.6,2.2,1.4,2.9,2.5l2.3-1.6
			c-0.9-1.5-2.2-2.6-3.7-3.4c-1.6-0.8-3.4-1.1-5.4-1.1c-2.3,0-4.4,0.5-6.2,1.5c-1.8,1-3.2,2.4-4.3,4.1c-1,1.8-1.6,3.7-1.6,6
			c0,2.2,0.5,4.2,1.6,6c1,1.8,2.5,3.2,4.3,4.1C618,152,620,152.5,622.3,152.5 M587,141.6l7.5-16.3l7.4,16.3H587z M606.9,152.3h3.5
			L596.1,122h-3.2l-14.2,30.3h3.4l3.7-8.1h17.3L606.9,152.3z"/>
	</g>
	<g>
		<defs>
			<rect id="SVGID_3_" x="405" y="84" width="33.7" height="31"/>
		</defs>
		<clipPath id="SVGID_4_">
			<use xlink:href="#SVGID_3_"  style="overflow:visible;"/>
		</clipPath>
		<path class="st3" d="M429.2,90.7c0.8,0,1.5-0.6,1.5-1.3S430,88,429.2,88c-0.8,0-1.5,0.6-1.5,1.3S428.4,90.7,429.2,90.7"/>
		<path class="st3" d="M414.5,90.7c0.8,0,1.5-0.6,1.5-1.3s-0.7-1.3-1.5-1.3c-0.8,0-1.5,0.6-1.5,1.3S413.7,90.7,414.5,90.7"/>
		<path class="st3" d="M407.2,100.8c0.8,0,1.5-0.6,1.5-1.3s-0.7-1.3-1.5-1.3c-0.8,0-1.5,0.6-1.5,1.3S406.4,100.8,407.2,100.8"/>
		<path class="st3" d="M421.9,115c1.2,0,2.2-0.9,2.2-2s-1-2-2.2-2s-2.2,0.9-2.2,2S420.6,115,421.9,115"/>
		<path class="st3" d="M421.9,101.5c1.2,0,2.2-0.9,2.2-2s-1-2-2.2-2s-2.2,0.9-2.2,2S420.6,101.5,421.9,101.5"/>
		<path class="st3" d="M407.2,94.8c1.2,0,2.2-0.9,2.2-2s-1-2-2.2-2s-2.2,0.9-2.2,2S406,94.8,407.2,94.8"/>
		<path class="st4" d="M407.2,108.3c1.2,0,2.2-0.9,2.2-2s-1-2-2.2-2s-2.2,0.9-2.2,2S406,108.3,407.2,108.3"/>
		<path class="st3" d="M436.5,94.8c1.2,0,2.2-0.9,2.2-2s-1-2-2.2-2c-1.2,0-2.2,0.9-2.2,2S435.3,94.8,436.5,94.8"/>
		<path class="st4" d="M436.5,108.3c1.2,0,2.2-0.9,2.2-2s-1-2-2.2-2c-1.2,0-2.2,0.9-2.2,2S435.3,108.3,436.5,108.3"/>
		<path class="st4" d="M421.9,88c1.2,0,2.2-0.9,2.2-2s-1-2-2.2-2s-2.2,0.9-2.2,2S420.6,88,421.9,88"/>
		<path class="st3" d="M414.5,103.9c0.6,0,1.2-0.5,1.2-1.1c0-0.6-0.5-1.1-1.2-1.1c-0.6,0-1.2,0.5-1.2,1.1
			C413.4,103.5,413.9,103.9,414.5,103.9"/>
		<path class="st3" d="M421.9,93.8c0.6,0,1.2-0.5,1.2-1.1c0-0.6-0.5-1.1-1.2-1.1s-1.2,0.5-1.2,1.1C420.7,93.4,421.2,93.8,421.9,93.8
			"/>
		<path class="st3" d="M429.2,97.2c0.6,0,1.2-0.5,1.2-1.1c0-0.6-0.5-1.1-1.2-1.1c-0.6,0-1.2,0.5-1.2,1.1
			C428,96.7,428.5,97.2,429.2,97.2"/>
		<path class="st3" d="M414.5,97.2c0.6,0,1.2-0.5,1.2-1.1c0-0.6-0.5-1.1-1.2-1.1c-0.6,0-1.2,0.5-1.2,1.1
			C413.4,96.7,413.9,97.2,414.5,97.2"/>
		<path class="st3" d="M436.5,100.8c0.8,0,1.5-0.6,1.5-1.3s-0.7-1.3-1.5-1.3c-0.8,0-1.5,0.6-1.5,1.3S435.7,100.8,436.5,100.8"/>
		<path class="st3" d="M429.2,111c0.8,0,1.5-0.6,1.5-1.3c0-0.7-0.7-1.3-1.5-1.3c-0.8,0-1.5,0.6-1.5,1.3
			C427.7,110.4,428.4,111,429.2,111"/>
		<path class="st3" d="M414.5,111c0.8,0,1.5-0.6,1.5-1.3c0-0.7-0.7-1.3-1.5-1.3c-0.8,0-1.5,0.6-1.5,1.3
			C413.1,110.4,413.7,111,414.5,111"/>
		<path class="st3" d="M429.2,103.9c0.6,0,1.2-0.5,1.2-1.1c0-0.6-0.5-1.1-1.2-1.1c-0.6,0-1.2,0.5-1.2,1.1
			C428,103.5,428.5,103.9,429.2,103.9"/>
		<path class="st3" d="M421.9,107.3c0.6,0,1.2-0.5,1.2-1.1c0-0.6-0.5-1.1-1.2-1.1s-1.2,0.5-1.2,1.1
			C420.7,106.8,421.2,107.3,421.9,107.3"/>
	</g>
	<g>
		<defs>
			<rect id="SVGID_5_" x="25" y="24" width="291.1" height="137"/>
		</defs>
		<clipPath id="SVGID_6_">
			<use xlink:href="#SVGID_5_"  style="overflow:visible;"/>
		</clipPath>
		<path class="st5" d="M186.4,38.7c1.7,0,3.1-1.3,3.1-2.9c0-1.6-1.4-2.9-3.1-2.9s-3.1,1.3-3.1,2.9C183.2,37.4,184.6,38.7,186.4,38.7
			"/>
		<path class="st5" d="M155.2,38.7c1.7,0,3.1-1.3,3.1-2.9c0-1.6-1.4-2.9-3.1-2.9s-3.1,1.3-3.1,2.9C152.1,37.4,153.5,38.7,155.2,38.7
			"/>
		<path class="st6" d="M139.6,60.8c1.7,0,3.1-1.3,3.1-2.9c0-1.6-1.4-2.9-3.1-2.9s-3.1,1.3-3.1,2.9C136.5,59.5,137.9,60.8,139.6,60.8
			"/>
		<path class="st5" d="M170.8,91.8c2.6,0,4.7-2,4.7-4.4c0-2.4-2.1-4.4-4.7-4.4c-2.6,0-4.7,2-4.7,4.4
			C166.1,89.8,168.2,91.8,170.8,91.8"/>
		<path class="st5" d="M170.8,62.3c2.6,0,4.7-2,4.7-4.4c0-2.4-2.1-4.4-4.7-4.4c-2.6,0-4.7,2-4.7,4.4
			C166.1,60.3,168.2,62.3,170.8,62.3"/>
		<path class="st6" d="M139.6,47.6c2.6,0,4.7-2,4.7-4.4c0-2.4-2.1-4.4-4.7-4.4s-4.7,2-4.7,4.4C134.9,45.6,137,47.6,139.6,47.6"/>
		<path class="st6" d="M139.6,77c2.6,0,4.7-2,4.7-4.4c0-2.4-2.1-4.4-4.7-4.4s-4.7,2-4.7,4.4C134.9,75,137,77,139.6,77"/>
		<path class="st6" d="M202,47.6c2.6,0,4.7-2,4.7-4.4c0-2.4-2.1-4.4-4.7-4.4c-2.6,0-4.7,2-4.7,4.4C197.3,45.6,199.4,47.6,202,47.6"
			/>
		<path class="st6" d="M202,77c2.6,0,4.7-2,4.7-4.4c0-2.4-2.1-4.4-4.7-4.4c-2.6,0-4.7,2-4.7,4.4C197.3,75,199.4,77,202,77"/>
		<path class="st5" d="M170.8,32.8c2.6,0,4.7-2,4.7-4.4c0-2.4-2.1-4.4-4.7-4.4c-2.6,0-4.7,2-4.7,4.4
			C166.1,30.9,168.2,32.8,170.8,32.8"/>
		<path class="st6" d="M155.2,67.6c1.4,0,2.5-1.1,2.5-2.4c0-1.3-1.1-2.4-2.5-2.4c-1.4,0-2.5,1.1-2.5,2.4
			C152.7,66.5,153.8,67.6,155.2,67.6"/>
		<path class="st6" d="M170.8,45.5c1.4,0,2.5-1.1,2.5-2.4c0-1.3-1.1-2.4-2.5-2.4c-1.4,0-2.5,1.1-2.5,2.4
			C168.3,44.5,169.4,45.5,170.8,45.5"/>
		<path class="st6" d="M186.4,52.9c1.4,0,2.5-1.1,2.5-2.4c0-1.3-1.1-2.4-2.5-2.4c-1.4,0-2.5,1.1-2.5,2.4
			C183.9,51.8,185,52.9,186.4,52.9"/>
		<path class="st5" d="M155.2,52.9c1.4,0,2.5-1.1,2.5-2.4c0-1.3-1.1-2.4-2.5-2.4c-1.4,0-2.5,1.1-2.5,2.4
			C152.7,51.8,153.8,52.9,155.2,52.9"/>
		<path class="st6" d="M202,60.8c1.7,0,3.1-1.3,3.1-2.9c0-1.6-1.4-2.9-3.1-2.9c-1.7,0-3.1,1.3-3.1,2.9
			C198.8,59.5,200.2,60.8,202,60.8"/>
		<path class="st5" d="M186.4,82.9c1.7,0,3.1-1.3,3.1-2.9c0-1.6-1.4-2.9-3.1-2.9s-3.1,1.3-3.1,2.9C183.2,81.6,184.6,82.9,186.4,82.9
			"/>
		<path class="st5" d="M155.2,82.9c1.7,0,3.1-1.3,3.1-2.9c0-1.6-1.4-2.9-3.1-2.9s-3.1,1.3-3.1,2.9C152.1,81.6,153.5,82.9,155.2,82.9
			"/>
		<path class="st5" d="M186.4,67.6c1.4,0,2.5-1.1,2.5-2.4c0-1.3-1.1-2.4-2.5-2.4c-1.4,0-2.5,1.1-2.5,2.4
			C183.9,66.5,185,67.6,186.4,67.6"/>
		<path class="st6" d="M170.8,75c1.4,0,2.5-1.1,2.5-2.4c0-1.3-1.1-2.4-2.5-2.4c-1.4,0-2.5,1.1-2.5,2.4C168.3,73.9,169.4,75,170.8,75
			"/>
		<path class="st6" d="M128.5,132.2c1.8,0,3.4,0.5,4.6,1.6c1.2,1.1,2,2.5,2.2,4.2h-13.6c0.3-1.8,1-3.2,2.3-4.2
			C125.2,132.8,126.7,132.2,128.5,132.2 M140.6,140.1c0-2.5-0.5-4.6-1.5-6.5c-1-1.9-2.5-3.3-4.3-4.4c-1.8-1-3.9-1.5-6.3-1.5
			c-2.4,0-4.5,0.5-6.4,1.6c-1.9,1-3.4,2.5-4.4,4.4c-1.1,1.9-1.6,4-1.6,6.3c0,2.4,0.5,4.5,1.6,6.4c1.1,1.9,2.6,3.3,4.6,4.4
			c2,1,4.3,1.6,7,1.6c2.1,0,3.9-0.3,5.6-1c1.6-0.7,3-1.6,4.1-2.9l-3-3.5c-1.7,1.7-3.9,2.6-6.5,2.6c-2.1,0-3.8-0.5-5.2-1.5
			c-1.4-1-2.3-2.4-2.6-4.2h18.8C140.6,141.1,140.6,140.5,140.6,140.1 M114.4,146.7c-0.8,0.7-1.9,1-3.1,1c-1.1,0-1.9-0.3-2.5-0.9
			c-0.6-0.6-0.9-1.5-0.9-2.7v-11.4h6.4v-4.5H108v-5.5h-5.6v5.5h-4v4.5h4v11.5c0,2.6,0.7,4.6,2.2,6c1.4,1.4,3.5,2.1,6.1,2.1
			c1,0,2-0.1,3-0.4c0.9-0.3,1.7-0.7,2.4-1.2L114.4,146.7z M92.4,124.1c1,0,1.9-0.3,2.6-1c0.7-0.7,1-1.5,1-2.5c0-0.9-0.3-1.7-1-2.3
			s-1.5-0.9-2.6-0.9c-1,0-1.9,0.3-2.6,1c-0.7,0.6-1,1.4-1,2.4c0,1,0.3,1.8,1,2.4C90.5,123.7,91.4,124.1,92.4,124.1 M89.6,152h5.6
			v-24h-5.6V152z M75.9,127.7c-1.8,0-3.4,0.3-4.8,0.9c-1.4,0.6-2.6,1.4-3.5,2.5V128h-5.3v24h5.6v-12.1c0-2.3,0.6-4.1,1.8-5.4
			c1.2-1.2,2.8-1.9,4.9-1.9c1.8,0,3.2,0.5,4.2,1.6c1,1.1,1.5,2.6,1.5,4.7v13h5.6v-13.7c0-3.5-0.9-6.1-2.7-7.9
			C81.3,128.6,78.9,127.7,75.9,127.7 M45.9,146.1c-2.2,0-3.9-0.6-5.3-1.9c-1.4-1.3-2-2.9-2-5c0-2,0.7-3.6,2-4.9
			c1.4-1.3,3.1-1.9,5.3-1.9c2.1,0,3.9,0.6,5.2,1.9c1.4,1.3,2,2.9,2,4.9c0,2-0.7,3.7-2,5C49.8,145.5,48,146.1,45.9,146.1 M53.4,128
			v3.2c-1-1.2-2.1-2-3.6-2.6c-1.4-0.6-3-0.9-4.7-0.9c-2.3,0-4.3,0.5-6.2,1.4c-1.8,1-3.3,2.3-4.4,4.1c-1.1,1.8-1.6,3.8-1.6,6
			c0,2.3,0.5,4.3,1.6,6.1c1.1,1.8,2.5,3.1,4.4,4.1s3.9,1.5,6.2,1.5c1.6,0,3.2-0.3,4.5-0.8c1.4-0.5,2.5-1.3,3.5-2.4v1.3
			c0,2.5-0.6,4.3-1.8,5.5c-1.2,1.2-3.2,1.8-5.8,1.8c-1.6,0-3.3-0.3-4.9-0.8c-1.6-0.5-2.9-1.2-4-2.1l-2.5,4.2c1.3,1.1,3.1,2,5.1,2.5
			c2.1,0.6,4.2,0.9,6.6,0.9c8.6,0,12.9-4.2,12.9-12.7V128H53.4z M25,152h5.8v-31.4H25V152z"/>
		<path class="st5" d="M306.4,152.2c3.1,0,5.4-0.6,7.2-1.8c1.7-1.2,2.6-2.9,2.6-4.9c0-1.5-0.4-2.7-1.2-3.6c-0.8-0.9-1.8-1.5-2.9-1.8
			c-1.1-0.4-2.6-0.7-4.5-1.1c-1.5-0.3-2.7-0.5-3.6-0.8c-0.9-0.3-1.6-0.7-2.2-1.2c-0.6-0.5-0.9-1.3-0.9-2.2c0-1.2,0.5-2.1,1.5-2.8
			c1-0.7,2.6-1.1,4.6-1.1c2.7,0,5,0.7,7,2l1.4-2.6c-1-0.7-2.2-1.2-3.8-1.6c-1.5-0.4-3.1-0.6-4.6-0.6c-2.9,0-5.2,0.6-6.9,1.9
			s-2.5,2.9-2.5,4.8c0,1.6,0.4,2.8,1.2,3.7c0.8,0.9,1.8,1.5,3,1.9c1.2,0.4,2.7,0.7,4.6,1.1c1.4,0.2,2.6,0.5,3.5,0.7
			c0.9,0.3,1.6,0.6,2.2,1.1c0.6,0.5,0.9,1.2,0.9,2c0,1.2-0.5,2.2-1.5,2.9c-1,0.7-2.6,1-4.8,1c-1.6,0-3.2-0.2-4.7-0.7
			c-1.5-0.5-2.7-1.1-3.7-1.9l-1.4,2.5c1,0.8,2.4,1.5,4.1,2.1C302.6,151.9,304.5,152.2,306.4,152.2 M283.6,130.9
			c2.3,0,4.2,0.7,5.8,2.2c1.5,1.5,2.4,3.3,2.6,5.7h-16.7c0.2-2.3,1.1-4.2,2.6-5.7C279.4,131.6,281.3,130.9,283.6,130.9 M295,140.2
			c0-2.3-0.5-4.4-1.5-6.2c-1-1.8-2.3-3.2-4.1-4.2c-1.7-1-3.7-1.5-5.9-1.5c-2.2,0-4.2,0.5-5.9,1.5c-1.8,1-3.1,2.4-4.1,4.3
			c-1,1.8-1.5,3.9-1.5,6.2c0,2.3,0.5,4.4,1.6,6.2c1,1.8,2.5,3.3,4.4,4.3s4,1.5,6.4,1.5c1.9,0,3.6-0.3,5.2-1c1.6-0.7,2.9-1.6,3.9-2.9
			l-1.8-2.1c-0.9,1-2,1.8-3.2,2.3c-1.2,0.5-2.6,0.8-4,0.8c-2.6,0-4.8-0.8-6.5-2.3c-1.7-1.5-2.6-3.5-2.8-5.9H295L295,140.2z
			 M261.1,152.2c2,0,3.8-0.4,5.4-1.2c1.6-0.8,2.9-2,3.8-3.5l-2.4-1.6c-0.8,1.2-1.8,2-3,2.6c-1.2,0.6-2.5,0.9-3.9,0.9
			c-1.7,0-3.2-0.4-4.6-1.1c-1.4-0.8-2.4-1.8-3.2-3.2c-0.8-1.4-1.1-3-1.1-4.8c0-1.8,0.4-3.4,1.1-4.8c0.8-1.4,1.8-2.5,3.2-3.3
			c1.4-0.8,2.9-1.1,4.6-1.1c1.4,0,2.7,0.3,3.9,0.9c1.2,0.6,2.2,1.5,3,2.6l2.4-1.6c-0.9-1.5-2.2-2.7-3.8-3.5
			c-1.6-0.8-3.4-1.2-5.5-1.2c-2.3,0-4.4,0.5-6.3,1.5c-1.8,1-3.3,2.4-4.3,4.3c-1,1.8-1.6,3.9-1.6,6.2c0,2.3,0.5,4.4,1.6,6.2
			c1,1.8,2.5,3.3,4.3,4.3C256.6,151.7,258.7,152.2,261.1,152.2 M242.9,123.2c0.7,0,1.2-0.2,1.7-0.7c0.4-0.4,0.7-1,0.7-1.7
			c0-0.6-0.2-1.1-0.7-1.5c-0.4-0.4-1-0.7-1.7-0.7c-0.7,0-1.2,0.2-1.7,0.7c-0.4,0.4-0.7,1-0.7,1.6c0,0.6,0.2,1.2,0.7,1.6
			C241.7,123,242.2,123.2,242.9,123.2 M241.3,152h3.2v-23.6h-3.2V152z M235.3,128.4l-8.9,20.1l-8.8-20.1h-3.3l10.5,23.6h3.3
			l10.5-23.6H235.3z M203.8,133v-4.6h-3.1V152h3.2v-12c0-2.8,0.7-4.9,2.1-6.4c1.4-1.5,3.4-2.3,5.8-2.3l0.8,0v-3.1
			c-2.2,0-4,0.4-5.5,1.2C205.7,130.2,204.6,131.4,203.8,133 M184.9,130.9c2.3,0,4.2,0.7,5.8,2.2c1.5,1.5,2.4,3.3,2.6,5.7h-16.7
			c0.2-2.3,1.1-4.2,2.6-5.7C180.7,131.6,182.6,130.9,184.9,130.9 M196.3,140.2c0-2.3-0.5-4.4-1.5-6.2c-1-1.8-2.3-3.2-4.1-4.2
			c-1.7-1-3.7-1.5-5.9-1.5c-2.2,0-4.2,0.5-5.9,1.5c-1.8,1-3.1,2.4-4.1,4.3c-1,1.8-1.5,3.9-1.5,6.2c0,2.3,0.5,4.4,1.6,6.2
			c1,1.8,2.5,3.3,4.4,4.3s4,1.5,6.4,1.5c1.9,0,3.6-0.3,5.2-1c1.6-0.7,2.9-1.6,3.9-2.9l-1.8-2.1c-0.9,1-2,1.8-3.2,2.3
			c-1.2,0.5-2.6,0.8-4,0.8c-2.6,0-4.8-0.8-6.5-2.3c-1.7-1.5-2.6-3.5-2.8-5.9h19.8L196.3,140.2z M158.9,152.2c2.6,0,4.7-0.4,6.5-1.1
			c1.8-0.8,3.1-1.8,3.9-3.1c0.9-1.3,1.3-2.7,1.3-4.3c0-1.9-0.5-3.4-1.5-4.6c-1-1.1-2.2-2-3.6-2.5c-1.4-0.6-3.3-1.1-5.6-1.7
			c-1.9-0.5-3.5-0.9-4.6-1.3c-1.2-0.4-2.1-1-2.9-1.8c-0.8-0.8-1.1-1.8-1.1-3c0-1.7,0.7-3,2.1-4.1c1.4-1.1,3.5-1.6,6.2-1.6
			c1.4,0,2.9,0.2,4.4,0.7c1.5,0.4,2.9,1.1,4.2,2l1.1-2.6c-1.3-0.9-2.7-1.5-4.5-2c-1.7-0.5-3.5-0.7-5.3-0.7c-2.6,0-4.7,0.4-6.5,1.2
			c-1.7,0.8-3,1.8-3.9,3.1c-0.8,1.3-1.3,2.7-1.3,4.3c0,1.9,0.5,3.5,1.5,4.6c1,1.1,2.2,2,3.6,2.5c1.4,0.6,3.3,1.1,5.7,1.7
			c2,0.5,3.5,0.9,4.6,1.3c1.1,0.4,2,1,2.8,1.7c0.8,0.7,1.1,1.8,1.1,3c0,1.6-0.7,3-2.1,4c-1.4,1-3.5,1.5-6.3,1.5c-2,0-4-0.4-5.8-1.1
			c-1.9-0.7-3.4-1.6-4.5-2.8l-1.3,2.6c1.2,1.2,2.8,2.2,5,3C154.3,151.9,156.6,152.2,158.9,152.2"/>
	</g>
</g>
</svg>
