<svg xmlns="http://www.w3.org/2000/svg" xmlns:xlink="http://www.w3.org/1999/xlink" viewBox="0 0 141.2 48.2"><defs><path id="a" d="M0 0h141.7v48.2H0z"/></defs><clipPath id="b"><use xlink:href="#a" overflow="visible"/></clipPath><path d="M76.4 5.2c.6 0 1.1-.5 1.1-1 0-.6-.5-1-1.1-1s-1.1.5-1.1 1 .5 1 1.1 1" clip-path="url(#b)" fill="#18243f"/><defs><path id="c" d="M0 0h141.7v48.2H0z"/></defs><clipPath id="d"><use xlink:href="#c" overflow="visible"/></clipPath><path d="M65.4 5.2c.6 0 1.1-.5 1.1-1 0-.6-.5-1-1.1-1s-1.1.5-1.1 1 .5 1 1.1 1" clip-path="url(#d)" fill="#18243f"/><defs><path id="e" d="M0 0h141.7v48.2H0z"/></defs><clipPath id="f"><use xlink:href="#e" overflow="visible"/></clipPath><path d="M59.9 12.9c.6 0 1.1-.5 1.1-1 0-.6-.5-1-1.1-1s-1.1.5-1.1 1c0 .6.5 1 1.1 1" clip-path="url(#f)" fill="#18243f"/><defs><path id="g" d="M0 0h141.7v48.2H0z"/></defs><clipPath id="h"><use xlink:href="#g" overflow="visible"/></clipPath><path d="M70.9 23.8c.9 0 1.6-.7 1.6-1.6 0-.9-.7-1.6-1.6-1.6-.9 0-1.6.7-1.6 1.6-.1.9.6 1.6 1.6 1.6" clip-path="url(#h)" fill="#18243f"/><defs><path id="i" d="M0 0h141.7v48.2H0z"/></defs><clipPath id="j"><use xlink:href="#i" overflow="visible"/></clipPath><path d="M70.9 13.5c.9 0 1.6-.7 1.6-1.6s-.7-1.6-1.6-1.6c-.9 0-1.6.7-1.6 1.6s.6 1.6 1.6 1.6" clip-path="url(#j)" fill="#18243f"/><defs><path id="k" d="M0 0h141.7v48.2H0z"/></defs><clipPath id="l"><use xlink:href="#k" overflow="visible"/></clipPath><path d="M59.9 8.3c.9 0 1.6-.7 1.6-1.6s-.7-1.6-1.6-1.6-1.6.7-1.6 1.6.7 1.6 1.6 1.6" clip-path="url(#l)" fill="#18243f"/><defs><path id="m" d="M0 0h141.7v48.2H0z"/></defs><clipPath id="n"><use xlink:href="#m" overflow="visible"/></clipPath><path d="M59.9 18.6c.9 0 1.6-.7 1.6-1.6 0-.9-.7-1.6-1.6-1.6s-1.6.7-1.6 1.6c0 .9.7 1.6 1.6 1.6" clip-path="url(#n)" fill="#18243f"/><defs><path id="o" d="M0 0h141.7v48.2H0z"/></defs><clipPath id="p"><use xlink:href="#o" overflow="visible"/></clipPath><path d="M81.9 8.3c.9 0 1.6-.7 1.6-1.6s-.7-1.6-1.6-1.6c-.9 0-1.6.7-1.6 1.6s.6 1.6 1.6 1.6" clip-path="url(#p)" fill="#e9435e"/><defs><path id="q" d="M0 0h141.7v48.2H0z"/></defs><clipPath id="r"><use xlink:href="#q" overflow="visible"/></clipPath><path d="M81.9 18.6c.9 0 1.6-.7 1.6-1.6 0-.9-.7-1.6-1.6-1.6-.9 0-1.6.7-1.6 1.6-.1.9.6 1.6 1.6 1.6" clip-path="url(#r)" fill="#18243f"/><defs><path id="s" d="M0 0h141.7v48.2H0z"/></defs><clipPath id="t"><use xlink:href="#s" overflow="visible"/></clipPath><path d="M70.9 3.1c.9 0 1.6-.7 1.6-1.6S71.8 0 70.9 0c-.9 0-1.6.7-1.6 1.6s.6 1.5 1.6 1.5" clip-path="url(#t)" fill="#18243f"/><defs><path id="u" d="M0 0h141.7v48.2H0z"/></defs><clipPath id="v"><use xlink:href="#u" overflow="visible"/></clipPath><path d="M65.4 15.3c.5 0 .9-.4.9-.8 0-.5-.4-.8-.9-.8s-.9.4-.9.8c0 .5.4.8.9.8" clip-path="url(#v)" fill="#18243f"/><defs><path id="w" d="M0 0h141.7v48.2H0z"/></defs><clipPath id="x"><use xlink:href="#w" overflow="visible"/></clipPath><path d="M70.9 7.5c.5 0 .9-.4.9-.8 0-.5-.4-.8-.9-.8s-.9.4-.9.8c0 .5.4.8.9.8" clip-path="url(#x)" fill="#18243f"/><defs><path id="y" d="M0 0h141.7v48.2H0z"/></defs><clipPath id="z"><use xlink:href="#y" overflow="visible"/></clipPath><path d="M76.4 10.1c.5 0 .9-.4.9-.8s-.4-.8-.9-.8-.9.4-.9.8.4.8.9.8" clip-path="url(#z)" fill="#18243f"/><defs><path id="A" d="M0 0h141.7v48.2H0z"/></defs><clipPath id="B"><use xlink:href="#A" overflow="visible"/></clipPath><path d="M65.4 10.1c.5 0 .9-.4.9-.8s-.4-.8-.9-.8-.9.4-.9.8c0 .5.4.8.9.8" clip-path="url(#B)" fill="#18243f"/><defs><path id="C" d="M0 0h141.7v48.2H0z"/></defs><clipPath id="D"><use xlink:href="#C" overflow="visible"/></clipPath><path d="M81.9 12.9c.6 0 1.1-.5 1.1-1 0-.6-.5-1-1.1-1s-1.1.5-1.1 1c0 .6.4 1 1.1 1" clip-path="url(#D)" fill="#18243f"/><defs><path id="E" d="M0 0h141.7v48.2H0z"/></defs><clipPath id="F"><use xlink:href="#E" overflow="visible"/></clipPath><path d="M76.4 20.7c.6 0 1.1-.5 1.1-1s-.5-1-1.1-1-1.1.5-1.1 1 .5 1 1.1 1" clip-path="url(#F)" fill="#18243f"/><defs><path id="G" d="M0 0h141.7v48.2H0z"/></defs><clipPath id="H"><use xlink:href="#G" overflow="visible"/></clipPath><path d="M65.4 20.7c.6 0 1.1-.5 1.1-1s-.5-1-1.1-1-1.1.5-1.1 1 .5 1 1.1 1" clip-path="url(#H)" fill="#18243f"/><defs><path id="I" d="M0 0h141.7v48.2H0z"/></defs><clipPath id="J"><use xlink:href="#I" overflow="visible"/></clipPath><path d="M76.4 15.3c.5 0 .9-.4.9-.8 0-.5-.4-.8-.9-.8s-.9.4-.9.8c0 .5.4.8.9.8" clip-path="url(#J)" fill="#18243f"/><defs><path id="K" d="M0 0h141.7v48.2H0z"/></defs><clipPath id="L"><use xlink:href="#K" overflow="visible"/></clipPath><path d="M70.9 17.9c.5 0 .9-.4.9-.8s-.4-.8-.9-.8-.9.3-.9.8.4.8.9.8" clip-path="url(#L)" fill="#18243f"/><defs><path id="M" d="M0 0h141.7v48.2H0z"/></defs><clipPath id="N"><use xlink:href="#M" overflow="visible"/></clipPath><path d="M35.9 38.2c.6 0 1.2.2 1.6.6.4.4.7.9.8 1.5h-4.7c.1-.6.4-1.1.8-1.5.4-.5.9-.6 1.5-.6m4.2 2.7c0-.9-.2-1.6-.5-2.3-.4-.6-.9-1.2-1.5-1.5-.6-.4-1.3-.5-2.2-.5s-1.6.2-2.2.5c-.6.4-1.2.9-1.5 1.5-.4.6-.6 1.4-.6 2.2s.2 1.6.6 2.2c.4.6.9 1.2 1.6 1.5.7.4 1.5.5 2.4.5.7 0 1.3-.1 1.9-.4.6-.2 1-.6 1.4-1l-1-1.2c-.6.6-1.3.9-2.3.9-.7 0-1.3-.2-1.8-.5-.5-.4-.8-.9-.9-1.5H40c.1-.1.1-.3.1-.4M31 43.2c-.3.2-.6.4-1.1.4-.4 0-.7-.1-.9-.3-.2-.2-.3-.5-.3-.9v-4H31v-1.6h-2.2v-1.9h-1.9v1.9h-1.4v1.6h1.4v4c0 .9.2 1.6.7 2.1.5.5 1.2.7 2.1.7.4 0 .7 0 1-.1.3-.1.6-.2.9-.4l-.6-1.5zm-7.6-7.9c.4 0 .7-.1.9-.4.2-.2.4-.5.4-.9 0-.3-.1-.6-.4-.8-.3-.1-.6-.2-.9-.2-.4 0-.6.1-.9.3s-.4.5-.4.9.1.6.4.8c.2.2.5.3.9.3m-1 9.7h1.9v-8.3h-1.9V45zm-4.8-8.4c-.6 0-1.2.1-1.7.3-.5.2-.9.5-1.2.9v-1.1h-1.8V45h1.9v-4.2c0-.8.2-1.4.6-1.9.4-.4 1-.6 1.7-.6.6 0 1.1.2 1.5.6.4.4.5.9.5 1.6V45H21v-4.7c0-1.2-.3-2.1-1-2.7-.5-.7-1.3-1-2.4-1M7.3 43c-.7 0-1.3-.2-1.8-.7-.5-.4-.7-1-.7-1.7s.2-1.3.7-1.7c.5-.4 1.1-.6 1.8-.6s1.3.2 1.8.6c.5.4.7 1 .7 1.7s-.2 1.3-.7 1.7c-.5.5-1.1.7-1.8.7m2.6-6.3v1.1c-.3-.4-.7-.7-1.2-.9-.5-.2-1-.3-1.6-.3-.8 0-1.5.2-2.1.5-.6.3-1.1.8-1.5 1.4-.4.6-.6 1.3-.6 2.1s.2 1.5.6 2.1c.4.6.9 1.1 1.5 1.4.6.4 1.3.5 2.1.5.6 0 1.1-.1 1.6-.3s.9-.5 1.2-.8v.5c0 .9-.2 1.5-.6 1.9-.4.4-1.1.6-2 .6-.6 0-1.1-.1-1.7-.3s-1-.4-1.4-.7L3.1 47c.5.4 1.1.7 1.8.9s1.5.3 2.3.3c3 0 4.5-1.5 4.5-4.4v-7.1H9.9zM0 45h2V34.1H0V45z" clip-path="url(#N)" fill="#18243f"/><defs><path id="O" d="M0 0h141.7v48.2H0z"/></defs><clipPath id="P"><use xlink:href="#O" overflow="visible"/></clipPath><path d="M141.2 43.2c-.3.2-.6.4-1.1.4-.4 0-.7-.1-.9-.3-.2-.2-.3-.5-.3-.9v-4h2.2v-1.6H139v-1.9h-2v1.9h-1.4v1.6h1.4v4c0 .9.2 1.6.7 2.1.5.5 1.2.7 2.1.7.4 0 .7 0 1-.1.3-.1.6-.2.9-.4l-.5-1.5zm-9.5-6.6c-.6 0-1.2.1-1.7.3-.5.2-.9.5-1.2.9v-1.1H127V45h1.9v-4.2c0-.8.2-1.4.6-1.9.4-.4 1-.6 1.7-.6.6 0 1.1.2 1.5.6.4.4.5.9.5 1.6V45h1.9v-4.7c0-1.2-.3-2.1-1-2.7-.5-.7-1.4-1-2.4-1m-10.2 1.6c.6 0 1.2.2 1.6.6.4.4.7.9.8 1.5h-4.7c.1-.6.4-1.1.8-1.5.4-.5.9-.6 1.5-.6m4.2 2.7c0-.9-.2-1.6-.5-2.3-.4-.6-.9-1.2-1.5-1.5-.6-.4-1.3-.5-2.2-.5-.8 0-1.6.2-2.2.5-.6.4-1.2.9-1.5 1.5-.4.6-.6 1.4-.6 2.2s.2 1.6.6 2.2c.4.6.9 1.2 1.6 1.5.7.4 1.5.5 2.4.5.7 0 1.3-.1 1.9-.4.6-.2 1-.6 1.4-1l-1-1.2c-.6.6-1.3.9-2.3.9-.7 0-1.3-.2-1.8-.5-.5-.4-.8-.9-.9-1.5h6.5c.1-.1.1-.3.1-.4m-13.1-4.3c-.6 0-1.2.1-1.8.4-.5.2-1 .6-1.3 1-.3-.5-.7-.8-1.1-1-.5-.2-1-.4-1.7-.4-.6 0-1.1.1-1.6.3-.5.2-.9.5-1.2.9v-1.1h-1.8V45h1.9v-4.2c0-.8.2-1.4.6-1.8.4-.4.9-.6 1.6-.6.6 0 1.1.2 1.4.6.3.4.5.9.5 1.6V45h1.9v-4.2c0-.8.2-1.4.6-1.8.4-.4.9-.6 1.6-.6.6 0 1.1.2 1.4.6.3.4.5.9.5 1.6V45h1.9v-4.7c0-1.2-.3-2.1-.9-2.7-.6-.7-1.5-1-2.5-1m-16 1.6c.6 0 1.2.2 1.6.6s.7.9.8 1.5h-4.7c.1-.6.4-1.1.8-1.5.4-.5.9-.6 1.5-.6m4.2 2.7c0-.9-.2-1.6-.5-2.3-.4-.6-.9-1.2-1.5-1.5-.6-.4-1.3-.5-2.2-.5-.8 0-1.6.2-2.2.5-.6.4-1.2.9-1.5 1.5-.4.6-.6 1.4-.6 2.2s.2 1.6.6 2.2c.4.6.9 1.2 1.6 1.5.7.4 1.5.5 2.4.5.7 0 1.3-.1 1.9-.4.6-.2 1-.6 1.4-1l-1-1.2c-.6.6-1.3.9-2.3.9-.7 0-1.3-.2-1.8-.5-.5-.4-.8-.9-.9-1.5h6.5c.1-.1.1-.3.1-.4m-12.1-3v-1.2h-1.8V45h1.9v-4c0-.8.2-1.5.6-1.9.4-.4 1-.7 1.8-.7h.5v-1.8c-1.4 0-2.4.5-3 1.3m-5-1.2v4.2c0 .8-.2 1.4-.6 1.9-.4.5-1 .6-1.7.6-.6 0-1.1-.2-1.5-.6-.4-.4-.5-.9-.5-1.7v-4.5h-1.9v4.7c0 1.2.3 2.1 1 2.8.6.6 1.5.9 2.6.9.5 0 1-.1 1.5-.3.5-.2.9-.5 1.2-.9V45h1.8v-8.3h-1.9zm-11 8.4c.8 0 1.5-.2 2.1-.5.6-.4 1.1-.8 1.4-1.5l-1.5-.9c-.2.4-.5.7-.9.9-.4.2-.7.3-1.2.3-.7 0-1.3-.2-1.8-.7-.5-.5-.7-1.1-.7-1.9 0-.8.2-1.4.7-1.9.5-.5 1.1-.7 1.8-.7.4 0 .8.1 1.2.3.4.2.7.5.9.9l1.5-.9c-.3-.6-.8-1.1-1.4-1.4-.6-.3-1.3-.5-2.2-.5-.9 0-1.7.2-2.3.5-.7.4-1.2.9-1.6 1.5-.4.6-.6 1.4-.6 2.2 0 .8.2 1.6.6 2.2.4.6.9 1.2 1.6 1.5.8.5 1.6.6 2.4.6m-9.4-1.6c-.7 0-1.3-.2-1.8-.7-.5-.5-.7-1.1-.7-1.9 0-.8.2-1.4.7-1.9.5-.5 1.1-.7 1.8-.7s1.3.2 1.8.7c.5.5.7 1.1.7 1.9 0 .8-.2 1.4-.7 1.9s-1.1.7-1.8.7m0 1.6c.9 0 1.6-.2 2.3-.5.7-.4 1.2-.9 1.6-1.5.4-.6.6-1.4.6-2.2 0-.8-.2-1.6-.6-2.2-.4-.6-.9-1.1-1.6-1.5-.7-.4-1.5-.5-2.3-.5s-1.6.2-2.3.5c-.7.4-1.2.9-1.6 1.5-.4.6-.6 1.4-.6 2.2 0 .8.2 1.6.6 2.2.4.6.9 1.2 1.6 1.5.7.4 1.4.5 2.3.5m-8.1-7.2v-1.2h-1.8V45h1.9v-4c0-.8.2-1.5.6-1.9.4-.4 1-.7 1.8-.7h.5v-1.8c-1.4 0-2.4.5-3 1.3m-7.7 2.2h-2.4v-4.3h2.4c.9 0 1.6.2 2 .6s.7.9.7 1.6c0 .7-.2 1.2-.7 1.6-.4.4-1.1.5-2 .5m.1-6h-4.5V45h2v-3.2h2.4c1 0 1.8-.1 2.5-.5.7-.3 1.2-.7 1.6-1.3.4-.6.6-1.3.6-2.1s-.2-1.5-.6-2.1c-.4-.6-.9-1-1.6-1.3-.6-.2-1.5-.4-2.4-.4" clip-path="url(#P)" fill="#18243f"/><defs><path id="Q" d="M0 0h141.7v48.2H0z"/></defs><clipPath id="R"><use xlink:href="#Q" overflow="visible"/></clipPath><path d="M23.4 36c.9 0 1.6-.7 1.6-1.6 0-.9-.7-1.6-1.6-1.6-.9 0-1.6.7-1.6 1.6-.1.9.7 1.6 1.6 1.6" clip-path="url(#R)" fill="#e9435e"/></svg>