<?xml version="1.0" encoding="utf-8"?>
<!-- Generator: Adobe Illustrator 23.0.1, SVG Export Plug-In . SVG Version: 6.00 Build 0)  -->
<svg version="1.1" id="Layer_1" xmlns="http://www.w3.org/2000/svg" xmlns:xlink="http://www.w3.org/1999/xlink" x="0px" y="0px"
	 viewBox="0 0 401 95" style="enable-background:new 0 0 401 95;" xml:space="preserve">
<style type="text/css">
	.st0{clip-path:url(#SVGID_2_);fill:#18243F;}
	.st1{clip-path:url(#SVGID_4_);fill:#18243F;}
	.st2{clip-path:url(#SVGID_6_);fill:#18243F;}
	.st3{clip-path:url(#SVGID_8_);fill:#18243F;}
	.st4{clip-path:url(#SVGID_10_);fill:#18243F;}
	.st5{clip-path:url(#SVGID_12_);fill:#18243F;}
	.st6{clip-path:url(#SVGID_14_);fill:#18243F;}
	.st7{clip-path:url(#SVGID_16_);fill:#E9435E;}
	.st8{clip-path:url(#SVGID_18_);fill:#18243F;}
	.st9{clip-path:url(#SVGID_20_);fill:#18243F;}
	.st10{clip-path:url(#SVGID_22_);fill:#18243F;}
	.st11{clip-path:url(#SVGID_24_);fill:#18243F;}
	.st12{clip-path:url(#SVGID_26_);fill:#18243F;}
	.st13{clip-path:url(#SVGID_28_);fill:#18243F;}
	.st14{clip-path:url(#SVGID_30_);fill:#18243F;}
	.st15{clip-path:url(#SVGID_32_);fill:#18243F;}
	.st16{clip-path:url(#SVGID_34_);fill:#18243F;}
	.st17{clip-path:url(#SVGID_36_);fill:#18243F;}
	.st18{clip-path:url(#SVGID_38_);fill:#18243F;}
	.st19{clip-path:url(#SVGID_40_);fill:#18243F;}
	.st20{clip-path:url(#SVGID_42_);fill:#18243F;}
	.st21{clip-path:url(#SVGID_44_);fill:#E9435E;}
</style>
<g>
	<g>
		<defs>
			<rect id="SVGID_1_" x="25" y="23.9" width="350" height="47.1"/>
		</defs>
		<clipPath id="SVGID_2_">
			<use xlink:href="#SVGID_1_"  style="overflow:visible;"/>
		</clipPath>
		<path class="st0" d="M60.8,34.2c1.2,0,2.2-0.9,2.2-2c0-1.1-1-2-2.2-2s-2.2,0.9-2.2,2C58.6,33.2,59.6,34.2,60.8,34.2"/>
	</g>
	<g>
		<defs>
			<rect id="SVGID_3_" x="25" y="23.9" width="350" height="47.1"/>
		</defs>
		<clipPath id="SVGID_4_">
			<use xlink:href="#SVGID_3_"  style="overflow:visible;"/>
		</clipPath>
		<path class="st1" d="M39.1,34.2c1.2,0,2.2-0.9,2.2-2c0-1.1-1-2-2.2-2s-2.2,0.9-2.2,2C36.9,33.2,37.9,34.2,39.1,34.2"/>
	</g>
	<g>
		<defs>
			<rect id="SVGID_5_" x="25" y="23.9" width="350" height="47.1"/>
		</defs>
		<clipPath id="SVGID_6_">
			<use xlink:href="#SVGID_5_"  style="overflow:visible;"/>
		</clipPath>
		<path class="st2" d="M28.3,49.5c1.2,0,2.2-0.9,2.2-2s-1-2-2.2-2s-2.2,0.9-2.2,2C26.1,48.6,27.1,49.5,28.3,49.5"/>
	</g>
	<g>
		<defs>
			<rect id="SVGID_7_" x="25" y="23.9" width="350" height="47.1"/>
		</defs>
		<clipPath id="SVGID_8_">
			<use xlink:href="#SVGID_7_"  style="overflow:visible;"/>
		</clipPath>
		<path class="st3" d="M49.9,71c1.8,0,3.2-1.4,3.2-3.1s-1.5-3.1-3.2-3.1s-3.2,1.4-3.2,3.1S48.1,71,49.9,71"/>
	</g>
	<g>
		<defs>
			<rect id="SVGID_9_" x="25" y="23.9" width="350" height="47.1"/>
		</defs>
		<clipPath id="SVGID_10_">
			<use xlink:href="#SVGID_9_"  style="overflow:visible;"/>
		</clipPath>
		<path class="st4" d="M49.9,50.5c1.8,0,3.2-1.4,3.2-3.1s-1.5-3.1-3.2-3.1s-3.2,1.4-3.2,3.1S48.1,50.5,49.9,50.5"/>
	</g>
	<g>
		<defs>
			<rect id="SVGID_11_" x="25" y="23.9" width="350" height="47.1"/>
		</defs>
		<clipPath id="SVGID_12_">
			<use xlink:href="#SVGID_11_"  style="overflow:visible;"/>
		</clipPath>
		<path class="st5" d="M28.3,40.3c1.8,0,3.2-1.4,3.2-3.1s-1.5-3.1-3.2-3.1S25,35.5,25,37.2S26.5,40.3,28.3,40.3"/>
	</g>
	<g>
		<defs>
			<rect id="SVGID_13_" x="25" y="23.9" width="350" height="47.1"/>
		</defs>
		<clipPath id="SVGID_14_">
			<use xlink:href="#SVGID_13_"  style="overflow:visible;"/>
		</clipPath>
		<path class="st6" d="M28.3,60.8c1.8,0,3.2-1.4,3.2-3.1s-1.5-3.1-3.2-3.1S25,56,25,57.7S26.5,60.8,28.3,60.8"/>
	</g>
	<g>
		<defs>
			<rect id="SVGID_15_" x="25" y="23.9" width="350" height="47.1"/>
		</defs>
		<clipPath id="SVGID_16_">
			<use xlink:href="#SVGID_15_"  style="overflow:visible;"/>
		</clipPath>
		<path class="st7" d="M71.6,40.3c1.8,0,3.3-1.4,3.3-3.1s-1.5-3.1-3.3-3.1s-3.2,1.4-3.2,3.1S69.8,40.3,71.6,40.3"/>
	</g>
	<g>
		<defs>
			<rect id="SVGID_17_" x="25" y="23.9" width="350" height="47.1"/>
		</defs>
		<clipPath id="SVGID_18_">
			<use xlink:href="#SVGID_17_"  style="overflow:visible;"/>
		</clipPath>
		<path class="st8" d="M71.6,60.8c1.8,0,3.3-1.4,3.3-3.1s-1.5-3.1-3.3-3.1s-3.2,1.4-3.2,3.1S69.8,60.8,71.6,60.8"/>
	</g>
	<g>
		<defs>
			<rect id="SVGID_19_" x="25" y="23.9" width="350" height="47.1"/>
		</defs>
		<clipPath id="SVGID_20_">
			<use xlink:href="#SVGID_19_"  style="overflow:visible;"/>
		</clipPath>
		<path class="st9" d="M49.9,30.1c1.8,0,3.2-1.4,3.2-3.1s-1.5-3.1-3.2-3.1s-3.2,1.4-3.2,3.1S48.1,30.1,49.9,30.1"/>
	</g>
	<g>
		<defs>
			<rect id="SVGID_21_" x="25" y="23.9" width="350" height="47.1"/>
		</defs>
		<clipPath id="SVGID_22_">
			<use xlink:href="#SVGID_21_"  style="overflow:visible;"/>
		</clipPath>
		<path class="st10" d="M39.1,54.2c1,0,1.7-0.7,1.7-1.6c0-0.9-0.8-1.6-1.7-1.6c-1,0-1.7,0.7-1.7,1.6C37.4,53.5,38.1,54.2,39.1,54.2"
			/>
	</g>
	<g>
		<defs>
			<rect id="SVGID_23_" x="25" y="23.9" width="350" height="47.1"/>
		</defs>
		<clipPath id="SVGID_24_">
			<use xlink:href="#SVGID_23_"  style="overflow:visible;"/>
		</clipPath>
		<path class="st11" d="M49.9,38.9c1,0,1.7-0.7,1.7-1.6c0-0.9-0.8-1.6-1.7-1.6s-1.7,0.7-1.7,1.6C48.2,38.1,49,38.9,49.9,38.9"/>
	</g>
	<g>
		<defs>
			<rect id="SVGID_25_" x="25" y="23.9" width="350" height="47.1"/>
		</defs>
		<clipPath id="SVGID_26_">
			<use xlink:href="#SVGID_25_"  style="overflow:visible;"/>
		</clipPath>
		<path class="st12" d="M60.8,44c1,0,1.7-0.7,1.7-1.6c0-0.9-0.8-1.6-1.7-1.6c-1,0-1.7,0.7-1.7,1.6C59,43.2,59.8,44,60.8,44"/>
	</g>
	<g>
		<defs>
			<rect id="SVGID_27_" x="25" y="23.9" width="350" height="47.1"/>
		</defs>
		<clipPath id="SVGID_28_">
			<use xlink:href="#SVGID_27_"  style="overflow:visible;"/>
		</clipPath>
		<path class="st13" d="M39.1,44c1,0,1.7-0.7,1.7-1.6c0-0.9-0.8-1.6-1.7-1.6c-1,0-1.7,0.7-1.7,1.6C37.4,43.2,38.1,44,39.1,44"/>
	</g>
	<g>
		<defs>
			<rect id="SVGID_29_" x="25" y="23.9" width="350" height="47.1"/>
		</defs>
		<clipPath id="SVGID_30_">
			<use xlink:href="#SVGID_29_"  style="overflow:visible;"/>
		</clipPath>
		<path class="st14" d="M71.6,49.5c1.2,0,2.2-0.9,2.2-2s-1-2-2.2-2s-2.2,0.9-2.2,2S70.4,49.5,71.6,49.5"/>
	</g>
	<g>
		<defs>
			<rect id="SVGID_31_" x="25" y="23.9" width="350" height="47.1"/>
		</defs>
		<clipPath id="SVGID_32_">
			<use xlink:href="#SVGID_31_"  style="overflow:visible;"/>
		</clipPath>
		<path class="st15" d="M60.8,64.9c1.2,0,2.2-0.9,2.2-2s-1-2-2.2-2s-2.2,0.9-2.2,2C58.6,63.9,59.6,64.9,60.8,64.9"/>
	</g>
	<g>
		<defs>
			<rect id="SVGID_33_" x="25" y="23.9" width="350" height="47.1"/>
		</defs>
		<clipPath id="SVGID_34_">
			<use xlink:href="#SVGID_33_"  style="overflow:visible;"/>
		</clipPath>
		<path class="st16" d="M39.1,64.9c1.2,0,2.2-0.9,2.2-2s-1-2-2.2-2s-2.2,0.9-2.2,2C36.9,63.9,37.9,64.9,39.1,64.9"/>
	</g>
	<g>
		<defs>
			<rect id="SVGID_35_" x="25" y="23.9" width="350" height="47.1"/>
		</defs>
		<clipPath id="SVGID_36_">
			<use xlink:href="#SVGID_35_"  style="overflow:visible;"/>
		</clipPath>
		<path class="st17" d="M60.8,54.2c1,0,1.7-0.7,1.7-1.6c0-0.9-0.8-1.6-1.7-1.6c-1,0-1.7,0.7-1.7,1.6C59,53.5,59.8,54.2,60.8,54.2"/>
	</g>
	<g>
		<defs>
			<rect id="SVGID_37_" x="25" y="23.9" width="350" height="47.1"/>
		</defs>
		<clipPath id="SVGID_38_">
			<use xlink:href="#SVGID_37_"  style="overflow:visible;"/>
		</clipPath>
		<path class="st18" d="M49.9,59.3c1,0,1.7-0.7,1.7-1.6c0-0.9-0.8-1.6-1.7-1.6c-1,0-1.7,0.7-1.7,1.6S49,59.3,49.9,59.3"/>
	</g>
	<g>
		<defs>
			<rect id="SVGID_39_" x="25" y="23.9" width="350" height="47.1"/>
		</defs>
		<clipPath id="SVGID_40_">
			<use xlink:href="#SVGID_39_"  style="overflow:visible;"/>
		</clipPath>
		<path class="st19" d="M166,44.6c1.3,0,2.3,0.4,3.1,1.1c0.8,0.7,1.3,1.7,1.5,2.9h-9.3c0.2-1.2,0.7-2.2,1.6-2.9
			C163.7,44.9,164.7,44.6,166,44.6 M174.3,50c0-1.7-0.4-3.2-1.1-4.4c-0.7-1.3-1.7-2.3-3-3s-2.7-1.1-4.3-1.1s-3.1,0.4-4.4,1.1
			c-1.3,0.7-2.3,1.7-3,3s-1.1,2.7-1.1,4.3s0.4,3.1,1.1,4.4c0.7,1.3,1.8,2.3,3.2,3s3,1.1,4.8,1.1c1.4,0,2.7-0.2,3.8-0.7
			s2.1-1.1,2.8-2l-2.1-2.4c-1.2,1.2-2.7,1.8-4.5,1.8c-1.4,0-2.6-0.4-3.6-1.1c-1-0.7-1.5-1.7-1.8-2.9H174
			C174.3,50.6,174.3,50.3,174.3,50 M156.3,54.5c-0.6,0.5-1.3,0.7-2.2,0.7c-0.7,0-1.3-0.2-1.7-0.6c-0.4-0.4-0.6-1-0.6-1.8V45h4.4
			v-3.1h-4.4v-3.8H148v3.8h-2.7V45h2.7v7.9c0,1.8,0.5,3.2,1.5,4.1c1,0.9,2.4,1.4,4.2,1.4c0.7,0,1.4-0.1,2-0.3s1.2-0.5,1.6-0.8
			L156.3,54.5z M141.2,39c0.7,0,1.3-0.2,1.8-0.7s0.7-1,0.7-1.7c0-0.6-0.2-1.2-0.7-1.6c-0.5-0.4-1.1-0.6-1.8-0.6s-1.3,0.2-1.8,0.7
			c-0.5,0.4-0.7,1-0.7,1.6c0,0.7,0.2,1.2,0.7,1.6C139.9,38.8,140.5,39,141.2,39 M139.3,58.1h3.8V41.7h-3.8V58.1z M129.9,41.5
			c-1.2,0-2.3,0.2-3.3,0.6c-1,0.4-1.8,1-2.4,1.7v-2.1h-3.7v16.4h3.8v-8.3c0-1.6,0.4-2.8,1.2-3.7c0.8-0.9,1.9-1.3,3.4-1.3
			c1.2,0,2.2,0.4,2.9,1.1c0.7,0.7,1,1.8,1,3.2V58h3.8v-9.4c0-2.4-0.6-4.2-1.9-5.4C133.6,42.1,132,41.5,129.9,41.5 M109.4,54.1
			c-1.5,0-2.7-0.4-3.6-1.3c-0.9-0.9-1.4-2-1.4-3.4s0.5-2.5,1.4-3.4s2.1-1.3,3.6-1.3s2.7,0.4,3.6,1.3c0.9,0.9,1.4,2,1.4,3.4
			s-0.5,2.5-1.4,3.4C112,53.7,110.8,54.1,109.4,54.1 M114.5,41.7v2.2c-0.7-0.8-1.5-1.4-2.4-1.8c-1-0.4-2.1-0.6-3.2-0.6
			c-1.6,0-3,0.3-4.2,1c-1.3,0.7-2.3,1.6-3,2.8s-1.1,2.6-1.1,4.1c0,1.6,0.4,2.9,1.1,4.2c0.7,1.2,1.7,2.1,3,2.8s2.7,1,4.2,1
			c1.1,0,2.2-0.2,3.1-0.6c0.9-0.4,1.7-0.9,2.4-1.6v0.9c0,1.7-0.4,2.9-1.3,3.8c-0.8,0.8-2.2,1.2-4,1.2c-1.1,0-2.2-0.2-3.3-0.5
			c-1.1-0.4-2-0.8-2.7-1.4l-1.7,2.9c0.9,0.8,2.1,1.3,3.5,1.7c1.4,0.4,2.9,0.6,4.5,0.6c5.9,0,8.9-2.9,8.9-8.7v-14H114.5z M95.1,58.1
			h4V36.6h-4V58.1z"/>
	</g>
	<g>
		<defs>
			<rect id="SVGID_41_" x="25" y="23.9" width="350" height="47.1"/>
		</defs>
		<clipPath id="SVGID_42_">
			<use xlink:href="#SVGID_41_"  style="overflow:visible;"/>
		</clipPath>
		<path class="st20" d="M374,54.5c-0.6,0.5-1.3,0.7-2.2,0.7c-0.7,0-1.3-0.2-1.7-0.6c-0.4-0.4-0.6-1-0.6-1.8V45h4.4v-3.1h-4.4v-3.8
			h-3.8v3.8H363V45h2.7v7.9c0,1.8,0.5,3.2,1.5,4.1c1,0.9,2.4,1.4,4.2,1.4c0.7,0,1.4-0.1,2-0.3s1.2-0.5,1.6-0.8L374,54.5z
			 M355.2,41.5c-1.2,0-2.3,0.2-3.3,0.6c-1,0.4-1.8,1-2.4,1.7v-2.1h-3.7v16.4h3.8v-8.3c0-1.6,0.4-2.8,1.2-3.7
			c0.8-0.9,1.9-1.3,3.4-1.3c1.2,0,2.2,0.4,2.9,1.1c0.7,0.7,1,1.8,1,3.2V58h3.8v-9.4c0-2.4-0.6-4.2-1.9-5.4
			C359,42.1,357.3,41.5,355.2,41.5 M335.1,44.6c1.3,0,2.3,0.4,3.1,1.1c0.8,0.7,1.3,1.7,1.5,2.9h-9.3c0.2-1.2,0.7-2.2,1.6-2.9
			C332.8,44.9,333.9,44.6,335.1,44.6 M343.4,50c0-1.7-0.4-3.2-1.1-4.4c-0.7-1.3-1.7-2.3-3-3s-2.7-1.1-4.3-1.1
			c-1.6,0-3.1,0.4-4.4,1.1c-1.3,0.7-2.3,1.7-3,3s-1.1,2.7-1.1,4.3s0.4,3.1,1.1,4.4c0.7,1.3,1.8,2.3,3.2,3c1.4,0.7,3,1.1,4.8,1.1
			c1.4,0,2.7-0.2,3.8-0.7c1.1-0.4,2.1-1.1,2.8-2l-2.1-2.4c-1.2,1.2-2.7,1.8-4.5,1.8c-1.4,0-2.6-0.4-3.6-1.1c-1-0.7-1.5-1.7-1.8-2.9
			h12.9C343.4,50.6,343.4,50.3,343.4,50 M317.5,41.5c-1.3,0-2.5,0.2-3.5,0.7c-1.1,0.5-1.9,1.2-2.6,2c-0.6-0.9-1.3-1.6-2.3-2
			c-1-0.5-2-0.7-3.3-0.7c-1.1,0-2.2,0.2-3.1,0.6c-0.9,0.4-1.7,1-2.3,1.7v-2.1h-3.7v16.4h3.8v-8.3c0-1.6,0.4-2.8,1.2-3.7
			c0.8-0.8,1.8-1.3,3.1-1.3c1.2,0,2.1,0.4,2.7,1.1c0.6,0.7,1,1.8,1,3.2V58h3.8v-8.3c0-1.6,0.4-2.8,1.2-3.6c0.8-0.9,1.8-1.3,3.1-1.3
			c1.2,0,2.1,0.4,2.7,1.1c0.6,0.7,1,1.8,1,3.2V58h3.8v-9.4c0-2.4-0.6-4.2-1.8-5.4C321.2,42.1,319.6,41.5,317.5,41.5 M286,44.6
			c1.2,0,2.3,0.4,3.1,1.1c0.8,0.7,1.3,1.7,1.5,2.9h-9.3c0.2-1.2,0.7-2.2,1.6-2.9C283.7,44.9,284.7,44.6,286,44.6 M294.3,50
			c0-1.7-0.4-3.2-1.1-4.4c-0.7-1.3-1.7-2.3-3-3s-2.7-1.1-4.3-1.1c-1.6,0-3.1,0.4-4.4,1.1c-1.3,0.7-2.3,1.7-3,3s-1.1,2.7-1.1,4.3
			s0.4,3.1,1.1,4.4c0.7,1.3,1.8,2.3,3.2,3c1.4,0.7,3,1.1,4.8,1.1c1.4,0,2.7-0.2,3.8-0.7c1.1-0.4,2.1-1.1,2.8-2l-2.1-2.4
			c-1.2,1.2-2.7,1.8-4.5,1.8c-1.4,0-2.6-0.4-3.6-1.1c-1-0.7-1.5-1.7-1.8-2.9H294C294.2,50.6,294.3,50.3,294.3,50 M270.4,44.1v-2.4
			h-3.7v16.4h3.8v-8c0-1.6,0.4-2.9,1.3-3.8c0.8-0.9,2-1.3,3.5-1.3c0.3,0,0.6,0,0.9,0.1v-3.7C273.4,41.5,271.5,42.4,270.4,44.1
			 M260.4,41.7V50c0,1.6-0.4,2.8-1.2,3.7c-0.8,0.9-1.9,1.3-3.3,1.3c-1.2,0-2.2-0.4-2.8-1.1c-0.7-0.7-1-1.8-1-3.3v-8.9h-3.8v9.4
			c0,2.4,0.6,4.2,1.9,5.4s3,1.8,5.2,1.8c1.1,0,2.1-0.2,3-0.6c0.9-0.4,1.7-1,2.3-1.7v2.1h3.7V41.7H260.4z M238.8,58.3
			c1.6,0,3-0.3,4.2-1s2.1-1.6,2.8-2.8l-3-1.7c-0.5,0.8-1.1,1.3-1.8,1.7s-1.5,0.6-2.3,0.6c-1.5,0-2.7-0.5-3.6-1.4
			c-0.9-0.9-1.4-2.2-1.4-3.7c0-1.6,0.5-2.8,1.4-3.7s2.1-1.4,3.6-1.4c0.8,0,1.6,0.2,2.3,0.6c0.7,0.4,1.3,0.9,1.8,1.7l3-1.7
			c-0.6-1.2-1.5-2.2-2.8-2.8c-1.2-0.7-2.6-1-4.3-1s-3.3,0.4-4.6,1.1c-1.3,0.7-2.4,1.7-3.2,3s-1.1,2.7-1.1,4.3s0.4,3.1,1.1,4.4
			c0.8,1.3,1.8,2.3,3.2,3C235.5,58,237.1,58.3,238.8,58.3 M220,55c-1.4,0-2.6-0.5-3.5-1.4s-1.4-2.2-1.4-3.7s0.5-2.8,1.4-3.7
			s2.1-1.4,3.5-1.4s2.6,0.5,3.5,1.4s1.4,2.2,1.4,3.7s-0.5,2.8-1.4,3.7S221.5,55,220,55 M220,58.3c1.7,0,3.2-0.4,4.5-1.1
			c1.3-0.7,2.4-1.7,3.1-3c0.7-1.3,1.1-2.7,1.1-4.4c0-1.6-0.4-3.1-1.1-4.3c-0.7-1.3-1.8-2.3-3.1-3s-2.8-1.1-4.5-1.1s-3.2,0.4-4.5,1.1
			c-1.3,0.7-2.4,1.7-3.1,3c-0.7,1.3-1.1,2.7-1.1,4.3s0.4,3.1,1.1,4.4c0.7,1.3,1.8,2.3,3.1,3C216.9,58,218.4,58.3,220,58.3
			 M204.2,44.1v-2.4h-3.7v16.4h3.8v-8c0-1.6,0.4-2.9,1.3-3.8c0.8-0.9,2-1.3,3.5-1.3c0.3,0,0.6,0,0.9,0.1v-3.7
			C207.3,41.5,205.3,42.4,204.2,44.1 M188.9,48.5h-4.7V40h4.7c1.7,0,3.1,0.4,4,1.1c0.9,0.7,1.4,1.8,1.4,3.2s-0.5,2.4-1.4,3.2
			C192,48.1,190.7,48.5,188.9,48.5 M189.1,36.6h-8.9v21.5h4v-6.2h4.9c1.9,0,3.5-0.3,4.9-0.9c1.4-0.6,2.4-1.5,3.2-2.7
			c0.7-1.2,1.1-2.5,1.1-4.1s-0.4-2.9-1.1-4.1c-0.7-1.1-1.8-2-3.2-2.6S191,36.6,189.1,36.6"/>
	</g>
	<g>
		<defs>
			<rect id="SVGID_43_" x="25" y="23.9" width="350" height="47.1"/>
		</defs>
		<clipPath id="SVGID_44_">
			<use xlink:href="#SVGID_43_"  style="overflow:visible;"/>
		</clipPath>
		<path class="st21" d="M141.2,40.2c1.8,0,3.3-1.4,3.3-3.1c0-1.7-1.5-3.1-3.3-3.1s-3.2,1.4-3.2,3.1S139.4,40.2,141.2,40.2"/>
	</g>
</g>
</svg>
