<?xml version="1.0" encoding="utf-8"?>
<!-- Generator: Adobe Illustrator 23.0.1, SVG Export Plug-In . SVG Version: 6.00 Build 0)  -->
<svg version="1.1" id="Layer_1" xmlns="http://www.w3.org/2000/svg" xmlns:xlink="http://www.w3.org/1999/xlink" x="0px" y="0px"
	 viewBox="0 0 250 150" style="enable-background:new 0 0 250 150;" xml:space="preserve">
<style type="text/css">
	.st0{clip-path:url(#SVGID_2_);fill:#EBAF41;}
	.st1{clip-path:url(#SVGID_4_);fill:#EBAF41;}
	.st2{clip-path:url(#SVGID_6_);fill:#18243F;}
	.st3{clip-path:url(#SVGID_8_);fill:#EBAF41;}
	.st4{clip-path:url(#SVGID_10_);fill:#EBAF41;}
	.st5{clip-path:url(#SVGID_12_);fill:#18243F;}
	.st6{clip-path:url(#SVGID_14_);fill:#18243F;}
	.st7{clip-path:url(#SVGID_16_);fill:#18243F;}
	.st8{clip-path:url(#SVGID_18_);fill:#18243F;}
	.st9{clip-path:url(#SVGID_20_);fill:#EBAF41;}
	.st10{clip-path:url(#SVGID_22_);fill:#18243F;}
	.st11{clip-path:url(#SVGID_24_);fill:#18243F;}
	.st12{clip-path:url(#SVGID_26_);fill:#18243F;}
	.st13{clip-path:url(#SVGID_28_);fill:#EBAF41;}
	.st14{clip-path:url(#SVGID_30_);fill:#18243F;}
	.st15{clip-path:url(#SVGID_32_);fill:#EBAF41;}
	.st16{clip-path:url(#SVGID_34_);fill:#EBAF41;}
	.st17{clip-path:url(#SVGID_36_);fill:#EBAF41;}
	.st18{clip-path:url(#SVGID_38_);fill:#18243F;}
	.st19{clip-path:url(#SVGID_40_);fill:#18243F;}
	.st20{clip-path:url(#SVGID_42_);fill:#EBAF41;}
</style>
<g>
	<g>
		<g>
			<g>
				<g>
					<defs>
						<rect id="SVGID_1_" x="36.1" y="33" width="178.4" height="84"/>
					</defs>
					<clipPath id="SVGID_2_">
						<use xlink:href="#SVGID_1_"  style="overflow:visible;"/>
					</clipPath>
					<path class="st0" d="M135,42.1c1.1,0,1.9-0.8,1.9-1.8s-0.9-1.8-1.9-1.8s-1.9,0.8-1.9,1.8C132.9,41.2,133.8,42.1,135,42.1"/>
				</g>
			</g>
		</g>
		<g>
			<g>
				<g>
					<defs>
						<rect id="SVGID_3_" x="36.1" y="33" width="178.4" height="84"/>
					</defs>
					<clipPath id="SVGID_4_">
						<use xlink:href="#SVGID_3_"  style="overflow:visible;"/>
					</clipPath>
					<path class="st1" d="M115.7,42.1c1.1,0,1.9-0.8,1.9-1.8s-0.9-1.8-1.9-1.8s-1.9,0.8-1.9,1.8C113.9,41.2,114.8,42.1,115.7,42.1"
						/>
				</g>
			</g>
		</g>
		<g>
			<g>
				<g>
					<defs>
						<rect id="SVGID_5_" x="36.1" y="33" width="178.4" height="84"/>
					</defs>
					<clipPath id="SVGID_6_">
						<use xlink:href="#SVGID_5_"  style="overflow:visible;"/>
					</clipPath>
					<path class="st2" d="M106.3,55.6c1.1,0,1.9-0.8,1.9-1.8s-0.9-1.8-1.9-1.8c-1.1,0-1.9,0.8-1.9,1.8S105.2,55.6,106.3,55.6"/>
				</g>
			</g>
		</g>
		<g>
			<g>
				<g>
					<defs>
						<rect id="SVGID_7_" x="36.1" y="33" width="178.4" height="84"/>
					</defs>
					<clipPath id="SVGID_8_">
						<use xlink:href="#SVGID_7_"  style="overflow:visible;"/>
					</clipPath>
					<path class="st3" d="M125.3,74.5c1.6,0,2.9-1.3,2.9-2.7c0-1.4-1.3-2.7-2.9-2.7c-1.5,0-2.9,1.3-2.9,2.7
						C122.5,73.4,123.7,74.5,125.3,74.5"/>
				</g>
			</g>
		</g>
		<g>
			<g>
				<g>
					<defs>
						<rect id="SVGID_9_" x="36.1" y="33" width="178.4" height="84"/>
					</defs>
					<clipPath id="SVGID_10_">
						<use xlink:href="#SVGID_9_"  style="overflow:visible;"/>
					</clipPath>
					<path class="st4" d="M125.3,56.5c1.6,0,2.9-1.3,2.9-2.7c0-1.4-1.3-2.7-2.9-2.7c-1.5,0-2.9,1.3-2.9,2.7
						C122.5,55.3,123.7,56.5,125.3,56.5"/>
				</g>
			</g>
		</g>
		<g>
			<g>
				<g>
					<defs>
						<rect id="SVGID_11_" x="36.1" y="33" width="178.4" height="84"/>
					</defs>
					<clipPath id="SVGID_12_">
						<use xlink:href="#SVGID_11_"  style="overflow:visible;"/>
					</clipPath>
					<path class="st5" d="M106.3,47.5c1.6,0,2.9-1.3,2.9-2.7c0-1.4-1.3-2.7-2.9-2.7c-1.6,0-2.9,1.3-2.9,2.7
						C103.3,46.2,104.7,47.5,106.3,47.5"/>
				</g>
			</g>
		</g>
		<g>
			<g>
				<g>
					<defs>
						<rect id="SVGID_13_" x="36.1" y="33" width="178.4" height="84"/>
					</defs>
					<clipPath id="SVGID_14_">
						<use xlink:href="#SVGID_13_"  style="overflow:visible;"/>
					</clipPath>
					<path class="st6" d="M106.3,65.5c1.6,0,2.9-1.3,2.9-2.7c0-1.4-1.3-2.7-2.9-2.7c-1.6,0-2.9,1.3-2.9,2.7
						C103.3,64.3,104.7,65.5,106.3,65.5"/>
				</g>
			</g>
		</g>
		<g>
			<g>
				<g>
					<defs>
						<rect id="SVGID_15_" x="36.1" y="33" width="178.4" height="84"/>
					</defs>
					<clipPath id="SVGID_16_">
						<use xlink:href="#SVGID_15_"  style="overflow:visible;"/>
					</clipPath>
					<path class="st7" d="M144.5,47.5c1.6,0,2.9-1.3,2.9-2.7c0-1.4-1.3-2.7-2.9-2.7s-2.9,1.3-2.9,2.7
						C141.6,46.2,142.8,47.5,144.5,47.5"/>
				</g>
			</g>
		</g>
		<g>
			<g>
				<g>
					<defs>
						<rect id="SVGID_17_" x="36.1" y="33" width="178.4" height="84"/>
					</defs>
					<clipPath id="SVGID_18_">
						<use xlink:href="#SVGID_17_"  style="overflow:visible;"/>
					</clipPath>
					<path class="st8" d="M144.5,65.5c1.6,0,2.9-1.3,2.9-2.7c0-1.4-1.3-2.7-2.9-2.7s-2.9,1.3-2.9,2.7
						C141.6,64.3,142.8,65.5,144.5,65.5"/>
				</g>
			</g>
		</g>
		<g>
			<g>
				<g>
					<defs>
						<rect id="SVGID_19_" x="36.1" y="33" width="178.4" height="84"/>
					</defs>
					<clipPath id="SVGID_20_">
						<use xlink:href="#SVGID_19_"  style="overflow:visible;"/>
					</clipPath>
					<path class="st9" d="M125.3,38.3c1.6,0,2.9-1.3,2.9-2.7s-1.3-2.7-2.9-2.7c-1.5,0-2.9,1.3-2.9,2.7
						C122.5,37.2,123.7,38.3,125.3,38.3"/>
				</g>
			</g>
		</g>
		<g>
			<g>
				<g>
					<defs>
						<rect id="SVGID_21_" x="36.1" y="33" width="178.4" height="84"/>
					</defs>
					<clipPath id="SVGID_22_">
						<use xlink:href="#SVGID_21_"  style="overflow:visible;"/>
					</clipPath>
					<path class="st10" d="M115.7,59.7c0.9,0,1.5-0.7,1.5-1.4c0-0.7-0.7-1.4-1.5-1.4s-1.5,0.7-1.5,1.4
						C114.3,59,114.9,59.7,115.7,59.7"/>
				</g>
			</g>
		</g>
		<g>
			<g>
				<g>
					<defs>
						<rect id="SVGID_23_" x="36.1" y="33" width="178.4" height="84"/>
					</defs>
					<clipPath id="SVGID_24_">
						<use xlink:href="#SVGID_23_"  style="overflow:visible;"/>
					</clipPath>
					<path class="st11" d="M125.3,46.1c0.9,0,1.5-0.7,1.5-1.4c0-0.7-0.7-1.4-1.5-1.4s-1.5,0.7-1.5,1.4
						C123.8,45.6,124.5,46.1,125.3,46.1"/>
				</g>
			</g>
		</g>
		<g>
			<g>
				<g>
					<defs>
						<rect id="SVGID_25_" x="36.1" y="33" width="178.4" height="84"/>
					</defs>
					<clipPath id="SVGID_26_">
						<use xlink:href="#SVGID_25_"  style="overflow:visible;"/>
					</clipPath>
					<path class="st12" d="M135,50.7c0.9,0,1.5-0.7,1.5-1.4c0-0.7-0.7-1.4-1.5-1.4s-1.5,0.7-1.5,1.4C133.4,50.1,134.1,50.7,135,50.7
						"/>
				</g>
			</g>
		</g>
		<g>
			<g>
				<g>
					<defs>
						<rect id="SVGID_27_" x="36.1" y="33" width="178.4" height="84"/>
					</defs>
					<clipPath id="SVGID_28_">
						<use xlink:href="#SVGID_27_"  style="overflow:visible;"/>
					</clipPath>
					<path class="st13" d="M115.7,50.7c0.9,0,1.5-0.7,1.5-1.4c0-0.7-0.7-1.4-1.5-1.4s-1.5,0.7-1.5,1.4
						C114.3,50.1,114.9,50.7,115.7,50.7"/>
				</g>
			</g>
		</g>
		<g>
			<g>
				<g>
					<defs>
						<rect id="SVGID_29_" x="36.1" y="33" width="178.4" height="84"/>
					</defs>
					<clipPath id="SVGID_30_">
						<use xlink:href="#SVGID_29_"  style="overflow:visible;"/>
					</clipPath>
					<path class="st14" d="M144.5,55.6c1.1,0,1.9-0.8,1.9-1.8s-0.9-1.8-1.9-1.8s-1.9,0.8-1.9,1.8C142.6,54.8,143.3,55.6,144.5,55.6"
						/>
				</g>
			</g>
		</g>
		<g>
			<g>
				<g>
					<defs>
						<rect id="SVGID_31_" x="36.1" y="33" width="178.4" height="84"/>
					</defs>
					<clipPath id="SVGID_32_">
						<use xlink:href="#SVGID_31_"  style="overflow:visible;"/>
					</clipPath>
					<path class="st15" d="M135,69.1c1.1,0,1.9-0.8,1.9-1.8s-0.9-1.8-1.9-1.8s-1.9,0.8-1.9,1.8C132.9,68.4,133.8,69.1,135,69.1"/>
				</g>
			</g>
		</g>
		<g>
			<g>
				<g>
					<defs>
						<rect id="SVGID_33_" x="36.1" y="33" width="178.4" height="84"/>
					</defs>
					<clipPath id="SVGID_34_">
						<use xlink:href="#SVGID_33_"  style="overflow:visible;"/>
					</clipPath>
					<path class="st16" d="M115.7,69.1c1.1,0,1.9-0.8,1.9-1.8s-0.9-1.8-1.9-1.8s-1.9,0.8-1.9,1.8S114.8,69.1,115.7,69.1"/>
				</g>
			</g>
		</g>
		<g>
			<g>
				<g>
					<defs>
						<rect id="SVGID_35_" x="36.1" y="33" width="178.4" height="84"/>
					</defs>
					<clipPath id="SVGID_36_">
						<use xlink:href="#SVGID_35_"  style="overflow:visible;"/>
					</clipPath>
					<path class="st17" d="M135,59.7c0.9,0,1.5-0.7,1.5-1.4c0-0.7-0.7-1.4-1.5-1.4s-1.5,0.7-1.5,1.4C133.5,59,134.1,59.7,135,59.7"
						/>
				</g>
			</g>
		</g>
		<g>
			<g>
				<g>
					<defs>
						<rect id="SVGID_37_" x="36.1" y="33" width="178.4" height="84"/>
					</defs>
					<clipPath id="SVGID_38_">
						<use xlink:href="#SVGID_37_"  style="overflow:visible;"/>
					</clipPath>
					<path class="st18" d="M125.3,64.3c0.9,0,1.5-0.7,1.5-1.4c0-0.8-0.7-1.4-1.5-1.4s-1.5,0.7-1.5,1.4
						C123.8,63.6,124.5,64.3,125.3,64.3"/>
				</g>
			</g>
		</g>
		<g>
			<g>
				<g>
					<defs>
						<rect id="SVGID_39_" x="36.1" y="33" width="178.4" height="84"/>
					</defs>
					<clipPath id="SVGID_40_">
						<use xlink:href="#SVGID_39_"  style="overflow:visible;"/>
					</clipPath>
					<path class="st19" d="M99.5,99.3c1.2,0,2.1,0.3,2.9,1c0.8,0.7,1.3,1.5,1.3,2.6h-8.4c0.2-1.2,0.6-2,1.4-2.6
						C97.4,99.6,98.3,99.3,99.5,99.3 M106.9,104.1c0-1.5-0.3-2.9-1-3.9c-0.6-1.2-1.5-2-2.7-2.7c-1.2-0.6-2.4-1-3.8-1s-2.8,0.3-3.8,1
						c-1.2,0.6-2.1,1.5-2.7,2.7c-0.7,1.2-1,2.5-1,3.8c0,1.4,0.3,2.8,1,3.8c0.7,1.2,1.6,2,2.9,2.7c1.3,0.6,2.7,1,4.2,1
						c1.3,0,2.4-0.2,3.5-0.6c1-0.5,1.8-1,2.5-1.8l-1.8-2.2c-1.1,1.1-2.4,1.6-3.9,1.6c-1.3,0-2.4-0.3-3.3-1c-0.9-0.6-1.4-1.4-1.6-2.6
						h11.4C106.9,104.8,106.9,104.4,106.9,104.1 M90.8,108.2c-0.5,0.5-1.2,0.6-1.9,0.6c-0.7,0-1.2-0.2-1.5-0.6
						c-0.4-0.4-0.6-1-0.6-1.6v-6.9h3.8V97h-3.8v-3.5h-3.5V97h-2.5v2.8h2.5v7c0,1.6,0.5,2.9,1.3,3.7c0.9,0.9,2.2,1.3,3.7,1.3
						c0.6,0,1.3-0.1,1.8-0.3c0.6-0.2,1.1-0.5,1.4-0.8L90.8,108.2z M77.3,94.3c0.6,0,1.2-0.2,1.6-0.6c0.5-0.5,0.6-1,0.6-1.5
						c0-0.6-0.2-1.1-0.6-1.4c-0.5-0.4-1-0.6-1.6-0.6c-0.6,0-1.2,0.2-1.6,0.6c-0.5,0.4-0.6,0.9-0.6,1.4c0,0.6,0.2,1.2,0.6,1.4
						C76.2,94,76.7,94.3,77.3,94.3 M75.6,111.4h3.5V96.7h-3.5V111.4z M67.1,96.5c-1.2,0-2.1,0.2-3,0.6c-0.9,0.4-1.6,0.9-2.2,1.5
						v-1.9h-3.3v14.7h3.5V104c0-1.4,0.4-2.5,1.2-3.4c0.8-0.8,1.7-1.2,3.1-1.2c1.2,0,2,0.3,2.6,1c0.6,0.7,1,1.6,1,2.9v8h3.5v-8.4
						c0-2.2-0.6-3.7-1.6-4.8C70.5,97.1,69.1,96.5,67.1,96.5 M48.8,107.8c-1.3,0-2.4-0.4-3.3-1.2c-0.9-0.8-1.3-1.8-1.3-3.1
						s0.5-2.2,1.3-3.1c0.9-0.8,1.9-1.2,3.3-1.2s2.4,0.4,3.3,1.2c0.9,0.8,1.3,1.8,1.3,3.1s-0.5,2.3-1.3,3.1
						C51.3,107.4,50.1,107.8,48.8,107.8 M53.4,96.7v2c-0.6-0.8-1.3-1.3-2.2-1.6c-0.9-0.4-1.8-0.6-2.9-0.6c-1.4,0-2.7,0.3-3.7,0.9
						c-1.2,0.6-2,1.4-2.7,2.5c-0.7,1.2-1,2.4-1,3.7c0,1.4,0.3,2.7,1,3.7c0.7,1.1,1.5,1.9,2.7,2.5c1.2,0.6,2.4,1,3.7,1
						c1,0,2-0.2,2.8-0.5c0.9-0.3,1.5-0.8,2.2-1.4v0.8c0,1.5-0.4,2.7-1.2,3.5c-0.8,0.8-2,1.2-3.5,1.2c-1,0-2-0.2-3.1-0.5
						c-1.1-0.3-1.8-0.8-2.5-1.3l-1.5,2.6c0.8,0.7,1.9,1.3,3.2,1.5c1.3,0.4,2.6,0.6,4,0.6c5.3,0,7.9-2.6,7.9-7.8V97L53.4,96.7
						L53.4,96.7z M36.1,111.4h3.5V92.2h-3.5V111.4z"/>
				</g>
			</g>
		</g>
		<g>
			<g>
				<g>
					<defs>
						<rect id="SVGID_41_" x="36.1" y="33" width="178.4" height="84"/>
					</defs>
					<clipPath id="SVGID_42_">
						<use xlink:href="#SVGID_41_"  style="overflow:visible;"/>
					</clipPath>
					<path class="st20" d="M208.4,111.6c1.9,0,3.4-0.4,4.3-1.2s1.6-1.8,1.6-3.1c0-1-0.3-1.6-0.8-2.2c-0.5-0.6-1.2-1-1.8-1.2
						c-0.7-0.3-1.6-0.5-2.8-0.7c-1-0.2-1.6-0.3-2.2-0.5c-0.6-0.2-1-0.5-1.3-0.8c-0.4-0.3-0.6-0.8-0.6-1.3c0-0.8,0.3-1.3,1-1.7
						c0.6-0.5,1.6-0.7,2.9-0.7c1.6,0,3.1,0.5,4.2,1.3l0.9-1.6c-0.6-0.5-1.3-0.8-2.4-1c-1-0.3-1.9-0.4-2.9-0.4
						c-1.8,0-3.3,0.4-4.2,1.2c-1.1,0.8-1.5,1.8-1.5,3c0,1,0.3,1.7,0.8,2.3c0.5,0.6,1.2,1,1.8,1.2c0.8,0.3,1.6,0.5,2.9,0.7
						c0.9,0.1,1.6,0.3,2.2,0.5c0.6,0.2,1,0.4,1.3,0.7c0.3,0.3,0.6,0.8,0.6,1.3c0,0.8-0.3,1.3-1,1.8s-1.6,0.6-3,0.6
						c-1,0-2-0.1-2.9-0.5c-1-0.3-1.6-0.7-2.3-1.2l-0.9,1.5c0.6,0.5,1.4,1,2.5,1.3C206,111.4,207.3,111.6,208.4,111.6 M194.5,98.6
						c1.4,0,2.6,0.5,3.5,1.3c1,1,1.4,2,1.6,3.5h-10.3c0.1-1.4,0.7-2.6,1.6-3.5C191.8,99,193.1,98.6,194.5,98.6 M201.4,104.2
						c0-1.4-0.3-2.7-1-3.7c-0.7-1.2-1.4-2-2.5-2.6c-1.1-0.6-2.3-1-3.6-1c-1.3,0-2.6,0.3-3.6,1c-1.2,0.6-1.9,1.4-2.5,2.7
						c-0.6,1.2-1,2.4-1,3.7c0,1.4,0.3,2.7,1,3.7c0.6,1.2,1.5,2,2.7,2.7c1.2,0.7,2.5,1,3.8,1c1.2,0,2.2-0.2,3.3-0.6
						c1.1-0.4,1.8-1,2.4-1.8l-1.2-1.3c-0.6,0.6-1.3,1.2-2,1.4c-0.8,0.3-1.6,0.5-2.5,0.5c-1.6,0-3-0.5-3.9-1.4
						c-1.1-1-1.6-2.2-1.7-3.6h12.1L201.4,104.2L201.4,104.2z M180.6,111.6c1.3,0,2.4-0.3,3.4-0.8s1.8-1.3,2.4-2.2l-1.4-1
						c-0.5,0.8-1.2,1.3-1.8,1.6c-0.8,0.4-1.5,0.6-2.4,0.6c-1.1,0-2-0.3-2.9-0.7c-0.9-0.5-1.4-1.2-2-2c-0.5-0.9-0.7-1.8-0.7-3
						s0.3-2.1,0.7-3c0.5-0.9,1.2-1.5,2-2c0.9-0.5,1.8-0.7,2.9-0.7c0.9,0,1.6,0.2,2.4,0.6c0.8,0.4,1.3,1,1.8,1.6l1.4-1
						c-0.6-1-1.3-1.6-2.4-2.2c-1-0.5-2.1-0.8-3.5-0.8c-1.4,0-2.7,0.3-3.8,1c-1.2,0.6-2,1.4-2.7,2.7c-0.6,1.2-1,2.4-1,3.7
						c0,1.4,0.3,2.7,1,3.7c0.6,1.2,1.5,2,2.7,2.7C177.9,111.3,179.2,111.6,180.6,111.6 M169.6,93.7c0.5,0,0.8-0.1,1.1-0.5
						c0.3-0.3,0.5-0.6,0.5-1.1c0-0.4-0.1-0.7-0.5-1c-0.3-0.3-0.6-0.5-1.1-0.5c-0.5,0-0.8,0.1-1.1,0.5c-0.3,0.3-0.5,0.6-0.5,1
						c0,0.4,0.1,0.8,0.5,1C168.8,93.6,169.1,93.7,169.6,93.7 M168.5,111.4h2V97h-2V111.4z M164.9,97l-5.4,12.3L154.1,97h-2l6.4,14.4
						h2l6.4-14.4H164.9z M145.5,99.8V97h-1.9v14.4h2v-7.3c0-1.7,0.5-3.1,1.3-3.8c0.9-0.9,2.1-1.4,3.5-1.4h0.5V97
						c-1.3,0-2.5,0.3-3.5,0.8C146.8,98.1,146,98.8,145.5,99.8 M134,98.6c1.4,0,2.6,0.5,3.5,1.3c1,1,1.4,2,1.6,3.5h-10.2
						c0.1-1.4,0.7-2.6,1.6-3.5C131.5,98.9,132.6,98.6,134,98.6 M141,104.2c0-1.4-0.3-2.7-1-3.7c-0.7-1.2-1.4-2-2.5-2.6
						c-1.1-0.6-2.3-1-3.6-1c-1.4,0-2.6,0.3-3.6,1c-1.2,0.6-1.9,1.4-2.5,2.7c-0.6,1.2-1,2.4-1,3.7c0,1.4,0.3,2.7,1,3.7
						c0.6,1.2,1.5,2,2.7,2.7s2.5,1,3.8,1c1.2,0,2.2-0.2,3.3-0.6c1.1-0.4,1.8-1,2.4-1.8l-1.2-1.3c-0.6,0.6-1.3,1.2-2,1.4
						c-0.8,0.3-1.6,0.5-2.5,0.5c-1.6,0-3-0.5-3.9-1.4c-1.1-1-1.6-2.2-1.7-3.6h12.1L141,104.2L141,104.2z M118,111.6
						c1.6,0,2.9-0.3,3.9-0.7c1.2-0.5,1.9-1.2,2.4-1.9c0.6-0.8,0.8-1.6,0.8-2.7c0-1.2-0.3-2.1-1-2.9c-0.6-0.7-1.3-1.3-2.2-1.5
						c-0.9-0.4-2-0.7-3.5-1.1c-1.2-0.3-2.2-0.6-2.9-0.8c-0.8-0.3-1.3-0.6-1.8-1.2c-0.5-0.5-0.7-1.2-0.7-1.8c0-1.1,0.5-1.8,1.3-2.5
						c0.8-0.7,2.2-1,3.7-1c0.9,0,1.8,0.1,2.7,0.5c1,0.3,1.8,0.7,2.6,1.3l0.7-1.6c-0.8-0.6-1.6-1-2.8-1.3c-1.1-0.3-2.2-0.5-3.3-0.5
						c-1.6,0-2.9,0.3-3.9,0.8c-1.1,0.5-1.8,1.2-2.4,1.9c-0.5,0.8-0.8,1.6-0.8,2.7c0,1.2,0.3,2.2,1,2.9c0.6,0.7,1.3,1.3,2.2,1.5
						c0.9,0.4,2,0.7,3.5,1.1c1.3,0.3,2.2,0.6,2.9,0.8c0.7,0.3,1.3,0.6,1.7,1.1c0.5,0.5,0.7,1.2,0.7,1.8c0,1-0.5,1.8-1.3,2.5
						c-0.9,0.6-2.2,1-3.8,1c-1.3,0-2.5-0.3-3.5-0.7c-1.2-0.5-2.1-1-2.8-1.7l-0.8,1.6c0.8,0.8,1.7,1.3,3.1,1.8
						C115.2,111.4,116.6,111.6,118,111.6"/>
				</g>
			</g>
		</g>
	</g>
</g>
</svg>
