<?xml version="1.0" encoding="utf-8"?>
<!-- Generator: Adobe Illustrator 23.0.1, SVG Export Plug-In . SVG Version: 6.00 Build 0)  -->
<svg version="1.1" id="Layer_1" xmlns="http://www.w3.org/2000/svg" xmlns:xlink="http://www.w3.org/1999/xlink" x="0px" y="0px"
	 viewBox="0 0 156.9 24.3" style="enable-background:new 0 0 156.9 24.3;" xml:space="preserve">
<style type="text/css">
	.st0{fill:#004B93;}
	.st1{fill:#00AACD;}
	.st2{fill:#F08100;}
</style>
<path class="st0" d="M128.2,18.6l0.1-1.7l0,0c-0.4,1.1-1.5,1.8-3,1.8c-1.5,0-2.5-0.9-2.5-2.3c0-2.5,2.1-3.7,5.3-3.7v-0.1
	c0-1.1-0.5-1.7-1.9-1.7c-0.8,0-1.9,0.3-2.7,0.7l-0.2-1.6c0.9-0.3,2-0.6,3.1-0.6c2.7,0,3.5,1.2,3.5,3v4.9c0.4,0.1,1.1,0.3,1.1,0.3
	v0.8L128.2,18.6z M128.1,14.2c-2.8,0-3.5,0.8-3.5,2c0,0.7,0.5,1.1,1.3,1.1c1.3,0,2.2-1.3,2.2-2.5V14.2z"/>
<path class="st0" d="M126.3,8.2c-1,0-1.6-0.6-1.6-1.7c0-1.2,0.8-1.9,1.7-1.9c0.9,0,1.7,0.6,1.7,1.8C128.1,7.6,127.3,8.2,126.3,8.2z
	 M126.4,5.4c-0.4,0-0.7,0.4-0.7,1c0,0.7,0.2,1,0.7,1c0.4,0,0.8-0.2,0.8-0.9C127.2,5.8,126.9,5.4,126.4,5.4z"/>
<path class="st0" d="M36.4,7.2v3.6h4.7v1.8h-4.7v6.1h-2V5.5h7.3v1.7H36.4z"/>
<path class="st0" d="M46.3,18.8c-2.5,0-4.1-1.4-4.1-4.5c0-2.7,1.7-4.8,4.4-4.8c2.4,0,4.1,1.3,4.1,4.5C50.7,16.7,48.9,18.8,46.3,18.8
	z M46.5,11.1c-1.2,0-2.3,0.9-2.3,3c0,2,0.8,3.1,2.3,3.1c1.2,0,2.3-1,2.3-3.1C48.8,12.2,48,11.1,46.5,11.1z"/>
<path class="st0" d="M60.9,18.8c-0.7,0-1.3-0.1-1.9-0.2l0.1-1.6c0.6,0.2,1.3,0.3,1.9,0.3c1,0,1.8-0.4,1.8-1.2c0-1.8-3.9-0.7-3.9-3.8
	c0-1.5,1.3-2.8,3.7-2.8c0.5,0,1.1,0.1,1.7,0.2l-0.1,1.6C63.6,11.1,63,11,62.4,11c-1.1,0-1.6,0.4-1.6,1.1c0,1.7,3.9,0.8,3.9,3.8
	C64.8,17.6,63.3,18.8,60.9,18.8z"/>
<path class="st0" d="M71.7,18.6l-2.9-4.5l-0.1,0v4.5h-1.9v-13c-0.4-0.1-1.1-0.3-1.1-0.3V4.4c0,0,1.9-0.1,3,0v9.1l0.1,0l2.6-3.8h2.3
	l-3.1,4.1l3.6,4.8H71.7z"/>
<path class="st0" d="M77.3,11.4L77.3,11.4c0.6-1.1,1.6-1.9,3.1-1.9c2,0,2.7,1.3,2.7,2.9v6.2h-1.9v-5.7c0-1.1-0.3-1.8-1.3-1.8
	c-1.3,0-2.3,1.4-2.3,3.2v4.3h-1.9v-7.7c-0.4-0.1-1.1-0.2-1.1-0.2V9.8c0,0,1.9-0.1,3-0.1C77.5,10.2,77.4,10.9,77.3,11.4z"/>
<path class="st0" d="M87.8,18.6h-1.9v-7.7c-0.4-0.1-1.1-0.2-1.1-0.2V9.8c0,0,1.8-0.1,3-0.1V18.6z"/>
<path class="st0" d="M86.8,7.8c-0.7,0-1.2-0.5-1.2-1.2c0-0.7,0.6-1.2,1.2-1.2c0.7,0,1.2,0.5,1.2,1.2C88,7.2,87.5,7.8,86.8,7.8z"/>
<path class="st0" d="M92.3,11.4L92.3,11.4c0.6-1.1,1.6-1.9,3.1-1.9c2,0,2.7,1.3,2.7,2.9v6.2h-1.9v-5.7c0-1.1-0.3-1.8-1.3-1.8
	c-1.3,0-2.3,1.4-2.3,3.2v4.3h-1.9v-7.7c-0.4-0.1-1.1-0.2-1.1-0.2V9.8c0,0,1.8-0.1,2.9-0.1C92.4,10.2,92.4,10.9,92.3,11.4z"/>
<path class="st0" d="M111.4,18.8c-0.7,0-1.3-0.1-1.9-0.2l0.1-1.6c0.6,0.2,1.3,0.3,1.9,0.3c1,0,1.8-0.4,1.8-1.2
	c0-1.8-3.9-0.7-3.9-3.8c0-1.5,1.3-2.8,3.7-2.8c0.5,0,1.1,0.1,1.7,0.2l-0.1,1.6c-0.5-0.2-1.2-0.3-1.7-0.3c-1.1,0-1.6,0.4-1.6,1.1
	c0,1.7,3.9,0.8,3.9,3.8C115.3,17.6,113.8,18.8,111.4,18.8z"/>
<path class="st0" d="M119.1,11.7L119.1,11.7c0.5-1.2,1.5-2.3,3.2-2.2v1.9c-1.8-0.3-2.9,0.9-2.9,3.6v3.6h-1.9v-7.7
	c-0.4-0.1-1.2-0.2-1.2-0.2V9.8c0,0,2-0.1,3-0.1C119.3,10.2,119.2,11,119.1,11.7z"/>
<path class="st0" d="M138.4,18.6l0.1-1.7h0c-0.5,1.1-1.5,1.8-2.9,1.8c-2.2,0-3.3-1.7-3.3-4.3c0-3.1,1.8-5,4.7-5c0.4,0,0.9,0,1.3,0.1
	v-4c-0.4-0.1-1.2-0.3-1.2-0.3V4.4c0,0,2-0.1,3.1,0v13.1c0.4,0.1,1.2,0.3,1.2,0.3v0.8L138.4,18.6z M138.4,11.2
	c-0.5-0.1-1-0.2-1.4-0.2c-1.5,0-2.6,0.9-2.6,3.3c0,1.8,0.6,2.9,1.8,2.9c1.4,0,2.2-1.7,2.2-3.2V11.2z"/>
<path class="st0" d="M150.2,14.5h-5.7c-0.1,2.1,0.9,2.7,2.6,2.7c0.9,0,1.9-0.2,2.6-0.6l0.2,1.5c-0.9,0.4-2,0.6-3.1,0.6
	c-2.8,0-4.3-1.4-4.3-4.6c0-2.7,1.5-4.7,4.1-4.7c2.5,0,3.6,2,3.6,4.1C150.3,13.9,150.3,14.2,150.2,14.5z M146.6,10.9
	c-1.3,0-1.8,0.8-2,2.2h4C148.6,11.5,147.7,10.9,146.6,10.9z"/>
<path class="st0" d="M155.1,18.8c-1.9,0-2.5-0.7-2.5-2.7v-4.9H151V9.7h1.7V6.5l1.9-0.5v3.7h2.3v1.5h-2.3v4.3c0,1.3,0.3,1.7,1.2,1.7
	c0.4,0,0.8-0.1,1.2-0.1v1.6C156.4,18.7,155.7,18.8,155.1,18.8z"/>
<path class="st0" d="M108.8,20.9c0,2.5-2.3,3.3-4.4,3.3c-2.9,0-4.4-1.2-4.4-3.4c0-0.3,0-0.6,0.1-0.9l0-0.1h1.9l-0.1,0.2l0,0.1
	c-0.1,0.2-0.2,0.5-0.2,0.8c0,1.5,1.4,1.8,2.7,1.8c1.3,0,2.7-0.5,2.7-1.8c0-1.5-1.4-1.8-2.7-1.8c-1.3,0-3.2-0.5-3.2-1.7
	c0-0.6,0.6-1.3,1.2-1.6c-1.3-0.4-2-1.5-2-3.2c0-2.4,1.9-3.3,3.6-3.3c0.5,0,1,0.1,1.4,0.2l2.9-0.2l0.1,0l0,0.1l0,0.9l0,0.1l-0.1,0
	c0,0-1.1,0.3-1.5,0.4c0.3,0.5,0.7,1.1,0.7,1.8c0,2.3-1.4,3.1-3.5,3.5c-0.5,0.1-0.8,0.4-0.9,0.7c-0.1,0.2-0.1,0.3,0,0.4
	c0.2,0.3,1.1,0.3,1.5,0.3C108,17.6,108.8,19.4,108.8,20.9z M103.8,14.6c0.9,0,1.9-0.5,1.9-1.8c0-1.2-0.6-1.8-1.9-1.8
	c-0.9,0-2,0.5-2,1.8C101.8,14,102.5,14.6,103.8,14.6z"/>
<path class="st0" d="M54.7,11.7L54.7,11.7c0.5-1.2,1.5-2.3,3.2-2.2v1.9C56.1,11.1,55,12.3,55,15v3.6h-1.9v-7.7
	c-0.4-0.1-1.2-0.2-1.2-0.2V9.8c0,0,2-0.1,3-0.1C54.9,10.2,54.8,11,54.7,11.7z"/>
<path class="st0" d="M20.6,23.6l-6.5-11.2c-0.1-0.1-0.1-0.1-0.3-0.1c-0.1,0-0.2,0.1-0.2,0.1L7.2,23.7c0,0-0.1,0.1-0.1,0.2
	c0,0.2,0.1,0.3,0.3,0.3h13c0.1,0,0.3-0.1,0.3-0.3C20.7,23.8,20.7,23.7,20.6,23.6z"/>
<path class="st1" d="M20.4,0h-13C7.2,0,7.1,0.1,7.1,0.3c0,0.1,0,0.1,0.1,0.2l6.5,11.2c0,0.1,0.1,0.2,0.3,0.2c0.1,0,0.2-0.1,0.3-0.1
	c0,0,0,0,0,0l6.5-11.2c0-0.1,0.1-0.1,0.1-0.2C20.7,0.1,20.6,0,20.4,0z"/>
<path class="st2" d="M19.4,4.1C19.4,4.1,19.3,4.1,19.4,4.1c-0.2,0-0.2,0.1-0.2,0.2c0,0.1,0.1,0.2,0.1,0.2c2.9,1,4.9,2.8,4.9,4.8
	c0,2.5-3,4.6-7.2,5.4c-0.1,0-0.2,0.1-0.2,0.2c0,0,0,0.1,0,0.1c0.3,0.7,0.8,1.5,1.2,2.2c0.5,0.9,1.1,1.8,1.6,2.6
	c0.1,0.1,0.1,0.1,0.3,0.1c0,0,0.1,0,0.1,0c4.6-1.4,7.8-4.4,7.8-7.8C27.7,8.5,24.3,5.5,19.4,4.1z"/>
<path class="st2" d="M8.3,20C8.4,20,8.4,20,8.3,20c0.2,0,0.2-0.1,0.2-0.2c0-0.1-0.1-0.2-0.1-0.2c-2.9-1-4.9-2.8-4.9-4.8
	c0-2.5,3-4.6,7.2-5.4c0.1,0,0.2-0.1,0.2-0.2c0,0,0-0.1,0-0.1c-0.3-0.7-0.8-1.5-1.2-2.2C9.2,6,8.7,5.1,8.2,4.3C8.1,4.2,8,4.2,7.9,4.2
	c0,0-0.1,0-0.1,0C3.2,5.6,0,8.6,0,12C0,15.6,3.4,18.6,8.3,20z"/>
</svg>
