<svg xmlns="http://www.w3.org/2000/svg" viewBox="0 0 920.7 141.7"><path d="M748.3 108.6l.6-9.9c-2.4 6.3-8.7 10.5-17.5 10.5-8.7 0-14.7-5.1-14.7-13.5 0-14.7 12.3-21.7 31-21.7v-.6c0-6.3-3-9.9-11.1-9.9-4.8 0-11.1 1.8-15.6 4.2l-1.2-9.3c5.1-1.8 11.7-3.6 18.1-3.6 15.6 0 20.5 6.9 20.5 17.5v28.6c2.4.6 6.3 1.8 6.3 1.8v4.8l-16.4 1.1zm-.6-25.5c-16.2 0-20.5 4.8-20.5 11.7 0 4.2 3 6.3 7.5 6.3 7.5 0 12.9-7.5 12.9-14.7v-3.3zm-10.5-35.3c-5.7 0-9.3-3.6-9.3-9.9 0-6.9 4.8-11.1 9.9-11.1s9.9 3.6 9.9 10.5-4.8 10.5-10.5 10.5zm.6-16.2c-2.4 0-4.2 2.4-4.2 5.7 0 4.2 1.2 5.7 4.2 5.7 2.4 0 4.8-1.2 4.8-5.1-.3-3.9-2.1-6.3-4.8-6.3zM211.5 42.1v21.1h27.4v10.5h-27.4v35.8h-11.7V32.2h42.7v9.9h-31zm57.8 67.7c-14.7 0-24.1-8.1-24.1-26.2 0-15.6 9.9-28 25.6-28 14.1 0 24.1 7.5 24.1 26.2.3 15.7-10.3 28-25.6 28zm1.2-44.8c-6.9 0-13.5 5.1-13.5 17.5 0 11.7 4.8 18.1 13.5 18.1 6.9 0 13.5-5.7 13.5-18.1 0-11.2-4.8-17.5-13.5-17.5zm84.2 44.8c-4.2 0-7.5-.6-11.1-1.2l.6-9.3c3.6 1.2 7.5 1.8 11.1 1.8 5.7 0 10.5-2.4 10.5-6.9 0-10.5-22.9-4.2-22.9-22.3 0-8.7 7.5-16.2 21.7-16.2 3 0 6.3.6 9.9 1.2l-.6 9.3c-3.6-1.2-6.9-1.8-10.5-1.8-6.3 0-9.3 2.4-9.3 6.3 0 9.9 22.9 4.8 22.9 22.3.6 9.9-8.1 16.8-22.3 16.8zm63.2-1.2L401 82.4h-.6v26.2h-11.1V32.8c-2.4-.6-6.3-1.8-6.3-1.8v-5.1s11.1-.6 17.5 0v53.3h.6l15.3-22.3H430L411.9 81l21.1 28c-.6-.4-15.1-.4-15.1-.4zm32.8-42.1c3.6-6.3 9.3-11.1 18.1-11.1 11.7 0 15.6 7.5 15.6 16.9v36.1h-11.1V75.5c0-6.3-1.8-10.5-7.5-10.5-7.5 0-13.5 8.1-13.5 18.7V109h-11.1V63.8c-2.4-.6-6.3-1.2-6.3-1.2v-5.1s11.1-.6 17.5-.6c-.5 2.7-1.1 6.9-1.7 9.6zm61.4 42.1H501V63.5c-2.4-.6-6.3-1.2-6.3-1.2v-5.1s10.5-.6 17.5-.6v52zm-6-63.2c-4.2 0-6.9-3-6.9-6.9 0-4.2 3.6-6.9 6.9-6.9 4.2 0 6.9 3 6.9 6.9.3 3.6-2.7 6.9-6.9 6.9zm32.2 21.1c3.6-6.3 9.3-11.1 18.1-11.1 11.7 0 15.6 7.5 15.6 16.9v36.1h-11.1V75.5c0-6.3-1.8-10.5-7.5-10.5-7.5 0-13.5 8.1-13.5 18.7V109h-11.1V63.8c-2.4-.6-6.3-1.2-6.3-1.2v-5.1s10.5-.6 16.9-.6c-.5 2.7-.5 6.9-1.1 9.6zm111.6 43.3c-4.2 0-7.5-.6-11.1-1.2l.6-9.3c3.6 1.2 7.5 1.8 11.1 1.8 5.7 0 10.5-2.4 10.5-6.9 0-10.5-22.9-4.2-22.9-22.3 0-8.7 7.5-16.2 21.7-16.2 3 0 6.3.6 9.9 1.2l-.6 9.3c-3-1.2-6.9-1.8-9.9-1.8-6.3 0-9.3 2.4-9.3 6.3 0 9.9 22.9 4.8 22.9 22.3 0 9.9-8.7 16.8-22.9 16.8zm45.2-41.5c3-6.9 8.7-13.5 18.7-12.9v11.1c-10.5-1.8-16.9 5.1-16.9 21.1v21.1h-11.1V63.5c-2.4-.6-6.9-1.2-6.9-1.2v-5.1s11.7-.6 17.5-.6c-.1 3-.7 7.8-1.3 11.7zm112.8 40.3l.6-9.9c-3 6.3-8.7 10.5-16.9 10.5-12.9 0-19.3-9.9-19.3-25.3 0-18.1 10.5-29.2 27.4-29.2 2.4 0 5.1 0 7.5.6V31.9c-2.4-.6-6.9-1.8-6.9-1.8v-4.8s11.7-.6 18.1 0v76.4c2.4.6 6.9 1.8 6.9 1.8v4.8l-17.4.3zm0-43c-3-.6-5.7-1.2-8.1-1.2-8.7 0-15.3 5.1-15.3 19.3 0 10.5 3.6 16.9 10.5 16.9 8.1 0 12.9-9.9 12.9-18.7V65.6zm68.9 19.3h-33.4c-.6 12.3 5.1 15.6 15.3 15.6 5.1 0 11.1-1.2 15.3-3.6l1.2 8.7c-5.1 2.4-11.7 3.6-18.1 3.6-16.2 0-25.3-8.1-25.3-26.8 0-15.6 8.7-27.4 24.1-27.4 14.7 0 21.1 11.7 21.1 24.1.4 2.1.4 4-.2 5.8zm-21-21.1c-7.5 0-10.5 4.8-11.7 12.9h23.5c-.1-9.6-5.5-12.9-11.8-12.9zm49.6 46c-11.1 0-14.7-4.2-14.7-15.6V65.6h-9.3v-8.7h9.9V38.2l11.1-3v21.7H916v8.7h-13.5v25.3c0 7.5 1.8 9.9 6.9 9.9 2.4 0 4.8-.6 6.9-.6v9.3c-3.4-.3-7.3.3-10.9.3zm-270.5 12.4c0 14.7-13.5 19.3-25.6 19.3-16.9 0-25.6-6.9-25.6-19.9 0-1.8 0-3.6.6-5.1v-.6h11.1l-.6 1.2v.6c-.6 1.2-1.2 3-1.2 4.8 0 8.7 8.1 10.5 15.6 10.5s15.6-3 15.6-10.5c0-8.7-8.1-10.5-15.6-10.5s-18.7-3-18.7-9.9c0-3.6 3.6-7.5 6.9-9.3-7.5-2.4-11.7-8.7-11.7-18.7 0-14.1 11.1-19.3 21.1-19.3 3 0 5.7.6 8.1 1.2l16.9-1.2h.6v6.3h-.6s-6.3 1.8-8.7 2.4c1.8 3 4.2 6.3 4.2 10.5 0 13.5-8.1 18.1-20.5 20.5-3 .6-4.8 2.4-5.1 4.2-.6 1.2-.6 1.8 0 2.4 1.2 1.8 6.3 1.8 8.7 1.8 19.7 0 24.5 10.5 24.5 19.3zm-29.5-36.7c5.1 0 11.1-3 11.1-10.5 0-6.9-3.6-10.5-11.1-10.5-5.1 0-11.7 3-11.7 10.5.3 6.8 4.2 10.5 11.7 10.5zM318.6 68.3c3-6.9 8.7-13.5 18.7-12.9v11.1c-10.5-1.8-16.9 5.1-16.9 21.1v21.1h-11.1V63.5c-2.4-.6-6.9-1.2-6.9-1.2v-5.1s11.7-.6 17.5-.6c-.1 3-.7 7.8-1.3 11.7zm-199.5 69.5L81.2 72.5c-.6-.6-.6-.6-1.8-.6-.6 0-1.2.6-1.2.6l-37.3 66.2s-.6.6-.6 1.2c0 1.2.6 1.8 1.8 1.8h75.8c.6 0 1.8-.6 1.8-1.8 0-.9 0-1.5-.6-2.1z" fill="#004b93"/><path d="M117.9 0H42.1c-1.2 0-1.8.6-1.8 1.8 0 .6 0 .6.6 1.2l37.9 65.3c0 .6.6 1.2 1.8 1.2.6 0 1.2-.6 1.8-.6l37.9-65.6c0-.6.6-.6.6-1.2-1.2-1.5-1.8-2.1-3-2.1z" fill="#00aacd"/><path d="M112.2 24.1s-.6 0 0 0c-1.2 0-1.2.6-1.2 1.2s.6 1.2.6 1.2c16.9 5.7 28.6 16.2 28.6 28 0 14.7-17.5 26.8-42.1 31.6-.6 0-1.2.6-1.2 1.2v.6c1.8 4.2 4.8 8.7 6.9 12.9 3 5.1 6.3 10.5 9.3 15.3.6.6.6.6 1.8.6h.6c26.8-8.1 45.7-25.6 45.7-45.7-.6-21.3-20.4-38.8-49-46.9zm-65 92.7c.6 0 .6 0 0 0 1.2 0 1.2-.6 1.2-1.2s-.6-1.2-.6-1.2c-16.9-5.7-28.6-16.2-28.6-28 0-14.7 17.5-26.8 42.1-31.6.6 0 1.2-.6 1.2-1.2V53c-1.8-3.9-4.8-8.4-7.2-12.6-3-5.1-5.7-10.5-8.7-15.3-.6-.6-1.2-.6-1.8-.6h-.6C17.4 32.5-1.5 50-1.5 70.1c.3 21.1 20.1 38.5 48.7 46.7z" fill="#f08100"/></svg>