<?xml version="1.0" encoding="utf-8"?>
<!-- Generator: Adobe Illustrator 23.0.2, SVG Export Plug-In . SVG Version: 6.00 Build 0)  -->
<svg version="1.1" id="Layer_1" xmlns="http://www.w3.org/2000/svg" xmlns:xlink="http://www.w3.org/1999/xlink" x="0px" y="0px"
	 viewBox="0 0 412.5 141.7" style="enable-background:new 0 0 412.5 141.7;" xml:space="preserve">
<style type="text/css">
	.st0{fill:#D7282F;}
</style>
<g>
	<g>
		<polygon class="st0" points="117.5,0 117.5,83 88.5,44 52.4,44 117.5,132.2 146.9,132.2 146.9,0 		"/>
		<rect y="88.1" class="st0" width="29.4" height="44"/>
	</g>
	<g>
		<path d="M190.9,77V43.9h4.6V77L190.9,77L190.9,77z"/>
		<path d="M208.4,77H204V54.6h4.3v3.2c1.7-2.8,4.3-3.9,6.9-3.9c5.4,0,8,3.9,8,8.9V77h-4.4V63.5c0-3.1-1.3-5.6-5.2-5.6
			c-3.5,0-5.2,2.7-5.2,6.1L208.4,77L208.4,77z"/>
		<path d="M235.1,77h-4.4V54.6h4.3v3.2c1.7-2.8,4.3-3.9,6.9-3.9c5.4,0,8,3.9,8,8.9V77h-4.4V63.5c0-3.1-1.3-5.6-5.2-5.6
			c-3.5,0-5.2,2.7-5.2,6.1V77z"/>
		<path d="M278.4,65.8c0,6.9-4.7,11.9-11.4,11.9s-11.4-5.1-11.4-11.9c0-6.8,4.7-11.9,11.4-11.9S278.4,59,278.4,65.8z M274,65.8
			c0-5.2-3.2-8-7-8c-3.7,0-7,2.8-7,8s3.2,8,7,8C270.7,73.8,274,71,274,65.8z"/>
		<path d="M294,77h-4.4l-9.1-22.4h5l6.4,17.3l6.4-17.3h4.7L294,77z"/>
		<path d="M312.9,64.2l6.1-0.9c1.3-0.2,1.7-0.9,1.7-1.7c0-2.2-1.4-4-4.8-4c-3.1,0-4.8,1.9-5.1,4.5l-4.2-1c0.5-4.3,4.3-7.3,9.2-7.3
			c6.7,0,9.3,3.8,9.3,8.2v11.2c0,2,0.2,3.1,0.3,3.7H321c-0.1-0.6-0.3-1.4-0.3-3c-1,1.6-3.2,3.7-7.2,3.7c-4.6,0-7.5-3.1-7.5-6.7
			C306.1,67,309,64.8,312.9,64.2z M320.7,67.4v-1l-6.9,1c-1.9,0.3-3.2,1.3-3.2,3.4c0,1.7,1.4,3.2,3.7,3.2
			C317.8,74.1,320.7,72.3,320.7,67.4z"/>
		<path d="M334.2,69.8c0.3,2.3,2.1,4.2,5.2,4.2c2.5,0,3.8-1.4,3.8-3c0-1.4-1-2.5-2.9-2.9l-3.8-0.8c-3.5-0.7-5.6-3.1-5.6-6.3
			c0-3.8,3.6-7.1,8-7.1c6.1,0,8,4,8.5,6l-3.9,1.4c-0.2-1.2-1.1-3.7-4.6-3.7c-2.2,0-3.7,1.4-3.7,3c0,1.3,0.8,2.3,2.6,2.7l3.7,0.8
			c4.1,0.9,6.2,3.4,6.2,6.7c0,3.1-2.7,7-8.2,7c-6.1,0-8.8-4-9.1-6.6L334.2,69.8z"/>
		<path d="M353.8,54.6h4.4v25c0,4.1-2.3,7-6.2,7c-1.7,0-2.3-0.3-2.6-0.3v-3.7c0.3,0.1,0.7,0.2,1.4,0.2c2.3,0,3-1.2,3-3.2L353.8,54.6
			L353.8,54.6z M356,42.9c1.8,0,3.1,1.4,3.1,3.1c0,1.7-1.4,3.1-3.1,3.1c-1.7,0-3.1-1.4-3.1-3.1C352.8,44.3,354.2,42.9,356,42.9z"/>
		<path d="M387.2,65.8c0,6.9-4.7,11.9-11.5,11.9s-11.4-5.1-11.4-11.9c0-6.8,4.7-11.9,11.4-11.9C382.4,53.9,387.2,59,387.2,65.8z
			 M382.7,65.8c0-5.2-3.2-8-7-8c-3.7,0-7,2.8-7,8s3.2,8,7,8C379.5,73.8,382.7,71,382.7,65.8z"/>
		<path d="M397.7,77h-4.4V54.6h4.3v3.2c1.7-2.8,4.3-3.9,6.9-3.9c5.4,0,8,3.9,8,8.9V77h-4.4V63.5c0-3.1-1.3-5.6-5.2-5.6
			c-3.5,0-5.2,2.7-5.2,6.1L397.7,77L397.7,77z"/>
	</g>
	<g>
		<path d="M212.2,132.2l-15-23.5v23.5h-6.4V99.1h8l13.8,21.9V99.1h6.4v33.1H212.2z"/>
		<path d="M248.8,120.7c0,7.1-5.2,12.2-12,12.2s-12-5.1-12-12.2c0-7.1,5.2-12.2,12-12.2S248.8,113.6,248.8,120.7z M242.5,120.7
			c0-4.3-2.8-6.6-5.8-6.6s-5.8,2.2-5.8,6.6c0,4.3,2.8,6.6,5.8,6.6C239.7,127.2,242.5,125.1,242.5,120.7z"/>
		<path d="M268.1,115.4c-0.7-0.2-1.3-0.2-1.9-0.2c-3.1,0-5.9,1.5-5.9,6.5v10.5h-6.2v-23h6v3.4c1.4-3,4.6-3.6,6.6-3.6
			c0.5,0,1,0.1,1.4,0.1L268.1,115.4L268.1,115.4z"/>
		<path d="M276.7,131.9c0.4,2.5,2.4,4.3,5.4,4.3c3.9,0,6.1-2,6.1-6.4v-1.7c-0.9,1.5-3.1,2.9-6.4,2.9c-6.1,0-10.7-4.7-10.7-11.1
			c0-6.1,4.4-11.2,10.7-11.2c3.7,0,5.7,1.6,6.6,3.1v-2.7h6v20.5c0,6.3-3.4,12-12,12c-6.3,0-10.5-3.9-11.1-8.3L276.7,131.9z
			 M288.2,120c0-3.6-2.4-5.8-5.4-5.8c-3.1,0-5.5,2.2-5.5,5.8c0,3.6,2.3,5.8,5.5,5.8C286,125.8,288.2,123.6,288.2,120z"/>
		<path d="M321.6,125.6c-1.2,4-4.8,7.3-10.5,7.3c-6.3,0-11.9-4.5-11.9-12.3c0-7.3,5.4-12.1,11.3-12.1c7.1,0,11.3,4.5,11.3,11.9
			c0,0.9-0.1,1.8-0.1,1.9h-16.4c0.2,3,2.7,5.2,5.8,5.2c2.9,0,4.5-1.4,5.2-3.5L321.6,125.6z M315.8,118.1c-0.1-2.3-1.6-4.5-5.1-4.5
			c-3.2,0-5,2.4-5.1,4.5H315.8z"/>
	</g>
</g>
</svg>
