<svg xmlns="http://www.w3.org/2000/svg" viewBox="0 0 412.5 141.7"><path d="M117.5 0v83l-29-39H52.4l65.1 88.2h29.4V0zM0 88.1h29.4v44H0z" fill="#d7282f"/><path d="M190.9 77V43.9h4.6V77h-4.6zm17.5 0H204V54.6h4.3v3.2c1.7-2.8 4.3-3.9 6.9-3.9 5.4 0 8 3.9 8 8.9V77h-4.4V63.5c0-3.1-1.3-5.6-5.2-5.6-3.5 0-5.2 2.7-5.2 6.1v13zm26.7 0h-4.4V54.6h4.3v3.2c1.7-2.8 4.3-3.9 6.9-3.9 5.4 0 8 3.9 8 8.9V77h-4.4V63.5c0-3.1-1.3-5.6-5.2-5.6-3.5 0-5.2 2.7-5.2 6.1v13zm43.3-11.2c0 6.9-4.7 11.9-11.4 11.9s-11.4-5.1-11.4-11.9c0-6.8 4.7-11.9 11.4-11.9s11.4 5.1 11.4 11.9zm-4.4 0c0-5.2-3.2-8-7-8-3.7 0-7 2.8-7 8s3.2 8 7 8c3.7 0 7-2.8 7-8zM294 77h-4.4l-9.1-22.4h5l6.4 17.3 6.4-17.3h4.7L294 77zm18.9-12.8l6.1-.9c1.3-.2 1.7-.9 1.7-1.7 0-2.2-1.4-4-4.8-4-3.1 0-4.8 1.9-5.1 4.5l-4.2-1c.5-4.3 4.3-7.3 9.2-7.3 6.7 0 9.3 3.8 9.3 8.2v11.2c0 2 .2 3.1.3 3.7H321c-.1-.6-.3-1.4-.3-3-1 1.6-3.2 3.7-7.2 3.7-4.6 0-7.5-3.1-7.5-6.7.1-3.9 3-6.1 6.9-6.7zm7.8 3.2v-1l-6.9 1c-1.9.3-3.2 1.3-3.2 3.4 0 1.7 1.4 3.2 3.7 3.2 3.5.1 6.4-1.7 6.4-6.6zm13.5 2.4c.3 2.3 2.1 4.2 5.2 4.2 2.5 0 3.8-1.4 3.8-3 0-1.4-1-2.5-2.9-2.9l-3.8-.8c-3.5-.7-5.6-3.1-5.6-6.3 0-3.8 3.6-7.1 8-7.1 6.1 0 8 4 8.5 6l-3.9 1.4c-.2-1.2-1.1-3.7-4.6-3.7-2.2 0-3.7 1.4-3.7 3 0 1.3.8 2.3 2.6 2.7l3.7.8c4.1.9 6.2 3.4 6.2 6.7 0 3.1-2.7 7-8.2 7-6.1 0-8.8-4-9.1-6.6l3.8-1.4zm19.6-15.2h4.4v25c0 4.1-2.3 7-6.2 7-1.7 0-2.3-.3-2.6-.3v-3.7c.3.1.7.2 1.4.2 2.3 0 3-1.2 3-3.2v-25zm2.2-11.7c1.8 0 3.1 1.4 3.1 3.1 0 1.7-1.4 3.1-3.1 3.1-1.7 0-3.1-1.4-3.1-3.1-.1-1.7 1.3-3.1 3.1-3.1zm31.2 22.9c0 6.9-4.7 11.9-11.5 11.9s-11.4-5.1-11.4-11.9c0-6.8 4.7-11.9 11.4-11.9s11.5 5.1 11.5 11.9zm-4.5 0c0-5.2-3.2-8-7-8-3.7 0-7 2.8-7 8s3.2 8 7 8 7-2.8 7-8zm15 11.2h-4.4V54.6h4.3v3.2c1.7-2.8 4.3-3.9 6.9-3.9 5.4 0 8 3.9 8 8.9V77h-4.4V63.5c0-3.1-1.3-5.6-5.2-5.6-3.5 0-5.2 2.7-5.2 6.1v13zm-185.5 55.2l-15-23.5v23.5h-6.4V99.1h8l13.8 21.9V99.1h6.4v33.1h-6.8zm36.6-11.5c0 7.1-5.2 12.2-12 12.2s-12-5.1-12-12.2 5.2-12.2 12-12.2 12 5.1 12 12.2zm-6.3 0c0-4.3-2.8-6.6-5.8-6.6s-5.8 2.2-5.8 6.6c0 4.3 2.8 6.6 5.8 6.6 3-.1 5.8-2.2 5.8-6.6zm25.6-5.3c-.7-.2-1.3-.2-1.9-.2-3.1 0-5.9 1.5-5.9 6.5v10.5h-6.2v-23h6v3.4c1.4-3 4.6-3.6 6.6-3.6.5 0 1 .1 1.4.1v6.3zm8.6 16.5c.4 2.5 2.4 4.3 5.4 4.3 3.9 0 6.1-2 6.1-6.4v-1.7c-.9 1.5-3.1 2.9-6.4 2.9-6.1 0-10.7-4.7-10.7-11.1 0-6.1 4.4-11.2 10.7-11.2 3.7 0 5.7 1.6 6.6 3.1v-2.7h6v20.5c0 6.3-3.4 12-12 12-6.3 0-10.5-3.9-11.1-8.3l5.4-1.4zm11.5-11.9c0-3.6-2.4-5.8-5.4-5.8-3.1 0-5.5 2.2-5.5 5.8 0 3.6 2.3 5.8 5.5 5.8s5.4-2.2 5.4-5.8zm33.4 5.6c-1.2 4-4.8 7.3-10.5 7.3-6.3 0-11.9-4.5-11.9-12.3 0-7.3 5.4-12.1 11.3-12.1 7.1 0 11.3 4.5 11.3 11.9 0 .9-.1 1.8-.1 1.9h-16.4c.2 3 2.7 5.2 5.8 5.2 2.9 0 4.5-1.4 5.2-3.5l5.3 1.6zm-5.8-7.5c-.1-2.3-1.6-4.5-5.1-4.5-3.2 0-5 2.4-5.1 4.5h10.2z"/></svg>